<?xml version="1.0" encoding="UTF-8" standalone="no"?>
<!DOCTYPE svg PUBLIC "-//W3C//DTD SVG 1.1//EN"
 "http://www.w3.org/Graphics/SVG/1.1/DTD/svg11.dtd">
<!-- Generated by graphviz version 2.40.1 (20161225.0304)
 -->
<!-- Title: o2::soa::DefaultIndexPolicy Pages: 1 -->
<svg width="258pt" height="398pt"
 viewBox="0.00 0.00 258.00 398.00" xmlns="http://www.w3.org/2000/svg" xmlns:xlink="http://www.w3.org/1999/xlink">
<g id="graph0" class="graph" transform="scale(1 1) rotate(0) translate(4 394)">
<title>o2::soa::DefaultIndexPolicy</title>
<!-- Node2 -->
<g id="node1" class="node">
<title>Node2</title>
<polygon fill="#bfbfbf" stroke="#000000" points="0,-.5 0,-189.5 150,-189.5 150,-.5 0,-.5"/>
<text text-anchor="middle" x="75" y="-177.5" font-family="Helvetica,sans-Serif" font-size="10.00" fill="#000000">o2::soa::DefaultIndexPolicy</text>
<polyline fill="none" stroke="#000000" points="0,-170.5 150,-170.5 "/>
<text text-anchor="middle" x="75" y="-158.5" font-family="Helvetica,sans-Serif" font-size="10.00" fill="#000000"> </text>
<polyline fill="none" stroke="#000000" points="0,-151.5 150,-151.5 "/>
<text text-anchor="start" x="8" y="-139.5" font-family="Helvetica,sans-Serif" font-size="10.00" fill="#000000">+ DefaultIndexPolicy()</text>
<text text-anchor="start" x="8" y="-128.5" font-family="Helvetica,sans-Serif" font-size="10.00" fill="#000000">+ DefaultIndexPolicy()</text>
<text text-anchor="start" x="8" y="-117.5" font-family="Helvetica,sans-Serif" font-size="10.00" fill="#000000">+ DefaultIndexPolicy()</text>
<text text-anchor="start" x="8" y="-106.5" font-family="Helvetica,sans-Serif" font-size="10.00" fill="#000000">+ operator=()</text>
<text text-anchor="start" x="8" y="-95.5" font-family="Helvetica,sans-Serif" font-size="10.00" fill="#000000">+ operator=()</text>
<text text-anchor="start" x="8" y="-84.5" font-family="Helvetica,sans-Serif" font-size="10.00" fill="#000000">+ DefaultIndexPolicy()</text>
<text text-anchor="start" x="8" y="-73.5" font-family="Helvetica,sans-Serif" font-size="10.00" fill="#000000">+ limitRange()</text>
<text text-anchor="start" x="8" y="-62.5" font-family="Helvetica,sans-Serif" font-size="10.00" fill="#000000">+ getIndices()</text>
<text text-anchor="start" x="8" y="-51.5" font-family="Helvetica,sans-Serif" font-size="10.00" fill="#000000">+ setCursor()</text>
<text text-anchor="start" x="8" y="-40.5" font-family="Helvetica,sans-Serif" font-size="10.00" fill="#000000">+ moveByIndex()</text>
<text text-anchor="start" x="8" y="-29.5" font-family="Helvetica,sans-Serif" font-size="10.00" fill="#000000">+ moveToEnd()</text>
<text text-anchor="start" x="8" y="-18.5" font-family="Helvetica,sans-Serif" font-size="10.00" fill="#000000">+ operator!=()</text>
<text text-anchor="start" x="8" y="-7.5" font-family="Helvetica,sans-Serif" font-size="10.00" fill="#000000">+ operator==()</text>
</g>
<!-- Node3 -->
<g id="node2" class="node">
<title>Node3</title>
<g id="a_node2"><a xlink:href="../../d9/d4f/structo2_1_1soa_1_1IndexPolicyBase.html" target="_top" xlink:title="{o2::soa::IndexPolicyBase\n||}">
<polygon fill="none" stroke="#000000" points="112,-227.5 112,-284.5 250,-284.5 250,-227.5 112,-227.5"/>
<text text-anchor="middle" x="181" y="-272.5" font-family="Helvetica,sans-Serif" font-size="10.00" fill="#000000">o2::soa::IndexPolicyBase</text>
<polyline fill="none" stroke="#000000" points="112,-265.5 250,-265.5 "/>
<text text-anchor="middle" x="181" y="-253.5" font-family="Helvetica,sans-Serif" font-size="10.00" fill="#000000"> </text>
<polyline fill="none" stroke="#000000" points="112,-246.5 250,-246.5 "/>
<text text-anchor="middle" x="181" y="-234.5" font-family="Helvetica,sans-Serif" font-size="10.00" fill="#000000"> </text>
</a>
</g>
</g>
<!-- Node3&#45;&gt;Node2 -->
<g id="edge1" class="edge">
<title>Node3&#45;&gt;Node2</title>
<path fill="none" stroke="#191970" d="M156.438,-218.6935C150.5913,-209.8133 144.0888,-199.9367 137.379,-189.7455"/>
<polygon fill="none" stroke="#191970" points="153.6269,-220.7888 162.0493,-227.2164 159.4736,-216.9394 153.6269,-220.7888"/>
</g>
<!-- Node4 -->
<g id="node3" class="node">
<title>Node4</title>
<polygon fill="none" stroke="#bfbfbf" points="23,-332.5 23,-389.5 73,-389.5 73,-332.5 23,-332.5"/>
<text text-anchor="middle" x="48" y="-377.5" font-family="Helvetica,sans-Serif" font-size="10.00" fill="#000000">int64_t</text>
<polyline fill="none" stroke="#bfbfbf" points="23,-370.5 73,-370.5 "/>
<text text-anchor="middle" x="48" y="-358.5" font-family="Helvetica,sans-Serif" font-size="10.00" fill="#000000"> </text>
<polyline fill="none" stroke="#bfbfbf" points="23,-351.5 73,-351.5 "/>
<text text-anchor="middle" x="48" y="-339.5" font-family="Helvetica,sans-Serif" font-size="10.00" fill="#000000"> </text>
</g>
<!-- Node4&#45;&gt;Node2 -->
<g id="edge3" class="edge">
<title>Node4&#45;&gt;Node2</title>
<path fill="none" stroke="#404040" d="M44.7164,-332.1719C43.2611,-317.9863 41.7178,-300.6189 41,-285 39.8166,-259.2494 37.7594,-252.5733 41,-227 42.0515,-218.7024 43.4607,-210.1799 45.1088,-201.6527"/>
<polygon fill="none" stroke="#404040" points="45.1668,-201.3708 42.4583,-194.6876 47.5857,-189.6171 50.2941,-196.3002 45.1668,-201.3708"/>
<text text-anchor="middle" x="72" y="-253.5" font-family="Helvetica,sans-Serif" font-size="10.00" fill="#000000"> +mMaxRow</text>
</g>
<!-- Node4&#45;&gt;Node3 -->
<g id="edge2" class="edge">
<title>Node4&#45;&gt;Node3</title>
<path fill="none" stroke="#404040" d="M73.0163,-341.2503C90.4905,-327.4549 114.3276,-308.6361 135.1609,-292.1888"/>
<polygon fill="none" stroke="#404040" points="135.3772,-292.018 137.6079,-285.1606 144.7958,-284.5823 142.5651,-291.4397 135.3772,-292.018"/>
<text text-anchor="middle" x="152.5" y="-306" font-family="Helvetica,sans-Serif" font-size="10.00" fill="#000000"> +mRowIndex</text>
</g>
</g>
</svg>
