<?xml version="1.0" encoding="UTF-8" standalone="no"?>
<!DOCTYPE svg PUBLIC "-//W3C//DTD SVG 1.1//EN"
 "http://www.w3.org/Graphics/SVG/1.1/DTD/svg11.dtd">
<!-- Generated by graphviz version 2.40.1 (20161225.0304)
 -->
<!-- Title: o2::raw::RawFileReader::LinkBlock Pages: 1 -->
<svg width="261pt" height="226pt"
 viewBox="0.00 0.00 261.00 226.00" xmlns="http://www.w3.org/2000/svg" xmlns:xlink="http://www.w3.org/1999/xlink">
<g id="graph0" class="graph" transform="scale(1 1) rotate(0) translate(4 222)">
<title>o2::raw::RawFileReader::LinkBlock</title>
<!-- Node1 -->
<g id="node1" class="node">
<title>Node1</title>
<polygon fill="#bfbfbf" stroke="#000000" points="66.5,-.5 66.5,-90.5 195.5,-90.5 195.5,-.5 66.5,-.5"/>
<text text-anchor="start" x="74.5" y="-78.5" font-family="Helvetica,sans-Serif" font-size="10.00" fill="#000000">o2::raw::RawFileReader</text>
<text text-anchor="middle" x="131" y="-67.5" font-family="Helvetica,sans-Serif" font-size="10.00" fill="#000000">::LinkBlock</text>
<polyline fill="none" stroke="#000000" points="66.5,-60.5 195.5,-60.5 "/>
<text text-anchor="middle" x="131" y="-48.5" font-family="Helvetica,sans-Serif" font-size="10.00" fill="#000000"> </text>
<polyline fill="none" stroke="#000000" points="66.5,-41.5 195.5,-41.5 "/>
<text text-anchor="start" x="74.5" y="-29.5" font-family="Helvetica,sans-Serif" font-size="10.00" fill="#000000">+ LinkBlock()</text>
<text text-anchor="start" x="74.5" y="-18.5" font-family="Helvetica,sans-Serif" font-size="10.00" fill="#000000">+ LinkBlock()</text>
<text text-anchor="start" x="74.5" y="-7.5" font-family="Helvetica,sans-Serif" font-size="10.00" fill="#000000">+ print()</text>
</g>
<!-- Node2 -->
<g id="node2" class="node">
<title>Node2</title>
<polygon fill="none" stroke="#bfbfbf" points="0,-160.5 0,-217.5 56,-217.5 56,-160.5 0,-160.5"/>
<text text-anchor="middle" x="28" y="-205.5" font-family="Helvetica,sans-Serif" font-size="10.00" fill="#000000">uint16_t</text>
<polyline fill="none" stroke="#bfbfbf" points="0,-198.5 56,-198.5 "/>
<text text-anchor="middle" x="28" y="-186.5" font-family="Helvetica,sans-Serif" font-size="10.00" fill="#000000"> </text>
<polyline fill="none" stroke="#bfbfbf" points="0,-179.5 56,-179.5 "/>
<text text-anchor="middle" x="28" y="-167.5" font-family="Helvetica,sans-Serif" font-size="10.00" fill="#000000"> </text>
</g>
<!-- Node2&#45;&gt;Node1 -->
<g id="edge1" class="edge">
<title>Node2&#45;&gt;Node1</title>
<path fill="none" stroke="#404040" d="M34.5447,-160.2892C39.1131,-144.2444 46.3336,-124.4351 57,-109 59.2136,-105.7968 61.6267,-102.6566 64.1857,-99.5939"/>
<polygon fill="none" stroke="#404040" points="64.2111,-99.5657 65.2579,-92.431 72.2464,-90.6531 71.1996,-97.7879 64.2111,-99.5657"/>
<text text-anchor="middle" x="75.5" y="-123" font-family="Helvetica,sans-Serif" font-size="10.00" fill="#000000"> +fileID</text>
</g>
<!-- Node3 -->
<g id="node3" class="node">
<title>Node3</title>
<g id="a_node3"><a xlink:href="../../dd/de2/classsize__t.html" target="_top" xlink:title="{size_t\n||}">
<polygon fill="none" stroke="#000000" points="74.5,-160.5 74.5,-217.5 119.5,-217.5 119.5,-160.5 74.5,-160.5"/>
<text text-anchor="middle" x="97" y="-205.5" font-family="Helvetica,sans-Serif" font-size="10.00" fill="#000000">size_t</text>
<polyline fill="none" stroke="#000000" points="74.5,-198.5 119.5,-198.5 "/>
<text text-anchor="middle" x="97" y="-186.5" font-family="Helvetica,sans-Serif" font-size="10.00" fill="#000000"> </text>
<polyline fill="none" stroke="#000000" points="74.5,-179.5 119.5,-179.5 "/>
<text text-anchor="middle" x="97" y="-167.5" font-family="Helvetica,sans-Serif" font-size="10.00" fill="#000000"> </text>
</a>
</g>
</g>
<!-- Node3&#45;&gt;Node1 -->
<g id="edge2" class="edge">
<title>Node3&#45;&gt;Node1</title>
<path fill="none" stroke="#404040" d="M97.3415,-160.1298C98.068,-144.7559 99.8462,-125.6379 104,-109 104.5658,-106.7336 105.2021,-104.444 105.8949,-102.1479"/>
<polygon fill="none" stroke="#404040" points="105.9245,-102.0599 104.0545,-95.0955 109.764,-90.6907 111.634,-97.6552 105.9245,-102.0599"/>
<text text-anchor="middle" x="124" y="-123" font-family="Helvetica,sans-Serif" font-size="10.00" fill="#000000"> +offset</text>
</g>
<!-- Node4 -->
<g id="node4" class="node">
<title>Node4</title>
<polygon fill="none" stroke="#bfbfbf" points="138,-160.5 138,-217.5 194,-217.5 194,-160.5 138,-160.5"/>
<text text-anchor="middle" x="166" y="-205.5" font-family="Helvetica,sans-Serif" font-size="10.00" fill="#000000">uint32_t</text>
<polyline fill="none" stroke="#bfbfbf" points="138,-198.5 194,-198.5 "/>
<text text-anchor="middle" x="166" y="-186.5" font-family="Helvetica,sans-Serif" font-size="10.00" fill="#000000"> </text>
<polyline fill="none" stroke="#bfbfbf" points="138,-179.5 194,-179.5 "/>
<text text-anchor="middle" x="166" y="-167.5" font-family="Helvetica,sans-Serif" font-size="10.00" fill="#000000"> </text>
</g>
<!-- Node4&#45;&gt;Node1 -->
<g id="edge3" class="edge">
<title>Node4&#45;&gt;Node1</title>
<path fill="none" stroke="#404040" d="M159.0013,-160.3055C154.9514,-143.7007 149.7107,-122.2138 144.8603,-102.3271"/>
<polygon fill="none" stroke="#404040" points="144.827,-102.1903 139.5191,-97.3091 141.9834,-90.5321 147.2913,-95.4134 144.827,-102.1903"/>
<text text-anchor="middle" x="168.5" y="-123" font-family="Helvetica,sans-Serif" font-size="10.00" fill="#000000"> +size</text>
</g>
<!-- Node5 -->
<g id="node5" class="node">
<title>Node5</title>
<polygon fill="none" stroke="#bfbfbf" points="212,-160.5 212,-217.5 250,-217.5 250,-160.5 212,-160.5"/>
<text text-anchor="middle" x="231" y="-205.5" font-family="Helvetica,sans-Serif" font-size="10.00" fill="#000000">bool</text>
<polyline fill="none" stroke="#bfbfbf" points="212,-198.5 250,-198.5 "/>
<text text-anchor="middle" x="231" y="-186.5" font-family="Helvetica,sans-Serif" font-size="10.00" fill="#000000"> </text>
<polyline fill="none" stroke="#bfbfbf" points="212,-179.5 250,-179.5 "/>
<text text-anchor="middle" x="231" y="-167.5" font-family="Helvetica,sans-Serif" font-size="10.00" fill="#000000"> </text>
</g>
<!-- Node5&#45;&gt;Node1 -->
<g id="edge4" class="edge">
<title>Node5&#45;&gt;Node1</title>
<path fill="none" stroke="#404040" d="M217.6442,-160.2642C209.8468,-144.5802 199.3292,-125.1287 188,-109 185.8965,-106.0054 183.6682,-102.9974 181.3588,-100.0065"/>
<polygon fill="none" stroke="#404040" points="181.2767,-99.9044 174.4004,-97.7327 173.7604,-90.55 180.6367,-92.7218 181.2767,-99.9044"/>
<text text-anchor="middle" x="230" y="-134" font-family="Helvetica,sans-Serif" font-size="10.00" fill="#000000"> +startTF</text>
<text text-anchor="middle" x="230" y="-123" font-family="Helvetica,sans-Serif" font-size="10.00" fill="#000000">+startHB</text>
<text text-anchor="middle" x="230" y="-112" font-family="Helvetica,sans-Serif" font-size="10.00" fill="#000000">+startSP</text>
</g>
</g>
</svg>
