<?xml version="1.0" encoding="UTF-8" standalone="no"?>
<!DOCTYPE svg PUBLIC "-//W3C//DTD SVG 1.1//EN"
 "http://www.w3.org/Graphics/SVG/1.1/DTD/svg11.dtd">
<!-- Generated by graphviz version 2.40.1 (20161225.0304)
 -->
<!-- Title: o2::header::NameHeader&lt; N &gt; Pages: 1 -->
<!--zoomable 1037 -->
<svg id="main" version="1.1" xmlns="http://www.w3.org/2000/svg" xmlns:xlink="http://www.w3.org/1999/xlink" xml:space="preserve" onload="init(evt)">
<style type="text/css"><![CDATA[
.edge:hover path { stroke: red; }
.edge:hover polygon { stroke: red; fill: red; }
]]></style>
<script type="text/javascript"><![CDATA[
var edges = document.getElementsByTagName('g');
if (edges && edges.length) {
  for (var i=0;i<edges.length;i++) {
    if (edges[i].id.substr(0,4)=='edge') {
      edges[i].setAttribute('class','edge');
    }
  }
}
]]></script>
        <defs>
                <circle id="rim" cx="0" cy="0" r="7"/>
                <circle id="rim2" cx="0" cy="0" r="3.5"/>
                <g id="zoomPlus">
                        <use xlink:href="#rim" fill="#404040">
                                <set attributeName="fill" to="#808080" begin="zoomplus.mouseover" end="zoomplus.mouseout"/>
                        </use>
                        <path d="M-4,0h8M0,-4v8" fill="none" stroke="white" stroke-width="1.5" pointer-events="none"/>
                </g>
                <g id="zoomMin">
                        <use xlink:href="#rim" fill="#404040">
                                <set attributeName="fill" to="#808080" begin="zoomminus.mouseover" end="zoomminus.mouseout"/>
                        </use>
                        <path d="M-4,0h8" fill="none" stroke="white" stroke-width="1.5" pointer-events="none"/>
                </g>
                <g id="dirArrow">
                        <path fill="none" stroke="white" stroke-width="1.5" d="M0,-3.0v7 M-2.5,-0.5L0,-3.0L2.5,-0.5"/>
                </g>
               <g id="resetDef">
                       <use xlink:href="#rim2" fill="#404040">
                               <set attributeName="fill" to="#808080" begin="reset.mouseover" end="reset.mouseout"/>
                       </use>
               </g>
        </defs>

<script type="text/javascript">
var viewWidth = 1025;
var viewHeight = 1037;
var sectionId = 'dynsection-1';
</script>
<script xlink:href="../../svgpan.js"/>
<svg id="graph" class="graph">
<g id="viewport">
<title>o2::header::NameHeader&lt; N &gt;</title>
<!-- Node2 -->
<g id="node1" class="node">
<title>Node2</title>
<polygon fill="#bfbfbf" stroke="#000000" points="657.1103,-.5 657.1103,-112.5 826.1103,-112.5 826.1103,-.5 657.1103,-.5"/>
<text text-anchor="middle" x="741.6103" y="-100.5" font-family="Helvetica,sans-Serif" font-size="10.00" fill="#000000">o2::header::NameHeader&lt; N &gt;</text>
<polyline fill="none" stroke="#000000" points="657.1103,-93.5 826.1103,-93.5 "/>
<text text-anchor="middle" x="741.6103" y="-81.5" font-family="Helvetica,sans-Serif" font-size="10.00" fill="#000000"> </text>
<polyline fill="none" stroke="#000000" points="657.1103,-74.5 826.1103,-74.5 "/>
<text text-anchor="start" x="665.1103" y="-62.5" font-family="Helvetica,sans-Serif" font-size="10.00" fill="#000000">+ NameHeader()</text>
<text text-anchor="start" x="665.1103" y="-51.5" font-family="Helvetica,sans-Serif" font-size="10.00" fill="#000000">+ NameHeader()</text>
<text text-anchor="start" x="665.1103" y="-40.5" font-family="Helvetica,sans-Serif" font-size="10.00" fill="#000000">+ getName()</text>
<text text-anchor="start" x="665.1103" y="-29.5" font-family="Helvetica,sans-Serif" font-size="10.00" fill="#000000">+ getNameLength()</text>
<text text-anchor="start" x="665.1103" y="-18.5" font-family="Helvetica,sans-Serif" font-size="10.00" fill="#000000">+ sHeaderType()</text>
<text text-anchor="start" x="665.1103" y="-7.5" font-family="Helvetica,sans-Serif" font-size="10.00" fill="#000000">+ sHeaderType()</text>
</g>
<!-- Node3 -->
<g id="node2" class="node">
<title>Node3</title>
<g id="a_node2"><a xlink:href="../../d8/dbd/structo2_1_1header_1_1BaseHeader.html" target="_top" xlink:title="the base header struct Every header type must begin (i.e. derive) with this. Don&#39;t use this struct di...">
<polygon fill="none" stroke="#000000" points="403.6103,-150.5 403.6103,-295.5 537.6103,-295.5 537.6103,-150.5 403.6103,-150.5"/>
<text text-anchor="middle" x="470.6103" y="-283.5" font-family="Helvetica,sans-Serif" font-size="10.00" fill="#000000">o2::header::BaseHeader</text>
<polyline fill="none" stroke="#000000" points="403.6103,-276.5 537.6103,-276.5 "/>
<text text-anchor="middle" x="470.6103" y="-264.5" font-family="Helvetica,sans-Serif" font-size="10.00" fill="#000000"> </text>
<polyline fill="none" stroke="#000000" points="403.6103,-257.5 537.6103,-257.5 "/>
<text text-anchor="start" x="411.6103" y="-245.5" font-family="Helvetica,sans-Serif" font-size="10.00" fill="#000000">+ BaseHeader()</text>
<text text-anchor="start" x="411.6103" y="-234.5" font-family="Helvetica,sans-Serif" font-size="10.00" fill="#000000">+ BaseHeader()</text>
<text text-anchor="start" x="411.6103" y="-223.5" font-family="Helvetica,sans-Serif" font-size="10.00" fill="#000000">+ BaseHeader()</text>
<text text-anchor="start" x="411.6103" y="-212.5" font-family="Helvetica,sans-Serif" font-size="10.00" fill="#000000">+ size()</text>
<text text-anchor="start" x="411.6103" y="-201.5" font-family="Helvetica,sans-Serif" font-size="10.00" fill="#000000">+ data()</text>
<text text-anchor="start" x="411.6103" y="-190.5" font-family="Helvetica,sans-Serif" font-size="10.00" fill="#000000">+ next()</text>
<text text-anchor="start" x="411.6103" y="-179.5" font-family="Helvetica,sans-Serif" font-size="10.00" fill="#000000">+ next()</text>
<text text-anchor="start" x="411.6103" y="-168.5" font-family="Helvetica,sans-Serif" font-size="10.00" fill="#000000">+ get()</text>
<text text-anchor="start" x="411.6103" y="-157.5" font-family="Helvetica,sans-Serif" font-size="10.00" fill="#000000">+ get()</text>
</a>
</g>
</g>
<!-- Node3&#45;&gt;Node2 -->
<g id="edge1" class="edge">
<title>Node3&#45;&gt;Node2</title>
<path fill="none" stroke="#191970" d="M546.5307,-176.3552C580.8603,-155.2634 621.5607,-130.2574 656.8808,-108.5571"/>
<polygon fill="none" stroke="#191970" points="544.6355,-173.4118 537.9473,-181.6288 548.2999,-179.376 544.6355,-173.4118"/>
</g>
<!-- Node4 -->
<g id="node3" class="node">
<title>Node4</title>
<g id="a_node3"><a xlink:href="../../d9/db3/structo2_1_1header_1_1Descriptor.html" target="_top" xlink:title="{o2::header::Descriptor\l\&lt; gSizeHeaderDescriptionString \&gt;\n||+ Descriptor()\l+ Descriptor()\l+ Descriptor()\l+ Descriptor()\l+ operator=()\l+ operator ItgType()\l+ runtimeInit()\l+ operator==()\l+ operator==()\l+ operator\&lt;()\l+ operator!=()\l+ operator!=()\l+ as()\l+ print()\l}">
<polygon fill="none" stroke="#000000" points="33.1103,-398.5 33.1103,-609.5 218.1103,-609.5 218.1103,-398.5 33.1103,-398.5"/>
<text text-anchor="start" x="41.1103" y="-597.5" font-family="Helvetica,sans-Serif" font-size="10.00" fill="#000000">o2::header::Descriptor</text>
<text text-anchor="middle" x="125.6103" y="-586.5" font-family="Helvetica,sans-Serif" font-size="10.00" fill="#000000">&lt; gSizeHeaderDescriptionString &gt;</text>
<polyline fill="none" stroke="#000000" points="33.1103,-579.5 218.1103,-579.5 "/>
<text text-anchor="middle" x="125.6103" y="-567.5" font-family="Helvetica,sans-Serif" font-size="10.00" fill="#000000"> </text>
<polyline fill="none" stroke="#000000" points="33.1103,-560.5 218.1103,-560.5 "/>
<text text-anchor="start" x="41.1103" y="-548.5" font-family="Helvetica,sans-Serif" font-size="10.00" fill="#000000">+ Descriptor()</text>
<text text-anchor="start" x="41.1103" y="-537.5" font-family="Helvetica,sans-Serif" font-size="10.00" fill="#000000">+ Descriptor()</text>
<text text-anchor="start" x="41.1103" y="-526.5" font-family="Helvetica,sans-Serif" font-size="10.00" fill="#000000">+ Descriptor()</text>
<text text-anchor="start" x="41.1103" y="-515.5" font-family="Helvetica,sans-Serif" font-size="10.00" fill="#000000">+ Descriptor()</text>
<text text-anchor="start" x="41.1103" y="-504.5" font-family="Helvetica,sans-Serif" font-size="10.00" fill="#000000">+ operator=()</text>
<text text-anchor="start" x="41.1103" y="-493.5" font-family="Helvetica,sans-Serif" font-size="10.00" fill="#000000">+ operator ItgType()</text>
<text text-anchor="start" x="41.1103" y="-482.5" font-family="Helvetica,sans-Serif" font-size="10.00" fill="#000000">+ runtimeInit()</text>
<text text-anchor="start" x="41.1103" y="-471.5" font-family="Helvetica,sans-Serif" font-size="10.00" fill="#000000">+ operator==()</text>
<text text-anchor="start" x="41.1103" y="-460.5" font-family="Helvetica,sans-Serif" font-size="10.00" fill="#000000">+ operator==()</text>
<text text-anchor="start" x="41.1103" y="-449.5" font-family="Helvetica,sans-Serif" font-size="10.00" fill="#000000">+ operator&lt;()</text>
<text text-anchor="start" x="41.1103" y="-438.5" font-family="Helvetica,sans-Serif" font-size="10.00" fill="#000000">+ operator!=()</text>
<text text-anchor="start" x="41.1103" y="-427.5" font-family="Helvetica,sans-Serif" font-size="10.00" fill="#000000">+ operator!=()</text>
<text text-anchor="start" x="41.1103" y="-416.5" font-family="Helvetica,sans-Serif" font-size="10.00" fill="#000000">+ as()</text>
<text text-anchor="start" x="41.1103" y="-405.5" font-family="Helvetica,sans-Serif" font-size="10.00" fill="#000000">+ print()</text>
</a>
</g>
</g>
<!-- Node4&#45;&gt;Node3 -->
<g id="edge2" class="edge">
<title>Node4&#45;&gt;Node3</title>
<path fill="none" stroke="#404040" d="M206.2783,-398.0591C231.8444,-368.6175 261.5874,-338.135 292.6103,-314 322.6281,-290.6469 359.5618,-270.6129 391.9907,-255.3353"/>
<polygon fill="none" stroke="#404040" points="392.3607,-255.1644 396.1302,-249.017 403.2546,-250.1322 399.4851,-256.2796 392.3607,-255.1644"/>
<text text-anchor="middle" x="325.6103" y="-344.5" font-family="Helvetica,sans-Serif" font-size="10.00" fill="#000000"> +description</text>
</g>
<!-- Node5 -->
<g id="node4" class="node">
<title>Node5</title>
<polygon fill="none" stroke="#bfbfbf" points="258.1103,-971.5 258.1103,-1028.5 297.1103,-1028.5 297.1103,-971.5 258.1103,-971.5"/>
<text text-anchor="middle" x="277.6103" y="-1016.5" font-family="Helvetica,sans-Serif" font-size="10.00" fill="#000000">Type</text>
<polyline fill="none" stroke="#bfbfbf" points="258.1103,-1009.5 297.1103,-1009.5 "/>
<text text-anchor="middle" x="277.6103" y="-997.5" font-family="Helvetica,sans-Serif" font-size="10.00" fill="#000000"> </text>
<polyline fill="none" stroke="#bfbfbf" points="258.1103,-990.5 297.1103,-990.5 "/>
<text text-anchor="middle" x="277.6103" y="-978.5" font-family="Helvetica,sans-Serif" font-size="10.00" fill="#000000"> </text>
</g>
<!-- Node5&#45;&gt;Node4 -->
<g id="edge3" class="edge">
<title>Node5&#45;&gt;Node4</title>
<path fill="none" stroke="#404040" d="M258.5225,-971.1215C245.5849,-953.7741 226.9862,-932.6762 205.6103,-920 175.7533,-902.2943 151.2787,-929.1186 129.6103,-902 96.2433,-860.2402 101.7454,-723.5945 111.3228,-622.0013"/>
<polygon fill="none" stroke="#404040" points="111.3483,-621.7382 107.9472,-615.3795 112.5087,-609.7944 115.9098,-616.1531 111.3483,-621.7382"/>
<text text-anchor="middle" x="142.1103" y="-793.5" font-family="Helvetica,sans-Serif" font-size="10.00" fill="#000000"> +itg</text>
</g>
<!-- Node9 -->
<g id="node8" class="node">
<title>Node9</title>
<g id="a_node8"><a xlink:href="../../d9/db3/structo2_1_1header_1_1Descriptor.html" target="_top" xlink:title="{o2::header::Descriptor\l\&lt; N, PrinterPolicy \&gt;\n||+ Descriptor()\l+ Descriptor()\l+ Descriptor()\l+ operator=()\l+ operator ItgType()\l+ Descriptor()\l+ runtimeInit()\l+ operator==()\l+ operator\&lt;()\l+ operator!=()\l+ operator==()\l+ operator!=()\l+ as()\l+ print()\l}">
<polygon fill="none" stroke="#000000" points="223.1103,-690.5 223.1103,-901.5 348.1103,-901.5 348.1103,-690.5 223.1103,-690.5"/>
<text text-anchor="start" x="231.1103" y="-889.5" font-family="Helvetica,sans-Serif" font-size="10.00" fill="#000000">o2::header::Descriptor</text>
<text text-anchor="middle" x="285.6103" y="-878.5" font-family="Helvetica,sans-Serif" font-size="10.00" fill="#000000">&lt; N, PrinterPolicy &gt;</text>
<polyline fill="none" stroke="#000000" points="223.1103,-871.5 348.1103,-871.5 "/>
<text text-anchor="middle" x="285.6103" y="-859.5" font-family="Helvetica,sans-Serif" font-size="10.00" fill="#000000"> </text>
<polyline fill="none" stroke="#000000" points="223.1103,-852.5 348.1103,-852.5 "/>
<text text-anchor="start" x="231.1103" y="-840.5" font-family="Helvetica,sans-Serif" font-size="10.00" fill="#000000">+ Descriptor()</text>
<text text-anchor="start" x="231.1103" y="-829.5" font-family="Helvetica,sans-Serif" font-size="10.00" fill="#000000">+ Descriptor()</text>
<text text-anchor="start" x="231.1103" y="-818.5" font-family="Helvetica,sans-Serif" font-size="10.00" fill="#000000">+ Descriptor()</text>
<text text-anchor="start" x="231.1103" y="-807.5" font-family="Helvetica,sans-Serif" font-size="10.00" fill="#000000">+ operator=()</text>
<text text-anchor="start" x="231.1103" y="-796.5" font-family="Helvetica,sans-Serif" font-size="10.00" fill="#000000">+ operator ItgType()</text>
<text text-anchor="start" x="231.1103" y="-785.5" font-family="Helvetica,sans-Serif" font-size="10.00" fill="#000000">+ Descriptor()</text>
<text text-anchor="start" x="231.1103" y="-774.5" font-family="Helvetica,sans-Serif" font-size="10.00" fill="#000000">+ runtimeInit()</text>
<text text-anchor="start" x="231.1103" y="-763.5" font-family="Helvetica,sans-Serif" font-size="10.00" fill="#000000">+ operator==()</text>
<text text-anchor="start" x="231.1103" y="-752.5" font-family="Helvetica,sans-Serif" font-size="10.00" fill="#000000">+ operator&lt;()</text>
<text text-anchor="start" x="231.1103" y="-741.5" font-family="Helvetica,sans-Serif" font-size="10.00" fill="#000000">+ operator!=()</text>
<text text-anchor="start" x="231.1103" y="-730.5" font-family="Helvetica,sans-Serif" font-size="10.00" fill="#000000">+ operator==()</text>
<text text-anchor="start" x="231.1103" y="-719.5" font-family="Helvetica,sans-Serif" font-size="10.00" fill="#000000">+ operator!=()</text>
<text text-anchor="start" x="231.1103" y="-708.5" font-family="Helvetica,sans-Serif" font-size="10.00" fill="#000000">+ as()</text>
<text text-anchor="start" x="231.1103" y="-697.5" font-family="Helvetica,sans-Serif" font-size="10.00" fill="#000000">+ print()</text>
</a>
</g>
</g>
<!-- Node5&#45;&gt;Node9 -->
<g id="edge8" class="edge">
<title>Node5&#45;&gt;Node9</title>
<path fill="none" stroke="#404040" d="M277.6632,-971.4833C277.7681,-956.2095 278.022,-937.0745 278.6103,-920 278.6818,-917.9259 278.7578,-915.8324 278.8379,-913.7241"/>
<polygon fill="none" stroke="#404040" points="278.8467,-913.506 275.0957,-907.3473 279.338,-901.516 283.089,-907.6748 278.8467,-913.506"/>
<text text-anchor="middle" x="291.1103" y="-934" font-family="Helvetica,sans-Serif" font-size="10.00" fill="#000000"> +itg</text>
</g>
<!-- Node12 -->
<g id="node11" class="node">
<title>Node12</title>
<g id="a_node11"><a xlink:href="../../d9/db3/structo2_1_1header_1_1Descriptor.html" target="_top" xlink:title="{o2::header::Descriptor\l\&lt; gSizeSerializationMethodString \&gt;\n||+ Descriptor()\l+ Descriptor()\l+ Descriptor()\l+ Descriptor()\l+ operator=()\l+ operator ItgType()\l+ runtimeInit()\l+ operator==()\l+ operator==()\l+ operator\&lt;()\l+ operator!=()\l+ operator!=()\l+ as()\l+ print()\l}">
<polygon fill="none" stroke="#000000" points="486.1103,-398.5 486.1103,-609.5 677.1103,-609.5 677.1103,-398.5 486.1103,-398.5"/>
<text text-anchor="start" x="494.1103" y="-597.5" font-family="Helvetica,sans-Serif" font-size="10.00" fill="#000000">o2::header::Descriptor</text>
<text text-anchor="middle" x="581.6103" y="-586.5" font-family="Helvetica,sans-Serif" font-size="10.00" fill="#000000">&lt; gSizeSerializationMethodString &gt;</text>
<polyline fill="none" stroke="#000000" points="486.1103,-579.5 677.1103,-579.5 "/>
<text text-anchor="middle" x="581.6103" y="-567.5" font-family="Helvetica,sans-Serif" font-size="10.00" fill="#000000"> </text>
<polyline fill="none" stroke="#000000" points="486.1103,-560.5 677.1103,-560.5 "/>
<text text-anchor="start" x="494.1103" y="-548.5" font-family="Helvetica,sans-Serif" font-size="10.00" fill="#000000">+ Descriptor()</text>
<text text-anchor="start" x="494.1103" y="-537.5" font-family="Helvetica,sans-Serif" font-size="10.00" fill="#000000">+ Descriptor()</text>
<text text-anchor="start" x="494.1103" y="-526.5" font-family="Helvetica,sans-Serif" font-size="10.00" fill="#000000">+ Descriptor()</text>
<text text-anchor="start" x="494.1103" y="-515.5" font-family="Helvetica,sans-Serif" font-size="10.00" fill="#000000">+ Descriptor()</text>
<text text-anchor="start" x="494.1103" y="-504.5" font-family="Helvetica,sans-Serif" font-size="10.00" fill="#000000">+ operator=()</text>
<text text-anchor="start" x="494.1103" y="-493.5" font-family="Helvetica,sans-Serif" font-size="10.00" fill="#000000">+ operator ItgType()</text>
<text text-anchor="start" x="494.1103" y="-482.5" font-family="Helvetica,sans-Serif" font-size="10.00" fill="#000000">+ runtimeInit()</text>
<text text-anchor="start" x="494.1103" y="-471.5" font-family="Helvetica,sans-Serif" font-size="10.00" fill="#000000">+ operator==()</text>
<text text-anchor="start" x="494.1103" y="-460.5" font-family="Helvetica,sans-Serif" font-size="10.00" fill="#000000">+ operator==()</text>
<text text-anchor="start" x="494.1103" y="-449.5" font-family="Helvetica,sans-Serif" font-size="10.00" fill="#000000">+ operator&lt;()</text>
<text text-anchor="start" x="494.1103" y="-438.5" font-family="Helvetica,sans-Serif" font-size="10.00" fill="#000000">+ operator!=()</text>
<text text-anchor="start" x="494.1103" y="-427.5" font-family="Helvetica,sans-Serif" font-size="10.00" fill="#000000">+ operator!=()</text>
<text text-anchor="start" x="494.1103" y="-416.5" font-family="Helvetica,sans-Serif" font-size="10.00" fill="#000000">+ as()</text>
<text text-anchor="start" x="494.1103" y="-405.5" font-family="Helvetica,sans-Serif" font-size="10.00" fill="#000000">+ print()</text>
</a>
</g>
</g>
<!-- Node5&#45;&gt;Node12 -->
<g id="edge16" class="edge">
<title>Node5&#45;&gt;Node12</title>
<path fill="none" stroke="#404040" d="M293.7636,-971.2336C305.6701,-951.0613 321.4912,-926.57 331.6103,-920 370.22,-894.932 400.2168,-933.6857 433.6103,-902 503.7623,-835.4357 415.8552,-759.9704 482.6103,-690 503.007,-668.621 526.4474,-693.5996 546.6103,-672 559.8264,-657.8422 568.5874,-640.0415 574.3036,-621.361"/>
<polygon fill="none" stroke="#404040" points="574.3411,-621.2224 572.0509,-614.3846 577.4819,-609.6407 579.7721,-616.4785 574.3411,-621.2224"/>
<text text-anchor="middle" x="495.1103" y="-793.5" font-family="Helvetica,sans-Serif" font-size="10.00" fill="#000000"> +itg</text>
</g>
<!-- Node6 -->
<g id="node5" class="node">
<title>Node6</title>
<polygon fill="none" stroke="#bfbfbf" points="77.6103,-971.5 77.6103,-1028.5 115.6103,-1028.5 115.6103,-971.5 77.6103,-971.5"/>
<text text-anchor="middle" x="96.6103" y="-1016.5" font-family="Helvetica,sans-Serif" font-size="10.00" fill="#000000">char</text>
<polyline fill="none" stroke="#bfbfbf" points="77.6103,-1009.5 115.6103,-1009.5 "/>
<text text-anchor="middle" x="96.6103" y="-997.5" font-family="Helvetica,sans-Serif" font-size="10.00" fill="#000000"> </text>
<polyline fill="none" stroke="#bfbfbf" points="77.6103,-990.5 115.6103,-990.5 "/>
<text text-anchor="middle" x="96.6103" y="-978.5" font-family="Helvetica,sans-Serif" font-size="10.00" fill="#000000"> </text>
</g>
<!-- Node6&#45;&gt;Node3 -->
<g id="edge13" class="edge">
<title>Node6&#45;&gt;Node3</title>
<path fill="none" stroke="#404040" d="M95.4918,-971.3331C92.4453,-904.0388 82.3613,-738.018 55.6103,-690 49.4619,-678.9636 39.9149,-682.9479 33.6103,-672 -5.3636,-604.3219 -12.2987,-452.0294 23.6103,-398 65.7,-334.671 274.9133,-272.7062 391.6043,-242.3394"/>
<polygon fill="none" stroke="#404040" points="391.6699,-242.3225 396.4799,-236.95 403.2891,-239.3237 398.4791,-244.6962 391.6699,-242.3225"/>
<text text-anchor="middle" x="68.6103" y="-647.5" font-family="Helvetica,sans-Serif" font-size="10.00" fill="#000000"> +magicString</text>
</g>
<!-- Node6&#45;&gt;Node4 -->
<g id="edge4" class="edge">
<title>Node6&#45;&gt;Node4</title>
<path fill="none" stroke="#404040" d="M86.1213,-971.2975C79.6419,-952.0009 71.9481,-925.8322 68.6103,-902 55.5416,-808.6885 49.0506,-782.1696 68.6103,-690 70.4277,-681.4362 73.6001,-680.2207 76.6103,-672 82.5519,-655.7739 88.272,-638.4654 93.5757,-621.3563"/>
<polygon fill="none" stroke="#404040" points="93.6735,-621.0359 91.6005,-614.1291 97.1786,-609.5592 99.2516,-616.4659 93.6735,-621.0359"/>
<text text-anchor="middle" x="81.1103" y="-793.5" font-family="Helvetica,sans-Serif" font-size="10.00" fill="#000000"> +str</text>
</g>
<!-- Node6&#45;&gt;Node9 -->
<g id="edge9" class="edge">
<title>Node6&#45;&gt;Node9</title>
<path fill="none" stroke="#404040" d="M115.6463,-986.5472C128.0026,-977.5252 144.2347,-965.1176 157.6103,-953 177.8161,-934.6947 197.5228,-913.0777 215.1797,-891.8336"/>
<polygon fill="none" stroke="#404040" points="215.2724,-891.7204 215.9817,-884.5442 222.8786,-882.4389 222.1694,-889.615 215.2724,-891.7204"/>
<text text-anchor="middle" x="202.1103" y="-934" font-family="Helvetica,sans-Serif" font-size="10.00" fill="#000000"> +str</text>
</g>
<!-- Node6&#45;&gt;Node12 -->
<g id="edge17" class="edge">
<title>Node6&#45;&gt;Node12</title>
<path fill="none" stroke="#404040" d="M115.619,-974.861C128.9017,-955.8871 145.7813,-928.6494 154.6103,-902 173.8663,-843.8778 139.3666,-670.3259 183.6103,-628 205.5041,-607.0553 413.3195,-621.1069 474.2855,-609.215"/>
<polygon fill="none" stroke="#404040" points="474.4229,-609.1751 479.0668,-603.6584 485.9453,-605.8233 481.3013,-611.34 474.4229,-609.1751"/>
<text text-anchor="middle" x="175.1103" y="-793.5" font-family="Helvetica,sans-Serif" font-size="10.00" fill="#000000"> +str</text>
</g>
<!-- Node7 -->
<g id="node6" class="node">
<title>Node7</title>
<polygon fill="none" stroke="#bfbfbf" points="346.1103,-971.5 346.1103,-1028.5 453.1103,-1028.5 453.1103,-971.5 346.1103,-971.5"/>
<text text-anchor="middle" x="399.6103" y="-1016.5" font-family="Helvetica,sans-Serif" font-size="10.00" fill="#000000">anonymous:+@24</text>
<polyline fill="none" stroke="#bfbfbf" points="346.1103,-1009.5 453.1103,-1009.5 "/>
<text text-anchor="middle" x="399.6103" y="-997.5" font-family="Helvetica,sans-Serif" font-size="10.00" fill="#000000"> </text>
<polyline fill="none" stroke="#bfbfbf" points="346.1103,-990.5 453.1103,-990.5 "/>
<text text-anchor="middle" x="399.6103" y="-978.5" font-family="Helvetica,sans-Serif" font-size="10.00" fill="#000000"> </text>
</g>
<!-- Node7&#45;&gt;Node4 -->
<g id="edge5" class="edge">
<title>Node7&#45;&gt;Node4</title>
<path fill="none" stroke="#404040" d="M399.2095,-971.4694C397.4359,-892.2199 387.8134,-672.3226 335.6103,-628 300.959,-598.5795 274.244,-627.8846 229.4291,-610.3963"/>
<polygon fill="none" stroke="#404040" points="229.1762,-610.2792 222.0505,-611.3857 218.2885,-605.2337 225.4142,-604.1272 229.1762,-610.2792"/>
<text text-anchor="middle" x="412.6103" y="-793.5" font-family="Helvetica,sans-Serif" font-size="10.00" fill="#000000"> +@24</text>
</g>
<!-- Node7&#45;&gt;Node9 -->
<g id="edge10" class="edge">
<title>Node7&#45;&gt;Node9</title>
<path fill="none" stroke="#404040" d="M366.6869,-971.2817C361.2235,-965.574 355.9372,-959.3664 351.6103,-953 343.1515,-940.5542 335.4475,-926.8518 328.5324,-912.8842"/>
<polygon fill="none" stroke="#404040" points="328.3343,-912.47 322.1369,-908.7833 323.1564,-901.6446 329.3539,-905.3313 328.3343,-912.47"/>
<text text-anchor="middle" x="368.6103" y="-934" font-family="Helvetica,sans-Serif" font-size="10.00" fill="#000000"> +@24</text>
</g>
<!-- Node7&#45;&gt;Node12 -->
<g id="edge18" class="edge">
<title>Node7&#45;&gt;Node12</title>
<path fill="none" stroke="#404040" d="M453.2,-990.9874C500.8357,-979.634 566.6788,-954.7909 591.6103,-902 632.8254,-814.73 626.1046,-704.254 611.4787,-621.8503"/>
<polygon fill="none" stroke="#404040" points="611.4513,-621.702 606.4265,-616.5298 609.2681,-609.9022 614.293,-615.0744 611.4513,-621.702"/>
<text text-anchor="middle" x="639.6103" y="-793.5" font-family="Helvetica,sans-Serif" font-size="10.00" fill="#000000"> +@24</text>
</g>
<!-- Node8 -->
<g id="node7" class="node">
<title>Node8</title>
<polygon fill="none" stroke="#bfbfbf" points="671.6103,-971.5 671.6103,-1028.5 715.6103,-1028.5 715.6103,-971.5 671.6103,-971.5"/>
<text text-anchor="middle" x="693.6103" y="-1016.5" font-family="Helvetica,sans-Serif" font-size="10.00" fill="#000000">static</text>
<polyline fill="none" stroke="#bfbfbf" points="671.6103,-1009.5 715.6103,-1009.5 "/>
<text text-anchor="middle" x="693.6103" y="-997.5" font-family="Helvetica,sans-Serif" font-size="10.00" fill="#000000"> </text>
<polyline fill="none" stroke="#bfbfbf" points="671.6103,-990.5 715.6103,-990.5 "/>
<text text-anchor="middle" x="693.6103" y="-978.5" font-family="Helvetica,sans-Serif" font-size="10.00" fill="#000000"> </text>
</g>
<!-- Node8&#45;&gt;Node2 -->
<g id="edge23" class="edge">
<title>Node8&#45;&gt;Node2</title>
<path fill="none" stroke="#404040" d="M715.8974,-991.2359C770.3275,-968.2046 905.6103,-900.4551 905.6103,-796 905.6103,-796 905.6103,-796 905.6103,-223 905.6103,-176.4431 872.6615,-138.1712 836.301,-110.1109"/>
<polygon fill="none" stroke="#404040" points="836.1301,-109.9841 828.9281,-109.6217 826.4926,-102.8343 833.6946,-103.1967 836.1301,-109.9841"/>
<text text-anchor="middle" x="961.1103" y="-512.5" font-family="Helvetica,sans-Serif" font-size="10.00" fill="#000000"> +sHeaderType</text>
<text text-anchor="middle" x="961.1103" y="-501.5" font-family="Helvetica,sans-Serif" font-size="10.00" fill="#000000">+sSerializationMethod</text>
<text text-anchor="middle" x="961.1103" y="-490.5" font-family="Helvetica,sans-Serif" font-size="10.00" fill="#000000">+sVersion</text>
</g>
<!-- Node8&#45;&gt;Node3 -->
<g id="edge22" class="edge">
<title>Node8&#45;&gt;Node3</title>
<path fill="none" stroke="#404040" d="M715.8339,-971.3576C728.9094,-952.7166 744.2779,-927.2515 751.6103,-902 769.8342,-839.2405 804.4172,-366.5822 765.6103,-314 739.8183,-279.0525 628.4366,-251.8804 550.1811,-236.6465"/>
<polygon fill="none" stroke="#404040" points="549.711,-236.5568 543.0669,-239.3597 537.9242,-234.3047 544.5683,-231.5018 549.711,-236.5568"/>
<text text-anchor="middle" x="834.1103" y="-664" font-family="Helvetica,sans-Serif" font-size="10.00" fill="#000000"> +sMagicString</text>
<text text-anchor="middle" x="834.1103" y="-653" font-family="Helvetica,sans-Serif" font-size="10.00" fill="#000000">+sHeaderType</text>
<text text-anchor="middle" x="834.1103" y="-642" font-family="Helvetica,sans-Serif" font-size="10.00" fill="#000000">+sSerializationMethod</text>
<text text-anchor="middle" x="834.1103" y="-631" font-family="Helvetica,sans-Serif" font-size="10.00" fill="#000000">+sVersion</text>
</g>
<!-- Node8&#45;&gt;Node4 -->
<g id="edge6" class="edge">
<title>Node8&#45;&gt;Node4</title>
<path fill="none" stroke="#404040" d="M671.4288,-994.2261C634.4313,-983.2755 561.0863,-955.6371 529.6103,-902 521.9028,-888.8658 532.2063,-638.9379 521.6103,-628 500.4572,-606.1643 291.1556,-621.1984 230.0841,-609.2459"/>
<polygon fill="none" stroke="#404040" points="229.9399,-609.2036 223.0551,-611.3483 218.4273,-605.818 225.3121,-603.6733 229.9399,-609.2036"/>
<text text-anchor="middle" x="558.6103" y="-804.5" font-family="Helvetica,sans-Serif" font-size="10.00" fill="#000000"> +arraySize</text>
<text text-anchor="middle" x="558.6103" y="-793.5" font-family="Helvetica,sans-Serif" font-size="10.00" fill="#000000">+size</text>
<text text-anchor="middle" x="558.6103" y="-782.5" font-family="Helvetica,sans-Serif" font-size="10.00" fill="#000000">+bitcount</text>
</g>
<!-- Node8&#45;&gt;Node9 -->
<g id="edge11" class="edge">
<title>Node8&#45;&gt;Node9</title>
<path fill="none" stroke="#404040" d="M671.5427,-998.0852C616.1228,-992.3325 468.5308,-971.0855 370.6103,-902 366.0974,-898.816 361.6989,-895.3277 357.4318,-891.6175"/>
<polygon fill="none" stroke="#404040" points="357.1136,-891.323 349.9931,-890.1834 348.3064,-883.1723 355.4269,-884.3119 357.1136,-891.323"/>
<text text-anchor="middle" x="496.6103" y="-945" font-family="Helvetica,sans-Serif" font-size="10.00" fill="#000000"> +arraySize</text>
<text text-anchor="middle" x="496.6103" y="-934" font-family="Helvetica,sans-Serif" font-size="10.00" fill="#000000">+size</text>
<text text-anchor="middle" x="496.6103" y="-923" font-family="Helvetica,sans-Serif" font-size="10.00" fill="#000000">+bitcount</text>
</g>
<!-- Node8&#45;&gt;Node12 -->
<g id="edge19" class="edge">
<title>Node8&#45;&gt;Node12</title>
<path fill="none" stroke="#404040" d="M693.188,-971.3637C691.8204,-916.1662 686.036,-791.5266 661.6103,-690 654.6987,-661.2717 649.0287,-655.2526 637.6103,-628 636.6298,-625.6597 635.6329,-623.2974 634.6228,-620.9192"/>
<polygon fill="none" stroke="#404040" points="634.5393,-620.7243 628.4987,-616.7859 629.8109,-609.6952 635.8515,-613.6336 634.5393,-620.7243"/>
<text text-anchor="middle" x="718.6103" y="-804.5" font-family="Helvetica,sans-Serif" font-size="10.00" fill="#000000"> +arraySize</text>
<text text-anchor="middle" x="718.6103" y="-793.5" font-family="Helvetica,sans-Serif" font-size="10.00" fill="#000000">+size</text>
<text text-anchor="middle" x="718.6103" y="-782.5" font-family="Helvetica,sans-Serif" font-size="10.00" fill="#000000">+bitcount</text>
</g>
<!-- Node9&#45;&gt;Node4 -->
<g id="edge7" class="edge">
<title>Node9&#45;&gt;Node4</title>
<path fill="none" stroke="#ffa500" d="M217.5903,-695.8704C212.718,-687.8796 208.0012,-679.8596 203.6103,-672 192.5535,-652.2084 181.671,-630.5766 171.7055,-609.619"/>
<polygon fill="#ffa500" stroke="#ffa500" points="214.6991,-697.85 222.9303,-704.5208 220.6556,-694.173 214.6991,-697.85"/>
<text text-anchor="start" x="203.6103" y="-653" font-family="Helvetica,sans-Serif" font-size="10.00" fill="#000000"> &lt; gSizeHeaderDescription</text>
<text text-anchor="middle" x="269.6103" y="-642" font-family="Helvetica,sans-Serif" font-size="10.00" fill="#000000">String &gt;</text>
</g>
<!-- Node9&#45;&gt;Node12 -->
<g id="edge20" class="edge">
<title>Node9&#45;&gt;Node12</title>
<path fill="none" stroke="#ffa500" d="M351.9593,-682.5328C368.2685,-661.9833 387.2707,-642.5055 408.6103,-628 434.8212,-610.1833 450.1865,-625.8864 477.6103,-610 480.3989,-608.3846 483.163,-606.6743 485.8986,-604.8821"/>
<polygon fill="#ffa500" stroke="#ffa500" points="349.1846,-680.3995 345.8413,-690.453 354.7243,-684.6787 349.1846,-680.3995"/>
<text text-anchor="start" x="408.6103" y="-653" font-family="Helvetica,sans-Serif" font-size="10.00" fill="#000000"> &lt; gSizeSerializationMethod</text>
<text text-anchor="middle" x="477.6103" y="-642" font-family="Helvetica,sans-Serif" font-size="10.00" fill="#000000">String &gt;</text>
</g>
<!-- Node10 -->
<g id="node9" class="node">
<title>Node10</title>
<polygon fill="none" stroke="#bfbfbf" points="236.1103,-475.5 236.1103,-532.5 343.1103,-532.5 343.1103,-475.5 236.1103,-475.5"/>
<text text-anchor="middle" x="289.6103" y="-520.5" font-family="Helvetica,sans-Serif" font-size="10.00" fill="#000000">anonymous:+@26</text>
<polyline fill="none" stroke="#bfbfbf" points="236.1103,-513.5 343.1103,-513.5 "/>
<text text-anchor="middle" x="289.6103" y="-501.5" font-family="Helvetica,sans-Serif" font-size="10.00" fill="#000000"> </text>
<polyline fill="none" stroke="#bfbfbf" points="236.1103,-494.5 343.1103,-494.5 "/>
<text text-anchor="middle" x="289.6103" y="-482.5" font-family="Helvetica,sans-Serif" font-size="10.00" fill="#000000"> </text>
</g>
<!-- Node10&#45;&gt;Node3 -->
<g id="edge12" class="edge">
<title>Node10&#45;&gt;Node3</title>
<path fill="none" stroke="#404040" d="M305.3588,-475.4185C326.4063,-437.7294 365.3876,-369.6744 402.6103,-314 404.5115,-311.1564 406.4672,-308.2805 408.4612,-305.3895"/>
<polygon fill="none" stroke="#404040" points="408.483,-305.3584 408.6476,-298.1491 415.3656,-295.5283 415.201,-302.7375 408.483,-305.3584"/>
<text text-anchor="middle" x="419.6103" y="-344.5" font-family="Helvetica,sans-Serif" font-size="10.00" fill="#000000"> +@26</text>
</g>
<!-- Node11 -->
<g id="node10" class="node">
<title>Node11</title>
<polygon fill="none" stroke="#bfbfbf" points="361.1103,-475.5 361.1103,-532.5 468.1103,-532.5 468.1103,-475.5 361.1103,-475.5"/>
<text text-anchor="middle" x="414.6103" y="-520.5" font-family="Helvetica,sans-Serif" font-size="10.00" fill="#000000">anonymous:+@28</text>
<polyline fill="none" stroke="#bfbfbf" points="361.1103,-513.5 468.1103,-513.5 "/>
<text text-anchor="middle" x="414.6103" y="-501.5" font-family="Helvetica,sans-Serif" font-size="10.00" fill="#000000"> </text>
<polyline fill="none" stroke="#bfbfbf" points="361.1103,-494.5 468.1103,-494.5 "/>
<text text-anchor="middle" x="414.6103" y="-482.5" font-family="Helvetica,sans-Serif" font-size="10.00" fill="#000000"> </text>
</g>
<!-- Node11&#45;&gt;Node3 -->
<g id="edge14" class="edge">
<title>Node11&#45;&gt;Node3</title>
<path fill="none" stroke="#404040" d="M420.3401,-475.2486C428.1346,-436.1372 442.4084,-364.5132 453.76,-307.5527"/>
<polygon fill="none" stroke="#404040" points="453.7891,-307.406 451.039,-300.7399 456.1345,-295.6374 458.8847,-302.3035 453.7891,-307.406"/>
<text text-anchor="middle" x="467.6103" y="-344.5" font-family="Helvetica,sans-Serif" font-size="10.00" fill="#000000"> +@28</text>
</g>
<!-- Node12&#45;&gt;Node3 -->
<g id="edge15" class="edge">
<title>Node12&#45;&gt;Node3</title>
<path fill="none" stroke="#404040" d="M539.8042,-398.1664C527.8684,-367.9506 515.0313,-335.4531 503.6942,-306.7529"/>
<polygon fill="none" stroke="#404040" points="503.6731,-306.6994 497.7485,-302.5886 499.2644,-295.5386 505.189,-299.6494 503.6731,-306.6994"/>
<text text-anchor="middle" x="564.6103" y="-344.5" font-family="Helvetica,sans-Serif" font-size="10.00" fill="#000000"> +serialization</text>
</g>
<!-- Node13 -->
<g id="node12" class="node">
<title>Node13</title>
<polygon fill="none" stroke="#bfbfbf" points="695.6103,-475.5 695.6103,-532.5 751.6103,-532.5 751.6103,-475.5 695.6103,-475.5"/>
<text text-anchor="middle" x="723.6103" y="-520.5" font-family="Helvetica,sans-Serif" font-size="10.00" fill="#000000">uint32_t</text>
<polyline fill="none" stroke="#bfbfbf" points="695.6103,-513.5 751.6103,-513.5 "/>
<text text-anchor="middle" x="723.6103" y="-501.5" font-family="Helvetica,sans-Serif" font-size="10.00" fill="#000000"> </text>
<polyline fill="none" stroke="#bfbfbf" points="695.6103,-494.5 751.6103,-494.5 "/>
<text text-anchor="middle" x="723.6103" y="-482.5" font-family="Helvetica,sans-Serif" font-size="10.00" fill="#000000"> </text>
</g>
<!-- Node13&#45;&gt;Node3 -->
<g id="edge21" class="edge">
<title>Node13&#45;&gt;Node3</title>
<path fill="none" stroke="#404040" d="M717.1685,-475.0478C711.387,-452.8422 701.4935,-422.0267 686.6103,-398 652.5736,-343.0525 595.0352,-297.7024 547.8993,-266.9459"/>
<polygon fill="none" stroke="#404040" points="547.8085,-266.8877 540.5986,-267.0183 537.7049,-260.4132 544.9149,-260.2826 547.8085,-266.8877"/>
<text text-anchor="middle" x="719.1103" y="-372" font-family="Helvetica,sans-Serif" font-size="10.00" fill="#000000"> +headerVersion</text>
<text text-anchor="middle" x="719.1103" y="-361" font-family="Helvetica,sans-Serif" font-size="10.00" fill="#000000">+headerSize</text>
<text text-anchor="middle" x="719.1103" y="-350" font-family="Helvetica,sans-Serif" font-size="10.00" fill="#000000">+flagsNextHeader</text>
<text text-anchor="middle" x="719.1103" y="-339" font-family="Helvetica,sans-Serif" font-size="10.00" fill="#000000">+magicStringInt</text>
<text text-anchor="middle" x="719.1103" y="-328" font-family="Helvetica,sans-Serif" font-size="10.00" fill="#000000">+flagsUnused</text>
<text text-anchor="middle" x="719.1103" y="-317" font-family="Helvetica,sans-Serif" font-size="10.00" fill="#000000">+flags</text>
</g>
</g>
</svg>
        <g id="navigator" transform="translate(0 0)" fill="#404254">
                <rect fill="#f2f5e9" fill-opacity="0.5" stroke="#606060" stroke-width=".5" x="0" y="0" width="60" height="60"/>
                <use id="zoomplus" xlink:href="#zoomPlus" x="17" y="9" onmousedown="handleZoom(evt,'in')"/>
                <use id="zoomminus" xlink:href="#zoomMin" x="42" y="9" onmousedown="handleZoom(evt,'out')"/>
                <use id="reset" xlink:href="#resetDef" x="30" y="36" onmousedown="handleReset()"/>
                <g id="arrowUp" xlink:href="#dirArrow" transform="translate(30 24)" onmousedown="handlePan(0,-1)">
                  <use xlink:href="#rim" fill="#404040">
                        <set attributeName="fill" to="#808080" begin="arrowUp.mouseover" end="arrowUp.mouseout"/>
                  </use>
                  <path fill="none" stroke="white" stroke-width="1.5" d="M0,-3.0v7 M-2.5,-0.5L0,-3.0L2.5,-0.5"/>
                </g>
                <g id="arrowRight" xlink:href="#dirArrow" transform="rotate(90) translate(36 -43)" onmousedown="handlePan(1,0)">
                  <use xlink:href="#rim" fill="#404040">
                        <set attributeName="fill" to="#808080" begin="arrowRight.mouseover" end="arrowRight.mouseout"/>
                  </use>
                  <path fill="none" stroke="white" stroke-width="1.5" d="M0,-3.0v7 M-2.5,-0.5L0,-3.0L2.5,-0.5"/>
                </g>
                <g id="arrowDown" xlink:href="#dirArrow" transform="rotate(180) translate(-30 -48)" onmousedown="handlePan(0,1)">
                  <use xlink:href="#rim" fill="#404040">
                        <set attributeName="fill" to="#808080" begin="arrowDown.mouseover" end="arrowDown.mouseout"/>
                  </use>
                  <path fill="none" stroke="white" stroke-width="1.5" d="M0,-3.0v7 M-2.5,-0.5L0,-3.0L2.5,-0.5"/>
                </g>
                <g id="arrowLeft" xlink:href="#dirArrow" transform="rotate(270) translate(-36 17)" onmousedown="handlePan(-1,0)">
                  <use xlink:href="#rim" fill="#404040">
                        <set attributeName="fill" to="#808080" begin="arrowLeft.mouseover" end="arrowLeft.mouseout"/>
                  </use>
                  <path fill="none" stroke="white" stroke-width="1.5" d="M0,-3.0v7 M-2.5,-0.5L0,-3.0L2.5,-0.5"/>
                </g>
        </g>
        <svg viewBox="0 0 15 15" width="100%" height="30px" preserveAspectRatio="xMaxYMin meet">
         <g id="arrow_out" transform="scale(0.3 0.3)">
          <a xlink:href="structo2_1_1header_1_1NameHeader__coll__graph_org.svg" target="_base">
           <rect id="button" ry="5" rx="5" y="6" x="6" height="38" width="38"
                fill="#f2f5e9" fill-opacity="0.5" stroke="#606060" stroke-width="1.0"/>
           <path id="arrow"
             d="M 11.500037,31.436501 C 11.940474,20.09759 22.043105,11.32322 32.158766,21.979434 L 37.068811,17.246167 C 37.068811,17.246167 37.088388,32 37.088388,32 L 22.160133,31.978069 C 22.160133,31.978069 26.997745,27.140456 26.997745,27.140456 C 18.528582,18.264221 13.291696,25.230495 11.500037,31.436501 z"
             style="fill:#404040;"/>
          </a>
         </g>
        </svg>
</svg>
