<?xml version="1.0" encoding="UTF-8" standalone="no"?>
<!DOCTYPE svg PUBLIC "-//W3C//DTD SVG 1.1//EN"
 "http://www.w3.org/Graphics/SVG/1.1/DTD/svg11.dtd">
<!-- Generated by graphviz version 2.40.1 (20161225.0304)
 -->
<!-- Title: /home/travis/build/AliceO2Group/AliceO2/Framework/Core/test/benchmark_TableBuilder.cxx Pages: 1 -->
<!--zoomable 341 -->
<svg id="main" version="1.1" xmlns="http://www.w3.org/2000/svg" xmlns:xlink="http://www.w3.org/1999/xlink" xml:space="preserve" onload="init(evt)">
<style type="text/css"><![CDATA[
.edge:hover path { stroke: red; }
.edge:hover polygon { stroke: red; fill: red; }
]]></style>
<script type="text/javascript"><![CDATA[
var edges = document.getElementsByTagName('g');
if (edges && edges.length) {
  for (var i=0;i<edges.length;i++) {
    if (edges[i].id.substr(0,4)=='edge') {
      edges[i].setAttribute('class','edge');
    }
  }
}
]]></script>
        <defs>
                <circle id="rim" cx="0" cy="0" r="7"/>
                <circle id="rim2" cx="0" cy="0" r="3.5"/>
                <g id="zoomPlus">
                        <use xlink:href="#rim" fill="#404040">
                                <set attributeName="fill" to="#808080" begin="zoomplus.mouseover" end="zoomplus.mouseout"/>
                        </use>
                        <path d="M-4,0h8M0,-4v8" fill="none" stroke="white" stroke-width="1.5" pointer-events="none"/>
                </g>
                <g id="zoomMin">
                        <use xlink:href="#rim" fill="#404040">
                                <set attributeName="fill" to="#808080" begin="zoomminus.mouseover" end="zoomminus.mouseout"/>
                        </use>
                        <path d="M-4,0h8" fill="none" stroke="white" stroke-width="1.5" pointer-events="none"/>
                </g>
                <g id="dirArrow">
                        <path fill="none" stroke="white" stroke-width="1.5" d="M0,-3.0v7 M-2.5,-0.5L0,-3.0L2.5,-0.5"/>
                </g>
               <g id="resetDef">
                       <use xlink:href="#rim2" fill="#404040">
                               <set attributeName="fill" to="#808080" begin="reset.mouseover" end="reset.mouseout"/>
                       </use>
               </g>
        </defs>

<script type="text/javascript">
var viewWidth = 1617;
var viewHeight = 341;
var sectionId = 'dynsection-0';
</script>
<script xlink:href="../../svgpan.js"/>
<svg id="graph" class="graph">
<g id="viewport">
<title>/home/travis/build/AliceO2Group/AliceO2/Framework/Core/test/benchmark_TableBuilder.cxx</title>
<!-- Node0 -->
<g id="node1" class="node">
<title>Node0</title>
<polygon fill="#bfbfbf" stroke="#000000" points="1284,-280.5 1284,-332.5 1463,-332.5 1463,-280.5 1284,-280.5"/>
<text text-anchor="start" x="1292" y="-320.5" font-family="Helvetica,sans-Serif" font-size="10.00" fill="#000000">/home/travis/build</text>
<text text-anchor="start" x="1292" y="-309.5" font-family="Helvetica,sans-Serif" font-size="10.00" fill="#000000">/AliceO2Group/AliceO2</text>
<text text-anchor="start" x="1292" y="-298.5" font-family="Helvetica,sans-Serif" font-size="10.00" fill="#000000">/Framework/Core/test/benchmark</text>
<text text-anchor="middle" x="1373.5" y="-287.5" font-family="Helvetica,sans-Serif" font-size="10.00" fill="#000000">_TableBuilder.cxx</text>
</g>
<!-- Node1 -->
<g id="node2" class="node">
<title>Node1</title>
<g id="a_node2"><a xlink:href="../../d5/d98/TableBuilder_8h.html" target="_top" xlink:title="Framework/TableBuilder.h">
<polygon fill="none" stroke="#000000" points="1023.5,-224.5 1023.5,-243.5 1165.5,-243.5 1165.5,-224.5 1023.5,-224.5"/>
<text text-anchor="middle" x="1094.5" y="-231.5" font-family="Helvetica,sans-Serif" font-size="10.00" fill="#000000">Framework/TableBuilder.h</text>
</a>
</g>
</g>
<!-- Node0&#45;&gt;Node1 -->
<g id="edge1" class="edge">
<title>Node0&#45;&gt;Node1</title>
<path fill="none" stroke="#191970" d="M1283.6869,-283.1615C1236.3082,-270.8498 1180.1337,-256.2525 1141.3702,-246.1795"/>
<polygon fill="#191970" stroke="#191970" points="1141.9729,-242.72 1131.414,-243.5924 1140.2123,-249.495 1141.9729,-242.72"/>
</g>
<!-- Node26 -->
<g id="node27" class="node">
<title>Node26</title>
<g id="a_node27"><a xlink:href="../../dc/d03/TableConsumer_8h.html" target="_top" xlink:title="Framework/TableConsumer.h">
<polygon fill="none" stroke="#000000" points="1295,-224.5 1295,-243.5 1452,-243.5 1452,-224.5 1295,-224.5"/>
<text text-anchor="middle" x="1373.5" y="-231.5" font-family="Helvetica,sans-Serif" font-size="10.00" fill="#000000">Framework/TableConsumer.h</text>
</a>
</g>
</g>
<!-- Node0&#45;&gt;Node26 -->
<g id="edge35" class="edge">
<title>Node0&#45;&gt;Node26</title>
<path fill="none" stroke="#191970" d="M1373.5,-280.3258C1373.5,-271.5142 1373.5,-261.8397 1373.5,-253.621"/>
<polygon fill="#191970" stroke="#191970" points="1377.0001,-253.534 1373.5,-243.534 1370.0001,-253.534 1377.0001,-253.534"/>
</g>
<!-- Node27 -->
<g id="node28" class="node">
<title>Node27</title>
<polygon fill="none" stroke="#bfbfbf" points="1470.5,-224.5 1470.5,-243.5 1608.5,-243.5 1608.5,-224.5 1470.5,-224.5"/>
<text text-anchor="middle" x="1539.5" y="-231.5" font-family="Helvetica,sans-Serif" font-size="10.00" fill="#000000">benchmark/benchmark.h</text>
</g>
<!-- Node0&#45;&gt;Node27 -->
<g id="edge37" class="edge">
<title>Node0&#45;&gt;Node27</title>
<path fill="none" stroke="#191970" d="M1433.4298,-280.3258C1458.7641,-269.2612 1487.2133,-256.8361 1508.2662,-247.6413"/>
<polygon fill="#191970" stroke="#191970" points="1509.9072,-250.7439 1517.6704,-243.534 1507.1055,-244.329 1509.9072,-250.7439"/>
</g>
<!-- Node2 -->
<g id="node3" class="node">
<title>Node2</title>
<g id="a_node3"><a xlink:href="../../de/d33/ASoA_8h.html" target="_top" xlink:title="Framework/ASoA.h">
<polygon fill="none" stroke="#000000" points="402.5,-168.5 402.5,-187.5 510.5,-187.5 510.5,-168.5 402.5,-168.5"/>
<text text-anchor="middle" x="456.5" y="-175.5" font-family="Helvetica,sans-Serif" font-size="10.00" fill="#000000">Framework/ASoA.h</text>
</a>
</g>
</g>
<!-- Node1&#45;&gt;Node2 -->
<g id="edge2" class="edge">
<title>Node1&#45;&gt;Node2</title>
<path fill="none" stroke="#191970" d="M1023.478,-227.7661C898.4996,-216.7962 641.1414,-194.2068 520.9673,-183.6586"/>
<polygon fill="#191970" stroke="#191970" points="521.0837,-180.1554 510.8159,-182.7675 520.4715,-187.1286 521.0837,-180.1554"/>
</g>
<!-- Node3 -->
<g id="node4" class="node">
<title>Node3</title>
<g id="a_node4"><a xlink:href="../../de/d9b/FunctionalHelpers_8h.html" target="_top" xlink:title="Framework/FunctionalHelpers.h">
<polygon fill="none" stroke="#000000" points="1124.5,-56.5 1124.5,-75.5 1294.5,-75.5 1294.5,-56.5 1124.5,-56.5"/>
<text text-anchor="middle" x="1209.5" y="-63.5" font-family="Helvetica,sans-Serif" font-size="10.00" fill="#000000">Framework/FunctionalHelpers.h</text>
</a>
</g>
</g>
<!-- Node1&#45;&gt;Node3 -->
<g id="edge24" class="edge">
<title>Node1&#45;&gt;Node3</title>
<path fill="none" stroke="#191970" d="M1023.3587,-228.9985C965.2103,-223.2541 889.6002,-211.4211 870.5,-188 864.8822,-181.1114 865.1968,-175.1336 870.5,-168 902.5411,-124.8993 1048.8239,-93.1096 1138.4361,-77.2742"/>
<polygon fill="#191970" stroke="#191970" points="1139.2839,-80.6793 1148.5347,-75.5147 1138.0823,-73.7832 1139.2839,-80.6793"/>
</g>
<!-- Node4 -->
<g id="node5" class="node">
<title>Node4</title>
<polygon fill="none" stroke="#bfbfbf" points="1276,-.5 1276,-19.5 1341,-19.5 1341,-.5 1276,-.5"/>
<text text-anchor="middle" x="1308.5" y="-7.5" font-family="Helvetica,sans-Serif" font-size="10.00" fill="#000000">functional</text>
</g>
<!-- Node1&#45;&gt;Node4 -->
<g id="edge30" class="edge">
<title>Node1&#45;&gt;Node4</title>
<path fill="none" stroke="#191970" d="M1165.7035,-227.721C1248.3062,-219.7023 1375.0887,-204.8327 1389.5,-188 1432.8148,-137.4076 1362.1881,-59.8346 1326.8059,-26.3356"/>
<polygon fill="#191970" stroke="#191970" points="1329.1629,-23.748 1319.4474,-19.522 1324.407,-28.8843 1329.1629,-23.748"/>
</g>
<!-- Node11 -->
<g id="node12" class="node">
<title>Node11</title>
<polygon fill="none" stroke="#bfbfbf" points="0,-56.5 0,-75.5 81,-75.5 81,-56.5 0,-56.5"/>
<text text-anchor="middle" x="40.5" y="-63.5" font-family="Helvetica,sans-Serif" font-size="10.00" fill="#000000">arrow/table.h</text>
</g>
<!-- Node1&#45;&gt;Node11 -->
<g id="edge28" class="edge">
<title>Node1&#45;&gt;Node11</title>
<path fill="none" stroke="#191970" d="M1023.2692,-230.897C870.0557,-223.9661 513.3755,-206.3847 393.5,-188 289.5073,-172.0512 261.7531,-169.6188 163.5,-132 127.3366,-118.1539 88.3975,-95.8793 64.237,-81.0923"/>
<polygon fill="#191970" stroke="#191970" points="65.7811,-77.9316 55.4378,-75.6367 62.0925,-83.8809 65.7811,-77.9316"/>
</g>
<!-- Node16 -->
<g id="node17" class="node">
<title>Node16</title>
<polygon fill="none" stroke="#bfbfbf" points="1062.5,-56.5 1062.5,-75.5 1106.5,-75.5 1106.5,-56.5 1062.5,-56.5"/>
<text text-anchor="middle" x="1084.5" y="-63.5" font-family="Helvetica,sans-Serif" font-size="10.00" fill="#000000">string</text>
</g>
<!-- Node1&#45;&gt;Node16 -->
<g id="edge32" class="edge">
<title>Node1&#45;&gt;Node16</title>
<path fill="none" stroke="#191970" d="M1023.3187,-231.1972C955.6409,-226.8592 860.8091,-215.8516 837.5,-188 815.8215,-162.0967 815.6669,-137.7731 837.5,-112 867.2338,-76.9004 991.5198,-86.268 1052.3679,-75.66"/>
<polygon fill="#191970" stroke="#191970" points="1053.1812,-79.0658 1062.2608,-73.6059 1051.7581,-72.212 1053.1812,-79.0658"/>
</g>
<!-- Node17 -->
<g id="node18" class="node">
<title>Node17</title>
<polygon fill="none" stroke="#bfbfbf" points="1436.5,-56.5 1436.5,-75.5 1494.5,-75.5 1494.5,-56.5 1436.5,-56.5"/>
<text text-anchor="middle" x="1465.5" y="-63.5" font-family="Helvetica,sans-Serif" font-size="10.00" fill="#000000">memory</text>
</g>
<!-- Node1&#45;&gt;Node17 -->
<g id="edge33" class="edge">
<title>Node1&#45;&gt;Node17</title>
<path fill="none" stroke="#191970" d="M1165.6087,-227.9536C1256.0673,-219.665 1402.9724,-203.974 1422.5,-188 1453.5137,-162.6301 1462.1842,-113.3637 1464.5911,-85.8329"/>
<polygon fill="#191970" stroke="#191970" points="1468.0861,-86.0247 1465.2713,-75.8106 1461.1021,-85.5506 1468.0861,-86.0247"/>
</g>
<!-- Node20 -->
<g id="node21" class="node">
<title>Node20</title>
<polygon fill="none" stroke="#bfbfbf" points="879.5,-168.5 879.5,-187.5 935.5,-187.5 935.5,-168.5 879.5,-168.5"/>
<text text-anchor="middle" x="907.5" y="-175.5" font-family="Helvetica,sans-Serif" font-size="10.00" fill="#000000">sstream</text>
</g>
<!-- Node1&#45;&gt;Node20 -->
<g id="edge25" class="edge">
<title>Node1&#45;&gt;Node20</title>
<path fill="none" stroke="#191970" d="M1062.3536,-224.3733C1029.8485,-214.6391 979.6313,-199.6008 945.2525,-189.3056"/>
<polygon fill="#191970" stroke="#191970" points="946.1507,-185.921 935.5669,-186.4051 944.1425,-192.6268 946.1507,-185.921"/>
</g>
<!-- Node21 -->
<g id="node22" class="node">
<title>Node21</title>
<polygon fill="none" stroke="#bfbfbf" points="953.5,-168.5 953.5,-187.5 1021.5,-187.5 1021.5,-168.5 953.5,-168.5"/>
<text text-anchor="middle" x="987.5" y="-175.5" font-family="Helvetica,sans-Serif" font-size="10.00" fill="#000000">arrow/stl.h</text>
</g>
<!-- Node1&#45;&gt;Node21 -->
<g id="edge26" class="edge">
<title>Node1&#45;&gt;Node21</title>
<path fill="none" stroke="#191970" d="M1075.862,-224.2455C1059.0614,-215.4527 1034.1366,-202.4079 1015.0382,-192.4125"/>
<polygon fill="#191970" stroke="#191970" points="1016.4073,-189.1787 1005.9244,-187.6427 1013.1614,-195.3807 1016.4073,-189.1787"/>
</g>
<!-- Node22 -->
<g id="node23" class="node">
<title>Node22</title>
<polygon fill="none" stroke="#bfbfbf" points="1040,-168.5 1040,-187.5 1149,-187.5 1149,-168.5 1040,-168.5"/>
<text text-anchor="middle" x="1094.5" y="-175.5" font-family="Helvetica,sans-Serif" font-size="10.00" fill="#000000">arrow/type_traits.h</text>
</g>
<!-- Node1&#45;&gt;Node22 -->
<g id="edge27" class="edge">
<title>Node1&#45;&gt;Node22</title>
<path fill="none" stroke="#191970" d="M1094.5,-224.2455C1094.5,-216.9382 1094.5,-206.6944 1094.5,-197.7046"/>
<polygon fill="#191970" stroke="#191970" points="1098.0001,-197.6426 1094.5,-187.6427 1091.0001,-197.6427 1098.0001,-197.6426"/>
</g>
<!-- Node23 -->
<g id="node24" class="node">
<title>Node23</title>
<polygon fill="none" stroke="#bfbfbf" points="1167,-168.5 1167,-187.5 1256,-187.5 1256,-168.5 1167,-168.5"/>
<text text-anchor="middle" x="1211.5" y="-175.5" font-family="Helvetica,sans-Serif" font-size="10.00" fill="#000000">arrow/builder.h</text>
</g>
<!-- Node1&#45;&gt;Node23 -->
<g id="edge29" class="edge">
<title>Node1&#45;&gt;Node23</title>
<path fill="none" stroke="#191970" d="M1114.613,-224.3733C1133.3103,-215.4241 1161.3744,-201.9917 1182.4934,-191.8835"/>
<polygon fill="#191970" stroke="#191970" points="1184.1405,-194.9755 1191.6494,-187.5011 1181.1183,-188.6614 1184.1405,-194.9755"/>
</g>
<!-- Node24 -->
<g id="node25" class="node">
<title>Node24</title>
<polygon fill="none" stroke="#bfbfbf" points="1274,-168.5 1274,-187.5 1321,-187.5 1321,-168.5 1274,-168.5"/>
<text text-anchor="middle" x="1297.5" y="-175.5" font-family="Helvetica,sans-Serif" font-size="10.00" fill="#000000">vector</text>
</g>
<!-- Node1&#45;&gt;Node24 -->
<g id="edge31" class="edge">
<title>Node1&#45;&gt;Node24</title>
<path fill="none" stroke="#191970" d="M1131.6456,-224.4665C1164.2623,-215.9934 1213.2163,-203.0309 1263.9408,-188.385"/>
<polygon fill="#191970" stroke="#191970" points="1265.1384,-191.6819 1273.7664,-185.533 1263.1871,-184.9593 1265.1384,-191.6819"/>
</g>
<!-- Node25 -->
<g id="node26" class="node">
<title>Node25</title>
<polygon fill="none" stroke="#bfbfbf" points="1339,-168.5 1339,-187.5 1380,-187.5 1380,-168.5 1339,-168.5"/>
<text text-anchor="middle" x="1359.5" y="-175.5" font-family="Helvetica,sans-Serif" font-size="10.00" fill="#000000">tuple</text>
</g>
<!-- Node1&#45;&gt;Node25 -->
<g id="edge34" class="edge">
<title>Node1&#45;&gt;Node25</title>
<path fill="none" stroke="#191970" d="M1155.6645,-224.4896C1201.283,-216.8468 1265.2272,-204.9777 1328.8979,-188.1868"/>
<polygon fill="#191970" stroke="#191970" points="1329.9447,-191.5299 1338.6988,-185.5619 1328.1337,-184.7682 1329.9447,-191.5299"/>
</g>
<!-- Node2&#45;&gt;Node3 -->
<g id="edge3" class="edge">
<title>Node2&#45;&gt;Node3</title>
<path fill="none" stroke="#191970" d="M510.6793,-171.1852C570.9574,-163.257 671.1124,-149.0522 756.5,-132 792.8631,-124.7382 801.035,-118.7317 837.5,-112 888.85,-102.5204 1022.0111,-86.8486 1114.2301,-76.4736"/>
<polygon fill="#191970" stroke="#191970" points="1114.8749,-79.9233 1124.4222,-75.3297 1114.0942,-72.9669 1114.8749,-79.9233"/>
</g>
<!-- Node5 -->
<g id="node6" class="node">
<title>Node5</title>
<g id="a_node6"><a xlink:href="../../d9/de8/CompilerBuiltins_8h.html" target="_top" xlink:title="Framework/CompilerBuiltins.h">
<polygon fill="none" stroke="#000000" points="351.5,-56.5 351.5,-75.5 515.5,-75.5 515.5,-56.5 351.5,-56.5"/>
<text text-anchor="middle" x="433.5" y="-63.5" font-family="Helvetica,sans-Serif" font-size="10.00" fill="#000000">Framework/CompilerBuiltins.h</text>
</a>
</g>
</g>
<!-- Node2&#45;&gt;Node5 -->
<g id="edge5" class="edge">
<title>Node2&#45;&gt;Node5</title>
<path fill="none" stroke="#191970" d="M454.539,-168.4509C450.7708,-150.1013 442.4517,-109.5908 437.4776,-85.3693"/>
<polygon fill="#191970" stroke="#191970" points="440.8961,-84.6164 435.456,-75.5249 434.0392,-86.0246 440.8961,-84.6164"/>
</g>
<!-- Node6 -->
<g id="node7" class="node">
<title>Node6</title>
<g id="a_node7"><a xlink:href="../../db/d31/Traits_8h.html" target="_top" xlink:title="Framework/Traits.h">
<polygon fill="none" stroke="#000000" points="281,-112.5 281,-131.5 390,-131.5 390,-112.5 281,-112.5"/>
<text text-anchor="middle" x="335.5" y="-119.5" font-family="Helvetica,sans-Serif" font-size="10.00" fill="#000000">Framework/Traits.h</text>
</a>
</g>
</g>
<!-- Node2&#45;&gt;Node6 -->
<g id="edge6" class="edge">
<title>Node2&#45;&gt;Node6</title>
<path fill="none" stroke="#191970" d="M435.6994,-168.3733C416.2757,-159.3838 387.0776,-145.8706 365.2036,-135.7471"/>
<polygon fill="#191970" stroke="#191970" points="366.5745,-132.5249 356.0292,-131.5011 363.6344,-138.8776 366.5745,-132.5249"/>
</g>
<!-- Node8 -->
<g id="node9" class="node">
<title>Node8</title>
<g id="a_node9"><a xlink:href="../../d0/d91/Expressions_8h.html" target="_top" xlink:title="Framework/Expressions.h">
<polygon fill="none" stroke="#000000" points="508,-112.5 508,-131.5 649,-131.5 649,-112.5 508,-112.5"/>
<text text-anchor="middle" x="578.5" y="-119.5" font-family="Helvetica,sans-Serif" font-size="10.00" fill="#000000">Framework/Expressions.h</text>
</a>
</g>
</g>
<!-- Node2&#45;&gt;Node8 -->
<g id="edge8" class="edge">
<title>Node2&#45;&gt;Node8</title>
<path fill="none" stroke="#191970" d="M477.4725,-168.3733C497.0567,-159.3838 526.4961,-145.8706 548.551,-135.7471"/>
<polygon fill="#191970" stroke="#191970" points="550.1729,-138.8538 557.8011,-131.5011 547.2527,-132.4919 550.1729,-138.8538"/>
</g>
<!-- Node2&#45;&gt;Node11 -->
<g id="edge20" class="edge">
<title>Node2&#45;&gt;Node11</title>
<path fill="none" stroke="#191970" d="M405.176,-168.4602C367.7301,-160.7131 316.1154,-148.3878 272.5,-132 254.265,-125.1485 251.7724,-118.7511 233.5,-112 207.7089,-102.4709 139.029,-86.9377 90.9822,-76.5947"/>
<polygon fill="#191970" stroke="#191970" points="91.5769,-73.1427 81.0655,-74.4704 90.1106,-79.9875 91.5769,-73.1427"/>
</g>
<!-- Node12 -->
<g id="node13" class="node">
<title>Node12</title>
<polygon fill="none" stroke="#bfbfbf" points="186,-56.5 186,-75.5 333,-75.5 333,-56.5 186,-56.5"/>
<text text-anchor="middle" x="259.5" y="-63.5" font-family="Helvetica,sans-Serif" font-size="10.00" fill="#000000">gandiva/selection_vector.h</text>
</g>
<!-- Node2&#45;&gt;Node12 -->
<g id="edge22" class="edge">
<title>Node2&#45;&gt;Node12</title>
<path fill="none" stroke="#191970" d="M450.7126,-168.475C441.5648,-154.1943 422.4279,-127.2835 399.5,-112 375.527,-96.0199 345.5541,-85.1975 319.4989,-78.0875"/>
<polygon fill="#191970" stroke="#191970" points="320.2849,-74.6755 309.7255,-75.5413 318.5201,-81.4494 320.2849,-74.6755"/>
</g>
<!-- Node18 -->
<g id="node19" class="node">
<title>Node18</title>
<polygon fill="none" stroke="#bfbfbf" points="667.5,-112.5 667.5,-131.5 747.5,-131.5 747.5,-112.5 667.5,-112.5"/>
<text text-anchor="middle" x="707.5" y="-119.5" font-family="Helvetica,sans-Serif" font-size="10.00" fill="#000000">arrow/array.h</text>
</g>
<!-- Node2&#45;&gt;Node18 -->
<g id="edge21" class="edge">
<title>Node2&#45;&gt;Node18</title>
<path fill="none" stroke="#191970" d="M499.3632,-168.4369C543.1929,-158.6582 611.2294,-143.4787 657.4898,-133.1577"/>
<polygon fill="#191970" stroke="#191970" points="658.3052,-136.5619 667.303,-130.9682 656.7808,-129.7299 658.3052,-136.5619"/>
</g>
<!-- Node19 -->
<g id="node20" class="node">
<title>Node19</title>
<polygon fill="none" stroke="#bfbfbf" points="172.5,-112.5 172.5,-131.5 224.5,-131.5 224.5,-112.5 172.5,-112.5"/>
<text text-anchor="middle" x="198.5" y="-119.5" font-family="Helvetica,sans-Serif" font-size="10.00" fill="#000000">cassert</text>
</g>
<!-- Node2&#45;&gt;Node19 -->
<g id="edge23" class="edge">
<title>Node2&#45;&gt;Node19</title>
<path fill="none" stroke="#191970" d="M408.7587,-168.4558C364.5174,-159.4857 296.924,-145.4621 238.5,-132 237.2444,-131.7107 235.9677,-131.4126 234.6789,-131.1085"/>
<polygon fill="#191970" stroke="#191970" points="235.2589,-127.648 224.7166,-128.7016 233.615,-134.4522 235.2589,-127.648"/>
</g>
<!-- Node3&#45;&gt;Node4 -->
<g id="edge4" class="edge">
<title>Node3&#45;&gt;Node4</title>
<path fill="none" stroke="#191970" d="M1226.7445,-56.2455C1242.0761,-47.5731 1264.7199,-34.7645 1282.2916,-24.825"/>
<polygon fill="#191970" stroke="#191970" points="1284.4724,-27.6126 1291.4531,-19.6427 1281.0259,-21.5198 1284.4724,-27.6126"/>
</g>
<!-- Node7 -->
<g id="node8" class="node">
<title>Node7</title>
<polygon fill="none" stroke="#bfbfbf" points="99,-56.5 99,-75.5 168,-75.5 168,-56.5 99,-56.5"/>
<text text-anchor="middle" x="133.5" y="-63.5" font-family="Helvetica,sans-Serif" font-size="10.00" fill="#000000">type_traits</text>
</g>
<!-- Node6&#45;&gt;Node7 -->
<g id="edge7" class="edge">
<title>Node6&#45;&gt;Node7</title>
<path fill="none" stroke="#191970" d="M300.775,-112.3733C266.7492,-102.9404 214.7563,-88.5265 177.7766,-78.2747"/>
<polygon fill="#191970" stroke="#191970" points="178.3435,-74.7999 167.7719,-75.5011 176.4734,-81.5455 178.3435,-74.7999"/>
</g>
<!-- Node8&#45;&gt;Node3 -->
<g id="edge11" class="edge">
<title>Node8&#45;&gt;Node3</title>
<path fill="none" stroke="#191970" d="M649.1504,-112.9908C652.3087,-112.6442 655.4365,-112.312 658.5,-112 857.926,-91.6918 910.93,-94.6743 1114.3398,-76.0836"/>
<polygon fill="#191970" stroke="#191970" points="1114.8188,-79.5544 1124.456,-75.1527 1114.1773,-72.5839 1114.8188,-79.5544"/>
</g>
<!-- Node8&#45;&gt;Node5 -->
<g id="edge10" class="edge">
<title>Node8&#45;&gt;Node5</title>
<path fill="none" stroke="#191970" d="M553.5736,-112.3733C529.8798,-103.2226 494.0489,-89.3844 467.6932,-79.2057"/>
<polygon fill="#191970" stroke="#191970" points="468.6906,-75.8389 458.1011,-75.5011 466.1686,-82.3689 468.6906,-75.8389"/>
</g>
<!-- Node9 -->
<g id="node10" class="node">
<title>Node9</title>
<g id="a_node10"><a xlink:href="../../dd/dc2/BasicOps_8h.html" target="_top" xlink:title="Framework/BasicOps.h">
<polygon fill="none" stroke="#000000" points="710.5,-56.5 710.5,-75.5 838.5,-75.5 838.5,-56.5 710.5,-56.5"/>
<text text-anchor="middle" x="774.5" y="-63.5" font-family="Helvetica,sans-Serif" font-size="10.00" fill="#000000">Framework/BasicOps.h</text>
</a>
</g>
</g>
<!-- Node8&#45;&gt;Node9 -->
<g id="edge9" class="edge">
<title>Node8&#45;&gt;Node9</title>
<path fill="none" stroke="#191970" d="M612.1936,-112.3733C645.2087,-102.9404 695.6573,-88.5265 731.5386,-78.2747"/>
<polygon fill="#191970" stroke="#191970" points="732.5924,-81.6137 741.2461,-75.5011 730.6693,-74.8831 732.5924,-81.6137"/>
</g>
<!-- Node10 -->
<g id="node11" class="node">
<title>Node10</title>
<polygon fill="none" stroke="#bfbfbf" points="856.5,-56.5 856.5,-75.5 934.5,-75.5 934.5,-56.5 856.5,-56.5"/>
<text text-anchor="middle" x="895.5" y="-63.5" font-family="Helvetica,sans-Serif" font-size="10.00" fill="#000000">arrow/type.h</text>
</g>
<!-- Node8&#45;&gt;Node10 -->
<g id="edge12" class="edge">
<title>Node8&#45;&gt;Node10</title>
<path fill="none" stroke="#191970" d="M637.9109,-112.4714C690.2531,-103.933 768.8124,-90.7707 846.5261,-76.1352"/>
<polygon fill="#191970" stroke="#191970" points="847.3159,-79.5479 856.4907,-74.2495 846.0143,-72.67 847.3159,-79.5479"/>
</g>
<!-- Node8&#45;&gt;Node11 -->
<g id="edge13" class="edge">
<title>Node8&#45;&gt;Node11</title>
<path fill="none" stroke="#191970" d="M507.7613,-117.7417C414.4592,-111.5908 245.0017,-98.5764 91.1901,-76.1246"/>
<polygon fill="#191970" stroke="#191970" points="91.4864,-72.6305 81.0824,-74.6321 90.4638,-79.5554 91.4864,-72.6305"/>
</g>
<!-- Node8&#45;&gt;Node12 -->
<g id="edge14" class="edge">
<title>Node8&#45;&gt;Node12</title>
<path fill="none" stroke="#191970" d="M524.0244,-112.4369C468.5125,-102.6918 382.4471,-87.5832 323.6672,-77.2645"/>
<polygon fill="#191970" stroke="#191970" points="324.2055,-73.8055 313.7509,-75.5237 322.9951,-80.7001 324.2055,-73.8055"/>
</g>
<!-- Node13 -->
<g id="node14" class="node">
<title>Node13</title>
<polygon fill="none" stroke="#bfbfbf" points="952.5,-56.5 952.5,-75.5 1044.5,-75.5 1044.5,-56.5 952.5,-56.5"/>
<text text-anchor="middle" x="998.5" y="-63.5" font-family="Helvetica,sans-Serif" font-size="10.00" fill="#000000">gandiva/node.h</text>
</g>
<!-- Node8&#45;&gt;Node13 -->
<g id="edge15" class="edge">
<title>Node8&#45;&gt;Node13</title>
<path fill="none" stroke="#191970" d="M649.2777,-113.1293C742.5926,-101.4277 899.2638,-81.7577 942.2474,-75.9926"/>
<polygon fill="#191970" stroke="#191970" points="942.8979,-79.4358 952.3172,-74.5853 941.929,-72.5031 942.8979,-79.4358"/>
</g>
<!-- Node14 -->
<g id="node15" class="node">
<title>Node14</title>
<polygon fill="none" stroke="#bfbfbf" points="534,-56.5 534,-75.5 623,-75.5 623,-56.5 534,-56.5"/>
<text text-anchor="middle" x="578.5" y="-63.5" font-family="Helvetica,sans-Serif" font-size="10.00" fill="#000000">gandiva/filter.h</text>
</g>
<!-- Node8&#45;&gt;Node14 -->
<g id="edge16" class="edge">
<title>Node8&#45;&gt;Node14</title>
<path fill="none" stroke="#191970" d="M578.5,-112.2455C578.5,-104.9382 578.5,-94.6944 578.5,-85.7046"/>
<polygon fill="#191970" stroke="#191970" points="582.0001,-85.6426 578.5,-75.6427 575.0001,-85.6427 582.0001,-85.6426"/>
</g>
<!-- Node15 -->
<g id="node16" class="node">
<title>Node15</title>
<polygon fill="none" stroke="#bfbfbf" points="641,-56.5 641,-75.5 692,-75.5 692,-56.5 641,-56.5"/>
<text text-anchor="middle" x="666.5" y="-63.5" font-family="Helvetica,sans-Serif" font-size="10.00" fill="#000000">variant</text>
</g>
<!-- Node8&#45;&gt;Node15 -->
<g id="edge17" class="edge">
<title>Node8&#45;&gt;Node15</title>
<path fill="none" stroke="#191970" d="M593.8284,-112.2455C607.3303,-103.6534 627.2122,-91.0014 642.7686,-81.1018"/>
<polygon fill="#191970" stroke="#191970" points="644.7897,-83.9643 651.3472,-75.6427 641.0315,-78.0587 644.7897,-83.9643"/>
</g>
<!-- Node8&#45;&gt;Node16 -->
<g id="edge18" class="edge">
<title>Node8&#45;&gt;Node16</title>
<path fill="none" stroke="#191970" d="M649.1553,-113.0379C652.3123,-112.6785 655.4385,-112.3308 658.5,-112 830.5113,-93.4161 878.9933,-110.6122 1052.3391,-75.8375"/>
<polygon fill="#191970" stroke="#191970" points="1053.2052,-79.233 1062.3062,-73.8088 1051.809,-72.3737 1053.2052,-79.233"/>
</g>
<!-- Node8&#45;&gt;Node17 -->
<g id="edge19" class="edge">
<title>Node8&#45;&gt;Node17</title>
<path fill="none" stroke="#191970" d="M649.1419,-112.903C652.3026,-112.5801 655.4331,-112.2769 658.5,-112 944.4494,-86.1788 1016.8817,-92.8447 1303.5,-76 1345.3818,-73.5386 1393.3434,-70.5578 1426.1466,-68.4943"/>
<polygon fill="#191970" stroke="#191970" points="1426.4774,-71.9805 1436.2374,-67.8584 1426.0371,-64.9943 1426.4774,-71.9805"/>
</g>
<!-- Node26&#45;&gt;Node17 -->
<g id="edge36" class="edge">
<title>Node26&#45;&gt;Node17</title>
<path fill="none" stroke="#191970" d="M1409.5789,-224.3821C1428.0974,-217.4547 1449.1068,-206.0641 1460.5,-188 1480.2017,-156.7626 1475.4034,-111.5391 1470.3271,-85.8331"/>
<polygon fill="#191970" stroke="#191970" points="1473.6909,-84.8321 1468.1337,-75.8117 1466.8528,-86.3288 1473.6909,-84.8321"/>
</g>
</g>
</svg>
        <g id="navigator" transform="translate(0 0)" fill="#404254">
                <rect fill="#f2f5e9" fill-opacity="0.5" stroke="#606060" stroke-width=".5" x="0" y="0" width="60" height="60"/>
                <use id="zoomplus" xlink:href="#zoomPlus" x="17" y="9" onmousedown="handleZoom(evt,'in')"/>
                <use id="zoomminus" xlink:href="#zoomMin" x="42" y="9" onmousedown="handleZoom(evt,'out')"/>
                <use id="reset" xlink:href="#resetDef" x="30" y="36" onmousedown="handleReset()"/>
                <g id="arrowUp" xlink:href="#dirArrow" transform="translate(30 24)" onmousedown="handlePan(0,-1)">
                  <use xlink:href="#rim" fill="#404040">
                        <set attributeName="fill" to="#808080" begin="arrowUp.mouseover" end="arrowUp.mouseout"/>
                  </use>
                  <path fill="none" stroke="white" stroke-width="1.5" d="M0,-3.0v7 M-2.5,-0.5L0,-3.0L2.5,-0.5"/>
                </g>
                <g id="arrowRight" xlink:href="#dirArrow" transform="rotate(90) translate(36 -43)" onmousedown="handlePan(1,0)">
                  <use xlink:href="#rim" fill="#404040">
                        <set attributeName="fill" to="#808080" begin="arrowRight.mouseover" end="arrowRight.mouseout"/>
                  </use>
                  <path fill="none" stroke="white" stroke-width="1.5" d="M0,-3.0v7 M-2.5,-0.5L0,-3.0L2.5,-0.5"/>
                </g>
                <g id="arrowDown" xlink:href="#dirArrow" transform="rotate(180) translate(-30 -48)" onmousedown="handlePan(0,1)">
                  <use xlink:href="#rim" fill="#404040">
                        <set attributeName="fill" to="#808080" begin="arrowDown.mouseover" end="arrowDown.mouseout"/>
                  </use>
                  <path fill="none" stroke="white" stroke-width="1.5" d="M0,-3.0v7 M-2.5,-0.5L0,-3.0L2.5,-0.5"/>
                </g>
                <g id="arrowLeft" xlink:href="#dirArrow" transform="rotate(270) translate(-36 17)" onmousedown="handlePan(-1,0)">
                  <use xlink:href="#rim" fill="#404040">
                        <set attributeName="fill" to="#808080" begin="arrowLeft.mouseover" end="arrowLeft.mouseout"/>
                  </use>
                  <path fill="none" stroke="white" stroke-width="1.5" d="M0,-3.0v7 M-2.5,-0.5L0,-3.0L2.5,-0.5"/>
                </g>
        </g>
        <svg viewBox="0 0 15 15" width="100%" height="30px" preserveAspectRatio="xMaxYMin meet">
         <g id="arrow_out" transform="scale(0.3 0.3)">
          <a xlink:href="benchmark__TableBuilder_8cxx__incl_org.svg" target="_base">
           <rect id="button" ry="5" rx="5" y="6" x="6" height="38" width="38"
                fill="#f2f5e9" fill-opacity="0.5" stroke="#606060" stroke-width="1.0"/>
           <path id="arrow"
             d="M 11.500037,31.436501 C 11.940474,20.09759 22.043105,11.32322 32.158766,21.979434 L 37.068811,17.246167 C 37.068811,17.246167 37.088388,32 37.088388,32 L 22.160133,31.978069 C 22.160133,31.978069 26.997745,27.140456 26.997745,27.140456 C 18.528582,18.264221 13.291696,25.230495 11.500037,31.436501 z"
             style="fill:#404040;"/>
          </a>
         </g>
        </svg>
</svg>
