<?xml version="1.0" encoding="UTF-8" standalone="no"?>
<!DOCTYPE svg PUBLIC "-//W3C//DTD SVG 1.1//EN"
 "http://www.w3.org/Graphics/SVG/1.1/DTD/svg11.dtd">
<!-- Generated by graphviz version 2.40.1 (20161225.0304)
 -->
<!-- Title: /home/travis/build/AliceO2Group/AliceO2/GPU/GPUTracking/TPCClusterFinder/PackedCharge.h Pages: 1 -->
<svg width="1988pt" height="417pt"
 viewBox="0.00 0.00 1988.00 417.00" xmlns="http://www.w3.org/2000/svg" xmlns:xlink="http://www.w3.org/1999/xlink">
<g id="graph0" class="graph" transform="scale(1 1) rotate(0) translate(4 413)">
<title>/home/travis/build/AliceO2Group/AliceO2/GPU/GPUTracking/TPCClusterFinder/PackedCharge.h</title>
<!-- Node16 -->
<g id="node1" class="node">
<title>Node16</title>
<polygon fill="#bfbfbf" stroke="#000000" points="1123,-356.5 1123,-408.5 1314,-408.5 1314,-356.5 1123,-356.5"/>
<text text-anchor="start" x="1131" y="-396.5" font-family="Helvetica,sans-Serif" font-size="10.00" fill="#000000">/home/travis/build</text>
<text text-anchor="start" x="1131" y="-385.5" font-family="Helvetica,sans-Serif" font-size="10.00" fill="#000000">/AliceO2Group/AliceO2</text>
<text text-anchor="start" x="1131" y="-374.5" font-family="Helvetica,sans-Serif" font-size="10.00" fill="#000000">/GPU/GPUTracking/TPCClusterFinder</text>
<text text-anchor="middle" x="1218.5" y="-363.5" font-family="Helvetica,sans-Serif" font-size="10.00" fill="#000000">/PackedCharge.h</text>
</g>
<!-- Node17 -->
<g id="node2" class="node">
<title>Node17</title>
<g id="a_node2"><a xlink:href="../../d5/df1/GPUTPCSharedMemoryData_8h.html" target="_top" xlink:title="/home/travis/build\l/AliceO2Group/AliceO2\l/GPU/GPUTracking/TPCClusterFinder\l/GPUTPCSharedMemoryData.h">
<polygon fill="none" stroke="#000000" points="894,-267.5 894,-319.5 1085,-319.5 1085,-267.5 894,-267.5"/>
<text text-anchor="start" x="902" y="-307.5" font-family="Helvetica,sans-Serif" font-size="10.00" fill="#000000">/home/travis/build</text>
<text text-anchor="start" x="902" y="-296.5" font-family="Helvetica,sans-Serif" font-size="10.00" fill="#000000">/AliceO2Group/AliceO2</text>
<text text-anchor="start" x="902" y="-285.5" font-family="Helvetica,sans-Serif" font-size="10.00" fill="#000000">/GPU/GPUTracking/TPCClusterFinder</text>
<text text-anchor="middle" x="989.5" y="-274.5" font-family="Helvetica,sans-Serif" font-size="10.00" fill="#000000">/GPUTPCSharedMemoryData.h</text>
</a>
</g>
</g>
<!-- Node16&#45;&gt;Node17 -->
<g id="edge1" class="edge">
<title>Node16&#45;&gt;Node17</title>
<path fill="none" stroke="#191970" d="M1141.7411,-352.6679C1114.1825,-341.9574 1083.3396,-329.9704 1056.659,-319.6011"/>
<polygon fill="#191970" stroke="#191970" points="1140.751,-356.0381 1151.3398,-356.3984 1143.2868,-349.5136 1140.751,-356.0381"/>
</g>
<!-- Node23 -->
<g id="node8" class="node">
<title>Node23</title>
<g id="a_node8"><a xlink:href="../../d8/db5/GPUTPCClusterFinderKernels_8cxx.html" target="_top" xlink:title="/home/travis/build\l/AliceO2Group/AliceO2\l/GPU/GPUTracking/TPCClusterFinder\l/GPUTPCClusterFinderKernels.cxx">
<polygon fill="none" stroke="#000000" points="744,-.5 744,-52.5 935,-52.5 935,-.5 744,-.5"/>
<text text-anchor="start" x="752" y="-40.5" font-family="Helvetica,sans-Serif" font-size="10.00" fill="#000000">/home/travis/build</text>
<text text-anchor="start" x="752" y="-29.5" font-family="Helvetica,sans-Serif" font-size="10.00" fill="#000000">/AliceO2Group/AliceO2</text>
<text text-anchor="start" x="752" y="-18.5" font-family="Helvetica,sans-Serif" font-size="10.00" fill="#000000">/GPU/GPUTracking/TPCClusterFinder</text>
<text text-anchor="middle" x="839.5" y="-7.5" font-family="Helvetica,sans-Serif" font-size="10.00" fill="#000000">/GPUTPCClusterFinderKernels.cxx</text>
</a>
</g>
</g>
<!-- Node16&#45;&gt;Node23 -->
<g id="edge38" class="edge">
<title>Node16&#45;&gt;Node23</title>
<path fill="none" stroke="#191970" d="M1112.9055,-373.5105C1033.6298,-364.8576 923.0953,-348.7147 829.5,-320 650.433,-265.0629 548.1608,-299.9572 447.5,-142 434.8408,-122.1352 432.2111,-106.9196 447.5,-89 452.3294,-83.3396 629.1427,-56.8584 743.6296,-40.2339"/>
<polygon fill="#191970" stroke="#191970" points="1112.5864,-376.9963 1122.902,-374.5801 1113.3311,-370.036 1112.5864,-376.9963"/>
</g>
<!-- Node25 -->
<g id="node10" class="node">
<title>Node25</title>
<g id="a_node10"><a xlink:href="../../dd/d1f/PeakFinder_8cxx.html" target="_top" xlink:title="/home/travis/build\l/AliceO2Group/AliceO2\l/GPU/GPUTracking/TPCClusterFinder\l/PeakFinder.cxx">
<polygon fill="none" stroke="#000000" points="1371,-.5 1371,-52.5 1562,-52.5 1562,-.5 1371,-.5"/>
<text text-anchor="start" x="1379" y="-40.5" font-family="Helvetica,sans-Serif" font-size="10.00" fill="#000000">/home/travis/build</text>
<text text-anchor="start" x="1379" y="-29.5" font-family="Helvetica,sans-Serif" font-size="10.00" fill="#000000">/AliceO2Group/AliceO2</text>
<text text-anchor="start" x="1379" y="-18.5" font-family="Helvetica,sans-Serif" font-size="10.00" fill="#000000">/GPU/GPUTracking/TPCClusterFinder</text>
<text text-anchor="middle" x="1466.5" y="-7.5" font-family="Helvetica,sans-Serif" font-size="10.00" fill="#000000">/PeakFinder.cxx</text>
</a>
</g>
</g>
<!-- Node16&#45;&gt;Node25 -->
<g id="edge40" class="edge">
<title>Node16&#45;&gt;Node25</title>
<path fill="none" stroke="#191970" d="M1324.1033,-367.7859C1448.231,-344.2183 1648.8888,-285.0747 1740.5,-142 1753.202,-122.1626 1755.3309,-107.3005 1740.5,-89 1691.8742,-28.9986 1645.7133,-70.5385 1570.5,-53 1567.7781,-52.3653 1565.0182,-51.714 1562.234,-51.0502"/>
<polygon fill="#191970" stroke="#191970" points="1323.3854,-364.3593 1314.1908,-369.6233 1324.6612,-371.242 1323.3854,-364.3593"/>
</g>
<!-- Node28 -->
<g id="node13" class="node">
<title>Node28</title>
<g id="a_node13"><a xlink:href="../../d5/d4f/GPU_2GPUTracking_2TPCClusterFinder_2Clusterizer_8h.html" target="_top" xlink:title="/home/travis/build\l/AliceO2Group/AliceO2\l/GPU/GPUTracking/TPCClusterFinder\l/Clusterizer.h">
<polygon fill="none" stroke="#000000" points="1332,-89.5 1332,-141.5 1523,-141.5 1523,-89.5 1332,-89.5"/>
<text text-anchor="start" x="1340" y="-129.5" font-family="Helvetica,sans-Serif" font-size="10.00" fill="#000000">/home/travis/build</text>
<text text-anchor="start" x="1340" y="-118.5" font-family="Helvetica,sans-Serif" font-size="10.00" fill="#000000">/AliceO2Group/AliceO2</text>
<text text-anchor="start" x="1340" y="-107.5" font-family="Helvetica,sans-Serif" font-size="10.00" fill="#000000">/GPU/GPUTracking/TPCClusterFinder</text>
<text text-anchor="middle" x="1427.5" y="-96.5" font-family="Helvetica,sans-Serif" font-size="10.00" fill="#000000">/Clusterizer.h</text>
</a>
</g>
</g>
<!-- Node16&#45;&gt;Node28 -->
<g id="edge36" class="edge">
<title>Node16&#45;&gt;Node28</title>
<path fill="none" stroke="#191970" d="M1245.1064,-348.51C1287.365,-294.5242 1368.9286,-190.3257 1406.9968,-141.6931"/>
<polygon fill="#191970" stroke="#191970" points="1242.3282,-346.381 1238.9203,-356.4128 1247.8403,-350.6957 1242.3282,-346.381"/>
</g>
<!-- Node31 -->
<g id="node16" class="node">
<title>Node31</title>
<g id="a_node16"><a xlink:href="../../df/da6/Deconvolution_8h.html" target="_top" xlink:title="/home/travis/build\l/AliceO2Group/AliceO2\l/GPU/GPUTracking/TPCClusterFinder\l/Deconvolution.h">
<polygon fill="none" stroke="#000000" points="666,-89.5 666,-141.5 857,-141.5 857,-89.5 666,-89.5"/>
<text text-anchor="start" x="674" y="-129.5" font-family="Helvetica,sans-Serif" font-size="10.00" fill="#000000">/home/travis/build</text>
<text text-anchor="start" x="674" y="-118.5" font-family="Helvetica,sans-Serif" font-size="10.00" fill="#000000">/AliceO2Group/AliceO2</text>
<text text-anchor="start" x="674" y="-107.5" font-family="Helvetica,sans-Serif" font-size="10.00" fill="#000000">/GPU/GPUTracking/TPCClusterFinder</text>
<text text-anchor="middle" x="761.5" y="-96.5" font-family="Helvetica,sans-Serif" font-size="10.00" fill="#000000">/Deconvolution.h</text>
</a>
</g>
</g>
<!-- Node16&#45;&gt;Node31 -->
<g id="edge37" class="edge">
<title>Node16&#45;&gt;Node31</title>
<path fill="none" stroke="#191970" d="M1112.6638,-372.1921C1029.126,-362.3402 920.8144,-345.2267 884.5,-320 820.5307,-275.5622 784.1816,-186.1042 769.3846,-141.715"/>
<polygon fill="#191970" stroke="#191970" points="1112.3856,-375.6832 1122.722,-373.3576 1113.1914,-368.7298 1112.3856,-375.6832"/>
</g>
<!-- Node33 -->
<g id="node18" class="node">
<title>Node33</title>
<g id="a_node18"><a xlink:href="../../d7/d98/NoiseSuppression_8h.html" target="_top" xlink:title="/home/travis/build\l/AliceO2Group/AliceO2\l/GPU/GPUTracking/TPCClusterFinder\l/NoiseSuppression.h">
<polygon fill="none" stroke="#000000" points="1123,-89.5 1123,-141.5 1314,-141.5 1314,-89.5 1123,-89.5"/>
<text text-anchor="start" x="1131" y="-129.5" font-family="Helvetica,sans-Serif" font-size="10.00" fill="#000000">/home/travis/build</text>
<text text-anchor="start" x="1131" y="-118.5" font-family="Helvetica,sans-Serif" font-size="10.00" fill="#000000">/AliceO2Group/AliceO2</text>
<text text-anchor="start" x="1131" y="-107.5" font-family="Helvetica,sans-Serif" font-size="10.00" fill="#000000">/GPU/GPUTracking/TPCClusterFinder</text>
<text text-anchor="middle" x="1218.5" y="-96.5" font-family="Helvetica,sans-Serif" font-size="10.00" fill="#000000">/NoiseSuppression.h</text>
</a>
</g>
</g>
<!-- Node16&#45;&gt;Node33 -->
<g id="edge39" class="edge">
<title>Node16&#45;&gt;Node33</title>
<path fill="none" stroke="#191970" d="M1218.5,-346.1513C1218.5,-291.5402 1218.5,-189.6267 1218.5,-141.6931"/>
<polygon fill="#191970" stroke="#191970" points="1215.0001,-346.4127 1218.5,-356.4128 1222.0001,-346.4128 1215.0001,-346.4127"/>
</g>
<!-- Node36 -->
<g id="node21" class="node">
<title>Node36</title>
<g id="a_node21"><a xlink:href="../../d3/def/ClusterAccumulator_8h.html" target="_top" xlink:title="/home/travis/build\l/AliceO2Group/AliceO2\l/GPU/GPUTracking/TPCClusterFinder\l/ClusterAccumulator.h">
<polygon fill="none" stroke="#000000" points="1789,-89.5 1789,-141.5 1980,-141.5 1980,-89.5 1789,-89.5"/>
<text text-anchor="start" x="1797" y="-129.5" font-family="Helvetica,sans-Serif" font-size="10.00" fill="#000000">/home/travis/build</text>
<text text-anchor="start" x="1797" y="-118.5" font-family="Helvetica,sans-Serif" font-size="10.00" fill="#000000">/AliceO2Group/AliceO2</text>
<text text-anchor="start" x="1797" y="-107.5" font-family="Helvetica,sans-Serif" font-size="10.00" fill="#000000">/GPU/GPUTracking/TPCClusterFinder</text>
<text text-anchor="middle" x="1884.5" y="-96.5" font-family="Helvetica,sans-Serif" font-size="10.00" fill="#000000">/ClusterAccumulator.h</text>
</a>
</g>
</g>
<!-- Node16&#45;&gt;Node36 -->
<g id="edge32" class="edge">
<title>Node16&#45;&gt;Node36</title>
<path fill="none" stroke="#191970" d="M1324.4111,-375.8845C1475.3216,-365.6629 1738.0968,-344.6181 1774.5,-320 1837.4486,-277.4303 1867.3352,-186.6755 1878.7194,-141.7761"/>
<polygon fill="#191970" stroke="#191970" points="1323.9325,-372.4087 1314.1899,-376.5718 1324.4023,-379.3929 1323.9325,-372.4087"/>
</g>
<!-- Node18 -->
<g id="node3" class="node">
<title>Node18</title>
<g id="a_node3"><a xlink:href="../../d1/d59/GPUTPCClusterFinderKernels_8h.html" target="_top" xlink:title="/home/travis/build\l/AliceO2Group/AliceO2\l/GPU/GPUTracking/TPCClusterFinder\l/GPUTPCClusterFinderKernels.h">
<polygon fill="none" stroke="#000000" points="852,-178.5 852,-230.5 1043,-230.5 1043,-178.5 852,-178.5"/>
<text text-anchor="start" x="860" y="-218.5" font-family="Helvetica,sans-Serif" font-size="10.00" fill="#000000">/home/travis/build</text>
<text text-anchor="start" x="860" y="-207.5" font-family="Helvetica,sans-Serif" font-size="10.00" fill="#000000">/AliceO2Group/AliceO2</text>
<text text-anchor="start" x="860" y="-196.5" font-family="Helvetica,sans-Serif" font-size="10.00" fill="#000000">/GPU/GPUTracking/TPCClusterFinder</text>
<text text-anchor="middle" x="947.5" y="-185.5" font-family="Helvetica,sans-Serif" font-size="10.00" fill="#000000">/GPUTPCClusterFinderKernels.h</text>
</a>
</g>
</g>
<!-- Node17&#45;&gt;Node18 -->
<g id="edge2" class="edge">
<title>Node17&#45;&gt;Node18</title>
<path fill="none" stroke="#191970" d="M972.7404,-257.9856C968.4139,-248.8176 963.8369,-239.1186 959.7858,-230.5341"/>
<polygon fill="#191970" stroke="#191970" points="969.6927,-259.7286 977.1258,-267.2784 976.0232,-256.7411 969.6927,-259.7286"/>
</g>
<!-- Node19 -->
<g id="node4" class="node">
<title>Node19</title>
<g id="a_node4"><a xlink:href="../../da/de7/CfUtils_8h.html" target="_top" xlink:title="/home/travis/build\l/AliceO2Group/AliceO2\l/GPU/GPUTracking/TPCClusterFinder\l/CfUtils.h">
<polygon fill="none" stroke="#000000" points="1541,-89.5 1541,-141.5 1732,-141.5 1732,-89.5 1541,-89.5"/>
<text text-anchor="start" x="1549" y="-129.5" font-family="Helvetica,sans-Serif" font-size="10.00" fill="#000000">/home/travis/build</text>
<text text-anchor="start" x="1549" y="-118.5" font-family="Helvetica,sans-Serif" font-size="10.00" fill="#000000">/AliceO2Group/AliceO2</text>
<text text-anchor="start" x="1549" y="-107.5" font-family="Helvetica,sans-Serif" font-size="10.00" fill="#000000">/GPU/GPUTracking/TPCClusterFinder</text>
<text text-anchor="middle" x="1636.5" y="-96.5" font-family="Helvetica,sans-Serif" font-size="10.00" fill="#000000">/CfUtils.h</text>
</a>
</g>
</g>
<!-- Node18&#45;&gt;Node19 -->
<g id="edge3" class="edge">
<title>Node18&#45;&gt;Node19</title>
<path fill="none" stroke="#191970" d="M1053.2383,-197.6761C1170.7104,-189.0542 1365.6929,-171.6439 1531.5,-142 1534.5537,-141.454 1537.65,-140.8684 1540.7706,-140.2504"/>
<polygon fill="#191970" stroke="#191970" points="1052.8872,-194.1923 1043.167,-198.4077 1053.3944,-201.1739 1052.8872,-194.1923"/>
</g>
<!-- Node18&#45;&gt;Node23 -->
<g id="edge22" class="edge">
<title>Node18&#45;&gt;Node23</title>
<path fill="none" stroke="#191970" d="M922.9648,-170.0272C916.7754,-161.0123 910.2569,-151.2313 904.5,-142 885.7495,-111.9331 866.0362,-76.2436 853.3038,-52.5767"/>
<polygon fill="#191970" stroke="#191970" points="920.1896,-172.1674 928.7625,-178.3928 925.943,-168.18 920.1896,-172.1674"/>
</g>
<!-- Node26 -->
<g id="node11" class="node">
<title>Node26</title>
<g id="a_node11"><a xlink:href="../../db/d0d/ChargeMapFiller_8h.html" target="_top" xlink:title="/home/travis/build\l/AliceO2Group/AliceO2\l/GPU/GPUTracking/TPCClusterFinder\l/ChargeMapFiller.h">
<polygon fill="none" stroke="#000000" points="209,-89.5 209,-141.5 400,-141.5 400,-89.5 209,-89.5"/>
<text text-anchor="start" x="217" y="-129.5" font-family="Helvetica,sans-Serif" font-size="10.00" fill="#000000">/home/travis/build</text>
<text text-anchor="start" x="217" y="-118.5" font-family="Helvetica,sans-Serif" font-size="10.00" fill="#000000">/AliceO2Group/AliceO2</text>
<text text-anchor="start" x="217" y="-107.5" font-family="Helvetica,sans-Serif" font-size="10.00" fill="#000000">/GPU/GPUTracking/TPCClusterFinder</text>
<text text-anchor="middle" x="304.5" y="-96.5" font-family="Helvetica,sans-Serif" font-size="10.00" fill="#000000">/ChargeMapFiller.h</text>
</a>
</g>
</g>
<!-- Node18&#45;&gt;Node26 -->
<g id="edge10" class="edge">
<title>Node18&#45;&gt;Node26</title>
<path fill="none" stroke="#191970" d="M841.6346,-193.0983C740.2562,-181.7474 583.1056,-163.0215 447.5,-142 432.1551,-139.6212 415.93,-136.856 400.1333,-134.0273"/>
<polygon fill="#191970" stroke="#191970" points="841.5526,-196.6108 851.8791,-194.2415 842.329,-189.654 841.5526,-196.6108"/>
</g>
<!-- Node18&#45;&gt;Node28 -->
<g id="edge13" class="edge">
<title>Node18&#45;&gt;Node28</title>
<path fill="none" stroke="#191970" d="M1053.0536,-189.2757C1128.4319,-177.8275 1232.0762,-160.9127 1322.5,-142 1325.5364,-141.3649 1328.6176,-140.7016 1331.7252,-140.0164"/>
<polygon fill="#191970" stroke="#191970" points="1052.4397,-185.8286 1043.0753,-190.7843 1053.4862,-192.75 1052.4397,-185.8286"/>
</g>
<!-- Node29 -->
<g id="node14" class="node">
<title>Node29</title>
<g id="a_node14"><a xlink:href="../../d5/d70/DecodeZS_8h.html" target="_top" xlink:title="/home/travis/build\l/AliceO2Group/AliceO2\l/GPU/GPUTracking/TPCClusterFinder\l/DecodeZS.h">
<polygon fill="none" stroke="#000000" points="457,-89.5 457,-141.5 648,-141.5 648,-89.5 457,-89.5"/>
<text text-anchor="start" x="465" y="-129.5" font-family="Helvetica,sans-Serif" font-size="10.00" fill="#000000">/home/travis/build</text>
<text text-anchor="start" x="465" y="-118.5" font-family="Helvetica,sans-Serif" font-size="10.00" fill="#000000">/AliceO2Group/AliceO2</text>
<text text-anchor="start" x="465" y="-107.5" font-family="Helvetica,sans-Serif" font-size="10.00" fill="#000000">/GPU/GPUTracking/TPCClusterFinder</text>
<text text-anchor="middle" x="552.5" y="-96.5" font-family="Helvetica,sans-Serif" font-size="10.00" fill="#000000">/DecodeZS.h</text>
</a>
</g>
</g>
<!-- Node18&#45;&gt;Node29 -->
<g id="edge16" class="edge">
<title>Node18&#45;&gt;Node29</title>
<path fill="none" stroke="#191970" d="M842.127,-182.874C786.7596,-171.2569 717.8376,-156.3961 656.5,-142 653.7791,-141.3614 651.0199,-140.7066 648.2364,-140.0398"/>
<polygon fill="#191970" stroke="#191970" points="841.4437,-186.3068 851.9488,-184.9307 842.8784,-179.4554 841.4437,-186.3068"/>
</g>
<!-- Node18&#45;&gt;Node31 -->
<g id="edge19" class="edge">
<title>Node18&#45;&gt;Node31</title>
<path fill="none" stroke="#191970" d="M883.6844,-173.9646C861.6782,-163.4347 837.2459,-151.744 816.0484,-141.6011"/>
<polygon fill="#191970" stroke="#191970" points="882.4194,-177.2393 892.9506,-178.3984 885.4408,-170.9249 882.4194,-177.2393"/>
</g>
<!-- Node32 -->
<g id="node17" class="node">
<title>Node32</title>
<g id="a_node17"><a xlink:href="../../d0/dde/PeakFinder_8h.html" target="_top" xlink:title="/home/travis/build\l/AliceO2Group/AliceO2\l/GPU/GPUTracking/TPCClusterFinder\l/PeakFinder.h">
<polygon fill="none" stroke="#000000" points="914,-89.5 914,-141.5 1105,-141.5 1105,-89.5 914,-89.5"/>
<text text-anchor="start" x="922" y="-129.5" font-family="Helvetica,sans-Serif" font-size="10.00" fill="#000000">/home/travis/build</text>
<text text-anchor="start" x="922" y="-118.5" font-family="Helvetica,sans-Serif" font-size="10.00" fill="#000000">/AliceO2Group/AliceO2</text>
<text text-anchor="start" x="922" y="-107.5" font-family="Helvetica,sans-Serif" font-size="10.00" fill="#000000">/GPU/GPUTracking/TPCClusterFinder</text>
<text text-anchor="middle" x="1009.5" y="-96.5" font-family="Helvetica,sans-Serif" font-size="10.00" fill="#000000">/PeakFinder.h</text>
</a>
</g>
</g>
<!-- Node18&#45;&gt;Node32 -->
<g id="edge23" class="edge">
<title>Node18&#45;&gt;Node32</title>
<path fill="none" stroke="#191970" d="M971.6365,-169.8525C978.1996,-160.4313 985.1948,-150.3897 991.3639,-141.5341"/>
<polygon fill="#191970" stroke="#191970" points="968.6109,-168.0725 965.7667,-178.2784 974.3547,-172.0738 968.6109,-168.0725"/>
</g>
<!-- Node18&#45;&gt;Node33 -->
<g id="edge26" class="edge">
<title>Node18&#45;&gt;Node33</title>
<path fill="none" stroke="#191970" d="M1036.6316,-175.228C1069.6734,-164.3766 1106.8982,-152.1515 1139.0236,-141.6011"/>
<polygon fill="#191970" stroke="#191970" points="1035.3865,-171.9529 1026.9778,-178.3984 1037.5707,-178.6034 1035.3865,-171.9529"/>
</g>
<!-- Node34 -->
<g id="node19" class="node">
<title>Node34</title>
<g id="a_node19"><a xlink:href="../../da/dee/StreamCompaction_8h.html" target="_top" xlink:title="/home/travis/build\l/AliceO2Group/AliceO2\l/GPU/GPUTracking/TPCClusterFinder\l/StreamCompaction.h">
<polygon fill="none" stroke="#000000" points="0,-89.5 0,-141.5 191,-141.5 191,-89.5 0,-89.5"/>
<text text-anchor="start" x="8" y="-129.5" font-family="Helvetica,sans-Serif" font-size="10.00" fill="#000000">/home/travis/build</text>
<text text-anchor="start" x="8" y="-118.5" font-family="Helvetica,sans-Serif" font-size="10.00" fill="#000000">/AliceO2Group/AliceO2</text>
<text text-anchor="start" x="8" y="-107.5" font-family="Helvetica,sans-Serif" font-size="10.00" fill="#000000">/GPU/GPUTracking/TPCClusterFinder</text>
<text text-anchor="middle" x="95.5" y="-96.5" font-family="Helvetica,sans-Serif" font-size="10.00" fill="#000000">/StreamCompaction.h</text>
</a>
</g>
</g>
<!-- Node18&#45;&gt;Node34 -->
<g id="edge29" class="edge">
<title>Node18&#45;&gt;Node34</title>
<path fill="none" stroke="#191970" d="M841.5522,-201.1865C695.9802,-195.3771 426.3431,-180.1061 199.5,-142 196.7437,-141.537 193.9534,-141.0373 191.1425,-140.5067"/>
<polygon fill="#191970" stroke="#191970" points="841.6874,-204.6944 851.8167,-201.5886 841.9614,-197.6998 841.6874,-204.6944"/>
</g>
<!-- Node20 -->
<g id="node5" class="node">
<title>Node20</title>
<g id="a_node5"><a xlink:href="../../d8/db8/ClusterAccumulator_8cxx.html" target="_top" xlink:title="/home/travis/build\l/AliceO2Group/AliceO2\l/GPU/GPUTracking/TPCClusterFinder\l/ClusterAccumulator.cxx">
<polygon fill="none" stroke="#000000" points="1789,-.5 1789,-52.5 1980,-52.5 1980,-.5 1789,-.5"/>
<text text-anchor="start" x="1797" y="-40.5" font-family="Helvetica,sans-Serif" font-size="10.00" fill="#000000">/home/travis/build</text>
<text text-anchor="start" x="1797" y="-29.5" font-family="Helvetica,sans-Serif" font-size="10.00" fill="#000000">/AliceO2Group/AliceO2</text>
<text text-anchor="start" x="1797" y="-18.5" font-family="Helvetica,sans-Serif" font-size="10.00" fill="#000000">/GPU/GPUTracking/TPCClusterFinder</text>
<text text-anchor="middle" x="1884.5" y="-7.5" font-family="Helvetica,sans-Serif" font-size="10.00" fill="#000000">/ClusterAccumulator.cxx</text>
</a>
</g>
</g>
<!-- Node19&#45;&gt;Node20 -->
<g id="edge4" class="edge">
<title>Node19&#45;&gt;Node20</title>
<path fill="none" stroke="#191970" d="M1718.8464,-85.9483C1748.8889,-75.1669 1782.6223,-63.061 1811.7688,-52.6011"/>
<polygon fill="#191970" stroke="#191970" points="1717.4625,-82.7263 1709.2325,-89.3984 1719.827,-89.3149 1717.4625,-82.7263"/>
</g>
<!-- Node21 -->
<g id="node6" class="node">
<title>Node21</title>
<g id="a_node6"><a xlink:href="../../db/ddd/GPU_2GPUTracking_2TPCClusterFinder_2Clusterizer_8cxx.html" target="_top" xlink:title="/home/travis/build\l/AliceO2Group/AliceO2\l/GPU/GPUTracking/TPCClusterFinder\l/Clusterizer.cxx">
<polygon fill="none" stroke="#000000" points="1580,-.5 1580,-52.5 1771,-52.5 1771,-.5 1580,-.5"/>
<text text-anchor="start" x="1588" y="-40.5" font-family="Helvetica,sans-Serif" font-size="10.00" fill="#000000">/home/travis/build</text>
<text text-anchor="start" x="1588" y="-29.5" font-family="Helvetica,sans-Serif" font-size="10.00" fill="#000000">/AliceO2Group/AliceO2</text>
<text text-anchor="start" x="1588" y="-18.5" font-family="Helvetica,sans-Serif" font-size="10.00" fill="#000000">/GPU/GPUTracking/TPCClusterFinder</text>
<text text-anchor="middle" x="1675.5" y="-7.5" font-family="Helvetica,sans-Serif" font-size="10.00" fill="#000000">/Clusterizer.cxx</text>
</a>
</g>
</g>
<!-- Node19&#45;&gt;Node21 -->
<g id="edge5" class="edge">
<title>Node19&#45;&gt;Node21</title>
<path fill="none" stroke="#191970" d="M1652.0625,-79.9856C1656.0799,-70.8176 1660.33,-61.1186 1664.0918,-52.5341"/>
<polygon fill="#191970" stroke="#191970" points="1648.7983,-78.7144 1647.9903,-89.2784 1655.2097,-81.524 1648.7983,-78.7144"/>
</g>
<!-- Node22 -->
<g id="node7" class="node">
<title>Node22</title>
<g id="a_node7"><a xlink:href="../../da/d32/Deconvolution_8cxx.html" target="_top" xlink:title="/home/travis/build\l/AliceO2Group/AliceO2\l/GPU/GPUTracking/TPCClusterFinder\l/Deconvolution.cxx">
<polygon fill="none" stroke="#000000" points="953,-.5 953,-52.5 1144,-52.5 1144,-.5 953,-.5"/>
<text text-anchor="start" x="961" y="-40.5" font-family="Helvetica,sans-Serif" font-size="10.00" fill="#000000">/home/travis/build</text>
<text text-anchor="start" x="961" y="-29.5" font-family="Helvetica,sans-Serif" font-size="10.00" fill="#000000">/AliceO2Group/AliceO2</text>
<text text-anchor="start" x="961" y="-18.5" font-family="Helvetica,sans-Serif" font-size="10.00" fill="#000000">/GPU/GPUTracking/TPCClusterFinder</text>
<text text-anchor="middle" x="1048.5" y="-7.5" font-family="Helvetica,sans-Serif" font-size="10.00" fill="#000000">/Deconvolution.cxx</text>
</a>
</g>
</g>
<!-- Node19&#45;&gt;Node22 -->
<g id="edge6" class="edge">
<title>Node19&#45;&gt;Node22</title>
<path fill="none" stroke="#191970" d="M1530.8636,-89.0162C1362.9849,-61.0242 1316.0285,-81.4245 1152.5,-53 1149.7464,-52.5214 1146.9585,-52.0079 1144.1496,-51.4652"/>
<polygon fill="#191970" stroke="#191970" points="1530.3338,-92.4763 1540.779,-90.7018 1531.507,-85.5753 1530.3338,-92.4763"/>
</g>
<!-- Node19&#45;&gt;Node23 -->
<g id="edge7" class="edge">
<title>Node19&#45;&gt;Node23</title>
<path fill="none" stroke="#191970" d="M1530.6881,-89.0174C1270.96,-49.9126 1198.8868,-92.9896 943.5,-53 940.7388,-52.5676 937.9441,-52.095 935.1293,-51.5882"/>
<polygon fill="#191970" stroke="#191970" points="1530.3863,-92.5119 1540.8011,-90.567 1531.4466,-85.5927 1530.3863,-92.5119"/>
</g>
<!-- Node24 -->
<g id="node9" class="node">
<title>Node24</title>
<g id="a_node9"><a xlink:href="../../da/df9/NoiseSuppression_8cxx.html" target="_top" xlink:title="/home/travis/build\l/AliceO2Group/AliceO2\l/GPU/GPUTracking/TPCClusterFinder\l/NoiseSuppression.cxx">
<polygon fill="none" stroke="#000000" points="1162,-.5 1162,-52.5 1353,-52.5 1353,-.5 1162,-.5"/>
<text text-anchor="start" x="1170" y="-40.5" font-family="Helvetica,sans-Serif" font-size="10.00" fill="#000000">/home/travis/build</text>
<text text-anchor="start" x="1170" y="-29.5" font-family="Helvetica,sans-Serif" font-size="10.00" fill="#000000">/AliceO2Group/AliceO2</text>
<text text-anchor="start" x="1170" y="-18.5" font-family="Helvetica,sans-Serif" font-size="10.00" fill="#000000">/GPU/GPUTracking/TPCClusterFinder</text>
<text text-anchor="middle" x="1257.5" y="-7.5" font-family="Helvetica,sans-Serif" font-size="10.00" fill="#000000">/NoiseSuppression.cxx</text>
</a>
</g>
</g>
<!-- Node19&#45;&gt;Node24 -->
<g id="edge8" class="edge">
<title>Node19&#45;&gt;Node24</title>
<path fill="none" stroke="#191970" d="M1530.8668,-88.8943C1454.5691,-71.4367 1433.6284,-69.8192 1361.5,-53 1358.7781,-52.3653 1356.0182,-51.714 1353.234,-51.0502"/>
<polygon fill="#191970" stroke="#191970" points="1530.4379,-92.3872 1540.9686,-91.2236 1532.0107,-85.5662 1530.4379,-92.3872"/>
</g>
<!-- Node19&#45;&gt;Node25 -->
<g id="edge9" class="edge">
<title>Node19&#45;&gt;Node25</title>
<path fill="none" stroke="#191970" d="M1577.4103,-84.5648C1557.4523,-74.1162 1535.3871,-62.5644 1516.2282,-52.5341"/>
<polygon fill="#191970" stroke="#191970" points="1575.9312,-87.741 1586.4139,-89.2784 1579.1779,-81.5395 1575.9312,-87.741"/>
</g>
<!-- Node26&#45;&gt;Node23 -->
<g id="edge12" class="edge">
<title>Node26&#45;&gt;Node23</title>
<path fill="none" stroke="#191970" d="M410.0421,-89.8766C411.5368,-89.5782 413.0234,-89.2858 414.5,-89 430.5281,-85.8974 623.5136,-57.7916 743.8492,-40.3431"/>
<polygon fill="#191970" stroke="#191970" points="409.1688,-86.4829 400.0788,-91.9255 410.5788,-93.3394 409.1688,-86.4829"/>
</g>
<!-- Node27 -->
<g id="node12" class="node">
<title>Node27</title>
<g id="a_node12"><a xlink:href="../../d7/d43/ChargeMapFiller_8cxx.html" target="_top" xlink:title="/home/travis/build\l/AliceO2Group/AliceO2\l/GPU/GPUTracking/TPCClusterFinder\l/ChargeMapFiller.cxx">
<polygon fill="none" stroke="#000000" points="209,-.5 209,-52.5 400,-52.5 400,-.5 209,-.5"/>
<text text-anchor="start" x="217" y="-40.5" font-family="Helvetica,sans-Serif" font-size="10.00" fill="#000000">/home/travis/build</text>
<text text-anchor="start" x="217" y="-29.5" font-family="Helvetica,sans-Serif" font-size="10.00" fill="#000000">/AliceO2Group/AliceO2</text>
<text text-anchor="start" x="217" y="-18.5" font-family="Helvetica,sans-Serif" font-size="10.00" fill="#000000">/GPU/GPUTracking/TPCClusterFinder</text>
<text text-anchor="middle" x="304.5" y="-7.5" font-family="Helvetica,sans-Serif" font-size="10.00" fill="#000000">/ChargeMapFiller.cxx</text>
</a>
</g>
</g>
<!-- Node26&#45;&gt;Node27 -->
<g id="edge11" class="edge">
<title>Node26&#45;&gt;Node27</title>
<path fill="none" stroke="#191970" d="M304.5,-79.1155C304.5,-70.2061 304.5,-60.8475 304.5,-52.5341"/>
<polygon fill="#191970" stroke="#191970" points="301.0001,-79.2784 304.5,-89.2784 308.0001,-79.2785 301.0001,-79.2784"/>
</g>
<!-- Node28&#45;&gt;Node21 -->
<g id="edge14" class="edge">
<title>Node28&#45;&gt;Node21</title>
<path fill="none" stroke="#191970" d="M1509.8464,-85.9483C1539.8889,-75.1669 1573.6223,-63.061 1602.7688,-52.6011"/>
<polygon fill="#191970" stroke="#191970" points="1508.4625,-82.7263 1500.2325,-89.3984 1510.827,-89.3149 1508.4625,-82.7263"/>
</g>
<!-- Node28&#45;&gt;Node23 -->
<g id="edge15" class="edge">
<title>Node28&#45;&gt;Node23</title>
<path fill="none" stroke="#191970" d="M1321.8636,-89.0162C1153.9849,-61.0242 1107.0285,-81.4245 943.5,-53 940.7464,-52.5214 937.9585,-52.0079 935.1496,-51.4652"/>
<polygon fill="#191970" stroke="#191970" points="1321.3338,-92.4763 1331.779,-90.7018 1322.507,-85.5753 1321.3338,-92.4763"/>
</g>
<!-- Node29&#45;&gt;Node23 -->
<g id="edge18" class="edge">
<title>Node29&#45;&gt;Node23</title>
<path fill="none" stroke="#191970" d="M646.4436,-86.3677C681.5481,-75.4816 721.1631,-63.1968 755.3313,-52.6011"/>
<polygon fill="#191970" stroke="#191970" points="645.1849,-83.0935 636.6703,-89.3984 647.2582,-89.7794 645.1849,-83.0935"/>
</g>
<!-- Node30 -->
<g id="node15" class="node">
<title>Node30</title>
<g id="a_node15"><a xlink:href="../../da/ddb/DecodeZS_8cxx.html" target="_top" xlink:title="/home/travis/build\l/AliceO2Group/AliceO2\l/GPU/GPUTracking/TPCClusterFinder\l/DecodeZS.cxx">
<polygon fill="none" stroke="#000000" points="457,-.5 457,-52.5 648,-52.5 648,-.5 457,-.5"/>
<text text-anchor="start" x="465" y="-40.5" font-family="Helvetica,sans-Serif" font-size="10.00" fill="#000000">/home/travis/build</text>
<text text-anchor="start" x="465" y="-29.5" font-family="Helvetica,sans-Serif" font-size="10.00" fill="#000000">/AliceO2Group/AliceO2</text>
<text text-anchor="start" x="465" y="-18.5" font-family="Helvetica,sans-Serif" font-size="10.00" fill="#000000">/GPU/GPUTracking/TPCClusterFinder</text>
<text text-anchor="middle" x="552.5" y="-7.5" font-family="Helvetica,sans-Serif" font-size="10.00" fill="#000000">/DecodeZS.cxx</text>
</a>
</g>
</g>
<!-- Node29&#45;&gt;Node30 -->
<g id="edge17" class="edge">
<title>Node29&#45;&gt;Node30</title>
<path fill="none" stroke="#191970" d="M552.5,-79.1155C552.5,-70.2061 552.5,-60.8475 552.5,-52.5341"/>
<polygon fill="#191970" stroke="#191970" points="549.0001,-79.2784 552.5,-89.2784 556.0001,-79.2785 549.0001,-79.2784"/>
</g>
<!-- Node31&#45;&gt;Node22 -->
<g id="edge20" class="edge">
<title>Node31&#45;&gt;Node22</title>
<path fill="none" stroke="#191970" d="M855.4436,-86.3677C890.5481,-75.4816 930.1631,-63.1968 964.3313,-52.6011"/>
<polygon fill="#191970" stroke="#191970" points="854.1849,-83.0935 845.6703,-89.3984 856.2582,-89.7794 854.1849,-83.0935"/>
</g>
<!-- Node31&#45;&gt;Node23 -->
<g id="edge21" class="edge">
<title>Node31&#45;&gt;Node23</title>
<path fill="none" stroke="#191970" d="M791.1085,-81.7159C799.5823,-72.0472 808.6849,-61.6608 816.6836,-52.5341"/>
<polygon fill="#191970" stroke="#191970" points="788.4396,-79.451 784.4807,-89.2784 793.704,-84.0648 788.4396,-79.451"/>
</g>
<!-- Node32&#45;&gt;Node23 -->
<g id="edge24" class="edge">
<title>Node32&#45;&gt;Node23</title>
<path fill="none" stroke="#191970" d="M950.4103,-84.5648C930.4523,-74.1162 908.3871,-62.5644 889.2282,-52.5341"/>
<polygon fill="#191970" stroke="#191970" points="948.9312,-87.741 959.4139,-89.2784 952.1779,-81.5395 948.9312,-87.741"/>
</g>
<!-- Node32&#45;&gt;Node25 -->
<g id="edge25" class="edge">
<title>Node32&#45;&gt;Node25</title>
<path fill="none" stroke="#191970" d="M1115.2919,-88.7285C1224.5252,-67.63 1255.449,-74.0218 1361.5,-53 1364.5429,-52.3968 1367.6298,-51.7613 1370.7423,-51.1001"/>
<polygon fill="#191970" stroke="#191970" points="1114.3205,-85.3524 1105.1833,-90.7154 1115.6706,-92.2209 1114.3205,-85.3524"/>
</g>
<!-- Node33&#45;&gt;Node23 -->
<g id="edge27" class="edge">
<title>Node33&#45;&gt;Node23</title>
<path fill="none" stroke="#191970" d="M1112.8668,-88.8943C1036.5691,-71.4367 1015.6284,-69.8192 943.5,-53 940.7781,-52.3653 938.0182,-51.714 935.234,-51.0502"/>
<polygon fill="#191970" stroke="#191970" points="1112.4379,-92.3872 1122.9686,-91.2236 1114.0107,-85.5662 1112.4379,-92.3872"/>
</g>
<!-- Node33&#45;&gt;Node24 -->
<g id="edge28" class="edge">
<title>Node33&#45;&gt;Node24</title>
<path fill="none" stroke="#191970" d="M1234.0625,-79.9856C1238.0799,-70.8176 1242.33,-61.1186 1246.0918,-52.5341"/>
<polygon fill="#191970" stroke="#191970" points="1230.7983,-78.7144 1229.9903,-89.2784 1237.2097,-81.524 1230.7983,-78.7144"/>
</g>
<!-- Node34&#45;&gt;Node23 -->
<g id="edge30" class="edge">
<title>Node34&#45;&gt;Node23</title>
<path fill="none" stroke="#191970" d="M201.1402,-88.8382C402.268,-56.3549 457.2809,-75.2471 656.5,-53 684.8945,-49.8291 715.6642,-45.6601 743.7257,-41.5702"/>
<polygon fill="#191970" stroke="#191970" points="200.4425,-85.4057 191.1396,-90.4759 201.5738,-92.3137 200.4425,-85.4057"/>
</g>
<!-- Node35 -->
<g id="node20" class="node">
<title>Node35</title>
<g id="a_node20"><a xlink:href="../../dd/d29/StreamCompaction_8cxx.html" target="_top" xlink:title="/home/travis/build\l/AliceO2Group/AliceO2\l/GPU/GPUTracking/TPCClusterFinder\l/StreamCompaction.cxx">
<polygon fill="none" stroke="#000000" points="0,-.5 0,-52.5 191,-52.5 191,-.5 0,-.5"/>
<text text-anchor="start" x="8" y="-40.5" font-family="Helvetica,sans-Serif" font-size="10.00" fill="#000000">/home/travis/build</text>
<text text-anchor="start" x="8" y="-29.5" font-family="Helvetica,sans-Serif" font-size="10.00" fill="#000000">/AliceO2Group/AliceO2</text>
<text text-anchor="start" x="8" y="-18.5" font-family="Helvetica,sans-Serif" font-size="10.00" fill="#000000">/GPU/GPUTracking/TPCClusterFinder</text>
<text text-anchor="middle" x="95.5" y="-7.5" font-family="Helvetica,sans-Serif" font-size="10.00" fill="#000000">/StreamCompaction.cxx</text>
</a>
</g>
</g>
<!-- Node34&#45;&gt;Node35 -->
<g id="edge31" class="edge">
<title>Node34&#45;&gt;Node35</title>
<path fill="none" stroke="#191970" d="M95.5,-79.1155C95.5,-70.2061 95.5,-60.8475 95.5,-52.5341"/>
<polygon fill="#191970" stroke="#191970" points="92.0001,-79.2784 95.5,-89.2784 99.0001,-79.2785 92.0001,-79.2784"/>
</g>
<!-- Node36&#45;&gt;Node20 -->
<g id="edge33" class="edge">
<title>Node36&#45;&gt;Node20</title>
<path fill="none" stroke="#191970" d="M1884.5,-79.1155C1884.5,-70.2061 1884.5,-60.8475 1884.5,-52.5341"/>
<polygon fill="#191970" stroke="#191970" points="1881.0001,-79.2784 1884.5,-89.2784 1888.0001,-79.2785 1881.0001,-79.2784"/>
</g>
<!-- Node36&#45;&gt;Node21 -->
<g id="edge34" class="edge">
<title>Node36&#45;&gt;Node21</title>
<path fill="none" stroke="#191970" d="M1813.7853,-85.387C1788.8018,-74.7481 1760.9313,-62.8798 1736.7936,-52.6011"/>
<polygon fill="#191970" stroke="#191970" points="1812.6334,-88.7006 1823.2053,-89.3984 1815.376,-82.2602 1812.6334,-88.7006"/>
</g>
<!-- Node36&#45;&gt;Node23 -->
<g id="edge35" class="edge">
<title>Node36&#45;&gt;Node23</title>
<path fill="none" stroke="#191970" d="M1778.5203,-94.2997C1765.7479,-92.2476 1752.8557,-90.4092 1740.5,-89 1388.2007,-48.8182 1294.2426,-105.048 943.5,-53 940.7354,-52.5898 937.9377,-52.1366 935.1203,-51.647"/>
<polygon fill="#191970" stroke="#191970" points="1778.2882,-97.8088 1788.7252,-95.9871 1779.4302,-90.9026 1778.2882,-97.8088"/>
</g>
</g>
</svg>
