<?xml version="1.0" encoding="UTF-8" standalone="no"?>
<!DOCTYPE svg PUBLIC "-//W3C//DTD SVG 1.1//EN"
 "http://www.w3.org/Graphics/SVG/1.1/DTD/svg11.dtd">
<!-- Generated by graphviz version 2.40.1 (20161225.0304)
 -->
<!-- Title: o2::its::TrackReader Pages: 1 -->
<!--zoomable 1074 -->
<svg id="main" version="1.1" xmlns="http://www.w3.org/2000/svg" xmlns:xlink="http://www.w3.org/1999/xlink" xml:space="preserve" onload="init(evt)">
<style type="text/css"><![CDATA[
.edge:hover path { stroke: red; }
.edge:hover polygon { stroke: red; fill: red; }
]]></style>
<script type="text/javascript"><![CDATA[
var edges = document.getElementsByTagName('g');
if (edges && edges.length) {
  for (var i=0;i<edges.length;i++) {
    if (edges[i].id.substr(0,4)=='edge') {
      edges[i].setAttribute('class','edge');
    }
  }
}
]]></script>
        <defs>
                <circle id="rim" cx="0" cy="0" r="7"/>
                <circle id="rim2" cx="0" cy="0" r="3.5"/>
                <g id="zoomPlus">
                        <use xlink:href="#rim" fill="#404040">
                                <set attributeName="fill" to="#808080" begin="zoomplus.mouseover" end="zoomplus.mouseout"/>
                        </use>
                        <path d="M-4,0h8M0,-4v8" fill="none" stroke="white" stroke-width="1.5" pointer-events="none"/>
                </g>
                <g id="zoomMin">
                        <use xlink:href="#rim" fill="#404040">
                                <set attributeName="fill" to="#808080" begin="zoomminus.mouseover" end="zoomminus.mouseout"/>
                        </use>
                        <path d="M-4,0h8" fill="none" stroke="white" stroke-width="1.5" pointer-events="none"/>
                </g>
                <g id="dirArrow">
                        <path fill="none" stroke="white" stroke-width="1.5" d="M0,-3.0v7 M-2.5,-0.5L0,-3.0L2.5,-0.5"/>
                </g>
               <g id="resetDef">
                       <use xlink:href="#rim2" fill="#404040">
                               <set attributeName="fill" to="#808080" begin="reset.mouseover" end="reset.mouseout"/>
                       </use>
               </g>
        </defs>

<script type="text/javascript">
var viewWidth = 1721;
var viewHeight = 1074;
var sectionId = 'dynsection-1';
</script>
<script xlink:href="../../svgpan.js"/>
<svg id="graph" class="graph">
<g id="viewport">
<title>o2::its::TrackReader</title>
<!-- Node2 -->
<g id="node1" class="node">
<title>Node2</title>
<polygon fill="#bfbfbf" stroke="#000000" points="830,-.5 830,-101.5 942,-101.5 942,-.5 830,-.5"/>
<text text-anchor="middle" x="886" y="-89.5" font-family="Helvetica,sans-Serif" font-size="10.00" fill="#000000">o2::its::TrackReader</text>
<polyline fill="none" stroke="#000000" points="830,-82.5 942,-82.5 "/>
<text text-anchor="middle" x="886" y="-70.5" font-family="Helvetica,sans-Serif" font-size="10.00" fill="#000000"> </text>
<polyline fill="none" stroke="#000000" points="830,-63.5 942,-63.5 "/>
<text text-anchor="start" x="838" y="-51.5" font-family="Helvetica,sans-Serif" font-size="10.00" fill="#000000">+ TrackReader()</text>
<text text-anchor="start" x="838" y="-40.5" font-family="Helvetica,sans-Serif" font-size="10.00" fill="#000000">+ ~TrackReader()</text>
<text text-anchor="start" x="838" y="-29.5" font-family="Helvetica,sans-Serif" font-size="10.00" fill="#000000">+ init()</text>
<text text-anchor="start" x="838" y="-18.5" font-family="Helvetica,sans-Serif" font-size="10.00" fill="#000000">+ run()</text>
<text text-anchor="start" x="838" y="-7.5" font-family="Helvetica,sans-Serif" font-size="10.00" fill="#000000"># accumulate()</text>
</g>
<!-- Node3 -->
<g id="node2" class="node">
<title>Node3</title>
<g id="a_node2"><a xlink:href="../../de/dac/classo2_1_1framework_1_1Task.html" target="_top" xlink:title="{o2::framework::Task\n||+ ~Task()\l+ init()\l+ run()\l+ endOfStream()\l}">
<polygon fill="none" stroke="#000000" points="0,-342 0,-432 116,-432 116,-342 0,-342"/>
<text text-anchor="middle" x="58" y="-420" font-family="Helvetica,sans-Serif" font-size="10.00" fill="#000000">o2::framework::Task</text>
<polyline fill="none" stroke="#000000" points="0,-413 116,-413 "/>
<text text-anchor="middle" x="58" y="-401" font-family="Helvetica,sans-Serif" font-size="10.00" fill="#000000"> </text>
<polyline fill="none" stroke="#000000" points="0,-394 116,-394 "/>
<text text-anchor="start" x="8" y="-382" font-family="Helvetica,sans-Serif" font-size="10.00" fill="#000000">+ ~Task()</text>
<text text-anchor="start" x="8" y="-371" font-family="Helvetica,sans-Serif" font-size="10.00" fill="#000000">+ init()</text>
<text text-anchor="start" x="8" y="-360" font-family="Helvetica,sans-Serif" font-size="10.00" fill="#000000">+ run()</text>
<text text-anchor="start" x="8" y="-349" font-family="Helvetica,sans-Serif" font-size="10.00" fill="#000000">+ endOfStream()</text>
</a>
</g>
</g>
<!-- Node3&#45;&gt;Node2 -->
<g id="edge1" class="edge">
<title>Node3&#45;&gt;Node2</title>
<path fill="none" stroke="#191970" d="M72.4126,-332.1427C92.8861,-267.0719 137.4208,-162.1192 220,-120 326.141,-65.8631 689.3635,-54.1835 829.8724,-51.6786"/>
<polygon fill="none" stroke="#191970" points="69.0262,-331.2482 69.4479,-341.8346 75.72,-333.2958 69.0262,-331.2482"/>
</g>
<!-- Node4 -->
<g id="node3" class="node">
<title>Node4</title>
<polygon fill="none" stroke="#bfbfbf" points="134.5,-358.5 134.5,-415.5 225.5,-415.5 225.5,-358.5 134.5,-358.5"/>
<text text-anchor="middle" x="180" y="-403.5" font-family="Helvetica,sans-Serif" font-size="10.00" fill="#000000">vector&lt; int &gt; *</text>
<polyline fill="none" stroke="#bfbfbf" points="134.5,-396.5 225.5,-396.5 "/>
<text text-anchor="middle" x="180" y="-384.5" font-family="Helvetica,sans-Serif" font-size="10.00" fill="#000000"> </text>
<polyline fill="none" stroke="#bfbfbf" points="134.5,-377.5 225.5,-377.5 "/>
<text text-anchor="middle" x="180" y="-365.5" font-family="Helvetica,sans-Serif" font-size="10.00" fill="#000000"> </text>
</g>
<!-- Node4&#45;&gt;Node2 -->
<g id="edge2" class="edge">
<title>Node4&#45;&gt;Node2</title>
<path fill="none" stroke="#404040" d="M182.1084,-358.1112C187.9997,-301.1212 210.0108,-174.9848 291,-120 333.8448,-90.912 670.2535,-65.3153 817.4402,-55.3878"/>
<polygon fill="none" stroke="#404040" points="817.8423,-55.361 823.5619,-50.9695 829.8156,-54.56 824.0959,-58.9516 817.8423,-55.361"/>
<text text-anchor="middle" x="327.5" y="-161.5" font-family="Helvetica,sans-Serif" font-size="10.00" fill="#000000"> #mClusIndInp</text>
</g>
<!-- Node5 -->
<g id="node4" class="node">
<title>Node5</title>
<polygon fill="none" stroke="#bfbfbf" points="243.5,-353 243.5,-421 380.5,-421 380.5,-353 243.5,-353"/>
<text text-anchor="start" x="251.5" y="-409" font-family="Helvetica,sans-Serif" font-size="10.00" fill="#000000">vector&lt; o2::dataformats</text>
<text text-anchor="middle" x="312" y="-398" font-family="Helvetica,sans-Serif" font-size="10.00" fill="#000000">::Vertex &gt;</text>
<polyline fill="none" stroke="#bfbfbf" points="243.5,-391 380.5,-391 "/>
<text text-anchor="middle" x="312" y="-379" font-family="Helvetica,sans-Serif" font-size="10.00" fill="#000000"> </text>
<polyline fill="none" stroke="#bfbfbf" points="243.5,-372 380.5,-372 "/>
<text text-anchor="middle" x="312" y="-360" font-family="Helvetica,sans-Serif" font-size="10.00" fill="#000000"> </text>
</g>
<!-- Node5&#45;&gt;Node2 -->
<g id="edge3" class="edge">
<title>Node5&#45;&gt;Node2</title>
<path fill="none" stroke="#404040" d="M317.4696,-352.6998C328.6675,-294.6337 359.9758,-177.6731 437,-120 495.8122,-75.9634 706.8548,-59.4776 817.3849,-53.7655"/>
<polygon fill="none" stroke="#404040" points="817.7168,-53.7491 823.5104,-49.4556 829.7019,-53.1522 823.9083,-57.4457 817.7168,-53.7491"/>
<text text-anchor="middle" x="467.5" y="-161.5" font-family="Helvetica,sans-Serif" font-size="10.00" fill="#000000"> #mVertices</text>
</g>
<!-- Node6 -->
<g id="node5" class="node">
<title>Node6</title>
<polygon fill="none" stroke="#bfbfbf" points="399,-353 399,-421 505,-421 505,-353 399,-353"/>
<text text-anchor="start" x="407" y="-409" font-family="Helvetica,sans-Serif" font-size="10.00" fill="#000000">vector&lt; o2::itsmft</text>
<text text-anchor="middle" x="452" y="-398" font-family="Helvetica,sans-Serif" font-size="10.00" fill="#000000">::ROFRecord &gt;</text>
<polyline fill="none" stroke="#bfbfbf" points="399,-391 505,-391 "/>
<text text-anchor="middle" x="452" y="-379" font-family="Helvetica,sans-Serif" font-size="10.00" fill="#000000"> </text>
<polyline fill="none" stroke="#bfbfbf" points="399,-372 505,-372 "/>
<text text-anchor="middle" x="452" y="-360" font-family="Helvetica,sans-Serif" font-size="10.00" fill="#000000"> </text>
</g>
<!-- Node6&#45;&gt;Node2 -->
<g id="edge4" class="edge">
<title>Node6&#45;&gt;Node2</title>
<path fill="none" stroke="#404040" d="M456.3868,-352.7322C465.7617,-294.7151 493.4434,-177.8263 569,-120 607.3422,-90.6553 736.5102,-69.6678 817.6506,-59.0054"/>
<polygon fill="none" stroke="#404040" points="817.8466,-58.9802 823.2857,-54.2456 829.7481,-57.4452 824.309,-62.1798 817.8466,-58.9802"/>
<text text-anchor="middle" x="617.5" y="-167" font-family="Helvetica,sans-Serif" font-size="10.00" fill="#000000"> #mVerticesROFRec</text>
<text text-anchor="middle" x="617.5" y="-156" font-family="Helvetica,sans-Serif" font-size="10.00" fill="#000000">#mROFRec</text>
</g>
<!-- Node7 -->
<g id="node6" class="node">
<title>Node7</title>
<polygon fill="none" stroke="#bfbfbf" points="523,-358.5 523,-415.5 669,-415.5 669,-358.5 523,-358.5"/>
<text text-anchor="middle" x="596" y="-403.5" font-family="Helvetica,sans-Serif" font-size="10.00" fill="#000000">vector&lt; o2::its::TrackITS &gt;</text>
<polyline fill="none" stroke="#bfbfbf" points="523,-396.5 669,-396.5 "/>
<text text-anchor="middle" x="596" y="-384.5" font-family="Helvetica,sans-Serif" font-size="10.00" fill="#000000"> </text>
<polyline fill="none" stroke="#bfbfbf" points="523,-377.5 669,-377.5 "/>
<text text-anchor="middle" x="596" y="-365.5" font-family="Helvetica,sans-Serif" font-size="10.00" fill="#000000"> </text>
</g>
<!-- Node7&#45;&gt;Node2 -->
<g id="edge5" class="edge">
<title>Node7&#45;&gt;Node2</title>
<path fill="none" stroke="#404040" d="M604.0964,-358.1337C620.507,-304.4606 662.514,-188.5463 736,-120 759.213,-98.3474 790.4124,-82.5159 818.3447,-71.5213"/>
<polygon fill="none" stroke="#404040" points="818.4461,-71.4831 822.6492,-65.6236 829.6746,-67.2497 825.4715,-73.1092 818.4461,-71.4831"/>
<text text-anchor="middle" x="762" y="-161.5" font-family="Helvetica,sans-Serif" font-size="10.00" fill="#000000"> #mTracks</text>
</g>
<!-- Node8 -->
<g id="node7" class="node">
<title>Node8</title>
<g id="a_node7"><a xlink:href="../../d9/db3/structo2_1_1header_1_1Descriptor.html" target="_top" xlink:title="{o2::header::Descriptor\l\&lt; gSizeDataOriginString,\l printDataOrigin \&gt;\n||+ Descriptor()\l+ Descriptor()\l+ Descriptor()\l+ Descriptor()\l+ operator=()\l+ operator ItgType()\l+ runtimeInit()\l+ operator==()\l+ operator==()\l+ operator\&lt;()\l+ operator!=()\l+ operator!=()\l+ as()\l+ print()\l}">
<polygon fill="none" stroke="#000000" points="687,-276 687,-498 825,-498 825,-276 687,-276"/>
<text text-anchor="start" x="695" y="-486" font-family="Helvetica,sans-Serif" font-size="10.00" fill="#000000">o2::header::Descriptor</text>
<text text-anchor="start" x="695" y="-475" font-family="Helvetica,sans-Serif" font-size="10.00" fill="#000000">&lt; gSizeDataOriginString,</text>
<text text-anchor="middle" x="756" y="-464" font-family="Helvetica,sans-Serif" font-size="10.00" fill="#000000"> printDataOrigin &gt;</text>
<polyline fill="none" stroke="#000000" points="687,-457 825,-457 "/>
<text text-anchor="middle" x="756" y="-445" font-family="Helvetica,sans-Serif" font-size="10.00" fill="#000000"> </text>
<polyline fill="none" stroke="#000000" points="687,-438 825,-438 "/>
<text text-anchor="start" x="695" y="-426" font-family="Helvetica,sans-Serif" font-size="10.00" fill="#000000">+ Descriptor()</text>
<text text-anchor="start" x="695" y="-415" font-family="Helvetica,sans-Serif" font-size="10.00" fill="#000000">+ Descriptor()</text>
<text text-anchor="start" x="695" y="-404" font-family="Helvetica,sans-Serif" font-size="10.00" fill="#000000">+ Descriptor()</text>
<text text-anchor="start" x="695" y="-393" font-family="Helvetica,sans-Serif" font-size="10.00" fill="#000000">+ Descriptor()</text>
<text text-anchor="start" x="695" y="-382" font-family="Helvetica,sans-Serif" font-size="10.00" fill="#000000">+ operator=()</text>
<text text-anchor="start" x="695" y="-371" font-family="Helvetica,sans-Serif" font-size="10.00" fill="#000000">+ operator ItgType()</text>
<text text-anchor="start" x="695" y="-360" font-family="Helvetica,sans-Serif" font-size="10.00" fill="#000000">+ runtimeInit()</text>
<text text-anchor="start" x="695" y="-349" font-family="Helvetica,sans-Serif" font-size="10.00" fill="#000000">+ operator==()</text>
<text text-anchor="start" x="695" y="-338" font-family="Helvetica,sans-Serif" font-size="10.00" fill="#000000">+ operator==()</text>
<text text-anchor="start" x="695" y="-327" font-family="Helvetica,sans-Serif" font-size="10.00" fill="#000000">+ operator&lt;()</text>
<text text-anchor="start" x="695" y="-316" font-family="Helvetica,sans-Serif" font-size="10.00" fill="#000000">+ operator!=()</text>
<text text-anchor="start" x="695" y="-305" font-family="Helvetica,sans-Serif" font-size="10.00" fill="#000000">+ operator!=()</text>
<text text-anchor="start" x="695" y="-294" font-family="Helvetica,sans-Serif" font-size="10.00" fill="#000000">+ as()</text>
<text text-anchor="start" x="695" y="-283" font-family="Helvetica,sans-Serif" font-size="10.00" fill="#000000">+ print()</text>
</a>
</g>
</g>
<!-- Node8&#45;&gt;Node2 -->
<g id="edge6" class="edge">
<title>Node8&#45;&gt;Node2</title>
<path fill="none" stroke="#404040" d="M773.9737,-275.7127C784.8595,-226.139 801.6837,-168.1958 827,-120 828.4945,-117.1548 830.1253,-114.3251 831.8611,-111.5265"/>
<polygon fill="none" stroke="#404040" points="831.8643,-111.5216 831.8856,-104.3105 838.5501,-101.5567 838.5289,-108.7678 831.8643,-111.5216"/>
<text text-anchor="middle" x="852.5" y="-161.5" font-family="Helvetica,sans-Serif" font-size="10.00" fill="#000000"> #mOrigin</text>
</g>
<!-- Node9 -->
<g id="node8" class="node">
<title>Node9</title>
<polygon fill="none" stroke="#bfbfbf" points="667.5,-1008.5 667.5,-1065.5 706.5,-1065.5 706.5,-1008.5 667.5,-1008.5"/>
<text text-anchor="middle" x="687" y="-1053.5" font-family="Helvetica,sans-Serif" font-size="10.00" fill="#000000">Type</text>
<polyline fill="none" stroke="#bfbfbf" points="667.5,-1046.5 706.5,-1046.5 "/>
<text text-anchor="middle" x="687" y="-1034.5" font-family="Helvetica,sans-Serif" font-size="10.00" fill="#000000"> </text>
<polyline fill="none" stroke="#bfbfbf" points="667.5,-1027.5 706.5,-1027.5 "/>
<text text-anchor="middle" x="687" y="-1015.5" font-family="Helvetica,sans-Serif" font-size="10.00" fill="#000000"> </text>
</g>
<!-- Node9&#45;&gt;Node8 -->
<g id="edge7" class="edge">
<title>Node9&#45;&gt;Node8</title>
<path fill="none" stroke="#404040" d="M697.2597,-1008.4393C699.0993,-1002.4154 700.8075,-996.0506 702,-990 734.1596,-826.8258 716.7019,-782.608 732,-617 735.2043,-582.312 738.9936,-544.7155 742.6033,-510.1673"/>
<polygon fill="none" stroke="#404040" points="742.6188,-510.0185 739.2669,-503.6337 743.8713,-498.084 747.2232,-504.4687 742.6188,-510.0185"/>
<text text-anchor="middle" x="744.5" y="-775.5" font-family="Helvetica,sans-Serif" font-size="10.00" fill="#000000"> +itg</text>
</g>
<!-- Node13 -->
<g id="node12" class="node">
<title>Node13</title>
<g id="a_node12"><a xlink:href="../../d9/db3/structo2_1_1header_1_1Descriptor.html" target="_top" xlink:title="{o2::header::Descriptor\l\&lt; N, PrinterPolicy \&gt;\n||+ Descriptor()\l+ Descriptor()\l+ Descriptor()\l+ operator=()\l+ operator ItgType()\l+ Descriptor()\l+ runtimeInit()\l+ operator==()\l+ operator\&lt;()\l+ operator!=()\l+ operator==()\l+ operator!=()\l+ as()\l+ print()\l}">
<polygon fill="none" stroke="#000000" points="556.5,-672.5 556.5,-883.5 681.5,-883.5 681.5,-672.5 556.5,-672.5"/>
<text text-anchor="start" x="564.5" y="-871.5" font-family="Helvetica,sans-Serif" font-size="10.00" fill="#000000">o2::header::Descriptor</text>
<text text-anchor="middle" x="619" y="-860.5" font-family="Helvetica,sans-Serif" font-size="10.00" fill="#000000">&lt; N, PrinterPolicy &gt;</text>
<polyline fill="none" stroke="#000000" points="556.5,-853.5 681.5,-853.5 "/>
<text text-anchor="middle" x="619" y="-841.5" font-family="Helvetica,sans-Serif" font-size="10.00" fill="#000000"> </text>
<polyline fill="none" stroke="#000000" points="556.5,-834.5 681.5,-834.5 "/>
<text text-anchor="start" x="564.5" y="-822.5" font-family="Helvetica,sans-Serif" font-size="10.00" fill="#000000">+ Descriptor()</text>
<text text-anchor="start" x="564.5" y="-811.5" font-family="Helvetica,sans-Serif" font-size="10.00" fill="#000000">+ Descriptor()</text>
<text text-anchor="start" x="564.5" y="-800.5" font-family="Helvetica,sans-Serif" font-size="10.00" fill="#000000">+ Descriptor()</text>
<text text-anchor="start" x="564.5" y="-789.5" font-family="Helvetica,sans-Serif" font-size="10.00" fill="#000000">+ operator=()</text>
<text text-anchor="start" x="564.5" y="-778.5" font-family="Helvetica,sans-Serif" font-size="10.00" fill="#000000">+ operator ItgType()</text>
<text text-anchor="start" x="564.5" y="-767.5" font-family="Helvetica,sans-Serif" font-size="10.00" fill="#000000">+ Descriptor()</text>
<text text-anchor="start" x="564.5" y="-756.5" font-family="Helvetica,sans-Serif" font-size="10.00" fill="#000000">+ runtimeInit()</text>
<text text-anchor="start" x="564.5" y="-745.5" font-family="Helvetica,sans-Serif" font-size="10.00" fill="#000000">+ operator==()</text>
<text text-anchor="start" x="564.5" y="-734.5" font-family="Helvetica,sans-Serif" font-size="10.00" fill="#000000">+ operator&lt;()</text>
<text text-anchor="start" x="564.5" y="-723.5" font-family="Helvetica,sans-Serif" font-size="10.00" fill="#000000">+ operator!=()</text>
<text text-anchor="start" x="564.5" y="-712.5" font-family="Helvetica,sans-Serif" font-size="10.00" fill="#000000">+ operator==()</text>
<text text-anchor="start" x="564.5" y="-701.5" font-family="Helvetica,sans-Serif" font-size="10.00" fill="#000000">+ operator!=()</text>
<text text-anchor="start" x="564.5" y="-690.5" font-family="Helvetica,sans-Serif" font-size="10.00" fill="#000000">+ as()</text>
<text text-anchor="start" x="564.5" y="-679.5" font-family="Helvetica,sans-Serif" font-size="10.00" fill="#000000">+ print()</text>
</a>
</g>
</g>
<!-- Node9&#45;&gt;Node13 -->
<g id="edge12" class="edge">
<title>Node9&#45;&gt;Node13</title>
<path fill="none" stroke="#404040" d="M679.463,-1008.2929C672.2248,-980.724 660.7992,-937.2056 649.8197,-895.3869"/>
<polygon fill="none" stroke="#404040" points="649.786,-895.2583 644.3935,-890.4707 646.7387,-883.6516 652.1312,-888.4392 649.786,-895.2583"/>
<text text-anchor="middle" x="685.5" y="-971" font-family="Helvetica,sans-Serif" font-size="10.00" fill="#000000"> +itg</text>
</g>
<!-- Node10 -->
<g id="node9" class="node">
<title>Node10</title>
<polygon fill="none" stroke="#bfbfbf" points="753,-1008.5 753,-1065.5 791,-1065.5 791,-1008.5 753,-1008.5"/>
<text text-anchor="middle" x="772" y="-1053.5" font-family="Helvetica,sans-Serif" font-size="10.00" fill="#000000">char</text>
<polyline fill="none" stroke="#bfbfbf" points="753,-1046.5 791,-1046.5 "/>
<text text-anchor="middle" x="772" y="-1034.5" font-family="Helvetica,sans-Serif" font-size="10.00" fill="#000000"> </text>
<polyline fill="none" stroke="#bfbfbf" points="753,-1027.5 791,-1027.5 "/>
<text text-anchor="middle" x="772" y="-1015.5" font-family="Helvetica,sans-Serif" font-size="10.00" fill="#000000"> </text>
</g>
<!-- Node10&#45;&gt;Node8 -->
<g id="edge8" class="edge">
<title>Node10&#45;&gt;Node8</title>
<path fill="none" stroke="#404040" d="M771.2919,-1008.2316C769.1853,-922.6527 762.8676,-665.9968 759.0435,-510.641"/>
<polygon fill="none" stroke="#404040" points="759.0338,-510.244 754.8873,-504.3443 758.7384,-498.2476 762.8849,-504.1473 759.0338,-510.244"/>
<text text-anchor="middle" x="781.5" y="-775.5" font-family="Helvetica,sans-Serif" font-size="10.00" fill="#000000"> +str</text>
</g>
<!-- Node10&#45;&gt;Node13 -->
<g id="edge13" class="edge">
<title>Node10&#45;&gt;Node13</title>
<path fill="none" stroke="#404040" d="M752.7433,-1014.5812C736.7093,-995.3037 713.8574,-966.3607 697,-939 688.3474,-924.9563 679.9279,-909.8103 672.0172,-894.6238"/>
<polygon fill="none" stroke="#404040" points="671.8264,-894.2516 665.5292,-890.7378 666.3508,-883.5737 672.6479,-887.0874 671.8264,-894.2516"/>
<text text-anchor="middle" x="743.5" y="-971" font-family="Helvetica,sans-Serif" font-size="10.00" fill="#000000"> +str</text>
</g>
<!-- Node11 -->
<g id="node10" class="node">
<title>Node11</title>
<polygon fill="none" stroke="#bfbfbf" points="835.5,-749.5 835.5,-806.5 864.5,-806.5 864.5,-749.5 835.5,-749.5"/>
<text text-anchor="middle" x="850" y="-794.5" font-family="Helvetica,sans-Serif" font-size="10.00" fill="#000000">int</text>
<polyline fill="none" stroke="#bfbfbf" points="835.5,-787.5 864.5,-787.5 "/>
<text text-anchor="middle" x="850" y="-775.5" font-family="Helvetica,sans-Serif" font-size="10.00" fill="#000000"> </text>
<polyline fill="none" stroke="#bfbfbf" points="835.5,-768.5 864.5,-768.5 "/>
<text text-anchor="middle" x="850" y="-756.5" font-family="Helvetica,sans-Serif" font-size="10.00" fill="#000000"> </text>
</g>
<!-- Node11&#45;&gt;Node8 -->
<g id="edge9" class="edge">
<title>Node11&#45;&gt;Node8</title>
<path fill="none" stroke="#404040" d="M845.6985,-749.328C840.6483,-716.9963 831.6022,-662.9384 821,-617 812.9099,-581.946 802.8442,-544.2552 793.069,-509.7342"/>
<polygon fill="none" stroke="#404040" points="793.0585,-509.6971 787.5667,-505.0238 789.7684,-498.157 795.2602,-502.8303 793.0585,-509.6971"/>
<text text-anchor="middle" x="845" y="-591" font-family="Helvetica,sans-Serif" font-size="10.00" fill="#000000"> +arraySize</text>
<text text-anchor="middle" x="845" y="-580" font-family="Helvetica,sans-Serif" font-size="10.00" fill="#000000">+size</text>
<text text-anchor="middle" x="845" y="-569" font-family="Helvetica,sans-Serif" font-size="10.00" fill="#000000">+bitcount</text>
</g>
<!-- Node12 -->
<g id="node11" class="node">
<title>Node12</title>
<polygon fill="none" stroke="#bfbfbf" points="450.5,-1008.5 450.5,-1065.5 557.5,-1065.5 557.5,-1008.5 450.5,-1008.5"/>
<text text-anchor="middle" x="504" y="-1053.5" font-family="Helvetica,sans-Serif" font-size="10.00" fill="#000000">anonymous:+@24</text>
<polyline fill="none" stroke="#bfbfbf" points="450.5,-1046.5 557.5,-1046.5 "/>
<text text-anchor="middle" x="504" y="-1034.5" font-family="Helvetica,sans-Serif" font-size="10.00" fill="#000000"> </text>
<polyline fill="none" stroke="#bfbfbf" points="450.5,-1027.5 557.5,-1027.5 "/>
<text text-anchor="middle" x="504" y="-1015.5" font-family="Helvetica,sans-Serif" font-size="10.00" fill="#000000"> </text>
</g>
<!-- Node12&#45;&gt;Node8 -->
<g id="edge10" class="edge">
<title>Node12&#45;&gt;Node8</title>
<path fill="none" stroke="#404040" d="M498.1149,-1008.3951C485.101,-938.5077 459.171,-754.7331 514,-617 525.2896,-588.6399 533.1268,-580.477 560,-566 606.705,-540.8393 635.3062,-579.4906 678,-548 692.216,-537.5144 703.9653,-523.7412 713.6423,-508.6587"/>
<polygon fill="none" stroke="#404040" points="713.8435,-508.3232 713.4991,-501.1203 720.0155,-498.0321 720.3598,-505.235 713.8435,-508.3232"/>
<text text-anchor="middle" x="531" y="-775.5" font-family="Helvetica,sans-Serif" font-size="10.00" fill="#000000"> +@24</text>
</g>
<!-- Node12&#45;&gt;Node13 -->
<g id="edge14" class="edge">
<title>Node12&#45;&gt;Node13</title>
<path fill="none" stroke="#404040" d="M516.7464,-1008.2929C529.0397,-980.6062 548.4755,-936.8334 567.1164,-894.8509"/>
<polygon fill="none" stroke="#404040" points="567.2193,-894.6191 565.9983,-887.5121 572.089,-883.6516 573.31,-890.7586 567.2193,-894.6191"/>
<text text-anchor="middle" x="554" y="-971" font-family="Helvetica,sans-Serif" font-size="10.00" fill="#000000"> +@24</text>
</g>
<!-- Node13&#45;&gt;Node8 -->
<g id="edge11" class="edge">
<title>Node13&#45;&gt;Node8</title>
<path fill="none" stroke="#ffa500" d="M564.6242,-662.1995C556.7782,-628.0788 557.7085,-592.7587 580,-566 608.3444,-531.9753 642.7635,-574.823 678,-548 695.1758,-534.9253 708.7745,-517.0835 719.4725,-498.0266"/>
<polygon fill="#ffa500" stroke="#ffa500" points="561.3275,-663.4358 567.1921,-672.2594 568.11,-661.7044 561.3275,-663.4358"/>
<text text-anchor="start" x="580" y="-585.5" font-family="Helvetica,sans-Serif" font-size="10.00" fill="#000000"> &lt; gSizeDataOriginString,</text>
<text text-anchor="middle" x="642.5" y="-574.5" font-family="Helvetica,sans-Serif" font-size="10.00" fill="#000000"> printDataOrigin &gt;</text>
</g>
<!-- Node14 -->
<g id="node13" class="node">
<title>Node14</title>
<polygon fill="none" stroke="#bfbfbf" points="576,-1008.5 576,-1065.5 620,-1065.5 620,-1008.5 576,-1008.5"/>
<text text-anchor="middle" x="598" y="-1053.5" font-family="Helvetica,sans-Serif" font-size="10.00" fill="#000000">static</text>
<polyline fill="none" stroke="#bfbfbf" points="576,-1046.5 620,-1046.5 "/>
<text text-anchor="middle" x="598" y="-1034.5" font-family="Helvetica,sans-Serif" font-size="10.00" fill="#000000"> </text>
<polyline fill="none" stroke="#bfbfbf" points="576,-1027.5 620,-1027.5 "/>
<text text-anchor="middle" x="598" y="-1015.5" font-family="Helvetica,sans-Serif" font-size="10.00" fill="#000000"> </text>
</g>
<!-- Node14&#45;&gt;Node13 -->
<g id="edge15" class="edge">
<title>Node14&#45;&gt;Node13</title>
<path fill="none" stroke="#404040" d="M597.6737,-1008.4651C597.6713,-993.1861 597.9434,-974.052 599,-957 600.2229,-937.2646 602.0619,-916.3574 604.1381,-896.0615"/>
<polygon fill="none" stroke="#404040" points="604.1662,-895.7932 600.8157,-889.4077 605.4214,-883.859 608.7719,-890.2445 604.1662,-895.7932"/>
<text text-anchor="middle" x="628" y="-982" font-family="Helvetica,sans-Serif" font-size="10.00" fill="#000000"> +arraySize</text>
<text text-anchor="middle" x="628" y="-971" font-family="Helvetica,sans-Serif" font-size="10.00" fill="#000000">+size</text>
<text text-anchor="middle" x="628" y="-960" font-family="Helvetica,sans-Serif" font-size="10.00" fill="#000000">+bitcount</text>
</g>
<!-- Node15 -->
<g id="node14" class="node">
<title>Node15</title>
<g id="a_node14"><a xlink:href="../../dc/daa/classo2_1_1dataformats_1_1MCTruthContainer.html" target="_top" xlink:title="{o2::dataformats::MCTruth\lContainer\&lt; o2::MCCompLabel \&gt;\n||+ MCTruthContainer()\l+ MCTruthContainer()\l+ MCTruthContainer()\l+ ~MCTruthContainer()\l+ operator=()\l+ operator=()\l+ getMCTruthHeader()\l+ getElement()\l+ getIndexedSize()\l+ getNElements()\l+ getLabels()\l+ getLabels()\l+ clear()\l+ addElement()\l+ addElements()\l+ addElements()\l+ addElementRandomAccess()\l+ mergeAtBack()\l+ flatten_to()\l+ restore_from()\l+ print()\l+ inflate()\l+ deflate()\l+ ClassDefNV()\l}">
<polygon fill="none" stroke="#000000" points="843,-226.5 843,-547.5 1017,-547.5 1017,-226.5 843,-226.5"/>
<text text-anchor="start" x="851" y="-535.5" font-family="Helvetica,sans-Serif" font-size="10.00" fill="#000000">o2::dataformats::MCTruth</text>
<text text-anchor="middle" x="930" y="-524.5" font-family="Helvetica,sans-Serif" font-size="10.00" fill="#000000">Container&lt; o2::MCCompLabel &gt;</text>
<polyline fill="none" stroke="#000000" points="843,-517.5 1017,-517.5 "/>
<text text-anchor="middle" x="930" y="-505.5" font-family="Helvetica,sans-Serif" font-size="10.00" fill="#000000"> </text>
<polyline fill="none" stroke="#000000" points="843,-498.5 1017,-498.5 "/>
<text text-anchor="start" x="851" y="-486.5" font-family="Helvetica,sans-Serif" font-size="10.00" fill="#000000">+ MCTruthContainer()</text>
<text text-anchor="start" x="851" y="-475.5" font-family="Helvetica,sans-Serif" font-size="10.00" fill="#000000">+ MCTruthContainer()</text>
<text text-anchor="start" x="851" y="-464.5" font-family="Helvetica,sans-Serif" font-size="10.00" fill="#000000">+ MCTruthContainer()</text>
<text text-anchor="start" x="851" y="-453.5" font-family="Helvetica,sans-Serif" font-size="10.00" fill="#000000">+ ~MCTruthContainer()</text>
<text text-anchor="start" x="851" y="-442.5" font-family="Helvetica,sans-Serif" font-size="10.00" fill="#000000">+ operator=()</text>
<text text-anchor="start" x="851" y="-431.5" font-family="Helvetica,sans-Serif" font-size="10.00" fill="#000000">+ operator=()</text>
<text text-anchor="start" x="851" y="-420.5" font-family="Helvetica,sans-Serif" font-size="10.00" fill="#000000">+ getMCTruthHeader()</text>
<text text-anchor="start" x="851" y="-409.5" font-family="Helvetica,sans-Serif" font-size="10.00" fill="#000000">+ getElement()</text>
<text text-anchor="start" x="851" y="-398.5" font-family="Helvetica,sans-Serif" font-size="10.00" fill="#000000">+ getIndexedSize()</text>
<text text-anchor="start" x="851" y="-387.5" font-family="Helvetica,sans-Serif" font-size="10.00" fill="#000000">+ getNElements()</text>
<text text-anchor="start" x="851" y="-376.5" font-family="Helvetica,sans-Serif" font-size="10.00" fill="#000000">+ getLabels()</text>
<text text-anchor="start" x="851" y="-365.5" font-family="Helvetica,sans-Serif" font-size="10.00" fill="#000000">+ getLabels()</text>
<text text-anchor="start" x="851" y="-354.5" font-family="Helvetica,sans-Serif" font-size="10.00" fill="#000000">+ clear()</text>
<text text-anchor="start" x="851" y="-343.5" font-family="Helvetica,sans-Serif" font-size="10.00" fill="#000000">+ addElement()</text>
<text text-anchor="start" x="851" y="-332.5" font-family="Helvetica,sans-Serif" font-size="10.00" fill="#000000">+ addElements()</text>
<text text-anchor="start" x="851" y="-321.5" font-family="Helvetica,sans-Serif" font-size="10.00" fill="#000000">+ addElements()</text>
<text text-anchor="start" x="851" y="-310.5" font-family="Helvetica,sans-Serif" font-size="10.00" fill="#000000">+ addElementRandomAccess()</text>
<text text-anchor="start" x="851" y="-299.5" font-family="Helvetica,sans-Serif" font-size="10.00" fill="#000000">+ mergeAtBack()</text>
<text text-anchor="start" x="851" y="-288.5" font-family="Helvetica,sans-Serif" font-size="10.00" fill="#000000">+ flatten_to()</text>
<text text-anchor="start" x="851" y="-277.5" font-family="Helvetica,sans-Serif" font-size="10.00" fill="#000000">+ restore_from()</text>
<text text-anchor="start" x="851" y="-266.5" font-family="Helvetica,sans-Serif" font-size="10.00" fill="#000000">+ print()</text>
<text text-anchor="start" x="851" y="-255.5" font-family="Helvetica,sans-Serif" font-size="10.00" fill="#000000">+ inflate()</text>
<text text-anchor="start" x="851" y="-244.5" font-family="Helvetica,sans-Serif" font-size="10.00" fill="#000000">+ deflate()</text>
<text text-anchor="start" x="851" y="-233.5" font-family="Helvetica,sans-Serif" font-size="10.00" fill="#000000">+ ClassDefNV()</text>
</a>
</g>
</g>
<!-- Node15&#45;&gt;Node2 -->
<g id="edge16" class="edge">
<title>Node15&#45;&gt;Node2</title>
<path fill="none" stroke="#404040" d="M889.561,-226.3111C888.5947,-220.1473 887.7334,-214.028 887,-208 883.2579,-177.2411 882.642,-142.8416 883.1138,-114.0998"/>
<polygon fill="none" stroke="#404040" points="883.1217,-113.7389 879.2559,-107.6516 883.3881,-101.7419 887.2539,-107.8292 883.1217,-113.7389"/>
<text text-anchor="middle" x="925" y="-167" font-family="Helvetica,sans-Serif" font-size="10.00" fill="#000000"> #mMCTruthInp</text>
<text text-anchor="middle" x="925" y="-156" font-family="Helvetica,sans-Serif" font-size="10.00" fill="#000000">#mMCTruth</text>
</g>
<!-- Node16 -->
<g id="node15" class="node">
<title>Node16</title>
<g id="a_node15"><a xlink:href="../../dc/daa/classo2_1_1dataformats_1_1MCTruthContainer.html" target="_top" xlink:title="A container to hold and manage MC truth information/labels. ">
<polygon fill="none" stroke="#000000" points="882,-617.5 882,-938.5 1050,-938.5 1050,-617.5 882,-617.5"/>
<text text-anchor="start" x="890" y="-926.5" font-family="Helvetica,sans-Serif" font-size="10.00" fill="#000000">o2::dataformats::MCTruth</text>
<text text-anchor="middle" x="966" y="-915.5" font-family="Helvetica,sans-Serif" font-size="10.00" fill="#000000">Container&lt; TruthElement &gt;</text>
<polyline fill="none" stroke="#000000" points="882,-908.5 1050,-908.5 "/>
<text text-anchor="middle" x="966" y="-896.5" font-family="Helvetica,sans-Serif" font-size="10.00" fill="#000000"> </text>
<polyline fill="none" stroke="#000000" points="882,-889.5 1050,-889.5 "/>
<text text-anchor="start" x="890" y="-877.5" font-family="Helvetica,sans-Serif" font-size="10.00" fill="#000000">+ MCTruthContainer()</text>
<text text-anchor="start" x="890" y="-866.5" font-family="Helvetica,sans-Serif" font-size="10.00" fill="#000000">+ ~MCTruthContainer()</text>
<text text-anchor="start" x="890" y="-855.5" font-family="Helvetica,sans-Serif" font-size="10.00" fill="#000000">+ MCTruthContainer()</text>
<text text-anchor="start" x="890" y="-844.5" font-family="Helvetica,sans-Serif" font-size="10.00" fill="#000000">+ MCTruthContainer()</text>
<text text-anchor="start" x="890" y="-833.5" font-family="Helvetica,sans-Serif" font-size="10.00" fill="#000000">+ operator=()</text>
<text text-anchor="start" x="890" y="-822.5" font-family="Helvetica,sans-Serif" font-size="10.00" fill="#000000">+ operator=()</text>
<text text-anchor="start" x="890" y="-811.5" font-family="Helvetica,sans-Serif" font-size="10.00" fill="#000000">+ getMCTruthHeader()</text>
<text text-anchor="start" x="890" y="-800.5" font-family="Helvetica,sans-Serif" font-size="10.00" fill="#000000">+ getElement()</text>
<text text-anchor="start" x="890" y="-789.5" font-family="Helvetica,sans-Serif" font-size="10.00" fill="#000000">+ getIndexedSize()</text>
<text text-anchor="start" x="890" y="-778.5" font-family="Helvetica,sans-Serif" font-size="10.00" fill="#000000">+ getNElements()</text>
<text text-anchor="start" x="890" y="-767.5" font-family="Helvetica,sans-Serif" font-size="10.00" fill="#000000">+ getLabels()</text>
<text text-anchor="start" x="890" y="-756.5" font-family="Helvetica,sans-Serif" font-size="10.00" fill="#000000">+ getLabels()</text>
<text text-anchor="start" x="890" y="-745.5" font-family="Helvetica,sans-Serif" font-size="10.00" fill="#000000">+ clear()</text>
<text text-anchor="start" x="890" y="-734.5" font-family="Helvetica,sans-Serif" font-size="10.00" fill="#000000">+ addElement()</text>
<text text-anchor="start" x="890" y="-723.5" font-family="Helvetica,sans-Serif" font-size="10.00" fill="#000000">+ addElements()</text>
<text text-anchor="start" x="890" y="-712.5" font-family="Helvetica,sans-Serif" font-size="10.00" fill="#000000">+ addElements()</text>
<text text-anchor="start" x="890" y="-701.5" font-family="Helvetica,sans-Serif" font-size="10.00" fill="#000000">+ addElementRandomAccess()</text>
<text text-anchor="start" x="890" y="-690.5" font-family="Helvetica,sans-Serif" font-size="10.00" fill="#000000">+ mergeAtBack()</text>
<text text-anchor="start" x="890" y="-679.5" font-family="Helvetica,sans-Serif" font-size="10.00" fill="#000000">+ flatten_to()</text>
<text text-anchor="start" x="890" y="-668.5" font-family="Helvetica,sans-Serif" font-size="10.00" fill="#000000">+ restore_from()</text>
<text text-anchor="start" x="890" y="-657.5" font-family="Helvetica,sans-Serif" font-size="10.00" fill="#000000">+ print()</text>
<text text-anchor="start" x="890" y="-646.5" font-family="Helvetica,sans-Serif" font-size="10.00" fill="#000000">+ inflate()</text>
<text text-anchor="start" x="890" y="-635.5" font-family="Helvetica,sans-Serif" font-size="10.00" fill="#000000">+ deflate()</text>
<text text-anchor="start" x="890" y="-624.5" font-family="Helvetica,sans-Serif" font-size="10.00" fill="#000000">+ ClassDefNV()</text>
</a>
</g>
</g>
<!-- Node16&#45;&gt;Node15 -->
<g id="edge17" class="edge">
<title>Node16&#45;&gt;Node15</title>
<path fill="none" stroke="#ffa500" d="M950.2816,-607.2804C948.4604,-587.5001 946.6075,-567.3757 944.7991,-547.735"/>
<polygon fill="#ffa500" stroke="#ffa500" points="946.7994,-607.6357 951.2016,-617.2727 953.7699,-606.9939 946.7994,-607.6357"/>
<text text-anchor="middle" x="1006" y="-580" font-family="Helvetica,sans-Serif" font-size="10.00" fill="#000000"> &lt; o2::MCCompLabel &gt;</text>
</g>
<!-- Node17 -->
<g id="node16" class="node">
<title>Node17</title>
<polygon fill="none" stroke="#bfbfbf" points="1035.5,-358.5 1035.5,-415.5 1118.5,-415.5 1118.5,-358.5 1035.5,-358.5"/>
<text text-anchor="middle" x="1077" y="-403.5" font-family="Helvetica,sans-Serif" font-size="10.00" fill="#000000">vector&lt; int &gt;</text>
<polyline fill="none" stroke="#bfbfbf" points="1035.5,-396.5 1118.5,-396.5 "/>
<text text-anchor="middle" x="1077" y="-384.5" font-family="Helvetica,sans-Serif" font-size="10.00" fill="#000000"> </text>
<polyline fill="none" stroke="#bfbfbf" points="1035.5,-377.5 1118.5,-377.5 "/>
<text text-anchor="middle" x="1077" y="-365.5" font-family="Helvetica,sans-Serif" font-size="10.00" fill="#000000"> </text>
</g>
<!-- Node17&#45;&gt;Node2 -->
<g id="edge18" class="edge">
<title>Node17&#45;&gt;Node2</title>
<path fill="none" stroke="#404040" d="M1074.9266,-358.2327C1070.9601,-323.0509 1059.4338,-263.559 1026,-226 1013.0379,-211.4386 998.5857,-222.8879 986,-208 959.9021,-177.1281 984.0569,-154.5077 963,-120 959.3462,-114.0122 955.0137,-108.2447 950.2948,-102.7696"/>
<polygon fill="none" stroke="#404040" points="950.188,-102.6542 943.1774,-100.9654 942.04,-93.8445 949.0506,-95.5334 950.188,-102.6542"/>
<text text-anchor="middle" x="1015" y="-161.5" font-family="Helvetica,sans-Serif" font-size="10.00" fill="#000000"> #mClusInd</text>
</g>
<!-- Node18 -->
<g id="node17" class="node">
<title>Node18</title>
<polygon fill="none" stroke="#bfbfbf" points="1137,-358.5 1137,-415.5 1181,-415.5 1181,-358.5 1137,-358.5"/>
<text text-anchor="middle" x="1159" y="-403.5" font-family="Helvetica,sans-Serif" font-size="10.00" fill="#000000">string</text>
<polyline fill="none" stroke="#bfbfbf" points="1137,-396.5 1181,-396.5 "/>
<text text-anchor="middle" x="1159" y="-384.5" font-family="Helvetica,sans-Serif" font-size="10.00" fill="#000000"> </text>
<polyline fill="none" stroke="#bfbfbf" points="1137,-377.5 1181,-377.5 "/>
<text text-anchor="middle" x="1159" y="-365.5" font-family="Helvetica,sans-Serif" font-size="10.00" fill="#000000"> </text>
</g>
<!-- Node18&#45;&gt;Node2 -->
<g id="edge19" class="edge">
<title>Node18&#45;&gt;Node2</title>
<path fill="none" stroke="#404040" d="M1161.7902,-358.3924C1163.6035,-322.8191 1161.0012,-262.358 1128,-226 1109.0019,-205.0695 1086.6725,-228.2979 1067,-208 1038.866,-178.9715 1070.2689,-150.7265 1044,-120 1020.9751,-93.0679 985.46,-76.2894 953.9292,-66.0329"/>
<polygon fill="none" stroke="#404040" points="953.5513,-65.9176 946.6448,-67.9914 942.0742,-62.4138 948.9806,-60.34 953.5513,-65.9176"/>
<text text-anchor="middle" x="1140" y="-200" font-family="Helvetica,sans-Serif" font-size="10.00" fill="#000000"> #mTrackBranchName</text>
<text text-anchor="middle" x="1140" y="-189" font-family="Helvetica,sans-Serif" font-size="10.00" fill="#000000">#mClusIdxBranchName</text>
<text text-anchor="middle" x="1140" y="-178" font-family="Helvetica,sans-Serif" font-size="10.00" fill="#000000">#mVertexROFBranchName</text>
<text text-anchor="middle" x="1140" y="-167" font-family="Helvetica,sans-Serif" font-size="10.00" fill="#000000">#mROFBranchName</text>
<text text-anchor="middle" x="1140" y="-156" font-family="Helvetica,sans-Serif" font-size="10.00" fill="#000000">#mVertexBranchName</text>
<text text-anchor="middle" x="1140" y="-145" font-family="Helvetica,sans-Serif" font-size="10.00" fill="#000000">#mTrackMCTruthBranchName</text>
<text text-anchor="middle" x="1140" y="-134" font-family="Helvetica,sans-Serif" font-size="10.00" fill="#000000">#mInputFileName</text>
<text text-anchor="middle" x="1140" y="-123" font-family="Helvetica,sans-Serif" font-size="10.00" fill="#000000">#mTrackTreeName</text>
</g>
<!-- Node19 -->
<g id="node18" class="node">
<title>Node19</title>
<polygon fill="none" stroke="#bfbfbf" points="1199,-358.5 1199,-415.5 1237,-415.5 1237,-358.5 1199,-358.5"/>
<text text-anchor="middle" x="1218" y="-403.5" font-family="Helvetica,sans-Serif" font-size="10.00" fill="#000000">bool</text>
<polyline fill="none" stroke="#bfbfbf" points="1199,-396.5 1237,-396.5 "/>
<text text-anchor="middle" x="1218" y="-384.5" font-family="Helvetica,sans-Serif" font-size="10.00" fill="#000000"> </text>
<polyline fill="none" stroke="#bfbfbf" points="1199,-377.5 1237,-377.5 "/>
<text text-anchor="middle" x="1218" y="-365.5" font-family="Helvetica,sans-Serif" font-size="10.00" fill="#000000"> </text>
</g>
<!-- Node19&#45;&gt;Node2 -->
<g id="edge20" class="edge">
<title>Node19&#45;&gt;Node2</title>
<path fill="none" stroke="#404040" d="M1221.7381,-358.4723C1229.1097,-297.1714 1242.3915,-155.555 1213,-120 1180.6832,-80.9064 1039.9825,-63.0275 954.0167,-55.6203"/>
<polygon fill="none" stroke="#404040" points="953.9672,-55.6163 947.6566,-59.1058 942.0083,-54.6228 948.3189,-51.1333 953.9672,-55.6163"/>
<text text-anchor="middle" x="1259" y="-167" font-family="Helvetica,sans-Serif" font-size="10.00" fill="#000000"> #mUseMC</text>
<text text-anchor="middle" x="1259" y="-156" font-family="Helvetica,sans-Serif" font-size="10.00" fill="#000000">#mFinished</text>
</g>
<!-- Node20 -->
<g id="node19" class="node">
<title>Node20</title>
<polygon fill="none" stroke="#bfbfbf" points="1255.5,-358.5 1255.5,-415.5 1410.5,-415.5 1410.5,-358.5 1255.5,-358.5"/>
<text text-anchor="middle" x="1333" y="-403.5" font-family="Helvetica,sans-Serif" font-size="10.00" fill="#000000">vector&lt; o2::its::TrackITS &gt; *</text>
<polyline fill="none" stroke="#bfbfbf" points="1255.5,-396.5 1410.5,-396.5 "/>
<text text-anchor="middle" x="1333" y="-384.5" font-family="Helvetica,sans-Serif" font-size="10.00" fill="#000000"> </text>
<polyline fill="none" stroke="#bfbfbf" points="1255.5,-377.5 1410.5,-377.5 "/>
<text text-anchor="middle" x="1333" y="-365.5" font-family="Helvetica,sans-Serif" font-size="10.00" fill="#000000"> </text>
</g>
<!-- Node20&#45;&gt;Node2 -->
<g id="edge21" class="edge">
<title>Node20&#45;&gt;Node2</title>
<path fill="none" stroke="#404040" d="M1338.308,-358.1692C1346.5516,-303.5075 1355.4885,-184.5109 1292,-120 1246.0374,-73.2972 1057.7495,-58.0995 954.513,-53.2341"/>
<polygon fill="none" stroke="#404040" points="954.3481,-53.2268 948.1753,-56.9547 942.3601,-52.6906 948.5329,-48.9627 954.3481,-53.2268"/>
<text text-anchor="middle" x="1367.5" y="-161.5" font-family="Helvetica,sans-Serif" font-size="10.00" fill="#000000"> #mTracksInp</text>
</g>
<!-- Node21 -->
<g id="node20" class="node">
<title>Node21</title>
<polygon fill="none" stroke="#bfbfbf" points="1428.5,-353 1428.5,-421 1565.5,-421 1565.5,-353 1428.5,-353"/>
<text text-anchor="start" x="1436.5" y="-409" font-family="Helvetica,sans-Serif" font-size="10.00" fill="#000000">vector&lt; o2::dataformats</text>
<text text-anchor="middle" x="1497" y="-398" font-family="Helvetica,sans-Serif" font-size="10.00" fill="#000000">::Vertex &gt; *</text>
<polyline fill="none" stroke="#bfbfbf" points="1428.5,-391 1565.5,-391 "/>
<text text-anchor="middle" x="1497" y="-379" font-family="Helvetica,sans-Serif" font-size="10.00" fill="#000000"> </text>
<polyline fill="none" stroke="#bfbfbf" points="1428.5,-372 1565.5,-372 "/>
<text text-anchor="middle" x="1497" y="-360" font-family="Helvetica,sans-Serif" font-size="10.00" fill="#000000"> </text>
</g>
<!-- Node21&#45;&gt;Node2 -->
<g id="edge22" class="edge">
<title>Node21&#45;&gt;Node2</title>
<path fill="none" stroke="#404040" d="M1496.0771,-352.8445C1492.5199,-294.9969 1476.3481,-178.3568 1405,-120 1370.672,-91.9226 1087.0644,-66.5544 954.1956,-56.082"/>
<polygon fill="none" stroke="#404040" points="954.1682,-56.0799 947.8748,-59.6003 942.2046,-55.1451 948.498,-51.6247 954.1682,-56.0799"/>
<text text-anchor="middle" x="1502" y="-161.5" font-family="Helvetica,sans-Serif" font-size="10.00" fill="#000000"> #mVerticesInp</text>
</g>
<!-- Node22 -->
<g id="node21" class="node">
<title>Node22</title>
<polygon fill="none" stroke="#bfbfbf" points="1584,-353 1584,-421 1690,-421 1690,-353 1584,-353"/>
<text text-anchor="start" x="1592" y="-409" font-family="Helvetica,sans-Serif" font-size="10.00" fill="#000000">vector&lt; o2::itsmft</text>
<text text-anchor="middle" x="1637" y="-398" font-family="Helvetica,sans-Serif" font-size="10.00" fill="#000000">::ROFRecord &gt; *</text>
<polyline fill="none" stroke="#bfbfbf" points="1584,-391 1690,-391 "/>
<text text-anchor="middle" x="1637" y="-379" font-family="Helvetica,sans-Serif" font-size="10.00" fill="#000000"> </text>
<polyline fill="none" stroke="#bfbfbf" points="1584,-372 1690,-372 "/>
<text text-anchor="middle" x="1637" y="-360" font-family="Helvetica,sans-Serif" font-size="10.00" fill="#000000"> </text>
</g>
<!-- Node22&#45;&gt;Node2 -->
<g id="edge23" class="edge">
<title>Node22&#45;&gt;Node2</title>
<path fill="none" stroke="#404040" d="M1636.1105,-352.6227C1632.5802,-294.4403 1616.3288,-177.309 1544,-120 1498.4472,-83.9067 1113.6395,-61.7558 954.4804,-54.0616"/>
<polygon fill="none" stroke="#404040" points="954.0437,-54.0408 947.8597,-57.75 942.0574,-53.4683 948.2414,-49.7591 954.0437,-54.0408"/>
<text text-anchor="middle" x="1658.5" y="-167" font-family="Helvetica,sans-Serif" font-size="10.00" fill="#000000"> #mROFRecInp</text>
<text text-anchor="middle" x="1658.5" y="-156" font-family="Helvetica,sans-Serif" font-size="10.00" fill="#000000">#mVerticesROFRecInp</text>
</g>
</g>
</svg>
        <g id="navigator" transform="translate(0 0)" fill="#404254">
                <rect fill="#f2f5e9" fill-opacity="0.5" stroke="#606060" stroke-width=".5" x="0" y="0" width="60" height="60"/>
                <use id="zoomplus" xlink:href="#zoomPlus" x="17" y="9" onmousedown="handleZoom(evt,'in')"/>
                <use id="zoomminus" xlink:href="#zoomMin" x="42" y="9" onmousedown="handleZoom(evt,'out')"/>
                <use id="reset" xlink:href="#resetDef" x="30" y="36" onmousedown="handleReset()"/>
                <g id="arrowUp" xlink:href="#dirArrow" transform="translate(30 24)" onmousedown="handlePan(0,-1)">
                  <use xlink:href="#rim" fill="#404040">
                        <set attributeName="fill" to="#808080" begin="arrowUp.mouseover" end="arrowUp.mouseout"/>
                  </use>
                  <path fill="none" stroke="white" stroke-width="1.5" d="M0,-3.0v7 M-2.5,-0.5L0,-3.0L2.5,-0.5"/>
                </g>
                <g id="arrowRight" xlink:href="#dirArrow" transform="rotate(90) translate(36 -43)" onmousedown="handlePan(1,0)">
                  <use xlink:href="#rim" fill="#404040">
                        <set attributeName="fill" to="#808080" begin="arrowRight.mouseover" end="arrowRight.mouseout"/>
                  </use>
                  <path fill="none" stroke="white" stroke-width="1.5" d="M0,-3.0v7 M-2.5,-0.5L0,-3.0L2.5,-0.5"/>
                </g>
                <g id="arrowDown" xlink:href="#dirArrow" transform="rotate(180) translate(-30 -48)" onmousedown="handlePan(0,1)">
                  <use xlink:href="#rim" fill="#404040">
                        <set attributeName="fill" to="#808080" begin="arrowDown.mouseover" end="arrowDown.mouseout"/>
                  </use>
                  <path fill="none" stroke="white" stroke-width="1.5" d="M0,-3.0v7 M-2.5,-0.5L0,-3.0L2.5,-0.5"/>
                </g>
                <g id="arrowLeft" xlink:href="#dirArrow" transform="rotate(270) translate(-36 17)" onmousedown="handlePan(-1,0)">
                  <use xlink:href="#rim" fill="#404040">
                        <set attributeName="fill" to="#808080" begin="arrowLeft.mouseover" end="arrowLeft.mouseout"/>
                  </use>
                  <path fill="none" stroke="white" stroke-width="1.5" d="M0,-3.0v7 M-2.5,-0.5L0,-3.0L2.5,-0.5"/>
                </g>
        </g>
        <svg viewBox="0 0 15 15" width="100%" height="30px" preserveAspectRatio="xMaxYMin meet">
         <g id="arrow_out" transform="scale(0.3 0.3)">
          <a xlink:href="classo2_1_1its_1_1TrackReader__coll__graph_org.svg" target="_base">
           <rect id="button" ry="5" rx="5" y="6" x="6" height="38" width="38"
                fill="#f2f5e9" fill-opacity="0.5" stroke="#606060" stroke-width="1.0"/>
           <path id="arrow"
             d="M 11.500037,31.436501 C 11.940474,20.09759 22.043105,11.32322 32.158766,21.979434 L 37.068811,17.246167 C 37.068811,17.246167 37.088388,32 37.088388,32 L 22.160133,31.978069 C 22.160133,31.978069 26.997745,27.140456 26.997745,27.140456 C 18.528582,18.264221 13.291696,25.230495 11.500037,31.436501 z"
             style="fill:#404040;"/>
          </a>
         </g>
        </svg>
</svg>
