<?xml version="1.0" encoding="UTF-8" standalone="no"?>
<!DOCTYPE svg PUBLIC "-//W3C//DTD SVG 1.1//EN"
 "http://www.w3.org/Graphics/SVG/1.1/DTD/svg11.dtd">
<!-- Generated by graphviz version 2.40.1 (20161225.0304)
 -->
<!-- Title: o2::framework::OutputObjHeader Pages: 1 -->
<!--zoomable 1025 -->
<svg id="main" version="1.1" xmlns="http://www.w3.org/2000/svg" xmlns:xlink="http://www.w3.org/1999/xlink" xml:space="preserve" onload="init(evt)">
<style type="text/css"><![CDATA[
.edge:hover path { stroke: red; }
.edge:hover polygon { stroke: red; fill: red; }
]]></style>
<script type="text/javascript"><![CDATA[
var edges = document.getElementsByTagName('g');
if (edges && edges.length) {
  for (var i=0;i<edges.length;i++) {
    if (edges[i].id.substr(0,4)=='edge') {
      edges[i].setAttribute('class','edge');
    }
  }
}
]]></script>
        <defs>
                <circle id="rim" cx="0" cy="0" r="7"/>
                <circle id="rim2" cx="0" cy="0" r="3.5"/>
                <g id="zoomPlus">
                        <use xlink:href="#rim" fill="#404040">
                                <set attributeName="fill" to="#808080" begin="zoomplus.mouseover" end="zoomplus.mouseout"/>
                        </use>
                        <path d="M-4,0h8M0,-4v8" fill="none" stroke="white" stroke-width="1.5" pointer-events="none"/>
                </g>
                <g id="zoomMin">
                        <use xlink:href="#rim" fill="#404040">
                                <set attributeName="fill" to="#808080" begin="zoomminus.mouseover" end="zoomminus.mouseout"/>
                        </use>
                        <path d="M-4,0h8" fill="none" stroke="white" stroke-width="1.5" pointer-events="none"/>
                </g>
                <g id="dirArrow">
                        <path fill="none" stroke="white" stroke-width="1.5" d="M0,-3.0v7 M-2.5,-0.5L0,-3.0L2.5,-0.5"/>
                </g>
               <g id="resetDef">
                       <use xlink:href="#rim2" fill="#404040">
                               <set attributeName="fill" to="#808080" begin="reset.mouseover" end="reset.mouseout"/>
                       </use>
               </g>
        </defs>

<script type="text/javascript">
var viewWidth = 1081;
var viewHeight = 1025;
var sectionId = 'dynsection-1';
</script>
<script xlink:href="../../svgpan.js"/>
<svg id="graph" class="graph">
<g id="viewport">
<title>o2::framework::OutputObjHeader</title>
<!-- Node2 -->
<g id="node1" class="node">
<title>Node2</title>
<polygon fill="#bfbfbf" stroke="#000000" points="834.1267,-.5 834.1267,-90.5 977.1267,-90.5 977.1267,-.5 834.1267,-.5"/>
<text text-anchor="start" x="842.1267" y="-78.5" font-family="Helvetica,sans-Serif" font-size="10.00" fill="#000000">o2::framework::OutputObj</text>
<text text-anchor="middle" x="905.6267" y="-67.5" font-family="Helvetica,sans-Serif" font-size="10.00" fill="#000000">Header</text>
<polyline fill="none" stroke="#000000" points="834.1267,-60.5 977.1267,-60.5 "/>
<text text-anchor="middle" x="905.6267" y="-48.5" font-family="Helvetica,sans-Serif" font-size="10.00" fill="#000000"> </text>
<polyline fill="none" stroke="#000000" points="834.1267,-41.5 977.1267,-41.5 "/>
<text text-anchor="start" x="842.1267" y="-29.5" font-family="Helvetica,sans-Serif" font-size="10.00" fill="#000000">+ OutputObjHeader()</text>
<text text-anchor="start" x="842.1267" y="-18.5" font-family="Helvetica,sans-Serif" font-size="10.00" fill="#000000">+ OutputObjHeader()</text>
<text text-anchor="start" x="842.1267" y="-7.5" font-family="Helvetica,sans-Serif" font-size="10.00" fill="#000000">+ OutputObjHeader()</text>
</g>
<!-- Node3 -->
<g id="node2" class="node">
<title>Node3</title>
<g id="a_node2"><a xlink:href="../../d8/dbd/structo2_1_1header_1_1BaseHeader.html" target="_top" xlink:title="the base header struct Every header type must begin (i.e. derive) with this. Don&#39;t use this struct di...">
<polygon fill="none" stroke="#000000" points="403.6267,-138.5 403.6267,-283.5 537.6267,-283.5 537.6267,-138.5 403.6267,-138.5"/>
<text text-anchor="middle" x="470.6267" y="-271.5" font-family="Helvetica,sans-Serif" font-size="10.00" fill="#000000">o2::header::BaseHeader</text>
<polyline fill="none" stroke="#000000" points="403.6267,-264.5 537.6267,-264.5 "/>
<text text-anchor="middle" x="470.6267" y="-252.5" font-family="Helvetica,sans-Serif" font-size="10.00" fill="#000000"> </text>
<polyline fill="none" stroke="#000000" points="403.6267,-245.5 537.6267,-245.5 "/>
<text text-anchor="start" x="411.6267" y="-233.5" font-family="Helvetica,sans-Serif" font-size="10.00" fill="#000000">+ BaseHeader()</text>
<text text-anchor="start" x="411.6267" y="-222.5" font-family="Helvetica,sans-Serif" font-size="10.00" fill="#000000">+ BaseHeader()</text>
<text text-anchor="start" x="411.6267" y="-211.5" font-family="Helvetica,sans-Serif" font-size="10.00" fill="#000000">+ BaseHeader()</text>
<text text-anchor="start" x="411.6267" y="-200.5" font-family="Helvetica,sans-Serif" font-size="10.00" fill="#000000">+ size()</text>
<text text-anchor="start" x="411.6267" y="-189.5" font-family="Helvetica,sans-Serif" font-size="10.00" fill="#000000">+ data()</text>
<text text-anchor="start" x="411.6267" y="-178.5" font-family="Helvetica,sans-Serif" font-size="10.00" fill="#000000">+ next()</text>
<text text-anchor="start" x="411.6267" y="-167.5" font-family="Helvetica,sans-Serif" font-size="10.00" fill="#000000">+ next()</text>
<text text-anchor="start" x="411.6267" y="-156.5" font-family="Helvetica,sans-Serif" font-size="10.00" fill="#000000">+ get()</text>
<text text-anchor="start" x="411.6267" y="-145.5" font-family="Helvetica,sans-Serif" font-size="10.00" fill="#000000">+ get()</text>
</a>
</g>
</g>
<!-- Node3&#45;&gt;Node2 -->
<g id="edge1" class="edge">
<title>Node3&#45;&gt;Node2</title>
<path fill="none" stroke="#191970" d="M547.2788,-181.8369C628.2068,-151.0471 754.7827,-102.89 833.8267,-72.817"/>
<polygon fill="none" stroke="#191970" points="545.7439,-178.6761 537.6421,-185.5033 548.2331,-185.2186 545.7439,-178.6761"/>
</g>
<!-- Node4 -->
<g id="node3" class="node">
<title>Node4</title>
<g id="a_node3"><a xlink:href="../../d9/db3/structo2_1_1header_1_1Descriptor.html" target="_top" xlink:title="{o2::header::Descriptor\l\&lt; gSizeHeaderDescriptionString \&gt;\n||+ Descriptor()\l+ Descriptor()\l+ Descriptor()\l+ Descriptor()\l+ operator=()\l+ operator ItgType()\l+ runtimeInit()\l+ operator==()\l+ operator==()\l+ operator\&lt;()\l+ operator!=()\l+ operator!=()\l+ as()\l+ print()\l}">
<polygon fill="none" stroke="#000000" points="33.1267,-386.5 33.1267,-597.5 218.1267,-597.5 218.1267,-386.5 33.1267,-386.5"/>
<text text-anchor="start" x="41.1267" y="-585.5" font-family="Helvetica,sans-Serif" font-size="10.00" fill="#000000">o2::header::Descriptor</text>
<text text-anchor="middle" x="125.6267" y="-574.5" font-family="Helvetica,sans-Serif" font-size="10.00" fill="#000000">&lt; gSizeHeaderDescriptionString &gt;</text>
<polyline fill="none" stroke="#000000" points="33.1267,-567.5 218.1267,-567.5 "/>
<text text-anchor="middle" x="125.6267" y="-555.5" font-family="Helvetica,sans-Serif" font-size="10.00" fill="#000000"> </text>
<polyline fill="none" stroke="#000000" points="33.1267,-548.5 218.1267,-548.5 "/>
<text text-anchor="start" x="41.1267" y="-536.5" font-family="Helvetica,sans-Serif" font-size="10.00" fill="#000000">+ Descriptor()</text>
<text text-anchor="start" x="41.1267" y="-525.5" font-family="Helvetica,sans-Serif" font-size="10.00" fill="#000000">+ Descriptor()</text>
<text text-anchor="start" x="41.1267" y="-514.5" font-family="Helvetica,sans-Serif" font-size="10.00" fill="#000000">+ Descriptor()</text>
<text text-anchor="start" x="41.1267" y="-503.5" font-family="Helvetica,sans-Serif" font-size="10.00" fill="#000000">+ Descriptor()</text>
<text text-anchor="start" x="41.1267" y="-492.5" font-family="Helvetica,sans-Serif" font-size="10.00" fill="#000000">+ operator=()</text>
<text text-anchor="start" x="41.1267" y="-481.5" font-family="Helvetica,sans-Serif" font-size="10.00" fill="#000000">+ operator ItgType()</text>
<text text-anchor="start" x="41.1267" y="-470.5" font-family="Helvetica,sans-Serif" font-size="10.00" fill="#000000">+ runtimeInit()</text>
<text text-anchor="start" x="41.1267" y="-459.5" font-family="Helvetica,sans-Serif" font-size="10.00" fill="#000000">+ operator==()</text>
<text text-anchor="start" x="41.1267" y="-448.5" font-family="Helvetica,sans-Serif" font-size="10.00" fill="#000000">+ operator==()</text>
<text text-anchor="start" x="41.1267" y="-437.5" font-family="Helvetica,sans-Serif" font-size="10.00" fill="#000000">+ operator&lt;()</text>
<text text-anchor="start" x="41.1267" y="-426.5" font-family="Helvetica,sans-Serif" font-size="10.00" fill="#000000">+ operator!=()</text>
<text text-anchor="start" x="41.1267" y="-415.5" font-family="Helvetica,sans-Serif" font-size="10.00" fill="#000000">+ operator!=()</text>
<text text-anchor="start" x="41.1267" y="-404.5" font-family="Helvetica,sans-Serif" font-size="10.00" fill="#000000">+ as()</text>
<text text-anchor="start" x="41.1267" y="-393.5" font-family="Helvetica,sans-Serif" font-size="10.00" fill="#000000">+ print()</text>
</a>
</g>
</g>
<!-- Node4&#45;&gt;Node3 -->
<g id="edge2" class="edge">
<title>Node4&#45;&gt;Node3</title>
<path fill="none" stroke="#404040" d="M207.5058,-386.1936C233.3843,-356.7553 263.4253,-326.241 294.6267,-302 324.1495,-279.063 360.3275,-259.1997 392.1884,-243.9344"/>
<polygon fill="none" stroke="#404040" points="392.4002,-243.8348 396.1282,-237.6621 403.2599,-238.7291 399.532,-244.9019 392.4002,-243.8348"/>
<text text-anchor="middle" x="327.6267" y="-332.5" font-family="Helvetica,sans-Serif" font-size="10.00" fill="#000000"> +description</text>
</g>
<!-- Node5 -->
<g id="node4" class="node">
<title>Node5</title>
<polygon fill="none" stroke="#bfbfbf" points="258.1267,-959.5 258.1267,-1016.5 297.1267,-1016.5 297.1267,-959.5 258.1267,-959.5"/>
<text text-anchor="middle" x="277.6267" y="-1004.5" font-family="Helvetica,sans-Serif" font-size="10.00" fill="#000000">Type</text>
<polyline fill="none" stroke="#bfbfbf" points="258.1267,-997.5 297.1267,-997.5 "/>
<text text-anchor="middle" x="277.6267" y="-985.5" font-family="Helvetica,sans-Serif" font-size="10.00" fill="#000000"> </text>
<polyline fill="none" stroke="#bfbfbf" points="258.1267,-978.5 297.1267,-978.5 "/>
<text text-anchor="middle" x="277.6267" y="-966.5" font-family="Helvetica,sans-Serif" font-size="10.00" fill="#000000"> </text>
</g>
<!-- Node5&#45;&gt;Node4 -->
<g id="edge3" class="edge">
<title>Node5&#45;&gt;Node4</title>
<path fill="none" stroke="#404040" d="M258.5388,-959.1215C245.6012,-941.7741 227.0025,-920.6762 205.6267,-908 175.7696,-890.2943 151.295,-917.1186 129.6267,-890 96.2596,-848.2402 101.7617,-711.5945 111.3392,-610.0013"/>
<polygon fill="none" stroke="#404040" points="111.3646,-609.7382 107.9636,-603.3795 112.525,-597.7944 115.9261,-604.1531 111.3646,-609.7382"/>
<text text-anchor="middle" x="142.1267" y="-781.5" font-family="Helvetica,sans-Serif" font-size="10.00" fill="#000000"> +itg</text>
</g>
<!-- Node9 -->
<g id="node8" class="node">
<title>Node9</title>
<g id="a_node8"><a xlink:href="../../d9/db3/structo2_1_1header_1_1Descriptor.html" target="_top" xlink:title="{o2::header::Descriptor\l\&lt; N, PrinterPolicy \&gt;\n||+ Descriptor()\l+ Descriptor()\l+ Descriptor()\l+ operator=()\l+ operator ItgType()\l+ Descriptor()\l+ runtimeInit()\l+ operator==()\l+ operator\&lt;()\l+ operator!=()\l+ operator==()\l+ operator!=()\l+ as()\l+ print()\l}">
<polygon fill="none" stroke="#000000" points="223.1267,-678.5 223.1267,-889.5 348.1267,-889.5 348.1267,-678.5 223.1267,-678.5"/>
<text text-anchor="start" x="231.1267" y="-877.5" font-family="Helvetica,sans-Serif" font-size="10.00" fill="#000000">o2::header::Descriptor</text>
<text text-anchor="middle" x="285.6267" y="-866.5" font-family="Helvetica,sans-Serif" font-size="10.00" fill="#000000">&lt; N, PrinterPolicy &gt;</text>
<polyline fill="none" stroke="#000000" points="223.1267,-859.5 348.1267,-859.5 "/>
<text text-anchor="middle" x="285.6267" y="-847.5" font-family="Helvetica,sans-Serif" font-size="10.00" fill="#000000"> </text>
<polyline fill="none" stroke="#000000" points="223.1267,-840.5 348.1267,-840.5 "/>
<text text-anchor="start" x="231.1267" y="-828.5" font-family="Helvetica,sans-Serif" font-size="10.00" fill="#000000">+ Descriptor()</text>
<text text-anchor="start" x="231.1267" y="-817.5" font-family="Helvetica,sans-Serif" font-size="10.00" fill="#000000">+ Descriptor()</text>
<text text-anchor="start" x="231.1267" y="-806.5" font-family="Helvetica,sans-Serif" font-size="10.00" fill="#000000">+ Descriptor()</text>
<text text-anchor="start" x="231.1267" y="-795.5" font-family="Helvetica,sans-Serif" font-size="10.00" fill="#000000">+ operator=()</text>
<text text-anchor="start" x="231.1267" y="-784.5" font-family="Helvetica,sans-Serif" font-size="10.00" fill="#000000">+ operator ItgType()</text>
<text text-anchor="start" x="231.1267" y="-773.5" font-family="Helvetica,sans-Serif" font-size="10.00" fill="#000000">+ Descriptor()</text>
<text text-anchor="start" x="231.1267" y="-762.5" font-family="Helvetica,sans-Serif" font-size="10.00" fill="#000000">+ runtimeInit()</text>
<text text-anchor="start" x="231.1267" y="-751.5" font-family="Helvetica,sans-Serif" font-size="10.00" fill="#000000">+ operator==()</text>
<text text-anchor="start" x="231.1267" y="-740.5" font-family="Helvetica,sans-Serif" font-size="10.00" fill="#000000">+ operator&lt;()</text>
<text text-anchor="start" x="231.1267" y="-729.5" font-family="Helvetica,sans-Serif" font-size="10.00" fill="#000000">+ operator!=()</text>
<text text-anchor="start" x="231.1267" y="-718.5" font-family="Helvetica,sans-Serif" font-size="10.00" fill="#000000">+ operator==()</text>
<text text-anchor="start" x="231.1267" y="-707.5" font-family="Helvetica,sans-Serif" font-size="10.00" fill="#000000">+ operator!=()</text>
<text text-anchor="start" x="231.1267" y="-696.5" font-family="Helvetica,sans-Serif" font-size="10.00" fill="#000000">+ as()</text>
<text text-anchor="start" x="231.1267" y="-685.5" font-family="Helvetica,sans-Serif" font-size="10.00" fill="#000000">+ print()</text>
</a>
</g>
</g>
<!-- Node5&#45;&gt;Node9 -->
<g id="edge8" class="edge">
<title>Node5&#45;&gt;Node9</title>
<path fill="none" stroke="#404040" d="M277.6795,-959.4833C277.7844,-944.2095 278.0383,-925.0745 278.6267,-908 278.6981,-905.9259 278.7741,-903.8324 278.8542,-901.7241"/>
<polygon fill="none" stroke="#404040" points="278.863,-901.506 275.112,-895.3473 279.3543,-889.516 283.1053,-895.6748 278.863,-901.506"/>
<text text-anchor="middle" x="291.1267" y="-922" font-family="Helvetica,sans-Serif" font-size="10.00" fill="#000000"> +itg</text>
</g>
<!-- Node12 -->
<g id="node11" class="node">
<title>Node12</title>
<g id="a_node11"><a xlink:href="../../d9/db3/structo2_1_1header_1_1Descriptor.html" target="_top" xlink:title="{o2::header::Descriptor\l\&lt; gSizeSerializationMethodString \&gt;\n||+ Descriptor()\l+ Descriptor()\l+ Descriptor()\l+ Descriptor()\l+ operator=()\l+ operator ItgType()\l+ runtimeInit()\l+ operator==()\l+ operator==()\l+ operator\&lt;()\l+ operator!=()\l+ operator!=()\l+ as()\l+ print()\l}">
<polygon fill="none" stroke="#000000" points="486.1267,-386.5 486.1267,-597.5 677.1267,-597.5 677.1267,-386.5 486.1267,-386.5"/>
<text text-anchor="start" x="494.1267" y="-585.5" font-family="Helvetica,sans-Serif" font-size="10.00" fill="#000000">o2::header::Descriptor</text>
<text text-anchor="middle" x="581.6267" y="-574.5" font-family="Helvetica,sans-Serif" font-size="10.00" fill="#000000">&lt; gSizeSerializationMethodString &gt;</text>
<polyline fill="none" stroke="#000000" points="486.1267,-567.5 677.1267,-567.5 "/>
<text text-anchor="middle" x="581.6267" y="-555.5" font-family="Helvetica,sans-Serif" font-size="10.00" fill="#000000"> </text>
<polyline fill="none" stroke="#000000" points="486.1267,-548.5 677.1267,-548.5 "/>
<text text-anchor="start" x="494.1267" y="-536.5" font-family="Helvetica,sans-Serif" font-size="10.00" fill="#000000">+ Descriptor()</text>
<text text-anchor="start" x="494.1267" y="-525.5" font-family="Helvetica,sans-Serif" font-size="10.00" fill="#000000">+ Descriptor()</text>
<text text-anchor="start" x="494.1267" y="-514.5" font-family="Helvetica,sans-Serif" font-size="10.00" fill="#000000">+ Descriptor()</text>
<text text-anchor="start" x="494.1267" y="-503.5" font-family="Helvetica,sans-Serif" font-size="10.00" fill="#000000">+ Descriptor()</text>
<text text-anchor="start" x="494.1267" y="-492.5" font-family="Helvetica,sans-Serif" font-size="10.00" fill="#000000">+ operator=()</text>
<text text-anchor="start" x="494.1267" y="-481.5" font-family="Helvetica,sans-Serif" font-size="10.00" fill="#000000">+ operator ItgType()</text>
<text text-anchor="start" x="494.1267" y="-470.5" font-family="Helvetica,sans-Serif" font-size="10.00" fill="#000000">+ runtimeInit()</text>
<text text-anchor="start" x="494.1267" y="-459.5" font-family="Helvetica,sans-Serif" font-size="10.00" fill="#000000">+ operator==()</text>
<text text-anchor="start" x="494.1267" y="-448.5" font-family="Helvetica,sans-Serif" font-size="10.00" fill="#000000">+ operator==()</text>
<text text-anchor="start" x="494.1267" y="-437.5" font-family="Helvetica,sans-Serif" font-size="10.00" fill="#000000">+ operator&lt;()</text>
<text text-anchor="start" x="494.1267" y="-426.5" font-family="Helvetica,sans-Serif" font-size="10.00" fill="#000000">+ operator!=()</text>
<text text-anchor="start" x="494.1267" y="-415.5" font-family="Helvetica,sans-Serif" font-size="10.00" fill="#000000">+ operator!=()</text>
<text text-anchor="start" x="494.1267" y="-404.5" font-family="Helvetica,sans-Serif" font-size="10.00" fill="#000000">+ as()</text>
<text text-anchor="start" x="494.1267" y="-393.5" font-family="Helvetica,sans-Serif" font-size="10.00" fill="#000000">+ print()</text>
</a>
</g>
</g>
<!-- Node5&#45;&gt;Node12 -->
<g id="edge16" class="edge">
<title>Node5&#45;&gt;Node12</title>
<path fill="none" stroke="#404040" d="M293.7768,-959.2287C305.6817,-939.0539 321.502,-914.5616 331.6267,-908 370.6245,-882.726 400.9607,-922.0345 434.6267,-890 504.6128,-823.4052 416.0968,-748.048 482.6267,-678 502.9753,-656.5753 526.4637,-681.5996 546.6267,-660 559.8428,-645.8422 568.6037,-628.0415 574.3199,-609.361"/>
<polygon fill="none" stroke="#404040" points="574.3574,-609.2224 572.0672,-602.3846 577.4982,-597.6407 579.7884,-604.4785 574.3574,-609.2224"/>
<text text-anchor="middle" x="495.1267" y="-781.5" font-family="Helvetica,sans-Serif" font-size="10.00" fill="#000000"> +itg</text>
</g>
<!-- Node6 -->
<g id="node5" class="node">
<title>Node6</title>
<polygon fill="none" stroke="#bfbfbf" points="77.6267,-959.5 77.6267,-1016.5 115.6267,-1016.5 115.6267,-959.5 77.6267,-959.5"/>
<text text-anchor="middle" x="96.6267" y="-1004.5" font-family="Helvetica,sans-Serif" font-size="10.00" fill="#000000">char</text>
<polyline fill="none" stroke="#bfbfbf" points="77.6267,-997.5 115.6267,-997.5 "/>
<text text-anchor="middle" x="96.6267" y="-985.5" font-family="Helvetica,sans-Serif" font-size="10.00" fill="#000000"> </text>
<polyline fill="none" stroke="#bfbfbf" points="77.6267,-978.5 115.6267,-978.5 "/>
<text text-anchor="middle" x="96.6267" y="-966.5" font-family="Helvetica,sans-Serif" font-size="10.00" fill="#000000"> </text>
</g>
<!-- Node6&#45;&gt;Node3 -->
<g id="edge13" class="edge">
<title>Node6&#45;&gt;Node3</title>
<path fill="none" stroke="#404040" d="M95.5081,-959.3331C92.4617,-892.0388 82.3776,-726.018 55.6267,-678 49.4782,-666.9636 39.9313,-670.9479 33.6267,-660 -5.3568,-592.3054 -12.3145,-439.9736 23.6267,-386 65.7726,-322.7084 274.962,-260.7277 391.6346,-230.3486"/>
<polygon fill="none" stroke="#404040" points="391.6986,-230.3321 396.5079,-224.959 403.3175,-227.3317 398.5082,-232.7049 391.6986,-230.3321"/>
<text text-anchor="middle" x="68.6267" y="-635.5" font-family="Helvetica,sans-Serif" font-size="10.00" fill="#000000"> +magicString</text>
</g>
<!-- Node6&#45;&gt;Node4 -->
<g id="edge4" class="edge">
<title>Node6&#45;&gt;Node4</title>
<path fill="none" stroke="#404040" d="M86.1377,-959.2975C79.6582,-940.0009 71.9645,-913.8322 68.6267,-890 55.5579,-796.6885 49.0669,-770.1696 68.6267,-678 70.444,-669.4362 73.6164,-668.2207 76.6267,-660 82.5682,-643.7739 88.2883,-626.4654 93.592,-609.3563"/>
<polygon fill="none" stroke="#404040" points="93.6898,-609.0359 91.6168,-602.1291 97.195,-597.5592 99.268,-604.4659 93.6898,-609.0359"/>
<text text-anchor="middle" x="81.1267" y="-781.5" font-family="Helvetica,sans-Serif" font-size="10.00" fill="#000000"> +str</text>
</g>
<!-- Node6&#45;&gt;Node9 -->
<g id="edge9" class="edge">
<title>Node6&#45;&gt;Node9</title>
<path fill="none" stroke="#404040" d="M115.6627,-974.5472C128.0189,-965.5252 144.251,-953.1176 157.6267,-941 177.8324,-922.6947 197.5392,-901.0777 215.196,-879.8336"/>
<polygon fill="none" stroke="#404040" points="215.2888,-879.7204 215.998,-872.5442 222.895,-870.4389 222.1857,-877.615 215.2888,-879.7204"/>
<text text-anchor="middle" x="202.1267" y="-922" font-family="Helvetica,sans-Serif" font-size="10.00" fill="#000000"> +str</text>
</g>
<!-- Node6&#45;&gt;Node12 -->
<g id="edge17" class="edge">
<title>Node6&#45;&gt;Node12</title>
<path fill="none" stroke="#404040" d="M115.6354,-962.861C128.918,-943.8871 145.7976,-916.6494 154.6267,-890 173.8827,-831.8778 139.3874,-658.3305 183.6267,-616 205.444,-595.124 412.5275,-609.0194 474.1892,-596.7466"/>
<polygon fill="none" stroke="#404040" points="474.5327,-596.6456 479.16,-591.1149 486.045,-593.259 481.4177,-598.7897 474.5327,-596.6456"/>
<text text-anchor="middle" x="175.1267" y="-781.5" font-family="Helvetica,sans-Serif" font-size="10.00" fill="#000000"> +str</text>
</g>
<!-- Node7 -->
<g id="node6" class="node">
<title>Node7</title>
<polygon fill="none" stroke="#bfbfbf" points="346.1267,-959.5 346.1267,-1016.5 453.1267,-1016.5 453.1267,-959.5 346.1267,-959.5"/>
<text text-anchor="middle" x="399.6267" y="-1004.5" font-family="Helvetica,sans-Serif" font-size="10.00" fill="#000000">anonymous:+@24</text>
<polyline fill="none" stroke="#bfbfbf" points="346.1267,-997.5 453.1267,-997.5 "/>
<text text-anchor="middle" x="399.6267" y="-985.5" font-family="Helvetica,sans-Serif" font-size="10.00" fill="#000000"> </text>
<polyline fill="none" stroke="#bfbfbf" points="346.1267,-978.5 453.1267,-978.5 "/>
<text text-anchor="middle" x="399.6267" y="-966.5" font-family="Helvetica,sans-Serif" font-size="10.00" fill="#000000"> </text>
</g>
<!-- Node7&#45;&gt;Node4 -->
<g id="edge5" class="edge">
<title>Node7&#45;&gt;Node4</title>
<path fill="none" stroke="#404040" d="M399.2259,-959.4694C397.4522,-880.2199 387.8298,-660.3226 335.6267,-616 300.9753,-586.5795 274.2603,-615.8846 229.4454,-598.3963"/>
<polygon fill="none" stroke="#404040" points="229.1926,-598.2792 222.0668,-599.3857 218.3048,-593.2337 225.4305,-592.1272 229.1926,-598.2792"/>
<text text-anchor="middle" x="413.6267" y="-781.5" font-family="Helvetica,sans-Serif" font-size="10.00" fill="#000000"> +@24</text>
</g>
<!-- Node7&#45;&gt;Node9 -->
<g id="edge10" class="edge">
<title>Node7&#45;&gt;Node9</title>
<path fill="none" stroke="#404040" d="M366.7032,-959.2817C361.2398,-953.574 355.9536,-947.3664 351.6267,-941 343.1679,-928.5542 335.4638,-914.8518 328.5487,-900.8842"/>
<polygon fill="none" stroke="#404040" points="328.3507,-900.47 322.1532,-896.7833 323.1727,-889.6446 329.3702,-893.3313 328.3507,-900.47"/>
<text text-anchor="middle" x="368.6267" y="-922" font-family="Helvetica,sans-Serif" font-size="10.00" fill="#000000"> +@24</text>
</g>
<!-- Node7&#45;&gt;Node12 -->
<g id="edge18" class="edge">
<title>Node7&#45;&gt;Node12</title>
<path fill="none" stroke="#404040" d="M453.313,-979.0328C501.0169,-967.7115 566.9062,-942.8901 591.6267,-890 632.4927,-802.5661 625.8037,-692.105 611.2787,-609.7487"/>
<polygon fill="none" stroke="#404040" points="611.2533,-609.61 606.2343,-604.4322 609.0835,-597.8078 614.1024,-602.9857 611.2533,-609.61"/>
<text text-anchor="middle" x="639.6267" y="-781.5" font-family="Helvetica,sans-Serif" font-size="10.00" fill="#000000"> +@24</text>
</g>
<!-- Node8 -->
<g id="node7" class="node">
<title>Node8</title>
<polygon fill="none" stroke="#bfbfbf" points="671.6267,-959.5 671.6267,-1016.5 715.6267,-1016.5 715.6267,-959.5 671.6267,-959.5"/>
<text text-anchor="middle" x="693.6267" y="-1004.5" font-family="Helvetica,sans-Serif" font-size="10.00" fill="#000000">static</text>
<polyline fill="none" stroke="#bfbfbf" points="671.6267,-997.5 715.6267,-997.5 "/>
<text text-anchor="middle" x="693.6267" y="-985.5" font-family="Helvetica,sans-Serif" font-size="10.00" fill="#000000"> </text>
<polyline fill="none" stroke="#bfbfbf" points="671.6267,-978.5 715.6267,-978.5 "/>
<text text-anchor="middle" x="693.6267" y="-966.5" font-family="Helvetica,sans-Serif" font-size="10.00" fill="#000000"> </text>
</g>
<!-- Node8&#45;&gt;Node2 -->
<g id="edge24" class="edge">
<title>Node8&#45;&gt;Node2</title>
<path fill="none" stroke="#404040" d="M715.9137,-979.2359C770.3439,-956.2046 905.6267,-888.4551 905.6267,-784 905.6267,-784 905.6267,-784 905.6267,-211 905.6267,-175.1078 905.6267,-134.837 905.6267,-103.007"/>
<polygon fill="none" stroke="#404040" points="905.6267,-102.8075 901.6267,-96.8076 905.6267,-90.8075 909.6267,-96.8075 905.6267,-102.8075"/>
<text text-anchor="middle" x="961.1267" y="-500.5" font-family="Helvetica,sans-Serif" font-size="10.00" fill="#000000"> +sHeaderType</text>
<text text-anchor="middle" x="961.1267" y="-489.5" font-family="Helvetica,sans-Serif" font-size="10.00" fill="#000000">+sSerializationMethod</text>
<text text-anchor="middle" x="961.1267" y="-478.5" font-family="Helvetica,sans-Serif" font-size="10.00" fill="#000000">+sVersion</text>
</g>
<!-- Node8&#45;&gt;Node3 -->
<g id="edge22" class="edge">
<title>Node8&#45;&gt;Node3</title>
<path fill="none" stroke="#404040" d="M715.6631,-960.2609C729.102,-941.577 745.0977,-915.7312 752.6267,-890 770.9784,-827.2804 804.432,-354.5802 765.6267,-302 739.8346,-267.0525 628.4529,-239.8804 550.1974,-224.6465"/>
<polygon fill="none" stroke="#404040" points="549.7273,-224.5568 543.0832,-227.3597 537.9405,-222.3047 544.5846,-219.5018 549.7273,-224.5568"/>
<text text-anchor="middle" x="835.1267" y="-652" font-family="Helvetica,sans-Serif" font-size="10.00" fill="#000000"> +sMagicString</text>
<text text-anchor="middle" x="835.1267" y="-641" font-family="Helvetica,sans-Serif" font-size="10.00" fill="#000000">+sHeaderType</text>
<text text-anchor="middle" x="835.1267" y="-630" font-family="Helvetica,sans-Serif" font-size="10.00" fill="#000000">+sSerializationMethod</text>
<text text-anchor="middle" x="835.1267" y="-619" font-family="Helvetica,sans-Serif" font-size="10.00" fill="#000000">+sVersion</text>
</g>
<!-- Node8&#45;&gt;Node4 -->
<g id="edge6" class="edge">
<title>Node8&#45;&gt;Node4</title>
<path fill="none" stroke="#404040" d="M671.4451,-982.2261C634.4477,-971.2755 561.1026,-943.6371 529.6267,-890 521.9191,-876.8658 532.2227,-626.9379 521.6267,-616 500.4735,-594.1643 291.1719,-609.1984 230.1004,-597.2459"/>
<polygon fill="none" stroke="#404040" points="229.9562,-597.2036 223.0714,-599.3483 218.4437,-593.818 225.3284,-591.6733 229.9562,-597.2036"/>
<text text-anchor="middle" x="558.6267" y="-792.5" font-family="Helvetica,sans-Serif" font-size="10.00" fill="#000000"> +arraySize</text>
<text text-anchor="middle" x="558.6267" y="-781.5" font-family="Helvetica,sans-Serif" font-size="10.00" fill="#000000">+size</text>
<text text-anchor="middle" x="558.6267" y="-770.5" font-family="Helvetica,sans-Serif" font-size="10.00" fill="#000000">+bitcount</text>
</g>
<!-- Node8&#45;&gt;Node9 -->
<g id="edge11" class="edge">
<title>Node8&#45;&gt;Node9</title>
<path fill="none" stroke="#404040" d="M671.559,-986.0852C616.1391,-980.3325 468.5471,-959.0855 370.6267,-890 366.1137,-886.816 361.7152,-883.3277 357.4481,-879.6175"/>
<polygon fill="none" stroke="#404040" points="357.1299,-879.323 350.0094,-878.1834 348.3227,-871.1723 355.4432,-872.3119 357.1299,-879.323"/>
<text text-anchor="middle" x="497.6267" y="-933" font-family="Helvetica,sans-Serif" font-size="10.00" fill="#000000"> +arraySize</text>
<text text-anchor="middle" x="497.6267" y="-922" font-family="Helvetica,sans-Serif" font-size="10.00" fill="#000000">+size</text>
<text text-anchor="middle" x="497.6267" y="-911" font-family="Helvetica,sans-Serif" font-size="10.00" fill="#000000">+bitcount</text>
</g>
<!-- Node8&#45;&gt;Node12 -->
<g id="edge19" class="edge">
<title>Node8&#45;&gt;Node12</title>
<path fill="none" stroke="#404040" d="M693.2044,-959.3637C691.8367,-904.1662 686.0524,-779.5266 661.6267,-678 654.7151,-649.2717 649.0451,-643.2526 637.6267,-616 636.6461,-613.6597 635.6492,-611.2974 634.6391,-608.9192"/>
<polygon fill="none" stroke="#404040" points="634.5556,-608.7243 628.515,-604.7859 629.8272,-597.6952 635.8678,-601.6336 634.5556,-608.7243"/>
<text text-anchor="middle" x="719.6267" y="-792.5" font-family="Helvetica,sans-Serif" font-size="10.00" fill="#000000"> +arraySize</text>
<text text-anchor="middle" x="719.6267" y="-781.5" font-family="Helvetica,sans-Serif" font-size="10.00" fill="#000000">+size</text>
<text text-anchor="middle" x="719.6267" y="-770.5" font-family="Helvetica,sans-Serif" font-size="10.00" fill="#000000">+bitcount</text>
</g>
<!-- Node9&#45;&gt;Node4 -->
<g id="edge7" class="edge">
<title>Node9&#45;&gt;Node4</title>
<path fill="none" stroke="#ffa500" d="M217.6066,-683.8704C212.7343,-675.8796 208.0175,-667.8596 203.6267,-660 192.5698,-640.2084 181.6874,-618.5766 171.7218,-597.619"/>
<polygon fill="#ffa500" stroke="#ffa500" points="214.7154,-685.85 222.9466,-692.5208 220.6719,-682.173 214.7154,-685.85"/>
<text text-anchor="start" x="203.6267" y="-641" font-family="Helvetica,sans-Serif" font-size="10.00" fill="#000000"> &lt; gSizeHeaderDescription</text>
<text text-anchor="middle" x="269.6267" y="-630" font-family="Helvetica,sans-Serif" font-size="10.00" fill="#000000">String &gt;</text>
</g>
<!-- Node9&#45;&gt;Node12 -->
<g id="edge20" class="edge">
<title>Node9&#45;&gt;Node12</title>
<path fill="none" stroke="#ffa500" d="M352.5352,-669.94C368.7248,-649.6262 387.5388,-630.3898 408.6267,-616 434.4504,-598.3786 449.5654,-613.6547 476.6267,-598 479.7657,-596.1841 482.8754,-594.2498 485.9496,-592.2155"/>
<polygon fill="#ffa500" stroke="#ffa500" points="349.5876,-668.0297 346.2276,-678.0776 355.1202,-672.3181 349.5876,-668.0297"/>
<text text-anchor="start" x="408.6267" y="-641" font-family="Helvetica,sans-Serif" font-size="10.00" fill="#000000"> &lt; gSizeSerializationMethod</text>
<text text-anchor="middle" x="477.6267" y="-630" font-family="Helvetica,sans-Serif" font-size="10.00" fill="#000000">String &gt;</text>
</g>
<!-- Node10 -->
<g id="node9" class="node">
<title>Node10</title>
<polygon fill="none" stroke="#bfbfbf" points="236.1267,-463.5 236.1267,-520.5 343.1267,-520.5 343.1267,-463.5 236.1267,-463.5"/>
<text text-anchor="middle" x="289.6267" y="-508.5" font-family="Helvetica,sans-Serif" font-size="10.00" fill="#000000">anonymous:+@26</text>
<polyline fill="none" stroke="#bfbfbf" points="236.1267,-501.5 343.1267,-501.5 "/>
<text text-anchor="middle" x="289.6267" y="-489.5" font-family="Helvetica,sans-Serif" font-size="10.00" fill="#000000"> </text>
<polyline fill="none" stroke="#bfbfbf" points="236.1267,-482.5 343.1267,-482.5 "/>
<text text-anchor="middle" x="289.6267" y="-470.5" font-family="Helvetica,sans-Serif" font-size="10.00" fill="#000000"> </text>
</g>
<!-- Node10&#45;&gt;Node3 -->
<g id="edge12" class="edge">
<title>Node10&#45;&gt;Node3</title>
<path fill="none" stroke="#404040" d="M305.5011,-463.3991C326.7202,-425.6887 366.0304,-357.6105 403.6267,-302 405.4689,-299.2751 407.3572,-296.5168 409.2776,-293.7411"/>
<polygon fill="none" stroke="#404040" points="409.4644,-293.4742 409.6288,-286.265 416.3467,-283.6439 416.1823,-290.8532 409.4644,-293.4742"/>
<text text-anchor="middle" x="420.6267" y="-332.5" font-family="Helvetica,sans-Serif" font-size="10.00" fill="#000000"> +@26</text>
</g>
<!-- Node11 -->
<g id="node10" class="node">
<title>Node11</title>
<polygon fill="none" stroke="#bfbfbf" points="361.1267,-463.5 361.1267,-520.5 468.1267,-520.5 468.1267,-463.5 361.1267,-463.5"/>
<text text-anchor="middle" x="414.6267" y="-508.5" font-family="Helvetica,sans-Serif" font-size="10.00" fill="#000000">anonymous:+@28</text>
<polyline fill="none" stroke="#bfbfbf" points="361.1267,-501.5 468.1267,-501.5 "/>
<text text-anchor="middle" x="414.6267" y="-489.5" font-family="Helvetica,sans-Serif" font-size="10.00" fill="#000000"> </text>
<polyline fill="none" stroke="#bfbfbf" points="361.1267,-482.5 468.1267,-482.5 "/>
<text text-anchor="middle" x="414.6267" y="-470.5" font-family="Helvetica,sans-Serif" font-size="10.00" fill="#000000"> </text>
</g>
<!-- Node11&#45;&gt;Node3 -->
<g id="edge14" class="edge">
<title>Node11&#45;&gt;Node3</title>
<path fill="none" stroke="#404040" d="M420.3565,-463.2486C428.1509,-424.1372 442.4247,-352.5132 453.7763,-295.5527"/>
<polygon fill="none" stroke="#404040" points="453.8054,-295.406 451.0553,-288.7399 456.1509,-283.6374 458.901,-290.3035 453.8054,-295.406"/>
<text text-anchor="middle" x="468.6267" y="-332.5" font-family="Helvetica,sans-Serif" font-size="10.00" fill="#000000"> +@28</text>
</g>
<!-- Node12&#45;&gt;Node3 -->
<g id="edge15" class="edge">
<title>Node12&#45;&gt;Node3</title>
<path fill="none" stroke="#404040" d="M539.8205,-386.1664C527.8847,-355.9506 515.0476,-323.4531 503.7105,-294.7529"/>
<polygon fill="none" stroke="#404040" points="503.6895,-294.6994 497.7648,-290.5886 499.2807,-283.5386 505.2053,-287.6494 503.6895,-294.6994"/>
<text text-anchor="middle" x="565.6267" y="-332.5" font-family="Helvetica,sans-Serif" font-size="10.00" fill="#000000"> +serialization</text>
</g>
<!-- Node13 -->
<g id="node12" class="node">
<title>Node13</title>
<polygon fill="none" stroke="#bfbfbf" points="695.6267,-463.5 695.6267,-520.5 751.6267,-520.5 751.6267,-463.5 695.6267,-463.5"/>
<text text-anchor="middle" x="723.6267" y="-508.5" font-family="Helvetica,sans-Serif" font-size="10.00" fill="#000000">uint32_t</text>
<polyline fill="none" stroke="#bfbfbf" points="695.6267,-501.5 751.6267,-501.5 "/>
<text text-anchor="middle" x="723.6267" y="-489.5" font-family="Helvetica,sans-Serif" font-size="10.00" fill="#000000"> </text>
<polyline fill="none" stroke="#bfbfbf" points="695.6267,-482.5 751.6267,-482.5 "/>
<text text-anchor="middle" x="723.6267" y="-470.5" font-family="Helvetica,sans-Serif" font-size="10.00" fill="#000000"> </text>
</g>
<!-- Node13&#45;&gt;Node3 -->
<g id="edge21" class="edge">
<title>Node13&#45;&gt;Node3</title>
<path fill="none" stroke="#404040" d="M716.7819,-463.1047C710.7212,-440.9296 700.5064,-410.1276 685.6267,-386 651.8521,-331.2344 594.7183,-285.9426 547.8341,-255.1656"/>
<polygon fill="none" stroke="#404040" points="547.7781,-255.1295 540.5678,-255.2402 537.6925,-248.6272 544.9027,-248.5165 547.7781,-255.1295"/>
<text text-anchor="middle" x="719.1267" y="-360" font-family="Helvetica,sans-Serif" font-size="10.00" fill="#000000"> +headerVersion</text>
<text text-anchor="middle" x="719.1267" y="-349" font-family="Helvetica,sans-Serif" font-size="10.00" fill="#000000">+headerSize</text>
<text text-anchor="middle" x="719.1267" y="-338" font-family="Helvetica,sans-Serif" font-size="10.00" fill="#000000">+flagsNextHeader</text>
<text text-anchor="middle" x="719.1267" y="-327" font-family="Helvetica,sans-Serif" font-size="10.00" fill="#000000">+magicStringInt</text>
<text text-anchor="middle" x="719.1267" y="-316" font-family="Helvetica,sans-Serif" font-size="10.00" fill="#000000">+flagsUnused</text>
<text text-anchor="middle" x="719.1267" y="-305" font-family="Helvetica,sans-Serif" font-size="10.00" fill="#000000">+flags</text>
</g>
<!-- Node14 -->
<g id="node13" class="node">
<title>Node14</title>
<polygon fill="none" stroke="#bfbfbf" points="934.1267,-182.5 934.1267,-239.5 1073.1267,-239.5 1073.1267,-182.5 934.1267,-182.5"/>
<text text-anchor="middle" x="1003.6267" y="-227.5" font-family="Helvetica,sans-Serif" font-size="10.00" fill="#000000">OutputObjHandlingPolicy</text>
<polyline fill="none" stroke="#bfbfbf" points="934.1267,-220.5 1073.1267,-220.5 "/>
<text text-anchor="middle" x="1003.6267" y="-208.5" font-family="Helvetica,sans-Serif" font-size="10.00" fill="#000000"> </text>
<polyline fill="none" stroke="#bfbfbf" points="934.1267,-201.5 1073.1267,-201.5 "/>
<text text-anchor="middle" x="1003.6267" y="-189.5" font-family="Helvetica,sans-Serif" font-size="10.00" fill="#000000"> </text>
</g>
<!-- Node14&#45;&gt;Node2 -->
<g id="edge23" class="edge">
<title>Node14&#45;&gt;Node2</title>
<path fill="none" stroke="#404040" d="M986.5564,-182.1721C973.3397,-159.8521 954.6336,-128.2618 938.5346,-101.0741"/>
<polygon fill="none" stroke="#404040" points="938.3944,-100.8374 931.8955,-97.7127 932.2802,-90.5118 938.7791,-93.6365 938.3944,-100.8374"/>
<text text-anchor="middle" x="974.1267" y="-112" font-family="Helvetica,sans-Serif" font-size="10.00" fill="#000000"> +mPolicy</text>
</g>
</g>
</svg>
        <g id="navigator" transform="translate(0 0)" fill="#404254">
                <rect fill="#f2f5e9" fill-opacity="0.5" stroke="#606060" stroke-width=".5" x="0" y="0" width="60" height="60"/>
                <use id="zoomplus" xlink:href="#zoomPlus" x="17" y="9" onmousedown="handleZoom(evt,'in')"/>
                <use id="zoomminus" xlink:href="#zoomMin" x="42" y="9" onmousedown="handleZoom(evt,'out')"/>
                <use id="reset" xlink:href="#resetDef" x="30" y="36" onmousedown="handleReset()"/>
                <g id="arrowUp" xlink:href="#dirArrow" transform="translate(30 24)" onmousedown="handlePan(0,-1)">
                  <use xlink:href="#rim" fill="#404040">
                        <set attributeName="fill" to="#808080" begin="arrowUp.mouseover" end="arrowUp.mouseout"/>
                  </use>
                  <path fill="none" stroke="white" stroke-width="1.5" d="M0,-3.0v7 M-2.5,-0.5L0,-3.0L2.5,-0.5"/>
                </g>
                <g id="arrowRight" xlink:href="#dirArrow" transform="rotate(90) translate(36 -43)" onmousedown="handlePan(1,0)">
                  <use xlink:href="#rim" fill="#404040">
                        <set attributeName="fill" to="#808080" begin="arrowRight.mouseover" end="arrowRight.mouseout"/>
                  </use>
                  <path fill="none" stroke="white" stroke-width="1.5" d="M0,-3.0v7 M-2.5,-0.5L0,-3.0L2.5,-0.5"/>
                </g>
                <g id="arrowDown" xlink:href="#dirArrow" transform="rotate(180) translate(-30 -48)" onmousedown="handlePan(0,1)">
                  <use xlink:href="#rim" fill="#404040">
                        <set attributeName="fill" to="#808080" begin="arrowDown.mouseover" end="arrowDown.mouseout"/>
                  </use>
                  <path fill="none" stroke="white" stroke-width="1.5" d="M0,-3.0v7 M-2.5,-0.5L0,-3.0L2.5,-0.5"/>
                </g>
                <g id="arrowLeft" xlink:href="#dirArrow" transform="rotate(270) translate(-36 17)" onmousedown="handlePan(-1,0)">
                  <use xlink:href="#rim" fill="#404040">
                        <set attributeName="fill" to="#808080" begin="arrowLeft.mouseover" end="arrowLeft.mouseout"/>
                  </use>
                  <path fill="none" stroke="white" stroke-width="1.5" d="M0,-3.0v7 M-2.5,-0.5L0,-3.0L2.5,-0.5"/>
                </g>
        </g>
        <svg viewBox="0 0 15 15" width="100%" height="30px" preserveAspectRatio="xMaxYMin meet">
         <g id="arrow_out" transform="scale(0.3 0.3)">
          <a xlink:href="structo2_1_1framework_1_1OutputObjHeader__coll__graph_org.svg" target="_base">
           <rect id="button" ry="5" rx="5" y="6" x="6" height="38" width="38"
                fill="#f2f5e9" fill-opacity="0.5" stroke="#606060" stroke-width="1.0"/>
           <path id="arrow"
             d="M 11.500037,31.436501 C 11.940474,20.09759 22.043105,11.32322 32.158766,21.979434 L 37.068811,17.246167 C 37.068811,17.246167 37.088388,32 37.088388,32 L 22.160133,31.978069 C 22.160133,31.978069 26.997745,27.140456 26.997745,27.140456 C 18.528582,18.264221 13.291696,25.230495 11.500037,31.436501 z"
             style="fill:#404040;"/>
          </a>
         </g>
        </svg>
</svg>
