<?xml version="1.0" encoding="UTF-8" standalone="no"?>
<!DOCTYPE svg PUBLIC "-//W3C//DTD SVG 1.1//EN"
 "http://www.w3.org/Graphics/SVG/1.1/DTD/svg11.dtd">
<!-- Generated by graphviz version 2.40.1 (20161225.0304)
 -->
<!-- Title: /home/travis/build/AliceO2Group/AliceO2/GPU/GPUTracking/ctest/testGPUTracking.cxx Pages: 1 -->
<svg width="1399pt" height="453pt"
 viewBox="0.00 0.00 1399.00 453.00" xmlns="http://www.w3.org/2000/svg" xmlns:xlink="http://www.w3.org/1999/xlink">
<g id="graph0" class="graph" transform="scale(1 1) rotate(0) translate(4 449)">
<title>/home/travis/build/AliceO2Group/AliceO2/GPU/GPUTracking/ctest/testGPUTracking.cxx</title>
<!-- Node0 -->
<g id="node1" class="node">
<title>Node0</title>
<polygon fill="#bfbfbf" stroke="#000000" points="654.5,-392.5 654.5,-444.5 786.5,-444.5 786.5,-392.5 654.5,-392.5"/>
<text text-anchor="start" x="662.5" y="-432.5" font-family="Helvetica,sans-Serif" font-size="10.00" fill="#000000">/home/travis/build</text>
<text text-anchor="start" x="662.5" y="-421.5" font-family="Helvetica,sans-Serif" font-size="10.00" fill="#000000">/AliceO2Group/AliceO2</text>
<text text-anchor="start" x="662.5" y="-410.5" font-family="Helvetica,sans-Serif" font-size="10.00" fill="#000000">/GPU/GPUTracking/ctest</text>
<text text-anchor="middle" x="720.5" y="-399.5" font-family="Helvetica,sans-Serif" font-size="10.00" fill="#000000">/testGPUTracking.cxx</text>
</g>
<!-- Node1 -->
<g id="node2" class="node">
<title>Node1</title>
<polygon fill="none" stroke="#bfbfbf" points="446.5,-336.5 446.5,-355.5 578.5,-355.5 578.5,-336.5 446.5,-336.5"/>
<text text-anchor="middle" x="512.5" y="-343.5" font-family="Helvetica,sans-Serif" font-size="10.00" fill="#000000">boost/test/unit_test.hpp</text>
</g>
<!-- Node0&#45;&gt;Node1 -->
<g id="edge1" class="edge">
<title>Node0&#45;&gt;Node1</title>
<path fill="none" stroke="#191970" d="M654.4017,-395.4609C619.8185,-383.4067 578.7577,-369.0946 549.7257,-358.9753"/>
<polygon fill="#191970" stroke="#191970" points="550.5836,-355.5679 539.9887,-355.5814 548.2796,-362.1778 550.5836,-355.5679"/>
</g>
<!-- Node2 -->
<g id="node3" class="node">
<title>Node2</title>
<g id="a_node3"><a xlink:href="../../d4/db1/TPCFastTransform_8h.html" target="_top" xlink:title="Definition of TPCFastTransform class. ">
<polygon fill="none" stroke="#000000" points="731,-336.5 731,-355.5 844,-355.5 844,-336.5 731,-336.5"/>
<text text-anchor="middle" x="787.5" y="-343.5" font-family="Helvetica,sans-Serif" font-size="10.00" fill="#000000">TPCFastTransform.h</text>
</a>
</g>
</g>
<!-- Node0&#45;&gt;Node2 -->
<g id="edge2" class="edge">
<title>Node0&#45;&gt;Node2</title>
<path fill="none" stroke="#191970" d="M744.6885,-392.3258C753.7571,-382.5128 763.8146,-371.6298 771.9014,-362.879"/>
<polygon fill="#191970" stroke="#191970" points="774.4727,-365.2536 778.6893,-355.534 769.3318,-360.5027 774.4727,-365.2536"/>
</g>
<!-- Node21 -->
<g id="node22" class="node">
<title>Node21</title>
<g id="a_node22"><a xlink:href="../../dc/dae/GPUO2Interface_8h.html" target="_top" xlink:title="GPUO2Interface.h">
<polygon fill="none" stroke="#000000" points="900.5,-168.5 900.5,-187.5 1004.5,-187.5 1004.5,-168.5 900.5,-168.5"/>
<text text-anchor="middle" x="952.5" y="-175.5" font-family="Helvetica,sans-Serif" font-size="10.00" fill="#000000">GPUO2Interface.h</text>
</a>
</g>
</g>
<!-- Node0&#45;&gt;Node21 -->
<g id="edge34" class="edge">
<title>Node0&#45;&gt;Node21</title>
<path fill="none" stroke="#191970" d="M786.6518,-407.0315C869.3945,-388.7343 1007.5862,-344.2004 1068.5,-244 1085.0577,-216.7633 1050.3235,-199.7404 1014.6414,-189.8191"/>
<polygon fill="#191970" stroke="#191970" points="1015.1529,-186.3358 1004.5939,-187.2066 1013.3913,-193.1106 1015.1529,-186.3358"/>
</g>
<!-- Node23 -->
<g id="node24" class="node">
<title>Node23</title>
<g id="a_node24"><a xlink:href="../../d8/de7/GPUO2InterfaceConfiguration_8h.html" target="_top" xlink:title="GPUO2InterfaceConfiguration.h">
<polygon fill="none" stroke="#000000" points="342,-224.5 342,-243.5 511,-243.5 511,-224.5 342,-224.5"/>
<text text-anchor="middle" x="426.5" y="-231.5" font-family="Helvetica,sans-Serif" font-size="10.00" fill="#000000">GPUO2InterfaceConfiguration.h</text>
</a>
</g>
</g>
<!-- Node0&#45;&gt;Node23 -->
<g id="edge40" class="edge">
<title>Node0&#45;&gt;Node23</title>
<path fill="none" stroke="#191970" d="M679.0005,-392.457C616.5656,-353.2759 500.465,-280.4168 450.4447,-249.0265"/>
<polygon fill="#191970" stroke="#191970" points="452.2323,-246.0163 441.9016,-243.6653 448.5114,-251.9455 452.2323,-246.0163"/>
</g>
<!-- Node3 -->
<g id="node4" class="node">
<title>Node3</title>
<g id="a_node4"><a xlink:href="../../db/dff/FlatObject_8h.html" target="_top" xlink:title="Definition of FlatObject class. ">
<polygon fill="none" stroke="#000000" points="1166,-112.5 1166,-131.5 1241,-131.5 1241,-112.5 1166,-112.5"/>
<text text-anchor="middle" x="1203.5" y="-119.5" font-family="Helvetica,sans-Serif" font-size="10.00" fill="#000000">FlatObject.h</text>
</a>
</g>
</g>
<!-- Node2&#45;&gt;Node3 -->
<g id="edge3" class="edge">
<title>Node2&#45;&gt;Node3</title>
<path fill="none" stroke="#191970" d="M834.0978,-336.4814C898.3566,-322.1988 1016.6451,-291.6977 1108.5,-244 1147.3414,-223.8307 1165.2428,-224.4287 1189.5,-188 1198.6183,-174.3064 1201.9453,-155.7719 1203.0911,-141.8303"/>
<polygon fill="#191970" stroke="#191970" points="1206.5878,-141.9824 1203.6113,-131.8143 1199.5972,-141.6193 1206.5878,-141.9824"/>
</g>
<!-- Node13 -->
<g id="node14" class="node">
<title>Node13</title>
<g id="a_node14"><a xlink:href="../../d5/dde/TPCFastTransformGeo_8h.html" target="_top" xlink:title="Definition of TPCFastTransformGeo class. ">
<polygon fill="none" stroke="#000000" points="674.5,-224.5 674.5,-243.5 806.5,-243.5 806.5,-224.5 674.5,-224.5"/>
<text text-anchor="middle" x="740.5" y="-231.5" font-family="Helvetica,sans-Serif" font-size="10.00" fill="#000000">TPCFastTransformGeo.h</text>
</a>
</g>
</g>
<!-- Node2&#45;&gt;Node13 -->
<g id="edge13" class="edge">
<title>Node2&#45;&gt;Node13</title>
<path fill="none" stroke="#191970" d="M783.4928,-336.4509C775.7578,-318.0186 758.6392,-277.2254 748.4913,-253.043"/>
<polygon fill="#191970" stroke="#191970" points="751.594,-251.3915 744.4971,-243.5249 745.1393,-254.1002 751.594,-251.3915"/>
</g>
<!-- Node14 -->
<g id="node15" class="node">
<title>Node14</title>
<g id="a_node15"><a xlink:href="../../d0/d28/TPCDistortionIRS_8h.html" target="_top" xlink:title="Definition of TPCDistortionIRS class. ">
<polygon fill="none" stroke="#000000" points="777.5,-280.5 777.5,-299.5 885.5,-299.5 885.5,-280.5 777.5,-280.5"/>
<text text-anchor="middle" x="831.5" y="-287.5" font-family="Helvetica,sans-Serif" font-size="10.00" fill="#000000">TPCDistortionIRS.h</text>
</a>
</g>
</g>
<!-- Node2&#45;&gt;Node14 -->
<g id="edge16" class="edge">
<title>Node2&#45;&gt;Node14</title>
<path fill="none" stroke="#191970" d="M795.1642,-336.2455C801.3473,-328.3761 810.2063,-317.101 817.6289,-307.6542"/>
<polygon fill="#191970" stroke="#191970" points="820.4975,-309.6683 823.9236,-299.6427 814.9932,-305.3435 820.4975,-309.6683"/>
</g>
<!-- Node17 -->
<g id="node18" class="node">
<title>Node17</title>
<g id="a_node18"><a xlink:href="../../d6/da2/GPUCommonMath_8h.html" target="_top" xlink:title="GPUCommonMath.h">
<polygon fill="none" stroke="#000000" points="422,-112.5 422,-131.5 537,-131.5 537,-112.5 422,-112.5"/>
<text text-anchor="middle" x="479.5" y="-119.5" font-family="Helvetica,sans-Serif" font-size="10.00" fill="#000000">GPUCommonMath.h</text>
</a>
</g>
</g>
<!-- Node2&#45;&gt;Node17 -->
<g id="edge29" class="edge">
<title>Node2&#45;&gt;Node17</title>
<path fill="none" stroke="#191970" d="M772.3611,-336.2518C747.5493,-319.6908 697.7676,-283.9464 665.5,-244 641.5146,-214.3068 654.7982,-192.4664 625.5,-168 603.4332,-149.5723 573.9448,-138.5046 547.2477,-131.8672"/>
<polygon fill="#191970" stroke="#191970" points="547.7056,-128.3807 537.1738,-129.5341 546.1262,-135.2002 547.7056,-128.3807"/>
</g>
<!-- Node20 -->
<g id="node21" class="node">
<title>Node20</title>
<polygon fill="none" stroke="#bfbfbf" points="903.5,-280.5 903.5,-299.5 947.5,-299.5 947.5,-280.5 903.5,-280.5"/>
<text text-anchor="middle" x="925.5" y="-287.5" font-family="Helvetica,sans-Serif" font-size="10.00" fill="#000000">string</text>
</g>
<!-- Node2&#45;&gt;Node20 -->
<g id="edge33" class="edge">
<title>Node2&#45;&gt;Node20</title>
<path fill="none" stroke="#191970" d="M811.223,-336.3733C834.0818,-327.0972 868.8104,-313.0045 893.983,-302.7895"/>
<polygon fill="#191970" stroke="#191970" points="895.5022,-305.9503 903.4522,-298.9469 892.87,-299.464 895.5022,-305.9503"/>
</g>
<!-- Node4 -->
<g id="node5" class="node">
<title>Node4</title>
<polygon fill="none" stroke="#bfbfbf" points="1056,-56.5 1056,-75.5 1109,-75.5 1109,-56.5 1056,-56.5"/>
<text text-anchor="middle" x="1082.5" y="-63.5" font-family="Helvetica,sans-Serif" font-size="10.00" fill="#000000">cstddef</text>
</g>
<!-- Node3&#45;&gt;Node4 -->
<g id="edge4" class="edge">
<title>Node3&#45;&gt;Node4</title>
<path fill="none" stroke="#191970" d="M1182.6994,-112.3733C1163.2757,-103.3838 1134.0776,-89.8706 1112.2036,-79.7471"/>
<polygon fill="#191970" stroke="#191970" points="1113.5745,-76.5249 1103.0292,-75.5011 1110.6344,-82.8776 1113.5745,-76.5249"/>
</g>
<!-- Node5 -->
<g id="node6" class="node">
<title>Node5</title>
<polygon fill="none" stroke="#bfbfbf" points="979.5,-56.5 979.5,-75.5 1037.5,-75.5 1037.5,-56.5 979.5,-56.5"/>
<text text-anchor="middle" x="1008.5" y="-63.5" font-family="Helvetica,sans-Serif" font-size="10.00" fill="#000000">memory</text>
</g>
<!-- Node3&#45;&gt;Node5 -->
<g id="edge5" class="edge">
<title>Node3&#45;&gt;Node5</title>
<path fill="none" stroke="#191970" d="M1169.9783,-112.3733C1135.9372,-102.5974 1083.2673,-87.4716 1047.4069,-77.1733"/>
<polygon fill="#191970" stroke="#191970" points="1048.3453,-73.8013 1037.7676,-74.4051 1046.413,-80.5294 1048.3453,-73.8013"/>
</g>
<!-- Node6 -->
<g id="node7" class="node">
<title>Node6</title>
<polygon fill="none" stroke="#bfbfbf" points="1127.5,-56.5 1127.5,-75.5 1177.5,-75.5 1177.5,-56.5 1127.5,-56.5"/>
<text text-anchor="middle" x="1152.5" y="-63.5" font-family="Helvetica,sans-Serif" font-size="10.00" fill="#000000">cstring</text>
</g>
<!-- Node3&#45;&gt;Node6 -->
<g id="edge6" class="edge">
<title>Node3&#45;&gt;Node6</title>
<path fill="none" stroke="#191970" d="M1194.6165,-112.2455C1187.3034,-104.2155 1176.7609,-92.6394 1168.0533,-83.0781"/>
<polygon fill="#191970" stroke="#191970" points="1170.6028,-80.6795 1161.2817,-75.6427 1165.4273,-85.3928 1170.6028,-80.6795"/>
</g>
<!-- Node7 -->
<g id="node8" class="node">
<title>Node7</title>
<polygon fill="none" stroke="#bfbfbf" points="1195.5,-56.5 1195.5,-75.5 1247.5,-75.5 1247.5,-56.5 1195.5,-56.5"/>
<text text-anchor="middle" x="1221.5" y="-63.5" font-family="Helvetica,sans-Serif" font-size="10.00" fill="#000000">cassert</text>
</g>
<!-- Node3&#45;&gt;Node7 -->
<g id="edge7" class="edge">
<title>Node3&#45;&gt;Node7</title>
<path fill="none" stroke="#191970" d="M1206.6354,-112.2455C1209.01,-104.8579 1212.3493,-94.4689 1215.2615,-85.4087"/>
<polygon fill="#191970" stroke="#191970" points="1218.6725,-86.234 1218.4006,-75.6427 1212.0083,-84.0919 1218.6725,-86.234"/>
</g>
<!-- Node8 -->
<g id="node9" class="node">
<title>Node8</title>
<g id="a_node9"><a xlink:href="../../df/d21/GPUCommonDef_8h.html" target="_top" xlink:title="GPUCommonDef.h">
<polygon fill="none" stroke="#000000" points="645,-56.5 645,-75.5 752,-75.5 752,-56.5 645,-56.5"/>
<text text-anchor="middle" x="698.5" y="-63.5" font-family="Helvetica,sans-Serif" font-size="10.00" fill="#000000">GPUCommonDef.h</text>
</a>
</g>
</g>
<!-- Node3&#45;&gt;Node8 -->
<g id="edge8" class="edge">
<title>Node3&#45;&gt;Node8</title>
<path fill="none" stroke="#191970" d="M1165.9555,-117.8366C1080.1472,-108.3213 868.8802,-84.8936 762.2505,-73.0694"/>
<polygon fill="#191970" stroke="#191970" points="762.5907,-69.5857 752.2658,-71.9622 761.8191,-76.5431 762.5907,-69.5857"/>
</g>
<!-- Node11 -->
<g id="node12" class="node">
<title>Node11</title>
<g id="a_node12"><a xlink:href="../../d2/d45/GPUCommonRtypes_8h.html" target="_top" xlink:title="GPUCommonRtypes.h">
<polygon fill="none" stroke="#000000" points="1266,-56.5 1266,-75.5 1391,-75.5 1391,-56.5 1266,-56.5"/>
<text text-anchor="middle" x="1328.5" y="-63.5" font-family="Helvetica,sans-Serif" font-size="10.00" fill="#000000">GPUCommonRtypes.h</text>
</a>
</g>
</g>
<!-- Node3&#45;&gt;Node11 -->
<g id="edge11" class="edge">
<title>Node3&#45;&gt;Node11</title>
<path fill="none" stroke="#191970" d="M1224.9883,-112.3733C1245.144,-103.3435 1275.488,-89.7494 1298.118,-79.6111"/>
<polygon fill="#191970" stroke="#191970" points="1299.5971,-82.7838 1307.2921,-75.5011 1296.7351,-76.3955 1299.5971,-82.7838"/>
</g>
<!-- Node9 -->
<g id="node10" class="node">
<title>Node9</title>
<g id="a_node10"><a xlink:href="../../d5/d93/GPUCommonDefSettings_8h.html" target="_top" xlink:title="GPUCommonDefSettings.h">
<polygon fill="none" stroke="#000000" points="547.5,-.5 547.5,-19.5 695.5,-19.5 695.5,-.5 547.5,-.5"/>
<text text-anchor="middle" x="621.5" y="-7.5" font-family="Helvetica,sans-Serif" font-size="10.00" fill="#000000">GPUCommonDefSettings.h</text>
</a>
</g>
</g>
<!-- Node8&#45;&gt;Node9 -->
<g id="edge9" class="edge">
<title>Node8&#45;&gt;Node9</title>
<path fill="none" stroke="#191970" d="M685.0876,-56.2455C673.4943,-47.814 656.5252,-35.4729 643.0322,-25.6598"/>
<polygon fill="#191970" stroke="#191970" points="644.9047,-22.6938 634.7587,-19.6427 640.7874,-28.355 644.9047,-22.6938"/>
</g>
<!-- Node10 -->
<g id="node11" class="node">
<title>Node10</title>
<g id="a_node11"><a xlink:href="../../da/d5a/GPUCommonDefAPI_8h.html" target="_top" xlink:title="GPUCommonDefAPI.h">
<polygon fill="none" stroke="#000000" points="713.5,-.5 713.5,-19.5 837.5,-19.5 837.5,-.5 713.5,-.5"/>
<text text-anchor="middle" x="775.5" y="-7.5" font-family="Helvetica,sans-Serif" font-size="10.00" fill="#000000">GPUCommonDefAPI.h</text>
</a>
</g>
</g>
<!-- Node8&#45;&gt;Node10 -->
<g id="edge10" class="edge">
<title>Node8&#45;&gt;Node10</title>
<path fill="none" stroke="#191970" d="M711.9124,-56.2455C723.5057,-47.814 740.4748,-35.4729 753.9678,-25.6598"/>
<polygon fill="#191970" stroke="#191970" points="756.2126,-28.355 762.2413,-19.6427 752.0953,-22.6938 756.2126,-28.355"/>
</g>
<!-- Node12 -->
<g id="node13" class="node">
<title>Node12</title>
<polygon fill="none" stroke="#bfbfbf" points="1299,-.5 1299,-19.5 1358,-19.5 1358,-.5 1299,-.5"/>
<text text-anchor="middle" x="1328.5" y="-7.5" font-family="Helvetica,sans-Serif" font-size="10.00" fill="#000000">Rtypes.h</text>
</g>
<!-- Node11&#45;&gt;Node12 -->
<g id="edge12" class="edge">
<title>Node11&#45;&gt;Node12</title>
<path fill="none" stroke="#191970" d="M1328.5,-56.2455C1328.5,-48.9382 1328.5,-38.6944 1328.5,-29.7046"/>
<polygon fill="#191970" stroke="#191970" points="1332.0001,-29.6426 1328.5,-19.6427 1325.0001,-29.6427 1332.0001,-29.6426"/>
</g>
<!-- Node13&#45;&gt;Node5 -->
<g id="edge15" class="edge">
<title>Node13&#45;&gt;Node5</title>
<path fill="none" stroke="#191970" d="M743.3085,-224.281C750.5724,-200.9607 772.2789,-141.578 812.5,-112 837.0796,-93.9246 919.2884,-79.1094 969.0935,-71.514"/>
<polygon fill="#191970" stroke="#191970" points="969.8242,-74.9438 979.1971,-70.0043 968.7896,-68.0207 969.8242,-74.9438"/>
</g>
<!-- Node13&#45;&gt;Node8 -->
<g id="edge14" class="edge">
<title>Node13&#45;&gt;Node8</title>
<path fill="none" stroke="#191970" d="M729.884,-224.2761C712.4258,-207.4786 678.3129,-171.0548 665.5,-132 659.8654,-114.8254 670.466,-96.5339 681.1174,-83.5736"/>
<polygon fill="#191970" stroke="#191970" points="683.9202,-85.689 687.9541,-75.8921 678.6913,-81.0351 683.9202,-85.689"/>
</g>
<!-- Node14&#45;&gt;Node3 -->
<g id="edge27" class="edge">
<title>Node14&#45;&gt;Node3</title>
<path fill="none" stroke="#191970" d="M885.5619,-280.4564C950.1229,-268.911 1051.5654,-250.244 1068.5,-244 1115.9302,-226.5119 1132.0316,-224.0202 1167.5,-188 1180.7643,-174.5293 1190.5433,-155.1737 1196.5348,-140.9048"/>
<polygon fill="#191970" stroke="#191970" points="1199.8032,-142.1572 1200.2237,-131.5707 1193.2931,-139.5843 1199.8032,-142.1572"/>
</g>
<!-- Node14&#45;&gt;Node8 -->
<g id="edge28" class="edge">
<title>Node14&#45;&gt;Node8</title>
<path fill="none" stroke="#191970" d="M830.3654,-280.1988C828.5586,-266.9424 824.2938,-242.7953 815.5,-224 789.0204,-167.4043 740.5833,-110.957 715.1321,-83.3861"/>
<polygon fill="#191970" stroke="#191970" points="717.4099,-80.6979 708.0211,-75.7885 712.2992,-85.4812 717.4099,-80.6979"/>
</g>
<!-- Node14&#45;&gt;Node13 -->
<g id="edge26" class="edge">
<title>Node14&#45;&gt;Node13</title>
<path fill="none" stroke="#191970" d="M815.649,-280.2455C801.6868,-271.6534 781.1272,-259.0014 765.0404,-249.1018"/>
<polygon fill="#191970" stroke="#191970" points="766.5203,-245.9029 756.1693,-243.6427 762.8516,-251.8645 766.5203,-245.9029"/>
</g>
<!-- Node15 -->
<g id="node16" class="node">
<title>Node15</title>
<g id="a_node16"><a xlink:href="../../d8/d4b/IrregularSpline2D3D_8h.html" target="_top" xlink:title="Definition of IrregularSpline2D3D class. ">
<polygon fill="none" stroke="#000000" points="935.5,-224.5 935.5,-243.5 1059.5,-243.5 1059.5,-224.5 935.5,-224.5"/>
<text text-anchor="middle" x="997.5" y="-231.5" font-family="Helvetica,sans-Serif" font-size="10.00" fill="#000000">IrregularSpline2D3D.h</text>
</a>
</g>
</g>
<!-- Node14&#45;&gt;Node15 -->
<g id="edge17" class="edge">
<title>Node14&#45;&gt;Node15</title>
<path fill="none" stroke="#191970" d="M860.0364,-280.3733C887.5202,-271.1016 929.2686,-257.0178 959.5452,-246.804"/>
<polygon fill="#191970" stroke="#191970" points="960.9794,-250.0141 969.336,-243.5011 958.7418,-243.3813 960.9794,-250.0141"/>
</g>
<!-- Node15&#45;&gt;Node3 -->
<g id="edge24" class="edge">
<title>Node15&#45;&gt;Node3</title>
<path fill="none" stroke="#191970" d="M1048.1927,-224.4454C1077.0903,-217.4272 1113.0903,-205.9272 1141.5,-188 1161.5387,-175.3552 1179.4725,-154.7225 1190.8341,-139.8906"/>
<polygon fill="#191970" stroke="#191970" points="1193.8864,-141.6496 1197.019,-131.5285 1188.2585,-137.487 1193.8864,-141.6496"/>
</g>
<!-- Node15&#45;&gt;Node8 -->
<g id="edge25" class="edge">
<title>Node15&#45;&gt;Node8</title>
<path fill="none" stroke="#191970" d="M972.5768,-224.4525C950.769,-215.8016 918.4537,-202.2583 891.5,-188 827.1698,-153.9698 755.8458,-106.0026 720.6458,-81.5911"/>
<polygon fill="#191970" stroke="#191970" points="722.3105,-78.4851 712.1054,-75.6378 718.3075,-84.2277 722.3105,-78.4851"/>
</g>
<!-- Node16 -->
<g id="node17" class="node">
<title>Node16</title>
<g id="a_node17"><a xlink:href="../../d4/de4/IrregularSpline1D_8h.html" target="_top" xlink:title="Definition of IrregularSpline1D class. ">
<polygon fill="none" stroke="#000000" points="1022.5,-168.5 1022.5,-187.5 1132.5,-187.5 1132.5,-168.5 1022.5,-168.5"/>
<text text-anchor="middle" x="1077.5" y="-175.5" font-family="Helvetica,sans-Serif" font-size="10.00" fill="#000000">IrregularSpline1D.h</text>
</a>
</g>
</g>
<!-- Node15&#45;&gt;Node16 -->
<g id="edge18" class="edge">
<title>Node15&#45;&gt;Node16</title>
<path fill="none" stroke="#191970" d="M1011.4349,-224.2455C1023.5947,-215.7337 1041.4464,-203.2375 1055.5285,-193.3801"/>
<polygon fill="#191970" stroke="#191970" points="1057.5395,-196.2447 1063.7248,-187.6427 1053.5253,-190.51 1057.5395,-196.2447"/>
</g>
<!-- Node16&#45;&gt;Node3 -->
<g id="edge20" class="edge">
<title>Node16&#45;&gt;Node3</title>
<path fill="none" stroke="#191970" d="M1099.1602,-168.3733C1119.4772,-159.3435 1150.064,-145.7494 1172.875,-135.6111"/>
<polygon fill="#191970" stroke="#191970" points="1174.4059,-138.7609 1182.1225,-131.5011 1171.5628,-132.3642 1174.4059,-138.7609"/>
</g>
<!-- Node16&#45;&gt;Node4 -->
<g id="edge21" class="edge">
<title>Node16&#45;&gt;Node4</title>
<path fill="none" stroke="#191970" d="M1077.9263,-168.4509C1078.7418,-150.184 1080.5377,-109.9553 1081.6206,-85.6976"/>
<polygon fill="#191970" stroke="#191970" points="1085.1252,-85.6711 1082.0748,-75.5249 1078.1322,-85.3588 1085.1252,-85.6711"/>
</g>
<!-- Node16&#45;&gt;Node5 -->
<g id="edge22" class="edge">
<title>Node16&#45;&gt;Node5</title>
<path fill="none" stroke="#191970" d="M1071.6171,-168.4509C1060.1087,-149.7707 1034.4512,-108.1238 1019.6362,-84.0761"/>
<polygon fill="#191970" stroke="#191970" points="1022.5932,-82.203 1014.368,-75.5249 1016.6334,-85.8747 1022.5932,-82.203"/>
</g>
<!-- Node16&#45;&gt;Node6 -->
<g id="edge23" class="edge">
<title>Node16&#45;&gt;Node6</title>
<path fill="none" stroke="#191970" d="M1083.8945,-168.4509C1096.4036,-149.7707 1124.2921,-108.1238 1140.3954,-84.0761"/>
<polygon fill="#191970" stroke="#191970" points="1143.4658,-85.7814 1146.1217,-75.5249 1137.6494,-81.8865 1143.4658,-85.7814"/>
</g>
<!-- Node16&#45;&gt;Node8 -->
<g id="edge19" class="edge">
<title>Node16&#45;&gt;Node8</title>
<path fill="none" stroke="#191970" d="M1062.5246,-168.3164C1039.4249,-153.8284 993.2849,-126.6507 950.5,-112 888.3743,-90.7265 814.0798,-78.6902 762.3219,-72.3126"/>
<polygon fill="#191970" stroke="#191970" points="762.626,-68.8241 752.281,-71.1115 761.7945,-75.7746 762.626,-68.8241"/>
</g>
<!-- Node17&#45;&gt;Node8 -->
<g id="edge30" class="edge">
<title>Node17&#45;&gt;Node8</title>
<path fill="none" stroke="#191970" d="M517.1474,-112.3733C554.352,-102.8598 611.3703,-88.2797 651.5216,-78.0127"/>
<polygon fill="#191970" stroke="#191970" points="652.5227,-81.3695 661.3438,-75.5011 650.7884,-74.5877 652.5227,-81.3695"/>
</g>
<!-- Node18 -->
<g id="node19" class="node">
<title>Node18</title>
<polygon fill="none" stroke="#bfbfbf" points="493,-56.5 493,-75.5 540,-75.5 540,-56.5 493,-56.5"/>
<text text-anchor="middle" x="516.5" y="-63.5" font-family="Helvetica,sans-Serif" font-size="10.00" fill="#000000">cmath</text>
</g>
<!-- Node17&#45;&gt;Node18 -->
<g id="edge31" class="edge">
<title>Node17&#45;&gt;Node18</title>
<path fill="none" stroke="#191970" d="M485.9449,-112.2455C491.0382,-104.5367 498.2908,-93.5598 504.452,-84.2348"/>
<polygon fill="#191970" stroke="#191970" points="507.5365,-85.9155 510.1289,-75.6427 501.6962,-82.0566 507.5365,-85.9155"/>
</g>
<!-- Node19 -->
<g id="node20" class="node">
<title>Node19</title>
<polygon fill="none" stroke="#bfbfbf" points="410.5,-56.5 410.5,-75.5 474.5,-75.5 474.5,-56.5 410.5,-56.5"/>
<text text-anchor="middle" x="442.5" y="-63.5" font-family="Helvetica,sans-Serif" font-size="10.00" fill="#000000">algorithm</text>
</g>
<!-- Node17&#45;&gt;Node19 -->
<g id="edge32" class="edge">
<title>Node17&#45;&gt;Node19</title>
<path fill="none" stroke="#191970" d="M473.0551,-112.2455C467.9618,-104.5367 460.7092,-93.5598 454.548,-84.2348"/>
<polygon fill="#191970" stroke="#191970" points="457.3038,-82.0566 448.8711,-75.6427 451.4635,-85.9155 457.3038,-82.0566"/>
</g>
<!-- Node21&#45;&gt;Node5 -->
<g id="edge35" class="edge">
<title>Node21&#45;&gt;Node5</title>
<path fill="none" stroke="#191970" d="M957.2745,-168.4509C966.532,-149.936 987.0705,-108.8591 999.1407,-84.7187"/>
<polygon fill="#191970" stroke="#191970" points="1002.3959,-86.0344 1003.7376,-75.5249 996.1349,-82.9039 1002.3959,-86.0344"/>
</g>
<!-- Node21&#45;&gt;Node8 -->
<g id="edge36" class="edge">
<title>Node21&#45;&gt;Node8</title>
<path fill="none" stroke="#191970" d="M951.8626,-168.2685C950.3616,-153.7179 945.3324,-126.4594 928.5,-112 903.972,-90.9299 821.3614,-78.2989 762.1721,-71.7453"/>
<polygon fill="#191970" stroke="#191970" points="762.4673,-68.2569 752.1505,-70.6684 761.7193,-75.2168 762.4673,-68.2569"/>
</g>
<!-- Node22 -->
<g id="node23" class="node">
<title>Node22</title>
<g id="a_node23"><a xlink:href="../../d4/dc5/GPUDataTypes_8h.html" target="_top" xlink:title="GPUDataTypes.h">
<polygon fill="none" stroke="#000000" points="821.5,-112.5 821.5,-131.5 919.5,-131.5 919.5,-112.5 821.5,-112.5"/>
<text text-anchor="middle" x="870.5" y="-119.5" font-family="Helvetica,sans-Serif" font-size="10.00" fill="#000000">GPUDataTypes.h</text>
</a>
</g>
</g>
<!-- Node21&#45;&gt;Node22 -->
<g id="edge37" class="edge">
<title>Node21&#45;&gt;Node22</title>
<path fill="none" stroke="#191970" d="M938.2167,-168.2455C925.753,-159.7337 907.4549,-147.2375 893.0208,-137.3801"/>
<polygon fill="#191970" stroke="#191970" points="894.8515,-134.392 884.6196,-131.6427 890.9038,-140.1726 894.8515,-134.392"/>
</g>
<!-- Node22&#45;&gt;Node4 -->
<g id="edge39" class="edge">
<title>Node22&#45;&gt;Node4</title>
<path fill="none" stroke="#191970" d="M907.6262,-112.4725C941.2565,-103.8029 992.4183,-90.5169 1046.0855,-76.0837"/>
<polygon fill="#191970" stroke="#191970" points="1047.0313,-79.4538 1055.7761,-73.4723 1045.2098,-72.6949 1047.0313,-79.4538"/>
</g>
<!-- Node22&#45;&gt;Node8 -->
<g id="edge38" class="edge">
<title>Node22&#45;&gt;Node8</title>
<path fill="none" stroke="#191970" d="M840.9321,-112.3733C812.3312,-103.0613 768.8212,-88.8953 737.4181,-78.671"/>
<polygon fill="#191970" stroke="#191970" points="738.2743,-75.269 727.682,-75.5011 736.1072,-81.9251 738.2743,-75.269"/>
</g>
<!-- Node23&#45;&gt;Node5 -->
<g id="edge41" class="edge">
<title>Node23&#45;&gt;Node5</title>
<path fill="none" stroke="#191970" d="M481.4073,-224.481C521.8546,-216.7088 577.8734,-204.3431 625.5,-188 701.4858,-161.9254 713.2556,-137.3085 789.5,-112 850.7734,-91.661 924.7783,-78.3443 969.1669,-71.5033"/>
<polygon fill="#191970" stroke="#191970" points="969.8836,-74.9349 979.2498,-69.9826 968.8396,-68.0132 969.8836,-74.9349"/>
</g>
<!-- Node23&#45;&gt;Node22 -->
<g id="edge55" class="edge">
<title>Node23&#45;&gt;Node22</title>
<path fill="none" stroke="#191970" d="M511.0411,-228.3192C573.803,-222.4439 660.8987,-210.7703 734.5,-188 775.3637,-175.3578 819.3203,-152.0612 845.8682,-136.8008"/>
<polygon fill="#191970" stroke="#191970" points="847.9492,-139.6389 854.8233,-131.5768 844.422,-133.5925 847.9492,-139.6389"/>
</g>
<!-- Node24 -->
<g id="node25" class="node">
<title>Node24</title>
<polygon fill="none" stroke="#bfbfbf" points="287.5,-168.5 287.5,-187.5 329.5,-187.5 329.5,-168.5 287.5,-168.5"/>
<text text-anchor="middle" x="308.5" y="-175.5" font-family="Helvetica,sans-Serif" font-size="10.00" fill="#000000">array</text>
</g>
<!-- Node23&#45;&gt;Node24 -->
<g id="edge42" class="edge">
<title>Node23&#45;&gt;Node24</title>
<path fill="none" stroke="#191970" d="M406.2151,-224.3733C387.3579,-215.4241 359.054,-201.9917 337.7545,-191.8835"/>
<polygon fill="#191970" stroke="#191970" points="339.0551,-188.6266 328.5202,-187.5011 336.0539,-194.9506 339.0551,-188.6266"/>
</g>
<!-- Node25 -->
<g id="node26" class="node">
<title>Node25</title>
<polygon fill="none" stroke="#bfbfbf" points="0,-56.5 0,-75.5 47,-75.5 47,-56.5 0,-56.5"/>
<text text-anchor="middle" x="23.5" y="-63.5" font-family="Helvetica,sans-Serif" font-size="10.00" fill="#000000">vector</text>
</g>
<!-- Node23&#45;&gt;Node25 -->
<g id="edge43" class="edge">
<title>Node23&#45;&gt;Node25</title>
<path fill="none" stroke="#191970" d="M341.8449,-229.2261C235.3175,-222.4064 63.6345,-208.4019 42.5,-188 15.1059,-161.5556 16.5794,-113.0742 20.0493,-85.8674"/>
<polygon fill="#191970" stroke="#191970" points="23.5617,-86.044 21.5802,-75.6361 16.6388,-85.008 23.5617,-86.044"/>
</g>
<!-- Node26 -->
<g id="node27" class="node">
<title>Node26</title>
<g id="a_node27"><a xlink:href="../../dd/dc6/GPUSettings_8h.html" target="_top" xlink:title="GPUSettings.h">
<polygon fill="none" stroke="#000000" points="183.5,-168.5 183.5,-187.5 269.5,-187.5 269.5,-168.5 183.5,-168.5"/>
<text text-anchor="middle" x="226.5" y="-175.5" font-family="Helvetica,sans-Serif" font-size="10.00" fill="#000000">GPUSettings.h</text>
</a>
</g>
</g>
<!-- Node23&#45;&gt;Node26 -->
<g id="edge44" class="edge">
<title>Node23&#45;&gt;Node26</title>
<path fill="none" stroke="#191970" d="M392.1188,-224.3733C358.4299,-214.9404 306.9518,-200.5265 270.3382,-190.2747"/>
<polygon fill="#191970" stroke="#191970" points="271.006,-186.8271 260.4326,-187.5011 269.1185,-193.5679 271.006,-186.8271"/>
</g>
<!-- Node27 -->
<g id="node28" class="node">
<title>Node27</title>
<g id="a_node28"><a xlink:href="../../d4/d50/GPUDisplayConfig_8h.html" target="_top" xlink:title="GPUDisplayConfig.h">
<polygon fill="none" stroke="#000000" points="51.5,-168.5 51.5,-187.5 165.5,-187.5 165.5,-168.5 51.5,-168.5"/>
<text text-anchor="middle" x="108.5" y="-175.5" font-family="Helvetica,sans-Serif" font-size="10.00" fill="#000000">GPUDisplayConfig.h</text>
</a>
</g>
</g>
<!-- Node23&#45;&gt;Node27 -->
<g id="edge46" class="edge">
<title>Node23&#45;&gt;Node27</title>
<path fill="none" stroke="#191970" d="M372.1952,-224.4369C316.8573,-214.6918 231.0617,-199.5832 172.4661,-189.2645"/>
<polygon fill="#191970" stroke="#191970" points="173.0363,-185.8111 162.5808,-187.5237 171.8223,-192.705 173.0363,-185.8111"/>
</g>
<!-- Node30 -->
<g id="node31" class="node">
<title>Node30</title>
<g id="a_node31"><a xlink:href="../../d8/d93/GPUQAConfig_8h.html" target="_top" xlink:title="GPUQAConfig.h">
<polygon fill="none" stroke="#000000" points="524.5,-168.5 524.5,-187.5 616.5,-187.5 616.5,-168.5 524.5,-168.5"/>
<text text-anchor="middle" x="570.5" y="-175.5" font-family="Helvetica,sans-Serif" font-size="10.00" fill="#000000">GPUQAConfig.h</text>
</a>
</g>
</g>
<!-- Node23&#45;&gt;Node30 -->
<g id="edge52" class="edge">
<title>Node23&#45;&gt;Node30</title>
<path fill="none" stroke="#191970" d="M451.2545,-224.3733C474.7849,-215.2226 510.3687,-201.3844 536.5426,-191.2057"/>
<polygon fill="#191970" stroke="#191970" points="538.0171,-194.3877 546.0685,-187.5011 535.4799,-187.8636 538.0171,-194.3877"/>
</g>
<!-- Node31 -->
<g id="node32" class="node">
<title>Node31</title>
<g id="a_node32"><a xlink:href="../../d0/dda/DataFormats_2Detectors_2TPC_2include_2DataFormatsTPC_2Constants_8h.html" target="_top" xlink:title="DataFormatsTPC/Constants.h">
<polygon fill="none" stroke="#000000" points="347,-168.5 347,-187.5 506,-187.5 506,-168.5 347,-168.5"/>
<text text-anchor="middle" x="426.5" y="-175.5" font-family="Helvetica,sans-Serif" font-size="10.00" fill="#000000">DataFormatsTPC/Constants.h</text>
</a>
</g>
</g>
<!-- Node23&#45;&gt;Node31 -->
<g id="edge56" class="edge">
<title>Node23&#45;&gt;Node31</title>
<path fill="none" stroke="#191970" d="M426.5,-224.2455C426.5,-216.9382 426.5,-206.6944 426.5,-197.7046"/>
<polygon fill="#191970" stroke="#191970" points="430.0001,-197.6426 426.5,-187.6427 423.0001,-197.6427 430.0001,-197.6426"/>
</g>
<!-- Node26&#45;&gt;Node17 -->
<g id="edge45" class="edge">
<title>Node26&#45;&gt;Node17</title>
<path fill="none" stroke="#191970" d="M269.7048,-168.4369C313.0947,-158.8328 380.0209,-144.0191 426.5726,-133.7152"/>
<polygon fill="#191970" stroke="#191970" points="427.4662,-137.1022 436.4734,-131.5237 425.9533,-130.2676 427.4662,-137.1022"/>
</g>
<!-- Node27&#45;&gt;Node8 -->
<g id="edge47" class="edge">
<title>Node27&#45;&gt;Node8</title>
<path fill="none" stroke="#191970" d="M165.7115,-169.1396C168.6818,-168.7397 171.6248,-168.3571 174.5,-168 338.9005,-147.584 385.0688,-173.3058 545.5,-132 592.0135,-120.0243 642.5497,-95.821 672.3258,-80.288"/>
<polygon fill="#191970" stroke="#191970" points="674.03,-83.3461 681.2325,-75.576 670.7565,-77.1587 674.03,-83.3461"/>
</g>
<!-- Node28 -->
<g id="node29" class="node">
<title>Node28</title>
<g id="a_node29"><a xlink:href="../../da/d08/qconfig_8h.html" target="_top" xlink:title="utils/qconfig.h">
<polygon fill="none" stroke="#000000" points="69,-112.5 69,-131.5 154,-131.5 154,-112.5 69,-112.5"/>
<text text-anchor="middle" x="111.5" y="-119.5" font-family="Helvetica,sans-Serif" font-size="10.00" fill="#000000">utils/qconfig.h</text>
</a>
</g>
</g>
<!-- Node27&#45;&gt;Node28 -->
<g id="edge48" class="edge">
<title>Node27&#45;&gt;Node28</title>
<path fill="none" stroke="#191970" d="M109.0226,-168.2455C109.414,-160.9382 109.9628,-150.6944 110.4444,-141.7046"/>
<polygon fill="#191970" stroke="#191970" points="113.9434,-141.8156 110.9834,-131.6427 106.9534,-141.4411 113.9434,-141.8156"/>
</g>
<!-- Node28&#45;&gt;Node25 -->
<g id="edge49" class="edge">
<title>Node28&#45;&gt;Node25</title>
<path fill="none" stroke="#191970" d="M96.1716,-112.2455C82.6697,-103.6534 62.7878,-91.0014 47.2314,-81.1018"/>
<polygon fill="#191970" stroke="#191970" points="48.9685,-78.0587 38.6528,-75.6427 45.2103,-83.9643 48.9685,-78.0587"/>
</g>
<!-- Node28&#45;&gt;Node28 -->
<g id="edge51" class="edge">
<title>Node28&#45;&gt;Node28</title>
<path fill="none" stroke="#191970" d="M137.3034,-131.5252C154.8361,-134.3079 172,-131.1328 172,-122 172,-114.6509 160.886,-111.1596 147.4091,-111.5261"/>
<polygon fill="#191970" stroke="#191970" points="146.9324,-108.0554 137.3034,-112.4748 147.5867,-115.0247 146.9324,-108.0554"/>
</g>
<!-- Node29 -->
<g id="node30" class="node">
<title>Node29</title>
<g id="a_node30"><a xlink:href="../../d8/de9/qconfigoptions_8h.html" target="_top" xlink:title="qconfigoptions.h">
<polygon fill="none" stroke="#000000" points="65,-56.5 65,-75.5 162,-75.5 162,-56.5 65,-56.5"/>
<text text-anchor="middle" x="113.5" y="-63.5" font-family="Helvetica,sans-Serif" font-size="10.00" fill="#000000">qconfigoptions.h</text>
</a>
</g>
</g>
<!-- Node28&#45;&gt;Node29 -->
<g id="edge50" class="edge">
<title>Node28&#45;&gt;Node29</title>
<path fill="none" stroke="#191970" d="M111.8484,-112.2455C112.1093,-104.9382 112.4752,-94.6944 112.7963,-85.7046"/>
<polygon fill="#191970" stroke="#191970" points="116.2964,-85.7613 113.1556,-75.6427 109.3008,-85.5113 116.2964,-85.7613"/>
</g>
<!-- Node30&#45;&gt;Node8 -->
<g id="edge53" class="edge">
<title>Node30&#45;&gt;Node8</title>
<path fill="none" stroke="#191970" d="M577.491,-168.2826C587.5604,-154.6956 607.1802,-129.7022 627.5,-112 641.2174,-100.0497 658.2826,-88.8944 672.2444,-80.5627"/>
<polygon fill="#191970" stroke="#191970" points="674.0274,-83.5746 680.9048,-75.5152 670.5026,-77.5268 674.0274,-83.5746"/>
</g>
<!-- Node30&#45;&gt;Node28 -->
<g id="edge54" class="edge">
<title>Node30&#45;&gt;Node28</title>
<path fill="none" stroke="#191970" d="M524.3927,-169.529C521.0487,-168.9876 517.7248,-168.4715 514.5,-168 389.5549,-149.7319 241.9205,-134.4865 164.6848,-126.9923"/>
<polygon fill="#191970" stroke="#191970" points="164.5533,-123.4634 154.2634,-125.9867 163.881,-130.431 164.5533,-123.4634"/>
</g>
</g>
</svg>
