<?xml version="1.0" encoding="UTF-8" standalone="no"?>
<!DOCTYPE svg PUBLIC "-//W3C//DTD SVG 1.1//EN"
 "http://www.w3.org/Graphics/SVG/1.1/DTD/svg11.dtd">
<!-- Generated by graphviz version 2.40.1 (20161225.0304)
 -->
<!-- Title: o2::utils::TreeStream::TreeDataElement Pages: 1 -->
<svg width="235pt" height="182pt"
 viewBox="0.00 0.00 235.00 182.00" xmlns="http://www.w3.org/2000/svg" xmlns:xlink="http://www.w3.org/1999/xlink">
<g id="graph0" class="graph" transform="scale(1 1) rotate(0) translate(4 178)">
<title>o2::utils::TreeStream::TreeDataElement</title>
<!-- Node1 -->
<g id="node1" class="node">
<title>Node1</title>
<polygon fill="#bfbfbf" stroke="#000000" points="50.5,-.5 50.5,-68.5 167.5,-68.5 167.5,-.5 50.5,-.5"/>
<text text-anchor="start" x="58.5" y="-56.5" font-family="Helvetica,sans-Serif" font-size="10.00" fill="#000000">o2::utils::TreeStream</text>
<text text-anchor="middle" x="109" y="-45.5" font-family="Helvetica,sans-Serif" font-size="10.00" fill="#000000">::TreeDataElement</text>
<polyline fill="none" stroke="#000000" points="50.5,-38.5 167.5,-38.5 "/>
<text text-anchor="middle" x="109" y="-26.5" font-family="Helvetica,sans-Serif" font-size="10.00" fill="#000000"> </text>
<polyline fill="none" stroke="#000000" points="50.5,-19.5 167.5,-19.5 "/>
<text text-anchor="middle" x="109" y="-7.5" font-family="Helvetica,sans-Serif" font-size="10.00" fill="#000000"> </text>
</g>
<!-- Node2 -->
<g id="node2" class="node">
<title>Node2</title>
<polygon fill="none" stroke="#bfbfbf" points="0,-116.5 0,-173.5 38,-173.5 38,-116.5 0,-116.5"/>
<text text-anchor="middle" x="19" y="-161.5" font-family="Helvetica,sans-Serif" font-size="10.00" fill="#000000">char</text>
<polyline fill="none" stroke="#bfbfbf" points="0,-154.5 38,-154.5 "/>
<text text-anchor="middle" x="19" y="-142.5" font-family="Helvetica,sans-Serif" font-size="10.00" fill="#000000"> </text>
<polyline fill="none" stroke="#bfbfbf" points="0,-135.5 38,-135.5 "/>
<text text-anchor="middle" x="19" y="-123.5" font-family="Helvetica,sans-Serif" font-size="10.00" fill="#000000"> </text>
</g>
<!-- Node2&#45;&gt;Node1 -->
<g id="edge1" class="edge">
<title>Node2&#45;&gt;Node1</title>
<path fill="none" stroke="#404040" d="M24.6578,-116.2065C27.5415,-106.3203 31.7975,-95.5909 38,-87 40.4524,-83.6033 43.1902,-80.3335 46.1247,-77.2023"/>
<polygon fill="none" stroke="#404040" points="46.2243,-77.1058 47.749,-70.0577 54.8414,-68.7543 53.3167,-75.8024 46.2243,-77.1058"/>
<text text-anchor="middle" x="55" y="-90" font-family="Helvetica,sans-Serif" font-size="10.00" fill="#000000"> +type</text>
</g>
<!-- Node3 -->
<g id="node3" class="node">
<title>Node3</title>
<polygon fill="none" stroke="#bfbfbf" points="56,-116.5 56,-173.5 100,-173.5 100,-116.5 56,-116.5"/>
<text text-anchor="middle" x="78" y="-161.5" font-family="Helvetica,sans-Serif" font-size="10.00" fill="#000000">string</text>
<polyline fill="none" stroke="#bfbfbf" points="56,-154.5 100,-154.5 "/>
<text text-anchor="middle" x="78" y="-142.5" font-family="Helvetica,sans-Serif" font-size="10.00" fill="#000000"> </text>
<polyline fill="none" stroke="#bfbfbf" points="56,-135.5 100,-135.5 "/>
<text text-anchor="middle" x="78" y="-123.5" font-family="Helvetica,sans-Serif" font-size="10.00" fill="#000000"> </text>
</g>
<!-- Node3&#45;&gt;Node1 -->
<g id="edge2" class="edge">
<title>Node3&#45;&gt;Node1</title>
<path fill="none" stroke="#404040" d="M75.6813,-116.2763C75.6569,-106.8094 76.4381,-96.3225 79,-87 79.6628,-84.588 80.4622,-82.1702 81.3669,-79.7685"/>
<polygon fill="none" stroke="#404040" points="81.3956,-79.7035 80.166,-72.598 86.252,-68.7301 87.4816,-75.8356 81.3956,-79.7035"/>
<text text-anchor="middle" x="99" y="-90" font-family="Helvetica,sans-Serif" font-size="10.00" fill="#000000"> +name</text>
</g>
<!-- Node4 -->
<g id="node4" class="node">
<title>Node4</title>
<polygon fill="none" stroke="#bfbfbf" points="119.5,-116.5 119.5,-173.5 162.5,-173.5 162.5,-116.5 119.5,-116.5"/>
<text text-anchor="middle" x="141" y="-161.5" font-family="Helvetica,sans-Serif" font-size="10.00" fill="#000000">const</text>
<polyline fill="none" stroke="#bfbfbf" points="119.5,-154.5 162.5,-154.5 "/>
<text text-anchor="middle" x="141" y="-142.5" font-family="Helvetica,sans-Serif" font-size="10.00" fill="#000000"> </text>
<polyline fill="none" stroke="#bfbfbf" points="119.5,-135.5 162.5,-135.5 "/>
<text text-anchor="middle" x="141" y="-123.5" font-family="Helvetica,sans-Serif" font-size="10.00" fill="#000000"> </text>
</g>
<!-- Node4&#45;&gt;Node1 -->
<g id="edge3" class="edge">
<title>Node4&#45;&gt;Node1</title>
<path fill="none" stroke="#404040" d="M132.6759,-116.2559C129.5093,-105.321 125.8169,-92.5708 122.3032,-80.4376"/>
<polygon fill="none" stroke="#404040" points="122.2132,-80.1265 116.702,-75.4759 118.8751,-68.6001 124.3863,-73.2506 122.2132,-80.1265"/>
<text text-anchor="middle" x="138.5" y="-90" font-family="Helvetica,sans-Serif" font-size="10.00" fill="#000000"> +cls</text>
</g>
<!-- Node5 -->
<g id="node5" class="node">
<title>Node5</title>
<polygon fill="none" stroke="#bfbfbf" points="181,-116.5 181,-173.5 227,-173.5 227,-116.5 181,-116.5"/>
<text text-anchor="middle" x="204" y="-161.5" font-family="Helvetica,sans-Serif" font-size="10.00" fill="#000000">void *</text>
<polyline fill="none" stroke="#bfbfbf" points="181,-154.5 227,-154.5 "/>
<text text-anchor="middle" x="204" y="-142.5" font-family="Helvetica,sans-Serif" font-size="10.00" fill="#000000"> </text>
<polyline fill="none" stroke="#bfbfbf" points="181,-135.5 227,-135.5 "/>
<text text-anchor="middle" x="204" y="-123.5" font-family="Helvetica,sans-Serif" font-size="10.00" fill="#000000"> </text>
</g>
<!-- Node5&#45;&gt;Node1 -->
<g id="edge4" class="edge">
<title>Node5&#45;&gt;Node1</title>
<path fill="none" stroke="#404040" d="M180.92,-117.4752C172.7677,-107.8077 163.5114,-96.8925 155,-87 152.4313,-84.0145 149.7734,-80.9409 147.0904,-77.8496"/>
<polygon fill="none" stroke="#404040" points="146.9107,-77.6432 139.9538,-75.7453 139.03,-68.5936 145.9869,-70.4915 146.9107,-77.6432"/>
<text text-anchor="middle" x="175.5" y="-90" font-family="Helvetica,sans-Serif" font-size="10.00" fill="#000000"> +ptr</text>
</g>
</g>
</svg>
