<?xml version="1.0" encoding="UTF-8" standalone="no"?>
<!DOCTYPE svg PUBLIC "-//W3C//DTD SVG 1.1//EN"
 "http://www.w3.org/Graphics/SVG/1.1/DTD/svg11.dtd">
<!-- Generated by graphviz version 2.40.1 (20161225.0304)
 -->
<!-- Title: /home/travis/build/AliceO2Group/AliceO2/CCDB/src/CcdbApi.cxx Pages: 1 -->
<svg width="2279pt" height="162pt"
 viewBox="0.00 0.00 2279.00 162.00" xmlns="http://www.w3.org/2000/svg" xmlns:xlink="http://www.w3.org/1999/xlink">
<g id="graph0" class="graph" transform="scale(1 1) rotate(0) translate(4 158)">
<title>/home/travis/build/AliceO2Group/AliceO2/CCDB/src/CcdbApi.cxx</title>
<!-- Node0 -->
<g id="node1" class="node">
<title>Node0</title>
<polygon fill="#bfbfbf" stroke="#000000" points="1137,-112.5 1137,-153.5 1265,-153.5 1265,-112.5 1137,-112.5"/>
<text text-anchor="start" x="1145" y="-141.5" font-family="Helvetica,sans-Serif" font-size="10.00" fill="#000000">/home/travis/build</text>
<text text-anchor="start" x="1145" y="-130.5" font-family="Helvetica,sans-Serif" font-size="10.00" fill="#000000">/AliceO2Group/AliceO2</text>
<text text-anchor="middle" x="1201" y="-119.5" font-family="Helvetica,sans-Serif" font-size="10.00" fill="#000000">/CCDB/src/CcdbApi.cxx</text>
</g>
<!-- Node1 -->
<g id="node2" class="node">
<title>Node1</title>
<g id="a_node2"><a xlink:href="../../dd/d3e/CcdbApi_8h.html" target="_top" xlink:title="CCDB/CcdbApi.h">
<polygon fill="none" stroke="#000000" points="222,-56.5 222,-75.5 318,-75.5 318,-56.5 222,-56.5"/>
<text text-anchor="middle" x="270" y="-63.5" font-family="Helvetica,sans-Serif" font-size="10.00" fill="#000000">CCDB/CcdbApi.h</text>
</a>
</g>
</g>
<!-- Node0&#45;&gt;Node1 -->
<g id="edge1" class="edge">
<title>Node0&#45;&gt;Node1</title>
<path fill="none" stroke="#191970" d="M1136.8118,-128.6413C1000.4035,-119.3373 671.585,-96.6923 396,-76 373.9041,-74.3409 349.6358,-72.4348 328.3466,-70.7347"/>
<polygon fill="#191970" stroke="#191970" points="328.4049,-67.2283 318.1574,-69.9186 327.846,-74.2059 328.4049,-67.2283"/>
</g>
<!-- Node8 -->
<g id="node9" class="node">
<title>Node8</title>
<polygon fill="none" stroke="#bfbfbf" points="437,-.5 437,-19.5 511,-19.5 511,-.5 437,-.5"/>
<text text-anchor="middle" x="474" y="-7.5" font-family="Helvetica,sans-Serif" font-size="10.00" fill="#000000">TMessage.h</text>
</g>
<!-- Node0&#45;&gt;Node8 -->
<g id="edge11" class="edge">
<title>Node0&#45;&gt;Node8</title>
<path fill="none" stroke="#191970" d="M1136.8597,-130.6188C955.9173,-123.593 452.9808,-101.8167 429,-76 414.5622,-60.4569 433.4457,-39.9238 450.9842,-25.9136"/>
<polygon fill="#191970" stroke="#191970" points="453.4616,-28.4288 459.3341,-19.6104 449.2441,-22.8419 453.4616,-28.4288"/>
</g>
<!-- Node9 -->
<g id="node10" class="node">
<title>Node9</title>
<polygon fill="none" stroke="#bfbfbf" points="438,-56.5 438,-75.5 482,-75.5 482,-56.5 438,-56.5"/>
<text text-anchor="middle" x="460" y="-63.5" font-family="Helvetica,sans-Serif" font-size="10.00" fill="#000000">regex</text>
</g>
<!-- Node0&#45;&gt;Node9 -->
<g id="edge9" class="edge">
<title>Node0&#45;&gt;Node9</title>
<path fill="none" stroke="#191970" d="M1136.7459,-129.7536C989.7979,-122.0275 631.7822,-101.4175 492.2463,-75.773"/>
<polygon fill="#191970" stroke="#191970" points="492.6689,-72.2902 482.1878,-73.8384 491.3468,-79.1643 492.6689,-72.2902"/>
</g>
<!-- Node10 -->
<g id="node11" class="node">
<title>Node10</title>
<polygon fill="none" stroke="#bfbfbf" points="500,-56.5 500,-75.5 550,-75.5 550,-56.5 500,-56.5"/>
<text text-anchor="middle" x="525" y="-63.5" font-family="Helvetica,sans-Serif" font-size="10.00" fill="#000000">chrono</text>
</g>
<!-- Node0&#45;&gt;Node10 -->
<g id="edge10" class="edge">
<title>Node0&#45;&gt;Node10</title>
<path fill="none" stroke="#191970" d="M1136.6389,-131.4817C1022.1076,-127.8665 775.4972,-115.9568 560.0278,-75.857"/>
<polygon fill="#191970" stroke="#191970" points="560.591,-72.4016 550.1156,-73.988 559.2939,-79.2804 560.591,-72.4016"/>
</g>
<!-- Node11 -->
<g id="node12" class="node">
<title>Node11</title>
<polygon fill="none" stroke="#bfbfbf" points="568,-56.5 568,-75.5 624,-75.5 624,-56.5 568,-56.5"/>
<text text-anchor="middle" x="596" y="-63.5" font-family="Helvetica,sans-Serif" font-size="10.00" fill="#000000">sstream</text>
</g>
<!-- Node0&#45;&gt;Node11 -->
<g id="edge12" class="edge">
<title>Node0&#45;&gt;Node11</title>
<path fill="none" stroke="#191970" d="M1136.6318,-129.9826C1032.6781,-124.3553 821.4013,-109.797 634.1974,-75.96"/>
<polygon fill="#191970" stroke="#191970" points="634.6393,-72.4828 624.1726,-74.1251 633.379,-79.3684 634.6393,-72.4828"/>
</g>
<!-- Node12 -->
<g id="node13" class="node">
<title>Node12</title>
<g id="a_node13"><a xlink:href="../../d4/d8f/StringUtils_8h.html" target="_top" xlink:title="CommonUtils/StringUtils.h">
<polygon fill="none" stroke="#000000" points="642,-56.5 642,-75.5 788,-75.5 788,-56.5 642,-56.5"/>
<text text-anchor="middle" x="715" y="-63.5" font-family="Helvetica,sans-Serif" font-size="10.00" fill="#000000">CommonUtils/StringUtils.h</text>
</a>
</g>
</g>
<!-- Node0&#45;&gt;Node12 -->
<g id="edge13" class="edge">
<title>Node0&#45;&gt;Node12</title>
<path fill="none" stroke="#191970" d="M1136.9642,-124.172C1048.7136,-112.0058 889.7972,-90.0976 794.1901,-76.9172"/>
<polygon fill="#191970" stroke="#191970" points="794.6678,-73.45 784.2835,-75.5514 793.7118,-80.3844 794.6678,-73.45"/>
</g>
<!-- Node13 -->
<g id="node14" class="node">
<title>Node13</title>
<polygon fill="none" stroke="#bfbfbf" points="806,-56.5 806,-75.5 854,-75.5 854,-56.5 806,-56.5"/>
<text text-anchor="middle" x="830" y="-63.5" font-family="Helvetica,sans-Serif" font-size="10.00" fill="#000000">TFile.h</text>
</g>
<!-- Node0&#45;&gt;Node13 -->
<g id="edge14" class="edge">
<title>Node0&#45;&gt;Node13</title>
<path fill="none" stroke="#191970" d="M1136.976,-124.6777C1070.8412,-115.5249 964.5543,-99.266 864.0718,-76.0207"/>
<polygon fill="#191970" stroke="#191970" points="864.5893,-72.5473 854.0546,-73.6753 862.9934,-79.363 864.5893,-72.5473"/>
</g>
<!-- Node14 -->
<g id="node15" class="node">
<title>Node14</title>
<polygon fill="none" stroke="#bfbfbf" points="872,-56.5 872,-75.5 940,-75.5 940,-56.5 872,-56.5"/>
<text text-anchor="middle" x="906" y="-63.5" font-family="Helvetica,sans-Serif" font-size="10.00" fill="#000000">TSystem.h</text>
</g>
<!-- Node0&#45;&gt;Node14 -->
<g id="edge15" class="edge">
<title>Node0&#45;&gt;Node14</title>
<path fill="none" stroke="#191970" d="M1136.9894,-118.462C1080.3925,-105.6078 999.3424,-87.1998 949.8254,-75.9536"/>
<polygon fill="#191970" stroke="#191970" points="950.5854,-72.5371 940.0586,-73.7353 949.035,-79.3633 950.5854,-72.5371"/>
</g>
<!-- Node15 -->
<g id="node16" class="node">
<title>Node15</title>
<polygon fill="none" stroke="#bfbfbf" points="958.5,-56.5 958.5,-75.5 1053.5,-75.5 1053.5,-56.5 958.5,-56.5"/>
<text text-anchor="middle" x="1006" y="-63.5" font-family="Helvetica,sans-Serif" font-size="10.00" fill="#000000">TStreamerInfo.h</text>
</g>
<!-- Node0&#45;&gt;Node15 -->
<g id="edge16" class="edge">
<title>Node0&#45;&gt;Node15</title>
<path fill="none" stroke="#191970" d="M1141.1684,-112.4425C1109.2611,-101.4795 1070.9938,-88.3312 1043.3335,-78.8274"/>
<polygon fill="#191970" stroke="#191970" points="1044.2488,-75.4411 1033.6541,-75.5017 1041.9742,-82.0613 1044.2488,-75.4411"/>
</g>
<!-- Node16 -->
<g id="node17" class="node">
<title>Node16</title>
<polygon fill="none" stroke="#bfbfbf" points="1072,-56.5 1072,-75.5 1144,-75.5 1144,-56.5 1072,-56.5"/>
<text text-anchor="middle" x="1108" y="-63.5" font-family="Helvetica,sans-Serif" font-size="10.00" fill="#000000">TMemFile.h</text>
</g>
<!-- Node0&#45;&gt;Node16 -->
<g id="edge17" class="edge">
<title>Node0&#45;&gt;Node16</title>
<path fill="none" stroke="#191970" d="M1172.3381,-112.3511C1158.5485,-102.4167 1142.2921,-90.7051 1129.5702,-81.5398"/>
<polygon fill="#191970" stroke="#191970" points="1131.5608,-78.6602 1121.4012,-75.6546 1127.469,-84.3398 1131.5608,-78.6602"/>
</g>
<!-- Node17 -->
<g id="node18" class="node">
<title>Node17</title>
<polygon fill="none" stroke="#bfbfbf" points="1162.5,-56.5 1162.5,-75.5 1239.5,-75.5 1239.5,-56.5 1162.5,-56.5"/>
<text text-anchor="middle" x="1201" y="-63.5" font-family="Helvetica,sans-Serif" font-size="10.00" fill="#000000">TBufferFile.h</text>
</g>
<!-- Node0&#45;&gt;Node17 -->
<g id="edge18" class="edge">
<title>Node0&#45;&gt;Node17</title>
<path fill="none" stroke="#191970" d="M1201,-112.168C1201,-103.8226 1201,-94.2471 1201,-85.9879"/>
<polygon fill="#191970" stroke="#191970" points="1204.5001,-85.7804 1201,-75.7805 1197.5001,-85.7805 1204.5001,-85.7804"/>
</g>
<!-- Node18 -->
<g id="node19" class="node">
<title>Node18</title>
<polygon fill="none" stroke="#bfbfbf" points="1257.5,-56.5 1257.5,-75.5 1326.5,-75.5 1326.5,-56.5 1257.5,-56.5"/>
<text text-anchor="middle" x="1292" y="-63.5" font-family="Helvetica,sans-Serif" font-size="10.00" fill="#000000">TWebFile.h</text>
</g>
<!-- Node0&#45;&gt;Node18 -->
<g id="edge19" class="edge">
<title>Node0&#45;&gt;Node18</title>
<path fill="none" stroke="#191970" d="M1229.2941,-112.168C1242.5611,-102.4001 1258.1168,-90.9469 1270.4156,-81.8918"/>
<polygon fill="#191970" stroke="#191970" points="1272.7384,-84.528 1278.7161,-75.7805 1268.5881,-78.891 1272.7384,-84.528"/>
</g>
<!-- Node19 -->
<g id="node20" class="node">
<title>Node19</title>
<polygon fill="none" stroke="#bfbfbf" points="1344.5,-56.5 1344.5,-75.5 1393.5,-75.5 1393.5,-56.5 1344.5,-56.5"/>
<text text-anchor="middle" x="1369" y="-63.5" font-family="Helvetica,sans-Serif" font-size="10.00" fill="#000000">TH1F.h</text>
</g>
<!-- Node0&#45;&gt;Node19 -->
<g id="edge20" class="edge">
<title>Node0&#45;&gt;Node19</title>
<path fill="none" stroke="#191970" d="M1252.7764,-112.3511C1279.6027,-101.6525 1311.5973,-88.8928 1335.2196,-79.472"/>
<polygon fill="#191970" stroke="#191970" points="1336.7993,-82.6101 1344.7914,-75.6546 1334.2062,-76.1081 1336.7993,-82.6101"/>
</g>
<!-- Node20 -->
<g id="node21" class="node">
<title>Node20</title>
<polygon fill="none" stroke="#bfbfbf" points="1412,-56.5 1412,-75.5 1464,-75.5 1464,-56.5 1412,-56.5"/>
<text text-anchor="middle" x="1438" y="-63.5" font-family="Helvetica,sans-Serif" font-size="10.00" fill="#000000">TTree.h</text>
</g>
<!-- Node0&#45;&gt;Node20 -->
<g id="edge21" class="edge">
<title>Node0&#45;&gt;Node20</title>
<path fill="none" stroke="#191970" d="M1265.152,-114.9555C1302.4614,-104.4477 1350.6486,-90.8535 1401.7209,-76.3578"/>
<polygon fill="#191970" stroke="#191970" points="1402.9656,-79.6428 1411.6294,-73.5445 1401.0536,-72.909 1402.9656,-79.6428"/>
</g>
<!-- Node21 -->
<g id="node22" class="node">
<title>Node21</title>
<polygon fill="none" stroke="#bfbfbf" points="1482.5,-56.5 1482.5,-75.5 1557.5,-75.5 1557.5,-56.5 1482.5,-56.5"/>
<text text-anchor="middle" x="1520" y="-63.5" font-family="Helvetica,sans-Serif" font-size="10.00" fill="#000000">FairLogger.h</text>
</g>
<!-- Node0&#45;&gt;Node21 -->
<g id="edge22" class="edge">
<title>Node0&#45;&gt;Node21</title>
<path fill="none" stroke="#191970" d="M1265.0371,-119.6383C1317.9028,-108.5943 1395.1805,-92.4201 1472.388,-76.1247"/>
<polygon fill="#191970" stroke="#191970" points="1473.2309,-79.524 1482.2921,-74.0336 1471.7848,-72.675 1473.2309,-79.524"/>
</g>
<!-- Node22 -->
<g id="node23" class="node">
<title>Node22</title>
<polygon fill="none" stroke="#bfbfbf" points="1576,-56.5 1576,-75.5 1630,-75.5 1630,-56.5 1576,-56.5"/>
<text text-anchor="middle" x="1603" y="-63.5" font-family="Helvetica,sans-Serif" font-size="10.00" fill="#000000">TError.h</text>
</g>
<!-- Node0&#45;&gt;Node22 -->
<g id="edge23" class="edge">
<title>Node0&#45;&gt;Node22</title>
<path fill="none" stroke="#191970" d="M1265.2186,-125.3015C1336.4786,-116.2428 1454.9876,-99.6477 1565.9339,-76.033"/>
<polygon fill="#191970" stroke="#191970" points="1566.9175,-79.4015 1575.9572,-73.8757 1565.4446,-72.5583 1566.9175,-79.4015"/>
</g>
<!-- Node23 -->
<g id="node24" class="node">
<title>Node23</title>
<polygon fill="none" stroke="#bfbfbf" points="1648.5,-56.5 1648.5,-75.5 1705.5,-75.5 1705.5,-56.5 1648.5,-56.5"/>
<text text-anchor="middle" x="1677" y="-63.5" font-family="Helvetica,sans-Serif" font-size="10.00" fill="#000000">TClass.h</text>
</g>
<!-- Node0&#45;&gt;Node23 -->
<g id="edge24" class="edge">
<title>Node0&#45;&gt;Node23</title>
<path fill="none" stroke="#191970" d="M1265.2471,-127.2368C1348.9753,-119.1489 1500.0172,-102.5873 1638.5081,-75.8712"/>
<polygon fill="#191970" stroke="#191970" points="1639.3121,-79.2804 1648.4567,-73.9301 1637.9715,-72.41 1639.3121,-79.2804"/>
</g>
<!-- Node24 -->
<g id="node25" class="node">
<title>Node24</title>
<g id="a_node25"><a xlink:href="../../da/d86/CCDBTimeStampUtils_8h.html" target="_top" xlink:title="CCDB/CCDBTimeStampUtils.h">
<polygon fill="none" stroke="#000000" points="1723.5,-56.5 1723.5,-75.5 1886.5,-75.5 1886.5,-56.5 1723.5,-56.5"/>
<text text-anchor="middle" x="1805" y="-63.5" font-family="Helvetica,sans-Serif" font-size="10.00" fill="#000000">CCDB/CCDBTimeStampUtils.h</text>
</a>
</g>
</g>
<!-- Node0&#45;&gt;Node24 -->
<g id="edge25" class="edge">
<title>Node0&#45;&gt;Node24</title>
<path fill="none" stroke="#191970" d="M1265.1063,-125.8954C1360.467,-115.326 1545.6259,-94.8 1713.0972,-76.2111"/>
<polygon fill="#191970" stroke="#191970" points="1713.5308,-79.6845 1723.0836,-75.1026 1712.7584,-72.7273 1713.5308,-79.6845"/>
</g>
<!-- Node25 -->
<g id="node26" class="node">
<title>Node25</title>
<polygon fill="none" stroke="#bfbfbf" points="1905,-56.5 1905,-75.5 1969,-75.5 1969,-56.5 1905,-56.5"/>
<text text-anchor="middle" x="1937" y="-63.5" font-family="Helvetica,sans-Serif" font-size="10.00" fill="#000000">algorithm</text>
</g>
<!-- Node0&#45;&gt;Node25 -->
<g id="edge26" class="edge">
<title>Node0&#45;&gt;Node25</title>
<path fill="none" stroke="#191970" d="M1265.1274,-131.1116C1386.4336,-126.8066 1657.8207,-113.6787 1894.6842,-75.983"/>
<polygon fill="#191970" stroke="#191970" points="1895.5523,-79.3884 1904.8688,-74.3434 1894.4396,-72.4773 1895.5523,-79.3884"/>
</g>
<!-- Node26 -->
<g id="node27" class="node">
<title>Node26</title>
<polygon fill="none" stroke="#bfbfbf" points="1987.5,-56.5 1987.5,-75.5 2106.5,-75.5 2106.5,-56.5 1987.5,-56.5"/>
<text text-anchor="middle" x="2047" y="-63.5" font-family="Helvetica,sans-Serif" font-size="10.00" fill="#000000">boost/filesystem.hpp</text>
</g>
<!-- Node0&#45;&gt;Node26 -->
<g id="edge27" class="edge">
<title>Node0&#45;&gt;Node26</title>
<path fill="none" stroke="#191970" d="M1265.0981,-129.8351C1396.5705,-123.0092 1706.4329,-105.2062 1977.1747,-76.0188"/>
<polygon fill="#191970" stroke="#191970" points="1977.6298,-79.4901 1987.1938,-74.9315 1976.8745,-72.5309 1977.6298,-79.4901"/>
</g>
<!-- Node27 -->
<g id="node28" class="node">
<title>Node27</title>
<polygon fill="none" stroke="#bfbfbf" points="2125,-56.5 2125,-75.5 2271,-75.5 2271,-56.5 2125,-56.5"/>
<text text-anchor="middle" x="2198" y="-63.5" font-family="Helvetica,sans-Serif" font-size="10.00" fill="#000000">boost/algorithm/string.hpp</text>
</g>
<!-- Node0&#45;&gt;Node27 -->
<g id="edge28" class="edge">
<title>Node0&#45;&gt;Node27</title>
<path fill="none" stroke="#191970" d="M1265.1634,-130.31C1413.0368,-123.828 1789.4096,-105.7165 2114.6147,-76.081"/>
<polygon fill="#191970" stroke="#191970" points="2115.0666,-79.5543 2124.7054,-75.1562 2114.4277,-72.5835 2115.0666,-79.5543"/>
</g>
<!-- Node2 -->
<g id="node3" class="node">
<title>Node2</title>
<polygon fill="none" stroke="#bfbfbf" points="0,-.5 0,-19.5 44,-19.5 44,-.5 0,-.5"/>
<text text-anchor="middle" x="22" y="-7.5" font-family="Helvetica,sans-Serif" font-size="10.00" fill="#000000">string</text>
</g>
<!-- Node1&#45;&gt;Node2 -->
<g id="edge2" class="edge">
<title>Node1&#45;&gt;Node2</title>
<path fill="none" stroke="#191970" d="M221.8262,-57.2668C179.7858,-49.3135 116.9937,-36.6368 53.9738,-20.0693"/>
<polygon fill="#191970" stroke="#191970" points="54.8332,-16.6762 44.2694,-17.4871 53.0332,-23.4409 54.8332,-16.6762"/>
</g>
<!-- Node3 -->
<g id="node4" class="node">
<title>Node3</title>
<polygon fill="none" stroke="#bfbfbf" points="62,-.5 62,-19.5 120,-19.5 120,-.5 62,-.5"/>
<text text-anchor="middle" x="91" y="-7.5" font-family="Helvetica,sans-Serif" font-size="10.00" fill="#000000">memory</text>
</g>
<!-- Node1&#45;&gt;Node3 -->
<g id="edge3" class="edge">
<title>Node1&#45;&gt;Node3</title>
<path fill="none" stroke="#191970" d="M239.2288,-56.3733C208.9726,-46.9076 162.6843,-32.4264 129.8945,-22.1681"/>
<polygon fill="#191970" stroke="#191970" points="130.7733,-18.7758 120.1844,-19.1303 128.6832,-25.4565 130.7733,-18.7758"/>
</g>
<!-- Node4 -->
<g id="node5" class="node">
<title>Node4</title>
<polygon fill="none" stroke="#bfbfbf" points="138,-.5 138,-19.5 198,-19.5 198,-.5 138,-.5"/>
<text text-anchor="middle" x="168" y="-7.5" font-family="Helvetica,sans-Serif" font-size="10.00" fill="#000000">iostream</text>
</g>
<!-- Node1&#45;&gt;Node4 -->
<g id="edge4" class="edge">
<title>Node1&#45;&gt;Node4</title>
<path fill="none" stroke="#191970" d="M252.233,-56.2455C236.2905,-47.4928 212.6741,-34.527 194.5011,-24.5496"/>
<polygon fill="#191970" stroke="#191970" points="196.0137,-21.3873 185.5634,-19.6427 192.6448,-27.5233 196.0137,-21.3873"/>
</g>
<!-- Node5 -->
<g id="node6" class="node">
<title>Node5</title>
<polygon fill="none" stroke="#bfbfbf" points="216,-.5 216,-19.5 254,-19.5 254,-.5 216,-.5"/>
<text text-anchor="middle" x="235" y="-7.5" font-family="Helvetica,sans-Serif" font-size="10.00" fill="#000000">map</text>
</g>
<!-- Node1&#45;&gt;Node5 -->
<g id="edge5" class="edge">
<title>Node1&#45;&gt;Node5</title>
<path fill="none" stroke="#191970" d="M263.9035,-56.2455C259.0855,-48.5367 252.2249,-37.5598 246.3968,-28.2348"/>
<polygon fill="#191970" stroke="#191970" points="249.2947,-26.2677 241.0267,-19.6427 243.3587,-29.9777 249.2947,-26.2677"/>
</g>
<!-- Node6 -->
<g id="node7" class="node">
<title>Node6</title>
<polygon fill="none" stroke="#bfbfbf" points="272.5,-.5 272.5,-19.5 337.5,-19.5 337.5,-.5 272.5,-.5"/>
<text text-anchor="middle" x="305" y="-7.5" font-family="Helvetica,sans-Serif" font-size="10.00" fill="#000000">curl/curl.h</text>
</g>
<!-- Node1&#45;&gt;Node6 -->
<g id="edge6" class="edge">
<title>Node1&#45;&gt;Node6</title>
<path fill="none" stroke="#191970" d="M276.0965,-56.2455C280.9145,-48.5367 287.7751,-37.5598 293.6032,-28.2348"/>
<polygon fill="#191970" stroke="#191970" points="296.6413,-29.9777 298.9733,-19.6427 290.7053,-26.2677 296.6413,-29.9777"/>
</g>
<!-- Node7 -->
<g id="node8" class="node">
<title>Node7</title>
<polygon fill="none" stroke="#bfbfbf" points="355.5,-.5 355.5,-19.5 418.5,-19.5 418.5,-.5 355.5,-.5"/>
<text text-anchor="middle" x="387" y="-7.5" font-family="Helvetica,sans-Serif" font-size="10.00" fill="#000000">TObject.h</text>
</g>
<!-- Node1&#45;&gt;Node7 -->
<g id="edge7" class="edge">
<title>Node1&#45;&gt;Node7</title>
<path fill="none" stroke="#191970" d="M290.113,-56.3733C308.8103,-47.4241 336.8744,-33.9917 357.9934,-23.8835"/>
<polygon fill="#191970" stroke="#191970" points="359.6405,-26.9755 367.1494,-19.5011 356.6183,-20.6614 359.6405,-26.9755"/>
</g>
<!-- Node1&#45;&gt;Node8 -->
<g id="edge8" class="edge">
<title>Node1&#45;&gt;Node8</title>
<path fill="none" stroke="#191970" d="M305.0689,-56.3733C339.4315,-46.9404 391.9392,-32.5265 429.2851,-22.2747"/>
<polygon fill="#191970" stroke="#191970" points="430.672,-25.5235 439.3888,-19.5011 428.819,-18.7732 430.672,-25.5235"/>
</g>
</g>
</svg>
