<?xml version="1.0" encoding="UTF-8" standalone="no"?>
<!DOCTYPE svg PUBLIC "-//W3C//DTD SVG 1.1//EN"
 "http://www.w3.org/Graphics/SVG/1.1/DTD/svg11.dtd">
<!-- Generated by graphviz version 2.40.1 (20161225.0304)
 -->
<!-- Title: /home/travis/build/AliceO2Group/AliceO2/Detectors/CPV/base/include/CPVBase/Geometry.h Pages: 1 -->
<svg width="582pt" height="339pt"
 viewBox="0.00 0.00 582.00 339.00" xmlns="http://www.w3.org/2000/svg" xmlns:xlink="http://www.w3.org/1999/xlink">
<g id="graph0" class="graph" transform="scale(1 1) rotate(0) translate(4 335)">
<title>/home/travis/build/AliceO2Group/AliceO2/Detectors/CPV/base/include/CPVBase/Geometry.h</title>
<!-- Node4 -->
<g id="node1" class="node">
<title>Node4</title>
<polygon fill="#bfbfbf" stroke="#000000" points="265,-278.5 265,-330.5 419,-330.5 419,-278.5 265,-278.5"/>
<text text-anchor="start" x="273" y="-318.5" font-family="Helvetica,sans-Serif" font-size="10.00" fill="#000000">/home/travis/build</text>
<text text-anchor="start" x="273" y="-307.5" font-family="Helvetica,sans-Serif" font-size="10.00" fill="#000000">/AliceO2Group/AliceO2</text>
<text text-anchor="start" x="273" y="-296.5" font-family="Helvetica,sans-Serif" font-size="10.00" fill="#000000">/Detectors/CPV/base/include</text>
<text text-anchor="middle" x="342" y="-285.5" font-family="Helvetica,sans-Serif" font-size="10.00" fill="#000000">/CPVBase/Geometry.h</text>
</g>
<!-- Node5 -->
<g id="node2" class="node">
<title>Node5</title>
<g id="a_node2"><a xlink:href="../../d2/d9f/CPV_2base_2src_2Geometry_8cxx.html" target="_top" xlink:title="/home/travis/build\l/AliceO2Group/AliceO2\l/Detectors/CPV/base/src\l/Geometry.cxx">
<polygon fill="none" stroke="#000000" points="40.5,-189.5 40.5,-241.5 173.5,-241.5 173.5,-189.5 40.5,-189.5"/>
<text text-anchor="start" x="48.5" y="-229.5" font-family="Helvetica,sans-Serif" font-size="10.00" fill="#000000">/home/travis/build</text>
<text text-anchor="start" x="48.5" y="-218.5" font-family="Helvetica,sans-Serif" font-size="10.00" fill="#000000">/AliceO2Group/AliceO2</text>
<text text-anchor="start" x="48.5" y="-207.5" font-family="Helvetica,sans-Serif" font-size="10.00" fill="#000000">/Detectors/CPV/base/src</text>
<text text-anchor="middle" x="107" y="-196.5" font-family="Helvetica,sans-Serif" font-size="10.00" fill="#000000">/Geometry.cxx</text>
</a>
</g>
</g>
<!-- Node4&#45;&gt;Node5 -->
<g id="edge1" class="edge">
<title>Node4&#45;&gt;Node5</title>
<path fill="none" stroke="#191970" d="M263.3873,-274.7275C234.3676,-263.7371 201.781,-251.3958 173.8951,-240.8348"/>
<polygon fill="#191970" stroke="#191970" points="262.4887,-278.1297 273.0801,-278.3984 264.9679,-271.5835 262.4887,-278.1297"/>
</g>
<!-- Node6 -->
<g id="node3" class="node">
<title>Node6</title>
<g id="a_node3"><a xlink:href="../../d4/d37/CPV_2simulation_2include_2CPVSimulation_2Digitizer_8h.html" target="_top" xlink:title="/home/travis/build\l/AliceO2Group/AliceO2\l/Detectors/CPV/simulation\l/include/CPVSimulation/Digitizer.h">
<polygon fill="none" stroke="#000000" points="192,-189.5 192,-241.5 374,-241.5 374,-189.5 192,-189.5"/>
<text text-anchor="start" x="200" y="-229.5" font-family="Helvetica,sans-Serif" font-size="10.00" fill="#000000">/home/travis/build</text>
<text text-anchor="start" x="200" y="-218.5" font-family="Helvetica,sans-Serif" font-size="10.00" fill="#000000">/AliceO2Group/AliceO2</text>
<text text-anchor="start" x="200" y="-207.5" font-family="Helvetica,sans-Serif" font-size="10.00" fill="#000000">/Detectors/CPV/simulation</text>
<text text-anchor="middle" x="283" y="-196.5" font-family="Helvetica,sans-Serif" font-size="10.00" fill="#000000">/include/CPVSimulation/Digitizer.h</text>
</a>
</g>
</g>
<!-- Node4&#45;&gt;Node6 -->
<g id="edge2" class="edge">
<title>Node4&#45;&gt;Node6</title>
<path fill="none" stroke="#191970" d="M319.0314,-269.8525C312.7859,-260.4313 306.1291,-250.3897 300.2586,-241.5341"/>
<polygon fill="#191970" stroke="#191970" points="316.1745,-271.8774 324.6172,-278.2784 322.009,-268.0096 316.1745,-271.8774"/>
</g>
<!-- Node8 -->
<g id="node5" class="node">
<title>Node8</title>
<g id="a_node5"><a xlink:href="../../de/de0/CPV_2simulation_2src_2DigitizerTask_8cxx.html" target="_top" xlink:title="/home/travis/build\l/AliceO2Group/AliceO2\l/Detectors/CPV/simulation\l/src/DigitizerTask.cxx">
<polygon fill="none" stroke="#000000" points="130,-.5 130,-52.5 274,-52.5 274,-.5 130,-.5"/>
<text text-anchor="start" x="138" y="-40.5" font-family="Helvetica,sans-Serif" font-size="10.00" fill="#000000">/home/travis/build</text>
<text text-anchor="start" x="138" y="-29.5" font-family="Helvetica,sans-Serif" font-size="10.00" fill="#000000">/AliceO2Group/AliceO2</text>
<text text-anchor="start" x="138" y="-18.5" font-family="Helvetica,sans-Serif" font-size="10.00" fill="#000000">/Detectors/CPV/simulation</text>
<text text-anchor="middle" x="202" y="-7.5" font-family="Helvetica,sans-Serif" font-size="10.00" fill="#000000">/src/DigitizerTask.cxx</text>
</a>
</g>
</g>
<!-- Node4&#45;&gt;Node8 -->
<g id="edge8" class="edge">
<title>Node4&#45;&gt;Node8</title>
<path fill="none" stroke="#191970" d="M369.6986,-269.9374C375.1648,-261.2893 380.1027,-251.6986 383,-242 402.4637,-176.8451 422.4636,-144.3771 383,-89 369.7841,-70.4549 318.8764,-53.8594 274.4038,-42.4379"/>
<polygon fill="#191970" stroke="#191970" points="366.7907,-267.9897 364.1125,-278.2405 372.5986,-271.8972 366.7907,-267.9897"/>
</g>
<!-- Node10 -->
<g id="node7" class="node">
<title>Node10</title>
<g id="a_node7"><a xlink:href="../../de/de0/CPV_2simulation_2src_2Detector_8cxx.html" target="_top" xlink:title="/home/travis/build\l/AliceO2Group/AliceO2\l/Detectors/CPV/simulation\l/src/Detector.cxx">
<polygon fill="none" stroke="#000000" points="430,-189.5 430,-241.5 574,-241.5 574,-189.5 430,-189.5"/>
<text text-anchor="start" x="438" y="-229.5" font-family="Helvetica,sans-Serif" font-size="10.00" fill="#000000">/home/travis/build</text>
<text text-anchor="start" x="438" y="-218.5" font-family="Helvetica,sans-Serif" font-size="10.00" fill="#000000">/AliceO2Group/AliceO2</text>
<text text-anchor="start" x="438" y="-207.5" font-family="Helvetica,sans-Serif" font-size="10.00" fill="#000000">/Detectors/CPV/simulation</text>
<text text-anchor="middle" x="502" y="-196.5" font-family="Helvetica,sans-Serif" font-size="10.00" fill="#000000">/src/Detector.cxx</text>
</a>
</g>
</g>
<!-- Node4&#45;&gt;Node10 -->
<g id="edge7" class="edge">
<title>Node4&#45;&gt;Node10</title>
<path fill="none" stroke="#191970" d="M398.122,-273.2821C416.7718,-262.9082 437.3275,-251.4741 455.197,-241.5341"/>
<polygon fill="#191970" stroke="#191970" points="396.1775,-270.3587 389.1399,-278.2784 399.5803,-276.476 396.1775,-270.3587"/>
</g>
<!-- Node7 -->
<g id="node4" class="node">
<title>Node7</title>
<g id="a_node4"><a xlink:href="../../d7/dff/CPV_2simulation_2include_2CPVSimulation_2DigitizerTask_8h.html" target="_top" xlink:title="/home/travis/build\l/AliceO2Group/AliceO2\l/Detectors/CPV/simulation\l/include/CPVSimulation/Digitizer\lTask.h">
<polygon fill="none" stroke="#000000" points="0,-89.5 0,-152.5 174,-152.5 174,-89.5 0,-89.5"/>
<text text-anchor="start" x="8" y="-140.5" font-family="Helvetica,sans-Serif" font-size="10.00" fill="#000000">/home/travis/build</text>
<text text-anchor="start" x="8" y="-129.5" font-family="Helvetica,sans-Serif" font-size="10.00" fill="#000000">/AliceO2Group/AliceO2</text>
<text text-anchor="start" x="8" y="-118.5" font-family="Helvetica,sans-Serif" font-size="10.00" fill="#000000">/Detectors/CPV/simulation</text>
<text text-anchor="start" x="8" y="-107.5" font-family="Helvetica,sans-Serif" font-size="10.00" fill="#000000">/include/CPVSimulation/Digitizer</text>
<text text-anchor="middle" x="87" y="-96.5" font-family="Helvetica,sans-Serif" font-size="10.00" fill="#000000">Task.h</text>
</a>
</g>
</g>
<!-- Node6&#45;&gt;Node7 -->
<g id="edge3" class="edge">
<title>Node6&#45;&gt;Node7</title>
<path fill="none" stroke="#191970" d="M219.8549,-185.0551C198.2916,-174.6585 174.1397,-163.0138 152.4024,-152.5333"/>
<polygon fill="#191970" stroke="#191970" points="218.3955,-188.237 228.9233,-189.4273 221.4357,-181.9316 218.3955,-188.237"/>
</g>
<!-- Node6&#45;&gt;Node8 -->
<g id="edge6" class="edge">
<title>Node6&#45;&gt;Node8</title>
<path fill="none" stroke="#191970" d="M242.3069,-182.1037C234.0614,-173.4508 226.3033,-163.5648 221,-153 204.9592,-121.045 201.5797,-79.2498 201.2806,-52.6304"/>
<polygon fill="#191970" stroke="#191970" points="240.0676,-184.8126 249.629,-189.3765 245.0006,-179.8461 240.0676,-184.8126"/>
</g>
<!-- Node9 -->
<g id="node6" class="node">
<title>Node9</title>
<g id="a_node6"><a xlink:href="../../d3/d11/CPV_2simulation_2src_2Digitizer_8cxx.html" target="_top" xlink:title="/home/travis/build\l/AliceO2Group/AliceO2\l/Detectors/CPV/simulation\l/src/Digitizer.cxx">
<polygon fill="none" stroke="#000000" points="230,-95 230,-147 374,-147 374,-95 230,-95"/>
<text text-anchor="start" x="238" y="-135" font-family="Helvetica,sans-Serif" font-size="10.00" fill="#000000">/home/travis/build</text>
<text text-anchor="start" x="238" y="-124" font-family="Helvetica,sans-Serif" font-size="10.00" fill="#000000">/AliceO2Group/AliceO2</text>
<text text-anchor="start" x="238" y="-113" font-family="Helvetica,sans-Serif" font-size="10.00" fill="#000000">/Detectors/CPV/simulation</text>
<text text-anchor="middle" x="302" y="-102" font-family="Helvetica,sans-Serif" font-size="10.00" fill="#000000">/src/Digitizer.cxx</text>
</a>
</g>
</g>
<!-- Node6&#45;&gt;Node9 -->
<g id="edge5" class="edge">
<title>Node6&#45;&gt;Node9</title>
<path fill="none" stroke="#191970" d="M290.239,-179.4957C292.3904,-168.795 294.7062,-157.2773 296.709,-147.3157"/>
<polygon fill="#191970" stroke="#191970" points="286.782,-178.9336 288.2421,-189.4273 293.6447,-180.3134 286.782,-178.9336"/>
</g>
<!-- Node7&#45;&gt;Node8 -->
<g id="edge4" class="edge">
<title>Node7&#45;&gt;Node8</title>
<path fill="none" stroke="#191970" d="M133.5714,-82.7304C145.8712,-72.6232 158.8637,-61.9468 170.1844,-52.6442"/>
<polygon fill="#191970" stroke="#191970" points="131.1173,-80.217 125.6133,-89.27 135.5615,-85.6253 131.1173,-80.217"/>
</g>
</g>
</svg>
