<?xml version="1.0" encoding="UTF-8" standalone="no"?>
<!DOCTYPE svg PUBLIC "-//W3C//DTD SVG 1.1//EN"
 "http://www.w3.org/Graphics/SVG/1.1/DTD/svg11.dtd">
<!-- Generated by graphviz version 2.40.1 (20161225.0304)
 -->
<!-- Title: /home/travis/build/AliceO2Group/AliceO2/Detectors/ITSMFT/ITS/tracking/hip/include/ITStrackingHIP/DeviceStoreVertexerHIP.h Pages: 1 -->
<svg width="1856pt" height="598pt"
 viewBox="0.00 0.00 1856.00 598.00" xmlns="http://www.w3.org/2000/svg" xmlns:xlink="http://www.w3.org/1999/xlink">
<g id="graph0" class="graph" transform="scale(1 1) rotate(0) translate(4 594)">
<title>/home/travis/build/AliceO2Group/AliceO2/Detectors/ITSMFT/ITS/tracking/hip/include/ITStrackingHIP/DeviceStoreVertexerHIP.h</title>
<!-- Node0 -->
<g id="node1" class="node">
<title>Node0</title>
<polygon fill="#bfbfbf" stroke="#000000" points="976.5,-526.5 976.5,-589.5 1149.5,-589.5 1149.5,-526.5 976.5,-526.5"/>
<text text-anchor="start" x="984.5" y="-577.5" font-family="Helvetica,sans-Serif" font-size="10.00" fill="#000000">/home/travis/build</text>
<text text-anchor="start" x="984.5" y="-566.5" font-family="Helvetica,sans-Serif" font-size="10.00" fill="#000000">/AliceO2Group/AliceO2</text>
<text text-anchor="start" x="984.5" y="-555.5" font-family="Helvetica,sans-Serif" font-size="10.00" fill="#000000">/Detectors/ITSMFT/ITS</text>
<text text-anchor="start" x="984.5" y="-544.5" font-family="Helvetica,sans-Serif" font-size="10.00" fill="#000000">/tracking/hip/include/ITStracking</text>
<text text-anchor="middle" x="1063" y="-533.5" font-family="Helvetica,sans-Serif" font-size="10.00" fill="#000000">HIP/DeviceStoreVertexerHIP.h</text>
</g>
<!-- Node1 -->
<g id="node2" class="node">
<title>Node1</title>
<polygon fill="none" stroke="#bfbfbf" points="307.5,-465 307.5,-484 412.5,-484 412.5,-465 307.5,-465"/>
<text text-anchor="middle" x="360" y="-472" font-family="Helvetica,sans-Serif" font-size="10.00" fill="#000000">hipcub/hipcub.hpp</text>
</g>
<!-- Node0&#45;&gt;Node1 -->
<g id="edge1" class="edge">
<title>Node0&#45;&gt;Node1</title>
<path fill="none" stroke="#191970" d="M976.394,-552.0746C853.5811,-542.9167 622.0512,-522.8655 427,-490 420.7418,-488.9455 414.1938,-487.6607 407.7462,-486.2866"/>
<polygon fill="#191970" stroke="#191970" points="408.2732,-482.8185 397.753,-484.0741 406.76,-489.653 408.2732,-482.8185"/>
</g>
<!-- Node2 -->
<g id="node3" class="node">
<title>Node2</title>
<g id="a_node3"><a xlink:href="../../da/d7f/Detectors_2ITSMFT_2ITS_2tracking_2include_2ITStracking_2Cluster_8h.html" target="_top" xlink:title="ITStracking/Cluster.h">
<polygon fill="none" stroke="#000000" points="382.5,-291.5 382.5,-310.5 499.5,-310.5 499.5,-291.5 382.5,-291.5"/>
<text text-anchor="middle" x="441" y="-298.5" font-family="Helvetica,sans-Serif" font-size="10.00" fill="#000000">ITStracking/Cluster.h</text>
</a>
</g>
</g>
<!-- Node0&#45;&gt;Node2 -->
<g id="edge2" class="edge">
<title>Node0&#45;&gt;Node2</title>
<path fill="none" stroke="#191970" d="M976.4918,-540.0266C830.1528,-508.0619 542.4679,-437.9928 469,-367 456.1613,-354.5938 448.9194,-335.3701 445.0331,-320.8634"/>
<polygon fill="#191970" stroke="#191970" points="448.3807,-319.8098 442.6782,-310.8805 441.5677,-321.417 448.3807,-319.8098"/>
</g>
<!-- Node5 -->
<g id="node6" class="node">
<title>Node5</title>
<g id="a_node6"><a xlink:href="../../df/d21/GPUCommonDef_8h.html" target="_top" xlink:title="GPUCommonDef.h">
<polygon fill="none" stroke="#000000" points="1198.5,-56.5 1198.5,-75.5 1305.5,-75.5 1305.5,-56.5 1198.5,-56.5"/>
<text text-anchor="middle" x="1252" y="-63.5" font-family="Helvetica,sans-Serif" font-size="10.00" fill="#000000">GPUCommonDef.h</text>
</a>
</g>
</g>
<!-- Node0&#45;&gt;Node5 -->
<g id="edge78" class="edge">
<title>Node0&#45;&gt;Node5</title>
<path fill="none" stroke="#191970" d="M1079.4833,-526.492C1123.0507,-442.5458 1239.1432,-214.2972 1257,-132 1260.3504,-116.5589 1258.6593,-98.6649 1256.3758,-85.4074"/>
<polygon fill="#191970" stroke="#191970" points="1259.7931,-84.6462 1254.4161,-75.5172 1252.9266,-86.0068 1259.7931,-84.6462"/>
</g>
<!-- Node16 -->
<g id="node17" class="node">
<title>Node16</title>
<g id="a_node17"><a xlink:href="../../d0/d86/Detectors_2ITSMFT_2ITS_2tracking_2include_2ITStracking_2Constants_8h.html" target="_top" xlink:title="ITStracking/Constants.h">
<polygon fill="none" stroke="#000000" points="850,-174 850,-193 982,-193 982,-174 850,-174"/>
<text text-anchor="middle" x="916" y="-181" font-family="Helvetica,sans-Serif" font-size="10.00" fill="#000000">ITStracking/Constants.h</text>
</a>
</g>
</g>
<!-- Node0&#45;&gt;Node16 -->
<g id="edge37" class="edge">
<title>Node0&#45;&gt;Node16</title>
<path fill="none" stroke="#191970" d="M1050.5936,-526.3931C1021.079,-451.2013 947.3742,-263.4295 923.5537,-202.7439"/>
<polygon fill="#191970" stroke="#191970" points="926.7348,-201.269 919.8229,-193.2393 920.2188,-203.8267 926.7348,-201.269"/>
</g>
<!-- Node21 -->
<g id="node22" class="node">
<title>Node21</title>
<g id="a_node22"><a xlink:href="../../d3/d59/Configuration_8h.html" target="_top" xlink:title="ITStracking/Configuration.h">
<polygon fill="none" stroke="#000000" points="1014.5,-235.5 1014.5,-254.5 1163.5,-254.5 1163.5,-235.5 1014.5,-235.5"/>
<text text-anchor="middle" x="1089" y="-242.5" font-family="Helvetica,sans-Serif" font-size="10.00" fill="#000000">ITStracking/Configuration.h</text>
</a>
</g>
</g>
<!-- Node0&#45;&gt;Node21 -->
<g id="edge38" class="edge">
<title>Node0&#45;&gt;Node21</title>
<path fill="none" stroke="#191970" d="M1063,-526.3198C1063,-496.9444 1063,-452.0191 1063,-413 1063,-413 1063,-413 1063,-357 1063,-323.7204 1074.0271,-286.2857 1081.7187,-264.2224"/>
<polygon fill="#191970" stroke="#191970" points="1085.0487,-265.3059 1085.1636,-254.7117 1078.4671,-262.9219 1085.0487,-265.3059"/>
</g>
<!-- Node22 -->
<g id="node23" class="node">
<title>Node22</title>
<g id="a_node23"><a xlink:href="../../da/dc0/Tracklet_8h.html" target="_top" xlink:title="ITStracking/Tracklet.h">
<polygon fill="none" stroke="#000000" points="507,-347.5 507,-366.5 629,-366.5 629,-347.5 507,-347.5"/>
<text text-anchor="middle" x="568" y="-354.5" font-family="Helvetica,sans-Serif" font-size="10.00" fill="#000000">ITStracking/Tracklet.h</text>
</a>
</g>
</g>
<!-- Node0&#45;&gt;Node22 -->
<g id="edge44" class="edge">
<title>Node0&#45;&gt;Node22</title>
<path fill="none" stroke="#191970" d="M976.3576,-528.8189C902.6936,-503.2267 794.6094,-463.819 703,-423 665.4343,-406.2616 622.9427,-385.1112 595.8363,-371.3294"/>
<polygon fill="#191970" stroke="#191970" points="597.0816,-368.0355 586.5835,-366.6072 593.8995,-374.2705 597.0816,-368.0355"/>
</g>
<!-- Node23 -->
<g id="node24" class="node">
<title>Node23</title>
<g id="a_node24"><a xlink:href="../../df/d50/ClusterLines_8h.html" target="_top" xlink:title="ITStracking/ClusterLines.h">
<polygon fill="none" stroke="#000000" points="711.5,-403.5 711.5,-422.5 854.5,-422.5 854.5,-403.5 711.5,-403.5"/>
<text text-anchor="middle" x="783" y="-410.5" font-family="Helvetica,sans-Serif" font-size="10.00" fill="#000000">ITStracking/ClusterLines.h</text>
</a>
</g>
</g>
<!-- Node0&#45;&gt;Node23 -->
<g id="edge49" class="edge">
<title>Node0&#45;&gt;Node23</title>
<path fill="none" stroke="#191970" d="M1001.8988,-526.3583C942.3836,-495.538 854.6239,-450.091 810.484,-427.2328"/>
<polygon fill="#191970" stroke="#191970" points="811.9901,-424.0713 801.5006,-422.5807 808.7711,-430.2873 811.9901,-424.0713"/>
</g>
<!-- Node24 -->
<g id="node25" class="node">
<title>Node24</title>
<g id="a_node25"><a xlink:href="../../de/d49/ArrayHIP_8h.html" target="_top" xlink:title="ITStrackingHIP/ArrayHIP.h">
<polygon fill="none" stroke="#000000" points="1298.5,-465 1298.5,-484 1439.5,-484 1439.5,-465 1298.5,-465"/>
<text text-anchor="middle" x="1369" y="-472" font-family="Helvetica,sans-Serif" font-size="10.00" fill="#000000">ITStrackingHIP/ArrayHIP.h</text>
</a>
</g>
</g>
<!-- Node0&#45;&gt;Node24 -->
<g id="edge56" class="edge">
<title>Node0&#45;&gt;Node24</title>
<path fill="none" stroke="#191970" d="M1149.8688,-534.2956C1206.7061,-518.7861 1278.6205,-499.1624 1324.2325,-486.716"/>
<polygon fill="#191970" stroke="#191970" points="1325.3863,-490.0292 1334.1121,-484.0201 1323.5435,-483.2761 1325.3863,-490.0292"/>
</g>
<!-- Node26 -->
<g id="node27" class="node">
<title>Node26</title>
<g id="a_node27"><a xlink:href="../../d2/dc8/ClusterLinesHIP_8h.html" target="_top" xlink:title="GPU&#45;compliant version of ClusterLines, for the moment separated, might create a common traits for Clu...">
<polygon fill="none" stroke="#000000" points="1129.5,-459.5 1129.5,-489.5 1280.5,-489.5 1280.5,-459.5 1129.5,-459.5"/>
<text text-anchor="start" x="1137.5" y="-477.5" font-family="Helvetica,sans-Serif" font-size="10.00" fill="#000000">ITStrackingHIP/ClusterLines</text>
<text text-anchor="middle" x="1205" y="-466.5" font-family="Helvetica,sans-Serif" font-size="10.00" fill="#000000">HIP.h</text>
</a>
</g>
</g>
<!-- Node0&#45;&gt;Node26 -->
<g id="edge59" class="edge">
<title>Node0&#45;&gt;Node26</title>
<path fill="none" stroke="#191970" d="M1116.6841,-526.4322C1134.6732,-515.8541 1154.2417,-504.3473 1170.3764,-494.8597"/>
<polygon fill="#191970" stroke="#191970" points="1172.5955,-497.6151 1179.4415,-489.5291 1169.0473,-491.581 1172.5955,-497.6151"/>
</g>
<!-- Node27 -->
<g id="node28" class="node">
<title>Node27</title>
<g id="a_node28"><a xlink:href="../../d1/d7c/UniquePointerHIP_8h.html" target="_top" xlink:title="ITStrackingHIP/UniquePointer\lHIP.h">
<polygon fill="none" stroke="#000000" points="1380,-168.5 1380,-198.5 1540,-198.5 1540,-168.5 1380,-168.5"/>
<text text-anchor="start" x="1388" y="-186.5" font-family="Helvetica,sans-Serif" font-size="10.00" fill="#000000">ITStrackingHIP/UniquePointer</text>
<text text-anchor="middle" x="1460" y="-175.5" font-family="Helvetica,sans-Serif" font-size="10.00" fill="#000000">HIP.h</text>
</a>
</g>
</g>
<!-- Node0&#45;&gt;Node27 -->
<g id="edge63" class="edge">
<title>Node0&#45;&gt;Node27</title>
<path fill="none" stroke="#191970" d="M1149.6686,-553.5357C1249.9313,-546.5717 1406.6819,-529.5521 1449,-490 1474.752,-465.9312 1468,-448.2487 1468,-413 1468,-413 1468,-413 1468,-301 1468,-269.228 1465.0525,-232.7349 1462.7357,-208.9582"/>
<polygon fill="#191970" stroke="#191970" points="1466.1855,-208.2845 1461.6966,-198.6877 1459.221,-208.9892 1466.1855,-208.2845"/>
</g>
<!-- Node31 -->
<g id="node32" class="node">
<title>Node31</title>
<g id="a_node32"><a xlink:href="../../dd/dda/VectorHIP_8h.html" target="_top" xlink:title="ITStrackingHIP/VectorHIP.h">
<polygon fill="none" stroke="#000000" points="1558,-174 1558,-193 1704,-193 1704,-174 1558,-174"/>
<text text-anchor="middle" x="1631" y="-181" font-family="Helvetica,sans-Serif" font-size="10.00" fill="#000000">ITStrackingHIP/VectorHIP.h</text>
</a>
</g>
</g>
<!-- Node0&#45;&gt;Node31 -->
<g id="edge70" class="edge">
<title>Node0&#45;&gt;Node31</title>
<path fill="none" stroke="#191970" d="M1149.5803,-551.1255C1294.3856,-537.2185 1570,-499.4002 1570,-413 1570,-413 1570,-413 1570,-301 1570,-261.8384 1597.021,-222.7568 1615.0949,-200.996"/>
<polygon fill="#191970" stroke="#191970" points="1617.8613,-203.1472 1621.7354,-193.2861 1612.5574,-198.579 1617.8613,-203.1472"/>
</g>
<!-- Node3 -->
<g id="node4" class="node">
<title>Node3</title>
<polygon fill="none" stroke="#bfbfbf" points="169,-56.5 169,-75.5 211,-75.5 211,-56.5 169,-56.5"/>
<text text-anchor="middle" x="190" y="-63.5" font-family="Helvetica,sans-Serif" font-size="10.00" fill="#000000">array</text>
</g>
<!-- Node2&#45;&gt;Node3 -->
<g id="edge3" class="edge">
<title>Node2&#45;&gt;Node3</title>
<path fill="none" stroke="#191970" d="M382.1761,-298.8227C304.5784,-294.8417 173.4502,-283.9334 136,-255 85.6752,-216.1199 94.1613,-163.8378 131,-112 139.7535,-99.6824 152.7366,-89.0598 164.2968,-81.1357"/>
<polygon fill="#191970" stroke="#191970" points="166.2974,-84.0096 172.7661,-75.6187 162.4767,-78.1443 166.2974,-84.0096"/>
</g>
<!-- Node4 -->
<g id="node5" class="node">
<title>Node4</title>
<g id="a_node5"><a xlink:href="../../df/d3d/Definitions_8h.html" target="_top" xlink:title="ITStracking/Definitions.h">
<polygon fill="none" stroke="#000000" points="716,-112.5 716,-131.5 852,-131.5 852,-112.5 716,-112.5"/>
<text text-anchor="middle" x="784" y="-119.5" font-family="Helvetica,sans-Serif" font-size="10.00" fill="#000000">ITStracking/Definitions.h</text>
</a>
</g>
</g>
<!-- Node2&#45;&gt;Node4 -->
<g id="edge4" class="edge">
<title>Node2&#45;&gt;Node4</title>
<path fill="none" stroke="#191970" d="M382.3961,-295.9428C273.0551,-284.4432 55.7249,-250.6394 133,-168 173.7683,-124.4017 609.4867,-136.5857 669,-132 680.864,-131.0858 693.4108,-130.0578 705.6856,-129.0179"/>
<polygon fill="#191970" stroke="#191970" points="706.246,-132.4828 715.9115,-128.1438 705.6497,-125.5083 706.246,-132.4828"/>
</g>
<!-- Node8 -->
<g id="node9" class="node">
<title>Node8</title>
<g id="a_node9"><a xlink:href="../../dc/d3e/MathUtils_8h.html" target="_top" xlink:title="ITStracking/MathUtils.h">
<polygon fill="none" stroke="#000000" points="349,-235.5 349,-254.5 479,-254.5 479,-235.5 349,-235.5"/>
<text text-anchor="middle" x="414" y="-242.5" font-family="Helvetica,sans-Serif" font-size="10.00" fill="#000000">ITStracking/MathUtils.h</text>
</a>
</g>
</g>
<!-- Node2&#45;&gt;Node8 -->
<g id="edge9" class="edge">
<title>Node2&#45;&gt;Node8</title>
<path fill="none" stroke="#191970" d="M436.297,-291.2455C432.6576,-283.6973 427.5076,-273.0158 423.0738,-263.8197"/>
<polygon fill="#191970" stroke="#191970" points="426.1449,-262.1303 418.6491,-254.6427 419.8395,-265.1704 426.1449,-262.1303"/>
</g>
<!-- Node19 -->
<g id="node20" class="node">
<title>Node19</title>
<g id="a_node20"><a xlink:href="../../dc/ddf/ITS_2tracking_2include_2ITStracking_2IndexTableUtils_8h.html" target="_top" xlink:title="ITStracking/IndexTableUtils.h">
<polygon fill="none" stroke="#000000" points="635,-235.5 635,-254.5 793,-254.5 793,-235.5 635,-235.5"/>
<text text-anchor="middle" x="714" y="-242.5" font-family="Helvetica,sans-Serif" font-size="10.00" fill="#000000">ITStracking/IndexTableUtils.h</text>
</a>
</g>
</g>
<!-- Node2&#45;&gt;Node19 -->
<g id="edge29" class="edge">
<title>Node2&#45;&gt;Node19</title>
<path fill="none" stroke="#191970" d="M487.6202,-291.4369C534.6365,-281.7925 607.2629,-266.8948 657.5193,-256.5858"/>
<polygon fill="#191970" stroke="#191970" points="658.4794,-259.9618 667.5721,-254.5237 657.0727,-253.1046 658.4794,-259.9618"/>
</g>
<!-- Node4&#45;&gt;Node3 -->
<g id="edge5" class="edge">
<title>Node4&#45;&gt;Node3</title>
<path fill="none" stroke="#191970" d="M715.8606,-115.5761C587.3234,-103.4581 313.6743,-77.6595 221.2445,-68.9456"/>
<polygon fill="#191970" stroke="#191970" points="221.4224,-65.447 211.138,-67.9928 220.7654,-72.416 221.4224,-65.447"/>
</g>
<!-- Node4&#45;&gt;Node5 -->
<g id="edge6" class="edge">
<title>Node4&#45;&gt;Node5</title>
<path fill="none" stroke="#191970" d="M852.0113,-113.6914C856.7452,-113.1175 861.4437,-112.5493 866,-112 979.4992,-98.3164 1111.8017,-82.6008 1188.3285,-73.5336"/>
<polygon fill="#191970" stroke="#191970" points="1188.7733,-77.0055 1198.2921,-72.3533 1187.9498,-70.0541 1188.7733,-77.0055"/>
</g>
<!-- Node6 -->
<g id="node7" class="node">
<title>Node6</title>
<g id="a_node7"><a xlink:href="../../d5/d93/GPUCommonDefSettings_8h.html" target="_top" xlink:title="GPUCommonDefSettings.h">
<polygon fill="none" stroke="#000000" points="1226,-.5 1226,-19.5 1374,-19.5 1374,-.5 1226,-.5"/>
<text text-anchor="middle" x="1300" y="-7.5" font-family="Helvetica,sans-Serif" font-size="10.00" fill="#000000">GPUCommonDefSettings.h</text>
</a>
</g>
</g>
<!-- Node5&#45;&gt;Node6 -->
<g id="edge7" class="edge">
<title>Node5&#45;&gt;Node6</title>
<path fill="none" stroke="#191970" d="M1260.361,-56.2455C1267.175,-48.2958 1276.9681,-36.8706 1285.1152,-27.3656"/>
<polygon fill="#191970" stroke="#191970" points="1287.8843,-29.513 1291.7349,-19.6427 1282.5695,-24.9575 1287.8843,-29.513"/>
</g>
<!-- Node7 -->
<g id="node8" class="node">
<title>Node7</title>
<g id="a_node8"><a xlink:href="../../da/d5a/GPUCommonDefAPI_8h.html" target="_top" xlink:title="GPUCommonDefAPI.h">
<polygon fill="none" stroke="#000000" points="1084,-.5 1084,-19.5 1208,-19.5 1208,-.5 1084,-.5"/>
<text text-anchor="middle" x="1146" y="-7.5" font-family="Helvetica,sans-Serif" font-size="10.00" fill="#000000">GPUCommonDefAPI.h</text>
</a>
</g>
</g>
<!-- Node5&#45;&gt;Node7 -->
<g id="edge8" class="edge">
<title>Node5&#45;&gt;Node7</title>
<path fill="none" stroke="#191970" d="M1233.5362,-56.2455C1216.8926,-47.4527 1192.2007,-34.4079 1173.2808,-24.4125"/>
<polygon fill="#191970" stroke="#191970" points="1174.7291,-21.2193 1164.2522,-19.6427 1171.4592,-27.4086 1174.7291,-21.2193"/>
</g>
<!-- Node8&#45;&gt;Node3 -->
<g id="edge10" class="edge">
<title>Node8&#45;&gt;Node3</title>
<path fill="none" stroke="#191970" d="M348.9048,-238.7674C270.3036,-230.5727 146.8432,-215.2936 133,-199 102.9475,-163.6279 145.9649,-110.0356 172.2334,-82.948"/>
<polygon fill="#191970" stroke="#191970" points="174.8407,-85.2904 179.4364,-75.7442 169.8907,-80.3409 174.8407,-85.2904"/>
</g>
<!-- Node8&#45;&gt;Node5 -->
<g id="edge28" class="edge">
<title>Node8&#45;&gt;Node5</title>
<path fill="none" stroke="#191970" d="M418.1851,-235.3512C425.962,-218.6639 444.3117,-184.61 471,-168 546.9369,-120.7392 584.4464,-161.1665 669,-132 687.042,-125.7765 688.6811,-117.3539 707,-112 795.6496,-86.0913 1064.2707,-72.9962 1188.1582,-68.2014"/>
<polygon fill="#191970" stroke="#191970" points="1188.3967,-71.695 1198.2561,-67.8166 1188.1301,-64.7 1188.3967,-71.695"/>
</g>
<!-- Node9 -->
<g id="node10" class="node">
<title>Node9</title>
<polygon fill="none" stroke="#bfbfbf" points="479.5,-56.5 479.5,-75.5 526.5,-75.5 526.5,-56.5 479.5,-56.5"/>
<text text-anchor="middle" x="503" y="-63.5" font-family="Helvetica,sans-Serif" font-size="10.00" fill="#000000">cmath</text>
</g>
<!-- Node8&#45;&gt;Node9 -->
<g id="edge11" class="edge">
<title>Node8&#45;&gt;Node9</title>
<path fill="none" stroke="#191970" d="M354.6013,-235.4673C328.9173,-228.832 300.0016,-217.6744 279,-199 248.2119,-171.6235 220.569,-143.6036 247,-112 274.9329,-78.6005 406.0507,-69.4175 469.0453,-66.9193"/>
<polygon fill="#191970" stroke="#191970" points="469.3943,-70.4091 479.2611,-66.5495 469.1409,-63.4137 469.3943,-70.4091"/>
</g>
<!-- Node10 -->
<g id="node11" class="node">
<title>Node10</title>
<polygon fill="none" stroke="#bfbfbf" points="142,-174 142,-193 194,-193 194,-174 142,-174"/>
<text text-anchor="middle" x="168" y="-181" font-family="Helvetica,sans-Serif" font-size="10.00" fill="#000000">cassert</text>
</g>
<!-- Node8&#45;&gt;Node10 -->
<g id="edge12" class="edge">
<title>Node8&#45;&gt;Node10</title>
<path fill="none" stroke="#191970" d="M360.9399,-235.4266C318.9984,-227.3157 259.1949,-214.5391 208,-199 205.5681,-198.2618 203.0737,-197.4451 200.5768,-196.5837"/>
<polygon fill="#191970" stroke="#191970" points="201.6544,-193.2513 191.0605,-193.1129 199.2559,-199.8275 201.6544,-193.2513"/>
</g>
<!-- Node11 -->
<g id="node12" class="node">
<title>Node11</title>
<polygon fill="none" stroke="#bfbfbf" points="480,-174 480,-193 540,-193 540,-174 480,-174"/>
<text text-anchor="middle" x="510" y="-181" font-family="Helvetica,sans-Serif" font-size="10.00" fill="#000000">iostream</text>
</g>
<!-- Node8&#45;&gt;Node11 -->
<g id="edge13" class="edge">
<title>Node8&#45;&gt;Node11</title>
<path fill="none" stroke="#191970" d="M429,-235.3906C444.3581,-225.5519 468.4521,-210.1167 486.3745,-198.6351"/>
<polygon fill="#191970" stroke="#191970" points="488.573,-201.3833 495.1053,-193.0419 484.797,-195.4891 488.573,-201.3833"/>
</g>
<!-- Node12 -->
<g id="node13" class="node">
<title>Node12</title>
<g id="a_node13"><a xlink:href="../../d9/d52/Common_2MathUtils_2include_2MathUtils_2Utils_8h.html" target="_top" xlink:title="MathUtils/Utils.h">
<polygon fill="none" stroke="#000000" points="288,-174 288,-193 386,-193 386,-174 288,-174"/>
<text text-anchor="middle" x="337" y="-181" font-family="Helvetica,sans-Serif" font-size="10.00" fill="#000000">MathUtils/Utils.h</text>
</a>
</g>
</g>
<!-- Node8&#45;&gt;Node12 -->
<g id="edge14" class="edge">
<title>Node8&#45;&gt;Node12</title>
<path fill="none" stroke="#191970" d="M401.9688,-235.3906C389.9893,-225.8227 371.3834,-210.9621 357.1475,-199.5919"/>
<polygon fill="#191970" stroke="#191970" points="358.9447,-196.5479 348.9468,-193.0419 354.5761,-202.0175 358.9447,-196.5479"/>
</g>
<!-- Node13 -->
<g id="node14" class="node">
<title>Node13</title>
<g id="a_node14"><a xlink:href="../../d6/da2/GPUCommonMath_8h.html" target="_top" xlink:title="GPUCommonMath.h">
<polygon fill="none" stroke="#000000" points="544.5,-112.5 544.5,-131.5 659.5,-131.5 659.5,-112.5 544.5,-112.5"/>
<text text-anchor="middle" x="602" y="-119.5" font-family="Helvetica,sans-Serif" font-size="10.00" fill="#000000">GPUCommonMath.h</text>
</a>
</g>
</g>
<!-- Node8&#45;&gt;Node13 -->
<g id="edge27" class="edge">
<title>Node8&#45;&gt;Node13</title>
<path fill="none" stroke="#191970" d="M414.1843,-235.4708C415.0271,-219.2726 419.1208,-186.3453 438,-168 452.4676,-153.9416 498.0973,-141.8022 537.5635,-133.5296"/>
<polygon fill="#191970" stroke="#191970" points="538.345,-136.9423 547.4417,-131.5108 536.9434,-130.084 538.345,-136.9423"/>
</g>
<!-- Node8&#45;&gt;Node16 -->
<g id="edge23" class="edge">
<title>Node8&#45;&gt;Node16</title>
<path fill="none" stroke="#191970" d="M479.1131,-237.023C571.7378,-225.6755 741.1969,-204.9151 839.6282,-192.8563"/>
<polygon fill="#191970" stroke="#191970" points="840.3049,-196.2997 849.8051,-191.6095 839.4536,-189.3516 840.3049,-196.2997"/>
</g>
<!-- Node12&#45;&gt;Node3 -->
<g id="edge15" class="edge">
<title>Node12&#45;&gt;Node3</title>
<path fill="none" stroke="#191970" d="M315.7132,-173.8831C296.6202,-164.6837 268.3977,-149.6276 247,-132 229.9374,-117.9437 213.7953,-98.4505 203.0746,-84.2955"/>
<polygon fill="#191970" stroke="#191970" points="205.6129,-81.8409 196.8572,-75.8753 199.9817,-85.999 205.6129,-81.8409"/>
</g>
<!-- Node12&#45;&gt;Node5 -->
<g id="edge17" class="edge">
<title>Node12&#45;&gt;Node5</title>
<path fill="none" stroke="#191970" d="M363.8204,-173.9559C392.7517,-163.6494 440.1639,-146.7269 481,-132 505.4679,-123.176 510.542,-117.3322 536,-112 659.6472,-86.1022 1036.861,-72.3652 1188.1925,-67.7767"/>
<polygon fill="#191970" stroke="#191970" points="1188.3698,-71.2731 1198.2604,-67.4749 1188.16,-64.2762 1188.3698,-71.2731"/>
</g>
<!-- Node12&#45;&gt;Node9 -->
<g id="edge16" class="edge">
<title>Node12&#45;&gt;Node9</title>
<path fill="none" stroke="#191970" d="M374.1705,-173.9974C400.0374,-165.9945 434.1992,-152.5156 459,-132 474.5189,-119.1626 486.6666,-99.4524 494.23,-84.9119"/>
<polygon fill="#191970" stroke="#191970" points="497.4304,-86.3355 498.7189,-75.8193 491.1536,-83.2367 497.4304,-86.3355"/>
</g>
<!-- Node12&#45;&gt;Node13 -->
<g id="edge18" class="edge">
<title>Node12&#45;&gt;Node13</title>
<path fill="none" stroke="#191970" d="M375.2875,-173.9675C383.4381,-171.9698 391.9989,-169.8951 400,-168 450.4941,-156.04 508.2315,-142.9506 549.0106,-133.8033"/>
<polygon fill="#191970" stroke="#191970" points="550.0052,-137.1673 558.9981,-131.5657 548.4748,-130.3366 550.0052,-137.1673"/>
</g>
<!-- Node15 -->
<g id="node16" class="node">
<title>Node15</title>
<g id="a_node16"><a xlink:href="../../d6/d84/MathConstants_8h.html" target="_top" xlink:title="useful math constants ">
<polygon fill="none" stroke="#000000" points="256,-112.5 256,-131.5 450,-131.5 450,-112.5 256,-112.5"/>
<text text-anchor="middle" x="353" y="-119.5" font-family="Helvetica,sans-Serif" font-size="10.00" fill="#000000">CommonConstants/MathConstants.h</text>
</a>
</g>
</g>
<!-- Node12&#45;&gt;Node15 -->
<g id="edge22" class="edge">
<title>Node12&#45;&gt;Node15</title>
<path fill="none" stroke="#191970" d="M339.5,-173.8906C341.7412,-165.276 345.0986,-152.3708 347.9045,-141.5858"/>
<polygon fill="#191970" stroke="#191970" points="351.3341,-142.304 350.4648,-131.7449 344.5596,-140.5414 351.3341,-142.304"/>
</g>
<!-- Node13&#45;&gt;Node5 -->
<g id="edge19" class="edge">
<title>Node13&#45;&gt;Node5</title>
<path fill="none" stroke="#191970" d="M659.7316,-113.6786C664.5541,-113.0757 669.3582,-112.5066 674,-112 860.1852,-91.6794 1081.0417,-76.5985 1187.8296,-69.8745"/>
<polygon fill="#191970" stroke="#191970" points="1188.3509,-73.3488 1198.1126,-69.2307 1187.9134,-66.3625 1188.3509,-73.3488"/>
</g>
<!-- Node13&#45;&gt;Node9 -->
<g id="edge20" class="edge">
<title>Node13&#45;&gt;Node9</title>
<path fill="none" stroke="#191970" d="M584.7555,-112.2455C569.4239,-103.5731 546.7801,-90.7645 529.2084,-80.825"/>
<polygon fill="#191970" stroke="#191970" points="530.4741,-77.5198 520.0469,-75.6427 527.0276,-83.6126 530.4741,-77.5198"/>
</g>
<!-- Node14 -->
<g id="node15" class="node">
<title>Node14</title>
<polygon fill="none" stroke="#bfbfbf" points="570,-56.5 570,-75.5 634,-75.5 634,-56.5 570,-56.5"/>
<text text-anchor="middle" x="602" y="-63.5" font-family="Helvetica,sans-Serif" font-size="10.00" fill="#000000">algorithm</text>
</g>
<!-- Node13&#45;&gt;Node14 -->
<g id="edge21" class="edge">
<title>Node13&#45;&gt;Node14</title>
<path fill="none" stroke="#191970" d="M602,-112.2455C602,-104.9382 602,-94.6944 602,-85.7046"/>
<polygon fill="#191970" stroke="#191970" points="605.5001,-85.6426 602,-75.6427 598.5001,-85.6427 605.5001,-85.6426"/>
</g>
<!-- Node16&#45;&gt;Node4 -->
<g id="edge26" class="edge">
<title>Node16&#45;&gt;Node4</title>
<path fill="none" stroke="#191970" d="M895.375,-173.8906C873.4827,-163.6908 838.6807,-147.4763 813.8073,-135.8875"/>
<polygon fill="#191970" stroke="#191970" points="815.0228,-132.5926 804.4802,-131.5419 812.0665,-138.9377 815.0228,-132.5926"/>
</g>
<!-- Node17 -->
<g id="node18" class="node">
<title>Node17</title>
<polygon fill="none" stroke="#bfbfbf" points="958,-112.5 958,-131.5 1008,-131.5 1008,-112.5 958,-112.5"/>
<text text-anchor="middle" x="983" y="-119.5" font-family="Helvetica,sans-Serif" font-size="10.00" fill="#000000">climits</text>
</g>
<!-- Node16&#45;&gt;Node17 -->
<g id="edge24" class="edge">
<title>Node16&#45;&gt;Node17</title>
<path fill="none" stroke="#191970" d="M926.4688,-173.8906C936.7337,-164.4683 952.5903,-149.9134 964.9006,-138.6137"/>
<polygon fill="#191970" stroke="#191970" points="967.3834,-141.0856 972.3837,-131.7449 962.6499,-135.9287 967.3834,-141.0856"/>
</g>
<!-- Node18 -->
<g id="node19" class="node">
<title>Node18</title>
<polygon fill="none" stroke="#bfbfbf" points="1152.5,-112.5 1152.5,-131.5 1199.5,-131.5 1199.5,-112.5 1152.5,-112.5"/>
<text text-anchor="middle" x="1176" y="-119.5" font-family="Helvetica,sans-Serif" font-size="10.00" fill="#000000">vector</text>
</g>
<!-- Node16&#45;&gt;Node18 -->
<g id="edge25" class="edge">
<title>Node16&#45;&gt;Node18</title>
<path fill="none" stroke="#191970" d="M956.3397,-173.9581C1007.5003,-161.8567 1094.7826,-141.211 1142.4683,-129.9315"/>
<polygon fill="#191970" stroke="#191970" points="1143.3699,-133.3149 1152.2957,-127.607 1141.7585,-126.5029 1143.3699,-133.3149"/>
</g>
<!-- Node19&#45;&gt;Node3 -->
<g id="edge30" class="edge">
<title>Node19&#45;&gt;Node3</title>
<path fill="none" stroke="#191970" d="M634.5946,-239.8011C517.6683,-231.6642 309.6428,-215.1722 279,-199 233.5021,-174.9878 207.2595,-116.1292 196.2206,-85.3966"/>
<polygon fill="#191970" stroke="#191970" points="199.488,-84.1341 192.9435,-75.8023 192.8638,-86.3968 199.488,-84.1341"/>
</g>
<!-- Node19&#45;&gt;Node4 -->
<g id="edge34" class="edge">
<title>Node19&#45;&gt;Node4</title>
<path fill="none" stroke="#191970" d="M697.5823,-235.2212C685.7924,-227.1641 670.8253,-214.5536 664,-199 658.4636,-186.3835 656.1936,-179.3528 664,-168 672.6887,-155.3642 706.6452,-143.0353 736.2289,-134.3269"/>
<polygon fill="#191970" stroke="#191970" points="737.3994,-137.6325 746.0512,-131.5172 735.4742,-130.9025 737.3994,-137.6325"/>
</g>
<!-- Node19&#45;&gt;Node5 -->
<g id="edge36" class="edge">
<title>Node19&#45;&gt;Node5</title>
<path fill="none" stroke="#191970" d="M729.0548,-235.4235C752.639,-220.5241 799.8579,-191.1048 841,-168 888.1436,-141.5248 897.5832,-128.7262 949,-112 1029.0412,-85.9621 1125.8622,-74.5388 1188.161,-69.6108"/>
<polygon fill="#191970" stroke="#191970" points="1188.5291,-73.0931 1198.2358,-68.8468 1187.9997,-66.1131 1188.5291,-73.0931"/>
</g>
<!-- Node19&#45;&gt;Node13 -->
<g id="edge35" class="edge">
<title>Node19&#45;&gt;Node13</title>
<path fill="none" stroke="#191970" d="M719.8933,-235.0087C728.312,-219.2867 741.2717,-188.4594 727,-168 717.9571,-155.0364 682.927,-142.8007 652.243,-134.2121"/>
<polygon fill="#191970" stroke="#191970" points="653.0398,-130.8018 642.4718,-131.5555 651.2032,-137.5566 653.0398,-130.8018"/>
</g>
<!-- Node19&#45;&gt;Node16 -->
<g id="edge33" class="edge">
<title>Node19&#45;&gt;Node16</title>
<path fill="none" stroke="#191970" d="M745.5625,-235.3906C780.3985,-224.7846 836.595,-207.6753 874.8588,-196.0257"/>
<polygon fill="#191970" stroke="#191970" points="876.1121,-199.3028 884.6591,-193.0419 874.0733,-192.6063 876.1121,-199.3028"/>
</g>
<!-- Node19&#45;&gt;Node18 -->
<g id="edge32" class="edge">
<title>Node19&#45;&gt;Node18</title>
<path fill="none" stroke="#191970" d="M793.2741,-236.7465C849.2544,-229.7336 925.6341,-217.7598 991,-199 1048.463,-182.5083 1112.1405,-153.4613 1147.7968,-136.1459"/>
<polygon fill="#191970" stroke="#191970" points="1149.6441,-139.1383 1157.0822,-131.5934 1146.5625,-132.8531 1149.6441,-139.1383"/>
</g>
<!-- Node20 -->
<g id="node21" class="node">
<title>Node20</title>
<polygon fill="none" stroke="#bfbfbf" points="672.5,-174 672.5,-193 717.5,-193 717.5,-174 672.5,-174"/>
<text text-anchor="middle" x="695" y="-181" font-family="Helvetica,sans-Serif" font-size="10.00" fill="#000000">utility</text>
</g>
<!-- Node19&#45;&gt;Node20 -->
<g id="edge31" class="edge">
<title>Node19&#45;&gt;Node20</title>
<path fill="none" stroke="#191970" d="M711.0313,-235.3906C708.3698,-226.776 704.3829,-213.8708 701.0509,-203.0858"/>
<polygon fill="#191970" stroke="#191970" points="704.3065,-201.7661 698.0106,-193.2449 697.6184,-203.8324 704.3065,-201.7661"/>
</g>
<!-- Node21&#45;&gt;Node3 -->
<g id="edge39" class="edge">
<title>Node21&#45;&gt;Node3</title>
<path fill="none" stroke="#191970" d="M1087.1986,-235.3541C1081.8465,-209.7792 1063.4228,-140.2663 1017,-112 999.6818,-101.4552 370.6138,-73.7709 221.4752,-67.3455"/>
<polygon fill="#191970" stroke="#191970" points="221.3385,-63.8365 211.1974,-66.9037 221.0378,-70.83 221.3385,-63.8365"/>
</g>
<!-- Node21&#45;&gt;Node9 -->
<g id="edge42" class="edge">
<title>Node21&#45;&gt;Node9</title>
<path fill="none" stroke="#191970" d="M1093.999,-235.3975C1105.8743,-211.1066 1132.4468,-146.6863 1100,-112 1058.9964,-68.1664 620.5999,-83.1087 561,-76 553.0987,-75.0576 544.6374,-73.7632 536.688,-72.4181"/>
<polygon fill="#191970" stroke="#191970" points="537.078,-68.933 526.6226,-70.6461 535.8643,-75.827 537.078,-68.933"/>
</g>
<!-- Node21&#45;&gt;Node16 -->
<g id="edge43" class="edge">
<title>Node21&#45;&gt;Node16</title>
<path fill="none" stroke="#191970" d="M1061.9688,-235.3906C1032.5149,-224.92 985.2311,-208.1111 952.4973,-196.4745"/>
<polygon fill="#191970" stroke="#191970" points="953.4361,-193.0937 942.8414,-193.0419 951.0914,-199.6893 953.4361,-193.0937"/>
</g>
<!-- Node21&#45;&gt;Node17 -->
<g id="edge40" class="edge">
<title>Node21&#45;&gt;Node17</title>
<path fill="none" stroke="#191970" d="M1080.6824,-235.3484C1062.8023,-214.6008 1020.4979,-165.5117 997.8762,-139.262"/>
<polygon fill="#191970" stroke="#191970" points="1000.4585,-136.8971 991.279,-131.6068 995.1559,-141.4668 1000.4585,-136.8971"/>
</g>
<!-- Node21&#45;&gt;Node18 -->
<g id="edge41" class="edge">
<title>Node21&#45;&gt;Node18</title>
<path fill="none" stroke="#191970" d="M1101.4622,-235.4483C1112.1465,-226.7949 1127.4411,-213.2499 1138,-199 1151.3958,-180.9214 1162.2052,-157.3938 1168.8212,-141.1272"/>
<polygon fill="#191970" stroke="#191970" points="1172.1583,-142.2042 1172.5484,-131.6165 1165.6409,-139.65 1172.1583,-142.2042"/>
</g>
<!-- Node22&#45;&gt;Node2 -->
<g id="edge45" class="edge">
<title>Node22&#45;&gt;Node2</title>
<path fill="none" stroke="#191970" d="M546.1679,-347.3733C525.6897,-338.3435 494.8601,-324.7494 471.8681,-314.6111"/>
<polygon fill="#191970" stroke="#191970" points="473.1093,-311.3333 462.5472,-310.5011 470.285,-317.7383 473.1093,-311.3333"/>
</g>
<!-- Node22&#45;&gt;Node5 -->
<g id="edge48" class="edge">
<title>Node22&#45;&gt;Node5</title>
<path fill="none" stroke="#191970" d="M629.1842,-354.0577C765.6247,-346.3541 1089.3641,-321.3906 1173,-255 1227.2531,-211.9336 1244.6816,-124.9939 1249.9149,-85.8712"/>
<polygon fill="#191970" stroke="#191970" points="1253.4104,-86.1185 1251.1319,-75.7715 1246.4606,-85.281 1253.4104,-86.1185"/>
</g>
<!-- Node22&#45;&gt;Node11 -->
<g id="edge46" class="edge">
<title>Node22&#45;&gt;Node11</title>
<path fill="none" stroke="#191970" d="M564.7991,-347.4248C555.5913,-319.8807 528.9035,-240.0477 516.4906,-202.916"/>
<polygon fill="#191970" stroke="#191970" points="519.7525,-201.6339 513.2626,-193.2595 513.1137,-203.8533 519.7525,-201.6339"/>
</g>
<!-- Node22&#45;&gt;Node13 -->
<g id="edge47" class="edge">
<title>Node22&#45;&gt;Node13</title>
<path fill="none" stroke="#191970" d="M568.9459,-347.1168C571.7045,-318.9887 580.2921,-236.1302 592,-168 593.4845,-159.3615 595.4803,-149.8874 597.2984,-141.794"/>
<polygon fill="#191970" stroke="#191970" points="600.7615,-142.3529 599.6029,-131.8216 593.9412,-140.7768 600.7615,-142.3529"/>
</g>
<!-- Node23&#45;&gt;Node2 -->
<g id="edge52" class="edge">
<title>Node23&#45;&gt;Node2</title>
<path fill="none" stroke="#191970" d="M711.2787,-407.0505C639.1303,-400.0767 533.61,-386.8828 498,-367 477.8574,-355.7534 461.4992,-334.5126 451.5564,-319.1594"/>
<polygon fill="#191970" stroke="#191970" points="454.4462,-317.1773 446.2182,-310.5027 448.4879,-320.8515 454.4462,-317.1773"/>
</g>
<!-- Node23&#45;&gt;Node3 -->
<g id="edge50" class="edge">
<title>Node23&#45;&gt;Node3</title>
<path fill="none" stroke="#191970" d="M711.4383,-410.2258C518.1456,-401.7855 0,-372.4928 0,-301 0,-301 0,-301 0,-183.5 0,-109.6888 105.0046,-80.6842 158.8912,-70.6593"/>
<polygon fill="#191970" stroke="#191970" points="159.6942,-74.072 168.9407,-68.8997 158.4869,-67.1769 159.6942,-74.072"/>
</g>
<!-- Node23&#45;&gt;Node4 -->
<g id="edge53" class="edge">
<title>Node23&#45;&gt;Node4</title>
<path fill="none" stroke="#191970" d="M762.8054,-403.4749C716.8464,-380.2558 609.6329,-316.6108 626,-235 632.3461,-203.3566 630.552,-190.1759 654,-168 671.1972,-151.7358 694.5014,-141.1731 716.6303,-134.334"/>
<polygon fill="#191970" stroke="#191970" points="717.7114,-137.665 726.3535,-131.5359 715.7756,-130.9379 717.7114,-137.665"/>
</g>
<!-- Node23&#45;&gt;Node13 -->
<g id="edge55" class="edge">
<title>Node23&#45;&gt;Node13</title>
<path fill="none" stroke="#191970" d="M788.9233,-403.2094C799.8334,-384.2164 822,-340.7379 822,-301 822,-301 822,-301 822,-245 822,-174.2841 734.3303,-143.8342 669.6769,-130.9932"/>
<polygon fill="#191970" stroke="#191970" points="669.99,-127.4907 659.515,-129.08 668.6948,-134.3699 669.99,-127.4907"/>
</g>
<!-- Node23&#45;&gt;Node18 -->
<g id="edge51" class="edge">
<title>Node23&#45;&gt;Node18</title>
<path fill="none" stroke="#191970" d="M854.7867,-407.0023C946.1235,-395.1081 1100.681,-359.7582 1173,-255 1196.5148,-220.9375 1188.577,-169.3874 1181.6993,-141.5266"/>
<polygon fill="#191970" stroke="#191970" points="1185.0576,-140.5362 1179.0925,-131.7801 1178.2953,-142.3449 1185.0576,-140.5362"/>
</g>
<!-- Node23&#45;&gt;Node22 -->
<g id="edge54" class="edge">
<title>Node23&#45;&gt;Node22</title>
<path fill="none" stroke="#191970" d="M746.0402,-403.3733C709.5925,-393.8799 653.7754,-379.3415 614.3711,-369.0781"/>
<polygon fill="#191970" stroke="#191970" points="615.0369,-365.6348 604.4775,-366.5011 613.2724,-372.4087 615.0369,-365.6348"/>
</g>
<!-- Node24&#45;&gt;Node5 -->
<g id="edge58" class="edge">
<title>Node24&#45;&gt;Node5</title>
<path fill="none" stroke="#191970" d="M1368.3933,-464.8436C1365.8538,-426.7011 1354.9306,-282.9975 1328,-168 1322.0072,-142.4099 1324.0444,-133.5507 1309,-112 1300.5569,-99.9055 1288.0631,-89.3274 1276.9226,-81.3744"/>
<polygon fill="#191970" stroke="#191970" points="1278.6218,-78.2978 1268.3814,-75.5803 1274.6921,-84.0907 1278.6218,-78.2978"/>
</g>
<!-- Node25 -->
<g id="node26" class="node">
<title>Node25</title>
<polygon fill="none" stroke="#bfbfbf" points="1236,-403.5 1236,-422.5 1338,-422.5 1338,-403.5 1236,-403.5"/>
<text text-anchor="middle" x="1287" y="-410.5" font-family="Helvetica,sans-Serif" font-size="10.00" fill="#000000">hip/hip_runtime.h</text>
</g>
<!-- Node24&#45;&gt;Node25 -->
<g id="edge57" class="edge">
<title>Node24&#45;&gt;Node25</title>
<path fill="none" stroke="#191970" d="M1356.1875,-464.8906C1343.3099,-455.2324 1323.2416,-440.1812 1308.028,-428.771"/>
<polygon fill="#191970" stroke="#191970" points="1309.8226,-425.7419 1299.7225,-422.5419 1305.6225,-431.3419 1309.8226,-425.7419"/>
</g>
<!-- Node26&#45;&gt;Node5 -->
<g id="edge61" class="edge">
<title>Node26&#45;&gt;Node5</title>
<path fill="none" stroke="#191970" d="M1208.6829,-459.3943C1212.4884,-444.7008 1218.9918,-421.8931 1227,-403 1258.2848,-329.1926 1314,-325.164 1314,-245 1314,-245 1314,-245 1314,-183.5 1314,-149.9798 1306.2803,-141.3012 1290,-112 1284.2646,-101.6775 1276.1018,-91.4265 1268.8108,-83.2304"/>
<polygon fill="#191970" stroke="#191970" points="1271.2918,-80.7581 1261.9326,-75.7926 1266.1525,-85.5108 1271.2918,-80.7581"/>
</g>
<!-- Node26&#45;&gt;Node23 -->
<g id="edge62" class="edge">
<title>Node26&#45;&gt;Node23</title>
<path fill="none" stroke="#191970" d="M1129.0675,-463.434C1052.4208,-452.2639 934.7526,-435.1156 858.3239,-423.9773"/>
<polygon fill="#191970" stroke="#191970" points="858.6865,-420.4933 848.2863,-422.5145 857.677,-427.4201 858.6865,-420.4933"/>
</g>
<!-- Node26&#45;&gt;Node25 -->
<g id="edge60" class="edge">
<title>Node26&#45;&gt;Node25</title>
<path fill="none" stroke="#191970" d="M1225.2697,-459.2977C1237.6006,-450.0495 1253.3266,-438.2551 1265.8197,-428.8853"/>
<polygon fill="#191970" stroke="#191970" points="1267.9708,-431.647 1273.8708,-422.8469 1263.7707,-426.047 1267.9708,-431.647"/>
</g>
<!-- Node27&#45;&gt;Node5 -->
<g id="edge64" class="edge">
<title>Node27&#45;&gt;Node5</title>
<path fill="none" stroke="#191970" d="M1442.9662,-168.2987C1424.8489,-152.6872 1394.8768,-128.4152 1366,-112 1342.4032,-98.5863 1314.1161,-87.1473 1291.6228,-79.0315"/>
<polygon fill="#191970" stroke="#191970" points="1292.6463,-75.6811 1282.0515,-75.6512 1290.3152,-82.2816 1292.6463,-75.6811"/>
</g>
<!-- Node28 -->
<g id="node29" class="node">
<title>Node28</title>
<g id="a_node29"><a xlink:href="../../d8/d28/UtilsHIP_8h.html" target="_top" xlink:title="ITStrackingHIP/UtilsHIP.h">
<polygon fill="none" stroke="#000000" points="1456.5,-112.5 1456.5,-131.5 1593.5,-131.5 1593.5,-112.5 1456.5,-112.5"/>
<text text-anchor="middle" x="1525" y="-119.5" font-family="Helvetica,sans-Serif" font-size="10.00" fill="#000000">ITStrackingHIP/UtilsHIP.h</text>
</a>
</g>
</g>
<!-- Node27&#45;&gt;Node28 -->
<g id="edge65" class="edge">
<title>Node27&#45;&gt;Node28</title>
<path fill="none" stroke="#191970" d="M1476.0674,-168.2977C1485.466,-159.4052 1497.3527,-148.1586 1507.057,-138.9769"/>
<polygon fill="#191970" stroke="#191970" points="1509.7342,-141.2621 1514.5927,-131.8469 1504.9232,-136.1774 1509.7342,-141.2621"/>
</g>
<!-- Node28&#45;&gt;Node5 -->
<g id="edge66" class="edge">
<title>Node28&#45;&gt;Node5</title>
<path fill="none" stroke="#191970" d="M1478.3798,-112.4369C1431.3635,-102.7925 1358.7371,-87.8948 1308.4807,-77.5858"/>
<polygon fill="#191970" stroke="#191970" points="1308.9273,-74.1046 1298.4279,-75.5237 1307.5206,-80.9618 1308.9273,-74.1046"/>
</g>
<!-- Node29 -->
<g id="node30" class="node">
<title>Node29</title>
<g id="a_node30"><a xlink:href="../../d4/dac/StreamHIP_8h.html" target="_top" xlink:title="ITStrackingHIP/StreamHIP.h">
<polygon fill="none" stroke="#000000" points="1553,-56.5 1553,-75.5 1703,-75.5 1703,-56.5 1553,-56.5"/>
<text text-anchor="middle" x="1628" y="-63.5" font-family="Helvetica,sans-Serif" font-size="10.00" fill="#000000">ITStrackingHIP/StreamHIP.h</text>
</a>
</g>
</g>
<!-- Node28&#45;&gt;Node29 -->
<g id="edge67" class="edge">
<title>Node28&#45;&gt;Node29</title>
<path fill="none" stroke="#191970" d="M1542.9412,-112.2455C1559.04,-103.4928 1582.8879,-90.527 1601.2391,-80.5496"/>
<polygon fill="#191970" stroke="#191970" points="1603.1507,-83.4942 1610.2644,-75.6427 1599.8071,-77.3444 1603.1507,-83.4942"/>
</g>
<!-- Node30 -->
<g id="node31" class="node">
<title>Node30</title>
<polygon fill="none" stroke="#bfbfbf" points="1515,-.5 1515,-19.5 1637,-19.5 1637,-.5 1515,-.5"/>
<text text-anchor="middle" x="1576" y="-7.5" font-family="Helvetica,sans-Serif" font-size="10.00" fill="#000000">hip/hip_runtime_api.h</text>
</g>
<!-- Node28&#45;&gt;Node30 -->
<g id="edge69" class="edge">
<title>Node28&#45;&gt;Node30</title>
<path fill="none" stroke="#191970" d="M1526.7655,-112.2443C1529.3849,-99.0394 1534.9845,-74.9505 1544,-56 1548.7266,-46.0648 1555.5222,-35.9303 1561.6364,-27.7116"/>
<polygon fill="#191970" stroke="#191970" points="1564.5252,-29.6973 1567.8732,-19.6454 1558.9875,-25.4155 1564.5252,-29.6973"/>
</g>
<!-- Node29&#45;&gt;Node30 -->
<g id="edge68" class="edge">
<title>Node29&#45;&gt;Node30</title>
<path fill="none" stroke="#191970" d="M1618.9423,-56.2455C1611.4858,-48.2155 1600.7366,-36.6394 1591.8583,-27.0781"/>
<polygon fill="#191970" stroke="#191970" points="1594.3232,-24.589 1584.9539,-19.6427 1589.1937,-29.3522 1594.3232,-24.589"/>
</g>
<!-- Node31&#45;&gt;Node5 -->
<g id="edge77" class="edge">
<title>Node31&#45;&gt;Node5</title>
<path fill="none" stroke="#191970" d="M1593.5843,-173.9139C1556.4112,-164.1691 1497.9036,-148.2343 1448,-132 1423.6622,-124.0826 1418.179,-120.3899 1394,-112 1359.836,-100.1454 1320.7242,-87.5464 1292.2101,-78.537"/>
<polygon fill="#191970" stroke="#191970" points="1293.1814,-75.1735 1282.5918,-75.5071 1291.0781,-81.8501 1293.1814,-75.1735"/>
</g>
<!-- Node31&#45;&gt;Node18 -->
<g id="edge74" class="edge">
<title>Node31&#45;&gt;Node18</title>
<path fill="none" stroke="#191970" d="M1583.393,-173.9665C1572.1398,-171.8614 1560.1657,-169.742 1549,-168 1424.4212,-148.5645 1275.3834,-132.26 1209.7978,-125.434"/>
<polygon fill="#191970" stroke="#191970" points="1209.9459,-121.9307 1199.6388,-124.3832 1209.2256,-128.8935 1209.9459,-121.9307"/>
</g>
<!-- Node31&#45;&gt;Node28 -->
<g id="edge76" class="edge">
<title>Node31&#45;&gt;Node28</title>
<path fill="none" stroke="#191970" d="M1614.4375,-173.8906C1597.2463,-163.9165 1570.1418,-148.1908 1550.2734,-136.6633"/>
<polygon fill="#191970" stroke="#191970" points="1551.8523,-133.533 1541.4462,-131.5419 1548.3394,-139.5877 1551.8523,-133.533"/>
</g>
<!-- Node31&#45;&gt;Node29 -->
<g id="edge75" class="edge">
<title>Node31&#45;&gt;Node29</title>
<path fill="none" stroke="#191970" d="M1675.9497,-173.909C1716.2544,-163.0978 1766.0475,-142.8909 1745,-112 1736.5257,-99.5624 1703.2272,-87.1757 1674.31,-78.3946"/>
<polygon fill="#191970" stroke="#191970" points="1675.2954,-75.0362 1664.7135,-75.56 1673.3124,-81.7495 1675.2954,-75.0362"/>
</g>
<!-- Node32 -->
<g id="node33" class="node">
<title>Node32</title>
<polygon fill="none" stroke="#bfbfbf" points="1792,-112.5 1792,-131.5 1848,-131.5 1848,-112.5 1792,-112.5"/>
<text text-anchor="middle" x="1820" y="-119.5" font-family="Helvetica,sans-Serif" font-size="10.00" fill="#000000">assert.h</text>
</g>
<!-- Node31&#45;&gt;Node32 -->
<g id="edge71" class="edge">
<title>Node31&#45;&gt;Node32</title>
<path fill="none" stroke="#191970" d="M1660.5313,-173.8906C1693.3662,-163.2062 1746.4835,-145.922 1782.2976,-134.2683"/>
<polygon fill="#191970" stroke="#191970" points="1783.4827,-137.5633 1791.9089,-131.1408 1781.3166,-130.9069 1783.4827,-137.5633"/>
</g>
<!-- Node33 -->
<g id="node34" class="node">
<title>Node33</title>
<polygon fill="none" stroke="#bfbfbf" points="1611.5,-112.5 1611.5,-131.5 1648.5,-131.5 1648.5,-112.5 1611.5,-112.5"/>
<text text-anchor="middle" x="1630" y="-119.5" font-family="Helvetica,sans-Serif" font-size="10.00" fill="#000000">new</text>
</g>
<!-- Node31&#45;&gt;Node33 -->
<g id="edge72" class="edge">
<title>Node31&#45;&gt;Node33</title>
<path fill="none" stroke="#191970" d="M1630.8438,-173.8906C1630.7051,-165.3657 1630.4982,-152.6392 1630.324,-141.9235"/>
<polygon fill="#191970" stroke="#191970" points="1633.8207,-141.6866 1630.1585,-131.7449 1626.8216,-141.8005 1633.8207,-141.6866"/>
</g>
<!-- Node34 -->
<g id="node35" class="node">
<title>Node34</title>
<polygon fill="none" stroke="#bfbfbf" points="1666.5,-112.5 1666.5,-131.5 1735.5,-131.5 1735.5,-112.5 1666.5,-112.5"/>
<text text-anchor="middle" x="1701" y="-119.5" font-family="Helvetica,sans-Serif" font-size="10.00" fill="#000000">type_traits</text>
</g>
<!-- Node31&#45;&gt;Node34 -->
<g id="edge73" class="edge">
<title>Node31&#45;&gt;Node34</title>
<path fill="none" stroke="#191970" d="M1641.9375,-173.8906C1652.662,-164.4683 1669.2287,-149.9134 1682.0901,-138.6137"/>
<polygon fill="#191970" stroke="#191970" points="1684.7059,-140.9745 1689.9083,-131.7449 1680.0857,-135.7158 1684.7059,-140.9745"/>
</g>
</g>
</svg>
