<?xml version="1.0" encoding="UTF-8" standalone="no"?>
<!DOCTYPE svg PUBLIC "-//W3C//DTD SVG 1.1//EN"
 "http://www.w3.org/Graphics/SVG/1.1/DTD/svg11.dtd">
<!-- Generated by graphviz version 2.40.1 (20161225.0304)
 -->
<!-- Title: o2::raw::RawFileReader::LinkData Pages: 1 -->
<svg width="1412pt" height="617pt"
 viewBox="0.00 0.00 1412.00 617.00" xmlns="http://www.w3.org/2000/svg" xmlns:xlink="http://www.w3.org/1999/xlink">
<g id="graph0" class="graph" transform="scale(1 1) rotate(0) translate(4 613)">
<title>o2::raw::RawFileReader::LinkData</title>
<!-- Node1 -->
<g id="node1" class="node">
<title>Node1</title>
<polygon fill="#bfbfbf" stroke="#000000" points="526.5,-.5 526.5,-134.5 664.5,-134.5 664.5,-.5 526.5,-.5"/>
<text text-anchor="start" x="534.5" y="-122.5" font-family="Helvetica,sans-Serif" font-size="10.00" fill="#000000">o2::raw::RawFileReader</text>
<text text-anchor="middle" x="595.5" y="-111.5" font-family="Helvetica,sans-Serif" font-size="10.00" fill="#000000">::LinkData</text>
<polyline fill="none" stroke="#000000" points="526.5,-104.5 664.5,-104.5 "/>
<text text-anchor="middle" x="595.5" y="-92.5" font-family="Helvetica,sans-Serif" font-size="10.00" fill="#000000"> </text>
<polyline fill="none" stroke="#000000" points="526.5,-85.5 664.5,-85.5 "/>
<text text-anchor="start" x="534.5" y="-73.5" font-family="Helvetica,sans-Serif" font-size="10.00" fill="#000000">+ LinkData()</text>
<text text-anchor="start" x="534.5" y="-62.5" font-family="Helvetica,sans-Serif" font-size="10.00" fill="#000000">+ LinkData()</text>
<text text-anchor="start" x="534.5" y="-51.5" font-family="Helvetica,sans-Serif" font-size="10.00" fill="#000000">+ LinkData()</text>
<text text-anchor="start" x="534.5" y="-40.5" font-family="Helvetica,sans-Serif" font-size="10.00" fill="#000000">+ preprocessCRUPage()</text>
<text text-anchor="start" x="534.5" y="-29.5" font-family="Helvetica,sans-Serif" font-size="10.00" fill="#000000">+ getLargestSuperPage()</text>
<text text-anchor="start" x="534.5" y="-18.5" font-family="Helvetica,sans-Serif" font-size="10.00" fill="#000000">+ getLargestTF()</text>
<text text-anchor="start" x="534.5" y="-7.5" font-family="Helvetica,sans-Serif" font-size="10.00" fill="#000000">+ print()</text>
</g>
<!-- Node2 -->
<g id="node2" class="node">
<title>Node2</title>
<polygon fill="none" stroke="#bfbfbf" points="0,-259.5 0,-327.5 137,-327.5 137,-259.5 0,-259.5"/>
<text text-anchor="start" x="8" y="-315.5" font-family="Helvetica,sans-Serif" font-size="10.00" fill="#000000">vector&lt; o2::raw::RawFile</text>
<text text-anchor="middle" x="68.5" y="-304.5" font-family="Helvetica,sans-Serif" font-size="10.00" fill="#000000">Reader::LinkBlock &gt;</text>
<polyline fill="none" stroke="#bfbfbf" points="0,-297.5 137,-297.5 "/>
<text text-anchor="middle" x="68.5" y="-285.5" font-family="Helvetica,sans-Serif" font-size="10.00" fill="#000000"> </text>
<polyline fill="none" stroke="#bfbfbf" points="0,-278.5 137,-278.5 "/>
<text text-anchor="middle" x="68.5" y="-266.5" font-family="Helvetica,sans-Serif" font-size="10.00" fill="#000000"> </text>
</g>
<!-- Node2&#45;&gt;Node1 -->
<g id="edge1" class="edge">
<title>Node2&#45;&gt;Node1</title>
<path fill="none" stroke="#404040" d="M70.5911,-259.4606C74.4812,-227.1232 85.4929,-179.6038 116.5,-153 174.9956,-102.8115 393.4855,-80.73 514.1516,-72.1866"/>
<polygon fill="none" stroke="#404040" points="514.2557,-72.1795 519.9662,-67.776 526.2273,-71.3536 520.5168,-75.7571 514.2557,-72.1795"/>
<text text-anchor="middle" x="138" y="-161.5" font-family="Helvetica,sans-Serif" font-size="10.00" fill="#000000"> +blocks</text>
</g>
<!-- Node3 -->
<g id="node3" class="node">
<title>Node3</title>
<polygon fill="none" stroke="#bfbfbf" points="130.5,-551.5 130.5,-608.5 186.5,-608.5 186.5,-551.5 130.5,-551.5"/>
<text text-anchor="middle" x="158.5" y="-596.5" font-family="Helvetica,sans-Serif" font-size="10.00" fill="#000000">uint32_t</text>
<polyline fill="none" stroke="#bfbfbf" points="130.5,-589.5 186.5,-589.5 "/>
<text text-anchor="middle" x="158.5" y="-577.5" font-family="Helvetica,sans-Serif" font-size="10.00" fill="#000000"> </text>
<polyline fill="none" stroke="#bfbfbf" points="130.5,-570.5 186.5,-570.5 "/>
<text text-anchor="middle" x="158.5" y="-558.5" font-family="Helvetica,sans-Serif" font-size="10.00" fill="#000000"> </text>
</g>
<!-- Node3&#45;&gt;Node1 -->
<g id="edge2" class="edge">
<title>Node3&#45;&gt;Node1</title>
<path fill="none" stroke="#404040" d="M157.9585,-551.4344C158.4785,-516.4711 163.282,-456.4424 187.5,-412 263.3935,-272.7279 420.0732,-165.7435 515.6627,-110.0942"/>
<polygon fill="none" stroke="#404040" points="515.7501,-110.0438 518.9521,-103.5826 526.1478,-104.0532 522.9459,-110.5144 515.7501,-110.0438"/>
<text text-anchor="middle" x="425.5" y="-313" font-family="Helvetica,sans-Serif" font-size="10.00" fill="#000000"> +nTimeFrames</text>
<text text-anchor="middle" x="425.5" y="-302" font-family="Helvetica,sans-Serif" font-size="10.00" fill="#000000">+nHBFrames</text>
<text text-anchor="middle" x="425.5" y="-291" font-family="Helvetica,sans-Serif" font-size="10.00" fill="#000000">+nCRUPages</text>
<text text-anchor="middle" x="425.5" y="-280" font-family="Helvetica,sans-Serif" font-size="10.00" fill="#000000">+nSPages</text>
<text text-anchor="middle" x="425.5" y="-269" font-family="Helvetica,sans-Serif" font-size="10.00" fill="#000000">+subspec</text>
</g>
<!-- Node6 -->
<g id="node6" class="node">
<title>Node6</title>
<g id="a_node6"><a xlink:href="../../d8/d47/structo2_1_1header_1_1RAWDataHeaderV4.html" target="_top" xlink:title="{o2::header::RAWDataHeaderV4\n|+ word0\l+ blockLength\l+ zero0\l+ word1\l+ word2\l+ word3\l+ word4\l+ heartbeatBC\l+ zero42\l+ word5\l+ word6\l+ detectorField\l+ stop\l+ pageCnt\l|}">
<polygon fill="none" stroke="#000000" points="512,-193.5 512,-393.5 679,-393.5 679,-193.5 512,-193.5"/>
<text text-anchor="middle" x="595.5" y="-381.5" font-family="Helvetica,sans-Serif" font-size="10.00" fill="#000000">o2::header::RAWDataHeaderV4</text>
<polyline fill="none" stroke="#000000" points="512,-374.5 679,-374.5 "/>
<text text-anchor="start" x="520" y="-362.5" font-family="Helvetica,sans-Serif" font-size="10.00" fill="#000000">+ word0</text>
<text text-anchor="start" x="520" y="-351.5" font-family="Helvetica,sans-Serif" font-size="10.00" fill="#000000">+ blockLength</text>
<text text-anchor="start" x="520" y="-340.5" font-family="Helvetica,sans-Serif" font-size="10.00" fill="#000000">+ zero0</text>
<text text-anchor="start" x="520" y="-329.5" font-family="Helvetica,sans-Serif" font-size="10.00" fill="#000000">+ word1</text>
<text text-anchor="start" x="520" y="-318.5" font-family="Helvetica,sans-Serif" font-size="10.00" fill="#000000">+ word2</text>
<text text-anchor="start" x="520" y="-307.5" font-family="Helvetica,sans-Serif" font-size="10.00" fill="#000000">+ word3</text>
<text text-anchor="start" x="520" y="-296.5" font-family="Helvetica,sans-Serif" font-size="10.00" fill="#000000">+ word4</text>
<text text-anchor="start" x="520" y="-285.5" font-family="Helvetica,sans-Serif" font-size="10.00" fill="#000000">+ heartbeatBC</text>
<text text-anchor="start" x="520" y="-274.5" font-family="Helvetica,sans-Serif" font-size="10.00" fill="#000000">+ zero42</text>
<text text-anchor="start" x="520" y="-263.5" font-family="Helvetica,sans-Serif" font-size="10.00" fill="#000000">+ word5</text>
<text text-anchor="start" x="520" y="-252.5" font-family="Helvetica,sans-Serif" font-size="10.00" fill="#000000">+ word6</text>
<text text-anchor="start" x="520" y="-241.5" font-family="Helvetica,sans-Serif" font-size="10.00" fill="#000000">+ detectorField</text>
<text text-anchor="start" x="520" y="-230.5" font-family="Helvetica,sans-Serif" font-size="10.00" fill="#000000">+ stop</text>
<text text-anchor="start" x="520" y="-219.5" font-family="Helvetica,sans-Serif" font-size="10.00" fill="#000000">+ pageCnt</text>
<polyline fill="none" stroke="#000000" points="512,-212.5 679,-212.5 "/>
<text text-anchor="middle" x="595.5" y="-200.5" font-family="Helvetica,sans-Serif" font-size="10.00" fill="#000000"> </text>
</a>
</g>
</g>
<!-- Node3&#45;&gt;Node6 -->
<g id="edge12" class="edge">
<title>Node3&#45;&gt;Node6</title>
<path fill="none" stroke="#404040" d="M176.3763,-551.3985C179.4777,-545.486 182.3816,-539.1742 184.5,-533 202.1667,-481.5098 167.749,-453.0515 203.5,-412 206.0287,-409.0964 384.7704,-355.8206 499.9928,-321.7017"/>
<polygon fill="none" stroke="#404040" points="500.1233,-321.6631 504.7411,-316.1246 511.6297,-318.257 507.0119,-323.7956 500.1233,-321.6631"/>
<text text-anchor="middle" x="245" y="-486.5" font-family="Helvetica,sans-Serif" font-size="10.00" fill="#000000"> +heartbeatOrbit</text>
<text text-anchor="middle" x="245" y="-475.5" font-family="Helvetica,sans-Serif" font-size="10.00" fill="#000000">+triggerOrbit</text>
<text text-anchor="middle" x="245" y="-464.5" font-family="Helvetica,sans-Serif" font-size="10.00" fill="#000000">+memorySize</text>
<text text-anchor="middle" x="245" y="-453.5" font-family="Helvetica,sans-Serif" font-size="10.00" fill="#000000">+offsetToNext</text>
</g>
<!-- Node4 -->
<g id="node4" class="node">
<title>Node4</title>
<polygon fill="none" stroke="#bfbfbf" points="697,-265 697,-322 726,-322 726,-265 697,-265"/>
<text text-anchor="middle" x="711.5" y="-310" font-family="Helvetica,sans-Serif" font-size="10.00" fill="#000000">int</text>
<polyline fill="none" stroke="#bfbfbf" points="697,-303 726,-303 "/>
<text text-anchor="middle" x="711.5" y="-291" font-family="Helvetica,sans-Serif" font-size="10.00" fill="#000000"> </text>
<polyline fill="none" stroke="#bfbfbf" points="697,-284 726,-284 "/>
<text text-anchor="middle" x="711.5" y="-272" font-family="Helvetica,sans-Serif" font-size="10.00" fill="#000000"> </text>
</g>
<!-- Node4&#45;&gt;Node1 -->
<g id="edge3" class="edge">
<title>Node4&#45;&gt;Node1</title>
<path fill="none" stroke="#404040" d="M708.134,-264.758C704.9576,-244.0851 699.052,-215.9258 688.5,-193 680.8731,-176.4295 670.8335,-159.9024 660.1755,-144.5399"/>
<polygon fill="none" stroke="#404040" points="660.0707,-144.3929 653.3299,-141.8315 653.1016,-134.624 659.8425,-137.1854 660.0707,-144.3929"/>
<text text-anchor="middle" x="707" y="-167" font-family="Helvetica,sans-Serif" font-size="10.00" fill="#000000"> +nHBFinTF</text>
<text text-anchor="middle" x="707" y="-156" font-family="Helvetica,sans-Serif" font-size="10.00" fill="#000000">+nErrors</text>
</g>
<!-- Node5 -->
<g id="node5" class="node">
<title>Node5</title>
<polygon fill="none" stroke="#bfbfbf" points="758.5,-265 758.5,-322 796.5,-322 796.5,-265 758.5,-265"/>
<text text-anchor="middle" x="777.5" y="-310" font-family="Helvetica,sans-Serif" font-size="10.00" fill="#000000">bool</text>
<polyline fill="none" stroke="#bfbfbf" points="758.5,-303 796.5,-303 "/>
<text text-anchor="middle" x="777.5" y="-291" font-family="Helvetica,sans-Serif" font-size="10.00" fill="#000000"> </text>
<polyline fill="none" stroke="#bfbfbf" points="758.5,-284 796.5,-284 "/>
<text text-anchor="middle" x="777.5" y="-272" font-family="Helvetica,sans-Serif" font-size="10.00" fill="#000000"> </text>
</g>
<!-- Node5&#45;&gt;Node1 -->
<g id="edge4" class="edge">
<title>Node5&#45;&gt;Node1</title>
<path fill="none" stroke="#404040" d="M776.0157,-264.8917C773.1107,-234.3809 764.565,-186.0013 739.5,-153 722.9538,-131.2149 699.1182,-113.8937 675.5865,-100.6981"/>
<polygon fill="none" stroke="#404040" points="675.398,-100.597 668.2198,-101.2855 664.8234,-94.9243 672.0015,-94.2358 675.398,-100.597"/>
<text text-anchor="middle" x="776.5" y="-161.5" font-family="Helvetica,sans-Serif" font-size="10.00" fill="#000000"> +openHB</text>
</g>
<!-- Node6&#45;&gt;Node1 -->
<g id="edge5" class="edge">
<title>Node6&#45;&gt;Node1</title>
<path fill="none" stroke="#404040" d="M595.5,-193.3862C595.5,-177.8897 595.5,-162.0657 595.5,-147.1005"/>
<polygon fill="none" stroke="#404040" points="595.5001,-146.7576 591.5,-140.7577 595.5,-134.7576 599.5,-140.7576 595.5001,-146.7576"/>
<text text-anchor="middle" x="611" y="-161.5" font-family="Helvetica,sans-Serif" font-size="10.00" fill="#000000"> +rdhl</text>
</g>
<!-- Node7 -->
<g id="node7" class="node">
<title>Node7</title>
<polygon fill="none" stroke="#bfbfbf" points="205,-551.5 205,-608.5 312,-608.5 312,-551.5 205,-551.5"/>
<text text-anchor="middle" x="258.5" y="-596.5" font-family="Helvetica,sans-Serif" font-size="10.00" fill="#000000">anonymous:+@68</text>
<polyline fill="none" stroke="#bfbfbf" points="205,-589.5 312,-589.5 "/>
<text text-anchor="middle" x="258.5" y="-577.5" font-family="Helvetica,sans-Serif" font-size="10.00" fill="#000000"> </text>
<polyline fill="none" stroke="#bfbfbf" points="205,-570.5 312,-570.5 "/>
<text text-anchor="middle" x="258.5" y="-558.5" font-family="Helvetica,sans-Serif" font-size="10.00" fill="#000000"> </text>
</g>
<!-- Node7&#45;&gt;Node6 -->
<g id="edge6" class="edge">
<title>Node7&#45;&gt;Node6</title>
<path fill="none" stroke="#404040" d="M278.8459,-551.2647C282.8401,-545.3094 286.9032,-539.0154 290.5,-533 321.615,-480.9625 310.1018,-454.3397 353.5,-412 394.5742,-371.9276 451.8487,-343.0503 500.3676,-323.8401"/>
<polygon fill="none" stroke="#404040" points="500.6602,-323.7272 504.8171,-317.8348 511.855,-319.4055 507.6982,-325.298 500.6602,-323.7272"/>
<text text-anchor="middle" x="370.5" y="-470" font-family="Helvetica,sans-Serif" font-size="10.00" fill="#000000"> +@68</text>
</g>
<!-- Node8 -->
<g id="node8" class="node">
<title>Node8</title>
<polygon fill="none" stroke="#bfbfbf" points="330,-551.5 330,-608.5 437,-608.5 437,-551.5 330,-551.5"/>
<text text-anchor="middle" x="383.5" y="-596.5" font-family="Helvetica,sans-Serif" font-size="10.00" fill="#000000">anonymous:+@70</text>
<polyline fill="none" stroke="#bfbfbf" points="330,-589.5 437,-589.5 "/>
<text text-anchor="middle" x="383.5" y="-577.5" font-family="Helvetica,sans-Serif" font-size="10.00" fill="#000000"> </text>
<polyline fill="none" stroke="#bfbfbf" points="330,-570.5 437,-570.5 "/>
<text text-anchor="middle" x="383.5" y="-558.5" font-family="Helvetica,sans-Serif" font-size="10.00" fill="#000000"> </text>
</g>
<!-- Node8&#45;&gt;Node6 -->
<g id="edge7" class="edge">
<title>Node8&#45;&gt;Node6</title>
<path fill="none" stroke="#404040" d="M387.4678,-551.48C393.5355,-516.0253 407.8156,-454.9523 438.5,-412 455.4352,-388.294 478.5189,-367.2279 501.7724,-349.6749"/>
<polygon fill="none" stroke="#404040" points="502.0552,-349.4675 504.5273,-342.6933 511.7312,-342.3698 509.2591,-349.144 502.0552,-349.4675"/>
<text text-anchor="middle" x="455.5" y="-470" font-family="Helvetica,sans-Serif" font-size="10.00" fill="#000000"> +@70</text>
</g>
<!-- Node9 -->
<g id="node9" class="node">
<title>Node9</title>
<polygon fill="none" stroke="#bfbfbf" points="455.5,-551.5 455.5,-608.5 511.5,-608.5 511.5,-551.5 455.5,-551.5"/>
<text text-anchor="middle" x="483.5" y="-596.5" font-family="Helvetica,sans-Serif" font-size="10.00" fill="#000000">uint64_t</text>
<polyline fill="none" stroke="#bfbfbf" points="455.5,-589.5 511.5,-589.5 "/>
<text text-anchor="middle" x="483.5" y="-577.5" font-family="Helvetica,sans-Serif" font-size="10.00" fill="#000000"> </text>
<polyline fill="none" stroke="#bfbfbf" points="455.5,-570.5 511.5,-570.5 "/>
<text text-anchor="middle" x="483.5" y="-558.5" font-family="Helvetica,sans-Serif" font-size="10.00" fill="#000000"> </text>
</g>
<!-- Node9&#45;&gt;Node6 -->
<g id="edge8" class="edge">
<title>Node9&#45;&gt;Node6</title>
<path fill="none" stroke="#404040" d="M479.0548,-551.442C474.9418,-517.007 471.938,-458.0242 490.5,-412 494.3844,-402.3688 499.4092,-392.9994 505.1532,-384.0242"/>
<polygon fill="none" stroke="#404040" points="505.1762,-383.9904 505.2406,-376.7795 511.9215,-374.0656 511.8571,-381.2764 505.1762,-383.9904"/>
<text text-anchor="middle" x="522.5" y="-525" font-family="Helvetica,sans-Serif" font-size="10.00" fill="#000000"> +word7</text>
<text text-anchor="middle" x="522.5" y="-514" font-family="Helvetica,sans-Serif" font-size="10.00" fill="#000000">+triggerType</text>
<text text-anchor="middle" x="522.5" y="-503" font-family="Helvetica,sans-Serif" font-size="10.00" fill="#000000">+zero6</text>
<text text-anchor="middle" x="522.5" y="-492" font-family="Helvetica,sans-Serif" font-size="10.00" fill="#000000">+par</text>
<text text-anchor="middle" x="522.5" y="-481" font-family="Helvetica,sans-Serif" font-size="10.00" fill="#000000">+feeId</text>
<text text-anchor="middle" x="522.5" y="-470" font-family="Helvetica,sans-Serif" font-size="10.00" fill="#000000">+priority</text>
<text text-anchor="middle" x="522.5" y="-459" font-family="Helvetica,sans-Serif" font-size="10.00" fill="#000000">+headerSize</text>
<text text-anchor="middle" x="522.5" y="-448" font-family="Helvetica,sans-Serif" font-size="10.00" fill="#000000">+version</text>
<text text-anchor="middle" x="522.5" y="-437" font-family="Helvetica,sans-Serif" font-size="10.00" fill="#000000">+triggerBC</text>
<text text-anchor="middle" x="522.5" y="-426" font-family="Helvetica,sans-Serif" font-size="10.00" fill="#000000">+zero41</text>
<text text-anchor="middle" x="522.5" y="-415" font-family="Helvetica,sans-Serif" font-size="10.00" fill="#000000">...</text>
</g>
<!-- Node10 -->
<g id="node10" class="node">
<title>Node10</title>
<polygon fill="none" stroke="#bfbfbf" points="529.5,-551.5 529.5,-608.5 585.5,-608.5 585.5,-551.5 529.5,-551.5"/>
<text text-anchor="middle" x="557.5" y="-596.5" font-family="Helvetica,sans-Serif" font-size="10.00" fill="#000000">uint16_t</text>
<polyline fill="none" stroke="#bfbfbf" points="529.5,-589.5 585.5,-589.5 "/>
<text text-anchor="middle" x="557.5" y="-577.5" font-family="Helvetica,sans-Serif" font-size="10.00" fill="#000000"> </text>
<polyline fill="none" stroke="#bfbfbf" points="529.5,-570.5 585.5,-570.5 "/>
<text text-anchor="middle" x="557.5" y="-558.5" font-family="Helvetica,sans-Serif" font-size="10.00" fill="#000000"> </text>
</g>
<!-- Node10&#45;&gt;Node6 -->
<g id="edge9" class="edge">
<title>Node10&#45;&gt;Node6</title>
<path fill="none" stroke="#404040" d="M557.9957,-551.3186C558.8946,-517.7584 561.4191,-460.5917 568.5,-412 568.7981,-409.9544 569.1129,-407.8919 569.4427,-405.8167"/>
<polygon fill="none" stroke="#404040" points="569.4706,-405.6524 566.5339,-399.0664 571.4839,-393.8225 574.4205,-400.4085 569.4706,-405.6524"/>
<text text-anchor="middle" x="587" y="-470" font-family="Helvetica,sans-Serif" font-size="10.00" fill="#000000"> +cruID</text>
</g>
<!-- Node11 -->
<g id="node11" class="node">
<title>Node11</title>
<polygon fill="none" stroke="#bfbfbf" points="603.5,-551.5 603.5,-608.5 653.5,-608.5 653.5,-551.5 603.5,-551.5"/>
<text text-anchor="middle" x="628.5" y="-596.5" font-family="Helvetica,sans-Serif" font-size="10.00" fill="#000000">uint8_t</text>
<polyline fill="none" stroke="#bfbfbf" points="603.5,-589.5 653.5,-589.5 "/>
<text text-anchor="middle" x="628.5" y="-577.5" font-family="Helvetica,sans-Serif" font-size="10.00" fill="#000000"> </text>
<polyline fill="none" stroke="#bfbfbf" points="603.5,-570.5 653.5,-570.5 "/>
<text text-anchor="middle" x="628.5" y="-558.5" font-family="Helvetica,sans-Serif" font-size="10.00" fill="#000000"> </text>
</g>
<!-- Node11&#45;&gt;Node6 -->
<g id="edge10" class="edge">
<title>Node11&#45;&gt;Node6</title>
<path fill="none" stroke="#404040" d="M625.2152,-551.4819C621.3055,-517.5386 614.539,-458.793 608.4497,-405.9268"/>
<polygon fill="none" stroke="#404040" points="608.4139,-405.6155 603.7536,-400.1127 607.0407,-393.6944 611.701,-399.1972 608.4139,-405.6155"/>
<text text-anchor="middle" x="662.5" y="-481" font-family="Helvetica,sans-Serif" font-size="10.00" fill="#000000"> +linkID</text>
<text text-anchor="middle" x="662.5" y="-470" font-family="Helvetica,sans-Serif" font-size="10.00" fill="#000000">+endPointID</text>
<text text-anchor="middle" x="662.5" y="-459" font-family="Helvetica,sans-Serif" font-size="10.00" fill="#000000">+packetCounter</text>
</g>
<!-- Node12 -->
<g id="node12" class="node">
<title>Node12</title>
<polygon fill="none" stroke="#bfbfbf" points="672,-551.5 672,-608.5 779,-608.5 779,-551.5 672,-551.5"/>
<text text-anchor="middle" x="725.5" y="-596.5" font-family="Helvetica,sans-Serif" font-size="10.00" fill="#000000">anonymous:+@72</text>
<polyline fill="none" stroke="#bfbfbf" points="672,-589.5 779,-589.5 "/>
<text text-anchor="middle" x="725.5" y="-577.5" font-family="Helvetica,sans-Serif" font-size="10.00" fill="#000000"> </text>
<polyline fill="none" stroke="#bfbfbf" points="672,-570.5 779,-570.5 "/>
<text text-anchor="middle" x="725.5" y="-558.5" font-family="Helvetica,sans-Serif" font-size="10.00" fill="#000000"> </text>
</g>
<!-- Node12&#45;&gt;Node6 -->
<g id="edge11" class="edge">
<title>Node12&#45;&gt;Node6</title>
<path fill="none" stroke="#404040" d="M727.8271,-551.3858C729.4387,-516.6366 728.2236,-457.0855 706.5,-412 701.589,-401.8077 696.3435,-402.1535 688.5,-394 688.2142,-393.7029 687.9279,-393.4051 687.6413,-393.1069"/>
<polygon fill="none" stroke="#404040" points="687.532,-392.9925 680.4947,-391.4189 679.2406,-384.3177 686.2779,-385.8913 687.532,-392.9925"/>
<text text-anchor="middle" x="744.5" y="-470" font-family="Helvetica,sans-Serif" font-size="10.00" fill="#000000"> +@72</text>
</g>
<!-- Node13 -->
<g id="node13" class="node">
<title>Node13</title>
<polygon fill="none" stroke="#bfbfbf" points="797,-551.5 797,-608.5 904,-608.5 904,-551.5 797,-551.5"/>
<text text-anchor="middle" x="850.5" y="-596.5" font-family="Helvetica,sans-Serif" font-size="10.00" fill="#000000">anonymous:+@74</text>
<polyline fill="none" stroke="#bfbfbf" points="797,-589.5 904,-589.5 "/>
<text text-anchor="middle" x="850.5" y="-577.5" font-family="Helvetica,sans-Serif" font-size="10.00" fill="#000000"> </text>
<polyline fill="none" stroke="#bfbfbf" points="797,-570.5 904,-570.5 "/>
<text text-anchor="middle" x="850.5" y="-558.5" font-family="Helvetica,sans-Serif" font-size="10.00" fill="#000000"> </text>
</g>
<!-- Node13&#45;&gt;Node6 -->
<g id="edge13" class="edge">
<title>Node13&#45;&gt;Node6</title>
<path fill="none" stroke="#404040" d="M844.038,-551.4488C833.9476,-513.6221 810.7349,-447.5454 765.5,-412 740.4567,-392.3211 722.5145,-408.0412 689.753,-393.5674"/>
<polygon fill="none" stroke="#404040" points="689.7376,-393.5595 682.5697,-394.3472 679.0856,-388.0335 686.2536,-387.2458 689.7376,-393.5595"/>
<text text-anchor="middle" x="854.5" y="-470" font-family="Helvetica,sans-Serif" font-size="10.00" fill="#000000"> +@74</text>
</g>
<!-- Node14 -->
<g id="node14" class="node">
<title>Node14</title>
<polygon fill="none" stroke="#bfbfbf" points="922,-551.5 922,-608.5 1029,-608.5 1029,-551.5 922,-551.5"/>
<text text-anchor="middle" x="975.5" y="-596.5" font-family="Helvetica,sans-Serif" font-size="10.00" fill="#000000">anonymous:+@76</text>
<polyline fill="none" stroke="#bfbfbf" points="922,-589.5 1029,-589.5 "/>
<text text-anchor="middle" x="975.5" y="-577.5" font-family="Helvetica,sans-Serif" font-size="10.00" fill="#000000"> </text>
<polyline fill="none" stroke="#bfbfbf" points="922,-570.5 1029,-570.5 "/>
<text text-anchor="middle" x="975.5" y="-558.5" font-family="Helvetica,sans-Serif" font-size="10.00" fill="#000000"> </text>
</g>
<!-- Node14&#45;&gt;Node6 -->
<g id="edge14" class="edge">
<title>Node14&#45;&gt;Node6</title>
<path fill="none" stroke="#404040" d="M967.4126,-551.3959C954.783,-512.5463 926.3874,-444.2539 875.5,-412 808.1454,-369.3087 767.1157,-425.5608 690.1847,-393.8707"/>
<polygon fill="none" stroke="#404040" points="689.9982,-393.7855 682.8782,-394.9286 679.0846,-388.796 686.2046,-387.6529 689.9982,-393.7855"/>
<text text-anchor="middle" x="976.5" y="-470" font-family="Helvetica,sans-Serif" font-size="10.00" fill="#000000"> +@76</text>
</g>
<!-- Node15 -->
<g id="node15" class="node">
<title>Node15</title>
<polygon fill="none" stroke="#bfbfbf" points="1047,-551.5 1047,-608.5 1154,-608.5 1154,-551.5 1047,-551.5"/>
<text text-anchor="middle" x="1100.5" y="-596.5" font-family="Helvetica,sans-Serif" font-size="10.00" fill="#000000">anonymous:+@78</text>
<polyline fill="none" stroke="#bfbfbf" points="1047,-589.5 1154,-589.5 "/>
<text text-anchor="middle" x="1100.5" y="-577.5" font-family="Helvetica,sans-Serif" font-size="10.00" fill="#000000"> </text>
<polyline fill="none" stroke="#bfbfbf" points="1047,-570.5 1154,-570.5 "/>
<text text-anchor="middle" x="1100.5" y="-558.5" font-family="Helvetica,sans-Serif" font-size="10.00" fill="#000000"> </text>
</g>
<!-- Node15&#45;&gt;Node6 -->
<g id="edge15" class="edge">
<title>Node15&#45;&gt;Node6</title>
<path fill="none" stroke="#404040" d="M1092.1922,-551.4278C1079.1349,-512.2843 1049.7479,-443.2831 997.5,-412 941.3678,-378.3912 768.7292,-419.0044 690.3101,-393.4369"/>
<polygon fill="none" stroke="#404040" points="690.1625,-393.3784 683.1108,-394.8864 679.0067,-388.9572 686.0583,-387.4492 690.1625,-393.3784"/>
<text text-anchor="middle" x="1100.5" y="-470" font-family="Helvetica,sans-Serif" font-size="10.00" fill="#000000"> +@78</text>
</g>
<!-- Node16 -->
<g id="node16" class="node">
<title>Node16</title>
<polygon fill="none" stroke="#bfbfbf" points="1172,-551.5 1172,-608.5 1279,-608.5 1279,-551.5 1172,-551.5"/>
<text text-anchor="middle" x="1225.5" y="-596.5" font-family="Helvetica,sans-Serif" font-size="10.00" fill="#000000">anonymous:+@66</text>
<polyline fill="none" stroke="#bfbfbf" points="1172,-589.5 1279,-589.5 "/>
<text text-anchor="middle" x="1225.5" y="-577.5" font-family="Helvetica,sans-Serif" font-size="10.00" fill="#000000"> </text>
<polyline fill="none" stroke="#bfbfbf" points="1172,-570.5 1279,-570.5 "/>
<text text-anchor="middle" x="1225.5" y="-558.5" font-family="Helvetica,sans-Serif" font-size="10.00" fill="#000000"> </text>
</g>
<!-- Node16&#45;&gt;Node6 -->
<g id="edge16" class="edge">
<title>Node16&#45;&gt;Node6</title>
<path fill="none" stroke="#404040" d="M1217.0997,-551.2977C1203.9016,-511.9996 1174.2128,-442.8158 1121.5,-412 1041.4446,-365.1998 795.1545,-429.2908 690.7107,-393.7717"/>
<polygon fill="none" stroke="#404040" points="690.4291,-393.6594 683.3736,-395.1491 679.2848,-389.2092 686.3403,-387.7195 690.4291,-393.6594"/>
<text text-anchor="middle" x="1225.5" y="-470" font-family="Helvetica,sans-Serif" font-size="10.00" fill="#000000"> +@66</text>
</g>
<!-- Node17 -->
<g id="node17" class="node">
<title>Node17</title>
<polygon fill="none" stroke="#bfbfbf" points="1297,-551.5 1297,-608.5 1404,-608.5 1404,-551.5 1297,-551.5"/>
<text text-anchor="middle" x="1350.5" y="-596.5" font-family="Helvetica,sans-Serif" font-size="10.00" fill="#000000">anonymous:+@80</text>
<polyline fill="none" stroke="#bfbfbf" points="1297,-589.5 1404,-589.5 "/>
<text text-anchor="middle" x="1350.5" y="-577.5" font-family="Helvetica,sans-Serif" font-size="10.00" fill="#000000"> </text>
<polyline fill="none" stroke="#bfbfbf" points="1297,-570.5 1404,-570.5 "/>
<text text-anchor="middle" x="1350.5" y="-558.5" font-family="Helvetica,sans-Serif" font-size="10.00" fill="#000000"> </text>
</g>
<!-- Node17&#45;&gt;Node6 -->
<g id="edge17" class="edge">
<title>Node17&#45;&gt;Node6</title>
<path fill="none" stroke="#404040" d="M1342.1395,-551.2293C1328.9886,-511.85 1299.3555,-442.5704 1246.5,-412 1195.3194,-382.3984 786.0536,-416.2721 690.9405,-393.0958"/>
<polygon fill="none" stroke="#404040" points="690.6638,-393.0047 683.7131,-394.9253 679.2669,-389.2481 686.2175,-387.3274 690.6638,-393.0047"/>
<text text-anchor="middle" x="1350.5" y="-470" font-family="Helvetica,sans-Serif" font-size="10.00" fill="#000000"> +@80</text>
</g>
</g>
</svg>
