<?xml version="1.0" encoding="UTF-8" standalone="no"?>
<!DOCTYPE svg PUBLIC "-//W3C//DTD SVG 1.1//EN"
 "http://www.w3.org/Graphics/SVG/1.1/DTD/svg11.dtd">
<!-- Generated by graphviz version 2.40.1 (20161225.0304)
 -->
<!-- Title: o2::header::HeartbeatFrameEnvelope Pages: 1 -->
<svg width="1937pt" height="1014pt"
 viewBox="0.00 0.00 1936.67 1014.00" xmlns="http://www.w3.org/2000/svg" xmlns:xlink="http://www.w3.org/1999/xlink">
<g id="graph0" class="graph" transform="scale(1 1) rotate(0) translate(4 1010)">
<title>o2::header::HeartbeatFrameEnvelope</title>
<!-- Node2 -->
<g id="node1" class="node">
<title>Node2</title>
<polygon fill="#bfbfbf" stroke="#000000" points="913.6714,-.5 913.6714,-79.5 1072.6714,-79.5 1072.6714,-.5 913.6714,-.5"/>
<text text-anchor="start" x="921.6714" y="-67.5" font-family="Helvetica,sans-Serif" font-size="10.00" fill="#000000">o2::header::HeartbeatFrame</text>
<text text-anchor="middle" x="993.1714" y="-56.5" font-family="Helvetica,sans-Serif" font-size="10.00" fill="#000000">Envelope</text>
<polyline fill="none" stroke="#000000" points="913.6714,-49.5 1072.6714,-49.5 "/>
<text text-anchor="middle" x="993.1714" y="-37.5" font-family="Helvetica,sans-Serif" font-size="10.00" fill="#000000"> </text>
<polyline fill="none" stroke="#000000" points="913.6714,-30.5 1072.6714,-30.5 "/>
<text text-anchor="start" x="921.6714" y="-18.5" font-family="Helvetica,sans-Serif" font-size="10.00" fill="#000000">+ HeartbeatFrameEnvelope()</text>
<text text-anchor="start" x="921.6714" y="-7.5" font-family="Helvetica,sans-Serif" font-size="10.00" fill="#000000">+ HeartbeatFrameEnvelope()</text>
</g>
<!-- Node3 -->
<g id="node2" class="node">
<title>Node3</title>
<g id="a_node2"><a xlink:href="../../d8/dbd/structo2_1_1header_1_1BaseHeader.html" target="_top" xlink:title="the base header struct Every header type must begin (i.e. derive) with this. Don&#39;t use this struct di...">
<polygon fill="none" stroke="#000000" points="430.1714,-127.5 430.1714,-272.5 564.1714,-272.5 564.1714,-127.5 430.1714,-127.5"/>
<text text-anchor="middle" x="497.1714" y="-260.5" font-family="Helvetica,sans-Serif" font-size="10.00" fill="#000000">o2::header::BaseHeader</text>
<polyline fill="none" stroke="#000000" points="430.1714,-253.5 564.1714,-253.5 "/>
<text text-anchor="middle" x="497.1714" y="-241.5" font-family="Helvetica,sans-Serif" font-size="10.00" fill="#000000"> </text>
<polyline fill="none" stroke="#000000" points="430.1714,-234.5 564.1714,-234.5 "/>
<text text-anchor="start" x="438.1714" y="-222.5" font-family="Helvetica,sans-Serif" font-size="10.00" fill="#000000">+ BaseHeader()</text>
<text text-anchor="start" x="438.1714" y="-211.5" font-family="Helvetica,sans-Serif" font-size="10.00" fill="#000000">+ BaseHeader()</text>
<text text-anchor="start" x="438.1714" y="-200.5" font-family="Helvetica,sans-Serif" font-size="10.00" fill="#000000">+ BaseHeader()</text>
<text text-anchor="start" x="438.1714" y="-189.5" font-family="Helvetica,sans-Serif" font-size="10.00" fill="#000000">+ size()</text>
<text text-anchor="start" x="438.1714" y="-178.5" font-family="Helvetica,sans-Serif" font-size="10.00" fill="#000000">+ data()</text>
<text text-anchor="start" x="438.1714" y="-167.5" font-family="Helvetica,sans-Serif" font-size="10.00" fill="#000000">+ next()</text>
<text text-anchor="start" x="438.1714" y="-156.5" font-family="Helvetica,sans-Serif" font-size="10.00" fill="#000000">+ next()</text>
<text text-anchor="start" x="438.1714" y="-145.5" font-family="Helvetica,sans-Serif" font-size="10.00" fill="#000000">+ get()</text>
<text text-anchor="start" x="438.1714" y="-134.5" font-family="Helvetica,sans-Serif" font-size="10.00" fill="#000000">+ get()</text>
</a>
</g>
</g>
<!-- Node3&#45;&gt;Node2 -->
<g id="edge1" class="edge">
<title>Node3&#45;&gt;Node2</title>
<path fill="none" stroke="#191970" d="M573.8729,-175.2576C666.0697,-145.5167 820.0222,-95.8546 913.5153,-65.6955"/>
<polygon fill="none" stroke="#191970" points="572.7646,-171.9374 564.3221,-178.3385 574.9137,-178.5994 572.7646,-171.9374"/>
</g>
<!-- Node4 -->
<g id="node3" class="node">
<title>Node4</title>
<g id="a_node3"><a xlink:href="../../d9/db3/structo2_1_1header_1_1Descriptor.html" target="_top" xlink:title="{o2::header::Descriptor\l\&lt; gSizeHeaderDescriptionString \&gt;\n||+ Descriptor()\l+ Descriptor()\l+ Descriptor()\l+ Descriptor()\l+ operator=()\l+ operator ItgType()\l+ runtimeInit()\l+ operator==()\l+ operator==()\l+ operator\&lt;()\l+ operator!=()\l+ operator!=()\l+ as()\l+ print()\l}">
<polygon fill="none" stroke="#000000" points="521.6714,-375.5 521.6714,-586.5 706.6714,-586.5 706.6714,-375.5 521.6714,-375.5"/>
<text text-anchor="start" x="529.6714" y="-574.5" font-family="Helvetica,sans-Serif" font-size="10.00" fill="#000000">o2::header::Descriptor</text>
<text text-anchor="middle" x="614.1714" y="-563.5" font-family="Helvetica,sans-Serif" font-size="10.00" fill="#000000">&lt; gSizeHeaderDescriptionString &gt;</text>
<polyline fill="none" stroke="#000000" points="521.6714,-556.5 706.6714,-556.5 "/>
<text text-anchor="middle" x="614.1714" y="-544.5" font-family="Helvetica,sans-Serif" font-size="10.00" fill="#000000"> </text>
<polyline fill="none" stroke="#000000" points="521.6714,-537.5 706.6714,-537.5 "/>
<text text-anchor="start" x="529.6714" y="-525.5" font-family="Helvetica,sans-Serif" font-size="10.00" fill="#000000">+ Descriptor()</text>
<text text-anchor="start" x="529.6714" y="-514.5" font-family="Helvetica,sans-Serif" font-size="10.00" fill="#000000">+ Descriptor()</text>
<text text-anchor="start" x="529.6714" y="-503.5" font-family="Helvetica,sans-Serif" font-size="10.00" fill="#000000">+ Descriptor()</text>
<text text-anchor="start" x="529.6714" y="-492.5" font-family="Helvetica,sans-Serif" font-size="10.00" fill="#000000">+ Descriptor()</text>
<text text-anchor="start" x="529.6714" y="-481.5" font-family="Helvetica,sans-Serif" font-size="10.00" fill="#000000">+ operator=()</text>
<text text-anchor="start" x="529.6714" y="-470.5" font-family="Helvetica,sans-Serif" font-size="10.00" fill="#000000">+ operator ItgType()</text>
<text text-anchor="start" x="529.6714" y="-459.5" font-family="Helvetica,sans-Serif" font-size="10.00" fill="#000000">+ runtimeInit()</text>
<text text-anchor="start" x="529.6714" y="-448.5" font-family="Helvetica,sans-Serif" font-size="10.00" fill="#000000">+ operator==()</text>
<text text-anchor="start" x="529.6714" y="-437.5" font-family="Helvetica,sans-Serif" font-size="10.00" fill="#000000">+ operator==()</text>
<text text-anchor="start" x="529.6714" y="-426.5" font-family="Helvetica,sans-Serif" font-size="10.00" fill="#000000">+ operator&lt;()</text>
<text text-anchor="start" x="529.6714" y="-415.5" font-family="Helvetica,sans-Serif" font-size="10.00" fill="#000000">+ operator!=()</text>
<text text-anchor="start" x="529.6714" y="-404.5" font-family="Helvetica,sans-Serif" font-size="10.00" fill="#000000">+ operator!=()</text>
<text text-anchor="start" x="529.6714" y="-393.5" font-family="Helvetica,sans-Serif" font-size="10.00" fill="#000000">+ as()</text>
<text text-anchor="start" x="529.6714" y="-382.5" font-family="Helvetica,sans-Serif" font-size="10.00" fill="#000000">+ print()</text>
</a>
</g>
</g>
<!-- Node4&#45;&gt;Node3 -->
<g id="edge2" class="edge">
<title>Node4&#45;&gt;Node3</title>
<path fill="none" stroke="#404040" d="M571.9506,-375.2508C560.7986,-347.754 548.6641,-318.2141 537.1714,-291 536.201,-288.7022 535.2127,-286.3739 534.2116,-284.0257"/>
<polygon fill="none" stroke="#404040" points="534.1836,-283.9603 528.142,-280.0234 529.4524,-272.9323 535.494,-276.8692 534.1836,-283.9603"/>
<text text-anchor="middle" x="596.1714" y="-321.5" font-family="Helvetica,sans-Serif" font-size="10.00" fill="#000000"> +description</text>
</g>
<!-- Node5 -->
<g id="node4" class="node">
<title>Node5</title>
<polygon fill="none" stroke="#bfbfbf" points="442.6714,-948.5 442.6714,-1005.5 481.6714,-1005.5 481.6714,-948.5 442.6714,-948.5"/>
<text text-anchor="middle" x="462.1714" y="-993.5" font-family="Helvetica,sans-Serif" font-size="10.00" fill="#000000">Type</text>
<polyline fill="none" stroke="#bfbfbf" points="442.6714,-986.5 481.6714,-986.5 "/>
<text text-anchor="middle" x="462.1714" y="-974.5" font-family="Helvetica,sans-Serif" font-size="10.00" fill="#000000"> </text>
<polyline fill="none" stroke="#bfbfbf" points="442.6714,-967.5 481.6714,-967.5 "/>
<text text-anchor="middle" x="462.1714" y="-955.5" font-family="Helvetica,sans-Serif" font-size="10.00" fill="#000000"> </text>
</g>
<!-- Node5&#45;&gt;Node4 -->
<g id="edge3" class="edge">
<title>Node5&#45;&gt;Node4</title>
<path fill="none" stroke="#404040" d="M481.9637,-974.059C506.1167,-969.3378 546.1982,-957.6133 566.1714,-930 635.064,-834.7546 527.1585,-763.5771 594.1714,-667 604.3693,-652.303 620.7668,-664.2169 630.1714,-649 640.4523,-632.3651 631.4252,-624.5153 630.1714,-605 630.0398,-602.9523 629.8962,-600.8868 629.7415,-598.8075"/>
<polygon fill="none" stroke="#404040" points="629.7356,-598.736 625.2527,-593.0876 628.7424,-586.7771 633.2253,-592.4255 629.7356,-598.736"/>
<text text-anchor="middle" x="606.6714" y="-770.5" font-family="Helvetica,sans-Serif" font-size="10.00" fill="#000000"> +itg</text>
</g>
<!-- Node9 -->
<g id="node8" class="node">
<title>Node9</title>
<g id="a_node8"><a xlink:href="../../d9/db3/structo2_1_1header_1_1Descriptor.html" target="_top" xlink:title="{o2::header::Descriptor\l\&lt; N, PrinterPolicy \&gt;\n||+ Descriptor()\l+ Descriptor()\l+ Descriptor()\l+ operator=()\l+ operator ItgType()\l+ Descriptor()\l+ runtimeInit()\l+ operator==()\l+ operator\&lt;()\l+ operator!=()\l+ operator==()\l+ operator!=()\l+ as()\l+ print()\l}">
<polygon fill="none" stroke="#000000" points="348.6714,-667.5 348.6714,-878.5 473.6714,-878.5 473.6714,-667.5 348.6714,-667.5"/>
<text text-anchor="start" x="356.6714" y="-866.5" font-family="Helvetica,sans-Serif" font-size="10.00" fill="#000000">o2::header::Descriptor</text>
<text text-anchor="middle" x="411.1714" y="-855.5" font-family="Helvetica,sans-Serif" font-size="10.00" fill="#000000">&lt; N, PrinterPolicy &gt;</text>
<polyline fill="none" stroke="#000000" points="348.6714,-848.5 473.6714,-848.5 "/>
<text text-anchor="middle" x="411.1714" y="-836.5" font-family="Helvetica,sans-Serif" font-size="10.00" fill="#000000"> </text>
<polyline fill="none" stroke="#000000" points="348.6714,-829.5 473.6714,-829.5 "/>
<text text-anchor="start" x="356.6714" y="-817.5" font-family="Helvetica,sans-Serif" font-size="10.00" fill="#000000">+ Descriptor()</text>
<text text-anchor="start" x="356.6714" y="-806.5" font-family="Helvetica,sans-Serif" font-size="10.00" fill="#000000">+ Descriptor()</text>
<text text-anchor="start" x="356.6714" y="-795.5" font-family="Helvetica,sans-Serif" font-size="10.00" fill="#000000">+ Descriptor()</text>
<text text-anchor="start" x="356.6714" y="-784.5" font-family="Helvetica,sans-Serif" font-size="10.00" fill="#000000">+ operator=()</text>
<text text-anchor="start" x="356.6714" y="-773.5" font-family="Helvetica,sans-Serif" font-size="10.00" fill="#000000">+ operator ItgType()</text>
<text text-anchor="start" x="356.6714" y="-762.5" font-family="Helvetica,sans-Serif" font-size="10.00" fill="#000000">+ Descriptor()</text>
<text text-anchor="start" x="356.6714" y="-751.5" font-family="Helvetica,sans-Serif" font-size="10.00" fill="#000000">+ runtimeInit()</text>
<text text-anchor="start" x="356.6714" y="-740.5" font-family="Helvetica,sans-Serif" font-size="10.00" fill="#000000">+ operator==()</text>
<text text-anchor="start" x="356.6714" y="-729.5" font-family="Helvetica,sans-Serif" font-size="10.00" fill="#000000">+ operator&lt;()</text>
<text text-anchor="start" x="356.6714" y="-718.5" font-family="Helvetica,sans-Serif" font-size="10.00" fill="#000000">+ operator!=()</text>
<text text-anchor="start" x="356.6714" y="-707.5" font-family="Helvetica,sans-Serif" font-size="10.00" fill="#000000">+ operator==()</text>
<text text-anchor="start" x="356.6714" y="-696.5" font-family="Helvetica,sans-Serif" font-size="10.00" fill="#000000">+ operator!=()</text>
<text text-anchor="start" x="356.6714" y="-685.5" font-family="Helvetica,sans-Serif" font-size="10.00" fill="#000000">+ as()</text>
<text text-anchor="start" x="356.6714" y="-674.5" font-family="Helvetica,sans-Serif" font-size="10.00" fill="#000000">+ print()</text>
</a>
</g>
</g>
<!-- Node5&#45;&gt;Node9 -->
<g id="edge8" class="edge">
<title>Node5&#45;&gt;Node9</title>
<path fill="none" stroke="#404040" d="M454.9725,-948.2045C451.0391,-932.4709 445.8779,-911.826 440.4838,-890.2496"/>
<polygon fill="none" stroke="#404040" points="440.4692,-890.1908 435.1333,-885.3401 437.5587,-878.5491 442.8945,-883.3998 440.4692,-890.1908"/>
<text text-anchor="middle" x="462.6714" y="-911" font-family="Helvetica,sans-Serif" font-size="10.00" fill="#000000"> +itg</text>
</g>
<!-- Node12 -->
<g id="node11" class="node">
<title>Node12</title>
<g id="a_node11"><a xlink:href="../../d9/db3/structo2_1_1header_1_1Descriptor.html" target="_top" xlink:title="{o2::header::Descriptor\l\&lt; gSizeSerializationMethodString \&gt;\n||+ Descriptor()\l+ Descriptor()\l+ Descriptor()\l+ Descriptor()\l+ operator=()\l+ operator ItgType()\l+ runtimeInit()\l+ operator==()\l+ operator==()\l+ operator\&lt;()\l+ operator!=()\l+ operator!=()\l+ as()\l+ print()\l}">
<polygon fill="none" stroke="#000000" points="308.6714,-375.5 308.6714,-586.5 499.6714,-586.5 499.6714,-375.5 308.6714,-375.5"/>
<text text-anchor="start" x="316.6714" y="-574.5" font-family="Helvetica,sans-Serif" font-size="10.00" fill="#000000">o2::header::Descriptor</text>
<text text-anchor="middle" x="404.1714" y="-563.5" font-family="Helvetica,sans-Serif" font-size="10.00" fill="#000000">&lt; gSizeSerializationMethodString &gt;</text>
<polyline fill="none" stroke="#000000" points="308.6714,-556.5 499.6714,-556.5 "/>
<text text-anchor="middle" x="404.1714" y="-544.5" font-family="Helvetica,sans-Serif" font-size="10.00" fill="#000000"> </text>
<polyline fill="none" stroke="#000000" points="308.6714,-537.5 499.6714,-537.5 "/>
<text text-anchor="start" x="316.6714" y="-525.5" font-family="Helvetica,sans-Serif" font-size="10.00" fill="#000000">+ Descriptor()</text>
<text text-anchor="start" x="316.6714" y="-514.5" font-family="Helvetica,sans-Serif" font-size="10.00" fill="#000000">+ Descriptor()</text>
<text text-anchor="start" x="316.6714" y="-503.5" font-family="Helvetica,sans-Serif" font-size="10.00" fill="#000000">+ Descriptor()</text>
<text text-anchor="start" x="316.6714" y="-492.5" font-family="Helvetica,sans-Serif" font-size="10.00" fill="#000000">+ Descriptor()</text>
<text text-anchor="start" x="316.6714" y="-481.5" font-family="Helvetica,sans-Serif" font-size="10.00" fill="#000000">+ operator=()</text>
<text text-anchor="start" x="316.6714" y="-470.5" font-family="Helvetica,sans-Serif" font-size="10.00" fill="#000000">+ operator ItgType()</text>
<text text-anchor="start" x="316.6714" y="-459.5" font-family="Helvetica,sans-Serif" font-size="10.00" fill="#000000">+ runtimeInit()</text>
<text text-anchor="start" x="316.6714" y="-448.5" font-family="Helvetica,sans-Serif" font-size="10.00" fill="#000000">+ operator==()</text>
<text text-anchor="start" x="316.6714" y="-437.5" font-family="Helvetica,sans-Serif" font-size="10.00" fill="#000000">+ operator==()</text>
<text text-anchor="start" x="316.6714" y="-426.5" font-family="Helvetica,sans-Serif" font-size="10.00" fill="#000000">+ operator&lt;()</text>
<text text-anchor="start" x="316.6714" y="-415.5" font-family="Helvetica,sans-Serif" font-size="10.00" fill="#000000">+ operator!=()</text>
<text text-anchor="start" x="316.6714" y="-404.5" font-family="Helvetica,sans-Serif" font-size="10.00" fill="#000000">+ operator!=()</text>
<text text-anchor="start" x="316.6714" y="-393.5" font-family="Helvetica,sans-Serif" font-size="10.00" fill="#000000">+ as()</text>
<text text-anchor="start" x="316.6714" y="-382.5" font-family="Helvetica,sans-Serif" font-size="10.00" fill="#000000">+ print()</text>
</a>
</g>
</g>
<!-- Node5&#45;&gt;Node12 -->
<g id="edge16" class="edge">
<title>Node5&#45;&gt;Node12</title>
<path fill="none" stroke="#404040" d="M442.354,-954.6805C439.4537,-952.189 436.3624,-949.8776 433.1714,-948 408.0733,-933.2322 395.6074,-944.1778 370.1714,-930 340.7671,-913.6103 328.8373,-909.3009 314.1714,-879 287.5992,-824.0999 277.0483,-662.2181 298.1714,-605 299.638,-601.0271 301.295,-597.0953 303.1151,-593.2133"/>
<polygon fill="none" stroke="#404040" points="303.1781,-593.0903 302.3564,-585.9261 308.6534,-582.4122 309.4751,-589.5764 303.1781,-593.0903"/>
<text text-anchor="middle" x="326.6714" y="-770.5" font-family="Helvetica,sans-Serif" font-size="10.00" fill="#000000"> +itg</text>
</g>
<!-- Node6 -->
<g id="node5" class="node">
<title>Node6</title>
<polygon fill="none" stroke="#bfbfbf" points="122.1714,-948.5 122.1714,-1005.5 160.1714,-1005.5 160.1714,-948.5 122.1714,-948.5"/>
<text text-anchor="middle" x="141.1714" y="-993.5" font-family="Helvetica,sans-Serif" font-size="10.00" fill="#000000">char</text>
<polyline fill="none" stroke="#bfbfbf" points="122.1714,-986.5 160.1714,-986.5 "/>
<text text-anchor="middle" x="141.1714" y="-974.5" font-family="Helvetica,sans-Serif" font-size="10.00" fill="#000000"> </text>
<polyline fill="none" stroke="#bfbfbf" points="122.1714,-967.5 160.1714,-967.5 "/>
<text text-anchor="middle" x="141.1714" y="-955.5" font-family="Helvetica,sans-Serif" font-size="10.00" fill="#000000"> </text>
</g>
<!-- Node6&#45;&gt;Node3 -->
<g id="edge13" class="edge">
<title>Node6&#45;&gt;Node3</title>
<path fill="none" stroke="#404040" d="M122.1423,-949.858C118.1851,-943.52 114.2787,-936.6686 111.1714,-930 101.1377,-908.467 100.5901,-902.1297 95.1714,-879 43.8647,-659.9986 -62.2617,-570.3884 49.1714,-375 87.0655,-308.5559 300.1707,-247.5854 418.2972,-218.2843"/>
<polygon fill="none" stroke="#404040" points="418.4675,-218.2425 423.3395,-212.9261 430.1208,-215.3785 425.2488,-220.695 418.4675,-218.2425"/>
<text text-anchor="middle" x="54.1714" y="-624.5" font-family="Helvetica,sans-Serif" font-size="10.00" fill="#000000"> +magicString</text>
</g>
<!-- Node6&#45;&gt;Node4 -->
<g id="edge4" class="edge">
<title>Node6&#45;&gt;Node4</title>
<path fill="none" stroke="#404040" d="M144.1696,-948.3298C151.6894,-880.6408 173.0064,-713.1348 204.1714,-667 232.1861,-625.5287 250.8949,-621.4204 298.1714,-605 386.6614,-574.2651 423.2377,-626.5142 508.1714,-587 509.012,-586.6089 509.8498,-586.2082 510.6846,-585.7981"/>
<polygon fill="none" stroke="#404040" points="510.8298,-585.719 514.1813,-579.334 521.3641,-579.9719 518.0127,-586.3569 510.8298,-585.719"/>
<text text-anchor="middle" x="216.6714" y="-770.5" font-family="Helvetica,sans-Serif" font-size="10.00" fill="#000000"> +str</text>
</g>
<!-- Node6&#45;&gt;Node9 -->
<g id="edge9" class="edge">
<title>Node6&#45;&gt;Node9</title>
<path fill="none" stroke="#404040" d="M160.1727,-970.7664C196.8922,-958.0311 278.8471,-926.1887 334.1714,-879 336.0209,-877.4224 337.8502,-875.7918 339.6578,-874.1154"/>
<polygon fill="none" stroke="#404040" points="339.9649,-873.8124 341.4267,-866.751 348.5071,-865.3844 347.0454,-872.4458 339.9649,-873.8124"/>
<text text-anchor="middle" x="318.6714" y="-911" font-family="Helvetica,sans-Serif" font-size="10.00" fill="#000000"> +str</text>
</g>
<!-- Node6&#45;&gt;Node12 -->
<g id="edge17" class="edge">
<title>Node6&#45;&gt;Node12</title>
<path fill="none" stroke="#404040" d="M130.0428,-948.3306C109.5178,-890.3542 72.5476,-757.0524 127.1714,-667 158.1005,-616.0105 191.3323,-628.4353 246.1714,-605 266.1876,-596.4461 275.6039,-599.1776 298.1236,-586.94"/>
<polygon fill="none" stroke="#404040" points="298.3236,-586.8215 301.4452,-580.321 308.6462,-580.7023 305.5246,-587.2028 298.3236,-586.8215"/>
<text text-anchor="middle" x="139.6714" y="-770.5" font-family="Helvetica,sans-Serif" font-size="10.00" fill="#000000"> +str</text>
</g>
<!-- Node7 -->
<g id="node6" class="node">
<title>Node7</title>
<polygon fill="none" stroke="#bfbfbf" points="317.6714,-948.5 317.6714,-1005.5 424.6714,-1005.5 424.6714,-948.5 317.6714,-948.5"/>
<text text-anchor="middle" x="371.1714" y="-993.5" font-family="Helvetica,sans-Serif" font-size="10.00" fill="#000000">anonymous:+@24</text>
<polyline fill="none" stroke="#bfbfbf" points="317.6714,-986.5 424.6714,-986.5 "/>
<text text-anchor="middle" x="371.1714" y="-974.5" font-family="Helvetica,sans-Serif" font-size="10.00" fill="#000000"> </text>
<polyline fill="none" stroke="#bfbfbf" points="317.6714,-967.5 424.6714,-967.5 "/>
<text text-anchor="middle" x="371.1714" y="-955.5" font-family="Helvetica,sans-Serif" font-size="10.00" fill="#000000"> </text>
</g>
<!-- Node7&#45;&gt;Node4 -->
<g id="edge5" class="edge">
<title>Node7&#45;&gt;Node4</title>
<path fill="none" stroke="#404040" d="M396.386,-948.2214C401.6191,-942.2134 407.0868,-935.91 412.1714,-930 424.7161,-915.419 424.6979,-908.4257 440.1714,-897 456.5089,-884.9364 469.0382,-894.4908 482.1714,-879 544.9089,-805.0003 466.1996,-736.2228 534.1714,-667 556.0753,-644.693 582.2311,-673.0784 602.1714,-649 614.0283,-634.6825 620.7363,-617.1154 624.1214,-598.7956"/>
<polygon fill="none" stroke="#404040" points="624.1571,-598.5495 621.0637,-592.0356 625.8868,-586.6748 628.9802,-593.1887 624.1571,-598.5495"/>
<text text-anchor="middle" x="551.1714" y="-770.5" font-family="Helvetica,sans-Serif" font-size="10.00" fill="#000000"> +@24</text>
</g>
<!-- Node7&#45;&gt;Node9 -->
<g id="edge10" class="edge">
<title>Node7&#45;&gt;Node9</title>
<path fill="none" stroke="#404040" d="M372.4766,-948.3344C373.4761,-933.0184 375.2078,-913.8906 378.1714,-897 378.5519,-894.8315 378.9521,-892.6457 379.3701,-890.447"/>
<polygon fill="none" stroke="#404040" points="379.3885,-890.3558 376.6545,-883.683 381.7624,-878.5929 384.4964,-885.2656 379.3885,-890.3558"/>
<text text-anchor="middle" x="395.1714" y="-911" font-family="Helvetica,sans-Serif" font-size="10.00" fill="#000000"> +@24</text>
</g>
<!-- Node7&#45;&gt;Node12 -->
<g id="edge18" class="edge">
<title>Node7&#45;&gt;Node12</title>
<path fill="none" stroke="#404040" d="M317.3604,-951.5836C290.2302,-935.2718 260.6851,-911.0927 249.1714,-879 217.3534,-790.3127 240.1782,-760.7921 249.1714,-667 251.8503,-639.0612 243.9674,-627.176 261.1714,-605 270.926,-592.4263 280.5645,-596.0469 298.4758,-586.394"/>
<polygon fill="none" stroke="#404040" points="298.4921,-586.3837 301.4318,-579.799 308.6407,-579.9801 305.7009,-586.5648 298.4921,-586.3837"/>
<text text-anchor="middle" x="266.1714" y="-770.5" font-family="Helvetica,sans-Serif" font-size="10.00" fill="#000000"> +@24</text>
</g>
<!-- Node8 -->
<g id="node7" class="node">
<title>Node8</title>
<polygon fill="none" stroke="#bfbfbf" points="713.1714,-948.5 713.1714,-1005.5 757.1714,-1005.5 757.1714,-948.5 713.1714,-948.5"/>
<text text-anchor="middle" x="735.1714" y="-993.5" font-family="Helvetica,sans-Serif" font-size="10.00" fill="#000000">static</text>
<polyline fill="none" stroke="#bfbfbf" points="713.1714,-986.5 757.1714,-986.5 "/>
<text text-anchor="middle" x="735.1714" y="-974.5" font-family="Helvetica,sans-Serif" font-size="10.00" fill="#000000"> </text>
<polyline fill="none" stroke="#bfbfbf" points="713.1714,-967.5 757.1714,-967.5 "/>
<text text-anchor="middle" x="735.1714" y="-955.5" font-family="Helvetica,sans-Serif" font-size="10.00" fill="#000000"> </text>
</g>
<!-- Node8&#45;&gt;Node2 -->
<g id="edge35" class="edge">
<title>Node8&#45;&gt;Node2</title>
<path fill="none" stroke="#404040" d="M757.4207,-962.7535C769.2204,-954.3372 783.2805,-942.8308 793.1714,-930 827.4258,-885.5639 853.7043,-866.4495 907.1714,-649 936.4108,-530.084 919.4482,-496.3107 936.1714,-375 950.0601,-274.2505 971.091,-157.2795 983.347,-91.6203"/>
<polygon fill="none" stroke="#404040" points="983.3925,-91.3774 980.5662,-84.7432 985.6031,-79.5827 988.4293,-86.2169 983.3925,-91.3774"/>
<text text-anchor="middle" x="991.6714" y="-489.5" font-family="Helvetica,sans-Serif" font-size="10.00" fill="#000000"> +sHeaderType</text>
<text text-anchor="middle" x="991.6714" y="-478.5" font-family="Helvetica,sans-Serif" font-size="10.00" fill="#000000">+sSerializationMethod</text>
<text text-anchor="middle" x="991.6714" y="-467.5" font-family="Helvetica,sans-Serif" font-size="10.00" fill="#000000">+sVersion</text>
</g>
<!-- Node8&#45;&gt;Node3 -->
<g id="edge22" class="edge">
<title>Node8&#45;&gt;Node3</title>
<path fill="none" stroke="#404040" d="M757.4445,-949.3284C770.9805,-930.6722 786.9955,-904.8319 794.1714,-879 819.3905,-788.2155 806.583,-760.4012 794.1714,-667 776.4615,-533.728 781.8321,-491.7536 715.1714,-375 682.5516,-317.8678 623.3544,-272.1733 574.8714,-241.8224"/>
<polygon fill="none" stroke="#404040" points="574.6156,-241.6656 567.4096,-241.9378 564.3868,-235.3908 571.5928,-235.1186 574.6156,-241.6656"/>
<text text-anchor="middle" x="847.6714" y="-641" font-family="Helvetica,sans-Serif" font-size="10.00" fill="#000000"> +sMagicString</text>
<text text-anchor="middle" x="847.6714" y="-630" font-family="Helvetica,sans-Serif" font-size="10.00" fill="#000000">+sHeaderType</text>
<text text-anchor="middle" x="847.6714" y="-619" font-family="Helvetica,sans-Serif" font-size="10.00" fill="#000000">+sSerializationMethod</text>
<text text-anchor="middle" x="847.6714" y="-608" font-family="Helvetica,sans-Serif" font-size="10.00" fill="#000000">+sVersion</text>
</g>
<!-- Node8&#45;&gt;Node4 -->
<g id="edge6" class="edge">
<title>Node8&#45;&gt;Node4</title>
<path fill="none" stroke="#404040" d="M734.6189,-948.3945C733.0287,-893.2498 726.8806,-768.6963 703.1714,-667 696.4983,-638.3771 692.214,-631.81 680.1714,-605 679.0753,-602.5599 677.952,-600.1012 676.8058,-597.6301"/>
<polygon fill="none" stroke="#404040" points="676.7821,-597.58 670.5993,-593.8688 671.6471,-586.7342 677.8299,-590.4454 676.7821,-597.58"/>
<text text-anchor="middle" x="761.1714" y="-781.5" font-family="Helvetica,sans-Serif" font-size="10.00" fill="#000000"> +arraySize</text>
<text text-anchor="middle" x="761.1714" y="-770.5" font-family="Helvetica,sans-Serif" font-size="10.00" fill="#000000">+size</text>
<text text-anchor="middle" x="761.1714" y="-759.5" font-family="Helvetica,sans-Serif" font-size="10.00" fill="#000000">+bitcount</text>
</g>
<!-- Node8&#45;&gt;Node9 -->
<g id="edge11" class="edge">
<title>Node8&#45;&gt;Node9</title>
<path fill="none" stroke="#404040" d="M713.1511,-973.7994C666.15,-965.9055 554.8678,-941.414 488.1714,-879 486.181,-877.1374 484.2083,-875.217 482.2558,-873.2481"/>
<polygon fill="none" stroke="#404040" points="482.0753,-873.057 475.0471,-871.443 473.8338,-864.3347 480.862,-865.9487 482.0753,-873.057"/>
<text text-anchor="middle" x="596.1714" y="-922" font-family="Helvetica,sans-Serif" font-size="10.00" fill="#000000"> +arraySize</text>
<text text-anchor="middle" x="596.1714" y="-911" font-family="Helvetica,sans-Serif" font-size="10.00" fill="#000000">+size</text>
<text text-anchor="middle" x="596.1714" y="-900" font-family="Helvetica,sans-Serif" font-size="10.00" fill="#000000">+bitcount</text>
</g>
<!-- Node8&#45;&gt;Node12 -->
<g id="edge19" class="edge">
<title>Node8&#45;&gt;Node12</title>
<path fill="none" stroke="#404040" d="M712.9532,-961.0801C690.6074,-943.6915 657.2308,-913.6515 641.1714,-879 615.3602,-823.3068 649.954,-648.0237 606.1714,-605 575.8315,-575.186 549.8496,-606.7416 512.1714,-587 511.5169,-586.6571 510.8637,-586.3089 510.212,-585.9556"/>
<polygon fill="none" stroke="#404040" points="510.1219,-585.9026 502.9219,-586.3029 499.7832,-579.8107 506.9832,-579.4104 510.1219,-585.9026"/>
<text text-anchor="middle" x="670.1714" y="-781.5" font-family="Helvetica,sans-Serif" font-size="10.00" fill="#000000"> +arraySize</text>
<text text-anchor="middle" x="670.1714" y="-770.5" font-family="Helvetica,sans-Serif" font-size="10.00" fill="#000000">+size</text>
<text text-anchor="middle" x="670.1714" y="-759.5" font-family="Helvetica,sans-Serif" font-size="10.00" fill="#000000">+bitcount</text>
</g>
<!-- Node9&#45;&gt;Node4 -->
<g id="edge7" class="edge">
<title>Node9&#45;&gt;Node4</title>
<path fill="none" stroke="#ffa500" d="M444.6243,-657.356C452.9394,-634.2496 461.8536,-614.237 470.1714,-605 482.6765,-591.1127 492.8957,-597.7651 508.1714,-587 512.6388,-583.8517 517.0866,-580.5066 521.488,-577.0182"/>
<polygon fill="#ffa500" stroke="#ffa500" points="441.2269,-656.4679 441.2246,-667.0627 447.8334,-658.7818 441.2269,-656.4679"/>
<text text-anchor="start" x="470.1714" y="-630" font-family="Helvetica,sans-Serif" font-size="10.00" fill="#000000"> &lt; gSizeHeaderDescription</text>
<text text-anchor="middle" x="536.1714" y="-619" font-family="Helvetica,sans-Serif" font-size="10.00" fill="#000000">String &gt;</text>
</g>
<!-- Node9&#45;&gt;Node12 -->
<g id="edge20" class="edge">
<title>Node9&#45;&gt;Node12</title>
<path fill="none" stroke="#ffa500" d="M341.932,-675.0655C339.3723,-672.2966 336.7829,-669.6006 334.1714,-667 324.4697,-657.3391 315.4134,-661.1858 309.1714,-649 298.7838,-628.7209 300.6174,-607.3616 308.9128,-586.9267"/>
<polygon fill="#ffa500" stroke="#ffa500" points="339.3548,-677.4341 348.6326,-682.55 344.5701,-672.765 339.3548,-677.4341"/>
<text text-anchor="start" x="309.1714" y="-630" font-family="Helvetica,sans-Serif" font-size="10.00" fill="#000000"> &lt; gSizeSerializationMethod</text>
<text text-anchor="middle" x="378.1714" y="-619" font-family="Helvetica,sans-Serif" font-size="10.00" fill="#000000">String &gt;</text>
</g>
<!-- Node10 -->
<g id="node9" class="node">
<title>Node10</title>
<polygon fill="none" stroke="#bfbfbf" points="58.6714,-452.5 58.6714,-509.5 165.6714,-509.5 165.6714,-452.5 58.6714,-452.5"/>
<text text-anchor="middle" x="112.1714" y="-497.5" font-family="Helvetica,sans-Serif" font-size="10.00" fill="#000000">anonymous:+@26</text>
<polyline fill="none" stroke="#bfbfbf" points="58.6714,-490.5 165.6714,-490.5 "/>
<text text-anchor="middle" x="112.1714" y="-478.5" font-family="Helvetica,sans-Serif" font-size="10.00" fill="#000000"> </text>
<polyline fill="none" stroke="#bfbfbf" points="58.6714,-471.5 165.6714,-471.5 "/>
<text text-anchor="middle" x="112.1714" y="-459.5" font-family="Helvetica,sans-Serif" font-size="10.00" fill="#000000"> </text>
</g>
<!-- Node10&#45;&gt;Node3 -->
<g id="edge12" class="edge">
<title>Node10&#45;&gt;Node3</title>
<path fill="none" stroke="#404040" d="M125.3726,-452.1249C136.4689,-429.6761 153.7652,-398.5043 174.1714,-375 239.6578,-299.5714 345.914,-250.9348 418.5424,-224.5404"/>
<polygon fill="none" stroke="#404040" points="418.5946,-224.5219 422.9042,-218.7402 429.8987,-220.4945 425.5891,-226.2762 418.5946,-224.5219"/>
<text text-anchor="middle" x="291.1714" y="-321.5" font-family="Helvetica,sans-Serif" font-size="10.00" fill="#000000"> +@26</text>
</g>
<!-- Node11 -->
<g id="node10" class="node">
<title>Node11</title>
<polygon fill="none" stroke="#bfbfbf" points="183.6714,-452.5 183.6714,-509.5 290.6714,-509.5 290.6714,-452.5 183.6714,-452.5"/>
<text text-anchor="middle" x="237.1714" y="-497.5" font-family="Helvetica,sans-Serif" font-size="10.00" fill="#000000">anonymous:+@28</text>
<polyline fill="none" stroke="#bfbfbf" points="183.6714,-490.5 290.6714,-490.5 "/>
<text text-anchor="middle" x="237.1714" y="-478.5" font-family="Helvetica,sans-Serif" font-size="10.00" fill="#000000"> </text>
<polyline fill="none" stroke="#bfbfbf" points="183.6714,-471.5 290.6714,-471.5 "/>
<text text-anchor="middle" x="237.1714" y="-459.5" font-family="Helvetica,sans-Serif" font-size="10.00" fill="#000000"> </text>
</g>
<!-- Node11&#45;&gt;Node3 -->
<g id="edge14" class="edge">
<title>Node11&#45;&gt;Node3</title>
<path fill="none" stroke="#404040" d="M250.7261,-452.4236C262.0174,-430.1396 279.4035,-399.0435 299.1714,-375 334.6259,-331.877 381.1124,-290.2091 420.1321,-258.3566"/>
<polygon fill="none" stroke="#404040" points="420.5487,-258.0198 422.6995,-251.137 429.8802,-250.4751 427.7294,-257.358 420.5487,-258.0198"/>
<text text-anchor="middle" x="397.1714" y="-321.5" font-family="Helvetica,sans-Serif" font-size="10.00" fill="#000000"> +@28</text>
</g>
<!-- Node12&#45;&gt;Node3 -->
<g id="edge15" class="edge">
<title>Node12&#45;&gt;Node3</title>
<path fill="none" stroke="#404040" d="M437.5358,-375.3069C446.3717,-347.8093 456.006,-318.2551 465.1714,-291 465.912,-288.7976 466.6664,-286.5665 467.4308,-284.3165"/>
<polygon fill="none" stroke="#404040" points="467.4344,-284.3059 465.5925,-277.334 471.3197,-272.9523 473.1616,-279.9242 467.4344,-284.3059"/>
<text text-anchor="middle" x="501.1714" y="-321.5" font-family="Helvetica,sans-Serif" font-size="10.00" fill="#000000"> +serialization</text>
</g>
<!-- Node13 -->
<g id="node12" class="node">
<title>Node13</title>
<polygon fill="none" stroke="#bfbfbf" points="1181.1714,-452.5 1181.1714,-509.5 1237.1714,-509.5 1237.1714,-452.5 1181.1714,-452.5"/>
<text text-anchor="middle" x="1209.1714" y="-497.5" font-family="Helvetica,sans-Serif" font-size="10.00" fill="#000000">uint32_t</text>
<polyline fill="none" stroke="#bfbfbf" points="1181.1714,-490.5 1237.1714,-490.5 "/>
<text text-anchor="middle" x="1209.1714" y="-478.5" font-family="Helvetica,sans-Serif" font-size="10.00" fill="#000000"> </text>
<polyline fill="none" stroke="#bfbfbf" points="1181.1714,-471.5 1237.1714,-471.5 "/>
<text text-anchor="middle" x="1209.1714" y="-459.5" font-family="Helvetica,sans-Serif" font-size="10.00" fill="#000000"> </text>
</g>
<!-- Node13&#45;&gt;Node3 -->
<g id="edge21" class="edge">
<title>Node13&#45;&gt;Node3</title>
<path fill="none" stroke="#404040" d="M1207.3724,-452.3262C1204.194,-427.7689 1195.5425,-393.5245 1172.1714,-375 1142.4001,-351.4027 1039.3148,-364.9704 1002.1714,-357 910.2381,-337.2727 890.8843,-319.151 801.1714,-291 724.8763,-267.0594 637.3721,-241.0133 575.8951,-222.9452"/>
<polygon fill="none" stroke="#404040" points="575.8571,-222.9342 568.9733,-225.0821 564.343,-219.5539 571.2268,-217.406 575.8571,-222.9342"/>
<text text-anchor="middle" x="1047.6714" y="-349" font-family="Helvetica,sans-Serif" font-size="10.00" fill="#000000"> +headerVersion</text>
<text text-anchor="middle" x="1047.6714" y="-338" font-family="Helvetica,sans-Serif" font-size="10.00" fill="#000000">+headerSize</text>
<text text-anchor="middle" x="1047.6714" y="-327" font-family="Helvetica,sans-Serif" font-size="10.00" fill="#000000">+flagsNextHeader</text>
<text text-anchor="middle" x="1047.6714" y="-316" font-family="Helvetica,sans-Serif" font-size="10.00" fill="#000000">+magicStringInt</text>
<text text-anchor="middle" x="1047.6714" y="-305" font-family="Helvetica,sans-Serif" font-size="10.00" fill="#000000">+flagsUnused</text>
<text text-anchor="middle" x="1047.6714" y="-294" font-family="Helvetica,sans-Serif" font-size="10.00" fill="#000000">+flags</text>
</g>
<!-- Node14 -->
<g id="node13" class="node">
<title>Node14</title>
<g id="a_node13"><a xlink:href="../../dd/da3/structo2_1_1header_1_1HeartbeatHeader.html" target="_top" xlink:title="{o2::header::HeartbeatHeader\n||+ operator bool()\l+ operator\&lt;()\l+ operator uint64_t()\l}">
<polygon fill="none" stroke="#000000" points="1152.1714,-160.5 1152.1714,-239.5 1310.1714,-239.5 1310.1714,-160.5 1152.1714,-160.5"/>
<text text-anchor="middle" x="1231.1714" y="-227.5" font-family="Helvetica,sans-Serif" font-size="10.00" fill="#000000">o2::header::HeartbeatHeader</text>
<polyline fill="none" stroke="#000000" points="1152.1714,-220.5 1310.1714,-220.5 "/>
<text text-anchor="middle" x="1231.1714" y="-208.5" font-family="Helvetica,sans-Serif" font-size="10.00" fill="#000000"> </text>
<polyline fill="none" stroke="#000000" points="1152.1714,-201.5 1310.1714,-201.5 "/>
<text text-anchor="start" x="1160.1714" y="-189.5" font-family="Helvetica,sans-Serif" font-size="10.00" fill="#000000">+ operator bool()</text>
<text text-anchor="start" x="1160.1714" y="-178.5" font-family="Helvetica,sans-Serif" font-size="10.00" fill="#000000">+ operator&lt;()</text>
<text text-anchor="start" x="1160.1714" y="-167.5" font-family="Helvetica,sans-Serif" font-size="10.00" fill="#000000">+ operator uint64_t()</text>
</a>
</g>
</g>
<!-- Node13&#45;&gt;Node14 -->
<g id="edge28" class="edge">
<title>Node13&#45;&gt;Node14</title>
<path fill="none" stroke="#404040" d="M1201.3049,-452.3138C1194.8238,-430.5247 1184.6803,-400.1264 1172.1714,-375 1167.8864,-366.3928 1162.9576,-366.2023 1160.1714,-357 1151.671,-328.9253 1150.6306,-318.7384 1160.1714,-291 1165.3131,-276.0512 1174.0285,-261.6738 1183.6266,-248.9354"/>
<polygon fill="none" stroke="#404040" points="1183.6316,-248.9291 1184.2302,-241.7428 1191.0939,-239.5314 1190.4953,-246.7176 1183.6316,-248.9291"/>
<text text-anchor="middle" x="1177.1714" y="-321.5" font-family="Helvetica,sans-Serif" font-size="10.00" fill="#000000"> +orbit</text>
</g>
<!-- Node19 -->
<g id="node18" class="node">
<title>Node19</title>
<g id="a_node18"><a xlink:href="../../d1/dfe/structo2_1_1header_1_1HeartbeatTrailer.html" target="_top" xlink:title="{o2::header::HeartbeatTrailer\n||+ operator bool()\l+ operator uint64_t()\l}">
<polygon fill="none" stroke="#000000" points="1569.6714,-166 1569.6714,-234 1722.6714,-234 1722.6714,-166 1569.6714,-166"/>
<text text-anchor="middle" x="1646.1714" y="-222" font-family="Helvetica,sans-Serif" font-size="10.00" fill="#000000">o2::header::HeartbeatTrailer</text>
<polyline fill="none" stroke="#000000" points="1569.6714,-215 1722.6714,-215 "/>
<text text-anchor="middle" x="1646.1714" y="-203" font-family="Helvetica,sans-Serif" font-size="10.00" fill="#000000"> </text>
<polyline fill="none" stroke="#000000" points="1569.6714,-196 1722.6714,-196 "/>
<text text-anchor="start" x="1577.6714" y="-184" font-family="Helvetica,sans-Serif" font-size="10.00" fill="#000000">+ operator bool()</text>
<text text-anchor="start" x="1577.6714" y="-173" font-family="Helvetica,sans-Serif" font-size="10.00" fill="#000000">+ operator uint64_t()</text>
</a>
</g>
</g>
<!-- Node13&#45;&gt;Node19 -->
<g id="edge33" class="edge">
<title>Node13&#45;&gt;Node19</title>
<path fill="none" stroke="#404040" d="M1205.5374,-452.4997C1200.2129,-405.4575 1192.9666,-314.4204 1213.1714,-291 1228.7784,-272.909 1295.7265,-277.6044 1319.1714,-273 1400.1747,-257.0916 1491.8607,-236.387 1557.4913,-221.0929"/>
<polygon fill="none" stroke="#404040" points="1557.7491,-221.0327 1562.6816,-215.7725 1569.4344,-218.3024 1564.5018,-223.5627 1557.7491,-221.0327"/>
<text text-anchor="middle" x="1245.1714" y="-327" font-family="Helvetica,sans-Serif" font-size="10.00" fill="#000000"> +status</text>
<text text-anchor="middle" x="1245.1714" y="-316" font-family="Helvetica,sans-Serif" font-size="10.00" fill="#000000">+dataLength</text>
</g>
<!-- Node14&#45;&gt;Node2 -->
<g id="edge23" class="edge">
<title>Node14&#45;&gt;Node2</title>
<path fill="none" stroke="#404040" d="M1172.3399,-160.4494C1139.0138,-138.0453 1097.1439,-109.8975 1062.2616,-86.4472"/>
<polygon fill="none" stroke="#404040" points="1062.1097,-86.3451 1054.8986,-86.3172 1052.1509,-79.6501 1059.362,-79.678 1062.1097,-86.3451"/>
<text text-anchor="middle" x="1113.1714" y="-101" font-family="Helvetica,sans-Serif" font-size="10.00" fill="#000000"> +header</text>
</g>
<!-- Node15 -->
<g id="node14" class="node">
<title>Node15</title>
<polygon fill="none" stroke="#bfbfbf" points="1737.1714,-452.5 1737.1714,-509.5 1793.1714,-509.5 1793.1714,-452.5 1737.1714,-452.5"/>
<text text-anchor="middle" x="1765.1714" y="-497.5" font-family="Helvetica,sans-Serif" font-size="10.00" fill="#000000">uint64_t</text>
<polyline fill="none" stroke="#bfbfbf" points="1737.1714,-490.5 1793.1714,-490.5 "/>
<text text-anchor="middle" x="1765.1714" y="-478.5" font-family="Helvetica,sans-Serif" font-size="10.00" fill="#000000"> </text>
<polyline fill="none" stroke="#bfbfbf" points="1737.1714,-471.5 1793.1714,-471.5 "/>
<text text-anchor="middle" x="1765.1714" y="-459.5" font-family="Helvetica,sans-Serif" font-size="10.00" fill="#000000"> </text>
</g>
<!-- Node15&#45;&gt;Node14 -->
<g id="edge24" class="edge">
<title>Node15&#45;&gt;Node14</title>
<path fill="none" stroke="#404040" d="M1736.8819,-459.113C1704.2595,-434.9452 1648.1656,-396.6047 1594.1714,-375 1557.9156,-360.493 1536.7864,-383.5728 1508.1714,-357 1485.8038,-336.2288 1510.1119,-313.2092 1489.1714,-291 1445.7624,-244.9609 1377.6614,-222.195 1322.3244,-210.9477"/>
<polygon fill="none" stroke="#404040" points="1322.1494,-210.9142 1315.5032,-213.7121 1310.3643,-208.6533 1317.0105,-205.8554 1322.1494,-210.9142"/>
<text text-anchor="middle" x="1543.1714" y="-321.5" font-family="Helvetica,sans-Serif" font-size="10.00" fill="#000000"> +headerWord</text>
</g>
<!-- Node15&#45;&gt;Node19 -->
<g id="edge30" class="edge">
<title>Node15&#45;&gt;Node19</title>
<path fill="none" stroke="#404040" d="M1769.7988,-452.1718C1774.6201,-413.315 1778.2581,-343.0164 1752.1714,-291 1742.6733,-272.061 1727.3147,-255.4512 1711.2012,-241.7863"/>
<polygon fill="none" stroke="#404040" points="1711.0012,-241.6247 1703.8201,-240.9671 1701.6652,-234.0855 1708.8463,-234.7431 1711.0012,-241.6247"/>
<text text-anchor="middle" x="1803.1714" y="-321.5" font-family="Helvetica,sans-Serif" font-size="10.00" fill="#000000"> +trailerWord</text>
</g>
<!-- Node16 -->
<g id="node15" class="node">
<title>Node16</title>
<polygon fill="none" stroke="#bfbfbf" points="1529.1714,-452.5 1529.1714,-509.5 1585.1714,-509.5 1585.1714,-452.5 1529.1714,-452.5"/>
<text text-anchor="middle" x="1557.1714" y="-497.5" font-family="Helvetica,sans-Serif" font-size="10.00" fill="#000000">uint16_t</text>
<polyline fill="none" stroke="#bfbfbf" points="1529.1714,-490.5 1585.1714,-490.5 "/>
<text text-anchor="middle" x="1557.1714" y="-478.5" font-family="Helvetica,sans-Serif" font-size="10.00" fill="#000000"> </text>
<polyline fill="none" stroke="#bfbfbf" points="1529.1714,-471.5 1585.1714,-471.5 "/>
<text text-anchor="middle" x="1557.1714" y="-459.5" font-family="Helvetica,sans-Serif" font-size="10.00" fill="#000000"> </text>
</g>
<!-- Node16&#45;&gt;Node14 -->
<g id="edge25" class="edge">
<title>Node16&#45;&gt;Node14</title>
<path fill="none" stroke="#404040" d="M1553.046,-452.3983C1548.036,-428.2325 1537.1934,-394.5241 1514.1714,-375 1486.3763,-351.4281 1461.3679,-381.26 1434.1714,-357 1410.9904,-336.3219 1431.6312,-314.3738 1411.1714,-291 1387.3425,-263.7774 1353.4288,-243.7059 1321.4518,-229.4473"/>
<polygon fill="none" stroke="#404040" points="1321.2718,-229.3703 1314.1813,-230.6839 1310.2416,-224.6441 1317.3321,-223.3305 1321.2718,-229.3703"/>
<text text-anchor="middle" x="1461.6714" y="-327" font-family="Helvetica,sans-Serif" font-size="10.00" fill="#000000"> +reserved</text>
<text text-anchor="middle" x="1461.6714" y="-316" font-family="Helvetica,sans-Serif" font-size="10.00" fill="#000000">+bcid</text>
</g>
<!-- Node16&#45;&gt;Node19 -->
<g id="edge31" class="edge">
<title>Node16&#45;&gt;Node19</title>
<path fill="none" stroke="#404040" d="M1585.3347,-459.45C1611.9397,-437.1496 1650.0933,-399.6433 1666.1714,-357 1679.6666,-321.2072 1672.5696,-277.9141 1663.286,-245.863"/>
<polygon fill="none" stroke="#404040" points="1663.2138,-245.6301 1657.6161,-241.0842 1659.6593,-234.1686 1665.257,-238.7145 1663.2138,-245.6301"/>
<text text-anchor="middle" x="1710.6714" y="-338" font-family="Helvetica,sans-Serif" font-size="10.00" fill="#000000"> +hbfTruncated</text>
<text text-anchor="middle" x="1710.6714" y="-327" font-family="Helvetica,sans-Serif" font-size="10.00" fill="#000000">+hbfStatus</text>
<text text-anchor="middle" x="1710.6714" y="-316" font-family="Helvetica,sans-Serif" font-size="10.00" fill="#000000">+trailerLength</text>
<text text-anchor="middle" x="1710.6714" y="-305" font-family="Helvetica,sans-Serif" font-size="10.00" fill="#000000">+hbAccept</text>
</g>
<!-- Node17 -->
<g id="node16" class="node">
<title>Node17</title>
<polygon fill="none" stroke="#bfbfbf" points="1455.1714,-452.5 1455.1714,-509.5 1505.1714,-509.5 1505.1714,-452.5 1455.1714,-452.5"/>
<text text-anchor="middle" x="1480.1714" y="-497.5" font-family="Helvetica,sans-Serif" font-size="10.00" fill="#000000">uint8_t</text>
<polyline fill="none" stroke="#bfbfbf" points="1455.1714,-490.5 1505.1714,-490.5 "/>
<text text-anchor="middle" x="1480.1714" y="-478.5" font-family="Helvetica,sans-Serif" font-size="10.00" fill="#000000"> </text>
<polyline fill="none" stroke="#bfbfbf" points="1455.1714,-471.5 1505.1714,-471.5 "/>
<text text-anchor="middle" x="1480.1714" y="-459.5" font-family="Helvetica,sans-Serif" font-size="10.00" fill="#000000"> </text>
</g>
<!-- Node17&#45;&gt;Node14 -->
<g id="edge26" class="edge">
<title>Node17&#45;&gt;Node14</title>
<path fill="none" stroke="#404040" d="M1455.1356,-469.6729C1417.2025,-451.2913 1345.2457,-411.4617 1304.1714,-357 1285.4669,-332.1992 1293.8059,-319.378 1281.1714,-291 1275.157,-277.4912 1267.8631,-263.296 1260.7273,-250.2414"/>
<polygon fill="none" stroke="#404040" points="1260.6331,-250.0719 1254.2215,-246.7717 1254.8019,-239.5839 1261.2135,-242.8842 1260.6331,-250.0719"/>
<text text-anchor="middle" x="1357.6714" y="-338" font-family="Helvetica,sans-Serif" font-size="10.00" fill="#000000"> +triggerType</text>
<text text-anchor="middle" x="1357.6714" y="-327" font-family="Helvetica,sans-Serif" font-size="10.00" fill="#000000">+headerLength</text>
<text text-anchor="middle" x="1357.6714" y="-316" font-family="Helvetica,sans-Serif" font-size="10.00" fill="#000000">+blockType</text>
<text text-anchor="middle" x="1357.6714" y="-305" font-family="Helvetica,sans-Serif" font-size="10.00" fill="#000000">+reservedTriggerType</text>
</g>
<!-- Node17&#45;&gt;Node19 -->
<g id="edge32" class="edge">
<title>Node17&#45;&gt;Node19</title>
<path fill="none" stroke="#404040" d="M1483.8329,-452.3078C1488.3659,-428.4197 1498.364,-395.1638 1520.1714,-375 1541.239,-355.5202 1561.905,-377.3121 1582.1714,-357 1603.7312,-335.3915 1590.1397,-319.4615 1601.1714,-291 1607.0518,-275.8286 1614.5433,-259.7649 1621.7191,-245.4256"/>
<polygon fill="none" stroke="#404040" points="1621.9179,-245.0357 1621.0802,-237.8734 1627.3694,-234.3454 1628.2071,-241.5077 1621.9179,-245.0357"/>
<text text-anchor="middle" x="1631.6714" y="-321.5" font-family="Helvetica,sans-Serif" font-size="10.00" fill="#000000"> +blockType</text>
</g>
<!-- Node18 -->
<g id="node17" class="node">
<title>Node18</title>
<polygon fill="none" stroke="#bfbfbf" points="1055.6714,-452.5 1055.6714,-509.5 1162.6714,-509.5 1162.6714,-452.5 1055.6714,-452.5"/>
<text text-anchor="middle" x="1109.1714" y="-497.5" font-family="Helvetica,sans-Serif" font-size="10.00" fill="#000000">anonymous:+@32</text>
<polyline fill="none" stroke="#bfbfbf" points="1055.6714,-490.5 1162.6714,-490.5 "/>
<text text-anchor="middle" x="1109.1714" y="-478.5" font-family="Helvetica,sans-Serif" font-size="10.00" fill="#000000"> </text>
<polyline fill="none" stroke="#bfbfbf" points="1055.6714,-471.5 1162.6714,-471.5 "/>
<text text-anchor="middle" x="1109.1714" y="-459.5" font-family="Helvetica,sans-Serif" font-size="10.00" fill="#000000"> </text>
</g>
<!-- Node18&#45;&gt;Node14 -->
<g id="edge27" class="edge">
<title>Node18&#45;&gt;Node14</title>
<path fill="none" stroke="#404040" d="M1102.9369,-452.4463C1095.9805,-413.5944 1088.8648,-342.9709 1115.1714,-291 1123.6109,-274.327 1136.6712,-259.7626 1151.0303,-247.4603"/>
<polygon fill="none" stroke="#404040" points="1151.2892,-247.2509 1153.4379,-240.3673 1160.6183,-239.7031 1158.4697,-246.5867 1151.2892,-247.2509"/>
<text text-anchor="middle" x="1132.1714" y="-321.5" font-family="Helvetica,sans-Serif" font-size="10.00" fill="#000000"> +@32</text>
</g>
<!-- Node19&#45;&gt;Node2 -->
<g id="edge29" class="edge">
<title>Node19&#45;&gt;Node2</title>
<path fill="none" stroke="#404040" d="M1569.6651,-181.2542C1448.8262,-151.6459 1214.2391,-94.1667 1084.6713,-62.4196"/>
<polygon fill="none" stroke="#404040" points="1084.5055,-62.379 1077.726,-64.8362 1072.8503,-59.5232 1079.6299,-57.066 1084.5055,-62.379"/>
<text text-anchor="middle" x="1281.6714" y="-101" font-family="Helvetica,sans-Serif" font-size="10.00" fill="#000000"> +trailer</text>
</g>
<!-- Node20 -->
<g id="node19" class="node">
<title>Node20</title>
<polygon fill="none" stroke="#bfbfbf" points="1821.6714,-452.5 1821.6714,-509.5 1928.6714,-509.5 1928.6714,-452.5 1821.6714,-452.5"/>
<text text-anchor="middle" x="1875.1714" y="-497.5" font-family="Helvetica,sans-Serif" font-size="10.00" fill="#000000">anonymous:+@36</text>
<polyline fill="none" stroke="#bfbfbf" points="1821.6714,-490.5 1928.6714,-490.5 "/>
<text text-anchor="middle" x="1875.1714" y="-478.5" font-family="Helvetica,sans-Serif" font-size="10.00" fill="#000000"> </text>
<polyline fill="none" stroke="#bfbfbf" points="1821.6714,-471.5 1928.6714,-471.5 "/>
<text text-anchor="middle" x="1875.1714" y="-459.5" font-family="Helvetica,sans-Serif" font-size="10.00" fill="#000000"> </text>
</g>
<!-- Node20&#45;&gt;Node19 -->
<g id="edge34" class="edge">
<title>Node20&#45;&gt;Node19</title>
<path fill="none" stroke="#404040" d="M1877.5464,-452.3363C1879.3323,-412.0738 1876.7458,-338.4008 1840.1714,-291 1814.118,-257.2345 1772.4944,-235.4615 1734.4704,-221.7113"/>
<polygon fill="none" stroke="#404040" points="1734.1535,-221.6023 1727.1783,-223.432 1722.8066,-217.6972 1729.7818,-215.8674 1734.1535,-221.6023"/>
<text text-anchor="middle" x="1886.1714" y="-321.5" font-family="Helvetica,sans-Serif" font-size="10.00" fill="#000000"> +@36</text>
</g>
</g>
</svg>
