<?xml version="1.0" encoding="UTF-8" standalone="no"?>
<!DOCTYPE svg PUBLIC "-//W3C//DTD SVG 1.1//EN"
 "http://www.w3.org/Graphics/SVG/1.1/DTD/svg11.dtd">
<!-- Generated by graphviz version 2.40.1 (20161225.0304)
 -->
<!-- Title: /home/travis/build/AliceO2Group/AliceO2/DataFormats/common/include/CommonDataFormat/BunchFilling.h Pages: 1 -->
<!--zoomable 339 -->
<svg id="main" version="1.1" xmlns="http://www.w3.org/2000/svg" xmlns:xlink="http://www.w3.org/1999/xlink" xml:space="preserve" onload="init(evt)">
<style type="text/css"><![CDATA[
.edge:hover path { stroke: red; }
.edge:hover polygon { stroke: red; fill: red; }
]]></style>
<script type="text/javascript"><![CDATA[
var edges = document.getElementsByTagName('g');
if (edges && edges.length) {
  for (var i=0;i<edges.length;i++) {
    if (edges[i].id.substr(0,4)=='edge') {
      edges[i].setAttribute('class','edge');
    }
  }
}
]]></script>
        <defs>
                <circle id="rim" cx="0" cy="0" r="7"/>
                <circle id="rim2" cx="0" cy="0" r="3.5"/>
                <g id="zoomPlus">
                        <use xlink:href="#rim" fill="#404040">
                                <set attributeName="fill" to="#808080" begin="zoomplus.mouseover" end="zoomplus.mouseout"/>
                        </use>
                        <path d="M-4,0h8M0,-4v8" fill="none" stroke="white" stroke-width="1.5" pointer-events="none"/>
                </g>
                <g id="zoomMin">
                        <use xlink:href="#rim" fill="#404040">
                                <set attributeName="fill" to="#808080" begin="zoomminus.mouseover" end="zoomminus.mouseout"/>
                        </use>
                        <path d="M-4,0h8" fill="none" stroke="white" stroke-width="1.5" pointer-events="none"/>
                </g>
                <g id="dirArrow">
                        <path fill="none" stroke="white" stroke-width="1.5" d="M0,-3.0v7 M-2.5,-0.5L0,-3.0L2.5,-0.5"/>
                </g>
               <g id="resetDef">
                       <use xlink:href="#rim2" fill="#404040">
                               <set attributeName="fill" to="#808080" begin="reset.mouseover" end="reset.mouseout"/>
                       </use>
               </g>
        </defs>

<script type="text/javascript">
var viewWidth = 2993;
var viewHeight = 339;
var sectionId = 'dynsection-1';
</script>
<script xlink:href="../../svgpan.js"/>
<svg id="graph" class="graph">
<g id="viewport">
<title>/home/travis/build/AliceO2Group/AliceO2/DataFormats/common/include/CommonDataFormat/BunchFilling.h</title>
<!-- Node4 -->
<g id="node1" class="node">
<title>Node4</title>
<polygon fill="#bfbfbf" stroke="#000000" points="1436,-278.5 1436,-330.5 1628,-330.5 1628,-278.5 1436,-278.5"/>
<text text-anchor="start" x="1444" y="-318.5" font-family="Helvetica,sans-Serif" font-size="10.00" fill="#000000">/home/travis/build</text>
<text text-anchor="start" x="1444" y="-307.5" font-family="Helvetica,sans-Serif" font-size="10.00" fill="#000000">/AliceO2Group/AliceO2</text>
<text text-anchor="start" x="1444" y="-296.5" font-family="Helvetica,sans-Serif" font-size="10.00" fill="#000000">/DataFormats/common/include</text>
<text text-anchor="middle" x="1532" y="-285.5" font-family="Helvetica,sans-Serif" font-size="10.00" fill="#000000">/CommonDataFormat/BunchFilling.h</text>
</g>
<!-- Node5 -->
<g id="node2" class="node">
<title>Node5</title>
<g id="a_node2"><a xlink:href="../../db/de7/BunchFilling_8cxx.html" target="_top" xlink:title="/home/travis/build\l/AliceO2Group/AliceO2\l/DataFormats/common/src\l/BunchFilling.cxx">
<polygon fill="none" stroke="#000000" points="1284,-184 1284,-236 1430,-236 1430,-184 1284,-184"/>
<text text-anchor="start" x="1292" y="-224" font-family="Helvetica,sans-Serif" font-size="10.00" fill="#000000">/home/travis/build</text>
<text text-anchor="start" x="1292" y="-213" font-family="Helvetica,sans-Serif" font-size="10.00" fill="#000000">/AliceO2Group/AliceO2</text>
<text text-anchor="start" x="1292" y="-202" font-family="Helvetica,sans-Serif" font-size="10.00" fill="#000000">/DataFormats/common/src</text>
<text text-anchor="middle" x="1357" y="-191" font-family="Helvetica,sans-Serif" font-size="10.00" fill="#000000">/BunchFilling.cxx</text>
</a>
</g>
</g>
<!-- Node4&#45;&gt;Node5 -->
<g id="edge1" class="edge">
<title>Node4&#45;&gt;Node5</title>
<path fill="none" stroke="#191970" d="M1474.6525,-273.5324C1452.2645,-261.4429 1426.876,-247.7331 1405.4287,-236.1515"/>
<polygon fill="#191970" stroke="#191970" points="1473.2551,-276.7554 1483.7172,-278.4273 1476.5812,-270.5961 1473.2551,-276.7554"/>
</g>
<!-- Node6 -->
<g id="node3" class="node">
<title>Node6</title>
<g id="a_node3"><a xlink:href="../../d5/d3f/RunContext_8h.html" target="_top" xlink:title="/home/travis/build\l/AliceO2Group/AliceO2\l/DataFormats/simulation\l/include/SimulationDataFormat\l/RunContext.h">
<polygon fill="none" stroke="#000000" points="1448,-178.5 1448,-241.5 1616,-241.5 1616,-178.5 1448,-178.5"/>
<text text-anchor="start" x="1456" y="-229.5" font-family="Helvetica,sans-Serif" font-size="10.00" fill="#000000">/home/travis/build</text>
<text text-anchor="start" x="1456" y="-218.5" font-family="Helvetica,sans-Serif" font-size="10.00" fill="#000000">/AliceO2Group/AliceO2</text>
<text text-anchor="start" x="1456" y="-207.5" font-family="Helvetica,sans-Serif" font-size="10.00" fill="#000000">/DataFormats/simulation</text>
<text text-anchor="start" x="1456" y="-196.5" font-family="Helvetica,sans-Serif" font-size="10.00" fill="#000000">/include/SimulationDataFormat</text>
<text text-anchor="middle" x="1532" y="-185.5" font-family="Helvetica,sans-Serif" font-size="10.00" fill="#000000">/RunContext.h</text>
</a>
</g>
</g>
<!-- Node4&#45;&gt;Node6 -->
<g id="edge2" class="edge">
<title>Node4&#45;&gt;Node6</title>
<path fill="none" stroke="#191970" d="M1532,-268.1424C1532,-259.4277 1532,-250.1902 1532,-241.7054"/>
<polygon fill="#191970" stroke="#191970" points="1528.5001,-268.4273 1532,-278.4273 1535.5001,-268.4273 1528.5001,-268.4273"/>
</g>
<!-- Node26 -->
<g id="node23" class="node">
<title>Node26</title>
<g id="a_node23"><a xlink:href="../../df/dff/InteractionSampler_8h.html" target="_top" xlink:title="/home/travis/build\l/AliceO2Group/AliceO2\l/Steer/include/Steer/Interaction\lSampler.h">
<polygon fill="none" stroke="#000000" points="2059.5,-184 2059.5,-236 2226.5,-236 2226.5,-184 2059.5,-184"/>
<text text-anchor="start" x="2067.5" y="-224" font-family="Helvetica,sans-Serif" font-size="10.00" fill="#000000">/home/travis/build</text>
<text text-anchor="start" x="2067.5" y="-213" font-family="Helvetica,sans-Serif" font-size="10.00" fill="#000000">/AliceO2Group/AliceO2</text>
<text text-anchor="start" x="2067.5" y="-202" font-family="Helvetica,sans-Serif" font-size="10.00" fill="#000000">/Steer/include/Steer/Interaction</text>
<text text-anchor="middle" x="2143" y="-191" font-family="Helvetica,sans-Serif" font-size="10.00" fill="#000000">Sampler.h</text>
</a>
</g>
</g>
<!-- Node4&#45;&gt;Node26 -->
<g id="edge22" class="edge">
<title>Node4&#45;&gt;Node26</title>
<path fill="none" stroke="#191970" d="M1638.051,-288.0977C1757.633,-269.6026 1949.6383,-239.9062 2059.2032,-222.9604"/>
<polygon fill="#191970" stroke="#191970" points="1637.4884,-284.643 1628.1409,-289.6304 1638.5584,-291.5607 1637.4884,-284.643"/>
</g>
<!-- Node7 -->
<g id="node4" class="node">
<title>Node7</title>
<g id="a_node4"><a xlink:href="../../da/dea/RunContext_8cxx.html" target="_top" xlink:title="/home/travis/build\l/AliceO2Group/AliceO2\l/DataFormats/simulation\l/src/RunContext.cxx">
<polygon fill="none" stroke="#000000" points="1285.5,-89.5 1285.5,-141.5 1422.5,-141.5 1422.5,-89.5 1285.5,-89.5"/>
<text text-anchor="start" x="1293.5" y="-129.5" font-family="Helvetica,sans-Serif" font-size="10.00" fill="#000000">/home/travis/build</text>
<text text-anchor="start" x="1293.5" y="-118.5" font-family="Helvetica,sans-Serif" font-size="10.00" fill="#000000">/AliceO2Group/AliceO2</text>
<text text-anchor="start" x="1293.5" y="-107.5" font-family="Helvetica,sans-Serif" font-size="10.00" fill="#000000">/DataFormats/simulation</text>
<text text-anchor="middle" x="1354" y="-96.5" font-family="Helvetica,sans-Serif" font-size="10.00" fill="#000000">/src/RunContext.cxx</text>
</a>
</g>
</g>
<!-- Node6&#45;&gt;Node7 -->
<g id="edge3" class="edge">
<title>Node6&#45;&gt;Node7</title>
<path fill="none" stroke="#191970" d="M1463.168,-173.4572C1443.1843,-162.8479 1421.7688,-151.4784 1403.2451,-141.6442"/>
<polygon fill="#191970" stroke="#191970" points="1461.7597,-176.6722 1472.2334,-178.27 1465.0422,-170.4894 1461.7597,-176.6722"/>
</g>
<!-- Node8 -->
<g id="node5" class="node">
<title>Node8</title>
<g id="a_node5"><a xlink:href="../../dd/d40/HitProcessingManager_8h.html" target="_top" xlink:title="/home/travis/build\l/AliceO2Group/AliceO2\l/Steer/include/Steer/HitProcessing\lManager.h">
<polygon fill="none" stroke="#000000" points="1441,-89.5 1441,-141.5 1623,-141.5 1623,-89.5 1441,-89.5"/>
<text text-anchor="start" x="1449" y="-129.5" font-family="Helvetica,sans-Serif" font-size="10.00" fill="#000000">/home/travis/build</text>
<text text-anchor="start" x="1449" y="-118.5" font-family="Helvetica,sans-Serif" font-size="10.00" fill="#000000">/AliceO2Group/AliceO2</text>
<text text-anchor="start" x="1449" y="-107.5" font-family="Helvetica,sans-Serif" font-size="10.00" fill="#000000">/Steer/include/Steer/HitProcessing</text>
<text text-anchor="middle" x="1532" y="-96.5" font-family="Helvetica,sans-Serif" font-size="10.00" fill="#000000">Manager.h</text>
</a>
</g>
</g>
<!-- Node6&#45;&gt;Node8 -->
<g id="edge4" class="edge">
<title>Node6&#45;&gt;Node8</title>
<path fill="none" stroke="#191970" d="M1532,-168.2457C1532,-159.2008 1532,-149.8836 1532,-141.6442"/>
<polygon fill="#191970" stroke="#191970" points="1528.5001,-168.2699 1532,-178.27 1535.5001,-168.27 1528.5001,-168.2699"/>
</g>
<!-- Node9 -->
<g id="node6" class="node">
<title>Node9</title>
<g id="a_node6"><a xlink:href="../../d3/d87/CollisionTimePrinter_8cxx.html" target="_top" xlink:title="/home/travis/build\l/AliceO2Group/AliceO2\l/Steer/DigitizerWorkflow\l/src/CollisionTimePrinter.cxx">
<polygon fill="none" stroke="#000000" points="2658.5,-.5 2658.5,-52.5 2813.5,-52.5 2813.5,-.5 2658.5,-.5"/>
<text text-anchor="start" x="2666.5" y="-40.5" font-family="Helvetica,sans-Serif" font-size="10.00" fill="#000000">/home/travis/build</text>
<text text-anchor="start" x="2666.5" y="-29.5" font-family="Helvetica,sans-Serif" font-size="10.00" fill="#000000">/AliceO2Group/AliceO2</text>
<text text-anchor="start" x="2666.5" y="-18.5" font-family="Helvetica,sans-Serif" font-size="10.00" fill="#000000">/Steer/DigitizerWorkflow</text>
<text text-anchor="middle" x="2736" y="-7.5" font-family="Helvetica,sans-Serif" font-size="10.00" fill="#000000">/src/CollisionTimePrinter.cxx</text>
</a>
</g>
</g>
<!-- Node8&#45;&gt;Node9 -->
<g id="edge5" class="edge">
<title>Node8&#45;&gt;Node9</title>
<path fill="none" stroke="#191970" d="M1633.735,-109.893C1908.2157,-94.755 2643.7752,-54.1159 2650,-53 2652.7681,-52.5038 2655.5721,-51.9464 2658.3932,-51.3387"/>
<polygon fill="#191970" stroke="#191970" points="1633.1701,-106.4187 1623.378,-110.4642 1633.5556,-113.4081 1633.1701,-106.4187"/>
</g>
<!-- Node10 -->
<g id="node7" class="node">
<title>Node10</title>
<g id="a_node7"><a xlink:href="../../d5/d9b/EMCALDigitizerSpec_8cxx.html" target="_top" xlink:title="/home/travis/build\l/AliceO2Group/AliceO2\l/Steer/DigitizerWorkflow\l/src/EMCALDigitizerSpec.cxx">
<polygon fill="none" stroke="#000000" points="2485.5,-.5 2485.5,-52.5 2640.5,-52.5 2640.5,-.5 2485.5,-.5"/>
<text text-anchor="start" x="2493.5" y="-40.5" font-family="Helvetica,sans-Serif" font-size="10.00" fill="#000000">/home/travis/build</text>
<text text-anchor="start" x="2493.5" y="-29.5" font-family="Helvetica,sans-Serif" font-size="10.00" fill="#000000">/AliceO2Group/AliceO2</text>
<text text-anchor="start" x="2493.5" y="-18.5" font-family="Helvetica,sans-Serif" font-size="10.00" fill="#000000">/Steer/DigitizerWorkflow</text>
<text text-anchor="middle" x="2563" y="-7.5" font-family="Helvetica,sans-Serif" font-size="10.00" fill="#000000">/src/EMCALDigitizerSpec.cxx</text>
</a>
</g>
</g>
<!-- Node8&#45;&gt;Node10 -->
<g id="edge6" class="edge">
<title>Node8&#45;&gt;Node10</title>
<path fill="none" stroke="#191970" d="M1633.5787,-110.1227C1860.6488,-97.9087 2395.8355,-67.977 2477,-53 2479.7655,-52.4897 2482.5673,-51.9201 2485.3866,-51.3022"/>
<polygon fill="#191970" stroke="#191970" points="1633.1279,-106.6417 1623.3301,-110.6731 1633.5035,-113.6317 1633.1279,-106.6417"/>
</g>
<!-- Node11 -->
<g id="node8" class="node">
<title>Node11</title>
<g id="a_node8"><a xlink:href="../../d2/d97/FDDDigitizerSpec_8cxx.html" target="_top" xlink:title="/home/travis/build\l/AliceO2Group/AliceO2\l/Steer/DigitizerWorkflow\l/src/FDDDigitizerSpec.cxx">
<polygon fill="none" stroke="#000000" points="0,-.5 0,-52.5 142,-52.5 142,-.5 0,-.5"/>
<text text-anchor="start" x="8" y="-40.5" font-family="Helvetica,sans-Serif" font-size="10.00" fill="#000000">/home/travis/build</text>
<text text-anchor="start" x="8" y="-29.5" font-family="Helvetica,sans-Serif" font-size="10.00" fill="#000000">/AliceO2Group/AliceO2</text>
<text text-anchor="start" x="8" y="-18.5" font-family="Helvetica,sans-Serif" font-size="10.00" fill="#000000">/Steer/DigitizerWorkflow</text>
<text text-anchor="middle" x="71" y="-7.5" font-family="Helvetica,sans-Serif" font-size="10.00" fill="#000000">/src/FDDDigitizerSpec.cxx</text>
</a>
</g>
</g>
<!-- Node8&#45;&gt;Node11 -->
<g id="edge7" class="edge">
<title>Node8&#45;&gt;Node11</title>
<path fill="none" stroke="#191970" d="M1430.8226,-89.1977C1133.2484,-49.8202 428.1129,-101.7091 151,-53 148.118,-52.4934 145.198,-51.9042 142.2635,-51.2485"/>
<polygon fill="#191970" stroke="#191970" points="1430.4186,-92.675 1440.8032,-90.575 1431.3756,-85.7407 1430.4186,-92.675"/>
</g>
<!-- Node12 -->
<g id="node9" class="node">
<title>Node12</title>
<g id="a_node9"><a xlink:href="../../d4/dfd/FT0DigitizerSpec_8cxx.html" target="_top" xlink:title="/home/travis/build\l/AliceO2Group/AliceO2\l/Steer/DigitizerWorkflow\l/src/FT0DigitizerSpec.cxx">
<polygon fill="none" stroke="#000000" points="160.5,-.5 160.5,-52.5 299.5,-52.5 299.5,-.5 160.5,-.5"/>
<text text-anchor="start" x="168.5" y="-40.5" font-family="Helvetica,sans-Serif" font-size="10.00" fill="#000000">/home/travis/build</text>
<text text-anchor="start" x="168.5" y="-29.5" font-family="Helvetica,sans-Serif" font-size="10.00" fill="#000000">/AliceO2Group/AliceO2</text>
<text text-anchor="start" x="168.5" y="-18.5" font-family="Helvetica,sans-Serif" font-size="10.00" fill="#000000">/Steer/DigitizerWorkflow</text>
<text text-anchor="middle" x="230" y="-7.5" font-family="Helvetica,sans-Serif" font-size="10.00" fill="#000000">/src/FT0DigitizerSpec.cxx</text>
</a>
</g>
</g>
<!-- Node8&#45;&gt;Node12 -->
<g id="edge8" class="edge">
<title>Node8&#45;&gt;Node12</title>
<path fill="none" stroke="#191970" d="M1430.8907,-89.1666C935.4402,-18.8644 796.8155,-140.6902 309,-53 306.01,-52.4625 302.9789,-51.8349 299.9337,-51.1355"/>
<polygon fill="#191970" stroke="#191970" points="1430.4044,-92.6326 1440.8008,-90.5916 1431.4008,-85.7039 1430.4044,-92.6326"/>
</g>
<!-- Node13 -->
<g id="node10" class="node">
<title>Node13</title>
<g id="a_node10"><a xlink:href="../../d0/d1c/FV0DigitizerSpec_8cxx.html" target="_top" xlink:title="/home/travis/build\l/AliceO2Group/AliceO2\l/Steer/DigitizerWorkflow\l/src/FV0DigitizerSpec.cxx">
<polygon fill="none" stroke="#000000" points="318,-.5 318,-52.5 458,-52.5 458,-.5 318,-.5"/>
<text text-anchor="start" x="326" y="-40.5" font-family="Helvetica,sans-Serif" font-size="10.00" fill="#000000">/home/travis/build</text>
<text text-anchor="start" x="326" y="-29.5" font-family="Helvetica,sans-Serif" font-size="10.00" fill="#000000">/AliceO2Group/AliceO2</text>
<text text-anchor="start" x="326" y="-18.5" font-family="Helvetica,sans-Serif" font-size="10.00" fill="#000000">/Steer/DigitizerWorkflow</text>
<text text-anchor="middle" x="388" y="-7.5" font-family="Helvetica,sans-Serif" font-size="10.00" fill="#000000">/src/FV0DigitizerSpec.cxx</text>
</a>
</g>
</g>
<!-- Node8&#45;&gt;Node13 -->
<g id="edge9" class="edge">
<title>Node8&#45;&gt;Node13</title>
<path fill="none" stroke="#191970" d="M1430.6851,-89.1349C1005.0146,-27.8285 885.4836,-129.3621 467,-53 464.1537,-52.4806 461.27,-51.8807 458.3721,-51.2159"/>
<polygon fill="#191970" stroke="#191970" points="1430.3964,-92.6299 1440.7976,-90.6136 1431.4092,-85.7035 1430.3964,-92.6299"/>
</g>
<!-- Node14 -->
<g id="node11" class="node">
<title>Node14</title>
<g id="a_node11"><a xlink:href="../../d8/d00/HMPIDDigitizerSpec_8cxx.html" target="_top" xlink:title="/home/travis/build\l/AliceO2Group/AliceO2\l/Steer/DigitizerWorkflow\l/src/HMPIDDigitizerSpec.cxx">
<polygon fill="none" stroke="#000000" points="476,-.5 476,-52.5 630,-52.5 630,-.5 476,-.5"/>
<text text-anchor="start" x="484" y="-40.5" font-family="Helvetica,sans-Serif" font-size="10.00" fill="#000000">/home/travis/build</text>
<text text-anchor="start" x="484" y="-29.5" font-family="Helvetica,sans-Serif" font-size="10.00" fill="#000000">/AliceO2Group/AliceO2</text>
<text text-anchor="start" x="484" y="-18.5" font-family="Helvetica,sans-Serif" font-size="10.00" fill="#000000">/Steer/DigitizerWorkflow</text>
<text text-anchor="middle" x="553" y="-7.5" font-family="Helvetica,sans-Serif" font-size="10.00" fill="#000000">/src/HMPIDDigitizerSpec.cxx</text>
</a>
</g>
</g>
<!-- Node8&#45;&gt;Node14 -->
<g id="edge10" class="edge">
<title>Node8&#45;&gt;Node14</title>
<path fill="none" stroke="#191970" d="M1430.8917,-89.1602C1080.8345,-37.4161 982.9335,-112.8055 639,-53 636.0755,-52.4915 633.1113,-51.9124 630.1295,-51.2762"/>
<polygon fill="#191970" stroke="#191970" points="1430.3835,-92.623 1440.7925,-90.6474 1431.4234,-85.7007 1430.3835,-92.623"/>
</g>
<!-- Node15 -->
<g id="node12" class="node">
<title>Node15</title>
<g id="a_node12"><a xlink:href="../../d3/d43/ITSMFTDigitizerSpec_8cxx.html" target="_top" xlink:title="/home/travis/build\l/AliceO2Group/AliceO2\l/Steer/DigitizerWorkflow\l/src/ITSMFTDigitizerSpec.cxx">
<polygon fill="none" stroke="#000000" points="648,-.5 648,-52.5 804,-52.5 804,-.5 648,-.5"/>
<text text-anchor="start" x="656" y="-40.5" font-family="Helvetica,sans-Serif" font-size="10.00" fill="#000000">/home/travis/build</text>
<text text-anchor="start" x="656" y="-29.5" font-family="Helvetica,sans-Serif" font-size="10.00" fill="#000000">/AliceO2Group/AliceO2</text>
<text text-anchor="start" x="656" y="-18.5" font-family="Helvetica,sans-Serif" font-size="10.00" fill="#000000">/Steer/DigitizerWorkflow</text>
<text text-anchor="middle" x="726" y="-7.5" font-family="Helvetica,sans-Serif" font-size="10.00" fill="#000000">/src/ITSMFTDigitizerSpec.cxx</text>
</a>
</g>
</g>
<!-- Node8&#45;&gt;Node15 -->
<g id="edge11" class="edge">
<title>Node8&#45;&gt;Node15</title>
<path fill="none" stroke="#191970" d="M1430.5662,-89.1038C1157.3977,-47.2163 1080.5311,-100.8339 813,-53 810.0469,-52.472 807.0529,-51.8764 804.0403,-51.2261"/>
<polygon fill="#191970" stroke="#191970" points="1430.3637,-92.6145 1440.7842,-90.7008 1431.4447,-85.6985 1430.3637,-92.6145"/>
</g>
<!-- Node16 -->
<g id="node13" class="node">
<title>Node16</title>
<g id="a_node13"><a xlink:href="../../db/d2f/MCHDigitizerSpec_8cxx.html" target="_top" xlink:title="/home/travis/build\l/AliceO2Group/AliceO2\l/Steer/DigitizerWorkflow\l/src/MCHDigitizerSpec.cxx">
<polygon fill="none" stroke="#000000" points="822,-.5 822,-52.5 966,-52.5 966,-.5 822,-.5"/>
<text text-anchor="start" x="830" y="-40.5" font-family="Helvetica,sans-Serif" font-size="10.00" fill="#000000">/home/travis/build</text>
<text text-anchor="start" x="830" y="-29.5" font-family="Helvetica,sans-Serif" font-size="10.00" fill="#000000">/AliceO2Group/AliceO2</text>
<text text-anchor="start" x="830" y="-18.5" font-family="Helvetica,sans-Serif" font-size="10.00" fill="#000000">/Steer/DigitizerWorkflow</text>
<text text-anchor="middle" x="894" y="-7.5" font-family="Helvetica,sans-Serif" font-size="10.00" fill="#000000">/src/MCHDigitizerSpec.cxx</text>
</a>
</g>
</g>
<!-- Node8&#45;&gt;Node16 -->
<g id="edge12" class="edge">
<title>Node8&#45;&gt;Node16</title>
<path fill="none" stroke="#191970" d="M1430.727,-89.1168C1228.7058,-56.2676 1171.1337,-92.2449 975,-53 972.0983,-52.4194 969.1557,-51.7678 966.1961,-51.0598"/>
<polygon fill="#191970" stroke="#191970" points="1430.3314,-92.599 1440.7701,-90.7868 1431.4797,-85.6938 1430.3314,-92.599"/>
</g>
<!-- Node17 -->
<g id="node14" class="node">
<title>Node17</title>
<g id="a_node14"><a xlink:href="../../d4/dd3/MIDDigitizerSpec_8cxx.html" target="_top" xlink:title="/home/travis/build\l/AliceO2Group/AliceO2\l/Steer/DigitizerWorkflow\l/src/MIDDigitizerSpec.cxx">
<polygon fill="none" stroke="#000000" points="984,-.5 984,-52.5 1124,-52.5 1124,-.5 984,-.5"/>
<text text-anchor="start" x="992" y="-40.5" font-family="Helvetica,sans-Serif" font-size="10.00" fill="#000000">/home/travis/build</text>
<text text-anchor="start" x="992" y="-29.5" font-family="Helvetica,sans-Serif" font-size="10.00" fill="#000000">/AliceO2Group/AliceO2</text>
<text text-anchor="start" x="992" y="-18.5" font-family="Helvetica,sans-Serif" font-size="10.00" fill="#000000">/Steer/DigitizerWorkflow</text>
<text text-anchor="middle" x="1054" y="-7.5" font-family="Helvetica,sans-Serif" font-size="10.00" fill="#000000">/src/MIDDigitizerSpec.cxx</text>
</a>
</g>
</g>
<!-- Node8&#45;&gt;Node17 -->
<g id="edge13" class="edge">
<title>Node8&#45;&gt;Node17</title>
<path fill="none" stroke="#191970" d="M1430.6107,-89.0654C1298.1,-64.8811 1259.9582,-81.6484 1133,-53 1130.0366,-52.3313 1127.0277,-51.594 1124.0009,-50.8038"/>
<polygon fill="#191970" stroke="#191970" points="1430.2661,-92.5616 1440.7391,-90.9593 1431.5528,-85.6808 1430.2661,-92.5616"/>
</g>
<!-- Node18 -->
<g id="node15" class="node">
<title>Node18</title>
<g id="a_node15"><a xlink:href="../../db/d77/PHOSDigitizerSpec_8cxx.html" target="_top" xlink:title="/home/travis/build\l/AliceO2Group/AliceO2\l/Steer/DigitizerWorkflow\l/src/PHOSDigitizerSpec.cxx">
<polygon fill="none" stroke="#000000" points="1142.5,-.5 1142.5,-52.5 1291.5,-52.5 1291.5,-.5 1142.5,-.5"/>
<text text-anchor="start" x="1150.5" y="-40.5" font-family="Helvetica,sans-Serif" font-size="10.00" fill="#000000">/home/travis/build</text>
<text text-anchor="start" x="1150.5" y="-29.5" font-family="Helvetica,sans-Serif" font-size="10.00" fill="#000000">/AliceO2Group/AliceO2</text>
<text text-anchor="start" x="1150.5" y="-18.5" font-family="Helvetica,sans-Serif" font-size="10.00" fill="#000000">/Steer/DigitizerWorkflow</text>
<text text-anchor="middle" x="1217" y="-7.5" font-family="Helvetica,sans-Serif" font-size="10.00" fill="#000000">/src/PHOSDigitizerSpec.cxx</text>
</a>
</g>
</g>
<!-- Node8&#45;&gt;Node18 -->
<g id="edge14" class="edge">
<title>Node8&#45;&gt;Node18</title>
<path fill="none" stroke="#191970" d="M1430.7857,-88.5553C1380.6758,-75.1263 1325.717,-60.2392 1301,-53 1297.9182,-52.0974 1294.7767,-51.1645 1291.6061,-50.2125"/>
<polygon fill="#191970" stroke="#191970" points="1430.1676,-92.0131 1440.7327,-91.219 1431.9784,-85.2513 1430.1676,-92.0131"/>
</g>
<!-- Node19 -->
<g id="node16" class="node">
<title>Node19</title>
<g id="a_node16"><a xlink:href="../../d3/d13/SimReaderSpec_8cxx.html" target="_top" xlink:title="/home/travis/build\l/AliceO2Group/AliceO2\l/Steer/DigitizerWorkflow\l/src/SimReaderSpec.cxx">
<polygon fill="none" stroke="#000000" points="1310,-.5 1310,-52.5 1444,-52.5 1444,-.5 1310,-.5"/>
<text text-anchor="start" x="1318" y="-40.5" font-family="Helvetica,sans-Serif" font-size="10.00" fill="#000000">/home/travis/build</text>
<text text-anchor="start" x="1318" y="-29.5" font-family="Helvetica,sans-Serif" font-size="10.00" fill="#000000">/AliceO2Group/AliceO2</text>
<text text-anchor="start" x="1318" y="-18.5" font-family="Helvetica,sans-Serif" font-size="10.00" fill="#000000">/Steer/DigitizerWorkflow</text>
<text text-anchor="middle" x="1377" y="-7.5" font-family="Helvetica,sans-Serif" font-size="10.00" fill="#000000">/src/SimReaderSpec.cxx</text>
</a>
</g>
</g>
<!-- Node8&#45;&gt;Node19 -->
<g id="edge15" class="edge">
<title>Node8&#45;&gt;Node19</title>
<path fill="none" stroke="#191970" d="M1477.6318,-84.2821C1459.5648,-73.9082 1439.6514,-62.4741 1422.3404,-52.5341"/>
<polygon fill="#191970" stroke="#191970" points="1475.9183,-87.3342 1486.3332,-89.2784 1479.404,-81.2637 1475.9183,-87.3342"/>
</g>
<!-- Node20 -->
<g id="node17" class="node">
<title>Node20</title>
<g id="a_node17"><a xlink:href="../../d6/d61/TOFDigitizerSpec_8cxx.html" target="_top" xlink:title="/home/travis/build\l/AliceO2Group/AliceO2\l/Steer/DigitizerWorkflow\l/src/TOFDigitizerSpec.cxx">
<polygon fill="none" stroke="#000000" points="1462,-.5 1462,-52.5 1602,-52.5 1602,-.5 1462,-.5"/>
<text text-anchor="start" x="1470" y="-40.5" font-family="Helvetica,sans-Serif" font-size="10.00" fill="#000000">/home/travis/build</text>
<text text-anchor="start" x="1470" y="-29.5" font-family="Helvetica,sans-Serif" font-size="10.00" fill="#000000">/AliceO2Group/AliceO2</text>
<text text-anchor="start" x="1470" y="-18.5" font-family="Helvetica,sans-Serif" font-size="10.00" fill="#000000">/Steer/DigitizerWorkflow</text>
<text text-anchor="middle" x="1532" y="-7.5" font-family="Helvetica,sans-Serif" font-size="10.00" fill="#000000">/src/TOFDigitizerSpec.cxx</text>
</a>
</g>
</g>
<!-- Node8&#45;&gt;Node20 -->
<g id="edge16" class="edge">
<title>Node8&#45;&gt;Node20</title>
<path fill="none" stroke="#191970" d="M1532,-79.1155C1532,-70.2061 1532,-60.8475 1532,-52.5341"/>
<polygon fill="#191970" stroke="#191970" points="1528.5001,-79.2784 1532,-89.2784 1535.5001,-79.2785 1528.5001,-79.2784"/>
</g>
<!-- Node21 -->
<g id="node18" class="node">
<title>Node21</title>
<g id="a_node18"><a xlink:href="../../d2/d0b/TPCDigitizerSpec_8cxx.html" target="_top" xlink:title="/home/travis/build\l/AliceO2Group/AliceO2\l/Steer/DigitizerWorkflow\l/src/TPCDigitizerSpec.cxx">
<polygon fill="none" stroke="#000000" points="1620,-.5 1620,-52.5 1760,-52.5 1760,-.5 1620,-.5"/>
<text text-anchor="start" x="1628" y="-40.5" font-family="Helvetica,sans-Serif" font-size="10.00" fill="#000000">/home/travis/build</text>
<text text-anchor="start" x="1628" y="-29.5" font-family="Helvetica,sans-Serif" font-size="10.00" fill="#000000">/AliceO2Group/AliceO2</text>
<text text-anchor="start" x="1628" y="-18.5" font-family="Helvetica,sans-Serif" font-size="10.00" fill="#000000">/Steer/DigitizerWorkflow</text>
<text text-anchor="middle" x="1690" y="-7.5" font-family="Helvetica,sans-Serif" font-size="10.00" fill="#000000">/src/TPCDigitizerSpec.cxx</text>
</a>
</g>
</g>
<!-- Node8&#45;&gt;Node21 -->
<g id="edge17" class="edge">
<title>Node8&#45;&gt;Node21</title>
<path fill="none" stroke="#191970" d="M1587.4205,-84.2821C1605.8371,-73.9082 1626.136,-62.4741 1643.7821,-52.5341"/>
<polygon fill="#191970" stroke="#191970" points="1585.5457,-81.321 1578.5506,-89.2784 1588.9812,-87.42 1585.5457,-81.321"/>
</g>
<!-- Node22 -->
<g id="node19" class="node">
<title>Node22</title>
<g id="a_node19"><a xlink:href="../../d6/df2/TRDDigitizerSpec_8cxx.html" target="_top" xlink:title="/home/travis/build\l/AliceO2Group/AliceO2\l/Steer/DigitizerWorkflow\l/src/TRDDigitizerSpec.cxx">
<polygon fill="none" stroke="#000000" points="1778,-.5 1778,-52.5 1920,-52.5 1920,-.5 1778,-.5"/>
<text text-anchor="start" x="1786" y="-40.5" font-family="Helvetica,sans-Serif" font-size="10.00" fill="#000000">/home/travis/build</text>
<text text-anchor="start" x="1786" y="-29.5" font-family="Helvetica,sans-Serif" font-size="10.00" fill="#000000">/AliceO2Group/AliceO2</text>
<text text-anchor="start" x="1786" y="-18.5" font-family="Helvetica,sans-Serif" font-size="10.00" fill="#000000">/Steer/DigitizerWorkflow</text>
<text text-anchor="middle" x="1849" y="-7.5" font-family="Helvetica,sans-Serif" font-size="10.00" fill="#000000">/src/TRDDigitizerSpec.cxx</text>
</a>
</g>
</g>
<!-- Node8&#45;&gt;Node22 -->
<g id="edge18" class="edge">
<title>Node8&#45;&gt;Node22</title>
<path fill="none" stroke="#191970" d="M1632.971,-90.3455C1675.177,-79.4498 1724.6304,-66.1853 1769,-53 1771.9452,-52.1248 1774.9456,-51.2148 1777.9722,-50.2817"/>
<polygon fill="#191970" stroke="#191970" points="1632.0585,-86.9662 1623.2459,-92.8474 1633.8026,-93.7455 1632.0585,-86.9662"/>
</g>
<!-- Node23 -->
<g id="node20" class="node">
<title>Node23</title>
<g id="a_node20"><a xlink:href="../../d1/d1a/ZDCDigitizerSpec_8cxx.html" target="_top" xlink:title="/home/travis/build\l/AliceO2Group/AliceO2\l/Steer/DigitizerWorkflow\l/src/ZDCDigitizerSpec.cxx">
<polygon fill="none" stroke="#000000" points="1938.5,-.5 1938.5,-52.5 2081.5,-52.5 2081.5,-.5 1938.5,-.5"/>
<text text-anchor="start" x="1946.5" y="-40.5" font-family="Helvetica,sans-Serif" font-size="10.00" fill="#000000">/home/travis/build</text>
<text text-anchor="start" x="1946.5" y="-29.5" font-family="Helvetica,sans-Serif" font-size="10.00" fill="#000000">/AliceO2Group/AliceO2</text>
<text text-anchor="start" x="1946.5" y="-18.5" font-family="Helvetica,sans-Serif" font-size="10.00" fill="#000000">/Steer/DigitizerWorkflow</text>
<text text-anchor="middle" x="2010" y="-7.5" font-family="Helvetica,sans-Serif" font-size="10.00" fill="#000000">/src/ZDCDigitizerSpec.cxx</text>
</a>
</g>
</g>
<!-- Node8&#45;&gt;Node23 -->
<g id="edge19" class="edge">
<title>Node8&#45;&gt;Node23</title>
<path fill="none" stroke="#191970" d="M1633.2441,-104.1016C1713.9952,-93.9242 1829.6309,-76.914 1929,-53 1932.0209,-52.273 1935.0912,-51.4869 1938.1826,-50.6564"/>
<polygon fill="#191970" stroke="#191970" points="1632.5681,-100.6587 1623.0784,-105.3699 1633.4349,-107.6048 1632.5681,-100.6587"/>
</g>
<!-- Node24 -->
<g id="node21" class="node">
<title>Node24</title>
<g id="a_node21"><a xlink:href="../../d6/d0b/HitProcessingManager_8cxx.html" target="_top" xlink:title="/home/travis/build\l/AliceO2Group/AliceO2\l/Steer/src/HitProcessingManager.cxx">
<polygon fill="none" stroke="#000000" points="2100,-6 2100,-47 2294,-47 2294,-6 2100,-6"/>
<text text-anchor="start" x="2108" y="-35" font-family="Helvetica,sans-Serif" font-size="10.00" fill="#000000">/home/travis/build</text>
<text text-anchor="start" x="2108" y="-24" font-family="Helvetica,sans-Serif" font-size="10.00" fill="#000000">/AliceO2Group/AliceO2</text>
<text text-anchor="middle" x="2197" y="-13" font-family="Helvetica,sans-Serif" font-size="10.00" fill="#000000">/Steer/src/HitProcessingManager.cxx</text>
</a>
</g>
</g>
<!-- Node8&#45;&gt;Node24 -->
<g id="edge20" class="edge">
<title>Node8&#45;&gt;Node24</title>
<path fill="none" stroke="#191970" d="M1633.0377,-108.2897C1745.4488,-99.321 1932.1705,-81.6006 2091,-53 2100.4278,-51.3023 2110.2609,-49.2432 2119.9725,-47.0314"/>
<polygon fill="#191970" stroke="#191970" points="1632.7586,-104.8007 1623.0655,-109.0779 1633.3103,-111.779 1632.7586,-104.8007"/>
</g>
<!-- Node25 -->
<g id="node22" class="node">
<title>Node25</title>
<g id="a_node22"><a xlink:href="../../d7/d6d/testHitProcessingManager_8cxx.html" target="_top" xlink:title="/home/travis/build\l/AliceO2Group/AliceO2\l/Steer/test/testHitProcessing\lManager.cxx">
<polygon fill="none" stroke="#000000" points="2312.5,-.5 2312.5,-52.5 2467.5,-52.5 2467.5,-.5 2312.5,-.5"/>
<text text-anchor="start" x="2320.5" y="-40.5" font-family="Helvetica,sans-Serif" font-size="10.00" fill="#000000">/home/travis/build</text>
<text text-anchor="start" x="2320.5" y="-29.5" font-family="Helvetica,sans-Serif" font-size="10.00" fill="#000000">/AliceO2Group/AliceO2</text>
<text text-anchor="start" x="2320.5" y="-18.5" font-family="Helvetica,sans-Serif" font-size="10.00" fill="#000000">/Steer/test/testHitProcessing</text>
<text text-anchor="middle" x="2390" y="-7.5" font-family="Helvetica,sans-Serif" font-size="10.00" fill="#000000">Manager.cxx</text>
</a>
</g>
</g>
<!-- Node8&#45;&gt;Node25 -->
<g id="edge21" class="edge">
<title>Node8&#45;&gt;Node25</title>
<path fill="none" stroke="#191970" d="M1633.4609,-109.99C1812.5086,-99.8136 2177.4744,-76.917 2303,-53 2306.1021,-52.409 2309.2504,-51.7485 2312.4189,-51.0331"/>
<polygon fill="#191970" stroke="#191970" points="1633.0331,-106.5085 1623.2469,-110.5681 1633.4287,-113.4973 1633.0331,-106.5085"/>
</g>
<!-- Node26&#45;&gt;Node8 -->
<g id="edge28" class="edge">
<title>Node26&#45;&gt;Node8</title>
<path fill="none" stroke="#191970" d="M2049.4073,-195.5245C1933.6113,-177.615 1737.7599,-147.3238 1623.1183,-129.5928"/>
<polygon fill="#191970" stroke="#191970" points="2048.9067,-198.9886 2059.3242,-197.0583 2049.9767,-192.0709 2048.9067,-198.9886"/>
</g>
<!-- Node26&#45;&gt;Node9 -->
<g id="edge27" class="edge">
<title>Node26&#45;&gt;Node9</title>
<path fill="none" stroke="#191970" d="M2078.1589,-178.2498C2064.8478,-168.5459 2052.5932,-156.5109 2045,-142 2034.0788,-121.1292 2028.846,-106.1438 2045,-89 2091.1815,-39.9888 2583.7369,-65.0011 2650,-53 2652.7672,-52.4988 2655.5704,-51.9371 2658.3909,-51.3259"/>
<polygon fill="#191970" stroke="#191970" points="2076.3218,-181.2336 2086.5513,-183.9919 2080.2746,-175.4565 2076.3218,-181.2336"/>
</g>
<!-- Node27 -->
<g id="node24" class="node">
<title>Node27</title>
<g id="a_node24"><a xlink:href="../../dd/d85/testHBFUtils_8cxx.html" target="_top" xlink:title="/home/travis/build\l/AliceO2Group/AliceO2\l/Detectors/Raw/test/testHBFUtils.cxx">
<polygon fill="none" stroke="#000000" points="2632.5,-95 2632.5,-136 2829.5,-136 2829.5,-95 2632.5,-95"/>
<text text-anchor="start" x="2640.5" y="-124" font-family="Helvetica,sans-Serif" font-size="10.00" fill="#000000">/home/travis/build</text>
<text text-anchor="start" x="2640.5" y="-113" font-family="Helvetica,sans-Serif" font-size="10.00" fill="#000000">/AliceO2Group/AliceO2</text>
<text text-anchor="middle" x="2731" y="-102" font-family="Helvetica,sans-Serif" font-size="10.00" fill="#000000">/Detectors/Raw/test/testHBFUtils.cxx</text>
</a>
</g>
</g>
<!-- Node26&#45;&gt;Node27 -->
<g id="edge23" class="edge">
<title>Node26&#45;&gt;Node27</title>
<path fill="none" stroke="#191970" d="M2236.9561,-199.6023C2334.2557,-188.1608 2490.4602,-167.9054 2624,-142 2633.1119,-140.2324 2642.6117,-138.1834 2652.0254,-136.0231"/>
<polygon fill="#191970" stroke="#191970" points="2236.3768,-196.1461 2226.8509,-200.7838 2237.1897,-203.0987 2236.3768,-196.1461"/>
</g>
<!-- Node28 -->
<g id="node25" class="node">
<title>Node28</title>
<g id="a_node25"><a xlink:href="../../db/d50/O2HitMerger_8h.html" target="_top" xlink:title="/home/travis/build\l/AliceO2Group/AliceO2\l/run/O2HitMerger.h">
<polygon fill="none" stroke="#000000" points="2469.5,-95 2469.5,-136 2596.5,-136 2596.5,-95 2469.5,-95"/>
<text text-anchor="start" x="2477.5" y="-124" font-family="Helvetica,sans-Serif" font-size="10.00" fill="#000000">/home/travis/build</text>
<text text-anchor="start" x="2477.5" y="-113" font-family="Helvetica,sans-Serif" font-size="10.00" fill="#000000">/AliceO2Group/AliceO2</text>
<text text-anchor="middle" x="2533" y="-102" font-family="Helvetica,sans-Serif" font-size="10.00" fill="#000000">/run/O2HitMerger.h</text>
</a>
</g>
</g>
<!-- Node26&#45;&gt;Node28 -->
<g id="edge24" class="edge">
<title>Node26&#45;&gt;Node28</title>
<path fill="none" stroke="#191970" d="M2236.8694,-193.5591C2300.6507,-181.5042 2386.6146,-163.5241 2461,-142 2467.1415,-140.2229 2473.5113,-138.1806 2479.8077,-136.0349"/>
<polygon fill="#191970" stroke="#191970" points="2236.0117,-190.1588 2226.8285,-195.4425 2237.3024,-197.0388 2236.0117,-190.1588"/>
</g>
<!-- Node30 -->
<g id="node27" class="node">
<title>Node30</title>
<g id="a_node27"><a xlink:href="../../de/d50/InteractionSampler_8cxx.html" target="_top" xlink:title="/home/travis/build\l/AliceO2Group/AliceO2\l/Steer/src/InteractionSampler.cxx">
<polygon fill="none" stroke="#000000" points="2054,-95 2054,-136 2232,-136 2232,-95 2054,-95"/>
<text text-anchor="start" x="2062" y="-124" font-family="Helvetica,sans-Serif" font-size="10.00" fill="#000000">/home/travis/build</text>
<text text-anchor="start" x="2062" y="-113" font-family="Helvetica,sans-Serif" font-size="10.00" fill="#000000">/AliceO2Group/AliceO2</text>
<text text-anchor="middle" x="2143" y="-102" font-family="Helvetica,sans-Serif" font-size="10.00" fill="#000000">/Steer/src/InteractionSampler.cxx</text>
</a>
</g>
</g>
<!-- Node26&#45;&gt;Node30 -->
<g id="edge29" class="edge">
<title>Node26&#45;&gt;Node30</title>
<path fill="none" stroke="#191970" d="M2143,-173.5981C2143,-160.8882 2143,-147.0713 2143,-136.1016"/>
<polygon fill="#191970" stroke="#191970" points="2139.5001,-173.9273 2143,-183.9273 2146.5001,-173.9273 2139.5001,-173.9273"/>
</g>
<!-- Node31 -->
<g id="node28" class="node">
<title>Node31</title>
<g id="a_node28"><a xlink:href="../../d6/d9e/testInteractionSampler_8cxx.html" target="_top" xlink:title="/home/travis/build\l/AliceO2Group/AliceO2\l/Steer/test/testInteractionSampler.cxx">
<polygon fill="none" stroke="#000000" points="2250.5,-95 2250.5,-136 2451.5,-136 2451.5,-95 2250.5,-95"/>
<text text-anchor="start" x="2258.5" y="-124" font-family="Helvetica,sans-Serif" font-size="10.00" fill="#000000">/home/travis/build</text>
<text text-anchor="start" x="2258.5" y="-113" font-family="Helvetica,sans-Serif" font-size="10.00" fill="#000000">/AliceO2Group/AliceO2</text>
<text text-anchor="middle" x="2351" y="-102" font-family="Helvetica,sans-Serif" font-size="10.00" fill="#000000">/Steer/test/testInteractionSampler.cxx</text>
</a>
</g>
</g>
<!-- Node26&#45;&gt;Node31 -->
<g id="edge30" class="edge">
<title>Node26&#45;&gt;Node31</title>
<path fill="none" stroke="#191970" d="M2209.5129,-179.7814C2240.8913,-165.5253 2277.5259,-148.8813 2305.6547,-136.1016"/>
<polygon fill="#191970" stroke="#191970" points="2208.0442,-176.6043 2200.3875,-183.9273 2210.9397,-182.9774 2208.0442,-176.6043"/>
</g>
<!-- Node28&#45;&gt;Node28 -->
<g id="edge25" class="edge">
<title>Node28&#45;&gt;Node28</title>
<path fill="none" stroke="#191970" d="M2606.1757,-127.5715C2611.3451,-124.8251 2614.5,-120.8013 2614.5,-115.5 2614.5,-107.4219 2607.1744,-102.3099 2596.558,-100.1642"/>
<polygon fill="#191970" stroke="#191970" points="2604.9026,-124.3075 2596.558,-130.8358 2607.1524,-130.9361 2604.9026,-124.3075"/>
</g>
<!-- Node29 -->
<g id="node26" class="node">
<title>Node29</title>
<g id="a_node26"><a xlink:href="../../d9/d16/O2HitMergerRunner_8cxx.html" target="_top" xlink:title="/home/travis/build\l/AliceO2Group/AliceO2\l/run/O2HitMergerRunner.cxx">
<polygon fill="none" stroke="#000000" points="2831.5,-6 2831.5,-47 2984.5,-47 2984.5,-6 2831.5,-6"/>
<text text-anchor="start" x="2839.5" y="-35" font-family="Helvetica,sans-Serif" font-size="10.00" fill="#000000">/home/travis/build</text>
<text text-anchor="start" x="2839.5" y="-24" font-family="Helvetica,sans-Serif" font-size="10.00" fill="#000000">/AliceO2Group/AliceO2</text>
<text text-anchor="middle" x="2908" y="-13" font-family="Helvetica,sans-Serif" font-size="10.00" fill="#000000">/run/O2HitMergerRunner.cxx</text>
</a>
</g>
</g>
<!-- Node28&#45;&gt;Node29 -->
<g id="edge26" class="edge">
<title>Node28&#45;&gt;Node29</title>
<path fill="none" stroke="#191970" d="M2606.7121,-93.3314C2612.5426,-91.7931 2618.3565,-90.3284 2624,-89 2711.4891,-68.407 2735.7088,-74.4164 2823,-53 2830.2059,-51.2321 2837.6978,-49.1955 2845.1153,-47.0531"/>
<polygon fill="#191970" stroke="#191970" points="2605.6527,-89.9921 2596.9115,-95.9788 2607.4782,-96.7499 2605.6527,-89.9921"/>
</g>
</g>
</svg>
        <g id="navigator" transform="translate(0 0)" fill="#404254">
                <rect fill="#f2f5e9" fill-opacity="0.5" stroke="#606060" stroke-width=".5" x="0" y="0" width="60" height="60"/>
                <use id="zoomplus" xlink:href="#zoomPlus" x="17" y="9" onmousedown="handleZoom(evt,'in')"/>
                <use id="zoomminus" xlink:href="#zoomMin" x="42" y="9" onmousedown="handleZoom(evt,'out')"/>
                <use id="reset" xlink:href="#resetDef" x="30" y="36" onmousedown="handleReset()"/>
                <g id="arrowUp" xlink:href="#dirArrow" transform="translate(30 24)" onmousedown="handlePan(0,-1)">
                  <use xlink:href="#rim" fill="#404040">
                        <set attributeName="fill" to="#808080" begin="arrowUp.mouseover" end="arrowUp.mouseout"/>
                  </use>
                  <path fill="none" stroke="white" stroke-width="1.5" d="M0,-3.0v7 M-2.5,-0.5L0,-3.0L2.5,-0.5"/>
                </g>
                <g id="arrowRight" xlink:href="#dirArrow" transform="rotate(90) translate(36 -43)" onmousedown="handlePan(1,0)">
                  <use xlink:href="#rim" fill="#404040">
                        <set attributeName="fill" to="#808080" begin="arrowRight.mouseover" end="arrowRight.mouseout"/>
                  </use>
                  <path fill="none" stroke="white" stroke-width="1.5" d="M0,-3.0v7 M-2.5,-0.5L0,-3.0L2.5,-0.5"/>
                </g>
                <g id="arrowDown" xlink:href="#dirArrow" transform="rotate(180) translate(-30 -48)" onmousedown="handlePan(0,1)">
                  <use xlink:href="#rim" fill="#404040">
                        <set attributeName="fill" to="#808080" begin="arrowDown.mouseover" end="arrowDown.mouseout"/>
                  </use>
                  <path fill="none" stroke="white" stroke-width="1.5" d="M0,-3.0v7 M-2.5,-0.5L0,-3.0L2.5,-0.5"/>
                </g>
                <g id="arrowLeft" xlink:href="#dirArrow" transform="rotate(270) translate(-36 17)" onmousedown="handlePan(-1,0)">
                  <use xlink:href="#rim" fill="#404040">
                        <set attributeName="fill" to="#808080" begin="arrowLeft.mouseover" end="arrowLeft.mouseout"/>
                  </use>
                  <path fill="none" stroke="white" stroke-width="1.5" d="M0,-3.0v7 M-2.5,-0.5L0,-3.0L2.5,-0.5"/>
                </g>
        </g>
        <svg viewBox="0 0 15 15" width="100%" height="30px" preserveAspectRatio="xMaxYMin meet">
         <g id="arrow_out" transform="scale(0.3 0.3)">
          <a xlink:href="BunchFilling_8h__dep__incl_org.svg" target="_base">
           <rect id="button" ry="5" rx="5" y="6" x="6" height="38" width="38"
                fill="#f2f5e9" fill-opacity="0.5" stroke="#606060" stroke-width="1.0"/>
           <path id="arrow"
             d="M 11.500037,31.436501 C 11.940474,20.09759 22.043105,11.32322 32.158766,21.979434 L 37.068811,17.246167 C 37.068811,17.246167 37.088388,32 37.088388,32 L 22.160133,31.978069 C 22.160133,31.978069 26.997745,27.140456 26.997745,27.140456 C 18.528582,18.264221 13.291696,25.230495 11.500037,31.436501 z"
             style="fill:#404040;"/>
          </a>
         </g>
        </svg>
</svg>
