<?xml version="1.0" encoding="UTF-8" standalone="no"?>
<!DOCTYPE svg PUBLIC "-//W3C//DTD SVG 1.1//EN"
 "http://www.w3.org/Graphics/SVG/1.1/DTD/svg11.dtd">
<!-- Generated by graphviz version 2.40.1 (20161225.0304)
 -->
<!-- Title: o2::framework::ConcreteDataTypeMatcher Pages: 1 -->
<svg width="659pt" height="821pt"
 viewBox="0.00 0.00 658.93 821.00" xmlns="http://www.w3.org/2000/svg" xmlns:xlink="http://www.w3.org/1999/xlink">
<g id="graph0" class="graph" transform="scale(1 1) rotate(0) translate(4 817)">
<title>o2::framework::ConcreteDataTypeMatcher</title>
<!-- Node1 -->
<g id="node1" class="node">
<title>Node1</title>
<polygon fill="#bfbfbf" stroke="#000000" points="166.9326,-.5 166.9326,-134.5 330.9326,-134.5 330.9326,-.5 166.9326,-.5"/>
<text text-anchor="start" x="174.9326" y="-122.5" font-family="Helvetica,sans-Serif" font-size="10.00" fill="#000000">o2::framework::ConcreteData</text>
<text text-anchor="middle" x="248.9326" y="-111.5" font-family="Helvetica,sans-Serif" font-size="10.00" fill="#000000">TypeMatcher</text>
<polyline fill="none" stroke="#000000" points="166.9326,-104.5 330.9326,-104.5 "/>
<text text-anchor="middle" x="248.9326" y="-92.5" font-family="Helvetica,sans-Serif" font-size="10.00" fill="#000000"> </text>
<polyline fill="none" stroke="#000000" points="166.9326,-85.5 330.9326,-85.5 "/>
<text text-anchor="start" x="174.9326" y="-73.5" font-family="Helvetica,sans-Serif" font-size="10.00" fill="#000000">+ ConcreteDataTypeMatcher()</text>
<text text-anchor="start" x="174.9326" y="-62.5" font-family="Helvetica,sans-Serif" font-size="10.00" fill="#000000">+ ConcreteDataTypeMatcher()</text>
<text text-anchor="start" x="174.9326" y="-51.5" font-family="Helvetica,sans-Serif" font-size="10.00" fill="#000000">+ ConcreteDataTypeMatcher()</text>
<text text-anchor="start" x="174.9326" y="-40.5" font-family="Helvetica,sans-Serif" font-size="10.00" fill="#000000">+ operator=()</text>
<text text-anchor="start" x="174.9326" y="-29.5" font-family="Helvetica,sans-Serif" font-size="10.00" fill="#000000">+ operator=()</text>
<text text-anchor="start" x="174.9326" y="-18.5" font-family="Helvetica,sans-Serif" font-size="10.00" fill="#000000">+ operator==()</text>
<text text-anchor="start" x="174.9326" y="-7.5" font-family="Helvetica,sans-Serif" font-size="10.00" fill="#000000">+ operator!=()</text>
</g>
<!-- Node2 -->
<g id="node2" class="node">
<title>Node2</title>
<g id="a_node2"><a xlink:href="../../d9/db3/structo2_1_1header_1_1Descriptor.html" target="_top" xlink:title="{o2::header::Descriptor\l\&lt; gSizeDataOriginString,\l printDataOrigin \&gt;\n||+ Descriptor()\l+ Descriptor()\l+ Descriptor()\l+ Descriptor()\l+ operator=()\l+ operator ItgType()\l+ runtimeInit()\l+ operator==()\l+ operator==()\l+ operator\&lt;()\l+ operator!=()\l+ operator!=()\l+ as()\l+ print()\l}">
<polygon fill="none" stroke="#000000" points="368.9326,-182.5 368.9326,-404.5 506.9326,-404.5 506.9326,-182.5 368.9326,-182.5"/>
<text text-anchor="start" x="376.9326" y="-392.5" font-family="Helvetica,sans-Serif" font-size="10.00" fill="#000000">o2::header::Descriptor</text>
<text text-anchor="start" x="376.9326" y="-381.5" font-family="Helvetica,sans-Serif" font-size="10.00" fill="#000000">&lt; gSizeDataOriginString,</text>
<text text-anchor="middle" x="437.9326" y="-370.5" font-family="Helvetica,sans-Serif" font-size="10.00" fill="#000000"> printDataOrigin &gt;</text>
<polyline fill="none" stroke="#000000" points="368.9326,-363.5 506.9326,-363.5 "/>
<text text-anchor="middle" x="437.9326" y="-351.5" font-family="Helvetica,sans-Serif" font-size="10.00" fill="#000000"> </text>
<polyline fill="none" stroke="#000000" points="368.9326,-344.5 506.9326,-344.5 "/>
<text text-anchor="start" x="376.9326" y="-332.5" font-family="Helvetica,sans-Serif" font-size="10.00" fill="#000000">+ Descriptor()</text>
<text text-anchor="start" x="376.9326" y="-321.5" font-family="Helvetica,sans-Serif" font-size="10.00" fill="#000000">+ Descriptor()</text>
<text text-anchor="start" x="376.9326" y="-310.5" font-family="Helvetica,sans-Serif" font-size="10.00" fill="#000000">+ Descriptor()</text>
<text text-anchor="start" x="376.9326" y="-299.5" font-family="Helvetica,sans-Serif" font-size="10.00" fill="#000000">+ Descriptor()</text>
<text text-anchor="start" x="376.9326" y="-288.5" font-family="Helvetica,sans-Serif" font-size="10.00" fill="#000000">+ operator=()</text>
<text text-anchor="start" x="376.9326" y="-277.5" font-family="Helvetica,sans-Serif" font-size="10.00" fill="#000000">+ operator ItgType()</text>
<text text-anchor="start" x="376.9326" y="-266.5" font-family="Helvetica,sans-Serif" font-size="10.00" fill="#000000">+ runtimeInit()</text>
<text text-anchor="start" x="376.9326" y="-255.5" font-family="Helvetica,sans-Serif" font-size="10.00" fill="#000000">+ operator==()</text>
<text text-anchor="start" x="376.9326" y="-244.5" font-family="Helvetica,sans-Serif" font-size="10.00" fill="#000000">+ operator==()</text>
<text text-anchor="start" x="376.9326" y="-233.5" font-family="Helvetica,sans-Serif" font-size="10.00" fill="#000000">+ operator&lt;()</text>
<text text-anchor="start" x="376.9326" y="-222.5" font-family="Helvetica,sans-Serif" font-size="10.00" fill="#000000">+ operator!=()</text>
<text text-anchor="start" x="376.9326" y="-211.5" font-family="Helvetica,sans-Serif" font-size="10.00" fill="#000000">+ operator!=()</text>
<text text-anchor="start" x="376.9326" y="-200.5" font-family="Helvetica,sans-Serif" font-size="10.00" fill="#000000">+ as()</text>
<text text-anchor="start" x="376.9326" y="-189.5" font-family="Helvetica,sans-Serif" font-size="10.00" fill="#000000">+ print()</text>
</a>
</g>
</g>
<!-- Node2&#45;&gt;Node1 -->
<g id="edge1" class="edge">
<title>Node2&#45;&gt;Node1</title>
<path fill="none" stroke="#404040" d="M368.897,-210.9495C350.6175,-189.0914 330.9643,-165.5908 312.963,-144.0654"/>
<polygon fill="none" stroke="#404040" points="312.788,-143.8561 305.8704,-141.8195 305.0897,-134.6508 312.0073,-136.6874 312.788,-143.8561"/>
<text text-anchor="middle" x="346.9326" y="-156" font-family="Helvetica,sans-Serif" font-size="10.00" fill="#000000"> +origin</text>
</g>
<!-- Node3 -->
<g id="node3" class="node">
<title>Node3</title>
<polygon fill="none" stroke="#bfbfbf" points="232.4326,-755.5 232.4326,-812.5 271.4326,-812.5 271.4326,-755.5 232.4326,-755.5"/>
<text text-anchor="middle" x="251.9326" y="-800.5" font-family="Helvetica,sans-Serif" font-size="10.00" fill="#000000">Type</text>
<polyline fill="none" stroke="#bfbfbf" points="232.4326,-793.5 271.4326,-793.5 "/>
<text text-anchor="middle" x="251.9326" y="-781.5" font-family="Helvetica,sans-Serif" font-size="10.00" fill="#000000"> </text>
<polyline fill="none" stroke="#bfbfbf" points="232.4326,-774.5 271.4326,-774.5 "/>
<text text-anchor="middle" x="251.9326" y="-762.5" font-family="Helvetica,sans-Serif" font-size="10.00" fill="#000000"> </text>
</g>
<!-- Node3&#45;&gt;Node2 -->
<g id="edge2" class="edge">
<title>Node3&#45;&gt;Node2</title>
<path fill="none" stroke="#404040" d="M243.8908,-755.4358C228.697,-694.6449 203.486,-551.6854 276.9326,-474 317.3074,-431.2951 365.4315,-496.5892 407.9326,-456 419.423,-445.0265 427.3458,-431.1956 432.7068,-416.2572"/>
<polygon fill="none" stroke="#404040" points="432.7546,-416.1037 430.7202,-409.1855 436.3238,-404.6468 438.3582,-411.565 432.7546,-416.1037"/>
<text text-anchor="middle" x="289.4326" y="-577.5" font-family="Helvetica,sans-Serif" font-size="10.00" fill="#000000"> +itg</text>
</g>
<!-- Node7 -->
<g id="node7" class="node">
<title>Node7</title>
<g id="a_node7"><a xlink:href="../../d9/db3/structo2_1_1header_1_1Descriptor.html" target="_top" xlink:title="{o2::header::Descriptor\l\&lt; N, PrinterPolicy \&gt;\n||+ Descriptor()\l+ Descriptor()\l+ Descriptor()\l+ operator=()\l+ operator ItgType()\l+ Descriptor()\l+ runtimeInit()\l+ operator==()\l+ operator\&lt;()\l+ operator!=()\l+ operator==()\l+ operator!=()\l+ as()\l+ print()\l}">
<polygon fill="none" stroke="#000000" points="371.4326,-474.5 371.4326,-685.5 496.4326,-685.5 496.4326,-474.5 371.4326,-474.5"/>
<text text-anchor="start" x="379.4326" y="-673.5" font-family="Helvetica,sans-Serif" font-size="10.00" fill="#000000">o2::header::Descriptor</text>
<text text-anchor="middle" x="433.9326" y="-662.5" font-family="Helvetica,sans-Serif" font-size="10.00" fill="#000000">&lt; N, PrinterPolicy &gt;</text>
<polyline fill="none" stroke="#000000" points="371.4326,-655.5 496.4326,-655.5 "/>
<text text-anchor="middle" x="433.9326" y="-643.5" font-family="Helvetica,sans-Serif" font-size="10.00" fill="#000000"> </text>
<polyline fill="none" stroke="#000000" points="371.4326,-636.5 496.4326,-636.5 "/>
<text text-anchor="start" x="379.4326" y="-624.5" font-family="Helvetica,sans-Serif" font-size="10.00" fill="#000000">+ Descriptor()</text>
<text text-anchor="start" x="379.4326" y="-613.5" font-family="Helvetica,sans-Serif" font-size="10.00" fill="#000000">+ Descriptor()</text>
<text text-anchor="start" x="379.4326" y="-602.5" font-family="Helvetica,sans-Serif" font-size="10.00" fill="#000000">+ Descriptor()</text>
<text text-anchor="start" x="379.4326" y="-591.5" font-family="Helvetica,sans-Serif" font-size="10.00" fill="#000000">+ operator=()</text>
<text text-anchor="start" x="379.4326" y="-580.5" font-family="Helvetica,sans-Serif" font-size="10.00" fill="#000000">+ operator ItgType()</text>
<text text-anchor="start" x="379.4326" y="-569.5" font-family="Helvetica,sans-Serif" font-size="10.00" fill="#000000">+ Descriptor()</text>
<text text-anchor="start" x="379.4326" y="-558.5" font-family="Helvetica,sans-Serif" font-size="10.00" fill="#000000">+ runtimeInit()</text>
<text text-anchor="start" x="379.4326" y="-547.5" font-family="Helvetica,sans-Serif" font-size="10.00" fill="#000000">+ operator==()</text>
<text text-anchor="start" x="379.4326" y="-536.5" font-family="Helvetica,sans-Serif" font-size="10.00" fill="#000000">+ operator&lt;()</text>
<text text-anchor="start" x="379.4326" y="-525.5" font-family="Helvetica,sans-Serif" font-size="10.00" fill="#000000">+ operator!=()</text>
<text text-anchor="start" x="379.4326" y="-514.5" font-family="Helvetica,sans-Serif" font-size="10.00" fill="#000000">+ operator==()</text>
<text text-anchor="start" x="379.4326" y="-503.5" font-family="Helvetica,sans-Serif" font-size="10.00" fill="#000000">+ operator!=()</text>
<text text-anchor="start" x="379.4326" y="-492.5" font-family="Helvetica,sans-Serif" font-size="10.00" fill="#000000">+ as()</text>
<text text-anchor="start" x="379.4326" y="-481.5" font-family="Helvetica,sans-Serif" font-size="10.00" fill="#000000">+ print()</text>
</a>
</g>
</g>
<!-- Node3&#45;&gt;Node7 -->
<g id="edge7" class="edge">
<title>Node3&#45;&gt;Node7</title>
<path fill="none" stroke="#404040" d="M271.5318,-764.2878C274.665,-761.1692 277.8798,-757.9885 280.9326,-755 312.6046,-723.9947 323.3893,-719.04 352.9326,-686 356.458,-682.0573 359.999,-677.9746 363.5247,-673.8082"/>
<polygon fill="none" stroke="#404040" points="363.5317,-673.7998 364.2944,-666.6291 371.2069,-664.5753 370.4441,-671.7459 363.5317,-673.7998"/>
<text text-anchor="middle" x="348.4326" y="-718" font-family="Helvetica,sans-Serif" font-size="10.00" fill="#000000"> +itg</text>
</g>
<!-- Node9 -->
<g id="node9" class="node">
<title>Node9</title>
<g id="a_node9"><a xlink:href="../../d9/db3/structo2_1_1header_1_1Descriptor.html" target="_top" xlink:title="{o2::header::Descriptor\l\&lt; gSizeDataDescriptionString,\l printDataDescription \&gt;\n||+ Descriptor()\l+ Descriptor()\l+ Descriptor()\l+ Descriptor()\l+ operator=()\l+ operator ItgType()\l+ runtimeInit()\l+ operator==()\l+ operator==()\l+ operator\&lt;()\l+ operator!=()\l+ operator!=()\l+ as()\l+ print()\l}">
<polygon fill="none" stroke="#000000" points="31.9326,-182.5 31.9326,-404.5 195.9326,-404.5 195.9326,-182.5 31.9326,-182.5"/>
<text text-anchor="start" x="39.9326" y="-392.5" font-family="Helvetica,sans-Serif" font-size="10.00" fill="#000000">o2::header::Descriptor</text>
<text text-anchor="start" x="39.9326" y="-381.5" font-family="Helvetica,sans-Serif" font-size="10.00" fill="#000000">&lt; gSizeDataDescriptionString,</text>
<text text-anchor="middle" x="113.9326" y="-370.5" font-family="Helvetica,sans-Serif" font-size="10.00" fill="#000000"> printDataDescription &gt;</text>
<polyline fill="none" stroke="#000000" points="31.9326,-363.5 195.9326,-363.5 "/>
<text text-anchor="middle" x="113.9326" y="-351.5" font-family="Helvetica,sans-Serif" font-size="10.00" fill="#000000"> </text>
<polyline fill="none" stroke="#000000" points="31.9326,-344.5 195.9326,-344.5 "/>
<text text-anchor="start" x="39.9326" y="-332.5" font-family="Helvetica,sans-Serif" font-size="10.00" fill="#000000">+ Descriptor()</text>
<text text-anchor="start" x="39.9326" y="-321.5" font-family="Helvetica,sans-Serif" font-size="10.00" fill="#000000">+ Descriptor()</text>
<text text-anchor="start" x="39.9326" y="-310.5" font-family="Helvetica,sans-Serif" font-size="10.00" fill="#000000">+ Descriptor()</text>
<text text-anchor="start" x="39.9326" y="-299.5" font-family="Helvetica,sans-Serif" font-size="10.00" fill="#000000">+ Descriptor()</text>
<text text-anchor="start" x="39.9326" y="-288.5" font-family="Helvetica,sans-Serif" font-size="10.00" fill="#000000">+ operator=()</text>
<text text-anchor="start" x="39.9326" y="-277.5" font-family="Helvetica,sans-Serif" font-size="10.00" fill="#000000">+ operator ItgType()</text>
<text text-anchor="start" x="39.9326" y="-266.5" font-family="Helvetica,sans-Serif" font-size="10.00" fill="#000000">+ runtimeInit()</text>
<text text-anchor="start" x="39.9326" y="-255.5" font-family="Helvetica,sans-Serif" font-size="10.00" fill="#000000">+ operator==()</text>
<text text-anchor="start" x="39.9326" y="-244.5" font-family="Helvetica,sans-Serif" font-size="10.00" fill="#000000">+ operator==()</text>
<text text-anchor="start" x="39.9326" y="-233.5" font-family="Helvetica,sans-Serif" font-size="10.00" fill="#000000">+ operator&lt;()</text>
<text text-anchor="start" x="39.9326" y="-222.5" font-family="Helvetica,sans-Serif" font-size="10.00" fill="#000000">+ operator!=()</text>
<text text-anchor="start" x="39.9326" y="-211.5" font-family="Helvetica,sans-Serif" font-size="10.00" fill="#000000">+ operator!=()</text>
<text text-anchor="start" x="39.9326" y="-200.5" font-family="Helvetica,sans-Serif" font-size="10.00" fill="#000000">+ as()</text>
<text text-anchor="start" x="39.9326" y="-189.5" font-family="Helvetica,sans-Serif" font-size="10.00" fill="#000000">+ print()</text>
</a>
</g>
</g>
<!-- Node3&#45;&gt;Node9 -->
<g id="edge12" class="edge">
<title>Node3&#45;&gt;Node9</title>
<path fill="none" stroke="#404040" d="M232.1443,-781.2071C189.7345,-774.0624 90.3394,-750.8721 45.9326,-686 -20.2313,-589.3437 -4.609,-535.2277 28.9326,-423 29.6546,-420.5844 30.4377,-418.172 31.2764,-415.7658"/>
<polygon fill="none" stroke="#404040" points="31.278,-415.7617 29.6996,-408.7254 35.5875,-404.5622 37.1659,-411.5984 31.278,-415.7617"/>
<text text-anchor="middle" x="58.4326" y="-577.5" font-family="Helvetica,sans-Serif" font-size="10.00" fill="#000000"> +itg</text>
</g>
<!-- Node4 -->
<g id="node4" class="node">
<title>Node4</title>
<polygon fill="none" stroke="#bfbfbf" points="289.9326,-755.5 289.9326,-812.5 327.9326,-812.5 327.9326,-755.5 289.9326,-755.5"/>
<text text-anchor="middle" x="308.9326" y="-800.5" font-family="Helvetica,sans-Serif" font-size="10.00" fill="#000000">char</text>
<polyline fill="none" stroke="#bfbfbf" points="289.9326,-793.5 327.9326,-793.5 "/>
<text text-anchor="middle" x="308.9326" y="-781.5" font-family="Helvetica,sans-Serif" font-size="10.00" fill="#000000"> </text>
<polyline fill="none" stroke="#bfbfbf" points="289.9326,-774.5 327.9326,-774.5 "/>
<text text-anchor="middle" x="308.9326" y="-762.5" font-family="Helvetica,sans-Serif" font-size="10.00" fill="#000000"> </text>
</g>
<!-- Node4&#45;&gt;Node2 -->
<g id="edge3" class="edge">
<title>Node4&#45;&gt;Node2</title>
<path fill="none" stroke="#404040" d="M307.2975,-755.351C304.0096,-686.5221 299.801,-514.5525 336.9326,-474 367.4289,-440.6941 407.8603,-490.5559 436.9326,-456 446.4396,-444.6998 452.1006,-431.2271 455.091,-416.9426"/>
<polygon fill="none" stroke="#404040" points="455.1389,-416.6373 452.1181,-410.0893 457.0006,-404.7825 460.0213,-411.3305 455.1389,-416.6373"/>
<text text-anchor="middle" x="349.4326" y="-577.5" font-family="Helvetica,sans-Serif" font-size="10.00" fill="#000000"> +str</text>
</g>
<!-- Node4&#45;&gt;Node7 -->
<g id="edge8" class="edge">
<title>Node4&#45;&gt;Node7</title>
<path fill="none" stroke="#404040" d="M328.1203,-771.6993C340.2409,-763.1503 355.5228,-750.8367 365.9326,-737 375.2535,-724.6107 383.6003,-710.747 390.9828,-696.525"/>
<polygon fill="none" stroke="#404040" points="391.0784,-696.3335 390.181,-689.1784 396.4404,-685.598 397.3379,-692.7531 391.0784,-696.3335"/>
<text text-anchor="middle" x="399.4326" y="-718" font-family="Helvetica,sans-Serif" font-size="10.00" fill="#000000"> +str</text>
</g>
<!-- Node4&#45;&gt;Node9 -->
<g id="edge13" class="edge">
<title>Node4&#45;&gt;Node9</title>
<path fill="none" stroke="#404040" d="M289.7606,-763.0905C286.6246,-760.1944 283.2964,-757.3957 279.9326,-755 222.7784,-714.2956 183.7919,-739.1073 137.9326,-686 73.3496,-611.2098 113.6517,-563.1046 70.9326,-474 66.776,-465.3301 61.7188,-465.2023 58.9326,-456 54.6824,-441.9627 56.0071,-437.3719 58.9326,-423 59.3791,-420.8065 59.8641,-418.6042 60.3843,-416.3963"/>
<polygon fill="none" stroke="#404040" points="60.4446,-416.1658 58.094,-409.3486 63.4827,-404.5568 65.8333,-411.374 60.4446,-416.1658"/>
<text text-anchor="middle" x="150.4326" y="-577.5" font-family="Helvetica,sans-Serif" font-size="10.00" fill="#000000"> +str</text>
</g>
<!-- Node5 -->
<g id="node5" class="node">
<title>Node5</title>
<polygon fill="none" stroke="#bfbfbf" points="172.4326,-551.5 172.4326,-608.5 201.4326,-608.5 201.4326,-551.5 172.4326,-551.5"/>
<text text-anchor="middle" x="186.9326" y="-596.5" font-family="Helvetica,sans-Serif" font-size="10.00" fill="#000000">int</text>
<polyline fill="none" stroke="#bfbfbf" points="172.4326,-589.5 201.4326,-589.5 "/>
<text text-anchor="middle" x="186.9326" y="-577.5" font-family="Helvetica,sans-Serif" font-size="10.00" fill="#000000"> </text>
<polyline fill="none" stroke="#bfbfbf" points="172.4326,-570.5 201.4326,-570.5 "/>
<text text-anchor="middle" x="186.9326" y="-558.5" font-family="Helvetica,sans-Serif" font-size="10.00" fill="#000000"> </text>
</g>
<!-- Node5&#45;&gt;Node2 -->
<g id="edge4" class="edge">
<title>Node5&#45;&gt;Node2</title>
<path fill="none" stroke="#404040" d="M192.3057,-551.4823C198.3357,-527.3703 210.514,-493.6937 233.9326,-474 259.1775,-452.7704 278.1056,-473.7104 305.9326,-456 325.908,-443.2868 344.2648,-426.5211 360.5332,-408.5887"/>
<polygon fill="none" stroke="#404040" points="360.9297,-408.1371 361.8831,-400.9893 368.8477,-399.1201 367.8944,-406.2679 360.9297,-408.1371"/>
<text text-anchor="middle" x="374.9326" y="-448" font-family="Helvetica,sans-Serif" font-size="10.00" fill="#000000"> +arraySize</text>
<text text-anchor="middle" x="374.9326" y="-437" font-family="Helvetica,sans-Serif" font-size="10.00" fill="#000000">+size</text>
<text text-anchor="middle" x="374.9326" y="-426" font-family="Helvetica,sans-Serif" font-size="10.00" fill="#000000">+bitcount</text>
</g>
<!-- Node5&#45;&gt;Node9 -->
<g id="edge14" class="edge">
<title>Node5&#45;&gt;Node9</title>
<path fill="none" stroke="#404040" d="M175.5767,-551.1277C164.9342,-527.4559 146.9114,-494.6052 121.9326,-474 104.3569,-459.5016 86.9103,-474.7268 73.9326,-456 65.7409,-444.1793 62.2125,-430.8544 61.8505,-417.0489"/>
<polygon fill="none" stroke="#404040" points="61.8593,-416.8103 58.0873,-410.6644 62.3097,-404.8188 66.0817,-410.9647 61.8593,-416.8103"/>
<text text-anchor="middle" x="102.9326" y="-448" font-family="Helvetica,sans-Serif" font-size="10.00" fill="#000000"> +arraySize</text>
<text text-anchor="middle" x="102.9326" y="-437" font-family="Helvetica,sans-Serif" font-size="10.00" fill="#000000">+size</text>
<text text-anchor="middle" x="102.9326" y="-426" font-family="Helvetica,sans-Serif" font-size="10.00" fill="#000000">+bitcount</text>
</g>
<!-- Node6 -->
<g id="node6" class="node">
<title>Node6</title>
<polygon fill="none" stroke="#bfbfbf" points="512.4326,-755.5 512.4326,-812.5 619.4326,-812.5 619.4326,-755.5 512.4326,-755.5"/>
<text text-anchor="middle" x="565.9326" y="-800.5" font-family="Helvetica,sans-Serif" font-size="10.00" fill="#000000">anonymous:+@24</text>
<polyline fill="none" stroke="#bfbfbf" points="512.4326,-793.5 619.4326,-793.5 "/>
<text text-anchor="middle" x="565.9326" y="-781.5" font-family="Helvetica,sans-Serif" font-size="10.00" fill="#000000"> </text>
<polyline fill="none" stroke="#bfbfbf" points="512.4326,-774.5 619.4326,-774.5 "/>
<text text-anchor="middle" x="565.9326" y="-762.5" font-family="Helvetica,sans-Serif" font-size="10.00" fill="#000000"> </text>
</g>
<!-- Node6&#45;&gt;Node2 -->
<g id="edge5" class="edge">
<title>Node6&#45;&gt;Node2</title>
<path fill="none" stroke="#404040" d="M577.2313,-755.1291C600.2087,-691.5906 645.9094,-536.2946 592.9326,-423 576.8523,-388.6112 546.6521,-360.1482 517.1504,-338.7491"/>
<polygon fill="none" stroke="#404040" points="517.0175,-338.656 509.8084,-338.4849 507.1936,-331.7645 514.4027,-331.9356 517.0175,-338.656"/>
<text text-anchor="middle" x="633.9326" y="-577.5" font-family="Helvetica,sans-Serif" font-size="10.00" fill="#000000"> +@24</text>
</g>
<!-- Node6&#45;&gt;Node7 -->
<g id="edge9" class="edge">
<title>Node6&#45;&gt;Node7</title>
<path fill="none" stroke="#404040" d="M533.9935,-755.4512C528.3093,-749.6342 522.6918,-743.3442 517.9326,-737 508.472,-724.3884 499.447,-710.5708 491.0596,-696.5281"/>
<polygon fill="none" stroke="#404040" points="490.8241,-696.1247 484.3444,-692.9603 484.7733,-685.7619 491.253,-688.9264 490.8241,-696.1247"/>
<text text-anchor="middle" x="534.9326" y="-718" font-family="Helvetica,sans-Serif" font-size="10.00" fill="#000000"> +@24</text>
</g>
<!-- Node6&#45;&gt;Node9 -->
<g id="edge15" class="edge">
<title>Node6&#45;&gt;Node9</title>
<path fill="none" stroke="#404040" d="M563.8221,-755.3532C558.2411,-686.9292 540.9841,-516.5153 504.9326,-474 490.4659,-456.9395 478.5044,-464.7833 457.9326,-456 445.3388,-450.6229 304.669,-384.0036 207.1659,-337.7547"/>
<polygon fill="none" stroke="#404040" points="206.9368,-337.6461 199.8014,-338.6885 196.0949,-332.5029 203.2302,-331.4605 206.9368,-337.6461"/>
<text text-anchor="middle" x="573.9326" y="-577.5" font-family="Helvetica,sans-Serif" font-size="10.00" fill="#000000"> +@24</text>
</g>
<!-- Node7&#45;&gt;Node2 -->
<g id="edge6" class="edge">
<title>Node7&#45;&gt;Node2</title>
<path fill="none" stroke="#ffa500" d="M460.9126,-464.2735C461.2864,-461.494 461.6279,-458.7332 461.9326,-456 463.7813,-439.4198 463.5318,-421.9316 462.0465,-404.8163"/>
<polygon fill="#ffa500" stroke="#ffa500" points="457.4154,-463.9994 459.4253,-474.4018 464.3412,-465.0165 457.4154,-463.9994"/>
<text text-anchor="start" x="463.9326" y="-442.5" font-family="Helvetica,sans-Serif" font-size="10.00" fill="#000000"> &lt; gSizeDataOriginString,</text>
<text text-anchor="middle" x="526.4326" y="-431.5" font-family="Helvetica,sans-Serif" font-size="10.00" fill="#000000"> printDataOrigin &gt;</text>
</g>
<!-- Node7&#45;&gt;Node9 -->
<g id="edge16" class="edge">
<title>Node7&#45;&gt;Node9</title>
<path fill="none" stroke="#ffa500" d="M363.26,-480.5112C359.9257,-478.1398 356.4826,-475.9559 352.9326,-474 313.4606,-452.2521 184.8765,-485.645 150.9326,-456 141.8342,-448.0538 134.7347,-428.0032 129.2981,-404.5898"/>
<polygon fill="#ffa500" stroke="#ffa500" points="361.2772,-483.4028 371.3229,-486.7695 365.5693,-477.873 361.2772,-483.4028"/>
<text text-anchor="start" x="150.9326" y="-442.5" font-family="Helvetica,sans-Serif" font-size="10.00" fill="#000000"> &lt; gSizeDataDescriptionString,</text>
<text text-anchor="middle" x="226.4326" y="-431.5" font-family="Helvetica,sans-Serif" font-size="10.00" fill="#000000"> printDataDescription &gt;</text>
</g>
<!-- Node8 -->
<g id="node8" class="node">
<title>Node8</title>
<polygon fill="none" stroke="#bfbfbf" points="413.9326,-755.5 413.9326,-812.5 457.9326,-812.5 457.9326,-755.5 413.9326,-755.5"/>
<text text-anchor="middle" x="435.9326" y="-800.5" font-family="Helvetica,sans-Serif" font-size="10.00" fill="#000000">static</text>
<polyline fill="none" stroke="#bfbfbf" points="413.9326,-793.5 457.9326,-793.5 "/>
<text text-anchor="middle" x="435.9326" y="-781.5" font-family="Helvetica,sans-Serif" font-size="10.00" fill="#000000"> </text>
<polyline fill="none" stroke="#bfbfbf" points="413.9326,-774.5 457.9326,-774.5 "/>
<text text-anchor="middle" x="435.9326" y="-762.5" font-family="Helvetica,sans-Serif" font-size="10.00" fill="#000000"> </text>
</g>
<!-- Node8&#45;&gt;Node7 -->
<g id="edge10" class="edge">
<title>Node8&#45;&gt;Node7</title>
<path fill="none" stroke="#404040" d="M435.6503,-755.2045C435.4975,-739.616 435.2974,-719.2061 435.088,-697.8459"/>
<polygon fill="none" stroke="#404040" points="435.0851,-697.5485 431.0265,-691.5881 434.9674,-685.5491 439.0261,-691.5096 435.0851,-697.5485"/>
<text text-anchor="middle" x="464.9326" y="-729" font-family="Helvetica,sans-Serif" font-size="10.00" fill="#000000"> +arraySize</text>
<text text-anchor="middle" x="464.9326" y="-718" font-family="Helvetica,sans-Serif" font-size="10.00" fill="#000000">+size</text>
<text text-anchor="middle" x="464.9326" y="-707" font-family="Helvetica,sans-Serif" font-size="10.00" fill="#000000">+bitcount</text>
</g>
<!-- Node9&#45;&gt;Node1 -->
<g id="edge11" class="edge">
<title>Node9&#45;&gt;Node1</title>
<path fill="none" stroke="#404040" d="M180.2461,-182.4862C187.7759,-169.8808 195.3254,-157.2425 202.5196,-145.1988"/>
<polygon fill="none" stroke="#404040" points="202.587,-145.0859 202.23,-137.8836 208.7409,-134.7839 209.098,-141.9862 202.587,-145.0859"/>
<text text-anchor="middle" x="230.9326" y="-156" font-family="Helvetica,sans-Serif" font-size="10.00" fill="#000000"> +description</text>
</g>
</g>
</svg>
