<?xml version="1.0" encoding="UTF-8" standalone="no"?>
<!DOCTYPE svg PUBLIC "-//W3C//DTD SVG 1.1//EN"
 "http://www.w3.org/Graphics/SVG/1.1/DTD/svg11.dtd">
<!-- Generated by graphviz version 2.40.1 (20161225.0304)
 -->
<!-- Title: GPUCA_NAMESPACE::gpu::GPUTPCSharedMemoryData::noise_t Pages: 1 -->
<svg width="306pt" height="375pt"
 viewBox="0.00 0.00 306.00 375.00" xmlns="http://www.w3.org/2000/svg" xmlns:xlink="http://www.w3.org/1999/xlink">
<g id="graph0" class="graph" transform="scale(1 1) rotate(0) translate(4 371)">
<title>GPUCA_NAMESPACE::gpu::GPUTPCSharedMemoryData::noise_t</title>
<!-- Node1 -->
<g id="node1" class="node">
<title>Node1</title>
<polygon fill="#bfbfbf" stroke="#000000" points="68.5,-.5 68.5,-79.5 227.5,-79.5 227.5,-.5 68.5,-.5"/>
<text text-anchor="start" x="76.5" y="-67.5" font-family="Helvetica,sans-Serif" font-size="10.00" fill="#000000">GPUCA_NAMESPACE::gpu</text>
<text text-anchor="start" x="76.5" y="-56.5" font-family="Helvetica,sans-Serif" font-size="10.00" fill="#000000">::GPUTPCSharedMemoryData</text>
<text text-anchor="middle" x="148" y="-45.5" font-family="Helvetica,sans-Serif" font-size="10.00" fill="#000000">::noise_t</text>
<polyline fill="none" stroke="#000000" points="68.5,-38.5 227.5,-38.5 "/>
<text text-anchor="middle" x="148" y="-26.5" font-family="Helvetica,sans-Serif" font-size="10.00" fill="#000000"> </text>
<polyline fill="none" stroke="#000000" points="68.5,-19.5 227.5,-19.5 "/>
<text text-anchor="middle" x="148" y="-7.5" font-family="Helvetica,sans-Serif" font-size="10.00" fill="#000000"> </text>
</g>
<!-- Node2 -->
<g id="node2" class="node">
<title>Node2</title>
<g id="a_node2"><a xlink:href="../../da/dca/classGPUCA__NAMESPACE_1_1gpu_1_1PackedCharge.html" target="_top" xlink:title="{GPUCA_NAMESPACE::gpu\l::PackedCharge\n|+ mVal\l|+ PackedCharge()\l+ GPUdi()\l+ GPUdi()\l+ GPUdi()\l+ GPUdi()\l+ GPUdi()\l}">
<polygon fill="none" stroke="#000000" points="0,-127.5 0,-250.5 140,-250.5 140,-127.5 0,-127.5"/>
<text text-anchor="start" x="8" y="-238.5" font-family="Helvetica,sans-Serif" font-size="10.00" fill="#000000">GPUCA_NAMESPACE::gpu</text>
<text text-anchor="middle" x="70" y="-227.5" font-family="Helvetica,sans-Serif" font-size="10.00" fill="#000000">::PackedCharge</text>
<polyline fill="none" stroke="#000000" points="0,-220.5 140,-220.5 "/>
<text text-anchor="start" x="8" y="-208.5" font-family="Helvetica,sans-Serif" font-size="10.00" fill="#000000">+ mVal</text>
<polyline fill="none" stroke="#000000" points="0,-201.5 140,-201.5 "/>
<text text-anchor="start" x="8" y="-189.5" font-family="Helvetica,sans-Serif" font-size="10.00" fill="#000000">+ PackedCharge()</text>
<text text-anchor="start" x="8" y="-178.5" font-family="Helvetica,sans-Serif" font-size="10.00" fill="#000000">+ GPUdi()</text>
<text text-anchor="start" x="8" y="-167.5" font-family="Helvetica,sans-Serif" font-size="10.00" fill="#000000">+ GPUdi()</text>
<text text-anchor="start" x="8" y="-156.5" font-family="Helvetica,sans-Serif" font-size="10.00" fill="#000000">+ GPUdi()</text>
<text text-anchor="start" x="8" y="-145.5" font-family="Helvetica,sans-Serif" font-size="10.00" fill="#000000">+ GPUdi()</text>
<text text-anchor="start" x="8" y="-134.5" font-family="Helvetica,sans-Serif" font-size="10.00" fill="#000000">+ GPUdi()</text>
</a>
</g>
</g>
<!-- Node2&#45;&gt;Node1 -->
<g id="edge1" class="edge">
<title>Node2&#45;&gt;Node1</title>
<path fill="none" stroke="#404040" d="M102.4014,-127.105C108.7452,-114.9867 115.329,-102.41 121.4547,-90.7083"/>
<polygon fill="none" stroke="#404040" points="121.5992,-90.4322 120.8382,-83.2613 127.1647,-79.8008 127.9257,-86.9716 121.5992,-90.4322"/>
<text text-anchor="middle" x="130" y="-101" font-family="Helvetica,sans-Serif" font-size="10.00" fill="#000000"> +buf</text>
</g>
<!-- Node3 -->
<g id="node3" class="node">
<title>Node3</title>
<polygon fill="none" stroke="#bfbfbf" points="51,-309.5 51,-366.5 89,-366.5 89,-309.5 51,-309.5"/>
<text text-anchor="middle" x="70" y="-354.5" font-family="Helvetica,sans-Serif" font-size="10.00" fill="#000000">bool</text>
<polyline fill="none" stroke="#bfbfbf" points="51,-347.5 89,-347.5 "/>
<text text-anchor="middle" x="70" y="-335.5" font-family="Helvetica,sans-Serif" font-size="10.00" fill="#000000"> </text>
<polyline fill="none" stroke="#bfbfbf" points="51,-328.5 89,-328.5 "/>
<text text-anchor="middle" x="70" y="-316.5" font-family="Helvetica,sans-Serif" font-size="10.00" fill="#000000"> </text>
</g>
<!-- Node3&#45;&gt;Node2 -->
<g id="edge2" class="edge">
<title>Node3&#45;&gt;Node2</title>
<path fill="none" stroke="#404040" d="M70,-309.2713C70,-295.8656 70,-279.2317 70,-262.6537"/>
<polygon fill="none" stroke="#404040" points="70.0001,-262.6392 66,-256.6392 70,-250.6392 74,-256.6391 70.0001,-262.6392"/>
<text text-anchor="middle" x="97" y="-283" font-family="Helvetica,sans-Serif" font-size="10.00" fill="#000000"> +peak3x3</text>
<text text-anchor="middle" x="97" y="-272" font-family="Helvetica,sans-Serif" font-size="10.00" fill="#000000">+wasSplit</text>
</g>
<!-- Node4 -->
<g id="node4" class="node">
<title>Node4</title>
<g id="a_node4"><a xlink:href="../../dd/d68/structGPUCA__NAMESPACE_1_1gpu_1_1ChargePos.html" target="_top" xlink:title="{GPUCA_NAMESPACE::gpu\l::ChargePos\n||}">
<polygon fill="none" stroke="#000000" points="158,-155 158,-223 298,-223 298,-155 158,-155"/>
<text text-anchor="start" x="166" y="-211" font-family="Helvetica,sans-Serif" font-size="10.00" fill="#000000">GPUCA_NAMESPACE::gpu</text>
<text text-anchor="middle" x="228" y="-200" font-family="Helvetica,sans-Serif" font-size="10.00" fill="#000000">::ChargePos</text>
<polyline fill="none" stroke="#000000" points="158,-193 298,-193 "/>
<text text-anchor="middle" x="228" y="-181" font-family="Helvetica,sans-Serif" font-size="10.00" fill="#000000"> </text>
<polyline fill="none" stroke="#000000" points="158,-174 298,-174 "/>
<text text-anchor="middle" x="228" y="-162" font-family="Helvetica,sans-Serif" font-size="10.00" fill="#000000"> </text>
</a>
</g>
</g>
<!-- Node4&#45;&gt;Node1 -->
<g id="edge3" class="edge">
<title>Node4&#45;&gt;Node1</title>
<path fill="none" stroke="#404040" d="M209.6464,-154.8164C199.3936,-135.7205 186.4255,-111.5675 175.0316,-90.3464"/>
<polygon fill="none" stroke="#404040" points="174.9161,-90.1312 168.5537,-86.7371 169.2396,-79.5587 175.602,-82.9527 174.9161,-90.1312"/>
<text text-anchor="middle" x="212" y="-101" font-family="Helvetica,sans-Serif" font-size="10.00" fill="#000000"> +posBcast</text>
</g>
<!-- Node5 -->
<g id="node5" class="node">
<title>Node5</title>
<polygon fill="none" stroke="#bfbfbf" points="204.5,-309.5 204.5,-366.5 251.5,-366.5 251.5,-309.5 204.5,-309.5"/>
<text text-anchor="middle" x="228" y="-354.5" font-family="Helvetica,sans-Serif" font-size="10.00" fill="#000000">ushort</text>
<polyline fill="none" stroke="#bfbfbf" points="204.5,-347.5 251.5,-347.5 "/>
<text text-anchor="middle" x="228" y="-335.5" font-family="Helvetica,sans-Serif" font-size="10.00" fill="#000000"> </text>
<polyline fill="none" stroke="#bfbfbf" points="204.5,-328.5 251.5,-328.5 "/>
<text text-anchor="middle" x="228" y="-316.5" font-family="Helvetica,sans-Serif" font-size="10.00" fill="#000000"> </text>
</g>
<!-- Node5&#45;&gt;Node4 -->
<g id="edge4" class="edge">
<title>Node5&#45;&gt;Node4</title>
<path fill="none" stroke="#404040" d="M228,-309.2713C228,-288.3155 228,-259.4711 228,-235.2831"/>
<polygon fill="none" stroke="#404040" points="228.0001,-235.1252 224,-229.1252 228,-223.1252 232,-229.1252 228.0001,-235.1252"/>
<text text-anchor="middle" x="246" y="-283" font-family="Helvetica,sans-Serif" font-size="10.00" fill="#000000"> +gpad</text>
<text text-anchor="middle" x="246" y="-272" font-family="Helvetica,sans-Serif" font-size="10.00" fill="#000000">+time</text>
</g>
</g>
</svg>
