<?xml version="1.0" encoding="UTF-8" standalone="no"?>
<!DOCTYPE svg PUBLIC "-//W3C//DTD SVG 1.1//EN"
 "http://www.w3.org/Graphics/SVG/1.1/DTD/svg11.dtd">
<!-- Generated by graphviz version 2.40.1 (20161225.0304)
 -->
<!-- Title: o2::framework::DeviceInfo Pages: 1 -->
<svg width="974pt" height="331pt"
 viewBox="0.00 0.00 974.00 331.00" xmlns="http://www.w3.org/2000/svg" xmlns:xlink="http://www.w3.org/1999/xlink">
<g id="graph0" class="graph" transform="scale(1 1) rotate(0) translate(4 327)">
<title>o2::framework::DeviceInfo</title>
<!-- Node1 -->
<g id="node1" class="node">
<title>Node1</title>
<polygon fill="#bfbfbf" stroke="#000000" points="474,-.5 474,-57.5 620,-57.5 620,-.5 474,-.5"/>
<text text-anchor="middle" x="547" y="-45.5" font-family="Helvetica,sans-Serif" font-size="10.00" fill="#000000">o2::framework::DeviceInfo</text>
<polyline fill="none" stroke="#000000" points="474,-38.5 620,-38.5 "/>
<text text-anchor="middle" x="547" y="-26.5" font-family="Helvetica,sans-Serif" font-size="10.00" fill="#000000"> </text>
<polyline fill="none" stroke="#000000" points="474,-19.5 620,-19.5 "/>
<text text-anchor="middle" x="547" y="-7.5" font-family="Helvetica,sans-Serif" font-size="10.00" fill="#000000"> </text>
</g>
<!-- Node2 -->
<g id="node2" class="node">
<title>Node2</title>
<polygon fill="none" stroke="#bfbfbf" points="0,-138.5 0,-195.5 92,-195.5 92,-138.5 0,-138.5"/>
<text text-anchor="middle" x="46" y="-183.5" font-family="Helvetica,sans-Serif" font-size="10.00" fill="#000000">StreamingState</text>
<polyline fill="none" stroke="#bfbfbf" points="0,-176.5 92,-176.5 "/>
<text text-anchor="middle" x="46" y="-164.5" font-family="Helvetica,sans-Serif" font-size="10.00" fill="#000000"> </text>
<polyline fill="none" stroke="#bfbfbf" points="0,-157.5 92,-157.5 "/>
<text text-anchor="middle" x="46" y="-145.5" font-family="Helvetica,sans-Serif" font-size="10.00" fill="#000000"> </text>
</g>
<!-- Node2&#45;&gt;Node1 -->
<g id="edge1" class="edge">
<title>Node2&#45;&gt;Node1</title>
<path fill="none" stroke="#404040" d="M50.7318,-138.3838C55.7625,-117.5883 65.9071,-90.6232 86,-76 115.6261,-54.4387 336.559,-39.7625 461.5062,-33.0916"/>
<polygon fill="none" stroke="#404040" points="461.675,-33.0828 467.4564,-28.7729 473.6584,-32.4519 467.877,-36.7618 461.675,-33.0828"/>
<text text-anchor="middle" x="129.5" y="-90" font-family="Helvetica,sans-Serif" font-size="10.00" fill="#000000"> +streamingState</text>
</g>
<!-- Node3 -->
<g id="node3" class="node">
<title>Node3</title>
<g id="a_node3"><a xlink:href="../../d6/d43/structo2_1_1framework_1_1Metric2DViewIndex.html" target="_top" xlink:title="{o2::framework::Metric2DView\lIndex\n||+ isComplete()\l+ getUpdater()\l}">
<polygon fill="none" stroke="#000000" points="110.5,-127.5 110.5,-206.5 271.5,-206.5 271.5,-127.5 110.5,-127.5"/>
<text text-anchor="start" x="118.5" y="-194.5" font-family="Helvetica,sans-Serif" font-size="10.00" fill="#000000">o2::framework::Metric2DView</text>
<text text-anchor="middle" x="191" y="-183.5" font-family="Helvetica,sans-Serif" font-size="10.00" fill="#000000">Index</text>
<polyline fill="none" stroke="#000000" points="110.5,-176.5 271.5,-176.5 "/>
<text text-anchor="middle" x="191" y="-164.5" font-family="Helvetica,sans-Serif" font-size="10.00" fill="#000000"> </text>
<polyline fill="none" stroke="#000000" points="110.5,-157.5 271.5,-157.5 "/>
<text text-anchor="start" x="118.5" y="-145.5" font-family="Helvetica,sans-Serif" font-size="10.00" fill="#000000">+ isComplete()</text>
<text text-anchor="start" x="118.5" y="-134.5" font-family="Helvetica,sans-Serif" font-size="10.00" fill="#000000">+ getUpdater()</text>
</a>
</g>
</g>
<!-- Node3&#45;&gt;Node1 -->
<g id="edge2" class="edge">
<title>Node3&#45;&gt;Node1</title>
<path fill="none" stroke="#404040" d="M177.861,-127.4887C174.5841,-109.762 174.8975,-89.7853 187,-76 204.8821,-55.6315 361.2586,-41.416 461.9461,-34.2804"/>
<polygon fill="none" stroke="#404040" points="461.965,-34.2792 467.6726,-29.872 473.936,-33.4454 468.2284,-37.8527 461.965,-34.2792"/>
<text text-anchor="middle" x="246" y="-101" font-family="Helvetica,sans-Serif" font-size="10.00" fill="#000000"> +queriesViewIndex</text>
<text text-anchor="middle" x="246" y="-90" font-family="Helvetica,sans-Serif" font-size="10.00" fill="#000000">+variablesViewIndex</text>
<text text-anchor="middle" x="246" y="-79" font-family="Helvetica,sans-Serif" font-size="10.00" fill="#000000">+dataRelayerViewIndex</text>
</g>
<!-- Node4 -->
<g id="node4" class="node">
<title>Node4</title>
<polygon fill="none" stroke="#bfbfbf" points="84.5,-265.5 84.5,-322.5 113.5,-322.5 113.5,-265.5 84.5,-265.5"/>
<text text-anchor="middle" x="99" y="-310.5" font-family="Helvetica,sans-Serif" font-size="10.00" fill="#000000">int</text>
<polyline fill="none" stroke="#bfbfbf" points="84.5,-303.5 113.5,-303.5 "/>
<text text-anchor="middle" x="99" y="-291.5" font-family="Helvetica,sans-Serif" font-size="10.00" fill="#000000"> </text>
<polyline fill="none" stroke="#bfbfbf" points="84.5,-284.5 113.5,-284.5 "/>
<text text-anchor="middle" x="99" y="-272.5" font-family="Helvetica,sans-Serif" font-size="10.00" fill="#000000"> </text>
</g>
<!-- Node4&#45;&gt;Node3 -->
<g id="edge3" class="edge">
<title>Node4&#45;&gt;Node3</title>
<path fill="none" stroke="#404040" d="M113.5777,-273.8765C124.7171,-258.4992 140.5657,-236.6213 155.0252,-216.6609"/>
<polygon fill="none" stroke="#404040" points="155.1657,-216.4669 155.4463,-209.2612 162.2056,-206.7488 161.925,-213.9545 155.1657,-216.4669"/>
<text text-anchor="middle" x="158" y="-239" font-family="Helvetica,sans-Serif" font-size="10.00" fill="#000000"> +w</text>
<text text-anchor="middle" x="158" y="-228" font-family="Helvetica,sans-Serif" font-size="10.00" fill="#000000">+h</text>
</g>
<!-- Node5 -->
<g id="node5" class="node">
<title>Node5</title>
<polygon fill="none" stroke="#bfbfbf" points="283,-265.5 283,-322.5 327,-322.5 327,-265.5 283,-265.5"/>
<text text-anchor="middle" x="305" y="-310.5" font-family="Helvetica,sans-Serif" font-size="10.00" fill="#000000">string</text>
<polyline fill="none" stroke="#bfbfbf" points="283,-303.5 327,-303.5 "/>
<text text-anchor="middle" x="305" y="-291.5" font-family="Helvetica,sans-Serif" font-size="10.00" fill="#000000"> </text>
<polyline fill="none" stroke="#bfbfbf" points="283,-284.5 327,-284.5 "/>
<text text-anchor="middle" x="305" y="-272.5" font-family="Helvetica,sans-Serif" font-size="10.00" fill="#000000"> </text>
</g>
<!-- Node5&#45;&gt;Node1 -->
<g id="edge12" class="edge">
<title>Node5&#45;&gt;Node1</title>
<path fill="none" stroke="#404040" d="M305.67,-265.2071C307.1842,-223.3261 312.0993,-148.2739 328,-127 360.0699,-84.0929 415.185,-59.5637 462.0988,-45.776"/>
<polygon fill="none" stroke="#404040" points="462.2731,-45.7273 466.9751,-40.26 473.8303,-42.4974 469.1283,-47.9648 462.2731,-45.7273"/>
<text text-anchor="middle" x="357" y="-170" font-family="Helvetica,sans-Serif" font-size="10.00" fill="#000000"> +unprinted</text>
<text text-anchor="middle" x="357" y="-159" font-family="Helvetica,sans-Serif" font-size="10.00" fill="#000000">+lastError</text>
</g>
<!-- Node5&#45;&gt;Node3 -->
<g id="edge4" class="edge">
<title>Node5&#45;&gt;Node3</title>
<path fill="none" stroke="#404040" d="M282.749,-269.2116C269.1128,-254.0204 251.186,-234.0493 234.7993,-215.794"/>
<polygon fill="none" stroke="#404040" points="234.6698,-215.6496 227.6851,-213.8566 226.6538,-206.7196 233.6385,-208.5126 234.6698,-215.6496"/>
<text text-anchor="middle" x="281" y="-233.5" font-family="Helvetica,sans-Serif" font-size="10.00" fill="#000000"> +prefix</text>
</g>
<!-- Node6 -->
<g id="node6" class="node">
<title>Node6</title>
<polygon fill="none" stroke="#bfbfbf" points="131.5,-265.5 131.5,-322.5 250.5,-322.5 250.5,-265.5 131.5,-265.5"/>
<text text-anchor="middle" x="191" y="-310.5" font-family="Helvetica,sans-Serif" font-size="10.00" fill="#000000">vector&lt; std::size_t &gt;</text>
<polyline fill="none" stroke="#bfbfbf" points="131.5,-303.5 250.5,-303.5 "/>
<text text-anchor="middle" x="191" y="-291.5" font-family="Helvetica,sans-Serif" font-size="10.00" fill="#000000"> </text>
<polyline fill="none" stroke="#bfbfbf" points="131.5,-284.5 250.5,-284.5 "/>
<text text-anchor="middle" x="191" y="-272.5" font-family="Helvetica,sans-Serif" font-size="10.00" fill="#000000"> </text>
</g>
<!-- Node6&#45;&gt;Node3 -->
<g id="edge5" class="edge">
<title>Node6&#45;&gt;Node3</title>
<path fill="none" stroke="#404040" d="M191,-265.4987C191,-251.8801 191,-235.1381 191,-219.3462"/>
<polygon fill="none" stroke="#404040" points="191.0001,-218.963 187,-212.963 191,-206.963 195,-212.963 191.0001,-218.963"/>
<text text-anchor="middle" x="216" y="-233.5" font-family="Helvetica,sans-Serif" font-size="10.00" fill="#000000"> +indexes</text>
</g>
<!-- Node7 -->
<g id="node7" class="node">
<title>Node7</title>
<polygon fill="none" stroke="#bfbfbf" points="395,-138.5 395,-195.5 455,-195.5 455,-138.5 395,-138.5"/>
<text text-anchor="middle" x="425" y="-183.5" font-family="Helvetica,sans-Serif" font-size="10.00" fill="#000000">LogLevel</text>
<polyline fill="none" stroke="#bfbfbf" points="395,-176.5 455,-176.5 "/>
<text text-anchor="middle" x="425" y="-164.5" font-family="Helvetica,sans-Serif" font-size="10.00" fill="#000000"> </text>
<polyline fill="none" stroke="#bfbfbf" points="395,-157.5 455,-157.5 "/>
<text text-anchor="middle" x="425" y="-145.5" font-family="Helvetica,sans-Serif" font-size="10.00" fill="#000000"> </text>
</g>
<!-- Node7&#45;&gt;Node1 -->
<g id="edge6" class="edge">
<title>Node7&#45;&gt;Node1</title>
<path fill="none" stroke="#404040" d="M432.891,-138.1365C439.3167,-118.8092 449.9791,-93.7525 466,-76 469.5895,-72.0226 473.597,-68.2903 477.8554,-64.806"/>
<polygon fill="none" stroke="#404040" points="477.9075,-64.7671 480.3136,-57.9692 487.514,-57.5756 485.1079,-64.3735 477.9075,-64.7671"/>
<text text-anchor="middle" x="504.5" y="-90" font-family="Helvetica,sans-Serif" font-size="10.00" fill="#000000"> +maxLogLevel</text>
</g>
<!-- Node8 -->
<g id="node8" class="node">
<title>Node8</title>
<polygon fill="none" stroke="#bfbfbf" points="472.5,-133 472.5,-201 621.5,-201 621.5,-133 472.5,-133"/>
<text text-anchor="start" x="480.5" y="-189" font-family="Helvetica,sans-Serif" font-size="10.00" fill="#000000">vector&lt; LogParsingHelpers</text>
<text text-anchor="middle" x="547" y="-178" font-family="Helvetica,sans-Serif" font-size="10.00" fill="#000000">::LogLevel &gt;</text>
<polyline fill="none" stroke="#bfbfbf" points="472.5,-171 621.5,-171 "/>
<text text-anchor="middle" x="547" y="-159" font-family="Helvetica,sans-Serif" font-size="10.00" fill="#000000"> </text>
<polyline fill="none" stroke="#bfbfbf" points="472.5,-152 621.5,-152 "/>
<text text-anchor="middle" x="547" y="-140" font-family="Helvetica,sans-Serif" font-size="10.00" fill="#000000"> </text>
</g>
<!-- Node8&#45;&gt;Node1 -->
<g id="edge7" class="edge">
<title>Node8&#45;&gt;Node1</title>
<path fill="none" stroke="#404040" d="M547,-132.8876C547,-113.8098 547,-89.9031 547,-69.8342"/>
<polygon fill="none" stroke="#404040" points="547.0001,-69.6015 543,-63.6016 547,-57.6015 551,-63.6015 547.0001,-69.6015"/>
<text text-anchor="middle" x="583" y="-90" font-family="Helvetica,sans-Serif" font-size="10.00" fill="#000000"> +historyLevel</text>
</g>
<!-- Node9 -->
<g id="node9" class="node">
<title>Node9</title>
<polygon fill="none" stroke="#bfbfbf" points="639.5,-138.5 639.5,-195.5 758.5,-195.5 758.5,-138.5 639.5,-138.5"/>
<text text-anchor="middle" x="699" y="-183.5" font-family="Helvetica,sans-Serif" font-size="10.00" fill="#000000">vector&lt; std::string &gt;</text>
<polyline fill="none" stroke="#bfbfbf" points="639.5,-176.5 758.5,-176.5 "/>
<text text-anchor="middle" x="699" y="-164.5" font-family="Helvetica,sans-Serif" font-size="10.00" fill="#000000"> </text>
<polyline fill="none" stroke="#bfbfbf" points="639.5,-157.5 758.5,-157.5 "/>
<text text-anchor="middle" x="699" y="-145.5" font-family="Helvetica,sans-Serif" font-size="10.00" fill="#000000"> </text>
</g>
<!-- Node9&#45;&gt;Node1 -->
<g id="edge8" class="edge">
<title>Node9&#45;&gt;Node1</title>
<path fill="none" stroke="#404040" d="M678.8114,-138.2676C664.572,-119.2384 644.3042,-94.4758 623,-76 618.4291,-72.036 613.4871,-68.1889 608.393,-64.5152"/>
<polygon fill="none" stroke="#404040" points="608.35,-64.4856 601.1397,-64.3765 598.4672,-57.6789 605.6775,-57.788 608.35,-64.4856"/>
<text text-anchor="middle" x="677" y="-90" font-family="Helvetica,sans-Serif" font-size="10.00" fill="#000000"> +history</text>
</g>
<!-- Node10 -->
<g id="node10" class="node">
<title>Node10</title>
<g id="a_node10"><a xlink:href="../../dd/de2/classsize__t.html" target="_top" xlink:title="{size_t\n||}">
<polygon fill="none" stroke="#000000" points="776.5,-138.5 776.5,-195.5 821.5,-195.5 821.5,-138.5 776.5,-138.5"/>
<text text-anchor="middle" x="799" y="-183.5" font-family="Helvetica,sans-Serif" font-size="10.00" fill="#000000">size_t</text>
<polyline fill="none" stroke="#000000" points="776.5,-176.5 821.5,-176.5 "/>
<text text-anchor="middle" x="799" y="-164.5" font-family="Helvetica,sans-Serif" font-size="10.00" fill="#000000"> </text>
<polyline fill="none" stroke="#000000" points="776.5,-157.5 821.5,-157.5 "/>
<text text-anchor="middle" x="799" y="-145.5" font-family="Helvetica,sans-Serif" font-size="10.00" fill="#000000"> </text>
</a>
</g>
</g>
<!-- Node10&#45;&gt;Node1 -->
<g id="edge9" class="edge">
<title>Node10&#45;&gt;Node1</title>
<path fill="none" stroke="#404040" d="M778.1282,-138.318C774.8825,-134.3866 771.4554,-130.5024 768,-127 742.4562,-101.1084 736.2299,-92.8552 704,-76 681.683,-64.3289 656.0291,-55.1098 632.0138,-48.0422"/>
<polygon fill="none" stroke="#404040" points="631.9231,-48.0166 625.0597,-50.2288 620.3779,-44.7442 627.2413,-42.532 631.9231,-48.0166"/>
<text text-anchor="middle" x="783" y="-95.5" font-family="Helvetica,sans-Serif" font-size="10.00" fill="#000000"> +historySize</text>
<text text-anchor="middle" x="783" y="-84.5" font-family="Helvetica,sans-Serif" font-size="10.00" fill="#000000">+historyPos</text>
</g>
<!-- Node11 -->
<g id="node11" class="node">
<title>Node11</title>
<polygon fill="none" stroke="#bfbfbf" points="839.5,-138.5 839.5,-195.5 880.5,-195.5 880.5,-138.5 839.5,-138.5"/>
<text text-anchor="middle" x="860" y="-183.5" font-family="Helvetica,sans-Serif" font-size="10.00" fill="#000000">pid_t</text>
<polyline fill="none" stroke="#bfbfbf" points="839.5,-176.5 880.5,-176.5 "/>
<text text-anchor="middle" x="860" y="-164.5" font-family="Helvetica,sans-Serif" font-size="10.00" fill="#000000"> </text>
<polyline fill="none" stroke="#bfbfbf" points="839.5,-157.5 880.5,-157.5 "/>
<text text-anchor="middle" x="860" y="-145.5" font-family="Helvetica,sans-Serif" font-size="10.00" fill="#000000"> </text>
</g>
<!-- Node11&#45;&gt;Node1 -->
<g id="edge10" class="edge">
<title>Node11&#45;&gt;Node1</title>
<path fill="none" stroke="#404040" d="M854.8634,-138.3462C849.6442,-117.8134 839.4414,-91.2002 820,-76 791.3621,-53.6095 701.3476,-41.2735 632.4313,-34.9251"/>
<polygon fill="none" stroke="#404040" points="632.2168,-34.9062 625.8867,-38.3602 620.2638,-33.8455 626.5939,-30.3915 632.2168,-34.9062"/>
<text text-anchor="middle" x="856.5" y="-90" font-family="Helvetica,sans-Serif" font-size="10.00" fill="#000000"> +pid</text>
</g>
<!-- Node12 -->
<g id="node12" class="node">
<title>Node12</title>
<polygon fill="none" stroke="#bfbfbf" points="899,-138.5 899,-195.5 937,-195.5 937,-138.5 899,-138.5"/>
<text text-anchor="middle" x="918" y="-183.5" font-family="Helvetica,sans-Serif" font-size="10.00" fill="#000000">bool</text>
<polyline fill="none" stroke="#bfbfbf" points="899,-176.5 937,-176.5 "/>
<text text-anchor="middle" x="918" y="-164.5" font-family="Helvetica,sans-Serif" font-size="10.00" fill="#000000"> </text>
<polyline fill="none" stroke="#bfbfbf" points="899,-157.5 937,-157.5 "/>
<text text-anchor="middle" x="918" y="-145.5" font-family="Helvetica,sans-Serif" font-size="10.00" fill="#000000"> </text>
</g>
<!-- Node12&#45;&gt;Node1 -->
<g id="edge11" class="edge">
<title>Node12&#45;&gt;Node1</title>
<path fill="none" stroke="#404040" d="M911.688,-138.1219C905.6091,-117.4745 894.2534,-90.8164 874,-76 836.6081,-48.646 716.1815,-37.0988 632.4135,-32.3018"/>
<polygon fill="none" stroke="#404040" points="632.3167,-32.2966 626.1074,-35.9633 620.3345,-31.6419 626.5438,-27.9752 632.3167,-32.2966"/>
<text text-anchor="middle" x="932.5" y="-95.5" font-family="Helvetica,sans-Serif" font-size="10.00" fill="#000000"> +active</text>
<text text-anchor="middle" x="932.5" y="-84.5" font-family="Helvetica,sans-Serif" font-size="10.00" fill="#000000">+readyToQuit</text>
</g>
</g>
</svg>
