<?xml version="1.0" encoding="UTF-8" standalone="no"?>
<!DOCTYPE svg PUBLIC "-//W3C//DTD SVG 1.1//EN"
 "http://www.w3.org/Graphics/SVG/1.1/DTD/svg11.dtd">
<!-- Generated by graphviz version 2.40.1 (20161225.0304)
 -->
<!-- Title: o2::framework::Output Pages: 1 -->
<!--zoomable 810 -->
<svg id="main" version="1.1" xmlns="http://www.w3.org/2000/svg" xmlns:xlink="http://www.w3.org/1999/xlink" xml:space="preserve" onload="init(evt)">
<style type="text/css"><![CDATA[
.edge:hover path { stroke: red; }
.edge:hover polygon { stroke: red; fill: red; }
]]></style>
<script type="text/javascript"><![CDATA[
var edges = document.getElementsByTagName('g');
if (edges && edges.length) {
  for (var i=0;i<edges.length;i++) {
    if (edges[i].id.substr(0,4)=='edge') {
      edges[i].setAttribute('class','edge');
    }
  }
}
]]></script>
        <defs>
                <circle id="rim" cx="0" cy="0" r="7"/>
                <circle id="rim2" cx="0" cy="0" r="3.5"/>
                <g id="zoomPlus">
                        <use xlink:href="#rim" fill="#404040">
                                <set attributeName="fill" to="#808080" begin="zoomplus.mouseover" end="zoomplus.mouseout"/>
                        </use>
                        <path d="M-4,0h8M0,-4v8" fill="none" stroke="white" stroke-width="1.5" pointer-events="none"/>
                </g>
                <g id="zoomMin">
                        <use xlink:href="#rim" fill="#404040">
                                <set attributeName="fill" to="#808080" begin="zoomminus.mouseover" end="zoomminus.mouseout"/>
                        </use>
                        <path d="M-4,0h8" fill="none" stroke="white" stroke-width="1.5" pointer-events="none"/>
                </g>
                <g id="dirArrow">
                        <path fill="none" stroke="white" stroke-width="1.5" d="M0,-3.0v7 M-2.5,-0.5L0,-3.0L2.5,-0.5"/>
                </g>
               <g id="resetDef">
                       <use xlink:href="#rim2" fill="#404040">
                               <set attributeName="fill" to="#808080" begin="reset.mouseover" end="reset.mouseout"/>
                       </use>
               </g>
        </defs>

<script type="text/javascript">
var viewWidth = 683;
var viewHeight = 810;
var sectionId = 'dynsection-0';
</script>
<script xlink:href="../../svgpan.js"/>
<svg id="graph" class="graph">
<g id="viewport">
<title>o2::framework::Output</title>
<!-- Node1 -->
<g id="node1" class="node">
<title>Node1</title>
<polygon fill="#bfbfbf" stroke="#000000" points="242.8295,-.5 242.8295,-123.5 369.8295,-123.5 369.8295,-.5 242.8295,-.5"/>
<text text-anchor="middle" x="306.3295" y="-111.5" font-family="Helvetica,sans-Serif" font-size="10.00" fill="#000000">o2::framework::Output</text>
<polyline fill="none" stroke="#000000" points="242.8295,-104.5 369.8295,-104.5 "/>
<text text-anchor="middle" x="306.3295" y="-92.5" font-family="Helvetica,sans-Serif" font-size="10.00" fill="#000000"> </text>
<polyline fill="none" stroke="#000000" points="242.8295,-85.5 369.8295,-85.5 "/>
<text text-anchor="start" x="250.8295" y="-73.5" font-family="Helvetica,sans-Serif" font-size="10.00" fill="#000000">+ Output()</text>
<text text-anchor="start" x="250.8295" y="-62.5" font-family="Helvetica,sans-Serif" font-size="10.00" fill="#000000">+ Output()</text>
<text text-anchor="start" x="250.8295" y="-51.5" font-family="Helvetica,sans-Serif" font-size="10.00" fill="#000000">+ Output()</text>
<text text-anchor="start" x="250.8295" y="-40.5" font-family="Helvetica,sans-Serif" font-size="10.00" fill="#000000">+ Output()</text>
<text text-anchor="start" x="250.8295" y="-29.5" font-family="Helvetica,sans-Serif" font-size="10.00" fill="#000000">+ Output()</text>
<text text-anchor="start" x="250.8295" y="-18.5" font-family="Helvetica,sans-Serif" font-size="10.00" fill="#000000">+ Output()</text>
<text text-anchor="start" x="250.8295" y="-7.5" font-family="Helvetica,sans-Serif" font-size="10.00" fill="#000000">+ operator==()</text>
</g>
<!-- Node2 -->
<g id="node2" class="node">
<title>Node2</title>
<polygon fill="none" stroke="#bfbfbf" points="6.3295,-254 6.3295,-311 62.3295,-311 62.3295,-254 6.3295,-254"/>
<text text-anchor="middle" x="34.3295" y="-299" font-family="Helvetica,sans-Serif" font-size="10.00" fill="#000000">uint32_t</text>
<polyline fill="none" stroke="#bfbfbf" points="6.3295,-292 62.3295,-292 "/>
<text text-anchor="middle" x="34.3295" y="-280" font-family="Helvetica,sans-Serif" font-size="10.00" fill="#000000"> </text>
<polyline fill="none" stroke="#bfbfbf" points="6.3295,-273 62.3295,-273 "/>
<text text-anchor="middle" x="34.3295" y="-261" font-family="Helvetica,sans-Serif" font-size="10.00" fill="#000000"> </text>
</g>
<!-- Node2&#45;&gt;Node1 -->
<g id="edge1" class="edge">
<title>Node2&#45;&gt;Node1</title>
<path fill="none" stroke="#404040" d="M37.4691,-253.6997C41.5172,-229.104 50.6915,-194.1334 71.3295,-171 113.202,-124.0649 179.461,-95.8804 230.9641,-79.9673"/>
<polygon fill="none" stroke="#404040" points="231.2115,-79.8937 235.8204,-74.3477 242.7124,-76.469 238.1035,-82.015 231.2115,-79.8937"/>
<text text-anchor="middle" x="128.3295" y="-145" font-family="Helvetica,sans-Serif" font-size="10.00" fill="#000000"> +subSpec</text>
</g>
<!-- Node3 -->
<g id="node3" class="node">
<title>Node3</title>
<g id="a_node3"><a xlink:href="../../d9/db3/structo2_1_1header_1_1Descriptor.html" target="_top" xlink:title="{o2::header::Descriptor\l\&lt; gSizeDataOriginString,\l printDataOrigin \&gt;\n||+ Descriptor()\l+ Descriptor()\l+ Descriptor()\l+ Descriptor()\l+ operator=()\l+ operator ItgType()\l+ runtimeInit()\l+ operator==()\l+ operator==()\l+ operator\&lt;()\l+ operator!=()\l+ operator!=()\l+ as()\l+ print()\l}">
<polygon fill="none" stroke="#000000" points="368.3295,-171.5 368.3295,-393.5 506.3295,-393.5 506.3295,-171.5 368.3295,-171.5"/>
<text text-anchor="start" x="376.3295" y="-381.5" font-family="Helvetica,sans-Serif" font-size="10.00" fill="#000000">o2::header::Descriptor</text>
<text text-anchor="start" x="376.3295" y="-370.5" font-family="Helvetica,sans-Serif" font-size="10.00" fill="#000000">&lt; gSizeDataOriginString,</text>
<text text-anchor="middle" x="437.3295" y="-359.5" font-family="Helvetica,sans-Serif" font-size="10.00" fill="#000000"> printDataOrigin &gt;</text>
<polyline fill="none" stroke="#000000" points="368.3295,-352.5 506.3295,-352.5 "/>
<text text-anchor="middle" x="437.3295" y="-340.5" font-family="Helvetica,sans-Serif" font-size="10.00" fill="#000000"> </text>
<polyline fill="none" stroke="#000000" points="368.3295,-333.5 506.3295,-333.5 "/>
<text text-anchor="start" x="376.3295" y="-321.5" font-family="Helvetica,sans-Serif" font-size="10.00" fill="#000000">+ Descriptor()</text>
<text text-anchor="start" x="376.3295" y="-310.5" font-family="Helvetica,sans-Serif" font-size="10.00" fill="#000000">+ Descriptor()</text>
<text text-anchor="start" x="376.3295" y="-299.5" font-family="Helvetica,sans-Serif" font-size="10.00" fill="#000000">+ Descriptor()</text>
<text text-anchor="start" x="376.3295" y="-288.5" font-family="Helvetica,sans-Serif" font-size="10.00" fill="#000000">+ Descriptor()</text>
<text text-anchor="start" x="376.3295" y="-277.5" font-family="Helvetica,sans-Serif" font-size="10.00" fill="#000000">+ operator=()</text>
<text text-anchor="start" x="376.3295" y="-266.5" font-family="Helvetica,sans-Serif" font-size="10.00" fill="#000000">+ operator ItgType()</text>
<text text-anchor="start" x="376.3295" y="-255.5" font-family="Helvetica,sans-Serif" font-size="10.00" fill="#000000">+ runtimeInit()</text>
<text text-anchor="start" x="376.3295" y="-244.5" font-family="Helvetica,sans-Serif" font-size="10.00" fill="#000000">+ operator==()</text>
<text text-anchor="start" x="376.3295" y="-233.5" font-family="Helvetica,sans-Serif" font-size="10.00" fill="#000000">+ operator==()</text>
<text text-anchor="start" x="376.3295" y="-222.5" font-family="Helvetica,sans-Serif" font-size="10.00" fill="#000000">+ operator&lt;()</text>
<text text-anchor="start" x="376.3295" y="-211.5" font-family="Helvetica,sans-Serif" font-size="10.00" fill="#000000">+ operator!=()</text>
<text text-anchor="start" x="376.3295" y="-200.5" font-family="Helvetica,sans-Serif" font-size="10.00" fill="#000000">+ operator!=()</text>
<text text-anchor="start" x="376.3295" y="-189.5" font-family="Helvetica,sans-Serif" font-size="10.00" fill="#000000">+ as()</text>
<text text-anchor="start" x="376.3295" y="-178.5" font-family="Helvetica,sans-Serif" font-size="10.00" fill="#000000">+ print()</text>
</a>
</g>
</g>
<!-- Node3&#45;&gt;Node1 -->
<g id="edge2" class="edge">
<title>Node3&#45;&gt;Node1</title>
<path fill="none" stroke="#404040" d="M377.536,-171.1305C371.8372,-161.2117 366.0493,-151.3808 360.3295,-142 358.7266,-139.3711 357.0756,-136.7074 355.3916,-134.0275"/>
<polygon fill="none" stroke="#404040" points="355.2232,-133.7636 348.6228,-130.8593 348.7652,-123.6495 355.3655,-126.5539 355.2232,-133.7636"/>
<text text-anchor="middle" x="384.3295" y="-145" font-family="Helvetica,sans-Serif" font-size="10.00" fill="#000000"> +origin</text>
</g>
<!-- Node4 -->
<g id="node4" class="node">
<title>Node4</title>
<polygon fill="none" stroke="#bfbfbf" points="242.8295,-744.5 242.8295,-801.5 281.8295,-801.5 281.8295,-744.5 242.8295,-744.5"/>
<text text-anchor="middle" x="262.3295" y="-789.5" font-family="Helvetica,sans-Serif" font-size="10.00" fill="#000000">Type</text>
<polyline fill="none" stroke="#bfbfbf" points="242.8295,-782.5 281.8295,-782.5 "/>
<text text-anchor="middle" x="262.3295" y="-770.5" font-family="Helvetica,sans-Serif" font-size="10.00" fill="#000000"> </text>
<polyline fill="none" stroke="#bfbfbf" points="242.8295,-763.5 281.8295,-763.5 "/>
<text text-anchor="middle" x="262.3295" y="-751.5" font-family="Helvetica,sans-Serif" font-size="10.00" fill="#000000"> </text>
</g>
<!-- Node4&#45;&gt;Node3 -->
<g id="edge3" class="edge">
<title>Node4&#45;&gt;Node3</title>
<path fill="none" stroke="#404040" d="M254.1852,-744.4567C238.7753,-683.7065 213.0665,-540.8213 286.3295,-463 326.3118,-420.5301 375.2722,-486.4314 416.3295,-445 427.2313,-433.999 434.4458,-420.3272 439.0483,-405.6182"/>
<polygon fill="none" stroke="#404040" points="439.1486,-405.2363 436.8058,-398.4164 442.2,-393.6307 444.5428,-400.4506 439.1486,-405.2363"/>
<text text-anchor="middle" x="298.8295" y="-566.5" font-family="Helvetica,sans-Serif" font-size="10.00" fill="#000000"> +itg</text>
</g>
<!-- Node8 -->
<g id="node8" class="node">
<title>Node8</title>
<g id="a_node8"><a xlink:href="../../d9/db3/structo2_1_1header_1_1Descriptor.html" target="_top" xlink:title="{o2::header::Descriptor\l\&lt; N, PrinterPolicy \&gt;\n||+ Descriptor()\l+ Descriptor()\l+ Descriptor()\l+ operator=()\l+ operator ItgType()\l+ Descriptor()\l+ runtimeInit()\l+ operator==()\l+ operator\&lt;()\l+ operator!=()\l+ operator==()\l+ operator!=()\l+ as()\l+ print()\l}">
<polygon fill="none" stroke="#000000" points="381.8295,-463.5 381.8295,-674.5 506.8295,-674.5 506.8295,-463.5 381.8295,-463.5"/>
<text text-anchor="start" x="389.8295" y="-662.5" font-family="Helvetica,sans-Serif" font-size="10.00" fill="#000000">o2::header::Descriptor</text>
<text text-anchor="middle" x="444.3295" y="-651.5" font-family="Helvetica,sans-Serif" font-size="10.00" fill="#000000">&lt; N, PrinterPolicy &gt;</text>
<polyline fill="none" stroke="#000000" points="381.8295,-644.5 506.8295,-644.5 "/>
<text text-anchor="middle" x="444.3295" y="-632.5" font-family="Helvetica,sans-Serif" font-size="10.00" fill="#000000"> </text>
<polyline fill="none" stroke="#000000" points="381.8295,-625.5 506.8295,-625.5 "/>
<text text-anchor="start" x="389.8295" y="-613.5" font-family="Helvetica,sans-Serif" font-size="10.00" fill="#000000">+ Descriptor()</text>
<text text-anchor="start" x="389.8295" y="-602.5" font-family="Helvetica,sans-Serif" font-size="10.00" fill="#000000">+ Descriptor()</text>
<text text-anchor="start" x="389.8295" y="-591.5" font-family="Helvetica,sans-Serif" font-size="10.00" fill="#000000">+ Descriptor()</text>
<text text-anchor="start" x="389.8295" y="-580.5" font-family="Helvetica,sans-Serif" font-size="10.00" fill="#000000">+ operator=()</text>
<text text-anchor="start" x="389.8295" y="-569.5" font-family="Helvetica,sans-Serif" font-size="10.00" fill="#000000">+ operator ItgType()</text>
<text text-anchor="start" x="389.8295" y="-558.5" font-family="Helvetica,sans-Serif" font-size="10.00" fill="#000000">+ Descriptor()</text>
<text text-anchor="start" x="389.8295" y="-547.5" font-family="Helvetica,sans-Serif" font-size="10.00" fill="#000000">+ runtimeInit()</text>
<text text-anchor="start" x="389.8295" y="-536.5" font-family="Helvetica,sans-Serif" font-size="10.00" fill="#000000">+ operator==()</text>
<text text-anchor="start" x="389.8295" y="-525.5" font-family="Helvetica,sans-Serif" font-size="10.00" fill="#000000">+ operator&lt;()</text>
<text text-anchor="start" x="389.8295" y="-514.5" font-family="Helvetica,sans-Serif" font-size="10.00" fill="#000000">+ operator!=()</text>
<text text-anchor="start" x="389.8295" y="-503.5" font-family="Helvetica,sans-Serif" font-size="10.00" fill="#000000">+ operator==()</text>
<text text-anchor="start" x="389.8295" y="-492.5" font-family="Helvetica,sans-Serif" font-size="10.00" fill="#000000">+ operator!=()</text>
<text text-anchor="start" x="389.8295" y="-481.5" font-family="Helvetica,sans-Serif" font-size="10.00" fill="#000000">+ as()</text>
<text text-anchor="start" x="389.8295" y="-470.5" font-family="Helvetica,sans-Serif" font-size="10.00" fill="#000000">+ print()</text>
</a>
</g>
</g>
<!-- Node4&#45;&gt;Node8 -->
<g id="edge8" class="edge">
<title>Node4&#45;&gt;Node8</title>
<path fill="none" stroke="#404040" d="M281.9287,-753.2878C285.0619,-750.1692 288.2768,-746.9885 291.3295,-744 323.0016,-712.9947 333.7863,-708.04 363.3295,-675 366.855,-671.0573 370.3959,-666.9746 373.9217,-662.8082"/>
<polygon fill="none" stroke="#404040" points="373.9286,-662.7998 374.6913,-655.6291 381.6038,-653.5753 380.841,-660.7459 373.9286,-662.7998"/>
<text text-anchor="middle" x="357.8295" y="-707" font-family="Helvetica,sans-Serif" font-size="10.00" fill="#000000"> +itg</text>
</g>
<!-- Node11 -->
<g id="node11" class="node">
<title>Node11</title>
<g id="a_node11"><a xlink:href="../../d9/db3/structo2_1_1header_1_1Descriptor.html" target="_top" xlink:title="{o2::header::Descriptor\l\&lt; gSizeDataDescriptionString,\l printDataDescription \&gt;\n||+ Descriptor()\l+ Descriptor()\l+ Descriptor()\l+ Descriptor()\l+ operator=()\l+ operator ItgType()\l+ runtimeInit()\l+ operator==()\l+ operator==()\l+ operator\&lt;()\l+ operator!=()\l+ operator!=()\l+ as()\l+ print()\l}">
<polygon fill="none" stroke="#000000" points="80.3295,-171.5 80.3295,-393.5 244.3295,-393.5 244.3295,-171.5 80.3295,-171.5"/>
<text text-anchor="start" x="88.3295" y="-381.5" font-family="Helvetica,sans-Serif" font-size="10.00" fill="#000000">o2::header::Descriptor</text>
<text text-anchor="start" x="88.3295" y="-370.5" font-family="Helvetica,sans-Serif" font-size="10.00" fill="#000000">&lt; gSizeDataDescriptionString,</text>
<text text-anchor="middle" x="162.3295" y="-359.5" font-family="Helvetica,sans-Serif" font-size="10.00" fill="#000000"> printDataDescription &gt;</text>
<polyline fill="none" stroke="#000000" points="80.3295,-352.5 244.3295,-352.5 "/>
<text text-anchor="middle" x="162.3295" y="-340.5" font-family="Helvetica,sans-Serif" font-size="10.00" fill="#000000"> </text>
<polyline fill="none" stroke="#000000" points="80.3295,-333.5 244.3295,-333.5 "/>
<text text-anchor="start" x="88.3295" y="-321.5" font-family="Helvetica,sans-Serif" font-size="10.00" fill="#000000">+ Descriptor()</text>
<text text-anchor="start" x="88.3295" y="-310.5" font-family="Helvetica,sans-Serif" font-size="10.00" fill="#000000">+ Descriptor()</text>
<text text-anchor="start" x="88.3295" y="-299.5" font-family="Helvetica,sans-Serif" font-size="10.00" fill="#000000">+ Descriptor()</text>
<text text-anchor="start" x="88.3295" y="-288.5" font-family="Helvetica,sans-Serif" font-size="10.00" fill="#000000">+ Descriptor()</text>
<text text-anchor="start" x="88.3295" y="-277.5" font-family="Helvetica,sans-Serif" font-size="10.00" fill="#000000">+ operator=()</text>
<text text-anchor="start" x="88.3295" y="-266.5" font-family="Helvetica,sans-Serif" font-size="10.00" fill="#000000">+ operator ItgType()</text>
<text text-anchor="start" x="88.3295" y="-255.5" font-family="Helvetica,sans-Serif" font-size="10.00" fill="#000000">+ runtimeInit()</text>
<text text-anchor="start" x="88.3295" y="-244.5" font-family="Helvetica,sans-Serif" font-size="10.00" fill="#000000">+ operator==()</text>
<text text-anchor="start" x="88.3295" y="-233.5" font-family="Helvetica,sans-Serif" font-size="10.00" fill="#000000">+ operator==()</text>
<text text-anchor="start" x="88.3295" y="-222.5" font-family="Helvetica,sans-Serif" font-size="10.00" fill="#000000">+ operator&lt;()</text>
<text text-anchor="start" x="88.3295" y="-211.5" font-family="Helvetica,sans-Serif" font-size="10.00" fill="#000000">+ operator!=()</text>
<text text-anchor="start" x="88.3295" y="-200.5" font-family="Helvetica,sans-Serif" font-size="10.00" fill="#000000">+ operator!=()</text>
<text text-anchor="start" x="88.3295" y="-189.5" font-family="Helvetica,sans-Serif" font-size="10.00" fill="#000000">+ as()</text>
<text text-anchor="start" x="88.3295" y="-178.5" font-family="Helvetica,sans-Serif" font-size="10.00" fill="#000000">+ print()</text>
</a>
</g>
</g>
<!-- Node4&#45;&gt;Node11 -->
<g id="edge14" class="edge">
<title>Node4&#45;&gt;Node11</title>
<path fill="none" stroke="#404040" d="M242.5413,-770.2071C200.1314,-763.0624 100.7363,-739.8721 56.3295,-675 -9.8344,-578.3437 -19.8045,-513.1102 39.3295,-412 46.216,-400.2252 55.2243,-402.8983 70.4343,-393.4132"/>
<polygon fill="none" stroke="#404040" points="70.4961,-393.3674 72.935,-386.5812 80.1372,-386.2224 77.6983,-393.0086 70.4961,-393.3674"/>
<text text-anchor="middle" x="68.8295" y="-566.5" font-family="Helvetica,sans-Serif" font-size="10.00" fill="#000000"> +itg</text>
</g>
<!-- Node5 -->
<g id="node5" class="node">
<title>Node5</title>
<polygon fill="none" stroke="#bfbfbf" points="300.3295,-744.5 300.3295,-801.5 338.3295,-801.5 338.3295,-744.5 300.3295,-744.5"/>
<text text-anchor="middle" x="319.3295" y="-789.5" font-family="Helvetica,sans-Serif" font-size="10.00" fill="#000000">char</text>
<polyline fill="none" stroke="#bfbfbf" points="300.3295,-782.5 338.3295,-782.5 "/>
<text text-anchor="middle" x="319.3295" y="-770.5" font-family="Helvetica,sans-Serif" font-size="10.00" fill="#000000"> </text>
<polyline fill="none" stroke="#bfbfbf" points="300.3295,-763.5 338.3295,-763.5 "/>
<text text-anchor="middle" x="319.3295" y="-751.5" font-family="Helvetica,sans-Serif" font-size="10.00" fill="#000000"> </text>
</g>
<!-- Node5&#45;&gt;Node3 -->
<g id="edge4" class="edge">
<title>Node5&#45;&gt;Node3</title>
<path fill="none" stroke="#404040" d="M317.7983,-744.3491C314.7582,-675.516 311.1578,-503.5377 348.3295,-463 378.5542,-430.0384 418.6745,-479.3349 447.3295,-445 456.8094,-433.6411 461.9946,-420.1336 464.245,-405.831"/>
<polygon fill="none" stroke="#404040" points="464.2683,-405.5987 460.8919,-399.227 465.4749,-393.6595 468.8513,-400.0313 464.2683,-405.5987"/>
<text text-anchor="middle" x="360.8295" y="-566.5" font-family="Helvetica,sans-Serif" font-size="10.00" fill="#000000"> +str</text>
</g>
<!-- Node5&#45;&gt;Node8 -->
<g id="edge9" class="edge">
<title>Node5&#45;&gt;Node8</title>
<path fill="none" stroke="#404040" d="M338.5172,-760.6993C350.6378,-752.1503 365.9198,-739.8367 376.3295,-726 385.6504,-713.6107 393.9972,-699.747 401.3797,-685.525"/>
<polygon fill="none" stroke="#404040" points="401.4754,-685.3335 400.5779,-678.1784 406.8374,-674.598 407.7348,-681.7531 401.4754,-685.3335"/>
<text text-anchor="middle" x="408.8295" y="-707" font-family="Helvetica,sans-Serif" font-size="10.00" fill="#000000"> +str</text>
</g>
<!-- Node5&#45;&gt;Node11 -->
<g id="edge15" class="edge">
<title>Node5&#45;&gt;Node11</title>
<path fill="none" stroke="#404040" d="M300.2609,-751.464C297.4076,-748.7859 294.3916,-746.215 291.3295,-744 234.1538,-702.6396 194.5237,-728.3465 148.3295,-675 83.6437,-600.2987 122.2827,-552.9299 81.3295,-463 77.4439,-454.4675 72.8689,-454.0251 70.3295,-445 64.7143,-425.043 67.6454,-404.9164 75.2033,-385.9503"/>
<polygon fill="none" stroke="#404040" points="75.2382,-385.8725 74.05,-378.76 80.1584,-374.9275 81.3466,-382.0401 75.2382,-385.8725"/>
<text text-anchor="middle" x="160.8295" y="-566.5" font-family="Helvetica,sans-Serif" font-size="10.00" fill="#000000"> +str</text>
</g>
<!-- Node6 -->
<g id="node6" class="node">
<title>Node6</title>
<polygon fill="none" stroke="#bfbfbf" points="182.8295,-540.5 182.8295,-597.5 211.8295,-597.5 211.8295,-540.5 182.8295,-540.5"/>
<text text-anchor="middle" x="197.3295" y="-585.5" font-family="Helvetica,sans-Serif" font-size="10.00" fill="#000000">int</text>
<polyline fill="none" stroke="#bfbfbf" points="182.8295,-578.5 211.8295,-578.5 "/>
<text text-anchor="middle" x="197.3295" y="-566.5" font-family="Helvetica,sans-Serif" font-size="10.00" fill="#000000"> </text>
<polyline fill="none" stroke="#bfbfbf" points="182.8295,-559.5 211.8295,-559.5 "/>
<text text-anchor="middle" x="197.3295" y="-547.5" font-family="Helvetica,sans-Serif" font-size="10.00" fill="#000000"> </text>
</g>
<!-- Node6&#45;&gt;Node3 -->
<g id="edge5" class="edge">
<title>Node6&#45;&gt;Node3</title>
<path fill="none" stroke="#404040" d="M202.7027,-540.4823C208.7326,-516.3703 220.9109,-482.6937 244.3295,-463 269.5745,-441.7704 288.3417,-462.4551 316.3295,-445 334.0432,-433.9526 350.0471,-419.2933 364.182,-403.2905"/>
<polygon fill="none" stroke="#404040" points="364.527,-402.8835 365.356,-395.7201 372.2872,-393.7302 371.4582,-400.8936 364.527,-402.8835"/>
<text text-anchor="middle" x="383.3295" y="-437" font-family="Helvetica,sans-Serif" font-size="10.00" fill="#000000"> +arraySize</text>
<text text-anchor="middle" x="383.3295" y="-426" font-family="Helvetica,sans-Serif" font-size="10.00" fill="#000000">+size</text>
<text text-anchor="middle" x="383.3295" y="-415" font-family="Helvetica,sans-Serif" font-size="10.00" fill="#000000">+bitcount</text>
</g>
<!-- Node6&#45;&gt;Node11 -->
<g id="edge16" class="edge">
<title>Node6&#45;&gt;Node11</title>
<path fill="none" stroke="#404040" d="M185.9736,-540.1277C175.3311,-516.4559 157.3083,-483.6052 132.3295,-463 114.7538,-448.5016 97.3072,-463.7268 84.3295,-445 73.4363,-429.2811 72.1892,-411.8064 76.6035,-394.3101"/>
<polygon fill="none" stroke="#404040" points="76.6204,-394.2569 74.6391,-387.3233 80.2773,-382.8276 82.2586,-389.7612 76.6204,-394.2569"/>
<text text-anchor="middle" x="113.3295" y="-437" font-family="Helvetica,sans-Serif" font-size="10.00" fill="#000000"> +arraySize</text>
<text text-anchor="middle" x="113.3295" y="-426" font-family="Helvetica,sans-Serif" font-size="10.00" fill="#000000">+size</text>
<text text-anchor="middle" x="113.3295" y="-415" font-family="Helvetica,sans-Serif" font-size="10.00" fill="#000000">+bitcount</text>
</g>
<!-- Node7 -->
<g id="node7" class="node">
<title>Node7</title>
<polygon fill="none" stroke="#bfbfbf" points="522.8295,-744.5 522.8295,-801.5 629.8295,-801.5 629.8295,-744.5 522.8295,-744.5"/>
<text text-anchor="middle" x="576.3295" y="-789.5" font-family="Helvetica,sans-Serif" font-size="10.00" fill="#000000">anonymous:+@24</text>
<polyline fill="none" stroke="#bfbfbf" points="522.8295,-782.5 629.8295,-782.5 "/>
<text text-anchor="middle" x="576.3295" y="-770.5" font-family="Helvetica,sans-Serif" font-size="10.00" fill="#000000"> </text>
<polyline fill="none" stroke="#bfbfbf" points="522.8295,-763.5 629.8295,-763.5 "/>
<text text-anchor="middle" x="576.3295" y="-751.5" font-family="Helvetica,sans-Serif" font-size="10.00" fill="#000000"> </text>
</g>
<!-- Node7&#45;&gt;Node3 -->
<g id="edge6" class="edge">
<title>Node7&#45;&gt;Node3</title>
<path fill="none" stroke="#404040" d="M590.2178,-744.2442C620.2134,-677.4974 682.1638,-510.2737 602.3295,-412 577.7071,-381.6904 548.9863,-415.412 516.3295,-394 516.2241,-393.9309 516.1188,-393.8616 516.0136,-393.7921"/>
<polygon fill="none" stroke="#404040" points="516.1807,-393.9149 508.9772,-393.5844 506.5117,-386.8079 513.7152,-387.1384 516.1807,-393.9149"/>
<text text-anchor="middle" x="658.3295" y="-566.5" font-family="Helvetica,sans-Serif" font-size="10.00" fill="#000000"> +@24</text>
</g>
<!-- Node7&#45;&gt;Node8 -->
<g id="edge10" class="edge">
<title>Node7&#45;&gt;Node8</title>
<path fill="none" stroke="#404040" d="M544.3904,-744.4512C538.7063,-738.6342 533.0887,-732.3442 528.3295,-726 518.8689,-713.3884 509.8439,-699.5708 501.4565,-685.5281"/>
<polygon fill="none" stroke="#404040" points="501.2211,-685.1247 494.7414,-681.9603 495.1702,-674.7619 501.6499,-677.9264 501.2211,-685.1247"/>
<text text-anchor="middle" x="545.3295" y="-707" font-family="Helvetica,sans-Serif" font-size="10.00" fill="#000000"> +@24</text>
</g>
<!-- Node7&#45;&gt;Node11 -->
<g id="edge17" class="edge">
<title>Node7&#45;&gt;Node11</title>
<path fill="none" stroke="#404040" d="M574.3337,-744.3435C569.0231,-675.8978 552.4186,-505.4391 516.3295,-463 501.5698,-445.6432 489.3422,-453.808 468.3295,-445 436.2375,-431.5478 430.7745,-421.6071 397.3295,-412 338.8496,-395.2016 312.7802,-421.8644 255.0852,-394.1061"/>
<polygon fill="none" stroke="#404040" points="254.9753,-394.0487 247.8054,-394.8186 244.3371,-388.4964 251.507,-387.7265 254.9753,-394.0487"/>
<text text-anchor="middle" x="584.3295" y="-566.5" font-family="Helvetica,sans-Serif" font-size="10.00" fill="#000000"> +@24</text>
</g>
<!-- Node8&#45;&gt;Node3 -->
<g id="edge7" class="edge">
<title>Node8&#45;&gt;Node3</title>
<path fill="none" stroke="#ffa500" d="M473.1668,-453.1631C474.1899,-439.3194 474.1034,-425.3618 472.3295,-412 471.5327,-405.9974 470.5367,-399.8784 469.3902,-393.7284"/>
<polygon fill="#ffa500" stroke="#ffa500" points="469.6733,-452.9324 472.2339,-463.2131 476.6433,-453.5794 469.6733,-452.9324"/>
<text text-anchor="start" x="473.3295" y="-431.5" font-family="Helvetica,sans-Serif" font-size="10.00" fill="#000000"> &lt; gSizeDataOriginString,</text>
<text text-anchor="middle" x="535.8295" y="-420.5" font-family="Helvetica,sans-Serif" font-size="10.00" fill="#000000"> printDataOrigin &gt;</text>
</g>
<!-- Node8&#45;&gt;Node11 -->
<g id="edge18" class="edge">
<title>Node8&#45;&gt;Node11</title>
<path fill="none" stroke="#ffa500" d="M373.6569,-469.5112C370.3226,-467.1398 366.8795,-464.9559 363.3295,-463 323.8575,-441.2521 191.7495,-478.2512 161.3295,-445 148.3801,-430.8454 142.3807,-412.7449 140.5526,-393.7936"/>
<polygon fill="#ffa500" stroke="#ffa500" points="371.6741,-472.4028 381.7198,-475.7695 375.9662,-466.873 371.6741,-472.4028"/>
<text text-anchor="start" x="161.3295" y="-431.5" font-family="Helvetica,sans-Serif" font-size="10.00" fill="#000000"> &lt; gSizeDataDescriptionString,</text>
<text text-anchor="middle" x="236.8295" y="-420.5" font-family="Helvetica,sans-Serif" font-size="10.00" fill="#000000"> printDataDescription &gt;</text>
</g>
<!-- Node9 -->
<g id="node9" class="node">
<title>Node9</title>
<polygon fill="none" stroke="#bfbfbf" points="424.3295,-744.5 424.3295,-801.5 468.3295,-801.5 468.3295,-744.5 424.3295,-744.5"/>
<text text-anchor="middle" x="446.3295" y="-789.5" font-family="Helvetica,sans-Serif" font-size="10.00" fill="#000000">static</text>
<polyline fill="none" stroke="#bfbfbf" points="424.3295,-782.5 468.3295,-782.5 "/>
<text text-anchor="middle" x="446.3295" y="-770.5" font-family="Helvetica,sans-Serif" font-size="10.00" fill="#000000"> </text>
<polyline fill="none" stroke="#bfbfbf" points="424.3295,-763.5 468.3295,-763.5 "/>
<text text-anchor="middle" x="446.3295" y="-751.5" font-family="Helvetica,sans-Serif" font-size="10.00" fill="#000000"> </text>
</g>
<!-- Node9&#45;&gt;Node8 -->
<g id="edge11" class="edge">
<title>Node9&#45;&gt;Node8</title>
<path fill="none" stroke="#404040" d="M446.0472,-744.2045C445.8944,-728.616 445.6943,-708.2061 445.4849,-686.8459"/>
<polygon fill="none" stroke="#404040" points="445.4821,-686.5485 441.4234,-680.5881 445.3643,-674.5491 449.423,-680.5096 445.4821,-686.5485"/>
<text text-anchor="middle" x="474.3295" y="-718" font-family="Helvetica,sans-Serif" font-size="10.00" fill="#000000"> +arraySize</text>
<text text-anchor="middle" x="474.3295" y="-707" font-family="Helvetica,sans-Serif" font-size="10.00" fill="#000000">+size</text>
<text text-anchor="middle" x="474.3295" y="-696" font-family="Helvetica,sans-Serif" font-size="10.00" fill="#000000">+bitcount</text>
</g>
<!-- Node10 -->
<g id="node10" class="node">
<title>Node10</title>
<polygon fill="none" stroke="#bfbfbf" points="262.3295,-254 262.3295,-311 350.3295,-311 350.3295,-254 262.3295,-254"/>
<text text-anchor="middle" x="306.3295" y="-299" font-family="Helvetica,sans-Serif" font-size="10.00" fill="#000000">enum Lifetime</text>
<polyline fill="none" stroke="#bfbfbf" points="262.3295,-292 350.3295,-292 "/>
<text text-anchor="middle" x="306.3295" y="-280" font-family="Helvetica,sans-Serif" font-size="10.00" fill="#000000"> </text>
<polyline fill="none" stroke="#bfbfbf" points="262.3295,-273 350.3295,-273 "/>
<text text-anchor="middle" x="306.3295" y="-261" font-family="Helvetica,sans-Serif" font-size="10.00" fill="#000000"> </text>
</g>
<!-- Node10&#45;&gt;Node1 -->
<g id="edge12" class="edge">
<title>Node10&#45;&gt;Node1</title>
<path fill="none" stroke="#404040" d="M306.3295,-253.6735C306.3295,-223.9458 306.3295,-176.3731 306.3295,-136.0608"/>
<polygon fill="none" stroke="#404040" points="306.3296,-135.811 302.3296,-129.8111 306.3295,-123.811 310.3296,-129.811 306.3296,-135.811"/>
<text text-anchor="middle" x="331.3295" y="-145" font-family="Helvetica,sans-Serif" font-size="10.00" fill="#000000"> +lifetime</text>
</g>
<!-- Node11&#45;&gt;Node1 -->
<g id="edge13" class="edge">
<title>Node11&#45;&gt;Node1</title>
<path fill="none" stroke="#404040" d="M217.7027,-171.3729C223.683,-161.2542 229.9305,-151.3174 236.3295,-142 238.2885,-139.1476 240.3361,-136.2839 242.4487,-133.4258"/>
<polygon fill="none" stroke="#404040" points="242.5562,-133.2851 243.0253,-126.0893 249.8481,-123.7547 249.379,-130.9505 242.5562,-133.2851"/>
<text text-anchor="middle" x="269.3295" y="-145" font-family="Helvetica,sans-Serif" font-size="10.00" fill="#000000"> +description</text>
</g>
<!-- Node12 -->
<g id="node12" class="node">
<title>Node12</title>
<g id="a_node12"><a xlink:href="../../d0/d66/structo2_1_1header_1_1Stack.html" target="_top" xlink:title="a move&#45;only header stack with serialized headers This is the flat buffer where all the headers in a m...">
<polygon fill="none" stroke="#000000" points="524.8295,-171.5 524.8295,-393.5 625.8295,-393.5 625.8295,-171.5 524.8295,-171.5"/>
<text text-anchor="middle" x="575.3295" y="-381.5" font-family="Helvetica,sans-Serif" font-size="10.00" fill="#000000">o2::header::Stack</text>
<polyline fill="none" stroke="#000000" points="524.8295,-374.5 625.8295,-374.5 "/>
<text text-anchor="middle" x="575.3295" y="-362.5" font-family="Helvetica,sans-Serif" font-size="10.00" fill="#000000"> </text>
<polyline fill="none" stroke="#000000" points="524.8295,-355.5 625.8295,-355.5 "/>
<text text-anchor="start" x="532.8295" y="-343.5" font-family="Helvetica,sans-Serif" font-size="10.00" fill="#000000">+ Stack()</text>
<text text-anchor="start" x="532.8295" y="-332.5" font-family="Helvetica,sans-Serif" font-size="10.00" fill="#000000">+ Stack()</text>
<text text-anchor="start" x="532.8295" y="-321.5" font-family="Helvetica,sans-Serif" font-size="10.00" fill="#000000">+ Stack()</text>
<text text-anchor="start" x="532.8295" y="-310.5" font-family="Helvetica,sans-Serif" font-size="10.00" fill="#000000">+ operator=()</text>
<text text-anchor="start" x="532.8295" y="-299.5" font-family="Helvetica,sans-Serif" font-size="10.00" fill="#000000">+ operator=()</text>
<text text-anchor="start" x="532.8295" y="-288.5" font-family="Helvetica,sans-Serif" font-size="10.00" fill="#000000">+ data()</text>
<text text-anchor="start" x="532.8295" y="-277.5" font-family="Helvetica,sans-Serif" font-size="10.00" fill="#000000">+ size()</text>
<text text-anchor="start" x="532.8295" y="-266.5" font-family="Helvetica,sans-Serif" font-size="10.00" fill="#000000">+ get_allocator()</text>
<text text-anchor="start" x="532.8295" y="-255.5" font-family="Helvetica,sans-Serif" font-size="10.00" fill="#000000">+ first()</text>
<text text-anchor="start" x="532.8295" y="-244.5" font-family="Helvetica,sans-Serif" font-size="10.00" fill="#000000">+ Stack()</text>
<text text-anchor="start" x="532.8295" y="-233.5" font-family="Helvetica,sans-Serif" font-size="10.00" fill="#000000">+ Stack()</text>
<text text-anchor="start" x="532.8295" y="-222.5" font-family="Helvetica,sans-Serif" font-size="10.00" fill="#000000">+ firstHeader()</text>
<text text-anchor="start" x="532.8295" y="-211.5" font-family="Helvetica,sans-Serif" font-size="10.00" fill="#000000">+ lastHeader()</text>
<text text-anchor="start" x="532.8295" y="-200.5" font-family="Helvetica,sans-Serif" font-size="10.00" fill="#000000">+ calculateSize()</text>
<text text-anchor="start" x="532.8295" y="-189.5" font-family="Helvetica,sans-Serif" font-size="10.00" fill="#000000">+ calculateSize()</text>
<text text-anchor="start" x="532.8295" y="-178.5" font-family="Helvetica,sans-Serif" font-size="10.00" fill="#000000">+ calculateSize()</text>
</a>
</g>
</g>
<!-- Node12&#45;&gt;Node1 -->
<g id="edge19" class="edge">
<title>Node12&#45;&gt;Node1</title>
<path fill="none" stroke="#404040" d="M524.7798,-181.3261C521.7649,-177.7043 518.6148,-174.243 515.3295,-171 477.6338,-133.7893 424.629,-106.3422 381.432,-88.298"/>
<polygon fill="none" stroke="#404040" points="381.2183,-88.2111 374.1529,-89.6531 370.1043,-83.6857 377.1698,-82.2437 381.2183,-88.2111"/>
<text text-anchor="middle" x="527.8295" y="-145" font-family="Helvetica,sans-Serif" font-size="10.00" fill="#000000"> +metaHeader</text>
</g>
</g>
</svg>
        <g id="navigator" transform="translate(0 0)" fill="#404254">
                <rect fill="#f2f5e9" fill-opacity="0.5" stroke="#606060" stroke-width=".5" x="0" y="0" width="60" height="60"/>
                <use id="zoomplus" xlink:href="#zoomPlus" x="17" y="9" onmousedown="handleZoom(evt,'in')"/>
                <use id="zoomminus" xlink:href="#zoomMin" x="42" y="9" onmousedown="handleZoom(evt,'out')"/>
                <use id="reset" xlink:href="#resetDef" x="30" y="36" onmousedown="handleReset()"/>
                <g id="arrowUp" xlink:href="#dirArrow" transform="translate(30 24)" onmousedown="handlePan(0,-1)">
                  <use xlink:href="#rim" fill="#404040">
                        <set attributeName="fill" to="#808080" begin="arrowUp.mouseover" end="arrowUp.mouseout"/>
                  </use>
                  <path fill="none" stroke="white" stroke-width="1.5" d="M0,-3.0v7 M-2.5,-0.5L0,-3.0L2.5,-0.5"/>
                </g>
                <g id="arrowRight" xlink:href="#dirArrow" transform="rotate(90) translate(36 -43)" onmousedown="handlePan(1,0)">
                  <use xlink:href="#rim" fill="#404040">
                        <set attributeName="fill" to="#808080" begin="arrowRight.mouseover" end="arrowRight.mouseout"/>
                  </use>
                  <path fill="none" stroke="white" stroke-width="1.5" d="M0,-3.0v7 M-2.5,-0.5L0,-3.0L2.5,-0.5"/>
                </g>
                <g id="arrowDown" xlink:href="#dirArrow" transform="rotate(180) translate(-30 -48)" onmousedown="handlePan(0,1)">
                  <use xlink:href="#rim" fill="#404040">
                        <set attributeName="fill" to="#808080" begin="arrowDown.mouseover" end="arrowDown.mouseout"/>
                  </use>
                  <path fill="none" stroke="white" stroke-width="1.5" d="M0,-3.0v7 M-2.5,-0.5L0,-3.0L2.5,-0.5"/>
                </g>
                <g id="arrowLeft" xlink:href="#dirArrow" transform="rotate(270) translate(-36 17)" onmousedown="handlePan(-1,0)">
                  <use xlink:href="#rim" fill="#404040">
                        <set attributeName="fill" to="#808080" begin="arrowLeft.mouseover" end="arrowLeft.mouseout"/>
                  </use>
                  <path fill="none" stroke="white" stroke-width="1.5" d="M0,-3.0v7 M-2.5,-0.5L0,-3.0L2.5,-0.5"/>
                </g>
        </g>
        <svg viewBox="0 0 15 15" width="100%" height="30px" preserveAspectRatio="xMaxYMin meet">
         <g id="arrow_out" transform="scale(0.3 0.3)">
          <a xlink:href="structo2_1_1framework_1_1Output__coll__graph_org.svg" target="_base">
           <rect id="button" ry="5" rx="5" y="6" x="6" height="38" width="38"
                fill="#f2f5e9" fill-opacity="0.5" stroke="#606060" stroke-width="1.0"/>
           <path id="arrow"
             d="M 11.500037,31.436501 C 11.940474,20.09759 22.043105,11.32322 32.158766,21.979434 L 37.068811,17.246167 C 37.068811,17.246167 37.088388,32 37.088388,32 L 22.160133,31.978069 C 22.160133,31.978069 26.997745,27.140456 26.997745,27.140456 C 18.528582,18.264221 13.291696,25.230495 11.500037,31.436501 z"
             style="fill:#404040;"/>
          </a>
         </g>
        </svg>
</svg>
