<?xml version="1.0" encoding="UTF-8" standalone="no"?>
<!DOCTYPE svg PUBLIC "-//W3C//DTD SVG 1.1//EN"
 "http://www.w3.org/Graphics/SVG/1.1/DTD/svg11.dtd">
<!-- Generated by graphviz version 2.40.1 (20161225.0304)
 -->
<!-- Title: o2::itsmft::PreDigit Pages: 1 -->
<svg width="384pt" height="766pt"
 viewBox="0.00 0.00 383.67 766.00" xmlns="http://www.w3.org/2000/svg" xmlns:xlink="http://www.w3.org/1999/xlink">
<g id="graph0" class="graph" transform="scale(1 1) rotate(0) translate(4 762)">
<title>o2::itsmft::PreDigit</title>
<!-- Node1 -->
<g id="node1" class="node">
<title>Node1</title>
<polygon fill="#bfbfbf" stroke="#000000" points="189.1659,-.5 189.1659,-68.5 298.1659,-68.5 298.1659,-.5 189.1659,-.5"/>
<text text-anchor="middle" x="243.6659" y="-56.5" font-family="Helvetica,sans-Serif" font-size="10.00" fill="#000000">o2::itsmft::PreDigit</text>
<polyline fill="none" stroke="#000000" points="189.1659,-49.5 298.1659,-49.5 "/>
<text text-anchor="middle" x="243.6659" y="-37.5" font-family="Helvetica,sans-Serif" font-size="10.00" fill="#000000"> </text>
<polyline fill="none" stroke="#000000" points="189.1659,-30.5 298.1659,-30.5 "/>
<text text-anchor="start" x="197.1659" y="-18.5" font-family="Helvetica,sans-Serif" font-size="10.00" fill="#000000">+ PreDigit()</text>
<text text-anchor="start" x="197.1659" y="-7.5" font-family="Helvetica,sans-Serif" font-size="10.00" fill="#000000">+ ClassDefNV()</text>
</g>
<!-- Node2 -->
<g id="node2" class="node">
<title>Node2</title>
<polygon fill="none" stroke="#bfbfbf" points="26.1659,-386.5 26.1659,-443.5 55.1659,-443.5 55.1659,-386.5 26.1659,-386.5"/>
<text text-anchor="middle" x="40.6659" y="-431.5" font-family="Helvetica,sans-Serif" font-size="10.00" fill="#000000">int</text>
<polyline fill="none" stroke="#bfbfbf" points="26.1659,-424.5 55.1659,-424.5 "/>
<text text-anchor="middle" x="40.6659" y="-412.5" font-family="Helvetica,sans-Serif" font-size="10.00" fill="#000000"> </text>
<polyline fill="none" stroke="#bfbfbf" points="26.1659,-405.5 55.1659,-405.5 "/>
<text text-anchor="middle" x="40.6659" y="-393.5" font-family="Helvetica,sans-Serif" font-size="10.00" fill="#000000"> </text>
</g>
<!-- Node2&#45;&gt;Node1 -->
<g id="edge1" class="edge">
<title>Node2&#45;&gt;Node1</title>
<path fill="none" stroke="#404040" d="M29.3476,-386.3457C9.5211,-331.0325 -24.5836,-207.8783 28.6659,-127 61.2818,-77.4611 126.6006,-54.3422 176.7261,-43.6203"/>
<polygon fill="none" stroke="#404040" points="177.0204,-43.5617 182.1215,-38.4647 188.7883,-41.2131 183.6872,-46.31 177.0204,-43.5617"/>
<text text-anchor="middle" x="51.1659" y="-159" font-family="Helvetica,sans-Serif" font-size="10.00" fill="#000000"> +charge</text>
</g>
<!-- Node4 -->
<g id="node4" class="node">
<title>Node4</title>
<g id="a_node4"><a xlink:href="../../d8/d6c/structo2_1_1itsmft_1_1PreDigitLabelRef.html" target="_top" xlink:title="{o2::itsmft::PreDigitLabelRef\n||+ PreDigitLabelRef()\l+ ClassDefNV()\l}">
<polygon fill="none" stroke="#000000" points="83.1659,-127.5 83.1659,-195.5 234.1659,-195.5 234.1659,-127.5 83.1659,-127.5"/>
<text text-anchor="middle" x="158.6659" y="-183.5" font-family="Helvetica,sans-Serif" font-size="10.00" fill="#000000">o2::itsmft::PreDigitLabelRef</text>
<polyline fill="none" stroke="#000000" points="83.1659,-176.5 234.1659,-176.5 "/>
<text text-anchor="middle" x="158.6659" y="-164.5" font-family="Helvetica,sans-Serif" font-size="10.00" fill="#000000"> </text>
<polyline fill="none" stroke="#000000" points="83.1659,-157.5 234.1659,-157.5 "/>
<text text-anchor="start" x="91.1659" y="-145.5" font-family="Helvetica,sans-Serif" font-size="10.00" fill="#000000">+ PreDigitLabelRef()</text>
<text text-anchor="start" x="91.1659" y="-134.5" font-family="Helvetica,sans-Serif" font-size="10.00" fill="#000000">+ ClassDefNV()</text>
</a>
</g>
</g>
<!-- Node2&#45;&gt;Node4 -->
<g id="edge4" class="edge">
<title>Node2&#45;&gt;Node4</title>
<path fill="none" stroke="#404040" d="M43.4403,-386.3397C47.8311,-350.8676 58.6163,-289.4659 83.6659,-243 91.0099,-229.3773 101.1492,-216.2647 111.6004,-204.6879"/>
<polygon fill="none" stroke="#404040" points="111.7816,-204.4952 112.9773,-197.3839 120.0014,-195.7525 118.8058,-202.8638 111.7816,-204.4952"/>
<text text-anchor="middle" x="119.6659" y="-217" font-family="Helvetica,sans-Serif" font-size="10.00" fill="#000000"> +next</text>
</g>
<!-- Node3 -->
<g id="node3" class="node">
<title>Node3</title>
<polygon fill="none" stroke="#bfbfbf" points="252.1659,-133 252.1659,-190 311.1659,-190 311.1659,-133 252.1659,-133"/>
<text text-anchor="middle" x="281.6659" y="-178" font-family="Helvetica,sans-Serif" font-size="10.00" fill="#000000">UShort_t</text>
<polyline fill="none" stroke="#bfbfbf" points="252.1659,-171 311.1659,-171 "/>
<text text-anchor="middle" x="281.6659" y="-159" font-family="Helvetica,sans-Serif" font-size="10.00" fill="#000000"> </text>
<polyline fill="none" stroke="#bfbfbf" points="252.1659,-152 311.1659,-152 "/>
<text text-anchor="middle" x="281.6659" y="-140" font-family="Helvetica,sans-Serif" font-size="10.00" fill="#000000"> </text>
</g>
<!-- Node3&#45;&gt;Node1 -->
<g id="edge2" class="edge">
<title>Node3&#45;&gt;Node1</title>
<path fill="none" stroke="#404040" d="M273.138,-132.9987C268.4931,-117.4752 262.634,-97.8935 257.3658,-80.2866"/>
<polygon fill="none" stroke="#404040" points="257.3618,-80.2729 251.8097,-75.6714 253.9219,-68.7765 259.474,-73.3781 257.3618,-80.2729"/>
<text text-anchor="middle" x="279.1659" y="-101" font-family="Helvetica,sans-Serif" font-size="10.00" fill="#000000"> +col</text>
<text text-anchor="middle" x="279.1659" y="-90" font-family="Helvetica,sans-Serif" font-size="10.00" fill="#000000">+row</text>
</g>
<!-- Node4&#45;&gt;Node1 -->
<g id="edge3" class="edge">
<title>Node4&#45;&gt;Node1</title>
<path fill="none" stroke="#404040" d="M178.9002,-127.3603C186.7135,-114.548 195.8767,-99.9572 204.6659,-87 206.5781,-84.1811 208.5777,-81.3018 210.6179,-78.4152"/>
<polygon fill="none" stroke="#404040" points="210.6359,-78.3901 210.8925,-71.1836 217.6435,-68.6487 217.3868,-75.8553 210.6359,-78.3901"/>
<text text-anchor="middle" x="230.6659" y="-95.5" font-family="Helvetica,sans-Serif" font-size="10.00" fill="#000000"> +labelRef</text>
</g>
<!-- Node5 -->
<g id="node5" class="node">
<title>Node5</title>
<g id="a_node5"><a xlink:href="../../de/def/classo2_1_1MCCompLabel.html" target="_top" xlink:title="{o2::MCCompLabel\n||+ MCCompLabel()\l+ MCCompLabel()\l+ ~MCCompLabel()\l+ isSet()\l+ isEmpty()\l+ isNoise()\l+ isValid()\l+ isFake()\l+ isCorrect()\l+ compare()\l+ operator ULong64_t()\l+ getRawValue()\l+ operator==()\l+ unset()\l+ setNoise()\l+ setFakeFlag()\l+ set()\l+ getTrackID()\l+ getTrackIDSigned()\l+ getEventID()\l+ getSourceID()\l+ get()\l+ print()\l+ ClassDefNV()\l+ maxSourceID()\l+ maxEventID()\l+ maxTrackID()\l}">
<polygon fill="none" stroke="#000000" points="93.1659,-243.5 93.1659,-586.5 224.1659,-586.5 224.1659,-243.5 93.1659,-243.5"/>
<text text-anchor="middle" x="158.6659" y="-574.5" font-family="Helvetica,sans-Serif" font-size="10.00" fill="#000000">o2::MCCompLabel</text>
<polyline fill="none" stroke="#000000" points="93.1659,-567.5 224.1659,-567.5 "/>
<text text-anchor="middle" x="158.6659" y="-555.5" font-family="Helvetica,sans-Serif" font-size="10.00" fill="#000000"> </text>
<polyline fill="none" stroke="#000000" points="93.1659,-548.5 224.1659,-548.5 "/>
<text text-anchor="start" x="101.1659" y="-536.5" font-family="Helvetica,sans-Serif" font-size="10.00" fill="#000000">+ MCCompLabel()</text>
<text text-anchor="start" x="101.1659" y="-525.5" font-family="Helvetica,sans-Serif" font-size="10.00" fill="#000000">+ MCCompLabel()</text>
<text text-anchor="start" x="101.1659" y="-514.5" font-family="Helvetica,sans-Serif" font-size="10.00" fill="#000000">+ ~MCCompLabel()</text>
<text text-anchor="start" x="101.1659" y="-503.5" font-family="Helvetica,sans-Serif" font-size="10.00" fill="#000000">+ isSet()</text>
<text text-anchor="start" x="101.1659" y="-492.5" font-family="Helvetica,sans-Serif" font-size="10.00" fill="#000000">+ isEmpty()</text>
<text text-anchor="start" x="101.1659" y="-481.5" font-family="Helvetica,sans-Serif" font-size="10.00" fill="#000000">+ isNoise()</text>
<text text-anchor="start" x="101.1659" y="-470.5" font-family="Helvetica,sans-Serif" font-size="10.00" fill="#000000">+ isValid()</text>
<text text-anchor="start" x="101.1659" y="-459.5" font-family="Helvetica,sans-Serif" font-size="10.00" fill="#000000">+ isFake()</text>
<text text-anchor="start" x="101.1659" y="-448.5" font-family="Helvetica,sans-Serif" font-size="10.00" fill="#000000">+ isCorrect()</text>
<text text-anchor="start" x="101.1659" y="-437.5" font-family="Helvetica,sans-Serif" font-size="10.00" fill="#000000">+ compare()</text>
<text text-anchor="start" x="101.1659" y="-426.5" font-family="Helvetica,sans-Serif" font-size="10.00" fill="#000000">+ operator ULong64_t()</text>
<text text-anchor="start" x="101.1659" y="-415.5" font-family="Helvetica,sans-Serif" font-size="10.00" fill="#000000">+ getRawValue()</text>
<text text-anchor="start" x="101.1659" y="-404.5" font-family="Helvetica,sans-Serif" font-size="10.00" fill="#000000">+ operator==()</text>
<text text-anchor="start" x="101.1659" y="-393.5" font-family="Helvetica,sans-Serif" font-size="10.00" fill="#000000">+ unset()</text>
<text text-anchor="start" x="101.1659" y="-382.5" font-family="Helvetica,sans-Serif" font-size="10.00" fill="#000000">+ setNoise()</text>
<text text-anchor="start" x="101.1659" y="-371.5" font-family="Helvetica,sans-Serif" font-size="10.00" fill="#000000">+ setFakeFlag()</text>
<text text-anchor="start" x="101.1659" y="-360.5" font-family="Helvetica,sans-Serif" font-size="10.00" fill="#000000">+ set()</text>
<text text-anchor="start" x="101.1659" y="-349.5" font-family="Helvetica,sans-Serif" font-size="10.00" fill="#000000">+ getTrackID()</text>
<text text-anchor="start" x="101.1659" y="-338.5" font-family="Helvetica,sans-Serif" font-size="10.00" fill="#000000">+ getTrackIDSigned()</text>
<text text-anchor="start" x="101.1659" y="-327.5" font-family="Helvetica,sans-Serif" font-size="10.00" fill="#000000">+ getEventID()</text>
<text text-anchor="start" x="101.1659" y="-316.5" font-family="Helvetica,sans-Serif" font-size="10.00" fill="#000000">+ getSourceID()</text>
<text text-anchor="start" x="101.1659" y="-305.5" font-family="Helvetica,sans-Serif" font-size="10.00" fill="#000000">+ get()</text>
<text text-anchor="start" x="101.1659" y="-294.5" font-family="Helvetica,sans-Serif" font-size="10.00" fill="#000000">+ print()</text>
<text text-anchor="start" x="101.1659" y="-283.5" font-family="Helvetica,sans-Serif" font-size="10.00" fill="#000000">+ ClassDefNV()</text>
<text text-anchor="start" x="101.1659" y="-272.5" font-family="Helvetica,sans-Serif" font-size="10.00" fill="#000000">+ maxSourceID()</text>
<text text-anchor="start" x="101.1659" y="-261.5" font-family="Helvetica,sans-Serif" font-size="10.00" fill="#000000">+ maxEventID()</text>
<text text-anchor="start" x="101.1659" y="-250.5" font-family="Helvetica,sans-Serif" font-size="10.00" fill="#000000">+ maxTrackID()</text>
</a>
</g>
</g>
<!-- Node5&#45;&gt;Node4 -->
<g id="edge5" class="edge">
<title>Node5&#45;&gt;Node4</title>
<path fill="none" stroke="#404040" d="M158.6659,-243.4541C158.6659,-230.5882 158.6659,-218.429 158.6659,-207.6102"/>
<polygon fill="none" stroke="#404040" points="158.666,-207.5637 154.666,-201.5637 158.6659,-195.5637 162.666,-201.5637 158.666,-207.5637"/>
<text text-anchor="middle" x="176.6659" y="-217" font-family="Helvetica,sans-Serif" font-size="10.00" fill="#000000"> +label</text>
</g>
<!-- Node6 -->
<g id="node6" class="node">
<title>Node6</title>
<polygon fill="none" stroke="#bfbfbf" points="136.6659,-700.5 136.6659,-757.5 180.6659,-757.5 180.6659,-700.5 136.6659,-700.5"/>
<text text-anchor="middle" x="158.6659" y="-745.5" font-family="Helvetica,sans-Serif" font-size="10.00" fill="#000000">static</text>
<polyline fill="none" stroke="#bfbfbf" points="136.6659,-738.5 180.6659,-738.5 "/>
<text text-anchor="middle" x="158.6659" y="-726.5" font-family="Helvetica,sans-Serif" font-size="10.00" fill="#000000"> </text>
<polyline fill="none" stroke="#bfbfbf" points="136.6659,-719.5 180.6659,-719.5 "/>
<text text-anchor="middle" x="158.6659" y="-707.5" font-family="Helvetica,sans-Serif" font-size="10.00" fill="#000000"> </text>
</g>
<!-- Node6&#45;&gt;Node5 -->
<g id="edge6" class="edge">
<title>Node6&#45;&gt;Node5</title>
<path fill="none" stroke="#404040" d="M158.6659,-700.3022C158.6659,-675.8963 158.6659,-638.5759 158.6659,-598.8929"/>
<polygon fill="none" stroke="#404040" points="158.666,-598.7985 154.666,-592.7985 158.6659,-586.7985 162.666,-592.7984 158.666,-598.7985"/>
<text text-anchor="middle" x="194.6659" y="-674" font-family="Helvetica,sans-Serif" font-size="10.00" fill="#000000"> +nbitsSrcID</text>
<text text-anchor="middle" x="194.6659" y="-663" font-family="Helvetica,sans-Serif" font-size="10.00" fill="#000000">+maskFull</text>
<text text-anchor="middle" x="194.6659" y="-652" font-family="Helvetica,sans-Serif" font-size="10.00" fill="#000000">+nbitsTrackID</text>
<text text-anchor="middle" x="194.6659" y="-641" font-family="Helvetica,sans-Serif" font-size="10.00" fill="#000000">+nbitsEvID</text>
<text text-anchor="middle" x="194.6659" y="-630" font-family="Helvetica,sans-Serif" font-size="10.00" fill="#000000">+maskSrcID</text>
<text text-anchor="middle" x="194.6659" y="-619" font-family="Helvetica,sans-Serif" font-size="10.00" fill="#000000">+maskEvID</text>
<text text-anchor="middle" x="194.6659" y="-608" font-family="Helvetica,sans-Serif" font-size="10.00" fill="#000000">+maskTrackID</text>
</g>
<!-- Node7 -->
<g id="node7" class="node">
<title>Node7</title>
<polygon fill="none" stroke="#bfbfbf" points="329.6659,-133 329.6659,-190 375.6659,-190 375.6659,-133 329.6659,-133"/>
<text text-anchor="middle" x="352.6659" y="-178" font-family="Helvetica,sans-Serif" font-size="10.00" fill="#000000">UInt_t</text>
<polyline fill="none" stroke="#bfbfbf" points="329.6659,-171 375.6659,-171 "/>
<text text-anchor="middle" x="352.6659" y="-159" font-family="Helvetica,sans-Serif" font-size="10.00" fill="#000000"> </text>
<polyline fill="none" stroke="#bfbfbf" points="329.6659,-152 375.6659,-152 "/>
<text text-anchor="middle" x="352.6659" y="-140" font-family="Helvetica,sans-Serif" font-size="10.00" fill="#000000"> </text>
</g>
<!-- Node7&#45;&gt;Node1 -->
<g id="edge7" class="edge">
<title>Node7&#45;&gt;Node1</title>
<path fill="none" stroke="#404040" d="M332.5932,-132.7939C322.3144,-118.6276 309.324,-101.5094 296.6659,-87 293.9001,-83.8297 290.9829,-80.6186 287.9971,-77.4281"/>
<polygon fill="none" stroke="#404040" points="287.7788,-77.2007 280.7384,-75.6411 279.4701,-68.5424 286.5106,-70.102 287.7788,-77.2007"/>
<text text-anchor="middle" x="339.6659" y="-95.5" font-family="Helvetica,sans-Serif" font-size="10.00" fill="#000000"> +roFrame</text>
</g>
</g>
</svg>
