<?xml version="1.0" encoding="UTF-8" standalone="no"?>
<!DOCTYPE svg PUBLIC "-//W3C//DTD SVG 1.1//EN"
 "http://www.w3.org/Graphics/SVG/1.1/DTD/svg11.dtd">
<!-- Generated by graphviz version 2.40.1 (20161225.0304)
 -->
<!-- Title: o2::tpc::PublisherConf Pages: 1 -->
<!--zoomable 593 -->
<svg id="main" version="1.1" xmlns="http://www.w3.org/2000/svg" xmlns:xlink="http://www.w3.org/1999/xlink" xml:space="preserve" onload="init(evt)">
<style type="text/css"><![CDATA[
.edge:hover path { stroke: red; }
.edge:hover polygon { stroke: red; fill: red; }
]]></style>
<script type="text/javascript"><![CDATA[
var edges = document.getElementsByTagName('g');
if (edges && edges.length) {
  for (var i=0;i<edges.length;i++) {
    if (edges[i].id.substr(0,4)=='edge') {
      edges[i].setAttribute('class','edge');
    }
  }
}
]]></script>
        <defs>
                <circle id="rim" cx="0" cy="0" r="7"/>
                <circle id="rim2" cx="0" cy="0" r="3.5"/>
                <g id="zoomPlus">
                        <use xlink:href="#rim" fill="#404040">
                                <set attributeName="fill" to="#808080" begin="zoomplus.mouseover" end="zoomplus.mouseout"/>
                        </use>
                        <path d="M-4,0h8M0,-4v8" fill="none" stroke="white" stroke-width="1.5" pointer-events="none"/>
                </g>
                <g id="zoomMin">
                        <use xlink:href="#rim" fill="#404040">
                                <set attributeName="fill" to="#808080" begin="zoomminus.mouseover" end="zoomminus.mouseout"/>
                        </use>
                        <path d="M-4,0h8" fill="none" stroke="white" stroke-width="1.5" pointer-events="none"/>
                </g>
                <g id="dirArrow">
                        <path fill="none" stroke="white" stroke-width="1.5" d="M0,-3.0v7 M-2.5,-0.5L0,-3.0L2.5,-0.5"/>
                </g>
               <g id="resetDef">
                       <use xlink:href="#rim2" fill="#404040">
                               <set attributeName="fill" to="#808080" begin="reset.mouseover" end="reset.mouseout"/>
                       </use>
               </g>
        </defs>

<script type="text/javascript">
var viewWidth = 589;
var viewHeight = 593;
var sectionId = 'dynsection-0';
</script>
<script xlink:href="../../svgpan.js"/>
<svg id="graph" class="graph">
<g id="viewport">
<title>o2::tpc::PublisherConf</title>
<!-- Node1 -->
<g id="node1" class="node">
<title>Node1</title>
<polygon fill="#bfbfbf" stroke="#000000" points="192.7678,-.5 192.7678,-57.5 315.7678,-57.5 315.7678,-.5 192.7678,-.5"/>
<text text-anchor="middle" x="254.2678" y="-45.5" font-family="Helvetica,sans-Serif" font-size="10.00" fill="#000000">o2::tpc::PublisherConf</text>
<polyline fill="none" stroke="#000000" points="192.7678,-38.5 315.7678,-38.5 "/>
<text text-anchor="middle" x="254.2678" y="-26.5" font-family="Helvetica,sans-Serif" font-size="10.00" fill="#000000"> </text>
<polyline fill="none" stroke="#000000" points="192.7678,-19.5 315.7678,-19.5 "/>
<text text-anchor="middle" x="254.2678" y="-7.5" font-family="Helvetica,sans-Serif" font-size="10.00" fill="#000000"> </text>
</g>
<!-- Node2 -->
<g id="node2" class="node">
<title>Node2</title>
<g id="a_node2"><a xlink:href="../../df/d24/structo2_1_1tpc_1_1PublisherConf_1_1BranchOptionConfig.html" target="_top" xlink:title="{o2::tpc::PublisherConf\l::BranchOptionConfig\n||}">
<polygon fill="none" stroke="#000000" points="115.7678,-280.5 115.7678,-348.5 238.7678,-348.5 238.7678,-280.5 115.7678,-280.5"/>
<text text-anchor="start" x="123.7678" y="-336.5" font-family="Helvetica,sans-Serif" font-size="10.00" fill="#000000">o2::tpc::PublisherConf</text>
<text text-anchor="middle" x="177.2678" y="-325.5" font-family="Helvetica,sans-Serif" font-size="10.00" fill="#000000">::BranchOptionConfig</text>
<polyline fill="none" stroke="#000000" points="115.7678,-318.5 238.7678,-318.5 "/>
<text text-anchor="middle" x="177.2678" y="-306.5" font-family="Helvetica,sans-Serif" font-size="10.00" fill="#000000"> </text>
<polyline fill="none" stroke="#000000" points="115.7678,-299.5 238.7678,-299.5 "/>
<text text-anchor="middle" x="177.2678" y="-287.5" font-family="Helvetica,sans-Serif" font-size="10.00" fill="#000000"> </text>
</a>
</g>
</g>
<!-- Node2&#45;&gt;Node1 -->
<g id="edge1" class="edge">
<title>Node2&#45;&gt;Node1</title>
<path fill="none" stroke="#404040" d="M172.3842,-280.2392C167.9958,-239.6492 164.9856,-170.6452 185.2678,-116 191.8626,-98.2318 203.5684,-81.2799 215.487,-67.1378"/>
<polygon fill="none" stroke="#404040" points="215.7705,-66.8167 216.7426,-59.6714 223.7121,-57.8205 222.74,-64.9658 215.7705,-66.8167"/>
<text text-anchor="middle" x="217.2678" y="-192" font-family="Helvetica,sans-Serif" font-size="10.00" fill="#000000"> +mcbranch</text>
<text text-anchor="middle" x="217.2678" y="-181" font-family="Helvetica,sans-Serif" font-size="10.00" fill="#000000">+databranch</text>
</g>
<!-- Node3 -->
<g id="node3" class="node">
<title>Node3</title>
<polygon fill="none" stroke="#bfbfbf" points="67.2678,-527.5 67.2678,-584.5 111.2678,-584.5 111.2678,-527.5 67.2678,-527.5"/>
<text text-anchor="middle" x="89.2678" y="-572.5" font-family="Helvetica,sans-Serif" font-size="10.00" fill="#000000">string</text>
<polyline fill="none" stroke="#bfbfbf" points="67.2678,-565.5 111.2678,-565.5 "/>
<text text-anchor="middle" x="89.2678" y="-553.5" font-family="Helvetica,sans-Serif" font-size="10.00" fill="#000000"> </text>
<polyline fill="none" stroke="#bfbfbf" points="67.2678,-546.5 111.2678,-546.5 "/>
<text text-anchor="middle" x="89.2678" y="-534.5" font-family="Helvetica,sans-Serif" font-size="10.00" fill="#000000"> </text>
</g>
<!-- Node3&#45;&gt;Node1 -->
<g id="edge9" class="edge">
<title>Node3&#45;&gt;Node1</title>
<path fill="none" stroke="#404040" d="M68.9957,-527.2769C35.8256,-476.5331 -23.1686,-368.0654 10.2678,-280 46.2595,-185.2042 138.9815,-107.3556 199.1976,-64.6306"/>
<polygon fill="none" stroke="#404040" points="199.4666,-64.4428 202.0953,-57.7279 209.3047,-57.5717 206.676,-64.2866 199.4666,-64.4428"/>
<text text-anchor="middle" x="58.2678" y="-317.5" font-family="Helvetica,sans-Serif" font-size="10.00" fill="#000000"> +defaultTreeName</text>
<text text-anchor="middle" x="58.2678" y="-306.5" font-family="Helvetica,sans-Serif" font-size="10.00" fill="#000000">+processName</text>
</g>
<!-- Node3&#45;&gt;Node2 -->
<g id="edge2" class="edge">
<title>Node3&#45;&gt;Node2</title>
<path fill="none" stroke="#404040" d="M84.913,-527.3603C80.4631,-488.1291 77.9336,-416.8698 108.2678,-367 110.3016,-363.6563 112.6341,-360.4503 115.1835,-357.3885"/>
<polygon fill="none" stroke="#404040" points="115.1843,-357.3877 116.3774,-350.2759 123.401,-348.6421 122.2079,-355.7538 115.1843,-357.3877"/>
<text text-anchor="middle" x="104.7678" y="-501" font-family="Helvetica,sans-Serif" font-size="10.00" fill="#000000"> +option</text>
<text text-anchor="middle" x="104.7678" y="-490" font-family="Helvetica,sans-Serif" font-size="10.00" fill="#000000">+defval</text>
<text text-anchor="middle" x="104.7678" y="-479" font-family="Helvetica,sans-Serif" font-size="10.00" fill="#000000">+help</text>
</g>
<!-- Node7 -->
<g id="node7" class="node">
<title>Node7</title>
<g id="a_node7"><a xlink:href="../../de/d1b/structo2_1_1framework_1_1OutputLabel.html" target="_top" xlink:title="{o2::framework::OutputLabel\n||}">
<polygon fill="none" stroke="#000000" points="117.7678,-384 117.7678,-441 270.7678,-441 270.7678,-384 117.7678,-384"/>
<text text-anchor="middle" x="194.2678" y="-429" font-family="Helvetica,sans-Serif" font-size="10.00" fill="#000000">o2::framework::OutputLabel</text>
<polyline fill="none" stroke="#000000" points="117.7678,-422 270.7678,-422 "/>
<text text-anchor="middle" x="194.2678" y="-410" font-family="Helvetica,sans-Serif" font-size="10.00" fill="#000000"> </text>
<polyline fill="none" stroke="#000000" points="117.7678,-403 270.7678,-403 "/>
<text text-anchor="middle" x="194.2678" y="-391" font-family="Helvetica,sans-Serif" font-size="10.00" fill="#000000"> </text>
</a>
</g>
</g>
<!-- Node3&#45;&gt;Node7 -->
<g id="edge7" class="edge">
<title>Node3&#45;&gt;Node7</title>
<path fill="none" stroke="#404040" d="M111.4847,-535.9695C119.7362,-527.9865 128.8785,-518.4566 136.2678,-509 150.1867,-491.187 163.3668,-469.7736 173.6349,-451.6485"/>
<polygon fill="none" stroke="#404040" points="173.651,-451.6194 173.0689,-444.4318 179.4797,-441.13 180.0618,-448.3175 173.651,-451.6194"/>
<text text-anchor="middle" x="177.7678" y="-490" font-family="Helvetica,sans-Serif" font-size="10.00" fill="#000000"> +value</text>
</g>
<!-- Node4 -->
<g id="node4" class="node">
<title>Node4</title>
<polygon fill="none" stroke="#bfbfbf" points="426.7678,-160.5 426.7678,-217.5 509.7678,-217.5 509.7678,-160.5 426.7678,-160.5"/>
<text text-anchor="middle" x="468.2678" y="-205.5" font-family="Helvetica,sans-Serif" font-size="10.00" fill="#000000">vector&lt; int &gt;</text>
<polyline fill="none" stroke="#bfbfbf" points="426.7678,-198.5 509.7678,-198.5 "/>
<text text-anchor="middle" x="468.2678" y="-186.5" font-family="Helvetica,sans-Serif" font-size="10.00" fill="#000000"> </text>
<polyline fill="none" stroke="#bfbfbf" points="426.7678,-179.5 509.7678,-179.5 "/>
<text text-anchor="middle" x="468.2678" y="-167.5" font-family="Helvetica,sans-Serif" font-size="10.00" fill="#000000"> </text>
</g>
<!-- Node4&#45;&gt;Node1 -->
<g id="edge3" class="edge">
<title>Node4&#45;&gt;Node1</title>
<path fill="none" stroke="#404040" d="M451.9925,-160.2582C442.9651,-145.8979 430.8298,-128.8847 417.2678,-116 391.3781,-91.4033 357.18,-71.7464 326.7959,-57.3846"/>
<polygon fill="none" stroke="#404040" points="326.7019,-57.3415 319.5801,-58.4727 315.7968,-52.3337 322.9186,-51.2026 326.7019,-57.3415"/>
<text text-anchor="middle" x="424.7678" y="-90" font-family="Helvetica,sans-Serif" font-size="10.00" fill="#000000"> +tpcSectors</text>
<text text-anchor="middle" x="424.7678" y="-79" font-family="Helvetica,sans-Serif" font-size="10.00" fill="#000000">+outputIds</text>
</g>
<!-- Node5 -->
<g id="node5" class="node">
<title>Node5</title>
<g id="a_node5"><a xlink:href="../../d8/dc3/structo2_1_1framework_1_1OutputSpec.html" target="_top" xlink:title="{o2::framework::OutputSpec\n||+ OutputSpec()\l+ OutputSpec()\l+ OutputSpec()\l+ OutputSpec()\l+ OutputSpec()\l+ OutputSpec()\l+ OutputSpec()\l+ OutputSpec()\l+ operator==()\l}">
<polygon fill="none" stroke="#000000" points="258.2678,-116.5 258.2678,-261.5 408.2678,-261.5 408.2678,-116.5 258.2678,-116.5"/>
<text text-anchor="middle" x="333.2678" y="-249.5" font-family="Helvetica,sans-Serif" font-size="10.00" fill="#000000">o2::framework::OutputSpec</text>
<polyline fill="none" stroke="#000000" points="258.2678,-242.5 408.2678,-242.5 "/>
<text text-anchor="middle" x="333.2678" y="-230.5" font-family="Helvetica,sans-Serif" font-size="10.00" fill="#000000"> </text>
<polyline fill="none" stroke="#000000" points="258.2678,-223.5 408.2678,-223.5 "/>
<text text-anchor="start" x="266.2678" y="-211.5" font-family="Helvetica,sans-Serif" font-size="10.00" fill="#000000">+ OutputSpec()</text>
<text text-anchor="start" x="266.2678" y="-200.5" font-family="Helvetica,sans-Serif" font-size="10.00" fill="#000000">+ OutputSpec()</text>
<text text-anchor="start" x="266.2678" y="-189.5" font-family="Helvetica,sans-Serif" font-size="10.00" fill="#000000">+ OutputSpec()</text>
<text text-anchor="start" x="266.2678" y="-178.5" font-family="Helvetica,sans-Serif" font-size="10.00" fill="#000000">+ OutputSpec()</text>
<text text-anchor="start" x="266.2678" y="-167.5" font-family="Helvetica,sans-Serif" font-size="10.00" fill="#000000">+ OutputSpec()</text>
<text text-anchor="start" x="266.2678" y="-156.5" font-family="Helvetica,sans-Serif" font-size="10.00" fill="#000000">+ OutputSpec()</text>
<text text-anchor="start" x="266.2678" y="-145.5" font-family="Helvetica,sans-Serif" font-size="10.00" fill="#000000">+ OutputSpec()</text>
<text text-anchor="start" x="266.2678" y="-134.5" font-family="Helvetica,sans-Serif" font-size="10.00" fill="#000000">+ OutputSpec()</text>
<text text-anchor="start" x="266.2678" y="-123.5" font-family="Helvetica,sans-Serif" font-size="10.00" fill="#000000">+ operator==()</text>
</a>
</g>
</g>
<!-- Node5&#45;&gt;Node1 -->
<g id="edge4" class="edge">
<title>Node5&#45;&gt;Node1</title>
<path fill="none" stroke="#404040" d="M297.4661,-116.4902C289.3483,-100.0491 281.0203,-83.1823 273.8698,-68.7003"/>
<polygon fill="none" stroke="#404040" points="273.7269,-68.4109 267.4839,-64.8018 268.4142,-57.651 274.6572,-61.26 273.7269,-68.4109"/>
<text text-anchor="middle" x="318.2678" y="-90" font-family="Helvetica,sans-Serif" font-size="10.00" fill="#000000"> +mcoutput</text>
<text text-anchor="middle" x="318.2678" y="-79" font-family="Helvetica,sans-Serif" font-size="10.00" fill="#000000">+dataoutput</text>
</g>
<!-- Node6 -->
<g id="node6" class="node">
<title>Node6</title>
<polygon fill="none" stroke="#bfbfbf" points="289.2678,-384 289.2678,-441 377.2678,-441 377.2678,-384 289.2678,-384"/>
<text text-anchor="middle" x="333.2678" y="-429" font-family="Helvetica,sans-Serif" font-size="10.00" fill="#000000">enum Lifetime</text>
<polyline fill="none" stroke="#bfbfbf" points="289.2678,-422 377.2678,-422 "/>
<text text-anchor="middle" x="333.2678" y="-410" font-family="Helvetica,sans-Serif" font-size="10.00" fill="#000000"> </text>
<polyline fill="none" stroke="#bfbfbf" points="289.2678,-403 377.2678,-403 "/>
<text text-anchor="middle" x="333.2678" y="-391" font-family="Helvetica,sans-Serif" font-size="10.00" fill="#000000"> </text>
</g>
<!-- Node6&#45;&gt;Node5 -->
<g id="edge5" class="edge">
<title>Node6&#45;&gt;Node5</title>
<path fill="none" stroke="#404040" d="M333.2678,-383.7388C333.2678,-356.019 333.2678,-312.6919 333.2678,-273.9371"/>
<polygon fill="none" stroke="#404040" points="333.2679,-273.8102 329.2678,-267.8103 333.2678,-261.8102 337.2678,-267.8102 333.2679,-273.8102"/>
<text text-anchor="middle" x="358.2678" y="-312" font-family="Helvetica,sans-Serif" font-size="10.00" fill="#000000"> +lifetime</text>
</g>
<!-- Node7&#45;&gt;Node5 -->
<g id="edge6" class="edge">
<title>Node7&#45;&gt;Node5</title>
<path fill="none" stroke="#404040" d="M215.9596,-383.8453C223.8559,-373.0844 232.6965,-360.6394 240.2678,-349 245.3881,-341.1285 265.2264,-307.0794 285.2724,-272.4031"/>
<polygon fill="none" stroke="#404040" points="285.4818,-272.0405 285.0194,-264.8443 291.4842,-261.6496 291.9467,-268.8459 285.4818,-272.0405"/>
<text text-anchor="middle" x="305.2678" y="-312" font-family="Helvetica,sans-Serif" font-size="10.00" fill="#000000"> +binding</text>
</g>
<!-- Node8 -->
<g id="node8" class="node">
<title>Node8</title>
<polygon fill="none" stroke="#bfbfbf" points="395.2678,-367.5 395.2678,-457.5 581.2678,-457.5 581.2678,-367.5 395.2678,-367.5"/>
<text text-anchor="start" x="403.2678" y="-445.5" font-family="Helvetica,sans-Serif" font-size="10.00" fill="#000000">variant&lt; o2::framework</text>
<text text-anchor="start" x="403.2678" y="-434.5" font-family="Helvetica,sans-Serif" font-size="10.00" fill="#000000">::ConcreteDataMatcher,</text>
<text text-anchor="start" x="403.2678" y="-423.5" font-family="Helvetica,sans-Serif" font-size="10.00" fill="#000000"> o2::framework::ConcreteDataType</text>
<text text-anchor="middle" x="488.2678" y="-412.5" font-family="Helvetica,sans-Serif" font-size="10.00" fill="#000000">Matcher &gt;</text>
<polyline fill="none" stroke="#bfbfbf" points="395.2678,-405.5 581.2678,-405.5 "/>
<text text-anchor="middle" x="488.2678" y="-393.5" font-family="Helvetica,sans-Serif" font-size="10.00" fill="#000000"> </text>
<polyline fill="none" stroke="#bfbfbf" points="395.2678,-386.5 581.2678,-386.5 "/>
<text text-anchor="middle" x="488.2678" y="-374.5" font-family="Helvetica,sans-Serif" font-size="10.00" fill="#000000"> </text>
</g>
<!-- Node8&#45;&gt;Node5 -->
<g id="edge8" class="edge">
<title>Node8&#45;&gt;Node5</title>
<path fill="none" stroke="#404040" d="M456.9012,-367.2714C437.9017,-339.8754 413.0861,-304.0928 390.6775,-271.7811"/>
<polygon fill="none" stroke="#404040" points="390.648,-271.7386 383.9418,-269.0877 383.8095,-261.8778 390.5157,-264.5287 390.648,-271.7386"/>
<text text-anchor="middle" x="468.2678" y="-312" font-family="Helvetica,sans-Serif" font-size="10.00" fill="#000000"> +matcher</text>
</g>
</g>
</svg>
        <g id="navigator" transform="translate(0 0)" fill="#404254">
                <rect fill="#f2f5e9" fill-opacity="0.5" stroke="#606060" stroke-width=".5" x="0" y="0" width="60" height="60"/>
                <use id="zoomplus" xlink:href="#zoomPlus" x="17" y="9" onmousedown="handleZoom(evt,'in')"/>
                <use id="zoomminus" xlink:href="#zoomMin" x="42" y="9" onmousedown="handleZoom(evt,'out')"/>
                <use id="reset" xlink:href="#resetDef" x="30" y="36" onmousedown="handleReset()"/>
                <g id="arrowUp" xlink:href="#dirArrow" transform="translate(30 24)" onmousedown="handlePan(0,-1)">
                  <use xlink:href="#rim" fill="#404040">
                        <set attributeName="fill" to="#808080" begin="arrowUp.mouseover" end="arrowUp.mouseout"/>
                  </use>
                  <path fill="none" stroke="white" stroke-width="1.5" d="M0,-3.0v7 M-2.5,-0.5L0,-3.0L2.5,-0.5"/>
                </g>
                <g id="arrowRight" xlink:href="#dirArrow" transform="rotate(90) translate(36 -43)" onmousedown="handlePan(1,0)">
                  <use xlink:href="#rim" fill="#404040">
                        <set attributeName="fill" to="#808080" begin="arrowRight.mouseover" end="arrowRight.mouseout"/>
                  </use>
                  <path fill="none" stroke="white" stroke-width="1.5" d="M0,-3.0v7 M-2.5,-0.5L0,-3.0L2.5,-0.5"/>
                </g>
                <g id="arrowDown" xlink:href="#dirArrow" transform="rotate(180) translate(-30 -48)" onmousedown="handlePan(0,1)">
                  <use xlink:href="#rim" fill="#404040">
                        <set attributeName="fill" to="#808080" begin="arrowDown.mouseover" end="arrowDown.mouseout"/>
                  </use>
                  <path fill="none" stroke="white" stroke-width="1.5" d="M0,-3.0v7 M-2.5,-0.5L0,-3.0L2.5,-0.5"/>
                </g>
                <g id="arrowLeft" xlink:href="#dirArrow" transform="rotate(270) translate(-36 17)" onmousedown="handlePan(-1,0)">
                  <use xlink:href="#rim" fill="#404040">
                        <set attributeName="fill" to="#808080" begin="arrowLeft.mouseover" end="arrowLeft.mouseout"/>
                  </use>
                  <path fill="none" stroke="white" stroke-width="1.5" d="M0,-3.0v7 M-2.5,-0.5L0,-3.0L2.5,-0.5"/>
                </g>
        </g>
        <svg viewBox="0 0 15 15" width="100%" height="30px" preserveAspectRatio="xMaxYMin meet">
         <g id="arrow_out" transform="scale(0.3 0.3)">
          <a xlink:href="structo2_1_1tpc_1_1PublisherConf__coll__graph_org.svg" target="_base">
           <rect id="button" ry="5" rx="5" y="6" x="6" height="38" width="38"
                fill="#f2f5e9" fill-opacity="0.5" stroke="#606060" stroke-width="1.0"/>
           <path id="arrow"
             d="M 11.500037,31.436501 C 11.940474,20.09759 22.043105,11.32322 32.158766,21.979434 L 37.068811,17.246167 C 37.068811,17.246167 37.088388,32 37.088388,32 L 22.160133,31.978069 C 22.160133,31.978069 26.997745,27.140456 26.997745,27.140456 C 18.528582,18.264221 13.291696,25.230495 11.500037,31.436501 z"
             style="fill:#404040;"/>
          </a>
         </g>
        </svg>
</svg>
