<?xml version="1.0" encoding="UTF-8" standalone="no"?>
<!DOCTYPE svg PUBLIC "-//W3C//DTD SVG 1.1//EN"
 "http://www.w3.org/Graphics/SVG/1.1/DTD/svg11.dtd">
<!-- Generated by graphviz version 2.40.1 (20161225.0304)
 -->
<!-- Title: /home/travis/build/AliceO2Group/AliceO2/GPU/GPUTracking/Standalone Pages: 1 -->
<!--zoomable 411 -->
<svg id="main" version="1.1" xmlns="http://www.w3.org/2000/svg" xmlns:xlink="http://www.w3.org/1999/xlink" xml:space="preserve" onload="init(evt)">
<style type="text/css"><![CDATA[
.edge:hover path { stroke: red; }
.edge:hover polygon { stroke: red; fill: red; }
]]></style>
<script type="text/javascript"><![CDATA[
var edges = document.getElementsByTagName('g');
if (edges && edges.length) {
  for (var i=0;i<edges.length;i++) {
    if (edges[i].id.substr(0,4)=='edge') {
      edges[i].setAttribute('class','edge');
    }
  }
}
]]></script>
        <defs>
                <circle id="rim" cx="0" cy="0" r="7"/>
                <circle id="rim2" cx="0" cy="0" r="3.5"/>
                <g id="zoomPlus">
                        <use xlink:href="#rim" fill="#404040">
                                <set attributeName="fill" to="#808080" begin="zoomplus.mouseover" end="zoomplus.mouseout"/>
                        </use>
                        <path d="M-4,0h8M0,-4v8" fill="none" stroke="white" stroke-width="1.5" pointer-events="none"/>
                </g>
                <g id="zoomMin">
                        <use xlink:href="#rim" fill="#404040">
                                <set attributeName="fill" to="#808080" begin="zoomminus.mouseover" end="zoomminus.mouseout"/>
                        </use>
                        <path d="M-4,0h8" fill="none" stroke="white" stroke-width="1.5" pointer-events="none"/>
                </g>
                <g id="dirArrow">
                        <path fill="none" stroke="white" stroke-width="1.5" d="M0,-3.0v7 M-2.5,-0.5L0,-3.0L2.5,-0.5"/>
                </g>
               <g id="resetDef">
                       <use xlink:href="#rim2" fill="#404040">
                               <set attributeName="fill" to="#808080" begin="reset.mouseover" end="reset.mouseout"/>
                       </use>
               </g>
        </defs>

<script type="text/javascript">
var viewWidth = 633;
var viewHeight = 411;
var sectionId = 'dynsection-0';
</script>
<script xlink:href="svgpan.js"/>
<svg id="graph" class="graph">
<g id="viewport">
<title>/home/travis/build/AliceO2Group/AliceO2/GPU/GPUTracking/Standalone</title>
<g id="clust1" class="cluster">
<title>clusterdir_77030b149987c946eb2e85728f65acc0</title>
<g id="a_clust1"><a xlink:href="dir_77030b149987c946eb2e85728f65acc0.html" target="_top" xlink:title="GPUTracking">
<polygon fill="#ddddee" stroke="#000000" points="80.3485,-56 80.3485,-287 267.3485,-287 267.3485,-56 80.3485,-56"/>
<text text-anchor="middle" x="173.8485" y="-275" font-family="Helvetica,sans-Serif" font-size="10.00" fill="#000000">GPUTracking</text>
</a>
</g>
</g>
<g id="clust2" class="cluster">
<title>clusterdir_289ec97c7adb65139f0eb8343d5d21ae</title>
<g id="a_clust2"><a xlink:href="dir_289ec97c7adb65139f0eb8343d5d21ae.html" target="_top">
<polygon fill="#eeeeff" stroke="#000000" points="88.3485,-64 88.3485,-260 259.3485,-260 259.3485,-64 88.3485,-64"/>
</a>
</g>
</g>
<!-- dir_289ec97c7adb65139f0eb8343d5d21ae -->
<g id="node1" class="node">
<title>dir_289ec97c7adb65139f0eb8343d5d21ae</title>
<text text-anchor="middle" x="215.3485" y="-231.5" font-family="Helvetica,sans-Serif" font-size="10.00" fill="#000000">Standalone</text>
</g>
<!-- dir_f75a703c2555322f99f9e21899df4536 -->
<g id="node2" class="node">
<title>dir_f75a703c2555322f99f9e21899df4536</title>
<g id="a_node2"><a xlink:href="dir_f75a703c2555322f99f9e21899df4536.html" target="_top" xlink:title="display">
<polygon fill="#ffffff" stroke="#000000" points="222.3485,-180 168.3485,-180 168.3485,-144 222.3485,-144 222.3485,-180"/>
<text text-anchor="middle" x="195.3485" y="-159.5" font-family="Helvetica,sans-Serif" font-size="10.00" fill="#000000">display</text>
</a>
</g>
</g>
<!-- dir_289ec97c7adb65139f0eb8343d5d21ae&#45;&gt;dir_f75a703c2555322f99f9e21899df4536 -->
<g id="edge10" class="edge">
<title>dir_289ec97c7adb65139f0eb8343d5d21ae&#45;&gt;dir_f75a703c2555322f99f9e21899df4536</title>
<path fill="none" stroke="#000000" d="M210.3016,-215.8314C208.1391,-208.0463 205.5632,-198.7729 203.1637,-190.1347"/>
<polygon fill="#000000" stroke="#000000" points="206.5121,-189.1117 200.4633,-180.4133 199.7675,-190.9852 206.5121,-189.1117"/>
<g id="a_edge10&#45;headlabel"><a xlink:href="dir_000635_000636.html" target="_top" xlink:title="1">
<text text-anchor="middle" x="210.2098" y="-189.3153" font-family="Helvetica,sans-Serif" font-size="10.00" fill="#000000">1</text>
</a>
</g>
</g>
<!-- dir_dc84902369092e5202e1cdf6db24d51d -->
<g id="node4" class="node">
<title>dir_dc84902369092e5202e1cdf6db24d51d</title>
<g id="a_node4"><a xlink:href="dir_dc84902369092e5202e1cdf6db24d51d.html" target="_top" xlink:title="qa">
<polygon fill="#ffffff" stroke="#000000" points="150.3485,-180 96.3485,-180 96.3485,-144 150.3485,-144 150.3485,-180"/>
<text text-anchor="middle" x="123.3485" y="-159.5" font-family="Helvetica,sans-Serif" font-size="10.00" fill="#000000">qa</text>
</a>
</g>
</g>
<!-- dir_289ec97c7adb65139f0eb8343d5d21ae&#45;&gt;dir_dc84902369092e5202e1cdf6db24d51d -->
<g id="edge8" class="edge">
<title>dir_289ec97c7adb65139f0eb8343d5d21ae&#45;&gt;dir_dc84902369092e5202e1cdf6db24d51d</title>
<path fill="none" stroke="#000000" d="M192.133,-215.8314C180.8014,-206.9632 167.0021,-196.1637 154.7458,-186.5718"/>
<polygon fill="#000000" stroke="#000000" points="156.5887,-183.5697 146.5565,-180.1628 152.2745,-189.0822 156.5887,-183.5697"/>
<g id="a_edge8&#45;headlabel"><a xlink:href="dir_000635_000638.html" target="_top" xlink:title="2">
<text text-anchor="middle" x="161.1693" y="-181.0491" font-family="Helvetica,sans-Serif" font-size="10.00" fill="#000000">2</text>
</a>
</g>
</g>
<!-- dir_ee87ad93049d1677c6ffb88a968be9d4 -->
<g id="node9" class="node">
<title>dir_ee87ad93049d1677c6ffb88a968be9d4</title>
<g id="a_node9"><a xlink:href="dir_ee87ad93049d1677c6ffb88a968be9d4.html" target="_top" xlink:title="TPCFastTransformation">
<polygon fill="none" stroke="#ff0000" points="593.3485,-108 465.3485,-108 465.3485,-72 593.3485,-72 593.3485,-108"/>
<text text-anchor="middle" x="529.3485" y="-87.5" font-family="Helvetica,sans-Serif" font-size="10.00" fill="#000000">TPCFastTransformation</text>
</a>
</g>
</g>
<!-- dir_289ec97c7adb65139f0eb8343d5d21ae&#45;&gt;dir_ee87ad93049d1677c6ffb88a968be9d4 -->
<g id="edge9" class="edge">
<title>dir_289ec97c7adb65139f0eb8343d5d21ae&#45;&gt;dir_ee87ad93049d1677c6ffb88a968be9d4</title>
<path fill="none" stroke="#000000" d="M251.0625,-217.6216C307.3267,-191.8189 416.7267,-141.6482 480.3124,-112.4879"/>
<polygon fill="#000000" stroke="#000000" points="482.0986,-115.5193 489.7293,-108.1693 479.1805,-109.1565 482.0986,-115.5193"/>
<g id="a_edge9&#45;headlabel"><a xlink:href="dir_000635_000642.html" target="_top" xlink:title="1">
<text text-anchor="middle" x="480.0147" y="-117.0985" font-family="Helvetica,sans-Serif" font-size="10.00" fill="#000000">1</text>
</a>
</g>
</g>
<!-- dir_e9bb66071ff20a94d206d862bf4c4a75 -->
<g id="node5" class="node">
<title>dir_e9bb66071ff20a94d206d862bf4c4a75</title>
<g id="a_node5"><a xlink:href="dir_e9bb66071ff20a94d206d862bf4c4a75.html" target="_top" xlink:title="utils">
<polygon fill="#ffffff" stroke="#000000" points="251.3485,-108 197.3485,-108 197.3485,-72 251.3485,-72 251.3485,-108"/>
<text text-anchor="middle" x="224.3485" y="-87.5" font-family="Helvetica,sans-Serif" font-size="10.00" fill="#000000">utils</text>
</a>
</g>
</g>
<!-- dir_f75a703c2555322f99f9e21899df4536&#45;&gt;dir_e9bb66071ff20a94d206d862bf4c4a75 -->
<g id="edge47" class="edge">
<title>dir_f75a703c2555322f99f9e21899df4536&#45;&gt;dir_e9bb66071ff20a94d206d862bf4c4a75</title>
<path fill="none" stroke="#000000" d="M202.6664,-143.8314C205.8361,-135.9617 209.6184,-126.5712 213.1298,-117.8533"/>
<polygon fill="#000000" stroke="#000000" points="216.4424,-118.9968 216.932,-108.4133 209.9493,-116.3815 216.4424,-118.9968"/>
<g id="a_edge47&#45;headlabel"><a xlink:href="dir_000636_000639.html" target="_top" xlink:title="1">
<text text-anchor="middle" x="217.7331" y="-120.8919" font-family="Helvetica,sans-Serif" font-size="10.00" fill="#000000">1</text>
</a>
</g>
</g>
<!-- dir_ba48ca66118492a4424f86e9da0f6902 -->
<g id="node8" class="node">
<title>dir_ba48ca66118492a4424f86e9da0f6902</title>
<g id="a_node8"><a xlink:href="dir_ba48ca66118492a4424f86e9da0f6902.html" target="_top" xlink:title="Common">
<polygon fill="none" stroke="#000000" points="429.8485,-36 368.8485,-36 368.8485,0 429.8485,0 429.8485,-36"/>
<text text-anchor="middle" x="399.3485" y="-15.5" font-family="Helvetica,sans-Serif" font-size="10.00" fill="#000000">Common</text>
</a>
</g>
</g>
<!-- dir_f75a703c2555322f99f9e21899df4536&#45;&gt;dir_ba48ca66118492a4424f86e9da0f6902 -->
<g id="edge46" class="edge">
<title>dir_f75a703c2555322f99f9e21899df4536&#45;&gt;dir_ba48ca66118492a4424f86e9da0f6902</title>
<path fill="none" stroke="#000000" d="M187.3187,-143.9185C178.3966,-120.7418 167.766,-80.6204 188.3485,-56 209.5988,-30.5807 303.3337,-22.1384 358.4626,-19.3539"/>
<polygon fill="#000000" stroke="#000000" points="358.7839,-22.8428 368.6109,-18.883 358.4593,-15.8504 358.7839,-22.8428"/>
<g id="a_edge46&#45;headlabel"><a xlink:href="dir_000636_000618.html" target="_top" xlink:title="6">
<text text-anchor="middle" x="355.3247" y="-23.3456" font-family="Helvetica,sans-Serif" font-size="10.00" fill="#000000">6</text>
</a>
</g>
</g>
<!-- dir_77357a4aa05272449297f3042e4af8aa -->
<g id="node3" class="node">
<title>dir_77357a4aa05272449297f3042e4af8aa</title>
<g id="a_node3"><a xlink:href="dir_77357a4aa05272449297f3042e4af8aa.html" target="_top" xlink:title="makefiles">
<polygon fill="#ffffff" stroke="#000000" points="161.8485,-252 96.8485,-252 96.8485,-216 161.8485,-216 161.8485,-252"/>
<text text-anchor="middle" x="129.3485" y="-231.5" font-family="Helvetica,sans-Serif" font-size="10.00" fill="#000000">makefiles</text>
</a>
</g>
</g>
<!-- dir_dc84902369092e5202e1cdf6db24d51d&#45;&gt;dir_e9bb66071ff20a94d206d862bf4c4a75 -->
<g id="edge14" class="edge">
<title>dir_dc84902369092e5202e1cdf6db24d51d&#45;&gt;dir_e9bb66071ff20a94d206d862bf4c4a75</title>
<path fill="none" stroke="#000000" d="M148.835,-143.8314C161.5143,-134.7927 177.0081,-123.7476 190.654,-114.0198"/>
<polygon fill="#000000" stroke="#000000" points="192.7589,-116.8176 198.87,-108.1628 188.6956,-111.1176 192.7589,-116.8176"/>
<g id="a_edge14&#45;headlabel"><a xlink:href="dir_000638_000639.html" target="_top" xlink:title="4">
<text text-anchor="middle" x="191.48" y="-118.7161" font-family="Helvetica,sans-Serif" font-size="10.00" fill="#000000">4</text>
</a>
</g>
</g>
<!-- dir_6d1e342cb6193ce32747aa0856bf9c1e -->
<g id="node6" class="node">
<title>dir_6d1e342cb6193ce32747aa0856bf9c1e</title>
<g id="a_node6"><a xlink:href="dir_6d1e342cb6193ce32747aa0856bf9c1e.html" target="_top" xlink:title="HLTHeaders">
<polygon fill="none" stroke="#000000" points="367.3485,-108 293.3485,-108 293.3485,-72 367.3485,-72 367.3485,-108"/>
<text text-anchor="middle" x="330.3485" y="-87.5" font-family="Helvetica,sans-Serif" font-size="10.00" fill="#000000">HLTHeaders</text>
</a>
</g>
</g>
<!-- dir_dc84902369092e5202e1cdf6db24d51d&#45;&gt;dir_6d1e342cb6193ce32747aa0856bf9c1e -->
<g id="edge11" class="edge">
<title>dir_dc84902369092e5202e1cdf6db24d51d&#45;&gt;dir_6d1e342cb6193ce32747aa0856bf9c1e</title>
<path fill="none" stroke="#000000" d="M150.6605,-147.7867C153.565,-146.4431 156.4987,-145.154 159.3485,-144 200.32,-127.4087 248.4452,-112.6104 283.1855,-102.7198"/>
<polygon fill="#000000" stroke="#000000" points="284.3861,-106.0179 293.0623,-99.9373 282.4879,-99.2802 284.3861,-106.0179"/>
<g id="a_edge11&#45;headlabel"><a xlink:href="dir_000638_000629.html" target="_top" xlink:title="2">
<text text-anchor="middle" x="281.6961" y="-107.2255" font-family="Helvetica,sans-Serif" font-size="10.00" fill="#000000">2</text>
</a>
</g>
</g>
<!-- dir_808d5540d0c117816a4e0e1b180c8334 -->
<g id="node7" class="node">
<title>dir_808d5540d0c117816a4e0e1b180c8334</title>
<g id="a_node7"><a xlink:href="dir_808d5540d0c117816a4e0e1b180c8334.html" target="_top" xlink:title="Merger">
<polygon fill="none" stroke="#000000" points="378.3485,-403 324.3485,-403 324.3485,-367 378.3485,-367 378.3485,-403"/>
<text text-anchor="middle" x="351.3485" y="-382.5" font-family="Helvetica,sans-Serif" font-size="10.00" fill="#000000">Merger</text>
</a>
</g>
</g>
<!-- dir_dc84902369092e5202e1cdf6db24d51d&#45;&gt;dir_808d5540d0c117816a4e0e1b180c8334 -->
<g id="edge13" class="edge">
<title>dir_dc84902369092e5202e1cdf6db24d51d&#45;&gt;dir_808d5540d0c117816a4e0e1b180c8334</title>
<path fill="none" stroke="#000000" d="M96.1364,-167.4497C70.7808,-174.1285 34.3996,-188.1773 17.3485,-216 -9.8429,-260.3687 -2.4138,-299.9539 39.3485,-331 82.3435,-362.9625 240.7349,-377.5576 313.8765,-382.703"/>
<polygon fill="#000000" stroke="#000000" points="313.8106,-386.2066 324.0255,-383.3945 314.2866,-379.2228 313.8106,-386.2066"/>
<g id="a_edge13&#45;headlabel"><a xlink:href="dir_000638_000632.html" target="_top" xlink:title="5">
<text text-anchor="middle" x="310.0313" y="-386.295" font-family="Helvetica,sans-Serif" font-size="10.00" fill="#000000">5</text>
</a>
</g>
</g>
<!-- dir_dc84902369092e5202e1cdf6db24d51d&#45;&gt;dir_ba48ca66118492a4424f86e9da0f6902 -->
<g id="edge12" class="edge">
<title>dir_dc84902369092e5202e1cdf6db24d51d&#45;&gt;dir_ba48ca66118492a4424f86e9da0f6902</title>
<path fill="none" stroke="#000000" d="M126.4027,-143.7567C131.4593,-119.6304 143.9821,-77.6461 172.3485,-56 200.9072,-34.2071 301.3347,-24.2812 358.584,-20.3032"/>
<polygon fill="#000000" stroke="#000000" points="358.9982,-23.7835 368.7442,-19.6282 358.5341,-16.7989 358.9982,-23.7835"/>
<g id="a_edge12&#45;headlabel"><a xlink:href="dir_000638_000618.html" target="_top" xlink:title="2">
<text text-anchor="middle" x="355.5997" y="-24.3548" font-family="Helvetica,sans-Serif" font-size="10.00" fill="#000000">2</text>
</a>
</g>
</g>
<!-- dir_442920581a03c66cf8c08ae559108050 -->
<g id="node10" class="node">
<title>dir_442920581a03c66cf8c08ae559108050</title>
<g id="a_node10"><a xlink:href="dir_442920581a03c66cf8c08ae559108050.html" target="_top" xlink:title="Base">
<polygon fill="none" stroke="#ff0000" points="313.3485,-331 259.3485,-331 259.3485,-295 313.3485,-295 313.3485,-331"/>
<text text-anchor="middle" x="286.3485" y="-310.5" font-family="Helvetica,sans-Serif" font-size="10.00" fill="#000000">Base</text>
</a>
</g>
</g>
<!-- dir_dc84902369092e5202e1cdf6db24d51d&#45;&gt;dir_442920581a03c66cf8c08ae559108050 -->
<g id="edge15" class="edge">
<title>dir_dc84902369092e5202e1cdf6db24d51d&#45;&gt;dir_442920581a03c66cf8c08ae559108050</title>
<path fill="none" stroke="#000000" d="M97.8433,-180.0373C86.8731,-189.3716 75.234,-201.7911 69.3485,-216 57.2727,-245.1535 48.4046,-263.3969 69.3485,-287 81.0488,-300.1859 190.1195,-307.9292 249.0237,-311.1831"/>
<polygon fill="#000000" stroke="#000000" points="248.8862,-314.6806 259.0592,-311.7208 249.2609,-307.6907 248.8862,-314.6806"/>
<g id="a_edge15&#45;headlabel"><a xlink:href="dir_000638_000619.html" target="_top" xlink:title="1">
<text text-anchor="middle" x="245.1449" y="-314.8236" font-family="Helvetica,sans-Serif" font-size="10.00" fill="#000000">1</text>
</a>
</g>
</g>
<!-- dir_b1dd2c3d7fcd0d0d24ad7c8634d4eb04 -->
<g id="node11" class="node">
<title>dir_b1dd2c3d7fcd0d0d24ad7c8634d4eb04</title>
<g id="a_node11"><a xlink:href="dir_b1dd2c3d7fcd0d0d24ad7c8634d4eb04.html" target="_top" xlink:title="Global">
<polygon fill="none" stroke="#000000" points="484.3485,-180 430.3485,-180 430.3485,-144 484.3485,-144 484.3485,-180"/>
<text text-anchor="middle" x="457.3485" y="-159.5" font-family="Helvetica,sans-Serif" font-size="10.00" fill="#000000">Global</text>
</a>
</g>
</g>
<!-- dir_dc84902369092e5202e1cdf6db24d51d&#45;&gt;dir_b1dd2c3d7fcd0d0d24ad7c8634d4eb04 -->
<g id="edge16" class="edge">
<title>dir_dc84902369092e5202e1cdf6db24d51d&#45;&gt;dir_b1dd2c3d7fcd0d0d24ad7c8634d4eb04</title>
<path fill="none" stroke="#000000" d="M140.4299,-180.2173C148.1947,-187.1981 157.9635,-194.3571 168.3485,-198 218.4656,-215.5801 356.8017,-214.3037 407.3485,-198 415.2221,-195.4604 422.902,-191.1693 429.7866,-186.4169"/>
<polygon fill="#000000" stroke="#000000" points="432.1242,-189.0393 438.0365,-180.2475 427.932,-183.4334 432.1242,-189.0393"/>
<g id="a_edge16&#45;headlabel"><a xlink:href="dir_000638_000628.html" target="_top" xlink:title="2">
<text text-anchor="middle" x="430.9458" y="-190.9658" font-family="Helvetica,sans-Serif" font-size="10.00" fill="#000000">2</text>
</a>
</g>
</g>
<!-- dir_b1a191f241d56beebc4ffdb42af892eb -->
<g id="node12" class="node">
<title>dir_b1a191f241d56beebc4ffdb42af892eb</title>
<g id="a_node12"><a xlink:href="dir_b1a191f241d56beebc4ffdb42af892eb.html" target="_top" xlink:title="SliceTracker">
<polygon fill="none" stroke="#000000" points="388.8485,-252 313.8485,-252 313.8485,-216 388.8485,-216 388.8485,-252"/>
<text text-anchor="middle" x="351.3485" y="-231.5" font-family="Helvetica,sans-Serif" font-size="10.00" fill="#000000">SliceTracker</text>
</a>
</g>
</g>
<!-- dir_dc84902369092e5202e1cdf6db24d51d&#45;&gt;dir_b1a191f241d56beebc4ffdb42af892eb -->
<g id="edge17" class="edge">
<title>dir_dc84902369092e5202e1cdf6db24d51d&#45;&gt;dir_b1a191f241d56beebc4ffdb42af892eb</title>
<path fill="none" stroke="#000000" d="M150.6236,-176.3066C153.5353,-177.632 156.4807,-178.8913 159.3485,-180 207.3313,-198.5505 264.2861,-213.7567 303.6389,-223.2526"/>
<polygon fill="#000000" stroke="#000000" points="302.9592,-226.6886 313.498,-225.601 304.5812,-219.8791 302.9592,-226.6886"/>
<g id="a_edge17&#45;headlabel"><a xlink:href="dir_000638_000634.html" target="_top" xlink:title="8">
<text text-anchor="middle" x="298.8045" y="-226.1177" font-family="Helvetica,sans-Serif" font-size="10.00" fill="#000000">8</text>
</a>
</g>
</g>
<!-- dir_808d5540d0c117816a4e0e1b180c8334&#45;&gt;dir_289ec97c7adb65139f0eb8343d5d21ae -->
<g id="edge2" class="edge">
<title>dir_808d5540d0c117816a4e0e1b180c8334&#45;&gt;dir_289ec97c7adb65139f0eb8343d5d21ae</title>
<path fill="none" stroke="#000000" d="M324.2254,-376.6601C301.599,-368.4163 269.9886,-353.7095 250.3485,-331 233.4172,-311.4228 224.4468,-283.0211 219.8456,-262.0059"/>
<polygon fill="#000000" stroke="#000000" points="223.2523,-261.1911 217.8703,-252.0651 216.3865,-262.5555 223.2523,-261.1911"/>
<g id="a_edge2&#45;headlabel"><a xlink:href="dir_000632_000635.html" target="_top" xlink:title="1">
<text text-anchor="middle" x="226.7376" y="-261.6635" font-family="Helvetica,sans-Serif" font-size="10.00" fill="#000000">1</text>
</a>
</g>
</g>
<!-- dir_808d5540d0c117816a4e0e1b180c8334&#45;&gt;dir_dc84902369092e5202e1cdf6db24d51d -->
<g id="edge3" class="edge">
<title>dir_808d5540d0c117816a4e0e1b180c8334&#45;&gt;dir_dc84902369092e5202e1cdf6db24d51d</title>
<path fill="none" stroke="#000000" d="M324.3357,-380.7937C254.2631,-369.2762 69.6519,-334.866 34.3485,-287 15.6181,-261.6046 18.869,-243.498 34.3485,-216 45.5733,-196.0601 67.4644,-182.6352 86.7258,-174.1584"/>
<polygon fill="#000000" stroke="#000000" points="88.272,-177.3073 96.1992,-170.278 85.6187,-170.8297 88.272,-177.3073"/>
<g id="a_edge3&#45;headlabel"><a xlink:href="dir_000632_000638.html" target="_top" xlink:title="1">
<text text-anchor="middle" x="86.0218" y="-178.7972" font-family="Helvetica,sans-Serif" font-size="10.00" fill="#000000">1</text>
</a>
</g>
</g>
<!-- dir_808d5540d0c117816a4e0e1b180c8334&#45;&gt;dir_ba48ca66118492a4424f86e9da0f6902 -->
<g id="edge1" class="edge">
<title>dir_808d5540d0c117816a4e0e1b180c8334&#45;&gt;dir_ba48ca66118492a4424f86e9da0f6902</title>
<path fill="none" stroke="#000000" d="M378.4733,-382.6031C446.9416,-374.9199 621.3485,-344.5034 621.3485,-234 621.3485,-234 621.3485,-234 621.3485,-162 621.3485,-114.1381 636.0616,-89.9734 602.3485,-56 580.151,-33.6312 492.7262,-24.0649 440.116,-20.2661"/>
<polygon fill="#000000" stroke="#000000" points="440.303,-16.7708 430.0877,-19.5812 439.826,-23.7546 440.303,-16.7708"/>
<g id="a_edge1&#45;headlabel"><a xlink:href="dir_000632_000618.html" target="_top" xlink:title="12">
<text text-anchor="middle" x="444.0827" y="-11.683" font-family="Helvetica,sans-Serif" font-size="10.00" fill="#000000">12</text>
</a>
</g>
</g>
<!-- dir_808d5540d0c117816a4e0e1b180c8334&#45;&gt;dir_ee87ad93049d1677c6ffb88a968be9d4 -->
<g id="edge4" class="edge">
<title>dir_808d5540d0c117816a4e0e1b180c8334&#45;&gt;dir_ee87ad93049d1677c6ffb88a968be9d4</title>
<path fill="none" stroke="#000000" d="M378.5783,-373.6819C399.3568,-364.2139 427.9555,-349.3235 449.3485,-331 468.1183,-314.9233 470.8132,-308.2987 483.3485,-287 509.6041,-242.3889 518.9119,-230.7009 529.3485,-180 533.5423,-159.6264 533.3744,-136.1043 532.247,-118.2177"/>
<polygon fill="#000000" stroke="#000000" points="535.7291,-117.8495 531.4749,-108.1463 528.7496,-118.3846 535.7291,-117.8495"/>
<g id="a_edge4&#45;headlabel"><a xlink:href="dir_000632_000642.html" target="_top" xlink:title="2">
<text text-anchor="middle" x="538.8348" y="-118.7166" font-family="Helvetica,sans-Serif" font-size="10.00" fill="#000000">2</text>
</a>
</g>
</g>
<!-- dir_808d5540d0c117816a4e0e1b180c8334&#45;&gt;dir_442920581a03c66cf8c08ae559108050 -->
<g id="edge5" class="edge">
<title>dir_808d5540d0c117816a4e0e1b180c8334&#45;&gt;dir_442920581a03c66cf8c08ae559108050</title>
<path fill="none" stroke="#000000" d="M328.9938,-366.8314C320.6145,-358.454 311.306,-348.3531 303.4572,-339.1749"/>
<polygon fill="#000000" stroke="#000000" points="306.0835,-336.8593 296.9955,-331.4133 300.7038,-341.338 306.0835,-336.8593"/>
<g id="a_edge5&#45;headlabel"><a xlink:href="dir_000632_000619.html" target="_top" xlink:title="17">
<text text-anchor="middle" x="310.5655" y="-335.3052" font-family="Helvetica,sans-Serif" font-size="10.00" fill="#000000">17</text>
</a>
</g>
</g>
<!-- dir_808d5540d0c117816a4e0e1b180c8334&#45;&gt;dir_b1dd2c3d7fcd0d0d24ad7c8634d4eb04 -->
<g id="edge6" class="edge">
<title>dir_808d5540d0c117816a4e0e1b180c8334&#45;&gt;dir_b1dd2c3d7fcd0d0d24ad7c8634d4eb04</title>
<path fill="none" stroke="#000000" d="M368.5444,-366.9507C388.2598,-349.2112 419.0837,-320.0498 434.3485,-287 448.5928,-256.1595 450.695,-216.6418 452.1716,-190.3815"/>
<polygon fill="#000000" stroke="#000000" points="455.6688,-190.532 452.7765,-180.3397 448.6815,-190.1111 455.6688,-190.532"/>
<g id="a_edge6&#45;headlabel"><a xlink:href="dir_000632_000628.html" target="_top" xlink:title="2">
<text text-anchor="middle" x="458.2869" y="-191.7908" font-family="Helvetica,sans-Serif" font-size="10.00" fill="#000000">2</text>
</a>
</g>
</g>
<!-- dir_808d5540d0c117816a4e0e1b180c8334&#45;&gt;dir_b1a191f241d56beebc4ffdb42af892eb -->
<g id="edge7" class="edge">
<title>dir_808d5540d0c117816a4e0e1b180c8334&#45;&gt;dir_b1a191f241d56beebc4ffdb42af892eb</title>
<path fill="none" stroke="#000000" d="M346.764,-366.7859C344.1831,-340.824 343.9091,-292.9387 345.9422,-262.3233"/>
<polygon fill="#000000" stroke="#000000" points="349.4369,-262.5291 346.7576,-252.2787 342.4599,-261.9627 349.4369,-262.5291"/>
<g id="a_edge7&#45;headlabel"><a xlink:href="dir_000632_000634.html" target="_top" xlink:title="17">
<text text-anchor="middle" x="351.9762" y="-263.8417" font-family="Helvetica,sans-Serif" font-size="10.00" fill="#000000">17</text>
</a>
</g>
</g>
<!-- dir_ee87ad93049d1677c6ffb88a968be9d4&#45;&gt;dir_ba48ca66118492a4424f86e9da0f6902 -->
<g id="edge18" class="edge">
<title>dir_ee87ad93049d1677c6ffb88a968be9d4&#45;&gt;dir_ba48ca66118492a4424f86e9da0f6902</title>
<path fill="none" stroke="#000000" d="M496.544,-71.8314C478.9618,-62.0936 457.1751,-50.0271 438.6876,-39.7878"/>
<polygon fill="#000000" stroke="#000000" points="440.3535,-36.7096 429.9098,-34.9263 436.962,-42.8331 440.3535,-36.7096"/>
<g id="a_edge18&#45;headlabel"><a xlink:href="dir_000642_000618.html" target="_top" xlink:title="24">
<text text-anchor="middle" x="444.8736" y="-33.4673" font-family="Helvetica,sans-Serif" font-size="10.00" fill="#000000">24</text>
</a>
</g>
</g>
<!-- dir_442920581a03c66cf8c08ae559108050&#45;&gt;dir_289ec97c7adb65139f0eb8343d5d21ae -->
<g id="edge22" class="edge">
<title>dir_442920581a03c66cf8c08ae559108050&#45;&gt;dir_289ec97c7adb65139f0eb8343d5d21ae</title>
<path fill="none" stroke="#000000" d="M269.8812,-294.6772C260.5616,-284.3076 248.7575,-271.1734 238.5167,-259.7787"/>
<polygon fill="#000000" stroke="#000000" points="241.0141,-257.3215 231.7264,-252.2234 235.8077,-262.0006 241.0141,-257.3215"/>
<g id="a_edge22&#45;headlabel"><a xlink:href="dir_000619_000635.html" target="_top" xlink:title="4">
<text text-anchor="middle" x="245.5286" y="-255.5971" font-family="Helvetica,sans-Serif" font-size="10.00" fill="#000000">4</text>
</a>
</g>
</g>
<!-- dir_442920581a03c66cf8c08ae559108050&#45;&gt;dir_f75a703c2555322f99f9e21899df4536 -->
<g id="edge28" class="edge">
<title>dir_442920581a03c66cf8c08ae559108050&#45;&gt;dir_f75a703c2555322f99f9e21899df4536</title>
<path fill="none" stroke="#000000" d="M259.0841,-311.3879C207.4271,-308.0539 99.4375,-299.6403 88.3485,-287 67.5385,-263.2787 71.8088,-242.8737 88.3485,-216 88.6133,-215.5697 127.9958,-195.758 158.9003,-180.257"/>
<polygon fill="#000000" stroke="#000000" points="160.796,-183.2219 168.1665,-175.611 157.6585,-176.9644 160.796,-183.2219"/>
<g id="a_edge28&#45;headlabel"><a xlink:href="dir_000619_000636.html" target="_top" xlink:title="1">
<text text-anchor="middle" x="158.8552" y="-184.8711" font-family="Helvetica,sans-Serif" font-size="10.00" fill="#000000">1</text>
</a>
</g>
</g>
<!-- dir_442920581a03c66cf8c08ae559108050&#45;&gt;dir_dc84902369092e5202e1cdf6db24d51d -->
<g id="edge23" class="edge">
<title>dir_442920581a03c66cf8c08ae559108050&#45;&gt;dir_dc84902369092e5202e1cdf6db24d51d</title>
<path fill="none" stroke="#000000" d="M259.1721,-311.9794C200.4589,-309.4951 65.9446,-302.1905 52.3485,-287 31.3034,-263.4871 38.3314,-244.2714 52.3485,-216 59.8537,-200.8625 73.8574,-188.8196 87.4573,-179.983"/>
<polygon fill="#000000" stroke="#000000" points="89.5306,-182.819 96.2638,-174.6389 85.899,-176.8347 89.5306,-182.819"/>
<g id="a_edge23&#45;headlabel"><a xlink:href="dir_000619_000638.html" target="_top" xlink:title="1">
<text text-anchor="middle" x="87.9305" y="-184.6111" font-family="Helvetica,sans-Serif" font-size="10.00" fill="#000000">1</text>
</a>
</g>
</g>
<!-- dir_442920581a03c66cf8c08ae559108050&#45;&gt;dir_e9bb66071ff20a94d206d862bf4c4a75 -->
<g id="edge24" class="edge">
<title>dir_442920581a03c66cf8c08ae559108050&#45;&gt;dir_e9bb66071ff20a94d206d862bf4c4a75</title>
<path fill="none" stroke="#000000" d="M258.9656,-312.2034C196.7919,-310.1126 49.1895,-303.451 34.3485,-287 -11.0535,-236.6727 33.6306,-185.3348 87.3485,-144 117.1634,-121.058 157.9678,-106.6487 187.2771,-98.5429"/>
<polygon fill="#000000" stroke="#000000" points="188.3567,-101.8777 197.1279,-95.935 186.5652,-95.1108 188.3567,-101.8777"/>
<g id="a_edge24&#45;headlabel"><a xlink:href="dir_000619_000639.html" target="_top" xlink:title="2">
<text text-anchor="middle" x="185.6084" y="-103.0423" font-family="Helvetica,sans-Serif" font-size="10.00" fill="#000000">2</text>
</a>
</g>
</g>
<!-- dir_442920581a03c66cf8c08ae559108050&#45;&gt;dir_6d1e342cb6193ce32747aa0856bf9c1e -->
<g id="edge19" class="edge">
<title>dir_442920581a03c66cf8c08ae559108050&#45;&gt;dir_6d1e342cb6193ce32747aa0856bf9c1e</title>
<path fill="none" stroke="#000000" d="M289.9071,-294.7621C293.7148,-275.2639 299.9382,-243.4431 305.3485,-216 311.9536,-182.4958 319.6015,-143.9924 324.6816,-118.4574"/>
<polygon fill="#000000" stroke="#000000" points="328.1718,-118.851 326.691,-108.3601 321.3064,-117.4846 328.1718,-118.851"/>
<g id="a_edge19&#45;headlabel"><a xlink:href="dir_000619_000629.html" target="_top" xlink:title="5">
<text text-anchor="middle" x="330.2549" y="-120.4306" font-family="Helvetica,sans-Serif" font-size="10.00" fill="#000000">5</text>
</a>
</g>
</g>
<!-- dir_442920581a03c66cf8c08ae559108050&#45;&gt;dir_808d5540d0c117816a4e0e1b180c8334 -->
<g id="edge20" class="edge">
<title>dir_442920581a03c66cf8c08ae559108050&#45;&gt;dir_808d5540d0c117816a4e0e1b180c8334</title>
<path fill="none" stroke="#000000" d="M308.9476,-331.4133C317.3447,-339.8239 326.6478,-349.9323 334.468,-359.0923"/>
<polygon fill="#000000" stroke="#000000" points="331.8157,-361.3768 340.8986,-366.8314 337.1997,-356.9032 331.8157,-361.3768"/>
<g id="a_edge20&#45;headlabel"><a xlink:href="dir_000619_000632.html" target="_top" xlink:title="10">
<text text-anchor="middle" x="327.3347" y="-357.9266" font-family="Helvetica,sans-Serif" font-size="10.00" fill="#000000">10</text>
</a>
</g>
</g>
<!-- dir_442920581a03c66cf8c08ae559108050&#45;&gt;dir_ba48ca66118492a4424f86e9da0f6902 -->
<g id="edge21" class="edge">
<title>dir_442920581a03c66cf8c08ae559108050&#45;&gt;dir_ba48ca66118492a4424f86e9da0f6902</title>
<path fill="none" stroke="#000000" d="M258.9561,-312.4567C192.663,-310.8592 27.8085,-305.0897 11.3485,-287 -9.8886,-263.6603 4.9778,-246.9058 11.3485,-216 27.1285,-139.4466 20.8597,-101.5917 84.3485,-56 106.2135,-40.2986 278.3444,-26.42 358.5164,-20.735"/>
<polygon fill="#000000" stroke="#000000" points="359.0059,-24.2094 368.737,-20.0194 358.5169,-17.2265 359.0059,-24.2094"/>
<g id="a_edge21&#45;headlabel"><a xlink:href="dir_000619_000618.html" target="_top" xlink:title="27">
<text text-anchor="middle" x="355.6183" y="-24.7927" font-family="Helvetica,sans-Serif" font-size="10.00" fill="#000000">27</text>
</a>
</g>
</g>
<!-- dir_442920581a03c66cf8c08ae559108050&#45;&gt;dir_ee87ad93049d1677c6ffb88a968be9d4 -->
<g id="edge25" class="edge">
<title>dir_442920581a03c66cf8c08ae559108050&#45;&gt;dir_ee87ad93049d1677c6ffb88a968be9d4</title>
<path fill="none" stroke="#000000" d="M313.4231,-311.5253C352.8039,-308.8877 423.3717,-302.1513 443.3485,-287 498.0113,-245.541 518.5152,-162.0325 525.7311,-118.2496"/>
<polygon fill="#000000" stroke="#000000" points="529.2044,-118.6899 527.2567,-108.2757 522.2849,-117.6315 529.2044,-118.6899"/>
<g id="a_edge25&#45;headlabel"><a xlink:href="dir_000619_000642.html" target="_top" xlink:title="2">
<text text-anchor="middle" x="531.4676" y="-120.1725" font-family="Helvetica,sans-Serif" font-size="10.00" fill="#000000">2</text>
</a>
</g>
</g>
<!-- dir_442920581a03c66cf8c08ae559108050&#45;&gt;dir_b1dd2c3d7fcd0d0d24ad7c8634d4eb04 -->
<g id="edge26" class="edge">
<title>dir_442920581a03c66cf8c08ae559108050&#45;&gt;dir_b1dd2c3d7fcd0d0d24ad7c8634d4eb04</title>
<path fill="none" stroke="#000000" d="M313.5607,-308.3739C340.0259,-303.9551 377.5033,-296.5582 389.3485,-287 419.6202,-262.5729 435.2111,-218.9648 444.8606,-190.2589"/>
<polygon fill="#000000" stroke="#000000" points="448.2989,-191.0144 448.1631,-180.4205 441.6628,-188.7869 448.2989,-191.0144"/>
<g id="a_edge26&#45;headlabel"><a xlink:href="dir_000619_000628.html" target="_top" xlink:title="4">
<text text-anchor="middle" x="449.8468" y="-192.8257" font-family="Helvetica,sans-Serif" font-size="10.00" fill="#000000">4</text>
</a>
</g>
</g>
<!-- dir_442920581a03c66cf8c08ae559108050&#45;&gt;dir_b1a191f241d56beebc4ffdb42af892eb -->
<g id="edge27" class="edge">
<title>dir_442920581a03c66cf8c08ae559108050&#45;&gt;dir_b1a191f241d56beebc4ffdb42af892eb</title>
<path fill="none" stroke="#000000" d="M295.6234,-294.6772C303.1243,-284.3076 313.7398,-271.1734 323.7639,-259.7787"/>
<polygon fill="#000000" stroke="#000000" points="326.4756,-261.9978 330.5637,-252.2234 321.2725,-257.315 326.4756,-261.9978"/>
<g id="a_edge27&#45;headlabel"><a xlink:href="dir_000619_000634.html" target="_top" xlink:title="31">
<text text-anchor="middle" x="326.1814" y="-264.069" font-family="Helvetica,sans-Serif" font-size="10.00" fill="#000000">31</text>
</a>
</g>
</g>
<!-- dir_b1dd2c3d7fcd0d0d24ad7c8634d4eb04&#45;&gt;dir_289ec97c7adb65139f0eb8343d5d21ae -->
<g id="edge32" class="edge">
<title>dir_b1dd2c3d7fcd0d0d24ad7c8634d4eb04&#45;&gt;dir_289ec97c7adb65139f0eb8343d5d21ae</title>
<path fill="none" stroke="#000000" d="M430.1279,-170.0987C389.0667,-182.3152 310.7958,-205.6024 260.9355,-220.4369"/>
<polygon fill="#000000" stroke="#000000" points="259.6431,-217.1697 251.0564,-223.3762 261.6393,-223.8791 259.6431,-217.1697"/>
<g id="a_edge32&#45;headlabel"><a xlink:href="dir_000628_000635.html" target="_top" xlink:title="3">
<text text-anchor="middle" x="262.2788" y="-210.9234" font-family="Helvetica,sans-Serif" font-size="10.00" fill="#000000">3</text>
</a>
</g>
</g>
<!-- dir_b1dd2c3d7fcd0d0d24ad7c8634d4eb04&#45;&gt;dir_f75a703c2555322f99f9e21899df4536 -->
<g id="edge38" class="edge">
<title>dir_b1dd2c3d7fcd0d0d24ad7c8634d4eb04&#45;&gt;dir_f75a703c2555322f99f9e21899df4536</title>
<path fill="none" stroke="#000000" d="M430.2823,-162C364.3938,-162 298.5052,-162 232.6167,-162"/>
<polygon fill="#000000" stroke="#000000" points="232.4696,-158.5001 222.4696,-162 232.4695,-165.5001 232.4696,-158.5001"/>
<g id="a_edge38&#45;headlabel"><a xlink:href="dir_000628_000636.html" target="_top" xlink:title="1">
<text text-anchor="middle" x="236.0642" y="-153.1607" font-family="Helvetica,sans-Serif" font-size="10.00" fill="#000000">1</text>
</a>
</g>
</g>
<!-- dir_b1dd2c3d7fcd0d0d24ad7c8634d4eb04&#45;&gt;dir_dc84902369092e5202e1cdf6db24d51d -->
<g id="edge33" class="edge">
<title>dir_b1dd2c3d7fcd0d0d24ad7c8634d4eb04&#45;&gt;dir_dc84902369092e5202e1cdf6db24d51d</title>
<path fill="none" stroke="#000000" d="M438.0365,-180.2475C429.3528,-187.2335 418.5465,-194.3881 407.3485,-198 356.8017,-214.3037 218.4656,-215.5801 168.3485,-198 161.2088,-195.4955 154.3604,-191.3291 148.2542,-186.7013"/>
<polygon fill="#000000" stroke="#000000" points="150.3629,-183.9032 140.4299,-180.2173 145.8963,-189.293 150.3629,-183.9032"/>
<g id="a_edge33&#45;headlabel"><a xlink:href="dir_000628_000638.html" target="_top" xlink:title="1">
<text text-anchor="middle" x="154.9423" y="-181.5107" font-family="Helvetica,sans-Serif" font-size="10.00" fill="#000000">1</text>
</a>
</g>
</g>
<!-- dir_b1dd2c3d7fcd0d0d24ad7c8634d4eb04&#45;&gt;dir_e9bb66071ff20a94d206d862bf4c4a75 -->
<g id="edge34" class="edge">
<title>dir_b1dd2c3d7fcd0d0d24ad7c8634d4eb04&#45;&gt;dir_e9bb66071ff20a94d206d862bf4c4a75</title>
<path fill="none" stroke="#000000" d="M430.1644,-153.5998C388.3368,-140.6745 308.1205,-115.8866 261.1367,-101.368"/>
<polygon fill="#000000" stroke="#000000" points="261.947,-97.9552 251.3594,-98.3467 259.8803,-104.6432 261.947,-97.9552"/>
<g id="a_edge34&#45;headlabel"><a xlink:href="dir_000628_000639.html" target="_top" xlink:title="1">
<text text-anchor="middle" x="266.2196" y="-93.8037" font-family="Helvetica,sans-Serif" font-size="10.00" fill="#000000">1</text>
</a>
</g>
</g>
<!-- dir_b1dd2c3d7fcd0d0d24ad7c8634d4eb04&#45;&gt;dir_6d1e342cb6193ce32747aa0856bf9c1e -->
<g id="edge29" class="edge">
<title>dir_b1dd2c3d7fcd0d0d24ad7c8634d4eb04&#45;&gt;dir_6d1e342cb6193ce32747aa0856bf9c1e</title>
<path fill="none" stroke="#000000" d="M430.1038,-146.5542C412.9896,-136.8517 390.5916,-124.1536 371.3559,-113.2483"/>
<polygon fill="#000000" stroke="#000000" points="372.9137,-110.1081 362.4882,-108.221 369.4613,-116.1976 372.9137,-110.1081"/>
<g id="a_edge29&#45;headlabel"><a xlink:href="dir_000628_000629.html" target="_top" xlink:title="4">
<text text-anchor="middle" x="377.441" y="-106.911" font-family="Helvetica,sans-Serif" font-size="10.00" fill="#000000">4</text>
</a>
</g>
</g>
<!-- dir_b1dd2c3d7fcd0d0d24ad7c8634d4eb04&#45;&gt;dir_808d5540d0c117816a4e0e1b180c8334 -->
<g id="edge31" class="edge">
<title>dir_b1dd2c3d7fcd0d0d24ad7c8634d4eb04&#45;&gt;dir_808d5540d0c117816a4e0e1b180c8334</title>
<path fill="none" stroke="#000000" d="M464.8271,-180.3397C469.0438,-205.5878 468.5554,-251.9103 452.3485,-287 437.9689,-318.1331 409.7826,-345.8159 386.6765,-363.7506"/>
<polygon fill="#000000" stroke="#000000" points="384.3499,-361.1197 378.4286,-369.9054 388.5363,-366.7298 384.3499,-361.1197"/>
<g id="a_edge31&#45;headlabel"><a xlink:href="dir_000628_000632.html" target="_top" xlink:title="3">
<text text-anchor="middle" x="385.5327" y="-354.1944" font-family="Helvetica,sans-Serif" font-size="10.00" fill="#000000">3</text>
</a>
</g>
</g>
<!-- dir_b1dd2c3d7fcd0d0d24ad7c8634d4eb04&#45;&gt;dir_ba48ca66118492a4424f86e9da0f6902 -->
<g id="edge30" class="edge">
<title>dir_b1dd2c3d7fcd0d0d24ad7c8634d4eb04&#45;&gt;dir_ba48ca66118492a4424f86e9da0f6902</title>
<path fill="none" stroke="#000000" d="M450.0027,-143.7623C440.0228,-118.9846 422.0939,-74.4714 410.4627,-45.5939"/>
<polygon fill="#000000" stroke="#000000" points="413.6173,-44.0578 406.6346,-36.0896 407.1242,-46.6731 413.6173,-44.0578"/>
<g id="a_edge30&#45;headlabel"><a xlink:href="dir_000628_000618.html" target="_top" xlink:title="3">
<text text-anchor="middle" x="417.5939" y="-43.8314" font-family="Helvetica,sans-Serif" font-size="10.00" fill="#000000">3</text>
</a>
</g>
</g>
<!-- dir_b1dd2c3d7fcd0d0d24ad7c8634d4eb04&#45;&gt;dir_ee87ad93049d1677c6ffb88a968be9d4 -->
<g id="edge35" class="edge">
<title>dir_b1dd2c3d7fcd0d0d24ad7c8634d4eb04&#45;&gt;dir_ee87ad93049d1677c6ffb88a968be9d4</title>
<path fill="none" stroke="#000000" d="M475.5171,-143.8314C484.0637,-135.2848 494.4041,-124.9443 503.7286,-115.6198"/>
<polygon fill="#000000" stroke="#000000" points="506.339,-117.9592 510.9352,-108.4133 501.3892,-113.0095 506.339,-117.9592"/>
<g id="a_edge35&#45;headlabel"><a xlink:href="dir_000628_000642.html" target="_top" xlink:title="3">
<text text-anchor="middle" x="505.8049" y="-120.0087" font-family="Helvetica,sans-Serif" font-size="10.00" fill="#000000">3</text>
</a>
</g>
</g>
<!-- dir_b1dd2c3d7fcd0d0d24ad7c8634d4eb04&#45;&gt;dir_442920581a03c66cf8c08ae559108050 -->
<g id="edge36" class="edge">
<title>dir_b1dd2c3d7fcd0d0d24ad7c8634d4eb04&#45;&gt;dir_442920581a03c66cf8c08ae559108050</title>
<path fill="none" stroke="#000000" d="M459.6951,-180.4205C456.819,-207.9648 441.3378,-259.5731 407.3485,-287 394.9617,-296.9952 354.5453,-304.627 323.6519,-308.9612"/>
<polygon fill="#000000" stroke="#000000" points="323.0435,-305.5113 313.5943,-310.3033 323.9695,-312.4498 323.0435,-305.5113"/>
<g id="a_edge36&#45;headlabel"><a xlink:href="dir_000628_000619.html" target="_top" xlink:title="13">
<text text-anchor="middle" x="326.231" y="-299.7216" font-family="Helvetica,sans-Serif" font-size="10.00" fill="#000000">13</text>
</a>
</g>
</g>
<!-- dir_b1dd2c3d7fcd0d0d24ad7c8634d4eb04&#45;&gt;dir_b1a191f241d56beebc4ffdb42af892eb -->
<g id="edge37" class="edge">
<title>dir_b1dd2c3d7fcd0d0d24ad7c8634d4eb04&#45;&gt;dir_b1a191f241d56beebc4ffdb42af892eb</title>
<path fill="none" stroke="#000000" d="M436.5606,-180.1628C424.0188,-189.2859 407.7228,-200.4541 392.7054,-210.2489"/>
<polygon fill="#000000" stroke="#000000" points="390.5562,-207.4702 384.0491,-215.8314 394.35,-213.3529 390.5562,-207.4702"/>
<g id="a_edge37&#45;headlabel"><a xlink:href="dir_000628_000634.html" target="_top" xlink:title="9">
<text text-anchor="middle" x="392.0382" y="-200.6359" font-family="Helvetica,sans-Serif" font-size="10.00" fill="#000000">9</text>
</a>
</g>
</g>
<!-- dir_b1a191f241d56beebc4ffdb42af892eb&#45;&gt;dir_289ec97c7adb65139f0eb8343d5d21ae -->
<g id="edge42" class="edge">
<title>dir_b1a191f241d56beebc4ffdb42af892eb&#45;&gt;dir_289ec97c7adb65139f0eb8343d5d21ae</title>
<path fill="none" stroke="#000000" d="M313.6961,-234C296.21,-234 278.7239,-234 261.2378,-234"/>
<polygon fill="#000000" stroke="#000000" points="260.9422,-230.5001 250.9422,-234 260.9422,-237.5001 260.9422,-230.5001"/>
<g id="a_edge42&#45;headlabel"><a xlink:href="dir_000634_000635.html" target="_top" xlink:title="1">
<text text-anchor="middle" x="264.5368" y="-225.1607" font-family="Helvetica,sans-Serif" font-size="10.00" fill="#000000">1</text>
</a>
</g>
</g>
<!-- dir_b1a191f241d56beebc4ffdb42af892eb&#45;&gt;dir_e9bb66071ff20a94d206d862bf4c4a75 -->
<g id="edge43" class="edge">
<title>dir_b1a191f241d56beebc4ffdb42af892eb&#45;&gt;dir_e9bb66071ff20a94d206d862bf4c4a75</title>
<path fill="none" stroke="#000000" d="M335.2638,-215.7623C312.9342,-190.4436 272.4304,-144.5182 247.0365,-115.7251"/>
<polygon fill="#000000" stroke="#000000" points="249.542,-113.2745 240.3025,-108.0896 244.292,-117.9046 249.542,-113.2745"/>
<g id="a_edge43&#45;headlabel"><a xlink:href="dir_000634_000639.html" target="_top" xlink:title="1">
<text text-anchor="middle" x="254.049" y="-111.5923" font-family="Helvetica,sans-Serif" font-size="10.00" fill="#000000">1</text>
</a>
</g>
</g>
<!-- dir_b1a191f241d56beebc4ffdb42af892eb&#45;&gt;dir_6d1e342cb6193ce32747aa0856bf9c1e -->
<g id="edge39" class="edge">
<title>dir_b1a191f241d56beebc4ffdb42af892eb&#45;&gt;dir_6d1e342cb6193ce32747aa0856bf9c1e</title>
<path fill="none" stroke="#000000" d="M349.4436,-215.6832C347.4705,-197.4654 344.1472,-168.7387 340.3485,-144 339.0664,-135.651 337.4741,-126.6134 335.9398,-118.3637"/>
<polygon fill="#000000" stroke="#000000" points="339.3607,-117.6173 334.0551,-108.4467 332.4838,-118.9243 339.3607,-117.6173"/>
<g id="a_edge39&#45;headlabel"><a xlink:href="dir_000634_000629.html" target="_top" xlink:title="2">
<text text-anchor="middle" x="342.8211" y="-118.1186" font-family="Helvetica,sans-Serif" font-size="10.00" fill="#000000">2</text>
</a>
</g>
</g>
<!-- dir_b1a191f241d56beebc4ffdb42af892eb&#45;&gt;dir_808d5540d0c117816a4e0e1b180c8334 -->
<g id="edge40" class="edge">
<title>dir_b1a191f241d56beebc4ffdb42af892eb&#45;&gt;dir_808d5540d0c117816a4e0e1b180c8334</title>
<path fill="none" stroke="#000000" d="M355.9394,-252.2787C358.5164,-278.2769 358.7865,-326.166 356.7496,-356.7528"/>
<polygon fill="#000000" stroke="#000000" points="353.2559,-356.5348 355.9329,-366.7859 360.2328,-357.1028 353.2559,-356.5348"/>
<g id="a_edge40&#45;headlabel"><a xlink:href="dir_000634_000632.html" target="_top" xlink:title="1">
<text text-anchor="middle" x="350.7175" y="-350.2218" font-family="Helvetica,sans-Serif" font-size="10.00" fill="#000000">1</text>
</a>
</g>
</g>
<!-- dir_b1a191f241d56beebc4ffdb42af892eb&#45;&gt;dir_ba48ca66118492a4424f86e9da0f6902 -->
<g id="edge41" class="edge">
<title>dir_b1a191f241d56beebc4ffdb42af892eb&#45;&gt;dir_ba48ca66118492a4424f86e9da0f6902</title>
<path fill="none" stroke="#000000" d="M355.3584,-215.9555C363.723,-178.3144 383.0847,-91.1867 393.0986,-46.1246"/>
<polygon fill="#000000" stroke="#000000" points="396.5635,-46.6662 395.3162,-36.1451 389.7302,-45.1477 396.5635,-46.6662"/>
<g id="a_edge41&#45;headlabel"><a xlink:href="dir_000634_000618.html" target="_top" xlink:title="14">
<text text-anchor="middle" x="398.5555" y="-48.2911" font-family="Helvetica,sans-Serif" font-size="10.00" fill="#000000">14</text>
</a>
</g>
</g>
<!-- dir_b1a191f241d56beebc4ffdb42af892eb&#45;&gt;dir_442920581a03c66cf8c08ae559108050 -->
<g id="edge44" class="edge">
<title>dir_b1a191f241d56beebc4ffdb42af892eb&#45;&gt;dir_442920581a03c66cf8c08ae559108050</title>
<path fill="none" stroke="#000000" d="M342.1454,-252.2234C334.6644,-262.5753 324.057,-275.7062 314.0291,-287.1119"/>
<polygon fill="#000000" stroke="#000000" points="311.3098,-284.9015 307.2249,-294.6772 316.5144,-289.5826 311.3098,-284.9015"/>
<g id="a_edge44&#45;headlabel"><a xlink:href="dir_000634_000619.html" target="_top" xlink:title="27">
<text text-anchor="middle" x="311.6025" y="-277.8302" font-family="Helvetica,sans-Serif" font-size="10.00" fill="#000000">27</text>
</a>
</g>
</g>
<!-- dir_b1a191f241d56beebc4ffdb42af892eb&#45;&gt;dir_b1dd2c3d7fcd0d0d24ad7c8634d4eb04 -->
<g id="edge45" class="edge">
<title>dir_b1a191f241d56beebc4ffdb42af892eb&#45;&gt;dir_b1dd2c3d7fcd0d0d24ad7c8634d4eb04</title>
<path fill="none" stroke="#000000" d="M372.1443,-215.8314C386.158,-205.6379 404.8562,-192.8928 421.2209,-182.3629"/>
<polygon fill="#000000" stroke="#000000" points="423.4616,-185.0861 430.0277,-176.7712 419.7095,-179.1767 423.4616,-185.0861"/>
<g id="a_edge45&#45;headlabel"><a xlink:href="dir_000634_000628.html" target="_top" xlink:title="1">
<text text-anchor="middle" x="421.9489" y="-186.9098" font-family="Helvetica,sans-Serif" font-size="10.00" fill="#000000">1</text>
</a>
</g>
</g>
</g>
</svg>
        <g id="navigator" transform="translate(0 0)" fill="#404254">
                <rect fill="#f2f5e9" fill-opacity="0.5" stroke="#606060" stroke-width=".5" x="0" y="0" width="60" height="60"/>
                <use id="zoomplus" xlink:href="#zoomPlus" x="17" y="9" onmousedown="handleZoom(evt,'in')"/>
                <use id="zoomminus" xlink:href="#zoomMin" x="42" y="9" onmousedown="handleZoom(evt,'out')"/>
                <use id="reset" xlink:href="#resetDef" x="30" y="36" onmousedown="handleReset()"/>
                <g id="arrowUp" xlink:href="#dirArrow" transform="translate(30 24)" onmousedown="handlePan(0,-1)">
                  <use xlink:href="#rim" fill="#404040">
                        <set attributeName="fill" to="#808080" begin="arrowUp.mouseover" end="arrowUp.mouseout"/>
                  </use>
                  <path fill="none" stroke="white" stroke-width="1.5" d="M0,-3.0v7 M-2.5,-0.5L0,-3.0L2.5,-0.5"/>
                </g>
                <g id="arrowRight" xlink:href="#dirArrow" transform="rotate(90) translate(36 -43)" onmousedown="handlePan(1,0)">
                  <use xlink:href="#rim" fill="#404040">
                        <set attributeName="fill" to="#808080" begin="arrowRight.mouseover" end="arrowRight.mouseout"/>
                  </use>
                  <path fill="none" stroke="white" stroke-width="1.5" d="M0,-3.0v7 M-2.5,-0.5L0,-3.0L2.5,-0.5"/>
                </g>
                <g id="arrowDown" xlink:href="#dirArrow" transform="rotate(180) translate(-30 -48)" onmousedown="handlePan(0,1)">
                  <use xlink:href="#rim" fill="#404040">
                        <set attributeName="fill" to="#808080" begin="arrowDown.mouseover" end="arrowDown.mouseout"/>
                  </use>
                  <path fill="none" stroke="white" stroke-width="1.5" d="M0,-3.0v7 M-2.5,-0.5L0,-3.0L2.5,-0.5"/>
                </g>
                <g id="arrowLeft" xlink:href="#dirArrow" transform="rotate(270) translate(-36 17)" onmousedown="handlePan(-1,0)">
                  <use xlink:href="#rim" fill="#404040">
                        <set attributeName="fill" to="#808080" begin="arrowLeft.mouseover" end="arrowLeft.mouseout"/>
                  </use>
                  <path fill="none" stroke="white" stroke-width="1.5" d="M0,-3.0v7 M-2.5,-0.5L0,-3.0L2.5,-0.5"/>
                </g>
        </g>
        <svg viewBox="0 0 15 15" width="100%" height="30px" preserveAspectRatio="xMaxYMin meet">
         <g id="arrow_out" transform="scale(0.3 0.3)">
          <a xlink:href="dir_289ec97c7adb65139f0eb8343d5d21ae_dep_org.svg" target="_base">
           <rect id="button" ry="5" rx="5" y="6" x="6" height="38" width="38"
                fill="#f2f5e9" fill-opacity="0.5" stroke="#606060" stroke-width="1.0"/>
           <path id="arrow"
             d="M 11.500037,31.436501 C 11.940474,20.09759 22.043105,11.32322 32.158766,21.979434 L 37.068811,17.246167 C 37.068811,17.246167 37.088388,32 37.088388,32 L 22.160133,31.978069 C 22.160133,31.978069 26.997745,27.140456 26.997745,27.140456 C 18.528582,18.264221 13.291696,25.230495 11.500037,31.436501 z"
             style="fill:#404040;"/>
          </a>
         </g>
        </svg>
</svg>
