<?xml version="1.0" encoding="UTF-8" standalone="no"?>
<!DOCTYPE svg PUBLIC "-//W3C//DTD SVG 1.1//EN"
 "http://www.w3.org/Graphics/SVG/1.1/DTD/svg11.dtd">
<!-- Generated by graphviz version 2.40.1 (20161225.0304)
 -->
<!-- Title: /home/travis/build/AliceO2Group/AliceO2/Detectors/TOF/workflow/include Pages: 1 -->
<svg width="252pt" height="231pt"
 viewBox="0.00 0.00 252.00 231.00" xmlns="http://www.w3.org/2000/svg" xmlns:xlink="http://www.w3.org/1999/xlink">
<g id="graph0" class="graph" transform="scale(1 1) rotate(0) translate(4 227)">
<title>/home/travis/build/AliceO2Group/AliceO2/Detectors/TOF/workflow/include</title>
<g id="clust1" class="cluster">
<title>clusterdir_f8afc936feb89e961bf89d3429577266</title>
<g id="a_clust1"><a xlink:href="dir_f8afc936feb89e961bf89d3429577266.html" target="_top" xlink:title="workflow">
<polygon fill="#ddddee" stroke="#000000" points="52,-128 52,-215 236,-215 236,-128 52,-128"/>
<text text-anchor="middle" x="144" y="-203" font-family="Helvetica,sans-Serif" font-size="10.00" fill="#000000">workflow</text>
</a>
</g>
</g>
<g id="clust2" class="cluster">
<title>clusterdir_05a16b4aafcf565bf27c80a83f092bb1</title>
<g id="a_clust2"><a xlink:href="dir_05a16b4aafcf565bf27c80a83f092bb1.html" target="_top">
<polygon fill="#eeeeff" stroke="#000000" points="60,-136 60,-188 228,-188 228,-136 60,-136"/>
</a>
</g>
</g>
<!-- dir_05a16b4aafcf565bf27c80a83f092bb1 -->
<g id="node1" class="node">
<title>dir_05a16b4aafcf565bf27c80a83f092bb1</title>
<text text-anchor="middle" x="193" y="-159.5" font-family="Helvetica,sans-Serif" font-size="10.00" fill="#000000">include</text>
</g>
<!-- dir_3c44706bcef2979a55d645036e4a2cd7 -->
<g id="node2" class="node">
<title>dir_3c44706bcef2979a55d645036e4a2cd7</title>
<g id="a_node2"><a xlink:href="dir_3c44706bcef2979a55d645036e4a2cd7.html" target="_top" xlink:title="TOFWorkflow">
<polygon fill="#ffffff" stroke="#000000" points="148,-180 68,-180 68,-144 148,-144 148,-180"/>
<text text-anchor="middle" x="108" y="-159.5" font-family="Helvetica,sans-Serif" font-size="10.00" fill="#000000">TOFWorkflow</text>
</a>
</g>
</g>
<!-- dir_0189f3ad6abecd72f822a0c3914f12b2 -->
<g id="node3" class="node">
<title>dir_0189f3ad6abecd72f822a0c3914f12b2</title>
<g id="a_node3"><a xlink:href="dir_0189f3ad6abecd72f822a0c3914f12b2.html" target="_top" xlink:title="base">
<polygon fill="none" stroke="#ff0000" points="54,-108 0,-108 0,-72 54,-72 54,-108"/>
<text text-anchor="middle" x="27" y="-87.5" font-family="Helvetica,sans-Serif" font-size="10.00" fill="#000000">base</text>
</a>
</g>
</g>
<!-- dir_3c44706bcef2979a55d645036e4a2cd7&#45;&gt;dir_0189f3ad6abecd72f822a0c3914f12b2 -->
<g id="edge1" class="edge">
<title>dir_3c44706bcef2979a55d645036e4a2cd7&#45;&gt;dir_0189f3ad6abecd72f822a0c3914f12b2</title>
<path fill="none" stroke="#000000" d="M87.5603,-143.8314C77.6795,-135.0485 65.6676,-124.3712 54.955,-114.8489"/>
<polygon fill="#000000" stroke="#000000" points="57.2326,-112.1906 47.4332,-108.1628 52.582,-117.4224 57.2326,-112.1906"/>
<g id="a_edge1&#45;headlabel"><a xlink:href="dir_000390_000126.html" target="_top" xlink:title="1">
<text text-anchor="middle" x="61.8055" y="-109.9566" font-family="Helvetica,sans-Serif" font-size="10.00" fill="#000000">1</text>
</a>
</g>
</g>
<!-- dir_bcbb2cf9a3d3d83e5515c82071a07177 -->
<g id="node4" class="node">
<title>dir_bcbb2cf9a3d3d83e5515c82071a07177</title>
<g id="a_node4"><a xlink:href="dir_bcbb2cf9a3d3d83e5515c82071a07177.html" target="_top" xlink:title="Framework">
<polygon fill="none" stroke="#ff0000" points="143.5,-108 72.5,-108 72.5,-72 143.5,-72 143.5,-108"/>
<text text-anchor="middle" x="108" y="-87.5" font-family="Helvetica,sans-Serif" font-size="10.00" fill="#000000">Framework</text>
</a>
</g>
</g>
<!-- dir_3c44706bcef2979a55d645036e4a2cd7&#45;&gt;dir_bcbb2cf9a3d3d83e5515c82071a07177 -->
<g id="edge2" class="edge">
<title>dir_3c44706bcef2979a55d645036e4a2cd7&#45;&gt;dir_bcbb2cf9a3d3d83e5515c82071a07177</title>
<path fill="none" stroke="#000000" d="M108,-143.8314C108,-136.131 108,-126.9743 108,-118.4166"/>
<polygon fill="#000000" stroke="#000000" points="111.5001,-118.4132 108,-108.4133 104.5001,-118.4133 111.5001,-118.4132"/>
<g id="a_edge2&#45;headlabel"><a xlink:href="dir_000390_000036.html" target="_top" xlink:title="7">
<text text-anchor="middle" x="114.3393" y="-119.5079" font-family="Helvetica,sans-Serif" font-size="10.00" fill="#000000">7</text>
</a>
</g>
</g>
<!-- dir_2171f7ec022c5423887b07c69b2f5b48 -->
<g id="node5" class="node">
<title>dir_2171f7ec022c5423887b07c69b2f5b48</title>
<g id="a_node5"><a xlink:href="dir_2171f7ec022c5423887b07c69b2f5b48.html" target="_top" xlink:title="DataFormats">
<polygon fill="none" stroke="#ff0000" points="148,-36 68,-36 68,0 148,0 148,-36"/>
<text text-anchor="middle" x="108" y="-15.5" font-family="Helvetica,sans-Serif" font-size="10.00" fill="#000000">DataFormats</text>
</a>
</g>
</g>
<!-- dir_3c44706bcef2979a55d645036e4a2cd7&#45;&gt;dir_2171f7ec022c5423887b07c69b2f5b48 -->
<g id="edge3" class="edge">
<title>dir_3c44706bcef2979a55d645036e4a2cd7&#45;&gt;dir_2171f7ec022c5423887b07c69b2f5b48</title>
<path fill="none" stroke="#000000" d="M128.4026,-143.5625C137.4941,-133.9675 147.2162,-121.4441 152,-108 157.3638,-92.9258 157.3638,-87.0742 152,-72 148.4122,-61.9169 142.0465,-52.3517 135.2524,-44.1515"/>
<polygon fill="#000000" stroke="#000000" points="137.6596,-41.591 128.4026,-36.4375 132.4253,-46.2389 137.6596,-41.591"/>
<g id="a_edge3&#45;headlabel"><a xlink:href="dir_000390_000060.html" target="_top" xlink:title="5">
<text text-anchor="middle" x="142.1694" y="-39.8936" font-family="Helvetica,sans-Serif" font-size="10.00" fill="#000000">5</text>
</a>
</g>
</g>
<!-- dir_bcbb2cf9a3d3d83e5515c82071a07177&#45;&gt;dir_2171f7ec022c5423887b07c69b2f5b48 -->
<g id="edge4" class="edge">
<title>dir_bcbb2cf9a3d3d83e5515c82071a07177&#45;&gt;dir_2171f7ec022c5423887b07c69b2f5b48</title>
<path fill="none" stroke="#000000" d="M102.0476,-71.8314C101.2972,-64.131 101.0763,-54.9743 101.3849,-46.4166"/>
<polygon fill="#000000" stroke="#000000" points="104.8792,-46.6161 102.024,-36.4133 97.8935,-46.1697 104.8792,-46.6161"/>
<g id="a_edge4&#45;headlabel"><a xlink:href="dir_000036_000060.html" target="_top" xlink:title="68">
<text text-anchor="middle" x="107.4836" y="-47.8844" font-family="Helvetica,sans-Serif" font-size="10.00" fill="#000000">68</text>
</a>
</g>
</g>
<!-- dir_2171f7ec022c5423887b07c69b2f5b48&#45;&gt;dir_bcbb2cf9a3d3d83e5515c82071a07177 -->
<g id="edge5" class="edge">
<title>dir_2171f7ec022c5423887b07c69b2f5b48&#45;&gt;dir_bcbb2cf9a3d3d83e5515c82071a07177</title>
<path fill="none" stroke="#000000" d="M113.976,-36.4133C114.7071,-44.0593 114.9203,-53.1084 114.6155,-61.5726"/>
<polygon fill="#000000" stroke="#000000" points="111.1048,-61.6264 113.9524,-71.8314 118.0902,-62.078 111.1048,-61.6264"/>
<g id="a_edge5&#45;headlabel"><a xlink:href="dir_000060_000036.html" target="_top" xlink:title="7">
<text text-anchor="middle" x="108.5032" y="-55.3562" font-family="Helvetica,sans-Serif" font-size="10.00" fill="#000000">7</text>
</a>
</g>
</g>
</g>
</svg>
