<?xml version="1.0" encoding="UTF-8" standalone="no"?>
<!DOCTYPE svg PUBLIC "-//W3C//DTD SVG 1.1//EN"
 "http://www.w3.org/Graphics/SVG/1.1/DTD/svg11.dtd">
<!-- Generated by graphviz version 2.40.1 (20161225.0304)
 -->
<!-- Title: /home/travis/build/AliceO2Group/AliceO2/Detectors/TOF/base Pages: 1 -->
<svg width="308pt" height="231pt"
 viewBox="0.00 0.00 308.00 231.00" xmlns="http://www.w3.org/2000/svg" xmlns:xlink="http://www.w3.org/1999/xlink">
<g id="graph0" class="graph" transform="scale(1 1) rotate(0) translate(4 227)">
<title>/home/travis/build/AliceO2Group/AliceO2/Detectors/TOF/base</title>
<g id="clust1" class="cluster">
<title>clusterdir_577c839d346a264df4e9e588ca2a45dd</title>
<g id="a_clust1"><a xlink:href="dir_577c839d346a264df4e9e588ca2a45dd.html" target="_top" xlink:title="TOF">
<polygon fill="#ddddee" stroke="#000000" points="8,-56 8,-215 238,-215 238,-56 8,-56"/>
<text text-anchor="middle" x="123" y="-203" font-family="Helvetica,sans-Serif" font-size="10.00" fill="#000000">TOF</text>
</a>
</g>
</g>
<g id="clust2" class="cluster">
<title>clusterdir_0189f3ad6abecd72f822a0c3914f12b2</title>
<g id="a_clust2"><a xlink:href="dir_0189f3ad6abecd72f822a0c3914f12b2.html" target="_top">
<polygon fill="#eeeeff" stroke="#000000" points="16,-64 16,-188 230,-188 230,-64 16,-64"/>
</a>
</g>
</g>
<!-- dir_0189f3ad6abecd72f822a0c3914f12b2 -->
<g id="node1" class="node">
<title>dir_0189f3ad6abecd72f822a0c3914f12b2</title>
<text text-anchor="middle" x="195" y="-159.5" font-family="Helvetica,sans-Serif" font-size="10.00" fill="#000000">base</text>
</g>
<!-- dir_d753b02bfa7fb123a627ed157eb63f80 -->
<g id="node2" class="node">
<title>dir_d753b02bfa7fb123a627ed157eb63f80</title>
<g id="a_node2"><a xlink:href="dir_d753b02bfa7fb123a627ed157eb63f80.html" target="_top" xlink:title="include">
<polygon fill="#ffffff" stroke="#ff0000" points="150,-108 96,-108 96,-72 150,-72 150,-108"/>
<text text-anchor="middle" x="123" y="-87.5" font-family="Helvetica,sans-Serif" font-size="10.00" fill="#000000">include</text>
</a>
</g>
</g>
<!-- dir_4ab6b4cc6a7edbff49100e9123df213f -->
<g id="node5" class="node">
<title>dir_4ab6b4cc6a7edbff49100e9123df213f</title>
<g id="a_node5"><a xlink:href="dir_4ab6b4cc6a7edbff49100e9123df213f.html" target="_top" xlink:title="Common">
<polygon fill="none" stroke="#ff0000" points="228.5,-36 167.5,-36 167.5,0 228.5,0 228.5,-36"/>
<text text-anchor="middle" x="198" y="-15.5" font-family="Helvetica,sans-Serif" font-size="10.00" fill="#000000">Common</text>
</a>
</g>
</g>
<!-- dir_d753b02bfa7fb123a627ed157eb63f80&#45;&gt;dir_4ab6b4cc6a7edbff49100e9123df213f -->
<g id="edge1" class="edge">
<title>dir_d753b02bfa7fb123a627ed157eb63f80&#45;&gt;dir_4ab6b4cc6a7edbff49100e9123df213f</title>
<path fill="none" stroke="#000000" d="M141.9257,-71.8314C150.9857,-63.1337 161.9809,-52.5783 171.8265,-43.1265"/>
<polygon fill="#000000" stroke="#000000" points="174.2904,-45.613 179.0804,-36.1628 169.4426,-40.5633 174.2904,-45.613"/>
<g id="a_edge1&#45;headlabel"><a xlink:href="dir_000127_000018.html" target="_top" xlink:title="1">
<text text-anchor="middle" x="173.6636" y="-47.6506" font-family="Helvetica,sans-Serif" font-size="10.00" fill="#000000">1</text>
</a>
</g>
</g>
<!-- dir_00bec16f3b227e6f7befd3dbd7e61e41 -->
<g id="node3" class="node">
<title>dir_00bec16f3b227e6f7befd3dbd7e61e41</title>
<g id="a_node3"><a xlink:href="dir_00bec16f3b227e6f7befd3dbd7e61e41.html" target="_top" xlink:title="src">
<polygon fill="#ffffff" stroke="#000000" points="150,-180 96,-180 96,-144 150,-144 150,-180"/>
<text text-anchor="middle" x="123" y="-159.5" font-family="Helvetica,sans-Serif" font-size="10.00" fill="#000000">src</text>
</a>
</g>
</g>
<!-- dir_00bec16f3b227e6f7befd3dbd7e61e41&#45;&gt;dir_d753b02bfa7fb123a627ed157eb63f80 -->
<g id="edge3" class="edge">
<title>dir_00bec16f3b227e6f7befd3dbd7e61e41&#45;&gt;dir_d753b02bfa7fb123a627ed157eb63f80</title>
<path fill="none" stroke="#000000" d="M123,-143.8314C123,-136.131 123,-126.9743 123,-118.4166"/>
<polygon fill="#000000" stroke="#000000" points="126.5001,-118.4132 123,-108.4133 119.5001,-118.4133 126.5001,-118.4132"/>
<g id="a_edge3&#45;headlabel"><a xlink:href="dir_000168_000127.html" target="_top" xlink:title="4">
<text text-anchor="middle" x="129.3393" y="-119.5079" font-family="Helvetica,sans-Serif" font-size="10.00" fill="#000000">4</text>
</a>
</g>
</g>
<!-- dir_37c90836491b695b472bf98d1be8336b -->
<g id="node6" class="node">
<title>dir_37c90836491b695b472bf98d1be8336b</title>
<g id="a_node6"><a xlink:href="dir_37c90836491b695b472bf98d1be8336b.html" target="_top" xlink:title="Base">
<polygon fill="none" stroke="#ff0000" points="300,-108 246,-108 246,-72 300,-72 300,-108"/>
<text text-anchor="middle" x="273" y="-87.5" font-family="Helvetica,sans-Serif" font-size="10.00" fill="#000000">Base</text>
</a>
</g>
</g>
<!-- dir_00bec16f3b227e6f7befd3dbd7e61e41&#45;&gt;dir_37c90836491b695b472bf98d1be8336b -->
<g id="edge4" class="edge">
<title>dir_00bec16f3b227e6f7befd3dbd7e61e41&#45;&gt;dir_37c90836491b695b472bf98d1be8336b</title>
<path fill="none" stroke="#000000" d="M150.0963,-148.3747C153.096,-146.8893 156.1099,-145.4068 159,-144 184.8442,-131.4197 214.1537,-117.5449 236.5818,-107.0097"/>
<polygon fill="#000000" stroke="#000000" points="238.1753,-110.1282 245.7424,-102.7126 235.2025,-103.7908 238.1753,-110.1282"/>
<g id="a_edge4&#45;headlabel"><a xlink:href="dir_000168_000254.html" target="_top" xlink:title="1">
<text text-anchor="middle" x="236.1268" y="-111.7252" font-family="Helvetica,sans-Serif" font-size="10.00" fill="#000000">1</text>
</a>
</g>
</g>
<!-- dir_156b2aa516253f699541d7d72182a8c1 -->
<g id="node4" class="node">
<title>dir_156b2aa516253f699541d7d72182a8c1</title>
<g id="a_node4"><a xlink:href="dir_156b2aa516253f699541d7d72182a8c1.html" target="_top" xlink:title="test">
<polygon fill="#ffffff" stroke="#000000" points="78,-180 24,-180 24,-144 78,-144 78,-180"/>
<text text-anchor="middle" x="51" y="-159.5" font-family="Helvetica,sans-Serif" font-size="10.00" fill="#000000">test</text>
</a>
</g>
</g>
<!-- dir_156b2aa516253f699541d7d72182a8c1&#45;&gt;dir_d753b02bfa7fb123a627ed157eb63f80 -->
<g id="edge5" class="edge">
<title>dir_156b2aa516253f699541d7d72182a8c1&#45;&gt;dir_d753b02bfa7fb123a627ed157eb63f80</title>
<path fill="none" stroke="#000000" d="M69.1686,-143.8314C77.7152,-135.2848 88.0557,-124.9443 97.3802,-115.6198"/>
<polygon fill="#000000" stroke="#000000" points="99.9905,-117.9592 104.5867,-108.4133 95.0408,-113.0095 99.9905,-117.9592"/>
<g id="a_edge5&#45;headlabel"><a xlink:href="dir_000520_000127.html" target="_top" xlink:title="1">
<text text-anchor="middle" x="99.4564" y="-120.0087" font-family="Helvetica,sans-Serif" font-size="10.00" fill="#000000">1</text>
</a>
</g>
</g>
<!-- dir_37c90836491b695b472bf98d1be8336b&#45;&gt;dir_4ab6b4cc6a7edbff49100e9123df213f -->
<g id="edge2" class="edge">
<title>dir_37c90836491b695b472bf98d1be8336b&#45;&gt;dir_4ab6b4cc6a7edbff49100e9123df213f</title>
<path fill="none" stroke="#000000" d="M254.0743,-71.8314C245.0143,-63.1337 234.0191,-52.5783 224.1735,-43.1265"/>
<polygon fill="#000000" stroke="#000000" points="226.5574,-40.5633 216.9196,-36.1628 221.7096,-45.613 226.5574,-40.5633"/>
<g id="a_edge2&#45;headlabel"><a xlink:href="dir_000254_000018.html" target="_top" xlink:title="16">
<text text-anchor="middle" x="231.1167" y="-38.5045" font-family="Helvetica,sans-Serif" font-size="10.00" fill="#000000">16</text>
</a>
</g>
</g>
</g>
</svg>
