<?xml version="1.0" encoding="UTF-8" standalone="no"?>
<!DOCTYPE svg PUBLIC "-//W3C//DTD SVG 1.1//EN"
 "http://www.w3.org/Graphics/SVG/1.1/DTD/svg11.dtd">
<!-- Generated by graphviz version 2.40.1 (20161225.0304)
 -->
<!-- Title: /home/travis/build/AliceO2Group/AliceO2/Detectors/ITSMFT/common/simulation Pages: 1 -->
<svg width="412pt" height="447pt"
 viewBox="0.00 0.00 412.00 447.00" xmlns="http://www.w3.org/2000/svg" xmlns:xlink="http://www.w3.org/1999/xlink">
<g id="graph0" class="graph" transform="scale(1 1) rotate(0) translate(4 443)">
<title>/home/travis/build/AliceO2Group/AliceO2/Detectors/ITSMFT/common/simulation</title>
<g id="clust1" class="cluster">
<title>clusterdir_85bf31a2e8d306e7598ffcb73f8df6bf</title>
<g id="a_clust1"><a xlink:href="dir_85bf31a2e8d306e7598ffcb73f8df6bf.html" target="_top" xlink:title="common">
<polygon fill="#ddddee" stroke="#000000" points="43,-272 43,-431 287,-431 287,-272 43,-272"/>
<text text-anchor="middle" x="165" y="-419" font-family="Helvetica,sans-Serif" font-size="10.00" fill="#000000">common</text>
</a>
</g>
</g>
<g id="clust2" class="cluster">
<title>clusterdir_948e043a2a9c0d8c3d26178da976c005</title>
<g id="a_clust2"><a xlink:href="dir_948e043a2a9c0d8c3d26178da976c005.html" target="_top">
<polygon fill="#eeeeff" stroke="#000000" points="51,-280 51,-404 279,-404 279,-280 51,-280"/>
</a>
</g>
</g>
<!-- dir_948e043a2a9c0d8c3d26178da976c005 -->
<g id="node1" class="node">
<title>dir_948e043a2a9c0d8c3d26178da976c005</title>
<text text-anchor="middle" x="237" y="-375.5" font-family="Helvetica,sans-Serif" font-size="10.00" fill="#000000">simulation</text>
</g>
<!-- dir_aece0de4a924a7db153b75165d0988be -->
<g id="node2" class="node">
<title>dir_aece0de4a924a7db153b75165d0988be</title>
<g id="a_node2"><a xlink:href="dir_aece0de4a924a7db153b75165d0988be.html" target="_top" xlink:title="include">
<polygon fill="#ffffff" stroke="#ff0000" points="196,-324 142,-324 142,-288 196,-288 196,-324"/>
<text text-anchor="middle" x="169" y="-303.5" font-family="Helvetica,sans-Serif" font-size="10.00" fill="#000000">include</text>
</a>
</g>
</g>
<!-- dir_2174d8cbbd82d5c404dd04814f845a3a -->
<g id="node5" class="node">
<title>dir_2174d8cbbd82d5c404dd04814f845a3a</title>
<g id="a_node5"><a xlink:href="dir_2174d8cbbd82d5c404dd04814f845a3a.html" target="_top" xlink:title="reconstruction">
<polygon fill="none" stroke="#ff0000" points="338,-252 252,-252 252,-216 338,-216 338,-252"/>
<text text-anchor="middle" x="295" y="-231.5" font-family="Helvetica,sans-Serif" font-size="10.00" fill="#000000">reconstruction</text>
</a>
</g>
</g>
<!-- dir_aece0de4a924a7db153b75165d0988be&#45;&gt;dir_2174d8cbbd82d5c404dd04814f845a3a -->
<g id="edge11" class="edge">
<title>dir_aece0de4a924a7db153b75165d0988be&#45;&gt;dir_2174d8cbbd82d5c404dd04814f845a3a</title>
<path fill="none" stroke="#000000" d="M196.0302,-290.5542C213.0096,-280.8517 235.2312,-268.1536 254.3155,-257.2483"/>
<polygon fill="#000000" stroke="#000000" points="256.1673,-260.2213 263.1133,-252.221 252.6943,-254.1436 256.1673,-260.2213"/>
<g id="a_edge11&#45;headlabel"><a xlink:href="dir_000047_000420.html" target="_top" xlink:title="4">
<text text-anchor="middle" x="254.455" y="-261.9698" font-family="Helvetica,sans-Serif" font-size="10.00" fill="#000000">4</text>
</a>
</g>
</g>
<!-- dir_4ab6b4cc6a7edbff49100e9123df213f -->
<g id="node6" class="node">
<title>dir_4ab6b4cc6a7edbff49100e9123df213f</title>
<g id="a_node6"><a xlink:href="dir_4ab6b4cc6a7edbff49100e9123df213f.html" target="_top" xlink:title="Common">
<polygon fill="none" stroke="#ff0000" points="157.5,-180 96.5,-180 96.5,-144 157.5,-144 157.5,-180"/>
<text text-anchor="middle" x="127" y="-159.5" font-family="Helvetica,sans-Serif" font-size="10.00" fill="#000000">Common</text>
</a>
</g>
</g>
<!-- dir_aece0de4a924a7db153b75165d0988be&#45;&gt;dir_4ab6b4cc6a7edbff49100e9123df213f -->
<g id="edge12" class="edge">
<title>dir_aece0de4a924a7db153b75165d0988be&#45;&gt;dir_4ab6b4cc6a7edbff49100e9123df213f</title>
<path fill="none" stroke="#000000" d="M153.3676,-287.802C145.8022,-277.8907 137.419,-265.0165 133,-252 126.2564,-232.1363 124.9273,-208.4177 125.1928,-190.3175"/>
<polygon fill="#000000" stroke="#000000" points="128.6974,-190.2264 125.5171,-180.1202 121.7009,-190.0039 128.6974,-190.2264"/>
<g id="a_edge12&#45;headlabel"><a xlink:href="dir_000047_000018.html" target="_top" xlink:title="3">
<text text-anchor="middle" x="131.4211" y="-191.4094" font-family="Helvetica,sans-Serif" font-size="10.00" fill="#000000">3</text>
</a>
</g>
</g>
<!-- dir_7c9998090bca7c4aa89c05dd66fe73f5 -->
<g id="node8" class="node">
<title>dir_7c9998090bca7c4aa89c05dd66fe73f5</title>
<g id="a_node8"><a xlink:href="dir_7c9998090bca7c4aa89c05dd66fe73f5.html" target="_top" xlink:title="base">
<polygon fill="none" stroke="#ff0000" points="280,-36 226,-36 226,0 280,0 280,-36"/>
<text text-anchor="middle" x="253" y="-15.5" font-family="Helvetica,sans-Serif" font-size="10.00" fill="#000000">base</text>
</a>
</g>
</g>
<!-- dir_aece0de4a924a7db153b75165d0988be&#45;&gt;dir_7c9998090bca7c4aa89c05dd66fe73f5 -->
<g id="edge13" class="edge">
<title>dir_aece0de4a924a7db153b75165d0988be&#45;&gt;dir_7c9998090bca7c4aa89c05dd66fe73f5</title>
<path fill="none" stroke="#000000" d="M196.1777,-301.7549C241.397,-294.0757 328.9173,-276.3823 347,-252 396.4298,-185.35 321.1406,-89.1244 278.7143,-43.6513"/>
<polygon fill="#000000" stroke="#000000" points="281.138,-41.1209 271.7115,-36.2844 276.0645,-45.9437 281.138,-41.1209"/>
<g id="a_edge13&#45;headlabel"><a xlink:href="dir_000047_000412.html" target="_top" xlink:title="1">
<text text-anchor="middle" x="285.6724" y="-39.2701" font-family="Helvetica,sans-Serif" font-size="10.00" fill="#000000">1</text>
</a>
</g>
</g>
<!-- dir_26637d1bd82229bc9ed97f7e706be743 -->
<g id="node9" class="node">
<title>dir_26637d1bd82229bc9ed97f7e706be743</title>
<g id="a_node9"><a xlink:href="dir_26637d1bd82229bc9ed97f7e706be743.html" target="_top" xlink:title="Raw">
<polygon fill="none" stroke="#ff0000" points="196,-252 142,-252 142,-216 196,-216 196,-252"/>
<text text-anchor="middle" x="169" y="-231.5" font-family="Helvetica,sans-Serif" font-size="10.00" fill="#000000">Raw</text>
</a>
</g>
</g>
<!-- dir_aece0de4a924a7db153b75165d0988be&#45;&gt;dir_26637d1bd82229bc9ed97f7e706be743 -->
<g id="edge14" class="edge">
<title>dir_aece0de4a924a7db153b75165d0988be&#45;&gt;dir_26637d1bd82229bc9ed97f7e706be743</title>
<path fill="none" stroke="#000000" d="M169,-287.8314C169,-280.131 169,-270.9743 169,-262.4166"/>
<polygon fill="#000000" stroke="#000000" points="172.5001,-262.4132 169,-252.4133 165.5001,-262.4133 172.5001,-262.4132"/>
<g id="a_edge14&#45;headlabel"><a xlink:href="dir_000047_000505.html" target="_top" xlink:title="1">
<text text-anchor="middle" x="175.3393" y="-263.5079" font-family="Helvetica,sans-Serif" font-size="10.00" fill="#000000">1</text>
</a>
</g>
</g>
<!-- dir_2171f7ec022c5423887b07c69b2f5b48 -->
<g id="node10" class="node">
<title>dir_2171f7ec022c5423887b07c69b2f5b48</title>
<g id="a_node10"><a xlink:href="dir_2171f7ec022c5423887b07c69b2f5b48.html" target="_top" xlink:title="DataFormats">
<polygon fill="none" stroke="#ff0000" points="249,-108 169,-108 169,-72 249,-72 249,-108"/>
<text text-anchor="middle" x="209" y="-87.5" font-family="Helvetica,sans-Serif" font-size="10.00" fill="#000000">DataFormats</text>
</a>
</g>
</g>
<!-- dir_aece0de4a924a7db153b75165d0988be&#45;&gt;dir_2171f7ec022c5423887b07c69b2f5b48 -->
<g id="edge15" class="edge">
<title>dir_aece0de4a924a7db153b75165d0988be&#45;&gt;dir_2171f7ec022c5423887b07c69b2f5b48</title>
<path fill="none" stroke="#000000" d="M184.8573,-287.8757C192.4842,-277.9846 200.8545,-265.1062 205,-252 219.2544,-206.934 216.5219,-151.2458 212.9593,-118.2878"/>
<polygon fill="#000000" stroke="#000000" points="216.3963,-117.5484 211.7427,-108.0303 209.445,-118.373 216.3963,-117.5484"/>
<g id="a_edge15&#45;headlabel"><a xlink:href="dir_000047_000060.html" target="_top" xlink:title="7">
<text text-anchor="middle" x="219.6391" y="-118.2837" font-family="Helvetica,sans-Serif" font-size="10.00" fill="#000000">7</text>
</a>
</g>
</g>
<!-- dir_36f9785b6e7879c93ce113c7573e321a -->
<g id="node3" class="node">
<title>dir_36f9785b6e7879c93ce113c7573e321a</title>
<g id="a_node3"><a xlink:href="dir_36f9785b6e7879c93ce113c7573e321a.html" target="_top" xlink:title="src">
<polygon fill="#ffffff" stroke="#000000" points="113,-396 59,-396 59,-360 113,-360 113,-396"/>
<text text-anchor="middle" x="86" y="-375.5" font-family="Helvetica,sans-Serif" font-size="10.00" fill="#000000">src</text>
</a>
</g>
</g>
<!-- dir_36f9785b6e7879c93ce113c7573e321a&#45;&gt;dir_aece0de4a924a7db153b75165d0988be -->
<g id="edge5" class="edge">
<title>dir_36f9785b6e7879c93ce113c7573e321a&#45;&gt;dir_aece0de4a924a7db153b75165d0988be</title>
<path fill="none" stroke="#000000" d="M106.9444,-359.8314C117.0691,-351.0485 129.3777,-340.3712 140.3548,-330.8489"/>
<polygon fill="#000000" stroke="#000000" points="142.8019,-333.3595 148.0623,-324.1628 138.2149,-328.0718 142.8019,-333.3595"/>
<g id="a_edge5&#45;headlabel"><a xlink:href="dir_000050_000047.html" target="_top" xlink:title="11">
<text text-anchor="middle" x="141.9471" y="-335.3597" font-family="Helvetica,sans-Serif" font-size="10.00" fill="#000000">11</text>
</a>
</g>
</g>
<!-- dir_36f9785b6e7879c93ce113c7573e321a&#45;&gt;dir_4ab6b4cc6a7edbff49100e9123df213f -->
<g id="edge4" class="edge">
<title>dir_36f9785b6e7879c93ce113c7573e321a&#45;&gt;dir_4ab6b4cc6a7edbff49100e9123df213f</title>
<path fill="none" stroke="#000000" d="M89.4251,-359.9555C96.57,-322.3144 113.1081,-235.1867 121.6615,-190.1246"/>
<polygon fill="#000000" stroke="#000000" points="125.1295,-190.6224 123.5558,-180.1451 118.2523,-189.3169 125.1295,-190.6224"/>
<g id="a_edge4&#45;headlabel"><a xlink:href="dir_000050_000018.html" target="_top" xlink:title="2">
<text text-anchor="middle" x="127.2487" y="-192.1834" font-family="Helvetica,sans-Serif" font-size="10.00" fill="#000000">2</text>
</a>
</g>
</g>
<!-- dir_37c90836491b695b472bf98d1be8336b -->
<g id="node7" class="node">
<title>dir_37c90836491b695b472bf98d1be8336b</title>
<g id="a_node7"><a xlink:href="dir_37c90836491b695b472bf98d1be8336b.html" target="_top" xlink:title="Base">
<polygon fill="none" stroke="#ff0000" points="191,-36 137,-36 137,0 191,0 191,-36"/>
<text text-anchor="middle" x="164" y="-15.5" font-family="Helvetica,sans-Serif" font-size="10.00" fill="#000000">Base</text>
</a>
</g>
</g>
<!-- dir_36f9785b6e7879c93ce113c7573e321a&#45;&gt;dir_37c90836491b695b472bf98d1be8336b -->
<g id="edge6" class="edge">
<title>dir_36f9785b6e7879c93ce113c7573e321a&#45;&gt;dir_37c90836491b695b472bf98d1be8336b</title>
<path fill="none" stroke="#000000" d="M66.0537,-359.6161C40.6484,-334.0935 0,-285.2496 0,-234 0,-234 0,-234 0,-162 0,-94.6487 79.0683,-51.4025 127.4025,-31.2583"/>
<polygon fill="#000000" stroke="#000000" points="128.9517,-34.4075 136.9187,-27.4235 126.3353,-27.9149 128.9517,-34.4075"/>
<g id="a_edge6&#45;headlabel"><a xlink:href="dir_000050_000254.html" target="_top" xlink:title="2">
<text text-anchor="middle" x="126.6789" y="-35.8845" font-family="Helvetica,sans-Serif" font-size="10.00" fill="#000000">2</text>
</a>
</g>
</g>
<!-- dir_36f9785b6e7879c93ce113c7573e321a&#45;&gt;dir_7c9998090bca7c4aa89c05dd66fe73f5 -->
<g id="edge7" class="edge">
<title>dir_36f9785b6e7879c93ce113c7573e321a&#45;&gt;dir_7c9998090bca7c4aa89c05dd66fe73f5</title>
<path fill="none" stroke="#000000" d="M113.05,-364.2777C116.0585,-362.8104 119.087,-361.3588 122,-360 246.4068,-301.9708 404,-371.2751 404,-234 404,-234 404,-234 404,-162 404,-98.927 334.1493,-55.0381 289.4641,-33.4144"/>
<polygon fill="#000000" stroke="#000000" points="290.885,-30.215 280.345,-29.1392 287.9136,-36.5531 290.885,-30.215"/>
<g id="a_edge7&#45;headlabel"><a xlink:href="dir_000050_000412.html" target="_top" xlink:title="3">
<text text-anchor="middle" x="295.3449" y="-26.67" font-family="Helvetica,sans-Serif" font-size="10.00" fill="#000000">3</text>
</a>
</g>
</g>
<!-- dir_36f9785b6e7879c93ce113c7573e321a&#45;&gt;dir_2171f7ec022c5423887b07c69b2f5b48 -->
<g id="edge8" class="edge">
<title>dir_36f9785b6e7879c93ce113c7573e321a&#45;&gt;dir_2171f7ec022c5423887b07c69b2f5b48</title>
<path fill="none" stroke="#000000" d="M79.9297,-359.7014C67.179,-317.6187 42.3058,-212.3395 87,-144 103.0194,-119.5056 132.9472,-106.0355 159.1508,-98.6744"/>
<polygon fill="#000000" stroke="#000000" points="160.1647,-102.0275 168.9744,-96.142 158.4173,-95.2491 160.1647,-102.0275"/>
<g id="a_edge8&#45;headlabel"><a xlink:href="dir_000050_000060.html" target="_top" xlink:title="2">
<text text-anchor="middle" x="157.3926" y="-103.1741" font-family="Helvetica,sans-Serif" font-size="10.00" fill="#000000">2</text>
</a>
</g>
</g>
<!-- dir_74a2cd511ae2b2930045e15d010bedac -->
<g id="node4" class="node">
<title>dir_74a2cd511ae2b2930045e15d010bedac</title>
<g id="a_node4"><a xlink:href="dir_74a2cd511ae2b2930045e15d010bedac.html" target="_top" xlink:title="test">
<polygon fill="#ffffff" stroke="#000000" points="185,-396 131,-396 131,-360 185,-360 185,-396"/>
<text text-anchor="middle" x="158" y="-375.5" font-family="Helvetica,sans-Serif" font-size="10.00" fill="#000000">test</text>
</a>
</g>
</g>
<!-- dir_74a2cd511ae2b2930045e15d010bedac&#45;&gt;dir_aece0de4a924a7db153b75165d0988be -->
<g id="edge10" class="edge">
<title>dir_74a2cd511ae2b2930045e15d010bedac&#45;&gt;dir_aece0de4a924a7db153b75165d0988be</title>
<path fill="none" stroke="#000000" d="M160.7758,-359.8314C161.9522,-352.131 163.3511,-342.9743 164.6586,-334.4166"/>
<polygon fill="#000000" stroke="#000000" points="168.1364,-334.8272 166.1869,-324.4133 161.2167,-333.7699 168.1364,-334.8272"/>
<g id="a_edge10&#45;headlabel"><a xlink:href="dir_000435_000047.html" target="_top" xlink:title="1">
<text text-anchor="middle" x="170.4003" y="-336.3093" font-family="Helvetica,sans-Serif" font-size="10.00" fill="#000000">1</text>
</a>
</g>
</g>
<!-- dir_2174d8cbbd82d5c404dd04814f845a3a&#45;&gt;dir_4ab6b4cc6a7edbff49100e9123df213f -->
<g id="edge1" class="edge">
<title>dir_2174d8cbbd82d5c404dd04814f845a3a&#45;&gt;dir_4ab6b4cc6a7edbff49100e9123df213f</title>
<path fill="none" stroke="#000000" d="M252.6065,-215.8314C226.4039,-204.6017 192.9751,-190.275 167.1922,-179.2252"/>
<polygon fill="#000000" stroke="#000000" points="168.2863,-175.8863 157.7161,-175.164 165.5288,-182.3203 168.2863,-175.8863"/>
<g id="a_edge1&#45;headlabel"><a xlink:href="dir_000420_000018.html" target="_top" xlink:title="3">
<text text-anchor="middle" x="172.7086" y="-172.1925" font-family="Helvetica,sans-Serif" font-size="10.00" fill="#000000">3</text>
</a>
</g>
</g>
<!-- dir_2174d8cbbd82d5c404dd04814f845a3a&#45;&gt;dir_7c9998090bca7c4aa89c05dd66fe73f5 -->
<g id="edge2" class="edge">
<title>dir_2174d8cbbd82d5c404dd04814f845a3a&#45;&gt;dir_7c9998090bca7c4aa89c05dd66fe73f5</title>
<path fill="none" stroke="#000000" d="M291.4913,-215.9555C284.1722,-178.3144 267.2307,-91.1867 258.4687,-46.1246"/>
<polygon fill="#000000" stroke="#000000" points="261.8726,-45.2932 256.5282,-36.1451 255.0013,-46.6293 261.8726,-45.2932"/>
<g id="a_edge2&#45;headlabel"><a xlink:href="dir_000420_000412.html" target="_top" xlink:title="5">
<text text-anchor="middle" x="265.3457" y="-45.7798" font-family="Helvetica,sans-Serif" font-size="10.00" fill="#000000">5</text>
</a>
</g>
</g>
<!-- dir_2174d8cbbd82d5c404dd04814f845a3a&#45;&gt;dir_2171f7ec022c5423887b07c69b2f5b48 -->
<g id="edge3" class="edge">
<title>dir_2174d8cbbd82d5c404dd04814f845a3a&#45;&gt;dir_2171f7ec022c5423887b07c69b2f5b48</title>
<path fill="none" stroke="#000000" d="M284.108,-215.7623C269.181,-190.7682 242.2607,-145.6924 225.03,-116.8409"/>
<polygon fill="#000000" stroke="#000000" points="227.9359,-114.8805 219.8035,-108.0896 221.9261,-118.4697 227.9359,-114.8805"/>
<g id="a_edge3&#45;headlabel"><a xlink:href="dir_000420_000060.html" target="_top" xlink:title="23">
<text text-anchor="middle" x="232.2166" y="-114.0108" font-family="Helvetica,sans-Serif" font-size="10.00" fill="#000000">23</text>
</a>
</g>
</g>
<!-- dir_4ab6b4cc6a7edbff49100e9123df213f&#45;&gt;dir_2171f7ec022c5423887b07c69b2f5b48 -->
<g id="edge9" class="edge">
<title>dir_4ab6b4cc6a7edbff49100e9123df213f&#45;&gt;dir_2171f7ec022c5423887b07c69b2f5b48</title>
<path fill="none" stroke="#000000" d="M141.7397,-143.8314C150.9753,-134.9632 163.1128,-124.1637 174.5773,-114.5718"/>
<polygon fill="#000000" stroke="#000000" points="176.8666,-117.2206 182.3627,-108.1628 172.4177,-111.8162 176.8666,-117.2206"/>
<g id="a_edge9&#45;headlabel"><a xlink:href="dir_000018_000060.html" target="_top" xlink:title="2">
<text text-anchor="middle" x="175.8959" y="-119.1972" font-family="Helvetica,sans-Serif" font-size="10.00" fill="#000000">2</text>
</a>
</g>
</g>
<!-- dir_37c90836491b695b472bf98d1be8336b&#45;&gt;dir_4ab6b4cc6a7edbff49100e9123df213f -->
<g id="edge16" class="edge">
<title>dir_37c90836491b695b472bf98d1be8336b&#45;&gt;dir_4ab6b4cc6a7edbff49100e9123df213f</title>
<path fill="none" stroke="#000000" d="M147.5719,-36.011C139.6975,-45.8711 131.102,-58.7559 127,-72 120.8074,-91.9937 121.0956,-115.7062 122.7778,-133.7712"/>
<polygon fill="#000000" stroke="#000000" points="119.3264,-134.3996 123.9252,-143.9443 126.2823,-133.6151 119.3264,-134.3996"/>
<g id="a_edge16&#45;headlabel"><a xlink:href="dir_000254_000018.html" target="_top" xlink:title="16">
<text text-anchor="middle" x="116.1022" y="-128.6458" font-family="Helvetica,sans-Serif" font-size="10.00" fill="#000000">16</text>
</a>
</g>
</g>
<!-- dir_37c90836491b695b472bf98d1be8336b&#45;&gt;dir_2171f7ec022c5423887b07c69b2f5b48 -->
<g id="edge17" class="edge">
<title>dir_37c90836491b695b472bf98d1be8336b&#45;&gt;dir_2171f7ec022c5423887b07c69b2f5b48</title>
<path fill="none" stroke="#000000" d="M181.4843,-36.4133C187.3003,-44.484 193.5162,-54.1182 198.6708,-62.9775"/>
<polygon fill="#000000" stroke="#000000" points="195.6765,-64.7946 203.597,-71.8314 201.7934,-61.3911 195.6765,-64.7946"/>
<g id="a_edge17&#45;headlabel"><a xlink:href="dir_000254_000060.html" target="_top" xlink:title="7">
<text text-anchor="middle" x="191.4478" y="-60.5339" font-family="Helvetica,sans-Serif" font-size="10.00" fill="#000000">7</text>
</a>
</g>
</g>
<!-- dir_7c9998090bca7c4aa89c05dd66fe73f5&#45;&gt;dir_4ab6b4cc6a7edbff49100e9123df213f -->
<g id="edge18" class="edge">
<title>dir_7c9998090bca7c4aa89c05dd66fe73f5&#45;&gt;dir_4ab6b4cc6a7edbff49100e9123df213f</title>
<path fill="none" stroke="#000000" d="M225.9485,-27.7758C205.3056,-36.4906 177.5205,-51.1179 160,-72 145.108,-89.7492 136.6537,-114.8105 132.0393,-133.9817"/>
<polygon fill="#000000" stroke="#000000" points="128.5783,-133.4248 129.8544,-143.9425 135.4158,-134.9247 128.5783,-133.4248"/>
<g id="a_edge18&#45;headlabel"><a xlink:href="dir_000412_000018.html" target="_top" xlink:title="3">
<text text-anchor="middle" x="126.5751" y="-126.8054" font-family="Helvetica,sans-Serif" font-size="10.00" fill="#000000">3</text>
</a>
</g>
</g>
<!-- dir_7c9998090bca7c4aa89c05dd66fe73f5&#45;&gt;dir_2171f7ec022c5423887b07c69b2f5b48 -->
<g id="edge19" class="edge">
<title>dir_7c9998090bca7c4aa89c05dd66fe73f5&#45;&gt;dir_2171f7ec022c5423887b07c69b2f5b48</title>
<path fill="none" stroke="#000000" d="M247.7235,-36.4133C243.4755,-44.654 237.6298,-54.5245 231.7074,-63.536"/>
<polygon fill="#000000" stroke="#000000" points="228.7937,-61.5965 226.0555,-71.8314 234.5786,-65.538 228.7937,-61.5965"/>
<g id="a_edge19&#45;headlabel"><a xlink:href="dir_000412_000060.html" target="_top" xlink:title="2">
<text text-anchor="middle" x="228.4713" y="-54.5272" font-family="Helvetica,sans-Serif" font-size="10.00" fill="#000000">2</text>
</a>
</g>
</g>
<!-- dir_26637d1bd82229bc9ed97f7e706be743&#45;&gt;dir_4ab6b4cc6a7edbff49100e9123df213f -->
<g id="edge20" class="edge">
<title>dir_26637d1bd82229bc9ed97f7e706be743&#45;&gt;dir_4ab6b4cc6a7edbff49100e9123df213f</title>
<path fill="none" stroke="#000000" d="M158.4016,-215.8314C153.7123,-207.7925 148.0972,-198.1666 142.9202,-189.2918"/>
<polygon fill="#000000" stroke="#000000" points="145.8031,-187.2875 137.7411,-180.4133 139.7566,-190.8146 145.8031,-187.2875"/>
<g id="a_edge20&#45;headlabel"><a xlink:href="dir_000505_000018.html" target="_top" xlink:title="2">
<text text-anchor="middle" x="150.0667" y="-186.4618" font-family="Helvetica,sans-Serif" font-size="10.00" fill="#000000">2</text>
</a>
</g>
</g>
<!-- dir_26637d1bd82229bc9ed97f7e706be743&#45;&gt;dir_2171f7ec022c5423887b07c69b2f5b48 -->
<g id="edge21" class="edge">
<title>dir_26637d1bd82229bc9ed97f7e706be743&#45;&gt;dir_2171f7ec022c5423887b07c69b2f5b48</title>
<path fill="none" stroke="#000000" d="M174.066,-215.7623C180.9187,-191.0928 193.2056,-146.8598 201.2297,-117.9731"/>
<polygon fill="#000000" stroke="#000000" points="204.6709,-118.6616 203.9751,-108.0896 197.9263,-116.788 204.6709,-118.6616"/>
<g id="a_edge21&#45;headlabel"><a xlink:href="dir_000505_000060.html" target="_top" xlink:title="4">
<text text-anchor="middle" x="206.4446" y="-120.3849" font-family="Helvetica,sans-Serif" font-size="10.00" fill="#000000">4</text>
</a>
</g>
</g>
<!-- dir_2171f7ec022c5423887b07c69b2f5b48&#45;&gt;dir_4ab6b4cc6a7edbff49100e9123df213f -->
<g id="edge22" class="edge">
<title>dir_2171f7ec022c5423887b07c69b2f5b48&#45;&gt;dir_4ab6b4cc6a7edbff49100e9123df213f</title>
<path fill="none" stroke="#000000" d="M194.2664,-108.1628C185.032,-117.0301 172.895,-127.8295 161.4302,-137.4219"/>
<polygon fill="#000000" stroke="#000000" points="159.1404,-134.7735 153.6445,-143.8314 163.5894,-140.1778 159.1404,-134.7735"/>
<g id="a_edge22&#45;headlabel"><a xlink:href="dir_000060_000018.html" target="_top" xlink:title="29">
<text text-anchor="middle" x="160.1111" y="-127.7968" font-family="Helvetica,sans-Serif" font-size="10.00" fill="#000000">29</text>
</a>
</g>
</g>
<!-- dir_2171f7ec022c5423887b07c69b2f5b48&#45;&gt;dir_37c90836491b695b472bf98d1be8336b -->
<g id="edge23" class="edge">
<title>dir_2171f7ec022c5423887b07c69b2f5b48&#45;&gt;dir_37c90836491b695b472bf98d1be8336b</title>
<path fill="none" stroke="#000000" d="M191.6922,-71.8314C185.8845,-63.7925 179.662,-54.1666 174.486,-45.2918"/>
<polygon fill="#000000" stroke="#000000" points="177.4612,-43.4406 169.5323,-36.4133 171.3483,-46.8513 177.4612,-43.4406"/>
<g id="a_edge23&#45;headlabel"><a xlink:href="dir_000060_000254.html" target="_top" xlink:title="1">
<text text-anchor="middle" x="181.692" y="-42.6963" font-family="Helvetica,sans-Serif" font-size="10.00" fill="#000000">1</text>
</a>
</g>
</g>
<!-- dir_2171f7ec022c5423887b07c69b2f5b48&#45;&gt;dir_7c9998090bca7c4aa89c05dd66fe73f5 -->
<g id="edge24" class="edge">
<title>dir_2171f7ec022c5423887b07c69b2f5b48&#45;&gt;dir_7c9998090bca7c4aa89c05dd66fe73f5</title>
<path fill="none" stroke="#000000" d="M214.1507,-71.8314C218.3668,-63.6232 224.1958,-53.7606 230.1165,-44.7323"/>
<polygon fill="#000000" stroke="#000000" points="233.0442,-46.6511 235.7714,-36.4133 227.2551,-42.7158 233.0442,-46.6511"/>
<g id="a_edge24&#45;headlabel"><a xlink:href="dir_000060_000412.html" target="_top" xlink:title="1">
<text text-anchor="middle" x="233.3716" y="-48.72" font-family="Helvetica,sans-Serif" font-size="10.00" fill="#000000">1</text>
</a>
</g>
</g>
</g>
</svg>
