<?xml version="1.0" encoding="UTF-8" standalone="no"?>
<!DOCTYPE svg PUBLIC "-//W3C//DTD SVG 1.1//EN"
 "http://www.w3.org/Graphics/SVG/1.1/DTD/svg11.dtd">
<!-- Generated by graphviz version 2.40.1 (20161225.0304)
 -->
<!-- Title: /home/travis/build/AliceO2Group/AliceO2/Detectors/ITSMFT/common/simulation/src Pages: 1 -->
<svg width="187pt" height="367pt"
 viewBox="0.00 0.00 187.35 367.00" xmlns="http://www.w3.org/2000/svg" xmlns:xlink="http://www.w3.org/1999/xlink">
<g id="graph0" class="graph" transform="scale(1 1) rotate(0) translate(4 363)">
<title>/home/travis/build/AliceO2Group/AliceO2/Detectors/ITSMFT/common/simulation/src</title>
<g id="clust1" class="cluster">
<title>clusterdir_948e043a2a9c0d8c3d26178da976c005</title>
<g id="a_clust1"><a xlink:href="dir_948e043a2a9c0d8c3d26178da976c005.html" target="_top" xlink:title="simulation">
<polygon fill="#ddddee" stroke="#000000" points="33.0522,-280 33.0522,-351 103.0522,-351 103.0522,-280 33.0522,-280"/>
<text text-anchor="middle" x="68.0522" y="-339" font-family="Helvetica,sans-Serif" font-size="10.00" fill="#000000">simulation</text>
</a>
</g>
</g>
<!-- dir_36f9785b6e7879c93ce113c7573e321a -->
<g id="node1" class="node">
<title>dir_36f9785b6e7879c93ce113c7573e321a</title>
<g id="a_node1"><a xlink:href="dir_36f9785b6e7879c93ce113c7573e321a.html" target="_top" xlink:title="src">
<polygon fill="#eeeeff" stroke="#000000" points="95.0522,-324 41.0522,-324 41.0522,-288 95.0522,-288 95.0522,-324"/>
<text text-anchor="middle" x="68.0522" y="-303.5" font-family="Helvetica,sans-Serif" font-size="10.00" fill="#000000">src</text>
</a>
</g>
</g>
<!-- dir_4ab6b4cc6a7edbff49100e9123df213f -->
<g id="node2" class="node">
<title>dir_4ab6b4cc6a7edbff49100e9123df213f</title>
<g id="a_node2"><a xlink:href="dir_4ab6b4cc6a7edbff49100e9123df213f.html" target="_top" xlink:title="Common">
<polygon fill="none" stroke="#ff0000" points="98.5522,-180 37.5522,-180 37.5522,-144 98.5522,-144 98.5522,-180"/>
<text text-anchor="middle" x="68.0522" y="-159.5" font-family="Helvetica,sans-Serif" font-size="10.00" fill="#000000">Common</text>
</a>
</g>
</g>
<!-- dir_36f9785b6e7879c93ce113c7573e321a&#45;&gt;dir_4ab6b4cc6a7edbff49100e9123df213f -->
<g id="edge1" class="edge">
<title>dir_36f9785b6e7879c93ce113c7573e321a&#45;&gt;dir_4ab6b4cc6a7edbff49100e9123df213f</title>
<path fill="none" stroke="#000000" d="M68.0522,-287.7623C68.0522,-263.201 68.0522,-219.2474 68.0522,-190.3541"/>
<polygon fill="#000000" stroke="#000000" points="71.5523,-190.0896 68.0522,-180.0896 64.5523,-190.0897 71.5523,-190.0896"/>
<g id="a_edge1&#45;headlabel"><a xlink:href="dir_000050_000018.html" target="_top" xlink:title="2">
<text text-anchor="middle" x="74.3914" y="-191.1842" font-family="Helvetica,sans-Serif" font-size="10.00" fill="#000000">2</text>
</a>
</g>
</g>
<!-- dir_aece0de4a924a7db153b75165d0988be -->
<g id="node3" class="node">
<title>dir_aece0de4a924a7db153b75165d0988be</title>
<g id="a_node3"><a xlink:href="dir_aece0de4a924a7db153b75165d0988be.html" target="_top" xlink:title="include">
<polygon fill="none" stroke="#ff0000" points="152.0522,-252 98.0522,-252 98.0522,-216 152.0522,-216 152.0522,-252"/>
<text text-anchor="middle" x="125.0522" y="-231.5" font-family="Helvetica,sans-Serif" font-size="10.00" fill="#000000">include</text>
</a>
</g>
</g>
<!-- dir_36f9785b6e7879c93ce113c7573e321a&#45;&gt;dir_aece0de4a924a7db153b75165d0988be -->
<g id="edge2" class="edge">
<title>dir_36f9785b6e7879c93ce113c7573e321a&#45;&gt;dir_aece0de4a924a7db153b75165d0988be</title>
<path fill="none" stroke="#000000" d="M82.4357,-287.8314C89.0008,-279.5386 96.9029,-269.557 104.1099,-260.4533"/>
<polygon fill="#000000" stroke="#000000" points="107.0121,-262.4262 110.475,-252.4133 101.5238,-258.0813 107.0121,-262.4262"/>
<g id="a_edge2&#45;headlabel"><a xlink:href="dir_000050_000047.html" target="_top" xlink:title="11">
<text text-anchor="middle" x="107.0071" y="-264.5069" font-family="Helvetica,sans-Serif" font-size="10.00" fill="#000000">11</text>
</a>
</g>
</g>
<!-- dir_37c90836491b695b472bf98d1be8336b -->
<g id="node4" class="node">
<title>dir_37c90836491b695b472bf98d1be8336b</title>
<g id="a_node4"><a xlink:href="dir_37c90836491b695b472bf98d1be8336b.html" target="_top" xlink:title="Base">
<polygon fill="none" stroke="#ff0000" points="59.0522,-36 5.0522,-36 5.0522,0 59.0522,0 59.0522,-36"/>
<text text-anchor="middle" x="32.0522" y="-15.5" font-family="Helvetica,sans-Serif" font-size="10.00" fill="#000000">Base</text>
</a>
</g>
</g>
<!-- dir_36f9785b6e7879c93ce113c7573e321a&#45;&gt;dir_37c90836491b695b472bf98d1be8336b -->
<g id="edge3" class="edge">
<title>dir_36f9785b6e7879c93ce113c7573e321a&#45;&gt;dir_37c90836491b695b472bf98d1be8336b</title>
<path fill="none" stroke="#000000" d="M48.6281,-287.8508C39.5375,-278.1444 29.5273,-265.4392 24.0522,-252 -6.2099,-177.7195 -3.737,-150.8331 11.0522,-72 12.6872,-63.2844 15.6864,-54.1679 18.9164,-45.9601"/>
<polygon fill="#000000" stroke="#000000" points="22.2496,-47.0623 22.8945,-36.4871 15.7956,-44.352 22.2496,-47.0623"/>
<g id="a_edge3&#45;headlabel"><a xlink:href="dir_000050_000254.html" target="_top" xlink:title="2">
<text text-anchor="middle" x="23.4757" y="-48.9759" font-family="Helvetica,sans-Serif" font-size="10.00" fill="#000000">2</text>
</a>
</g>
</g>
<!-- dir_7c9998090bca7c4aa89c05dd66fe73f5 -->
<g id="node5" class="node">
<title>dir_7c9998090bca7c4aa89c05dd66fe73f5</title>
<g id="a_node5"><a xlink:href="dir_7c9998090bca7c4aa89c05dd66fe73f5.html" target="_top" xlink:title="base">
<polygon fill="none" stroke="#ff0000" points="163.0522,-36 109.0522,-36 109.0522,0 163.0522,0 163.0522,-36"/>
<text text-anchor="middle" x="136.0522" y="-15.5" font-family="Helvetica,sans-Serif" font-size="10.00" fill="#000000">base</text>
</a>
</g>
</g>
<!-- dir_36f9785b6e7879c93ce113c7573e321a&#45;&gt;dir_7c9998090bca7c4aa89c05dd66fe73f5 -->
<g id="edge4" class="edge">
<title>dir_36f9785b6e7879c93ce113c7573e321a&#45;&gt;dir_7c9998090bca7c4aa89c05dd66fe73f5</title>
<path fill="none" stroke="#000000" d="M95.055,-298.5297C117.1576,-290.8297 146.9863,-276.4324 161.0522,-252 199.129,-185.8606 168.329,-91.6565 148.8936,-45.5565"/>
<polygon fill="#000000" stroke="#000000" points="152.029,-43.9897 144.8306,-36.2158 145.6099,-46.7819 152.029,-43.9897"/>
<g id="a_edge4&#45;headlabel"><a xlink:href="dir_000050_000412.html" target="_top" xlink:title="3">
<text text-anchor="middle" x="156.0663" y="-43.6535" font-family="Helvetica,sans-Serif" font-size="10.00" fill="#000000">3</text>
</a>
</g>
</g>
<!-- dir_2171f7ec022c5423887b07c69b2f5b48 -->
<g id="node6" class="node">
<title>dir_2171f7ec022c5423887b07c69b2f5b48</title>
<g id="a_node6"><a xlink:href="dir_2171f7ec022c5423887b07c69b2f5b48.html" target="_top" xlink:title="DataFormats">
<polygon fill="none" stroke="#ff0000" points="108.0522,-108 28.0522,-108 28.0522,-72 108.0522,-72 108.0522,-108"/>
<text text-anchor="middle" x="68.0522" y="-87.5" font-family="Helvetica,sans-Serif" font-size="10.00" fill="#000000">DataFormats</text>
</a>
</g>
</g>
<!-- dir_36f9785b6e7879c93ce113c7573e321a&#45;&gt;dir_2171f7ec022c5423887b07c69b2f5b48 -->
<g id="edge5" class="edge">
<title>dir_36f9785b6e7879c93ce113c7573e321a&#45;&gt;dir_2171f7ec022c5423887b07c69b2f5b48</title>
<path fill="none" stroke="#000000" d="M56.9277,-287.7641C39.9327,-257.5017 11.1649,-195.1689 28.0522,-144 31.343,-134.0288 37.2638,-124.3944 43.5586,-116.0924"/>
<polygon fill="#000000" stroke="#000000" points="46.3193,-118.2448 49.8946,-108.2714 40.8802,-113.8384 46.3193,-118.2448"/>
<g id="a_edge5&#45;headlabel"><a xlink:href="dir_000050_000060.html" target="_top" xlink:title="2">
<text text-anchor="middle" x="46.2628" y="-120.3251" font-family="Helvetica,sans-Serif" font-size="10.00" fill="#000000">2</text>
</a>
</g>
</g>
<!-- dir_4ab6b4cc6a7edbff49100e9123df213f&#45;&gt;dir_2171f7ec022c5423887b07c69b2f5b48 -->
<g id="edge6" class="edge">
<title>dir_4ab6b4cc6a7edbff49100e9123df213f&#45;&gt;dir_2171f7ec022c5423887b07c69b2f5b48</title>
<path fill="none" stroke="#000000" d="M62.0998,-143.8314C61.3493,-136.131 61.1284,-126.9743 61.4371,-118.4166"/>
<polygon fill="#000000" stroke="#000000" points="64.9314,-118.6161 62.0762,-108.4133 57.9456,-118.1697 64.9314,-118.6161"/>
<g id="a_edge6&#45;headlabel"><a xlink:href="dir_000018_000060.html" target="_top" xlink:title="2">
<text text-anchor="middle" x="67.5358" y="-119.8844" font-family="Helvetica,sans-Serif" font-size="10.00" fill="#000000">2</text>
</a>
</g>
</g>
<!-- dir_aece0de4a924a7db153b75165d0988be&#45;&gt;dir_4ab6b4cc6a7edbff49100e9123df213f -->
<g id="edge7" class="edge">
<title>dir_aece0de4a924a7db153b75165d0988be&#45;&gt;dir_4ab6b4cc6a7edbff49100e9123df213f</title>
<path fill="none" stroke="#000000" d="M110.6687,-215.8314C104.1036,-207.5386 96.2015,-197.557 88.9944,-188.4533"/>
<polygon fill="#000000" stroke="#000000" points="91.5806,-186.0813 82.6293,-180.4133 86.0922,-190.4262 91.5806,-186.0813"/>
<g id="a_edge7&#45;headlabel"><a xlink:href="dir_000047_000018.html" target="_top" xlink:title="3">
<text text-anchor="middle" x="96.0378" y="-184.6373" font-family="Helvetica,sans-Serif" font-size="10.00" fill="#000000">3</text>
</a>
</g>
</g>
<!-- dir_aece0de4a924a7db153b75165d0988be&#45;&gt;dir_7c9998090bca7c4aa89c05dd66fe73f5 -->
<g id="edge8" class="edge">
<title>dir_aece0de4a924a7db153b75165d0988be&#45;&gt;dir_7c9998090bca7c4aa89c05dd66fe73f5</title>
<path fill="none" stroke="#000000" d="M127.3479,-215.6761C130.2897,-191.1869 135.2272,-146.4111 137.0522,-108 137.8115,-92.018 137.2003,-87.9993 137.0522,-72 136.9761,-63.7856 136.835,-54.8691 136.6823,-46.6933"/>
<polygon fill="#000000" stroke="#000000" points="140.1776,-46.4215 136.4793,-36.4932 133.179,-46.5609 140.1776,-46.4215"/>
<g id="a_edge8&#45;headlabel"><a xlink:href="dir_000047_000412.html" target="_top" xlink:title="1">
<text text-anchor="middle" x="143.0878" y="-47.459" font-family="Helvetica,sans-Serif" font-size="10.00" fill="#000000">1</text>
</a>
</g>
</g>
<!-- dir_aece0de4a924a7db153b75165d0988be&#45;&gt;dir_2171f7ec022c5423887b07c69b2f5b48 -->
<g id="edge9" class="edge">
<title>dir_aece0de4a924a7db153b75165d0988be&#45;&gt;dir_2171f7ec022c5423887b07c69b2f5b48</title>
<path fill="none" stroke="#000000" d="M124.0029,-215.7079C122.3869,-197.007 118.3067,-167.4576 108.0522,-144 103.7762,-134.2186 97.4469,-124.5309 91.0783,-116.1194"/>
<polygon fill="#000000" stroke="#000000" points="93.7309,-113.8317 84.7711,-108.1771 88.2491,-118.1849 93.7309,-113.8317"/>
<g id="a_edge9&#45;headlabel"><a xlink:href="dir_000047_000060.html" target="_top" xlink:title="7">
<text text-anchor="middle" x="98.1898" y="-112.3809" font-family="Helvetica,sans-Serif" font-size="10.00" fill="#000000">7</text>
</a>
</g>
</g>
<!-- dir_37c90836491b695b472bf98d1be8336b&#45;&gt;dir_4ab6b4cc6a7edbff49100e9123df213f -->
<g id="edge10" class="edge">
<title>dir_37c90836491b695b472bf98d1be8336b&#45;&gt;dir_4ab6b4cc6a7edbff49100e9123df213f</title>
<path fill="none" stroke="#000000" d="M24.2281,-36.1872C17.3996,-54.8045 9.8977,-84.2885 19.0522,-108 23.1714,-118.6694 30.4857,-128.5335 38.2271,-136.8319"/>
<polygon fill="#000000" stroke="#000000" points="35.8341,-139.3887 45.3772,-143.9909 40.7869,-134.442 35.8341,-139.3887"/>
<g id="a_edge10&#45;headlabel"><a xlink:href="dir_000254_000018.html" target="_top" xlink:title="16">
<text text-anchor="middle" x="31.285" y="-136.3517" font-family="Helvetica,sans-Serif" font-size="10.00" fill="#000000">16</text>
</a>
</g>
</g>
<!-- dir_37c90836491b695b472bf98d1be8336b&#45;&gt;dir_2171f7ec022c5423887b07c69b2f5b48 -->
<g id="edge11" class="edge">
<title>dir_37c90836491b695b472bf98d1be8336b&#45;&gt;dir_2171f7ec022c5423887b07c69b2f5b48</title>
<path fill="none" stroke="#000000" d="M47.2348,-36.4133C51.9407,-44.3141 56.8427,-53.7132 60.8439,-62.417"/>
<polygon fill="#000000" stroke="#000000" points="57.7349,-64.0454 64.9202,-71.8314 64.1586,-61.2639 57.7349,-64.0454"/>
<g id="a_edge11&#45;headlabel"><a xlink:href="dir_000254_000060.html" target="_top" xlink:title="7">
<text text-anchor="middle" x="53.7012" y="-59.3748" font-family="Helvetica,sans-Serif" font-size="10.00" fill="#000000">7</text>
</a>
</g>
</g>
<!-- dir_7c9998090bca7c4aa89c05dd66fe73f5&#45;&gt;dir_4ab6b4cc6a7edbff49100e9123df213f -->
<g id="edge12" class="edge">
<title>dir_7c9998090bca7c4aa89c05dd66fe73f5&#45;&gt;dir_4ab6b4cc6a7edbff49100e9123df213f</title>
<path fill="none" stroke="#000000" d="M135.0104,-36.1743C133.3068,-55.0422 128.8256,-84.9638 117.0522,-108 111.7591,-118.3566 103.9541,-128.2346 96.1219,-136.6437"/>
<polygon fill="#000000" stroke="#000000" points="93.4879,-134.3311 88.9926,-143.925 98.4896,-139.2284 93.4879,-134.3311"/>
<g id="a_edge12&#45;headlabel"><a xlink:href="dir_000412_000018.html" target="_top" xlink:title="3">
<text text-anchor="middle" x="93.9739" y="-127.2763" font-family="Helvetica,sans-Serif" font-size="10.00" fill="#000000">3</text>
</a>
</g>
</g>
<!-- dir_7c9998090bca7c4aa89c05dd66fe73f5&#45;&gt;dir_2171f7ec022c5423887b07c69b2f5b48 -->
<g id="edge13" class="edge">
<title>dir_7c9998090bca7c4aa89c05dd66fe73f5&#45;&gt;dir_2171f7ec022c5423887b07c69b2f5b48</title>
<path fill="none" stroke="#000000" d="M124.6379,-36.4133C117.3545,-44.9938 107.75,-55.3414 98.4779,-64.6463"/>
<polygon fill="#000000" stroke="#000000" points="95.8447,-62.3266 91.1638,-71.8314 100.7503,-67.3202 95.8447,-62.3266"/>
<g id="a_edge13&#45;headlabel"><a xlink:href="dir_000412_000060.html" target="_top" xlink:title="2">
<text text-anchor="middle" x="96.4193" y="-55.2822" font-family="Helvetica,sans-Serif" font-size="10.00" fill="#000000">2</text>
</a>
</g>
</g>
<!-- dir_2171f7ec022c5423887b07c69b2f5b48&#45;&gt;dir_4ab6b4cc6a7edbff49100e9123df213f -->
<g id="edge14" class="edge">
<title>dir_2171f7ec022c5423887b07c69b2f5b48&#45;&gt;dir_4ab6b4cc6a7edbff49100e9123df213f</title>
<path fill="none" stroke="#000000" d="M74.0282,-108.4133C74.7593,-116.0593 74.9724,-125.1084 74.6676,-133.5726"/>
<polygon fill="#000000" stroke="#000000" points="71.1569,-133.6264 74.0046,-143.8314 78.1424,-134.078 71.1569,-133.6264"/>
<g id="a_edge14&#45;headlabel"><a xlink:href="dir_000060_000018.html" target="_top" xlink:title="29">
<text text-anchor="middle" x="68.5554" y="-127.3562" font-family="Helvetica,sans-Serif" font-size="10.00" fill="#000000">29</text>
</a>
</g>
</g>
<!-- dir_2171f7ec022c5423887b07c69b2f5b48&#45;&gt;dir_37c90836491b695b472bf98d1be8336b -->
<g id="edge15" class="edge">
<title>dir_2171f7ec022c5423887b07c69b2f5b48&#45;&gt;dir_37c90836491b695b472bf98d1be8336b</title>
<path fill="none" stroke="#000000" d="M53.0154,-71.8314C48.3137,-63.9617 43.4046,-54.5712 39.3848,-45.8533"/>
<polygon fill="#000000" stroke="#000000" points="42.4783,-44.1899 35.2828,-36.4133 36.0582,-46.9797 42.4783,-44.1899"/>
<g id="a_edge15&#45;headlabel"><a xlink:href="dir_000060_000254.html" target="_top" xlink:title="1">
<text text-anchor="middle" x="46.5148" y="-43.8552" font-family="Helvetica,sans-Serif" font-size="10.00" fill="#000000">1</text>
</a>
</g>
</g>
<!-- dir_2171f7ec022c5423887b07c69b2f5b48&#45;&gt;dir_7c9998090bca7c4aa89c05dd66fe73f5 -->
<g id="edge16" class="edge">
<title>dir_2171f7ec022c5423887b07c69b2f5b48&#45;&gt;dir_7c9998090bca7c4aa89c05dd66fe73f5</title>
<path fill="none" stroke="#000000" d="M79.259,-71.8314C86.5536,-63.219 96.2309,-52.7851 105.5755,-43.4048"/>
<polygon fill="#000000" stroke="#000000" points="108.2663,-45.6679 112.9466,-36.1628 103.3604,-40.6746 108.2663,-45.6679"/>
<g id="a_edge16&#45;headlabel"><a xlink:href="dir_000060_000412.html" target="_top" xlink:title="1">
<text text-anchor="middle" x="107.692" y="-47.7124" font-family="Helvetica,sans-Serif" font-size="10.00" fill="#000000">1</text>
</a>
</g>
</g>
</g>
</svg>
