<?xml version="1.0" encoding="UTF-8" standalone="no"?>
<!DOCTYPE svg PUBLIC "-//W3C//DTD SVG 1.1//EN"
 "http://www.w3.org/Graphics/SVG/1.1/DTD/svg11.dtd">
<!-- Generated by graphviz version 2.40.1 (20161225.0304)
 -->
<!-- Title: /home/travis/build/AliceO2Group/AliceO2/Detectors/TOF/simulation/include Pages: 1 -->
<svg width="220pt" height="375pt"
 viewBox="0.00 0.00 220.00 375.00" xmlns="http://www.w3.org/2000/svg" xmlns:xlink="http://www.w3.org/1999/xlink">
<g id="graph0" class="graph" transform="scale(1 1) rotate(0) translate(4 371)">
<title>/home/travis/build/AliceO2Group/AliceO2/Detectors/TOF/simulation/include</title>
<g id="clust1" class="cluster">
<title>clusterdir_827012254b0f6cad75d9a7a2745b1aea</title>
<g id="a_clust1"><a xlink:href="dir_827012254b0f6cad75d9a7a2745b1aea.html" target="_top" xlink:title="simulation">
<polygon fill="#ddddee" stroke="#000000" points="8,-272 8,-359 200,-359 200,-272 8,-272"/>
<text text-anchor="middle" x="104" y="-347" font-family="Helvetica,sans-Serif" font-size="10.00" fill="#000000">simulation</text>
</a>
</g>
</g>
<g id="clust2" class="cluster">
<title>clusterdir_4d55c0327ef0082eaebc074a5f8651c4</title>
<g id="a_clust2"><a xlink:href="dir_4d55c0327ef0082eaebc074a5f8651c4.html" target="_top">
<polygon fill="#eeeeff" stroke="#000000" points="16,-280 16,-332 192,-332 192,-280 16,-280"/>
</a>
</g>
</g>
<!-- dir_4d55c0327ef0082eaebc074a5f8651c4 -->
<g id="node1" class="node">
<title>dir_4d55c0327ef0082eaebc074a5f8651c4</title>
<text text-anchor="middle" x="157" y="-303.5" font-family="Helvetica,sans-Serif" font-size="10.00" fill="#000000">include</text>
</g>
<!-- dir_05b755f4aad1a591457874b9e4739708 -->
<g id="node2" class="node">
<title>dir_05b755f4aad1a591457874b9e4739708</title>
<g id="a_node2"><a xlink:href="dir_05b755f4aad1a591457874b9e4739708.html" target="_top" xlink:title="TOFSimulation">
<polygon fill="#ffffff" stroke="#000000" points="112,-324 24,-324 24,-288 112,-288 112,-324"/>
<text text-anchor="middle" x="68" y="-303.5" font-family="Helvetica,sans-Serif" font-size="10.00" fill="#000000">TOFSimulation</text>
</a>
</g>
</g>
<!-- dir_7559d374f7e4089a12282edb4b89411f -->
<g id="node3" class="node">
<title>dir_7559d374f7e4089a12282edb4b89411f</title>
<g id="a_node3"><a xlink:href="dir_7559d374f7e4089a12282edb4b89411f.html" target="_top" xlink:title="calibration">
<polygon fill="none" stroke="#ff0000" points="102,-252 34,-252 34,-216 102,-216 102,-252"/>
<text text-anchor="middle" x="68" y="-231.5" font-family="Helvetica,sans-Serif" font-size="10.00" fill="#000000">calibration</text>
</a>
</g>
</g>
<!-- dir_05b755f4aad1a591457874b9e4739708&#45;&gt;dir_7559d374f7e4089a12282edb4b89411f -->
<g id="edge7" class="edge">
<title>dir_05b755f4aad1a591457874b9e4739708&#45;&gt;dir_7559d374f7e4089a12282edb4b89411f</title>
<path fill="none" stroke="#000000" d="M68,-287.8314C68,-280.131 68,-270.9743 68,-262.4166"/>
<polygon fill="#000000" stroke="#000000" points="71.5001,-262.4132 68,-252.4133 64.5001,-262.4133 71.5001,-262.4132"/>
<g id="a_edge7&#45;headlabel"><a xlink:href="dir_000151_000521.html" target="_top" xlink:title="1">
<text text-anchor="middle" x="74.3393" y="-263.5079" font-family="Helvetica,sans-Serif" font-size="10.00" fill="#000000">1</text>
</a>
</g>
</g>
<!-- dir_4ab6b4cc6a7edbff49100e9123df213f -->
<g id="node4" class="node">
<title>dir_4ab6b4cc6a7edbff49100e9123df213f</title>
<g id="a_node4"><a xlink:href="dir_4ab6b4cc6a7edbff49100e9123df213f.html" target="_top" xlink:title="Common">
<polygon fill="none" stroke="#ff0000" points="92.5,-36 31.5,-36 31.5,0 92.5,0 92.5,-36"/>
<text text-anchor="middle" x="62" y="-15.5" font-family="Helvetica,sans-Serif" font-size="10.00" fill="#000000">Common</text>
</a>
</g>
</g>
<!-- dir_05b755f4aad1a591457874b9e4739708&#45;&gt;dir_4ab6b4cc6a7edbff49100e9123df213f -->
<g id="edge8" class="edge">
<title>dir_05b755f4aad1a591457874b9e4739708&#45;&gt;dir_4ab6b4cc6a7edbff49100e9123df213f</title>
<path fill="none" stroke="#000000" d="M45.2929,-287.9059C35.0746,-278.3922 23.9839,-265.838 18,-252 -1.0719,-207.8956 4.1401,-191.2275 13,-144 19.6477,-108.5646 35.9598,-70.2888 47.9449,-45.3395"/>
<polygon fill="#000000" stroke="#000000" points="51.1929,-46.6655 52.4562,-36.1462 44.9087,-43.5817 51.1929,-46.6655"/>
<g id="a_edge8&#45;headlabel"><a xlink:href="dir_000151_000018.html" target="_top" xlink:title="2">
<text text-anchor="middle" x="52.1583" y="-48.6433" font-family="Helvetica,sans-Serif" font-size="10.00" fill="#000000">2</text>
</a>
</g>
</g>
<!-- dir_37c90836491b695b472bf98d1be8336b -->
<g id="node5" class="node">
<title>dir_37c90836491b695b472bf98d1be8336b</title>
<g id="a_node5"><a xlink:href="dir_37c90836491b695b472bf98d1be8336b.html" target="_top" xlink:title="Base">
<polygon fill="none" stroke="#ff0000" points="153,-108 99,-108 99,-72 153,-72 153,-108"/>
<text text-anchor="middle" x="126" y="-87.5" font-family="Helvetica,sans-Serif" font-size="10.00" fill="#000000">Base</text>
</a>
</g>
</g>
<!-- dir_05b755f4aad1a591457874b9e4739708&#45;&gt;dir_37c90836491b695b472bf98d1be8336b -->
<g id="edge9" class="edge">
<title>dir_05b755f4aad1a591457874b9e4739708&#45;&gt;dir_37c90836491b695b472bf98d1be8336b</title>
<path fill="none" stroke="#000000" d="M86.9695,-287.7687C95.8501,-278.0414 105.6337,-265.3423 111,-252 128.7077,-207.9733 129.6335,-151.9603 128.1779,-118.6562"/>
<polygon fill="#000000" stroke="#000000" points="131.6517,-118.0776 127.6138,-108.2824 124.662,-118.4578 131.6517,-118.0776"/>
<g id="a_edge9&#45;headlabel"><a xlink:href="dir_000151_000254.html" target="_top" xlink:title="1">
<text text-anchor="middle" x="134.6819" y="-119.0128" font-family="Helvetica,sans-Serif" font-size="10.00" fill="#000000">1</text>
</a>
</g>
</g>
<!-- dir_0189f3ad6abecd72f822a0c3914f12b2 -->
<g id="node6" class="node">
<title>dir_0189f3ad6abecd72f822a0c3914f12b2</title>
<g id="a_node6"><a xlink:href="dir_0189f3ad6abecd72f822a0c3914f12b2.html" target="_top" xlink:title="base">
<polygon fill="none" stroke="#ff0000" points="212,-180 158,-180 158,-144 212,-144 212,-180"/>
<text text-anchor="middle" x="185" y="-159.5" font-family="Helvetica,sans-Serif" font-size="10.00" fill="#000000">base</text>
</a>
</g>
</g>
<!-- dir_05b755f4aad1a591457874b9e4739708&#45;&gt;dir_0189f3ad6abecd72f822a0c3914f12b2 -->
<g id="edge10" class="edge">
<title>dir_05b755f4aad1a591457874b9e4739708&#45;&gt;dir_0189f3ad6abecd72f822a0c3914f12b2</title>
<path fill="none" stroke="#000000" d="M96.6252,-287.9074C115.0469,-275.8487 136.8373,-260.6741 144,-252 159.1981,-233.595 169.9803,-208.6396 176.6609,-189.6752"/>
<polygon fill="#000000" stroke="#000000" points="180.0096,-190.6974 179.8672,-180.1035 173.3721,-188.4739 180.0096,-190.6974"/>
<g id="a_edge10&#45;headlabel"><a xlink:href="dir_000151_000126.html" target="_top" xlink:title="5">
<text text-anchor="middle" x="181.5601" y="-192.5077" font-family="Helvetica,sans-Serif" font-size="10.00" fill="#000000">5</text>
</a>
</g>
</g>
<!-- dir_2171f7ec022c5423887b07c69b2f5b48 -->
<g id="node7" class="node">
<title>dir_2171f7ec022c5423887b07c69b2f5b48</title>
<g id="a_node7"><a xlink:href="dir_2171f7ec022c5423887b07c69b2f5b48.html" target="_top" xlink:title="DataFormats">
<polygon fill="none" stroke="#ff0000" points="102,-180 22,-180 22,-144 102,-144 102,-180"/>
<text text-anchor="middle" x="62" y="-159.5" font-family="Helvetica,sans-Serif" font-size="10.00" fill="#000000">DataFormats</text>
</a>
</g>
</g>
<!-- dir_05b755f4aad1a591457874b9e4739708&#45;&gt;dir_2171f7ec022c5423887b07c69b2f5b48 -->
<g id="edge11" class="edge">
<title>dir_05b755f4aad1a591457874b9e4739708&#45;&gt;dir_2171f7ec022c5423887b07c69b2f5b48</title>
<path fill="none" stroke="#000000" d="M48.5044,-287.9663C39.4897,-278.2894 29.7449,-265.5757 25,-252 19.721,-236.896 20.2662,-231.2837 25,-216 28.0445,-206.1704 33.5641,-196.5387 39.4271,-188.1946"/>
<polygon fill="#000000" stroke="#000000" points="42.3663,-190.1092 45.5719,-180.011 36.7686,-185.9061 42.3663,-190.1092"/>
<g id="a_edge11&#45;headlabel"><a xlink:href="dir_000151_000060.html" target="_top" xlink:title="4">
<text text-anchor="middle" x="42.4785" y="-192.1885" font-family="Helvetica,sans-Serif" font-size="10.00" fill="#000000">4</text>
</a>
</g>
</g>
<!-- dir_7559d374f7e4089a12282edb4b89411f&#45;&gt;dir_2171f7ec022c5423887b07c69b2f5b48 -->
<g id="edge1" class="edge">
<title>dir_7559d374f7e4089a12282edb4b89411f&#45;&gt;dir_2171f7ec022c5423887b07c69b2f5b48</title>
<path fill="none" stroke="#000000" d="M66.4859,-215.8314C65.8442,-208.131 65.0812,-198.9743 64.3681,-190.4166"/>
<polygon fill="#000000" stroke="#000000" points="67.8529,-190.088 63.5344,-180.4133 60.8771,-190.6694 67.8529,-190.088"/>
<g id="a_edge1&#45;headlabel"><a xlink:href="dir_000521_000060.html" target="_top" xlink:title="2">
<text text-anchor="middle" x="70.9808" y="-190.9345" font-family="Helvetica,sans-Serif" font-size="10.00" fill="#000000">2</text>
</a>
</g>
</g>
<!-- dir_4ab6b4cc6a7edbff49100e9123df213f&#45;&gt;dir_2171f7ec022c5423887b07c69b2f5b48 -->
<g id="edge2" class="edge">
<title>dir_4ab6b4cc6a7edbff49100e9123df213f&#45;&gt;dir_2171f7ec022c5423887b07c69b2f5b48</title>
<path fill="none" stroke="#000000" d="M66.6583,-36.0896C69.1269,-60.5727 69.4104,-104.5174 67.5089,-133.4713"/>
<polygon fill="#000000" stroke="#000000" points="63.9942,-133.5118 66.6732,-143.7623 70.9712,-134.0785 63.9942,-133.5118"/>
<g id="a_edge2&#45;headlabel"><a xlink:href="dir_000018_000060.html" target="_top" xlink:title="2">
<text text-anchor="middle" x="61.4551" y="-127.1992" font-family="Helvetica,sans-Serif" font-size="10.00" fill="#000000">2</text>
</a>
</g>
</g>
<!-- dir_37c90836491b695b472bf98d1be8336b&#45;&gt;dir_4ab6b4cc6a7edbff49100e9123df213f -->
<g id="edge3" class="edge">
<title>dir_37c90836491b695b472bf98d1be8336b&#45;&gt;dir_4ab6b4cc6a7edbff49100e9123df213f</title>
<path fill="none" stroke="#000000" d="M109.8501,-71.8314C102.3283,-63.3694 93.2435,-53.1489 85.0196,-43.8971"/>
<polygon fill="#000000" stroke="#000000" points="87.627,-41.5621 78.3673,-36.4133 82.3951,-46.2127 87.627,-41.5621"/>
<g id="a_edge3&#45;headlabel"><a xlink:href="dir_000254_000018.html" target="_top" xlink:title="16">
<text text-anchor="middle" x="92.1372" y="-39.8624" font-family="Helvetica,sans-Serif" font-size="10.00" fill="#000000">16</text>
</a>
</g>
</g>
<!-- dir_37c90836491b695b472bf98d1be8336b&#45;&gt;dir_2171f7ec022c5423887b07c69b2f5b48 -->
<g id="edge4" class="edge">
<title>dir_37c90836491b695b472bf98d1be8336b&#45;&gt;dir_2171f7ec022c5423887b07c69b2f5b48</title>
<path fill="none" stroke="#000000" d="M115.6087,-108.4133C108.8694,-116.9088 99.9509,-127.1366 91.2773,-136.3696"/>
<polygon fill="#000000" stroke="#000000" points="88.5106,-134.1972 84.1023,-143.8314 93.5564,-139.049 88.5106,-134.1972"/>
<g id="a_edge4&#45;headlabel"><a xlink:href="dir_000254_000060.html" target="_top" xlink:title="7">
<text text-anchor="middle" x="88.9555" y="-127.1382" font-family="Helvetica,sans-Serif" font-size="10.00" fill="#000000">7</text>
</a>
</g>
</g>
<!-- dir_0189f3ad6abecd72f822a0c3914f12b2&#45;&gt;dir_4ab6b4cc6a7edbff49100e9123df213f -->
<g id="edge5" class="edge">
<title>dir_0189f3ad6abecd72f822a0c3914f12b2&#45;&gt;dir_4ab6b4cc6a7edbff49100e9123df213f</title>
<path fill="none" stroke="#000000" d="M184.5553,-143.9188C183.1973,-124.2988 178.3765,-92.9736 162,-72 146.9049,-52.6675 122.8897,-39.3772 102.177,-30.8196"/>
<polygon fill="#000000" stroke="#000000" points="103.2217,-27.4705 92.6332,-27.1047 100.6825,-33.9937 103.2217,-27.4705"/>
<g id="a_edge5&#45;headlabel"><a xlink:href="dir_000126_000018.html" target="_top" xlink:title="1">
<text text-anchor="middle" x="107.6014" y="-23.6284" font-family="Helvetica,sans-Serif" font-size="10.00" fill="#000000">1</text>
</a>
</g>
</g>
<!-- dir_0189f3ad6abecd72f822a0c3914f12b2&#45;&gt;dir_37c90836491b695b472bf98d1be8336b -->
<g id="edge6" class="edge">
<title>dir_0189f3ad6abecd72f822a0c3914f12b2&#45;&gt;dir_37c90836491b695b472bf98d1be8336b</title>
<path fill="none" stroke="#000000" d="M170.1118,-143.8314C163.247,-135.454 154.9699,-125.3531 147.4489,-116.1749"/>
<polygon fill="#000000" stroke="#000000" points="150.1341,-113.9297 141.0886,-108.4133 144.7197,-118.3665 150.1341,-113.9297"/>
<g id="a_edge6&#45;headlabel"><a xlink:href="dir_000126_000254.html" target="_top" xlink:title="1">
<text text-anchor="middle" x="154.6085" y="-112.4104" font-family="Helvetica,sans-Serif" font-size="10.00" fill="#000000">1</text>
</a>
</g>
</g>
<!-- dir_2171f7ec022c5423887b07c69b2f5b48&#45;&gt;dir_4ab6b4cc6a7edbff49100e9123df213f -->
<g id="edge12" class="edge">
<title>dir_2171f7ec022c5423887b07c69b2f5b48&#45;&gt;dir_4ab6b4cc6a7edbff49100e9123df213f</title>
<path fill="none" stroke="#000000" d="M57.3268,-143.7623C54.867,-119.201 54.5923,-75.2474 56.5026,-46.3541"/>
<polygon fill="#000000" stroke="#000000" points="60.0152,-46.3416 57.3417,-36.0896 53.0385,-45.7712 60.0152,-46.3416"/>
<g id="a_edge12&#45;headlabel"><a xlink:href="dir_000060_000018.html" target="_top" xlink:title="29">
<text text-anchor="middle" x="62.5522" y="-47.6556" font-family="Helvetica,sans-Serif" font-size="10.00" fill="#000000">29</text>
</a>
</g>
</g>
<!-- dir_2171f7ec022c5423887b07c69b2f5b48&#45;&gt;dir_37c90836491b695b472bf98d1be8336b -->
<g id="edge13" class="edge">
<title>dir_2171f7ec022c5423887b07c69b2f5b48&#45;&gt;dir_37c90836491b695b472bf98d1be8336b</title>
<path fill="none" stroke="#000000" d="M72.1975,-143.8314C78.8946,-135.3694 87.7943,-125.1489 96.4724,-115.8971"/>
<polygon fill="#000000" stroke="#000000" points="99.2563,-118.0511 103.6566,-108.4133 94.2065,-113.2034 99.2563,-118.0511"/>
<g id="a_edge13&#45;headlabel"><a xlink:href="dir_000060_000254.html" target="_top" xlink:title="1">
<text text-anchor="middle" x="98.8152" y="-120.1105" font-family="Helvetica,sans-Serif" font-size="10.00" fill="#000000">1</text>
</a>
</g>
</g>
</g>
</svg>
