<?xml version="1.0" encoding="UTF-8" standalone="no"?>
<!DOCTYPE svg PUBLIC "-//W3C//DTD SVG 1.1//EN"
 "http://www.w3.org/Graphics/SVG/1.1/DTD/svg11.dtd">
<!-- Generated by graphviz version 2.40.1 (20161225.0304)
 -->
<!-- Title: /home/travis/build/AliceO2Group/AliceO2/GPU/GPUTracking/TPCClusterFinder Pages: 1 -->
<svg width="199pt" height="223pt"
 viewBox="0.00 0.00 199.00 223.00" xmlns="http://www.w3.org/2000/svg" xmlns:xlink="http://www.w3.org/1999/xlink">
<g id="graph0" class="graph" transform="scale(1 1) rotate(0) translate(4 219)">
<title>/home/travis/build/AliceO2Group/AliceO2/GPU/GPUTracking/TPCClusterFinder</title>
<g id="clust1" class="cluster">
<title>clusterdir_77030b149987c946eb2e85728f65acc0</title>
<g id="a_clust1"><a xlink:href="dir_77030b149987c946eb2e85728f65acc0.html" target="_top" xlink:title="GPUTracking">
<polygon fill="#ddddee" stroke="#000000" points="8,-136 8,-207 124,-207 124,-136 8,-136"/>
<text text-anchor="middle" x="66" y="-195" font-family="Helvetica,sans-Serif" font-size="10.00" fill="#000000">GPUTracking</text>
</a>
</g>
</g>
<!-- dir_2add44c2e86b1ce794c82f89c520272d -->
<g id="node1" class="node">
<title>dir_2add44c2e86b1ce794c82f89c520272d</title>
<g id="a_node1"><a xlink:href="dir_2add44c2e86b1ce794c82f89c520272d.html" target="_top" xlink:title="TPCClusterFinder">
<polygon fill="#eeeeff" stroke="#000000" points="115.5,-180 16.5,-180 16.5,-144 115.5,-144 115.5,-180"/>
<text text-anchor="middle" x="66" y="-159.5" font-family="Helvetica,sans-Serif" font-size="10.00" fill="#000000">TPCClusterFinder</text>
</a>
</g>
</g>
<!-- dir_ba48ca66118492a4424f86e9da0f6902 -->
<g id="node2" class="node">
<title>dir_ba48ca66118492a4424f86e9da0f6902</title>
<g id="a_node2"><a xlink:href="dir_ba48ca66118492a4424f86e9da0f6902.html" target="_top" xlink:title="Common">
<polygon fill="none" stroke="#000000" points="96.5,-36 35.5,-36 35.5,0 96.5,0 96.5,-36"/>
<text text-anchor="middle" x="66" y="-15.5" font-family="Helvetica,sans-Serif" font-size="10.00" fill="#000000">Common</text>
</a>
</g>
</g>
<!-- dir_2add44c2e86b1ce794c82f89c520272d&#45;&gt;dir_ba48ca66118492a4424f86e9da0f6902 -->
<g id="edge2" class="edge">
<title>dir_2add44c2e86b1ce794c82f89c520272d&#45;&gt;dir_ba48ca66118492a4424f86e9da0f6902</title>
<path fill="none" stroke="#000000" d="M50.0095,-143.9169C42.3462,-134.0371 33.9834,-121.1563 30,-108 25.3635,-92.6865 25.3635,-87.3135 30,-72 32.9564,-62.2355 38.3252,-52.6229 44.03,-44.2762"/>
<polygon fill="#000000" stroke="#000000" points="46.9414,-46.2239 50.0095,-36.0831 41.2871,-42.0973 46.9414,-46.2239"/>
<g id="a_edge2&#45;headlabel"><a xlink:href="dir_000139_000618.html" target="_top" xlink:title="7">
<text text-anchor="middle" x="47.1158" y="-48.3013" font-family="Helvetica,sans-Serif" font-size="10.00" fill="#000000">7</text>
</a>
</g>
</g>
<!-- dir_442920581a03c66cf8c08ae559108050 -->
<g id="node3" class="node">
<title>dir_442920581a03c66cf8c08ae559108050</title>
<g id="a_node3"><a xlink:href="dir_442920581a03c66cf8c08ae559108050.html" target="_top" xlink:title="Base">
<polygon fill="none" stroke="#ff0000" points="93,-108 39,-108 39,-72 93,-72 93,-108"/>
<text text-anchor="middle" x="66" y="-87.5" font-family="Helvetica,sans-Serif" font-size="10.00" fill="#000000">Base</text>
</a>
</g>
</g>
<!-- dir_2add44c2e86b1ce794c82f89c520272d&#45;&gt;dir_442920581a03c66cf8c08ae559108050 -->
<g id="edge3" class="edge">
<title>dir_2add44c2e86b1ce794c82f89c520272d&#45;&gt;dir_442920581a03c66cf8c08ae559108050</title>
<path fill="none" stroke="#000000" d="M66,-143.8314C66,-136.131 66,-126.9743 66,-118.4166"/>
<polygon fill="#000000" stroke="#000000" points="69.5001,-118.4132 66,-108.4133 62.5001,-118.4133 69.5001,-118.4132"/>
<g id="a_edge3&#45;headlabel"><a xlink:href="dir_000139_000619.html" target="_top" xlink:title="7">
<text text-anchor="middle" x="72.3393" y="-119.5079" font-family="Helvetica,sans-Serif" font-size="10.00" fill="#000000">7</text>
</a>
</g>
</g>
<!-- dir_2171f7ec022c5423887b07c69b2f5b48 -->
<g id="node4" class="node">
<title>dir_2171f7ec022c5423887b07c69b2f5b48</title>
<g id="a_node4"><a xlink:href="dir_2171f7ec022c5423887b07c69b2f5b48.html" target="_top" xlink:title="DataFormats">
<polygon fill="none" stroke="#ff0000" points="191,-108 111,-108 111,-72 191,-72 191,-108"/>
<text text-anchor="middle" x="151" y="-87.5" font-family="Helvetica,sans-Serif" font-size="10.00" fill="#000000">DataFormats</text>
</a>
</g>
</g>
<!-- dir_2add44c2e86b1ce794c82f89c520272d&#45;&gt;dir_2171f7ec022c5423887b07c69b2f5b48 -->
<g id="edge4" class="edge">
<title>dir_2add44c2e86b1ce794c82f89c520272d&#45;&gt;dir_2171f7ec022c5423887b07c69b2f5b48</title>
<path fill="none" stroke="#000000" d="M87.4491,-143.8314C97.8178,-135.0485 110.4229,-124.3712 121.6646,-114.8489"/>
<polygon fill="#000000" stroke="#000000" points="124.1895,-117.297 129.5578,-108.1628 119.6651,-111.9556 124.1895,-117.297"/>
<g id="a_edge4&#45;headlabel"><a xlink:href="dir_000139_000060.html" target="_top" xlink:title="3">
<text text-anchor="middle" x="123.2818" y="-119.2868" font-family="Helvetica,sans-Serif" font-size="10.00" fill="#000000">3</text>
</a>
</g>
</g>
<!-- dir_442920581a03c66cf8c08ae559108050&#45;&gt;dir_ba48ca66118492a4424f86e9da0f6902 -->
<g id="edge1" class="edge">
<title>dir_442920581a03c66cf8c08ae559108050&#45;&gt;dir_ba48ca66118492a4424f86e9da0f6902</title>
<path fill="none" stroke="#000000" d="M66,-71.8314C66,-64.131 66,-54.9743 66,-46.4166"/>
<polygon fill="#000000" stroke="#000000" points="69.5001,-46.4132 66,-36.4133 62.5001,-46.4133 69.5001,-46.4132"/>
<g id="a_edge1&#45;headlabel"><a xlink:href="dir_000619_000618.html" target="_top" xlink:title="27">
<text text-anchor="middle" x="72.3393" y="-47.5079" font-family="Helvetica,sans-Serif" font-size="10.00" fill="#000000">27</text>
</a>
</g>
</g>
<!-- dir_2171f7ec022c5423887b07c69b2f5b48&#45;&gt;dir_ba48ca66118492a4424f86e9da0f6902 -->
<g id="edge5" class="edge">
<title>dir_2171f7ec022c5423887b07c69b2f5b48&#45;&gt;dir_ba48ca66118492a4424f86e9da0f6902</title>
<path fill="none" stroke="#000000" d="M129.5509,-71.8314C119.1822,-63.0485 106.5771,-52.3712 95.3354,-42.8489"/>
<polygon fill="#000000" stroke="#000000" points="97.3349,-39.9556 87.4422,-36.1628 92.8105,-45.297 97.3349,-39.9556"/>
<g id="a_edge5&#45;headlabel"><a xlink:href="dir_000060_000618.html" target="_top" xlink:title="9">
<text text-anchor="middle" x="101.9129" y="-37.6125" font-family="Helvetica,sans-Serif" font-size="10.00" fill="#000000">9</text>
</a>
</g>
</g>
</g>
</svg>
