<?xml version="1.0" encoding="UTF-8" standalone="no"?>
<!DOCTYPE svg PUBLIC "-//W3C//DTD SVG 1.1//EN"
 "http://www.w3.org/Graphics/SVG/1.1/DTD/svg11.dtd">
<!-- Generated by graphviz version 2.40.1 (20161225.0304)
 -->
<!-- Title: /home/travis/build/AliceO2Group/AliceO2/Detectors/MUON/MID Pages: 1 -->
<svg width="674pt" height="591pt"
 viewBox="0.00 0.00 674.00 591.00" xmlns="http://www.w3.org/2000/svg" xmlns:xlink="http://www.w3.org/1999/xlink">
<g id="graph0" class="graph" transform="scale(1 1) rotate(0) translate(4 587)">
<title>/home/travis/build/AliceO2Group/AliceO2/Detectors/MUON/MID</title>
<g id="clust1" class="cluster">
<title>clusterdir_1cc233fd3b1202b9dad36810b41b97af</title>
<g id="a_clust1"><a xlink:href="dir_1cc233fd3b1202b9dad36810b41b97af.html" target="_top" xlink:title="MUON">
<polygon fill="#ddddee" stroke="#000000" points="164,-200 164,-575 424,-575 424,-200 164,-200"/>
<text text-anchor="middle" x="294" y="-563" font-family="Helvetica,sans-Serif" font-size="10.00" fill="#000000">MUON</text>
</a>
</g>
</g>
<g id="clust2" class="cluster">
<title>clusterdir_9e24c537087392bd208449d0b48c466c</title>
<g id="a_clust2"><a xlink:href="dir_9e24c537087392bd208449d0b48c466c.html" target="_top">
<polygon fill="#eeeeff" stroke="#000000" points="172,-208 172,-548 416,-548 416,-208 172,-208"/>
</a>
</g>
</g>
<!-- dir_9e24c537087392bd208449d0b48c466c -->
<g id="node1" class="node">
<title>dir_9e24c537087392bd208449d0b48c466c</title>
<text text-anchor="middle" x="358" y="-519.5" font-family="Helvetica,sans-Serif" font-size="10.00" fill="#000000">MID</text>
</g>
<!-- dir_b5547b1068d53f0f904ee5a2a84992af -->
<g id="node2" class="node">
<title>dir_b5547b1068d53f0f904ee5a2a84992af</title>
<g id="a_node2"><a xlink:href="dir_b5547b1068d53f0f904ee5a2a84992af.html" target="_top" xlink:title="Base">
<polygon fill="#ffffff" stroke="#ff0000" points="335,-252 281,-252 281,-216 335,-216 335,-252"/>
<text text-anchor="middle" x="308" y="-231.5" font-family="Helvetica,sans-Serif" font-size="10.00" fill="#000000">Base</text>
</a>
</g>
</g>
<!-- dir_4ab6b4cc6a7edbff49100e9123df213f -->
<g id="node9" class="node">
<title>dir_4ab6b4cc6a7edbff49100e9123df213f</title>
<g id="a_node9"><a xlink:href="dir_4ab6b4cc6a7edbff49100e9123df213f.html" target="_top" xlink:title="Common">
<polygon fill="none" stroke="#ff0000" points="336.5,-180 275.5,-180 275.5,-144 336.5,-144 336.5,-180"/>
<text text-anchor="middle" x="306" y="-159.5" font-family="Helvetica,sans-Serif" font-size="10.00" fill="#000000">Common</text>
</a>
</g>
</g>
<!-- dir_b5547b1068d53f0f904ee5a2a84992af&#45;&gt;dir_4ab6b4cc6a7edbff49100e9123df213f -->
<g id="edge31" class="edge">
<title>dir_b5547b1068d53f0f904ee5a2a84992af&#45;&gt;dir_4ab6b4cc6a7edbff49100e9123df213f</title>
<path fill="none" stroke="#000000" d="M307.4953,-215.8314C307.2814,-208.131 307.0271,-198.9743 306.7894,-190.4166"/>
<polygon fill="#000000" stroke="#000000" points="310.2879,-190.3122 306.5115,-180.4133 303.2906,-190.5066 310.2879,-190.3122"/>
<g id="a_edge31&#45;headlabel"><a xlink:href="dir_000473_000018.html" target="_top" xlink:title="1">
<text text-anchor="middle" x="313.2258" y="-191.3266" font-family="Helvetica,sans-Serif" font-size="10.00" fill="#000000">1</text>
</a>
</g>
</g>
<!-- dir_754f2fe7806627988f6bd801b7f2fe5b -->
<g id="node3" class="node">
<title>dir_754f2fe7806627988f6bd801b7f2fe5b</title>
<g id="a_node3"><a xlink:href="dir_754f2fe7806627988f6bd801b7f2fe5b.html" target="_top" xlink:title="Clustering">
<polygon fill="#ffffff" stroke="#ff0000" points="368,-396 302,-396 302,-360 368,-360 368,-396"/>
<text text-anchor="middle" x="335" y="-375.5" font-family="Helvetica,sans-Serif" font-size="10.00" fill="#000000">Clustering</text>
</a>
</g>
</g>
<!-- dir_754f2fe7806627988f6bd801b7f2fe5b&#45;&gt;dir_b5547b1068d53f0f904ee5a2a84992af -->
<g id="edge2" class="edge">
<title>dir_754f2fe7806627988f6bd801b7f2fe5b&#45;&gt;dir_b5547b1068d53f0f904ee5a2a84992af</title>
<path fill="none" stroke="#000000" d="M332.2404,-359.6769C329.4268,-341.4544 324.8039,-312.7241 320,-288 318.3772,-279.6479 316.4404,-270.6094 314.6014,-262.3598"/>
<polygon fill="#000000" stroke="#000000" points="317.9779,-261.423 312.3551,-252.4433 311.1509,-262.9695 317.9779,-261.423"/>
<g id="a_edge2&#45;headlabel"><a xlink:href="dir_000337_000473.html" target="_top" xlink:title="8">
<text text-anchor="middle" x="321.5411" y="-261.8015" font-family="Helvetica,sans-Serif" font-size="10.00" fill="#000000">8</text>
</a>
</g>
</g>
<!-- dir_2171f7ec022c5423887b07c69b2f5b48 -->
<g id="node13" class="node">
<title>dir_2171f7ec022c5423887b07c69b2f5b48</title>
<g id="a_node13"><a xlink:href="dir_2171f7ec022c5423887b07c69b2f5b48.html" target="_top" xlink:title="DataFormats">
<polygon fill="none" stroke="#ff0000" points="433,-108 353,-108 353,-72 433,-72 433,-108"/>
<text text-anchor="middle" x="393" y="-87.5" font-family="Helvetica,sans-Serif" font-size="10.00" fill="#000000">DataFormats</text>
</a>
</g>
</g>
<!-- dir_754f2fe7806627988f6bd801b7f2fe5b&#45;&gt;dir_2171f7ec022c5423887b07c69b2f5b48 -->
<g id="edge3" class="edge">
<title>dir_754f2fe7806627988f6bd801b7f2fe5b&#45;&gt;dir_2171f7ec022c5423887b07c69b2f5b48</title>
<path fill="none" stroke="#000000" d="M368.2966,-375.1954C426.2183,-369.5514 541.6855,-354.6539 566,-324 615.715,-261.3229 613.3975,-208.4475 566,-144 551.2689,-123.9699 488.7886,-108.0899 443.1317,-98.8701"/>
<polygon fill="#000000" stroke="#000000" points="443.5768,-95.3906 433.0891,-96.8935 442.225,-102.2588 443.5768,-95.3906"/>
<g id="a_edge3&#45;headlabel"><a xlink:href="dir_000337_000060.html" target="_top" xlink:title="5">
<text text-anchor="middle" x="447.652" y="-90.7988" font-family="Helvetica,sans-Serif" font-size="10.00" fill="#000000">5</text>
</a>
</g>
</g>
<!-- dir_55bb03bc4479a61c5f6db133927cb48c -->
<g id="node4" class="node">
<title>dir_55bb03bc4479a61c5f6db133927cb48c</title>
<g id="a_node4"><a xlink:href="dir_55bb03bc4479a61c5f6db133927cb48c.html" target="_top" xlink:title="Raw">
<polygon fill="#ffffff" stroke="#ff0000" points="408,-324 354,-324 354,-288 408,-288 408,-324"/>
<text text-anchor="middle" x="381" y="-303.5" font-family="Helvetica,sans-Serif" font-size="10.00" fill="#000000">Raw</text>
</a>
</g>
</g>
<!-- dir_55bb03bc4479a61c5f6db133927cb48c&#45;&gt;dir_b5547b1068d53f0f904ee5a2a84992af -->
<g id="edge15" class="edge">
<title>dir_55bb03bc4479a61c5f6db133927cb48c&#45;&gt;dir_b5547b1068d53f0f904ee5a2a84992af</title>
<path fill="none" stroke="#000000" d="M362.579,-287.8314C353.8471,-279.219 343.2683,-268.7851 333.7577,-259.4048"/>
<polygon fill="#000000" stroke="#000000" points="335.9925,-256.6931 326.4151,-252.1628 331.077,-261.6769 335.9925,-256.6931"/>
<g id="a_edge15&#45;headlabel"><a xlink:href="dir_000340_000473.html" target="_top" xlink:title="7">
<text text-anchor="middle" x="340.5455" y="-254.6958" font-family="Helvetica,sans-Serif" font-size="10.00" fill="#000000">7</text>
</a>
</g>
</g>
<!-- dir_55bb03bc4479a61c5f6db133927cb48c&#45;&gt;dir_4ab6b4cc6a7edbff49100e9123df213f -->
<g id="edge14" class="edge">
<title>dir_55bb03bc4479a61c5f6db133927cb48c&#45;&gt;dir_4ab6b4cc6a7edbff49100e9123df213f</title>
<path fill="none" stroke="#000000" d="M377.2437,-287.651C372.1537,-265.599 361.6186,-228.0637 344,-200 341.2793,-195.6664 337.9803,-191.4455 334.4757,-187.488"/>
<polygon fill="#000000" stroke="#000000" points="337.0095,-185.0735 327.5805,-180.2418 331.9384,-189.8989 337.0095,-185.0735"/>
<g id="a_edge14&#45;headlabel"><a xlink:href="dir_000340_000018.html" target="_top" xlink:title="1">
<text text-anchor="middle" x="341.5442" y="-183.2204" font-family="Helvetica,sans-Serif" font-size="10.00" fill="#000000">1</text>
</a>
</g>
</g>
<!-- dir_26637d1bd82229bc9ed97f7e706be743 -->
<g id="node12" class="node">
<title>dir_26637d1bd82229bc9ed97f7e706be743</title>
<g id="a_node12"><a xlink:href="dir_26637d1bd82229bc9ed97f7e706be743.html" target="_top" xlink:title="Raw">
<polygon fill="none" stroke="#ff0000" points="486,-252 432,-252 432,-216 486,-216 486,-252"/>
<text text-anchor="middle" x="459" y="-231.5" font-family="Helvetica,sans-Serif" font-size="10.00" fill="#000000">Raw</text>
</a>
</g>
</g>
<!-- dir_55bb03bc4479a61c5f6db133927cb48c&#45;&gt;dir_26637d1bd82229bc9ed97f7e706be743 -->
<g id="edge16" class="edge">
<title>dir_55bb03bc4479a61c5f6db133927cb48c&#45;&gt;dir_26637d1bd82229bc9ed97f7e706be743</title>
<path fill="none" stroke="#000000" d="M400.6827,-287.8314C410.1051,-279.1337 421.5401,-268.5783 431.7796,-259.1265"/>
<polygon fill="#000000" stroke="#000000" points="434.3495,-261.5175 439.3236,-252.1628 429.6016,-256.3738 434.3495,-261.5175"/>
<g id="a_edge16&#45;headlabel"><a xlink:href="dir_000340_000505.html" target="_top" xlink:title="1">
<text text-anchor="middle" x="433.634" y="-263.5419" font-family="Helvetica,sans-Serif" font-size="10.00" fill="#000000">1</text>
</a>
</g>
</g>
<!-- dir_55bb03bc4479a61c5f6db133927cb48c&#45;&gt;dir_2171f7ec022c5423887b07c69b2f5b48 -->
<g id="edge17" class="edge">
<title>dir_55bb03bc4479a61c5f6db133927cb48c&#45;&gt;dir_2171f7ec022c5423887b07c69b2f5b48</title>
<path fill="none" stroke="#000000" d="M408.1495,-301.6307C435.4162,-295.6402 476.0283,-281.979 495,-252 525.8434,-203.2613 467.9942,-146.1549 427.5286,-114.4241"/>
<polygon fill="#000000" stroke="#000000" points="429.5155,-111.5373 419.4473,-108.2383 425.2607,-117.0958 429.5155,-111.5373"/>
<g id="a_edge17&#45;headlabel"><a xlink:href="dir_000340_000060.html" target="_top" xlink:title="17">
<text text-anchor="middle" x="434.0956" y="-108.9676" font-family="Helvetica,sans-Serif" font-size="10.00" fill="#000000">17</text>
</a>
</g>
</g>
<!-- dir_2810eaf0225063d73e08d8eeeb8a37b8 -->
<g id="node5" class="node">
<title>dir_2810eaf0225063d73e08d8eeeb8a37b8</title>
<g id="a_node5"><a xlink:href="dir_2810eaf0225063d73e08d8eeeb8a37b8.html" target="_top" xlink:title="Simulation">
<polygon fill="#ffffff" stroke="#ff0000" points="249.5,-468 180.5,-468 180.5,-432 249.5,-432 249.5,-468"/>
<text text-anchor="middle" x="215" y="-447.5" font-family="Helvetica,sans-Serif" font-size="10.00" fill="#000000">Simulation</text>
</a>
</g>
</g>
<!-- dir_2810eaf0225063d73e08d8eeeb8a37b8&#45;&gt;dir_b5547b1068d53f0f904ee5a2a84992af -->
<g id="edge23" class="edge">
<title>dir_2810eaf0225063d73e08d8eeeb8a37b8&#45;&gt;dir_b5547b1068d53f0f904ee5a2a84992af</title>
<path fill="none" stroke="#000000" d="M205.1675,-431.8218C189.4289,-399.9965 163.1381,-333.2717 192,-288 209.26,-260.9267 244.0067,-247.2109 270.9927,-240.3995"/>
<polygon fill="#000000" stroke="#000000" points="271.9453,-243.7717 280.9027,-238.1136 270.3719,-236.9509 271.9453,-243.7717"/>
<g id="a_edge23&#45;headlabel"><a xlink:href="dir_000146_000473.html" target="_top" xlink:title="10">
<text text-anchor="middle" x="269.0808" y="-244.8462" font-family="Helvetica,sans-Serif" font-size="10.00" fill="#000000">10</text>
</a>
</g>
</g>
<!-- dir_2810eaf0225063d73e08d8eeeb8a37b8&#45;&gt;dir_754f2fe7806627988f6bd801b7f2fe5b -->
<g id="edge19" class="edge">
<title>dir_2810eaf0225063d73e08d8eeeb8a37b8&#45;&gt;dir_754f2fe7806627988f6bd801b7f2fe5b</title>
<path fill="none" stroke="#000000" d="M245.2811,-431.8314C260.6298,-422.6221 279.4498,-411.3301 295.8823,-401.4706"/>
<polygon fill="#000000" stroke="#000000" points="297.9544,-404.3091 304.7286,-396.1628 294.3529,-398.3066 297.9544,-404.3091"/>
<g id="a_edge19&#45;headlabel"><a xlink:href="dir_000146_000337.html" target="_top" xlink:title="5">
<text text-anchor="middle" x="296.3329" y="-406.0931" font-family="Helvetica,sans-Serif" font-size="10.00" fill="#000000">5</text>
</a>
</g>
</g>
<!-- dir_3ffb816f6d71c6665c34f0fe3ab9978a -->
<g id="node6" class="node">
<title>dir_3ffb816f6d71c6665c34f0fe3ab9978a</title>
<g id="a_node6"><a xlink:href="dir_3ffb816f6d71c6665c34f0fe3ab9978a.html" target="_top" xlink:title="TestingSimTools">
<polygon fill="#ffffff" stroke="#ff0000" points="295.5,-324 200.5,-324 200.5,-288 295.5,-288 295.5,-324"/>
<text text-anchor="middle" x="248" y="-303.5" font-family="Helvetica,sans-Serif" font-size="10.00" fill="#000000">TestingSimTools</text>
</a>
</g>
</g>
<!-- dir_2810eaf0225063d73e08d8eeeb8a37b8&#45;&gt;dir_3ffb816f6d71c6665c34f0fe3ab9978a -->
<g id="edge22" class="edge">
<title>dir_2810eaf0225063d73e08d8eeeb8a37b8&#45;&gt;dir_3ffb816f6d71c6665c34f0fe3ab9978a</title>
<path fill="none" stroke="#000000" d="M213.1323,-431.6933C211.8203,-413.2359 211.323,-384.1063 218,-360 220.6069,-350.5883 225.1551,-341.0396 229.9337,-332.6422"/>
<polygon fill="#000000" stroke="#000000" points="232.9535,-334.4123 235.1285,-324.0431 226.9619,-330.7927 232.9535,-334.4123"/>
<g id="a_edge22&#45;headlabel"><a xlink:href="dir_000146_000510.html" target="_top" xlink:title="2">
<text text-anchor="middle" x="233.5251" y="-336.4571" font-family="Helvetica,sans-Serif" font-size="10.00" fill="#000000">2</text>
</a>
</g>
</g>
<!-- dir_c6781640d5720511e35c6e7f87460ee7 -->
<g id="node7" class="node">
<title>dir_c6781640d5720511e35c6e7f87460ee7</title>
<g id="a_node7"><a xlink:href="dir_c6781640d5720511e35c6e7f87460ee7.html" target="_top" xlink:title="Tracking">
<polygon fill="#ffffff" stroke="#ff0000" points="283.5,-396 226.5,-396 226.5,-360 283.5,-360 283.5,-396"/>
<text text-anchor="middle" x="255" y="-375.5" font-family="Helvetica,sans-Serif" font-size="10.00" fill="#000000">Tracking</text>
</a>
</g>
</g>
<!-- dir_2810eaf0225063d73e08d8eeeb8a37b8&#45;&gt;dir_c6781640d5720511e35c6e7f87460ee7 -->
<g id="edge21" class="edge">
<title>dir_2810eaf0225063d73e08d8eeeb8a37b8&#45;&gt;dir_c6781640d5720511e35c6e7f87460ee7</title>
<path fill="none" stroke="#000000" d="M225.0937,-431.8314C229.5597,-423.7925 234.9075,-414.1666 239.8379,-405.2918"/>
<polygon fill="#000000" stroke="#000000" points="242.9735,-406.8546 244.7704,-396.4133 236.8544,-403.4551 242.9735,-406.8546"/>
<g id="a_edge21&#45;headlabel"><a xlink:href="dir_000146_000458.html" target="_top" xlink:title="1">
<text text-anchor="middle" x="243.7098" y="-408.8757" font-family="Helvetica,sans-Serif" font-size="10.00" fill="#000000">1</text>
</a>
</g>
</g>
<!-- dir_2810eaf0225063d73e08d8eeeb8a37b8&#45;&gt;dir_4ab6b4cc6a7edbff49100e9123df213f -->
<g id="edge18" class="edge">
<title>dir_2810eaf0225063d73e08d8eeeb8a37b8&#45;&gt;dir_4ab6b4cc6a7edbff49100e9123df213f</title>
<path fill="none" stroke="#000000" d="M197.8903,-431.5262C189.9541,-421.7371 181.3337,-409.0559 177,-396 161.8759,-350.4363 158.2598,-332.995 175,-288 191.7167,-243.0683 234.7286,-207.0909 266.9384,-185.2641"/>
<polygon fill="#000000" stroke="#000000" points="268.8685,-188.1839 275.2881,-179.7554 265.0136,-182.3409 268.8685,-188.1839"/>
<g id="a_edge18&#45;headlabel"><a xlink:href="dir_000146_000018.html" target="_top" xlink:title="6">
<text text-anchor="middle" x="267.4316" y="-190.0333" font-family="Helvetica,sans-Serif" font-size="10.00" fill="#000000">6</text>
</a>
</g>
</g>
<!-- dir_37c90836491b695b472bf98d1be8336b -->
<g id="node10" class="node">
<title>dir_37c90836491b695b472bf98d1be8336b</title>
<g id="a_node10"><a xlink:href="dir_37c90836491b695b472bf98d1be8336b.html" target="_top" xlink:title="Base">
<polygon fill="none" stroke="#ff0000" points="314,-36 260,-36 260,0 314,0 314,-36"/>
<text text-anchor="middle" x="287" y="-15.5" font-family="Helvetica,sans-Serif" font-size="10.00" fill="#000000">Base</text>
</a>
</g>
</g>
<!-- dir_2810eaf0225063d73e08d8eeeb8a37b8&#45;&gt;dir_37c90836491b695b472bf98d1be8336b -->
<g id="edge20" class="edge">
<title>dir_2810eaf0225063d73e08d8eeeb8a37b8&#45;&gt;dir_37c90836491b695b472bf98d1be8336b</title>
<path fill="none" stroke="#000000" d="M190.0449,-431.8333C179.295,-422.4706 167.8632,-410.0646 162,-396 143.5297,-351.6937 152.9097,-335.3154 161,-288 177.4218,-191.9589 237.8912,-91.077 268.699,-44.4722"/>
<polygon fill="#000000" stroke="#000000" points="271.6131,-46.4108 274.2662,-36.1535 265.7956,-42.5175 271.6131,-46.4108"/>
<g id="a_edge20&#45;headlabel"><a xlink:href="dir_000146_000254.html" target="_top" xlink:title="3">
<text text-anchor="middle" x="271.9735" y="-48.4772" font-family="Helvetica,sans-Serif" font-size="10.00" fill="#000000">3</text>
</a>
</g>
</g>
<!-- dir_2810eaf0225063d73e08d8eeeb8a37b8&#45;&gt;dir_2171f7ec022c5423887b07c69b2f5b48 -->
<g id="edge24" class="edge">
<title>dir_2810eaf0225063d73e08d8eeeb8a37b8&#45;&gt;dir_2171f7ec022c5423887b07c69b2f5b48</title>
<path fill="none" stroke="#000000" d="M249.5018,-445.5443C348.7621,-431.7709 628,-385.9213 628,-306 628,-306 628,-306 628,-234 628,-190.5807 622.6597,-172.6108 590,-144 568.1806,-124.8857 493.7992,-108.1489 442.9445,-98.5568"/>
<polygon fill="#000000" stroke="#000000" points="443.58,-95.115 433.1098,-96.735 442.305,-101.9979 443.58,-95.115"/>
<g id="a_edge24&#45;headlabel"><a xlink:href="dir_000146_000060.html" target="_top" xlink:title="28">
<text text-anchor="middle" x="447.6316" y="-90.4779" font-family="Helvetica,sans-Serif" font-size="10.00" fill="#000000">28</text>
</a>
</g>
</g>
<!-- dir_3ffb816f6d71c6665c34f0fe3ab9978a&#45;&gt;dir_b5547b1068d53f0f904ee5a2a84992af -->
<g id="edge29" class="edge">
<title>dir_3ffb816f6d71c6665c34f0fe3ab9978a&#45;&gt;dir_b5547b1068d53f0f904ee5a2a84992af</title>
<path fill="none" stroke="#000000" d="M263.1405,-287.8314C270.1217,-279.454 278.5391,-269.3531 286.1876,-260.1749"/>
<polygon fill="#000000" stroke="#000000" points="288.9425,-262.3362 292.6556,-252.4133 283.5649,-257.8548 288.9425,-262.3362"/>
<g id="a_edge29&#45;headlabel"><a xlink:href="dir_000510_000473.html" target="_top" xlink:title="3">
<text text-anchor="middle" x="288.8225" y="-264.4152" font-family="Helvetica,sans-Serif" font-size="10.00" fill="#000000">3</text>
</a>
</g>
</g>
<!-- dir_3ffb816f6d71c6665c34f0fe3ab9978a&#45;&gt;dir_4ab6b4cc6a7edbff49100e9123df213f -->
<g id="edge28" class="edge">
<title>dir_3ffb816f6d71c6665c34f0fe3ab9978a&#45;&gt;dir_4ab6b4cc6a7edbff49100e9123df213f</title>
<path fill="none" stroke="#000000" d="M249.3267,-287.801C251.5357,-265.8967 257.2936,-228.5067 272,-200 274.1118,-195.9066 276.7696,-191.9073 279.6644,-188.1331"/>
<polygon fill="#000000" stroke="#000000" points="282.5081,-190.1893 286.2598,-180.2809 277.148,-185.6871 282.5081,-190.1893"/>
<g id="a_edge28&#45;headlabel"><a xlink:href="dir_000510_000018.html" target="_top" xlink:title="1">
<text text-anchor="middle" x="282.3703" y="-192.2679" font-family="Helvetica,sans-Serif" font-size="10.00" fill="#000000">1</text>
</a>
</g>
</g>
<!-- dir_3ffb816f6d71c6665c34f0fe3ab9978a&#45;&gt;dir_2171f7ec022c5423887b07c69b2f5b48 -->
<g id="edge30" class="edge">
<title>dir_3ffb816f6d71c6665c34f0fe3ab9978a&#45;&gt;dir_2171f7ec022c5423887b07c69b2f5b48</title>
<path fill="none" stroke="#000000" d="M295.6849,-288.1483C313.0288,-279.5607 331.4363,-267.6621 344,-252 375.6584,-212.5342 386.8971,-152.8694 390.8627,-118.032"/>
<polygon fill="#000000" stroke="#000000" points="394.3463,-118.3698 391.8744,-108.0673 387.3821,-117.6626 394.3463,-118.3698"/>
<g id="a_edge30&#45;headlabel"><a xlink:href="dir_000510_000060.html" target="_top" xlink:title="3">
<text text-anchor="middle" x="396.808" y="-119.7328" font-family="Helvetica,sans-Serif" font-size="10.00" fill="#000000">3</text>
</a>
</g>
</g>
<!-- dir_c6781640d5720511e35c6e7f87460ee7&#45;&gt;dir_b5547b1068d53f0f904ee5a2a84992af -->
<g id="edge26" class="edge">
<title>dir_c6781640d5720511e35c6e7f87460ee7&#45;&gt;dir_b5547b1068d53f0f904ee5a2a84992af</title>
<path fill="none" stroke="#000000" d="M277.9252,-359.9979C288.1951,-350.5059 299.2662,-337.9435 305,-324 313.0518,-304.4195 313.4245,-280.3699 311.9892,-262.0588"/>
<polygon fill="#000000" stroke="#000000" points="315.4625,-261.6173 310.9796,-252.0177 308.4977,-262.3177 315.4625,-261.6173"/>
<g id="a_edge26&#45;headlabel"><a xlink:href="dir_000458_000473.html" target="_top" xlink:title="6">
<text text-anchor="middle" x="318.6471" y="-262.4099" font-family="Helvetica,sans-Serif" font-size="10.00" fill="#000000">6</text>
</a>
</g>
</g>
<!-- dir_c6781640d5720511e35c6e7f87460ee7&#45;&gt;dir_3ffb816f6d71c6665c34f0fe3ab9978a -->
<g id="edge25" class="edge">
<title>dir_c6781640d5720511e35c6e7f87460ee7&#45;&gt;dir_3ffb816f6d71c6665c34f0fe3ab9978a</title>
<path fill="none" stroke="#000000" d="M253.2336,-359.8314C252.485,-352.131 251.5947,-342.9743 250.7627,-334.4166"/>
<polygon fill="#000000" stroke="#000000" points="254.2415,-334.0276 249.7902,-324.4133 247.2744,-334.7051 254.2415,-334.0276"/>
<g id="a_edge25&#45;headlabel"><a xlink:href="dir_000458_000510.html" target="_top" xlink:title="4">
<text text-anchor="middle" x="257.4152" y="-334.8307" font-family="Helvetica,sans-Serif" font-size="10.00" fill="#000000">4</text>
</a>
</g>
</g>
<!-- dir_c6781640d5720511e35c6e7f87460ee7&#45;&gt;dir_2171f7ec022c5423887b07c69b2f5b48 -->
<g id="edge27" class="edge">
<title>dir_c6781640d5720511e35c6e7f87460ee7&#45;&gt;dir_2171f7ec022c5423887b07c69b2f5b48</title>
<path fill="none" stroke="#000000" d="M283.8393,-363.7556C286.9033,-362.418 289.9967,-361.1389 293,-360 394.847,-321.3777 464.2876,-349.4248 513,-252 534.9899,-208.0202 521.851,-180.5868 489,-144 476.2802,-129.8337 458.9338,-118.5186 442.4833,-109.9797"/>
<polygon fill="#000000" stroke="#000000" points="443.9865,-106.8185 433.4714,-105.521 440.8823,-113.0926 443.9865,-106.8185"/>
<g id="a_edge27&#45;headlabel"><a xlink:href="dir_000458_000060.html" target="_top" xlink:title="8">
<text text-anchor="middle" x="448.4674" y="-103.3677" font-family="Helvetica,sans-Serif" font-size="10.00" fill="#000000">8</text>
</a>
</g>
</g>
<!-- dir_541a9f579a56d3c8f641580c9f97913d -->
<g id="node8" class="node">
<title>dir_541a9f579a56d3c8f641580c9f97913d</title>
<g id="a_node8"><a xlink:href="dir_541a9f579a56d3c8f641580c9f97913d.html" target="_top" xlink:title="Workflow">
<polygon fill="#ffffff" stroke="#ff0000" points="268,-540 206,-540 206,-504 268,-504 268,-540"/>
<text text-anchor="middle" x="237" y="-519.5" font-family="Helvetica,sans-Serif" font-size="10.00" fill="#000000">Workflow</text>
</a>
</g>
</g>
<!-- dir_541a9f579a56d3c8f641580c9f97913d&#45;&gt;dir_754f2fe7806627988f6bd801b7f2fe5b -->
<g id="edge7" class="edge">
<title>dir_541a9f579a56d3c8f641580c9f97913d&#45;&gt;dir_754f2fe7806627988f6bd801b7f2fe5b</title>
<path fill="none" stroke="#000000" d="M249.4118,-503.7623C266.4952,-478.66 297.3641,-433.3017 316.9877,-404.4671"/>
<polygon fill="#000000" stroke="#000000" points="319.9562,-406.326 322.689,-396.0896 314.1692,-402.3876 319.9562,-406.326"/>
<g id="a_edge7&#45;headlabel"><a xlink:href="dir_000353_000337.html" target="_top" xlink:title="5">
<text text-anchor="middle" x="320.2811" y="-408.3951" font-family="Helvetica,sans-Serif" font-size="10.00" fill="#000000">5</text>
</a>
</g>
</g>
<!-- dir_541a9f579a56d3c8f641580c9f97913d&#45;&gt;dir_55bb03bc4479a61c5f6db133927cb48c -->
<g id="edge9" class="edge">
<title>dir_541a9f579a56d3c8f641580c9f97913d&#45;&gt;dir_55bb03bc4479a61c5f6db133927cb48c</title>
<path fill="none" stroke="#000000" d="M268.1492,-504.4302C301.8359,-483.4913 353.8205,-445.0837 377,-396 386.0446,-376.8477 386.6395,-352.7733 385.1934,-334.3437"/>
<polygon fill="#000000" stroke="#000000" points="388.6576,-333.8151 384.1545,-324.2249 381.6942,-334.5301 388.6576,-333.8151"/>
<g id="a_edge9&#45;headlabel"><a xlink:href="dir_000353_000340.html" target="_top" xlink:title="4">
<text text-anchor="middle" x="391.849" y="-334.601" font-family="Helvetica,sans-Serif" font-size="10.00" fill="#000000">4</text>
</a>
</g>
</g>
<!-- dir_541a9f579a56d3c8f641580c9f97913d&#45;&gt;dir_2810eaf0225063d73e08d8eeeb8a37b8 -->
<g id="edge10" class="edge">
<title>dir_541a9f579a56d3c8f641580c9f97913d&#45;&gt;dir_2810eaf0225063d73e08d8eeeb8a37b8</title>
<path fill="none" stroke="#000000" d="M231.4485,-503.8314C229.0697,-496.0463 226.2362,-486.7729 223.5967,-478.1347"/>
<polygon fill="#000000" stroke="#000000" points="226.8958,-476.954 220.6263,-468.4133 220.2013,-478.9996 226.8958,-476.954"/>
<g id="a_edge10&#45;headlabel"><a xlink:href="dir_000353_000146.html" target="_top" xlink:title="10">
<text text-anchor="middle" x="230.6614" y="-477.062" font-family="Helvetica,sans-Serif" font-size="10.00" fill="#000000">10</text>
</a>
</g>
</g>
<!-- dir_541a9f579a56d3c8f641580c9f97913d&#45;&gt;dir_c6781640d5720511e35c6e7f87460ee7 -->
<g id="edge11" class="edge">
<title>dir_541a9f579a56d3c8f641580c9f97913d&#45;&gt;dir_c6781640d5720511e35c6e7f87460ee7</title>
<path fill="none" stroke="#000000" d="M246.5908,-503.5602C251.3499,-493.373 256.5869,-480.3186 259,-468 263.0026,-447.567 261.7606,-424.0473 259.6463,-406.1767"/>
<polygon fill="#000000" stroke="#000000" points="263.0952,-405.5613 258.2951,-396.1162 256.1574,-406.4931 263.0952,-405.5613"/>
<g id="a_edge11&#45;headlabel"><a xlink:href="dir_000353_000458.html" target="_top" xlink:title="2">
<text text-anchor="middle" x="266.3876" y="-406.246" font-family="Helvetica,sans-Serif" font-size="10.00" fill="#000000">2</text>
</a>
</g>
</g>
<!-- dir_541a9f579a56d3c8f641580c9f97913d&#45;&gt;dir_4ab6b4cc6a7edbff49100e9123df213f -->
<g id="edge6" class="edge">
<title>dir_541a9f579a56d3c8f641580c9f97913d&#45;&gt;dir_4ab6b4cc6a7edbff49100e9123df213f</title>
<path fill="none" stroke="#000000" d="M206.3591,-503.836C193.6703,-494.7053 180.0611,-482.4863 172,-468 133.0277,-397.9639 147.4916,-367.0027 161,-288 167.9889,-247.1263 162.431,-229.072 192,-200 211.5902,-180.739 241.1916,-171.2386 265.3208,-166.5538"/>
<polygon fill="#000000" stroke="#000000" points="266.0268,-169.9836 275.2817,-164.8264 264.8307,-163.0866 266.0268,-169.9836"/>
<g id="a_edge6&#45;headlabel"><a xlink:href="dir_000353_000018.html" target="_top" xlink:title="3">
<text text-anchor="middle" x="262.9701" y="-170.8953" font-family="Helvetica,sans-Serif" font-size="10.00" fill="#000000">3</text>
</a>
</g>
</g>
<!-- dir_541a9f579a56d3c8f641580c9f97913d&#45;&gt;dir_37c90836491b695b472bf98d1be8336b -->
<g id="edge8" class="edge">
<title>dir_541a9f579a56d3c8f641580c9f97913d&#45;&gt;dir_37c90836491b695b472bf98d1be8336b</title>
<path fill="none" stroke="#000000" d="M205.5282,-517.7741C141.0596,-507.1649 0,-473.0872 0,-378 0,-378 0,-378 0,-162 0,-51.5224 171.9951,-25.7969 249.6902,-19.8119"/>
<polygon fill="#000000" stroke="#000000" points="250.268,-23.2802 259.9997,-19.0917 249.7801,-16.2972 250.268,-23.2802"/>
<g id="a_edge8&#45;headlabel"><a xlink:href="dir_000353_000254.html" target="_top" xlink:title="2">
<text text-anchor="middle" x="246.88" y="-23.863" font-family="Helvetica,sans-Serif" font-size="10.00" fill="#000000">2</text>
</a>
</g>
</g>
<!-- dir_bcbb2cf9a3d3d83e5515c82071a07177 -->
<g id="node11" class="node">
<title>dir_bcbb2cf9a3d3d83e5515c82071a07177</title>
<g id="a_node11"><a xlink:href="dir_bcbb2cf9a3d3d83e5515c82071a07177.html" target="_top" xlink:title="Framework">
<polygon fill="none" stroke="#ff0000" points="428.5,-36 357.5,-36 357.5,0 428.5,0 428.5,-36"/>
<text text-anchor="middle" x="393" y="-15.5" font-family="Helvetica,sans-Serif" font-size="10.00" fill="#000000">Framework</text>
</a>
</g>
</g>
<!-- dir_541a9f579a56d3c8f641580c9f97913d&#45;&gt;dir_bcbb2cf9a3d3d83e5515c82071a07177 -->
<g id="edge12" class="edge">
<title>dir_541a9f579a56d3c8f641580c9f97913d&#45;&gt;dir_bcbb2cf9a3d3d83e5515c82071a07177</title>
<path fill="none" stroke="#000000" d="M268.1982,-514.9584C366.9185,-492.2484 666,-419.9821 666,-378 666,-378 666,-378 666,-162 666,-60.4604 516.4228,-30.3429 438.7037,-21.5475"/>
<polygon fill="#000000" stroke="#000000" points="439.003,-18.0597 428.69,-20.4872 438.2658,-25.0208 439.003,-18.0597"/>
<g id="a_edge12&#45;headlabel"><a xlink:href="dir_000353_000036.html" target="_top" xlink:title="60">
<text text-anchor="middle" x="442.8765" y="-13.1146" font-family="Helvetica,sans-Serif" font-size="10.00" fill="#000000">60</text>
</a>
</g>
</g>
<!-- dir_541a9f579a56d3c8f641580c9f97913d&#45;&gt;dir_2171f7ec022c5423887b07c69b2f5b48 -->
<g id="edge13" class="edge">
<title>dir_541a9f579a56d3c8f641580c9f97913d&#45;&gt;dir_2171f7ec022c5423887b07c69b2f5b48</title>
<path fill="none" stroke="#000000" d="M205.6695,-510.4722C186.6611,-501.7856 163.6932,-487.9243 151,-468 86.9571,-367.4728 93.2501,-298.0672 161,-200 203.0993,-139.0617 288.2844,-110.8881 342.8898,-98.6186"/>
<polygon fill="#000000" stroke="#000000" points="343.6709,-102.0307 352.7127,-96.5083 342.2006,-95.1868 343.6709,-102.0307"/>
<g id="a_edge13&#45;headlabel"><a xlink:href="dir_000353_000060.html" target="_top" xlink:title="21">
<text text-anchor="middle" x="340.7528" y="-103.0615" font-family="Helvetica,sans-Serif" font-size="10.00" fill="#000000">21</text>
</a>
</g>
</g>
<!-- dir_4ab6b4cc6a7edbff49100e9123df213f&#45;&gt;dir_2171f7ec022c5423887b07c69b2f5b48 -->
<g id="edge1" class="edge">
<title>dir_4ab6b4cc6a7edbff49100e9123df213f&#45;&gt;dir_2171f7ec022c5423887b07c69b2f5b48</title>
<path fill="none" stroke="#000000" d="M322.0014,-143.8314C331.8528,-134.9632 344.7403,-124.1637 356.8709,-114.5718"/>
<polygon fill="#000000" stroke="#000000" points="359.3617,-117.0683 365.1014,-108.1628 355.061,-111.5452 359.3617,-117.0683"/>
<g id="a_edge1&#45;headlabel"><a xlink:href="dir_000018_000060.html" target="_top" xlink:title="2">
<text text-anchor="middle" x="358.27" y="-119.0169" font-family="Helvetica,sans-Serif" font-size="10.00" fill="#000000">2</text>
</a>
</g>
</g>
<!-- dir_37c90836491b695b472bf98d1be8336b&#45;&gt;dir_4ab6b4cc6a7edbff49100e9123df213f -->
<g id="edge4" class="edge">
<title>dir_37c90836491b695b472bf98d1be8336b&#45;&gt;dir_4ab6b4cc6a7edbff49100e9123df213f</title>
<path fill="none" stroke="#000000" d="M289.3868,-36.0896C292.6172,-60.5727 298.4155,-104.5174 302.2358,-133.4713"/>
<polygon fill="#000000" stroke="#000000" points="298.8155,-134.3061 303.5936,-143.7623 305.7554,-133.3904 298.8155,-134.3061"/>
<g id="a_edge4&#45;headlabel"><a xlink:href="dir_000254_000018.html" target="_top" xlink:title="16">
<text text-anchor="middle" x="295.5305" y="-128.6137" font-family="Helvetica,sans-Serif" font-size="10.00" fill="#000000">16</text>
</a>
</g>
</g>
<!-- dir_37c90836491b695b472bf98d1be8336b&#45;&gt;dir_2171f7ec022c5423887b07c69b2f5b48 -->
<g id="edge5" class="edge">
<title>dir_37c90836491b695b472bf98d1be8336b&#45;&gt;dir_2171f7ec022c5423887b07c69b2f5b48</title>
<path fill="none" stroke="#000000" d="M314.3208,-32.7712C329.5804,-42.3171 348.4734,-54.961 363.9814,-65.9361"/>
<polygon fill="#000000" stroke="#000000" points="362.0376,-68.8491 372.2041,-71.8314 366.1164,-63.1601 362.0376,-68.8491"/>
<g id="a_edge5&#45;headlabel"><a xlink:href="dir_000254_000060.html" target="_top" xlink:title="7">
<text text-anchor="middle" x="357.4619" y="-66.5622" font-family="Helvetica,sans-Serif" font-size="10.00" fill="#000000">7</text>
</a>
</g>
</g>
<!-- dir_bcbb2cf9a3d3d83e5515c82071a07177&#45;&gt;dir_4ab6b4cc6a7edbff49100e9123df213f -->
<g id="edge32" class="edge">
<title>dir_bcbb2cf9a3d3d83e5515c82071a07177&#45;&gt;dir_4ab6b4cc6a7edbff49100e9123df213f</title>
<path fill="none" stroke="#000000" d="M373.6099,-36.1971C363.829,-46.1082 352.3109,-58.9824 344,-72 331.5247,-91.5403 321.5381,-115.8719 314.9392,-134.3077"/>
<polygon fill="#000000" stroke="#000000" points="311.591,-133.2805 311.6273,-143.8753 318.2059,-135.5703 311.591,-133.2805"/>
<g id="a_edge32&#45;headlabel"><a xlink:href="dir_000036_000018.html" target="_top" xlink:title="8">
<text text-anchor="middle" x="310.0837" y="-126.4549" font-family="Helvetica,sans-Serif" font-size="10.00" fill="#000000">8</text>
</a>
</g>
</g>
<!-- dir_bcbb2cf9a3d3d83e5515c82071a07177&#45;&gt;dir_2171f7ec022c5423887b07c69b2f5b48 -->
<g id="edge33" class="edge">
<title>dir_bcbb2cf9a3d3d83e5515c82071a07177&#45;&gt;dir_2171f7ec022c5423887b07c69b2f5b48</title>
<path fill="none" stroke="#000000" d="M398.976,-36.4133C399.7071,-44.0593 399.9203,-53.1084 399.6155,-61.5726"/>
<polygon fill="#000000" stroke="#000000" points="396.1048,-61.6264 398.9524,-71.8314 403.0902,-62.078 396.1048,-61.6264"/>
<g id="a_edge33&#45;headlabel"><a xlink:href="dir_000036_000060.html" target="_top" xlink:title="68">
<text text-anchor="middle" x="393.5032" y="-55.3562" font-family="Helvetica,sans-Serif" font-size="10.00" fill="#000000">68</text>
</a>
</g>
</g>
<!-- dir_26637d1bd82229bc9ed97f7e706be743&#45;&gt;dir_4ab6b4cc6a7edbff49100e9123df213f -->
<g id="edge34" class="edge">
<title>dir_26637d1bd82229bc9ed97f7e706be743&#45;&gt;dir_4ab6b4cc6a7edbff49100e9123df213f</title>
<path fill="none" stroke="#000000" d="M441.1126,-215.7736C434.842,-210.1314 427.4861,-204.2801 420,-200 397.2267,-186.9796 369.3216,-177.5821 346.8202,-171.3898"/>
<polygon fill="#000000" stroke="#000000" points="347.4621,-167.9394 336.8998,-168.7688 345.6739,-174.7072 347.4621,-167.9394"/>
<g id="a_edge34&#45;headlabel"><a xlink:href="dir_000505_000018.html" target="_top" xlink:title="2">
<text text-anchor="middle" x="351.6627" y="-163.6125" font-family="Helvetica,sans-Serif" font-size="10.00" fill="#000000">2</text>
</a>
</g>
</g>
<!-- dir_26637d1bd82229bc9ed97f7e706be743&#45;&gt;dir_2171f7ec022c5423887b07c69b2f5b48 -->
<g id="edge35" class="edge">
<title>dir_26637d1bd82229bc9ed97f7e706be743&#45;&gt;dir_2171f7ec022c5423887b07c69b2f5b48</title>
<path fill="none" stroke="#000000" d="M450.6411,-215.7623C439.235,-190.8764 418.7044,-146.0822 405.4742,-117.2165"/>
<polygon fill="#000000" stroke="#000000" points="408.6394,-115.722 401.2911,-108.0896 402.2759,-118.6386 408.6394,-115.722"/>
<g id="a_edge35&#45;headlabel"><a xlink:href="dir_000505_000060.html" target="_top" xlink:title="4">
<text text-anchor="middle" x="412.7181" y="-115.3067" font-family="Helvetica,sans-Serif" font-size="10.00" fill="#000000">4</text>
</a>
</g>
</g>
<!-- dir_2171f7ec022c5423887b07c69b2f5b48&#45;&gt;dir_4ab6b4cc6a7edbff49100e9123df213f -->
<g id="edge36" class="edge">
<title>dir_2171f7ec022c5423887b07c69b2f5b48&#45;&gt;dir_4ab6b4cc6a7edbff49100e9123df213f</title>
<path fill="none" stroke="#000000" d="M377.0051,-108.1628C367.1549,-117.0301 354.2679,-127.8295 342.1371,-137.4219"/>
<polygon fill="#000000" stroke="#000000" points="339.6457,-134.9258 333.9062,-143.8314 343.9466,-140.4488 339.6457,-134.9258"/>
<g id="a_edge36&#45;headlabel"><a xlink:href="dir_000060_000018.html" target="_top" xlink:title="29">
<text text-anchor="middle" x="340.7374" y="-127.9772" font-family="Helvetica,sans-Serif" font-size="10.00" fill="#000000">29</text>
</a>
</g>
</g>
<!-- dir_2171f7ec022c5423887b07c69b2f5b48&#45;&gt;dir_37c90836491b695b472bf98d1be8336b -->
<g id="edge37" class="edge">
<title>dir_2171f7ec022c5423887b07c69b2f5b48&#45;&gt;dir_37c90836491b695b472bf98d1be8336b</title>
<path fill="none" stroke="#000000" d="M360.2993,-71.8314C346.1115,-62.7927 329.6995,-51.7476 315.9563,-42.0198"/>
<polygon fill="#000000" stroke="#000000" points="317.9542,-39.1456 307.7879,-36.1628 313.8752,-44.8344 317.9542,-39.1456"/>
<g id="a_edge37&#45;headlabel"><a xlink:href="dir_000060_000254.html" target="_top" xlink:title="1">
<text text-anchor="middle" x="322.5299" y="-36.4328" font-family="Helvetica,sans-Serif" font-size="10.00" fill="#000000">1</text>
</a>
</g>
</g>
<!-- dir_2171f7ec022c5423887b07c69b2f5b48&#45;&gt;dir_bcbb2cf9a3d3d83e5515c82071a07177 -->
<g id="edge38" class="edge">
<title>dir_2171f7ec022c5423887b07c69b2f5b48&#45;&gt;dir_bcbb2cf9a3d3d83e5515c82071a07177</title>
<path fill="none" stroke="#000000" d="M387.0476,-71.8314C386.2972,-64.131 386.0763,-54.9743 386.3849,-46.4166"/>
<polygon fill="#000000" stroke="#000000" points="389.8792,-46.6161 387.024,-36.4133 382.8935,-46.1697 389.8792,-46.6161"/>
<g id="a_edge38&#45;headlabel"><a xlink:href="dir_000060_000036.html" target="_top" xlink:title="7">
<text text-anchor="middle" x="392.4836" y="-47.8844" font-family="Helvetica,sans-Serif" font-size="10.00" fill="#000000">7</text>
</a>
</g>
</g>
</g>
</svg>
