<?xml version="1.0" encoding="UTF-8" standalone="no"?>
<!DOCTYPE svg PUBLIC "-//W3C//DTD SVG 1.1//EN"
 "http://www.w3.org/Graphics/SVG/1.1/DTD/svg11.dtd">
<!-- Generated by graphviz version 2.40.1 (20161225.0304)
 -->
<!-- Title: /home/travis/build/AliceO2Group/AliceO2/Detectors/CPV/simulation Pages: 1 -->
<svg width="283pt" height="447pt"
 viewBox="0.00 0.00 283.00 447.00" xmlns="http://www.w3.org/2000/svg" xmlns:xlink="http://www.w3.org/1999/xlink">
<g id="graph0" class="graph" transform="scale(1 1) rotate(0) translate(4 443)">
<title>/home/travis/build/AliceO2Group/AliceO2/Detectors/CPV/simulation</title>
<g id="clust1" class="cluster">
<title>clusterdir_860de54695a0456b93a4bb1fd951d826</title>
<g id="a_clust1"><a xlink:href="dir_860de54695a0456b93a4bb1fd951d826.html" target="_top" xlink:title="CPV">
<polygon fill="#ddddee" stroke="#000000" points="95,-272 95,-431 267,-431 267,-272 95,-272"/>
<text text-anchor="middle" x="181" y="-419" font-family="Helvetica,sans-Serif" font-size="10.00" fill="#000000">CPV</text>
</a>
</g>
</g>
<g id="clust2" class="cluster">
<title>clusterdir_a740963330d1efa3e28509f70022bd98</title>
<g id="a_clust2"><a xlink:href="dir_a740963330d1efa3e28509f70022bd98.html" target="_top">
<polygon fill="#eeeeff" stroke="#000000" points="103,-280 103,-404 259,-404 259,-280 103,-280"/>
</a>
</g>
</g>
<!-- dir_a740963330d1efa3e28509f70022bd98 -->
<g id="node1" class="node">
<title>dir_a740963330d1efa3e28509f70022bd98</title>
<text text-anchor="middle" x="217" y="-375.5" font-family="Helvetica,sans-Serif" font-size="10.00" fill="#000000">simulation</text>
</g>
<!-- dir_6293adb0b35b98834b78d8c1784ec891 -->
<g id="node2" class="node">
<title>dir_6293adb0b35b98834b78d8c1784ec891</title>
<g id="a_node2"><a xlink:href="dir_6293adb0b35b98834b78d8c1784ec891.html" target="_top" xlink:title="include">
<polygon fill="#ffffff" stroke="#ff0000" points="165,-324 111,-324 111,-288 165,-288 165,-324"/>
<text text-anchor="middle" x="138" y="-303.5" font-family="Helvetica,sans-Serif" font-size="10.00" fill="#000000">include</text>
</a>
</g>
</g>
<!-- dir_4ab6b4cc6a7edbff49100e9123df213f -->
<g id="node4" class="node">
<title>dir_4ab6b4cc6a7edbff49100e9123df213f</title>
<g id="a_node4"><a xlink:href="dir_4ab6b4cc6a7edbff49100e9123df213f.html" target="_top" xlink:title="Common">
<polygon fill="none" stroke="#ff0000" points="127.5,-180 66.5,-180 66.5,-144 127.5,-144 127.5,-180"/>
<text text-anchor="middle" x="97" y="-159.5" font-family="Helvetica,sans-Serif" font-size="10.00" fill="#000000">Common</text>
</a>
</g>
</g>
<!-- dir_6293adb0b35b98834b78d8c1784ec891&#45;&gt;dir_4ab6b4cc6a7edbff49100e9123df213f -->
<g id="edge1" class="edge">
<title>dir_6293adb0b35b98834b78d8c1784ec891&#45;&gt;dir_4ab6b4cc6a7edbff49100e9123df213f</title>
<path fill="none" stroke="#000000" d="M132.8073,-287.7623C125.7834,-263.0928 113.1892,-218.8598 104.9646,-189.9731"/>
<polygon fill="#000000" stroke="#000000" points="108.2552,-188.7489 102.1505,-180.0896 101.5228,-190.6658 108.2552,-188.7489"/>
<g id="a_edge1&#45;headlabel"><a xlink:href="dir_000258_000018.html" target="_top" xlink:title="3">
<text text-anchor="middle" x="111.9702" y="-188.9286" font-family="Helvetica,sans-Serif" font-size="10.00" fill="#000000">3</text>
</a>
</g>
</g>
<!-- dir_37c90836491b695b472bf98d1be8336b -->
<g id="node5" class="node">
<title>dir_37c90836491b695b472bf98d1be8336b</title>
<g id="a_node5"><a xlink:href="dir_37c90836491b695b472bf98d1be8336b.html" target="_top" xlink:title="Base">
<polygon fill="none" stroke="#ff0000" points="109,-36 55,-36 55,0 109,0 109,-36"/>
<text text-anchor="middle" x="82" y="-15.5" font-family="Helvetica,sans-Serif" font-size="10.00" fill="#000000">Base</text>
</a>
</g>
</g>
<!-- dir_6293adb0b35b98834b78d8c1784ec891&#45;&gt;dir_37c90836491b695b472bf98d1be8336b -->
<g id="edge2" class="edge">
<title>dir_6293adb0b35b98834b78d8c1784ec891&#45;&gt;dir_37c90836491b695b472bf98d1be8336b</title>
<path fill="none" stroke="#000000" d="M121.285,-287.6632C101.4623,-264.5523 69.5313,-222.6667 57,-180 43.4823,-133.9746 58.6048,-78.3243 70.512,-45.6784"/>
<polygon fill="#000000" stroke="#000000" points="73.7871,-46.9127 74.0689,-36.3216 67.2439,-44.4254 73.7871,-46.9127"/>
<g id="a_edge2&#45;headlabel"><a xlink:href="dir_000258_000254.html" target="_top" xlink:title="1">
<text text-anchor="middle" x="75.1639" y="-48.7816" font-family="Helvetica,sans-Serif" font-size="10.00" fill="#000000">1</text>
</a>
</g>
</g>
<!-- dir_9f065a6c27ad05d142739bd8f4136180 -->
<g id="node6" class="node">
<title>dir_9f065a6c27ad05d142739bd8f4136180</title>
<g id="a_node6"><a xlink:href="dir_9f065a6c27ad05d142739bd8f4136180.html" target="_top" xlink:title="base">
<polygon fill="none" stroke="#ff0000" points="220,-252 166,-252 166,-216 220,-216 220,-252"/>
<text text-anchor="middle" x="193" y="-231.5" font-family="Helvetica,sans-Serif" font-size="10.00" fill="#000000">base</text>
</a>
</g>
</g>
<!-- dir_6293adb0b35b98834b78d8c1784ec891&#45;&gt;dir_9f065a6c27ad05d142739bd8f4136180 -->
<g id="edge3" class="edge">
<title>dir_6293adb0b35b98834b78d8c1784ec891&#45;&gt;dir_9f065a6c27ad05d142739bd8f4136180</title>
<path fill="none" stroke="#000000" d="M151.8788,-287.8314C158.2136,-279.5386 165.8384,-269.557 172.7926,-260.4533"/>
<polygon fill="#000000" stroke="#000000" points="175.6452,-262.4847 178.9343,-252.4133 170.0825,-258.2353 175.6452,-262.4847"/>
<g id="a_edge3&#45;headlabel"><a xlink:href="dir_000258_000115.html" target="_top" xlink:title="5">
<text text-anchor="middle" x="175.7195" y="-264.5647" font-family="Helvetica,sans-Serif" font-size="10.00" fill="#000000">5</text>
</a>
</g>
</g>
<!-- dir_2171f7ec022c5423887b07c69b2f5b48 -->
<g id="node7" class="node">
<title>dir_2171f7ec022c5423887b07c69b2f5b48</title>
<g id="a_node7"><a xlink:href="dir_2171f7ec022c5423887b07c69b2f5b48.html" target="_top" xlink:title="DataFormats">
<polygon fill="none" stroke="#ff0000" points="190,-108 110,-108 110,-72 190,-72 190,-108"/>
<text text-anchor="middle" x="150" y="-87.5" font-family="Helvetica,sans-Serif" font-size="10.00" fill="#000000">DataFormats</text>
</a>
</g>
</g>
<!-- dir_6293adb0b35b98834b78d8c1784ec891&#45;&gt;dir_2171f7ec022c5423887b07c69b2f5b48 -->
<g id="edge4" class="edge">
<title>dir_6293adb0b35b98834b78d8c1784ec891&#45;&gt;dir_2171f7ec022c5423887b07c69b2f5b48</title>
<path fill="none" stroke="#000000" d="M139.0025,-287.9555C141.0892,-250.3938 145.9137,-163.5541 148.4216,-118.4103"/>
<polygon fill="#000000" stroke="#000000" points="151.9318,-118.3238 148.9919,-108.1451 144.9425,-117.9355 151.9318,-118.3238"/>
<g id="a_edge4&#45;headlabel"><a xlink:href="dir_000258_000060.html" target="_top" xlink:title="2">
<text text-anchor="middle" x="154.5674" y="-119.5704" font-family="Helvetica,sans-Serif" font-size="10.00" fill="#000000">2</text>
</a>
</g>
</g>
<!-- dir_47d1353bed2225f1f068cbf1d7fab245 -->
<g id="node3" class="node">
<title>dir_47d1353bed2225f1f068cbf1d7fab245</title>
<g id="a_node3"><a xlink:href="dir_47d1353bed2225f1f068cbf1d7fab245.html" target="_top" xlink:title="src">
<polygon fill="#ffffff" stroke="#000000" points="165,-396 111,-396 111,-360 165,-360 165,-396"/>
<text text-anchor="middle" x="138" y="-375.5" font-family="Helvetica,sans-Serif" font-size="10.00" fill="#000000">src</text>
</a>
</g>
</g>
<!-- dir_47d1353bed2225f1f068cbf1d7fab245&#45;&gt;dir_6293adb0b35b98834b78d8c1784ec891 -->
<g id="edge10" class="edge">
<title>dir_47d1353bed2225f1f068cbf1d7fab245&#45;&gt;dir_6293adb0b35b98834b78d8c1784ec891</title>
<path fill="none" stroke="#000000" d="M138,-359.8314C138,-352.131 138,-342.9743 138,-334.4166"/>
<polygon fill="#000000" stroke="#000000" points="141.5001,-334.4132 138,-324.4133 134.5001,-334.4133 141.5001,-334.4132"/>
<g id="a_edge10&#45;headlabel"><a xlink:href="dir_000294_000258.html" target="_top" xlink:title="9">
<text text-anchor="middle" x="144.3393" y="-335.5079" font-family="Helvetica,sans-Serif" font-size="10.00" fill="#000000">9</text>
</a>
</g>
</g>
<!-- dir_47d1353bed2225f1f068cbf1d7fab245&#45;&gt;dir_37c90836491b695b472bf98d1be8336b -->
<g id="edge11" class="edge">
<title>dir_47d1353bed2225f1f068cbf1d7fab245&#45;&gt;dir_37c90836491b695b472bf98d1be8336b</title>
<path fill="none" stroke="#000000" d="M110.7356,-365.008C70.5182,-343.723 0,-297.3667 0,-234 0,-234 0,-234 0,-162 0,-115.6535 32.4722,-70.6131 56.548,-43.5884"/>
<polygon fill="#000000" stroke="#000000" points="59.2112,-45.8627 63.3929,-36.1281 54.0533,-41.1303 59.2112,-45.8627"/>
<g id="a_edge11&#45;headlabel"><a xlink:href="dir_000294_000254.html" target="_top" xlink:title="1">
<text text-anchor="middle" x="58.8731" y="-47.9309" font-family="Helvetica,sans-Serif" font-size="10.00" fill="#000000">1</text>
</a>
</g>
</g>
<!-- dir_47d1353bed2225f1f068cbf1d7fab245&#45;&gt;dir_9f065a6c27ad05d142739bd8f4136180 -->
<g id="edge12" class="edge">
<title>dir_47d1353bed2225f1f068cbf1d7fab245&#45;&gt;dir_9f065a6c27ad05d142739bd8f4136180</title>
<path fill="none" stroke="#000000" d="M152.8853,-359.5185C160.2462,-349.5296 168.672,-336.6716 174,-324 182.3306,-304.1876 187.1533,-280.3321 189.8541,-262.1605"/>
<polygon fill="#000000" stroke="#000000" points="193.3302,-262.5721 191.2095,-252.1917 186.3941,-261.6289 193.3302,-262.5721"/>
<g id="a_edge12&#45;headlabel"><a xlink:href="dir_000294_000115.html" target="_top" xlink:title="4">
<text text-anchor="middle" x="195.6594" y="-264.0164" font-family="Helvetica,sans-Serif" font-size="10.00" fill="#000000">4</text>
</a>
</g>
</g>
<!-- dir_47d1353bed2225f1f068cbf1d7fab245&#45;&gt;dir_2171f7ec022c5423887b07c69b2f5b48 -->
<g id="edge13" class="edge">
<title>dir_47d1353bed2225f1f068cbf1d7fab245&#45;&gt;dir_2171f7ec022c5423887b07c69b2f5b48</title>
<path fill="none" stroke="#000000" d="M160.7642,-359.9322C172.0622,-350.1531 185.3253,-337.3587 195,-324 215.7573,-295.3385 221.2568,-286.531 229,-252 240.5015,-200.7086 202.8906,-146.9746 175.6703,-116.09"/>
<polygon fill="#000000" stroke="#000000" points="177.9783,-113.4254 168.6643,-108.3757 172.7964,-118.1316 177.9783,-113.4254"/>
<g id="a_edge13&#45;headlabel"><a xlink:href="dir_000294_000060.html" target="_top" xlink:title="2">
<text text-anchor="middle" x="182.4968" y="-111.6775" font-family="Helvetica,sans-Serif" font-size="10.00" fill="#000000">2</text>
</a>
</g>
</g>
<!-- dir_4ab6b4cc6a7edbff49100e9123df213f&#45;&gt;dir_2171f7ec022c5423887b07c69b2f5b48 -->
<g id="edge5" class="edge">
<title>dir_4ab6b4cc6a7edbff49100e9123df213f&#45;&gt;dir_2171f7ec022c5423887b07c69b2f5b48</title>
<path fill="none" stroke="#000000" d="M104.4217,-143.8314C109.718,-135.5386 116.8715,-125.557 123.9929,-116.4533"/>
<polygon fill="#000000" stroke="#000000" points="126.922,-118.3965 130.4698,-108.4133 121.4708,-114.0051 126.922,-118.3965"/>
<g id="a_edge5&#45;headlabel"><a xlink:href="dir_000018_000060.html" target="_top" xlink:title="2">
<text text-anchor="middle" x="126.8781" y="-120.4769" font-family="Helvetica,sans-Serif" font-size="10.00" fill="#000000">2</text>
</a>
</g>
</g>
<!-- dir_37c90836491b695b472bf98d1be8336b&#45;&gt;dir_4ab6b4cc6a7edbff49100e9123df213f -->
<g id="edge6" class="edge">
<title>dir_37c90836491b695b472bf98d1be8336b&#45;&gt;dir_4ab6b4cc6a7edbff49100e9123df213f</title>
<path fill="none" stroke="#000000" d="M83.8843,-36.0896C86.4347,-60.5727 91.0122,-104.5174 94.0283,-133.4713"/>
<polygon fill="#000000" stroke="#000000" points="90.5829,-134.1788 95.1002,-143.7623 97.5453,-133.4535 90.5829,-134.1788"/>
<g id="a_edge6&#45;headlabel"><a xlink:href="dir_000254_000018.html" target="_top" xlink:title="16">
<text text-anchor="middle" x="87.3866" y="-128.3976" font-family="Helvetica,sans-Serif" font-size="10.00" fill="#000000">16</text>
</a>
</g>
</g>
<!-- dir_37c90836491b695b472bf98d1be8336b&#45;&gt;dir_2171f7ec022c5423887b07c69b2f5b48 -->
<g id="edge7" class="edge">
<title>dir_37c90836491b695b472bf98d1be8336b&#45;&gt;dir_2171f7ec022c5423887b07c69b2f5b48</title>
<path fill="none" stroke="#000000" d="M105.1056,-36.1628C113.9006,-44.6038 123.7127,-54.7956 131.9846,-64.0303"/>
<polygon fill="#000000" stroke="#000000" points="129.5806,-66.5987 138.7931,-71.8314 134.8545,-61.9958 129.5806,-66.5987"/>
<g id="a_edge7&#45;headlabel"><a xlink:href="dir_000254_000060.html" target="_top" xlink:title="7">
<text text-anchor="middle" x="125.0779" y="-63.2575" font-family="Helvetica,sans-Serif" font-size="10.00" fill="#000000">7</text>
</a>
</g>
</g>
<!-- dir_9f065a6c27ad05d142739bd8f4136180&#45;&gt;dir_4ab6b4cc6a7edbff49100e9123df213f -->
<g id="edge8" class="edge">
<title>dir_9f065a6c27ad05d142739bd8f4136180&#45;&gt;dir_4ab6b4cc6a7edbff49100e9123df213f</title>
<path fill="none" stroke="#000000" d="M168.7751,-215.8314C156.8372,-206.8779 142.2744,-195.9558 129.394,-186.2955"/>
<polygon fill="#000000" stroke="#000000" points="131.3171,-183.3629 121.2171,-180.1628 127.1171,-188.9629 131.3171,-183.3629"/>
<g id="a_edge8&#45;headlabel"><a xlink:href="dir_000115_000018.html" target="_top" xlink:title="1">
<text text-anchor="middle" x="135.8964" y="-180.7482" font-family="Helvetica,sans-Serif" font-size="10.00" fill="#000000">1</text>
</a>
</g>
</g>
<!-- dir_9f065a6c27ad05d142739bd8f4136180&#45;&gt;dir_2171f7ec022c5423887b07c69b2f5b48 -->
<g id="edge9" class="edge">
<title>dir_9f065a6c27ad05d142739bd8f4136180&#45;&gt;dir_2171f7ec022c5423887b07c69b2f5b48</title>
<path fill="none" stroke="#000000" d="M188.9651,-215.9151C184.7488,-197.6304 177.6859,-168.6322 170,-144 167.3032,-135.3571 164.0115,-126.0714 160.8833,-117.6792"/>
<polygon fill="#000000" stroke="#000000" points="164.1549,-116.4353 157.3317,-108.3301 157.6112,-118.9212 164.1549,-116.4353"/>
<g id="a_edge9&#45;headlabel"><a xlink:href="dir_000115_000060.html" target="_top" xlink:title="3">
<text text-anchor="middle" x="168.0856" y="-116.2873" font-family="Helvetica,sans-Serif" font-size="10.00" fill="#000000">3</text>
</a>
</g>
</g>
<!-- dir_2171f7ec022c5423887b07c69b2f5b48&#45;&gt;dir_4ab6b4cc6a7edbff49100e9123df213f -->
<g id="edge14" class="edge">
<title>dir_2171f7ec022c5423887b07c69b2f5b48&#45;&gt;dir_4ab6b4cc6a7edbff49100e9123df213f</title>
<path fill="none" stroke="#000000" d="M142.4218,-108.4133C137.0893,-116.7389 129.918,-126.7282 122.7974,-135.8144"/>
<polygon fill="#000000" stroke="#000000" points="119.8839,-133.8516 116.3265,-143.8314 125.3309,-138.2482 119.8839,-133.8516"/>
<g id="a_edge14&#45;headlabel"><a xlink:href="dir_000060_000018.html" target="_top" xlink:title="29">
<text text-anchor="middle" x="119.9322" y="-126.7712" font-family="Helvetica,sans-Serif" font-size="10.00" fill="#000000">29</text>
</a>
</g>
</g>
<!-- dir_2171f7ec022c5423887b07c69b2f5b48&#45;&gt;dir_37c90836491b695b472bf98d1be8336b -->
<g id="edge15" class="edge">
<title>dir_2171f7ec022c5423887b07c69b2f5b48&#45;&gt;dir_37c90836491b695b472bf98d1be8336b</title>
<path fill="none" stroke="#000000" d="M126.8883,-71.8314C118.16,-63.454 108.4306,-53.3531 100.1994,-44.1749"/>
<polygon fill="#000000" stroke="#000000" points="102.631,-41.6386 93.4143,-36.4133 97.3608,-46.2457 102.631,-41.6386"/>
<g id="a_edge15&#45;headlabel"><a xlink:href="dir_000060_000254.html" target="_top" xlink:title="1">
<text text-anchor="middle" x="107.1344" y="-39.9762" font-family="Helvetica,sans-Serif" font-size="10.00" fill="#000000">1</text>
</a>
</g>
</g>
</g>
</svg>
