<?xml version="1.0" encoding="UTF-8" standalone="no"?>
<!DOCTYPE svg PUBLIC "-//W3C//DTD SVG 1.1//EN"
 "http://www.w3.org/Graphics/SVG/1.1/DTD/svg11.dtd">
<!-- Generated by graphviz version 2.40.1 (20161225.0304)
 -->
<!-- Title: /home/travis/build/AliceO2Group/AliceO2/Detectors/CPV/simulation/include/CPVSimulation Pages: 1 -->
<svg width="147pt" height="367pt"
 viewBox="0.00 0.00 147.00 367.00" xmlns="http://www.w3.org/2000/svg" xmlns:xlink="http://www.w3.org/1999/xlink">
<g id="graph0" class="graph" transform="scale(1 1) rotate(0) translate(4 363)">
<title>/home/travis/build/AliceO2Group/AliceO2/Detectors/CPV/simulation/include/CPVSimulation</title>
<g id="clust1" class="cluster">
<title>clusterdir_6293adb0b35b98834b78d8c1784ec891</title>
<g id="a_clust1"><a xlink:href="dir_6293adb0b35b98834b78d8c1784ec891.html" target="_top" xlink:title="include">
<polygon fill="#ddddee" stroke="#000000" points="8,-280 8,-351 112,-351 112,-280 8,-280"/>
<text text-anchor="middle" x="60" y="-339" font-family="Helvetica,sans-Serif" font-size="10.00" fill="#000000">include</text>
</a>
</g>
</g>
<!-- dir_d2bbbca0bb65e3ae1a07b25f4087480a -->
<g id="node1" class="node">
<title>dir_d2bbbca0bb65e3ae1a07b25f4087480a</title>
<g id="a_node1"><a xlink:href="dir_d2bbbca0bb65e3ae1a07b25f4087480a.html" target="_top" xlink:title="CPVSimulation">
<polygon fill="#eeeeff" stroke="#000000" points="104.5,-324 15.5,-324 15.5,-288 104.5,-288 104.5,-324"/>
<text text-anchor="middle" x="60" y="-303.5" font-family="Helvetica,sans-Serif" font-size="10.00" fill="#000000">CPVSimulation</text>
</a>
</g>
</g>
<!-- dir_4ab6b4cc6a7edbff49100e9123df213f -->
<g id="node2" class="node">
<title>dir_4ab6b4cc6a7edbff49100e9123df213f</title>
<g id="a_node2"><a xlink:href="dir_4ab6b4cc6a7edbff49100e9123df213f.html" target="_top" xlink:title="Common">
<polygon fill="none" stroke="#ff0000" points="76.5,-180 15.5,-180 15.5,-144 76.5,-144 76.5,-180"/>
<text text-anchor="middle" x="46" y="-159.5" font-family="Helvetica,sans-Serif" font-size="10.00" fill="#000000">Common</text>
</a>
</g>
</g>
<!-- dir_d2bbbca0bb65e3ae1a07b25f4087480a&#45;&gt;dir_4ab6b4cc6a7edbff49100e9123df213f -->
<g id="edge4" class="edge">
<title>dir_d2bbbca0bb65e3ae1a07b25f4087480a&#45;&gt;dir_4ab6b4cc6a7edbff49100e9123df213f</title>
<path fill="none" stroke="#000000" d="M56.8912,-287.5527C55.2311,-277.1403 53.2732,-263.8734 52,-252 49.7912,-231.4014 48.263,-208.0577 47.3018,-190.3069"/>
<polygon fill="#000000" stroke="#000000" points="50.7967,-190.1161 46.788,-180.3089 43.8059,-190.4754 50.7967,-190.1161"/>
<g id="a_edge4&#45;headlabel"><a xlink:href="dir_000259_000018.html" target="_top" xlink:title="3">
<text text-anchor="middle" x="53.8166" y="-191.0603" font-family="Helvetica,sans-Serif" font-size="10.00" fill="#000000">3</text>
</a>
</g>
</g>
<!-- dir_37c90836491b695b472bf98d1be8336b -->
<g id="node3" class="node">
<title>dir_37c90836491b695b472bf98d1be8336b</title>
<g id="a_node3"><a xlink:href="dir_37c90836491b695b472bf98d1be8336b.html" target="_top" xlink:title="Base">
<polygon fill="none" stroke="#ff0000" points="92,-36 38,-36 38,0 92,0 92,-36"/>
<text text-anchor="middle" x="65" y="-15.5" font-family="Helvetica,sans-Serif" font-size="10.00" fill="#000000">Base</text>
</a>
</g>
</g>
<!-- dir_d2bbbca0bb65e3ae1a07b25f4087480a&#45;&gt;dir_37c90836491b695b472bf98d1be8336b -->
<g id="edge5" class="edge">
<title>dir_d2bbbca0bb65e3ae1a07b25f4087480a&#45;&gt;dir_37c90836491b695b472bf98d1be8336b</title>
<path fill="none" stroke="#000000" d="M47.0939,-287.883C27.5922,-258.2974 -5.9136,-197.5362 6,-144 14.0487,-107.8313 33.6368,-69.7658 48.0447,-45.0641"/>
<polygon fill="#000000" stroke="#000000" points="51.165,-46.665 53.2782,-36.283 45.152,-43.0812 51.165,-46.665"/>
<g id="a_edge5&#45;headlabel"><a xlink:href="dir_000259_000254.html" target="_top" xlink:title="1">
<text text-anchor="middle" x="51.7637" y="-48.7064" font-family="Helvetica,sans-Serif" font-size="10.00" fill="#000000">1</text>
</a>
</g>
</g>
<!-- dir_9f065a6c27ad05d142739bd8f4136180 -->
<g id="node4" class="node">
<title>dir_9f065a6c27ad05d142739bd8f4136180</title>
<g id="a_node4"><a xlink:href="dir_9f065a6c27ad05d142739bd8f4136180.html" target="_top" xlink:title="base">
<polygon fill="none" stroke="#ff0000" points="115,-252 61,-252 61,-216 115,-216 115,-252"/>
<text text-anchor="middle" x="88" y="-231.5" font-family="Helvetica,sans-Serif" font-size="10.00" fill="#000000">base</text>
</a>
</g>
</g>
<!-- dir_d2bbbca0bb65e3ae1a07b25f4087480a&#45;&gt;dir_9f065a6c27ad05d142739bd8f4136180 -->
<g id="edge6" class="edge">
<title>dir_d2bbbca0bb65e3ae1a07b25f4087480a&#45;&gt;dir_9f065a6c27ad05d142739bd8f4136180</title>
<path fill="none" stroke="#000000" d="M67.0656,-287.8314C70.126,-279.9617 73.7779,-270.5712 77.1682,-261.8533"/>
<polygon fill="#000000" stroke="#000000" points="80.4768,-263.0019 80.8393,-252.4133 73.9527,-260.4647 80.4768,-263.0019"/>
<g id="a_edge6&#45;headlabel"><a xlink:href="dir_000259_000115.html" target="_top" xlink:title="5">
<text text-anchor="middle" x="81.8202" y="-264.8812" font-family="Helvetica,sans-Serif" font-size="10.00" fill="#000000">5</text>
</a>
</g>
</g>
<!-- dir_2171f7ec022c5423887b07c69b2f5b48 -->
<g id="node5" class="node">
<title>dir_2171f7ec022c5423887b07c69b2f5b48</title>
<g id="a_node5"><a xlink:href="dir_2171f7ec022c5423887b07c69b2f5b48.html" target="_top" xlink:title="DataFormats">
<polygon fill="none" stroke="#ff0000" points="139,-108 59,-108 59,-72 139,-72 139,-108"/>
<text text-anchor="middle" x="99" y="-87.5" font-family="Helvetica,sans-Serif" font-size="10.00" fill="#000000">DataFormats</text>
</a>
</g>
</g>
<!-- dir_d2bbbca0bb65e3ae1a07b25f4087480a&#45;&gt;dir_2171f7ec022c5423887b07c69b2f5b48 -->
<g id="edge7" class="edge">
<title>dir_d2bbbca0bb65e3ae1a07b25f4087480a&#45;&gt;dir_2171f7ec022c5423887b07c69b2f5b48</title>
<path fill="none" stroke="#000000" d="M91.4561,-287.9802C104.0312,-278.9479 117.1389,-266.7662 124,-252 144.3766,-208.1466 126.6886,-151.1363 112.4899,-117.7557"/>
<polygon fill="#000000" stroke="#000000" points="115.5009,-115.9125 108.2415,-108.1956 109.1041,-118.7552 115.5009,-115.9125"/>
<g id="a_edge7&#45;headlabel"><a xlink:href="dir_000259_000060.html" target="_top" xlink:title="2">
<text text-anchor="middle" x="119.5553" y="-115.5443" font-family="Helvetica,sans-Serif" font-size="10.00" fill="#000000">2</text>
</a>
</g>
</g>
<!-- dir_4ab6b4cc6a7edbff49100e9123df213f&#45;&gt;dir_2171f7ec022c5423887b07c69b2f5b48 -->
<g id="edge1" class="edge">
<title>dir_4ab6b4cc6a7edbff49100e9123df213f&#45;&gt;dir_2171f7ec022c5423887b07c69b2f5b48</title>
<path fill="none" stroke="#000000" d="M53.4217,-143.8314C58.718,-135.5386 65.8715,-125.557 72.9929,-116.4533"/>
<polygon fill="#000000" stroke="#000000" points="75.922,-118.3965 79.4698,-108.4133 70.4708,-114.0051 75.922,-118.3965"/>
<g id="a_edge1&#45;headlabel"><a xlink:href="dir_000018_000060.html" target="_top" xlink:title="2">
<text text-anchor="middle" x="75.8781" y="-120.4769" font-family="Helvetica,sans-Serif" font-size="10.00" fill="#000000">2</text>
</a>
</g>
</g>
<!-- dir_37c90836491b695b472bf98d1be8336b&#45;&gt;dir_4ab6b4cc6a7edbff49100e9123df213f -->
<g id="edge2" class="edge">
<title>dir_37c90836491b695b472bf98d1be8336b&#45;&gt;dir_4ab6b4cc6a7edbff49100e9123df213f</title>
<path fill="none" stroke="#000000" d="M58.8136,-36.266C55.5889,-46.6217 51.9251,-59.8923 50,-72 46.7305,-92.563 45.7797,-116.0775 45.6202,-133.9132"/>
<polygon fill="#000000" stroke="#000000" points="42.1203,-133.9454 45.6078,-143.9498 49.1203,-133.9541 42.1203,-133.9454"/>
<g id="a_edge2&#45;headlabel"><a xlink:href="dir_000254_000018.html" target="_top" xlink:title="16">
<text text-anchor="middle" x="39.2854" y="-127.8473" font-family="Helvetica,sans-Serif" font-size="10.00" fill="#000000">16</text>
</a>
</g>
</g>
<!-- dir_37c90836491b695b472bf98d1be8336b&#45;&gt;dir_2171f7ec022c5423887b07c69b2f5b48 -->
<g id="edge3" class="edge">
<title>dir_37c90836491b695b472bf98d1be8336b&#45;&gt;dir_2171f7ec022c5423887b07c69b2f5b48</title>
<path fill="none" stroke="#000000" d="M79.6712,-36.4133C84.1576,-44.3141 88.7985,-53.7132 92.5579,-62.417"/>
<polygon fill="#000000" stroke="#000000" points="89.3734,-63.8778 96.3728,-71.8314 95.861,-61.2489 89.3734,-63.8778"/>
<g id="a_edge3&#45;headlabel"><a xlink:href="dir_000254_000060.html" target="_top" xlink:title="7">
<text text-anchor="middle" x="85.3921" y="-59.1125" font-family="Helvetica,sans-Serif" font-size="10.00" fill="#000000">7</text>
</a>
</g>
</g>
<!-- dir_9f065a6c27ad05d142739bd8f4136180&#45;&gt;dir_4ab6b4cc6a7edbff49100e9123df213f -->
<g id="edge8" class="edge">
<title>dir_9f065a6c27ad05d142739bd8f4136180&#45;&gt;dir_4ab6b4cc6a7edbff49100e9123df213f</title>
<path fill="none" stroke="#000000" d="M77.4016,-215.8314C72.7123,-207.7925 67.0972,-198.1666 61.9202,-189.2918"/>
<polygon fill="#000000" stroke="#000000" points="64.8031,-187.2875 56.7411,-180.4133 58.7566,-190.8146 64.8031,-187.2875"/>
<g id="a_edge8&#45;headlabel"><a xlink:href="dir_000115_000018.html" target="_top" xlink:title="1">
<text text-anchor="middle" x="69.0667" y="-186.4618" font-family="Helvetica,sans-Serif" font-size="10.00" fill="#000000">1</text>
</a>
</g>
</g>
<!-- dir_9f065a6c27ad05d142739bd8f4136180&#45;&gt;dir_2171f7ec022c5423887b07c69b2f5b48 -->
<g id="edge9" class="edge">
<title>dir_9f065a6c27ad05d142739bd8f4136180&#45;&gt;dir_2171f7ec022c5423887b07c69b2f5b48</title>
<path fill="none" stroke="#000000" d="M89.3932,-215.7623C91.2694,-191.201 94.6269,-147.2474 96.8341,-118.3541"/>
<polygon fill="#000000" stroke="#000000" points="100.3462,-118.3272 97.6182,-108.0896 93.3666,-117.794 100.3462,-118.3272"/>
<g id="a_edge9&#45;headlabel"><a xlink:href="dir_000115_000060.html" target="_top" xlink:title="3">
<text text-anchor="middle" x="102.9036" y="-119.6276" font-family="Helvetica,sans-Serif" font-size="10.00" fill="#000000">3</text>
</a>
</g>
</g>
<!-- dir_2171f7ec022c5423887b07c69b2f5b48&#45;&gt;dir_4ab6b4cc6a7edbff49100e9123df213f -->
<g id="edge10" class="edge">
<title>dir_2171f7ec022c5423887b07c69b2f5b48&#45;&gt;dir_4ab6b4cc6a7edbff49100e9123df213f</title>
<path fill="none" stroke="#000000" d="M91.4218,-108.4133C86.0893,-116.7389 78.918,-126.7282 71.7974,-135.8144"/>
<polygon fill="#000000" stroke="#000000" points="68.8839,-133.8516 65.3265,-143.8314 74.3309,-138.2482 68.8839,-133.8516"/>
<g id="a_edge10&#45;headlabel"><a xlink:href="dir_000060_000018.html" target="_top" xlink:title="29">
<text text-anchor="middle" x="68.9322" y="-126.7712" font-family="Helvetica,sans-Serif" font-size="10.00" fill="#000000">29</text>
</a>
</g>
</g>
<!-- dir_2171f7ec022c5423887b07c69b2f5b48&#45;&gt;dir_37c90836491b695b472bf98d1be8336b -->
<g id="edge11" class="edge">
<title>dir_2171f7ec022c5423887b07c69b2f5b48&#45;&gt;dir_37c90836491b695b472bf98d1be8336b</title>
<path fill="none" stroke="#000000" d="M84.468,-71.8314C79.9848,-63.9617 75.3365,-54.5712 71.559,-45.8533"/>
<polygon fill="#000000" stroke="#000000" points="74.7291,-44.3575 67.7191,-36.4133 68.245,-46.9951 74.7291,-44.3575"/>
<g id="a_edge11&#45;headlabel"><a xlink:href="dir_000060_000254.html" target="_top" xlink:title="1">
<text text-anchor="middle" x="78.7134" y="-44.1175" font-family="Helvetica,sans-Serif" font-size="10.00" fill="#000000">1</text>
</a>
</g>
</g>
</g>
</svg>
