<?xml version="1.0" encoding="UTF-8" standalone="no"?>
<!DOCTYPE svg PUBLIC "-//W3C//DTD SVG 1.1//EN"
 "http://www.w3.org/Graphics/SVG/1.1/DTD/svg11.dtd">
<!-- Generated by graphviz version 2.40.1 (20161225.0304)
 -->
<!-- Title: /home/travis/build/AliceO2Group/AliceO2/Detectors/Raw/test Pages: 1 -->
<svg width="150pt" height="223pt"
 viewBox="0.00 0.00 150.00 223.00" xmlns="http://www.w3.org/2000/svg" xmlns:xlink="http://www.w3.org/1999/xlink">
<g id="graph0" class="graph" transform="scale(1 1) rotate(0) translate(4 219)">
<title>/home/travis/build/AliceO2Group/AliceO2/Detectors/Raw/test</title>
<g id="clust1" class="cluster">
<title>clusterdir_26637d1bd82229bc9ed97f7e706be743</title>
<g id="a_clust1"><a xlink:href="dir_26637d1bd82229bc9ed97f7e706be743.html" target="_top" xlink:title="Raw">
<polygon fill="#ddddee" stroke="#000000" points="64,-136 64,-207 134,-207 134,-136 64,-136"/>
<text text-anchor="middle" x="99" y="-195" font-family="Helvetica,sans-Serif" font-size="10.00" fill="#000000">Raw</text>
</a>
</g>
</g>
<!-- dir_ad2743a7b674ebde609a028c028243d4 -->
<g id="node1" class="node">
<title>dir_ad2743a7b674ebde609a028c028243d4</title>
<g id="a_node1"><a xlink:href="dir_ad2743a7b674ebde609a028c028243d4.html" target="_top" xlink:title="test">
<polygon fill="#eeeeff" stroke="#000000" points="126,-180 72,-180 72,-144 126,-144 126,-180"/>
<text text-anchor="middle" x="99" y="-159.5" font-family="Helvetica,sans-Serif" font-size="10.00" fill="#000000">test</text>
</a>
</g>
</g>
<!-- dir_40b4a122691869ee86baf7f2711ed718 -->
<g id="node2" class="node">
<title>dir_40b4a122691869ee86baf7f2711ed718</title>
<g id="a_node2"><a xlink:href="dir_40b4a122691869ee86baf7f2711ed718.html" target="_top" xlink:title="Steer">
<polygon fill="none" stroke="#ff0000" points="54,-108 0,-108 0,-72 54,-72 54,-108"/>
<text text-anchor="middle" x="27" y="-87.5" font-family="Helvetica,sans-Serif" font-size="10.00" fill="#000000">Steer</text>
</a>
</g>
</g>
<!-- dir_ad2743a7b674ebde609a028c028243d4&#45;&gt;dir_40b4a122691869ee86baf7f2711ed718 -->
<g id="edge3" class="edge">
<title>dir_ad2743a7b674ebde609a028c028243d4&#45;&gt;dir_40b4a122691869ee86baf7f2711ed718</title>
<path fill="none" stroke="#000000" d="M80.8314,-143.8314C72.2848,-135.2848 61.9443,-124.9443 52.6198,-115.6198"/>
<polygon fill="#000000" stroke="#000000" points="54.9592,-113.0095 45.4133,-108.4133 50.0095,-117.9592 54.9592,-113.0095"/>
<g id="a_edge3&#45;headlabel"><a xlink:href="dir_000519_000647.html" target="_top" xlink:title="1">
<text text-anchor="middle" x="59.5087" y="-111.0436" font-family="Helvetica,sans-Serif" font-size="10.00" fill="#000000">1</text>
</a>
</g>
</g>
<!-- dir_a1183e661fa32b27f9c405ddcaa2e598 -->
<g id="node3" class="node">
<title>dir_a1183e661fa32b27f9c405ddcaa2e598</title>
<g id="a_node3"><a xlink:href="dir_a1183e661fa32b27f9c405ddcaa2e598.html" target="_top" xlink:title="include">
<polygon fill="none" stroke="#ff0000" points="126,-108 72,-108 72,-72 126,-72 126,-108"/>
<text text-anchor="middle" x="99" y="-87.5" font-family="Helvetica,sans-Serif" font-size="10.00" fill="#000000">include</text>
</a>
</g>
</g>
<!-- dir_ad2743a7b674ebde609a028c028243d4&#45;&gt;dir_a1183e661fa32b27f9c405ddcaa2e598 -->
<g id="edge4" class="edge">
<title>dir_ad2743a7b674ebde609a028c028243d4&#45;&gt;dir_a1183e661fa32b27f9c405ddcaa2e598</title>
<path fill="none" stroke="#000000" d="M99,-143.8314C99,-136.131 99,-126.9743 99,-118.4166"/>
<polygon fill="#000000" stroke="#000000" points="102.5001,-118.4132 99,-108.4133 95.5001,-118.4133 102.5001,-118.4132"/>
<g id="a_edge4&#45;headlabel"><a xlink:href="dir_000519_000506.html" target="_top" xlink:title="1">
<text text-anchor="middle" x="105.3393" y="-119.5079" font-family="Helvetica,sans-Serif" font-size="10.00" fill="#000000">1</text>
</a>
</g>
</g>
<!-- dir_2171f7ec022c5423887b07c69b2f5b48 -->
<g id="node4" class="node">
<title>dir_2171f7ec022c5423887b07c69b2f5b48</title>
<g id="a_node4"><a xlink:href="dir_2171f7ec022c5423887b07c69b2f5b48.html" target="_top" xlink:title="DataFormats">
<polygon fill="none" stroke="#ff0000" points="139,-36 59,-36 59,0 139,0 139,-36"/>
<text text-anchor="middle" x="99" y="-15.5" font-family="Helvetica,sans-Serif" font-size="10.00" fill="#000000">DataFormats</text>
</a>
</g>
</g>
<!-- dir_ad2743a7b674ebde609a028c028243d4&#45;&gt;dir_2171f7ec022c5423887b07c69b2f5b48 -->
<g id="edge5" class="edge">
<title>dir_ad2743a7b674ebde609a028c028243d4&#45;&gt;dir_2171f7ec022c5423887b07c69b2f5b48</title>
<path fill="none" stroke="#000000" d="M114.9905,-143.9169C122.6538,-134.0371 131.0166,-121.1563 135,-108 139.6365,-92.6865 139.6365,-87.3135 135,-72 132.0436,-62.2355 126.6748,-52.6229 120.97,-44.2762"/>
<polygon fill="#000000" stroke="#000000" points="123.7129,-42.0973 114.9905,-36.0831 118.0586,-46.2239 123.7129,-42.0973"/>
<g id="a_edge5&#45;headlabel"><a xlink:href="dir_000519_000060.html" target="_top" xlink:title="1">
<text text-anchor="middle" x="128.1253" y="-40.827" font-family="Helvetica,sans-Serif" font-size="10.00" fill="#000000">1</text>
</a>
</g>
</g>
<!-- dir_40b4a122691869ee86baf7f2711ed718&#45;&gt;dir_2171f7ec022c5423887b07c69b2f5b48 -->
<g id="edge1" class="edge">
<title>dir_40b4a122691869ee86baf7f2711ed718&#45;&gt;dir_2171f7ec022c5423887b07c69b2f5b48</title>
<path fill="none" stroke="#000000" d="M45.1686,-71.8314C53.7152,-63.2848 64.0557,-52.9443 73.3802,-43.6198"/>
<polygon fill="#000000" stroke="#000000" points="75.9905,-45.9592 80.5867,-36.4133 71.0408,-41.0095 75.9905,-45.9592"/>
<g id="a_edge1&#45;headlabel"><a xlink:href="dir_000647_000060.html" target="_top" xlink:title="134">
<text text-anchor="middle" x="75.4564" y="-48.0087" font-family="Helvetica,sans-Serif" font-size="10.00" fill="#000000">134</text>
</a>
</g>
</g>
<!-- dir_a1183e661fa32b27f9c405ddcaa2e598&#45;&gt;dir_2171f7ec022c5423887b07c69b2f5b48 -->
<g id="edge2" class="edge">
<title>dir_a1183e661fa32b27f9c405ddcaa2e598&#45;&gt;dir_2171f7ec022c5423887b07c69b2f5b48</title>
<path fill="none" stroke="#000000" d="M99,-71.8314C99,-64.131 99,-54.9743 99,-46.4166"/>
<polygon fill="#000000" stroke="#000000" points="102.5001,-46.4132 99,-36.4133 95.5001,-46.4133 102.5001,-46.4132"/>
<g id="a_edge2&#45;headlabel"><a xlink:href="dir_000506_000060.html" target="_top" xlink:title="3">
<text text-anchor="middle" x="105.3393" y="-47.5079" font-family="Helvetica,sans-Serif" font-size="10.00" fill="#000000">3</text>
</a>
</g>
</g>
</g>
</svg>
