<?xml version="1.0" encoding="UTF-8" standalone="no"?>
<!DOCTYPE svg PUBLIC "-//W3C//DTD SVG 1.1//EN"
 "http://www.w3.org/Graphics/SVG/1.1/DTD/svg11.dtd">
<!-- Generated by graphviz version 2.40.1 (20161225.0304)
 -->
<!-- Title: /home/travis/build/AliceO2Group/AliceO2/Framework Pages: 1 -->
<!--zoomable 332 -->
<svg id="main" version="1.1" xmlns="http://www.w3.org/2000/svg" xmlns:xlink="http://www.w3.org/1999/xlink" xml:space="preserve" onload="init(evt)">
<style type="text/css"><![CDATA[
.edge:hover path { stroke: red; }
.edge:hover polygon { stroke: red; fill: red; }
]]></style>
<script type="text/javascript"><![CDATA[
var edges = document.getElementsByTagName('g');
if (edges && edges.length) {
  for (var i=0;i<edges.length;i++) {
    if (edges[i].id.substr(0,4)=='edge') {
      edges[i].setAttribute('class','edge');
    }
  }
}
]]></script>
        <defs>
                <circle id="rim" cx="0" cy="0" r="7"/>
                <circle id="rim2" cx="0" cy="0" r="3.5"/>
                <g id="zoomPlus">
                        <use xlink:href="#rim" fill="#404040">
                                <set attributeName="fill" to="#808080" begin="zoomplus.mouseover" end="zoomplus.mouseout"/>
                        </use>
                        <path d="M-4,0h8M0,-4v8" fill="none" stroke="white" stroke-width="1.5" pointer-events="none"/>
                </g>
                <g id="zoomMin">
                        <use xlink:href="#rim" fill="#404040">
                                <set attributeName="fill" to="#808080" begin="zoomminus.mouseover" end="zoomminus.mouseout"/>
                        </use>
                        <path d="M-4,0h8" fill="none" stroke="white" stroke-width="1.5" pointer-events="none"/>
                </g>
                <g id="dirArrow">
                        <path fill="none" stroke="white" stroke-width="1.5" d="M0,-3.0v7 M-2.5,-0.5L0,-3.0L2.5,-0.5"/>
                </g>
               <g id="resetDef">
                       <use xlink:href="#rim2" fill="#404040">
                               <set attributeName="fill" to="#808080" begin="reset.mouseover" end="reset.mouseout"/>
                       </use>
               </g>
        </defs>

<script type="text/javascript">
var viewWidth = 606;
var viewHeight = 332;
var sectionId = 'dynsection-0';
</script>
<script xlink:href="svgpan.js"/>
<svg id="graph" class="graph">
<g id="viewport">
<title>/home/travis/build/AliceO2Group/AliceO2/Framework</title>
<g id="clust1" class="cluster">
<title>clusterdir_bcbb2cf9a3d3d83e5515c82071a07177</title>
<g id="a_clust1"><a xlink:href="dir_bcbb2cf9a3d3d83e5515c82071a07177.html" target="_top">
<polygon fill="#eeeeff" stroke="#000000" points="8,-64 8,-260 472,-260 472,-64 8,-64"/>
</a>
</g>
</g>
<!-- dir_bcbb2cf9a3d3d83e5515c82071a07177 -->
<g id="node1" class="node">
<title>dir_bcbb2cf9a3d3d83e5515c82071a07177</title>
<text text-anchor="middle" x="428" y="-231.5" font-family="Helvetica,sans-Serif" font-size="10.00" fill="#000000">Framework</text>
</g>
<!-- dir_64861cbbb8da7e0b9b4ed3871e4e2192 -->
<g id="node2" class="node">
<title>dir_64861cbbb8da7e0b9b4ed3871e4e2192</title>
<g id="a_node2"><a xlink:href="dir_64861cbbb8da7e0b9b4ed3871e4e2192.html" target="_top" xlink:title="AnalysisTutorial">
<polygon fill="#ffffff" stroke="#ff0000" points="110,-252 16,-252 16,-216 110,-216 110,-252"/>
<text text-anchor="middle" x="63" y="-231.5" font-family="Helvetica,sans-Serif" font-size="10.00" fill="#000000">AnalysisTutorial</text>
</a>
</g>
</g>
<!-- dir_9f165b2481dacfe69aa54d326bd5cd47 -->
<g id="node4" class="node">
<title>dir_9f165b2481dacfe69aa54d326bd5cd47</title>
<g id="a_node4"><a xlink:href="dir_9f165b2481dacfe69aa54d326bd5cd47.html" target="_top" xlink:title="Core">
<polygon fill="#ffffff" stroke="#ff0000" points="346,-180 292,-180 292,-144 346,-144 346,-180"/>
<text text-anchor="middle" x="319" y="-159.5" font-family="Helvetica,sans-Serif" font-size="10.00" fill="#000000">Core</text>
</a>
</g>
</g>
<!-- dir_64861cbbb8da7e0b9b4ed3871e4e2192&#45;&gt;dir_9f165b2481dacfe69aa54d326bd5cd47 -->
<g id="edge23" class="edge">
<title>dir_64861cbbb8da7e0b9b4ed3871e4e2192&#45;&gt;dir_9f165b2481dacfe69aa54d326bd5cd47</title>
<path fill="none" stroke="#000000" d="M110.0038,-218.7138C113.0435,-217.7803 116.062,-216.8683 119,-216 175.4775,-199.309 241.5313,-181.8771 281.8042,-171.481"/>
<polygon fill="#000000" stroke="#000000" points="282.8998,-174.8132 291.7119,-168.9312 281.1551,-168.0341 282.8998,-174.8132"/>
<g id="a_edge23&#45;headlabel"><a xlink:href="dir_000590_000597.html" target="_top" xlink:title="23">
<text text-anchor="middle" x="280.1263" y="-175.9587" font-family="Helvetica,sans-Serif" font-size="10.00" fill="#000000">23</text>
</a>
</g>
</g>
<!-- dir_b315c7ac2f7d253010ed820f5520e66b -->
<g id="node3" class="node">
<title>dir_b315c7ac2f7d253010ed820f5520e66b</title>
<g id="a_node3"><a xlink:href="dir_b315c7ac2f7d253010ed820f5520e66b.html" target="_top" xlink:title="ArrowTests">
<polygon fill="#ffffff" stroke="#ff0000" points="270,-252 200,-252 200,-216 270,-216 270,-252"/>
<text text-anchor="middle" x="235" y="-231.5" font-family="Helvetica,sans-Serif" font-size="10.00" fill="#000000">ArrowTests</text>
</a>
</g>
</g>
<!-- dir_5d813cdce1e9826318f2aba62999ca51 -->
<g id="node5" class="node">
<title>dir_5d813cdce1e9826318f2aba62999ca51</title>
<g id="a_node5"><a xlink:href="dir_5d813cdce1e9826318f2aba62999ca51.html" target="_top" xlink:title="Foundation">
<polygon fill="#ffffff" stroke="#ff0000" points="354.5,-108 283.5,-108 283.5,-72 354.5,-72 354.5,-108"/>
<text text-anchor="middle" x="319" y="-87.5" font-family="Helvetica,sans-Serif" font-size="10.00" fill="#000000">Foundation</text>
</a>
</g>
</g>
<!-- dir_9f165b2481dacfe69aa54d326bd5cd47&#45;&gt;dir_5d813cdce1e9826318f2aba62999ca51 -->
<g id="edge12" class="edge">
<title>dir_9f165b2481dacfe69aa54d326bd5cd47&#45;&gt;dir_5d813cdce1e9826318f2aba62999ca51</title>
<path fill="none" stroke="#000000" d="M313.0476,-143.8314C312.2972,-136.131 312.0763,-126.9743 312.3849,-118.4166"/>
<polygon fill="#000000" stroke="#000000" points="315.8792,-118.6161 313.024,-108.4133 308.8935,-118.1697 315.8792,-118.6161"/>
<g id="a_edge12&#45;headlabel"><a xlink:href="dir_000597_000602.html" target="_top" xlink:title="29">
<text text-anchor="middle" x="318.4836" y="-119.8844" font-family="Helvetica,sans-Serif" font-size="10.00" fill="#000000">29</text>
</a>
</g>
</g>
<!-- dir_ab5a80d4bd40f73f0851d5ff6a022779 -->
<g id="node6" class="node">
<title>dir_ab5a80d4bd40f73f0851d5ff6a022779</title>
<g id="a_node6"><a xlink:href="dir_ab5a80d4bd40f73f0851d5ff6a022779.html" target="_top" xlink:title="Logger">
<polygon fill="#ffffff" stroke="#ff0000" points="427,-108 373,-108 373,-72 427,-72 427,-108"/>
<text text-anchor="middle" x="400" y="-87.5" font-family="Helvetica,sans-Serif" font-size="10.00" fill="#000000">Logger</text>
</a>
</g>
</g>
<!-- dir_9f165b2481dacfe69aa54d326bd5cd47&#45;&gt;dir_ab5a80d4bd40f73f0851d5ff6a022779 -->
<g id="edge13" class="edge">
<title>dir_9f165b2481dacfe69aa54d326bd5cd47&#45;&gt;dir_ab5a80d4bd40f73f0851d5ff6a022779</title>
<path fill="none" stroke="#000000" d="M339.4397,-143.8314C349.3205,-135.0485 361.3324,-124.3712 372.045,-114.8489"/>
<polygon fill="#000000" stroke="#000000" points="374.418,-117.4224 379.5668,-108.1628 369.7674,-112.1906 374.418,-117.4224"/>
<g id="a_edge13&#45;headlabel"><a xlink:href="dir_000597_000607.html" target="_top" xlink:title="31">
<text text-anchor="middle" x="373.6177" y="-119.4326" font-family="Helvetica,sans-Serif" font-size="10.00" fill="#000000">31</text>
</a>
</g>
</g>
<!-- dir_4ab6b4cc6a7edbff49100e9123df213f -->
<g id="node10" class="node">
<title>dir_4ab6b4cc6a7edbff49100e9123df213f</title>
<g id="a_node10"><a xlink:href="dir_4ab6b4cc6a7edbff49100e9123df213f.html" target="_top" xlink:title="Common">
<polygon fill="none" stroke="#ff0000" points="542.5,-252 481.5,-252 481.5,-216 542.5,-216 542.5,-252"/>
<text text-anchor="middle" x="512" y="-231.5" font-family="Helvetica,sans-Serif" font-size="10.00" fill="#000000">Common</text>
</a>
</g>
</g>
<!-- dir_9f165b2481dacfe69aa54d326bd5cd47&#45;&gt;dir_4ab6b4cc6a7edbff49100e9123df213f -->
<g id="edge10" class="edge">
<title>dir_9f165b2481dacfe69aa54d326bd5cd47&#45;&gt;dir_4ab6b4cc6a7edbff49100e9123df213f</title>
<path fill="none" stroke="#000000" d="M346.073,-170.1111C375.7131,-179.2484 424.7287,-195.111 472.0544,-214.4812"/>
<polygon fill="#000000" stroke="#000000" points="470.9131,-217.7971 481.4907,-218.4011 473.5985,-211.3326 470.9131,-217.7971"/>
<g id="a_edge10&#45;headlabel"><a xlink:href="dir_000597_000018.html" target="_top" xlink:title="6">
<text text-anchor="middle" x="466.5044" y="-216.5402" font-family="Helvetica,sans-Serif" font-size="10.00" fill="#000000">6</text>
</a>
</g>
</g>
<!-- dir_8ba487e25de5ee77e05e9dce7582cb98 -->
<g id="node12" class="node">
<title>dir_8ba487e25de5ee77e05e9dce7582cb98</title>
<g id="a_node12"><a xlink:href="dir_8ba487e25de5ee77e05e9dce7582cb98.html" target="_top" xlink:title="Algorithm">
<polygon fill="none" stroke="#ff0000" points="578.5,-36 513.5,-36 513.5,0 578.5,0 578.5,-36"/>
<text text-anchor="middle" x="546" y="-15.5" font-family="Helvetica,sans-Serif" font-size="10.00" fill="#000000">Algorithm</text>
</a>
</g>
</g>
<!-- dir_9f165b2481dacfe69aa54d326bd5cd47&#45;&gt;dir_8ba487e25de5ee77e05e9dce7582cb98 -->
<g id="edge11" class="edge">
<title>dir_9f165b2481dacfe69aa54d326bd5cd47&#45;&gt;dir_8ba487e25de5ee77e05e9dce7582cb98</title>
<path fill="none" stroke="#000000" d="M299.5068,-143.7371C279.4225,-122.7211 253.6984,-88.0233 274,-64 288.6215,-46.6981 430.1938,-29.8454 503.0864,-22.228"/>
<polygon fill="#000000" stroke="#000000" points="503.7314,-25.6801 513.3194,-21.1721 503.0129,-18.717 503.7314,-25.6801"/>
<g id="a_edge11&#45;headlabel"><a xlink:href="dir_000597_000000.html" target="_top" xlink:title="1">
<text text-anchor="middle" x="500.4472" y="-26.3732" font-family="Helvetica,sans-Serif" font-size="10.00" fill="#000000">1</text>
</a>
</g>
</g>
<!-- dir_2171f7ec022c5423887b07c69b2f5b48 -->
<g id="node13" class="node">
<title>dir_2171f7ec022c5423887b07c69b2f5b48</title>
<g id="a_node13"><a xlink:href="dir_2171f7ec022c5423887b07c69b2f5b48.html" target="_top" xlink:title="DataFormats">
<polygon fill="none" stroke="#ff0000" points="598,-180 518,-180 518,-144 598,-144 598,-180"/>
<text text-anchor="middle" x="558" y="-159.5" font-family="Helvetica,sans-Serif" font-size="10.00" fill="#000000">DataFormats</text>
</a>
</g>
</g>
<!-- dir_9f165b2481dacfe69aa54d326bd5cd47&#45;&gt;dir_2171f7ec022c5423887b07c69b2f5b48 -->
<g id="edge14" class="edge">
<title>dir_9f165b2481dacfe69aa54d326bd5cd47&#45;&gt;dir_2171f7ec022c5423887b07c69b2f5b48</title>
<path fill="none" stroke="#000000" d="M346.0742,-162C399.9778,-162 453.8814,-162 507.785,-162"/>
<polygon fill="#000000" stroke="#000000" points="507.85,-165.5001 517.85,-162 507.85,-158.5001 507.85,-165.5001"/>
<g id="a_edge14&#45;headlabel"><a xlink:href="dir_000597_000060.html" target="_top" xlink:title="54">
<text text-anchor="middle" x="504.2554" y="-165.8393" font-family="Helvetica,sans-Serif" font-size="10.00" fill="#000000">54</text>
</a>
</g>
</g>
<!-- dir_5d813cdce1e9826318f2aba62999ca51&#45;&gt;dir_9f165b2481dacfe69aa54d326bd5cd47 -->
<g id="edge22" class="edge">
<title>dir_5d813cdce1e9826318f2aba62999ca51&#45;&gt;dir_9f165b2481dacfe69aa54d326bd5cd47</title>
<path fill="none" stroke="#000000" d="M324.976,-108.4133C325.7071,-116.0593 325.9203,-125.1084 325.6155,-133.5726"/>
<polygon fill="#000000" stroke="#000000" points="322.1048,-133.6264 324.9524,-143.8314 329.0902,-134.078 322.1048,-133.6264"/>
<g id="a_edge22&#45;headlabel"><a xlink:href="dir_000602_000597.html" target="_top" xlink:title="1">
<text text-anchor="middle" x="319.5032" y="-127.3562" font-family="Helvetica,sans-Serif" font-size="10.00" fill="#000000">1</text>
</a>
</g>
</g>
<!-- dir_a8f73827fca2a0188d35dc47dc5b0ea3 -->
<g id="node7" class="node">
<title>dir_a8f73827fca2a0188d35dc47dc5b0ea3</title>
<g id="a_node7"><a xlink:href="dir_a8f73827fca2a0188d35dc47dc5b0ea3.html" target="_top" xlink:title="TestWorkflows">
<polygon fill="#ffffff" stroke="#ff0000" points="374,-252 288,-252 288,-216 374,-216 374,-252"/>
<text text-anchor="middle" x="331" y="-231.5" font-family="Helvetica,sans-Serif" font-size="10.00" fill="#000000">TestWorkflows</text>
</a>
</g>
</g>
<!-- dir_a8f73827fca2a0188d35dc47dc5b0ea3&#45;&gt;dir_9f165b2481dacfe69aa54d326bd5cd47 -->
<g id="edge3" class="edge">
<title>dir_a8f73827fca2a0188d35dc47dc5b0ea3&#45;&gt;dir_9f165b2481dacfe69aa54d326bd5cd47</title>
<path fill="none" stroke="#000000" d="M327.9719,-215.8314C326.6885,-208.131 325.1624,-198.9743 323.7361,-190.4166"/>
<polygon fill="#000000" stroke="#000000" points="327.1653,-189.7018 322.0689,-180.4133 320.2606,-190.8526 327.1653,-189.7018"/>
<g id="a_edge3&#45;headlabel"><a xlink:href="dir_000594_000597.html" target="_top" xlink:title="99">
<text text-anchor="middle" x="330.5568" y="-190.2807" font-family="Helvetica,sans-Serif" font-size="10.00" fill="#000000">99</text>
</a>
</g>
</g>
<!-- dir_a8f73827fca2a0188d35dc47dc5b0ea3&#45;&gt;dir_ab5a80d4bd40f73f0851d5ff6a022779 -->
<g id="edge5" class="edge">
<title>dir_a8f73827fca2a0188d35dc47dc5b0ea3&#45;&gt;dir_ab5a80d4bd40f73f0851d5ff6a022779</title>
<path fill="none" stroke="#000000" d="M346.197,-215.9133C354.1049,-205.8296 363.4595,-192.7614 370,-180 380.1576,-160.1813 387.9544,-136.1904 393.0505,-117.9637"/>
<polygon fill="#000000" stroke="#000000" points="396.4499,-118.8001 395.6689,-108.2341 389.6904,-116.9809 396.4499,-118.8001"/>
<g id="a_edge5&#45;headlabel"><a xlink:href="dir_000594_000607.html" target="_top" xlink:title="12">
<text text-anchor="middle" x="398.2575" y="-120.509" font-family="Helvetica,sans-Serif" font-size="10.00" fill="#000000">12</text>
</a>
</g>
</g>
<!-- dir_0b342c6c6b7d2278121a0bb9c4985063 -->
<g id="node9" class="node">
<title>dir_0b342c6c6b7d2278121a0bb9c4985063</title>
<g id="a_node9"><a xlink:href="dir_0b342c6c6b7d2278121a0bb9c4985063.html" target="_top" xlink:title="Generators">
<polygon fill="none" stroke="#ff0000" points="547.5,-324 476.5,-324 476.5,-288 547.5,-288 547.5,-324"/>
<text text-anchor="middle" x="512" y="-303.5" font-family="Helvetica,sans-Serif" font-size="10.00" fill="#000000">Generators</text>
</a>
</g>
</g>
<!-- dir_a8f73827fca2a0188d35dc47dc5b0ea3&#45;&gt;dir_0b342c6c6b7d2278121a0bb9c4985063 -->
<g id="edge1" class="edge">
<title>dir_a8f73827fca2a0188d35dc47dc5b0ea3&#45;&gt;dir_0b342c6c6b7d2278121a0bb9c4985063</title>
<path fill="none" stroke="#000000" d="M365.6915,-252.0709C371.4196,-254.8445 377.3365,-257.5849 383,-260 410.3214,-271.6509 441.6949,-282.8843 466.6606,-291.3335"/>
<polygon fill="#000000" stroke="#000000" points="465.6455,-294.6846 476.2395,-294.5455 467.871,-288.0478 465.6455,-294.6846"/>
<g id="a_edge1&#45;headlabel"><a xlink:href="dir_000594_000614.html" target="_top" xlink:title="1">
<text text-anchor="middle" x="461.3348" y="-293.7339" font-family="Helvetica,sans-Serif" font-size="10.00" fill="#000000">1</text>
</a>
</g>
</g>
<!-- dir_a8f73827fca2a0188d35dc47dc5b0ea3&#45;&gt;dir_4ab6b4cc6a7edbff49100e9123df213f -->
<g id="edge2" class="edge">
<title>dir_a8f73827fca2a0188d35dc47dc5b0ea3&#45;&gt;dir_4ab6b4cc6a7edbff49100e9123df213f</title>
<path fill="none" stroke="#000000" d="M352.0267,-252.1908C363.1251,-260.5907 377.4385,-269.6515 392,-274 423.9396,-283.5381 435.8426,-285.846 467,-274 475.427,-270.7961 483.2836,-265.2106 489.9977,-259.212"/>
<polygon fill="#000000" stroke="#000000" points="492.5864,-261.5768 497.3203,-252.0984 487.7088,-256.5559 492.5864,-261.5768"/>
<g id="a_edge2&#45;headlabel"><a xlink:href="dir_000594_000018.html" target="_top" xlink:title="2">
<text text-anchor="middle" x="491.9865" y="-263.618" font-family="Helvetica,sans-Serif" font-size="10.00" fill="#000000">2</text>
</a>
</g>
</g>
<!-- dir_051dca18e802f8e9474f2e30d29c04e0 -->
<g id="node11" class="node">
<title>dir_051dca18e802f8e9474f2e30d29c04e0</title>
<g id="a_node11"><a xlink:href="dir_051dca18e802f8e9474f2e30d29c04e0.html" target="_top" xlink:title="Detectors">
<polygon fill="none" stroke="#ff0000" points="544,-108 480,-108 480,-72 544,-72 544,-108"/>
<text text-anchor="middle" x="512" y="-87.5" font-family="Helvetica,sans-Serif" font-size="10.00" fill="#000000">Detectors</text>
</a>
</g>
</g>
<!-- dir_a8f73827fca2a0188d35dc47dc5b0ea3&#45;&gt;dir_051dca18e802f8e9474f2e30d29c04e0 -->
<g id="edge4" class="edge">
<title>dir_a8f73827fca2a0188d35dc47dc5b0ea3&#45;&gt;dir_051dca18e802f8e9474f2e30d29c04e0</title>
<path fill="none" stroke="#000000" d="M370.0285,-215.8182C388.4522,-206.3694 410.2396,-193.8958 428,-180 452.1556,-161.1005 475.6244,-135.11 491.5863,-115.9166"/>
<polygon fill="#000000" stroke="#000000" points="494.3204,-118.1021 497.9477,-108.1475 488.9044,-113.6674 494.3204,-118.1021"/>
<g id="a_edge4&#45;headlabel"><a xlink:href="dir_000594_000003.html" target="_top" xlink:title="4">
<text text-anchor="middle" x="494.24" y="-120.182" font-family="Helvetica,sans-Serif" font-size="10.00" fill="#000000">4</text>
</a>
</g>
</g>
<!-- dir_a8f73827fca2a0188d35dc47dc5b0ea3&#45;&gt;dir_2171f7ec022c5423887b07c69b2f5b48 -->
<g id="edge6" class="edge">
<title>dir_a8f73827fca2a0188d35dc47dc5b0ea3&#45;&gt;dir_2171f7ec022c5423887b07c69b2f5b48</title>
<path fill="none" stroke="#000000" d="M374.0922,-218.9574C377.103,-217.9452 380.0946,-216.9508 383,-216 424.9429,-202.2738 472.8477,-187.5579 507.92,-176.9604"/>
<polygon fill="#000000" stroke="#000000" points="509.3491,-180.1852 517.913,-173.9474 507.3283,-173.4833 509.3491,-180.1852"/>
<g id="a_edge6&#45;headlabel"><a xlink:href="dir_000594_000060.html" target="_top" xlink:title="5">
<text text-anchor="middle" x="506.7271" y="-181.4412" font-family="Helvetica,sans-Serif" font-size="10.00" fill="#000000">5</text>
</a>
</g>
</g>
<!-- dir_86f64936653d09622c529b3cc7c8edcd -->
<g id="node8" class="node">
<title>dir_86f64936653d09622c529b3cc7c8edcd</title>
<g id="a_node8"><a xlink:href="dir_86f64936653d09622c529b3cc7c8edcd.html" target="_top" xlink:title="Utils">
<polygon fill="#ffffff" stroke="#ff0000" points="182,-252 128,-252 128,-216 182,-216 182,-252"/>
<text text-anchor="middle" x="155" y="-231.5" font-family="Helvetica,sans-Serif" font-size="10.00" fill="#000000">Utils</text>
</a>
</g>
</g>
<!-- dir_86f64936653d09622c529b3cc7c8edcd&#45;&gt;dir_9f165b2481dacfe69aa54d326bd5cd47 -->
<g id="edge24" class="edge">
<title>dir_86f64936653d09622c529b3cc7c8edcd&#45;&gt;dir_9f165b2481dacfe69aa54d326bd5cd47</title>
<path fill="none" stroke="#000000" d="M182.0363,-220.2482C185.0473,-218.7864 188.0802,-217.3442 191,-216 221.5002,-201.959 256.681,-187.2199 282.4319,-176.6944"/>
<polygon fill="#000000" stroke="#000000" points="283.8676,-179.8889 291.8101,-172.8769 281.2284,-173.4054 283.8676,-179.8889"/>
<g id="a_edge24&#45;headlabel"><a xlink:href="dir_000037_000597.html" target="_top" xlink:title="77">
<text text-anchor="middle" x="281.6087" y="-181.3738" font-family="Helvetica,sans-Serif" font-size="10.00" fill="#000000">77</text>
</a>
</g>
</g>
<!-- dir_86f64936653d09622c529b3cc7c8edcd&#45;&gt;dir_5d813cdce1e9826318f2aba62999ca51 -->
<g id="edge25" class="edge">
<title>dir_86f64936653d09622c529b3cc7c8edcd&#45;&gt;dir_5d813cdce1e9826318f2aba62999ca51</title>
<path fill="none" stroke="#000000" d="M175.7707,-215.7623C204.8523,-190.2272 257.8057,-143.7316 290.5385,-114.9906"/>
<polygon fill="#000000" stroke="#000000" points="293.1928,-117.3177 298.3979,-108.0896 288.5742,-112.0576 293.1928,-117.3177"/>
<g id="a_edge25&#45;headlabel"><a xlink:href="dir_000037_000602.html" target="_top" xlink:title="1">
<text text-anchor="middle" x="292.3651" y="-119.3229" font-family="Helvetica,sans-Serif" font-size="10.00" fill="#000000">1</text>
</a>
</g>
</g>
<!-- dir_86f64936653d09622c529b3cc7c8edcd&#45;&gt;dir_ab5a80d4bd40f73f0851d5ff6a022779 -->
<g id="edge26" class="edge">
<title>dir_86f64936653d09622c529b3cc7c8edcd&#45;&gt;dir_ab5a80d4bd40f73f0851d5ff6a022779</title>
<path fill="none" stroke="#000000" d="M182.2114,-219.5211C185.1355,-218.2293 188.1013,-217.0249 191,-216 261.3558,-191.1232 297.7345,-227.8482 355,-180 368.3013,-168.8861 362.4459,-159.6006 370,-144 374.3249,-135.0684 379.4427,-125.5385 384.2152,-117.0098"/>
<polygon fill="#000000" stroke="#000000" points="387.3099,-118.6479 389.2045,-108.2238 381.2229,-115.1913 387.3099,-118.6479"/>
<g id="a_edge26&#45;headlabel"><a xlink:href="dir_000037_000607.html" target="_top" xlink:title="8">
<text text-anchor="middle" x="388.0039" y="-120.6757" font-family="Helvetica,sans-Serif" font-size="10.00" fill="#000000">8</text>
</a>
</g>
</g>
<!-- dir_86f64936653d09622c529b3cc7c8edcd&#45;&gt;dir_2171f7ec022c5423887b07c69b2f5b48 -->
<g id="edge27" class="edge">
<title>dir_86f64936653d09622c529b3cc7c8edcd&#45;&gt;dir_2171f7ec022c5423887b07c69b2f5b48</title>
<path fill="none" stroke="#000000" d="M182.1222,-219.2494C185.0637,-218.0106 188.0579,-216.8929 191,-216 313.171,-178.9232 350.186,-201.7092 476,-180 486.3401,-178.2158 497.3495,-176.0116 507.8339,-173.7647"/>
<polygon fill="#000000" stroke="#000000" points="508.665,-177.1657 517.6862,-171.6097 507.1692,-170.3274 508.665,-177.1657"/>
<g id="a_edge27&#45;headlabel"><a xlink:href="dir_000037_000060.html" target="_top" xlink:title="9">
<text text-anchor="middle" x="505.7601" y="-178.2075" font-family="Helvetica,sans-Serif" font-size="10.00" fill="#000000">9</text>
</a>
</g>
</g>
<!-- dir_0b342c6c6b7d2278121a0bb9c4985063&#45;&gt;dir_4ab6b4cc6a7edbff49100e9123df213f -->
<g id="edge7" class="edge">
<title>dir_0b342c6c6b7d2278121a0bb9c4985063&#45;&gt;dir_4ab6b4cc6a7edbff49100e9123df213f</title>
<path fill="none" stroke="#000000" d="M512,-287.8314C512,-280.131 512,-270.9743 512,-262.4166"/>
<polygon fill="#000000" stroke="#000000" points="515.5001,-262.4132 512,-252.4133 508.5001,-262.4133 515.5001,-262.4132"/>
<g id="a_edge7&#45;headlabel"><a xlink:href="dir_000614_000018.html" target="_top" xlink:title="9">
<text text-anchor="middle" x="518.3393" y="-263.5079" font-family="Helvetica,sans-Serif" font-size="10.00" fill="#000000">9</text>
</a>
</g>
</g>
<!-- dir_0b342c6c6b7d2278121a0bb9c4985063&#45;&gt;dir_2171f7ec022c5423887b07c69b2f5b48 -->
<g id="edge8" class="edge">
<title>dir_0b342c6c6b7d2278121a0bb9c4985063&#45;&gt;dir_2171f7ec022c5423887b07c69b2f5b48</title>
<path fill="none" stroke="#000000" d="M532.1608,-287.713C539.4018,-279.9292 546.8086,-270.2764 551,-260 560.0644,-237.7761 561.2791,-210.3755 560.5348,-190.2032"/>
<polygon fill="#000000" stroke="#000000" points="564.023,-189.8915 559.9778,-180.0994 557.0336,-190.2769 564.023,-189.8915"/>
<g id="a_edge8&#45;headlabel"><a xlink:href="dir_000614_000060.html" target="_top" xlink:title="1">
<text text-anchor="middle" x="567.0557" y="-190.8245" font-family="Helvetica,sans-Serif" font-size="10.00" fill="#000000">1</text>
</a>
</g>
</g>
<!-- dir_4ab6b4cc6a7edbff49100e9123df213f&#45;&gt;dir_2171f7ec022c5423887b07c69b2f5b48 -->
<g id="edge9" class="edge">
<title>dir_4ab6b4cc6a7edbff49100e9123df213f&#45;&gt;dir_2171f7ec022c5423887b07c69b2f5b48</title>
<path fill="none" stroke="#000000" d="M517.6553,-215.8314C522.0995,-207.6232 528.2024,-197.7606 534.3739,-188.7323"/>
<polygon fill="#000000" stroke="#000000" points="537.3412,-190.5981 540.26,-180.4133 531.6269,-186.555 537.3412,-190.5981"/>
<g id="a_edge9&#45;headlabel"><a xlink:href="dir_000018_000060.html" target="_top" xlink:title="2">
<text text-anchor="middle" x="537.5828" y="-192.6724" font-family="Helvetica,sans-Serif" font-size="10.00" fill="#000000">2</text>
</a>
</g>
</g>
<!-- dir_051dca18e802f8e9474f2e30d29c04e0&#45;&gt;dir_9f165b2481dacfe69aa54d326bd5cd47 -->
<g id="edge16" class="edge">
<title>dir_051dca18e802f8e9474f2e30d29c04e0&#45;&gt;dir_9f165b2481dacfe69aa54d326bd5cd47</title>
<path fill="none" stroke="#000000" d="M479.9102,-106.3084C478.5956,-106.8927 477.2886,-107.459 476,-108 435.7106,-124.9136 388.0838,-140.7315 355.9373,-150.8204"/>
<polygon fill="#000000" stroke="#000000" points="354.582,-147.5765 346.073,-153.8889 356.6613,-154.2606 354.582,-147.5765"/>
<g id="a_edge16&#45;headlabel"><a xlink:href="dir_000003_000597.html" target="_top" xlink:title="367">
<text text-anchor="middle" x="357.1711" y="-141.2977" font-family="Helvetica,sans-Serif" font-size="10.00" fill="#000000">367</text>
</a>
</g>
</g>
<!-- dir_051dca18e802f8e9474f2e30d29c04e0&#45;&gt;dir_ab5a80d4bd40f73f0851d5ff6a022779 -->
<g id="edge19" class="edge">
<title>dir_051dca18e802f8e9474f2e30d29c04e0&#45;&gt;dir_ab5a80d4bd40f73f0851d5ff6a022779</title>
<path fill="none" stroke="#000000" d="M479.8403,-90C465.7005,-90 451.5608,-90 437.421,-90"/>
<polygon fill="#000000" stroke="#000000" points="437.125,-86.5001 427.125,-90 437.125,-93.5001 437.125,-86.5001"/>
<g id="a_edge19&#45;headlabel"><a xlink:href="dir_000003_000607.html" target="_top" xlink:title="12">
<text text-anchor="middle" x="440.7196" y="-81.1607" font-family="Helvetica,sans-Serif" font-size="10.00" fill="#000000">12</text>
</a>
</g>
</g>
<!-- dir_051dca18e802f8e9474f2e30d29c04e0&#45;&gt;dir_86f64936653d09622c529b3cc7c8edcd -->
<g id="edge18" class="edge">
<title>dir_051dca18e802f8e9474f2e30d29c04e0&#45;&gt;dir_86f64936653d09622c529b3cc7c8edcd</title>
<path fill="none" stroke="#000000" d="M483.7583,-108.0116C443.6146,-133.5613 374.1952,-177.5282 368,-180 296.3508,-208.5866 269.037,-191.3043 191.8606,-216.2213"/>
<polygon fill="#000000" stroke="#000000" points="190.556,-212.9674 182.1953,-219.4751 192.7894,-219.6016 190.556,-212.9674"/>
<g id="a_edge18&#45;headlabel"><a xlink:href="dir_000003_000037.html" target="_top" xlink:title="12">
<text text-anchor="middle" x="193.0569" y="-206.6297" font-family="Helvetica,sans-Serif" font-size="10.00" fill="#000000">12</text>
</a>
</g>
</g>
<!-- dir_051dca18e802f8e9474f2e30d29c04e0&#45;&gt;dir_4ab6b4cc6a7edbff49100e9123df213f -->
<g id="edge15" class="edge">
<title>dir_051dca18e802f8e9474f2e30d29c04e0&#45;&gt;dir_4ab6b4cc6a7edbff49100e9123df213f</title>
<path fill="none" stroke="#000000" d="M510.7188,-108.4838C510.0601,-118.9076 509.3283,-132.1738 509,-144 508.5561,-159.9938 508.5561,-164.0062 509,-180 509.2282,-188.2229 509.6516,-197.142 510.1098,-205.3177"/>
<polygon fill="#000000" stroke="#000000" points="506.6289,-205.7426 510.7188,-215.5162 513.6164,-205.3253 506.6289,-205.7426"/>
<g id="a_edge15&#45;headlabel"><a xlink:href="dir_000003_000018.html" target="_top" xlink:title="199">
<text text-anchor="middle" x="503.5805" y="-199.8236" font-family="Helvetica,sans-Serif" font-size="10.00" fill="#000000">199</text>
</a>
</g>
</g>
<!-- dir_051dca18e802f8e9474f2e30d29c04e0&#45;&gt;dir_8ba487e25de5ee77e05e9dce7582cb98 -->
<g id="edge17" class="edge">
<title>dir_051dca18e802f8e9474f2e30d29c04e0&#45;&gt;dir_8ba487e25de5ee77e05e9dce7582cb98</title>
<path fill="none" stroke="#000000" d="M520.5796,-71.8314C524.3358,-63.8771 528.8257,-54.369 532.9798,-45.5723"/>
<polygon fill="#000000" stroke="#000000" points="536.1996,-46.9503 537.3048,-36.4133 529.8699,-43.9612 536.1996,-46.9503"/>
<g id="a_edge17&#45;headlabel"><a xlink:href="dir_000003_000000.html" target="_top" xlink:title="9">
<text text-anchor="middle" x="537.2321" y="-48.9131" font-family="Helvetica,sans-Serif" font-size="10.00" fill="#000000">9</text>
</a>
</g>
</g>
<!-- dir_051dca18e802f8e9474f2e30d29c04e0&#45;&gt;dir_2171f7ec022c5423887b07c69b2f5b48 -->
<g id="edge20" class="edge">
<title>dir_051dca18e802f8e9474f2e30d29c04e0&#45;&gt;dir_2171f7ec022c5423887b07c69b2f5b48</title>
<path fill="none" stroke="#000000" d="M529.74,-108.4133C535.6681,-116.484 542.0179,-126.1182 547.2955,-134.9775"/>
<polygon fill="#000000" stroke="#000000" points="544.3504,-136.8785 552.3447,-143.8314 550.4311,-133.4107 544.3504,-136.8785"/>
<g id="a_edge20&#45;headlabel"><a xlink:href="dir_000003_000060.html" target="_top" xlink:title="749">
<text text-anchor="middle" x="540.1033" y="-132.6624" font-family="Helvetica,sans-Serif" font-size="10.00" fill="#000000">749</text>
</a>
</g>
</g>
<!-- dir_8ba487e25de5ee77e05e9dce7582cb98&#45;&gt;dir_2171f7ec022c5423887b07c69b2f5b48 -->
<g id="edge21" class="edge">
<title>dir_8ba487e25de5ee77e05e9dce7582cb98&#45;&gt;dir_2171f7ec022c5423887b07c69b2f5b48</title>
<path fill="none" stroke="#000000" d="M557.4201,-36.3015C559.5818,-44.7139 561.0715,-54.838 562,-64 564.3768,-87.4535 565.645,-114.1851 564.8873,-133.7986"/>
<polygon fill="#000000" stroke="#000000" points="561.3869,-133.6966 564.2521,-143.8967 568.3731,-134.1362 561.3869,-133.6966"/>
<g id="a_edge21&#45;headlabel"><a xlink:href="dir_000000_000060.html" target="_top" xlink:title="8">
<text text-anchor="middle" x="558.7788" y="-127.4309" font-family="Helvetica,sans-Serif" font-size="10.00" fill="#000000">8</text>
</a>
</g>
</g>
<!-- dir_2171f7ec022c5423887b07c69b2f5b48&#45;&gt;dir_ab5a80d4bd40f73f0851d5ff6a022779 -->
<g id="edge31" class="edge">
<title>dir_2171f7ec022c5423887b07c69b2f5b48&#45;&gt;dir_ab5a80d4bd40f73f0851d5ff6a022779</title>
<path fill="none" stroke="#000000" d="M518.1299,-143.8314C493.1113,-132.4305 461.0878,-117.8375 436.6959,-106.7222"/>
<polygon fill="#000000" stroke="#000000" points="437.9711,-103.457 427.42,-102.4952 435.0683,-109.8268 437.9711,-103.457"/>
<g id="a_edge31&#45;headlabel"><a xlink:href="dir_000060_000607.html" target="_top" xlink:title="7">
<text text-anchor="middle" x="442.4194" y="-99.8639" font-family="Helvetica,sans-Serif" font-size="10.00" fill="#000000">7</text>
</a>
</g>
</g>
<!-- dir_2171f7ec022c5423887b07c69b2f5b48&#45;&gt;dir_4ab6b4cc6a7edbff49100e9123df213f -->
<g id="edge28" class="edge">
<title>dir_2171f7ec022c5423887b07c69b2f5b48&#45;&gt;dir_4ab6b4cc6a7edbff49100e9123df213f</title>
<path fill="none" stroke="#000000" d="M552.212,-180.4133C547.7351,-188.654 541.6152,-198.5245 535.4425,-207.536"/>
<polygon fill="#000000" stroke="#000000" points="532.4896,-205.6495 529.5601,-215.8314 538.1996,-209.6987 532.4896,-205.6495"/>
<g id="a_edge28&#45;headlabel"><a xlink:href="dir_000060_000018.html" target="_top" xlink:title="29">
<text text-anchor="middle" x="532.2528" y="-198.575" font-family="Helvetica,sans-Serif" font-size="10.00" fill="#000000">29</text>
</a>
</g>
</g>
<!-- dir_2171f7ec022c5423887b07c69b2f5b48&#45;&gt;dir_051dca18e802f8e9474f2e30d29c04e0 -->
<g id="edge29" class="edge">
<title>dir_2171f7ec022c5423887b07c69b2f5b48&#45;&gt;dir_051dca18e802f8e9474f2e30d29c04e0</title>
<path fill="none" stroke="#000000" d="M540.4399,-143.8314C534.5205,-135.7925 528.1643,-126.1666 522.8651,-117.2918"/>
<polygon fill="#000000" stroke="#000000" points="525.7905,-115.3567 517.788,-108.4133 519.7138,-118.8316 525.7905,-115.3567"/>
<g id="a_edge29&#45;headlabel"><a xlink:href="dir_000060_000003.html" target="_top" xlink:title="11">
<text text-anchor="middle" x="530.0395" y="-114.5678" font-family="Helvetica,sans-Serif" font-size="10.00" fill="#000000">11</text>
</a>
</g>
</g>
<!-- dir_2171f7ec022c5423887b07c69b2f5b48&#45;&gt;dir_8ba487e25de5ee77e05e9dce7582cb98 -->
<g id="edge30" class="edge">
<title>dir_2171f7ec022c5423887b07c69b2f5b48&#45;&gt;dir_8ba487e25de5ee77e05e9dce7582cb98</title>
<path fill="none" stroke="#000000" d="M550.9845,-143.8967C548.0767,-124.1981 546.8169,-91.7967 544,-64 543.4197,-58.2737 542.6202,-52.1717 541.9625,-46.3466"/>
<polygon fill="#000000" stroke="#000000" points="545.4384,-45.9263 541.0097,-36.3015 538.4697,-46.5873 545.4384,-45.9263"/>
<g id="a_edge30&#45;headlabel"><a xlink:href="dir_000060_000000.html" target="_top" xlink:title="1">
<text text-anchor="middle" x="548.6043" y="-46.7368" font-family="Helvetica,sans-Serif" font-size="10.00" fill="#000000">1</text>
</a>
</g>
</g>
</g>
</svg>
        <g id="navigator" transform="translate(0 0)" fill="#404254">
                <rect fill="#f2f5e9" fill-opacity="0.5" stroke="#606060" stroke-width=".5" x="0" y="0" width="60" height="60"/>
                <use id="zoomplus" xlink:href="#zoomPlus" x="17" y="9" onmousedown="handleZoom(evt,'in')"/>
                <use id="zoomminus" xlink:href="#zoomMin" x="42" y="9" onmousedown="handleZoom(evt,'out')"/>
                <use id="reset" xlink:href="#resetDef" x="30" y="36" onmousedown="handleReset()"/>
                <g id="arrowUp" xlink:href="#dirArrow" transform="translate(30 24)" onmousedown="handlePan(0,-1)">
                  <use xlink:href="#rim" fill="#404040">
                        <set attributeName="fill" to="#808080" begin="arrowUp.mouseover" end="arrowUp.mouseout"/>
                  </use>
                  <path fill="none" stroke="white" stroke-width="1.5" d="M0,-3.0v7 M-2.5,-0.5L0,-3.0L2.5,-0.5"/>
                </g>
                <g id="arrowRight" xlink:href="#dirArrow" transform="rotate(90) translate(36 -43)" onmousedown="handlePan(1,0)">
                  <use xlink:href="#rim" fill="#404040">
                        <set attributeName="fill" to="#808080" begin="arrowRight.mouseover" end="arrowRight.mouseout"/>
                  </use>
                  <path fill="none" stroke="white" stroke-width="1.5" d="M0,-3.0v7 M-2.5,-0.5L0,-3.0L2.5,-0.5"/>
                </g>
                <g id="arrowDown" xlink:href="#dirArrow" transform="rotate(180) translate(-30 -48)" onmousedown="handlePan(0,1)">
                  <use xlink:href="#rim" fill="#404040">
                        <set attributeName="fill" to="#808080" begin="arrowDown.mouseover" end="arrowDown.mouseout"/>
                  </use>
                  <path fill="none" stroke="white" stroke-width="1.5" d="M0,-3.0v7 M-2.5,-0.5L0,-3.0L2.5,-0.5"/>
                </g>
                <g id="arrowLeft" xlink:href="#dirArrow" transform="rotate(270) translate(-36 17)" onmousedown="handlePan(-1,0)">
                  <use xlink:href="#rim" fill="#404040">
                        <set attributeName="fill" to="#808080" begin="arrowLeft.mouseover" end="arrowLeft.mouseout"/>
                  </use>
                  <path fill="none" stroke="white" stroke-width="1.5" d="M0,-3.0v7 M-2.5,-0.5L0,-3.0L2.5,-0.5"/>
                </g>
        </g>
        <svg viewBox="0 0 15 15" width="100%" height="30px" preserveAspectRatio="xMaxYMin meet">
         <g id="arrow_out" transform="scale(0.3 0.3)">
          <a xlink:href="dir_bcbb2cf9a3d3d83e5515c82071a07177_dep_org.svg" target="_base">
           <rect id="button" ry="5" rx="5" y="6" x="6" height="38" width="38"
                fill="#f2f5e9" fill-opacity="0.5" stroke="#606060" stroke-width="1.0"/>
           <path id="arrow"
             d="M 11.500037,31.436501 C 11.940474,20.09759 22.043105,11.32322 32.158766,21.979434 L 37.068811,17.246167 C 37.068811,17.246167 37.088388,32 37.088388,32 L 22.160133,31.978069 C 22.160133,31.978069 26.997745,27.140456 26.997745,27.140456 C 18.528582,18.264221 13.291696,25.230495 11.500037,31.436501 z"
             style="fill:#404040;"/>
          </a>
         </g>
        </svg>
</svg>
