<?xml version="1.0" encoding="UTF-8" standalone="no"?>
<!DOCTYPE svg PUBLIC "-//W3C//DTD SVG 1.1//EN"
 "http://www.w3.org/Graphics/SVG/1.1/DTD/svg11.dtd">
<!-- Generated by graphviz version 2.40.1 (20161225.0304)
 -->
<!-- Title: /home/travis/build/AliceO2Group/AliceO2/Detectors/ITSMFT/common Pages: 1 -->
<svg width="412pt" height="375pt"
 viewBox="0.00 0.00 411.95 375.00" xmlns="http://www.w3.org/2000/svg" xmlns:xlink="http://www.w3.org/1999/xlink">
<g id="graph0" class="graph" transform="scale(1 1) rotate(0) translate(4 371)">
<title>/home/travis/build/AliceO2Group/AliceO2/Detectors/ITSMFT/common</title>
<g id="clust1" class="cluster">
<title>clusterdir_1306292b77b40360479b729ac9ee7efe</title>
<g id="a_clust1"><a xlink:href="dir_1306292b77b40360479b729ac9ee7efe.html" target="_top" xlink:title="ITSMFT">
<polygon fill="#ddddee" stroke="#000000" points="8,-128 8,-359 265,-359 265,-128 8,-128"/>
<text text-anchor="middle" x="136.5" y="-347" font-family="Helvetica,sans-Serif" font-size="10.00" fill="#000000">ITSMFT</text>
</a>
</g>
</g>
<g id="clust2" class="cluster">
<title>clusterdir_85bf31a2e8d306e7598ffcb73f8df6bf</title>
<g id="a_clust2"><a xlink:href="dir_85bf31a2e8d306e7598ffcb73f8df6bf.html" target="_top">
<polygon fill="#eeeeff" stroke="#000000" points="16,-136 16,-332 257,-332 257,-136 16,-136"/>
</a>
</g>
</g>
<!-- dir_85bf31a2e8d306e7598ffcb73f8df6bf -->
<g id="node1" class="node">
<title>dir_85bf31a2e8d306e7598ffcb73f8df6bf</title>
<text text-anchor="middle" x="219" y="-303.5" font-family="Helvetica,sans-Serif" font-size="10.00" fill="#000000">common</text>
</g>
<!-- dir_7c9998090bca7c4aa89c05dd66fe73f5 -->
<g id="node2" class="node">
<title>dir_7c9998090bca7c4aa89c05dd66fe73f5</title>
<g id="a_node2"><a xlink:href="dir_7c9998090bca7c4aa89c05dd66fe73f5.html" target="_top" xlink:title="base">
<polygon fill="#ffffff" stroke="#ff0000" points="217,-180 163,-180 163,-144 217,-144 217,-180"/>
<text text-anchor="middle" x="190" y="-159.5" font-family="Helvetica,sans-Serif" font-size="10.00" fill="#000000">base</text>
</a>
</g>
</g>
<!-- dir_4ab6b4cc6a7edbff49100e9123df213f -->
<g id="node6" class="node">
<title>dir_4ab6b4cc6a7edbff49100e9123df213f</title>
<g id="a_node6"><a xlink:href="dir_4ab6b4cc6a7edbff49100e9123df213f.html" target="_top" xlink:title="Common">
<polygon fill="none" stroke="#ff0000" points="334.5,-180 273.5,-180 273.5,-144 334.5,-144 334.5,-180"/>
<text text-anchor="middle" x="304" y="-159.5" font-family="Helvetica,sans-Serif" font-size="10.00" fill="#000000">Common</text>
</a>
</g>
</g>
<!-- dir_7c9998090bca7c4aa89c05dd66fe73f5&#45;&gt;dir_4ab6b4cc6a7edbff49100e9123df213f -->
<g id="edge9" class="edge">
<title>dir_7c9998090bca7c4aa89c05dd66fe73f5&#45;&gt;dir_4ab6b4cc6a7edbff49100e9123df213f</title>
<path fill="none" stroke="#000000" d="M217.1641,-162C232.5607,-162 247.9573,-162 263.354,-162"/>
<polygon fill="#000000" stroke="#000000" points="263.4718,-165.5001 273.4717,-162 263.4717,-158.5001 263.4718,-165.5001"/>
<g id="a_edge9&#45;headlabel"><a xlink:href="dir_000412_000018.html" target="_top" xlink:title="3">
<text text-anchor="middle" x="259.8771" y="-165.8393" font-family="Helvetica,sans-Serif" font-size="10.00" fill="#000000">3</text>
</a>
</g>
</g>
<!-- dir_2171f7ec022c5423887b07c69b2f5b48 -->
<g id="node10" class="node">
<title>dir_2171f7ec022c5423887b07c69b2f5b48</title>
<g id="a_node10"><a xlink:href="dir_2171f7ec022c5423887b07c69b2f5b48.html" target="_top" xlink:title="DataFormats">
<polygon fill="none" stroke="#ff0000" points="344,-108 264,-108 264,-72 344,-72 344,-108"/>
<text text-anchor="middle" x="304" y="-87.5" font-family="Helvetica,sans-Serif" font-size="10.00" fill="#000000">DataFormats</text>
</a>
</g>
</g>
<!-- dir_7c9998090bca7c4aa89c05dd66fe73f5&#45;&gt;dir_2171f7ec022c5423887b07c69b2f5b48 -->
<g id="edge10" class="edge">
<title>dir_7c9998090bca7c4aa89c05dd66fe73f5&#45;&gt;dir_2171f7ec022c5423887b07c69b2f5b48</title>
<path fill="none" stroke="#000000" d="M201.6122,-143.8111C207.6242,-138.4205 214.9127,-132.7059 222,-128 232.1361,-121.2698 243.6063,-114.8124 254.7328,-109.1909"/>
<polygon fill="#000000" stroke="#000000" points="256.5156,-112.2153 263.9613,-104.6779 253.4403,-105.9269 256.5156,-112.2153"/>
<g id="a_edge10&#45;headlabel"><a xlink:href="dir_000412_000060.html" target="_top" xlink:title="2">
<text text-anchor="middle" x="254.5337" y="-113.845" font-family="Helvetica,sans-Serif" font-size="10.00" fill="#000000">2</text>
</a>
</g>
</g>
<!-- dir_2174d8cbbd82d5c404dd04814f845a3a -->
<g id="node3" class="node">
<title>dir_2174d8cbbd82d5c404dd04814f845a3a</title>
<g id="a_node3"><a xlink:href="dir_2174d8cbbd82d5c404dd04814f845a3a.html" target="_top" xlink:title="reconstruction">
<polygon fill="#ffffff" stroke="#ff0000" points="233,-252 147,-252 147,-216 233,-216 233,-252"/>
<text text-anchor="middle" x="190" y="-231.5" font-family="Helvetica,sans-Serif" font-size="10.00" fill="#000000">reconstruction</text>
</a>
</g>
</g>
<!-- dir_2174d8cbbd82d5c404dd04814f845a3a&#45;&gt;dir_7c9998090bca7c4aa89c05dd66fe73f5 -->
<g id="edge2" class="edge">
<title>dir_2174d8cbbd82d5c404dd04814f845a3a&#45;&gt;dir_7c9998090bca7c4aa89c05dd66fe73f5</title>
<path fill="none" stroke="#000000" d="M190,-215.8314C190,-208.131 190,-198.9743 190,-190.4166"/>
<polygon fill="#000000" stroke="#000000" points="193.5001,-190.4132 190,-180.4133 186.5001,-190.4133 193.5001,-190.4132"/>
<g id="a_edge2&#45;headlabel"><a xlink:href="dir_000420_000412.html" target="_top" xlink:title="5">
<text text-anchor="middle" x="196.3393" y="-191.5079" font-family="Helvetica,sans-Serif" font-size="10.00" fill="#000000">5</text>
</a>
</g>
</g>
<!-- dir_2174d8cbbd82d5c404dd04814f845a3a&#45;&gt;dir_4ab6b4cc6a7edbff49100e9123df213f -->
<g id="edge1" class="edge">
<title>dir_2174d8cbbd82d5c404dd04814f845a3a&#45;&gt;dir_4ab6b4cc6a7edbff49100e9123df213f</title>
<path fill="none" stroke="#000000" d="M218.767,-215.8314C233.2133,-206.7074 250.8965,-195.539 266.404,-185.7449"/>
<polygon fill="#000000" stroke="#000000" points="268.6563,-188.462 275.2422,-180.1628 264.9183,-182.5436 268.6563,-188.462"/>
<g id="a_edge1&#45;headlabel"><a xlink:href="dir_000420_000018.html" target="_top" xlink:title="3">
<text text-anchor="middle" x="267.1332" y="-190.282" font-family="Helvetica,sans-Serif" font-size="10.00" fill="#000000">3</text>
</a>
</g>
</g>
<!-- dir_2174d8cbbd82d5c404dd04814f845a3a&#45;&gt;dir_2171f7ec022c5423887b07c69b2f5b48 -->
<g id="edge3" class="edge">
<title>dir_2174d8cbbd82d5c404dd04814f845a3a&#45;&gt;dir_2171f7ec022c5423887b07c69b2f5b48</title>
<path fill="none" stroke="#000000" d="M202.2112,-215.5695C219.5957,-189.4981 250.8297,-143.3151 264,-128 267.6692,-123.7333 271.7609,-119.4236 275.8881,-115.3154"/>
<polygon fill="#000000" stroke="#000000" points="278.5056,-117.6534 283.2714,-108.1909 273.645,-112.6161 278.5056,-117.6534"/>
<g id="a_edge3&#45;headlabel"><a xlink:href="dir_000420_000060.html" target="_top" xlink:title="23">
<text text-anchor="middle" x="277.8904" y="-119.6925" font-family="Helvetica,sans-Serif" font-size="10.00" fill="#000000">23</text>
</a>
</g>
</g>
<!-- dir_948e043a2a9c0d8c3d26178da976c005 -->
<g id="node4" class="node">
<title>dir_948e043a2a9c0d8c3d26178da976c005</title>
<g id="a_node4"><a xlink:href="dir_948e043a2a9c0d8c3d26178da976c005.html" target="_top" xlink:title="simulation">
<polygon fill="#ffffff" stroke="#ff0000" points="92,-324 24,-324 24,-288 92,-288 92,-324"/>
<text text-anchor="middle" x="58" y="-303.5" font-family="Helvetica,sans-Serif" font-size="10.00" fill="#000000">simulation</text>
</a>
</g>
</g>
<!-- dir_948e043a2a9c0d8c3d26178da976c005&#45;&gt;dir_7c9998090bca7c4aa89c05dd66fe73f5 -->
<g id="edge14" class="edge">
<title>dir_948e043a2a9c0d8c3d26178da976c005&#45;&gt;dir_7c9998090bca7c4aa89c05dd66fe73f5</title>
<path fill="none" stroke="#000000" d="M77.2754,-287.5893C87.6187,-277.4106 100.3852,-264.3551 111,-252 124.0333,-236.8299 125.0391,-231.232 138,-216 146.0891,-206.4935 155.4155,-196.531 163.9168,-187.7884"/>
<polygon fill="#000000" stroke="#000000" points="166.6063,-190.0453 171.1235,-180.4617 161.6158,-185.1366 166.6063,-190.0453"/>
<g id="a_edge14&#45;headlabel"><a xlink:href="dir_000046_000412.html" target="_top" xlink:title="4">
<text text-anchor="middle" x="166.1098" y="-192.0989" font-family="Helvetica,sans-Serif" font-size="10.00" fill="#000000">4</text>
</a>
</g>
</g>
<!-- dir_948e043a2a9c0d8c3d26178da976c005&#45;&gt;dir_2174d8cbbd82d5c404dd04814f845a3a -->
<g id="edge11" class="edge">
<title>dir_948e043a2a9c0d8c3d26178da976c005&#45;&gt;dir_2174d8cbbd82d5c404dd04814f845a3a</title>
<path fill="none" stroke="#000000" d="M91.3092,-287.8314C108.4273,-278.4942 129.4706,-267.016 147.7222,-257.0606"/>
<polygon fill="#000000" stroke="#000000" points="149.5985,-260.024 156.7015,-252.1628 146.2465,-253.8788 149.5985,-260.024"/>
<g id="a_edge11&#45;headlabel"><a xlink:href="dir_000046_000420.html" target="_top" xlink:title="4">
<text text-anchor="middle" x="147.8024" y="-261.7379" font-family="Helvetica,sans-Serif" font-size="10.00" fill="#000000">4</text>
</a>
</g>
</g>
<!-- dir_948e043a2a9c0d8c3d26178da976c005&#45;&gt;dir_4ab6b4cc6a7edbff49100e9123df213f -->
<g id="edge12" class="edge">
<title>dir_948e043a2a9c0d8c3d26178da976c005&#45;&gt;dir_4ab6b4cc6a7edbff49100e9123df213f</title>
<path fill="none" stroke="#000000" d="M92.0951,-291.197C95.0861,-290.0602 98.0839,-288.9768 101,-288 162.3281,-267.4578 188.9422,-288.9862 242,-252 264.5743,-236.2636 281.4698,-209.4716 291.8756,-189.2012"/>
<polygon fill="#000000" stroke="#000000" points="295.0632,-190.6501 296.328,-180.131 288.7795,-187.5655 295.0632,-190.6501"/>
<g id="a_edge12&#45;headlabel"><a xlink:href="dir_000046_000018.html" target="_top" xlink:title="5">
<text text-anchor="middle" x="296.0281" y="-192.628" font-family="Helvetica,sans-Serif" font-size="10.00" fill="#000000">5</text>
</a>
</g>
</g>
<!-- dir_37c90836491b695b472bf98d1be8336b -->
<g id="node7" class="node">
<title>dir_37c90836491b695b472bf98d1be8336b</title>
<g id="a_node7"><a xlink:href="dir_37c90836491b695b472bf98d1be8336b.html" target="_top" xlink:title="Base">
<polygon fill="none" stroke="#ff0000" points="290,-36 236,-36 236,0 290,0 290,-36"/>
<text text-anchor="middle" x="263" y="-15.5" font-family="Helvetica,sans-Serif" font-size="10.00" fill="#000000">Base</text>
</a>
</g>
</g>
<!-- dir_948e043a2a9c0d8c3d26178da976c005&#45;&gt;dir_37c90836491b695b472bf98d1be8336b -->
<g id="edge13" class="edge">
<title>dir_948e043a2a9c0d8c3d26178da976c005&#45;&gt;dir_37c90836491b695b472bf98d1be8336b</title>
<path fill="none" stroke="#000000" d="M58.5274,-287.8262C60.4179,-253.1739 68.9418,-176.7684 107,-128 139.4714,-86.3906 191.9203,-53.9786 226.9207,-35.4251"/>
<polygon fill="#000000" stroke="#000000" points="228.5954,-38.4993 235.8592,-30.7865 225.371,-32.2861 228.5954,-38.4993"/>
<g id="a_edge13&#45;headlabel"><a xlink:href="dir_000046_000254.html" target="_top" xlink:title="2">
<text text-anchor="middle" x="226.7126" y="-40.1751" font-family="Helvetica,sans-Serif" font-size="10.00" fill="#000000">2</text>
</a>
</g>
</g>
<!-- dir_26637d1bd82229bc9ed97f7e706be743 -->
<g id="node9" class="node">
<title>dir_26637d1bd82229bc9ed97f7e706be743</title>
<g id="a_node9"><a xlink:href="dir_26637d1bd82229bc9ed97f7e706be743.html" target="_top" xlink:title="Raw">
<polygon fill="none" stroke="#ff0000" points="343,-252 289,-252 289,-216 343,-216 343,-252"/>
<text text-anchor="middle" x="316" y="-231.5" font-family="Helvetica,sans-Serif" font-size="10.00" fill="#000000">Raw</text>
</a>
</g>
</g>
<!-- dir_948e043a2a9c0d8c3d26178da976c005&#45;&gt;dir_26637d1bd82229bc9ed97f7e706be743 -->
<g id="edge15" class="edge">
<title>dir_948e043a2a9c0d8c3d26178da976c005&#45;&gt;dir_26637d1bd82229bc9ed97f7e706be743</title>
<path fill="none" stroke="#000000" d="M92.0479,-291.0507C95.0492,-289.9456 98.0622,-288.9095 101,-288 176.4387,-264.6451 199.7655,-276.0046 275,-252 276.4349,-251.5422 277.8875,-251.0505 279.3468,-250.5328"/>
<polygon fill="#000000" stroke="#000000" points="280.893,-253.6877 288.9605,-246.82 278.371,-247.1578 280.893,-253.6877"/>
<g id="a_edge15&#45;headlabel"><a xlink:href="dir_000046_000505.html" target="_top" xlink:title="1">
<text text-anchor="middle" x="278.5626" y="-255.1313" font-family="Helvetica,sans-Serif" font-size="10.00" fill="#000000">1</text>
</a>
</g>
</g>
<!-- dir_948e043a2a9c0d8c3d26178da976c005&#45;&gt;dir_2171f7ec022c5423887b07c69b2f5b48 -->
<g id="edge16" class="edge">
<title>dir_948e043a2a9c0d8c3d26178da976c005&#45;&gt;dir_2171f7ec022c5423887b07c69b2f5b48</title>
<path fill="none" stroke="#000000" d="M62.4803,-287.9455C72.4258,-251.7555 99.8644,-170.2016 154,-128 169.4931,-115.9223 216.2398,-105.2422 253.4739,-98.3047"/>
<polygon fill="#000000" stroke="#000000" points="254.4762,-101.68 263.6897,-96.4491 253.2252,-94.7926 254.4762,-101.68"/>
<g id="a_edge16&#45;headlabel"><a xlink:href="dir_000046_000060.html" target="_top" xlink:title="9">
<text text-anchor="middle" x="251.4469" y="-102.6158" font-family="Helvetica,sans-Serif" font-size="10.00" fill="#000000">9</text>
</a>
</g>
</g>
<!-- dir_cd7d5e2598ca22d0234e65e7e58f6fe3 -->
<g id="node5" class="node">
<title>dir_cd7d5e2598ca22d0234e65e7e58f6fe3</title>
<g id="a_node5"><a xlink:href="dir_cd7d5e2598ca22d0234e65e7e58f6fe3.html" target="_top" xlink:title="workflow">
<polygon fill="#ffffff" stroke="#ff0000" points="171.5,-324 110.5,-324 110.5,-288 171.5,-288 171.5,-324"/>
<text text-anchor="middle" x="141" y="-303.5" font-family="Helvetica,sans-Serif" font-size="10.00" fill="#000000">workflow</text>
</a>
</g>
</g>
<!-- dir_bcbb2cf9a3d3d83e5515c82071a07177 -->
<g id="node8" class="node">
<title>dir_bcbb2cf9a3d3d83e5515c82071a07177</title>
<g id="a_node8"><a xlink:href="dir_bcbb2cf9a3d3d83e5515c82071a07177.html" target="_top" xlink:title="Framework">
<polygon fill="none" stroke="#ff0000" points="393.5,-36 322.5,-36 322.5,0 393.5,0 393.5,-36"/>
<text text-anchor="middle" x="358" y="-15.5" font-family="Helvetica,sans-Serif" font-size="10.00" fill="#000000">Framework</text>
</a>
</g>
</g>
<!-- dir_cd7d5e2598ca22d0234e65e7e58f6fe3&#45;&gt;dir_bcbb2cf9a3d3d83e5515c82071a07177 -->
<g id="edge4" class="edge">
<title>dir_cd7d5e2598ca22d0234e65e7e58f6fe3&#45;&gt;dir_bcbb2cf9a3d3d83e5515c82071a07177</title>
<path fill="none" stroke="#000000" d="M171.7999,-290.9326C174.5395,-289.8531 177.2984,-288.8552 180,-288 264.8553,-261.1384 317.2088,-317.9317 377,-252 428.9999,-194.6598 393.3898,-93.6132 371.5399,-45.2656"/>
<polygon fill="#000000" stroke="#000000" points="374.6459,-43.6443 367.253,-36.0551 368.2996,-46.5981 374.6459,-43.6443"/>
<g id="a_edge4&#45;headlabel"><a xlink:href="dir_000436_000036.html" target="_top" xlink:title="4">
<text text-anchor="middle" x="378.7367" y="-43.2052" font-family="Helvetica,sans-Serif" font-size="10.00" fill="#000000">4</text>
</a>
</g>
</g>
<!-- dir_cd7d5e2598ca22d0234e65e7e58f6fe3&#45;&gt;dir_2171f7ec022c5423887b07c69b2f5b48 -->
<g id="edge5" class="edge">
<title>dir_cd7d5e2598ca22d0234e65e7e58f6fe3&#45;&gt;dir_2171f7ec022c5423887b07c69b2f5b48</title>
<path fill="none" stroke="#000000" d="M171.8242,-291.0076C174.5585,-289.9119 177.3096,-288.8897 180,-288 254.1517,-263.4791 299.4781,-309.8031 352,-252 389.1386,-211.127 385.8589,-176.7975 360,-128 357.3524,-123.0038 353.7212,-118.5432 349.5699,-114.5933"/>
<polygon fill="#000000" stroke="#000000" points="351.5718,-111.7071 341.6356,-108.0298 347.1099,-117.1008 351.5718,-111.7071"/>
<g id="a_edge5&#45;headlabel"><a xlink:href="dir_000436_000060.html" target="_top" xlink:title="6">
<text text-anchor="middle" x="356.1513" y="-109.3106" font-family="Helvetica,sans-Serif" font-size="10.00" fill="#000000">6</text>
</a>
</g>
</g>
<!-- dir_4ab6b4cc6a7edbff49100e9123df213f&#45;&gt;dir_2171f7ec022c5423887b07c69b2f5b48 -->
<g id="edge6" class="edge">
<title>dir_4ab6b4cc6a7edbff49100e9123df213f&#45;&gt;dir_2171f7ec022c5423887b07c69b2f5b48</title>
<path fill="none" stroke="#000000" d="M298.0476,-143.8314C297.2972,-136.131 297.0763,-126.9743 297.3849,-118.4166"/>
<polygon fill="#000000" stroke="#000000" points="300.8792,-118.6161 298.024,-108.4133 293.8935,-118.1697 300.8792,-118.6161"/>
<g id="a_edge6&#45;headlabel"><a xlink:href="dir_000018_000060.html" target="_top" xlink:title="2">
<text text-anchor="middle" x="303.4836" y="-119.8844" font-family="Helvetica,sans-Serif" font-size="10.00" fill="#000000">2</text>
</a>
</g>
</g>
<!-- dir_37c90836491b695b472bf98d1be8336b&#45;&gt;dir_4ab6b4cc6a7edbff49100e9123df213f -->
<g id="edge7" class="edge">
<title>dir_37c90836491b695b472bf98d1be8336b&#45;&gt;dir_4ab6b4cc6a7edbff49100e9123df213f</title>
<path fill="none" stroke="#000000" d="M256.7547,-36.2496C251.4131,-54.9166 245.9038,-84.4395 255,-108 259.1192,-118.6694 266.4336,-128.5335 274.1749,-136.8319"/>
<polygon fill="#000000" stroke="#000000" points="271.7819,-139.3887 281.325,-143.9909 276.7348,-134.442 271.7819,-139.3887"/>
<g id="a_edge7&#45;headlabel"><a xlink:href="dir_000254_000018.html" target="_top" xlink:title="16">
<text text-anchor="middle" x="267.2328" y="-136.3517" font-family="Helvetica,sans-Serif" font-size="10.00" fill="#000000">16</text>
</a>
</g>
</g>
<!-- dir_37c90836491b695b472bf98d1be8336b&#45;&gt;dir_2171f7ec022c5423887b07c69b2f5b48 -->
<g id="edge8" class="edge">
<title>dir_37c90836491b695b472bf98d1be8336b&#45;&gt;dir_2171f7ec022c5423887b07c69b2f5b48</title>
<path fill="none" stroke="#000000" d="M279.4613,-36.4133C284.7724,-44.3991 290.3901,-53.9155 295.0245,-62.6975"/>
<polygon fill="#000000" stroke="#000000" points="291.994,-64.4623 299.6064,-71.8314 298.2509,-61.3236 291.994,-64.4623"/>
<g id="a_edge8&#45;headlabel"><a xlink:href="dir_000254_000060.html" target="_top" xlink:title="7">
<text text-anchor="middle" x="287.8445" y="-60.0223" font-family="Helvetica,sans-Serif" font-size="10.00" fill="#000000">7</text>
</a>
</g>
</g>
<!-- dir_bcbb2cf9a3d3d83e5515c82071a07177&#45;&gt;dir_4ab6b4cc6a7edbff49100e9123df213f -->
<g id="edge17" class="edge">
<title>dir_bcbb2cf9a3d3d83e5515c82071a07177&#45;&gt;dir_4ab6b4cc6a7edbff49100e9123df213f</title>
<path fill="none" stroke="#000000" d="M360.4299,-36.0321C362.187,-54.784 362.7834,-84.6123 353,-108 348.5864,-118.551 341.1854,-128.3802 333.4552,-136.6831"/>
<polygon fill="#000000" stroke="#000000" points="330.8975,-134.2916 326.3397,-143.856 335.8672,-139.2215 330.8975,-134.2916"/>
<g id="a_edge17&#45;headlabel"><a xlink:href="dir_000036_000018.html" target="_top" xlink:title="8">
<text text-anchor="middle" x="331.4133" y="-127.2401" font-family="Helvetica,sans-Serif" font-size="10.00" fill="#000000">8</text>
</a>
</g>
</g>
<!-- dir_bcbb2cf9a3d3d83e5515c82071a07177&#45;&gt;dir_2171f7ec022c5423887b07c69b2f5b48 -->
<g id="edge18" class="edge">
<title>dir_bcbb2cf9a3d3d83e5515c82071a07177&#45;&gt;dir_2171f7ec022c5423887b07c69b2f5b48</title>
<path fill="none" stroke="#000000" d="M350.1661,-36.4133C344.6623,-44.8239 337.2585,-54.9323 329.9393,-64.0923"/>
<polygon fill="#000000" stroke="#000000" points="327.2243,-61.8834 323.5789,-71.8314 332.6323,-66.328 327.2243,-61.8834"/>
<g id="a_edge18&#45;headlabel"><a xlink:href="dir_000036_000060.html" target="_top" xlink:title="68">
<text text-anchor="middle" x="327.3131" y="-54.8036" font-family="Helvetica,sans-Serif" font-size="10.00" fill="#000000">68</text>
</a>
</g>
</g>
<!-- dir_26637d1bd82229bc9ed97f7e706be743&#45;&gt;dir_4ab6b4cc6a7edbff49100e9123df213f -->
<g id="edge19" class="edge">
<title>dir_26637d1bd82229bc9ed97f7e706be743&#45;&gt;dir_4ab6b4cc6a7edbff49100e9123df213f</title>
<path fill="none" stroke="#000000" d="M312.9719,-215.8314C311.6885,-208.131 310.1624,-198.9743 308.7361,-190.4166"/>
<polygon fill="#000000" stroke="#000000" points="312.1653,-189.7018 307.0689,-180.4133 305.2606,-190.8526 312.1653,-189.7018"/>
<g id="a_edge19&#45;headlabel"><a xlink:href="dir_000505_000018.html" target="_top" xlink:title="2">
<text text-anchor="middle" x="315.5568" y="-190.2807" font-family="Helvetica,sans-Serif" font-size="10.00" fill="#000000">2</text>
</a>
</g>
</g>
<!-- dir_26637d1bd82229bc9ed97f7e706be743&#45;&gt;dir_2171f7ec022c5423887b07c69b2f5b48 -->
<g id="edge20" class="edge">
<title>dir_26637d1bd82229bc9ed97f7e706be743&#45;&gt;dir_2171f7ec022c5423887b07c69b2f5b48</title>
<path fill="none" stroke="#000000" d="M327.5575,-215.8395C339.7117,-194.2941 355.474,-157.5704 343,-128 341.1238,-123.5524 338.4444,-119.3672 335.357,-115.5167"/>
<polygon fill="#000000" stroke="#000000" points="337.9069,-113.1187 328.5729,-108.1062 332.7438,-117.8455 337.9069,-113.1187"/>
<g id="a_edge20&#45;headlabel"><a xlink:href="dir_000505_000060.html" target="_top" xlink:title="4">
<text text-anchor="middle" x="342.4284" y="-111.3529" font-family="Helvetica,sans-Serif" font-size="10.00" fill="#000000">4</text>
</a>
</g>
</g>
<!-- dir_2171f7ec022c5423887b07c69b2f5b48&#45;&gt;dir_7c9998090bca7c4aa89c05dd66fe73f5 -->
<g id="edge23" class="edge">
<title>dir_2171f7ec022c5423887b07c69b2f5b48&#45;&gt;dir_7c9998090bca7c4aa89c05dd66fe73f5</title>
<path fill="none" stroke="#000000" d="M274.2095,-108.0456C263.1869,-113.9274 250.8317,-120.8079 240,-128 235.0649,-131.2768 230.0322,-135.0428 225.1188,-138.8479"/>
<polygon fill="#000000" stroke="#000000" points="222.7134,-136.2862 217.0009,-145.2091 227.031,-141.7961 222.7134,-136.2862"/>
<g id="a_edge23&#45;headlabel"><a xlink:href="dir_000060_000412.html" target="_top" xlink:title="1">
<text text-anchor="middle" x="223.7916" y="-129.3343" font-family="Helvetica,sans-Serif" font-size="10.00" fill="#000000">1</text>
</a>
</g>
</g>
<!-- dir_2171f7ec022c5423887b07c69b2f5b48&#45;&gt;dir_4ab6b4cc6a7edbff49100e9123df213f -->
<g id="edge21" class="edge">
<title>dir_2171f7ec022c5423887b07c69b2f5b48&#45;&gt;dir_4ab6b4cc6a7edbff49100e9123df213f</title>
<path fill="none" stroke="#000000" d="M309.976,-108.4133C310.7071,-116.0593 310.9203,-125.1084 310.6155,-133.5726"/>
<polygon fill="#000000" stroke="#000000" points="307.1048,-133.6264 309.9524,-143.8314 314.0902,-134.078 307.1048,-133.6264"/>
<g id="a_edge21&#45;headlabel"><a xlink:href="dir_000060_000018.html" target="_top" xlink:title="29">
<text text-anchor="middle" x="304.5032" y="-127.3562" font-family="Helvetica,sans-Serif" font-size="10.00" fill="#000000">29</text>
</a>
</g>
</g>
<!-- dir_2171f7ec022c5423887b07c69b2f5b48&#45;&gt;dir_37c90836491b695b472bf98d1be8336b -->
<g id="edge22" class="edge">
<title>dir_2171f7ec022c5423887b07c69b2f5b48&#45;&gt;dir_37c90836491b695b472bf98d1be8336b</title>
<path fill="none" stroke="#000000" d="M287.7016,-71.8314C282.3969,-63.8771 276.7724,-54.369 272.118,-45.5723"/>
<polygon fill="#000000" stroke="#000000" points="275.1308,-43.7729 267.5093,-36.4133 268.8778,-46.9194 275.1308,-43.7729"/>
<g id="a_edge22&#45;headlabel"><a xlink:href="dir_000060_000254.html" target="_top" xlink:title="1">
<text text-anchor="middle" x="279.2828" y="-43.2077" font-family="Helvetica,sans-Serif" font-size="10.00" fill="#000000">1</text>
</a>
</g>
</g>
<!-- dir_2171f7ec022c5423887b07c69b2f5b48&#45;&gt;dir_bcbb2cf9a3d3d83e5515c82071a07177 -->
<g id="edge24" class="edge">
<title>dir_2171f7ec022c5423887b07c69b2f5b48&#45;&gt;dir_bcbb2cf9a3d3d83e5515c82071a07177</title>
<path fill="none" stroke="#000000" d="M311.6741,-71.8314C317.1407,-63.454 324.5267,-53.3531 331.8474,-44.1749"/>
<polygon fill="#000000" stroke="#000000" points="334.5781,-46.3647 338.214,-36.4133 329.1659,-41.9252 334.5781,-46.3647"/>
<g id="a_edge24&#45;headlabel"><a xlink:href="dir_000060_000036.html" target="_top" xlink:title="7">
<text text-anchor="middle" x="334.4936" y="-48.4446" font-family="Helvetica,sans-Serif" font-size="10.00" fill="#000000">7</text>
</a>
</g>
</g>
</g>
</svg>
