<?xml version="1.0" encoding="UTF-8" standalone="no"?>
<!DOCTYPE svg PUBLIC "-//W3C//DTD SVG 1.1//EN"
 "http://www.w3.org/Graphics/SVG/1.1/DTD/svg11.dtd">
<!-- Generated by graphviz version 2.40.1 (20161225.0304)
 -->
<!-- Title: /home/travis/build/AliceO2Group/AliceO2/GPU/GPUTracking/Global Pages: 1 -->
<svg width="599pt" height="404pt"
 viewBox="0.00 0.00 598.53 404.00" xmlns="http://www.w3.org/2000/svg" xmlns:xlink="http://www.w3.org/1999/xlink">
<g id="graph0" class="graph" transform="scale(1 1) rotate(0) translate(4 400)">
<title>/home/travis/build/AliceO2Group/AliceO2/GPU/GPUTracking/Global</title>
<g id="clust1" class="cluster">
<title>clusterdir_77030b149987c946eb2e85728f65acc0</title>
<g id="a_clust1"><a xlink:href="dir_77030b149987c946eb2e85728f65acc0.html" target="_top" xlink:title="GPUTracking">
<polygon fill="#ddddee" stroke="#000000" points="210.5325,-208 210.5325,-279 288.5325,-279 288.5325,-208 210.5325,-208"/>
<text text-anchor="middle" x="249.5325" y="-267" font-family="Helvetica,sans-Serif" font-size="10.00" fill="#000000">GPUTracking</text>
</a>
</g>
</g>
<!-- dir_b1dd2c3d7fcd0d0d24ad7c8634d4eb04 -->
<g id="node1" class="node">
<title>dir_b1dd2c3d7fcd0d0d24ad7c8634d4eb04</title>
<g id="a_node1"><a xlink:href="dir_b1dd2c3d7fcd0d0d24ad7c8634d4eb04.html" target="_top" xlink:title="Global">
<polygon fill="#eeeeff" stroke="#000000" points="279.5325,-252 225.5325,-252 225.5325,-216 279.5325,-216 279.5325,-252"/>
<text text-anchor="middle" x="252.5325" y="-231.5" font-family="Helvetica,sans-Serif" font-size="10.00" fill="#000000">Global</text>
</a>
</g>
</g>
<!-- dir_6d1e342cb6193ce32747aa0856bf9c1e -->
<g id="node2" class="node">
<title>dir_6d1e342cb6193ce32747aa0856bf9c1e</title>
<g id="a_node2"><a xlink:href="dir_6d1e342cb6193ce32747aa0856bf9c1e.html" target="_top" xlink:title="HLTHeaders">
<polygon fill="none" stroke="#000000" points="486.5325,-108 412.5325,-108 412.5325,-72 486.5325,-72 486.5325,-108"/>
<text text-anchor="middle" x="449.5325" y="-87.5" font-family="Helvetica,sans-Serif" font-size="10.00" fill="#000000">HLTHeaders</text>
</a>
</g>
</g>
<!-- dir_b1dd2c3d7fcd0d0d24ad7c8634d4eb04&#45;&gt;dir_6d1e342cb6193ce32747aa0856bf9c1e -->
<g id="edge26" class="edge">
<title>dir_b1dd2c3d7fcd0d0d24ad7c8634d4eb04&#45;&gt;dir_6d1e342cb6193ce32747aa0856bf9c1e</title>
<path fill="none" stroke="#000000" d="M277.4827,-215.7623C312.7121,-190.0108 377.1049,-142.942 416.3384,-114.2637"/>
<polygon fill="#000000" stroke="#000000" points="418.7772,-116.8165 424.7849,-108.0896 414.6463,-111.1652 418.7772,-116.8165"/>
<g id="a_edge26&#45;headlabel"><a xlink:href="dir_000628_000629.html" target="_top" xlink:title="4">
<text text-anchor="middle" x="417.5507" y="-118.7299" font-family="Helvetica,sans-Serif" font-size="10.00" fill="#000000">4</text>
</a>
</g>
</g>
<!-- dir_c5c2054ad45a3325316df490e5ea9aa8 -->
<g id="node3" class="node">
<title>dir_c5c2054ad45a3325316df490e5ea9aa8</title>
<g id="a_node3"><a xlink:href="dir_c5c2054ad45a3325316df490e5ea9aa8.html" target="_top" xlink:title="TRDTracking">
<polygon fill="none" stroke="#000000" points="336.0325,-108 259.0325,-108 259.0325,-72 336.0325,-72 336.0325,-108"/>
<text text-anchor="middle" x="297.5325" y="-87.5" font-family="Helvetica,sans-Serif" font-size="10.00" fill="#000000">TRDTracking</text>
</a>
</g>
</g>
<!-- dir_b1dd2c3d7fcd0d0d24ad7c8634d4eb04&#45;&gt;dir_c5c2054ad45a3325316df490e5ea9aa8 -->
<g id="edge27" class="edge">
<title>dir_b1dd2c3d7fcd0d0d24ad7c8634d4eb04&#45;&gt;dir_c5c2054ad45a3325316df490e5ea9aa8</title>
<path fill="none" stroke="#000000" d="M253.4004,-215.9405C254.7344,-197.4249 258.0969,-168.0206 266.5325,-144 269.7942,-134.7122 274.658,-125.1993 279.5713,-116.7966"/>
<polygon fill="#000000" stroke="#000000" points="282.6116,-118.5337 284.8487,-108.1777 276.6418,-114.8783 282.6116,-118.5337"/>
<g id="a_edge27&#45;headlabel"><a xlink:href="dir_000628_000641.html" target="_top" xlink:title="6">
<text text-anchor="middle" x="283.156" y="-120.5819" font-family="Helvetica,sans-Serif" font-size="10.00" fill="#000000">6</text>
</a>
</g>
</g>
<!-- dir_ba48ca66118492a4424f86e9da0f6902 -->
<g id="node4" class="node">
<title>dir_ba48ca66118492a4424f86e9da0f6902</title>
<g id="a_node4"><a xlink:href="dir_ba48ca66118492a4424f86e9da0f6902.html" target="_top" xlink:title="Common">
<polygon fill="none" stroke="#000000" points="283.0325,-36 222.0325,-36 222.0325,0 283.0325,0 283.0325,-36"/>
<text text-anchor="middle" x="252.5325" y="-15.5" font-family="Helvetica,sans-Serif" font-size="10.00" fill="#000000">Common</text>
</a>
</g>
</g>
<!-- dir_b1dd2c3d7fcd0d0d24ad7c8634d4eb04&#45;&gt;dir_ba48ca66118492a4424f86e9da0f6902 -->
<g id="edge28" class="edge">
<title>dir_b1dd2c3d7fcd0d0d24ad7c8634d4eb04&#45;&gt;dir_ba48ca66118492a4424f86e9da0f6902</title>
<path fill="none" stroke="#000000" d="M251.9341,-215.5346C251.0428,-185.4599 249.5694,-124.0263 250.5325,-72 250.6846,-63.7824 250.9669,-54.865 251.2724,-46.6892"/>
<polygon fill="#000000" stroke="#000000" points="254.7778,-46.621 251.6783,-36.4897 247.7833,-46.3425 254.7778,-46.621"/>
<g id="a_edge28&#45;headlabel"><a xlink:href="dir_000628_000618.html" target="_top" xlink:title="3">
<text text-anchor="middle" x="257.4719" y="-47.8257" font-family="Helvetica,sans-Serif" font-size="10.00" fill="#000000">3</text>
</a>
</g>
</g>
<!-- dir_808d5540d0c117816a4e0e1b180c8334 -->
<g id="node5" class="node">
<title>dir_808d5540d0c117816a4e0e1b180c8334</title>
<g id="a_node5"><a xlink:href="dir_808d5540d0c117816a4e0e1b180c8334.html" target="_top" xlink:title="Merger">
<polygon fill="none" stroke="#000000" points="373.5325,-324 319.5325,-324 319.5325,-288 373.5325,-288 373.5325,-324"/>
<text text-anchor="middle" x="346.5325" y="-303.5" font-family="Helvetica,sans-Serif" font-size="10.00" fill="#000000">Merger</text>
</a>
</g>
</g>
<!-- dir_b1dd2c3d7fcd0d0d24ad7c8634d4eb04&#45;&gt;dir_808d5540d0c117816a4e0e1b180c8334 -->
<g id="edge29" class="edge">
<title>dir_b1dd2c3d7fcd0d0d24ad7c8634d4eb04&#45;&gt;dir_808d5540d0c117816a4e0e1b180c8334</title>
<path fill="none" stroke="#000000" d="M258.3403,-252.095C264.8086,-260.9409 274.4477,-271.3093 284.5325,-279 292.2114,-284.856 301.3525,-290.0365 310.3016,-294.2537"/>
<polygon fill="#000000" stroke="#000000" points="308.9252,-297.4718 319.4886,-298.2876 311.7396,-291.0625 308.9252,-297.4718"/>
<g id="a_edge29&#45;headlabel"><a xlink:href="dir_000628_000632.html" target="_top" xlink:title="3">
<text text-anchor="middle" x="304.4925" y="-296.1264" font-family="Helvetica,sans-Serif" font-size="10.00" fill="#000000">3</text>
</a>
</g>
</g>
<!-- dir_289ec97c7adb65139f0eb8343d5d21ae -->
<g id="node6" class="node">
<title>dir_289ec97c7adb65139f0eb8343d5d21ae</title>
<g id="a_node6"><a xlink:href="dir_289ec97c7adb65139f0eb8343d5d21ae.html" target="_top" xlink:title="Standalone">
<polygon fill="none" stroke="#ff0000" points="446.0325,-396 375.0325,-396 375.0325,-360 446.0325,-360 446.0325,-396"/>
<text text-anchor="middle" x="410.5325" y="-375.5" font-family="Helvetica,sans-Serif" font-size="10.00" fill="#000000">Standalone</text>
</a>
</g>
</g>
<!-- dir_b1dd2c3d7fcd0d0d24ad7c8634d4eb04&#45;&gt;dir_289ec97c7adb65139f0eb8343d5d21ae -->
<g id="edge30" class="edge">
<title>dir_b1dd2c3d7fcd0d0d24ad7c8634d4eb04&#45;&gt;dir_289ec97c7adb65139f0eb8343d5d21ae</title>
<path fill="none" stroke="#000000" d="M260.7756,-252.1344C270.435,-271.801 288.0227,-303.1668 310.5325,-324 326.5126,-338.7898 347.2981,-350.8632 365.7764,-359.8138"/>
<polygon fill="#000000" stroke="#000000" points="364.3688,-363.0192 374.9103,-364.081 367.3318,-356.6772 364.3688,-363.0192"/>
<g id="a_edge30&#45;headlabel"><a xlink:href="dir_000628_000635.html" target="_top" xlink:title="3">
<text text-anchor="middle" x="359.9103" y="-361.5702" font-family="Helvetica,sans-Serif" font-size="10.00" fill="#000000">3</text>
</a>
</g>
</g>
<!-- dir_ee87ad93049d1677c6ffb88a968be9d4 -->
<g id="node7" class="node">
<title>dir_ee87ad93049d1677c6ffb88a968be9d4</title>
<g id="a_node7"><a xlink:href="dir_ee87ad93049d1677c6ffb88a968be9d4.html" target="_top" xlink:title="TPCFastTransformation">
<polygon fill="none" stroke="#ff0000" points="142.5325,-108 14.5325,-108 14.5325,-72 142.5325,-72 142.5325,-108"/>
<text text-anchor="middle" x="78.5325" y="-87.5" font-family="Helvetica,sans-Serif" font-size="10.00" fill="#000000">TPCFastTransformation</text>
</a>
</g>
</g>
<!-- dir_b1dd2c3d7fcd0d0d24ad7c8634d4eb04&#45;&gt;dir_ee87ad93049d1677c6ffb88a968be9d4 -->
<g id="edge31" class="edge">
<title>dir_b1dd2c3d7fcd0d0d24ad7c8634d4eb04&#45;&gt;dir_ee87ad93049d1677c6ffb88a968be9d4</title>
<path fill="none" stroke="#000000" d="M225.461,-227.9515C185.7801,-218.5462 114.6665,-199.4644 97.5325,-180 82.7536,-163.211 78.4589,-137.8526 77.6001,-118.3274"/>
<polygon fill="#000000" stroke="#000000" points="81.0971,-118.1122 77.4317,-108.1717 74.0981,-118.2283 81.0971,-118.1122"/>
<g id="a_edge31&#45;headlabel"><a xlink:href="dir_000628_000642.html" target="_top" xlink:title="3">
<text text-anchor="middle" x="83.9955" y="-119.1593" font-family="Helvetica,sans-Serif" font-size="10.00" fill="#000000">3</text>
</a>
</g>
</g>
<!-- dir_442920581a03c66cf8c08ae559108050 -->
<g id="node8" class="node">
<title>dir_442920581a03c66cf8c08ae559108050</title>
<g id="a_node8"><a xlink:href="dir_442920581a03c66cf8c08ae559108050.html" target="_top" xlink:title="Base">
<polygon fill="none" stroke="#ff0000" points="448.5325,-180 394.5325,-180 394.5325,-144 448.5325,-144 448.5325,-180"/>
<text text-anchor="middle" x="421.5325" y="-159.5" font-family="Helvetica,sans-Serif" font-size="10.00" fill="#000000">Base</text>
</a>
</g>
</g>
<!-- dir_b1dd2c3d7fcd0d0d24ad7c8634d4eb04&#45;&gt;dir_442920581a03c66cf8c08ae559108050 -->
<g id="edge32" class="edge">
<title>dir_b1dd2c3d7fcd0d0d24ad7c8634d4eb04&#45;&gt;dir_442920581a03c66cf8c08ae559108050</title>
<path fill="none" stroke="#000000" d="M279.6594,-220.1177C308.2479,-207.1932 353.1862,-188.0589 384.8901,-175.3189"/>
<polygon fill="#000000" stroke="#000000" points="386.2752,-178.5347 394.2716,-171.5843 383.6862,-172.031 386.2752,-178.5347"/>
<g id="a_edge32&#45;headlabel"><a xlink:href="dir_000628_000619.html" target="_top" xlink:title="13">
<text text-anchor="middle" x="383.9855" y="-180.002" font-family="Helvetica,sans-Serif" font-size="10.00" fill="#000000">13</text>
</a>
</g>
</g>
<!-- dir_b1a191f241d56beebc4ffdb42af892eb -->
<g id="node9" class="node">
<title>dir_b1a191f241d56beebc4ffdb42af892eb</title>
<g id="a_node9"><a xlink:href="dir_b1a191f241d56beebc4ffdb42af892eb.html" target="_top" xlink:title="SliceTracker">
<polygon fill="none" stroke="#000000" points="523.0325,-252 448.0325,-252 448.0325,-216 523.0325,-216 523.0325,-252"/>
<text text-anchor="middle" x="485.5325" y="-231.5" font-family="Helvetica,sans-Serif" font-size="10.00" fill="#000000">SliceTracker</text>
</a>
</g>
</g>
<!-- dir_b1dd2c3d7fcd0d0d24ad7c8634d4eb04&#45;&gt;dir_b1a191f241d56beebc4ffdb42af892eb -->
<g id="edge33" class="edge">
<title>dir_b1dd2c3d7fcd0d0d24ad7c8634d4eb04&#45;&gt;dir_b1a191f241d56beebc4ffdb42af892eb</title>
<path fill="none" stroke="#000000" d="M279.8372,-234C332.425,-234 385.0127,-234 437.6005,-234"/>
<polygon fill="#000000" stroke="#000000" points="437.7682,-237.5001 447.7681,-234 437.7681,-230.5001 437.7682,-237.5001"/>
<g id="a_edge33&#45;headlabel"><a xlink:href="dir_000628_000634.html" target="_top" xlink:title="9">
<text text-anchor="middle" x="434.1735" y="-237.8393" font-family="Helvetica,sans-Serif" font-size="10.00" fill="#000000">9</text>
</a>
</g>
</g>
<!-- dir_2171f7ec022c5423887b07c69b2f5b48 -->
<g id="node10" class="node">
<title>dir_2171f7ec022c5423887b07c69b2f5b48</title>
<g id="a_node10"><a xlink:href="dir_2171f7ec022c5423887b07c69b2f5b48.html" target="_top" xlink:title="DataFormats">
<polygon fill="none" stroke="#ff0000" points="186.5325,-180 106.5325,-180 106.5325,-144 186.5325,-144 186.5325,-180"/>
<text text-anchor="middle" x="146.5325" y="-159.5" font-family="Helvetica,sans-Serif" font-size="10.00" fill="#000000">DataFormats</text>
</a>
</g>
</g>
<!-- dir_b1dd2c3d7fcd0d0d24ad7c8634d4eb04&#45;&gt;dir_2171f7ec022c5423887b07c69b2f5b48 -->
<g id="edge34" class="edge">
<title>dir_b1dd2c3d7fcd0d0d24ad7c8634d4eb04&#45;&gt;dir_2171f7ec022c5423887b07c69b2f5b48</title>
<path fill="none" stroke="#000000" d="M225.7842,-215.8314C212.4773,-206.7927 196.2165,-195.7476 181.895,-186.0198"/>
<polygon fill="#000000" stroke="#000000" points="183.511,-182.8864 173.2722,-180.1628 179.5778,-188.677 183.511,-182.8864"/>
<g id="a_edge34&#45;headlabel"><a xlink:href="dir_000628_000060.html" target="_top" xlink:title="1">
<text text-anchor="middle" x="188.0799" y="-180.0575" font-family="Helvetica,sans-Serif" font-size="10.00" fill="#000000">1</text>
</a>
</g>
</g>
<!-- dir_c5c2054ad45a3325316df490e5ea9aa8&#45;&gt;dir_b1dd2c3d7fcd0d0d24ad7c8634d4eb04 -->
<g id="edge4" class="edge">
<title>dir_c5c2054ad45a3325316df490e5ea9aa8&#45;&gt;dir_b1dd2c3d7fcd0d0d24ad7c8634d4eb04</title>
<path fill="none" stroke="#000000" d="M291.8795,-108.0896C284.1949,-132.6805 270.3747,-176.905 261.3284,-205.8531"/>
<polygon fill="#000000" stroke="#000000" points="257.8739,-205.1735 258.2318,-215.7623 264.5553,-207.2615 257.8739,-205.1735"/>
<g id="a_edge4&#45;headlabel"><a xlink:href="dir_000641_000628.html" target="_top" xlink:title="1">
<text text-anchor="middle" x="256.236" y="-198.3957" font-family="Helvetica,sans-Serif" font-size="10.00" fill="#000000">1</text>
</a>
</g>
</g>
<!-- dir_c5c2054ad45a3325316df490e5ea9aa8&#45;&gt;dir_ba48ca66118492a4424f86e9da0f6902 -->
<g id="edge2" class="edge">
<title>dir_c5c2054ad45a3325316df490e5ea9aa8&#45;&gt;dir_ba48ca66118492a4424f86e9da0f6902</title>
<path fill="none" stroke="#000000" d="M286.1771,-71.8314C281.0999,-63.7079 275.0099,-53.9637 269.4149,-45.0118"/>
<polygon fill="#000000" stroke="#000000" points="272.3088,-43.0383 264.0408,-36.4133 266.3728,-46.7483 272.3088,-43.0383"/>
<g id="a_edge2&#45;headlabel"><a xlink:href="dir_000641_000618.html" target="_top" xlink:title="13">
<text text-anchor="middle" x="276.6216" y="-42.0817" font-family="Helvetica,sans-Serif" font-size="10.00" fill="#000000">13</text>
</a>
</g>
</g>
<!-- dir_c5c2054ad45a3325316df490e5ea9aa8&#45;&gt;dir_808d5540d0c117816a4e0e1b180c8334 -->
<g id="edge1" class="edge">
<title>dir_c5c2054ad45a3325316df490e5ea9aa8&#45;&gt;dir_808d5540d0c117816a4e0e1b180c8334</title>
<path fill="none" stroke="#000000" d="M301.6488,-108.1451C310.2077,-145.8741 329.9742,-233.0083 340.1797,-277.9956"/>
<polygon fill="#000000" stroke="#000000" points="336.8134,-278.9776 342.4391,-287.9555 343.64,-277.4289 336.8134,-278.9776"/>
<g id="a_edge1&#45;headlabel"><a xlink:href="dir_000641_000632.html" target="_top" xlink:title="3">
<text text-anchor="middle" x="333.2493" y="-273.6002" font-family="Helvetica,sans-Serif" font-size="10.00" fill="#000000">3</text>
</a>
</g>
</g>
<!-- dir_c5c2054ad45a3325316df490e5ea9aa8&#45;&gt;dir_442920581a03c66cf8c08ae559108050 -->
<g id="edge3" class="edge">
<title>dir_c5c2054ad45a3325316df490e5ea9aa8&#45;&gt;dir_442920581a03c66cf8c08ae559108050</title>
<path fill="none" stroke="#000000" d="M334.7648,-108.1628C351.5214,-117.3712 371.109,-128.6631 387.4733,-138.5232"/>
<polygon fill="#000000" stroke="#000000" points="385.8326,-141.6219 396.1945,-143.8314 389.4721,-135.6424 385.8326,-141.6219"/>
<g id="a_edge3&#45;headlabel"><a xlink:href="dir_000641_000619.html" target="_top" xlink:title="6">
<text text-anchor="middle" x="381.2858" y="-139.6783" font-family="Helvetica,sans-Serif" font-size="10.00" fill="#000000">6</text>
</a>
</g>
</g>
<!-- dir_808d5540d0c117816a4e0e1b180c8334&#45;&gt;dir_b1dd2c3d7fcd0d0d24ad7c8634d4eb04 -->
<g id="edge9" class="edge">
<title>dir_808d5540d0c117816a4e0e1b180c8334&#45;&gt;dir_b1dd2c3d7fcd0d0d24ad7c8634d4eb04</title>
<path fill="none" stroke="#000000" d="M319.2688,-289.8275C313.5424,-286.5836 307.7056,-282.9451 302.5325,-279 295.1265,-273.3521 287.9608,-266.2602 281.3806,-259.3876"/>
<polygon fill="#000000" stroke="#000000" points="283.8995,-256.9574 274.4863,-252.095 278.8128,-261.7663 283.8995,-256.9574"/>
<g id="a_edge9&#45;headlabel"><a xlink:href="dir_000632_000628.html" target="_top" xlink:title="2">
<text text-anchor="middle" x="288.4322" y="-255.1189" font-family="Helvetica,sans-Serif" font-size="10.00" fill="#000000">2</text>
</a>
</g>
</g>
<!-- dir_808d5540d0c117816a4e0e1b180c8334&#45;&gt;dir_ba48ca66118492a4424f86e9da0f6902 -->
<g id="edge5" class="edge">
<title>dir_808d5540d0c117816a4e0e1b180c8334&#45;&gt;dir_ba48ca66118492a4424f86e9da0f6902</title>
<path fill="none" stroke="#000000" d="M319.1788,-304.5967C257.0068,-301.1976 109.0203,-291.8469 90.5325,-279 20.8361,-230.5689 24.9352,-190.6238 5.5325,-108 1.8747,-92.4237 -4.5005,-84.4635 5.5325,-72 30.9541,-40.4203 148.2865,-26.299 211.6578,-20.8834"/>
<polygon fill="#000000" stroke="#000000" points="212.0343,-24.3643 221.7147,-20.0583 211.4619,-17.3878 212.0343,-24.3643"/>
<g id="a_edge5&#45;headlabel"><a xlink:href="dir_000632_000618.html" target="_top" xlink:title="12">
<text text-anchor="middle" x="208.6839" y="-24.9879" font-family="Helvetica,sans-Serif" font-size="10.00" fill="#000000">12</text>
</a>
</g>
</g>
<!-- dir_808d5540d0c117816a4e0e1b180c8334&#45;&gt;dir_289ec97c7adb65139f0eb8343d5d21ae -->
<g id="edge6" class="edge">
<title>dir_808d5540d0c117816a4e0e1b180c8334&#45;&gt;dir_289ec97c7adb65139f0eb8343d5d21ae</title>
<path fill="none" stroke="#000000" d="M368.8759,-324.4133C377.0725,-332.7389 386.1339,-342.7282 393.7784,-351.8144"/>
<polygon fill="#000000" stroke="#000000" points="391.2948,-354.3063 400.335,-359.8314 396.7134,-349.8747 391.2948,-354.3063"/>
<g id="a_edge6&#45;headlabel"><a xlink:href="dir_000632_000635.html" target="_top" xlink:title="1">
<text text-anchor="middle" x="386.8214" y="-350.8213" font-family="Helvetica,sans-Serif" font-size="10.00" fill="#000000">1</text>
</a>
</g>
</g>
<!-- dir_808d5540d0c117816a4e0e1b180c8334&#45;&gt;dir_ee87ad93049d1677c6ffb88a968be9d4 -->
<g id="edge7" class="edge">
<title>dir_808d5540d0c117816a4e0e1b180c8334&#45;&gt;dir_ee87ad93049d1677c6ffb88a968be9d4</title>
<path fill="none" stroke="#000000" d="M319.3645,-304.4727C290.3137,-302.0071 243.4448,-295.5968 206.5325,-279 140.6178,-249.3629 109.4949,-244.8191 77.5325,-180 68.1302,-160.9323 69.0043,-136.7113 71.8875,-118.2004"/>
<polygon fill="#000000" stroke="#000000" points="75.3403,-118.7756 73.6988,-108.3087 68.4548,-117.5147 75.3403,-118.7756"/>
<g id="a_edge7&#45;headlabel"><a xlink:href="dir_000632_000642.html" target="_top" xlink:title="2">
<text text-anchor="middle" x="77.4858" y="-120.3228" font-family="Helvetica,sans-Serif" font-size="10.00" fill="#000000">2</text>
</a>
</g>
</g>
<!-- dir_808d5540d0c117816a4e0e1b180c8334&#45;&gt;dir_442920581a03c66cf8c08ae559108050 -->
<g id="edge8" class="edge">
<title>dir_808d5540d0c117816a4e0e1b180c8334&#45;&gt;dir_442920581a03c66cf8c08ae559108050</title>
<path fill="none" stroke="#000000" d="M346.1058,-287.6858C350.8188,-267.5248 363.508,-234.463 378.5325,-208 382.3079,-201.3503 386.8882,-194.5392 391.6924,-188.2654"/>
<polygon fill="#000000" stroke="#000000" points="394.7322,-190.0749 398.3279,-180.1089 389.3021,-185.6574 394.7322,-190.0749"/>
<g id="a_edge8&#45;headlabel"><a xlink:href="dir_000632_000619.html" target="_top" xlink:title="17">
<text text-anchor="middle" x="394.6663" y="-192.1551" font-family="Helvetica,sans-Serif" font-size="10.00" fill="#000000">17</text>
</a>
</g>
</g>
<!-- dir_808d5540d0c117816a4e0e1b180c8334&#45;&gt;dir_b1a191f241d56beebc4ffdb42af892eb -->
<g id="edge10" class="edge">
<title>dir_808d5540d0c117816a4e0e1b180c8334&#45;&gt;dir_b1a191f241d56beebc4ffdb42af892eb</title>
<path fill="none" stroke="#000000" d="M373.6337,-288.937C392.2217,-278.7487 417.2339,-265.7317 438.9401,-254.9259"/>
<polygon fill="#000000" stroke="#000000" points="440.5961,-258.0117 448.0119,-250.4449 437.496,-251.7355 440.5961,-258.0117"/>
<g id="a_edge10&#45;headlabel"><a xlink:href="dir_000632_000634.html" target="_top" xlink:title="17">
<text text-anchor="middle" x="438.6306" y="-259.6492" font-family="Helvetica,sans-Serif" font-size="10.00" fill="#000000">17</text>
</a>
</g>
</g>
<!-- dir_289ec97c7adb65139f0eb8343d5d21ae&#45;&gt;dir_6d1e342cb6193ce32747aa0856bf9c1e -->
<g id="edge11" class="edge">
<title>dir_289ec97c7adb65139f0eb8343d5d21ae&#45;&gt;dir_6d1e342cb6193ce32747aa0856bf9c1e</title>
<path fill="none" stroke="#000000" d="M446.0386,-360.6285C475.2964,-344.1305 514.7609,-316.3079 532.5325,-279 559.9709,-221.3986 509.1023,-152.505 475.5732,-115.8845"/>
<polygon fill="#000000" stroke="#000000" points="477.7029,-113.0397 468.3047,-108.1483 472.6013,-117.8328 477.7029,-113.0397"/>
<g id="a_edge11&#45;headlabel"><a xlink:href="dir_000635_000629.html" target="_top" xlink:title="2">
<text text-anchor="middle" x="482.2334" y="-111.2153" font-family="Helvetica,sans-Serif" font-size="10.00" fill="#000000">2</text>
</a>
</g>
</g>
<!-- dir_289ec97c7adb65139f0eb8343d5d21ae&#45;&gt;dir_ba48ca66118492a4424f86e9da0f6902 -->
<g id="edge13" class="edge">
<title>dir_289ec97c7adb65139f0eb8343d5d21ae&#45;&gt;dir_ba48ca66118492a4424f86e9da0f6902</title>
<path fill="none" stroke="#000000" d="M446.0947,-367.4155C498.5522,-349.3515 590.5325,-307.2357 590.5325,-234 590.5325,-234 590.5325,-234 590.5325,-162 590.5325,-110.2151 560.89,-98.7225 516.5325,-72 479.4274,-49.6466 357.8527,-31.3755 293.4365,-22.9781"/>
<polygon fill="#000000" stroke="#000000" points="293.5984,-19.4703 283.2342,-21.6685 292.7071,-26.4133 293.5984,-19.4703"/>
<g id="a_edge13&#45;headlabel"><a xlink:href="dir_000635_000618.html" target="_top" xlink:title="8">
<text text-anchor="middle" x="297.5253" y="-14.6117" font-family="Helvetica,sans-Serif" font-size="10.00" fill="#000000">8</text>
</a>
</g>
</g>
<!-- dir_289ec97c7adb65139f0eb8343d5d21ae&#45;&gt;dir_808d5540d0c117816a4e0e1b180c8334 -->
<g id="edge12" class="edge">
<title>dir_289ec97c7adb65139f0eb8343d5d21ae&#45;&gt;dir_808d5540d0c117816a4e0e1b180c8334</title>
<path fill="none" stroke="#000000" d="M388.4302,-359.8314C380.1673,-351.454 370.9991,-341.3531 363.2777,-332.1749"/>
<polygon fill="#000000" stroke="#000000" points="365.9666,-329.9341 356.9239,-324.4133 360.55,-334.3683 365.9666,-329.9341"/>
<g id="a_edge12&#45;headlabel"><a xlink:href="dir_000635_000632.html" target="_top" xlink:title="6">
<text text-anchor="middle" x="370.4405" y="-328.4171" font-family="Helvetica,sans-Serif" font-size="10.00" fill="#000000">6</text>
</a>
</g>
</g>
<!-- dir_289ec97c7adb65139f0eb8343d5d21ae&#45;&gt;dir_ee87ad93049d1677c6ffb88a968be9d4 -->
<g id="edge14" class="edge">
<title>dir_289ec97c7adb65139f0eb8343d5d21ae&#45;&gt;dir_ee87ad93049d1677c6ffb88a968be9d4</title>
<path fill="none" stroke="#000000" d="M374.7691,-371.5183C299.8223,-357.2335 129.9565,-320.9557 90.5325,-279 49.8342,-235.6882 60.6279,-159.3081 70.4873,-118.1545"/>
<polygon fill="#000000" stroke="#000000" points="73.9326,-118.8075 73.0062,-108.2532 67.1487,-117.0816 73.9326,-118.8075"/>
<g id="a_edge14&#45;headlabel"><a xlink:href="dir_000635_000642.html" target="_top" xlink:title="1">
<text text-anchor="middle" x="75.798" y="-120.4911" font-family="Helvetica,sans-Serif" font-size="10.00" fill="#000000">1</text>
</a>
</g>
</g>
<!-- dir_289ec97c7adb65139f0eb8343d5d21ae&#45;&gt;dir_442920581a03c66cf8c08ae559108050 -->
<g id="edge15" class="edge">
<title>dir_289ec97c7adb65139f0eb8343d5d21ae&#45;&gt;dir_442920581a03c66cf8c08ae559108050</title>
<path fill="none" stroke="#000000" d="M407.5055,-359.9555C405.964,-322.3144 410.1417,-235.1867 415.3764,-190.1246"/>
<polygon fill="#000000" stroke="#000000" points="418.8557,-190.5085 416.6533,-180.1451 411.9123,-189.6199 418.8557,-190.5085"/>
<g id="a_edge15&#45;headlabel"><a xlink:href="dir_000635_000619.html" target="_top" xlink:title="6">
<text text-anchor="middle" x="421.2159" y="-191.9343" font-family="Helvetica,sans-Serif" font-size="10.00" fill="#000000">6</text>
</a>
</g>
</g>
<!-- dir_289ec97c7adb65139f0eb8343d5d21ae&#45;&gt;dir_b1a191f241d56beebc4ffdb42af892eb -->
<g id="edge16" class="edge">
<title>dir_289ec97c7adb65139f0eb8343d5d21ae&#45;&gt;dir_b1a191f241d56beebc4ffdb42af892eb</title>
<path fill="none" stroke="#000000" d="M415.3582,-359.7623C425.8727,-334.7682 449.1094,-289.6924 466.1585,-260.8409"/>
<polygon fill="#000000" stroke="#000000" points="469.2711,-262.4575 471.4526,-252.0896 463.2818,-258.8342 469.2711,-262.4575"/>
<g id="a_edge16&#45;headlabel"><a xlink:href="dir_000635_000634.html" target="_top" xlink:title="9">
<text text-anchor="middle" x="469.8399" y="-264.5027" font-family="Helvetica,sans-Serif" font-size="10.00" fill="#000000">9</text>
</a>
</g>
</g>
<!-- dir_ee87ad93049d1677c6ffb88a968be9d4&#45;&gt;dir_ba48ca66118492a4424f86e9da0f6902 -->
<g id="edge17" class="edge">
<title>dir_ee87ad93049d1677c6ffb88a968be9d4&#45;&gt;dir_ba48ca66118492a4424f86e9da0f6902</title>
<path fill="none" stroke="#000000" d="M122.4401,-71.8314C150.0567,-60.4038 185.4237,-45.7692 212.3091,-34.6442"/>
<polygon fill="#000000" stroke="#000000" points="213.8984,-37.7744 221.8004,-30.7168 211.2219,-31.3063 213.8984,-37.7744"/>
<g id="a_edge17&#45;headlabel"><a xlink:href="dir_000642_000618.html" target="_top" xlink:title="24">
<text text-anchor="middle" x="211.6625" y="-39.2723" font-family="Helvetica,sans-Serif" font-size="10.00" fill="#000000">24</text>
</a>
</g>
</g>
<!-- dir_442920581a03c66cf8c08ae559108050&#45;&gt;dir_b1dd2c3d7fcd0d0d24ad7c8634d4eb04 -->
<g id="edge24" class="edge">
<title>dir_442920581a03c66cf8c08ae559108050&#45;&gt;dir_b1dd2c3d7fcd0d0d24ad7c8634d4eb04</title>
<path fill="none" stroke="#000000" d="M394.3046,-175.928C365.6904,-188.8614 320.7757,-207.9841 289.1052,-220.7091"/>
<polygon fill="#000000" stroke="#000000" points="287.7312,-217.4889 279.7344,-224.439 290.3199,-223.9927 287.7312,-217.4889"/>
<g id="a_edge24&#45;headlabel"><a xlink:href="dir_000619_000628.html" target="_top" xlink:title="4">
<text text-anchor="middle" x="290.021" y="-211.0217" font-family="Helvetica,sans-Serif" font-size="10.00" fill="#000000">4</text>
</a>
</g>
</g>
<!-- dir_442920581a03c66cf8c08ae559108050&#45;&gt;dir_6d1e342cb6193ce32747aa0856bf9c1e -->
<g id="edge18" class="edge">
<title>dir_442920581a03c66cf8c08ae559108050&#45;&gt;dir_6d1e342cb6193ce32747aa0856bf9c1e</title>
<path fill="none" stroke="#000000" d="M428.5981,-143.8314C431.6585,-135.9617 435.3104,-126.5712 438.7007,-117.8533"/>
<polygon fill="#000000" stroke="#000000" points="442.0093,-119.0019 442.3718,-108.4133 435.4853,-116.4647 442.0093,-119.0019"/>
<g id="a_edge18&#45;headlabel"><a xlink:href="dir_000619_000629.html" target="_top" xlink:title="5">
<text text-anchor="middle" x="443.3527" y="-120.8812" font-family="Helvetica,sans-Serif" font-size="10.00" fill="#000000">5</text>
</a>
</g>
</g>
<!-- dir_442920581a03c66cf8c08ae559108050&#45;&gt;dir_c5c2054ad45a3325316df490e5ea9aa8 -->
<g id="edge19" class="edge">
<title>dir_442920581a03c66cf8c08ae559108050&#45;&gt;dir_c5c2054ad45a3325316df490e5ea9aa8</title>
<path fill="none" stroke="#000000" d="M394.3578,-149.2936C375.8916,-139.4211 351.4728,-125.4527 331.7187,-113.5533"/>
<polygon fill="#000000" stroke="#000000" points="333.371,-110.4617 323.0088,-108.2537 329.7324,-116.4418 333.371,-110.4617"/>
<g id="a_edge19&#45;headlabel"><a xlink:href="dir_000619_000641.html" target="_top" xlink:title="6">
<text text-anchor="middle" x="337.9177" y="-107.4046" font-family="Helvetica,sans-Serif" font-size="10.00" fill="#000000">6</text>
</a>
</g>
</g>
<!-- dir_442920581a03c66cf8c08ae559108050&#45;&gt;dir_ba48ca66118492a4424f86e9da0f6902 -->
<g id="edge21" class="edge">
<title>dir_442920581a03c66cf8c08ae559108050&#45;&gt;dir_ba48ca66118492a4424f86e9da0f6902</title>
<path fill="none" stroke="#000000" d="M409.0984,-143.8334C395.1946,-124.4252 371.2322,-93.5501 345.5325,-72 329.4783,-58.5379 309.6285,-46.5018 292.3958,-37.2283"/>
<polygon fill="#000000" stroke="#000000" points="293.6134,-33.9148 283.132,-32.3691 290.3618,-40.1138 293.6134,-33.9148"/>
<g id="a_edge21&#45;headlabel"><a xlink:href="dir_000619_000618.html" target="_top" xlink:title="27">
<text text-anchor="middle" x="298.1156" y="-30.5701" font-family="Helvetica,sans-Serif" font-size="10.00" fill="#000000">27</text>
</a>
</g>
</g>
<!-- dir_442920581a03c66cf8c08ae559108050&#45;&gt;dir_808d5540d0c117816a4e0e1b180c8334 -->
<g id="edge20" class="edge">
<title>dir_442920581a03c66cf8c08ae559108050&#45;&gt;dir_808d5540d0c117816a4e0e1b180c8334</title>
<path fill="none" stroke="#000000" d="M414.8206,-180.1089C409.2183,-188.314 402.024,-198.3277 396.5325,-208 383.6208,-230.7417 372.4338,-258.3566 363.4928,-278.4692"/>
<polygon fill="#000000" stroke="#000000" points="360.2543,-277.1353 359.2862,-287.6858 366.6224,-280.0418 360.2543,-277.1353"/>
<g id="a_edge20&#45;headlabel"><a xlink:href="dir_000619_000632.html" target="_top" xlink:title="10">
<text text-anchor="middle" x="359.1638" y="-270.1863" font-family="Helvetica,sans-Serif" font-size="10.00" fill="#000000">10</text>
</a>
</g>
</g>
<!-- dir_442920581a03c66cf8c08ae559108050&#45;&gt;dir_289ec97c7adb65139f0eb8343d5d21ae -->
<g id="edge22" class="edge">
<title>dir_442920581a03c66cf8c08ae559108050&#45;&gt;dir_289ec97c7adb65139f0eb8343d5d21ae</title>
<path fill="none" stroke="#000000" d="M424.5636,-180.1451C426.095,-217.8741 421.9112,-305.0083 416.6747,-349.9956"/>
<polygon fill="#000000" stroke="#000000" points="413.1979,-349.5915 415.3974,-359.9555 420.1411,-350.482 413.1979,-349.5915"/>
<g id="a_edge22&#45;headlabel"><a xlink:href="dir_000619_000635.html" target="_top" xlink:title="4">
<text text-anchor="middle" x="410.8389" y="-343.1649" font-family="Helvetica,sans-Serif" font-size="10.00" fill="#000000">4</text>
</a>
</g>
</g>
<!-- dir_442920581a03c66cf8c08ae559108050&#45;&gt;dir_ee87ad93049d1677c6ffb88a968be9d4 -->
<g id="edge23" class="edge">
<title>dir_442920581a03c66cf8c08ae559108050&#45;&gt;dir_ee87ad93049d1677c6ffb88a968be9d4</title>
<path fill="none" stroke="#000000" d="M394.3312,-156.2901C342.6211,-145.4355 228.5294,-121.4862 152.5885,-105.5453"/>
<polygon fill="#000000" stroke="#000000" points="153.1053,-102.0775 142.5995,-103.4485 151.6672,-108.9282 153.1053,-102.0775"/>
<g id="a_edge23&#45;headlabel"><a xlink:href="dir_000619_000642.html" target="_top" xlink:title="2">
<text text-anchor="middle" x="157.2065" y="-97.5372" font-family="Helvetica,sans-Serif" font-size="10.00" fill="#000000">2</text>
</a>
</g>
</g>
<!-- dir_442920581a03c66cf8c08ae559108050&#45;&gt;dir_b1a191f241d56beebc4ffdb42af892eb -->
<g id="edge25" class="edge">
<title>dir_442920581a03c66cf8c08ae559108050&#45;&gt;dir_b1a191f241d56beebc4ffdb42af892eb</title>
<path fill="none" stroke="#000000" d="M443.8759,-180.4133C452.0725,-188.7389 461.1339,-198.7282 468.7784,-207.8144"/>
<polygon fill="#000000" stroke="#000000" points="466.2948,-210.3063 475.335,-215.8314 471.7134,-205.8747 466.2948,-210.3063"/>
<g id="a_edge25&#45;headlabel"><a xlink:href="dir_000619_000634.html" target="_top" xlink:title="31">
<text text-anchor="middle" x="461.8214" y="-206.8213" font-family="Helvetica,sans-Serif" font-size="10.00" fill="#000000">31</text>
</a>
</g>
</g>
<!-- dir_b1a191f241d56beebc4ffdb42af892eb&#45;&gt;dir_b1dd2c3d7fcd0d0d24ad7c8634d4eb04 -->
<g id="edge40" class="edge">
<title>dir_b1a191f241d56beebc4ffdb42af892eb&#45;&gt;dir_b1dd2c3d7fcd0d0d24ad7c8634d4eb04</title>
<path fill="none" stroke="#000000" d="M447.7681,-234C395.1804,-234 342.5927,-234 290.0049,-234"/>
<polygon fill="#000000" stroke="#000000" points="289.8372,-230.5001 279.8372,-234 289.8372,-237.5001 289.8372,-230.5001"/>
<g id="a_edge40&#45;headlabel"><a xlink:href="dir_000634_000628.html" target="_top" xlink:title="1">
<text text-anchor="middle" x="293.4318" y="-225.1607" font-family="Helvetica,sans-Serif" font-size="10.00" fill="#000000">1</text>
</a>
</g>
</g>
<!-- dir_b1a191f241d56beebc4ffdb42af892eb&#45;&gt;dir_6d1e342cb6193ce32747aa0856bf9c1e -->
<g id="edge35" class="edge">
<title>dir_b1a191f241d56beebc4ffdb42af892eb&#45;&gt;dir_6d1e342cb6193ce32747aa0856bf9c1e</title>
<path fill="none" stroke="#000000" d="M480.9731,-215.7623C474.8057,-191.0928 463.7475,-146.8598 456.5258,-117.9731"/>
<polygon fill="#000000" stroke="#000000" points="459.8759,-116.9421 454.0549,-108.0896 453.0849,-118.6399 459.8759,-116.9421"/>
<g id="a_edge35&#45;headlabel"><a xlink:href="dir_000634_000629.html" target="_top" xlink:title="2">
<text text-anchor="middle" x="463.5021" y="-117.2408" font-family="Helvetica,sans-Serif" font-size="10.00" fill="#000000">2</text>
</a>
</g>
</g>
<!-- dir_b1a191f241d56beebc4ffdb42af892eb&#45;&gt;dir_ba48ca66118492a4424f86e9da0f6902 -->
<g id="edge37" class="edge">
<title>dir_b1a191f241d56beebc4ffdb42af892eb&#45;&gt;dir_ba48ca66118492a4424f86e9da0f6902</title>
<path fill="none" stroke="#000000" d="M493.7581,-215.8348C507.1832,-183.1338 529.1216,-113.8727 495.5325,-72 470.6725,-41.0091 356.1745,-26.6795 293.621,-21.0645"/>
<polygon fill="#000000" stroke="#000000" points="293.5773,-17.5478 283.3136,-20.176 292.976,-24.522 293.5773,-17.5478"/>
<g id="a_edge37&#45;headlabel"><a xlink:href="dir_000634_000618.html" target="_top" xlink:title="14">
<text text-anchor="middle" x="297.4024" y="-12.5277" font-family="Helvetica,sans-Serif" font-size="10.00" fill="#000000">14</text>
</a>
</g>
</g>
<!-- dir_b1a191f241d56beebc4ffdb42af892eb&#45;&gt;dir_808d5540d0c117816a4e0e1b180c8334 -->
<g id="edge36" class="edge">
<title>dir_b1a191f241d56beebc4ffdb42af892eb&#45;&gt;dir_808d5540d0c117816a4e0e1b180c8334</title>
<path fill="none" stroke="#000000" d="M456.5584,-252.0873C435.0729,-263.8121 405.7891,-278.9387 382.7681,-290.1836"/>
<polygon fill="#000000" stroke="#000000" points="381.1274,-287.0892 373.6462,-294.5914 384.173,-293.3919 381.1274,-287.0892"/>
<g id="a_edge36&#45;headlabel"><a xlink:href="dir_000634_000632.html" target="_top" xlink:title="1">
<text text-anchor="middle" x="383.1287" y="-280.4688" font-family="Helvetica,sans-Serif" font-size="10.00" fill="#000000">1</text>
</a>
</g>
</g>
<!-- dir_b1a191f241d56beebc4ffdb42af892eb&#45;&gt;dir_289ec97c7adb65139f0eb8343d5d21ae -->
<g id="edge38" class="edge">
<title>dir_b1a191f241d56beebc4ffdb42af892eb&#45;&gt;dir_289ec97c7adb65139f0eb8343d5d21ae</title>
<path fill="none" stroke="#000000" d="M480.7691,-252.0896C470.305,-277.0041 447.0813,-322.0722 430.0078,-350.9877"/>
<polygon fill="#000000" stroke="#000000" points="426.8817,-349.3936 424.7045,-359.7623 432.8725,-353.0144 426.8817,-349.3936"/>
<g id="a_edge38&#45;headlabel"><a xlink:href="dir_000634_000635.html" target="_top" xlink:title="1">
<text text-anchor="middle" x="426.3111" y="-342.3486" font-family="Helvetica,sans-Serif" font-size="10.00" fill="#000000">1</text>
</a>
</g>
</g>
<!-- dir_b1a191f241d56beebc4ffdb42af892eb&#45;&gt;dir_442920581a03c66cf8c08ae559108050 -->
<g id="edge39" class="edge">
<title>dir_b1a191f241d56beebc4ffdb42af892eb&#45;&gt;dir_442920581a03c66cf8c08ae559108050</title>
<path fill="none" stroke="#000000" d="M463.4302,-215.8314C455.1673,-207.454 445.9991,-197.3531 438.2777,-188.1749"/>
<polygon fill="#000000" stroke="#000000" points="440.9666,-185.9341 431.9239,-180.4133 435.55,-190.3683 440.9666,-185.9341"/>
<g id="a_edge39&#45;headlabel"><a xlink:href="dir_000634_000619.html" target="_top" xlink:title="27">
<text text-anchor="middle" x="445.4405" y="-184.4171" font-family="Helvetica,sans-Serif" font-size="10.00" fill="#000000">27</text>
</a>
</g>
</g>
<!-- dir_2171f7ec022c5423887b07c69b2f5b48&#45;&gt;dir_ba48ca66118492a4424f86e9da0f6902 -->
<g id="edge41" class="edge">
<title>dir_2171f7ec022c5423887b07c69b2f5b48&#45;&gt;dir_ba48ca66118492a4424f86e9da0f6902</title>
<path fill="none" stroke="#000000" d="M155.7688,-143.988C165.7289,-125.2526 182.5863,-95.4375 200.5325,-72 208.1211,-62.0894 217.322,-52.0256 225.8622,-43.3143"/>
<polygon fill="#000000" stroke="#000000" points="228.5382,-45.5882 233.1399,-36.0449 223.5913,-40.6356 228.5382,-45.5882"/>
<g id="a_edge41&#45;headlabel"><a xlink:href="dir_000060_000618.html" target="_top" xlink:title="9">
<text text-anchor="middle" x="228.0015" y="-47.6374" font-family="Helvetica,sans-Serif" font-size="10.00" fill="#000000">9</text>
</a>
</g>
</g>
</g>
</svg>
