<?xml version="1.0" encoding="UTF-8" standalone="no"?>
<!DOCTYPE svg PUBLIC "-//W3C//DTD SVG 1.1//EN"
 "http://www.w3.org/Graphics/SVG/1.1/DTD/svg11.dtd">
<!-- Generated by graphviz version 2.40.1 (20161225.0304)
 -->
<!-- Title: /home/travis/build/AliceO2Group/AliceO2/GPU/GPUTracking/Interface Pages: 1 -->
<svg width="238pt" height="439pt"
 viewBox="0.00 0.00 238.00 439.00" xmlns="http://www.w3.org/2000/svg" xmlns:xlink="http://www.w3.org/1999/xlink">
<g id="graph0" class="graph" transform="scale(1 1) rotate(0) translate(4 435)">
<title>/home/travis/build/AliceO2Group/AliceO2/GPU/GPUTracking/Interface</title>
<g id="clust1" class="cluster">
<title>clusterdir_77030b149987c946eb2e85728f65acc0</title>
<g id="a_clust1"><a xlink:href="dir_77030b149987c946eb2e85728f65acc0.html" target="_top" xlink:title="GPUTracking">
<polygon fill="#ddddee" stroke="#000000" points="101,-352 101,-423 179,-423 179,-352 101,-352"/>
<text text-anchor="middle" x="140" y="-411" font-family="Helvetica,sans-Serif" font-size="10.00" fill="#000000">GPUTracking</text>
</a>
</g>
</g>
<!-- dir_01d68d8da92fbef75811dc6520ae440e -->
<g id="node1" class="node">
<title>dir_01d68d8da92fbef75811dc6520ae440e</title>
<g id="a_node1"><a xlink:href="dir_01d68d8da92fbef75811dc6520ae440e.html" target="_top" xlink:title="Interface">
<polygon fill="#eeeeff" stroke="#000000" points="170,-396 110,-396 110,-360 170,-360 170,-396"/>
<text text-anchor="middle" x="140" y="-375.5" font-family="Helvetica,sans-Serif" font-size="10.00" fill="#000000">Interface</text>
</a>
</g>
</g>
<!-- dir_ba48ca66118492a4424f86e9da0f6902 -->
<g id="node2" class="node">
<title>dir_ba48ca66118492a4424f86e9da0f6902</title>
<g id="a_node2"><a xlink:href="dir_ba48ca66118492a4424f86e9da0f6902.html" target="_top" xlink:title="Common">
<polygon fill="none" stroke="#000000" points="114.5,-36 53.5,-36 53.5,0 114.5,0 114.5,-36"/>
<text text-anchor="middle" x="84" y="-15.5" font-family="Helvetica,sans-Serif" font-size="10.00" fill="#000000">Common</text>
</a>
</g>
</g>
<!-- dir_01d68d8da92fbef75811dc6520ae440e&#45;&gt;dir_ba48ca66118492a4424f86e9da0f6902 -->
<g id="edge4" class="edge">
<title>dir_01d68d8da92fbef75811dc6520ae440e&#45;&gt;dir_ba48ca66118492a4424f86e9da0f6902</title>
<path fill="none" stroke="#000000" d="M109.9665,-363.8753C68.8299,-342.2023 0,-296.5876 0,-234 0,-234 0,-234 0,-162 0,-115.3742 33.2643,-70.406 57.9272,-43.4732"/>
<polygon fill="#000000" stroke="#000000" points="60.6229,-45.7162 64.9391,-36.0404 55.531,-40.9127 60.6229,-45.7162"/>
<g id="a_edge4&#45;headlabel"><a xlink:href="dir_000630_000618.html" target="_top" xlink:title="1">
<text text-anchor="middle" x="60.2216" y="-47.7792" font-family="Helvetica,sans-Serif" font-size="10.00" fill="#000000">1</text>
</a>
</g>
</g>
<!-- dir_289ec97c7adb65139f0eb8343d5d21ae -->
<g id="node3" class="node">
<title>dir_289ec97c7adb65139f0eb8343d5d21ae</title>
<g id="a_node3"><a xlink:href="dir_289ec97c7adb65139f0eb8343d5d21ae.html" target="_top" xlink:title="Standalone">
<polygon fill="none" stroke="#ff0000" points="175.5,-324 104.5,-324 104.5,-288 175.5,-288 175.5,-324"/>
<text text-anchor="middle" x="140" y="-303.5" font-family="Helvetica,sans-Serif" font-size="10.00" fill="#000000">Standalone</text>
</a>
</g>
</g>
<!-- dir_01d68d8da92fbef75811dc6520ae440e&#45;&gt;dir_289ec97c7adb65139f0eb8343d5d21ae -->
<g id="edge5" class="edge">
<title>dir_01d68d8da92fbef75811dc6520ae440e&#45;&gt;dir_289ec97c7adb65139f0eb8343d5d21ae</title>
<path fill="none" stroke="#000000" d="M140,-359.8314C140,-352.131 140,-342.9743 140,-334.4166"/>
<polygon fill="#000000" stroke="#000000" points="143.5001,-334.4132 140,-324.4133 136.5001,-334.4133 143.5001,-334.4132"/>
<g id="a_edge5&#45;headlabel"><a xlink:href="dir_000630_000635.html" target="_top" xlink:title="2">
<text text-anchor="middle" x="146.3393" y="-335.5079" font-family="Helvetica,sans-Serif" font-size="10.00" fill="#000000">2</text>
</a>
</g>
</g>
<!-- dir_442920581a03c66cf8c08ae559108050 -->
<g id="node4" class="node">
<title>dir_442920581a03c66cf8c08ae559108050</title>
<g id="a_node4"><a xlink:href="dir_442920581a03c66cf8c08ae559108050.html" target="_top" xlink:title="Base">
<polygon fill="none" stroke="#ff0000" points="120,-252 66,-252 66,-216 120,-216 120,-252"/>
<text text-anchor="middle" x="93" y="-231.5" font-family="Helvetica,sans-Serif" font-size="10.00" fill="#000000">Base</text>
</a>
</g>
</g>
<!-- dir_01d68d8da92fbef75811dc6520ae440e&#45;&gt;dir_442920581a03c66cf8c08ae559108050 -->
<g id="edge6" class="edge">
<title>dir_01d68d8da92fbef75811dc6520ae440e&#45;&gt;dir_442920581a03c66cf8c08ae559108050</title>
<path fill="none" stroke="#000000" d="M119.2731,-359.5979C110.0079,-350.0113 100.0523,-337.4848 95,-324 87.6201,-304.3029 87.4471,-280.4414 88.9429,-262.2383"/>
<polygon fill="#000000" stroke="#000000" points="92.4287,-262.5553 89.9746,-252.2486 85.4657,-261.8361 92.4287,-262.5553"/>
<g id="a_edge6&#45;headlabel"><a xlink:href="dir_000630_000619.html" target="_top" xlink:title="4">
<text text-anchor="middle" x="94.8838" y="-263.9226" font-family="Helvetica,sans-Serif" font-size="10.00" fill="#000000">4</text>
</a>
</g>
</g>
<!-- dir_b1dd2c3d7fcd0d0d24ad7c8634d4eb04 -->
<g id="node5" class="node">
<title>dir_b1dd2c3d7fcd0d0d24ad7c8634d4eb04</title>
<g id="a_node5"><a xlink:href="dir_b1dd2c3d7fcd0d0d24ad7c8634d4eb04.html" target="_top" xlink:title="Global">
<polygon fill="none" stroke="#000000" points="184,-180 130,-180 130,-144 184,-144 184,-180"/>
<text text-anchor="middle" x="157" y="-159.5" font-family="Helvetica,sans-Serif" font-size="10.00" fill="#000000">Global</text>
</a>
</g>
</g>
<!-- dir_01d68d8da92fbef75811dc6520ae440e&#45;&gt;dir_b1dd2c3d7fcd0d0d24ad7c8634d4eb04 -->
<g id="edge7" class="edge">
<title>dir_01d68d8da92fbef75811dc6520ae440e&#45;&gt;dir_b1dd2c3d7fcd0d0d24ad7c8634d4eb04</title>
<path fill="none" stroke="#000000" d="M160.8578,-359.6461C170.154,-350.0709 180.0978,-337.54 185,-324 201.4663,-278.5193 183.8613,-222.2611 170.0785,-189.4254"/>
<polygon fill="#000000" stroke="#000000" points="173.1806,-187.7835 165.9658,-180.0248 166.7675,-190.5893 173.1806,-187.7835"/>
<g id="a_edge7&#45;headlabel"><a xlink:href="dir_000630_000628.html" target="_top" xlink:title="1">
<text text-anchor="middle" x="177.2225" y="-187.4387" font-family="Helvetica,sans-Serif" font-size="10.00" fill="#000000">1</text>
</a>
</g>
</g>
<!-- dir_2171f7ec022c5423887b07c69b2f5b48 -->
<g id="node6" class="node">
<title>dir_2171f7ec022c5423887b07c69b2f5b48</title>
<g id="a_node6"><a xlink:href="dir_2171f7ec022c5423887b07c69b2f5b48.html" target="_top" xlink:title="DataFormats">
<polygon fill="none" stroke="#ff0000" points="230,-108 150,-108 150,-72 230,-72 230,-108"/>
<text text-anchor="middle" x="190" y="-87.5" font-family="Helvetica,sans-Serif" font-size="10.00" fill="#000000">DataFormats</text>
</a>
</g>
</g>
<!-- dir_01d68d8da92fbef75811dc6520ae440e&#45;&gt;dir_2171f7ec022c5423887b07c69b2f5b48 -->
<g id="edge8" class="edge">
<title>dir_01d68d8da92fbef75811dc6520ae440e&#45;&gt;dir_2171f7ec022c5423887b07c69b2f5b48</title>
<path fill="none" stroke="#000000" d="M170.1695,-360.018C182.455,-350.9224 195.3181,-338.6807 202,-324 233.2671,-255.3035 212.906,-163.2625 199.3308,-117.8049"/>
<polygon fill="#000000" stroke="#000000" points="202.6147,-116.5776 196.3096,-108.0631 195.9288,-118.6511 202.6147,-116.5776"/>
<g id="a_edge8&#45;headlabel"><a xlink:href="dir_000630_000060.html" target="_top" xlink:title="2">
<text text-anchor="middle" x="206.3913" y="-116.6699" font-family="Helvetica,sans-Serif" font-size="10.00" fill="#000000">2</text>
</a>
</g>
</g>
<!-- dir_289ec97c7adb65139f0eb8343d5d21ae&#45;&gt;dir_ba48ca66118492a4424f86e9da0f6902 -->
<g id="edge1" class="edge">
<title>dir_289ec97c7adb65139f0eb8343d5d21ae&#45;&gt;dir_ba48ca66118492a4424f86e9da0f6902</title>
<path fill="none" stroke="#000000" d="M104.2331,-292.4692C86.6361,-283.7787 67.0817,-270.5868 57,-252 20.5787,-184.8532 51.6831,-91.1118 71.1621,-45.3356"/>
<polygon fill="#000000" stroke="#000000" points="74.4176,-46.6269 75.2309,-36.0633 68.0075,-43.814 74.4176,-46.6269"/>
<g id="a_edge1&#45;headlabel"><a xlink:href="dir_000635_000618.html" target="_top" xlink:title="8">
<text text-anchor="middle" x="75.5732" y="-48.5594" font-family="Helvetica,sans-Serif" font-size="10.00" fill="#000000">8</text>
</a>
</g>
</g>
<!-- dir_289ec97c7adb65139f0eb8343d5d21ae&#45;&gt;dir_442920581a03c66cf8c08ae559108050 -->
<g id="edge2" class="edge">
<title>dir_289ec97c7adb65139f0eb8343d5d21ae&#45;&gt;dir_442920581a03c66cf8c08ae559108050</title>
<path fill="none" stroke="#000000" d="M122.1875,-287.8314C116.1565,-279.7925 109.6666,-270.1666 104.2442,-261.2918"/>
<polygon fill="#000000" stroke="#000000" points="107.118,-259.2731 99.0438,-252.4133 101.0778,-262.811 107.118,-259.2731"/>
<g id="a_edge2&#45;headlabel"><a xlink:href="dir_000635_000619.html" target="_top" xlink:title="6">
<text text-anchor="middle" x="111.3847" y="-258.4398" font-family="Helvetica,sans-Serif" font-size="10.00" fill="#000000">6</text>
</a>
</g>
</g>
<!-- dir_289ec97c7adb65139f0eb8343d5d21ae&#45;&gt;dir_b1dd2c3d7fcd0d0d24ad7c8634d4eb04 -->
<g id="edge3" class="edge">
<title>dir_289ec97c7adb65139f0eb8343d5d21ae&#45;&gt;dir_b1dd2c3d7fcd0d0d24ad7c8634d4eb04</title>
<path fill="none" stroke="#000000" d="M137.4799,-287.7623C137.9216,-263.0928 142.8773,-218.8598 148.2256,-189.9731"/>
<polygon fill="#000000" stroke="#000000" points="151.673,-190.5824 150.2061,-180.0896 144.8094,-189.207 151.673,-190.5824"/>
<g id="a_edge3&#45;headlabel"><a xlink:href="dir_000635_000628.html" target="_top" xlink:title="3">
<text text-anchor="middle" x="153.7507" y="-192.1648" font-family="Helvetica,sans-Serif" font-size="10.00" fill="#000000">3</text>
</a>
</g>
</g>
<!-- dir_442920581a03c66cf8c08ae559108050&#45;&gt;dir_ba48ca66118492a4424f86e9da0f6902 -->
<g id="edge9" class="edge">
<title>dir_442920581a03c66cf8c08ae559108050&#45;&gt;dir_ba48ca66118492a4424f86e9da0f6902</title>
<path fill="none" stroke="#000000" d="M92.2481,-215.9555C90.6831,-178.3938 87.0648,-91.5541 85.1838,-46.4103"/>
<polygon fill="#000000" stroke="#000000" points="88.6694,-45.9907 84.756,-36.1451 81.6755,-46.2821 88.6694,-45.9907"/>
<g id="a_edge9&#45;headlabel"><a xlink:href="dir_000619_000618.html" target="_top" xlink:title="27">
<text text-anchor="middle" x="91.6558" y="-46.964" font-family="Helvetica,sans-Serif" font-size="10.00" fill="#000000">27</text>
</a>
</g>
</g>
<!-- dir_442920581a03c66cf8c08ae559108050&#45;&gt;dir_289ec97c7adb65139f0eb8343d5d21ae -->
<g id="edge10" class="edge">
<title>dir_442920581a03c66cf8c08ae559108050&#45;&gt;dir_289ec97c7adb65139f0eb8343d5d21ae</title>
<path fill="none" stroke="#000000" d="M110.9958,-252.4133C117.0359,-260.484 123.5195,-270.1182 128.9202,-278.9775"/>
<polygon fill="#000000" stroke="#000000" points="126.0261,-280.9621 134.0923,-287.8314 132.0703,-277.4312 126.0261,-280.9621"/>
<g id="a_edge10&#45;headlabel"><a xlink:href="dir_000619_000635.html" target="_top" xlink:title="4">
<text text-anchor="middle" x="121.7613" y="-276.7904" font-family="Helvetica,sans-Serif" font-size="10.00" fill="#000000">4</text>
</a>
</g>
</g>
<!-- dir_442920581a03c66cf8c08ae559108050&#45;&gt;dir_b1dd2c3d7fcd0d0d24ad7c8634d4eb04 -->
<g id="edge11" class="edge">
<title>dir_442920581a03c66cf8c08ae559108050&#45;&gt;dir_b1dd2c3d7fcd0d0d24ad7c8634d4eb04</title>
<path fill="none" stroke="#000000" d="M103.1975,-215.8314C109.8946,-207.3694 118.7943,-197.1489 127.4724,-187.8971"/>
<polygon fill="#000000" stroke="#000000" points="130.2563,-190.0511 134.6566,-180.4133 125.2065,-185.2034 130.2563,-190.0511"/>
<g id="a_edge11&#45;headlabel"><a xlink:href="dir_000619_000628.html" target="_top" xlink:title="4">
<text text-anchor="middle" x="129.8152" y="-192.1105" font-family="Helvetica,sans-Serif" font-size="10.00" fill="#000000">4</text>
</a>
</g>
</g>
<!-- dir_b1dd2c3d7fcd0d0d24ad7c8634d4eb04&#45;&gt;dir_ba48ca66118492a4424f86e9da0f6902 -->
<g id="edge12" class="edge">
<title>dir_b1dd2c3d7fcd0d0d24ad7c8634d4eb04&#45;&gt;dir_ba48ca66118492a4424f86e9da0f6902</title>
<path fill="none" stroke="#000000" d="M147.7545,-143.7623C135.1388,-118.8764 112.4306,-74.0822 97.7972,-45.2165"/>
<polygon fill="#000000" stroke="#000000" points="100.8139,-43.4264 93.1704,-36.0896 94.5703,-46.5916 100.8139,-43.4264"/>
<g id="a_edge12&#45;headlabel"><a xlink:href="dir_000628_000618.html" target="_top" xlink:title="3">
<text text-anchor="middle" x="104.9716" y="-42.8488" font-family="Helvetica,sans-Serif" font-size="10.00" fill="#000000">3</text>
</a>
</g>
</g>
<!-- dir_b1dd2c3d7fcd0d0d24ad7c8634d4eb04&#45;&gt;dir_289ec97c7adb65139f0eb8343d5d21ae -->
<g id="edge13" class="edge">
<title>dir_b1dd2c3d7fcd0d0d24ad7c8634d4eb04&#45;&gt;dir_289ec97c7adb65139f0eb8343d5d21ae</title>
<path fill="none" stroke="#000000" d="M159.5227,-180.0896C159.0991,-204.6805 154.1533,-248.905 148.8066,-277.8531"/>
<polygon fill="#000000" stroke="#000000" points="145.3539,-277.2703 146.8262,-287.7623 152.2182,-278.6421 145.3539,-277.2703"/>
<g id="a_edge13&#45;headlabel"><a xlink:href="dir_000628_000635.html" target="_top" xlink:title="3">
<text text-anchor="middle" x="143.2741" y="-270.689" font-family="Helvetica,sans-Serif" font-size="10.00" fill="#000000">3</text>
</a>
</g>
</g>
<!-- dir_b1dd2c3d7fcd0d0d24ad7c8634d4eb04&#45;&gt;dir_442920581a03c66cf8c08ae559108050 -->
<g id="edge14" class="edge">
<title>dir_b1dd2c3d7fcd0d0d24ad7c8634d4eb04&#45;&gt;dir_442920581a03c66cf8c08ae559108050</title>
<path fill="none" stroke="#000000" d="M146.6087,-180.4133C139.8694,-188.9088 130.9509,-199.1366 122.2773,-208.3696"/>
<polygon fill="#000000" stroke="#000000" points="119.5106,-206.1972 115.1023,-215.8314 124.5564,-211.049 119.5106,-206.1972"/>
<g id="a_edge14&#45;headlabel"><a xlink:href="dir_000628_000619.html" target="_top" xlink:title="13">
<text text-anchor="middle" x="119.9555" y="-199.1382" font-family="Helvetica,sans-Serif" font-size="10.00" fill="#000000">13</text>
</a>
</g>
</g>
<!-- dir_b1dd2c3d7fcd0d0d24ad7c8634d4eb04&#45;&gt;dir_2171f7ec022c5423887b07c69b2f5b48 -->
<g id="edge15" class="edge">
<title>dir_b1dd2c3d7fcd0d0d24ad7c8634d4eb04&#45;&gt;dir_2171f7ec022c5423887b07c69b2f5b48</title>
<path fill="none" stroke="#000000" d="M165.3273,-143.8314C168.973,-135.8771 173.3309,-126.369 177.3627,-117.5723"/>
<polygon fill="#000000" stroke="#000000" points="180.5757,-118.9622 181.5606,-108.4133 174.2123,-116.0456 180.5757,-118.9622"/>
<g id="a_edge15&#45;headlabel"><a xlink:href="dir_000628_000060.html" target="_top" xlink:title="1">
<text text-anchor="middle" x="181.6591" y="-120.9129" font-family="Helvetica,sans-Serif" font-size="10.00" fill="#000000">1</text>
</a>
</g>
</g>
<!-- dir_2171f7ec022c5423887b07c69b2f5b48&#45;&gt;dir_ba48ca66118492a4424f86e9da0f6902 -->
<g id="edge16" class="edge">
<title>dir_2171f7ec022c5423887b07c69b2f5b48&#45;&gt;dir_ba48ca66118492a4424f86e9da0f6902</title>
<path fill="none" stroke="#000000" d="M163.2517,-71.8314C149.9447,-62.7927 133.684,-51.7476 119.3625,-42.0198"/>
<polygon fill="#000000" stroke="#000000" points="120.9785,-38.8864 110.7397,-36.1628 117.0453,-44.677 120.9785,-38.8864"/>
<g id="a_edge16&#45;headlabel"><a xlink:href="dir_000060_000618.html" target="_top" xlink:title="9">
<text text-anchor="middle" x="125.5473" y="-36.0575" font-family="Helvetica,sans-Serif" font-size="10.00" fill="#000000">9</text>
</a>
</g>
</g>
</g>
</svg>
