<?xml version="1.0" encoding="UTF-8" standalone="no"?>
<!DOCTYPE svg PUBLIC "-//W3C//DTD SVG 1.1//EN"
 "http://www.w3.org/Graphics/SVG/1.1/DTD/svg11.dtd">
<!-- Generated by graphviz version 2.40.1 (20161225.0304)
 -->
<!-- Title: /home/travis/build/AliceO2Group/AliceO2/Detectors/TOF/reconstruction/include Pages: 1 -->
<svg width="271pt" height="231pt"
 viewBox="0.00 0.00 271.00 231.00" xmlns="http://www.w3.org/2000/svg" xmlns:xlink="http://www.w3.org/1999/xlink">
<g id="graph0" class="graph" transform="scale(1 1) rotate(0) translate(4 227)">
<title>/home/travis/build/AliceO2Group/AliceO2/Detectors/TOF/reconstruction/include</title>
<g id="clust1" class="cluster">
<title>clusterdir_d1fec883a65fe865f3e91884d818def8</title>
<g id="a_clust1"><a xlink:href="dir_d1fec883a65fe865f3e91884d818def8.html" target="_top" xlink:title="reconstruction">
<polygon fill="#ddddee" stroke="#000000" points="44,-128 44,-215 255,-215 255,-128 44,-128"/>
<text text-anchor="middle" x="149.5" y="-203" font-family="Helvetica,sans-Serif" font-size="10.00" fill="#000000">reconstruction</text>
</a>
</g>
</g>
<g id="clust2" class="cluster">
<title>clusterdir_3dfda2b66c3c3704521dbfdd9d3caacf</title>
<g id="a_clust2"><a xlink:href="dir_3dfda2b66c3c3704521dbfdd9d3caacf.html" target="_top">
<polygon fill="#eeeeff" stroke="#000000" points="52,-136 52,-188 247,-188 247,-136 52,-136"/>
</a>
</g>
</g>
<!-- dir_3dfda2b66c3c3704521dbfdd9d3caacf -->
<g id="node1" class="node">
<title>dir_3dfda2b66c3c3704521dbfdd9d3caacf</title>
<text text-anchor="middle" x="212" y="-159.5" font-family="Helvetica,sans-Serif" font-size="10.00" fill="#000000">include</text>
</g>
<!-- dir_ea0fd6262befb6a47c036a9bedd70371 -->
<g id="node2" class="node">
<title>dir_ea0fd6262befb6a47c036a9bedd70371</title>
<g id="a_node2"><a xlink:href="dir_ea0fd6262befb6a47c036a9bedd70371.html" target="_top" xlink:title="TOFReconstruction">
<polygon fill="#ffffff" stroke="#000000" points="166.5,-180 59.5,-180 59.5,-144 166.5,-144 166.5,-180"/>
<text text-anchor="middle" x="113" y="-159.5" font-family="Helvetica,sans-Serif" font-size="10.00" fill="#000000">TOFReconstruction</text>
</a>
</g>
</g>
<!-- dir_7559d374f7e4089a12282edb4b89411f -->
<g id="node3" class="node">
<title>dir_7559d374f7e4089a12282edb4b89411f</title>
<g id="a_node3"><a xlink:href="dir_7559d374f7e4089a12282edb4b89411f.html" target="_top" xlink:title="calibration">
<polygon fill="none" stroke="#ff0000" points="68,-108 0,-108 0,-72 68,-72 68,-108"/>
<text text-anchor="middle" x="34" y="-87.5" font-family="Helvetica,sans-Serif" font-size="10.00" fill="#000000">calibration</text>
</a>
</g>
</g>
<!-- dir_ea0fd6262befb6a47c036a9bedd70371&#45;&gt;dir_7559d374f7e4089a12282edb4b89411f -->
<g id="edge2" class="edge">
<title>dir_ea0fd6262befb6a47c036a9bedd70371&#45;&gt;dir_7559d374f7e4089a12282edb4b89411f</title>
<path fill="none" stroke="#000000" d="M93.065,-143.8314C83.5217,-135.1337 71.9401,-124.5783 61.5694,-115.1265"/>
<polygon fill="#000000" stroke="#000000" points="63.6772,-112.3121 53.9287,-108.1628 58.962,-117.4857 63.6772,-112.3121"/>
<g id="a_edge2&#45;headlabel"><a xlink:href="dir_000428_000521.html" target="_top" xlink:title="1">
<text text-anchor="middle" x="68.2465" y="-110.1349" font-family="Helvetica,sans-Serif" font-size="10.00" fill="#000000">1</text>
</a>
</g>
</g>
<!-- dir_0189f3ad6abecd72f822a0c3914f12b2 -->
<g id="node4" class="node">
<title>dir_0189f3ad6abecd72f822a0c3914f12b2</title>
<g id="a_node4"><a xlink:href="dir_0189f3ad6abecd72f822a0c3914f12b2.html" target="_top" xlink:title="base">
<polygon fill="none" stroke="#ff0000" points="140,-108 86,-108 86,-72 140,-72 140,-108"/>
<text text-anchor="middle" x="113" y="-87.5" font-family="Helvetica,sans-Serif" font-size="10.00" fill="#000000">base</text>
</a>
</g>
</g>
<!-- dir_ea0fd6262befb6a47c036a9bedd70371&#45;&gt;dir_0189f3ad6abecd72f822a0c3914f12b2 -->
<g id="edge3" class="edge">
<title>dir_ea0fd6262befb6a47c036a9bedd70371&#45;&gt;dir_0189f3ad6abecd72f822a0c3914f12b2</title>
<path fill="none" stroke="#000000" d="M113,-143.8314C113,-136.131 113,-126.9743 113,-118.4166"/>
<polygon fill="#000000" stroke="#000000" points="116.5001,-118.4132 113,-108.4133 109.5001,-118.4133 116.5001,-118.4132"/>
<g id="a_edge3&#45;headlabel"><a xlink:href="dir_000428_000126.html" target="_top" xlink:title="6">
<text text-anchor="middle" x="119.3393" y="-119.5079" font-family="Helvetica,sans-Serif" font-size="10.00" fill="#000000">6</text>
</a>
</g>
</g>
<!-- dir_2171f7ec022c5423887b07c69b2f5b48 -->
<g id="node5" class="node">
<title>dir_2171f7ec022c5423887b07c69b2f5b48</title>
<g id="a_node5"><a xlink:href="dir_2171f7ec022c5423887b07c69b2f5b48.html" target="_top" xlink:title="DataFormats">
<polygon fill="none" stroke="#ff0000" points="141,-36 61,-36 61,0 141,0 141,-36"/>
<text text-anchor="middle" x="101" y="-15.5" font-family="Helvetica,sans-Serif" font-size="10.00" fill="#000000">DataFormats</text>
</a>
</g>
</g>
<!-- dir_ea0fd6262befb6a47c036a9bedd70371&#45;&gt;dir_2171f7ec022c5423887b07c69b2f5b48 -->
<g id="edge4" class="edge">
<title>dir_ea0fd6262befb6a47c036a9bedd70371&#45;&gt;dir_2171f7ec022c5423887b07c69b2f5b48</title>
<path fill="none" stroke="#000000" d="M128.9905,-143.9169C136.6538,-134.0371 145.0166,-121.1563 149,-108 153.6365,-92.6865 154.6861,-86.9555 149,-72 144.9728,-61.4076 137.81,-51.5662 130.2263,-43.2649"/>
<polygon fill="#000000" stroke="#000000" points="132.7138,-40.8025 123.2213,-36.0968 127.7074,-45.695 132.7138,-40.8025"/>
<g id="a_edge4&#45;headlabel"><a xlink:href="dir_000428_000060.html" target="_top" xlink:title="5">
<text text-anchor="middle" x="137.2567" y="-38.8889" font-family="Helvetica,sans-Serif" font-size="10.00" fill="#000000">5</text>
</a>
</g>
</g>
<!-- dir_7559d374f7e4089a12282edb4b89411f&#45;&gt;dir_2171f7ec022c5423887b07c69b2f5b48 -->
<g id="edge1" class="edge">
<title>dir_7559d374f7e4089a12282edb4b89411f&#45;&gt;dir_2171f7ec022c5423887b07c69b2f5b48</title>
<path fill="none" stroke="#000000" d="M50.9069,-71.8314C58.7813,-63.3694 68.292,-53.1489 76.9013,-43.8971"/>
<polygon fill="#000000" stroke="#000000" points="79.6153,-46.1183 83.8654,-36.4133 74.4908,-41.3497 79.6153,-46.1183"/>
<g id="a_edge1&#45;headlabel"><a xlink:href="dir_000521_000060.html" target="_top" xlink:title="2">
<text text-anchor="middle" x="79.2451" y="-48.184" font-family="Helvetica,sans-Serif" font-size="10.00" fill="#000000">2</text>
</a>
</g>
</g>
</g>
</svg>
