<?xml version="1.0" encoding="UTF-8" standalone="no"?>
<!DOCTYPE svg PUBLIC "-//W3C//DTD SVG 1.1//EN"
 "http://www.w3.org/Graphics/SVG/1.1/DTD/svg11.dtd">
<!-- Generated by graphviz version 2.40.1 (20161225.0304)
 -->
<!-- Title: /home/travis/build/AliceO2Group/AliceO2/Detectors/GlobalTrackingWorkflow/tofworkflow/src Pages: 1 -->
<!--zoomable 583 -->
<svg id="main" version="1.1" xmlns="http://www.w3.org/2000/svg" xmlns:xlink="http://www.w3.org/1999/xlink" xml:space="preserve" onload="init(evt)">
<style type="text/css"><![CDATA[
.edge:hover path { stroke: red; }
.edge:hover polygon { stroke: red; fill: red; }
]]></style>
<script type="text/javascript"><![CDATA[
var edges = document.getElementsByTagName('g');
if (edges && edges.length) {
  for (var i=0;i<edges.length;i++) {
    if (edges[i].id.substr(0,4)=='edge') {
      edges[i].setAttribute('class','edge');
    }
  }
}
]]></script>
        <defs>
                <circle id="rim" cx="0" cy="0" r="7"/>
                <circle id="rim2" cx="0" cy="0" r="3.5"/>
                <g id="zoomPlus">
                        <use xlink:href="#rim" fill="#404040">
                                <set attributeName="fill" to="#808080" begin="zoomplus.mouseover" end="zoomplus.mouseout"/>
                        </use>
                        <path d="M-4,0h8M0,-4v8" fill="none" stroke="white" stroke-width="1.5" pointer-events="none"/>
                </g>
                <g id="zoomMin">
                        <use xlink:href="#rim" fill="#404040">
                                <set attributeName="fill" to="#808080" begin="zoomminus.mouseover" end="zoomminus.mouseout"/>
                        </use>
                        <path d="M-4,0h8" fill="none" stroke="white" stroke-width="1.5" pointer-events="none"/>
                </g>
                <g id="dirArrow">
                        <path fill="none" stroke="white" stroke-width="1.5" d="M0,-3.0v7 M-2.5,-0.5L0,-3.0L2.5,-0.5"/>
                </g>
               <g id="resetDef">
                       <use xlink:href="#rim2" fill="#404040">
                               <set attributeName="fill" to="#808080" begin="reset.mouseover" end="reset.mouseout"/>
                       </use>
               </g>
        </defs>

<script type="text/javascript">
var viewWidth = 540;
var viewHeight = 583;
var sectionId = 'dynsection-0';
</script>
<script xlink:href="svgpan.js"/>
<svg id="graph" class="graph">
<g id="viewport">
<title>/home/travis/build/AliceO2Group/AliceO2/Detectors/GlobalTrackingWorkflow/tofworkflow/src</title>
<g id="clust1" class="cluster">
<title>clusterdir_57f28544222c2e6ef6ccc73f132144c0</title>
<g id="a_clust1"><a xlink:href="dir_57f28544222c2e6ef6ccc73f132144c0.html" target="_top" xlink:title="tofworkflow">
<polygon fill="#ddddee" stroke="#000000" points="271,-496 271,-567 345,-567 345,-496 271,-496"/>
<text text-anchor="middle" x="308" y="-555" font-family="Helvetica,sans-Serif" font-size="10.00" fill="#000000">tofworkflow</text>
</a>
</g>
</g>
<!-- dir_1f12aa5b71899e653444b1540988c8e0 -->
<g id="node1" class="node">
<title>dir_1f12aa5b71899e653444b1540988c8e0</title>
<g id="a_node1"><a xlink:href="dir_1f12aa5b71899e653444b1540988c8e0.html" target="_top" xlink:title="src">
<polygon fill="#eeeeff" stroke="#000000" points="335,-540 281,-540 281,-504 335,-504 335,-540"/>
<text text-anchor="middle" x="308" y="-519.5" font-family="Helvetica,sans-Serif" font-size="10.00" fill="#000000">src</text>
</a>
</g>
</g>
<!-- dir_abf14b5a84807c7615b6f574ef2c4a02 -->
<g id="node2" class="node">
<title>dir_abf14b5a84807c7615b6f574ef2c4a02</title>
<g id="a_node2"><a xlink:href="dir_abf14b5a84807c7615b6f574ef2c4a02.html" target="_top" xlink:title="include">
<polygon fill="none" stroke="#ff0000" points="390,-468 336,-468 336,-432 390,-432 390,-468"/>
<text text-anchor="middle" x="363" y="-447.5" font-family="Helvetica,sans-Serif" font-size="10.00" fill="#000000">include</text>
</a>
</g>
</g>
<!-- dir_1f12aa5b71899e653444b1540988c8e0&#45;&gt;dir_abf14b5a84807c7615b6f574ef2c4a02 -->
<g id="edge5" class="edge">
<title>dir_1f12aa5b71899e653444b1540988c8e0&#45;&gt;dir_abf14b5a84807c7615b6f574ef2c4a02</title>
<path fill="none" stroke="#000000" d="M321.8788,-503.8314C328.2136,-495.5386 335.8384,-485.557 342.7926,-476.4533"/>
<polygon fill="#000000" stroke="#000000" points="345.6452,-478.4847 348.9343,-468.4133 340.0825,-474.2353 345.6452,-478.4847"/>
<g id="a_edge5&#45;headlabel"><a xlink:href="dir_000411_000405.html" target="_top" xlink:title="1">
<text text-anchor="middle" x="345.7195" y="-480.5647" font-family="Helvetica,sans-Serif" font-size="10.00" fill="#000000">1</text>
</a>
</g>
</g>
<!-- dir_4ab6b4cc6a7edbff49100e9123df213f -->
<g id="node3" class="node">
<title>dir_4ab6b4cc6a7edbff49100e9123df213f</title>
<g id="a_node3"><a xlink:href="dir_4ab6b4cc6a7edbff49100e9123df213f.html" target="_top" xlink:title="Common">
<polygon fill="none" stroke="#ff0000" points="241.5,-252 180.5,-252 180.5,-216 241.5,-216 241.5,-252"/>
<text text-anchor="middle" x="211" y="-231.5" font-family="Helvetica,sans-Serif" font-size="10.00" fill="#000000">Common</text>
</a>
</g>
</g>
<!-- dir_1f12aa5b71899e653444b1540988c8e0&#45;&gt;dir_4ab6b4cc6a7edbff49100e9123df213f -->
<g id="edge6" class="edge">
<title>dir_1f12aa5b71899e653444b1540988c8e0&#45;&gt;dir_4ab6b4cc6a7edbff49100e9123df213f</title>
<path fill="none" stroke="#000000" d="M301.9322,-503.9843C285.499,-455.1929 240.0453,-320.2377 220.3271,-261.6927"/>
<polygon fill="#000000" stroke="#000000" points="223.5744,-260.3686 217.0655,-252.0089 216.9405,-262.603 223.5744,-260.3686"/>
<g id="a_edge6&#45;headlabel"><a xlink:href="dir_000411_000018.html" target="_top" xlink:title="1">
<text text-anchor="middle" x="227.4124" y="-260.369" font-family="Helvetica,sans-Serif" font-size="10.00" fill="#000000">1</text>
</a>
</g>
</g>
<!-- dir_37c90836491b695b472bf98d1be8336b -->
<g id="node4" class="node">
<title>dir_37c90836491b695b472bf98d1be8336b</title>
<g id="a_node4"><a xlink:href="dir_37c90836491b695b472bf98d1be8336b.html" target="_top" xlink:title="Base">
<polygon fill="none" stroke="#ff0000" points="154,-108 100,-108 100,-72 154,-72 154,-108"/>
<text text-anchor="middle" x="127" y="-87.5" font-family="Helvetica,sans-Serif" font-size="10.00" fill="#000000">Base</text>
</a>
</g>
</g>
<!-- dir_1f12aa5b71899e653444b1540988c8e0&#45;&gt;dir_37c90836491b695b472bf98d1be8336b -->
<g id="edge7" class="edge">
<title>dir_1f12aa5b71899e653444b1540988c8e0&#45;&gt;dir_37c90836491b695b472bf98d1be8336b</title>
<path fill="none" stroke="#000000" d="M280.937,-515.5259C205.7793,-496.7646 0,-439.7578 0,-378 0,-378 0,-378 0,-234 0,-178.6067 53.5143,-134.4509 91.0672,-110.2846"/>
<polygon fill="#000000" stroke="#000000" points="93.1249,-113.1261 99.7553,-104.8624 89.4188,-107.1877 93.1249,-113.1261"/>
<g id="a_edge7&#45;headlabel"><a xlink:href="dir_000411_000254.html" target="_top" xlink:title="3">
<text text-anchor="middle" x="91.5787" y="-114.9379" font-family="Helvetica,sans-Serif" font-size="10.00" fill="#000000">3</text>
</a>
</g>
</g>
<!-- dir_8ba487e25de5ee77e05e9dce7582cb98 -->
<g id="node5" class="node">
<title>dir_8ba487e25de5ee77e05e9dce7582cb98</title>
<g id="a_node5"><a xlink:href="dir_8ba487e25de5ee77e05e9dce7582cb98.html" target="_top" xlink:title="Algorithm">
<polygon fill="none" stroke="#ff0000" points="338.5,-36 273.5,-36 273.5,0 338.5,0 338.5,-36"/>
<text text-anchor="middle" x="306" y="-15.5" font-family="Helvetica,sans-Serif" font-size="10.00" fill="#000000">Algorithm</text>
</a>
</g>
</g>
<!-- dir_1f12aa5b71899e653444b1540988c8e0&#45;&gt;dir_8ba487e25de5ee77e05e9dce7582cb98 -->
<g id="edge8" class="edge">
<title>dir_1f12aa5b71899e653444b1540988c8e0&#45;&gt;dir_8ba487e25de5ee77e05e9dce7582cb98</title>
<path fill="none" stroke="#000000" d="M335.0196,-517.7003C394.5968,-506.5222 532,-470.694 532,-378 532,-378 532,-378 532,-162 532,-76.1062 414.456,-39.2075 348.9097,-25.3089"/>
<polygon fill="#000000" stroke="#000000" points="349.3584,-21.8288 338.8623,-23.2718 347.9674,-28.6892 349.3584,-21.8288"/>
<g id="a_edge8&#45;headlabel"><a xlink:href="dir_000411_000000.html" target="_top" xlink:title="1">
<text text-anchor="middle" x="353.4455" y="-17.2603" font-family="Helvetica,sans-Serif" font-size="10.00" fill="#000000">1</text>
</a>
</g>
</g>
<!-- dir_577c839d346a264df4e9e588ca2a45dd -->
<g id="node6" class="node">
<title>dir_577c839d346a264df4e9e588ca2a45dd</title>
<g id="a_node6"><a xlink:href="dir_577c839d346a264df4e9e588ca2a45dd.html" target="_top" xlink:title="TOF">
<polygon fill="none" stroke="#ff0000" points="157,-324 103,-324 103,-288 157,-288 157,-324"/>
<text text-anchor="middle" x="130" y="-303.5" font-family="Helvetica,sans-Serif" font-size="10.00" fill="#000000">TOF</text>
</a>
</g>
</g>
<!-- dir_1f12aa5b71899e653444b1540988c8e0&#45;&gt;dir_577c839d346a264df4e9e588ca2a45dd -->
<g id="edge9" class="edge">
<title>dir_1f12aa5b71899e653444b1540988c8e0&#45;&gt;dir_577c839d346a264df4e9e588ca2a45dd</title>
<path fill="none" stroke="#000000" d="M280.7637,-510.7899C241.5619,-493.0066 170.5898,-454.2655 140,-396 130.0426,-377.0337 127.852,-352.7605 127.9812,-334.2028"/>
<polygon fill="#000000" stroke="#000000" points="131.4852,-334.1198 128.2842,-324.0201 124.4883,-333.9115 131.4852,-334.1198"/>
<g id="a_edge9&#45;headlabel"><a xlink:href="dir_000411_000125.html" target="_top" xlink:title="4">
<text text-anchor="middle" x="134.2164" y="-335.2972" font-family="Helvetica,sans-Serif" font-size="10.00" fill="#000000">4</text>
</a>
</g>
</g>
<!-- dir_18e0e8b4b629c3c13e7ad1457bcd5f89 -->
<g id="node7" class="node">
<title>dir_18e0e8b4b629c3c13e7ad1457bcd5f89</title>
<g id="a_node7"><a xlink:href="dir_18e0e8b4b629c3c13e7ad1457bcd5f89.html" target="_top" xlink:title="GlobalTracking">
<polygon fill="none" stroke="#ff0000" points="238.5,-396 149.5,-396 149.5,-360 238.5,-360 238.5,-396"/>
<text text-anchor="middle" x="194" y="-375.5" font-family="Helvetica,sans-Serif" font-size="10.00" fill="#000000">GlobalTracking</text>
</a>
</g>
</g>
<!-- dir_1f12aa5b71899e653444b1540988c8e0&#45;&gt;dir_18e0e8b4b629c3c13e7ad1457bcd5f89 -->
<g id="edge10" class="edge">
<title>dir_1f12aa5b71899e653444b1540988c8e0&#45;&gt;dir_18e0e8b4b629c3c13e7ad1457bcd5f89</title>
<path fill="none" stroke="#000000" d="M287.6095,-503.9638C276.7622,-493.8948 263.5291,-480.8246 253,-468 236.5702,-447.9883 220.6383,-423.2678 209.4803,-404.8014"/>
<polygon fill="#000000" stroke="#000000" points="212.3795,-402.8294 204.2542,-396.0301 206.366,-406.4124 212.3795,-402.8294"/>
<g id="a_edge10&#45;headlabel"><a xlink:href="dir_000411_000400.html" target="_top" xlink:title="1">
<text text-anchor="middle" x="216.6585" y="-401.9642" font-family="Helvetica,sans-Serif" font-size="10.00" fill="#000000">1</text>
</a>
</g>
</g>
<!-- dir_bcbb2cf9a3d3d83e5515c82071a07177 -->
<g id="node8" class="node">
<title>dir_bcbb2cf9a3d3d83e5515c82071a07177</title>
<g id="a_node8"><a xlink:href="dir_bcbb2cf9a3d3d83e5515c82071a07177.html" target="_top" xlink:title="Framework">
<polygon fill="none" stroke="#ff0000" points="378.5,-108 307.5,-108 307.5,-72 378.5,-72 378.5,-108"/>
<text text-anchor="middle" x="343" y="-87.5" font-family="Helvetica,sans-Serif" font-size="10.00" fill="#000000">Framework</text>
</a>
</g>
</g>
<!-- dir_1f12aa5b71899e653444b1540988c8e0&#45;&gt;dir_bcbb2cf9a3d3d83e5515c82071a07177 -->
<g id="edge11" class="edge">
<title>dir_1f12aa5b71899e653444b1540988c8e0&#45;&gt;dir_bcbb2cf9a3d3d83e5515c82071a07177</title>
<path fill="none" stroke="#000000" d="M335.046,-514.8135C386.6327,-499.2868 494,-457.4301 494,-378 494,-378 494,-378 494,-234 494,-174.8162 432.498,-132.5236 387.9951,-109.6677"/>
<polygon fill="#000000" stroke="#000000" points="389.2972,-106.4064 378.7849,-105.0865 386.1796,-112.6738 389.2972,-106.4064"/>
<g id="a_edge11&#45;headlabel"><a xlink:href="dir_000411_000036.html" target="_top" xlink:title="13">
<text text-anchor="middle" x="393.7801" y="-102.9651" font-family="Helvetica,sans-Serif" font-size="10.00" fill="#000000">13</text>
</a>
</g>
</g>
<!-- dir_2171f7ec022c5423887b07c69b2f5b48 -->
<g id="node9" class="node">
<title>dir_2171f7ec022c5423887b07c69b2f5b48</title>
<g id="a_node9"><a xlink:href="dir_2171f7ec022c5423887b07c69b2f5b48.html" target="_top" xlink:title="DataFormats">
<polygon fill="none" stroke="#ff0000" points="310,-180 230,-180 230,-144 310,-144 310,-180"/>
<text text-anchor="middle" x="270" y="-159.5" font-family="Helvetica,sans-Serif" font-size="10.00" fill="#000000">DataFormats</text>
</a>
</g>
</g>
<!-- dir_1f12aa5b71899e653444b1540988c8e0&#45;&gt;dir_2171f7ec022c5423887b07c69b2f5b48 -->
<g id="edge12" class="edge">
<title>dir_1f12aa5b71899e653444b1540988c8e0&#45;&gt;dir_2171f7ec022c5423887b07c69b2f5b48</title>
<path fill="none" stroke="#000000" d="M308,-503.8146C308,-476.4983 308,-423.25 308,-378 308,-378 308,-378 308,-306 308,-264.3681 292.9672,-218.14 281.8119,-189.567"/>
<polygon fill="#000000" stroke="#000000" points="285.0368,-188.2055 278.0588,-180.2332 278.5422,-190.817 285.0368,-188.2055"/>
<g id="a_edge12&#45;headlabel"><a xlink:href="dir_000411_000060.html" target="_top" xlink:title="16">
<text text-anchor="middle" x="289.0121" y="-187.9814" font-family="Helvetica,sans-Serif" font-size="10.00" fill="#000000">16</text>
</a>
</g>
</g>
<!-- dir_8feb20fbc7831f8f200feef6e6d9e0a3 -->
<g id="node10" class="node">
<title>dir_8feb20fbc7831f8f200feef6e6d9e0a3</title>
<g id="a_node10"><a xlink:href="dir_8feb20fbc7831f8f200feef6e6d9e0a3.html" target="_top" xlink:title="include">
<polygon fill="none" stroke="#ff0000" points="466,-252 412,-252 412,-216 466,-216 466,-252"/>
<text text-anchor="middle" x="439" y="-231.5" font-family="Helvetica,sans-Serif" font-size="10.00" fill="#000000">include</text>
</a>
</g>
</g>
<!-- dir_1f12aa5b71899e653444b1540988c8e0&#45;&gt;dir_8feb20fbc7831f8f200feef6e6d9e0a3 -->
<g id="edge13" class="edge">
<title>dir_1f12aa5b71899e653444b1540988c8e0&#45;&gt;dir_8feb20fbc7831f8f200feef6e6d9e0a3</title>
<path fill="none" stroke="#000000" d="M335.123,-513.0706C355.9669,-504.7556 383.7012,-490.2536 399,-468 442.5391,-404.6683 443.8726,-309.4421 441.3856,-262.3896"/>
<polygon fill="#000000" stroke="#000000" points="444.8725,-262.07 440.753,-252.3089 437.8863,-262.5085 444.8725,-262.07"/>
<g id="a_edge13&#45;headlabel"><a xlink:href="dir_000411_000409.html" target="_top" xlink:title="6">
<text text-anchor="middle" x="447.9313" y="-262.9798" font-family="Helvetica,sans-Serif" font-size="10.00" fill="#000000">6</text>
</a>
</g>
</g>
<!-- dir_abf14b5a84807c7615b6f574ef2c4a02&#45;&gt;dir_18e0e8b4b629c3c13e7ad1457bcd5f89 -->
<g id="edge1" class="edge">
<title>dir_abf14b5a84807c7615b6f574ef2c4a02&#45;&gt;dir_18e0e8b4b629c3c13e7ad1457bcd5f89</title>
<path fill="none" stroke="#000000" d="M335.8472,-438.432C311.5995,-428.1016 275.423,-412.6891 245.674,-400.0149"/>
<polygon fill="#000000" stroke="#000000" points="246.836,-396.7057 236.2643,-396.0061 244.0924,-403.1456 246.836,-396.7057"/>
<g id="a_edge1&#45;headlabel"><a xlink:href="dir_000405_000400.html" target="_top" xlink:title="1">
<text text-anchor="middle" x="251.2559" y="-393.0024" font-family="Helvetica,sans-Serif" font-size="10.00" fill="#000000">1</text>
</a>
</g>
</g>
<!-- dir_abf14b5a84807c7615b6f574ef2c4a02&#45;&gt;dir_bcbb2cf9a3d3d83e5515c82071a07177 -->
<g id="edge2" class="edge">
<title>dir_abf14b5a84807c7615b6f574ef2c4a02&#45;&gt;dir_bcbb2cf9a3d3d83e5515c82071a07177</title>
<path fill="none" stroke="#000000" d="M367.3512,-431.9379C373.5022,-404.7787 384,-351.7286 384,-306 384,-306 384,-306 384,-234 384,-192.1463 367.7804,-145.9754 355.7444,-117.4754"/>
<polygon fill="#000000" stroke="#000000" points="358.8939,-115.9412 351.695,-108.1676 352.475,-118.7337 358.8939,-115.9412"/>
<g id="a_edge2&#45;headlabel"><a xlink:href="dir_000405_000036.html" target="_top" xlink:title="7">
<text text-anchor="middle" x="362.9314" y="-115.6047" font-family="Helvetica,sans-Serif" font-size="10.00" fill="#000000">7</text>
</a>
</g>
</g>
<!-- dir_abf14b5a84807c7615b6f574ef2c4a02&#45;&gt;dir_2171f7ec022c5423887b07c69b2f5b48 -->
<g id="edge3" class="edge">
<title>dir_abf14b5a84807c7615b6f574ef2c4a02&#45;&gt;dir_2171f7ec022c5423887b07c69b2f5b48</title>
<path fill="none" stroke="#000000" d="M363.3354,-431.8646C363.3681,-390.9977 359.357,-289.5437 322,-216 316.6206,-205.4097 308.4677,-195.5072 300.2026,-187.148"/>
<polygon fill="#000000" stroke="#000000" points="302.618,-184.6151 292.9774,-180.2209 297.7736,-189.668 302.618,-184.6151"/>
<g id="a_edge3&#45;headlabel"><a xlink:href="dir_000405_000060.html" target="_top" xlink:title="3">
<text text-anchor="middle" x="307.1777" y="-182.5532" font-family="Helvetica,sans-Serif" font-size="10.00" fill="#000000">3</text>
</a>
</g>
</g>
<!-- dir_4ab6b4cc6a7edbff49100e9123df213f&#45;&gt;dir_2171f7ec022c5423887b07c69b2f5b48 -->
<g id="edge4" class="edge">
<title>dir_4ab6b4cc6a7edbff49100e9123df213f&#45;&gt;dir_2171f7ec022c5423887b07c69b2f5b48</title>
<path fill="none" stroke="#000000" d="M219.9358,-215.8314C226.0453,-207.3694 234.2352,-197.1489 242.2708,-187.8971"/>
<polygon fill="#000000" stroke="#000000" points="244.8987,-190.209 248.9353,-180.4133 239.671,-185.5536 244.8987,-190.209"/>
<g id="a_edge4&#45;headlabel"><a xlink:href="dir_000018_000060.html" target="_top" xlink:title="2">
<text text-anchor="middle" x="244.6285" y="-192.2817" font-family="Helvetica,sans-Serif" font-size="10.00" fill="#000000">2</text>
</a>
</g>
</g>
<!-- dir_37c90836491b695b472bf98d1be8336b&#45;&gt;dir_4ab6b4cc6a7edbff49100e9123df213f -->
<g id="edge14" class="edge">
<title>dir_37c90836491b695b472bf98d1be8336b&#45;&gt;dir_4ab6b4cc6a7edbff49100e9123df213f</title>
<path fill="none" stroke="#000000" d="M137.5523,-108.0896C152.0857,-133.0041 178.3755,-178.0722 195.2428,-206.9877"/>
<polygon fill="#000000" stroke="#000000" points="192.2994,-208.8881 200.3613,-215.7623 198.3458,-205.3609 192.2994,-208.8881"/>
<g id="a_edge14&#45;headlabel"><a xlink:href="dir_000254_000018.html" target="_top" xlink:title="16">
<text text-anchor="middle" x="188.0357" y="-204.7137" font-family="Helvetica,sans-Serif" font-size="10.00" fill="#000000">16</text>
</a>
</g>
</g>
<!-- dir_37c90836491b695b472bf98d1be8336b&#45;&gt;dir_2171f7ec022c5423887b07c69b2f5b48 -->
<g id="edge15" class="edge">
<title>dir_37c90836491b695b472bf98d1be8336b&#45;&gt;dir_2171f7ec022c5423887b07c69b2f5b48</title>
<path fill="none" stroke="#000000" d="M154.2893,-101.1957C176.036,-111.2939 206.5838,-126.4595 230.8892,-139.1183"/>
<polygon fill="#000000" stroke="#000000" points="229.3865,-142.2823 239.8675,-143.8314 232.64,-136.0844 229.3865,-142.2823"/>
<g id="a_edge15&#45;headlabel"><a xlink:href="dir_000254_000060.html" target="_top" xlink:title="7">
<text text-anchor="middle" x="224.8841" y="-140.6256" font-family="Helvetica,sans-Serif" font-size="10.00" fill="#000000">7</text>
</a>
</g>
</g>
<!-- dir_8ba487e25de5ee77e05e9dce7582cb98&#45;&gt;dir_2171f7ec022c5423887b07c69b2f5b48 -->
<g id="edge16" class="edge">
<title>dir_8ba487e25de5ee77e05e9dce7582cb98&#45;&gt;dir_2171f7ec022c5423887b07c69b2f5b48</title>
<path fill="none" stroke="#000000" d="M306.1359,-36.0896C302.4516,-60.7884 291.5919,-105.2933 282.3999,-134.2331"/>
<polygon fill="#000000" stroke="#000000" points="279.0654,-133.1688 279.2326,-143.7623 285.7081,-135.3767 279.0654,-133.1688"/>
<g id="a_edge16&#45;headlabel"><a xlink:href="dir_000000_000060.html" target="_top" xlink:title="8">
<text text-anchor="middle" x="277.5048" y="-126.3621" font-family="Helvetica,sans-Serif" font-size="10.00" fill="#000000">8</text>
</a>
</g>
</g>
<!-- dir_577c839d346a264df4e9e588ca2a45dd&#45;&gt;dir_4ab6b4cc6a7edbff49100e9123df213f -->
<g id="edge17" class="edge">
<title>dir_577c839d346a264df4e9e588ca2a45dd&#45;&gt;dir_4ab6b4cc6a7edbff49100e9123df213f</title>
<path fill="none" stroke="#000000" d="M150.4397,-287.8314C160.3205,-279.0485 172.3324,-268.3712 183.045,-258.8489"/>
<polygon fill="#000000" stroke="#000000" points="185.418,-261.4224 190.5668,-252.1628 180.7674,-256.1906 185.418,-261.4224"/>
<g id="a_edge17&#45;headlabel"><a xlink:href="dir_000125_000018.html" target="_top" xlink:title="8">
<text text-anchor="middle" x="184.6177" y="-263.4326" font-family="Helvetica,sans-Serif" font-size="10.00" fill="#000000">8</text>
</a>
</g>
</g>
<!-- dir_577c839d346a264df4e9e588ca2a45dd&#45;&gt;dir_37c90836491b695b472bf98d1be8336b -->
<g id="edge18" class="edge">
<title>dir_577c839d346a264df4e9e588ca2a45dd&#45;&gt;dir_37c90836491b695b472bf98d1be8336b</title>
<path fill="none" stroke="#000000" d="M116.6438,-287.5137C110.2492,-277.5235 103.282,-264.6657 100,-252 87.9596,-205.5346 88.9719,-190.716 100,-144 102.1696,-134.8094 106.1562,-125.3995 110.4121,-117.0631"/>
<polygon fill="#000000" stroke="#000000" points="113.5427,-118.6324 115.2492,-108.1759 107.3944,-115.286 113.5427,-118.6324"/>
<g id="a_edge18&#45;headlabel"><a xlink:href="dir_000125_000254.html" target="_top" xlink:title="3">
<text text-anchor="middle" x="114.3182" y="-120.647" font-family="Helvetica,sans-Serif" font-size="10.00" fill="#000000">3</text>
</a>
</g>
</g>
<!-- dir_577c839d346a264df4e9e588ca2a45dd&#45;&gt;dir_bcbb2cf9a3d3d83e5515c82071a07177 -->
<g id="edge19" class="edge">
<title>dir_577c839d346a264df4e9e588ca2a45dd&#45;&gt;dir_bcbb2cf9a3d3d83e5515c82071a07177</title>
<path fill="none" stroke="#000000" d="M129.7082,-287.6722C130.1444,-268.6792 132.9505,-238.6568 145,-216 176.5914,-156.5983 249.8059,-121.405 297.8049,-103.9042"/>
<polygon fill="#000000" stroke="#000000" points="299.0797,-107.166 307.3444,-100.537 296.7496,-100.5651 299.0797,-107.166"/>
<g id="a_edge19&#45;headlabel"><a xlink:href="dir_000125_000036.html" target="_top" xlink:title="18">
<text text-anchor="middle" x="296.635" y="-108.5398" font-family="Helvetica,sans-Serif" font-size="10.00" fill="#000000">18</text>
</a>
</g>
</g>
<!-- dir_577c839d346a264df4e9e588ca2a45dd&#45;&gt;dir_2171f7ec022c5423887b07c69b2f5b48 -->
<g id="edge20" class="edge">
<title>dir_577c839d346a264df4e9e588ca2a45dd&#45;&gt;dir_2171f7ec022c5423887b07c69b2f5b48</title>
<path fill="none" stroke="#000000" d="M134.5428,-287.8301C140.2468,-268.1324 151.7001,-236.7395 171,-216 184.6166,-201.3676 203.1179,-189.8177 220.4422,-181.2189"/>
<polygon fill="#000000" stroke="#000000" points="222.3623,-184.1827 229.9072,-176.7446 219.3706,-177.8542 222.3623,-184.1827"/>
<g id="a_edge20&#45;headlabel"><a xlink:href="dir_000125_000060.html" target="_top" xlink:title="33">
<text text-anchor="middle" x="220.326" y="-185.7858" font-family="Helvetica,sans-Serif" font-size="10.00" fill="#000000">33</text>
</a>
</g>
</g>
<!-- dir_18e0e8b4b629c3c13e7ad1457bcd5f89&#45;&gt;dir_4ab6b4cc6a7edbff49100e9123df213f -->
<g id="edge21" class="edge">
<title>dir_18e0e8b4b629c3c13e7ad1457bcd5f89&#45;&gt;dir_4ab6b4cc6a7edbff49100e9123df213f</title>
<path fill="none" stroke="#000000" d="M196.1531,-359.7623C199.0527,-335.201 204.2416,-291.2474 207.6526,-262.3541"/>
<polygon fill="#000000" stroke="#000000" points="211.1678,-262.431 208.8644,-252.0896 204.2161,-261.6103 211.1678,-262.431"/>
<g id="a_edge21&#45;headlabel"><a xlink:href="dir_000400_000018.html" target="_top" xlink:title="19">
<text text-anchor="middle" x="213.5661" y="-263.8337" font-family="Helvetica,sans-Serif" font-size="10.00" fill="#000000">19</text>
</a>
</g>
</g>
<!-- dir_18e0e8b4b629c3c13e7ad1457bcd5f89&#45;&gt;dir_37c90836491b695b472bf98d1be8336b -->
<g id="edge22" class="edge">
<title>dir_18e0e8b4b629c3c13e7ad1457bcd5f89&#45;&gt;dir_37c90836491b695b472bf98d1be8336b</title>
<path fill="none" stroke="#000000" d="M149.4059,-365.0083C129.033,-356.6818 106.6662,-343.6528 94,-324 81.7335,-304.9673 85.5964,-154.751 89,-144 92.0815,-134.2664 97.6183,-124.7695 103.5289,-116.5228"/>
<polygon fill="#000000" stroke="#000000" points="106.431,-118.49 109.7365,-108.4239 100.8752,-114.2316 106.431,-118.49"/>
<g id="a_edge22&#45;headlabel"><a xlink:href="dir_000400_000254.html" target="_top" xlink:title="4">
<text text-anchor="middle" x="106.4977" y="-120.5701" font-family="Helvetica,sans-Serif" font-size="10.00" fill="#000000">4</text>
</a>
</g>
</g>
<!-- dir_18e0e8b4b629c3c13e7ad1457bcd5f89&#45;&gt;dir_577c839d346a264df4e9e588ca2a45dd -->
<g id="edge23" class="edge">
<title>dir_18e0e8b4b629c3c13e7ad1457bcd5f89&#45;&gt;dir_577c839d346a264df4e9e588ca2a45dd</title>
<path fill="none" stroke="#000000" d="M177.8501,-359.8314C170.3283,-351.3694 161.2435,-341.1489 153.0196,-331.8971"/>
<polygon fill="#000000" stroke="#000000" points="155.627,-329.5621 146.3673,-324.4133 150.3951,-334.2127 155.627,-329.5621"/>
<g id="a_edge23&#45;headlabel"><a xlink:href="dir_000400_000125.html" target="_top" xlink:title="7">
<text text-anchor="middle" x="160.1372" y="-327.8624" font-family="Helvetica,sans-Serif" font-size="10.00" fill="#000000">7</text>
</a>
</g>
</g>
<!-- dir_18e0e8b4b629c3c13e7ad1457bcd5f89&#45;&gt;dir_2171f7ec022c5423887b07c69b2f5b48 -->
<g id="edge24" class="edge">
<title>dir_18e0e8b4b629c3c13e7ad1457bcd5f89&#45;&gt;dir_2171f7ec022c5423887b07c69b2f5b48</title>
<path fill="none" stroke="#000000" d="M203.542,-359.675C215.775,-335.5509 236.959,-291.5583 250,-252 256.7027,-231.6681 261.8609,-208.0146 265.2589,-190.0601"/>
<polygon fill="#000000" stroke="#000000" points="268.7033,-190.6814 267.0546,-180.2156 261.8169,-189.4252 268.7033,-190.6814"/>
<g id="a_edge24&#45;headlabel"><a xlink:href="dir_000400_000060.html" target="_top" xlink:title="36">
<text text-anchor="middle" x="270.8515" y="-192.2271" font-family="Helvetica,sans-Serif" font-size="10.00" fill="#000000">36</text>
</a>
</g>
</g>
<!-- dir_bcbb2cf9a3d3d83e5515c82071a07177&#45;&gt;dir_4ab6b4cc6a7edbff49100e9123df213f -->
<g id="edge25" class="edge">
<title>dir_bcbb2cf9a3d3d83e5515c82071a07177&#45;&gt;dir_4ab6b4cc6a7edbff49100e9123df213f</title>
<path fill="none" stroke="#000000" d="M342.4486,-108.1917C340.955,-127.9084 335.8578,-159.3178 319,-180 301.8483,-201.0427 274.4128,-214.6143 251.4868,-222.8889"/>
<polygon fill="#000000" stroke="#000000" points="250.324,-219.5873 241.9806,-226.1171 252.575,-226.2156 250.324,-219.5873"/>
<g id="a_edge25&#45;headlabel"><a xlink:href="dir_000036_000018.html" target="_top" xlink:title="8">
<text text-anchor="middle" x="252.8147" y="-213.2431" font-family="Helvetica,sans-Serif" font-size="10.00" fill="#000000">8</text>
</a>
</g>
</g>
<!-- dir_bcbb2cf9a3d3d83e5515c82071a07177&#45;&gt;dir_8ba487e25de5ee77e05e9dce7582cb98 -->
<g id="edge26" class="edge">
<title>dir_bcbb2cf9a3d3d83e5515c82071a07177&#45;&gt;dir_8ba487e25de5ee77e05e9dce7582cb98</title>
<path fill="none" stroke="#000000" d="M333.6633,-71.8314C329.5757,-63.8771 324.6896,-54.369 320.1691,-45.5723"/>
<polygon fill="#000000" stroke="#000000" points="323.1461,-43.7078 315.4624,-36.4133 316.9201,-46.9074 323.1461,-43.7078"/>
<g id="a_edge26&#45;headlabel"><a xlink:href="dir_000036_000000.html" target="_top" xlink:title="1">
<text text-anchor="middle" x="327.3144" y="-43.1073" font-family="Helvetica,sans-Serif" font-size="10.00" fill="#000000">1</text>
</a>
</g>
</g>
<!-- dir_bcbb2cf9a3d3d83e5515c82071a07177&#45;&gt;dir_2171f7ec022c5423887b07c69b2f5b48 -->
<g id="edge27" class="edge">
<title>dir_bcbb2cf9a3d3d83e5515c82071a07177&#45;&gt;dir_2171f7ec022c5423887b07c69b2f5b48</title>
<path fill="none" stroke="#000000" d="M330.307,-108.4133C322.3498,-117.0787 311.9,-127.5464 301.8919,-136.9223"/>
<polygon fill="#000000" stroke="#000000" points="299.3684,-134.4879 294.3734,-143.8314 304.1048,-139.6422 299.3684,-134.4879"/>
<g id="a_edge27&#45;headlabel"><a xlink:href="dir_000036_000060.html" target="_top" xlink:title="68">
<text text-anchor="middle" x="300.094" y="-127.4651" font-family="Helvetica,sans-Serif" font-size="10.00" fill="#000000">68</text>
</a>
</g>
</g>
<!-- dir_2171f7ec022c5423887b07c69b2f5b48&#45;&gt;dir_4ab6b4cc6a7edbff49100e9123df213f -->
<g id="edge28" class="edge">
<title>dir_2171f7ec022c5423887b07c69b2f5b48&#45;&gt;dir_4ab6b4cc6a7edbff49100e9123df213f</title>
<path fill="none" stroke="#000000" d="M260.8874,-180.4133C254.7996,-188.8239 246.6938,-198.9323 238.7384,-208.0923"/>
<polygon fill="#000000" stroke="#000000" points="235.8815,-206.0374 231.8406,-215.8314 241.1071,-210.695 235.8815,-206.0374"/>
<g id="a_edge28&#45;headlabel"><a xlink:href="dir_000060_000018.html" target="_top" xlink:title="29">
<text text-anchor="middle" x="236.1537" y="-198.9648" font-family="Helvetica,sans-Serif" font-size="10.00" fill="#000000">29</text>
</a>
</g>
</g>
<!-- dir_2171f7ec022c5423887b07c69b2f5b48&#45;&gt;dir_37c90836491b695b472bf98d1be8336b -->
<g id="edge29" class="edge">
<title>dir_2171f7ec022c5423887b07c69b2f5b48&#45;&gt;dir_37c90836491b695b472bf98d1be8336b</title>
<path fill="none" stroke="#000000" d="M229.8888,-144.7542C208.9197,-134.7247 183.5264,-122.0008 163.1645,-111.3435"/>
<polygon fill="#000000" stroke="#000000" points="164.6745,-108.1828 154.1971,-106.6094 161.4064,-114.3732 164.6745,-108.1828"/>
<g id="a_edge29&#45;headlabel"><a xlink:href="dir_000060_000254.html" target="_top" xlink:title="1">
<text text-anchor="middle" x="169.1788" y="-104.8501" font-family="Helvetica,sans-Serif" font-size="10.00" fill="#000000">1</text>
</a>
</g>
</g>
<!-- dir_2171f7ec022c5423887b07c69b2f5b48&#45;&gt;dir_8ba487e25de5ee77e05e9dce7582cb98 -->
<g id="edge30" class="edge">
<title>dir_2171f7ec022c5423887b07c69b2f5b48&#45;&gt;dir_8ba487e25de5ee77e05e9dce7582cb98</title>
<path fill="none" stroke="#000000" d="M269.8863,-143.7623C273.5992,-118.9846 284.4698,-74.4714 293.6551,-45.5939"/>
<polygon fill="#000000" stroke="#000000" points="296.9813,-46.6832 296.8193,-36.0896 290.3397,-44.472 296.9813,-46.6832"/>
<g id="a_edge30&#45;headlabel"><a xlink:href="dir_000060_000000.html" target="_top" xlink:title="1">
<text text-anchor="middle" x="298.5398" y="-48.4906" font-family="Helvetica,sans-Serif" font-size="10.00" fill="#000000">1</text>
</a>
</g>
</g>
<!-- dir_2171f7ec022c5423887b07c69b2f5b48&#45;&gt;dir_bcbb2cf9a3d3d83e5515c82071a07177 -->
<g id="edge31" class="edge">
<title>dir_2171f7ec022c5423887b07c69b2f5b48&#45;&gt;dir_bcbb2cf9a3d3d83e5515c82071a07177</title>
<path fill="none" stroke="#000000" d="M282.4686,-143.8314C290.4394,-135.1337 300.9694,-124.5783 311.056,-115.1265"/>
<polygon fill="#000000" stroke="#000000" points="313.6386,-117.5066 318.6331,-108.1628 308.9019,-112.3526 313.6386,-117.5066"/>
<g id="a_edge31&#45;headlabel"><a xlink:href="dir_000060_000036.html" target="_top" xlink:title="7">
<text text-anchor="middle" x="312.9132" y="-119.5294" font-family="Helvetica,sans-Serif" font-size="10.00" fill="#000000">7</text>
</a>
</g>
</g>
<!-- dir_8feb20fbc7831f8f200feef6e6d9e0a3&#45;&gt;dir_bcbb2cf9a3d3d83e5515c82071a07177 -->
<g id="edge32" class="edge">
<title>dir_8feb20fbc7831f8f200feef6e6d9e0a3&#45;&gt;dir_bcbb2cf9a3d3d83e5515c82071a07177</title>
<path fill="none" stroke="#000000" d="M432.9304,-215.7231C426.1375,-196.7716 413.9577,-166.7825 398,-144 390.7428,-133.639 381.3457,-123.5667 372.3786,-114.9827"/>
<polygon fill="#000000" stroke="#000000" points="374.7177,-112.3785 365.0039,-108.1484 369.9596,-117.5128 374.7177,-112.3785"/>
<g id="a_edge32&#45;headlabel"><a xlink:href="dir_000409_000036.html" target="_top" xlink:title="5">
<text text-anchor="middle" x="379.2841" y="-110.2392" font-family="Helvetica,sans-Serif" font-size="10.00" fill="#000000">5</text>
</a>
</g>
</g>
<!-- dir_8feb20fbc7831f8f200feef6e6d9e0a3&#45;&gt;dir_2171f7ec022c5423887b07c69b2f5b48 -->
<g id="edge33" class="edge">
<title>dir_8feb20fbc7831f8f200feef6e6d9e0a3&#45;&gt;dir_2171f7ec022c5423887b07c69b2f5b48</title>
<path fill="none" stroke="#000000" d="M411.8472,-222.432C387.0101,-211.8505 349.6574,-195.9369 319.5164,-183.0958"/>
<polygon fill="#000000" stroke="#000000" points="320.5805,-179.7447 310.0088,-179.0452 317.8369,-186.1847 320.5805,-179.7447"/>
<g id="a_edge33&#45;headlabel"><a xlink:href="dir_000409_000060.html" target="_top" xlink:title="1">
<text text-anchor="middle" x="325.0004" y="-176.0415" font-family="Helvetica,sans-Serif" font-size="10.00" fill="#000000">1</text>
</a>
</g>
</g>
</g>
</svg>
        <g id="navigator" transform="translate(0 0)" fill="#404254">
                <rect fill="#f2f5e9" fill-opacity="0.5" stroke="#606060" stroke-width=".5" x="0" y="0" width="60" height="60"/>
                <use id="zoomplus" xlink:href="#zoomPlus" x="17" y="9" onmousedown="handleZoom(evt,'in')"/>
                <use id="zoomminus" xlink:href="#zoomMin" x="42" y="9" onmousedown="handleZoom(evt,'out')"/>
                <use id="reset" xlink:href="#resetDef" x="30" y="36" onmousedown="handleReset()"/>
                <g id="arrowUp" xlink:href="#dirArrow" transform="translate(30 24)" onmousedown="handlePan(0,-1)">
                  <use xlink:href="#rim" fill="#404040">
                        <set attributeName="fill" to="#808080" begin="arrowUp.mouseover" end="arrowUp.mouseout"/>
                  </use>
                  <path fill="none" stroke="white" stroke-width="1.5" d="M0,-3.0v7 M-2.5,-0.5L0,-3.0L2.5,-0.5"/>
                </g>
                <g id="arrowRight" xlink:href="#dirArrow" transform="rotate(90) translate(36 -43)" onmousedown="handlePan(1,0)">
                  <use xlink:href="#rim" fill="#404040">
                        <set attributeName="fill" to="#808080" begin="arrowRight.mouseover" end="arrowRight.mouseout"/>
                  </use>
                  <path fill="none" stroke="white" stroke-width="1.5" d="M0,-3.0v7 M-2.5,-0.5L0,-3.0L2.5,-0.5"/>
                </g>
                <g id="arrowDown" xlink:href="#dirArrow" transform="rotate(180) translate(-30 -48)" onmousedown="handlePan(0,1)">
                  <use xlink:href="#rim" fill="#404040">
                        <set attributeName="fill" to="#808080" begin="arrowDown.mouseover" end="arrowDown.mouseout"/>
                  </use>
                  <path fill="none" stroke="white" stroke-width="1.5" d="M0,-3.0v7 M-2.5,-0.5L0,-3.0L2.5,-0.5"/>
                </g>
                <g id="arrowLeft" xlink:href="#dirArrow" transform="rotate(270) translate(-36 17)" onmousedown="handlePan(-1,0)">
                  <use xlink:href="#rim" fill="#404040">
                        <set attributeName="fill" to="#808080" begin="arrowLeft.mouseover" end="arrowLeft.mouseout"/>
                  </use>
                  <path fill="none" stroke="white" stroke-width="1.5" d="M0,-3.0v7 M-2.5,-0.5L0,-3.0L2.5,-0.5"/>
                </g>
        </g>
        <svg viewBox="0 0 15 15" width="100%" height="30px" preserveAspectRatio="xMaxYMin meet">
         <g id="arrow_out" transform="scale(0.3 0.3)">
          <a xlink:href="dir_1f12aa5b71899e653444b1540988c8e0_dep_org.svg" target="_base">
           <rect id="button" ry="5" rx="5" y="6" x="6" height="38" width="38"
                fill="#f2f5e9" fill-opacity="0.5" stroke="#606060" stroke-width="1.0"/>
           <path id="arrow"
             d="M 11.500037,31.436501 C 11.940474,20.09759 22.043105,11.32322 32.158766,21.979434 L 37.068811,17.246167 C 37.068811,17.246167 37.088388,32 37.088388,32 L 22.160133,31.978069 C 22.160133,31.978069 26.997745,27.140456 26.997745,27.140456 C 18.528582,18.264221 13.291696,25.230495 11.500037,31.436501 z"
             style="fill:#404040;"/>
          </a>
         </g>
        </svg>
</svg>
