<?xml version="1.0" encoding="UTF-8" standalone="no"?>
<!DOCTYPE svg PUBLIC "-//W3C//DTD SVG 1.1//EN"
 "http://www.w3.org/Graphics/SVG/1.1/DTD/svg11.dtd">
<!-- Generated by graphviz version 2.40.1 (20161225.0304)
 -->
<!-- Title: /home/travis/build/AliceO2Group/AliceO2/Detectors/TOF/reconstruction/src Pages: 1 -->
<svg width="135pt" height="367pt"
 viewBox="0.00 0.00 135.27 367.00" xmlns="http://www.w3.org/2000/svg" xmlns:xlink="http://www.w3.org/1999/xlink">
<g id="graph0" class="graph" transform="scale(1 1) rotate(0) translate(4 363)">
<title>/home/travis/build/AliceO2Group/AliceO2/Detectors/TOF/reconstruction/src</title>
<g id="clust1" class="cluster">
<title>clusterdir_d1fec883a65fe865f3e91884d818def8</title>
<g id="a_clust1"><a xlink:href="dir_d1fec883a65fe865f3e91884d818def8.html" target="_top" xlink:title="reconstruction">
<polygon fill="#ddddee" stroke="#000000" points="8,-280 8,-351 94,-351 94,-280 8,-280"/>
<text text-anchor="middle" x="51" y="-339" font-family="Helvetica,sans-Serif" font-size="10.00" fill="#000000">reconstruction</text>
</a>
</g>
</g>
<!-- dir_7a8ff9736435892df123de8c32178115 -->
<g id="node1" class="node">
<title>dir_7a8ff9736435892df123de8c32178115</title>
<g id="a_node1"><a xlink:href="dir_7a8ff9736435892df123de8c32178115.html" target="_top" xlink:title="src">
<polygon fill="#eeeeff" stroke="#000000" points="78,-324 24,-324 24,-288 78,-288 78,-324"/>
<text text-anchor="middle" x="51" y="-303.5" font-family="Helvetica,sans-Serif" font-size="10.00" fill="#000000">src</text>
</a>
</g>
</g>
<!-- dir_4ab6b4cc6a7edbff49100e9123df213f -->
<g id="node2" class="node">
<title>dir_4ab6b4cc6a7edbff49100e9123df213f</title>
<g id="a_node2"><a xlink:href="dir_4ab6b4cc6a7edbff49100e9123df213f.html" target="_top" xlink:title="Common">
<polygon fill="none" stroke="#ff0000" points="67.5,-108 6.5,-108 6.5,-72 67.5,-72 67.5,-108"/>
<text text-anchor="middle" x="37" y="-87.5" font-family="Helvetica,sans-Serif" font-size="10.00" fill="#000000">Common</text>
</a>
</g>
</g>
<!-- dir_7a8ff9736435892df123de8c32178115&#45;&gt;dir_4ab6b4cc6a7edbff49100e9123df213f -->
<g id="edge5" class="edge">
<title>dir_7a8ff9736435892df123de8c32178115&#45;&gt;dir_4ab6b4cc6a7edbff49100e9123df213f</title>
<path fill="none" stroke="#000000" d="M42.0364,-287.7804C30.7709,-263.7702 12.0557,-219.9007 5,-180 2.2139,-164.2444 .7712,-159.4311 5,-144 7.5805,-134.5837 12.2742,-125.1443 17.2859,-116.8513"/>
<polygon fill="#000000" stroke="#000000" points="20.2851,-118.6585 22.7641,-108.3577 14.4026,-114.8644 20.2851,-118.6585"/>
<g id="a_edge5&#45;headlabel"><a xlink:href="dir_000434_000018.html" target="_top" xlink:title="4">
<text text-anchor="middle" x="20.7229" y="-120.7182" font-family="Helvetica,sans-Serif" font-size="10.00" fill="#000000">4</text>
</a>
</g>
</g>
<!-- dir_3dfda2b66c3c3704521dbfdd9d3caacf -->
<g id="node3" class="node">
<title>dir_3dfda2b66c3c3704521dbfdd9d3caacf</title>
<g id="a_node3"><a xlink:href="dir_3dfda2b66c3c3704521dbfdd9d3caacf.html" target="_top" xlink:title="include">
<polygon fill="none" stroke="#ff0000" points="106,-252 52,-252 52,-216 106,-216 106,-252"/>
<text text-anchor="middle" x="79" y="-231.5" font-family="Helvetica,sans-Serif" font-size="10.00" fill="#000000">include</text>
</a>
</g>
</g>
<!-- dir_7a8ff9736435892df123de8c32178115&#45;&gt;dir_3dfda2b66c3c3704521dbfdd9d3caacf -->
<g id="edge6" class="edge">
<title>dir_7a8ff9736435892df123de8c32178115&#45;&gt;dir_3dfda2b66c3c3704521dbfdd9d3caacf</title>
<path fill="none" stroke="#000000" d="M58.0656,-287.8314C61.126,-279.9617 64.7779,-270.5712 68.1682,-261.8533"/>
<polygon fill="#000000" stroke="#000000" points="71.4768,-263.0019 71.8393,-252.4133 64.9527,-260.4647 71.4768,-263.0019"/>
<g id="a_edge6&#45;headlabel"><a xlink:href="dir_000434_000427.html" target="_top" xlink:title="6">
<text text-anchor="middle" x="72.8202" y="-264.8812" font-family="Helvetica,sans-Serif" font-size="10.00" fill="#000000">6</text>
</a>
</g>
</g>
<!-- dir_0189f3ad6abecd72f822a0c3914f12b2 -->
<g id="node4" class="node">
<title>dir_0189f3ad6abecd72f822a0c3914f12b2</title>
<g id="a_node4"><a xlink:href="dir_0189f3ad6abecd72f822a0c3914f12b2.html" target="_top" xlink:title="base">
<polygon fill="none" stroke="#ff0000" points="68,-180 14,-180 14,-144 68,-144 68,-180"/>
<text text-anchor="middle" x="41" y="-159.5" font-family="Helvetica,sans-Serif" font-size="10.00" fill="#000000">base</text>
</a>
</g>
</g>
<!-- dir_7a8ff9736435892df123de8c32178115&#45;&gt;dir_0189f3ad6abecd72f822a0c3914f12b2 -->
<g id="edge7" class="edge">
<title>dir_7a8ff9736435892df123de8c32178115&#45;&gt;dir_0189f3ad6abecd72f822a0c3914f12b2</title>
<path fill="none" stroke="#000000" d="M47.6873,-287.5723C45.9634,-277.166 44.0096,-263.8987 43,-252 41.2601,-231.4949 40.7809,-208.2737 40.7259,-190.555"/>
<polygon fill="#000000" stroke="#000000" points="44.2261,-190.3117 40.7389,-180.3072 37.2261,-190.3027 44.2261,-190.3117"/>
<g id="a_edge7&#45;headlabel"><a xlink:href="dir_000434_000126.html" target="_top" xlink:title="1">
<text text-anchor="middle" x="47.0609" y="-191.4099" font-family="Helvetica,sans-Serif" font-size="10.00" fill="#000000">1</text>
</a>
</g>
</g>
<!-- dir_2171f7ec022c5423887b07c69b2f5b48 -->
<g id="node5" class="node">
<title>dir_2171f7ec022c5423887b07c69b2f5b48</title>
<g id="a_node5"><a xlink:href="dir_2171f7ec022c5423887b07c69b2f5b48.html" target="_top" xlink:title="DataFormats">
<polygon fill="none" stroke="#ff0000" points="106,-36 26,-36 26,0 106,0 106,-36"/>
<text text-anchor="middle" x="66" y="-15.5" font-family="Helvetica,sans-Serif" font-size="10.00" fill="#000000">DataFormats</text>
</a>
</g>
</g>
<!-- dir_7a8ff9736435892df123de8c32178115&#45;&gt;dir_2171f7ec022c5423887b07c69b2f5b48 -->
<g id="edge8" class="edge">
<title>dir_7a8ff9736435892df123de8c32178115&#45;&gt;dir_2171f7ec022c5423887b07c69b2f5b48</title>
<path fill="none" stroke="#000000" d="M78.1093,-290.9972C91.9042,-281.7409 107.3425,-268.4801 115,-252 147.5755,-181.8926 106.8137,-89.9361 82.1843,-45.0326"/>
<polygon fill="#000000" stroke="#000000" points="85.1615,-43.1865 77.2057,-36.1897 79.0618,-46.6206 85.1615,-43.1865"/>
<g id="a_edge8&#45;headlabel"><a xlink:href="dir_000434_000060.html" target="_top" xlink:title="5">
<text text-anchor="middle" x="89.3991" y="-42.4258" font-family="Helvetica,sans-Serif" font-size="10.00" fill="#000000">5</text>
</a>
</g>
</g>
<!-- dir_4ab6b4cc6a7edbff49100e9123df213f&#45;&gt;dir_2171f7ec022c5423887b07c69b2f5b48 -->
<g id="edge1" class="edge">
<title>dir_4ab6b4cc6a7edbff49100e9123df213f&#45;&gt;dir_2171f7ec022c5423887b07c69b2f5b48</title>
<path fill="none" stroke="#000000" d="M38.3655,-71.8314C40.7942,-63.8771 44.4137,-54.369 48.3117,-45.5723"/>
<polygon fill="#000000" stroke="#000000" points="51.5298,-46.9532 52.6075,-36.4133 45.1923,-43.9806 51.5298,-46.9532"/>
<g id="a_edge1&#45;headlabel"><a xlink:href="dir_000018_000060.html" target="_top" xlink:title="2">
<text text-anchor="middle" x="52.574" y="-48.9132" font-family="Helvetica,sans-Serif" font-size="10.00" fill="#000000">2</text>
</a>
</g>
</g>
<!-- dir_3dfda2b66c3c3704521dbfdd9d3caacf&#45;&gt;dir_0189f3ad6abecd72f822a0c3914f12b2 -->
<g id="edge2" class="edge">
<title>dir_3dfda2b66c3c3704521dbfdd9d3caacf&#45;&gt;dir_0189f3ad6abecd72f822a0c3914f12b2</title>
<path fill="none" stroke="#000000" d="M69.411,-215.8314C65.1683,-207.7925 60.0879,-198.1666 55.404,-189.2918"/>
<polygon fill="#000000" stroke="#000000" points="58.4811,-187.6235 50.7181,-180.4133 52.2904,-190.8908 58.4811,-187.6235"/>
<g id="a_edge2&#45;headlabel"><a xlink:href="dir_000427_000126.html" target="_top" xlink:title="6">
<text text-anchor="middle" x="62.6699" y="-186.9772" font-family="Helvetica,sans-Serif" font-size="10.00" fill="#000000">6</text>
</a>
</g>
</g>
<!-- dir_3dfda2b66c3c3704521dbfdd9d3caacf&#45;&gt;dir_2171f7ec022c5423887b07c69b2f5b48 -->
<g id="edge3" class="edge">
<title>dir_3dfda2b66c3c3704521dbfdd9d3caacf&#45;&gt;dir_2171f7ec022c5423887b07c69b2f5b48</title>
<path fill="none" stroke="#000000" d="M79.6309,-215.963C80.4634,-185.9867 81.2658,-124.0558 76,-72 75.1499,-63.596 73.6905,-54.5415 72.1454,-46.2932"/>
<polygon fill="#000000" stroke="#000000" points="75.5593,-45.5149 70.1818,-36.3862 68.6929,-46.8759 75.5593,-45.5149"/>
<g id="a_edge3&#45;headlabel"><a xlink:href="dir_000427_000060.html" target="_top" xlink:title="5">
<text text-anchor="middle" x="79.0432" y="-45.9889" font-family="Helvetica,sans-Serif" font-size="10.00" fill="#000000">5</text>
</a>
</g>
</g>
<!-- dir_0189f3ad6abecd72f822a0c3914f12b2&#45;&gt;dir_4ab6b4cc6a7edbff49100e9123df213f -->
<g id="edge4" class="edge">
<title>dir_0189f3ad6abecd72f822a0c3914f12b2&#45;&gt;dir_4ab6b4cc6a7edbff49100e9123df213f</title>
<path fill="none" stroke="#000000" d="M39.9906,-143.8314C39.5628,-136.131 39.0541,-126.9743 38.5787,-118.4166"/>
<polygon fill="#000000" stroke="#000000" points="42.0724,-118.2037 38.023,-108.4133 35.0831,-118.592 42.0724,-118.2037"/>
<g id="a_edge4&#45;headlabel"><a xlink:href="dir_000126_000018.html" target="_top" xlink:title="1">
<text text-anchor="middle" x="45.1066" y="-119.1353" font-family="Helvetica,sans-Serif" font-size="10.00" fill="#000000">1</text>
</a>
</g>
</g>
<!-- dir_2171f7ec022c5423887b07c69b2f5b48&#45;&gt;dir_4ab6b4cc6a7edbff49100e9123df213f -->
<g id="edge9" class="edge">
<title>dir_2171f7ec022c5423887b07c69b2f5b48&#45;&gt;dir_4ab6b4cc6a7edbff49100e9123df213f</title>
<path fill="none" stroke="#000000" d="M64.5596,-36.4133C62.1066,-44.3991 58.4722,-53.9155 54.5686,-62.6975"/>
<polygon fill="#000000" stroke="#000000" points="51.3615,-61.2929 50.2703,-71.8314 57.6952,-64.2735 51.3615,-61.2929"/>
<g id="a_edge9&#45;headlabel"><a xlink:href="dir_000060_000018.html" target="_top" xlink:title="29">
<text text-anchor="middle" x="50.323" y="-54.3315" font-family="Helvetica,sans-Serif" font-size="10.00" fill="#000000">29</text>
</a>
</g>
</g>
</g>
</svg>
