<?xml version="1.0" encoding="UTF-8" standalone="no"?>
<!DOCTYPE svg PUBLIC "-//W3C//DTD SVG 1.1//EN"
 "http://www.w3.org/Graphics/SVG/1.1/DTD/svg11.dtd">
<!-- Generated by graphviz version 2.40.1 (20161225.0304)
 -->
<!-- Title: /home/travis/build/AliceO2Group/AliceO2/Detectors/CPV/simulation/include Pages: 1 -->
<svg width="217pt" height="375pt"
 viewBox="0.00 0.00 217.00 375.00" xmlns="http://www.w3.org/2000/svg" xmlns:xlink="http://www.w3.org/1999/xlink">
<g id="graph0" class="graph" transform="scale(1 1) rotate(0) translate(4 371)">
<title>/home/travis/build/AliceO2Group/AliceO2/Detectors/CPV/simulation/include</title>
<g id="clust1" class="cluster">
<title>clusterdir_a740963330d1efa3e28509f70022bd98</title>
<g id="a_clust1"><a xlink:href="dir_a740963330d1efa3e28509f70022bd98.html" target="_top" xlink:title="simulation">
<polygon fill="#ddddee" stroke="#000000" points="8,-272 8,-359 201,-359 201,-272 8,-272"/>
<text text-anchor="middle" x="104.5" y="-347" font-family="Helvetica,sans-Serif" font-size="10.00" fill="#000000">simulation</text>
</a>
</g>
</g>
<g id="clust2" class="cluster">
<title>clusterdir_6293adb0b35b98834b78d8c1784ec891</title>
<g id="a_clust2"><a xlink:href="dir_6293adb0b35b98834b78d8c1784ec891.html" target="_top">
<polygon fill="#eeeeff" stroke="#000000" points="16,-280 16,-332 193,-332 193,-280 16,-280"/>
</a>
</g>
</g>
<!-- dir_6293adb0b35b98834b78d8c1784ec891 -->
<g id="node1" class="node">
<title>dir_6293adb0b35b98834b78d8c1784ec891</title>
<text text-anchor="middle" x="158" y="-303.5" font-family="Helvetica,sans-Serif" font-size="10.00" fill="#000000">include</text>
</g>
<!-- dir_d2bbbca0bb65e3ae1a07b25f4087480a -->
<g id="node2" class="node">
<title>dir_d2bbbca0bb65e3ae1a07b25f4087480a</title>
<g id="a_node2"><a xlink:href="dir_d2bbbca0bb65e3ae1a07b25f4087480a.html" target="_top" xlink:title="CPVSimulation">
<polygon fill="#ffffff" stroke="#000000" points="112.5,-324 23.5,-324 23.5,-288 112.5,-288 112.5,-324"/>
<text text-anchor="middle" x="68" y="-303.5" font-family="Helvetica,sans-Serif" font-size="10.00" fill="#000000">CPVSimulation</text>
</a>
</g>
</g>
<!-- dir_4ab6b4cc6a7edbff49100e9123df213f -->
<g id="node3" class="node">
<title>dir_4ab6b4cc6a7edbff49100e9123df213f</title>
<g id="a_node3"><a xlink:href="dir_4ab6b4cc6a7edbff49100e9123df213f.html" target="_top" xlink:title="Common">
<polygon fill="none" stroke="#ff0000" points="84.5,-180 23.5,-180 23.5,-144 84.5,-144 84.5,-180"/>
<text text-anchor="middle" x="54" y="-159.5" font-family="Helvetica,sans-Serif" font-size="10.00" fill="#000000">Common</text>
</a>
</g>
</g>
<!-- dir_d2bbbca0bb65e3ae1a07b25f4087480a&#45;&gt;dir_4ab6b4cc6a7edbff49100e9123df213f -->
<g id="edge4" class="edge">
<title>dir_d2bbbca0bb65e3ae1a07b25f4087480a&#45;&gt;dir_4ab6b4cc6a7edbff49100e9123df213f</title>
<path fill="none" stroke="#000000" d="M64.8912,-287.5527C63.2311,-277.1403 61.2732,-263.8734 60,-252 57.7912,-231.4014 56.263,-208.0577 55.3018,-190.3069"/>
<polygon fill="#000000" stroke="#000000" points="58.7967,-190.1161 54.788,-180.3089 51.8059,-190.4754 58.7967,-190.1161"/>
<g id="a_edge4&#45;headlabel"><a xlink:href="dir_000259_000018.html" target="_top" xlink:title="3">
<text text-anchor="middle" x="61.8166" y="-191.0603" font-family="Helvetica,sans-Serif" font-size="10.00" fill="#000000">3</text>
</a>
</g>
</g>
<!-- dir_37c90836491b695b472bf98d1be8336b -->
<g id="node4" class="node">
<title>dir_37c90836491b695b472bf98d1be8336b</title>
<g id="a_node4"><a xlink:href="dir_37c90836491b695b472bf98d1be8336b.html" target="_top" xlink:title="Base">
<polygon fill="none" stroke="#ff0000" points="100,-36 46,-36 46,0 100,0 100,-36"/>
<text text-anchor="middle" x="73" y="-15.5" font-family="Helvetica,sans-Serif" font-size="10.00" fill="#000000">Base</text>
</a>
</g>
</g>
<!-- dir_d2bbbca0bb65e3ae1a07b25f4087480a&#45;&gt;dir_37c90836491b695b472bf98d1be8336b -->
<g id="edge5" class="edge">
<title>dir_d2bbbca0bb65e3ae1a07b25f4087480a&#45;&gt;dir_37c90836491b695b472bf98d1be8336b</title>
<path fill="none" stroke="#000000" d="M55.0939,-287.883C35.5922,-258.2974 2.0864,-197.5362 14,-144 22.0487,-107.8313 41.6368,-69.7658 56.0447,-45.0641"/>
<polygon fill="#000000" stroke="#000000" points="59.165,-46.665 61.2782,-36.283 53.152,-43.0812 59.165,-46.665"/>
<g id="a_edge5&#45;headlabel"><a xlink:href="dir_000259_000254.html" target="_top" xlink:title="1">
<text text-anchor="middle" x="59.7637" y="-48.7064" font-family="Helvetica,sans-Serif" font-size="10.00" fill="#000000">1</text>
</a>
</g>
</g>
<!-- dir_9f065a6c27ad05d142739bd8f4136180 -->
<g id="node5" class="node">
<title>dir_9f065a6c27ad05d142739bd8f4136180</title>
<g id="a_node5"><a xlink:href="dir_9f065a6c27ad05d142739bd8f4136180.html" target="_top" xlink:title="base">
<polygon fill="none" stroke="#ff0000" points="123,-252 69,-252 69,-216 123,-216 123,-252"/>
<text text-anchor="middle" x="96" y="-231.5" font-family="Helvetica,sans-Serif" font-size="10.00" fill="#000000">base</text>
</a>
</g>
</g>
<!-- dir_d2bbbca0bb65e3ae1a07b25f4087480a&#45;&gt;dir_9f065a6c27ad05d142739bd8f4136180 -->
<g id="edge6" class="edge">
<title>dir_d2bbbca0bb65e3ae1a07b25f4087480a&#45;&gt;dir_9f065a6c27ad05d142739bd8f4136180</title>
<path fill="none" stroke="#000000" d="M75.0656,-287.8314C78.126,-279.9617 81.7779,-270.5712 85.1682,-261.8533"/>
<polygon fill="#000000" stroke="#000000" points="88.4768,-263.0019 88.8393,-252.4133 81.9527,-260.4647 88.4768,-263.0019"/>
<g id="a_edge6&#45;headlabel"><a xlink:href="dir_000259_000115.html" target="_top" xlink:title="5">
<text text-anchor="middle" x="89.8202" y="-264.8812" font-family="Helvetica,sans-Serif" font-size="10.00" fill="#000000">5</text>
</a>
</g>
</g>
<!-- dir_2171f7ec022c5423887b07c69b2f5b48 -->
<g id="node6" class="node">
<title>dir_2171f7ec022c5423887b07c69b2f5b48</title>
<g id="a_node6"><a xlink:href="dir_2171f7ec022c5423887b07c69b2f5b48.html" target="_top" xlink:title="DataFormats">
<polygon fill="none" stroke="#ff0000" points="147,-108 67,-108 67,-72 147,-72 147,-108"/>
<text text-anchor="middle" x="107" y="-87.5" font-family="Helvetica,sans-Serif" font-size="10.00" fill="#000000">DataFormats</text>
</a>
</g>
</g>
<!-- dir_d2bbbca0bb65e3ae1a07b25f4087480a&#45;&gt;dir_2171f7ec022c5423887b07c69b2f5b48 -->
<g id="edge7" class="edge">
<title>dir_d2bbbca0bb65e3ae1a07b25f4087480a&#45;&gt;dir_2171f7ec022c5423887b07c69b2f5b48</title>
<path fill="none" stroke="#000000" d="M99.4561,-287.9802C112.0312,-278.9479 125.1389,-266.7662 132,-252 152.3766,-208.1466 134.6886,-151.1363 120.4899,-117.7557"/>
<polygon fill="#000000" stroke="#000000" points="123.5009,-115.9125 116.2415,-108.1956 117.1041,-118.7552 123.5009,-115.9125"/>
<g id="a_edge7&#45;headlabel"><a xlink:href="dir_000259_000060.html" target="_top" xlink:title="2">
<text text-anchor="middle" x="127.5553" y="-115.5443" font-family="Helvetica,sans-Serif" font-size="10.00" fill="#000000">2</text>
</a>
</g>
</g>
<!-- dir_4ab6b4cc6a7edbff49100e9123df213f&#45;&gt;dir_2171f7ec022c5423887b07c69b2f5b48 -->
<g id="edge1" class="edge">
<title>dir_4ab6b4cc6a7edbff49100e9123df213f&#45;&gt;dir_2171f7ec022c5423887b07c69b2f5b48</title>
<path fill="none" stroke="#000000" d="M61.4217,-143.8314C66.718,-135.5386 73.8715,-125.557 80.9929,-116.4533"/>
<polygon fill="#000000" stroke="#000000" points="83.922,-118.3965 87.4698,-108.4133 78.4708,-114.0051 83.922,-118.3965"/>
<g id="a_edge1&#45;headlabel"><a xlink:href="dir_000018_000060.html" target="_top" xlink:title="2">
<text text-anchor="middle" x="83.8781" y="-120.4769" font-family="Helvetica,sans-Serif" font-size="10.00" fill="#000000">2</text>
</a>
</g>
</g>
<!-- dir_37c90836491b695b472bf98d1be8336b&#45;&gt;dir_4ab6b4cc6a7edbff49100e9123df213f -->
<g id="edge2" class="edge">
<title>dir_37c90836491b695b472bf98d1be8336b&#45;&gt;dir_4ab6b4cc6a7edbff49100e9123df213f</title>
<path fill="none" stroke="#000000" d="M66.8136,-36.266C63.5889,-46.6217 59.9251,-59.8923 58,-72 54.7305,-92.563 53.7797,-116.0775 53.6202,-133.9132"/>
<polygon fill="#000000" stroke="#000000" points="50.1203,-133.9454 53.6078,-143.9498 57.1203,-133.9541 50.1203,-133.9454"/>
<g id="a_edge2&#45;headlabel"><a xlink:href="dir_000254_000018.html" target="_top" xlink:title="16">
<text text-anchor="middle" x="47.2854" y="-127.8473" font-family="Helvetica,sans-Serif" font-size="10.00" fill="#000000">16</text>
</a>
</g>
</g>
<!-- dir_37c90836491b695b472bf98d1be8336b&#45;&gt;dir_2171f7ec022c5423887b07c69b2f5b48 -->
<g id="edge3" class="edge">
<title>dir_37c90836491b695b472bf98d1be8336b&#45;&gt;dir_2171f7ec022c5423887b07c69b2f5b48</title>
<path fill="none" stroke="#000000" d="M87.6712,-36.4133C92.1576,-44.3141 96.7985,-53.7132 100.5579,-62.417"/>
<polygon fill="#000000" stroke="#000000" points="97.3734,-63.8778 104.3728,-71.8314 103.861,-61.2489 97.3734,-63.8778"/>
<g id="a_edge3&#45;headlabel"><a xlink:href="dir_000254_000060.html" target="_top" xlink:title="7">
<text text-anchor="middle" x="93.3921" y="-59.1125" font-family="Helvetica,sans-Serif" font-size="10.00" fill="#000000">7</text>
</a>
</g>
</g>
<!-- dir_9f065a6c27ad05d142739bd8f4136180&#45;&gt;dir_4ab6b4cc6a7edbff49100e9123df213f -->
<g id="edge8" class="edge">
<title>dir_9f065a6c27ad05d142739bd8f4136180&#45;&gt;dir_4ab6b4cc6a7edbff49100e9123df213f</title>
<path fill="none" stroke="#000000" d="M85.4016,-215.8314C80.7123,-207.7925 75.0972,-198.1666 69.9202,-189.2918"/>
<polygon fill="#000000" stroke="#000000" points="72.8031,-187.2875 64.7411,-180.4133 66.7566,-190.8146 72.8031,-187.2875"/>
<g id="a_edge8&#45;headlabel"><a xlink:href="dir_000115_000018.html" target="_top" xlink:title="1">
<text text-anchor="middle" x="77.0667" y="-186.4618" font-family="Helvetica,sans-Serif" font-size="10.00" fill="#000000">1</text>
</a>
</g>
</g>
<!-- dir_9f065a6c27ad05d142739bd8f4136180&#45;&gt;dir_2171f7ec022c5423887b07c69b2f5b48 -->
<g id="edge9" class="edge">
<title>dir_9f065a6c27ad05d142739bd8f4136180&#45;&gt;dir_2171f7ec022c5423887b07c69b2f5b48</title>
<path fill="none" stroke="#000000" d="M97.3932,-215.7623C99.2694,-191.201 102.6269,-147.2474 104.8341,-118.3541"/>
<polygon fill="#000000" stroke="#000000" points="108.3462,-118.3272 105.6182,-108.0896 101.3666,-117.794 108.3462,-118.3272"/>
<g id="a_edge9&#45;headlabel"><a xlink:href="dir_000115_000060.html" target="_top" xlink:title="3">
<text text-anchor="middle" x="110.9036" y="-119.6276" font-family="Helvetica,sans-Serif" font-size="10.00" fill="#000000">3</text>
</a>
</g>
</g>
<!-- dir_2171f7ec022c5423887b07c69b2f5b48&#45;&gt;dir_4ab6b4cc6a7edbff49100e9123df213f -->
<g id="edge10" class="edge">
<title>dir_2171f7ec022c5423887b07c69b2f5b48&#45;&gt;dir_4ab6b4cc6a7edbff49100e9123df213f</title>
<path fill="none" stroke="#000000" d="M99.4218,-108.4133C94.0893,-116.7389 86.918,-126.7282 79.7974,-135.8144"/>
<polygon fill="#000000" stroke="#000000" points="76.8839,-133.8516 73.3265,-143.8314 82.3309,-138.2482 76.8839,-133.8516"/>
<g id="a_edge10&#45;headlabel"><a xlink:href="dir_000060_000018.html" target="_top" xlink:title="29">
<text text-anchor="middle" x="76.9322" y="-126.7712" font-family="Helvetica,sans-Serif" font-size="10.00" fill="#000000">29</text>
</a>
</g>
</g>
<!-- dir_2171f7ec022c5423887b07c69b2f5b48&#45;&gt;dir_37c90836491b695b472bf98d1be8336b -->
<g id="edge11" class="edge">
<title>dir_2171f7ec022c5423887b07c69b2f5b48&#45;&gt;dir_37c90836491b695b472bf98d1be8336b</title>
<path fill="none" stroke="#000000" d="M92.468,-71.8314C87.9848,-63.9617 83.3365,-54.5712 79.559,-45.8533"/>
<polygon fill="#000000" stroke="#000000" points="82.7291,-44.3575 75.7191,-36.4133 76.245,-46.9951 82.7291,-44.3575"/>
<g id="a_edge11&#45;headlabel"><a xlink:href="dir_000060_000254.html" target="_top" xlink:title="1">
<text text-anchor="middle" x="86.7134" y="-44.1175" font-family="Helvetica,sans-Serif" font-size="10.00" fill="#000000">1</text>
</a>
</g>
</g>
</g>
</svg>
