<?xml version="1.0" encoding="UTF-8" standalone="no"?>
<!DOCTYPE svg PUBLIC "-//W3C//DTD SVG 1.1//EN"
 "http://www.w3.org/Graphics/SVG/1.1/DTD/svg11.dtd">
<!-- Generated by graphviz version 2.40.1 (20161225.0304)
 -->
<!-- Title: /home/travis/build/AliceO2Group/AliceO2/Detectors/TOF/reconstruction Pages: 1 -->
<svg width="235pt" height="375pt"
 viewBox="0.00 0.00 234.83 375.00" xmlns="http://www.w3.org/2000/svg" xmlns:xlink="http://www.w3.org/1999/xlink">
<g id="graph0" class="graph" transform="scale(1 1) rotate(0) translate(4 371)">
<title>/home/travis/build/AliceO2Group/AliceO2/Detectors/TOF/reconstruction</title>
<g id="clust1" class="cluster">
<title>clusterdir_577c839d346a264df4e9e588ca2a45dd</title>
<g id="a_clust1"><a xlink:href="dir_577c839d346a264df4e9e588ca2a45dd.html" target="_top" xlink:title="TOF">
<polygon fill="#ddddee" stroke="#000000" points="16.8348,-200 16.8348,-359 206.8348,-359 206.8348,-200 16.8348,-200"/>
<text text-anchor="middle" x="111.8348" y="-347" font-family="Helvetica,sans-Serif" font-size="10.00" fill="#000000">TOF</text>
</a>
</g>
</g>
<g id="clust2" class="cluster">
<title>clusterdir_d1fec883a65fe865f3e91884d818def8</title>
<g id="a_clust2"><a xlink:href="dir_d1fec883a65fe865f3e91884d818def8.html" target="_top">
<polygon fill="#eeeeff" stroke="#000000" points="24.8348,-208 24.8348,-332 198.8348,-332 198.8348,-208 24.8348,-208"/>
</a>
</g>
</g>
<!-- dir_d1fec883a65fe865f3e91884d818def8 -->
<g id="node1" class="node">
<title>dir_d1fec883a65fe865f3e91884d818def8</title>
<text text-anchor="middle" x="147.8348" y="-303.5" font-family="Helvetica,sans-Serif" font-size="10.00" fill="#000000">reconstruction</text>
</g>
<!-- dir_3dfda2b66c3c3704521dbfdd9d3caacf -->
<g id="node2" class="node">
<title>dir_3dfda2b66c3c3704521dbfdd9d3caacf</title>
<g id="a_node2"><a xlink:href="dir_3dfda2b66c3c3704521dbfdd9d3caacf.html" target="_top" xlink:title="include">
<polygon fill="#ffffff" stroke="#ff0000" points="124.8348,-252 70.8348,-252 70.8348,-216 124.8348,-216 124.8348,-252"/>
<text text-anchor="middle" x="97.8348" y="-231.5" font-family="Helvetica,sans-Serif" font-size="10.00" fill="#000000">include</text>
</a>
</g>
</g>
<!-- dir_7559d374f7e4089a12282edb4b89411f -->
<g id="node4" class="node">
<title>dir_7559d374f7e4089a12282edb4b89411f</title>
<g id="a_node4"><a xlink:href="dir_7559d374f7e4089a12282edb4b89411f.html" target="_top" xlink:title="calibration">
<polygon fill="none" stroke="#ff0000" points="154.8348,-180 86.8348,-180 86.8348,-144 154.8348,-144 154.8348,-180"/>
<text text-anchor="middle" x="120.8348" y="-159.5" font-family="Helvetica,sans-Serif" font-size="10.00" fill="#000000">calibration</text>
</a>
</g>
</g>
<!-- dir_3dfda2b66c3c3704521dbfdd9d3caacf&#45;&gt;dir_7559d374f7e4089a12282edb4b89411f -->
<g id="edge3" class="edge">
<title>dir_3dfda2b66c3c3704521dbfdd9d3caacf&#45;&gt;dir_7559d374f7e4089a12282edb4b89411f</title>
<path fill="none" stroke="#000000" d="M103.6387,-215.8314C106.1256,-208.0463 109.0879,-198.7729 111.8473,-190.1347"/>
<polygon fill="#000000" stroke="#000000" points="115.2438,-191.0041 114.9528,-180.4133 108.5757,-188.874 115.2438,-191.0041"/>
<g id="a_edge3&#45;headlabel"><a xlink:href="dir_000427_000521.html" target="_top" xlink:title="1">
<text text-anchor="middle" x="116.8547" y="-192.7922" font-family="Helvetica,sans-Serif" font-size="10.00" fill="#000000">1</text>
</a>
</g>
</g>
<!-- dir_0189f3ad6abecd72f822a0c3914f12b2 -->
<g id="node6" class="node">
<title>dir_0189f3ad6abecd72f822a0c3914f12b2</title>
<g id="a_node6"><a xlink:href="dir_0189f3ad6abecd72f822a0c3914f12b2.html" target="_top" xlink:title="base">
<polygon fill="none" stroke="#ff0000" points="226.8348,-180 172.8348,-180 172.8348,-144 226.8348,-144 226.8348,-180"/>
<text text-anchor="middle" x="199.8348" y="-159.5" font-family="Helvetica,sans-Serif" font-size="10.00" fill="#000000">base</text>
</a>
</g>
</g>
<!-- dir_3dfda2b66c3c3704521dbfdd9d3caacf&#45;&gt;dir_0189f3ad6abecd72f822a0c3914f12b2 -->
<g id="edge4" class="edge">
<title>dir_3dfda2b66c3c3704521dbfdd9d3caacf&#45;&gt;dir_0189f3ad6abecd72f822a0c3914f12b2</title>
<path fill="none" stroke="#000000" d="M123.5737,-215.8314C136.3785,-206.7927 152.0257,-195.7476 165.8067,-186.0198"/>
<polygon fill="#000000" stroke="#000000" points="167.9528,-188.7891 174.1041,-180.1628 163.916,-183.0703 167.9528,-188.7891"/>
<g id="a_edge4&#45;headlabel"><a xlink:href="dir_000427_000126.html" target="_top" xlink:title="6">
<text text-anchor="middle" x="166.6535" y="-190.6816" font-family="Helvetica,sans-Serif" font-size="10.00" fill="#000000">6</text>
</a>
</g>
</g>
<!-- dir_2171f7ec022c5423887b07c69b2f5b48 -->
<g id="node7" class="node">
<title>dir_2171f7ec022c5423887b07c69b2f5b48</title>
<g id="a_node7"><a xlink:href="dir_2171f7ec022c5423887b07c69b2f5b48.html" target="_top" xlink:title="DataFormats">
<polygon fill="none" stroke="#ff0000" points="98.8348,-108 18.8348,-108 18.8348,-72 98.8348,-72 98.8348,-108"/>
<text text-anchor="middle" x="58.8348" y="-87.5" font-family="Helvetica,sans-Serif" font-size="10.00" fill="#000000">DataFormats</text>
</a>
</g>
</g>
<!-- dir_3dfda2b66c3c3704521dbfdd9d3caacf&#45;&gt;dir_2171f7ec022c5423887b07c69b2f5b48 -->
<g id="edge5" class="edge">
<title>dir_3dfda2b66c3c3704521dbfdd9d3caacf&#45;&gt;dir_2171f7ec022c5423887b07c69b2f5b48</title>
<path fill="none" stroke="#000000" d="M90.3065,-215.729C86.2323,-205.3718 81.3327,-192.1013 77.8348,-180 71.9315,-159.5768 67.0299,-136.0567 63.6845,-118.1834"/>
<polygon fill="#000000" stroke="#000000" points="67.0873,-117.3329 61.8533,-108.1211 60.2004,-118.5862 67.0873,-117.3329"/>
<g id="a_edge5&#45;headlabel"><a xlink:href="dir_000427_000060.html" target="_top" xlink:title="5">
<text text-anchor="middle" x="70.5242" y="-117.861" font-family="Helvetica,sans-Serif" font-size="10.00" fill="#000000">5</text>
</a>
</g>
</g>
<!-- dir_7a8ff9736435892df123de8c32178115 -->
<g id="node3" class="node">
<title>dir_7a8ff9736435892df123de8c32178115</title>
<g id="a_node3"><a xlink:href="dir_7a8ff9736435892df123de8c32178115.html" target="_top" xlink:title="src">
<polygon fill="#ffffff" stroke="#000000" points="86.8348,-324 32.8348,-324 32.8348,-288 86.8348,-288 86.8348,-324"/>
<text text-anchor="middle" x="59.8348" y="-303.5" font-family="Helvetica,sans-Serif" font-size="10.00" fill="#000000">src</text>
</a>
</g>
</g>
<!-- dir_7a8ff9736435892df123de8c32178115&#45;&gt;dir_3dfda2b66c3c3704521dbfdd9d3caacf -->
<g id="edge8" class="edge">
<title>dir_7a8ff9736435892df123de8c32178115&#45;&gt;dir_3dfda2b66c3c3704521dbfdd9d3caacf</title>
<path fill="none" stroke="#000000" d="M69.4238,-287.8314C73.6666,-279.7925 78.7469,-270.1666 83.4308,-261.2918"/>
<polygon fill="#000000" stroke="#000000" points="86.5444,-262.8908 88.1167,-252.4133 80.3537,-259.6235 86.5444,-262.8908"/>
<g id="a_edge8&#45;headlabel"><a xlink:href="dir_000434_000427.html" target="_top" xlink:title="6">
<text text-anchor="middle" x="87.3776" y="-264.895" font-family="Helvetica,sans-Serif" font-size="10.00" fill="#000000">6</text>
</a>
</g>
</g>
<!-- dir_4ab6b4cc6a7edbff49100e9123df213f -->
<g id="node5" class="node">
<title>dir_4ab6b4cc6a7edbff49100e9123df213f</title>
<g id="a_node5"><a xlink:href="dir_4ab6b4cc6a7edbff49100e9123df213f.html" target="_top" xlink:title="Common">
<polygon fill="none" stroke="#ff0000" points="89.3348,-36 28.3348,-36 28.3348,0 89.3348,0 89.3348,-36"/>
<text text-anchor="middle" x="58.8348" y="-15.5" font-family="Helvetica,sans-Serif" font-size="10.00" fill="#000000">Common</text>
</a>
</g>
</g>
<!-- dir_7a8ff9736435892df123de8c32178115&#45;&gt;dir_4ab6b4cc6a7edbff49100e9123df213f -->
<g id="edge7" class="edge">
<title>dir_7a8ff9736435892df123de8c32178115&#45;&gt;dir_4ab6b4cc6a7edbff49100e9123df213f</title>
<path fill="none" stroke="#000000" d="M49.074,-287.8337C26.789,-247.7404 -19.9397,-149.1206 9.8348,-72 13.954,-61.3306 21.2684,-51.4665 29.0098,-43.1681"/>
<polygon fill="#000000" stroke="#000000" points="31.5696,-45.558 36.1598,-36.0091 26.6167,-40.6113 31.5696,-45.558"/>
<g id="a_edge7&#45;headlabel"><a xlink:href="dir_000434_000018.html" target="_top" xlink:title="4">
<text text-anchor="middle" x="31.0383" y="-47.6077" font-family="Helvetica,sans-Serif" font-size="10.00" fill="#000000">4</text>
</a>
</g>
</g>
<!-- dir_7a8ff9736435892df123de8c32178115&#45;&gt;dir_0189f3ad6abecd72f822a0c3914f12b2 -->
<g id="edge9" class="edge">
<title>dir_7a8ff9736435892df123de8c32178115&#45;&gt;dir_0189f3ad6abecd72f822a0c3914f12b2</title>
<path fill="none" stroke="#000000" d="M87.0793,-289.081C101.7881,-279.2446 119.7609,-266.0409 133.8348,-252 153.1367,-232.7433 171.1602,-207.4641 183.479,-188.6012"/>
<polygon fill="#000000" stroke="#000000" points="186.4329,-190.4786 188.8849,-180.1714 180.5404,-186.6998 186.4329,-190.4786"/>
<g id="a_edge9&#45;headlabel"><a xlink:href="dir_000434_000126.html" target="_top" xlink:title="1">
<text text-anchor="middle" x="186.8825" y="-192.5372" font-family="Helvetica,sans-Serif" font-size="10.00" fill="#000000">1</text>
</a>
</g>
</g>
<!-- dir_7a8ff9736435892df123de8c32178115&#45;&gt;dir_2171f7ec022c5423887b07c69b2f5b48 -->
<g id="edge10" class="edge">
<title>dir_7a8ff9736435892df123de8c32178115&#45;&gt;dir_2171f7ec022c5423887b07c69b2f5b48</title>
<path fill="none" stroke="#000000" d="M59.7513,-287.9555C59.5774,-250.3938 59.1753,-163.5541 58.9663,-118.4103"/>
<polygon fill="#000000" stroke="#000000" points="62.4652,-118.1287 58.9188,-108.1451 55.4652,-118.1612 62.4652,-118.1287"/>
<g id="a_edge10&#45;headlabel"><a xlink:href="dir_000434_000060.html" target="_top" xlink:title="5">
<text text-anchor="middle" x="65.321" y="-119.2102" font-family="Helvetica,sans-Serif" font-size="10.00" fill="#000000">5</text>
</a>
</g>
</g>
<!-- dir_7559d374f7e4089a12282edb4b89411f&#45;&gt;dir_2171f7ec022c5423887b07c69b2f5b48 -->
<g id="edge1" class="edge">
<title>dir_7559d374f7e4089a12282edb4b89411f&#45;&gt;dir_2171f7ec022c5423887b07c69b2f5b48</title>
<path fill="none" stroke="#000000" d="M105.1896,-143.8314C97.9757,-135.454 89.2778,-125.3531 81.3743,-116.1749"/>
<polygon fill="#000000" stroke="#000000" points="83.8681,-113.7071 74.6907,-108.4133 78.5637,-118.2748 83.8681,-113.7071"/>
<g id="a_edge1&#45;headlabel"><a xlink:href="dir_000521_000060.html" target="_top" xlink:title="2">
<text text-anchor="middle" x="88.3652" y="-112.0783" font-family="Helvetica,sans-Serif" font-size="10.00" fill="#000000">2</text>
</a>
</g>
</g>
<!-- dir_4ab6b4cc6a7edbff49100e9123df213f&#45;&gt;dir_2171f7ec022c5423887b07c69b2f5b48 -->
<g id="edge2" class="edge">
<title>dir_4ab6b4cc6a7edbff49100e9123df213f&#45;&gt;dir_2171f7ec022c5423887b07c69b2f5b48</title>
<path fill="none" stroke="#000000" d="M64.8108,-36.4133C65.5419,-44.0593 65.7551,-53.1084 65.4503,-61.5726"/>
<polygon fill="#000000" stroke="#000000" points="61.9396,-61.6264 64.7872,-71.8314 68.925,-62.078 61.9396,-61.6264"/>
<g id="a_edge2&#45;headlabel"><a xlink:href="dir_000018_000060.html" target="_top" xlink:title="2">
<text text-anchor="middle" x="59.338" y="-55.3562" font-family="Helvetica,sans-Serif" font-size="10.00" fill="#000000">2</text>
</a>
</g>
</g>
<!-- dir_0189f3ad6abecd72f822a0c3914f12b2&#45;&gt;dir_4ab6b4cc6a7edbff49100e9123df213f -->
<g id="edge6" class="edge">
<title>dir_0189f3ad6abecd72f822a0c3914f12b2&#45;&gt;dir_4ab6b4cc6a7edbff49100e9123df213f</title>
<path fill="none" stroke="#000000" d="M181.9771,-143.7623C157.0799,-118.3354 111.8325,-72.1253 83.6634,-43.3569"/>
<polygon fill="#000000" stroke="#000000" points="86.0446,-40.7861 76.5476,-36.0896 81.043,-45.6834 86.0446,-40.7861"/>
<g id="a_edge6&#45;headlabel"><a xlink:href="dir_000126_000018.html" target="_top" xlink:title="1">
<text text-anchor="middle" x="90.5882" y="-38.868" font-family="Helvetica,sans-Serif" font-size="10.00" fill="#000000">1</text>
</a>
</g>
</g>
<!-- dir_2171f7ec022c5423887b07c69b2f5b48&#45;&gt;dir_4ab6b4cc6a7edbff49100e9123df213f -->
<g id="edge11" class="edge">
<title>dir_2171f7ec022c5423887b07c69b2f5b48&#45;&gt;dir_4ab6b4cc6a7edbff49100e9123df213f</title>
<path fill="none" stroke="#000000" d="M52.8824,-71.8314C52.132,-64.131 51.9111,-54.9743 52.2197,-46.4166"/>
<polygon fill="#000000" stroke="#000000" points="55.714,-46.6161 52.8588,-36.4133 48.7283,-46.1697 55.714,-46.6161"/>
<g id="a_edge11&#45;headlabel"><a xlink:href="dir_000060_000018.html" target="_top" xlink:title="29">
<text text-anchor="middle" x="58.3184" y="-47.8844" font-family="Helvetica,sans-Serif" font-size="10.00" fill="#000000">29</text>
</a>
</g>
</g>
</g>
</svg>
