<?xml version="1.0" encoding="UTF-8" standalone="no"?>
<!DOCTYPE svg PUBLIC "-//W3C//DTD SVG 1.1//EN"
 "http://www.w3.org/Graphics/SVG/1.1/DTD/svg11.dtd">
<!-- Generated by graphviz version 2.40.1 (20161225.0304)
 -->
<!-- Title: /home/travis/build/AliceO2Group/AliceO2/Detectors/TOF Pages: 1 -->
<!--zoomable 519 -->
<svg id="main" version="1.1" xmlns="http://www.w3.org/2000/svg" xmlns:xlink="http://www.w3.org/1999/xlink" xml:space="preserve" onload="init(evt)">
<style type="text/css"><![CDATA[
.edge:hover path { stroke: red; }
.edge:hover polygon { stroke: red; fill: red; }
]]></style>
<script type="text/javascript"><![CDATA[
var edges = document.getElementsByTagName('g');
if (edges && edges.length) {
  for (var i=0;i<edges.length;i++) {
    if (edges[i].id.substr(0,4)=='edge') {
      edges[i].setAttribute('class','edge');
    }
  }
}
]]></script>
        <defs>
                <circle id="rim" cx="0" cy="0" r="7"/>
                <circle id="rim2" cx="0" cy="0" r="3.5"/>
                <g id="zoomPlus">
                        <use xlink:href="#rim" fill="#404040">
                                <set attributeName="fill" to="#808080" begin="zoomplus.mouseover" end="zoomplus.mouseout"/>
                        </use>
                        <path d="M-4,0h8M0,-4v8" fill="none" stroke="white" stroke-width="1.5" pointer-events="none"/>
                </g>
                <g id="zoomMin">
                        <use xlink:href="#rim" fill="#404040">
                                <set attributeName="fill" to="#808080" begin="zoomminus.mouseover" end="zoomminus.mouseout"/>
                        </use>
                        <path d="M-4,0h8" fill="none" stroke="white" stroke-width="1.5" pointer-events="none"/>
                </g>
                <g id="dirArrow">
                        <path fill="none" stroke="white" stroke-width="1.5" d="M0,-3.0v7 M-2.5,-0.5L0,-3.0L2.5,-0.5"/>
                </g>
               <g id="resetDef">
                       <use xlink:href="#rim2" fill="#404040">
                               <set attributeName="fill" to="#808080" begin="reset.mouseover" end="reset.mouseout"/>
                       </use>
               </g>
        </defs>

<script type="text/javascript">
var viewWidth = 422;
var viewHeight = 519;
var sectionId = 'dynsection-0';
</script>
<script xlink:href="svgpan.js"/>
<svg id="graph" class="graph">
<g id="viewport">
<title>/home/travis/build/AliceO2Group/AliceO2/Detectors/TOF</title>
<g id="clust1" class="cluster">
<title>clusterdir_051dca18e802f8e9474f2e30d29c04e0</title>
<g id="a_clust1"><a xlink:href="dir_051dca18e802f8e9474f2e30d29c04e0.html" target="_top" xlink:title="Detectors">
<polygon fill="#ddddee" stroke="#000000" points="130,-272 130,-503 374,-503 374,-272 130,-272"/>
<text text-anchor="middle" x="252" y="-491" font-family="Helvetica,sans-Serif" font-size="10.00" fill="#000000">Detectors</text>
</a>
</g>
</g>
<g id="clust2" class="cluster">
<title>clusterdir_577c839d346a264df4e9e588ca2a45dd</title>
<g id="a_clust2"><a xlink:href="dir_577c839d346a264df4e9e588ca2a45dd.html" target="_top">
<polygon fill="#eeeeff" stroke="#000000" points="138,-280 138,-476 366,-476 366,-280 138,-280"/>
</a>
</g>
</g>
<!-- dir_577c839d346a264df4e9e588ca2a45dd -->
<g id="node1" class="node">
<title>dir_577c839d346a264df4e9e588ca2a45dd</title>
<text text-anchor="middle" x="298" y="-447.5" font-family="Helvetica,sans-Serif" font-size="10.00" fill="#000000">TOF</text>
</g>
<!-- dir_0189f3ad6abecd72f822a0c3914f12b2 -->
<g id="node2" class="node">
<title>dir_0189f3ad6abecd72f822a0c3914f12b2</title>
<g id="a_node2"><a xlink:href="dir_0189f3ad6abecd72f822a0c3914f12b2.html" target="_top" xlink:title="base">
<polygon fill="#ffffff" stroke="#ff0000" points="358,-324 304,-324 304,-288 358,-288 358,-324"/>
<text text-anchor="middle" x="331" y="-303.5" font-family="Helvetica,sans-Serif" font-size="10.00" fill="#000000">base</text>
</a>
</g>
</g>
<!-- dir_4ab6b4cc6a7edbff49100e9123df213f -->
<g id="node7" class="node">
<title>dir_4ab6b4cc6a7edbff49100e9123df213f</title>
<g id="a_node7"><a xlink:href="dir_4ab6b4cc6a7edbff49100e9123df213f.html" target="_top" xlink:title="Common">
<polygon fill="none" stroke="#ff0000" points="246.5,-180 185.5,-180 185.5,-144 246.5,-144 246.5,-180"/>
<text text-anchor="middle" x="216" y="-159.5" font-family="Helvetica,sans-Serif" font-size="10.00" fill="#000000">Common</text>
</a>
</g>
</g>
<!-- dir_0189f3ad6abecd72f822a0c3914f12b2&#45;&gt;dir_4ab6b4cc6a7edbff49100e9123df213f -->
<g id="edge12" class="edge">
<title>dir_0189f3ad6abecd72f822a0c3914f12b2&#45;&gt;dir_4ab6b4cc6a7edbff49100e9123df213f</title>
<path fill="none" stroke="#000000" d="M323.3617,-287.8763C314.7832,-268.7816 299.5981,-238.427 281,-216 272.0447,-205.201 260.7103,-194.9351 250.0237,-186.3108"/>
<polygon fill="#000000" stroke="#000000" points="252.0603,-183.4603 242.0279,-180.0541 247.7465,-188.9731 252.0603,-183.4603"/>
<g id="a_edge12&#45;headlabel"><a xlink:href="dir_000126_000018.html" target="_top" xlink:title="1">
<text text-anchor="middle" x="256.6409" y="-180.9394" font-family="Helvetica,sans-Serif" font-size="10.00" fill="#000000">1</text>
</a>
</g>
</g>
<!-- dir_37c90836491b695b472bf98d1be8336b -->
<g id="node9" class="node">
<title>dir_37c90836491b695b472bf98d1be8336b</title>
<g id="a_node9"><a xlink:href="dir_37c90836491b695b472bf98d1be8336b.html" target="_top" xlink:title="Base">
<polygon fill="none" stroke="#ff0000" points="285,-36 231,-36 231,0 285,0 285,-36"/>
<text text-anchor="middle" x="258" y="-15.5" font-family="Helvetica,sans-Serif" font-size="10.00" fill="#000000">Base</text>
</a>
</g>
</g>
<!-- dir_0189f3ad6abecd72f822a0c3914f12b2&#45;&gt;dir_37c90836491b695b472bf98d1be8336b -->
<g id="edge13" class="edge">
<title>dir_0189f3ad6abecd72f822a0c3914f12b2&#45;&gt;dir_37c90836491b695b472bf98d1be8336b</title>
<path fill="none" stroke="#000000" d="M326.4335,-287.9843C314.0919,-239.2939 280.0004,-104.7961 265.1117,-46.0573"/>
<polygon fill="#000000" stroke="#000000" points="268.4146,-44.8424 262.5648,-36.0089 261.6291,-46.5623 268.4146,-44.8424"/>
<g id="a_edge13&#45;headlabel"><a xlink:href="dir_000126_000254.html" target="_top" xlink:title="1">
<text text-anchor="middle" x="272.0499" y="-45.1292" font-family="Helvetica,sans-Serif" font-size="10.00" fill="#000000">1</text>
</a>
</g>
</g>
<!-- dir_7559d374f7e4089a12282edb4b89411f -->
<g id="node3" class="node">
<title>dir_7559d374f7e4089a12282edb4b89411f</title>
<g id="a_node3"><a xlink:href="dir_7559d374f7e4089a12282edb4b89411f.html" target="_top" xlink:title="calibration">
<polygon fill="#ffffff" stroke="#ff0000" points="286,-324 218,-324 218,-288 286,-288 286,-324"/>
<text text-anchor="middle" x="252" y="-303.5" font-family="Helvetica,sans-Serif" font-size="10.00" fill="#000000">calibration</text>
</a>
</g>
</g>
<!-- dir_6af676bf18881990e4083e191d0e63e0 -->
<g id="node8" class="node">
<title>dir_6af676bf18881990e4083e191d0e63e0</title>
<g id="a_node8"><a xlink:href="dir_6af676bf18881990e4083e191d0e63e0.html" target="_top" xlink:title="CCDB">
<polygon fill="none" stroke="#ff0000" points="272,-252 218,-252 218,-216 272,-216 272,-252"/>
<text text-anchor="middle" x="245" y="-231.5" font-family="Helvetica,sans-Serif" font-size="10.00" fill="#000000">CCDB</text>
</a>
</g>
</g>
<!-- dir_7559d374f7e4089a12282edb4b89411f&#45;&gt;dir_6af676bf18881990e4083e191d0e63e0 -->
<g id="edge1" class="edge">
<title>dir_7559d374f7e4089a12282edb4b89411f&#45;&gt;dir_6af676bf18881990e4083e191d0e63e0</title>
<path fill="none" stroke="#000000" d="M250.2336,-287.8314C249.485,-280.131 248.5947,-270.9743 247.7627,-262.4166"/>
<polygon fill="#000000" stroke="#000000" points="251.2415,-262.0276 246.7902,-252.4133 244.2744,-262.7051 251.2415,-262.0276"/>
<g id="a_edge1&#45;headlabel"><a xlink:href="dir_000521_000010.html" target="_top" xlink:title="1">
<text text-anchor="middle" x="254.4152" y="-262.8307" font-family="Helvetica,sans-Serif" font-size="10.00" fill="#000000">1</text>
</a>
</g>
</g>
<!-- dir_2171f7ec022c5423887b07c69b2f5b48 -->
<g id="node11" class="node">
<title>dir_2171f7ec022c5423887b07c69b2f5b48</title>
<g id="a_node11"><a xlink:href="dir_2171f7ec022c5423887b07c69b2f5b48.html" target="_top" xlink:title="DataFormats">
<polygon fill="none" stroke="#ff0000" points="192,-108 112,-108 112,-72 192,-72 192,-108"/>
<text text-anchor="middle" x="152" y="-87.5" font-family="Helvetica,sans-Serif" font-size="10.00" fill="#000000">DataFormats</text>
</a>
</g>
</g>
<!-- dir_7559d374f7e4089a12282edb4b89411f&#45;&gt;dir_2171f7ec022c5423887b07c69b2f5b48 -->
<g id="edge2" class="edge">
<title>dir_7559d374f7e4089a12282edb4b89411f&#45;&gt;dir_2171f7ec022c5423887b07c69b2f5b48</title>
<path fill="none" stroke="#000000" d="M264.6122,-287.9415C270.8767,-277.866 277.7812,-264.7967 281,-252 293.0183,-204.2191 288.2288,-181.2661 256,-144 241.5899,-127.3377 220.7637,-115.1098 201.5272,-106.5461"/>
<polygon fill="#000000" stroke="#000000" points="202.8208,-103.2932 192.2465,-102.6331 200.1012,-109.7433 202.8208,-103.2932"/>
<g id="a_edge2&#45;headlabel"><a xlink:href="dir_000521_000060.html" target="_top" xlink:title="2">
<text text-anchor="middle" x="207.2361" y="-99.5735" font-family="Helvetica,sans-Serif" font-size="10.00" fill="#000000">2</text>
</a>
</g>
</g>
<!-- dir_d1fec883a65fe865f3e91884d818def8 -->
<g id="node4" class="node">
<title>dir_d1fec883a65fe865f3e91884d818def8</title>
<g id="a_node4"><a xlink:href="dir_d1fec883a65fe865f3e91884d818def8.html" target="_top" xlink:title="reconstruction">
<polygon fill="#ffffff" stroke="#ff0000" points="232,-396 146,-396 146,-360 232,-360 232,-396"/>
<text text-anchor="middle" x="189" y="-375.5" font-family="Helvetica,sans-Serif" font-size="10.00" fill="#000000">reconstruction</text>
</a>
</g>
</g>
<!-- dir_d1fec883a65fe865f3e91884d818def8&#45;&gt;dir_0189f3ad6abecd72f822a0c3914f12b2 -->
<g id="edge23" class="edge">
<title>dir_d1fec883a65fe865f3e91884d818def8&#45;&gt;dir_0189f3ad6abecd72f822a0c3914f12b2</title>
<path fill="none" stroke="#000000" d="M224.8326,-359.8314C246.1604,-349.0173 273.1523,-335.3312 294.5824,-324.4652"/>
<polygon fill="#000000" stroke="#000000" points="296.3583,-327.4891 303.6945,-319.845 293.1927,-321.2457 296.3583,-327.4891"/>
<g id="a_edge23&#45;headlabel"><a xlink:href="dir_000426_000126.html" target="_top" xlink:title="7">
<text text-anchor="middle" x="294.4363" y="-329.1469" font-family="Helvetica,sans-Serif" font-size="10.00" fill="#000000">7</text>
</a>
</g>
</g>
<!-- dir_d1fec883a65fe865f3e91884d818def8&#45;&gt;dir_7559d374f7e4089a12282edb4b89411f -->
<g id="edge21" class="edge">
<title>dir_d1fec883a65fe865f3e91884d818def8&#45;&gt;dir_7559d374f7e4089a12282edb4b89411f</title>
<path fill="none" stroke="#000000" d="M204.8976,-359.8314C212.2278,-351.454 221.066,-341.3531 229.0969,-332.1749"/>
<polygon fill="#000000" stroke="#000000" points="231.9373,-334.2438 235.8884,-324.4133 226.6693,-329.6343 231.9373,-334.2438"/>
<g id="a_edge21&#45;headlabel"><a xlink:href="dir_000426_000521.html" target="_top" xlink:title="1">
<text text-anchor="middle" x="231.7071" y="-336.3187" font-family="Helvetica,sans-Serif" font-size="10.00" fill="#000000">1</text>
</a>
</g>
</g>
<!-- dir_d1fec883a65fe865f3e91884d818def8&#45;&gt;dir_4ab6b4cc6a7edbff49100e9123df213f -->
<g id="edge22" class="edge">
<title>dir_d1fec883a65fe865f3e91884d818def8&#45;&gt;dir_4ab6b4cc6a7edbff49100e9123df213f</title>
<path fill="none" stroke="#000000" d="M183.072,-359.9575C174.0227,-329.4502 159.464,-266.1046 176,-216 179.2908,-206.0288 185.2116,-196.3944 191.5064,-188.0924"/>
<polygon fill="#000000" stroke="#000000" points="194.2672,-190.2448 197.8424,-180.2714 188.828,-185.8384 194.2672,-190.2448"/>
<g id="a_edge22&#45;headlabel"><a xlink:href="dir_000426_000018.html" target="_top" xlink:title="4">
<text text-anchor="middle" x="194.2106" y="-192.3251" font-family="Helvetica,sans-Serif" font-size="10.00" fill="#000000">4</text>
</a>
</g>
</g>
<!-- dir_d1fec883a65fe865f3e91884d818def8&#45;&gt;dir_2171f7ec022c5423887b07c69b2f5b48 -->
<g id="edge24" class="edge">
<title>dir_d1fec883a65fe865f3e91884d818def8&#45;&gt;dir_2171f7ec022c5423887b07c69b2f5b48</title>
<path fill="none" stroke="#000000" d="M179.2417,-359.9693C174.0402,-349.6873 167.9227,-336.4119 164,-324 144.4019,-261.9884 143.8009,-244.7756 138,-180 136.5729,-164.0638 135.976,-159.8715 138,-144 139.0854,-135.4887 141.0962,-126.4011 143.262,-118.1555"/>
<polygon fill="#000000" stroke="#000000" points="146.7045,-118.8414 146.0302,-108.2681 139.9637,-116.9542 146.7045,-118.8414"/>
<g id="a_edge24&#45;headlabel"><a xlink:href="dir_000426_000060.html" target="_top" xlink:title="10">
<text text-anchor="middle" x="148.4696" y="-120.5684" font-family="Helvetica,sans-Serif" font-size="10.00" fill="#000000">10</text>
</a>
</g>
</g>
<!-- dir_827012254b0f6cad75d9a7a2745b1aea -->
<g id="node5" class="node">
<title>dir_827012254b0f6cad75d9a7a2745b1aea</title>
<g id="a_node5"><a xlink:href="dir_827012254b0f6cad75d9a7a2745b1aea.html" target="_top" xlink:title="simulation">
<polygon fill="#ffffff" stroke="#ff0000" points="338,-396 270,-396 270,-360 338,-360 338,-396"/>
<text text-anchor="middle" x="304" y="-375.5" font-family="Helvetica,sans-Serif" font-size="10.00" fill="#000000">simulation</text>
</a>
</g>
</g>
<!-- dir_827012254b0f6cad75d9a7a2745b1aea&#45;&gt;dir_0189f3ad6abecd72f822a0c3914f12b2 -->
<g id="edge6" class="edge">
<title>dir_827012254b0f6cad75d9a7a2745b1aea&#45;&gt;dir_0189f3ad6abecd72f822a0c3914f12b2</title>
<path fill="none" stroke="#000000" d="M310.8132,-359.8314C313.7644,-351.9617 317.2858,-342.5712 320.555,-333.8533"/>
<polygon fill="#000000" stroke="#000000" points="323.8609,-335.0055 324.095,-324.4133 317.3066,-332.5476 323.8609,-335.0055"/>
<g id="a_edge6&#45;headlabel"><a xlink:href="dir_000149_000126.html" target="_top" xlink:title="5">
<text text-anchor="middle" x="325.2573" y="-336.8682" font-family="Helvetica,sans-Serif" font-size="10.00" fill="#000000">5</text>
</a>
</g>
</g>
<!-- dir_827012254b0f6cad75d9a7a2745b1aea&#45;&gt;dir_7559d374f7e4089a12282edb4b89411f -->
<g id="edge3" class="edge">
<title>dir_827012254b0f6cad75d9a7a2745b1aea&#45;&gt;dir_7559d374f7e4089a12282edb4b89411f</title>
<path fill="none" stroke="#000000" d="M290.8782,-359.8314C284.9501,-351.6232 277.8271,-341.7606 271.3067,-332.7323"/>
<polygon fill="#000000" stroke="#000000" points="273.9908,-330.4708 265.2985,-324.4133 268.316,-334.5693 273.9908,-330.4708"/>
<g id="a_edge3&#45;headlabel"><a xlink:href="dir_000149_000521.html" target="_top" xlink:title="1">
<text text-anchor="middle" x="278.3971" y="-329.2226" font-family="Helvetica,sans-Serif" font-size="10.00" fill="#000000">1</text>
</a>
</g>
</g>
<!-- dir_827012254b0f6cad75d9a7a2745b1aea&#45;&gt;dir_4ab6b4cc6a7edbff49100e9123df213f -->
<g id="edge4" class="edge">
<title>dir_827012254b0f6cad75d9a7a2745b1aea&#45;&gt;dir_4ab6b4cc6a7edbff49100e9123df213f</title>
<path fill="none" stroke="#000000" d="M269.9746,-368.4055C248.3592,-360.3504 222.071,-346.4648 209,-324 184.7509,-282.3234 196.0839,-223.8962 206.2405,-189.7896"/>
<polygon fill="#000000" stroke="#000000" points="209.6482,-190.6206 209.3141,-180.031 202.9716,-188.5176 209.6482,-190.6206"/>
<g id="a_edge4&#45;headlabel"><a xlink:href="dir_000149_000018.html" target="_top" xlink:title="3">
<text text-anchor="middle" x="211.2765" y="-192.4021" font-family="Helvetica,sans-Serif" font-size="10.00" fill="#000000">3</text>
</a>
</g>
</g>
<!-- dir_827012254b0f6cad75d9a7a2745b1aea&#45;&gt;dir_37c90836491b695b472bf98d1be8336b -->
<g id="edge5" class="edge">
<title>dir_827012254b0f6cad75d9a7a2745b1aea&#45;&gt;dir_37c90836491b695b472bf98d1be8336b</title>
<path fill="none" stroke="#000000" d="M330.6279,-359.9905C363.1827,-335.592 414,-288.7396 414,-234 414,-234 414,-234 414,-162 414,-97.3086 340.6709,-53.6347 294.5628,-32.5675"/>
<polygon fill="#000000" stroke="#000000" points="295.7344,-29.2587 285.1731,-28.4157 292.9035,-35.6608 295.7344,-29.2587"/>
<g id="a_edge5&#45;headlabel"><a xlink:href="dir_000149_000254.html" target="_top" xlink:title="2">
<text text-anchor="middle" x="300.1701" y="-25.6155" font-family="Helvetica,sans-Serif" font-size="10.00" fill="#000000">2</text>
</a>
</g>
</g>
<!-- dir_827012254b0f6cad75d9a7a2745b1aea&#45;&gt;dir_2171f7ec022c5423887b07c69b2f5b48 -->
<g id="edge7" class="edge">
<title>dir_827012254b0f6cad75d9a7a2745b1aea&#45;&gt;dir_2171f7ec022c5423887b07c69b2f5b48</title>
<path fill="none" stroke="#000000" d="M269.8176,-365.8596C240.0958,-354.6094 200.2326,-337.6094 190,-324 143.7628,-262.5047 144.7901,-166.044 148.7094,-118.4747"/>
<polygon fill="#000000" stroke="#000000" points="152.2157,-118.5693 149.657,-108.2881 145.2458,-117.9209 152.2157,-118.5693"/>
<g id="a_edge7&#45;headlabel"><a xlink:href="dir_000149_000060.html" target="_top" xlink:title="5">
<text text-anchor="middle" x="154.7099" y="-119.9114" font-family="Helvetica,sans-Serif" font-size="10.00" fill="#000000">5</text>
</a>
</g>
</g>
<!-- dir_f8afc936feb89e961bf89d3429577266 -->
<g id="node6" class="node">
<title>dir_f8afc936feb89e961bf89d3429577266</title>
<g id="a_node6"><a xlink:href="dir_f8afc936feb89e961bf89d3429577266.html" target="_top" xlink:title="workflow">
<polygon fill="#ffffff" stroke="#ff0000" points="219.5,-468 158.5,-468 158.5,-432 219.5,-432 219.5,-468"/>
<text text-anchor="middle" x="189" y="-447.5" font-family="Helvetica,sans-Serif" font-size="10.00" fill="#000000">workflow</text>
</a>
</g>
</g>
<!-- dir_f8afc936feb89e961bf89d3429577266&#45;&gt;dir_0189f3ad6abecd72f822a0c3914f12b2 -->
<g id="edge17" class="edge">
<title>dir_f8afc936feb89e961bf89d3429577266&#45;&gt;dir_0189f3ad6abecd72f822a0c3914f12b2</title>
<path fill="none" stroke="#000000" d="M219.7732,-441.5587C263.5465,-429.2463 339.3706,-406.6702 347,-396 359.9501,-377.8884 353.9005,-352.5976 345.7868,-333.4362"/>
<polygon fill="#000000" stroke="#000000" points="348.9457,-331.9282 341.5792,-324.3133 342.5891,-334.8599 348.9457,-331.9282"/>
<g id="a_edge17&#45;headlabel"><a xlink:href="dir_000388_000126.html" target="_top" xlink:title="1">
<text text-anchor="middle" x="353.0293" y="-331.5032" font-family="Helvetica,sans-Serif" font-size="10.00" fill="#000000">1</text>
</a>
</g>
</g>
<!-- dir_f8afc936feb89e961bf89d3429577266&#45;&gt;dir_7559d374f7e4089a12282edb4b89411f -->
<g id="edge16" class="edge">
<title>dir_f8afc936feb89e961bf89d3429577266&#45;&gt;dir_7559d374f7e4089a12282edb4b89411f</title>
<path fill="none" stroke="#000000" d="M212.2887,-431.9322C222.8384,-422.4246 234.4019,-409.8682 241,-396 250.1583,-376.7505 252.7055,-352.6817 253.0731,-334.279"/>
<polygon fill="#000000" stroke="#000000" points="256.5732,-334.1772 253.0713,-324.1778 249.5732,-334.1785 256.5732,-334.1772"/>
<g id="a_edge16&#45;headlabel"><a xlink:href="dir_000388_000521.html" target="_top" xlink:title="1">
<text text-anchor="middle" x="259.413" y="-335.2713" font-family="Helvetica,sans-Serif" font-size="10.00" fill="#000000">1</text>
</a>
</g>
</g>
<!-- dir_f8afc936feb89e961bf89d3429577266&#45;&gt;dir_d1fec883a65fe865f3e91884d818def8 -->
<g id="edge19" class="edge">
<title>dir_f8afc936feb89e961bf89d3429577266&#45;&gt;dir_d1fec883a65fe865f3e91884d818def8</title>
<path fill="none" stroke="#000000" d="M189,-431.8314C189,-424.131 189,-414.9743 189,-406.4166"/>
<polygon fill="#000000" stroke="#000000" points="192.5001,-406.4132 189,-396.4133 185.5001,-406.4133 192.5001,-406.4132"/>
<g id="a_edge19&#45;headlabel"><a xlink:href="dir_000388_000426.html" target="_top" xlink:title="2">
<text text-anchor="middle" x="195.3393" y="-407.5079" font-family="Helvetica,sans-Serif" font-size="10.00" fill="#000000">2</text>
</a>
</g>
</g>
<!-- dir_bcbb2cf9a3d3d83e5515c82071a07177 -->
<g id="node10" class="node">
<title>dir_bcbb2cf9a3d3d83e5515c82071a07177</title>
<g id="a_node10"><a xlink:href="dir_bcbb2cf9a3d3d83e5515c82071a07177.html" target="_top" xlink:title="Framework">
<polygon fill="none" stroke="#ff0000" points="187.5,-36 116.5,-36 116.5,0 187.5,0 187.5,-36"/>
<text text-anchor="middle" x="152" y="-15.5" font-family="Helvetica,sans-Serif" font-size="10.00" fill="#000000">Framework</text>
</a>
</g>
</g>
<!-- dir_f8afc936feb89e961bf89d3429577266&#45;&gt;dir_bcbb2cf9a3d3d83e5515c82071a07177 -->
<g id="edge18" class="edge">
<title>dir_f8afc936feb89e961bf89d3429577266&#45;&gt;dir_bcbb2cf9a3d3d83e5515c82071a07177</title>
<path fill="none" stroke="#000000" d="M158.4447,-444.1115C128.472,-437.0282 82.8928,-422.6161 52,-396 17.0015,-365.8466 0,-352.1966 0,-306 0,-306 0,-306 0,-162 0,-102.3163 62.5243,-59.9567 107.3716,-37.2497"/>
<polygon fill="#000000" stroke="#000000" points="108.9275,-40.3849 116.3628,-32.8372 105.8435,-34.1009 108.9275,-40.3849"/>
<g id="a_edge18&#45;headlabel"><a xlink:href="dir_000388_000036.html" target="_top" xlink:title="18">
<text text-anchor="middle" x="106.9515" y="-42.0174" font-family="Helvetica,sans-Serif" font-size="10.00" fill="#000000">18</text>
</a>
</g>
</g>
<!-- dir_f8afc936feb89e961bf89d3429577266&#45;&gt;dir_2171f7ec022c5423887b07c69b2f5b48 -->
<g id="edge20" class="edge">
<title>dir_f8afc936feb89e961bf89d3429577266&#45;&gt;dir_2171f7ec022c5423887b07c69b2f5b48</title>
<path fill="none" stroke="#000000" d="M158.4429,-437.386C114.3203,-416.8976 38,-371.9293 38,-306 38,-306 38,-306 38,-234 38,-183.147 82.2447,-139.7674 115.6064,-114.2861"/>
<polygon fill="#000000" stroke="#000000" points="117.8693,-116.9655 123.8202,-108.1998 113.7018,-111.3413 117.8693,-116.9655"/>
<g id="a_edge20&#45;headlabel"><a xlink:href="dir_000388_000060.html" target="_top" xlink:title="16">
<text text-anchor="middle" x="116.6716" y="-118.8868" font-family="Helvetica,sans-Serif" font-size="10.00" fill="#000000">16</text>
</a>
</g>
</g>
<!-- dir_4ab6b4cc6a7edbff49100e9123df213f&#45;&gt;dir_2171f7ec022c5423887b07c69b2f5b48 -->
<g id="edge8" class="edge">
<title>dir_4ab6b4cc6a7edbff49100e9123df213f&#45;&gt;dir_2171f7ec022c5423887b07c69b2f5b48</title>
<path fill="none" stroke="#000000" d="M193.8977,-143.8314C185.6348,-135.454 176.4665,-125.3531 168.7452,-116.1749"/>
<polygon fill="#000000" stroke="#000000" points="171.4341,-113.9341 162.3913,-108.4133 166.0175,-118.3683 171.4341,-113.9341"/>
<g id="a_edge8&#45;headlabel"><a xlink:href="dir_000018_000060.html" target="_top" xlink:title="2">
<text text-anchor="middle" x="175.908" y="-112.4171" font-family="Helvetica,sans-Serif" font-size="10.00" fill="#000000">2</text>
</a>
</g>
</g>
<!-- dir_6af676bf18881990e4083e191d0e63e0&#45;&gt;dir_4ab6b4cc6a7edbff49100e9123df213f -->
<g id="edge9" class="edge">
<title>dir_6af676bf18881990e4083e191d0e63e0&#45;&gt;dir_4ab6b4cc6a7edbff49100e9123df213f</title>
<path fill="none" stroke="#000000" d="M237.6821,-215.8314C234.5124,-207.9617 230.73,-198.5712 227.2187,-189.8533"/>
<polygon fill="#000000" stroke="#000000" points="230.3992,-188.3815 223.4165,-180.4133 223.9061,-190.9968 230.3992,-188.3815"/>
<g id="a_edge9&#45;headlabel"><a xlink:href="dir_000010_000018.html" target="_top" xlink:title="3">
<text text-anchor="middle" x="234.3758" y="-188.155" font-family="Helvetica,sans-Serif" font-size="10.00" fill="#000000">3</text>
</a>
</g>
</g>
<!-- dir_37c90836491b695b472bf98d1be8336b&#45;&gt;dir_4ab6b4cc6a7edbff49100e9123df213f -->
<g id="edge10" class="edge">
<title>dir_37c90836491b695b472bf98d1be8336b&#45;&gt;dir_4ab6b4cc6a7edbff49100e9123df213f</title>
<path fill="none" stroke="#000000" d="M253.5398,-36.0206C248.9458,-54.2554 241.4278,-83.2155 234,-108 231.4587,-116.4796 228.492,-125.6367 225.7087,-133.9589"/>
<polygon fill="#000000" stroke="#000000" points="222.3381,-133.0002 222.4456,-143.5945 228.9683,-135.2455 222.3381,-133.0002"/>
<g id="a_edge10&#45;headlabel"><a xlink:href="dir_000254_000018.html" target="_top" xlink:title="16">
<text text-anchor="middle" x="220.8018" y="-126.1848" font-family="Helvetica,sans-Serif" font-size="10.00" fill="#000000">16</text>
</a>
</g>
</g>
<!-- dir_37c90836491b695b472bf98d1be8336b&#45;&gt;dir_2171f7ec022c5423887b07c69b2f5b48 -->
<g id="edge11" class="edge">
<title>dir_37c90836491b695b472bf98d1be8336b&#45;&gt;dir_2171f7ec022c5423887b07c69b2f5b48</title>
<path fill="none" stroke="#000000" d="M237.2121,-36.1628C224.6703,-45.2859 208.3743,-56.4541 193.3569,-66.2489"/>
<polygon fill="#000000" stroke="#000000" points="191.2077,-63.4702 184.7007,-71.8314 195.0016,-69.3529 191.2077,-63.4702"/>
<g id="a_edge11&#45;headlabel"><a xlink:href="dir_000254_000060.html" target="_top" xlink:title="7">
<text text-anchor="middle" x="192.6898" y="-56.6359" font-family="Helvetica,sans-Serif" font-size="10.00" fill="#000000">7</text>
</a>
</g>
</g>
<!-- dir_bcbb2cf9a3d3d83e5515c82071a07177&#45;&gt;dir_4ab6b4cc6a7edbff49100e9123df213f -->
<g id="edge14" class="edge">
<title>dir_bcbb2cf9a3d3d83e5515c82071a07177&#45;&gt;dir_4ab6b4cc6a7edbff49100e9123df213f</title>
<path fill="none" stroke="#000000" d="M173.438,-36.1941C183.384,-45.8202 194.4336,-58.4418 201,-72 210.3504,-91.3064 214.0057,-115.3719 215.3747,-133.7588"/>
<polygon fill="#000000" stroke="#000000" points="211.8861,-134.0621 215.9423,-143.8497 218.8751,-133.6689 211.8861,-134.0621"/>
<g id="a_edge14&#45;headlabel"><a xlink:href="dir_000036_000018.html" target="_top" xlink:title="8">
<text text-anchor="middle" x="208.8496" y="-128.1326" font-family="Helvetica,sans-Serif" font-size="10.00" fill="#000000">8</text>
</a>
</g>
</g>
<!-- dir_bcbb2cf9a3d3d83e5515c82071a07177&#45;&gt;dir_2171f7ec022c5423887b07c69b2f5b48 -->
<g id="edge15" class="edge">
<title>dir_bcbb2cf9a3d3d83e5515c82071a07177&#45;&gt;dir_2171f7ec022c5423887b07c69b2f5b48</title>
<path fill="none" stroke="#000000" d="M157.976,-36.4133C158.7071,-44.0593 158.9203,-53.1084 158.6155,-61.5726"/>
<polygon fill="#000000" stroke="#000000" points="155.1048,-61.6264 157.9524,-71.8314 162.0902,-62.078 155.1048,-61.6264"/>
<g id="a_edge15&#45;headlabel"><a xlink:href="dir_000036_000060.html" target="_top" xlink:title="68">
<text text-anchor="middle" x="152.5032" y="-55.3562" font-family="Helvetica,sans-Serif" font-size="10.00" fill="#000000">68</text>
</a>
</g>
</g>
<!-- dir_2171f7ec022c5423887b07c69b2f5b48&#45;&gt;dir_4ab6b4cc6a7edbff49100e9123df213f -->
<g id="edge25" class="edge">
<title>dir_2171f7ec022c5423887b07c69b2f5b48&#45;&gt;dir_4ab6b4cc6a7edbff49100e9123df213f</title>
<path fill="none" stroke="#000000" d="M174.3434,-108.4133C182.54,-116.7389 191.6014,-126.7282 199.2458,-135.8144"/>
<polygon fill="#000000" stroke="#000000" points="196.7623,-138.3063 205.8025,-143.8314 202.1809,-133.8747 196.7623,-138.3063"/>
<g id="a_edge25&#45;headlabel"><a xlink:href="dir_000060_000018.html" target="_top" xlink:title="29">
<text text-anchor="middle" x="192.2888" y="-134.8213" font-family="Helvetica,sans-Serif" font-size="10.00" fill="#000000">29</text>
</a>
</g>
</g>
<!-- dir_2171f7ec022c5423887b07c69b2f5b48&#45;&gt;dir_37c90836491b695b472bf98d1be8336b -->
<g id="edge26" class="edge">
<title>dir_2171f7ec022c5423887b07c69b2f5b48&#45;&gt;dir_37c90836491b695b472bf98d1be8336b</title>
<path fill="none" stroke="#000000" d="M172.7959,-71.8314C186.8095,-61.6379 205.5078,-48.8928 221.8724,-38.3629"/>
<polygon fill="#000000" stroke="#000000" points="224.1132,-41.0861 230.6792,-32.7712 220.3611,-35.1767 224.1132,-41.0861"/>
<g id="a_edge26&#45;headlabel"><a xlink:href="dir_000060_000254.html" target="_top" xlink:title="1">
<text text-anchor="middle" x="222.6005" y="-42.9098" font-family="Helvetica,sans-Serif" font-size="10.00" fill="#000000">1</text>
</a>
</g>
</g>
<!-- dir_2171f7ec022c5423887b07c69b2f5b48&#45;&gt;dir_bcbb2cf9a3d3d83e5515c82071a07177 -->
<g id="edge27" class="edge">
<title>dir_2171f7ec022c5423887b07c69b2f5b48&#45;&gt;dir_bcbb2cf9a3d3d83e5515c82071a07177</title>
<path fill="none" stroke="#000000" d="M146.0476,-71.8314C145.2972,-64.131 145.0763,-54.9743 145.3849,-46.4166"/>
<polygon fill="#000000" stroke="#000000" points="148.8792,-46.6161 146.024,-36.4133 141.8935,-46.1697 148.8792,-46.6161"/>
<g id="a_edge27&#45;headlabel"><a xlink:href="dir_000060_000036.html" target="_top" xlink:title="7">
<text text-anchor="middle" x="151.4836" y="-47.8844" font-family="Helvetica,sans-Serif" font-size="10.00" fill="#000000">7</text>
</a>
</g>
</g>
</g>
</svg>
        <g id="navigator" transform="translate(0 0)" fill="#404254">
                <rect fill="#f2f5e9" fill-opacity="0.5" stroke="#606060" stroke-width=".5" x="0" y="0" width="60" height="60"/>
                <use id="zoomplus" xlink:href="#zoomPlus" x="17" y="9" onmousedown="handleZoom(evt,'in')"/>
                <use id="zoomminus" xlink:href="#zoomMin" x="42" y="9" onmousedown="handleZoom(evt,'out')"/>
                <use id="reset" xlink:href="#resetDef" x="30" y="36" onmousedown="handleReset()"/>
                <g id="arrowUp" xlink:href="#dirArrow" transform="translate(30 24)" onmousedown="handlePan(0,-1)">
                  <use xlink:href="#rim" fill="#404040">
                        <set attributeName="fill" to="#808080" begin="arrowUp.mouseover" end="arrowUp.mouseout"/>
                  </use>
                  <path fill="none" stroke="white" stroke-width="1.5" d="M0,-3.0v7 M-2.5,-0.5L0,-3.0L2.5,-0.5"/>
                </g>
                <g id="arrowRight" xlink:href="#dirArrow" transform="rotate(90) translate(36 -43)" onmousedown="handlePan(1,0)">
                  <use xlink:href="#rim" fill="#404040">
                        <set attributeName="fill" to="#808080" begin="arrowRight.mouseover" end="arrowRight.mouseout"/>
                  </use>
                  <path fill="none" stroke="white" stroke-width="1.5" d="M0,-3.0v7 M-2.5,-0.5L0,-3.0L2.5,-0.5"/>
                </g>
                <g id="arrowDown" xlink:href="#dirArrow" transform="rotate(180) translate(-30 -48)" onmousedown="handlePan(0,1)">
                  <use xlink:href="#rim" fill="#404040">
                        <set attributeName="fill" to="#808080" begin="arrowDown.mouseover" end="arrowDown.mouseout"/>
                  </use>
                  <path fill="none" stroke="white" stroke-width="1.5" d="M0,-3.0v7 M-2.5,-0.5L0,-3.0L2.5,-0.5"/>
                </g>
                <g id="arrowLeft" xlink:href="#dirArrow" transform="rotate(270) translate(-36 17)" onmousedown="handlePan(-1,0)">
                  <use xlink:href="#rim" fill="#404040">
                        <set attributeName="fill" to="#808080" begin="arrowLeft.mouseover" end="arrowLeft.mouseout"/>
                  </use>
                  <path fill="none" stroke="white" stroke-width="1.5" d="M0,-3.0v7 M-2.5,-0.5L0,-3.0L2.5,-0.5"/>
                </g>
        </g>
        <svg viewBox="0 0 15 15" width="100%" height="30px" preserveAspectRatio="xMaxYMin meet">
         <g id="arrow_out" transform="scale(0.3 0.3)">
          <a xlink:href="dir_577c839d346a264df4e9e588ca2a45dd_dep_org.svg" target="_base">
           <rect id="button" ry="5" rx="5" y="6" x="6" height="38" width="38"
                fill="#f2f5e9" fill-opacity="0.5" stroke="#606060" stroke-width="1.0"/>
           <path id="arrow"
             d="M 11.500037,31.436501 C 11.940474,20.09759 22.043105,11.32322 32.158766,21.979434 L 37.068811,17.246167 C 37.068811,17.246167 37.088388,32 37.088388,32 L 22.160133,31.978069 C 22.160133,31.978069 26.997745,27.140456 26.997745,27.140456 C 18.528582,18.264221 13.291696,25.230495 11.500037,31.436501 z"
             style="fill:#404040;"/>
          </a>
         </g>
        </svg>
</svg>
