<?xml version="1.0" encoding="UTF-8" standalone="no"?>
<!DOCTYPE svg PUBLIC "-//W3C//DTD SVG 1.1//EN"
 "http://www.w3.org/Graphics/SVG/1.1/DTD/svg11.dtd">
<!-- Generated by graphviz version 2.40.1 (20161225.0304)
 -->
<!-- Title: Graphical Class Hierarchy Pages: 1 -->
<svg width="290pt" height="127pt"
 viewBox="0.00 0.00 290.00 126.50" xmlns="http://www.w3.org/2000/svg" xmlns:xlink="http://www.w3.org/1999/xlink">
<g id="graph0" class="graph" transform="scale(1 1) rotate(0) translate(4 122.5)">
<title>Graphical Class Hierarchy</title>
<!-- Node0 -->
<g id="node1" class="node">
<title>Node0</title>
<g id="a_node1"><a xlink:href="d7/db5/classarrow_1_1compute_1_1UnaryKernel.html" target="_top" xlink:title="UnaryKernel">
<polygon fill="none" stroke="#000000" points="0,-44.5 0,-63.5 77,-63.5 77,-44.5 0,-44.5"/>
<text text-anchor="middle" x="38.5" y="-51.5" font-family="Helvetica,sans-Serif" font-size="10.00" fill="#000000">UnaryKernel</text>
</a>
</g>
</g>
<!-- Node1 -->
<g id="node2" class="node">
<title>Node1</title>
<g id="a_node2"><a xlink:href="d1/d1f/classo2_1_1framework_1_1HashByColumnKernel.html" target="_top" xlink:title="o2::framework::HashByColumn\lKernel">
<polygon fill="none" stroke="#000000" points="113,-88 113,-118 282,-118 282,-88 113,-88"/>
<text text-anchor="start" x="121" y="-106" font-family="Helvetica,sans-Serif" font-size="10.00" fill="#000000">o2::framework::HashByColumn</text>
<text text-anchor="middle" x="197.5" y="-95" font-family="Helvetica,sans-Serif" font-size="10.00" fill="#000000">Kernel</text>
</a>
</g>
</g>
<!-- Node0&#45;&gt;Node1 -->
<g id="edge1" class="edge">
<title>Node0&#45;&gt;Node1</title>
<path fill="none" stroke="#191970" d="M75.6207,-66.8388C87.5215,-70.8522 100.782,-75.2172 113,-79 122.615,-81.9769 132.8887,-85.014 142.8424,-87.8825"/>
<polygon fill="#191970" stroke="#191970" points="76.5908,-63.472 65.9964,-63.5707 74.34,-70.1003 76.5908,-63.472"/>
</g>
<!-- Node2 -->
<g id="node3" class="node">
<title>Node2</title>
<g id="a_node3"><a xlink:href="db/d8a/classo2_1_1framework_1_1SortedGroupByKernel.html" target="_top" xlink:title="Build ranges. ">
<polygon fill="none" stroke="#000000" points="120,-39 120,-69 275,-69 275,-39 120,-39"/>
<text text-anchor="start" x="128" y="-57" font-family="Helvetica,sans-Serif" font-size="10.00" fill="#000000">o2::framework::SortedGroup</text>
<text text-anchor="middle" x="197.5" y="-46" font-family="Helvetica,sans-Serif" font-size="10.00" fill="#000000">ByKernel</text>
</a>
</g>
</g>
<!-- Node0&#45;&gt;Node2 -->
<g id="edge2" class="edge">
<title>Node0&#45;&gt;Node2</title>
<path fill="none" stroke="#191970" d="M87.7032,-54C97.899,-54 108.8766,-54 119.8086,-54"/>
<polygon fill="#191970" stroke="#191970" points="87.3958,-50.5001 77.3958,-54 87.3957,-57.5001 87.3958,-50.5001"/>
</g>
<!-- Node3 -->
<g id="node4" class="node">
<title>Node3</title>
<g id="a_node4"><a xlink:href="d6/d60/classPrintingKernel.html" target="_top" xlink:title="PrintingKernel">
<polygon fill="none" stroke="#000000" points="155,-.5 155,-19.5 240,-19.5 240,-.5 155,-.5"/>
<text text-anchor="middle" x="197.5" y="-7.5" font-family="Helvetica,sans-Serif" font-size="10.00" fill="#000000">PrintingKernel</text>
</a>
</g>
</g>
<!-- Node0&#45;&gt;Node3 -->
<g id="edge3" class="edge">
<title>Node0&#45;&gt;Node3</title>
<path fill="none" stroke="#191970" d="M75.8546,-41.3266C87.6757,-37.4886 100.8314,-33.3944 113,-30 126.5046,-26.233 141.349,-22.5634 154.7775,-19.4177"/>
<polygon fill="#191970" stroke="#191970" points="74.6976,-38.0227 66.2899,-44.4694 76.8827,-44.6729 74.6976,-38.0227"/>
</g>
</g>
</svg>
