<?xml version="1.0" encoding="UTF-8" standalone="no"?>
<!DOCTYPE svg PUBLIC "-//W3C//DTD SVG 1.1//EN"
 "http://www.w3.org/Graphics/SVG/1.1/DTD/svg11.dtd">
<!-- Generated by graphviz version 2.40.1 (20161225.0304)
 -->
<!-- Title: Graphical Class Hierarchy Pages: 1 -->
<svg width="529pt" height="161pt"
 viewBox="0.00 0.00 529.00 161.00" xmlns="http://www.w3.org/2000/svg" xmlns:xlink="http://www.w3.org/1999/xlink">
<g id="graph0" class="graph" transform="scale(1 1) rotate(0) translate(4 157)">
<title>Graphical Class Hierarchy</title>
<!-- Node0 -->
<g id="node1" class="node">
<title>Node0</title>
<g id="a_node1"><a xlink:href="df/d40/classFairGenerator.html" target="_top" xlink:title="FairGenerator">
<polygon fill="none" stroke="#000000" points="0,-57.5 0,-76.5 83,-76.5 83,-57.5 0,-57.5"/>
<text text-anchor="middle" x="41.5" y="-64.5" font-family="Helvetica,sans-Serif" font-size="10.00" fill="#000000">FairGenerator</text>
</a>
</g>
</g>
<!-- Node1 -->
<g id="node2" class="node">
<title>Node1</title>
<g id="a_node2"><a xlink:href="d3/da7/classo2_1_1eventgen_1_1Generator.html" target="_top" xlink:title="o2::eventgen::Generator">
<polygon fill="none" stroke="#000000" points="139.5,-114.5 139.5,-133.5 274.5,-133.5 274.5,-114.5 139.5,-114.5"/>
<text text-anchor="middle" x="207" y="-121.5" font-family="Helvetica,sans-Serif" font-size="10.00" fill="#000000">o2::eventgen::Generator</text>
</a>
</g>
</g>
<!-- Node0&#45;&gt;Node1 -->
<g id="edge1" class="edge">
<title>Node0&#45;&gt;Node1</title>
<path fill="none" stroke="#191970" d="M66.9573,-81.4389C81.7633,-89.3335 101.0011,-98.7491 119,-105 129.7783,-108.7432 141.5652,-111.8966 152.9091,-114.4921"/>
<polygon fill="#191970" stroke="#191970" points="68.3812,-78.2289 57.9252,-76.5191 65.0328,-84.3762 68.3812,-78.2289"/>
</g>
<!-- Node4 -->
<g id="node5" class="node">
<title>Node4</title>
<g id="a_node5"><a xlink:href="d6/db8/classo2_1_1eventgen_1_1GeneratorFromFile.html" target="_top" xlink:title="o2::eventgen::GeneratorFromFile">
<polygon fill="none" stroke="#000000" points="119,-76.5 119,-95.5 295,-95.5 295,-76.5 119,-76.5"/>
<text text-anchor="middle" x="207" y="-83.5" font-family="Helvetica,sans-Serif" font-size="10.00" fill="#000000">o2::eventgen::GeneratorFromFile</text>
</a>
</g>
</g>
<!-- Node0&#45;&gt;Node4 -->
<g id="edge4" class="edge">
<title>Node0&#45;&gt;Node4</title>
<path fill="none" stroke="#191970" d="M93.5022,-72.97C103.2049,-74.0839 113.565,-75.2733 123.9318,-76.4635"/>
<polygon fill="#191970" stroke="#191970" points="93.5966,-69.458 83.2626,-71.7945 92.7982,-76.4123 93.5966,-69.458"/>
</g>
<!-- Node5 -->
<g id="node6" class="node">
<title>Node5</title>
<g id="a_node6"><a xlink:href="d9/df8/classo2_1_1eventgen_1_1Pythia6Generator.html" target="_top" xlink:title="o2::eventgen::Pythia6Generator">
<polygon fill="none" stroke="#000000" points="121,-38.5 121,-57.5 293,-57.5 293,-38.5 121,-38.5"/>
<text text-anchor="middle" x="207" y="-45.5" font-family="Helvetica,sans-Serif" font-size="10.00" fill="#000000">o2::eventgen::Pythia6Generator</text>
</a>
</g>
</g>
<!-- Node0&#45;&gt;Node5 -->
<g id="edge5" class="edge">
<title>Node0&#45;&gt;Node5</title>
<path fill="none" stroke="#191970" d="M93.5022,-61.03C103.2049,-59.9161 113.565,-58.7267 123.9318,-57.5365"/>
<polygon fill="#191970" stroke="#191970" points="92.7982,-57.5877 83.2626,-62.2055 93.5966,-64.542 92.7982,-57.5877"/>
</g>
<!-- Node6 -->
<g id="node7" class="node">
<title>Node6</title>
<g id="a_node7"><a xlink:href="d0/d7d/classo2_1_1eventgen_1_1Pythia8Generator.html" target="_top" xlink:title="o2::eventgen::Pythia8Generator">
<polygon fill="none" stroke="#000000" points="121,-.5 121,-19.5 293,-19.5 293,-.5 121,-.5"/>
<text text-anchor="middle" x="207" y="-7.5" font-family="Helvetica,sans-Serif" font-size="10.00" fill="#000000">o2::eventgen::Pythia8Generator</text>
</a>
</g>
</g>
<!-- Node0&#45;&gt;Node6 -->
<g id="edge6" class="edge">
<title>Node0&#45;&gt;Node6</title>
<path fill="none" stroke="#191970" d="M66.9573,-52.5611C81.7633,-44.6665 101.0011,-35.2509 119,-29 129.7783,-25.2568 141.5652,-22.1034 152.9091,-19.5079"/>
<polygon fill="#191970" stroke="#191970" points="65.0328,-49.6238 57.9252,-57.4809 68.3812,-55.7711 65.0328,-49.6238"/>
</g>
<!-- Node2 -->
<g id="node3" class="node">
<title>Node2</title>
<g id="a_node3"><a xlink:href="d4/d2f/classo2_1_1eventgen_1_1GeneratorHepMC.html" target="_top" xlink:title="o2::eventgen::GeneratorHepMC">
<polygon fill="none" stroke="#000000" points="341,-133.5 341,-152.5 511,-152.5 511,-133.5 341,-133.5"/>
<text text-anchor="middle" x="426" y="-140.5" font-family="Helvetica,sans-Serif" font-size="10.00" fill="#000000">o2::eventgen::GeneratorHepMC</text>
</a>
</g>
</g>
<!-- Node1&#45;&gt;Node2 -->
<g id="edge2" class="edge">
<title>Node1&#45;&gt;Node2</title>
<path fill="none" stroke="#191970" d="M284.9797,-130.7654C303.051,-132.3332 322.3743,-134.0096 340.7398,-135.603"/>
<polygon fill="#191970" stroke="#191970" points="285.0583,-127.2591 274.7932,-129.8816 284.4532,-134.2329 285.0583,-127.2591"/>
</g>
<!-- Node3 -->
<g id="node4" class="node">
<title>Node3</title>
<g id="a_node4"><a xlink:href="d2/d82/classo2_1_1eventgen_1_1GeneratorTGenerator.html" target="_top" xlink:title="o2::eventgen::GeneratorTGenerator">
<polygon fill="none" stroke="#000000" points="331,-95.5 331,-114.5 521,-114.5 521,-95.5 331,-95.5"/>
<text text-anchor="middle" x="426" y="-102.5" font-family="Helvetica,sans-Serif" font-size="10.00" fill="#000000">o2::eventgen::GeneratorTGenerator</text>
</a>
</g>
</g>
<!-- Node1&#45;&gt;Node3 -->
<g id="edge3" class="edge">
<title>Node1&#45;&gt;Node3</title>
<path fill="none" stroke="#191970" d="M284.922,-117.2396C299.7697,-115.9515 315.4645,-114.5898 330.7801,-113.2611"/>
<polygon fill="#191970" stroke="#191970" points="284.4532,-113.7671 274.7932,-118.1184 285.0583,-120.7409 284.4532,-113.7671"/>
</g>
</g>
</svg>
