<?xml version="1.0" encoding="UTF-8" standalone="no"?>
<!DOCTYPE svg PUBLIC "-//W3C//DTD SVG 1.1//EN"
 "http://www.w3.org/Graphics/SVG/1.1/DTD/svg11.dtd">
<!-- Generated by graphviz version 2.40.1 (20161225.0304)
 -->
<!-- Title: Graphical Class Hierarchy Pages: 1 -->
<svg width="515pt" height="1889pt"
 viewBox="0.00 0.00 515.00 1889.00" xmlns="http://www.w3.org/2000/svg" xmlns:xlink="http://www.w3.org/1999/xlink">
<g id="graph0" class="graph" transform="scale(1 1) rotate(0) translate(4 1885)">
<title>Graphical Class Hierarchy</title>
<!-- Node0 -->
<g id="node1" class="node">
<title>Node0</title>
<g id="a_node1"><a xlink:href="de/dac/classo2_1_1framework_1_1Task.html" target="_top" xlink:title="o2::framework::Task">
<polygon fill="none" stroke="#000000" points="0,-908.5 0,-927.5 116,-927.5 116,-908.5 0,-908.5"/>
<text text-anchor="middle" x="58" y="-915.5" font-family="Helvetica,sans-Serif" font-size="10.00" fill="#000000">o2::framework::Task</text>
</a>
</g>
</g>
<!-- Node1 -->
<g id="node2" class="node">
<title>Node1</title>
<g id="a_node2"><a xlink:href="d8/d0d/structATask.html" target="_top" xlink:title="ATask">
<polygon fill="none" stroke="#000000" points="211,-1861.5 211,-1880.5 255,-1880.5 255,-1861.5 211,-1861.5"/>
<text text-anchor="middle" x="233" y="-1868.5" font-family="Helvetica,sans-Serif" font-size="10.00" fill="#000000">ATask</text>
</a>
</g>
</g>
<!-- Node0&#45;&gt;Node1 -->
<g id="edge1" class="edge">
<title>Node0&#45;&gt;Node1</title>
<path fill="none" stroke="#191970" d="M58.6382,-937.9749C62.9401,-1067.0985 89.4503,-1780.7334 152,-1852 166.4827,-1868.501 192.3228,-1872.1053 210.9278,-1872.3105"/>
<polygon fill="#191970" stroke="#191970" points="62.1249,-937.5082 58.2998,-927.628 55.1286,-937.7371 62.1249,-937.5082"/>
</g>
<!-- Node2 -->
<g id="node3" class="node">
<title>Node2</title>
<g id="a_node3"><a xlink:href="d2/d10/structBTask.html" target="_top" xlink:title="BTask">
<polygon fill="none" stroke="#000000" points="210.5,-1823.5 210.5,-1842.5 255.5,-1842.5 255.5,-1823.5 210.5,-1823.5"/>
<text text-anchor="middle" x="233" y="-1830.5" font-family="Helvetica,sans-Serif" font-size="10.00" fill="#000000">BTask</text>
</a>
</g>
</g>
<!-- Node0&#45;&gt;Node2 -->
<g id="edge2" class="edge">
<title>Node0&#45;&gt;Node2</title>
<path fill="none" stroke="#191970" d="M58.7117,-937.5536C63.431,-1062.4758 91.8875,-1745.8013 152,-1814 166.3265,-1830.2536 191.6732,-1833.9832 210.2073,-1834.285"/>
<polygon fill="#191970" stroke="#191970" points="62.2079,-937.3853 58.3389,-927.5222 55.2128,-937.6454 62.2079,-937.3853"/>
</g>
<!-- Node3 -->
<g id="node4" class="node">
<title>Node3</title>
<g id="a_node4"><a xlink:href="df/d27/classo2_1_1emcal_1_1DigitizerSpec.html" target="_top" xlink:title="Create new digitizer spec. ">
<polygon fill="none" stroke="#000000" points="165.5,-1785.5 165.5,-1804.5 300.5,-1804.5 300.5,-1785.5 165.5,-1785.5"/>
<text text-anchor="middle" x="233" y="-1792.5" font-family="Helvetica,sans-Serif" font-size="10.00" fill="#000000">o2::emcal::DigitizerSpec</text>
</a>
</g>
</g>
<!-- Node0&#45;&gt;Node3 -->
<g id="edge3" class="edge">
<title>Node0&#45;&gt;Node3</title>
<path fill="none" stroke="#191970" d="M58.8196,-937.8513C64.0546,-1060.4062 94.4371,-1710.9954 152,-1776 155.8303,-1780.3255 160.4412,-1783.7632 165.4952,-1786.4848"/>
<polygon fill="#191970" stroke="#191970" points="62.3089,-937.5209 58.3915,-927.6769 55.3151,-937.8153 62.3089,-937.5209"/>
</g>
<!-- Node4 -->
<g id="node5" class="node">
<title>Node4</title>
<g id="a_node5"><a xlink:href="dc/dc7/classo2_1_1emcal_1_1DigitsWriterSpec.html" target="_top" xlink:title="Task for EMCAL digits writer within the data processing layer. ">
<polygon fill="none" stroke="#000000" points="157,-1747.5 157,-1766.5 309,-1766.5 309,-1747.5 157,-1747.5"/>
<text text-anchor="middle" x="233" y="-1754.5" font-family="Helvetica,sans-Serif" font-size="10.00" fill="#000000">o2::emcal::DigitsWriterSpec</text>
</a>
</g>
</g>
<!-- Node0&#45;&gt;Node4 -->
<g id="edge4" class="edge">
<title>Node0&#45;&gt;Node4</title>
<path fill="none" stroke="#191970" d="M58.918,-937.7024C64.6345,-1056.6684 96.9132,-1676.1049 152,-1738 155.361,-1741.7764 159.3171,-1744.8754 163.6426,-1747.4115"/>
<polygon fill="#191970" stroke="#191970" points="62.4051,-937.3448 58.4355,-927.5217 55.413,-937.6763 62.4051,-937.3448"/>
</g>
<!-- Node5 -->
<g id="node6" class="node">
<title>Node5</title>
<g id="a_node6"><a xlink:href="d1/d1b/classo2_1_1emcal_1_1reco__workflow_1_1CellConverterSpec.html" target="_top" xlink:title="Coverter task for EMCAL digits to EMCAL cells. ">
<polygon fill="none" stroke="#000000" points="162.5,-1698 162.5,-1728 303.5,-1728 303.5,-1698 162.5,-1698"/>
<text text-anchor="start" x="170.5" y="-1716" font-family="Helvetica,sans-Serif" font-size="10.00" fill="#000000">o2::emcal::reco_workflow</text>
<text text-anchor="middle" x="233" y="-1705" font-family="Helvetica,sans-Serif" font-size="10.00" fill="#000000">::CellConverterSpec</text>
</a>
</g>
</g>
<!-- Node0&#45;&gt;Node5 -->
<g id="edge5" class="edge">
<title>Node0&#45;&gt;Node5</title>
<path fill="none" stroke="#191970" d="M59.1326,-937.8996C65.8475,-1052.9329 101.8557,-1629.7114 152,-1689 155.0308,-1692.5835 158.5696,-1695.6462 162.4419,-1698.2622"/>
<polygon fill="#191970" stroke="#191970" points="62.6156,-937.5029 58.545,-927.7212 55.6272,-937.9064 62.6156,-937.5029"/>
</g>
<!-- Node6 -->
<g id="node7" class="node">
<title>Node6</title>
<g id="a_node7"><a xlink:href="d2/d53/classo2_1_1emcal_1_1reco__workflow_1_1ClusterizerSpec.html" target="_top" xlink:title="Clusterizer task for EMCAL digits. ">
<polygon fill="none" stroke="#000000" points="162.5,-1649 162.5,-1679 303.5,-1679 303.5,-1649 162.5,-1649"/>
<text text-anchor="start" x="170.5" y="-1667" font-family="Helvetica,sans-Serif" font-size="10.00" fill="#000000">o2::emcal::reco_workflow</text>
<text text-anchor="middle" x="233" y="-1656" font-family="Helvetica,sans-Serif" font-size="10.00" fill="#000000">::ClusterizerSpec</text>
</a>
</g>
</g>
<!-- Node0&#45;&gt;Node6 -->
<g id="edge6" class="edge">
<title>Node0&#45;&gt;Node6</title>
<path fill="none" stroke="#191970" d="M59.2885,-937.6557C66.6697,-1047.7363 104.9151,-1584.7863 152,-1640 155.0454,-1643.5712 158.5951,-1646.6246 162.4754,-1649.2338"/>
<polygon fill="#191970" stroke="#191970" points="62.7766,-937.3593 58.6218,-927.6131 55.792,-937.823 62.7766,-937.3593"/>
</g>
<!-- Node7 -->
<g id="node8" class="node">
<title>Node7</title>
<g id="a_node8"><a xlink:href="d0/d1c/classo2_1_1emcal_1_1reco__workflow_1_1DigitsPrinterSpec.html" target="_top" xlink:title="Example task for EMCAL digits monitoring. ">
<polygon fill="none" stroke="#000000" points="162.5,-1600 162.5,-1630 303.5,-1630 303.5,-1600 162.5,-1600"/>
<text text-anchor="start" x="170.5" y="-1618" font-family="Helvetica,sans-Serif" font-size="10.00" fill="#000000">o2::emcal::reco_workflow</text>
<text text-anchor="middle" x="233" y="-1607" font-family="Helvetica,sans-Serif" font-size="10.00" fill="#000000">::DigitsPrinterSpec</text>
</a>
</g>
</g>
<!-- Node0&#45;&gt;Node7 -->
<g id="edge7" class="edge">
<title>Node0&#45;&gt;Node7</title>
<path fill="none" stroke="#191970" d="M59.5058,-937.95C67.6868,-1044.1262 108.0445,-1539.9393 152,-1591 154.9663,-1594.4458 158.402,-1597.409 162.1498,-1599.956"/>
<polygon fill="#191970" stroke="#191970" points="62.9741,-937.4003 58.7229,-927.6958 55.9944,-937.9333 62.9741,-937.4003"/>
</g>
<!-- Node8 -->
<g id="node9" class="node">
<title>Node8</title>
<g id="a_node9"><a xlink:href="db/daa/classo2_1_1experimental_1_1mergers_1_1Merger.html" target="_top" xlink:title="Merger data processor class. ">
<polygon fill="none" stroke="#000000" points="160,-1551 160,-1581 306,-1581 306,-1551 160,-1551"/>
<text text-anchor="start" x="168" y="-1569" font-family="Helvetica,sans-Serif" font-size="10.00" fill="#000000">o2::experimental::mergers</text>
<text text-anchor="middle" x="233" y="-1558" font-family="Helvetica,sans-Serif" font-size="10.00" fill="#000000">::Merger</text>
</a>
</g>
</g>
<!-- Node0&#45;&gt;Node8 -->
<g id="edge8" class="edge">
<title>Node0&#45;&gt;Node8</title>
<path fill="none" stroke="#191970" d="M58.2523,-938.0306C59.8623,-1034.1595 71.4395,-1447.3857 152,-1541 155.2639,-1544.7928 159.0896,-1548.019 163.2703,-1550.7624"/>
<polygon fill="#191970" stroke="#191970" points="61.7504,-937.8689 58.1014,-927.9223 54.7512,-937.9735 61.7504,-937.8689"/>
</g>
<!-- Node9 -->
<g id="node10" class="node">
<title>Node9</title>
<g id="a_node10"><a xlink:href="df/d93/classo2_1_1fdd_1_1DigitReader.html" target="_top" xlink:title="o2::fdd::DigitReader">
<polygon fill="none" stroke="#000000" points="176.5,-1512.5 176.5,-1531.5 289.5,-1531.5 289.5,-1512.5 176.5,-1512.5"/>
<text text-anchor="middle" x="233" y="-1519.5" font-family="Helvetica,sans-Serif" font-size="10.00" fill="#000000">o2::fdd::DigitReader</text>
</a>
</g>
</g>
<!-- Node0&#45;&gt;Node9 -->
<g id="edge9" class="edge">
<title>Node0&#45;&gt;Node9</title>
<path fill="none" stroke="#191970" d="M58.3349,-938.0781C60.2995,-1030.999 73.1719,-1418.3597 152,-1503 158.4972,-1509.9762 167.0281,-1514.6182 176.1123,-1517.6659"/>
<polygon fill="#191970" stroke="#191970" points="61.8293,-937.7491 58.1383,-927.818 54.8306,-937.8832 61.8293,-937.7491"/>
</g>
<!-- Node10 -->
<g id="node11" class="node">
<title>Node10</title>
<g id="a_node11"><a xlink:href="d5/d80/classo2_1_1fdd_1_1FDDReconstructorDPL.html" target="_top" xlink:title="o2::fdd::FDDReconstructorDPL">
<polygon fill="none" stroke="#000000" points="152,-1474.5 152,-1493.5 314,-1493.5 314,-1474.5 152,-1474.5"/>
<text text-anchor="middle" x="233" y="-1481.5" font-family="Helvetica,sans-Serif" font-size="10.00" fill="#000000">o2::fdd::FDDReconstructorDPL</text>
</a>
</g>
</g>
<!-- Node0&#45;&gt;Node10 -->
<g id="edge10" class="edge">
<title>Node0&#45;&gt;Node10</title>
<path fill="none" stroke="#191970" d="M58.5644,-937.6147C61.5109,-1026.001 77.9634,-1386.3652 152,-1465 155.5645,-1468.7859 159.7283,-1471.8828 164.2524,-1474.4095"/>
<polygon fill="#191970" stroke="#191970" points="62.0624,-937.4918 58.2511,-927.6063 55.0658,-937.7109 62.0624,-937.4918"/>
</g>
<!-- Node11 -->
<g id="node12" class="node">
<title>Node11</title>
<g id="a_node12"><a xlink:href="df/d6d/classo2_1_1fdd_1_1FDDRecPointWriter.html" target="_top" xlink:title="o2::fdd::FDDRecPointWriter">
<polygon fill="none" stroke="#000000" points="159,-1436.5 159,-1455.5 307,-1455.5 307,-1436.5 159,-1436.5"/>
<text text-anchor="middle" x="233" y="-1443.5" font-family="Helvetica,sans-Serif" font-size="10.00" fill="#000000">o2::fdd::FDDRecPointWriter</text>
</a>
</g>
</g>
<!-- Node0&#45;&gt;Node11 -->
<g id="edge11" class="edge">
<title>Node0&#45;&gt;Node11</title>
<path fill="none" stroke="#191970" d="M58.8497,-937.8509C62.8911,-1022.7845 82.9374,-1354.5558 152,-1427 155.588,-1430.7637 159.7687,-1433.8446 164.3044,-1436.3602"/>
<polygon fill="#191970" stroke="#191970" points="62.3413,-937.5833 58.3907,-927.7526 55.3485,-937.9013 62.3413,-937.5833"/>
</g>
<!-- Node12 -->
<g id="node13" class="node">
<title>Node12</title>
<g id="a_node13"><a xlink:href="d8/dc0/classo2_1_1fdd_1_1RecPointReader.html" target="_top" xlink:title="o2::fdd::RecPointReader">
<polygon fill="none" stroke="#000000" points="167,-1398.5 167,-1417.5 299,-1417.5 299,-1398.5 167,-1398.5"/>
<text text-anchor="middle" x="233" y="-1405.5" font-family="Helvetica,sans-Serif" font-size="10.00" fill="#000000">o2::fdd::RecPointReader</text>
</a>
</g>
</g>
<!-- Node0&#45;&gt;Node12 -->
<g id="edge12" class="edge">
<title>Node0&#45;&gt;Node12</title>
<path fill="none" stroke="#191970" d="M59.1899,-938.1523C64.4046,-1019.5323 87.9095,-1322.7313 152,-1389 156.2174,-1393.3608 161.2313,-1396.8021 166.6667,-1399.5083"/>
<polygon fill="#191970" stroke="#191970" points="62.661,-937.5745 58.5506,-927.8095 55.6743,-938.0064 62.661,-937.5745"/>
</g>
<!-- Node13 -->
<g id="node14" class="node">
<title>Node13</title>
<g id="a_node14"><a xlink:href="d8/d30/classo2_1_1framework_1_1Dispatcher.html" target="_top" xlink:title="o2::framework::Dispatcher">
<polygon fill="none" stroke="#000000" points="160,-1360.5 160,-1379.5 306,-1379.5 306,-1360.5 160,-1360.5"/>
<text text-anchor="middle" x="233" y="-1367.5" font-family="Helvetica,sans-Serif" font-size="10.00" fill="#000000">o2::framework::Dispatcher</text>
</a>
</g>
</g>
<!-- Node0&#45;&gt;Node13 -->
<g id="edge13" class="edge">
<title>Node0&#45;&gt;Node13</title>
<path fill="none" stroke="#191970" d="M59.5581,-937.9934C65.959,-1014.9526 92.7416,-1290.7479 152,-1351 155.7475,-1354.8103 160.1037,-1357.9161 164.8145,-1360.4414"/>
<polygon fill="#191970" stroke="#191970" points="63.0261,-937.4549 58.7318,-927.7694 56.0488,-938.0189 63.0261,-937.4549"/>
</g>
<!-- Node14 -->
<g id="node15" class="node">
<title>Node14</title>
<g id="a_node15"><a xlink:href="d0/dc7/classo2_1_1ft0_1_1DigitReader.html" target="_top" xlink:title="o2::ft0::DigitReader">
<polygon fill="none" stroke="#000000" points="177.5,-1322.5 177.5,-1341.5 288.5,-1341.5 288.5,-1322.5 177.5,-1322.5"/>
<text text-anchor="middle" x="233" y="-1329.5" font-family="Helvetica,sans-Serif" font-size="10.00" fill="#000000">o2::ft0::DigitReader</text>
</a>
</g>
</g>
<!-- Node0&#45;&gt;Node14 -->
<g id="edge14" class="edge">
<title>Node0&#45;&gt;Node14</title>
<path fill="none" stroke="#191970" d="M59.9678,-937.6221C67.5917,-1009.7288 97.5014,-1258.677 152,-1313 158.9564,-1319.934 167.9324,-1324.5249 177.3641,-1327.5282"/>
<polygon fill="#191970" stroke="#191970" points="63.4442,-937.2121 58.9352,-927.6246 56.4812,-937.9314 63.4442,-937.2121"/>
</g>
<!-- Node15 -->
<g id="node16" class="node">
<title>Node15</title>
<g id="a_node16"><a xlink:href="d7/d4b/classo2_1_1ft0_1_1FT0ReconstructorDPL.html" target="_top" xlink:title="o2::ft0::FT0ReconstructorDPL">
<polygon fill="none" stroke="#000000" points="154.5,-1284.5 154.5,-1303.5 311.5,-1303.5 311.5,-1284.5 154.5,-1284.5"/>
<text text-anchor="middle" x="233" y="-1291.5" font-family="Helvetica,sans-Serif" font-size="10.00" fill="#000000">o2::ft0::FT0ReconstructorDPL</text>
</a>
</g>
</g>
<!-- Node0&#45;&gt;Node15 -->
<g id="edge15" class="edge">
<title>Node0&#45;&gt;Node15</title>
<path fill="none" stroke="#191970" d="M60.5341,-937.8841C69.578,-1005.7516 102.3962,-1226.7206 152,-1275 155.9333,-1278.8283 160.4837,-1281.9387 165.3812,-1284.46"/>
<polygon fill="#191970" stroke="#191970" points="63.9704,-937.168 59.2045,-927.7056 57.0293,-938.0748 63.9704,-937.168"/>
</g>
<!-- Node16 -->
<g id="node17" class="node">
<title>Node16</title>
<g id="a_node17"><a xlink:href="d5/de8/classo2_1_1ft0_1_1FT0RecPointWriter.html" target="_top" xlink:title="o2::ft0::FT0RecPointWriter">
<polygon fill="none" stroke="#000000" points="161.5,-1246.5 161.5,-1265.5 304.5,-1265.5 304.5,-1246.5 161.5,-1246.5"/>
<text text-anchor="middle" x="233" y="-1253.5" font-family="Helvetica,sans-Serif" font-size="10.00" fill="#000000">o2::ft0::FT0RecPointWriter</text>
</a>
</g>
</g>
<!-- Node0&#45;&gt;Node16 -->
<g id="edge16" class="edge">
<title>Node0&#45;&gt;Node16</title>
<path fill="none" stroke="#191970" d="M61.1794,-937.7796C71.683,-1000.7061 107.1703,-1194.6197 152,-1237 155.9886,-1240.7707 160.5778,-1243.8406 165.5014,-1246.3346"/>
<polygon fill="#191970" stroke="#191970" points="64.5855,-936.9215 59.5122,-927.6203 57.6779,-938.0551 64.5855,-936.9215"/>
</g>
<!-- Node17 -->
<g id="node18" class="node">
<title>Node17</title>
<g id="a_node18"><a xlink:href="dd/dea/classo2_1_1ft0_1_1RecPointReader.html" target="_top" xlink:title="o2::ft0::RecPointReader">
<polygon fill="none" stroke="#000000" points="168,-1208.5 168,-1227.5 298,-1227.5 298,-1208.5 168,-1208.5"/>
<text text-anchor="middle" x="233" y="-1215.5" font-family="Helvetica,sans-Serif" font-size="10.00" fill="#000000">o2::ft0::RecPointReader</text>
</a>
</g>
</g>
<!-- Node0&#45;&gt;Node17 -->
<g id="edge17" class="edge">
<title>Node0&#45;&gt;Node17</title>
<path fill="none" stroke="#191970" d="M61.9853,-937.6575C74.0646,-995.3516 111.9047,-1162.4488 152,-1199 156.59,-1203.1843 161.9234,-1206.499 167.6208,-1209.1181"/>
<polygon fill="#191970" stroke="#191970" points="65.3687,-936.7347 59.9199,-927.6484 58.5132,-938.1495 65.3687,-936.7347"/>
</g>
<!-- Node18 -->
<g id="node19" class="node">
<title>Node18</title>
<g id="a_node19"><a xlink:href="da/d84/classo2_1_1globaltracking_1_1TPCITSMatchingDPL.html" target="_top" xlink:title="o2::globaltracking\l::TPCITSMatchingDPL">
<polygon fill="none" stroke="#000000" points="173.5,-1159 173.5,-1189 292.5,-1189 292.5,-1159 173.5,-1159"/>
<text text-anchor="start" x="181.5" y="-1177" font-family="Helvetica,sans-Serif" font-size="10.00" fill="#000000">o2::globaltracking</text>
<text text-anchor="middle" x="233" y="-1166" font-family="Helvetica,sans-Serif" font-size="10.00" fill="#000000">::TPCITSMatchingDPL</text>
</a>
</g>
</g>
<!-- Node0&#45;&gt;Node18 -->
<g id="edge18" class="edge">
<title>Node0&#45;&gt;Node18</title>
<path fill="none" stroke="#191970" d="M60.2365,-937.6993C66.3532,-982.253 87.4615,-1091.4308 152,-1150 158.1908,-1155.6182 165.6405,-1159.9244 173.4814,-1163.2243"/>
<polygon fill="#191970" stroke="#191970" points="63.6876,-937.0915 58.9612,-927.6094 56.7429,-937.9694 63.6876,-937.0915"/>
</g>
<!-- Node19 -->
<g id="node20" class="node">
<title>Node19</title>
<g id="a_node20"><a xlink:href="d1/dd4/classo2_1_1globaltracking_1_1TrackTPCITSReader.html" target="_top" xlink:title="o2::globaltracking\l::TrackTPCITSReader">
<polygon fill="none" stroke="#000000" points="175,-1110 175,-1140 291,-1140 291,-1110 175,-1110"/>
<text text-anchor="start" x="183" y="-1128" font-family="Helvetica,sans-Serif" font-size="10.00" fill="#000000">o2::globaltracking</text>
<text text-anchor="middle" x="233" y="-1117" font-family="Helvetica,sans-Serif" font-size="10.00" fill="#000000">::TrackTPCITSReader</text>
</a>
</g>
</g>
<!-- Node0&#45;&gt;Node19 -->
<g id="edge19" class="edge">
<title>Node0&#45;&gt;Node19</title>
<path fill="none" stroke="#191970" d="M62.6297,-937.7824C72.4439,-975.3076 98.9216,-1056.9987 152,-1101 158.662,-1106.5227 166.5555,-1110.7745 174.7592,-1114.048"/>
<polygon fill="#191970" stroke="#191970" points="65.9186,-936.5045 60.1079,-927.6452 59.1256,-938.1944 65.9186,-936.5045"/>
</g>
<!-- Node20 -->
<g id="node21" class="node">
<title>Node20</title>
<g id="a_node21"><a xlink:href="db/dcc/classo2_1_1globaltracking_1_1TrackWriterTPCITS.html" target="_top" xlink:title="o2::globaltracking\l::TrackWriterTPCITS">
<polygon fill="none" stroke="#000000" points="177.5,-1061 177.5,-1091 288.5,-1091 288.5,-1061 177.5,-1061"/>
<text text-anchor="start" x="185.5" y="-1079" font-family="Helvetica,sans-Serif" font-size="10.00" fill="#000000">o2::globaltracking</text>
<text text-anchor="middle" x="233" y="-1068" font-family="Helvetica,sans-Serif" font-size="10.00" fill="#000000">::TrackWriterTPCITS</text>
</a>
</g>
</g>
<!-- Node0&#45;&gt;Node20 -->
<g id="edge20" class="edge">
<title>Node0&#45;&gt;Node20</title>
<path fill="none" stroke="#191970" d="M66.4484,-937.066C80.2153,-965.9649 110.2089,-1020.6921 152,-1051 159.5057,-1056.4433 168.2227,-1060.7216 177.1003,-1064.0785"/>
<polygon fill="#191970" stroke="#191970" points="69.4859,-935.2948 62.1187,-927.6806 63.1296,-938.2272 69.4859,-935.2948"/>
</g>
<!-- Node21 -->
<g id="node22" class="node">
<title>Node21</title>
<g id="a_node22"><a xlink:href="d7/dd0/classo2_1_1its_1_1ClustererDPL.html" target="_top" xlink:title="o2::its::ClustererDPL">
<polygon fill="none" stroke="#000000" points="175,-1022.5 175,-1041.5 291,-1041.5 291,-1022.5 175,-1022.5"/>
<text text-anchor="middle" x="233" y="-1029.5" font-family="Helvetica,sans-Serif" font-size="10.00" fill="#000000">o2::its::ClustererDPL</text>
</a>
</g>
</g>
<!-- Node0&#45;&gt;Node21 -->
<g id="edge21" class="edge">
<title>Node0&#45;&gt;Node21</title>
<path fill="none" stroke="#191970" d="M70.6158,-935.8628C86.8942,-957.5281 117.2825,-993.5556 152,-1013 159.0573,-1016.9526 166.9029,-1020.0851 174.8544,-1022.5672"/>
<polygon fill="#191970" stroke="#191970" points="73.2612,-933.5511 64.5317,-927.5472 67.6119,-937.6845 73.2612,-933.5511"/>
</g>
<!-- Node22 -->
<g id="node23" class="node">
<title>Node22</title>
<g id="a_node23"><a xlink:href="d2/d50/classo2_1_1its_1_1ClusterWriter.html" target="_top" xlink:title="o2::its::ClusterWriter">
<polygon fill="none" stroke="#000000" points="175,-984.5 175,-1003.5 291,-1003.5 291,-984.5 175,-984.5"/>
<text text-anchor="middle" x="233" y="-991.5" font-family="Helvetica,sans-Serif" font-size="10.00" fill="#000000">o2::its::ClusterWriter</text>
</a>
</g>
</g>
<!-- Node0&#45;&gt;Node22 -->
<g id="edge22" class="edge">
<title>Node0&#45;&gt;Node22</title>
<path fill="none" stroke="#191970" d="M79.227,-933.5572C97.6357,-946.3743 125.4282,-964.1473 152,-975 161.2266,-978.7684 171.3639,-981.8857 181.2507,-984.4291"/>
<polygon fill="#191970" stroke="#191970" points="81.1718,-930.6457 70.9902,-927.7154 77.1222,-936.3554 81.1718,-930.6457"/>
</g>
<!-- Node23 -->
<g id="node24" class="node">
<title>Node23</title>
<g id="a_node24"><a xlink:href="d2/d11/classo2_1_1its_1_1CookedTrackerDPL.html" target="_top" xlink:title="o2::its::CookedTrackerDPL">
<polygon fill="none" stroke="#000000" points="161.5,-946.5 161.5,-965.5 304.5,-965.5 304.5,-946.5 161.5,-946.5"/>
<text text-anchor="middle" x="233" y="-953.5" font-family="Helvetica,sans-Serif" font-size="10.00" fill="#000000">o2::its::CookedTrackerDPL</text>
</a>
</g>
</g>
<!-- Node0&#45;&gt;Node23 -->
<g id="edge23" class="edge">
<title>Node0&#45;&gt;Node23</title>
<path fill="none" stroke="#191970" d="M112.1237,-929.7526C136.8687,-935.1258 165.8028,-941.4086 189.1577,-946.4799"/>
<polygon fill="#191970" stroke="#191970" points="112.6749,-926.2908 102.1599,-927.589 111.1894,-933.1314 112.6749,-926.2908"/>
</g>
<!-- Node24 -->
<g id="node25" class="node">
<title>Node24</title>
<g id="a_node25"><a xlink:href="d1/d0b/classo2_1_1its_1_1DigitReader.html" target="_top" xlink:title="o2::its::DigitReader">
<polygon fill="none" stroke="#000000" points="178,-908.5 178,-927.5 288,-927.5 288,-908.5 178,-908.5"/>
<text text-anchor="middle" x="233" y="-915.5" font-family="Helvetica,sans-Serif" font-size="10.00" fill="#000000">o2::its::DigitReader</text>
</a>
</g>
</g>
<!-- Node0&#45;&gt;Node24 -->
<g id="edge24" class="edge">
<title>Node0&#45;&gt;Node24</title>
<path fill="none" stroke="#191970" d="M126.7033,-918C143.7012,-918 161.6925,-918 177.9441,-918"/>
<polygon fill="#191970" stroke="#191970" points="126.2725,-914.5001 116.2725,-918 126.2724,-921.5001 126.2725,-914.5001"/>
</g>
<!-- Node25 -->
<g id="node26" class="node">
<title>Node25</title>
<g id="a_node26"><a xlink:href="d0/d46/classo2_1_1its_1_1TestDataGetter.html" target="_top" xlink:title="o2::its::TestDataGetter">
<polygon fill="none" stroke="#000000" points="170,-870.5 170,-889.5 296,-889.5 296,-870.5 170,-870.5"/>
<text text-anchor="middle" x="233" y="-877.5" font-family="Helvetica,sans-Serif" font-size="10.00" fill="#000000">o2::its::TestDataGetter</text>
</a>
</g>
</g>
<!-- Node0&#45;&gt;Node25 -->
<g id="edge25" class="edge">
<title>Node0&#45;&gt;Node25</title>
<path fill="none" stroke="#191970" d="M112.1237,-906.2474C136.8687,-900.8742 165.8028,-894.5914 189.1577,-889.5201"/>
<polygon fill="#191970" stroke="#191970" points="111.1894,-902.8686 102.1599,-908.411 112.6749,-909.7092 111.1894,-902.8686"/>
</g>
<!-- Node26 -->
<g id="node27" class="node">
<title>Node26</title>
<g id="a_node27"><a xlink:href="db/d7e/classo2_1_1its_1_1TestDataReader.html" target="_top" xlink:title="o2::its::TestDataReader">
<polygon fill="none" stroke="#000000" points="168.5,-832.5 168.5,-851.5 297.5,-851.5 297.5,-832.5 168.5,-832.5"/>
<text text-anchor="middle" x="233" y="-839.5" font-family="Helvetica,sans-Serif" font-size="10.00" fill="#000000">o2::its::TestDataReader</text>
</a>
</g>
</g>
<!-- Node0&#45;&gt;Node26 -->
<g id="edge26" class="edge">
<title>Node0&#45;&gt;Node26</title>
<path fill="none" stroke="#191970" d="M79.227,-902.4428C97.6357,-889.6257 125.4282,-871.8527 152,-861 161.2266,-857.2316 171.3639,-854.1143 181.2507,-851.5709"/>
<polygon fill="#191970" stroke="#191970" points="77.1222,-899.6446 70.9902,-908.2846 81.1718,-905.3543 77.1222,-899.6446"/>
</g>
<!-- Node27 -->
<g id="node28" class="node">
<title>Node27</title>
<g id="a_node28"><a xlink:href="d6/d54/classo2_1_1its_1_1TrackerDPL.html" target="_top" xlink:title="o2::its::TrackerDPL">
<polygon fill="none" stroke="#000000" points="179.5,-794.5 179.5,-813.5 286.5,-813.5 286.5,-794.5 179.5,-794.5"/>
<text text-anchor="middle" x="233" y="-801.5" font-family="Helvetica,sans-Serif" font-size="10.00" fill="#000000">o2::its::TrackerDPL</text>
</a>
</g>
</g>
<!-- Node0&#45;&gt;Node27 -->
<g id="edge27" class="edge">
<title>Node0&#45;&gt;Node27</title>
<path fill="none" stroke="#191970" d="M70.6158,-900.1372C86.8942,-878.4719 117.2825,-842.4444 152,-823 160.3175,-818.3416 169.7301,-814.8223 179.1204,-812.1644"/>
<polygon fill="#191970" stroke="#191970" points="67.6119,-898.3155 64.5317,-908.4528 73.2612,-902.4489 67.6119,-898.3155"/>
</g>
<!-- Node28 -->
<g id="node29" class="node">
<title>Node28</title>
<g id="a_node29"><a xlink:href="d2/d07/classo2_1_1its_1_1TrackReader.html" target="_top" xlink:title="o2::its::TrackReader">
<polygon fill="none" stroke="#000000" points="177,-756.5 177,-775.5 289,-775.5 289,-756.5 177,-756.5"/>
<text text-anchor="middle" x="233" y="-763.5" font-family="Helvetica,sans-Serif" font-size="10.00" fill="#000000">o2::its::TrackReader</text>
</a>
</g>
</g>
<!-- Node0&#45;&gt;Node28 -->
<g id="edge28" class="edge">
<title>Node0&#45;&gt;Node28</title>
<path fill="none" stroke="#191970" d="M66.0012,-899.0021C79.3422,-869.7389 108.98,-813.9899 152,-785 159.4266,-779.9955 168.0069,-776.3006 176.7466,-773.5745"/>
<polygon fill="#191970" stroke="#191970" points="62.6521,-897.9235 61.8289,-908.4863 69.0595,-900.7423 62.6521,-897.9235"/>
</g>
<!-- Node29 -->
<g id="node30" class="node">
<title>Node29</title>
<g id="a_node30"><a xlink:href="d8/d28/classo2_1_1its_1_1TrackWriter.html" target="_top" xlink:title="o2::its::TrackWriter">
<polygon fill="none" stroke="#000000" points="179.5,-718.5 179.5,-737.5 286.5,-737.5 286.5,-718.5 179.5,-718.5"/>
<text text-anchor="middle" x="233" y="-725.5" font-family="Helvetica,sans-Serif" font-size="10.00" fill="#000000">o2::its::TrackWriter</text>
</a>
</g>
</g>
<!-- Node0&#45;&gt;Node29 -->
<g id="edge29" class="edge">
<title>Node0&#45;&gt;Node29</title>
<path fill="none" stroke="#191970" d="M62.9534,-898.725C73.1855,-862.9508 100.1575,-786.3528 152,-747 159.9384,-740.974 169.482,-736.8162 179.1887,-733.9571"/>
<polygon fill="#191970" stroke="#191970" points="59.561,-897.8617 60.3063,-908.4303 66.3144,-899.7037 59.561,-897.8617"/>
</g>
<!-- Node30 -->
<g id="node31" class="node">
<title>Node30</title>
<g id="a_node31"><a xlink:href="d6/da1/classo2_1_1its_1_1VertexReader.html" target="_top" xlink:title="o2::its::VertexReader">
<polygon fill="none" stroke="#000000" points="174,-680.5 174,-699.5 292,-699.5 292,-680.5 174,-680.5"/>
<text text-anchor="middle" x="233" y="-687.5" font-family="Helvetica,sans-Serif" font-size="10.00" fill="#000000">o2::its::VertexReader</text>
</a>
</g>
</g>
<!-- Node0&#45;&gt;Node30 -->
<g id="edge30" class="edge">
<title>Node0&#45;&gt;Node30</title>
<path fill="none" stroke="#191970" d="M60.943,-898.3029C68.255,-856.5876 91.2512,-759.0639 152,-709 158.3536,-703.7639 165.8935,-699.9175 173.7765,-697.1017"/>
<polygon fill="#191970" stroke="#191970" points="57.4696,-897.8562 59.3103,-908.2899 64.3779,-898.9856 57.4696,-897.8562"/>
</g>
<!-- Node31 -->
<g id="node32" class="node">
<title>Node31</title>
<g id="a_node32"><a xlink:href="d1/dc3/classo2_1_1itsmft_1_1ClusterReader.html" target="_top" xlink:title="o2::itsmft::ClusterReader">
<polygon fill="none" stroke="#000000" points="164,-642.5 164,-661.5 302,-661.5 302,-642.5 164,-642.5"/>
<text text-anchor="middle" x="233" y="-649.5" font-family="Helvetica,sans-Serif" font-size="10.00" fill="#000000">o2::itsmft::ClusterReader</text>
</a>
</g>
</g>
<!-- Node0&#45;&gt;Node31 -->
<g id="edge31" class="edge">
<title>Node0&#45;&gt;Node31</title>
<path fill="none" stroke="#191970" d="M59.4196,-898.3569C63.9066,-851.4496 81.9769,-732.2638 152,-671 156.3483,-667.1956 161.3154,-664.1162 166.6016,-661.6281"/>
<polygon fill="#191970" stroke="#191970" points="55.9245,-898.1522 58.5652,-908.4126 62.8993,-898.7449 55.9245,-898.1522"/>
</g>
<!-- Node34 -->
<g id="node35" class="node">
<title>Node34</title>
<g id="a_node35"><a xlink:href="d6/d47/classo2_1_1mft_1_1ClustererDPL.html" target="_top" xlink:title="o2::mft::ClustererDPL">
<polygon fill="none" stroke="#000000" points="172.5,-604.5 172.5,-623.5 293.5,-623.5 293.5,-604.5 172.5,-604.5"/>
<text text-anchor="middle" x="233" y="-611.5" font-family="Helvetica,sans-Serif" font-size="10.00" fill="#000000">o2::mft::ClustererDPL</text>
</a>
</g>
</g>
<!-- Node0&#45;&gt;Node34 -->
<g id="edge34" class="edge">
<title>Node0&#45;&gt;Node34</title>
<path fill="none" stroke="#191970" d="M61.9449,-898.0658C73.9113,-839.5592 111.4693,-670.1052 152,-633 157.8596,-627.6356 164.9402,-623.6992 172.4467,-620.8249"/>
<polygon fill="#191970" stroke="#191970" points="58.444,-897.7214 59.8995,-908.2158 65.306,-899.1043 58.444,-897.7214"/>
</g>
<!-- Node35 -->
<g id="node36" class="node">
<title>Node35</title>
<g id="a_node36"><a xlink:href="d1/d6e/classo2_1_1mft_1_1ClusterReader.html" target="_top" xlink:title="o2::mft::ClusterReader">
<polygon fill="none" stroke="#000000" points="170,-566.5 170,-585.5 296,-585.5 296,-566.5 170,-566.5"/>
<text text-anchor="middle" x="233" y="-573.5" font-family="Helvetica,sans-Serif" font-size="10.00" fill="#000000">o2::mft::ClusterReader</text>
</a>
</g>
</g>
<!-- Node0&#45;&gt;Node35 -->
<g id="edge35" class="edge">
<title>Node0&#45;&gt;Node35</title>
<path fill="none" stroke="#191970" d="M61.0785,-898.3699C71.3899,-835.0833 106.631,-638.0347 152,-595 157.135,-590.1292 163.2718,-586.4269 169.8388,-583.6242"/>
<polygon fill="#191970" stroke="#191970" points="57.6201,-897.8327 59.494,-908.2605 64.5319,-898.9401 57.6201,-897.8327"/>
</g>
<!-- Node36 -->
<g id="node37" class="node">
<title>Node36</title>
<g id="a_node37"><a xlink:href="db/d55/classo2_1_1mft_1_1ClusterWriter.html" target="_top" xlink:title="o2::mft::ClusterWriter">
<polygon fill="none" stroke="#000000" points="172,-528.5 172,-547.5 294,-547.5 294,-528.5 172,-528.5"/>
<text text-anchor="middle" x="233" y="-535.5" font-family="Helvetica,sans-Serif" font-size="10.00" fill="#000000">o2::mft::ClusterWriter</text>
</a>
</g>
</g>
<!-- Node0&#45;&gt;Node36 -->
<g id="edge36" class="edge">
<title>Node0&#45;&gt;Node36</title>
<path fill="none" stroke="#191970" d="M60.5009,-897.8956C69.4363,-829.2756 101.9429,-605.8539 152,-557 157.582,-551.5522 164.4132,-547.5572 171.7182,-544.6447"/>
<polygon fill="#191970" stroke="#191970" points="56.9817,-897.8243 59.1879,-908.1868 63.9254,-898.7102 56.9817,-897.8243"/>
</g>
<!-- Node37 -->
<g id="node38" class="node">
<title>Node37</title>
<g id="a_node38"><a xlink:href="de/dae/classo2_1_1mft_1_1DigitReader.html" target="_top" xlink:title="o2::mft::DigitReader">
<polygon fill="none" stroke="#000000" points="175.5,-490.5 175.5,-509.5 290.5,-509.5 290.5,-490.5 175.5,-490.5"/>
<text text-anchor="middle" x="233" y="-497.5" font-family="Helvetica,sans-Serif" font-size="10.00" fill="#000000">o2::mft::DigitReader</text>
</a>
</g>
</g>
<!-- Node0&#45;&gt;Node37 -->
<g id="edge37" class="edge">
<title>Node0&#45;&gt;Node37</title>
<path fill="none" stroke="#191970" d="M59.9379,-898.1814C67.4562,-825.352 97.041,-573.9059 152,-519 158.4377,-512.5686 166.6123,-508.1519 175.2792,-505.1479"/>
<polygon fill="#191970" stroke="#191970" points="56.4407,-897.9784 58.9202,-908.279 63.4054,-898.6804 56.4407,-897.9784"/>
</g>
<!-- Node38 -->
<g id="node39" class="node">
<title>Node38</title>
<g id="a_node39"><a xlink:href="da/d42/classo2_1_1mft_1_1TrackerDPL.html" target="_top" xlink:title="o2::mft::TrackerDPL">
<polygon fill="none" stroke="#000000" points="177,-452.5 177,-471.5 289,-471.5 289,-452.5 177,-452.5"/>
<text text-anchor="middle" x="233" y="-459.5" font-family="Helvetica,sans-Serif" font-size="10.00" fill="#000000">o2::mft::TrackerDPL</text>
</a>
</g>
</g>
<!-- Node0&#45;&gt;Node38 -->
<g id="edge38" class="edge">
<title>Node0&#45;&gt;Node38</title>
<path fill="none" stroke="#191970" d="M59.5301,-897.8238C65.8272,-820.1608 92.2764,-541.8405 152,-481 158.7794,-474.0938 167.5585,-469.5011 176.8261,-466.484"/>
<polygon fill="#191970" stroke="#191970" points="56.0135,-897.8975 58.7179,-908.1413 62.992,-898.4469 56.0135,-897.8975"/>
</g>
<!-- Node39 -->
<g id="node40" class="node">
<title>Node39</title>
<g id="a_node40"><a xlink:href="d8/d41/classo2_1_1mft_1_1TrackWriter.html" target="_top" xlink:title="o2::mft::TrackWriter">
<polygon fill="none" stroke="#000000" points="176.5,-414.5 176.5,-433.5 289.5,-433.5 289.5,-414.5 176.5,-414.5"/>
<text text-anchor="middle" x="233" y="-421.5" font-family="Helvetica,sans-Serif" font-size="10.00" fill="#000000">o2::mft::TrackWriter</text>
</a>
</g>
</g>
<!-- Node0&#45;&gt;Node39 -->
<g id="edge39" class="edge">
<title>Node0&#45;&gt;Node39</title>
<path fill="none" stroke="#191970" d="M59.1638,-897.6783C64.2767,-815.6138 87.44,-509.8623 152,-443 158.6219,-436.142 167.2132,-431.5573 176.3183,-428.5295"/>
<polygon fill="#191970" stroke="#191970" points="55.6433,-897.9162 58.5376,-908.108 62.6307,-898.3358 55.6433,-897.9162"/>
</g>
<!-- Node40 -->
<g id="node41" class="node">
<title>Node40</title>
<g id="a_node41"><a xlink:href="d7/de6/classo2_1_1phos_1_1DigitizerSpec.html" target="_top" xlink:title="Task for PHOS digitization in the data processing layer. ">
<polygon fill="none" stroke="#000000" points="169,-376.5 169,-395.5 297,-395.5 297,-376.5 169,-376.5"/>
<text text-anchor="middle" x="233" y="-383.5" font-family="Helvetica,sans-Serif" font-size="10.00" fill="#000000">o2::phos::DigitizerSpec</text>
</a>
</g>
</g>
<!-- Node0&#45;&gt;Node40 -->
<g id="edge40" class="edge">
<title>Node0&#45;&gt;Node40</title>
<path fill="none" stroke="#191970" d="M58.8257,-897.9946C62.768,-812.3998 82.4633,-478.0432 152,-405 156.7805,-399.9784 162.616,-396.172 168.9427,-393.3015"/>
<polygon fill="#191970" stroke="#191970" points="55.321,-898.0275 58.3787,-908.1715 62.3143,-898.3348 55.321,-898.0275"/>
</g>
<!-- Node41 -->
<g id="node42" class="node">
<title>Node41</title>
<g id="a_node42"><a xlink:href="d1/d85/classo2_1_1phos_1_1reco__workflow_1_1CellConverterSpec.html" target="_top" xlink:title="Coverter task for PHOS digits to AOD PHOS cells. ">
<polygon fill="none" stroke="#000000" points="166,-327 166,-357 300,-357 300,-327 166,-327"/>
<text text-anchor="start" x="174" y="-345" font-family="Helvetica,sans-Serif" font-size="10.00" fill="#000000">o2::phos::reco_workflow</text>
<text text-anchor="middle" x="233" y="-334" font-family="Helvetica,sans-Serif" font-size="10.00" fill="#000000">::CellConverterSpec</text>
</a>
</g>
</g>
<!-- Node0&#45;&gt;Node41 -->
<g id="edge41" class="edge">
<title>Node0&#45;&gt;Node41</title>
<path fill="none" stroke="#191970" d="M58.671,-898.3602C62.0823,-809.8434 80.2615,-448.7603 152,-367 155.9796,-362.4644 160.7622,-358.7404 165.9884,-355.6843"/>
<polygon fill="#191970" stroke="#191970" points="55.1723,-898.2611 58.3042,-908.3824 62.1677,-898.5172 55.1723,-898.2611"/>
</g>
<!-- Node42 -->
<g id="node43" class="node">
<title>Node42</title>
<g id="a_node43"><a xlink:href="d4/d5f/classo2_1_1phos_1_1reco__workflow_1_1ClusterizerSpec.html" target="_top" xlink:title="Clusterizer task for PHOS digits. ">
<polygon fill="none" stroke="#000000" points="166,-278 166,-308 300,-308 300,-278 166,-278"/>
<text text-anchor="start" x="174" y="-296" font-family="Helvetica,sans-Serif" font-size="10.00" fill="#000000">o2::phos::reco_workflow</text>
<text text-anchor="middle" x="233" y="-285" font-family="Helvetica,sans-Serif" font-size="10.00" fill="#000000">::ClusterizerSpec</text>
</a>
</g>
</g>
<!-- Node0&#45;&gt;Node42 -->
<g id="edge42" class="edge">
<title>Node0&#45;&gt;Node42</title>
<path fill="none" stroke="#191970" d="M58.343,-898.3686C60.3673,-804.9953 73.5474,-406.6393 152,-317 155.9604,-312.4749 160.7298,-308.7837 165.9476,-305.7753"/>
<polygon fill="#191970" stroke="#191970" points="54.8428,-898.3486 58.144,-908.4159 61.8415,-898.4872 54.8428,-898.3486"/>
</g>
<!-- Node43 -->
<g id="node44" class="node">
<title>Node43</title>
<g id="a_node44"><a xlink:href="d1/d97/classo2_1_1phos_1_1reco__workflow_1_1DigitsPrinterSpec.html" target="_top" xlink:title="Example task for PHOS digits monitoring. ">
<polygon fill="none" stroke="#000000" points="166,-229 166,-259 300,-259 300,-229 166,-229"/>
<text text-anchor="start" x="174" y="-247" font-family="Helvetica,sans-Serif" font-size="10.00" fill="#000000">o2::phos::reco_workflow</text>
<text text-anchor="middle" x="233" y="-236" font-family="Helvetica,sans-Serif" font-size="10.00" fill="#000000">::DigitsPrinterSpec</text>
</a>
</g>
</g>
<!-- Node0&#45;&gt;Node43 -->
<g id="edge43" class="edge">
<title>Node0&#45;&gt;Node43</title>
<path fill="none" stroke="#191970" d="M59.6066,-898.0753C68.1531,-794.1504 109.4879,-317.1427 152,-268 155.9342,-263.4522 160.6859,-259.7455 165.8923,-256.7271"/>
<polygon fill="#191970" stroke="#191970" points="56.1097,-897.8964 58.7854,-908.1478 63.0866,-898.4653 56.1097,-897.8964"/>
</g>
<!-- Node44 -->
<g id="node45" class="node">
<title>Node44</title>
<g id="a_node45"><a xlink:href="d2/db5/classo2_1_1tof_1_1ClusterReader.html" target="_top" xlink:title="o2::tof::ClusterReader">
<polygon fill="none" stroke="#000000" points="172,-190.5 172,-209.5 294,-209.5 294,-190.5 172,-190.5"/>
<text text-anchor="middle" x="233" y="-197.5" font-family="Helvetica,sans-Serif" font-size="10.00" fill="#000000">o2::tof::ClusterReader</text>
</a>
</g>
</g>
<!-- Node0&#45;&gt;Node44 -->
<g id="edge44" class="edge">
<title>Node0&#45;&gt;Node44</title>
<path fill="none" stroke="#191970" d="M59.3293,-898.2598C66.7944,-789.9603 104.8547,-270.9411 152,-219 157.4364,-213.0106 164.3704,-208.7323 171.8866,-205.7032"/>
<polygon fill="#191970" stroke="#191970" points="55.825,-898.2047 58.6362,-908.4198 62.8088,-898.6812 55.825,-898.2047"/>
</g>
<!-- Node45 -->
<g id="node46" class="node">
<title>Node45</title>
<g id="a_node46"><a xlink:href="d0/d73/classo2_1_1tof_1_1ClusterWriter.html" target="_top" xlink:title="o2::tof::ClusterWriter">
<polygon fill="none" stroke="#000000" points="174,-152.5 174,-171.5 292,-171.5 292,-152.5 174,-152.5"/>
<text text-anchor="middle" x="233" y="-159.5" font-family="Helvetica,sans-Serif" font-size="10.00" fill="#000000">o2::tof::ClusterWriter</text>
</a>
</g>
</g>
<!-- Node0&#45;&gt;Node45 -->
<g id="edge45" class="edge">
<title>Node0&#45;&gt;Node45</title>
<path fill="none" stroke="#191970" d="M59.1872,-898.2464C66.0794,-786.4433 102.3686,-236.0561 152,-181 157.8995,-174.4557 165.5866,-169.9513 173.8743,-166.8864"/>
<polygon fill="#191970" stroke="#191970" points="55.6817,-898.2325 58.5667,-908.427 62.6687,-898.6585 55.6817,-898.2325"/>
</g>
<!-- Node46 -->
<g id="node47" class="node">
<title>Node46</title>
<g id="a_node47"><a xlink:href="d9/d97/classo2_1_1tof_1_1DigitReader.html" target="_top" xlink:title="o2::tof::DigitReader">
<polygon fill="none" stroke="#000000" points="177.5,-114.5 177.5,-133.5 288.5,-133.5 288.5,-114.5 177.5,-114.5"/>
<text text-anchor="middle" x="233" y="-121.5" font-family="Helvetica,sans-Serif" font-size="10.00" fill="#000000">o2::tof::DigitReader</text>
</a>
</g>
</g>
<!-- Node0&#45;&gt;Node46 -->
<g id="edge46" class="edge">
<title>Node0&#45;&gt;Node46</title>
<path fill="none" stroke="#191970" d="M59.0542,-898.3162C65.3872,-783.293 99.8661,-201.1915 152,-143 158.6504,-135.5769 167.6003,-130.775 177.1269,-127.7206"/>
<polygon fill="#191970" stroke="#191970" points="55.5501,-898.2989 58.5018,-908.4742 62.5398,-898.6791 55.5501,-898.2989"/>
</g>
<!-- Node47 -->
<g id="node48" class="node">
<title>Node47</title>
<g id="a_node48"><a xlink:href="de/dd3/classo2_1_1tof_1_1TOFCalibWriter.html" target="_top" xlink:title="o2::tof::TOFCalibWriter">
<polygon fill="none" stroke="#000000" points="169.5,-76.5 169.5,-95.5 296.5,-95.5 296.5,-76.5 169.5,-76.5"/>
<text text-anchor="middle" x="233" y="-83.5" font-family="Helvetica,sans-Serif" font-size="10.00" fill="#000000">o2::tof::TOFCalibWriter</text>
</a>
</g>
</g>
<!-- Node0&#45;&gt;Node47 -->
<g id="edge47" class="edge">
<title>Node0&#45;&gt;Node47</title>
<path fill="none" stroke="#191970" d="M58.9484,-898.0935C64.7865,-779.2273 97.4046,-166.2828 152,-105 156.8041,-99.6075 162.8215,-95.5966 169.395,-92.6334"/>
<polygon fill="#191970" stroke="#191970" points="55.4427,-898.1281 58.4545,-908.2859 62.4345,-898.4671 55.4427,-898.1281"/>
</g>
<!-- Node48 -->
<g id="node49" class="node">
<title>Node48</title>
<g id="a_node49"><a xlink:href="d3/d1d/classo2_1_1tof_1_1TOFMatchedWriter.html" target="_top" xlink:title="o2::tof::TOFMatchedWriter">
<polygon fill="none" stroke="#000000" points="161.5,-38.5 161.5,-57.5 304.5,-57.5 304.5,-38.5 161.5,-38.5"/>
<text text-anchor="middle" x="233" y="-45.5" font-family="Helvetica,sans-Serif" font-size="10.00" fill="#000000">o2::tof::TOFMatchedWriter</text>
</a>
</g>
</g>
<!-- Node0&#45;&gt;Node48 -->
<g id="edge48" class="edge">
<title>Node0&#45;&gt;Node48</title>
<path fill="none" stroke="#191970" d="M58.8313,-898.3101C64.137,-776.752 94.8724,-131.4551 152,-67 155.3532,-63.2167 159.3036,-60.1127 163.6252,-57.573"/>
<polygon fill="#191970" stroke="#191970" points="55.3303,-898.2605 58.3972,-908.4017 62.3239,-898.5614 55.3303,-898.2605"/>
</g>
<!-- Node49 -->
<g id="node50" class="node">
<title>Node49</title>
<g id="a_node50"><a xlink:href="d1/d90/classo2_1_1tpc_1_1TrackReader.html" target="_top" xlink:title="&lt; DPL device to read and send the TPC tracks (+MC) info ">
<polygon fill="none" stroke="#000000" points="175.5,-.5 175.5,-19.5 290.5,-19.5 290.5,-.5 175.5,-.5"/>
<text text-anchor="middle" x="233" y="-7.5" font-family="Helvetica,sans-Serif" font-size="10.00" fill="#000000">o2::tpc::TrackReader</text>
</a>
</g>
</g>
<!-- Node0&#45;&gt;Node49 -->
<g id="edge49" class="edge">
<title>Node0&#45;&gt;Node49</title>
<path fill="none" stroke="#191970" d="M58.7378,-898.2092C63.5714,-773.2362 92.3866,-96.5768 152,-29 158.211,-21.9593 166.4899,-17.2691 175.3862,-14.1896"/>
<polygon fill="#191970" stroke="#191970" points="55.238,-898.1393 58.355,-908.2653 62.2329,-898.4057 55.238,-898.1393"/>
</g>
<!-- Node32 -->
<g id="node33" class="node">
<title>Node32</title>
<g id="a_node33"><a xlink:href="d9/d77/classo2_1_1itsmft_1_1ITSClusterReader.html" target="_top" xlink:title="o2::itsmft::ITSClusterReader">
<polygon fill="none" stroke="#000000" points="352,-661.5 352,-680.5 505,-680.5 505,-661.5 352,-661.5"/>
<text text-anchor="middle" x="428.5" y="-668.5" font-family="Helvetica,sans-Serif" font-size="10.00" fill="#000000">o2::itsmft::ITSClusterReader</text>
</a>
</g>
</g>
<!-- Node31&#45;&gt;Node32 -->
<g id="edge32" class="edge">
<title>Node31&#45;&gt;Node32</title>
<path fill="none" stroke="#191970" d="M312.4813,-659.7245C325.4412,-660.9841 338.8455,-662.2868 351.7385,-663.5398"/>
<polygon fill="#191970" stroke="#191970" points="312.4928,-656.2092 302.2011,-658.7254 311.8156,-663.1764 312.4928,-656.2092"/>
</g>
<!-- Node33 -->
<g id="node34" class="node">
<title>Node33</title>
<g id="a_node34"><a xlink:href="d5/dce/classo2_1_1itsmft_1_1MFTClusterReader.html" target="_top" xlink:title="o2::itsmft::MFTClusterReader">
<polygon fill="none" stroke="#000000" points="350,-623.5 350,-642.5 507,-642.5 507,-623.5 350,-623.5"/>
<text text-anchor="middle" x="428.5" y="-630.5" font-family="Helvetica,sans-Serif" font-size="10.00" fill="#000000">o2::itsmft::MFTClusterReader</text>
</a>
</g>
</g>
<!-- Node31&#45;&gt;Node33 -->
<g id="edge33" class="edge">
<title>Node31&#45;&gt;Node33</title>
<path fill="none" stroke="#191970" d="M312.4233,-644.2811C324.7263,-643.0854 337.4311,-641.8507 349.72,-640.6564"/>
<polygon fill="#191970" stroke="#191970" points="311.8156,-640.8236 302.2011,-645.2746 312.4928,-647.7908 311.8156,-640.8236"/>
</g>
</g>
</svg>
