<?xml version="1.0" encoding="UTF-8" standalone="no"?>
<!DOCTYPE svg PUBLIC "-//W3C//DTD SVG 1.1//EN"
 "http://www.w3.org/Graphics/SVG/1.1/DTD/svg11.dtd">
<!-- Generated by graphviz version 2.40.1 (20161225.0304)
 -->
<!-- Title: Graphical Class Hierarchy Pages: 1 -->
<svg width="248pt" height="370pt"
 viewBox="0.00 0.00 248.00 370.00" xmlns="http://www.w3.org/2000/svg" xmlns:xlink="http://www.w3.org/1999/xlink">
<g id="graph0" class="graph" transform="scale(1 1) rotate(0) translate(4 366)">
<title>Graphical Class Hierarchy</title>
<!-- Node0 -->
<g id="node1" class="node">
<title>Node0</title>
<g id="a_node1"><a xlink:href="d2/d9e/classFairTask.html" target="_top" xlink:title="FairTask">
<polygon fill="none" stroke="#000000" points="0,-171.5 0,-190.5 56,-190.5 56,-171.5 0,-171.5"/>
<text text-anchor="middle" x="28" y="-178.5" font-family="Helvetica,sans-Serif" font-size="10.00" fill="#000000">FairTask</text>
</a>
</g>
</g>
<!-- Node1 -->
<g id="node2" class="node">
<title>Node1</title>
<g id="a_node2"><a xlink:href="d7/dd8/classo2_1_1cpv_1_1DigitizerTask.html" target="_top" xlink:title="o2::cpv::DigitizerTask">
<polygon fill="none" stroke="#000000" points="106,-342.5 106,-361.5 226,-361.5 226,-342.5 106,-342.5"/>
<text text-anchor="middle" x="166" y="-349.5" font-family="Helvetica,sans-Serif" font-size="10.00" fill="#000000">o2::cpv::DigitizerTask</text>
</a>
</g>
</g>
<!-- Node0&#45;&gt;Node1 -->
<g id="edge1" class="edge">
<title>Node0&#45;&gt;Node1</title>
<path fill="none" stroke="#191970" d="M30.6098,-200.5746C36.0029,-233.0717 51.4672,-298.0338 92,-333 96.419,-336.8122 101.5051,-339.8752 106.8983,-342.3339"/>
<polygon fill="#191970" stroke="#191970" points="34.0483,-199.9034 29.0976,-190.5363 27.1264,-200.9461 34.0483,-199.9034"/>
</g>
<!-- Node2 -->
<g id="node3" class="node">
<title>Node2</title>
<g id="a_node3"><a xlink:href="d1/d1d/classo2_1_1emcal_1_1DigitizerTask.html" target="_top" xlink:title="o2::emcal::DigitizerTask">
<polygon fill="none" stroke="#000000" points="99,-304.5 99,-323.5 233,-323.5 233,-304.5 99,-304.5"/>
<text text-anchor="middle" x="166" y="-311.5" font-family="Helvetica,sans-Serif" font-size="10.00" fill="#000000">o2::emcal::DigitizerTask</text>
</a>
</g>
</g>
<!-- Node0&#45;&gt;Node2 -->
<g id="edge2" class="edge">
<title>Node0&#45;&gt;Node2</title>
<path fill="none" stroke="#191970" d="M33.5824,-200.3632C41.9804,-225.9662 60.3493,-270.6741 92,-295 97.048,-298.8798 102.8045,-301.9726 108.8265,-304.4372"/>
<polygon fill="#191970" stroke="#191970" points="36.8842,-199.1934 30.5841,-190.6753 30.1972,-201.263 36.8842,-199.1934"/>
</g>
<!-- Node3 -->
<g id="node4" class="node">
<title>Node3</title>
<g id="a_node4"><a xlink:href="d5/d85/classo2_1_1ft0_1_1DigitizerTask.html" target="_top" xlink:title="o2::ft0::DigitizerTask">
<polygon fill="none" stroke="#000000" points="107.5,-266.5 107.5,-285.5 224.5,-285.5 224.5,-266.5 107.5,-266.5"/>
<text text-anchor="middle" x="166" y="-273.5" font-family="Helvetica,sans-Serif" font-size="10.00" fill="#000000">o2::ft0::DigitizerTask</text>
</a>
</g>
</g>
<!-- Node0&#45;&gt;Node3 -->
<g id="edge3" class="edge">
<title>Node0&#45;&gt;Node3</title>
<path fill="none" stroke="#191970" d="M38.6794,-199.3027C49.8041,-216.7439 68.8334,-242.4397 92,-257 98.1765,-260.882 105.1148,-263.9729 112.2023,-266.4335"/>
<polygon fill="#191970" stroke="#191970" points="41.5462,-197.2823 33.3362,-190.5855 35.5781,-200.9404 41.5462,-197.2823"/>
</g>
<!-- Node4 -->
<g id="node5" class="node">
<title>Node4</title>
<g id="a_node5"><a xlink:href="db/db5/classo2_1_1its_1_1HitAnalysis.html" target="_top" xlink:title="o2::its::HitAnalysis">
<polygon fill="none" stroke="#000000" points="112,-228.5 112,-247.5 220,-247.5 220,-228.5 112,-228.5"/>
<text text-anchor="middle" x="166" y="-235.5" font-family="Helvetica,sans-Serif" font-size="10.00" fill="#000000">o2::its::HitAnalysis</text>
</a>
</g>
</g>
<!-- Node0&#45;&gt;Node4 -->
<g id="edge4" class="edge">
<title>Node0&#45;&gt;Node4</title>
<path fill="none" stroke="#191970" d="M50.0702,-196.2301C62.0434,-203.9356 77.3546,-212.9187 92,-219 100.9424,-222.7132 110.8021,-225.8537 120.3288,-228.4461"/>
<polygon fill="#191970" stroke="#191970" points="51.9043,-193.2471 41.6312,-190.656 48.0463,-199.088 51.9043,-193.2471"/>
</g>
<!-- Node5 -->
<g id="node6" class="node">
<title>Node5</title>
<g id="a_node6"><a xlink:href="d4/d8d/classo2_1_1its_1_1TrivialClustererTask.html" target="_top" xlink:title="o2::its::TrivialClustererTask">
<polygon fill="none" stroke="#000000" points="92,-190.5 92,-209.5 240,-209.5 240,-190.5 92,-190.5"/>
<text text-anchor="middle" x="166" y="-197.5" font-family="Helvetica,sans-Serif" font-size="10.00" fill="#000000">o2::its::TrivialClustererTask</text>
</a>
</g>
</g>
<!-- Node0&#45;&gt;Node5 -->
<g id="edge5" class="edge">
<title>Node0&#45;&gt;Node5</title>
<path fill="none" stroke="#191970" d="M66.4698,-186.2966C75.9182,-187.5974 86.3232,-189.03 96.7363,-190.4637"/>
<polygon fill="#191970" stroke="#191970" points="66.6433,-182.7875 56.2594,-184.8908 65.6885,-189.7221 66.6433,-182.7875"/>
</g>
<!-- Node6 -->
<g id="node7" class="node">
<title>Node6</title>
<g id="a_node7"><a xlink:href="df/d23/classo2_1_1mft_1_1DigitizerTask.html" target="_top" xlink:title="o2::mft::DigitizerTask">
<polygon fill="none" stroke="#000000" points="105.5,-152.5 105.5,-171.5 226.5,-171.5 226.5,-152.5 105.5,-152.5"/>
<text text-anchor="middle" x="166" y="-159.5" font-family="Helvetica,sans-Serif" font-size="10.00" fill="#000000">o2::mft::DigitizerTask</text>
</a>
</g>
</g>
<!-- Node0&#45;&gt;Node6 -->
<g id="edge6" class="edge">
<title>Node0&#45;&gt;Node6</title>
<path fill="none" stroke="#191970" d="M66.4089,-175.7118C78.4732,-174.0508 92.1018,-172.1744 105.3174,-170.3548"/>
<polygon fill="#191970" stroke="#191970" points="65.6885,-172.2779 56.2594,-177.1092 66.6433,-179.2125 65.6885,-172.2779"/>
</g>
<!-- Node7 -->
<g id="node8" class="node">
<title>Node7</title>
<g id="a_node8"><a xlink:href="d0/d8a/classo2_1_1mft_1_1TrackerTask.html" target="_top" xlink:title="o2::mft::TrackerTask">
<polygon fill="none" stroke="#000000" points="108.5,-114.5 108.5,-133.5 223.5,-133.5 223.5,-114.5 108.5,-114.5"/>
<text text-anchor="middle" x="166" y="-121.5" font-family="Helvetica,sans-Serif" font-size="10.00" fill="#000000">o2::mft::TrackerTask</text>
</a>
</g>
</g>
<!-- Node0&#45;&gt;Node7 -->
<g id="edge7" class="edge">
<title>Node0&#45;&gt;Node7</title>
<path fill="none" stroke="#191970" d="M50.0702,-165.7699C62.0434,-158.0644 77.3546,-149.0813 92,-143 100.9424,-139.2868 110.8021,-136.1463 120.3288,-133.5539"/>
<polygon fill="#191970" stroke="#191970" points="48.0463,-162.912 41.6312,-171.344 51.9043,-168.7529 48.0463,-162.912"/>
</g>
<!-- Node8 -->
<g id="node9" class="node">
<title>Node8</title>
<g id="a_node9"><a xlink:href="d0/dc6/classo2_1_1tof_1_1ClustererTask.html" target="_top" xlink:title="o2::tof::ClustererTask">
<polygon fill="none" stroke="#000000" points="106,-76.5 106,-95.5 226,-95.5 226,-76.5 106,-76.5"/>
<text text-anchor="middle" x="166" y="-83.5" font-family="Helvetica,sans-Serif" font-size="10.00" fill="#000000">o2::tof::ClustererTask</text>
</a>
</g>
</g>
<!-- Node0&#45;&gt;Node8 -->
<g id="edge8" class="edge">
<title>Node0&#45;&gt;Node8</title>
<path fill="none" stroke="#191970" d="M38.6794,-162.6973C49.8041,-145.2561 68.8334,-119.5603 92,-105 98.1765,-101.118 105.1148,-98.0271 112.2023,-95.5665"/>
<polygon fill="#191970" stroke="#191970" points="35.5781,-161.0596 33.3362,-171.4145 41.5462,-164.7177 35.5781,-161.0596"/>
</g>
<!-- Node9 -->
<g id="node10" class="node">
<title>Node9</title>
<g id="a_node10"><a xlink:href="d0/dad/classo2_1_1tof_1_1DigitizerTask.html" target="_top" xlink:title="o2::tof::DigitizerTask">
<polygon fill="none" stroke="#000000" points="107.5,-38.5 107.5,-57.5 224.5,-57.5 224.5,-38.5 107.5,-38.5"/>
<text text-anchor="middle" x="166" y="-45.5" font-family="Helvetica,sans-Serif" font-size="10.00" fill="#000000">o2::tof::DigitizerTask</text>
</a>
</g>
</g>
<!-- Node0&#45;&gt;Node9 -->
<g id="edge9" class="edge">
<title>Node0&#45;&gt;Node9</title>
<path fill="none" stroke="#191970" d="M33.5824,-161.6368C41.9804,-136.0338 60.3493,-91.3259 92,-67 97.048,-63.1202 102.8045,-60.0274 108.8265,-57.5628"/>
<polygon fill="#191970" stroke="#191970" points="30.1972,-160.737 30.5841,-171.3247 36.8842,-162.8066 30.1972,-160.737"/>
</g>
<!-- Node10 -->
<g id="node11" class="node">
<title>Node10</title>
<g id="a_node11"><a xlink:href="db/dc7/classo2_1_1tpc_1_1ClustererTask.html" target="_top" xlink:title="o2::tpc::ClustererTask">
<polygon fill="none" stroke="#000000" points="105,-.5 105,-19.5 227,-19.5 227,-.5 105,-.5"/>
<text text-anchor="middle" x="166" y="-7.5" font-family="Helvetica,sans-Serif" font-size="10.00" fill="#000000">o2::tpc::ClustererTask</text>
</a>
</g>
</g>
<!-- Node0&#45;&gt;Node10 -->
<g id="edge10" class="edge">
<title>Node0&#45;&gt;Node10</title>
<path fill="none" stroke="#191970" d="M30.6098,-161.4254C36.0029,-128.9283 51.4672,-63.9662 92,-29 96.419,-25.1878 101.5051,-22.1248 106.8983,-19.6661"/>
<polygon fill="#191970" stroke="#191970" points="27.1264,-161.0539 29.0976,-171.4637 34.0483,-162.0966 27.1264,-161.0539"/>
</g>
</g>
</svg>
