<?xml version="1.0" encoding="UTF-8" standalone="no"?>
<!DOCTYPE svg PUBLIC "-//W3C//DTD SVG 1.1//EN"
 "http://www.w3.org/Graphics/SVG/1.1/DTD/svg11.dtd">
<!-- Generated by graphviz version 2.40.1 (20161225.0304)
 -->
<!-- Title: Graphical Class Hierarchy Pages: 1 -->
<svg width="346pt" height="578pt"
 viewBox="0.00 0.00 346.00 578.00" xmlns="http://www.w3.org/2000/svg" xmlns:xlink="http://www.w3.org/1999/xlink">
<g id="graph0" class="graph" transform="scale(1 1) rotate(0) translate(4 574)">
<title>Graphical Class Hierarchy</title>
<!-- Node0 -->
<g id="node1" class="node">
<title>Node0</title>
<g id="a_node1"><a xlink:href="d3/d60/classGPUCA__NAMESPACE_1_1gpu_1_1GPUKernelTemplate.html" target="_top" xlink:title="GPUCA_NAMESPACE::gpu\l::GPUKernelTemplate">
<polygon fill="none" stroke="#000000" points="0,-269.5 0,-299.5 140,-299.5 140,-269.5 0,-269.5"/>
<text text-anchor="start" x="8" y="-287.5" font-family="Helvetica,sans-Serif" font-size="10.00" fill="#000000">GPUCA_NAMESPACE::gpu</text>
<text text-anchor="middle" x="70" y="-276.5" font-family="Helvetica,sans-Serif" font-size="10.00" fill="#000000">::GPUKernelTemplate</text>
</a>
</g>
</g>
<!-- Node1 -->
<g id="node2" class="node">
<title>Node1</title>
<g id="a_node2"><a xlink:href="d8/dba/classGPUCA__NAMESPACE_1_1gpu_1_1GPUITSFitterKernel.html" target="_top" xlink:title="GPUCA_NAMESPACE::gpu\l::GPUITSFitterKernel">
<polygon fill="none" stroke="#000000" points="187,-539.5 187,-569.5 327,-569.5 327,-539.5 187,-539.5"/>
<text text-anchor="start" x="195" y="-557.5" font-family="Helvetica,sans-Serif" font-size="10.00" fill="#000000">GPUCA_NAMESPACE::gpu</text>
<text text-anchor="middle" x="257" y="-546.5" font-family="Helvetica,sans-Serif" font-size="10.00" fill="#000000">::GPUITSFitterKernel</text>
</a>
</g>
</g>
<!-- Node0&#45;&gt;Node1 -->
<g id="edge1" class="edge">
<title>Node0&#45;&gt;Node1</title>
<path fill="none" stroke="#191970" d="M73.6736,-309.7105C82.255,-359.4037 108.2833,-470.3853 176,-530.5 179.8389,-533.908 184.1422,-536.8327 188.7111,-539.3426"/>
<polygon fill="#191970" stroke="#191970" points="77.1222,-309.1115 72.0568,-299.806 70.2137,-310.2393 77.1222,-309.1115"/>
</g>
<!-- Node2 -->
<g id="node3" class="node">
<title>Node2</title>
<g id="a_node3"><a xlink:href="da/d27/classGPUCA__NAMESPACE_1_1gpu_1_1GPUMemClean16.html" target="_top" xlink:title="GPUCA_NAMESPACE::gpu\l::GPUMemClean16">
<polygon fill="none" stroke="#000000" points="187,-490.5 187,-520.5 327,-520.5 327,-490.5 187,-490.5"/>
<text text-anchor="start" x="195" y="-508.5" font-family="Helvetica,sans-Serif" font-size="10.00" fill="#000000">GPUCA_NAMESPACE::gpu</text>
<text text-anchor="middle" x="257" y="-497.5" font-family="Helvetica,sans-Serif" font-size="10.00" fill="#000000">::GPUMemClean16</text>
</a>
</g>
</g>
<!-- Node0&#45;&gt;Node2 -->
<g id="edge2" class="edge">
<title>Node0&#45;&gt;Node2</title>
<path fill="none" stroke="#191970" d="M76.5498,-309.3312C88.8653,-351.1461 119.465,-435.5381 176,-481.5 180.2108,-484.9233 184.8964,-487.8583 189.8316,-490.3748"/>
<polygon fill="#191970" stroke="#191970" points="79.9046,-308.332 73.8081,-299.667 73.1703,-310.2426 79.9046,-308.332"/>
</g>
<!-- Node3 -->
<g id="node4" class="node">
<title>Node3</title>
<g id="a_node4"><a xlink:href="d8/d88/classGPUCA__NAMESPACE_1_1gpu_1_1GPUTPCClusterFinderKernels.html" target="_top" xlink:title="GPUCA_NAMESPACE::gpu\l::GPUTPCClusterFinderKernels">
<polygon fill="none" stroke="#000000" points="176,-441.5 176,-471.5 338,-471.5 338,-441.5 176,-441.5"/>
<text text-anchor="start" x="184" y="-459.5" font-family="Helvetica,sans-Serif" font-size="10.00" fill="#000000">GPUCA_NAMESPACE::gpu</text>
<text text-anchor="middle" x="257" y="-448.5" font-family="Helvetica,sans-Serif" font-size="10.00" fill="#000000">::GPUTPCClusterFinderKernels</text>
</a>
</g>
</g>
<!-- Node0&#45;&gt;Node3 -->
<g id="edge3" class="edge">
<title>Node0&#45;&gt;Node3</title>
<path fill="none" stroke="#191970" d="M81.1107,-308.9721C97.3065,-341.9119 130.5001,-400.109 176,-432.5 180.7794,-435.9024 186.0427,-438.8275 191.5221,-441.3413"/>
<polygon fill="#191970" stroke="#191970" points="84.1081,-307.1273 76.6353,-299.6168 77.7935,-310.1481 84.1081,-307.1273"/>
</g>
<!-- Node4 -->
<g id="node5" class="node">
<title>Node4</title>
<g id="a_node5"><a xlink:href="d0/d6b/classGPUCA__NAMESPACE_1_1gpu_1_1GPUTPCCompressionKernels.html" target="_top" xlink:title="GPUCA_NAMESPACE::gpu\l::GPUTPCCompressionKernels">
<polygon fill="none" stroke="#000000" points="176,-392.5 176,-422.5 338,-422.5 338,-392.5 176,-392.5"/>
<text text-anchor="start" x="184" y="-410.5" font-family="Helvetica,sans-Serif" font-size="10.00" fill="#000000">GPUCA_NAMESPACE::gpu</text>
<text text-anchor="middle" x="257" y="-399.5" font-family="Helvetica,sans-Serif" font-size="10.00" fill="#000000">::GPUTPCCompressionKernels</text>
</a>
</g>
</g>
<!-- Node0&#45;&gt;Node4 -->
<g id="edge4" class="edge">
<title>Node0&#45;&gt;Node4</title>
<path fill="none" stroke="#191970" d="M88.6713,-307.2524C108.2382,-329.6913 140.9611,-363.4539 176,-383.5 181.9834,-386.9232 188.5,-389.8983 195.1523,-392.4746"/>
<polygon fill="#191970" stroke="#191970" points="91.2377,-304.8682 82.0777,-299.5442 85.9183,-309.4184 91.2377,-304.8682"/>
</g>
<!-- Node5 -->
<g id="node6" class="node">
<title>Node5</title>
<g id="a_node6"><a xlink:href="d8/dc8/classGPUCA__NAMESPACE_1_1gpu_1_1GPUTPCConvertKernel.html" target="_top" xlink:title="GPUCA_NAMESPACE::gpu\l::GPUTPCConvertKernel">
<polygon fill="none" stroke="#000000" points="187,-343.5 187,-373.5 327,-373.5 327,-343.5 187,-343.5"/>
<text text-anchor="start" x="195" y="-361.5" font-family="Helvetica,sans-Serif" font-size="10.00" fill="#000000">GPUCA_NAMESPACE::gpu</text>
<text text-anchor="middle" x="257" y="-350.5" font-family="Helvetica,sans-Serif" font-size="10.00" fill="#000000">::GPUTPCConvertKernel</text>
</a>
</g>
</g>
<!-- Node0&#45;&gt;Node5 -->
<g id="edge5" class="edge">
<title>Node0&#45;&gt;Node5</title>
<path fill="none" stroke="#191970" d="M107.7959,-304.0522C127.7596,-313.9362 152.859,-325.6731 176,-334.5 184.3593,-337.6885 193.3338,-340.7202 202.1559,-343.4887"/>
<polygon fill="#191970" stroke="#191970" points="109.2347,-300.8585 98.7255,-299.5145 106.1028,-307.1188 109.2347,-300.8585"/>
</g>
<!-- Node6 -->
<g id="node7" class="node">
<title>Node6</title>
<g id="a_node7"><a xlink:href="db/d09/classGPUCA__NAMESPACE_1_1gpu_1_1GPUTPCGMMergerTrackFit.html" target="_top" xlink:title="GPUCA_NAMESPACE::gpu\l::GPUTPCGMMergerTrackFit">
<polygon fill="none" stroke="#000000" points="182.5,-294.5 182.5,-324.5 331.5,-324.5 331.5,-294.5 182.5,-294.5"/>
<text text-anchor="start" x="190.5" y="-312.5" font-family="Helvetica,sans-Serif" font-size="10.00" fill="#000000">GPUCA_NAMESPACE::gpu</text>
<text text-anchor="middle" x="257" y="-301.5" font-family="Helvetica,sans-Serif" font-size="10.00" fill="#000000">::GPUTPCGMMergerTrackFit</text>
</a>
</g>
</g>
<!-- Node0&#45;&gt;Node6 -->
<g id="edge6" class="edge">
<title>Node0&#45;&gt;Node6</title>
<path fill="none" stroke="#191970" d="M150.2873,-295.2336C160.94,-296.6578 171.8263,-298.1131 182.3778,-299.5238"/>
<polygon fill="#191970" stroke="#191970" points="150.5396,-291.7363 140.1639,-293.8802 149.6119,-298.6745 150.5396,-291.7363"/>
</g>
<!-- Node7 -->
<g id="node8" class="node">
<title>Node7</title>
<g id="a_node8"><a xlink:href="d2/d8c/classGPUCA__NAMESPACE_1_1gpu_1_1GPUTPCNeighboursCleaner.html" target="_top" xlink:title="GPUCA_NAMESPACE::gpu\l::GPUTPCNeighboursCleaner">
<polygon fill="none" stroke="#000000" points="179.5,-245.5 179.5,-275.5 334.5,-275.5 334.5,-245.5 179.5,-245.5"/>
<text text-anchor="start" x="187.5" y="-263.5" font-family="Helvetica,sans-Serif" font-size="10.00" fill="#000000">GPUCA_NAMESPACE::gpu</text>
<text text-anchor="middle" x="257" y="-252.5" font-family="Helvetica,sans-Serif" font-size="10.00" fill="#000000">::GPUTPCNeighboursCleaner</text>
</a>
</g>
</g>
<!-- Node0&#45;&gt;Node7 -->
<g id="edge7" class="edge">
<title>Node0&#45;&gt;Node7</title>
<path fill="none" stroke="#191970" d="M150.1288,-274.2161C159.7753,-272.978 169.6157,-271.7151 179.2278,-270.4815"/>
<polygon fill="#191970" stroke="#191970" points="149.637,-270.7504 140.1639,-275.495 150.5282,-277.6935 149.637,-270.7504"/>
</g>
<!-- Node8 -->
<g id="node9" class="node">
<title>Node8</title>
<g id="a_node9"><a xlink:href="d7/dd4/classGPUCA__NAMESPACE_1_1gpu_1_1GPUTPCNeighboursFinder.html" target="_top" xlink:title="GPUCA_NAMESPACE::gpu\l::GPUTPCNeighboursFinder">
<polygon fill="none" stroke="#000000" points="183.5,-196.5 183.5,-226.5 330.5,-226.5 330.5,-196.5 183.5,-196.5"/>
<text text-anchor="start" x="191.5" y="-214.5" font-family="Helvetica,sans-Serif" font-size="10.00" fill="#000000">GPUCA_NAMESPACE::gpu</text>
<text text-anchor="middle" x="257" y="-203.5" font-family="Helvetica,sans-Serif" font-size="10.00" fill="#000000">::GPUTPCNeighboursFinder</text>
</a>
</g>
</g>
<!-- Node0&#45;&gt;Node8 -->
<g id="edge8" class="edge">
<title>Node0&#45;&gt;Node8</title>
<path fill="none" stroke="#191970" d="M109.8991,-264.9958C129.556,-255.7579 153.7596,-244.9294 176,-236.5 185.2204,-233.0053 195.1627,-229.6275 204.8175,-226.5447"/>
<polygon fill="#191970" stroke="#191970" points="108.1787,-261.938 100.6431,-269.3855 111.1783,-268.2628 108.1787,-261.938"/>
</g>
<!-- Node9 -->
<g id="node10" class="node">
<title>Node9</title>
<g id="a_node10"><a xlink:href="d1/d4a/classGPUCA__NAMESPACE_1_1gpu_1_1GPUTPCStartHitsFinder.html" target="_top" xlink:title="GPUCA_NAMESPACE::gpu\l::GPUTPCStartHitsFinder">
<polygon fill="none" stroke="#000000" points="187,-147.5 187,-177.5 327,-177.5 327,-147.5 187,-147.5"/>
<text text-anchor="start" x="195" y="-165.5" font-family="Helvetica,sans-Serif" font-size="10.00" fill="#000000">GPUCA_NAMESPACE::gpu</text>
<text text-anchor="middle" x="257" y="-154.5" font-family="Helvetica,sans-Serif" font-size="10.00" fill="#000000">::GPUTPCStartHitsFinder</text>
</a>
</g>
</g>
<!-- Node0&#45;&gt;Node9 -->
<g id="edge9" class="edge">
<title>Node0&#45;&gt;Node9</title>
<path fill="none" stroke="#191970" d="M89.1427,-261.9405C108.8565,-240.0324 141.4932,-207.2678 176,-187.5 182.6404,-183.6959 189.9252,-180.4057 197.3186,-177.5777"/>
<polygon fill="#191970" stroke="#191970" points="86.4828,-259.6649 82.4848,-269.4765 91.7288,-264.2995 86.4828,-259.6649"/>
</g>
<!-- Node10 -->
<g id="node11" class="node">
<title>Node10</title>
<g id="a_node11"><a xlink:href="dc/d09/classGPUCA__NAMESPACE_1_1gpu_1_1GPUTPCStartHitsSorter.html" target="_top" xlink:title="GPUCA_NAMESPACE::gpu\l::GPUTPCStartHitsSorter">
<polygon fill="none" stroke="#000000" points="187,-98.5 187,-128.5 327,-128.5 327,-98.5 187,-98.5"/>
<text text-anchor="start" x="195" y="-116.5" font-family="Helvetica,sans-Serif" font-size="10.00" fill="#000000">GPUCA_NAMESPACE::gpu</text>
<text text-anchor="middle" x="257" y="-105.5" font-family="Helvetica,sans-Serif" font-size="10.00" fill="#000000">::GPUTPCStartHitsSorter</text>
</a>
</g>
</g>
<!-- Node0&#45;&gt;Node10 -->
<g id="edge10" class="edge">
<title>Node0&#45;&gt;Node10</title>
<path fill="none" stroke="#191970" d="M81.5028,-259.9325C97.9486,-227.4369 131.2145,-170.5465 176,-138.5 181.3859,-134.6461 187.3811,-131.3746 193.605,-128.5999"/>
<polygon fill="#191970" stroke="#191970" points="78.2267,-258.6626 76.9448,-269.1796 84.5054,-261.7575 78.2267,-258.6626"/>
</g>
<!-- Node11 -->
<g id="node12" class="node">
<title>Node11</title>
<g id="a_node12"><a xlink:href="d7/d66/classGPUCA__NAMESPACE_1_1gpu_1_1GPUTPCTrackletSelector.html" target="_top" xlink:title="GPUCA_NAMESPACE::gpu\l::GPUTPCTrackletSelector">
<polygon fill="none" stroke="#000000" points="187,-49.5 187,-79.5 327,-79.5 327,-49.5 187,-49.5"/>
<text text-anchor="start" x="195" y="-67.5" font-family="Helvetica,sans-Serif" font-size="10.00" fill="#000000">GPUCA_NAMESPACE::gpu</text>
<text text-anchor="middle" x="257" y="-56.5" font-family="Helvetica,sans-Serif" font-size="10.00" fill="#000000">::GPUTPCTrackletSelector</text>
</a>
</g>
</g>
<!-- Node0&#45;&gt;Node11 -->
<g id="edge11" class="edge">
<title>Node0&#45;&gt;Node11</title>
<path fill="none" stroke="#191970" d="M76.8522,-259.4168C89.4717,-217.9306 120.3261,-135.0884 176,-89.5 180.6685,-85.6772 185.9193,-82.4376 191.4461,-79.6925"/>
<polygon fill="#191970" stroke="#191970" points="73.4215,-258.678 73.9668,-269.2588 80.1388,-260.6474 73.4215,-258.678"/>
</g>
<!-- Node12 -->
<g id="node13" class="node">
<title>Node12</title>
<g id="a_node13"><a xlink:href="d0/d6c/classGPUCA__NAMESPACE_1_1gpu_1_1GPUTRDTrackerGPU.html" target="_top" xlink:title="GPUCA_NAMESPACE::gpu\l::GPUTRDTrackerGPU">
<polygon fill="none" stroke="#000000" points="187,-.5 187,-30.5 327,-30.5 327,-.5 187,-.5"/>
<text text-anchor="start" x="195" y="-18.5" font-family="Helvetica,sans-Serif" font-size="10.00" fill="#000000">GPUCA_NAMESPACE::gpu</text>
<text text-anchor="middle" x="257" y="-7.5" font-family="Helvetica,sans-Serif" font-size="10.00" fill="#000000">::GPUTRDTrackerGPU</text>
</a>
</g>
</g>
<!-- Node0&#45;&gt;Node12 -->
<g id="edge12" class="edge">
<title>Node0&#45;&gt;Node12</title>
<path fill="none" stroke="#191970" d="M73.8519,-259.2456C82.7075,-209.9154 109.1372,-100.3568 176,-40.5 180.2764,-36.6717 185.1297,-33.4296 190.285,-30.684"/>
<polygon fill="#191970" stroke="#191970" points="70.3584,-258.9122 72.1343,-269.3571 77.2596,-260.0845 70.3584,-258.9122"/>
</g>
</g>
</svg>
