<?xml version="1.0" encoding="UTF-8" standalone="no"?>
<!DOCTYPE svg PUBLIC "-//W3C//DTD SVG 1.1//EN"
 "http://www.w3.org/Graphics/SVG/1.1/DTD/svg11.dtd">
<!-- Generated by graphviz version 2.40.1 (20161225.0304)
 -->
<!-- Title: PrintingKernel Pages: 1 -->
<svg width="298pt" height="193pt"
 viewBox="0.00 0.00 297.50 193.00" xmlns="http://www.w3.org/2000/svg" xmlns:xlink="http://www.w3.org/1999/xlink">
<g id="graph0" class="graph" transform="scale(1 1) rotate(0) translate(4 189)">
<title>PrintingKernel</title>
<!-- Node2 -->
<g id="node1" class="node">
<title>Node2</title>
<polygon fill="#bfbfbf" stroke="#000000" points="113.5,-.5 113.5,-68.5 198.5,-68.5 198.5,-.5 113.5,-.5"/>
<text text-anchor="middle" x="156" y="-56.5" font-family="Helvetica,sans-Serif" font-size="10.00" fill="#000000">PrintingKernel</text>
<polyline fill="none" stroke="#000000" points="113.5,-49.5 198.5,-49.5 "/>
<text text-anchor="middle" x="156" y="-37.5" font-family="Helvetica,sans-Serif" font-size="10.00" fill="#000000"> </text>
<polyline fill="none" stroke="#000000" points="113.5,-30.5 198.5,-30.5 "/>
<text text-anchor="start" x="121.5" y="-18.5" font-family="Helvetica,sans-Serif" font-size="10.00" fill="#000000">+ Call()</text>
<text text-anchor="start" x="121.5" y="-7.5" font-family="Helvetica,sans-Serif" font-size="10.00" fill="#000000">+ out_type()</text>
</g>
<!-- Node3 -->
<g id="node2" class="node">
<title>Node3</title>
<g id="a_node2"><a xlink:href="../../d7/db5/classarrow_1_1compute_1_1UnaryKernel.html" target="_top" xlink:title="{arrow::compute::UnaryKernel\n||}">
<polygon fill="none" stroke="#000000" points="0,-122 0,-179 158,-179 158,-122 0,-122"/>
<text text-anchor="middle" x="79" y="-167" font-family="Helvetica,sans-Serif" font-size="10.00" fill="#000000">arrow::compute::UnaryKernel</text>
<polyline fill="none" stroke="#000000" points="0,-160 158,-160 "/>
<text text-anchor="middle" x="79" y="-148" font-family="Helvetica,sans-Serif" font-size="10.00" fill="#000000"> </text>
<polyline fill="none" stroke="#000000" points="0,-141 158,-141 "/>
<text text-anchor="middle" x="79" y="-129" font-family="Helvetica,sans-Serif" font-size="10.00" fill="#000000"> </text>
</a>
</g>
</g>
<!-- Node3&#45;&gt;Node2 -->
<g id="edge1" class="edge">
<title>Node3&#45;&gt;Node2</title>
<path fill="none" stroke="#191970" d="M103.7608,-113.198C113.2656,-98.8791 124.0563,-82.6229 133.3529,-68.6178"/>
<polygon fill="none" stroke="#191970" points="100.6481,-111.5586 98.0337,-121.8258 106.4802,-115.4299 100.6481,-111.5586"/>
</g>
<!-- Node4 -->
<g id="node3" class="node">
<title>Node4</title>
<polygon fill="none" stroke="#bfbfbf" points="176.5,-116.5 176.5,-184.5 289.5,-184.5 289.5,-116.5 176.5,-116.5"/>
<text text-anchor="start" x="184.5" y="-172.5" font-family="Helvetica,sans-Serif" font-size="10.00" fill="#000000">shared_ptr&lt; arrow::</text>
<text text-anchor="middle" x="233" y="-161.5" font-family="Helvetica,sans-Serif" font-size="10.00" fill="#000000">DataType &gt;</text>
<polyline fill="none" stroke="#bfbfbf" points="176.5,-154.5 289.5,-154.5 "/>
<text text-anchor="middle" x="233" y="-142.5" font-family="Helvetica,sans-Serif" font-size="10.00" fill="#000000"> </text>
<polyline fill="none" stroke="#bfbfbf" points="176.5,-135.5 289.5,-135.5 "/>
<text text-anchor="middle" x="233" y="-123.5" font-family="Helvetica,sans-Serif" font-size="10.00" fill="#000000"> </text>
</g>
<!-- Node4&#45;&gt;Node2 -->
<g id="edge2" class="edge">
<title>Node4&#45;&gt;Node2</title>
<path fill="none" stroke="#404040" d="M210.3139,-116.3236C202.5507,-104.6283 193.7491,-91.3688 185.5259,-78.9806"/>
<polygon fill="none" stroke="#404040" points="185.4265,-78.8309 178.7757,-76.0441 178.79,-68.833 185.4409,-71.6197 185.4265,-78.8309"/>
<text text-anchor="middle" x="219" y="-90" font-family="Helvetica,sans-Serif" font-size="10.00" fill="#000000"> +mType</text>
</g>
</g>
</svg>
