<?xml version="1.0" encoding="UTF-8" standalone="no"?>
<!DOCTYPE svg PUBLIC "-//W3C//DTD SVG 1.1//EN"
 "http://www.w3.org/Graphics/SVG/1.1/DTD/svg11.dtd">
<!-- Generated by graphviz version 2.40.1 (20161225.0304)
 -->
<!-- Title: GPUCA_NAMESPACE::gpu::GPUParam Pages: 1 -->
<!--zoomable 892 -->
<svg id="main" version="1.1" xmlns="http://www.w3.org/2000/svg" xmlns:xlink="http://www.w3.org/1999/xlink" xml:space="preserve" onload="init(evt)">
<style type="text/css"><![CDATA[
.edge:hover path { stroke: red; }
.edge:hover polygon { stroke: red; fill: red; }
]]></style>
<script type="text/javascript"><![CDATA[
var edges = document.getElementsByTagName('g');
if (edges && edges.length) {
  for (var i=0;i<edges.length;i++) {
    if (edges[i].id.substr(0,4)=='edge') {
      edges[i].setAttribute('class','edge');
    }
  }
}
]]></script>
        <defs>
                <circle id="rim" cx="0" cy="0" r="7"/>
                <circle id="rim2" cx="0" cy="0" r="3.5"/>
                <g id="zoomPlus">
                        <use xlink:href="#rim" fill="#404040">
                                <set attributeName="fill" to="#808080" begin="zoomplus.mouseover" end="zoomplus.mouseout"/>
                        </use>
                        <path d="M-4,0h8M0,-4v8" fill="none" stroke="white" stroke-width="1.5" pointer-events="none"/>
                </g>
                <g id="zoomMin">
                        <use xlink:href="#rim" fill="#404040">
                                <set attributeName="fill" to="#808080" begin="zoomminus.mouseover" end="zoomminus.mouseout"/>
                        </use>
                        <path d="M-4,0h8" fill="none" stroke="white" stroke-width="1.5" pointer-events="none"/>
                </g>
                <g id="dirArrow">
                        <path fill="none" stroke="white" stroke-width="1.5" d="M0,-3.0v7 M-2.5,-0.5L0,-3.0L2.5,-0.5"/>
                </g>
               <g id="resetDef">
                       <use xlink:href="#rim2" fill="#404040">
                               <set attributeName="fill" to="#808080" begin="reset.mouseover" end="reset.mouseout"/>
                       </use>
               </g>
        </defs>

<script type="text/javascript">
var viewWidth = 1157;
var viewHeight = 892;
var sectionId = 'dynsection-0';
</script>
<script xlink:href="../../svgpan.js"/>
<svg id="graph" class="graph">
<g id="viewport">
<title>GPUCA_NAMESPACE::gpu::GPUParam</title>
<!-- Node1 -->
<g id="node1" class="node">
<title>Node1</title>
<polygon fill="#bfbfbf" stroke="#000000" points="499,-.5 499,-277.5 639,-277.5 639,-.5 499,-.5"/>
<text text-anchor="start" x="507" y="-265.5" font-family="Helvetica,sans-Serif" font-size="10.00" fill="#000000">GPUCA_NAMESPACE::gpu</text>
<text text-anchor="middle" x="569" y="-254.5" font-family="Helvetica,sans-Serif" font-size="10.00" fill="#000000">::GPUParam</text>
<polyline fill="none" stroke="#000000" points="499,-247.5 639,-247.5 "/>
<text text-anchor="start" x="507" y="-235.5" font-family="Helvetica,sans-Serif" font-size="10.00" fill="#000000">+ RMax</text>
<text text-anchor="start" x="507" y="-224.5" font-family="Helvetica,sans-Serif" font-size="10.00" fill="#000000">+ ErrX</text>
<text text-anchor="start" x="507" y="-213.5" font-family="Helvetica,sans-Serif" font-size="10.00" fill="#000000">+ ErrY</text>
<text text-anchor="start" x="507" y="-202.5" font-family="Helvetica,sans-Serif" font-size="10.00" fill="#000000">+ ErrZ</text>
<text text-anchor="start" x="507" y="-191.5" font-family="Helvetica,sans-Serif" font-size="10.00" fill="#000000">+ BzkG</text>
<text text-anchor="start" x="507" y="-180.5" font-family="Helvetica,sans-Serif" font-size="10.00" fill="#000000">+ ConstBz</text>
<text text-anchor="start" x="507" y="-169.5" font-family="Helvetica,sans-Serif" font-size="10.00" fill="#000000">+ y</text>
<text text-anchor="start" x="507" y="-158.5" font-family="Helvetica,sans-Serif" font-size="10.00" fill="#000000">+ X</text>
<text text-anchor="start" x="507" y="-147.5" font-family="Helvetica,sans-Serif" font-size="10.00" fill="#000000">+ Y</text>
<polyline fill="none" stroke="#000000" points="499,-140.5 639,-140.5 "/>
<text text-anchor="start" x="507" y="-128.5" font-family="Helvetica,sans-Serif" font-size="10.00" fill="#000000">+ SetDefaults()</text>
<text text-anchor="start" x="507" y="-117.5" font-family="Helvetica,sans-Serif" font-size="10.00" fill="#000000">+ SetDefaults()</text>
<text text-anchor="start" x="507" y="-106.5" font-family="Helvetica,sans-Serif" font-size="10.00" fill="#000000">+ UpdateEventSettings()</text>
<text text-anchor="start" x="507" y="-95.5" font-family="Helvetica,sans-Serif" font-size="10.00" fill="#000000">+ LoadClusterErrors()</text>
<text text-anchor="start" x="507" y="-84.5" font-family="Helvetica,sans-Serif" font-size="10.00" fill="#000000">+ GPUd()</text>
<text text-anchor="start" x="507" y="-73.5" font-family="Helvetica,sans-Serif" font-size="10.00" fill="#000000">+ GPUd()</text>
<text text-anchor="start" x="507" y="-62.5" font-family="Helvetica,sans-Serif" font-size="10.00" fill="#000000">+ GPUd()</text>
<text text-anchor="start" x="507" y="-51.5" font-family="Helvetica,sans-Serif" font-size="10.00" fill="#000000">+ GPUd()</text>
<text text-anchor="start" x="507" y="-40.5" font-family="Helvetica,sans-Serif" font-size="10.00" fill="#000000">+ GPUd()</text>
<text text-anchor="start" x="507" y="-29.5" font-family="Helvetica,sans-Serif" font-size="10.00" fill="#000000">+ GPUd()</text>
<text text-anchor="start" x="507" y="-18.5" font-family="Helvetica,sans-Serif" font-size="10.00" fill="#000000">+ GPUd()</text>
<text text-anchor="start" x="507" y="-7.5" font-family="Helvetica,sans-Serif" font-size="10.00" fill="#000000">+ GPUd()</text>
</g>
<!-- Node2 -->
<g id="node2" class="node">
<title>Node2</title>
<g id="a_node2"><a xlink:href="../../d0/d8d/structGPUCA__NAMESPACE_1_1gpu_1_1GPUSettingsRec.html" target="_top" xlink:title="{GPUCA_NAMESPACE::gpu\l::GPUSettingsRec\n|+ dEdxTruncLow\l|+ GPUSettingsRec()\l+ SetDefaults()\l+ SetMinTrackPt()\l}">
<polygon fill="none" stroke="#000000" points="235,-452 235,-542 375,-542 375,-452 235,-452"/>
<text text-anchor="start" x="243" y="-530" font-family="Helvetica,sans-Serif" font-size="10.00" fill="#000000">GPUCA_NAMESPACE::gpu</text>
<text text-anchor="middle" x="305" y="-519" font-family="Helvetica,sans-Serif" font-size="10.00" fill="#000000">::GPUSettingsRec</text>
<polyline fill="none" stroke="#000000" points="235,-512 375,-512 "/>
<text text-anchor="start" x="243" y="-500" font-family="Helvetica,sans-Serif" font-size="10.00" fill="#000000">+ dEdxTruncLow</text>
<polyline fill="none" stroke="#000000" points="235,-493 375,-493 "/>
<text text-anchor="start" x="243" y="-481" font-family="Helvetica,sans-Serif" font-size="10.00" fill="#000000">+ GPUSettingsRec()</text>
<text text-anchor="start" x="243" y="-470" font-family="Helvetica,sans-Serif" font-size="10.00" fill="#000000">+ SetDefaults()</text>
<text text-anchor="start" x="243" y="-459" font-family="Helvetica,sans-Serif" font-size="10.00" fill="#000000">+ SetMinTrackPt()</text>
</a>
</g>
</g>
<!-- Node2&#45;&gt;Node1 -->
<g id="edge1" class="edge">
<title>Node2&#45;&gt;Node1</title>
<path fill="none" stroke="#404040" d="M320.6527,-451.9593C334.3514,-415.8538 356.3677,-364.8207 384,-325 413.9209,-281.8813 454.3898,-239.8935 489.8481,-206.7553"/>
<polygon fill="none" stroke="#404040" points="489.936,-206.6739 491.6247,-199.6633 498.7455,-198.5257 497.0568,-205.5363 489.936,-206.6739"/>
<text text-anchor="middle" x="418.5" y="-299" font-family="Helvetica,sans-Serif" font-size="10.00" fill="#000000"> +rec</text>
</g>
<!-- Node3 -->
<g id="node3" class="node">
<title>Node3</title>
<polygon fill="none" stroke="#bfbfbf" points="0,-826.5 0,-883.5 38,-883.5 38,-826.5 0,-826.5"/>
<text text-anchor="middle" x="19" y="-871.5" font-family="Helvetica,sans-Serif" font-size="10.00" fill="#000000">char</text>
<polyline fill="none" stroke="#bfbfbf" points="0,-864.5 38,-864.5 "/>
<text text-anchor="middle" x="19" y="-852.5" font-family="Helvetica,sans-Serif" font-size="10.00" fill="#000000"> </text>
<polyline fill="none" stroke="#bfbfbf" points="0,-845.5 38,-845.5 "/>
<text text-anchor="middle" x="19" y="-833.5" font-family="Helvetica,sans-Serif" font-size="10.00" fill="#000000"> </text>
</g>
<!-- Node3&#45;&gt;Node1 -->
<g id="edge6" class="edge">
<title>Node3&#45;&gt;Node1</title>
<path fill="none" stroke="#404040" d="M15.2953,-826.2181C5.7374,-738.7134 -10.4622,-472.8172 122,-325 218.3534,-217.4773 386.6449,-170.5064 486.9603,-151.2371"/>
<polygon fill="none" stroke="#404040" points="487.0505,-151.2204 492.2163,-146.189 498.8475,-149.0223 493.6817,-154.0537 487.0505,-151.2204"/>
<text text-anchor="middle" x="174" y="-522" font-family="Helvetica,sans-Serif" font-size="10.00" fill="#000000"> +earlyTpcTransform</text>
<text text-anchor="middle" x="174" y="-511" font-family="Helvetica,sans-Serif" font-size="10.00" fill="#000000">+ContinuousTracking</text>
<text text-anchor="middle" x="174" y="-500" font-family="Helvetica,sans-Serif" font-size="10.00" fill="#000000">+AssumeConstantBz</text>
<text text-anchor="middle" x="174" y="-489" font-family="Helvetica,sans-Serif" font-size="10.00" fill="#000000">+ToyMCEventsFlag</text>
<text text-anchor="middle" x="174" y="-478" font-family="Helvetica,sans-Serif" font-size="10.00" fill="#000000">+dodEdx</text>
<text text-anchor="middle" x="174" y="-467" font-family="Helvetica,sans-Serif" font-size="10.00" fill="#000000">+resetTimers</text>
</g>
<!-- Node3&#45;&gt;Node2 -->
<g id="edge2" class="edge">
<title>Node3&#45;&gt;Node2</title>
<path fill="none" stroke="#404040" d="M15.0382,-826.4606C11.616,-789.5607 11.7008,-725.482 46,-687 65.6604,-664.942 84.0478,-683.1269 110,-669 166.1598,-638.4299 219.8705,-589.0326 256.6496,-551.0009"/>
<polygon fill="none" stroke="#404040" points="256.8732,-550.7668 258.1245,-543.6651 265.1612,-542.0888 263.9099,-549.1905 256.8732,-550.7668"/>
<text text-anchor="middle" x="109.5" y="-772.5" font-family="Helvetica,sans-Serif" font-size="10.00" fill="#000000"> +NonConsecutiveIDs</text>
<text text-anchor="middle" x="109.5" y="-761.5" font-family="Helvetica,sans-Serif" font-size="10.00" fill="#000000">+RejectMode</text>
<text text-anchor="middle" x="109.5" y="-750.5" font-family="Helvetica,sans-Serif" font-size="10.00" fill="#000000">+ForceEarlyTPCTransform</text>
<text text-anchor="middle" x="109.5" y="-739.5" font-family="Helvetica,sans-Serif" font-size="10.00" fill="#000000">+NWays</text>
<text text-anchor="middle" x="109.5" y="-728.5" font-family="Helvetica,sans-Serif" font-size="10.00" fill="#000000">+NWaysOuter</text>
<text text-anchor="middle" x="109.5" y="-717.5" font-family="Helvetica,sans-Serif" font-size="10.00" fill="#000000">+GlobalTracking</text>
</g>
<!-- Node4 -->
<g id="node4" class="node">
<title>Node4</title>
<g id="a_node4"><a xlink:href="../../d4/dc3/classfloat.html" target="_top" xlink:title="{float\n||}">
<polygon fill="none" stroke="#000000" points="550,-826.5 550,-883.5 588,-883.5 588,-826.5 550,-826.5"/>
<text text-anchor="middle" x="569" y="-871.5" font-family="Helvetica,sans-Serif" font-size="10.00" fill="#000000">float</text>
<polyline fill="none" stroke="#000000" points="550,-864.5 588,-864.5 "/>
<text text-anchor="middle" x="569" y="-852.5" font-family="Helvetica,sans-Serif" font-size="10.00" fill="#000000"> </text>
<polyline fill="none" stroke="#000000" points="550,-845.5 588,-845.5 "/>
<text text-anchor="middle" x="569" y="-833.5" font-family="Helvetica,sans-Serif" font-size="10.00" fill="#000000"> </text>
</a>
</g>
</g>
<!-- Node4&#45;&gt;Node1 -->
<g id="edge7" class="edge">
<title>Node4&#45;&gt;Node1</title>
<path fill="none" stroke="#404040" d="M569,-826.4901C569,-738.0551 569,-463.8845 569,-289.6694"/>
<polygon fill="none" stroke="#404040" points="569.0001,-289.5625 565,-283.5625 569,-277.5625 573,-283.5625 569.0001,-289.5625"/>
<text text-anchor="middle" x="604" y="-549.5" font-family="Helvetica,sans-Serif" font-size="10.00" fill="#000000"> #ParamS0Par</text>
<text text-anchor="middle" x="604" y="-538.5" font-family="Helvetica,sans-Serif" font-size="10.00" fill="#000000">+ErrY2</text>
<text text-anchor="middle" x="604" y="-527.5" font-family="Helvetica,sans-Serif" font-size="10.00" fill="#000000">+const</text>
<text text-anchor="middle" x="604" y="-516.5" font-family="Helvetica,sans-Serif" font-size="10.00" fill="#000000">+PadPitch</text>
<text text-anchor="middle" x="604" y="-505.5" font-family="Helvetica,sans-Serif" font-size="10.00" fill="#000000">+DAlpha</text>
<text text-anchor="middle" x="604" y="-494.5" font-family="Helvetica,sans-Serif" font-size="10.00" fill="#000000">+DzDs</text>
<text text-anchor="middle" x="604" y="-483.5" font-family="Helvetica,sans-Serif" font-size="10.00" fill="#000000">+sinPhi</text>
<text text-anchor="middle" x="604" y="-472.5" font-family="Helvetica,sans-Serif" font-size="10.00" fill="#000000">#ParamRMS0</text>
<text text-anchor="middle" x="604" y="-461.5" font-family="Helvetica,sans-Serif" font-size="10.00" fill="#000000">+x</text>
<text text-anchor="middle" x="604" y="-450.5" font-family="Helvetica,sans-Serif" font-size="10.00" fill="#000000">+RMin</text>
<text text-anchor="middle" x="604" y="-439.5" font-family="Helvetica,sans-Serif" font-size="10.00" fill="#000000">...</text>
</g>
<!-- Node4&#45;&gt;Node2 -->
<g id="edge3" class="edge">
<title>Node4&#45;&gt;Node2</title>
<path fill="none" stroke="#404040" d="M549.702,-853.7984C500.2559,-850.3008 370.9448,-838.3801 343,-808 334.5128,-798.7732 318.5391,-641.5097 310.2656,-554.2382"/>
<polygon fill="none" stroke="#404040" points="310.2527,-554.1005 305.7074,-548.5023 309.1267,-542.1535 313.6721,-547.7517 310.2527,-554.1005"/>
<text text-anchor="middle" x="407.5" y="-789" font-family="Helvetica,sans-Serif" font-size="10.00" fill="#000000"> +tpcRejectQPt</text>
<text text-anchor="start" x="343" y="-778" font-family="Helvetica,sans-Serif" font-size="10.00" fill="#000000">+ClusterError2Correction</text>
<text text-anchor="middle" x="407.5" y="-767" font-family="Helvetica,sans-Serif" font-size="10.00" fill="#000000">Z</text>
<text text-anchor="middle" x="407.5" y="-756" font-family="Helvetica,sans-Serif" font-size="10.00" fill="#000000">+NeighboursSearchArea</text>
<text text-anchor="middle" x="407.5" y="-745" font-family="Helvetica,sans-Serif" font-size="10.00" fill="#000000">+TrackReferenceX</text>
<text text-anchor="middle" x="407.5" y="-734" font-family="Helvetica,sans-Serif" font-size="10.00" fill="#000000">+SearchWindowDZDR</text>
<text text-anchor="middle" x="407.5" y="-723" font-family="Helvetica,sans-Serif" font-size="10.00" fill="#000000">+MaxTrackQPt</text>
<text text-anchor="middle" x="407.5" y="-712" font-family="Helvetica,sans-Serif" font-size="10.00" fill="#000000">+HitPickUpFactor</text>
<text text-anchor="middle" x="407.5" y="-701" font-family="Helvetica,sans-Serif" font-size="10.00" fill="#000000">+ClusterError2CorrectionY</text>
</g>
<!-- Node7 -->
<g id="node7" class="node">
<title>Node7</title>
<g id="a_node7"><a xlink:href="../../dc/dc1/structGPUCA__NAMESPACE_1_1gpu_1_1GPUParamSlice.html" target="_top" xlink:title="{GPUCA_NAMESPACE::gpu\l::GPUParamSlice\n||}">
<polygon fill="none" stroke="#000000" points="393,-463 393,-531 533,-531 533,-463 393,-463"/>
<text text-anchor="start" x="401" y="-519" font-family="Helvetica,sans-Serif" font-size="10.00" fill="#000000">GPUCA_NAMESPACE::gpu</text>
<text text-anchor="middle" x="463" y="-508" font-family="Helvetica,sans-Serif" font-size="10.00" fill="#000000">::GPUParamSlice</text>
<polyline fill="none" stroke="#000000" points="393,-501 533,-501 "/>
<text text-anchor="middle" x="463" y="-489" font-family="Helvetica,sans-Serif" font-size="10.00" fill="#000000"> </text>
<polyline fill="none" stroke="#000000" points="393,-482 533,-482 "/>
<text text-anchor="middle" x="463" y="-470" font-family="Helvetica,sans-Serif" font-size="10.00" fill="#000000"> </text>
</a>
</g>
</g>
<!-- Node4&#45;&gt;Node7 -->
<g id="edge9" class="edge">
<title>Node4&#45;&gt;Node7</title>
<path fill="none" stroke="#404040" d="M549.9966,-848.4681C532.551,-841.3966 507.5654,-828.3239 495,-808 481.4053,-786.0113 470.3223,-624.51 465.5418,-543.3235"/>
<polygon fill="none" stroke="#404040" points="465.5365,-543.2308 461.1963,-537.4722 464.8426,-531.2509 469.1829,-537.0095 465.5365,-543.2308"/>
<text text-anchor="middle" x="525" y="-778" font-family="Helvetica,sans-Serif" font-size="10.00" fill="#000000"> +AngleMax</text>
<text text-anchor="middle" x="525" y="-767" font-family="Helvetica,sans-Serif" font-size="10.00" fill="#000000">+ZMin</text>
<text text-anchor="middle" x="525" y="-756" font-family="Helvetica,sans-Serif" font-size="10.00" fill="#000000">+ZMax</text>
<text text-anchor="middle" x="525" y="-745" font-family="Helvetica,sans-Serif" font-size="10.00" fill="#000000">+Alpha</text>
<text text-anchor="middle" x="525" y="-734" font-family="Helvetica,sans-Serif" font-size="10.00" fill="#000000">+SinAlpha</text>
<text text-anchor="middle" x="525" y="-723" font-family="Helvetica,sans-Serif" font-size="10.00" fill="#000000">+CosAlpha</text>
<text text-anchor="middle" x="525" y="-712" font-family="Helvetica,sans-Serif" font-size="10.00" fill="#000000">+AngleMin</text>
</g>
<!-- Node8 -->
<g id="node8" class="node">
<title>Node8</title>
<g id="a_node8"><a xlink:href="../../d0/d97/classGPUCA__NAMESPACE_1_1gpu_1_1GPUTPCGMPolynomialField.html" target="_top" xlink:title="{GPUCA_NAMESPACE::gpu\l::GPUTPCGMPolynomialField\n||+ GPUTPCGMPolynomialField()\l+ Reset()\l+ SetFieldNominal()\l+ SetFieldTpc()\l+ SetFieldTrd()\l+ SetFieldIts()\l+ GPUdi()\l+ GPUd()\l+ GPUd()\l+ GPUd()\l+ GPUd()\l+ GPUd()\l+ GPUd()\l+ Print()\l+ GPUd()\l+ GPUd()\l+ GPUd()\l+ GetCoefmTpcBx()\l+ GetCoefmTpcBy()\l+ GetCoefmTpcBz()\l+ GetCoefmTrdBx()\l+ GetCoefmTrdBy()\l+ GetCoefmTrdBz()\l+ GetCoefmItsBx()\l+ GetCoefmItsBy()\l+ GetCoefmItsBz()\l}">
<polygon fill="none" stroke="#000000" points="815,-325.5 815,-668.5 983,-668.5 983,-325.5 815,-325.5"/>
<text text-anchor="start" x="823" y="-656.5" font-family="Helvetica,sans-Serif" font-size="10.00" fill="#000000">GPUCA_NAMESPACE::gpu</text>
<text text-anchor="middle" x="899" y="-645.5" font-family="Helvetica,sans-Serif" font-size="10.00" fill="#000000">::GPUTPCGMPolynomialField</text>
<polyline fill="none" stroke="#000000" points="815,-638.5 983,-638.5 "/>
<text text-anchor="middle" x="899" y="-626.5" font-family="Helvetica,sans-Serif" font-size="10.00" fill="#000000"> </text>
<polyline fill="none" stroke="#000000" points="815,-619.5 983,-619.5 "/>
<text text-anchor="start" x="823" y="-607.5" font-family="Helvetica,sans-Serif" font-size="10.00" fill="#000000">+ GPUTPCGMPolynomialField()</text>
<text text-anchor="start" x="823" y="-596.5" font-family="Helvetica,sans-Serif" font-size="10.00" fill="#000000">+ Reset()</text>
<text text-anchor="start" x="823" y="-585.5" font-family="Helvetica,sans-Serif" font-size="10.00" fill="#000000">+ SetFieldNominal()</text>
<text text-anchor="start" x="823" y="-574.5" font-family="Helvetica,sans-Serif" font-size="10.00" fill="#000000">+ SetFieldTpc()</text>
<text text-anchor="start" x="823" y="-563.5" font-family="Helvetica,sans-Serif" font-size="10.00" fill="#000000">+ SetFieldTrd()</text>
<text text-anchor="start" x="823" y="-552.5" font-family="Helvetica,sans-Serif" font-size="10.00" fill="#000000">+ SetFieldIts()</text>
<text text-anchor="start" x="823" y="-541.5" font-family="Helvetica,sans-Serif" font-size="10.00" fill="#000000">+ GPUdi()</text>
<text text-anchor="start" x="823" y="-530.5" font-family="Helvetica,sans-Serif" font-size="10.00" fill="#000000">+ GPUd()</text>
<text text-anchor="start" x="823" y="-519.5" font-family="Helvetica,sans-Serif" font-size="10.00" fill="#000000">+ GPUd()</text>
<text text-anchor="start" x="823" y="-508.5" font-family="Helvetica,sans-Serif" font-size="10.00" fill="#000000">+ GPUd()</text>
<text text-anchor="start" x="823" y="-497.5" font-family="Helvetica,sans-Serif" font-size="10.00" fill="#000000">+ GPUd()</text>
<text text-anchor="start" x="823" y="-486.5" font-family="Helvetica,sans-Serif" font-size="10.00" fill="#000000">+ GPUd()</text>
<text text-anchor="start" x="823" y="-475.5" font-family="Helvetica,sans-Serif" font-size="10.00" fill="#000000">+ GPUd()</text>
<text text-anchor="start" x="823" y="-464.5" font-family="Helvetica,sans-Serif" font-size="10.00" fill="#000000">+ Print()</text>
<text text-anchor="start" x="823" y="-453.5" font-family="Helvetica,sans-Serif" font-size="10.00" fill="#000000">+ GPUd()</text>
<text text-anchor="start" x="823" y="-442.5" font-family="Helvetica,sans-Serif" font-size="10.00" fill="#000000">+ GPUd()</text>
<text text-anchor="start" x="823" y="-431.5" font-family="Helvetica,sans-Serif" font-size="10.00" fill="#000000">+ GPUd()</text>
<text text-anchor="start" x="823" y="-420.5" font-family="Helvetica,sans-Serif" font-size="10.00" fill="#000000">+ GetCoefmTpcBx()</text>
<text text-anchor="start" x="823" y="-409.5" font-family="Helvetica,sans-Serif" font-size="10.00" fill="#000000">+ GetCoefmTpcBy()</text>
<text text-anchor="start" x="823" y="-398.5" font-family="Helvetica,sans-Serif" font-size="10.00" fill="#000000">+ GetCoefmTpcBz()</text>
<text text-anchor="start" x="823" y="-387.5" font-family="Helvetica,sans-Serif" font-size="10.00" fill="#000000">+ GetCoefmTrdBx()</text>
<text text-anchor="start" x="823" y="-376.5" font-family="Helvetica,sans-Serif" font-size="10.00" fill="#000000">+ GetCoefmTrdBy()</text>
<text text-anchor="start" x="823" y="-365.5" font-family="Helvetica,sans-Serif" font-size="10.00" fill="#000000">+ GetCoefmTrdBz()</text>
<text text-anchor="start" x="823" y="-354.5" font-family="Helvetica,sans-Serif" font-size="10.00" fill="#000000">+ GetCoefmItsBx()</text>
<text text-anchor="start" x="823" y="-343.5" font-family="Helvetica,sans-Serif" font-size="10.00" fill="#000000">+ GetCoefmItsBy()</text>
<text text-anchor="start" x="823" y="-332.5" font-family="Helvetica,sans-Serif" font-size="10.00" fill="#000000">+ GetCoefmItsBz()</text>
</a>
</g>
</g>
<!-- Node4&#45;&gt;Node8 -->
<g id="edge12" class="edge">
<title>Node4&#45;&gt;Node8</title>
<path fill="none" stroke="#404040" d="M588.3185,-852.9929C632.4115,-848.0047 738.4737,-833.5679 762,-808 798.86,-767.9413 752.488,-733.3727 781,-687 788.1711,-675.3367 796.9595,-679.2823 806,-669 806.3783,-668.5698 806.7556,-668.1378 807.1319,-667.704"/>
<polygon fill="none" stroke="#404040" points="807.2308,-667.5848 807.9846,-660.4132 814.8945,-658.3507 814.1407,-665.5224 807.2308,-667.5848"/>
<text text-anchor="middle" x="800" y="-761.5" font-family="Helvetica,sans-Serif" font-size="10.00" fill="#000000"> +const</text>
<text text-anchor="middle" x="800" y="-750.5" font-family="Helvetica,sans-Serif" font-size="10.00" fill="#000000">+f</text>
<text text-anchor="middle" x="800" y="-739.5" font-family="Helvetica,sans-Serif" font-size="10.00" fill="#000000">+y</text>
<text text-anchor="middle" x="800" y="-728.5" font-family="Helvetica,sans-Serif" font-size="10.00" fill="#000000">+z</text>
</g>
<!-- Node10 -->
<g id="node10" class="node">
<title>Node10</title>
<g id="a_node10"><a xlink:href="../../d0/d52/classGPUCA__NAMESPACE_1_1gpu_1_1GPUTPCGeometry.html" target="_top" xlink:title="{GPUCA_NAMESPACE::gpu\l::GPUTPCGeometry\n||+ GPUd()\l+ GPUd()\l+ GPUd()\l+ GPUd()\l+ GPUd()\l+ GPUd()\l+ GPUd()\l+ GPUd()\l+ GPUd()\l+ GPUd()\l+ PadWidth()\l+ GPUd()\l+ return()\l}">
<polygon fill="none" stroke="#000000" points="657,-397 657,-597 797,-597 797,-397 657,-397"/>
<text text-anchor="start" x="665" y="-585" font-family="Helvetica,sans-Serif" font-size="10.00" fill="#000000">GPUCA_NAMESPACE::gpu</text>
<text text-anchor="middle" x="727" y="-574" font-family="Helvetica,sans-Serif" font-size="10.00" fill="#000000">::GPUTPCGeometry</text>
<polyline fill="none" stroke="#000000" points="657,-567 797,-567 "/>
<text text-anchor="middle" x="727" y="-555" font-family="Helvetica,sans-Serif" font-size="10.00" fill="#000000"> </text>
<polyline fill="none" stroke="#000000" points="657,-548 797,-548 "/>
<text text-anchor="start" x="665" y="-536" font-family="Helvetica,sans-Serif" font-size="10.00" fill="#000000">+ GPUd()</text>
<text text-anchor="start" x="665" y="-525" font-family="Helvetica,sans-Serif" font-size="10.00" fill="#000000">+ GPUd()</text>
<text text-anchor="start" x="665" y="-514" font-family="Helvetica,sans-Serif" font-size="10.00" fill="#000000">+ GPUd()</text>
<text text-anchor="start" x="665" y="-503" font-family="Helvetica,sans-Serif" font-size="10.00" fill="#000000">+ GPUd()</text>
<text text-anchor="start" x="665" y="-492" font-family="Helvetica,sans-Serif" font-size="10.00" fill="#000000">+ GPUd()</text>
<text text-anchor="start" x="665" y="-481" font-family="Helvetica,sans-Serif" font-size="10.00" fill="#000000">+ GPUd()</text>
<text text-anchor="start" x="665" y="-470" font-family="Helvetica,sans-Serif" font-size="10.00" fill="#000000">+ GPUd()</text>
<text text-anchor="start" x="665" y="-459" font-family="Helvetica,sans-Serif" font-size="10.00" fill="#000000">+ GPUd()</text>
<text text-anchor="start" x="665" y="-448" font-family="Helvetica,sans-Serif" font-size="10.00" fill="#000000">+ GPUd()</text>
<text text-anchor="start" x="665" y="-437" font-family="Helvetica,sans-Serif" font-size="10.00" fill="#000000">+ GPUd()</text>
<text text-anchor="start" x="665" y="-426" font-family="Helvetica,sans-Serif" font-size="10.00" fill="#000000">+ PadWidth()</text>
<text text-anchor="start" x="665" y="-415" font-family="Helvetica,sans-Serif" font-size="10.00" fill="#000000">+ GPUd()</text>
<text text-anchor="start" x="665" y="-404" font-family="Helvetica,sans-Serif" font-size="10.00" fill="#000000">+ return()</text>
</a>
</g>
</g>
<!-- Node4&#45;&gt;Node10 -->
<g id="edge15" class="edge">
<title>Node4&#45;&gt;Node10</title>
<path fill="none" stroke="#404040" d="M575.9401,-826.21C577.3314,-820.2028 578.7489,-813.9026 580,-808 591.3509,-754.4491 569.0973,-729.9785 603,-687 615.0738,-671.694 629,-682.5665 643,-669 660.7403,-651.809 675.2606,-630.099 686.9351,-607.944"/>
<polygon fill="none" stroke="#404040" points="687.0278,-607.7606 686.1633,-600.6015 692.4393,-597.05 693.3037,-604.2091 687.0278,-607.7606"/>
<text text-anchor="middle" x="620" y="-750.5" font-family="Helvetica,sans-Serif" font-size="10.00" fill="#000000"> +time</text>
<text text-anchor="middle" x="620" y="-739.5" font-family="Helvetica,sans-Serif" font-size="10.00" fill="#000000">+z</text>
</g>
<!-- Node5 -->
<g id="node5" class="node">
<title>Node5</title>
<polygon fill="none" stroke="#bfbfbf" points="830.5,-826.5 830.5,-883.5 859.5,-883.5 859.5,-826.5 830.5,-826.5"/>
<text text-anchor="middle" x="845" y="-871.5" font-family="Helvetica,sans-Serif" font-size="10.00" fill="#000000">int</text>
<polyline fill="none" stroke="#bfbfbf" points="830.5,-864.5 859.5,-864.5 "/>
<text text-anchor="middle" x="845" y="-852.5" font-family="Helvetica,sans-Serif" font-size="10.00" fill="#000000"> </text>
<polyline fill="none" stroke="#bfbfbf" points="830.5,-845.5 859.5,-845.5 "/>
<text text-anchor="middle" x="845" y="-833.5" font-family="Helvetica,sans-Serif" font-size="10.00" fill="#000000"> </text>
</g>
<!-- Node5&#45;&gt;Node1 -->
<g id="edge10" class="edge">
<title>Node5&#45;&gt;Node1</title>
<path fill="none" stroke="#404040" d="M859.7721,-843.0018C891.6591,-816.0019 966.1437,-746.7182 992,-669 1040.2642,-523.929 1075.5646,-453.0311 992,-325 916.473,-209.2833 751.0816,-165.0795 650.9478,-148.5416"/>
<polygon fill="none" stroke="#404040" points="650.9223,-148.5377 644.3701,-151.549 639.0703,-146.659 645.6225,-143.6476 650.9223,-148.5377"/>
<text text-anchor="middle" x="1095.5" y="-522" font-family="Helvetica,sans-Serif" font-size="10.00" fill="#000000"> +type</text>
<text text-anchor="middle" x="1095.5" y="-511" font-family="Helvetica,sans-Serif" font-size="10.00" fill="#000000">+const</text>
<text text-anchor="start" x="1042" y="-500" font-family="Helvetica,sans-Serif" font-size="10.00" fill="#000000">+continuousMaxTime</text>
<text text-anchor="middle" x="1095.5" y="-489" font-family="Helvetica,sans-Serif" font-size="10.00" fill="#000000">Bin</text>
<text text-anchor="middle" x="1095.5" y="-478" font-family="Helvetica,sans-Serif" font-size="10.00" fill="#000000">+z</text>
<text text-anchor="middle" x="1095.5" y="-467" font-family="Helvetica,sans-Serif" font-size="10.00" fill="#000000">+debugLevel</text>
</g>
<!-- Node5&#45;&gt;Node2 -->
<g id="edge4" class="edge">
<title>Node5&#45;&gt;Node2</title>
<path fill="none" stroke="#404040" d="M830.3528,-853.4312C790.2038,-848.8239 679.8045,-833.9967 656,-808 619.2374,-767.8519 677.0882,-723.8279 637,-687 595.4922,-648.8681 430.3396,-701.0871 384,-669 345.9288,-642.6382 325.8333,-593.1794 315.4596,-554.0405"/>
<polygon fill="none" stroke="#404040" points="315.4274,-553.9105 310.1025,-549.0478 312.5431,-542.2622 317.868,-547.1249 315.4274,-553.9105"/>
<text text-anchor="middle" x="707" y="-745" font-family="Helvetica,sans-Serif" font-size="10.00" fill="#000000"> +MinNTrackClusters</text>
</g>
<!-- Node5&#45;&gt;Node10 -->
<g id="edge16" class="edge">
<title>Node5&#45;&gt;Node10</title>
<path fill="none" stroke="#404040" d="M846.4793,-826.458C847.1348,-791.7807 844.5222,-732.3011 823,-687 818.2779,-677.0608 812.1559,-678.1209 806,-669 793.32,-650.2128 781.7378,-629.0628 771.5823,-608.1872"/>
<polygon fill="none" stroke="#404040" points="771.5619,-608.1443 765.3711,-604.4464 766.4035,-597.3096 772.5943,-601.0074 771.5619,-608.1443"/>
<text text-anchor="middle" x="865" y="-750.5" font-family="Helvetica,sans-Serif" font-size="10.00" fill="#000000"> +const</text>
<text text-anchor="middle" x="865" y="-739.5" font-family="Helvetica,sans-Serif" font-size="10.00" fill="#000000">+row</text>
</g>
<!-- Node6 -->
<g id="node6" class="node">
<title>Node6</title>
<polygon fill="none" stroke="#bfbfbf" points="154.5,-826.5 154.5,-883.5 215.5,-883.5 215.5,-826.5 154.5,-826.5"/>
<text text-anchor="middle" x="185" y="-871.5" font-family="Helvetica,sans-Serif" font-size="10.00" fill="#000000">unsigned</text>
<polyline fill="none" stroke="#bfbfbf" points="154.5,-864.5 215.5,-864.5 "/>
<text text-anchor="middle" x="185" y="-852.5" font-family="Helvetica,sans-Serif" font-size="10.00" fill="#000000"> </text>
<polyline fill="none" stroke="#bfbfbf" points="154.5,-845.5 215.5,-845.5 "/>
<text text-anchor="middle" x="185" y="-833.5" font-family="Helvetica,sans-Serif" font-size="10.00" fill="#000000"> </text>
</g>
<!-- Node6&#45;&gt;Node2 -->
<g id="edge5" class="edge">
<title>Node6&#45;&gt;Node2</title>
<path fill="none" stroke="#404040" d="M180.503,-826.3799C176.2168,-792.3886 172.2476,-734.3352 186,-687 200.4421,-637.291 231.9961,-587.9508 258.9844,-552.0126"/>
<polygon fill="none" stroke="#404040" points="259.1669,-551.7739 259.6349,-544.578 266.4573,-542.2423 265.9893,-549.4383 259.1669,-551.7739"/>
<text text-anchor="middle" x="253" y="-800" font-family="Helvetica,sans-Serif" font-size="10.00" fill="#000000"> +bz0Pt</text>
<text text-anchor="middle" x="253" y="-789" font-family="Helvetica,sans-Serif" font-size="10.00" fill="#000000">+tpcCompressionModes</text>
<text text-anchor="middle" x="253" y="-778" font-family="Helvetica,sans-Serif" font-size="10.00" fill="#000000">+tpcZSthreshold</text>
<text text-anchor="middle" x="253" y="-767" font-family="Helvetica,sans-Serif" font-size="10.00" fill="#000000">+fwdTPCDigitsAsClusters</text>
<text text-anchor="middle" x="253" y="-756" font-family="Helvetica,sans-Serif" font-size="10.00" fill="#000000">+tpcSigBitsWidth</text>
<text text-anchor="middle" x="253" y="-745" font-family="Helvetica,sans-Serif" font-size="10.00" fill="#000000">+dEdxTruncHigh</text>
<text text-anchor="middle" x="253" y="-734" font-family="Helvetica,sans-Serif" font-size="10.00" fill="#000000">+tpcSigBitsCharge</text>
<text text-anchor="middle" x="253" y="-723" font-family="Helvetica,sans-Serif" font-size="10.00" fill="#000000">+DisableRefitAttachment</text>
<text text-anchor="middle" x="253" y="-712" font-family="Helvetica,sans-Serif" font-size="10.00" fill="#000000">+tpcCompressionSortOrder</text>
<text text-anchor="middle" x="253" y="-701" font-family="Helvetica,sans-Serif" font-size="10.00" fill="#000000">+tpcRejectionMode</text>
<text text-anchor="middle" x="253" y="-690" font-family="Helvetica,sans-Serif" font-size="10.00" fill="#000000">...</text>
</g>
<!-- Node7&#45;&gt;Node1 -->
<g id="edge8" class="edge">
<title>Node7&#45;&gt;Node1</title>
<path fill="none" stroke="#404040" d="M463.8797,-462.8194C465.7267,-422.2103 471.4296,-352.8102 489,-296 490.6906,-290.5339 492.5611,-285.0285 494.5763,-279.5187"/>
<polygon fill="none" stroke="#404040" points="494.6138,-279.4207 493.0237,-272.3871 498.9047,-268.2141 500.4948,-275.2477 494.6138,-279.4207"/>
<text text-anchor="middle" x="522" y="-299" font-family="Helvetica,sans-Serif" font-size="10.00" fill="#000000"> +SliceParam</text>
</g>
<!-- Node8&#45;&gt;Node1 -->
<g id="edge11" class="edge">
<title>Node8&#45;&gt;Node1</title>
<path fill="none" stroke="#404040" d="M814.701,-335.8158C811.8554,-332.1159 808.9542,-328.5036 806,-325 761.0507,-271.6917 698.6442,-223.4632 649.1527,-189.4807"/>
<polygon fill="none" stroke="#404040" points="649.0435,-189.4066 641.8327,-189.3435 639.1175,-182.6631 646.3284,-182.7262 649.0435,-189.4066"/>
<text text-anchor="middle" x="833.5" y="-299" font-family="Helvetica,sans-Serif" font-size="10.00" fill="#000000"> +polynomialField</text>
</g>
<!-- Node9 -->
<g id="node9" class="node">
<title>Node9</title>
<polygon fill="none" stroke="#bfbfbf" points="1030,-826.5 1030,-883.5 1074,-883.5 1074,-826.5 1030,-826.5"/>
<text text-anchor="middle" x="1052" y="-871.5" font-family="Helvetica,sans-Serif" font-size="10.00" fill="#000000">static</text>
<polyline fill="none" stroke="#bfbfbf" points="1030,-864.5 1074,-864.5 "/>
<text text-anchor="middle" x="1052" y="-852.5" font-family="Helvetica,sans-Serif" font-size="10.00" fill="#000000"> </text>
<polyline fill="none" stroke="#bfbfbf" points="1030,-845.5 1074,-845.5 "/>
<text text-anchor="middle" x="1052" y="-833.5" font-family="Helvetica,sans-Serif" font-size="10.00" fill="#000000"> </text>
</g>
<!-- Node9&#45;&gt;Node8 -->
<g id="edge13" class="edge">
<title>Node9&#45;&gt;Node8</title>
<path fill="none" stroke="#404040" d="M1039.738,-826.3085C1025.715,-793.4966 1001.5291,-736.9046 977.1227,-679.797"/>
<polygon fill="none" stroke="#404040" points="977.1197,-679.7897 971.0836,-675.8445 972.4038,-668.7552 978.4399,-672.7005 977.1197,-679.7897"/>
<text text-anchor="middle" x="1051.5" y="-756" font-family="Helvetica,sans-Serif" font-size="10.00" fill="#000000"> +NITSM</text>
<text text-anchor="middle" x="1051.5" y="-745" font-family="Helvetica,sans-Serif" font-size="10.00" fill="#000000">+NTPCM</text>
<text text-anchor="middle" x="1051.5" y="-734" font-family="Helvetica,sans-Serif" font-size="10.00" fill="#000000">+NTRDM</text>
</g>
<!-- Node10&#45;&gt;Node1 -->
<g id="edge14" class="edge">
<title>Node10&#45;&gt;Node1</title>
<path fill="none" stroke="#404040" d="M682.7781,-396.801C668.01,-363.3392 651.2161,-325.2872 635.1507,-288.8859"/>
<polygon fill="none" stroke="#404040" points="635.0366,-288.6271 628.9545,-284.7531 630.1914,-277.6488 636.2734,-281.5229 635.0366,-288.6271"/>
<text text-anchor="middle" x="676" y="-299" font-family="Helvetica,sans-Serif" font-size="10.00" fill="#000000"> +tpcGeometry</text>
</g>
</g>
</svg>
        <g id="navigator" transform="translate(0 0)" fill="#404254">
                <rect fill="#f2f5e9" fill-opacity="0.5" stroke="#606060" stroke-width=".5" x="0" y="0" width="60" height="60"/>
                <use id="zoomplus" xlink:href="#zoomPlus" x="17" y="9" onmousedown="handleZoom(evt,'in')"/>
                <use id="zoomminus" xlink:href="#zoomMin" x="42" y="9" onmousedown="handleZoom(evt,'out')"/>
                <use id="reset" xlink:href="#resetDef" x="30" y="36" onmousedown="handleReset()"/>
                <g id="arrowUp" xlink:href="#dirArrow" transform="translate(30 24)" onmousedown="handlePan(0,-1)">
                  <use xlink:href="#rim" fill="#404040">
                        <set attributeName="fill" to="#808080" begin="arrowUp.mouseover" end="arrowUp.mouseout"/>
                  </use>
                  <path fill="none" stroke="white" stroke-width="1.5" d="M0,-3.0v7 M-2.5,-0.5L0,-3.0L2.5,-0.5"/>
                </g>
                <g id="arrowRight" xlink:href="#dirArrow" transform="rotate(90) translate(36 -43)" onmousedown="handlePan(1,0)">
                  <use xlink:href="#rim" fill="#404040">
                        <set attributeName="fill" to="#808080" begin="arrowRight.mouseover" end="arrowRight.mouseout"/>
                  </use>
                  <path fill="none" stroke="white" stroke-width="1.5" d="M0,-3.0v7 M-2.5,-0.5L0,-3.0L2.5,-0.5"/>
                </g>
                <g id="arrowDown" xlink:href="#dirArrow" transform="rotate(180) translate(-30 -48)" onmousedown="handlePan(0,1)">
                  <use xlink:href="#rim" fill="#404040">
                        <set attributeName="fill" to="#808080" begin="arrowDown.mouseover" end="arrowDown.mouseout"/>
                  </use>
                  <path fill="none" stroke="white" stroke-width="1.5" d="M0,-3.0v7 M-2.5,-0.5L0,-3.0L2.5,-0.5"/>
                </g>
                <g id="arrowLeft" xlink:href="#dirArrow" transform="rotate(270) translate(-36 17)" onmousedown="handlePan(-1,0)">
                  <use xlink:href="#rim" fill="#404040">
                        <set attributeName="fill" to="#808080" begin="arrowLeft.mouseover" end="arrowLeft.mouseout"/>
                  </use>
                  <path fill="none" stroke="white" stroke-width="1.5" d="M0,-3.0v7 M-2.5,-0.5L0,-3.0L2.5,-0.5"/>
                </g>
        </g>
        <svg viewBox="0 0 15 15" width="100%" height="30px" preserveAspectRatio="xMaxYMin meet">
         <g id="arrow_out" transform="scale(0.3 0.3)">
          <a xlink:href="structGPUCA__NAMESPACE_1_1gpu_1_1GPUParam__coll__graph_org.svg" target="_base">
           <rect id="button" ry="5" rx="5" y="6" x="6" height="38" width="38"
                fill="#f2f5e9" fill-opacity="0.5" stroke="#606060" stroke-width="1.0"/>
           <path id="arrow"
             d="M 11.500037,31.436501 C 11.940474,20.09759 22.043105,11.32322 32.158766,21.979434 L 37.068811,17.246167 C 37.068811,17.246167 37.088388,32 37.088388,32 L 22.160133,31.978069 C 22.160133,31.978069 26.997745,27.140456 26.997745,27.140456 C 18.528582,18.264221 13.291696,25.230495 11.500037,31.436501 z"
             style="fill:#404040;"/>
          </a>
         </g>
        </svg>
</svg>
