<?xml version="1.0" encoding="UTF-8" standalone="no"?>
<!DOCTYPE svg PUBLIC "-//W3C//DTD SVG 1.1//EN"
 "http://www.w3.org/Graphics/SVG/1.1/DTD/svg11.dtd">
<!-- Generated by graphviz version 2.40.1 (20161225.0304)
 -->
<!-- Title: o2::framework::DataProcessorSpec Pages: 1 -->
<!--zoomable 397 -->
<svg id="main" version="1.1" xmlns="http://www.w3.org/2000/svg" xmlns:xlink="http://www.w3.org/1999/xlink" xml:space="preserve" onload="init(evt)">
<style type="text/css"><![CDATA[
.edge:hover path { stroke: red; }
.edge:hover polygon { stroke: red; fill: red; }
]]></style>
<script type="text/javascript"><![CDATA[
var edges = document.getElementsByTagName('g');
if (edges && edges.length) {
  for (var i=0;i<edges.length;i++) {
    if (edges[i].id.substr(0,4)=='edge') {
      edges[i].setAttribute('class','edge');
    }
  }
}
]]></script>
        <defs>
                <circle id="rim" cx="0" cy="0" r="7"/>
                <circle id="rim2" cx="0" cy="0" r="3.5"/>
                <g id="zoomPlus">
                        <use xlink:href="#rim" fill="#404040">
                                <set attributeName="fill" to="#808080" begin="zoomplus.mouseover" end="zoomplus.mouseout"/>
                        </use>
                        <path d="M-4,0h8M0,-4v8" fill="none" stroke="white" stroke-width="1.5" pointer-events="none"/>
                </g>
                <g id="zoomMin">
                        <use xlink:href="#rim" fill="#404040">
                                <set attributeName="fill" to="#808080" begin="zoomminus.mouseover" end="zoomminus.mouseout"/>
                        </use>
                        <path d="M-4,0h8" fill="none" stroke="white" stroke-width="1.5" pointer-events="none"/>
                </g>
                <g id="dirArrow">
                        <path fill="none" stroke="white" stroke-width="1.5" d="M0,-3.0v7 M-2.5,-0.5L0,-3.0L2.5,-0.5"/>
                </g>
               <g id="resetDef">
                       <use xlink:href="#rim2" fill="#404040">
                               <set attributeName="fill" to="#808080" begin="reset.mouseover" end="reset.mouseout"/>
                       </use>
               </g>
        </defs>

<script type="text/javascript">
var viewWidth = 1131;
var viewHeight = 397;
var sectionId = 'dynsection-0';
</script>
<script xlink:href="../../svgpan.js"/>
<svg id="graph" class="graph">
<g id="viewport">
<title>o2::framework::DataProcessorSpec</title>
<!-- Node1 -->
<g id="node1" class="node">
<title>Node1</title>
<polygon fill="#bfbfbf" stroke="#000000" points="443,-.5 443,-57.5 631,-57.5 631,-.5 443,-.5"/>
<text text-anchor="middle" x="537" y="-45.5" font-family="Helvetica,sans-Serif" font-size="10.00" fill="#000000">o2::framework::DataProcessorSpec</text>
<polyline fill="none" stroke="#000000" points="443,-38.5 631,-38.5 "/>
<text text-anchor="middle" x="537" y="-26.5" font-family="Helvetica,sans-Serif" font-size="10.00" fill="#000000"> </text>
<polyline fill="none" stroke="#000000" points="443,-19.5 631,-19.5 "/>
<text text-anchor="middle" x="537" y="-7.5" font-family="Helvetica,sans-Serif" font-size="10.00" fill="#000000"> </text>
</g>
<!-- Node2 -->
<g id="node2" class="node">
<title>Node2</title>
<polygon fill="none" stroke="#bfbfbf" points="0,-177 0,-234 118,-234 118,-177 0,-177"/>
<text text-anchor="middle" x="59" y="-222" font-family="Helvetica,sans-Serif" font-size="10.00" fill="#000000">vector&lt; InputSpec &gt;</text>
<polyline fill="none" stroke="#bfbfbf" points="0,-215 118,-215 "/>
<text text-anchor="middle" x="59" y="-203" font-family="Helvetica,sans-Serif" font-size="10.00" fill="#000000"> </text>
<polyline fill="none" stroke="#bfbfbf" points="0,-196 118,-196 "/>
<text text-anchor="middle" x="59" y="-184" font-family="Helvetica,sans-Serif" font-size="10.00" fill="#000000"> </text>
</g>
<!-- Node2&#45;&gt;Node1 -->
<g id="edge1" class="edge">
<title>Node2&#45;&gt;Node1</title>
<path fill="none" stroke="#404040" d="M85.0916,-176.6872C97.2123,-164.092 112.1962,-149.583 127,-138 168.7816,-105.3087 179.1434,-94.1312 229,-76 265.2354,-62.8224 356.6311,-49.7458 430.5133,-40.7445"/>
<polygon fill="none" stroke="#404040" points="430.7631,-40.7145 436.2418,-36.0258 442.6771,-39.2797 437.1983,-43.9684 430.7631,-40.7145"/>
<text text-anchor="middle" x="250" y="-95.5" font-family="Helvetica,sans-Serif" font-size="10.00" fill="#000000"> +inputs</text>
</g>
<!-- Node3 -->
<g id="node3" class="node">
<title>Node3</title>
<polygon fill="none" stroke="#bfbfbf" points="136.5,-171.5 136.5,-239.5 267.5,-239.5 267.5,-171.5 136.5,-171.5"/>
<text text-anchor="start" x="144.5" y="-227.5" font-family="Helvetica,sans-Serif" font-size="10.00" fill="#000000">vector&lt; o2::framework</text>
<text text-anchor="middle" x="202" y="-216.5" font-family="Helvetica,sans-Serif" font-size="10.00" fill="#000000">::DataProcessorLabel &gt;</text>
<polyline fill="none" stroke="#bfbfbf" points="136.5,-209.5 267.5,-209.5 "/>
<text text-anchor="middle" x="202" y="-197.5" font-family="Helvetica,sans-Serif" font-size="10.00" fill="#000000"> </text>
<polyline fill="none" stroke="#bfbfbf" points="136.5,-190.5 267.5,-190.5 "/>
<text text-anchor="middle" x="202" y="-178.5" font-family="Helvetica,sans-Serif" font-size="10.00" fill="#000000"> </text>
</g>
<!-- Node3&#45;&gt;Node1 -->
<g id="edge2" class="edge">
<title>Node3&#45;&gt;Node1</title>
<path fill="none" stroke="#404040" d="M226.5024,-171.4699C249.7709,-141.7079 287.4478,-99.6483 330,-76 360.6876,-58.9454 397.202,-48.0753 430.9566,-41.1485"/>
<polygon fill="none" stroke="#404040" points="430.9861,-41.1429 436.1152,-36.0741 442.7668,-38.8592 437.6376,-43.9279 430.9861,-41.1429"/>
<text text-anchor="middle" x="350.5" y="-95.5" font-family="Helvetica,sans-Serif" font-size="10.00" fill="#000000"> +labels</text>
</g>
<!-- Node4 -->
<g id="node4" class="node">
<title>Node4</title>
<polygon fill="none" stroke="#bfbfbf" points="285.5,-177 285.5,-234 404.5,-234 404.5,-177 285.5,-177"/>
<text text-anchor="middle" x="345" y="-222" font-family="Helvetica,sans-Serif" font-size="10.00" fill="#000000">vector&lt; std::string &gt;</text>
<polyline fill="none" stroke="#bfbfbf" points="285.5,-215 404.5,-215 "/>
<text text-anchor="middle" x="345" y="-203" font-family="Helvetica,sans-Serif" font-size="10.00" fill="#000000"> </text>
<polyline fill="none" stroke="#bfbfbf" points="285.5,-196 404.5,-196 "/>
<text text-anchor="middle" x="345" y="-184" font-family="Helvetica,sans-Serif" font-size="10.00" fill="#000000"> </text>
</g>
<!-- Node4&#45;&gt;Node1 -->
<g id="edge3" class="edge">
<title>Node4&#45;&gt;Node1</title>
<path fill="none" stroke="#404040" d="M351.829,-176.9022C360.1851,-147.7578 377.0604,-103.0969 407,-76 414.4817,-69.2287 423.0127,-63.4138 432.0464,-58.4238"/>
<polygon fill="none" stroke="#404040" points="432.1503,-58.3711 435.6886,-52.0877 442.8495,-52.937 439.3113,-59.2204 432.1503,-58.3711"/>
<text text-anchor="middle" x="454" y="-95.5" font-family="Helvetica,sans-Serif" font-size="10.00" fill="#000000"> +requiredServices</text>
</g>
<!-- Node5 -->
<g id="node5" class="node">
<title>Node5</title>
<polygon fill="none" stroke="#bfbfbf" points="423,-177 423,-234 549,-234 549,-177 423,-177"/>
<text text-anchor="middle" x="486" y="-222" font-family="Helvetica,sans-Serif" font-size="10.00" fill="#000000">vector&lt; OutputSpec &gt;</text>
<polyline fill="none" stroke="#bfbfbf" points="423,-215 549,-215 "/>
<text text-anchor="middle" x="486" y="-203" font-family="Helvetica,sans-Serif" font-size="10.00" fill="#000000"> </text>
<polyline fill="none" stroke="#bfbfbf" points="423,-196 549,-196 "/>
<text text-anchor="middle" x="486" y="-184" font-family="Helvetica,sans-Serif" font-size="10.00" fill="#000000"> </text>
</g>
<!-- Node5&#45;&gt;Node1 -->
<g id="edge4" class="edge">
<title>Node5&#45;&gt;Node1</title>
<path fill="none" stroke="#404040" d="M491.8479,-176.8802C497.5419,-150.4201 506.9398,-110.1499 518,-76 518.7627,-73.6451 519.5871,-71.2403 520.4505,-68.8251"/>
<polygon fill="none" stroke="#404040" points="520.4518,-68.8217 518.8283,-61.7957 524.6894,-57.5948 526.3129,-64.6208 520.4518,-68.8217"/>
<text text-anchor="middle" x="542.5" y="-95.5" font-family="Helvetica,sans-Serif" font-size="10.00" fill="#000000"> +outputs</text>
</g>
<!-- Node6 -->
<g id="node6" class="node">
<title>Node6</title>
<polygon fill="none" stroke="#bfbfbf" points="567,-177 567,-234 611,-234 611,-177 567,-177"/>
<text text-anchor="middle" x="589" y="-222" font-family="Helvetica,sans-Serif" font-size="10.00" fill="#000000">string</text>
<polyline fill="none" stroke="#bfbfbf" points="567,-215 611,-215 "/>
<text text-anchor="middle" x="589" y="-203" font-family="Helvetica,sans-Serif" font-size="10.00" fill="#000000"> </text>
<polyline fill="none" stroke="#bfbfbf" points="567,-196 611,-196 "/>
<text text-anchor="middle" x="589" y="-184" font-family="Helvetica,sans-Serif" font-size="10.00" fill="#000000"> </text>
</g>
<!-- Node6&#45;&gt;Node1 -->
<g id="edge5" class="edge">
<title>Node6&#45;&gt;Node1</title>
<path fill="none" stroke="#404040" d="M587.4133,-176.8509C585.173,-150.0189 579.8046,-109.1912 567,-76 566.0233,-73.4684 564.9009,-70.9276 563.6762,-68.4101"/>
<polygon fill="none" stroke="#404040" points="563.5371,-68.1552 557.1516,-64.8048 557.7882,-57.6219 564.1738,-60.9722 563.5371,-68.1552"/>
<text text-anchor="middle" x="598" y="-95.5" font-family="Helvetica,sans-Serif" font-size="10.00" fill="#000000"> +name</text>
</g>
<!-- Node7 -->
<g id="node7" class="node">
<title>Node7</title>
<polygon fill="none" stroke="#bfbfbf" points="629.5,-177 629.5,-234 784.5,-234 784.5,-177 629.5,-177"/>
<text text-anchor="middle" x="707" y="-222" font-family="Helvetica,sans-Serif" font-size="10.00" fill="#000000">vector&lt; ConfigParamSpec &gt;</text>
<polyline fill="none" stroke="#bfbfbf" points="629.5,-215 784.5,-215 "/>
<text text-anchor="middle" x="707" y="-203" font-family="Helvetica,sans-Serif" font-size="10.00" fill="#000000"> </text>
<polyline fill="none" stroke="#bfbfbf" points="629.5,-196 784.5,-196 "/>
<text text-anchor="middle" x="707" y="-184" font-family="Helvetica,sans-Serif" font-size="10.00" fill="#000000"> </text>
</g>
<!-- Node7&#45;&gt;Node1 -->
<g id="edge6" class="edge">
<title>Node7&#45;&gt;Node1</title>
<path fill="none" stroke="#404040" d="M693.4182,-176.8662C678.8703,-148.5251 653.5562,-105.2522 622,-76 617.5538,-71.8784 612.68,-67.9876 607.5863,-64.3438"/>
<polygon fill="none" stroke="#404040" points="607.5482,-64.3184 600.3371,-64.3066 597.5744,-57.6457 604.7855,-57.6574 607.5482,-64.3184"/>
<text text-anchor="middle" x="681" y="-95.5" font-family="Helvetica,sans-Serif" font-size="10.00" fill="#000000"> +options</text>
</g>
<!-- Node8 -->
<g id="node8" class="node">
<title>Node8</title>
<g id="a_node8"><a xlink:href="../../d4/d5e/structo2_1_1framework_1_1AlgorithmSpec.html" target="_top" xlink:title="{o2::framework::AlgorithmSpec\n||+ AlgorithmSpec()\l+ AlgorithmSpec()\l+ AlgorithmSpec()\l+ AlgorithmSpec()\l+ operator=()\l+ AlgorithmSpec()\l+ AlgorithmSpec()\l+ emptyErrorCallback()\l}">
<polygon fill="none" stroke="#000000" points="802.5,-138.5 802.5,-272.5 967.5,-272.5 967.5,-138.5 802.5,-138.5"/>
<text text-anchor="middle" x="885" y="-260.5" font-family="Helvetica,sans-Serif" font-size="10.00" fill="#000000">o2::framework::AlgorithmSpec</text>
<polyline fill="none" stroke="#000000" points="802.5,-253.5 967.5,-253.5 "/>
<text text-anchor="middle" x="885" y="-241.5" font-family="Helvetica,sans-Serif" font-size="10.00" fill="#000000"> </text>
<polyline fill="none" stroke="#000000" points="802.5,-234.5 967.5,-234.5 "/>
<text text-anchor="start" x="810.5" y="-222.5" font-family="Helvetica,sans-Serif" font-size="10.00" fill="#000000">+ AlgorithmSpec()</text>
<text text-anchor="start" x="810.5" y="-211.5" font-family="Helvetica,sans-Serif" font-size="10.00" fill="#000000">+ AlgorithmSpec()</text>
<text text-anchor="start" x="810.5" y="-200.5" font-family="Helvetica,sans-Serif" font-size="10.00" fill="#000000">+ AlgorithmSpec()</text>
<text text-anchor="start" x="810.5" y="-189.5" font-family="Helvetica,sans-Serif" font-size="10.00" fill="#000000">+ AlgorithmSpec()</text>
<text text-anchor="start" x="810.5" y="-178.5" font-family="Helvetica,sans-Serif" font-size="10.00" fill="#000000">+ operator=()</text>
<text text-anchor="start" x="810.5" y="-167.5" font-family="Helvetica,sans-Serif" font-size="10.00" fill="#000000">+ AlgorithmSpec()</text>
<text text-anchor="start" x="810.5" y="-156.5" font-family="Helvetica,sans-Serif" font-size="10.00" fill="#000000">+ AlgorithmSpec()</text>
<text text-anchor="start" x="810.5" y="-145.5" font-family="Helvetica,sans-Serif" font-size="10.00" fill="#000000">+ emptyErrorCallback()</text>
</a>
</g>
</g>
<!-- Node8&#45;&gt;Node1 -->
<g id="edge7" class="edge">
<title>Node8&#45;&gt;Node1</title>
<path fill="none" stroke="#404040" d="M802.1941,-144.0344C799.431,-141.9973 796.6937,-139.9814 794,-138 756.3329,-110.2933 751.1357,-96.2744 709,-76 688.3339,-66.0561 665.2241,-57.9314 642.8157,-51.4058"/>
<polygon fill="none" stroke="#404040" points="642.7313,-51.3822 635.8733,-53.6111 631.1782,-48.1379 638.0362,-45.909 642.7313,-51.3822"/>
<text text-anchor="middle" x="798.5" y="-95.5" font-family="Helvetica,sans-Serif" font-size="10.00" fill="#000000"> +algorithm</text>
</g>
<!-- Node9 -->
<g id="node9" class="node">
<title>Node9</title>
<polygon fill="none" stroke="#bfbfbf" points="618,-326 618,-383 794,-383 794,-326 618,-326"/>
<text text-anchor="middle" x="706" y="-371" font-family="Helvetica,sans-Serif" font-size="10.00" fill="#000000">function&lt; void(ErrorContext &amp;)&gt;</text>
<polyline fill="none" stroke="#bfbfbf" points="618,-364 794,-364 "/>
<text text-anchor="middle" x="706" y="-352" font-family="Helvetica,sans-Serif" font-size="10.00" fill="#000000"> </text>
<polyline fill="none" stroke="#bfbfbf" points="618,-345 794,-345 "/>
<text text-anchor="middle" x="706" y="-333" font-family="Helvetica,sans-Serif" font-size="10.00" fill="#000000"> </text>
</g>
<!-- Node9&#45;&gt;Node8 -->
<g id="edge8" class="edge">
<title>Node9&#45;&gt;Node8</title>
<path fill="none" stroke="#404040" d="M740.513,-325.7713C756.1408,-312.7627 775.4204,-296.7143 794.7469,-280.6269"/>
<polygon fill="none" stroke="#404040" points="794.9995,-280.4166 797.0519,-273.5037 804.2224,-272.7394 802.1701,-279.6523 794.9995,-280.4166"/>
<text text-anchor="middle" x="802.5" y="-294" font-family="Helvetica,sans-Serif" font-size="10.00" fill="#000000"> +onError</text>
</g>
<!-- Node10 -->
<g id="node10" class="node">
<title>Node10</title>
<polygon fill="none" stroke="#bfbfbf" points="812.5,-320.5 812.5,-388.5 957.5,-388.5 957.5,-320.5 812.5,-320.5"/>
<text text-anchor="start" x="820.5" y="-376.5" font-family="Helvetica,sans-Serif" font-size="10.00" fill="#000000">function&lt; void(Processing</text>
<text text-anchor="middle" x="885" y="-365.5" font-family="Helvetica,sans-Serif" font-size="10.00" fill="#000000">Context &amp;)&gt;</text>
<polyline fill="none" stroke="#bfbfbf" points="812.5,-358.5 957.5,-358.5 "/>
<text text-anchor="middle" x="885" y="-346.5" font-family="Helvetica,sans-Serif" font-size="10.00" fill="#000000"> </text>
<polyline fill="none" stroke="#bfbfbf" points="812.5,-339.5 957.5,-339.5 "/>
<text text-anchor="middle" x="885" y="-327.5" font-family="Helvetica,sans-Serif" font-size="10.00" fill="#000000"> </text>
</g>
<!-- Node10&#45;&gt;Node8 -->
<g id="edge9" class="edge">
<title>Node10&#45;&gt;Node8</title>
<path fill="none" stroke="#404040" d="M885,-320.3164C885,-309.5733 885,-297.2297 885,-284.7079"/>
<polygon fill="none" stroke="#404040" points="885.0001,-284.6944 881,-278.6945 885,-272.6944 889,-278.6944 885.0001,-284.6944"/>
<text text-anchor="middle" x="915.5" y="-294" font-family="Helvetica,sans-Serif" font-size="10.00" fill="#000000"> +onProcess</text>
</g>
<!-- Node11 -->
<g id="node11" class="node">
<title>Node11</title>
<polygon fill="none" stroke="#bfbfbf" points="975.5,-320.5 975.5,-388.5 1122.5,-388.5 1122.5,-320.5 975.5,-320.5"/>
<text text-anchor="start" x="983.5" y="-376.5" font-family="Helvetica,sans-Serif" font-size="10.00" fill="#000000">function&lt; ProcessCallback</text>
<text text-anchor="middle" x="1049" y="-365.5" font-family="Helvetica,sans-Serif" font-size="10.00" fill="#000000">(InitContext &amp;)&gt;</text>
<polyline fill="none" stroke="#bfbfbf" points="975.5,-358.5 1122.5,-358.5 "/>
<text text-anchor="middle" x="1049" y="-346.5" font-family="Helvetica,sans-Serif" font-size="10.00" fill="#000000"> </text>
<polyline fill="none" stroke="#bfbfbf" points="975.5,-339.5 1122.5,-339.5 "/>
<text text-anchor="middle" x="1049" y="-327.5" font-family="Helvetica,sans-Serif" font-size="10.00" fill="#000000"> </text>
</g>
<!-- Node11&#45;&gt;Node8 -->
<g id="edge10" class="edge">
<title>Node11&#45;&gt;Node8</title>
<path fill="none" stroke="#404040" d="M1011.3751,-320.3164C998.3315,-308.4658 983.1442,-294.6676 967.9148,-280.8311"/>
<polygon fill="none" stroke="#404040" points="967.8407,-280.7638 960.71,-279.6897 958.959,-272.6944 966.0896,-273.7685 967.8407,-280.7638"/>
<text text-anchor="middle" x="1006" y="-294" font-family="Helvetica,sans-Serif" font-size="10.00" fill="#000000"> +onInit</text>
</g>
<!-- Node12 -->
<g id="node12" class="node">
<title>Node12</title>
<polygon fill="none" stroke="#bfbfbf" points="985.5,-177 985.5,-234 1030.5,-234 1030.5,-177 985.5,-177"/>
<text text-anchor="middle" x="1008" y="-222" font-family="Helvetica,sans-Serif" font-size="10.00" fill="#000000">size_t</text>
<polyline fill="none" stroke="#bfbfbf" points="985.5,-215 1030.5,-215 "/>
<text text-anchor="middle" x="1008" y="-203" font-family="Helvetica,sans-Serif" font-size="10.00" fill="#000000"> </text>
<polyline fill="none" stroke="#bfbfbf" points="985.5,-196 1030.5,-196 "/>
<text text-anchor="middle" x="1008" y="-184" font-family="Helvetica,sans-Serif" font-size="10.00" fill="#000000"> </text>
</g>
<!-- Node12&#45;&gt;Node1 -->
<g id="edge11" class="edge">
<title>Node12&#45;&gt;Node1</title>
<path fill="none" stroke="#404040" d="M1000.0668,-176.7203C995.213,-163.5304 987.8089,-148.5265 977,-138 926.7884,-89.1002 899.339,-95.4385 832,-76 770.7248,-58.3119 700.2451,-46.7719 643.5442,-39.5549"/>
<polygon fill="none" stroke="#404040" points="643.2033,-39.5127 636.7565,-42.7436 631.2946,-38.0354 637.7414,-34.8045 643.2033,-39.5127"/>
<text text-anchor="middle" x="1009.5" y="-112" font-family="Helvetica,sans-Serif" font-size="10.00" fill="#000000"> +maxInputTimeslices</text>
<text text-anchor="middle" x="1009.5" y="-101" font-family="Helvetica,sans-Serif" font-size="10.00" fill="#000000">+rank</text>
<text text-anchor="middle" x="1009.5" y="-90" font-family="Helvetica,sans-Serif" font-size="10.00" fill="#000000">+nSlots</text>
<text text-anchor="middle" x="1009.5" y="-79" font-family="Helvetica,sans-Serif" font-size="10.00" fill="#000000">+inputTimeSliceId</text>
</g>
</g>
</svg>
        <g id="navigator" transform="translate(0 0)" fill="#404254">
                <rect fill="#f2f5e9" fill-opacity="0.5" stroke="#606060" stroke-width=".5" x="0" y="0" width="60" height="60"/>
                <use id="zoomplus" xlink:href="#zoomPlus" x="17" y="9" onmousedown="handleZoom(evt,'in')"/>
                <use id="zoomminus" xlink:href="#zoomMin" x="42" y="9" onmousedown="handleZoom(evt,'out')"/>
                <use id="reset" xlink:href="#resetDef" x="30" y="36" onmousedown="handleReset()"/>
                <g id="arrowUp" xlink:href="#dirArrow" transform="translate(30 24)" onmousedown="handlePan(0,-1)">
                  <use xlink:href="#rim" fill="#404040">
                        <set attributeName="fill" to="#808080" begin="arrowUp.mouseover" end="arrowUp.mouseout"/>
                  </use>
                  <path fill="none" stroke="white" stroke-width="1.5" d="M0,-3.0v7 M-2.5,-0.5L0,-3.0L2.5,-0.5"/>
                </g>
                <g id="arrowRight" xlink:href="#dirArrow" transform="rotate(90) translate(36 -43)" onmousedown="handlePan(1,0)">
                  <use xlink:href="#rim" fill="#404040">
                        <set attributeName="fill" to="#808080" begin="arrowRight.mouseover" end="arrowRight.mouseout"/>
                  </use>
                  <path fill="none" stroke="white" stroke-width="1.5" d="M0,-3.0v7 M-2.5,-0.5L0,-3.0L2.5,-0.5"/>
                </g>
                <g id="arrowDown" xlink:href="#dirArrow" transform="rotate(180) translate(-30 -48)" onmousedown="handlePan(0,1)">
                  <use xlink:href="#rim" fill="#404040">
                        <set attributeName="fill" to="#808080" begin="arrowDown.mouseover" end="arrowDown.mouseout"/>
                  </use>
                  <path fill="none" stroke="white" stroke-width="1.5" d="M0,-3.0v7 M-2.5,-0.5L0,-3.0L2.5,-0.5"/>
                </g>
                <g id="arrowLeft" xlink:href="#dirArrow" transform="rotate(270) translate(-36 17)" onmousedown="handlePan(-1,0)">
                  <use xlink:href="#rim" fill="#404040">
                        <set attributeName="fill" to="#808080" begin="arrowLeft.mouseover" end="arrowLeft.mouseout"/>
                  </use>
                  <path fill="none" stroke="white" stroke-width="1.5" d="M0,-3.0v7 M-2.5,-0.5L0,-3.0L2.5,-0.5"/>
                </g>
        </g>
        <svg viewBox="0 0 15 15" width="100%" height="30px" preserveAspectRatio="xMaxYMin meet">
         <g id="arrow_out" transform="scale(0.3 0.3)">
          <a xlink:href="structo2_1_1framework_1_1DataProcessorSpec__coll__graph_org.svg" target="_base">
           <rect id="button" ry="5" rx="5" y="6" x="6" height="38" width="38"
                fill="#f2f5e9" fill-opacity="0.5" stroke="#606060" stroke-width="1.0"/>
           <path id="arrow"
             d="M 11.500037,31.436501 C 11.940474,20.09759 22.043105,11.32322 32.158766,21.979434 L 37.068811,17.246167 C 37.068811,17.246167 37.088388,32 37.088388,32 L 22.160133,31.978069 C 22.160133,31.978069 26.997745,27.140456 26.997745,27.140456 C 18.528582,18.264221 13.291696,25.230495 11.500037,31.436501 z"
             style="fill:#404040;"/>
          </a>
         </g>
        </svg>
</svg>
