<?xml version="1.0" encoding="UTF-8" standalone="no"?>
<!DOCTYPE svg PUBLIC "-//W3C//DTD SVG 1.1//EN"
 "http://www.w3.org/Graphics/SVG/1.1/DTD/svg11.dtd">
<!-- Generated by graphviz version 2.40.1 (20161225.0304)
 -->
<!-- Title: o2::ft0::Geometry Pages: 1 -->
<svg width="151pt" height="237pt"
 viewBox="0.00 0.00 150.50 237.00" xmlns="http://www.w3.org/2000/svg" xmlns:xlink="http://www.w3.org/1999/xlink">
<g id="graph0" class="graph" transform="scale(1 1) rotate(0) translate(4 233)">
<title>o2::ft0::Geometry</title>
<!-- Node1 -->
<g id="node1" class="node">
<title>Node1</title>
<polygon fill="#bfbfbf" stroke="#000000" points="0,-.5 0,-68.5 103,-68.5 103,-.5 0,-.5"/>
<text text-anchor="middle" x="51.5" y="-56.5" font-family="Helvetica,sans-Serif" font-size="10.00" fill="#000000">o2::ft0::Geometry</text>
<polyline fill="none" stroke="#000000" points="0,-49.5 103,-49.5 "/>
<text text-anchor="middle" x="51.5" y="-37.5" font-family="Helvetica,sans-Serif" font-size="10.00" fill="#000000"> </text>
<polyline fill="none" stroke="#000000" points="0,-30.5 103,-30.5 "/>
<text text-anchor="start" x="8" y="-18.5" font-family="Helvetica,sans-Serif" font-size="10.00" fill="#000000">+ Geometry()</text>
<text text-anchor="start" x="8" y="-7.5" font-family="Helvetica,sans-Serif" font-size="10.00" fill="#000000">+ centerMCP()</text>
</g>
<!-- Node2 -->
<g id="node2" class="node">
<title>Node2</title>
<polygon fill="none" stroke="#bfbfbf" points="29.5,-171.5 29.5,-228.5 73.5,-228.5 73.5,-171.5 29.5,-171.5"/>
<text text-anchor="middle" x="51.5" y="-216.5" font-family="Helvetica,sans-Serif" font-size="10.00" fill="#000000">static</text>
<polyline fill="none" stroke="#bfbfbf" points="29.5,-209.5 73.5,-209.5 "/>
<text text-anchor="middle" x="51.5" y="-197.5" font-family="Helvetica,sans-Serif" font-size="10.00" fill="#000000"> </text>
<polyline fill="none" stroke="#bfbfbf" points="29.5,-190.5 73.5,-190.5 "/>
<text text-anchor="middle" x="51.5" y="-178.5" font-family="Helvetica,sans-Serif" font-size="10.00" fill="#000000"> </text>
</g>
<!-- Node2&#45;&gt;Node1 -->
<g id="edge1" class="edge">
<title>Node2&#45;&gt;Node1</title>
<path fill="none" stroke="#404040" d="M51.5,-171.1721C51.5,-146.3248 51.5,-109.989 51.5,-81.0279"/>
<polygon fill="none" stroke="#404040" points="51.5001,-80.7164 47.5,-74.7164 51.5,-68.7164 55.5,-74.7164 51.5001,-80.7164"/>
<text text-anchor="middle" x="97" y="-145" font-family="Helvetica,sans-Serif" font-size="10.00" fill="#000000"> +ChannelWidth</text>
<text text-anchor="middle" x="97" y="-134" font-family="Helvetica,sans-Serif" font-size="10.00" fill="#000000">+NCellsA</text>
<text text-anchor="middle" x="97" y="-123" font-family="Helvetica,sans-Serif" font-size="10.00" fill="#000000">+ZdetA</text>
<text text-anchor="middle" x="97" y="-112" font-family="Helvetica,sans-Serif" font-size="10.00" fill="#000000">+MV_2_Nchannels</text>
<text text-anchor="middle" x="97" y="-101" font-family="Helvetica,sans-Serif" font-size="10.00" fill="#000000">+NCellsC</text>
<text text-anchor="middle" x="97" y="-90" font-family="Helvetica,sans-Serif" font-size="10.00" fill="#000000">+ZdetC</text>
</g>
</g>
</svg>
