<?xml version="1.0" encoding="UTF-8" standalone="no"?>
<!DOCTYPE svg PUBLIC "-//W3C//DTD SVG 1.1//EN"
 "http://www.w3.org/Graphics/SVG/1.1/DTD/svg11.dtd">
<!-- Generated by graphviz version 2.40.1 (20161225.0304)
 -->
<!-- Title: /home/travis/build/AliceO2Group/AliceO2/Framework/Utils/include/DPLUtils/RootTreeWriter.h Pages: 1 -->
<svg width="2500pt" height="328pt"
 viewBox="0.00 0.00 2499.50 328.00" xmlns="http://www.w3.org/2000/svg" xmlns:xlink="http://www.w3.org/1999/xlink">
<g id="graph0" class="graph" transform="scale(1 1) rotate(0) translate(4 324)">
<title>/home/travis/build/AliceO2Group/AliceO2/Framework/Utils/include/DPLUtils/RootTreeWriter.h</title>
<!-- Node82 -->
<g id="node1" class="node">
<title>Node82</title>
<polygon fill="#bfbfbf" stroke="#000000" points="170.5,-267.5 170.5,-319.5 313.5,-319.5 313.5,-267.5 170.5,-267.5"/>
<text text-anchor="start" x="178.5" y="-307.5" font-family="Helvetica,sans-Serif" font-size="10.00" fill="#000000">/home/travis/build</text>
<text text-anchor="start" x="178.5" y="-296.5" font-family="Helvetica,sans-Serif" font-size="10.00" fill="#000000">/AliceO2Group/AliceO2</text>
<text text-anchor="start" x="178.5" y="-285.5" font-family="Helvetica,sans-Serif" font-size="10.00" fill="#000000">/Framework/Utils/include</text>
<text text-anchor="middle" x="242" y="-274.5" font-family="Helvetica,sans-Serif" font-size="10.00" fill="#000000">/DPLUtils/RootTreeWriter.h</text>
</g>
<!-- Node83 -->
<g id="node2" class="node">
<title>Node83</title>
<g id="a_node2"><a xlink:href="../../d5/dc8/MakeRootTreeWriterSpec_8h.html" target="_top" xlink:title="Configurable generator for RootTreeWriter processor spec. ">
<polygon fill="none" stroke="#000000" points="1053.5,-178.5 1053.5,-230.5 1246.5,-230.5 1246.5,-178.5 1053.5,-178.5"/>
<text text-anchor="start" x="1061.5" y="-218.5" font-family="Helvetica,sans-Serif" font-size="10.00" fill="#000000">/home/travis/build</text>
<text text-anchor="start" x="1061.5" y="-207.5" font-family="Helvetica,sans-Serif" font-size="10.00" fill="#000000">/AliceO2Group/AliceO2</text>
<text text-anchor="start" x="1061.5" y="-196.5" font-family="Helvetica,sans-Serif" font-size="10.00" fill="#000000">/Framework/Utils/include</text>
<text text-anchor="middle" x="1150" y="-185.5" font-family="Helvetica,sans-Serif" font-size="10.00" fill="#000000">/DPLUtils/MakeRootTreeWriterSpec.h</text>
</a>
</g>
</g>
<!-- Node82&#45;&gt;Node83 -->
<g id="edge1" class="edge">
<title>Node82&#45;&gt;Node83</title>
<path fill="none" stroke="#191970" d="M323.6313,-285.4987C491.2965,-269.0646 873.7587,-231.5765 1053.4104,-213.9675"/>
<polygon fill="#191970" stroke="#191970" points="323.2391,-282.0203 313.6283,-286.4792 323.9221,-288.9869 323.2391,-282.0203"/>
</g>
<!-- Node89 -->
<g id="node8" class="node">
<title>Node89</title>
<g id="a_node8"><a xlink:href="../../da/dcf/test__RootTreeWriter_8cxx.html" target="_top" xlink:title="/home/travis/build\l/AliceO2Group/AliceO2\l/Framework/Utils/test\l/test_RootTreeWriter.cxx">
<polygon fill="none" stroke="#000000" points="0,-89.5 0,-141.5 134,-141.5 134,-89.5 0,-89.5"/>
<text text-anchor="start" x="8" y="-129.5" font-family="Helvetica,sans-Serif" font-size="10.00" fill="#000000">/home/travis/build</text>
<text text-anchor="start" x="8" y="-118.5" font-family="Helvetica,sans-Serif" font-size="10.00" fill="#000000">/AliceO2Group/AliceO2</text>
<text text-anchor="start" x="8" y="-107.5" font-family="Helvetica,sans-Serif" font-size="10.00" fill="#000000">/Framework/Utils/test</text>
<text text-anchor="middle" x="67" y="-96.5" font-family="Helvetica,sans-Serif" font-size="10.00" fill="#000000">/test_RootTreeWriter.cxx</text>
</a>
</g>
</g>
<!-- Node82&#45;&gt;Node89 -->
<g id="edge25" class="edge">
<title>Node82&#45;&gt;Node89</title>
<path fill="none" stroke="#191970" d="M208.8385,-259.7701C175.0639,-225.4164 123.4105,-172.8776 92.6427,-141.5823"/>
<polygon fill="#191970" stroke="#191970" points="206.6716,-262.5583 216.1781,-267.2355 211.6632,-257.6508 206.6716,-262.5583"/>
</g>
<!-- Node90 -->
<g id="node9" class="node">
<title>Node90</title>
<g id="a_node9"><a xlink:href="../../d1/d02/test__RootTreeWriterWorkflow_8cxx.html" target="_top" xlink:title="/home/travis/build\l/AliceO2Group/AliceO2\l/Framework/Utils/test\l/test_RootTreeWriterWorkflow.cxx">
<polygon fill="none" stroke="#000000" points="152.5,-89.5 152.5,-141.5 331.5,-141.5 331.5,-89.5 152.5,-89.5"/>
<text text-anchor="start" x="160.5" y="-129.5" font-family="Helvetica,sans-Serif" font-size="10.00" fill="#000000">/home/travis/build</text>
<text text-anchor="start" x="160.5" y="-118.5" font-family="Helvetica,sans-Serif" font-size="10.00" fill="#000000">/AliceO2Group/AliceO2</text>
<text text-anchor="start" x="160.5" y="-107.5" font-family="Helvetica,sans-Serif" font-size="10.00" fill="#000000">/Framework/Utils/test</text>
<text text-anchor="middle" x="242" y="-96.5" font-family="Helvetica,sans-Serif" font-size="10.00" fill="#000000">/test_RootTreeWriterWorkflow.cxx</text>
</a>
</g>
</g>
<!-- Node82&#45;&gt;Node90 -->
<g id="edge26" class="edge">
<title>Node82&#45;&gt;Node90</title>
<path fill="none" stroke="#191970" d="M242,-257.1378C242,-222.7809 242,-172.0886 242,-141.5823"/>
<polygon fill="#191970" stroke="#191970" points="238.5001,-257.2355 242,-267.2355 245.5001,-257.2355 238.5001,-257.2355"/>
</g>
<!-- Node84 -->
<g id="node3" class="node">
<title>Node84</title>
<g id="a_node3"><a xlink:href="../../d2/dbf/EMCAL_2workflow_2src_2RecoWorkflow_8cxx.html" target="_top" xlink:title="/home/travis/build\l/AliceO2Group/AliceO2\l/Detectors/EMCAL/workflow\l/src/RecoWorkflow.cxx">
<polygon fill="none" stroke="#000000" points="1482,-89.5 1482,-141.5 1632,-141.5 1632,-89.5 1482,-89.5"/>
<text text-anchor="start" x="1490" y="-129.5" font-family="Helvetica,sans-Serif" font-size="10.00" fill="#000000">/home/travis/build</text>
<text text-anchor="start" x="1490" y="-118.5" font-family="Helvetica,sans-Serif" font-size="10.00" fill="#000000">/AliceO2Group/AliceO2</text>
<text text-anchor="start" x="1490" y="-107.5" font-family="Helvetica,sans-Serif" font-size="10.00" fill="#000000">/Detectors/EMCAL/workflow</text>
<text text-anchor="middle" x="1557" y="-96.5" font-family="Helvetica,sans-Serif" font-size="10.00" fill="#000000">/src/RecoWorkflow.cxx</text>
</a>
</g>
</g>
<!-- Node83&#45;&gt;Node84 -->
<g id="edge2" class="edge">
<title>Node83&#45;&gt;Node84</title>
<path fill="none" stroke="#191970" d="M1256.7387,-187.0131C1320.0034,-175.8635 1401.5286,-160.1252 1473,-142 1475.8163,-141.2858 1478.6773,-140.5316 1481.5607,-139.7473"/>
<polygon fill="#191970" stroke="#191970" points="1255.9926,-183.5904 1246.7462,-188.7628 1257.2,-190.4855 1255.9926,-183.5904"/>
</g>
<!-- Node85 -->
<g id="node4" class="node">
<title>Node85</title>
<g id="a_node4"><a xlink:href="../../d2/de0/MUON_2MID_2Workflow_2src_2RecoWorkflow_8cxx.html" target="_top" xlink:title="Definition of MID reconstruction workflow. ">
<polygon fill="none" stroke="#000000" points="1650,-89.5 1650,-141.5 1820,-141.5 1820,-89.5 1650,-89.5"/>
<text text-anchor="start" x="1658" y="-129.5" font-family="Helvetica,sans-Serif" font-size="10.00" fill="#000000">/home/travis/build</text>
<text text-anchor="start" x="1658" y="-118.5" font-family="Helvetica,sans-Serif" font-size="10.00" fill="#000000">/AliceO2Group/AliceO2</text>
<text text-anchor="start" x="1658" y="-107.5" font-family="Helvetica,sans-Serif" font-size="10.00" fill="#000000">/Detectors/MUON/MID/Workflow</text>
<text text-anchor="middle" x="1735" y="-96.5" font-family="Helvetica,sans-Serif" font-size="10.00" fill="#000000">/src/RecoWorkflow.cxx</text>
</a>
</g>
</g>
<!-- Node83&#45;&gt;Node85 -->
<g id="edge3" class="edge">
<title>Node83&#45;&gt;Node85</title>
<path fill="none" stroke="#191970" d="M1256.763,-195.5103C1356.7276,-186.0094 1509.9296,-168.6644 1641,-142 1643.9077,-141.4085 1646.8571,-140.774 1649.8289,-140.1052"/>
<polygon fill="#191970" stroke="#191970" points="1256.2831,-192.0399 1246.655,-196.4614 1256.939,-199.0091 1256.2831,-192.0399"/>
</g>
<!-- Node86 -->
<g id="node5" class="node">
<title>Node86</title>
<g id="a_node5"><a xlink:href="../../dd/d65/RecoWorkflowMC_8cxx.html" target="_top" xlink:title="Definition of MID reconstruction workflow for MC. ">
<polygon fill="none" stroke="#000000" points="1838,-89.5 1838,-141.5 2008,-141.5 2008,-89.5 1838,-89.5"/>
<text text-anchor="start" x="1846" y="-129.5" font-family="Helvetica,sans-Serif" font-size="10.00" fill="#000000">/home/travis/build</text>
<text text-anchor="start" x="1846" y="-118.5" font-family="Helvetica,sans-Serif" font-size="10.00" fill="#000000">/AliceO2Group/AliceO2</text>
<text text-anchor="start" x="1846" y="-107.5" font-family="Helvetica,sans-Serif" font-size="10.00" fill="#000000">/Detectors/MUON/MID/Workflow</text>
<text text-anchor="middle" x="1923" y="-96.5" font-family="Helvetica,sans-Serif" font-size="10.00" fill="#000000">/src/RecoWorkflowMC.cxx</text>
</a>
</g>
</g>
<!-- Node83&#45;&gt;Node86 -->
<g id="edge4" class="edge">
<title>Node83&#45;&gt;Node86</title>
<path fill="none" stroke="#191970" d="M1256.9173,-200.7043C1391.3904,-194.549 1628.9166,-179.0887 1829,-142 1831.9175,-141.4592 1834.8754,-140.8685 1837.8546,-140.2372"/>
<polygon fill="#191970" stroke="#191970" points="1256.4526,-197.2216 1246.6197,-201.1667 1256.7666,-204.2145 1256.4526,-197.2216"/>
</g>
<!-- Node87 -->
<g id="node6" class="node">
<title>Node87</title>
<g id="a_node6"><a xlink:href="../../d8/d7e/PHOS_2workflow_2src_2RecoWorkflow_8cxx.html" target="_top" xlink:title="/home/travis/build\l/AliceO2Group/AliceO2\l/Detectors/PHOS/workflow\l/src/RecoWorkflow.cxx">
<polygon fill="none" stroke="#000000" points="2026,-89.5 2026,-141.5 2170,-141.5 2170,-89.5 2026,-89.5"/>
<text text-anchor="start" x="2034" y="-129.5" font-family="Helvetica,sans-Serif" font-size="10.00" fill="#000000">/home/travis/build</text>
<text text-anchor="start" x="2034" y="-118.5" font-family="Helvetica,sans-Serif" font-size="10.00" fill="#000000">/AliceO2Group/AliceO2</text>
<text text-anchor="start" x="2034" y="-107.5" font-family="Helvetica,sans-Serif" font-size="10.00" fill="#000000">/Detectors/PHOS/workflow</text>
<text text-anchor="middle" x="2098" y="-96.5" font-family="Helvetica,sans-Serif" font-size="10.00" fill="#000000">/src/RecoWorkflow.cxx</text>
</a>
</g>
</g>
<!-- Node83&#45;&gt;Node87 -->
<g id="edge5" class="edge">
<title>Node83&#45;&gt;Node87</title>
<path fill="none" stroke="#191970" d="M1256.7956,-200.0627C1455.4093,-191.2699 1874.3633,-170.0349 2017,-142 2019.9036,-141.4293 2022.848,-140.786 2025.8089,-140.085"/>
<polygon fill="#191970" stroke="#191970" points="1256.4744,-196.5733 1246.6381,-200.51 1256.7825,-203.5665 1256.4744,-196.5733"/>
</g>
<!-- Node88 -->
<g id="node7" class="node">
<title>Node88</title>
<g id="a_node7"><a xlink:href="../../d0/d80/TPC_2workflow_2src_2RecoWorkflow_8cxx.html" target="_top" xlink:title="/home/travis/build\l/AliceO2Group/AliceO2\l/Detectors/TPC/workflow\l/src/RecoWorkflow.cxx">
<polygon fill="none" stroke="#000000" points="2188,-89.5 2188,-141.5 2324,-141.5 2324,-89.5 2188,-89.5"/>
<text text-anchor="start" x="2196" y="-129.5" font-family="Helvetica,sans-Serif" font-size="10.00" fill="#000000">/home/travis/build</text>
<text text-anchor="start" x="2196" y="-118.5" font-family="Helvetica,sans-Serif" font-size="10.00" fill="#000000">/AliceO2Group/AliceO2</text>
<text text-anchor="start" x="2196" y="-107.5" font-family="Helvetica,sans-Serif" font-size="10.00" fill="#000000">/Detectors/TPC/workflow</text>
<text text-anchor="middle" x="2256" y="-96.5" font-family="Helvetica,sans-Serif" font-size="10.00" fill="#000000">/src/RecoWorkflow.cxx</text>
</a>
</g>
</g>
<!-- Node83&#45;&gt;Node88 -->
<g id="edge6" class="edge">
<title>Node83&#45;&gt;Node88</title>
<path fill="none" stroke="#191970" d="M1257.0619,-201.6649C1483.626,-195.0665 2005.0305,-176.5526 2179,-142 2181.912,-141.4216 2184.8644,-140.7598 2187.831,-140.0322"/>
<polygon fill="#191970" stroke="#191970" points="1256.7214,-198.1732 1246.8267,-201.9608 1256.9237,-205.1703 1256.7214,-198.1732"/>
</g>
<!-- Node83&#45;&gt;Node89 -->
<g id="edge7" class="edge">
<title>Node83&#45;&gt;Node89</title>
<path fill="none" stroke="#191970" d="M1043.141,-201.5596C820.3056,-194.8242 312.6441,-176.1668 143,-142 140.1233,-141.4206 137.2072,-140.758 134.2774,-140.0296"/>
<polygon fill="#191970" stroke="#191970" points="1043.1109,-205.0602 1053.2114,-201.8617 1043.3209,-198.0634 1043.1109,-205.0602"/>
</g>
<!-- Node83&#45;&gt;Node90 -->
<g id="edge8" class="edge">
<title>Node83&#45;&gt;Node90</title>
<path fill="none" stroke="#191970" d="M1043.3704,-202.5117C887.8923,-198.2032 590.3253,-184.6249 341,-142 337.9308,-141.4753 334.8186,-140.8985 331.6837,-140.2792"/>
<polygon fill="#191970" stroke="#191970" points="1043.3132,-206.0113 1053.404,-202.7822 1043.502,-199.0138 1043.3132,-206.0113"/>
</g>
<!-- Node91 -->
<g id="node10" class="node">
<title>Node91</title>
<g id="a_node10"><a xlink:href="../../d8/dcd/FDDDigitWriterSpec_8h.html" target="_top" xlink:title="/home/travis/build\l/AliceO2Group/AliceO2\l/Steer/DigitizerWorkflow\l/src/FDDDigitWriterSpec.h">
<polygon fill="none" stroke="#000000" points="672,-89.5 672,-141.5 814,-141.5 814,-89.5 672,-89.5"/>
<text text-anchor="start" x="680" y="-129.5" font-family="Helvetica,sans-Serif" font-size="10.00" fill="#000000">/home/travis/build</text>
<text text-anchor="start" x="680" y="-118.5" font-family="Helvetica,sans-Serif" font-size="10.00" fill="#000000">/AliceO2Group/AliceO2</text>
<text text-anchor="start" x="680" y="-107.5" font-family="Helvetica,sans-Serif" font-size="10.00" fill="#000000">/Steer/DigitizerWorkflow</text>
<text text-anchor="middle" x="743" y="-96.5" font-family="Helvetica,sans-Serif" font-size="10.00" fill="#000000">/src/FDDDigitWriterSpec.h</text>
</a>
</g>
</g>
<!-- Node83&#45;&gt;Node91 -->
<g id="edge9" class="edge">
<title>Node83&#45;&gt;Node91</title>
<path fill="none" stroke="#191970" d="M1043.2446,-187.7338C978.9637,-176.7391 895.7444,-160.9132 823,-142 820.1679,-141.2637 817.2901,-140.4807 814.391,-139.6627"/>
<polygon fill="#191970" stroke="#191970" points="1042.9495,-191.2337 1053.3942,-189.4567 1044.121,-184.3324 1042.9495,-191.2337"/>
</g>
<!-- Node93 -->
<g id="node12" class="node">
<title>Node93</title>
<g id="a_node12"><a xlink:href="../../d3/d12/FV0DigitWriterSpec_8h.html" target="_top" xlink:title="/home/travis/build\l/AliceO2Group/AliceO2\l/Steer/DigitizerWorkflow\l/src/FV0DigitWriterSpec.h">
<polygon fill="none" stroke="#000000" points="832,-89.5 832,-141.5 972,-141.5 972,-89.5 832,-89.5"/>
<text text-anchor="start" x="840" y="-129.5" font-family="Helvetica,sans-Serif" font-size="10.00" fill="#000000">/home/travis/build</text>
<text text-anchor="start" x="840" y="-118.5" font-family="Helvetica,sans-Serif" font-size="10.00" fill="#000000">/AliceO2Group/AliceO2</text>
<text text-anchor="start" x="840" y="-107.5" font-family="Helvetica,sans-Serif" font-size="10.00" fill="#000000">/Steer/DigitizerWorkflow</text>
<text text-anchor="middle" x="902" y="-96.5" font-family="Helvetica,sans-Serif" font-size="10.00" fill="#000000">/src/FV0DigitWriterSpec.h</text>
</a>
</g>
</g>
<!-- Node83&#45;&gt;Node93 -->
<g id="edge11" class="edge">
<title>Node83&#45;&gt;Node93</title>
<path fill="none" stroke="#191970" d="M1067.7952,-174.9991C1036.8335,-163.8878 1001.9349,-151.3637 972.1707,-140.6822"/>
<polygon fill="#191970" stroke="#191970" points="1066.673,-178.3149 1077.2675,-178.3984 1069.0375,-171.7263 1066.673,-178.3149"/>
</g>
<!-- Node94 -->
<g id="node13" class="node">
<title>Node94</title>
<g id="a_node13"><a xlink:href="../../d5/d5b/HMPIDDigitWriterSpec_8h.html" target="_top" xlink:title="/home/travis/build\l/AliceO2Group/AliceO2\l/Steer/DigitizerWorkflow\l/src/HMPIDDigitWriterSpec.h">
<polygon fill="none" stroke="#000000" points="990,-89.5 990,-141.5 1144,-141.5 1144,-89.5 990,-89.5"/>
<text text-anchor="start" x="998" y="-129.5" font-family="Helvetica,sans-Serif" font-size="10.00" fill="#000000">/home/travis/build</text>
<text text-anchor="start" x="998" y="-118.5" font-family="Helvetica,sans-Serif" font-size="10.00" fill="#000000">/AliceO2Group/AliceO2</text>
<text text-anchor="start" x="998" y="-107.5" font-family="Helvetica,sans-Serif" font-size="10.00" fill="#000000">/Steer/DigitizerWorkflow</text>
<text text-anchor="middle" x="1067" y="-96.5" font-family="Helvetica,sans-Serif" font-size="10.00" fill="#000000">/src/HMPIDDigitWriterSpec.h</text>
</a>
</g>
</g>
<!-- Node83&#45;&gt;Node94 -->
<g id="edge13" class="edge">
<title>Node83&#45;&gt;Node94</title>
<path fill="none" stroke="#191970" d="M1118.4935,-170.7159C1109.4766,-161.0472 1099.7904,-150.6608 1091.279,-141.5341"/>
<polygon fill="#191970" stroke="#191970" points="1116.1662,-173.3522 1125.5462,-178.2784 1121.2856,-168.578 1116.1662,-173.3522"/>
</g>
<!-- Node95 -->
<g id="node14" class="node">
<title>Node95</title>
<g id="a_node14"><a xlink:href="../../d8/d60/MCHDigitWriterSpec_8h.html" target="_top" xlink:title="/home/travis/build\l/AliceO2Group/AliceO2\l/Steer/DigitizerWorkflow\l/src/MCHDigitWriterSpec.h">
<polygon fill="none" stroke="#000000" points="1162,-89.5 1162,-141.5 1306,-141.5 1306,-89.5 1162,-89.5"/>
<text text-anchor="start" x="1170" y="-129.5" font-family="Helvetica,sans-Serif" font-size="10.00" fill="#000000">/home/travis/build</text>
<text text-anchor="start" x="1170" y="-118.5" font-family="Helvetica,sans-Serif" font-size="10.00" fill="#000000">/AliceO2Group/AliceO2</text>
<text text-anchor="start" x="1170" y="-107.5" font-family="Helvetica,sans-Serif" font-size="10.00" fill="#000000">/Steer/DigitizerWorkflow</text>
<text text-anchor="middle" x="1234" y="-96.5" font-family="Helvetica,sans-Serif" font-size="10.00" fill="#000000">/src/MCHDigitWriterSpec.h</text>
</a>
</g>
</g>
<!-- Node83&#45;&gt;Node95 -->
<g id="edge15" class="edge">
<title>Node83&#45;&gt;Node95</title>
<path fill="none" stroke="#191970" d="M1181.6153,-171.0029C1190.8174,-161.2529 1200.7293,-150.7511 1209.4284,-141.5341"/>
<polygon fill="#191970" stroke="#191970" points="1179.067,-168.6037 1174.7484,-178.2784 1184.1577,-173.4084 1179.067,-168.6037"/>
</g>
<!-- Node96 -->
<g id="node15" class="node">
<title>Node96</title>
<g id="a_node15"><a xlink:href="../../d9/d65/MIDDigitWriterSpec_8h.html" target="_top" xlink:title="/home/travis/build\l/AliceO2Group/AliceO2\l/Steer/DigitizerWorkflow\l/src/MIDDigitWriterSpec.h">
<polygon fill="none" stroke="#000000" points="1324,-89.5 1324,-141.5 1464,-141.5 1464,-89.5 1324,-89.5"/>
<text text-anchor="start" x="1332" y="-129.5" font-family="Helvetica,sans-Serif" font-size="10.00" fill="#000000">/home/travis/build</text>
<text text-anchor="start" x="1332" y="-118.5" font-family="Helvetica,sans-Serif" font-size="10.00" fill="#000000">/AliceO2Group/AliceO2</text>
<text text-anchor="start" x="1332" y="-107.5" font-family="Helvetica,sans-Serif" font-size="10.00" fill="#000000">/Steer/DigitizerWorkflow</text>
<text text-anchor="middle" x="1394" y="-96.5" font-family="Helvetica,sans-Serif" font-size="10.00" fill="#000000">/src/MIDDigitWriterSpec.h</text>
</a>
</g>
</g>
<!-- Node83&#45;&gt;Node96 -->
<g id="edge17" class="edge">
<title>Node83&#45;&gt;Node96</title>
<path fill="none" stroke="#191970" d="M1231.1456,-174.9018C1261.1065,-163.9734 1294.7837,-151.6895 1323.7045,-141.1406"/>
<polygon fill="#191970" stroke="#191970" points="1229.7546,-171.6836 1221.5594,-178.3984 1232.1533,-178.2598 1229.7546,-171.6836"/>
</g>
<!-- Node97 -->
<g id="node16" class="node">
<title>Node97</title>
<g id="a_node16"><a xlink:href="../../d4/d33/PHOSDigitWriterSpec_8h.html" target="_top" xlink:title="/home/travis/build\l/AliceO2Group/AliceO2\l/Steer/DigitizerWorkflow\l/src/PHOSDigitWriterSpec.h">
<polygon fill="none" stroke="#000000" points="2342.5,-89.5 2342.5,-141.5 2491.5,-141.5 2491.5,-89.5 2342.5,-89.5"/>
<text text-anchor="start" x="2350.5" y="-129.5" font-family="Helvetica,sans-Serif" font-size="10.00" fill="#000000">/home/travis/build</text>
<text text-anchor="start" x="2350.5" y="-118.5" font-family="Helvetica,sans-Serif" font-size="10.00" fill="#000000">/AliceO2Group/AliceO2</text>
<text text-anchor="start" x="2350.5" y="-107.5" font-family="Helvetica,sans-Serif" font-size="10.00" fill="#000000">/Steer/DigitizerWorkflow</text>
<text text-anchor="middle" x="2417" y="-96.5" font-family="Helvetica,sans-Serif" font-size="10.00" fill="#000000">/src/PHOSDigitWriterSpec.h</text>
</a>
</g>
</g>
<!-- Node83&#45;&gt;Node97 -->
<g id="edge19" class="edge">
<title>Node83&#45;&gt;Node97</title>
<path fill="none" stroke="#191970" d="M1256.7667,-202.3101C1507.4906,-196.6097 2128.1518,-179.1044 2333,-142 2336.0094,-141.4549 2339.0613,-140.8332 2342.1306,-140.1503"/>
<polygon fill="#191970" stroke="#191970" points="1256.4744,-198.8157 1246.5559,-202.5404 1256.6323,-205.8139 1256.4744,-198.8157"/>
</g>
<!-- Node98 -->
<g id="node17" class="node">
<title>Node98</title>
<g id="a_node17"><a xlink:href="../../da/d27/TRDDigitWriterSpec_8h.html" target="_top" xlink:title="/home/travis/build\l/AliceO2Group/AliceO2\l/Steer/DigitizerWorkflow\l/src/TRDDigitWriterSpec.h">
<polygon fill="none" stroke="#000000" points="350,-89.5 350,-141.5 492,-141.5 492,-89.5 350,-89.5"/>
<text text-anchor="start" x="358" y="-129.5" font-family="Helvetica,sans-Serif" font-size="10.00" fill="#000000">/home/travis/build</text>
<text text-anchor="start" x="358" y="-118.5" font-family="Helvetica,sans-Serif" font-size="10.00" fill="#000000">/AliceO2Group/AliceO2</text>
<text text-anchor="start" x="358" y="-107.5" font-family="Helvetica,sans-Serif" font-size="10.00" fill="#000000">/Steer/DigitizerWorkflow</text>
<text text-anchor="middle" x="421" y="-96.5" font-family="Helvetica,sans-Serif" font-size="10.00" fill="#000000">/src/TRDDigitWriterSpec.h</text>
</a>
</g>
</g>
<!-- Node83&#45;&gt;Node98 -->
<g id="edge21" class="edge">
<title>Node83&#45;&gt;Node98</title>
<path fill="none" stroke="#191970" d="M1043.1877,-201.3858C913.8465,-195.9705 689.9567,-181.3094 502,-142 498.8138,-141.3336 495.5771,-140.5861 492.322,-139.7763"/>
<polygon fill="#191970" stroke="#191970" points="1043.3509,-204.8953 1053.4853,-201.8057 1043.6362,-197.9011 1043.3509,-204.8953"/>
</g>
<!-- Node99 -->
<g id="node18" class="node">
<title>Node99</title>
<g id="a_node18"><a xlink:href="../../d9/d31/ZDCDigitWriterSpec_8h.html" target="_top" xlink:title="/home/travis/build\l/AliceO2Group/AliceO2\l/Steer/DigitizerWorkflow\l/src/ZDCDigitWriterSpec.h">
<polygon fill="none" stroke="#000000" points="510.5,-89.5 510.5,-141.5 653.5,-141.5 653.5,-89.5 510.5,-89.5"/>
<text text-anchor="start" x="518.5" y="-129.5" font-family="Helvetica,sans-Serif" font-size="10.00" fill="#000000">/home/travis/build</text>
<text text-anchor="start" x="518.5" y="-118.5" font-family="Helvetica,sans-Serif" font-size="10.00" fill="#000000">/AliceO2Group/AliceO2</text>
<text text-anchor="start" x="518.5" y="-107.5" font-family="Helvetica,sans-Serif" font-size="10.00" fill="#000000">/Steer/DigitizerWorkflow</text>
<text text-anchor="middle" x="582" y="-96.5" font-family="Helvetica,sans-Serif" font-size="10.00" fill="#000000">/src/ZDCDigitWriterSpec.h</text>
</a>
</g>
</g>
<!-- Node83&#45;&gt;Node99 -->
<g id="edge23" class="edge">
<title>Node83&#45;&gt;Node99</title>
<path fill="none" stroke="#191970" d="M1043.3794,-196.6398C944.0349,-187.9473 792.2283,-171.1575 663,-142 659.969,-141.3161 656.8903,-140.5661 653.792,-139.7655"/>
<polygon fill="#191970" stroke="#191970" points="1043.1623,-200.134 1053.4263,-197.5069 1043.7643,-193.1599 1043.1623,-200.134"/>
</g>
<!-- Node92 -->
<g id="node11" class="node">
<title>Node92</title>
<g id="a_node11"><a xlink:href="../../d2/dd7/SimpleDigitizerWorkflow_8cxx.html" target="_top" xlink:title="/home/travis/build\l/AliceO2Group/AliceO2\l/Steer/DigitizerWorkflow\l/src/SimpleDigitizerWorkflow.cxx">
<polygon fill="none" stroke="#000000" points="896,-.5 896,-52.5 1072,-52.5 1072,-.5 896,-.5"/>
<text text-anchor="start" x="904" y="-40.5" font-family="Helvetica,sans-Serif" font-size="10.00" fill="#000000">/home/travis/build</text>
<text text-anchor="start" x="904" y="-29.5" font-family="Helvetica,sans-Serif" font-size="10.00" fill="#000000">/AliceO2Group/AliceO2</text>
<text text-anchor="start" x="904" y="-18.5" font-family="Helvetica,sans-Serif" font-size="10.00" fill="#000000">/Steer/DigitizerWorkflow</text>
<text text-anchor="middle" x="984" y="-7.5" font-family="Helvetica,sans-Serif" font-size="10.00" fill="#000000">/src/SimpleDigitizerWorkflow.cxx</text>
</a>
</g>
</g>
<!-- Node91&#45;&gt;Node92 -->
<g id="edge10" class="edge">
<title>Node91&#45;&gt;Node92</title>
<path fill="none" stroke="#191970" d="M823.4014,-85.8082C852.5004,-75.0621 885.1205,-63.0157 913.3217,-52.6011"/>
<polygon fill="#191970" stroke="#191970" points="821.8478,-82.6508 813.6796,-89.3984 824.2728,-89.2174 821.8478,-82.6508"/>
</g>
<!-- Node93&#45;&gt;Node92 -->
<g id="edge12" class="edge">
<title>Node93&#45;&gt;Node92</title>
<path fill="none" stroke="#191970" d="M933.1269,-81.7159C942.0352,-72.0472 951.6047,-61.6608 960.0135,-52.5341"/>
<polygon fill="#191970" stroke="#191970" points="930.3611,-79.5525 926.1592,-89.2784 935.5092,-84.2956 930.3611,-79.5525"/>
</g>
<!-- Node94&#45;&gt;Node92 -->
<g id="edge14" class="edge">
<title>Node94&#45;&gt;Node92</title>
<path fill="none" stroke="#191970" d="M1035.4935,-81.7159C1026.4766,-72.0472 1016.7904,-61.6608 1008.279,-52.5341"/>
<polygon fill="#191970" stroke="#191970" points="1033.1662,-84.3522 1042.5462,-89.2784 1038.2856,-79.578 1033.1662,-84.3522"/>
</g>
<!-- Node95&#45;&gt;Node92 -->
<g id="edge16" class="edge">
<title>Node95&#45;&gt;Node92</title>
<path fill="none" stroke="#191970" d="M1151.9413,-86.2871C1121.4633,-75.4369 1087.1081,-63.2065 1057.448,-52.6475"/>
<polygon fill="#191970" stroke="#191970" points="1151.095,-89.7009 1161.6896,-89.7575 1153.4427,-83.1063 1151.095,-89.7009"/>
</g>
<!-- Node96&#45;&gt;Node92 -->
<g id="edge18" class="edge">
<title>Node96&#45;&gt;Node92</title>
<path fill="none" stroke="#191970" d="M1314.1378,-88.9049C1226.872,-66.5562 1136.8725,-50.2931 1072.1893,-39.774"/>
<polygon fill="#191970" stroke="#191970" points="1313.3807,-92.3242 1323.9389,-91.4439 1315.1362,-85.5479 1313.3807,-92.3242"/>
</g>
<!-- Node97&#45;&gt;Node92 -->
<g id="edge20" class="edge">
<title>Node97&#45;&gt;Node92</title>
<path fill="none" stroke="#191970" d="M2332.2754,-89.1222C2070.4558,-45.3664 1328.5625,-31.2901 1072.281,-27.6079"/>
<polygon fill="#191970" stroke="#191970" points="2331.6853,-92.572 2342.1351,-90.8248 2332.8766,-85.6741 2331.6853,-92.572"/>
</g>
<!-- Node98&#45;&gt;Node92 -->
<g id="edge22" class="edge">
<title>Node98&#45;&gt;Node92</title>
<path fill="none" stroke="#191970" d="M502.1595,-89.1522C644.7758,-57.5515 800.4726,-41.0533 895.6192,-32.9653"/>
<polygon fill="#191970" stroke="#191970" points="501.3408,-85.7488 492.3504,-91.3545 502.8743,-92.5788 501.3408,-85.7488"/>
</g>
<!-- Node99&#45;&gt;Node92 -->
<g id="edge24" class="edge">
<title>Node99&#45;&gt;Node92</title>
<path fill="none" stroke="#191970" d="M663.5529,-88.9753C747.5412,-67.5057 833.3494,-51.3576 895.8048,-40.6392"/>
<polygon fill="#191970" stroke="#191970" points="662.6586,-85.5914 653.8519,-91.4813 664.4095,-92.3689 662.6586,-85.5914"/>
</g>
</g>
</svg>
