<?xml version="1.0" encoding="UTF-8" standalone="no"?>
<!DOCTYPE svg PUBLIC "-//W3C//DTD SVG 1.1//EN"
 "http://www.w3.org/Graphics/SVG/1.1/DTD/svg11.dtd">
<!-- Generated by graphviz version 2.40.1 (20161225.0304)
 -->
<!-- Title: ATask Pages: 1 -->
<!--zoomable 777 -->
<svg id="main" version="1.1" xmlns="http://www.w3.org/2000/svg" xmlns:xlink="http://www.w3.org/1999/xlink" xml:space="preserve" onload="init(evt)">
<style type="text/css"><![CDATA[
.edge:hover path { stroke: red; }
.edge:hover polygon { stroke: red; fill: red; }
]]></style>
<script type="text/javascript"><![CDATA[
var edges = document.getElementsByTagName('g');
if (edges && edges.length) {
  for (var i=0;i<edges.length;i++) {
    if (edges[i].id.substr(0,4)=='edge') {
      edges[i].setAttribute('class','edge');
    }
  }
}
]]></script>
        <defs>
                <circle id="rim" cx="0" cy="0" r="7"/>
                <circle id="rim2" cx="0" cy="0" r="3.5"/>
                <g id="zoomPlus">
                        <use xlink:href="#rim" fill="#404040">
                                <set attributeName="fill" to="#808080" begin="zoomplus.mouseover" end="zoomplus.mouseout"/>
                        </use>
                        <path d="M-4,0h8M0,-4v8" fill="none" stroke="white" stroke-width="1.5" pointer-events="none"/>
                </g>
                <g id="zoomMin">
                        <use xlink:href="#rim" fill="#404040">
                                <set attributeName="fill" to="#808080" begin="zoomminus.mouseover" end="zoomminus.mouseout"/>
                        </use>
                        <path d="M-4,0h8" fill="none" stroke="white" stroke-width="1.5" pointer-events="none"/>
                </g>
                <g id="dirArrow">
                        <path fill="none" stroke="white" stroke-width="1.5" d="M0,-3.0v7 M-2.5,-0.5L0,-3.0L2.5,-0.5"/>
                </g>
               <g id="resetDef">
                       <use xlink:href="#rim2" fill="#404040">
                               <set attributeName="fill" to="#808080" begin="reset.mouseover" end="reset.mouseout"/>
                       </use>
               </g>
        </defs>

<script type="text/javascript">
var viewWidth = 1129;
var viewHeight = 777;
var sectionId = 'dynsection-1';
</script>
<script xlink:href="../../svgpan.js"/>
<svg id="graph" class="graph">
<g id="viewport">
<title>ATask</title>
<!-- Node2 -->
<g id="node1" class="node">
<title>Node2</title>
<polygon fill="#bfbfbf" stroke="#000000" points="478.5,-.5 478.5,-255.5 551.5,-255.5 551.5,-.5 478.5,-.5"/>
<text text-anchor="middle" x="515" y="-243.5" font-family="Helvetica,sans-Serif" font-size="10.00" fill="#000000">ATask</text>
<polyline fill="none" stroke="#000000" points="478.5,-236.5 551.5,-236.5 "/>
<text text-anchor="middle" x="515" y="-224.5" font-family="Helvetica,sans-Serif" font-size="10.00" fill="#000000"> </text>
<polyline fill="none" stroke="#000000" points="478.5,-217.5 551.5,-217.5 "/>
<text text-anchor="start" x="486.5" y="-205.5" font-family="Helvetica,sans-Serif" font-size="10.00" fill="#000000">+ process()</text>
<text text-anchor="start" x="486.5" y="-194.5" font-family="Helvetica,sans-Serif" font-size="10.00" fill="#000000">+ process()</text>
<text text-anchor="start" x="486.5" y="-183.5" font-family="Helvetica,sans-Serif" font-size="10.00" fill="#000000">+ process()</text>
<text text-anchor="start" x="486.5" y="-172.5" font-family="Helvetica,sans-Serif" font-size="10.00" fill="#000000">+ process()</text>
<text text-anchor="start" x="486.5" y="-161.5" font-family="Helvetica,sans-Serif" font-size="10.00" fill="#000000">+ init()</text>
<text text-anchor="start" x="486.5" y="-150.5" font-family="Helvetica,sans-Serif" font-size="10.00" fill="#000000">+ process()</text>
<text text-anchor="start" x="486.5" y="-139.5" font-family="Helvetica,sans-Serif" font-size="10.00" fill="#000000">+ process()</text>
<text text-anchor="start" x="486.5" y="-128.5" font-family="Helvetica,sans-Serif" font-size="10.00" fill="#000000">+ process()</text>
<text text-anchor="start" x="486.5" y="-117.5" font-family="Helvetica,sans-Serif" font-size="10.00" fill="#000000">+ process()</text>
<text text-anchor="start" x="486.5" y="-106.5" font-family="Helvetica,sans-Serif" font-size="10.00" fill="#000000">+ init()</text>
<text text-anchor="start" x="486.5" y="-95.5" font-family="Helvetica,sans-Serif" font-size="10.00" fill="#000000">+ process()</text>
<text text-anchor="start" x="486.5" y="-84.5" font-family="Helvetica,sans-Serif" font-size="10.00" fill="#000000">+ process()</text>
<text text-anchor="start" x="486.5" y="-73.5" font-family="Helvetica,sans-Serif" font-size="10.00" fill="#000000">+ ATask()</text>
<text text-anchor="start" x="486.5" y="-62.5" font-family="Helvetica,sans-Serif" font-size="10.00" fill="#000000">+ init()</text>
<text text-anchor="start" x="486.5" y="-51.5" font-family="Helvetica,sans-Serif" font-size="10.00" fill="#000000">+ run()</text>
<text text-anchor="start" x="486.5" y="-40.5" font-family="Helvetica,sans-Serif" font-size="10.00" fill="#000000">+ ATask()</text>
<text text-anchor="start" x="486.5" y="-29.5" font-family="Helvetica,sans-Serif" font-size="10.00" fill="#000000">+ init()</text>
<text text-anchor="start" x="486.5" y="-18.5" font-family="Helvetica,sans-Serif" font-size="10.00" fill="#000000">+ run()</text>
<text text-anchor="start" x="486.5" y="-7.5" font-family="Helvetica,sans-Serif" font-size="10.00" fill="#000000">+ process()</text>
</g>
<!-- Node3 -->
<g id="node2" class="node">
<title>Node3</title>
<g id="a_node2"><a xlink:href="../../de/dac/classo2_1_1framework_1_1Task.html" target="_top" xlink:title="{o2::framework::Task\n||+ ~Task()\l+ init()\l+ run()\l+ endOfStream()\l}">
<polygon fill="none" stroke="#000000" points="0,-347.5 0,-437.5 116,-437.5 116,-347.5 0,-347.5"/>
<text text-anchor="middle" x="58" y="-425.5" font-family="Helvetica,sans-Serif" font-size="10.00" fill="#000000">o2::framework::Task</text>
<polyline fill="none" stroke="#000000" points="0,-418.5 116,-418.5 "/>
<text text-anchor="middle" x="58" y="-406.5" font-family="Helvetica,sans-Serif" font-size="10.00" fill="#000000"> </text>
<polyline fill="none" stroke="#000000" points="0,-399.5 116,-399.5 "/>
<text text-anchor="start" x="8" y="-387.5" font-family="Helvetica,sans-Serif" font-size="10.00" fill="#000000">+ ~Task()</text>
<text text-anchor="start" x="8" y="-376.5" font-family="Helvetica,sans-Serif" font-size="10.00" fill="#000000">+ init()</text>
<text text-anchor="start" x="8" y="-365.5" font-family="Helvetica,sans-Serif" font-size="10.00" fill="#000000">+ run()</text>
<text text-anchor="start" x="8" y="-354.5" font-family="Helvetica,sans-Serif" font-size="10.00" fill="#000000">+ endOfStream()</text>
</a>
</g>
</g>
<!-- Node3&#45;&gt;Node2 -->
<g id="edge1" class="edge">
<title>Node3&#45;&gt;Node2</title>
<path fill="none" stroke="#191970" d="M97.7037,-339.6635C106.0856,-330.4263 115.3394,-321.4151 125,-314 240.7398,-225.1629 405.7344,-163.9492 478.3296,-139.665"/>
<polygon fill="none" stroke="#191970" points="94.8408,-337.6197 90.8782,-347.4457 100.1034,-342.2355 94.8408,-337.6197"/>
</g>
<!-- Node4 -->
<g id="node3" class="node">
<title>Node4</title>
<g id="a_node3"><a xlink:href="../../d6/d86/structo2_1_1framework_1_1Produces.html" target="_top" xlink:title="{o2::framework::Produces\l\&lt; aod::EtaPhiPt \&gt;\n||}">
<polygon fill="none" stroke="#000000" points="134,-358.5 134,-426.5 272,-426.5 272,-358.5 134,-358.5"/>
<text text-anchor="start" x="142" y="-414.5" font-family="Helvetica,sans-Serif" font-size="10.00" fill="#000000">o2::framework::Produces</text>
<text text-anchor="middle" x="203" y="-403.5" font-family="Helvetica,sans-Serif" font-size="10.00" fill="#000000">&lt; aod::EtaPhiPt &gt;</text>
<polyline fill="none" stroke="#000000" points="134,-396.5 272,-396.5 "/>
<text text-anchor="middle" x="203" y="-384.5" font-family="Helvetica,sans-Serif" font-size="10.00" fill="#000000"> </text>
<polyline fill="none" stroke="#000000" points="134,-377.5 272,-377.5 "/>
<text text-anchor="middle" x="203" y="-365.5" font-family="Helvetica,sans-Serif" font-size="10.00" fill="#000000"> </text>
</a>
</g>
</g>
<!-- Node4&#45;&gt;Node2 -->
<g id="edge2" class="edge">
<title>Node4&#45;&gt;Node2</title>
<path fill="none" stroke="#404040" d="M235.185,-358.3906C248.9396,-344.2712 265.3964,-327.9667 281,-314 343.4529,-258.0986 420.2438,-198.6985 468.422,-162.4654"/>
<polygon fill="none" stroke="#404040" points="468.6516,-162.2933 471.0528,-155.4936 478.2529,-155.0949 475.8517,-161.8945 468.6516,-162.2933"/>
<text text-anchor="middle" x="351" y="-282.5" font-family="Helvetica,sans-Serif" font-size="10.00" fill="#000000"> +etaphipt</text>
</g>
<!-- Node5 -->
<g id="node4" class="node">
<title>Node5</title>
<g id="a_node4"><a xlink:href="../../d6/d86/structo2_1_1framework_1_1Produces.html" target="_top" xlink:title="{o2::framework::Produces\&lt; T \&gt;\n||}">
<polygon fill="none" stroke="#000000" points="333.5,-562.5 333.5,-619.5 500.5,-619.5 500.5,-562.5 333.5,-562.5"/>
<text text-anchor="middle" x="417" y="-607.5" font-family="Helvetica,sans-Serif" font-size="10.00" fill="#000000">o2::framework::Produces&lt; T &gt;</text>
<polyline fill="none" stroke="#000000" points="333.5,-600.5 500.5,-600.5 "/>
<text text-anchor="middle" x="417" y="-588.5" font-family="Helvetica,sans-Serif" font-size="10.00" fill="#000000"> </text>
<polyline fill="none" stroke="#000000" points="333.5,-581.5 500.5,-581.5 "/>
<text text-anchor="middle" x="417" y="-569.5" font-family="Helvetica,sans-Serif" font-size="10.00" fill="#000000"> </text>
</a>
</g>
</g>
<!-- Node5&#45;&gt;Node4 -->
<g id="edge3" class="edge">
<title>Node5&#45;&gt;Node4</title>
<path fill="none" stroke="#ffa500" d="M347.1813,-557.5347C320.3687,-542.4558 290.7679,-522.8693 268,-500 246.9192,-478.8253 229.786,-449.527 218.4125,-426.8641"/>
<polygon fill="#ffa500" stroke="#ffa500" points="345.7052,-560.7173 356.1535,-562.4738 349.081,-554.5851 345.7052,-560.7173"/>
<text text-anchor="middle" x="313.5" y="-492" font-family="Helvetica,sans-Serif" font-size="10.00" fill="#000000"> &lt; aod::EtaPhiPt &gt;</text>
</g>
<!-- Node6 -->
<g id="node5" class="node">
<title>Node6</title>
<g id="a_node5"><a xlink:href="../../d6/d86/structo2_1_1framework_1_1Produces.html" target="_top" xlink:title="{o2::framework::Produces\l\&lt; aod::EtaPhis \&gt;\n||}">
<polygon fill="none" stroke="#000000" points="290,-358.5 290,-426.5 428,-426.5 428,-358.5 290,-358.5"/>
<text text-anchor="start" x="298" y="-414.5" font-family="Helvetica,sans-Serif" font-size="10.00" fill="#000000">o2::framework::Produces</text>
<text text-anchor="middle" x="359" y="-403.5" font-family="Helvetica,sans-Serif" font-size="10.00" fill="#000000">&lt; aod::EtaPhis &gt;</text>
<polyline fill="none" stroke="#000000" points="290,-396.5 428,-396.5 "/>
<text text-anchor="middle" x="359" y="-384.5" font-family="Helvetica,sans-Serif" font-size="10.00" fill="#000000"> </text>
<polyline fill="none" stroke="#000000" points="290,-377.5 428,-377.5 "/>
<text text-anchor="middle" x="359" y="-365.5" font-family="Helvetica,sans-Serif" font-size="10.00" fill="#000000"> </text>
</a>
</g>
</g>
<!-- Node5&#45;&gt;Node6 -->
<g id="edge5" class="edge">
<title>Node5&#45;&gt;Node6</title>
<path fill="none" stroke="#ffa500" d="M390.5422,-553.8188C380.6969,-537.9861 370.5714,-518.8454 365,-500 357.9518,-476.1594 356.6076,-448.075 356.9431,-426.5913"/>
<polygon fill="#ffa500" stroke="#ffa500" points="387.6066,-555.7247 395.9524,-562.2515 393.4983,-551.9448 387.6066,-555.7247"/>
<text text-anchor="middle" x="408" y="-492" font-family="Helvetica,sans-Serif" font-size="10.00" fill="#000000"> &lt; aod::EtaPhis &gt;</text>
</g>
<!-- Node14 -->
<g id="node13" class="node">
<title>Node14</title>
<g id="a_node13"><a xlink:href="../../d6/d86/structo2_1_1framework_1_1Produces.html" target="_top" xlink:title="{o2::framework::Produces\l\&lt; aod::FooBars \&gt;\n||}">
<polygon fill="none" stroke="#000000" points="446,-358.5 446,-426.5 584,-426.5 584,-358.5 446,-358.5"/>
<text text-anchor="start" x="454" y="-414.5" font-family="Helvetica,sans-Serif" font-size="10.00" fill="#000000">o2::framework::Produces</text>
<text text-anchor="middle" x="515" y="-403.5" font-family="Helvetica,sans-Serif" font-size="10.00" fill="#000000">&lt; aod::FooBars &gt;</text>
<polyline fill="none" stroke="#000000" points="446,-396.5 584,-396.5 "/>
<text text-anchor="middle" x="515" y="-384.5" font-family="Helvetica,sans-Serif" font-size="10.00" fill="#000000"> </text>
<polyline fill="none" stroke="#000000" points="446,-377.5 584,-377.5 "/>
<text text-anchor="middle" x="515" y="-365.5" font-family="Helvetica,sans-Serif" font-size="10.00" fill="#000000"> </text>
</a>
</g>
</g>
<!-- Node5&#45;&gt;Node14 -->
<g id="edge16" class="edge">
<title>Node5&#45;&gt;Node14</title>
<path fill="none" stroke="#ffa500" d="M435.8528,-552.8135C453.8652,-516.3291 480.7673,-461.8386 498.1,-426.731"/>
<polygon fill="#ffa500" stroke="#ffa500" points="432.5386,-551.6202 431.25,-562.1364 438.8154,-554.7191 432.5386,-551.6202"/>
<text text-anchor="middle" x="510.5" y="-492" font-family="Helvetica,sans-Serif" font-size="10.00" fill="#000000"> &lt; aod::FooBars &gt;</text>
</g>
<!-- Node15 -->
<g id="node14" class="node">
<title>Node15</title>
<g id="a_node14"><a xlink:href="../../d6/d86/structo2_1_1framework_1_1Produces.html" target="_top" xlink:title="{o2::framework::Produces\l\&lt; aod::EtaPhi \&gt;\n||}">
<polygon fill="none" stroke="#000000" points="602,-358.5 602,-426.5 740,-426.5 740,-358.5 602,-358.5"/>
<text text-anchor="start" x="610" y="-414.5" font-family="Helvetica,sans-Serif" font-size="10.00" fill="#000000">o2::framework::Produces</text>
<text text-anchor="middle" x="671" y="-403.5" font-family="Helvetica,sans-Serif" font-size="10.00" fill="#000000">&lt; aod::EtaPhi &gt;</text>
<polyline fill="none" stroke="#000000" points="602,-396.5 740,-396.5 "/>
<text text-anchor="middle" x="671" y="-384.5" font-family="Helvetica,sans-Serif" font-size="10.00" fill="#000000"> </text>
<polyline fill="none" stroke="#000000" points="602,-377.5 740,-377.5 "/>
<text text-anchor="middle" x="671" y="-365.5" font-family="Helvetica,sans-Serif" font-size="10.00" fill="#000000"> </text>
</a>
</g>
</g>
<!-- Node5&#45;&gt;Node15 -->
<g id="edge18" class="edge">
<title>Node5&#45;&gt;Node15</title>
<path fill="none" stroke="#ffa500" d="M473.8546,-557.0372C500.3045,-540.6166 531.8465,-520.135 559,-500 574.9537,-488.1699 578.4325,-484.5003 593,-471 608.2188,-456.8961 624.479,-440.721 638.1934,-426.7326"/>
<polygon fill="#ffa500" stroke="#ffa500" points="471.7654,-554.2136 465.0935,-562.4439 475.4416,-560.1706 471.7654,-554.2136"/>
<text text-anchor="middle" x="613.5" y="-492" font-family="Helvetica,sans-Serif" font-size="10.00" fill="#000000"> &lt; aod::EtaPhi &gt;</text>
</g>
<!-- Node6&#45;&gt;Node2 -->
<g id="edge4" class="edge">
<title>Node6&#45;&gt;Node2</title>
<path fill="none" stroke="#404040" d="M379.0749,-358.4627C402.5175,-318.7154 441.9525,-251.853 472.3264,-200.3537"/>
<polygon fill="none" stroke="#404040" points="472.3706,-200.2786 471.9734,-193.0784 478.4669,-189.9424 478.8641,-197.1426 472.3706,-200.2786"/>
<text text-anchor="middle" x="449.5" y="-282.5" font-family="Helvetica,sans-Serif" font-size="10.00" fill="#000000"> +etaphi</text>
</g>
<!-- Node7 -->
<g id="node6" class="node">
<title>Node7</title>
<g id="a_node6"><a xlink:href="../../d4/d79/structo2_1_1framework_1_1OutputObj.html" target="_top" xlink:title="{o2::framework::OutputObj\l\&lt; TH1F \&gt;\n||+ OutputObj()\l+ OutputObj()\l+ setObject()\l+ setObject()\l+ setObject()\l+ spec()\l+ operator&#45;\&gt;()\l+ operator*()\l+ ref()\l}">
<polygon fill="none" stroke="#000000" points="758.5,-314.5 758.5,-470.5 901.5,-470.5 901.5,-314.5 758.5,-314.5"/>
<text text-anchor="start" x="766.5" y="-458.5" font-family="Helvetica,sans-Serif" font-size="10.00" fill="#000000">o2::framework::OutputObj</text>
<text text-anchor="middle" x="830" y="-447.5" font-family="Helvetica,sans-Serif" font-size="10.00" fill="#000000">&lt; TH1F &gt;</text>
<polyline fill="none" stroke="#000000" points="758.5,-440.5 901.5,-440.5 "/>
<text text-anchor="middle" x="830" y="-428.5" font-family="Helvetica,sans-Serif" font-size="10.00" fill="#000000"> </text>
<polyline fill="none" stroke="#000000" points="758.5,-421.5 901.5,-421.5 "/>
<text text-anchor="start" x="766.5" y="-409.5" font-family="Helvetica,sans-Serif" font-size="10.00" fill="#000000">+ OutputObj()</text>
<text text-anchor="start" x="766.5" y="-398.5" font-family="Helvetica,sans-Serif" font-size="10.00" fill="#000000">+ OutputObj()</text>
<text text-anchor="start" x="766.5" y="-387.5" font-family="Helvetica,sans-Serif" font-size="10.00" fill="#000000">+ setObject()</text>
<text text-anchor="start" x="766.5" y="-376.5" font-family="Helvetica,sans-Serif" font-size="10.00" fill="#000000">+ setObject()</text>
<text text-anchor="start" x="766.5" y="-365.5" font-family="Helvetica,sans-Serif" font-size="10.00" fill="#000000">+ setObject()</text>
<text text-anchor="start" x="766.5" y="-354.5" font-family="Helvetica,sans-Serif" font-size="10.00" fill="#000000">+ spec()</text>
<text text-anchor="start" x="766.5" y="-343.5" font-family="Helvetica,sans-Serif" font-size="10.00" fill="#000000">+ operator&#45;&gt;()</text>
<text text-anchor="start" x="766.5" y="-332.5" font-family="Helvetica,sans-Serif" font-size="10.00" fill="#000000">+ operator*()</text>
<text text-anchor="start" x="766.5" y="-321.5" font-family="Helvetica,sans-Serif" font-size="10.00" fill="#000000">+ ref()</text>
</a>
</g>
</g>
<!-- Node7&#45;&gt;Node2 -->
<g id="edge6" class="edge">
<title>Node7&#45;&gt;Node2</title>
<path fill="none" stroke="#404040" d="M758.3571,-322.3583C755.218,-319.5104 752.0899,-316.7137 749,-314 686.0225,-258.6902 609.369,-199.1352 561.3636,-162.7072"/>
<polygon fill="none" stroke="#404040" points="561.1383,-162.5367 553.9401,-162.1052 551.5699,-155.2948 558.7681,-155.7263 561.1383,-162.5367"/>
<text text-anchor="middle" x="741" y="-288" font-family="Helvetica,sans-Serif" font-size="10.00" fill="#000000"> +phiH</text>
<text text-anchor="middle" x="741" y="-277" font-family="Helvetica,sans-Serif" font-size="10.00" fill="#000000">+etaH</text>
</g>
<!-- Node8 -->
<g id="node7" class="node">
<title>Node8</title>
<polygon fill="none" stroke="#bfbfbf" points="619.5,-711.5 619.5,-768.5 758.5,-768.5 758.5,-711.5 619.5,-711.5"/>
<text text-anchor="middle" x="689" y="-756.5" font-family="Helvetica,sans-Serif" font-size="10.00" fill="#000000">OutputObjHandlingPolicy</text>
<polyline fill="none" stroke="#bfbfbf" points="619.5,-749.5 758.5,-749.5 "/>
<text text-anchor="middle" x="689" y="-737.5" font-family="Helvetica,sans-Serif" font-size="10.00" fill="#000000"> </text>
<polyline fill="none" stroke="#bfbfbf" points="619.5,-730.5 758.5,-730.5 "/>
<text text-anchor="middle" x="689" y="-718.5" font-family="Helvetica,sans-Serif" font-size="10.00" fill="#000000"> </text>
</g>
<!-- Node8&#45;&gt;Node7 -->
<g id="edge7" class="edge">
<title>Node8&#45;&gt;Node7</title>
<path fill="none" stroke="#404040" d="M682.3066,-711.3093C673.5678,-667.2804 662.6992,-581.49 693,-518 706.9953,-488.6754 724.8735,-492.7649 749,-471 749.0954,-470.9139 749.1909,-470.8278 749.2864,-470.7415"/>
<polygon fill="none" stroke="#404040" points="749.4058,-470.6324 751.1374,-463.6323 758.265,-462.5383 756.5335,-469.5384 749.4058,-470.6324"/>
<text text-anchor="middle" x="713.5" y="-588.5" font-family="Helvetica,sans-Serif" font-size="10.00" fill="#000000"> +policy</text>
</g>
<!-- Node11 -->
<g id="node10" class="node">
<title>Node11</title>
<g id="a_node10"><a xlink:href="../../d4/d79/structo2_1_1framework_1_1OutputObj.html" target="_top" xlink:title="{o2::framework::OutputObj\&lt; T \&gt;\n||+ OutputObj()\l+ OutputObj()\l+ setObject()\l+ setObject()\l+ setObject()\l+ spec()\l+ operator&#45;\&gt;()\l+ operator*()\l+ ref()\l}">
<polygon fill="none" stroke="#000000" points="743,-518.5 743,-663.5 915,-663.5 915,-518.5 743,-518.5"/>
<text text-anchor="middle" x="829" y="-651.5" font-family="Helvetica,sans-Serif" font-size="10.00" fill="#000000">o2::framework::OutputObj&lt; T &gt;</text>
<polyline fill="none" stroke="#000000" points="743,-644.5 915,-644.5 "/>
<text text-anchor="middle" x="829" y="-632.5" font-family="Helvetica,sans-Serif" font-size="10.00" fill="#000000"> </text>
<polyline fill="none" stroke="#000000" points="743,-625.5 915,-625.5 "/>
<text text-anchor="start" x="751" y="-613.5" font-family="Helvetica,sans-Serif" font-size="10.00" fill="#000000">+ OutputObj()</text>
<text text-anchor="start" x="751" y="-602.5" font-family="Helvetica,sans-Serif" font-size="10.00" fill="#000000">+ OutputObj()</text>
<text text-anchor="start" x="751" y="-591.5" font-family="Helvetica,sans-Serif" font-size="10.00" fill="#000000">+ setObject()</text>
<text text-anchor="start" x="751" y="-580.5" font-family="Helvetica,sans-Serif" font-size="10.00" fill="#000000">+ setObject()</text>
<text text-anchor="start" x="751" y="-569.5" font-family="Helvetica,sans-Serif" font-size="10.00" fill="#000000">+ setObject()</text>
<text text-anchor="start" x="751" y="-558.5" font-family="Helvetica,sans-Serif" font-size="10.00" fill="#000000">+ spec()</text>
<text text-anchor="start" x="751" y="-547.5" font-family="Helvetica,sans-Serif" font-size="10.00" fill="#000000">+ operator&#45;&gt;()</text>
<text text-anchor="start" x="751" y="-536.5" font-family="Helvetica,sans-Serif" font-size="10.00" fill="#000000">+ operator*()</text>
<text text-anchor="start" x="751" y="-525.5" font-family="Helvetica,sans-Serif" font-size="10.00" fill="#000000">+ ref()</text>
</a>
</g>
</g>
<!-- Node8&#45;&gt;Node11 -->
<g id="edge11" class="edge">
<title>Node8&#45;&gt;Node11</title>
<path fill="none" stroke="#404040" d="M715.9934,-711.2713C726.5526,-700.0333 739.2434,-686.5267 752.248,-672.6861"/>
<polygon fill="none" stroke="#404040" points="752.6028,-672.3084 753.7962,-665.1968 760.8199,-663.5631 759.6265,-670.6748 752.6028,-672.3084"/>
<text text-anchor="middle" x="762.5" y="-685" font-family="Helvetica,sans-Serif" font-size="10.00" fill="#000000"> +policy</text>
</g>
<!-- Node9 -->
<g id="node8" class="node">
<title>Node9</title>
<polygon fill="none" stroke="#bfbfbf" points="913,-711.5 913,-768.5 957,-768.5 957,-711.5 913,-711.5"/>
<text text-anchor="middle" x="935" y="-756.5" font-family="Helvetica,sans-Serif" font-size="10.00" fill="#000000">string</text>
<polyline fill="none" stroke="#bfbfbf" points="913,-749.5 957,-749.5 "/>
<text text-anchor="middle" x="935" y="-737.5" font-family="Helvetica,sans-Serif" font-size="10.00" fill="#000000"> </text>
<polyline fill="none" stroke="#bfbfbf" points="913,-730.5 957,-730.5 "/>
<text text-anchor="middle" x="935" y="-718.5" font-family="Helvetica,sans-Serif" font-size="10.00" fill="#000000"> </text>
</g>
<!-- Node9&#45;&gt;Node7 -->
<g id="edge8" class="edge">
<title>Node9&#45;&gt;Node7</title>
<path fill="none" stroke="#404040" d="M939.0325,-711.1872C943.9272,-667.7278 948.7373,-583.5249 924,-518 919.2035,-505.295 912.7068,-492.7758 905.3547,-480.8526"/>
<polygon fill="none" stroke="#404040" points="905.2042,-480.6194 898.5891,-477.7486 898.6948,-470.5383 905.3099,-473.409 905.2042,-480.6194"/>
<text text-anchor="middle" x="960" y="-588.5" font-family="Helvetica,sans-Serif" font-size="10.00" fill="#000000"> +label</text>
</g>
<!-- Node9&#45;&gt;Node11 -->
<g id="edge13" class="edge">
<title>Node9&#45;&gt;Node11</title>
<path fill="none" stroke="#404040" d="M914.0893,-711.2052C909.7497,-705.1984 905.2159,-698.8995 901,-693 896.534,-686.7504 891.9247,-680.2765 887.2975,-673.7601"/>
<polygon fill="none" stroke="#404040" points="886.971,-673.2997 880.2373,-670.7194 880.0293,-663.5113 886.7629,-666.0916 886.971,-673.2997"/>
<text text-anchor="middle" x="919" y="-685" font-family="Helvetica,sans-Serif" font-size="10.00" fill="#000000"> +label</text>
</g>
<!-- Node10 -->
<g id="node9" class="node">
<title>Node10</title>
<polygon fill="none" stroke="#bfbfbf" points="1005,-562.5 1005,-619.5 1121,-619.5 1121,-562.5 1005,-562.5"/>
<text text-anchor="middle" x="1063" y="-607.5" font-family="Helvetica,sans-Serif" font-size="10.00" fill="#000000">shared_ptr&lt; TH1F &gt;</text>
<polyline fill="none" stroke="#bfbfbf" points="1005,-600.5 1121,-600.5 "/>
<text text-anchor="middle" x="1063" y="-588.5" font-family="Helvetica,sans-Serif" font-size="10.00" fill="#000000"> </text>
<polyline fill="none" stroke="#bfbfbf" points="1005,-581.5 1121,-581.5 "/>
<text text-anchor="middle" x="1063" y="-569.5" font-family="Helvetica,sans-Serif" font-size="10.00" fill="#000000"> </text>
</g>
<!-- Node10&#45;&gt;Node7 -->
<g id="edge9" class="edge">
<title>Node10&#45;&gt;Node7</title>
<path fill="none" stroke="#404040" d="M1041.7956,-562.2226C1023.6778,-539.4733 995.7241,-508.4157 965,-489 946.2873,-477.1748 935.5336,-482.3159 912.321,-470.8365"/>
<polygon fill="none" stroke="#404040" points="912.019,-470.6673 904.8294,-471.2238 901.5505,-464.8013 908.7401,-464.2448 912.019,-470.6673"/>
<text text-anchor="middle" x="998" y="-492" font-family="Helvetica,sans-Serif" font-size="10.00" fill="#000000"> +object</text>
</g>
<!-- Node11&#45;&gt;Node7 -->
<g id="edge10" class="edge">
<title>Node11&#45;&gt;Node7</title>
<path fill="none" stroke="#ffa500" d="M829.4171,-508.2016C829.4794,-495.8292 829.5435,-483.1059 829.6054,-470.83"/>
<polygon fill="#ffa500" stroke="#ffa500" points="825.9158,-508.4768 829.3653,-518.4943 832.9157,-508.5121 825.9158,-508.4768"/>
<text text-anchor="middle" x="854.5" y="-492" font-family="Helvetica,sans-Serif" font-size="10.00" fill="#000000"> &lt; TH1F &gt;</text>
</g>
<!-- Node12 -->
<g id="node11" class="node">
<title>Node12</title>
<polygon fill="none" stroke="#bfbfbf" points="780.5,-711.5 780.5,-768.5 877.5,-768.5 877.5,-711.5 780.5,-711.5"/>
<text text-anchor="middle" x="829" y="-756.5" font-family="Helvetica,sans-Serif" font-size="10.00" fill="#000000">shared_ptr&lt; T &gt;</text>
<polyline fill="none" stroke="#bfbfbf" points="780.5,-749.5 877.5,-749.5 "/>
<text text-anchor="middle" x="829" y="-737.5" font-family="Helvetica,sans-Serif" font-size="10.00" fill="#000000"> </text>
<polyline fill="none" stroke="#bfbfbf" points="780.5,-730.5 877.5,-730.5 "/>
<text text-anchor="middle" x="829" y="-718.5" font-family="Helvetica,sans-Serif" font-size="10.00" fill="#000000"> </text>
</g>
<!-- Node12&#45;&gt;Node11 -->
<g id="edge12" class="edge">
<title>Node12&#45;&gt;Node11</title>
<path fill="none" stroke="#404040" d="M829,-711.2713C829,-700.8895 829,-688.5716 829,-675.843"/>
<polygon fill="none" stroke="#404040" points="829.0001,-675.5631 825,-669.5632 829,-663.5631 833,-669.5631 829.0001,-675.5631"/>
<text text-anchor="middle" x="850" y="-685" font-family="Helvetica,sans-Serif" font-size="10.00" fill="#000000"> +object</text>
</g>
<!-- Node13 -->
<g id="node12" class="node">
<title>Node13</title>
<polygon fill="none" stroke="#bfbfbf" points="919.5,-364 919.5,-421 964.5,-421 964.5,-364 919.5,-364"/>
<text text-anchor="middle" x="942" y="-409" font-family="Helvetica,sans-Serif" font-size="10.00" fill="#000000">size_t</text>
<polyline fill="none" stroke="#bfbfbf" points="919.5,-402 964.5,-402 "/>
<text text-anchor="middle" x="942" y="-390" font-family="Helvetica,sans-Serif" font-size="10.00" fill="#000000"> </text>
<polyline fill="none" stroke="#bfbfbf" points="919.5,-383 964.5,-383 "/>
<text text-anchor="middle" x="942" y="-371" font-family="Helvetica,sans-Serif" font-size="10.00" fill="#000000"> </text>
</g>
<!-- Node13&#45;&gt;Node2 -->
<g id="edge14" class="edge">
<title>Node13&#45;&gt;Node2</title>
<path fill="none" stroke="#404040" d="M936.2342,-363.8841C931.7086,-347.6052 923.9381,-327.7801 911,-314 813.3557,-210.0012 645.8457,-158.4876 563.5367,-138.4236"/>
<polygon fill="none" stroke="#404040" points="563.4675,-138.4072 556.7055,-140.9124 551.7923,-135.6342 558.5542,-133.129 563.4675,-138.4072"/>
<text text-anchor="middle" x="904.5" y="-282.5" font-family="Helvetica,sans-Serif" font-size="10.00" fill="#000000"> +count</text>
</g>
<!-- Node14&#45;&gt;Node2 -->
<g id="edge15" class="edge">
<title>Node14&#45;&gt;Node2</title>
<path fill="none" stroke="#404040" d="M515,-358.4627C515,-334.8112 515,-301.5587 515,-267.6552"/>
<polygon fill="none" stroke="#404040" points="515.0001,-267.6506 511,-261.6506 515,-255.6506 519,-261.6506 515.0001,-267.6506"/>
<text text-anchor="middle" x="539.5" y="-282.5" font-family="Helvetica,sans-Serif" font-size="10.00" fill="#000000"> +foobars</text>
</g>
<!-- Node15&#45;&gt;Node2 -->
<g id="edge17" class="edge">
<title>Node15&#45;&gt;Node2</title>
<path fill="none" stroke="#404040" d="M650.9251,-358.4627C627.4825,-318.7154 588.0475,-251.853 557.6736,-200.3537"/>
<polygon fill="none" stroke="#404040" points="557.6294,-200.2786 551.1359,-197.1426 551.5331,-189.9424 558.0266,-193.0784 557.6294,-200.2786"/>
<text text-anchor="middle" x="632.5" y="-282.5" font-family="Helvetica,sans-Serif" font-size="10.00" fill="#000000"> +etaphi</text>
</g>
</g>
</svg>
        <g id="navigator" transform="translate(0 0)" fill="#404254">
                <rect fill="#f2f5e9" fill-opacity="0.5" stroke="#606060" stroke-width=".5" x="0" y="0" width="60" height="60"/>
                <use id="zoomplus" xlink:href="#zoomPlus" x="17" y="9" onmousedown="handleZoom(evt,'in')"/>
                <use id="zoomminus" xlink:href="#zoomMin" x="42" y="9" onmousedown="handleZoom(evt,'out')"/>
                <use id="reset" xlink:href="#resetDef" x="30" y="36" onmousedown="handleReset()"/>
                <g id="arrowUp" xlink:href="#dirArrow" transform="translate(30 24)" onmousedown="handlePan(0,-1)">
                  <use xlink:href="#rim" fill="#404040">
                        <set attributeName="fill" to="#808080" begin="arrowUp.mouseover" end="arrowUp.mouseout"/>
                  </use>
                  <path fill="none" stroke="white" stroke-width="1.5" d="M0,-3.0v7 M-2.5,-0.5L0,-3.0L2.5,-0.5"/>
                </g>
                <g id="arrowRight" xlink:href="#dirArrow" transform="rotate(90) translate(36 -43)" onmousedown="handlePan(1,0)">
                  <use xlink:href="#rim" fill="#404040">
                        <set attributeName="fill" to="#808080" begin="arrowRight.mouseover" end="arrowRight.mouseout"/>
                  </use>
                  <path fill="none" stroke="white" stroke-width="1.5" d="M0,-3.0v7 M-2.5,-0.5L0,-3.0L2.5,-0.5"/>
                </g>
                <g id="arrowDown" xlink:href="#dirArrow" transform="rotate(180) translate(-30 -48)" onmousedown="handlePan(0,1)">
                  <use xlink:href="#rim" fill="#404040">
                        <set attributeName="fill" to="#808080" begin="arrowDown.mouseover" end="arrowDown.mouseout"/>
                  </use>
                  <path fill="none" stroke="white" stroke-width="1.5" d="M0,-3.0v7 M-2.5,-0.5L0,-3.0L2.5,-0.5"/>
                </g>
                <g id="arrowLeft" xlink:href="#dirArrow" transform="rotate(270) translate(-36 17)" onmousedown="handlePan(-1,0)">
                  <use xlink:href="#rim" fill="#404040">
                        <set attributeName="fill" to="#808080" begin="arrowLeft.mouseover" end="arrowLeft.mouseout"/>
                  </use>
                  <path fill="none" stroke="white" stroke-width="1.5" d="M0,-3.0v7 M-2.5,-0.5L0,-3.0L2.5,-0.5"/>
                </g>
        </g>
        <svg viewBox="0 0 15 15" width="100%" height="30px" preserveAspectRatio="xMaxYMin meet">
         <g id="arrow_out" transform="scale(0.3 0.3)">
          <a xlink:href="structATask__coll__graph_org.svg" target="_base">
           <rect id="button" ry="5" rx="5" y="6" x="6" height="38" width="38"
                fill="#f2f5e9" fill-opacity="0.5" stroke="#606060" stroke-width="1.0"/>
           <path id="arrow"
             d="M 11.500037,31.436501 C 11.940474,20.09759 22.043105,11.32322 32.158766,21.979434 L 37.068811,17.246167 C 37.068811,17.246167 37.088388,32 37.088388,32 L 22.160133,31.978069 C 22.160133,31.978069 26.997745,27.140456 26.997745,27.140456 C 18.528582,18.264221 13.291696,25.230495 11.500037,31.436501 z"
             style="fill:#404040;"/>
          </a>
         </g>
        </svg>
</svg>
