<?xml version="1.0" encoding="UTF-8" standalone="no"?>
<!DOCTYPE svg PUBLIC "-//W3C//DTD SVG 1.1//EN"
 "http://www.w3.org/Graphics/SVG/1.1/DTD/svg11.dtd">
<!-- Generated by graphviz version 2.40.1 (20161225.0304)
 -->
<!-- Title: o2::data_flow::FakeTimeframeGeneratorDevice Pages: 1 -->
<!--zoomable 364 -->
<svg id="main" version="1.1" xmlns="http://www.w3.org/2000/svg" xmlns:xlink="http://www.w3.org/1999/xlink" xml:space="preserve" onload="init(evt)">
<style type="text/css"><![CDATA[
.edge:hover path { stroke: red; }
.edge:hover polygon { stroke: red; fill: red; }
]]></style>
<script type="text/javascript"><![CDATA[
var edges = document.getElementsByTagName('g');
if (edges && edges.length) {
  for (var i=0;i<edges.length;i++) {
    if (edges[i].id.substr(0,4)=='edge') {
      edges[i].setAttribute('class','edge');
    }
  }
}
]]></script>
        <defs>
                <circle id="rim" cx="0" cy="0" r="7"/>
                <circle id="rim2" cx="0" cy="0" r="3.5"/>
                <g id="zoomPlus">
                        <use xlink:href="#rim" fill="#404040">
                                <set attributeName="fill" to="#808080" begin="zoomplus.mouseover" end="zoomplus.mouseout"/>
                        </use>
                        <path d="M-4,0h8M0,-4v8" fill="none" stroke="white" stroke-width="1.5" pointer-events="none"/>
                </g>
                <g id="zoomMin">
                        <use xlink:href="#rim" fill="#404040">
                                <set attributeName="fill" to="#808080" begin="zoomminus.mouseover" end="zoomminus.mouseout"/>
                        </use>
                        <path d="M-4,0h8" fill="none" stroke="white" stroke-width="1.5" pointer-events="none"/>
                </g>
                <g id="dirArrow">
                        <path fill="none" stroke="white" stroke-width="1.5" d="M0,-3.0v7 M-2.5,-0.5L0,-3.0L2.5,-0.5"/>
                </g>
               <g id="resetDef">
                       <use xlink:href="#rim2" fill="#404040">
                               <set attributeName="fill" to="#808080" begin="reset.mouseover" end="reset.mouseout"/>
                       </use>
               </g>
        </defs>

<script type="text/javascript">
var viewWidth = 610;
var viewHeight = 364;
var sectionId = 'dynsection-1';
</script>
<script xlink:href="../../svgpan.js"/>
<svg id="graph" class="graph">
<g id="viewport">
<title>o2::data_flow::FakeTimeframeGeneratorDevice</title>
<!-- Node3 -->
<g id="node1" class="node">
<title>Node3</title>
<polygon fill="#bfbfbf" stroke="#000000" points="168,-.5 168,-101.5 371,-101.5 371,-.5 168,-.5"/>
<text text-anchor="start" x="176" y="-89.5" font-family="Helvetica,sans-Serif" font-size="10.00" fill="#000000">o2::data_flow::FakeTimeframe</text>
<text text-anchor="middle" x="269.5" y="-78.5" font-family="Helvetica,sans-Serif" font-size="10.00" fill="#000000">GeneratorDevice</text>
<polyline fill="none" stroke="#000000" points="168,-71.5 371,-71.5 "/>
<text text-anchor="middle" x="269.5" y="-59.5" font-family="Helvetica,sans-Serif" font-size="10.00" fill="#000000"> </text>
<polyline fill="none" stroke="#000000" points="168,-52.5 371,-52.5 "/>
<text text-anchor="start" x="176" y="-40.5" font-family="Helvetica,sans-Serif" font-size="10.00" fill="#000000">+ FakeTimeframeGeneratorDevice()</text>
<text text-anchor="start" x="176" y="-29.5" font-family="Helvetica,sans-Serif" font-size="10.00" fill="#000000">+ ~FakeTimeframeGeneratorDevice()</text>
<text text-anchor="start" x="176" y="-18.5" font-family="Helvetica,sans-Serif" font-size="10.00" fill="#000000">+ InitTask()</text>
<text text-anchor="start" x="176" y="-7.5" font-family="Helvetica,sans-Serif" font-size="10.00" fill="#000000"># ConditionalRun()</text>
</g>
<!-- Node4 -->
<g id="node2" class="node">
<title>Node4</title>
<g id="a_node2"><a xlink:href="../../db/d18/classo2_1_1base_1_1O2Device.html" target="_top" xlink:title="{o2::base::O2Device\n||+ ~O2Device()\l+ GetMonitoring()\l+ Init()\l}">
<polygon fill="none" stroke="#000000" points="53,-160.5 53,-239.5 164,-239.5 164,-160.5 53,-160.5"/>
<text text-anchor="middle" x="108.5" y="-227.5" font-family="Helvetica,sans-Serif" font-size="10.00" fill="#000000">o2::base::O2Device</text>
<polyline fill="none" stroke="#000000" points="53,-220.5 164,-220.5 "/>
<text text-anchor="middle" x="108.5" y="-208.5" font-family="Helvetica,sans-Serif" font-size="10.00" fill="#000000"> </text>
<polyline fill="none" stroke="#000000" points="53,-201.5 164,-201.5 "/>
<text text-anchor="start" x="61" y="-189.5" font-family="Helvetica,sans-Serif" font-size="10.00" fill="#000000">+ ~O2Device()</text>
<text text-anchor="start" x="61" y="-178.5" font-family="Helvetica,sans-Serif" font-size="10.00" fill="#000000">+ GetMonitoring()</text>
<text text-anchor="start" x="61" y="-167.5" font-family="Helvetica,sans-Serif" font-size="10.00" fill="#000000">+ Init()</text>
</a>
</g>
</g>
<!-- Node4&#45;&gt;Node3 -->
<g id="edge1" class="edge">
<title>Node4&#45;&gt;Node3</title>
<path fill="none" stroke="#191970" d="M158.69,-153.5509C176.4735,-137.0929 196.568,-118.4961 214.7145,-101.7021"/>
<polygon fill="none" stroke="#191970" points="156.1844,-151.1009 151.2224,-160.4619 160.939,-156.2384 156.1844,-151.1009"/>
</g>
<!-- Node5 -->
<g id="node3" class="node">
<title>Node5</title>
<g id="a_node3"><a xlink:href="../../db/dfe/classFairMQDevice.html" target="_top" xlink:title="{FairMQDevice\n||}">
<polygon fill="none" stroke="#000000" points="0,-293 0,-350 83,-350 83,-293 0,-293"/>
<text text-anchor="middle" x="41.5" y="-338" font-family="Helvetica,sans-Serif" font-size="10.00" fill="#000000">FairMQDevice</text>
<polyline fill="none" stroke="#000000" points="0,-331 83,-331 "/>
<text text-anchor="middle" x="41.5" y="-319" font-family="Helvetica,sans-Serif" font-size="10.00" fill="#000000"> </text>
<polyline fill="none" stroke="#000000" points="0,-312 83,-312 "/>
<text text-anchor="middle" x="41.5" y="-300" font-family="Helvetica,sans-Serif" font-size="10.00" fill="#000000"> </text>
</a>
</g>
</g>
<!-- Node5&#45;&gt;Node4 -->
<g id="edge2" class="edge">
<title>Node5&#45;&gt;Node4</title>
<path fill="none" stroke="#191970" d="M62.288,-283.8023C70.0249,-269.772 78.8239,-253.8156 86.653,-239.6181"/>
<polygon fill="none" stroke="#191970" points="59.1421,-282.2592 57.3781,-292.7062 65.2719,-285.6395 59.1421,-282.2592"/>
</g>
<!-- Node6 -->
<g id="node4" class="node">
<title>Node6</title>
<polygon fill="none" stroke="#bfbfbf" points="101,-287.5 101,-355.5 252,-355.5 252,-287.5 101,-287.5"/>
<text text-anchor="start" x="109" y="-343.5" font-family="Helvetica,sans-Serif" font-size="10.00" fill="#000000">unique_ptr&lt; o2::monitoring</text>
<text text-anchor="middle" x="176.5" y="-332.5" font-family="Helvetica,sans-Serif" font-size="10.00" fill="#000000">::Monitoring &gt;</text>
<polyline fill="none" stroke="#bfbfbf" points="101,-325.5 252,-325.5 "/>
<text text-anchor="middle" x="176.5" y="-313.5" font-family="Helvetica,sans-Serif" font-size="10.00" fill="#000000"> </text>
<polyline fill="none" stroke="#bfbfbf" points="101,-306.5 252,-306.5 "/>
<text text-anchor="middle" x="176.5" y="-294.5" font-family="Helvetica,sans-Serif" font-size="10.00" fill="#000000"> </text>
</g>
<!-- Node6&#45;&gt;Node4 -->
<g id="edge3" class="edge">
<title>Node6&#45;&gt;Node4</title>
<path fill="none" stroke="#404040" d="M157.3772,-287.3321C150.9969,-275.9319 143.7459,-262.976 136.8186,-250.5987"/>
<polygon fill="none" stroke="#404040" points="136.7051,-250.3959 130.2843,-247.1136 130.8445,-239.9243 137.2653,-243.2065 136.7051,-250.3959"/>
<text text-anchor="middle" x="180" y="-261" font-family="Helvetica,sans-Serif" font-size="10.00" fill="#000000"> +monitoring</text>
</g>
<!-- Node7 -->
<g id="node5" class="node">
<title>Node7</title>
<polygon fill="none" stroke="#bfbfbf" points="182.5,-171.5 182.5,-228.5 226.5,-228.5 226.5,-171.5 182.5,-171.5"/>
<text text-anchor="middle" x="204.5" y="-216.5" font-family="Helvetica,sans-Serif" font-size="10.00" fill="#000000">string</text>
<polyline fill="none" stroke="#bfbfbf" points="182.5,-209.5 226.5,-209.5 "/>
<text text-anchor="middle" x="204.5" y="-197.5" font-family="Helvetica,sans-Serif" font-size="10.00" fill="#000000"> </text>
<polyline fill="none" stroke="#bfbfbf" points="182.5,-190.5 226.5,-190.5 "/>
<text text-anchor="middle" x="204.5" y="-178.5" font-family="Helvetica,sans-Serif" font-size="10.00" fill="#000000"> </text>
</g>
<!-- Node7&#45;&gt;Node3 -->
<g id="edge4" class="edge">
<title>Node7&#45;&gt;Node3</title>
<path fill="none" stroke="#404040" d="M199.9564,-171.2596C198.6679,-155.5742 199.0573,-136.1229 205.5,-120 206.5743,-117.3117 207.8064,-114.6649 209.1694,-112.0669"/>
<polygon fill="none" stroke="#404040" points="209.2388,-111.9518 208.9155,-104.748 215.4409,-101.6788 215.7642,-108.8827 209.2388,-111.9518"/>
<text text-anchor="middle" x="259.5" y="-128.5" font-family="Helvetica,sans-Serif" font-size="10.00" fill="#000000"> #mOutChannelName</text>
</g>
<!-- Node8 -->
<g id="node6" class="node">
<title>Node8</title>
<polygon fill="none" stroke="#bfbfbf" points="313,-171.5 313,-228.5 358,-228.5 358,-171.5 313,-171.5"/>
<text text-anchor="middle" x="335.5" y="-216.5" font-family="Helvetica,sans-Serif" font-size="10.00" fill="#000000">size_t</text>
<polyline fill="none" stroke="#bfbfbf" points="313,-209.5 358,-209.5 "/>
<text text-anchor="middle" x="335.5" y="-197.5" font-family="Helvetica,sans-Serif" font-size="10.00" fill="#000000"> </text>
<polyline fill="none" stroke="#bfbfbf" points="313,-190.5 358,-190.5 "/>
<text text-anchor="middle" x="335.5" y="-178.5" font-family="Helvetica,sans-Serif" font-size="10.00" fill="#000000"> </text>
</g>
<!-- Node8&#45;&gt;Node3 -->
<g id="edge5" class="edge">
<title>Node8&#45;&gt;Node3</title>
<path fill="none" stroke="#404040" d="M329.7679,-171.1454C326.1391,-155.6033 320.7509,-136.3236 313.5,-120 312.3988,-117.5208 311.217,-115.0276 309.9729,-112.5363"/>
<polygon fill="none" stroke="#404040" points="309.8258,-112.2606 303.4717,-108.851 304.175,-101.6743 310.5292,-105.0838 309.8258,-112.2606"/>
<text text-anchor="middle" x="372" y="-134" font-family="Helvetica,sans-Serif" font-size="10.00" fill="#000000"> #mMaxTimeframes</text>
<text text-anchor="middle" x="372" y="-123" font-family="Helvetica,sans-Serif" font-size="10.00" fill="#000000">#mTimeframeCount</text>
</g>
<!-- Node9 -->
<g id="node7" class="node">
<title>Node9</title>
<polygon fill="none" stroke="#bfbfbf" points="437.5,-171.5 437.5,-228.5 481.5,-228.5 481.5,-171.5 437.5,-171.5"/>
<text text-anchor="middle" x="459.5" y="-216.5" font-family="Helvetica,sans-Serif" font-size="10.00" fill="#000000">static</text>
<polyline fill="none" stroke="#bfbfbf" points="437.5,-209.5 481.5,-209.5 "/>
<text text-anchor="middle" x="459.5" y="-197.5" font-family="Helvetica,sans-Serif" font-size="10.00" fill="#000000"> </text>
<polyline fill="none" stroke="#bfbfbf" points="437.5,-190.5 481.5,-190.5 "/>
<text text-anchor="middle" x="459.5" y="-178.5" font-family="Helvetica,sans-Serif" font-size="10.00" fill="#000000"> </text>
</g>
<!-- Node9&#45;&gt;Node3 -->
<g id="edge6" class="edge">
<title>Node9&#45;&gt;Node3</title>
<path fill="none" stroke="#404040" d="M453.4198,-171.4733C448.576,-154.6937 440.2571,-134.0751 426.5,-120 413.8671,-107.0752 398.3977,-96.4002 382.1472,-87.6348"/>
<polygon fill="none" stroke="#404040" points="382.0691,-87.5951 374.907,-88.4344 371.3776,-82.146 378.5397,-81.3067 382.0691,-87.5951"/>
<text text-anchor="middle" x="521" y="-134" font-family="Helvetica,sans-Serif" font-size="10.00" fill="#000000"> +OptionKeyMaxTimeframes</text>
<text text-anchor="middle" x="521" y="-123" font-family="Helvetica,sans-Serif" font-size="10.00" fill="#000000">+OptionKeyOutputChannelName</text>
</g>
</g>
</svg>
        <g id="navigator" transform="translate(0 0)" fill="#404254">
                <rect fill="#f2f5e9" fill-opacity="0.5" stroke="#606060" stroke-width=".5" x="0" y="0" width="60" height="60"/>
                <use id="zoomplus" xlink:href="#zoomPlus" x="17" y="9" onmousedown="handleZoom(evt,'in')"/>
                <use id="zoomminus" xlink:href="#zoomMin" x="42" y="9" onmousedown="handleZoom(evt,'out')"/>
                <use id="reset" xlink:href="#resetDef" x="30" y="36" onmousedown="handleReset()"/>
                <g id="arrowUp" xlink:href="#dirArrow" transform="translate(30 24)" onmousedown="handlePan(0,-1)">
                  <use xlink:href="#rim" fill="#404040">
                        <set attributeName="fill" to="#808080" begin="arrowUp.mouseover" end="arrowUp.mouseout"/>
                  </use>
                  <path fill="none" stroke="white" stroke-width="1.5" d="M0,-3.0v7 M-2.5,-0.5L0,-3.0L2.5,-0.5"/>
                </g>
                <g id="arrowRight" xlink:href="#dirArrow" transform="rotate(90) translate(36 -43)" onmousedown="handlePan(1,0)">
                  <use xlink:href="#rim" fill="#404040">
                        <set attributeName="fill" to="#808080" begin="arrowRight.mouseover" end="arrowRight.mouseout"/>
                  </use>
                  <path fill="none" stroke="white" stroke-width="1.5" d="M0,-3.0v7 M-2.5,-0.5L0,-3.0L2.5,-0.5"/>
                </g>
                <g id="arrowDown" xlink:href="#dirArrow" transform="rotate(180) translate(-30 -48)" onmousedown="handlePan(0,1)">
                  <use xlink:href="#rim" fill="#404040">
                        <set attributeName="fill" to="#808080" begin="arrowDown.mouseover" end="arrowDown.mouseout"/>
                  </use>
                  <path fill="none" stroke="white" stroke-width="1.5" d="M0,-3.0v7 M-2.5,-0.5L0,-3.0L2.5,-0.5"/>
                </g>
                <g id="arrowLeft" xlink:href="#dirArrow" transform="rotate(270) translate(-36 17)" onmousedown="handlePan(-1,0)">
                  <use xlink:href="#rim" fill="#404040">
                        <set attributeName="fill" to="#808080" begin="arrowLeft.mouseover" end="arrowLeft.mouseout"/>
                  </use>
                  <path fill="none" stroke="white" stroke-width="1.5" d="M0,-3.0v7 M-2.5,-0.5L0,-3.0L2.5,-0.5"/>
                </g>
        </g>
        <svg viewBox="0 0 15 15" width="100%" height="30px" preserveAspectRatio="xMaxYMin meet">
         <g id="arrow_out" transform="scale(0.3 0.3)">
          <a xlink:href="classo2_1_1data__flow_1_1FakeTimeframeGeneratorDevice__coll__graph_org.svg" target="_base">
           <rect id="button" ry="5" rx="5" y="6" x="6" height="38" width="38"
                fill="#f2f5e9" fill-opacity="0.5" stroke="#606060" stroke-width="1.0"/>
           <path id="arrow"
             d="M 11.500037,31.436501 C 11.940474,20.09759 22.043105,11.32322 32.158766,21.979434 L 37.068811,17.246167 C 37.068811,17.246167 37.088388,32 37.088388,32 L 22.160133,31.978069 C 22.160133,31.978069 26.997745,27.140456 26.997745,27.140456 C 18.528582,18.264221 13.291696,25.230495 11.500037,31.436501 z"
             style="fill:#404040;"/>
          </a>
         </g>
        </svg>
</svg>
