<?xml version="1.0" encoding="UTF-8" standalone="no"?>
<!DOCTYPE svg PUBLIC "-//W3C//DTD SVG 1.1//EN"
 "http://www.w3.org/Graphics/SVG/1.1/DTD/svg11.dtd">
<!-- Generated by graphviz version 2.40.1 (20161225.0304)
 -->
<!-- Title: o2::emcal::CaloRawFitterStandard Pages: 1 -->
<!--zoomable 618 -->
<svg id="main" version="1.1" xmlns="http://www.w3.org/2000/svg" xmlns:xlink="http://www.w3.org/1999/xlink" xml:space="preserve" onload="init(evt)">
<style type="text/css"><![CDATA[
.edge:hover path { stroke: red; }
.edge:hover polygon { stroke: red; fill: red; }
]]></style>
<script type="text/javascript"><![CDATA[
var edges = document.getElementsByTagName('g');
if (edges && edges.length) {
  for (var i=0;i<edges.length;i++) {
    if (edges[i].id.substr(0,4)=='edge') {
      edges[i].setAttribute('class','edge');
    }
  }
}
]]></script>
        <defs>
                <circle id="rim" cx="0" cy="0" r="7"/>
                <circle id="rim2" cx="0" cy="0" r="3.5"/>
                <g id="zoomPlus">
                        <use xlink:href="#rim" fill="#404040">
                                <set attributeName="fill" to="#808080" begin="zoomplus.mouseover" end="zoomplus.mouseout"/>
                        </use>
                        <path d="M-4,0h8M0,-4v8" fill="none" stroke="white" stroke-width="1.5" pointer-events="none"/>
                </g>
                <g id="zoomMin">
                        <use xlink:href="#rim" fill="#404040">
                                <set attributeName="fill" to="#808080" begin="zoomminus.mouseover" end="zoomminus.mouseout"/>
                        </use>
                        <path d="M-4,0h8" fill="none" stroke="white" stroke-width="1.5" pointer-events="none"/>
                </g>
                <g id="dirArrow">
                        <path fill="none" stroke="white" stroke-width="1.5" d="M0,-3.0v7 M-2.5,-0.5L0,-3.0L2.5,-0.5"/>
                </g>
               <g id="resetDef">
                       <use xlink:href="#rim2" fill="#404040">
                               <set attributeName="fill" to="#808080" begin="reset.mouseover" end="reset.mouseout"/>
                       </use>
               </g>
        </defs>

<script type="text/javascript">
var viewWidth = 679;
var viewHeight = 618;
var sectionId = 'dynsection-1';
</script>
<script xlink:href="../../svgpan.js"/>
<svg id="graph" class="graph">
<g id="viewport">
<title>o2::emcal::CaloRawFitterStandard</title>
<!-- Node2 -->
<g id="node1" class="node">
<title>Node2</title>
<polygon fill="#bfbfbf" stroke="#000000" points="185.5,-.5 185.5,-112.5 340.5,-112.5 340.5,-.5 185.5,-.5"/>
<text text-anchor="start" x="193.5" y="-100.5" font-family="Helvetica,sans-Serif" font-size="10.00" fill="#000000">o2::emcal::CaloRawFitter</text>
<text text-anchor="middle" x="263" y="-89.5" font-family="Helvetica,sans-Serif" font-size="10.00" fill="#000000">Standard</text>
<polyline fill="none" stroke="#000000" points="185.5,-82.5 340.5,-82.5 "/>
<text text-anchor="middle" x="263" y="-70.5" font-family="Helvetica,sans-Serif" font-size="10.00" fill="#000000"> </text>
<polyline fill="none" stroke="#000000" points="185.5,-63.5 340.5,-63.5 "/>
<text text-anchor="start" x="193.5" y="-51.5" font-family="Helvetica,sans-Serif" font-size="10.00" fill="#000000">+ CaloRawFitterStandard()</text>
<text text-anchor="start" x="193.5" y="-40.5" font-family="Helvetica,sans-Serif" font-size="10.00" fill="#000000">+ ~CaloRawFitterStandard()</text>
<text text-anchor="start" x="193.5" y="-29.5" font-family="Helvetica,sans-Serif" font-size="10.00" fill="#000000">+ evaluate()</text>
<text text-anchor="start" x="193.5" y="-18.5" font-family="Helvetica,sans-Serif" font-size="10.00" fill="#000000">+ fitRaw()</text>
<text text-anchor="start" x="193.5" y="-7.5" font-family="Helvetica,sans-Serif" font-size="10.00" fill="#000000">+ rawResponseFunction()</text>
</g>
<!-- Node3 -->
<g id="node2" class="node">
<title>Node3</title>
<g id="a_node2"><a xlink:href="../../d8/d83/classo2_1_1emcal_1_1CaloRawFitter.html" target="_top" xlink:title="{o2::emcal::CaloRawFitter\n||+ CaloRawFitter()\l+ ~CaloRawFitter()\l+ preFitEvaluateSamples()\l+ setTimeConstraint()\l+ setIsZeroSuppressed()\l+ setAmpCut()\l+ setNsamplePed()\l+ setL1Phase()\l+ getIsZeroSuppressed()\l+ getAmpCut()\l+ getNsamplePed()\l+ getReversed()\l+ getAlgoName()\l+ getAlgoAbbr()\l+ getAlgo()\l+ maxAmp()\l+ maxAmp()\l+ checkBunchEdgesForMax()\l+ isInTimeRange()\l+ reverseAndSubtractPed()\l+ selectBunch()\l+ selectSubarray()\l+ evaluatePedestal()\l+ calculateChi2()\l# ClassDefNV()\l}">
<polygon fill="none" stroke="#000000" points="184,-150.5 184,-471.5 342,-471.5 342,-150.5 184,-150.5"/>
<text text-anchor="middle" x="263" y="-459.5" font-family="Helvetica,sans-Serif" font-size="10.00" fill="#000000">o2::emcal::CaloRawFitter</text>
<polyline fill="none" stroke="#000000" points="184,-452.5 342,-452.5 "/>
<text text-anchor="middle" x="263" y="-440.5" font-family="Helvetica,sans-Serif" font-size="10.00" fill="#000000"> </text>
<polyline fill="none" stroke="#000000" points="184,-433.5 342,-433.5 "/>
<text text-anchor="start" x="192" y="-421.5" font-family="Helvetica,sans-Serif" font-size="10.00" fill="#000000">+ CaloRawFitter()</text>
<text text-anchor="start" x="192" y="-410.5" font-family="Helvetica,sans-Serif" font-size="10.00" fill="#000000">+ ~CaloRawFitter()</text>
<text text-anchor="start" x="192" y="-399.5" font-family="Helvetica,sans-Serif" font-size="10.00" fill="#000000">+ preFitEvaluateSamples()</text>
<text text-anchor="start" x="192" y="-388.5" font-family="Helvetica,sans-Serif" font-size="10.00" fill="#000000">+ setTimeConstraint()</text>
<text text-anchor="start" x="192" y="-377.5" font-family="Helvetica,sans-Serif" font-size="10.00" fill="#000000">+ setIsZeroSuppressed()</text>
<text text-anchor="start" x="192" y="-366.5" font-family="Helvetica,sans-Serif" font-size="10.00" fill="#000000">+ setAmpCut()</text>
<text text-anchor="start" x="192" y="-355.5" font-family="Helvetica,sans-Serif" font-size="10.00" fill="#000000">+ setNsamplePed()</text>
<text text-anchor="start" x="192" y="-344.5" font-family="Helvetica,sans-Serif" font-size="10.00" fill="#000000">+ setL1Phase()</text>
<text text-anchor="start" x="192" y="-333.5" font-family="Helvetica,sans-Serif" font-size="10.00" fill="#000000">+ getIsZeroSuppressed()</text>
<text text-anchor="start" x="192" y="-322.5" font-family="Helvetica,sans-Serif" font-size="10.00" fill="#000000">+ getAmpCut()</text>
<text text-anchor="start" x="192" y="-311.5" font-family="Helvetica,sans-Serif" font-size="10.00" fill="#000000">+ getNsamplePed()</text>
<text text-anchor="start" x="192" y="-300.5" font-family="Helvetica,sans-Serif" font-size="10.00" fill="#000000">+ getReversed()</text>
<text text-anchor="start" x="192" y="-289.5" font-family="Helvetica,sans-Serif" font-size="10.00" fill="#000000">+ getAlgoName()</text>
<text text-anchor="start" x="192" y="-278.5" font-family="Helvetica,sans-Serif" font-size="10.00" fill="#000000">+ getAlgoAbbr()</text>
<text text-anchor="start" x="192" y="-267.5" font-family="Helvetica,sans-Serif" font-size="10.00" fill="#000000">+ getAlgo()</text>
<text text-anchor="start" x="192" y="-256.5" font-family="Helvetica,sans-Serif" font-size="10.00" fill="#000000">+ maxAmp()</text>
<text text-anchor="start" x="192" y="-245.5" font-family="Helvetica,sans-Serif" font-size="10.00" fill="#000000">+ maxAmp()</text>
<text text-anchor="start" x="192" y="-234.5" font-family="Helvetica,sans-Serif" font-size="10.00" fill="#000000">+ checkBunchEdgesForMax()</text>
<text text-anchor="start" x="192" y="-223.5" font-family="Helvetica,sans-Serif" font-size="10.00" fill="#000000">+ isInTimeRange()</text>
<text text-anchor="start" x="192" y="-212.5" font-family="Helvetica,sans-Serif" font-size="10.00" fill="#000000">+ reverseAndSubtractPed()</text>
<text text-anchor="start" x="192" y="-201.5" font-family="Helvetica,sans-Serif" font-size="10.00" fill="#000000">+ selectBunch()</text>
<text text-anchor="start" x="192" y="-190.5" font-family="Helvetica,sans-Serif" font-size="10.00" fill="#000000">+ selectSubarray()</text>
<text text-anchor="start" x="192" y="-179.5" font-family="Helvetica,sans-Serif" font-size="10.00" fill="#000000">+ evaluatePedestal()</text>
<text text-anchor="start" x="192" y="-168.5" font-family="Helvetica,sans-Serif" font-size="10.00" fill="#000000">+ calculateChi2()</text>
<text text-anchor="start" x="192" y="-157.5" font-family="Helvetica,sans-Serif" font-size="10.00" fill="#000000"># ClassDefNV()</text>
</a>
</g>
</g>
<!-- Node3&#45;&gt;Node2 -->
<g id="edge1" class="edge">
<title>Node3&#45;&gt;Node2</title>
<path fill="none" stroke="#191970" d="M263,-140.0419C263,-130.4324 263,-121.2015 263,-112.6083"/>
<polygon fill="none" stroke="#191970" points="259.5001,-140.1821 263,-150.1822 266.5001,-140.1822 259.5001,-140.1821"/>
</g>
<!-- Node4 -->
<g id="node3" class="node">
<title>Node4</title>
<polygon fill="none" stroke="#bfbfbf" points="0,-547 0,-604 50,-604 50,-547 0,-547"/>
<text text-anchor="middle" x="25" y="-592" font-family="Helvetica,sans-Serif" font-size="10.00" fill="#000000">double</text>
<polyline fill="none" stroke="#bfbfbf" points="0,-585 50,-585 "/>
<text text-anchor="middle" x="25" y="-573" font-family="Helvetica,sans-Serif" font-size="10.00" fill="#000000"> </text>
<polyline fill="none" stroke="#bfbfbf" points="0,-566 50,-566 "/>
<text text-anchor="middle" x="25" y="-554" font-family="Helvetica,sans-Serif" font-size="10.00" fill="#000000"> </text>
</g>
<!-- Node4&#45;&gt;Node3 -->
<g id="edge2" class="edge">
<title>Node4&#45;&gt;Node3</title>
<path fill="none" stroke="#404040" d="M33.8307,-546.9325C40.0478,-529.4947 49.4941,-507.3036 62,-490 93.0365,-447.0569 136.0128,-407.0378 174.2629,-375.7773"/>
<polygon fill="none" stroke="#404040" points="174.5361,-375.5569 176.6941,-368.6763 183.8755,-368.022 181.7174,-374.9026 174.5361,-375.5569"/>
<text text-anchor="middle" x="93" y="-509.5" font-family="Helvetica,sans-Serif" font-size="10.00" fill="#000000"> #mL1Phase</text>
<text text-anchor="middle" x="93" y="-498.5" font-family="Helvetica,sans-Serif" font-size="10.00" fill="#000000">#mAmp</text>
</g>
<!-- Node5 -->
<g id="node4" class="node">
<title>Node5</title>
<polygon fill="none" stroke="#bfbfbf" points="70,-547 70,-604 146,-604 146,-547 70,-547"/>
<text text-anchor="middle" x="108" y="-592" font-family="Helvetica,sans-Serif" font-size="10.00" fill="#000000">FitAlgorithm</text>
<polyline fill="none" stroke="#bfbfbf" points="70,-585 146,-585 "/>
<text text-anchor="middle" x="108" y="-573" font-family="Helvetica,sans-Serif" font-size="10.00" fill="#000000"> </text>
<polyline fill="none" stroke="#bfbfbf" points="70,-566 146,-566 "/>
<text text-anchor="middle" x="108" y="-554" font-family="Helvetica,sans-Serif" font-size="10.00" fill="#000000"> </text>
</g>
<!-- Node5&#45;&gt;Node3 -->
<g id="edge3" class="edge">
<title>Node5&#45;&gt;Node3</title>
<path fill="none" stroke="#404040" d="M118.1113,-546.7331C124.4592,-529.828 133.2704,-508.2604 143,-490 153.29,-470.6878 165.1419,-450.8566 177.3049,-431.7516"/>
<polygon fill="none" stroke="#404040" points="177.3905,-431.6186 177.2747,-424.4084 183.8857,-421.5284 184.0015,-428.7386 177.3905,-431.6186"/>
<text text-anchor="middle" x="164.5" y="-504" font-family="Helvetica,sans-Serif" font-size="10.00" fill="#000000"> #mAlgo</text>
</g>
<!-- Node6 -->
<g id="node5" class="node">
<title>Node6</title>
<g id="a_node5"><a xlink:href="../../d4/dc3/classfloat.html" target="_top" xlink:title="{float\n||}">
<polygon fill="none" stroke="#000000" points="164,-547 164,-604 202,-604 202,-547 164,-547"/>
<text text-anchor="middle" x="183" y="-592" font-family="Helvetica,sans-Serif" font-size="10.00" fill="#000000">float</text>
<polyline fill="none" stroke="#000000" points="164,-585 202,-585 "/>
<text text-anchor="middle" x="183" y="-573" font-family="Helvetica,sans-Serif" font-size="10.00" fill="#000000"> </text>
<polyline fill="none" stroke="#000000" points="164,-566 202,-566 "/>
<text text-anchor="middle" x="183" y="-554" font-family="Helvetica,sans-Serif" font-size="10.00" fill="#000000"> </text>
</a>
</g>
</g>
<!-- Node6&#45;&gt;Node3 -->
<g id="edge4" class="edge">
<title>Node6&#45;&gt;Node3</title>
<path fill="none" stroke="#404040" d="M186.7667,-546.7277C189.2723,-530.0119 193.0223,-508.6369 198,-490 198.6079,-487.7241 199.2322,-485.4363 199.8717,-483.1389"/>
<polygon fill="none" stroke="#404040" points="199.8777,-483.1178 197.6886,-476.247 203.1888,-471.5836 205.378,-478.4544 199.8777,-483.1178"/>
<text text-anchor="middle" x="228.5" y="-504" font-family="Helvetica,sans-Serif" font-size="10.00" fill="#000000"> #mAmpCut</text>
</g>
<!-- Node7 -->
<g id="node6" class="node">
<title>Node7</title>
<polygon fill="none" stroke="#bfbfbf" points="248.5,-547 248.5,-604 277.5,-604 277.5,-547 248.5,-547"/>
<text text-anchor="middle" x="263" y="-592" font-family="Helvetica,sans-Serif" font-size="10.00" fill="#000000">int</text>
<polyline fill="none" stroke="#bfbfbf" points="248.5,-585 277.5,-585 "/>
<text text-anchor="middle" x="263" y="-573" font-family="Helvetica,sans-Serif" font-size="10.00" fill="#000000"> </text>
<polyline fill="none" stroke="#bfbfbf" points="248.5,-566 277.5,-566 "/>
<text text-anchor="middle" x="263" y="-554" font-family="Helvetica,sans-Serif" font-size="10.00" fill="#000000"> </text>
</g>
<!-- Node7&#45;&gt;Node3 -->
<g id="edge5" class="edge">
<title>Node7&#45;&gt;Node3</title>
<path fill="none" stroke="#404040" d="M263,-546.9426C263,-530.4118 263,-508.0886 263,-483.7387"/>
<polygon fill="none" stroke="#404040" points="263.0001,-483.6388 259,-477.6388 263,-471.6388 267,-477.6387 263.0001,-483.6388"/>
<text text-anchor="middle" x="310" y="-515" font-family="Helvetica,sans-Serif" font-size="10.00" fill="#000000"> #mMaxTimeIndex</text>
<text text-anchor="middle" x="310" y="-504" font-family="Helvetica,sans-Serif" font-size="10.00" fill="#000000">#mNsamplePed</text>
<text text-anchor="middle" x="310" y="-493" font-family="Helvetica,sans-Serif" font-size="10.00" fill="#000000">#mMinTimeIndex</text>
</g>
<!-- Node8 -->
<g id="node7" class="node">
<title>Node8</title>
<polygon fill="none" stroke="#bfbfbf" points="358,-547 358,-604 402,-604 402,-547 358,-547"/>
<text text-anchor="middle" x="380" y="-592" font-family="Helvetica,sans-Serif" font-size="10.00" fill="#000000">string</text>
<polyline fill="none" stroke="#bfbfbf" points="358,-585 402,-585 "/>
<text text-anchor="middle" x="380" y="-573" font-family="Helvetica,sans-Serif" font-size="10.00" fill="#000000"> </text>
<polyline fill="none" stroke="#bfbfbf" points="358,-566 402,-566 "/>
<text text-anchor="middle" x="380" y="-554" font-family="Helvetica,sans-Serif" font-size="10.00" fill="#000000"> </text>
</g>
<!-- Node8&#45;&gt;Node3 -->
<g id="edge6" class="edge">
<title>Node8&#45;&gt;Node3</title>
<path fill="none" stroke="#404040" d="M374.4063,-546.862C370.6783,-530.0012 365.1478,-508.435 358,-490 354.6465,-481.3509 350.976,-472.5846 347.0893,-463.8169"/>
<polygon fill="none" stroke="#404040" points="347.0131,-463.6486 340.8926,-459.8355 342.0583,-452.7192 348.1788,-456.5323 347.0131,-463.6486"/>
<text text-anchor="middle" x="404.5" y="-509.5" font-family="Helvetica,sans-Serif" font-size="10.00" fill="#000000"> #mName</text>
<text text-anchor="middle" x="404.5" y="-498.5" font-family="Helvetica,sans-Serif" font-size="10.00" fill="#000000">#mNameShort</text>
</g>
<!-- Node9 -->
<g id="node8" class="node">
<title>Node9</title>
<polygon fill="none" stroke="#bfbfbf" points="457,-547 457,-604 495,-604 495,-547 457,-547"/>
<text text-anchor="middle" x="476" y="-592" font-family="Helvetica,sans-Serif" font-size="10.00" fill="#000000">bool</text>
<polyline fill="none" stroke="#bfbfbf" points="457,-585 495,-585 "/>
<text text-anchor="middle" x="476" y="-573" font-family="Helvetica,sans-Serif" font-size="10.00" fill="#000000"> </text>
<polyline fill="none" stroke="#bfbfbf" points="457,-566 495,-566 "/>
<text text-anchor="middle" x="476" y="-554" font-family="Helvetica,sans-Serif" font-size="10.00" fill="#000000"> </text>
</g>
<!-- Node9&#45;&gt;Node3 -->
<g id="edge7" class="edge">
<title>Node9&#45;&gt;Node3</title>
<path fill="none" stroke="#404040" d="M469.0379,-546.7019C464.0308,-529.386 456.1751,-507.4053 445,-490 419.7209,-450.6279 384.3387,-413.2867 351.4856,-382.9975"/>
<polygon fill="none" stroke="#404040" points="351.1769,-382.717 344.0465,-381.6413 342.2969,-374.6456 349.4274,-375.7213 351.1769,-382.717"/>
<text text-anchor="middle" x="511" y="-504" font-family="Helvetica,sans-Serif" font-size="10.00" fill="#000000"> #mIsZerosupressed</text>
</g>
<!-- Node10 -->
<g id="node9" class="node">
<title>Node10</title>
<polygon fill="none" stroke="#bfbfbf" points="531,-541.5 531,-609.5 671,-609.5 671,-541.5 531,-541.5"/>
<text text-anchor="start" x="539" y="-597.5" font-family="Helvetica,sans-Serif" font-size="10.00" fill="#000000">array&lt; double, constants</text>
<text text-anchor="middle" x="601" y="-586.5" font-family="Helvetica,sans-Serif" font-size="10.00" fill="#000000">::EMCAL_MAXTIMEBINS &gt;</text>
<polyline fill="none" stroke="#bfbfbf" points="531,-579.5 671,-579.5 "/>
<text text-anchor="middle" x="601" y="-567.5" font-family="Helvetica,sans-Serif" font-size="10.00" fill="#000000"> </text>
<polyline fill="none" stroke="#bfbfbf" points="531,-560.5 671,-560.5 "/>
<text text-anchor="middle" x="601" y="-548.5" font-family="Helvetica,sans-Serif" font-size="10.00" fill="#000000"> </text>
</g>
<!-- Node10&#45;&gt;Node3 -->
<g id="edge8" class="edge">
<title>Node10&#45;&gt;Node3</title>
<path fill="none" stroke="#404040" d="M592.6551,-541.4951C587.206,-524.5855 578.6927,-504.6816 566,-490 508.5846,-423.5882 420.1659,-375.3363 353.6347,-345.7809"/>
<polygon fill="none" stroke="#404040" points="353.3153,-345.6414 346.2159,-346.9061 342.318,-340.8392 349.4174,-339.5746 353.3153,-345.6414"/>
<text text-anchor="middle" x="618.5" y="-504" font-family="Helvetica,sans-Serif" font-size="10.00" fill="#000000"> #mReversed</text>
</g>
</g>
</svg>
        <g id="navigator" transform="translate(0 0)" fill="#404254">
                <rect fill="#f2f5e9" fill-opacity="0.5" stroke="#606060" stroke-width=".5" x="0" y="0" width="60" height="60"/>
                <use id="zoomplus" xlink:href="#zoomPlus" x="17" y="9" onmousedown="handleZoom(evt,'in')"/>
                <use id="zoomminus" xlink:href="#zoomMin" x="42" y="9" onmousedown="handleZoom(evt,'out')"/>
                <use id="reset" xlink:href="#resetDef" x="30" y="36" onmousedown="handleReset()"/>
                <g id="arrowUp" xlink:href="#dirArrow" transform="translate(30 24)" onmousedown="handlePan(0,-1)">
                  <use xlink:href="#rim" fill="#404040">
                        <set attributeName="fill" to="#808080" begin="arrowUp.mouseover" end="arrowUp.mouseout"/>
                  </use>
                  <path fill="none" stroke="white" stroke-width="1.5" d="M0,-3.0v7 M-2.5,-0.5L0,-3.0L2.5,-0.5"/>
                </g>
                <g id="arrowRight" xlink:href="#dirArrow" transform="rotate(90) translate(36 -43)" onmousedown="handlePan(1,0)">
                  <use xlink:href="#rim" fill="#404040">
                        <set attributeName="fill" to="#808080" begin="arrowRight.mouseover" end="arrowRight.mouseout"/>
                  </use>
                  <path fill="none" stroke="white" stroke-width="1.5" d="M0,-3.0v7 M-2.5,-0.5L0,-3.0L2.5,-0.5"/>
                </g>
                <g id="arrowDown" xlink:href="#dirArrow" transform="rotate(180) translate(-30 -48)" onmousedown="handlePan(0,1)">
                  <use xlink:href="#rim" fill="#404040">
                        <set attributeName="fill" to="#808080" begin="arrowDown.mouseover" end="arrowDown.mouseout"/>
                  </use>
                  <path fill="none" stroke="white" stroke-width="1.5" d="M0,-3.0v7 M-2.5,-0.5L0,-3.0L2.5,-0.5"/>
                </g>
                <g id="arrowLeft" xlink:href="#dirArrow" transform="rotate(270) translate(-36 17)" onmousedown="handlePan(-1,0)">
                  <use xlink:href="#rim" fill="#404040">
                        <set attributeName="fill" to="#808080" begin="arrowLeft.mouseover" end="arrowLeft.mouseout"/>
                  </use>
                  <path fill="none" stroke="white" stroke-width="1.5" d="M0,-3.0v7 M-2.5,-0.5L0,-3.0L2.5,-0.5"/>
                </g>
        </g>
        <svg viewBox="0 0 15 15" width="100%" height="30px" preserveAspectRatio="xMaxYMin meet">
         <g id="arrow_out" transform="scale(0.3 0.3)">
          <a xlink:href="classo2_1_1emcal_1_1CaloRawFitterStandard__coll__graph_org.svg" target="_base">
           <rect id="button" ry="5" rx="5" y="6" x="6" height="38" width="38"
                fill="#f2f5e9" fill-opacity="0.5" stroke="#606060" stroke-width="1.0"/>
           <path id="arrow"
             d="M 11.500037,31.436501 C 11.940474,20.09759 22.043105,11.32322 32.158766,21.979434 L 37.068811,17.246167 C 37.068811,17.246167 37.088388,32 37.088388,32 L 22.160133,31.978069 C 22.160133,31.978069 26.997745,27.140456 26.997745,27.140456 C 18.528582,18.264221 13.291696,25.230495 11.500037,31.436501 z"
             style="fill:#404040;"/>
          </a>
         </g>
        </svg>
</svg>
