<?xml version="1.0" encoding="UTF-8" standalone="no"?>
<!DOCTYPE svg PUBLIC "-//W3C//DTD SVG 1.1//EN"
 "http://www.w3.org/Graphics/SVG/1.1/DTD/svg11.dtd">
<!-- Generated by graphviz version 2.40.1 (20161225.0304)
 -->
<!-- Title: PrintingKernel Pages: 1 -->
<svg width="166pt" height="171pt"
 viewBox="0.00 0.00 166.00 171.00" xmlns="http://www.w3.org/2000/svg" xmlns:xlink="http://www.w3.org/1999/xlink">
<g id="graph0" class="graph" transform="scale(1 1) rotate(0) translate(4 167)">
<title>PrintingKernel</title>
<!-- Node0 -->
<g id="node1" class="node">
<title>Node0</title>
<polygon fill="#bfbfbf" stroke="#000000" points="36.5,-.5 36.5,-68.5 121.5,-68.5 121.5,-.5 36.5,-.5"/>
<text text-anchor="middle" x="79" y="-56.5" font-family="Helvetica,sans-Serif" font-size="10.00" fill="#000000">PrintingKernel</text>
<polyline fill="none" stroke="#000000" points="36.5,-49.5 121.5,-49.5 "/>
<text text-anchor="start" x="44.5" y="-37.5" font-family="Helvetica,sans-Serif" font-size="10.00" fill="#000000">+ mType</text>
<polyline fill="none" stroke="#000000" points="36.5,-30.5 121.5,-30.5 "/>
<text text-anchor="start" x="44.5" y="-18.5" font-family="Helvetica,sans-Serif" font-size="10.00" fill="#000000">+ Call()</text>
<text text-anchor="start" x="44.5" y="-7.5" font-family="Helvetica,sans-Serif" font-size="10.00" fill="#000000">+ out_type()</text>
</g>
<!-- Node1 -->
<g id="node2" class="node">
<title>Node1</title>
<g id="a_node2"><a xlink:href="../../d7/db5/classarrow_1_1compute_1_1UnaryKernel.html" target="_top" xlink:title="{arrow::compute::UnaryKernel\n||}">
<polygon fill="none" stroke="#000000" points="0,-105.5 0,-162.5 158,-162.5 158,-105.5 0,-105.5"/>
<text text-anchor="middle" x="79" y="-150.5" font-family="Helvetica,sans-Serif" font-size="10.00" fill="#000000">arrow::compute::UnaryKernel</text>
<polyline fill="none" stroke="#000000" points="0,-143.5 158,-143.5 "/>
<text text-anchor="middle" x="79" y="-131.5" font-family="Helvetica,sans-Serif" font-size="10.00" fill="#000000"> </text>
<polyline fill="none" stroke="#000000" points="0,-124.5 158,-124.5 "/>
<text text-anchor="middle" x="79" y="-112.5" font-family="Helvetica,sans-Serif" font-size="10.00" fill="#000000"> </text>
</a>
</g>
</g>
<!-- Node1&#45;&gt;Node0 -->
<g id="edge1" class="edge">
<title>Node1&#45;&gt;Node0</title>
<path fill="none" stroke="#191970" d="M79,-95.4268C79,-86.6025 79,-77.2834 79,-68.6596"/>
<polygon fill="none" stroke="#191970" points="75.5001,-95.4873 79,-105.4873 82.5001,-95.4873 75.5001,-95.4873"/>
</g>
</g>
</svg>
