<?xml version="1.0" encoding="UTF-8" standalone="no"?>
<!DOCTYPE svg PUBLIC "-//W3C//DTD SVG 1.1//EN"
 "http://www.w3.org/Graphics/SVG/1.1/DTD/svg11.dtd">
<!-- Generated by graphviz version 2.40.1 (20161225.0304)
 -->
<!-- Title: o2::framework::OutputChannelSpec Pages: 1 -->
<svg width="586pt" height="182pt"
 viewBox="0.00 0.00 586.00 182.00" xmlns="http://www.w3.org/2000/svg" xmlns:xlink="http://www.w3.org/1999/xlink">
<g id="graph0" class="graph" transform="scale(1 1) rotate(0) translate(4 178)">
<title>o2::framework::OutputChannelSpec</title>
<!-- Node1 -->
<g id="node1" class="node">
<title>Node1</title>
<polygon fill="#bfbfbf" stroke="#000000" points="230.5,-.5 230.5,-57.5 420.5,-57.5 420.5,-.5 230.5,-.5"/>
<text text-anchor="middle" x="325.5" y="-45.5" font-family="Helvetica,sans-Serif" font-size="10.00" fill="#000000">o2::framework::OutputChannelSpec</text>
<polyline fill="none" stroke="#000000" points="230.5,-38.5 420.5,-38.5 "/>
<text text-anchor="middle" x="325.5" y="-26.5" font-family="Helvetica,sans-Serif" font-size="10.00" fill="#000000"> </text>
<polyline fill="none" stroke="#000000" points="230.5,-19.5 420.5,-19.5 "/>
<text text-anchor="middle" x="325.5" y="-7.5" font-family="Helvetica,sans-Serif" font-size="10.00" fill="#000000"> </text>
</g>
<!-- Node2 -->
<g id="node2" class="node">
<title>Node2</title>
<polygon fill="none" stroke="#bfbfbf" points="0,-116.5 0,-173.5 123,-173.5 123,-116.5 0,-116.5"/>
<text text-anchor="middle" x="61.5" y="-161.5" font-family="Helvetica,sans-Serif" font-size="10.00" fill="#000000">enum ChannelMethod</text>
<polyline fill="none" stroke="#bfbfbf" points="0,-154.5 123,-154.5 "/>
<text text-anchor="middle" x="61.5" y="-142.5" font-family="Helvetica,sans-Serif" font-size="10.00" fill="#000000"> </text>
<polyline fill="none" stroke="#bfbfbf" points="0,-135.5 123,-135.5 "/>
<text text-anchor="middle" x="61.5" y="-123.5" font-family="Helvetica,sans-Serif" font-size="10.00" fill="#000000"> </text>
</g>
<!-- Node2&#45;&gt;Node1 -->
<g id="edge1" class="edge">
<title>Node2&#45;&gt;Node1</title>
<path fill="none" stroke="#404040" d="M102.8014,-116.3857C123.6301,-102.8484 149.6842,-87.2304 174.5,-76 188.5526,-69.6405 203.7095,-63.8087 218.8092,-58.5794"/>
<polygon fill="none" stroke="#404040" points="218.9538,-58.5307 223.3625,-52.8243 230.3257,-54.6991 225.917,-60.4055 218.9538,-58.5307"/>
<text text-anchor="middle" x="199" y="-84.5" font-family="Helvetica,sans-Serif" font-size="10.00" fill="#000000"> +method</text>
</g>
<!-- Node3 -->
<g id="node3" class="node">
<title>Node3</title>
<polygon fill="none" stroke="#bfbfbf" points="141.5,-116.5 141.5,-173.5 251.5,-173.5 251.5,-116.5 141.5,-116.5"/>
<text text-anchor="middle" x="196.5" y="-161.5" font-family="Helvetica,sans-Serif" font-size="10.00" fill="#000000">enum ChannelType</text>
<polyline fill="none" stroke="#bfbfbf" points="141.5,-154.5 251.5,-154.5 "/>
<text text-anchor="middle" x="196.5" y="-142.5" font-family="Helvetica,sans-Serif" font-size="10.00" fill="#000000"> </text>
<polyline fill="none" stroke="#bfbfbf" points="141.5,-135.5 251.5,-135.5 "/>
<text text-anchor="middle" x="196.5" y="-123.5" font-family="Helvetica,sans-Serif" font-size="10.00" fill="#000000"> </text>
</g>
<!-- Node3&#45;&gt;Node1 -->
<g id="edge2" class="edge">
<title>Node3&#45;&gt;Node1</title>
<path fill="none" stroke="#404040" d="M213.412,-116.3884C222.1785,-103.0894 233.7206,-87.6736 246.5,-76 250.8376,-72.0377 255.5613,-68.2431 260.4704,-64.6499"/>
<polygon fill="none" stroke="#404040" points="260.8631,-64.3791 263.5326,-57.6803 270.7429,-57.5679 268.0734,-64.2668 260.8631,-64.3791"/>
<text text-anchor="middle" x="263.5" y="-84.5" font-family="Helvetica,sans-Serif" font-size="10.00" fill="#000000"> +type</text>
</g>
<!-- Node4 -->
<g id="node4" class="node">
<title>Node4</title>
<g id="a_node4"><a xlink:href="../../dd/de2/classsize__t.html" target="_top" xlink:title="{size_t\n||}">
<polygon fill="none" stroke="#000000" points="270,-116.5 270,-173.5 315,-173.5 315,-116.5 270,-116.5"/>
<text text-anchor="middle" x="292.5" y="-161.5" font-family="Helvetica,sans-Serif" font-size="10.00" fill="#000000">size_t</text>
<polyline fill="none" stroke="#000000" points="270,-154.5 315,-154.5 "/>
<text text-anchor="middle" x="292.5" y="-142.5" font-family="Helvetica,sans-Serif" font-size="10.00" fill="#000000"> </text>
<polyline fill="none" stroke="#000000" points="270,-135.5 315,-135.5 "/>
<text text-anchor="middle" x="292.5" y="-123.5" font-family="Helvetica,sans-Serif" font-size="10.00" fill="#000000"> </text>
</a>
</g>
</g>
<!-- Node4&#45;&gt;Node1 -->
<g id="edge3" class="edge">
<title>Node4&#45;&gt;Node1</title>
<path fill="none" stroke="#404040" d="M285.9957,-116.4567C284.3212,-103.7577 284.062,-88.8123 288.5,-76 289.4464,-73.2678 290.6247,-70.5739 291.9731,-67.9423"/>
<polygon fill="none" stroke="#404040" points="292.0705,-67.7825 291.7784,-60.5773 298.317,-57.5364 298.6091,-64.7416 292.0705,-67.7825"/>
<text text-anchor="middle" x="315.5" y="-84.5" font-family="Helvetica,sans-Serif" font-size="10.00" fill="#000000"> +listeners</text>
</g>
<!-- Node5 -->
<g id="node5" class="node">
<title>Node5</title>
<polygon fill="none" stroke="#bfbfbf" points="340.5,-116.5 340.5,-173.5 384.5,-173.5 384.5,-116.5 340.5,-116.5"/>
<text text-anchor="middle" x="362.5" y="-161.5" font-family="Helvetica,sans-Serif" font-size="10.00" fill="#000000">string</text>
<polyline fill="none" stroke="#bfbfbf" points="340.5,-154.5 384.5,-154.5 "/>
<text text-anchor="middle" x="362.5" y="-142.5" font-family="Helvetica,sans-Serif" font-size="10.00" fill="#000000"> </text>
<polyline fill="none" stroke="#bfbfbf" points="340.5,-135.5 384.5,-135.5 "/>
<text text-anchor="middle" x="362.5" y="-123.5" font-family="Helvetica,sans-Serif" font-size="10.00" fill="#000000"> </text>
</g>
<!-- Node5&#45;&gt;Node1 -->
<g id="edge4" class="edge">
<title>Node5&#45;&gt;Node1</title>
<path fill="none" stroke="#404040" d="M354.6425,-116.3378C351.1128,-103.8854 346.7838,-89.1647 342.5,-76 341.7751,-73.7722 341.0139,-71.4915 340.2323,-69.1938"/>
<polygon fill="none" stroke="#404040" points="340.1852,-69.0589 334.4297,-64.7145 336.2262,-57.7307 341.9818,-62.0751 340.1852,-69.0589"/>
<text text-anchor="middle" x="379" y="-90" font-family="Helvetica,sans-Serif" font-size="10.00" fill="#000000"> +hostname</text>
<text text-anchor="middle" x="379" y="-79" font-family="Helvetica,sans-Serif" font-size="10.00" fill="#000000">+name</text>
</g>
<!-- Node6 -->
<g id="node6" class="node">
<title>Node6</title>
<polygon fill="none" stroke="#bfbfbf" points="402.5,-116.5 402.5,-173.5 498.5,-173.5 498.5,-116.5 402.5,-116.5"/>
<text text-anchor="middle" x="450.5" y="-161.5" font-family="Helvetica,sans-Serif" font-size="10.00" fill="#000000">ChannelProtocol</text>
<polyline fill="none" stroke="#bfbfbf" points="402.5,-154.5 498.5,-154.5 "/>
<text text-anchor="middle" x="450.5" y="-142.5" font-family="Helvetica,sans-Serif" font-size="10.00" fill="#000000"> </text>
<polyline fill="none" stroke="#bfbfbf" points="402.5,-135.5 498.5,-135.5 "/>
<text text-anchor="middle" x="450.5" y="-123.5" font-family="Helvetica,sans-Serif" font-size="10.00" fill="#000000"> </text>
</g>
<!-- Node6&#45;&gt;Node1 -->
<g id="edge5" class="edge">
<title>Node6&#45;&gt;Node1</title>
<path fill="none" stroke="#404040" d="M439.7319,-116.3442C433.599,-102.8775 424.851,-87.3322 413.5,-76 409.4244,-71.9312 404.923,-68.1264 400.1751,-64.5858"/>
<polygon fill="none" stroke="#404040" points="400.0302,-64.4862 392.8198,-64.3841 390.1408,-57.6891 397.3512,-57.7912 400.0302,-64.4862"/>
<text text-anchor="middle" x="454.5" y="-84.5" font-family="Helvetica,sans-Serif" font-size="10.00" fill="#000000"> +protocol</text>
</g>
<!-- Node7 -->
<g id="node7" class="node">
<title>Node7</title>
<polygon fill="none" stroke="#bfbfbf" points="517,-116.5 517,-173.5 578,-173.5 578,-116.5 517,-116.5"/>
<text text-anchor="middle" x="547.5" y="-161.5" font-family="Helvetica,sans-Serif" font-size="10.00" fill="#000000">unsigned</text>
<polyline fill="none" stroke="#bfbfbf" points="517,-154.5 578,-154.5 "/>
<text text-anchor="middle" x="547.5" y="-142.5" font-family="Helvetica,sans-Serif" font-size="10.00" fill="#000000"> </text>
<polyline fill="none" stroke="#bfbfbf" points="517,-135.5 578,-135.5 "/>
<text text-anchor="middle" x="547.5" y="-123.5" font-family="Helvetica,sans-Serif" font-size="10.00" fill="#000000"> </text>
</g>
<!-- Node7&#45;&gt;Node1 -->
<g id="edge6" class="edge">
<title>Node7&#45;&gt;Node1</title>
<path fill="none" stroke="#404040" d="M527.3,-116.3586C516.1233,-102.3955 501.1389,-86.4113 484.5,-76 468.6113,-66.0581 450.5189,-58.133 432.3717,-51.842"/>
<polygon fill="none" stroke="#404040" points="432.1761,-51.7779 425.228,-53.7077 420.7743,-48.0362 427.7224,-46.1065 432.1761,-51.7779"/>
<text text-anchor="middle" x="525" y="-84.5" font-family="Helvetica,sans-Serif" font-size="10.00" fill="#000000"> +port</text>
</g>
</g>
</svg>
