<?xml version="1.0" encoding="UTF-8" standalone="no"?>
<!DOCTYPE svg PUBLIC "-//W3C//DTD SVG 1.1//EN"
 "http://www.w3.org/Graphics/SVG/1.1/DTD/svg11.dtd">
<!-- Generated by graphviz version 2.40.1 (20161225.0304)
 -->
<!-- Title: o2::framework::OutputChannelSpec Pages: 1 -->
<!--zoomable 182 -->
<svg id="main" version="1.1" xmlns="http://www.w3.org/2000/svg" xmlns:xlink="http://www.w3.org/1999/xlink" xml:space="preserve" onload="init(evt)">
<style type="text/css"><![CDATA[
.edge:hover path { stroke: red; }
.edge:hover polygon { stroke: red; fill: red; }
]]></style>
<script type="text/javascript"><![CDATA[
var edges = document.getElementsByTagName('g');
if (edges && edges.length) {
  for (var i=0;i<edges.length;i++) {
    if (edges[i].id.substr(0,4)=='edge') {
      edges[i].setAttribute('class','edge');
    }
  }
}
]]></script>
        <defs>
                <circle id="rim" cx="0" cy="0" r="7"/>
                <circle id="rim2" cx="0" cy="0" r="3.5"/>
                <g id="zoomPlus">
                        <use xlink:href="#rim" fill="#404040">
                                <set attributeName="fill" to="#808080" begin="zoomplus.mouseover" end="zoomplus.mouseout"/>
                        </use>
                        <path d="M-4,0h8M0,-4v8" fill="none" stroke="white" stroke-width="1.5" pointer-events="none"/>
                </g>
                <g id="zoomMin">
                        <use xlink:href="#rim" fill="#404040">
                                <set attributeName="fill" to="#808080" begin="zoomminus.mouseover" end="zoomminus.mouseout"/>
                        </use>
                        <path d="M-4,0h8" fill="none" stroke="white" stroke-width="1.5" pointer-events="none"/>
                </g>
                <g id="dirArrow">
                        <path fill="none" stroke="white" stroke-width="1.5" d="M0,-3.0v7 M-2.5,-0.5L0,-3.0L2.5,-0.5"/>
                </g>
               <g id="resetDef">
                       <use xlink:href="#rim2" fill="#404040">
                               <set attributeName="fill" to="#808080" begin="reset.mouseover" end="reset.mouseout"/>
                       </use>
               </g>
        </defs>

<script type="text/javascript">
var viewWidth = 586;
var viewHeight = 182;
var sectionId = 'dynsection-0';
</script>
<script xlink:href="../../svgpan.js"/>
<svg id="graph" class="graph">
<g id="viewport">
<title>o2::framework::OutputChannelSpec</title>
<!-- Node1 -->
<g id="node1" class="node">
<title>Node1</title>
<polygon fill="#bfbfbf" stroke="#000000" points="230.5,-.5 230.5,-57.5 420.5,-57.5 420.5,-.5 230.5,-.5"/>
<text text-anchor="middle" x="325.5" y="-45.5" font-family="Helvetica,sans-Serif" font-size="10.00" fill="#000000">o2::framework::OutputChannelSpec</text>
<polyline fill="none" stroke="#000000" points="230.5,-38.5 420.5,-38.5 "/>
<text text-anchor="middle" x="325.5" y="-26.5" font-family="Helvetica,sans-Serif" font-size="10.00" fill="#000000"> </text>
<polyline fill="none" stroke="#000000" points="230.5,-19.5 420.5,-19.5 "/>
<text text-anchor="middle" x="325.5" y="-7.5" font-family="Helvetica,sans-Serif" font-size="10.00" fill="#000000"> </text>
</g>
<!-- Node2 -->
<g id="node2" class="node">
<title>Node2</title>
<polygon fill="none" stroke="#bfbfbf" points="0,-116.5 0,-173.5 123,-173.5 123,-116.5 0,-116.5"/>
<text text-anchor="middle" x="61.5" y="-161.5" font-family="Helvetica,sans-Serif" font-size="10.00" fill="#000000">enum ChannelMethod</text>
<polyline fill="none" stroke="#bfbfbf" points="0,-154.5 123,-154.5 "/>
<text text-anchor="middle" x="61.5" y="-142.5" font-family="Helvetica,sans-Serif" font-size="10.00" fill="#000000"> </text>
<polyline fill="none" stroke="#bfbfbf" points="0,-135.5 123,-135.5 "/>
<text text-anchor="middle" x="61.5" y="-123.5" font-family="Helvetica,sans-Serif" font-size="10.00" fill="#000000"> </text>
</g>
<!-- Node2&#45;&gt;Node1 -->
<g id="edge1" class="edge">
<title>Node2&#45;&gt;Node1</title>
<path fill="none" stroke="#404040" d="M102.8014,-116.3857C123.6301,-102.8484 149.6842,-87.2304 174.5,-76 188.5526,-69.6405 203.7095,-63.8087 218.8092,-58.5794"/>
<polygon fill="none" stroke="#404040" points="218.9538,-58.5307 223.3625,-52.8243 230.3257,-54.6991 225.917,-60.4055 218.9538,-58.5307"/>
<text text-anchor="middle" x="199" y="-84.5" font-family="Helvetica,sans-Serif" font-size="10.00" fill="#000000"> +method</text>
</g>
<!-- Node3 -->
<g id="node3" class="node">
<title>Node3</title>
<polygon fill="none" stroke="#bfbfbf" points="141.5,-116.5 141.5,-173.5 251.5,-173.5 251.5,-116.5 141.5,-116.5"/>
<text text-anchor="middle" x="196.5" y="-161.5" font-family="Helvetica,sans-Serif" font-size="10.00" fill="#000000">enum ChannelType</text>
<polyline fill="none" stroke="#bfbfbf" points="141.5,-154.5 251.5,-154.5 "/>
<text text-anchor="middle" x="196.5" y="-142.5" font-family="Helvetica,sans-Serif" font-size="10.00" fill="#000000"> </text>
<polyline fill="none" stroke="#bfbfbf" points="141.5,-135.5 251.5,-135.5 "/>
<text text-anchor="middle" x="196.5" y="-123.5" font-family="Helvetica,sans-Serif" font-size="10.00" fill="#000000"> </text>
</g>
<!-- Node3&#45;&gt;Node1 -->
<g id="edge2" class="edge">
<title>Node3&#45;&gt;Node1</title>
<path fill="none" stroke="#404040" d="M213.412,-116.3884C222.1785,-103.0894 233.7206,-87.6736 246.5,-76 250.8376,-72.0377 255.5613,-68.2431 260.4704,-64.6499"/>
<polygon fill="none" stroke="#404040" points="260.8631,-64.3791 263.5326,-57.6803 270.7429,-57.5679 268.0734,-64.2668 260.8631,-64.3791"/>
<text text-anchor="middle" x="263.5" y="-84.5" font-family="Helvetica,sans-Serif" font-size="10.00" fill="#000000"> +type</text>
</g>
<!-- Node4 -->
<g id="node4" class="node">
<title>Node4</title>
<g id="a_node4"><a xlink:href="../../dd/de2/classsize__t.html" target="_top" xlink:title="{size_t\n||}">
<polygon fill="none" stroke="#000000" points="270,-116.5 270,-173.5 315,-173.5 315,-116.5 270,-116.5"/>
<text text-anchor="middle" x="292.5" y="-161.5" font-family="Helvetica,sans-Serif" font-size="10.00" fill="#000000">size_t</text>
<polyline fill="none" stroke="#000000" points="270,-154.5 315,-154.5 "/>
<text text-anchor="middle" x="292.5" y="-142.5" font-family="Helvetica,sans-Serif" font-size="10.00" fill="#000000"> </text>
<polyline fill="none" stroke="#000000" points="270,-135.5 315,-135.5 "/>
<text text-anchor="middle" x="292.5" y="-123.5" font-family="Helvetica,sans-Serif" font-size="10.00" fill="#000000"> </text>
</a>
</g>
</g>
<!-- Node4&#45;&gt;Node1 -->
<g id="edge3" class="edge">
<title>Node4&#45;&gt;Node1</title>
<path fill="none" stroke="#404040" d="M285.9957,-116.4567C284.3212,-103.7577 284.062,-88.8123 288.5,-76 289.4464,-73.2678 290.6247,-70.5739 291.9731,-67.9423"/>
<polygon fill="none" stroke="#404040" points="292.0705,-67.7825 291.7784,-60.5773 298.317,-57.5364 298.6091,-64.7416 292.0705,-67.7825"/>
<text text-anchor="middle" x="315.5" y="-84.5" font-family="Helvetica,sans-Serif" font-size="10.00" fill="#000000"> +listeners</text>
</g>
<!-- Node5 -->
<g id="node5" class="node">
<title>Node5</title>
<polygon fill="none" stroke="#bfbfbf" points="340.5,-116.5 340.5,-173.5 384.5,-173.5 384.5,-116.5 340.5,-116.5"/>
<text text-anchor="middle" x="362.5" y="-161.5" font-family="Helvetica,sans-Serif" font-size="10.00" fill="#000000">string</text>
<polyline fill="none" stroke="#bfbfbf" points="340.5,-154.5 384.5,-154.5 "/>
<text text-anchor="middle" x="362.5" y="-142.5" font-family="Helvetica,sans-Serif" font-size="10.00" fill="#000000"> </text>
<polyline fill="none" stroke="#bfbfbf" points="340.5,-135.5 384.5,-135.5 "/>
<text text-anchor="middle" x="362.5" y="-123.5" font-family="Helvetica,sans-Serif" font-size="10.00" fill="#000000"> </text>
</g>
<!-- Node5&#45;&gt;Node1 -->
<g id="edge4" class="edge">
<title>Node5&#45;&gt;Node1</title>
<path fill="none" stroke="#404040" d="M354.6425,-116.3378C351.1128,-103.8854 346.7838,-89.1647 342.5,-76 341.7751,-73.7722 341.0139,-71.4915 340.2323,-69.1938"/>
<polygon fill="none" stroke="#404040" points="340.1852,-69.0589 334.4297,-64.7145 336.2262,-57.7307 341.9818,-62.0751 340.1852,-69.0589"/>
<text text-anchor="middle" x="379" y="-90" font-family="Helvetica,sans-Serif" font-size="10.00" fill="#000000"> +hostname</text>
<text text-anchor="middle" x="379" y="-79" font-family="Helvetica,sans-Serif" font-size="10.00" fill="#000000">+name</text>
</g>
<!-- Node6 -->
<g id="node6" class="node">
<title>Node6</title>
<polygon fill="none" stroke="#bfbfbf" points="402.5,-116.5 402.5,-173.5 498.5,-173.5 498.5,-116.5 402.5,-116.5"/>
<text text-anchor="middle" x="450.5" y="-161.5" font-family="Helvetica,sans-Serif" font-size="10.00" fill="#000000">ChannelProtocol</text>
<polyline fill="none" stroke="#bfbfbf" points="402.5,-154.5 498.5,-154.5 "/>
<text text-anchor="middle" x="450.5" y="-142.5" font-family="Helvetica,sans-Serif" font-size="10.00" fill="#000000"> </text>
<polyline fill="none" stroke="#bfbfbf" points="402.5,-135.5 498.5,-135.5 "/>
<text text-anchor="middle" x="450.5" y="-123.5" font-family="Helvetica,sans-Serif" font-size="10.00" fill="#000000"> </text>
</g>
<!-- Node6&#45;&gt;Node1 -->
<g id="edge5" class="edge">
<title>Node6&#45;&gt;Node1</title>
<path fill="none" stroke="#404040" d="M439.7319,-116.3442C433.599,-102.8775 424.851,-87.3322 413.5,-76 409.4244,-71.9312 404.923,-68.1264 400.1751,-64.5858"/>
<polygon fill="none" stroke="#404040" points="400.0302,-64.4862 392.8198,-64.3841 390.1408,-57.6891 397.3512,-57.7912 400.0302,-64.4862"/>
<text text-anchor="middle" x="454.5" y="-84.5" font-family="Helvetica,sans-Serif" font-size="10.00" fill="#000000"> +protocol</text>
</g>
<!-- Node7 -->
<g id="node7" class="node">
<title>Node7</title>
<polygon fill="none" stroke="#bfbfbf" points="517,-116.5 517,-173.5 578,-173.5 578,-116.5 517,-116.5"/>
<text text-anchor="middle" x="547.5" y="-161.5" font-family="Helvetica,sans-Serif" font-size="10.00" fill="#000000">unsigned</text>
<polyline fill="none" stroke="#bfbfbf" points="517,-154.5 578,-154.5 "/>
<text text-anchor="middle" x="547.5" y="-142.5" font-family="Helvetica,sans-Serif" font-size="10.00" fill="#000000"> </text>
<polyline fill="none" stroke="#bfbfbf" points="517,-135.5 578,-135.5 "/>
<text text-anchor="middle" x="547.5" y="-123.5" font-family="Helvetica,sans-Serif" font-size="10.00" fill="#000000"> </text>
</g>
<!-- Node7&#45;&gt;Node1 -->
<g id="edge6" class="edge">
<title>Node7&#45;&gt;Node1</title>
<path fill="none" stroke="#404040" d="M527.3,-116.3586C516.1233,-102.3955 501.1389,-86.4113 484.5,-76 468.6113,-66.0581 450.5189,-58.133 432.3717,-51.842"/>
<polygon fill="none" stroke="#404040" points="432.1761,-51.7779 425.228,-53.7077 420.7743,-48.0362 427.7224,-46.1065 432.1761,-51.7779"/>
<text text-anchor="middle" x="525" y="-84.5" font-family="Helvetica,sans-Serif" font-size="10.00" fill="#000000"> +port</text>
</g>
</g>
</svg>
        <g id="navigator" transform="translate(0 0)" fill="#404254">
                <rect fill="#f2f5e9" fill-opacity="0.5" stroke="#606060" stroke-width=".5" x="0" y="0" width="60" height="60"/>
                <use id="zoomplus" xlink:href="#zoomPlus" x="17" y="9" onmousedown="handleZoom(evt,'in')"/>
                <use id="zoomminus" xlink:href="#zoomMin" x="42" y="9" onmousedown="handleZoom(evt,'out')"/>
                <use id="reset" xlink:href="#resetDef" x="30" y="36" onmousedown="handleReset()"/>
                <g id="arrowUp" xlink:href="#dirArrow" transform="translate(30 24)" onmousedown="handlePan(0,-1)">
                  <use xlink:href="#rim" fill="#404040">
                        <set attributeName="fill" to="#808080" begin="arrowUp.mouseover" end="arrowUp.mouseout"/>
                  </use>
                  <path fill="none" stroke="white" stroke-width="1.5" d="M0,-3.0v7 M-2.5,-0.5L0,-3.0L2.5,-0.5"/>
                </g>
                <g id="arrowRight" xlink:href="#dirArrow" transform="rotate(90) translate(36 -43)" onmousedown="handlePan(1,0)">
                  <use xlink:href="#rim" fill="#404040">
                        <set attributeName="fill" to="#808080" begin="arrowRight.mouseover" end="arrowRight.mouseout"/>
                  </use>
                  <path fill="none" stroke="white" stroke-width="1.5" d="M0,-3.0v7 M-2.5,-0.5L0,-3.0L2.5,-0.5"/>
                </g>
                <g id="arrowDown" xlink:href="#dirArrow" transform="rotate(180) translate(-30 -48)" onmousedown="handlePan(0,1)">
                  <use xlink:href="#rim" fill="#404040">
                        <set attributeName="fill" to="#808080" begin="arrowDown.mouseover" end="arrowDown.mouseout"/>
                  </use>
                  <path fill="none" stroke="white" stroke-width="1.5" d="M0,-3.0v7 M-2.5,-0.5L0,-3.0L2.5,-0.5"/>
                </g>
                <g id="arrowLeft" xlink:href="#dirArrow" transform="rotate(270) translate(-36 17)" onmousedown="handlePan(-1,0)">
                  <use xlink:href="#rim" fill="#404040">
                        <set attributeName="fill" to="#808080" begin="arrowLeft.mouseover" end="arrowLeft.mouseout"/>
                  </use>
                  <path fill="none" stroke="white" stroke-width="1.5" d="M0,-3.0v7 M-2.5,-0.5L0,-3.0L2.5,-0.5"/>
                </g>
        </g>
        <svg viewBox="0 0 15 15" width="100%" height="30px" preserveAspectRatio="xMaxYMin meet">
         <g id="arrow_out" transform="scale(0.3 0.3)">
          <a xlink:href="structo2_1_1framework_1_1OutputChannelSpec__coll__graph_org.svg" target="_base">
           <rect id="button" ry="5" rx="5" y="6" x="6" height="38" width="38"
                fill="#f2f5e9" fill-opacity="0.5" stroke="#606060" stroke-width="1.0"/>
           <path id="arrow"
             d="M 11.500037,31.436501 C 11.940474,20.09759 22.043105,11.32322 32.158766,21.979434 L 37.068811,17.246167 C 37.068811,17.246167 37.088388,32 37.088388,32 L 22.160133,31.978069 C 22.160133,31.978069 26.997745,27.140456 26.997745,27.140456 C 18.528582,18.264221 13.291696,25.230495 11.500037,31.436501 z"
             style="fill:#404040;"/>
          </a>
         </g>
        </svg>
</svg>
