<?xml version="1.0" encoding="UTF-8" standalone="no"?>
<!DOCTYPE svg PUBLIC "-//W3C//DTD SVG 1.1//EN"
 "http://www.w3.org/Graphics/SVG/1.1/DTD/svg11.dtd">
<!-- Generated by graphviz version 2.40.1 (20161225.0304)
 -->
<!-- Title: /home/travis/build/AliceO2Group/AliceO2/Framework/Core/include/Framework/AnalysisDataModel.h Pages: 1 -->
<svg width="2016pt" height="239pt"
 viewBox="0.00 0.00 2015.50 239.00" xmlns="http://www.w3.org/2000/svg" xmlns:xlink="http://www.w3.org/1999/xlink">
<g id="graph0" class="graph" transform="scale(1 1) rotate(0) translate(4 235)">
<title>/home/travis/build/AliceO2Group/AliceO2/Framework/Core/include/Framework/AnalysisDataModel.h</title>
<!-- Node20 -->
<g id="node1" class="node">
<title>Node20</title>
<polygon fill="#bfbfbf" stroke="#000000" points="777.5,-178.5 777.5,-230.5 956.5,-230.5 956.5,-178.5 777.5,-178.5"/>
<text text-anchor="start" x="785.5" y="-218.5" font-family="Helvetica,sans-Serif" font-size="10.00" fill="#000000">/home/travis/build</text>
<text text-anchor="start" x="785.5" y="-207.5" font-family="Helvetica,sans-Serif" font-size="10.00" fill="#000000">/AliceO2Group/AliceO2</text>
<text text-anchor="start" x="785.5" y="-196.5" font-family="Helvetica,sans-Serif" font-size="10.00" fill="#000000">/Framework/Core/include</text>
<text text-anchor="middle" x="867" y="-185.5" font-family="Helvetica,sans-Serif" font-size="10.00" fill="#000000">/Framework/AnalysisDataModel.h</text>
</g>
<!-- Node21 -->
<g id="node2" class="node">
<title>Node21</title>
<g id="a_node2"><a xlink:href="../../d6/dcb/associatedExample_8cxx.html" target="_top" xlink:title="/home/travis/build\l/AliceO2Group/AliceO2\l/Framework/AnalysisTutorial\l/src/associatedExample.cxx">
<polygon fill="none" stroke="#000000" points="0,-.5 0,-52.5 154,-52.5 154,-.5 0,-.5"/>
<text text-anchor="start" x="8" y="-40.5" font-family="Helvetica,sans-Serif" font-size="10.00" fill="#000000">/home/travis/build</text>
<text text-anchor="start" x="8" y="-29.5" font-family="Helvetica,sans-Serif" font-size="10.00" fill="#000000">/AliceO2Group/AliceO2</text>
<text text-anchor="start" x="8" y="-18.5" font-family="Helvetica,sans-Serif" font-size="10.00" fill="#000000">/Framework/AnalysisTutorial</text>
<text text-anchor="middle" x="77" y="-7.5" font-family="Helvetica,sans-Serif" font-size="10.00" fill="#000000">/src/associatedExample.cxx</text>
</a>
</g>
</g>
<!-- Node20&#45;&gt;Node21 -->
<g id="edge1" class="edge">
<title>Node20&#45;&gt;Node21</title>
<path fill="none" stroke="#191970" d="M767.161,-198.6835C667.6107,-191.2628 510.9408,-175.1752 379,-142 290.5355,-119.7565 192.6954,-79.2137 133.027,-52.5657"/>
<polygon fill="#191970" stroke="#191970" points="766.9839,-202.1798 777.2123,-199.4178 767.4939,-195.1984 766.9839,-202.1798"/>
</g>
<!-- Node22 -->
<g id="node3" class="node">
<title>Node22</title>
<g id="a_node3"><a xlink:href="../../d2/df5/dynamicColumns_8cxx.html" target="_top" xlink:title="/home/travis/build\l/AliceO2Group/AliceO2\l/Framework/AnalysisTutorial\l/src/dynamicColumns.cxx">
<polygon fill="none" stroke="#000000" points="172,-.5 172,-52.5 326,-52.5 326,-.5 172,-.5"/>
<text text-anchor="start" x="180" y="-40.5" font-family="Helvetica,sans-Serif" font-size="10.00" fill="#000000">/home/travis/build</text>
<text text-anchor="start" x="180" y="-29.5" font-family="Helvetica,sans-Serif" font-size="10.00" fill="#000000">/AliceO2Group/AliceO2</text>
<text text-anchor="start" x="180" y="-18.5" font-family="Helvetica,sans-Serif" font-size="10.00" fill="#000000">/Framework/AnalysisTutorial</text>
<text text-anchor="middle" x="249" y="-7.5" font-family="Helvetica,sans-Serif" font-size="10.00" fill="#000000">/src/dynamicColumns.cxx</text>
</a>
</g>
</g>
<!-- Node20&#45;&gt;Node22 -->
<g id="edge2" class="edge">
<title>Node20&#45;&gt;Node22</title>
<path fill="none" stroke="#191970" d="M767.0241,-192.9828C695.9962,-183.2869 598.9038,-166.9425 516,-142 438.1341,-118.5732 352.6042,-78.93 299.848,-52.7334"/>
<polygon fill="#191970" stroke="#191970" points="766.9326,-196.5019 777.3097,-194.3653 767.8651,-189.5643 766.9326,-196.5019"/>
</g>
<!-- Node23 -->
<g id="node4" class="node">
<title>Node23</title>
<g id="a_node4"><a xlink:href="../../d6/d77/filters_8cxx.html" target="_top" xlink:title="/home/travis/build\l/AliceO2Group/AliceO2\l/Framework/AnalysisTutorial\l/src/filters.cxx">
<polygon fill="none" stroke="#000000" points="344,-.5 344,-52.5 498,-52.5 498,-.5 344,-.5"/>
<text text-anchor="start" x="352" y="-40.5" font-family="Helvetica,sans-Serif" font-size="10.00" fill="#000000">/home/travis/build</text>
<text text-anchor="start" x="352" y="-29.5" font-family="Helvetica,sans-Serif" font-size="10.00" fill="#000000">/AliceO2Group/AliceO2</text>
<text text-anchor="start" x="352" y="-18.5" font-family="Helvetica,sans-Serif" font-size="10.00" fill="#000000">/Framework/AnalysisTutorial</text>
<text text-anchor="middle" x="421" y="-7.5" font-family="Helvetica,sans-Serif" font-size="10.00" fill="#000000">/src/filters.cxx</text>
</a>
</g>
</g>
<!-- Node20&#45;&gt;Node23 -->
<g id="edge3" class="edge">
<title>Node20&#45;&gt;Node23</title>
<path fill="none" stroke="#191970" d="M767.5598,-185.7702C721.965,-175.5383 667.7749,-161.0226 621,-142 561.3866,-117.7561 497.9088,-78.5122 458.8444,-52.6064"/>
<polygon fill="#191970" stroke="#191970" points="766.9318,-189.2158 777.4512,-187.9535 768.4406,-182.3803 766.9318,-189.2158"/>
</g>
<!-- Node24 -->
<g id="node5" class="node">
<title>Node24</title>
<g id="a_node5"><a xlink:href="../../df/d90/histograms_8cxx.html" target="_top" xlink:title="/home/travis/build\l/AliceO2Group/AliceO2\l/Framework/AnalysisTutorial\l/src/histograms.cxx">
<polygon fill="none" stroke="#000000" points="516,-.5 516,-52.5 670,-52.5 670,-.5 516,-.5"/>
<text text-anchor="start" x="524" y="-40.5" font-family="Helvetica,sans-Serif" font-size="10.00" fill="#000000">/home/travis/build</text>
<text text-anchor="start" x="524" y="-29.5" font-family="Helvetica,sans-Serif" font-size="10.00" fill="#000000">/AliceO2Group/AliceO2</text>
<text text-anchor="start" x="524" y="-18.5" font-family="Helvetica,sans-Serif" font-size="10.00" fill="#000000">/Framework/AnalysisTutorial</text>
<text text-anchor="middle" x="593" y="-7.5" font-family="Helvetica,sans-Serif" font-size="10.00" fill="#000000">/src/histograms.cxx</text>
</a>
</g>
</g>
<!-- Node20&#45;&gt;Node24 -->
<g id="edge4" class="edge">
<title>Node20&#45;&gt;Node24</title>
<path fill="none" stroke="#191970" d="M767.3846,-187.5297C733.4292,-178.2002 696.8052,-163.8795 668,-142 637.3469,-118.7169 615.5854,-79.0366 603.6556,-52.7928"/>
<polygon fill="#191970" stroke="#191970" points="766.7908,-190.9924 777.352,-190.1491 768.57,-184.2223 766.7908,-190.9924"/>
</g>
<!-- Node25 -->
<g id="node6" class="node">
<title>Node25</title>
<g id="a_node6"><a xlink:href="../../d7/d10/newCollections_8cxx.html" target="_top" xlink:title="/home/travis/build\l/AliceO2Group/AliceO2\l/Framework/AnalysisTutorial\l/src/newCollections.cxx">
<polygon fill="none" stroke="#000000" points="688,-.5 688,-52.5 842,-52.5 842,-.5 688,-.5"/>
<text text-anchor="start" x="696" y="-40.5" font-family="Helvetica,sans-Serif" font-size="10.00" fill="#000000">/home/travis/build</text>
<text text-anchor="start" x="696" y="-29.5" font-family="Helvetica,sans-Serif" font-size="10.00" fill="#000000">/AliceO2Group/AliceO2</text>
<text text-anchor="start" x="696" y="-18.5" font-family="Helvetica,sans-Serif" font-size="10.00" fill="#000000">/Framework/AnalysisTutorial</text>
<text text-anchor="middle" x="765" y="-7.5" font-family="Helvetica,sans-Serif" font-size="10.00" fill="#000000">/src/newCollections.cxx</text>
</a>
</g>
</g>
<!-- Node20&#45;&gt;Node25 -->
<g id="edge5" class="edge">
<title>Node20&#45;&gt;Node25</title>
<path fill="none" stroke="#191970" d="M767.7618,-182.0639C729.8684,-171.3165 693.0702,-157.4248 682,-142 668.2655,-122.8629 671.4859,-110.0789 682,-89 689.3268,-74.3111 701.9324,-62.1677 715.1381,-52.6162"/>
<polygon fill="#191970" stroke="#191970" points="766.8334,-185.4384 777.4043,-184.7275 768.6973,-178.6911 766.8334,-185.4384"/>
</g>
<!-- Node26 -->
<g id="node7" class="node">
<title>Node26</title>
<g id="a_node7"><a xlink:href="../../d6/d57/AnalysisTask_8h.html" target="_top" xlink:title="/home/travis/build\l/AliceO2Group/AliceO2\l/Framework/Core/include\l/Framework/AnalysisTask.h">
<polygon fill="none" stroke="#000000" points="690.5,-89.5 690.5,-141.5 839.5,-141.5 839.5,-89.5 690.5,-89.5"/>
<text text-anchor="start" x="698.5" y="-129.5" font-family="Helvetica,sans-Serif" font-size="10.00" fill="#000000">/home/travis/build</text>
<text text-anchor="start" x="698.5" y="-118.5" font-family="Helvetica,sans-Serif" font-size="10.00" fill="#000000">/AliceO2Group/AliceO2</text>
<text text-anchor="start" x="698.5" y="-107.5" font-family="Helvetica,sans-Serif" font-size="10.00" fill="#000000">/Framework/Core/include</text>
<text text-anchor="middle" x="765" y="-96.5" font-family="Helvetica,sans-Serif" font-size="10.00" fill="#000000">/Framework/AnalysisTask.h</text>
</a>
</g>
</g>
<!-- Node20&#45;&gt;Node26 -->
<g id="edge6" class="edge">
<title>Node20&#45;&gt;Node26</title>
<path fill="none" stroke="#191970" d="M829.2663,-171.5755C817.9085,-161.6653 805.6073,-150.9319 794.8369,-141.5341"/>
<polygon fill="#191970" stroke="#191970" points="827.1123,-174.341 836.9483,-178.2784 831.7145,-169.0666 827.1123,-174.341"/>
</g>
<!-- Node31 -->
<g id="node12" class="node">
<title>Node31</title>
<g id="a_node12"><a xlink:href="../../d9/d09/test__AnalysisTask_8cxx.html" target="_top" xlink:title="/home/travis/build\l/AliceO2Group/AliceO2\l/Framework/Core/test/test\l_AnalysisTask.cxx">
<polygon fill="none" stroke="#000000" points="1776.5,-.5 1776.5,-52.5 1919.5,-52.5 1919.5,-.5 1776.5,-.5"/>
<text text-anchor="start" x="1784.5" y="-40.5" font-family="Helvetica,sans-Serif" font-size="10.00" fill="#000000">/home/travis/build</text>
<text text-anchor="start" x="1784.5" y="-29.5" font-family="Helvetica,sans-Serif" font-size="10.00" fill="#000000">/AliceO2Group/AliceO2</text>
<text text-anchor="start" x="1784.5" y="-18.5" font-family="Helvetica,sans-Serif" font-size="10.00" fill="#000000">/Framework/Core/test/test</text>
<text text-anchor="middle" x="1848" y="-7.5" font-family="Helvetica,sans-Serif" font-size="10.00" fill="#000000">_AnalysisTask.cxx</text>
</a>
</g>
</g>
<!-- Node20&#45;&gt;Node31 -->
<g id="edge21" class="edge">
<title>Node20&#45;&gt;Node31</title>
<path fill="none" stroke="#191970" d="M862.4502,-167.7343C861.4789,-141.69 865.2181,-108.1085 887,-89 960.5642,-24.4647 1670.6959,-70.3787 1767,-53 1770.0578,-52.4482 1773.1589,-51.8086 1776.2758,-51.0994"/>
<polygon fill="#191970" stroke="#191970" points="858.9752,-168.2473 863.0851,-178.0125 865.9618,-167.8157 858.9752,-168.2473"/>
</g>
<!-- Node33 -->
<g id="node14" class="node">
<title>Node33</title>
<g id="a_node14"><a xlink:href="../../d4/dc5/AODReaderHelpers_8cxx.html" target="_top" xlink:title="/home/travis/build\l/AliceO2Group/AliceO2\l/Framework/Core/src/AODReader\lHelpers.cxx">
<polygon fill="none" stroke="#000000" points="895.5,-89.5 895.5,-141.5 1070.5,-141.5 1070.5,-89.5 895.5,-89.5"/>
<text text-anchor="start" x="903.5" y="-129.5" font-family="Helvetica,sans-Serif" font-size="10.00" fill="#000000">/home/travis/build</text>
<text text-anchor="start" x="903.5" y="-118.5" font-family="Helvetica,sans-Serif" font-size="10.00" fill="#000000">/AliceO2Group/AliceO2</text>
<text text-anchor="start" x="903.5" y="-107.5" font-family="Helvetica,sans-Serif" font-size="10.00" fill="#000000">/Framework/Core/src/AODReader</text>
<text text-anchor="middle" x="983" y="-96.5" font-family="Helvetica,sans-Serif" font-size="10.00" fill="#000000">Helpers.cxx</text>
</a>
</g>
</g>
<!-- Node20&#45;&gt;Node33 -->
<g id="edge18" class="edge">
<title>Node20&#45;&gt;Node33</title>
<path fill="none" stroke="#191970" d="M909.1688,-172.1463C922.2908,-162.0786 936.5836,-151.1126 949.0679,-141.5341"/>
<polygon fill="#191970" stroke="#191970" points="906.9798,-169.4144 901.1764,-178.2784 911.2408,-174.9681 906.9798,-169.4144"/>
</g>
<!-- Node34 -->
<g id="node15" class="node">
<title>Node34</title>
<g id="a_node15"><a xlink:href="../../d5/ddc/verifyAODFile_8cxx.html" target="_top" xlink:title="/home/travis/build\l/AliceO2Group/AliceO2\l/Framework/Core/src/verifyAODFile.cxx">
<polygon fill="none" stroke="#000000" points="1089,-95 1089,-136 1295,-136 1295,-95 1089,-95"/>
<text text-anchor="start" x="1097" y="-124" font-family="Helvetica,sans-Serif" font-size="10.00" fill="#000000">/home/travis/build</text>
<text text-anchor="start" x="1097" y="-113" font-family="Helvetica,sans-Serif" font-size="10.00" fill="#000000">/AliceO2Group/AliceO2</text>
<text text-anchor="middle" x="1192" y="-102" font-family="Helvetica,sans-Serif" font-size="10.00" fill="#000000">/Framework/Core/src/verifyAODFile.cxx</text>
</a>
</g>
</g>
<!-- Node20&#45;&gt;Node34 -->
<g id="edge19" class="edge">
<title>Node20&#45;&gt;Node34</title>
<path fill="none" stroke="#191970" d="M966.544,-177.2403C1014.9694,-163.9791 1072.2181,-148.3018 1116.9091,-136.0634"/>
<polygon fill="#191970" stroke="#191970" points="965.3884,-173.9278 956.668,-179.9448 967.2373,-180.6792 965.3884,-173.9278"/>
</g>
<!-- Node35 -->
<g id="node16" class="node">
<title>Node35</title>
<g id="a_node16"><a xlink:href="../../da/ddc/benchmark__ASoA_8cxx.html" target="_top" xlink:title="/home/travis/build\l/AliceO2Group/AliceO2\l/Framework/Core/test/benchmark\l_ASoA.cxx">
<polygon fill="none" stroke="#000000" points="1313.5,-89.5 1313.5,-141.5 1492.5,-141.5 1492.5,-89.5 1313.5,-89.5"/>
<text text-anchor="start" x="1321.5" y="-129.5" font-family="Helvetica,sans-Serif" font-size="10.00" fill="#000000">/home/travis/build</text>
<text text-anchor="start" x="1321.5" y="-118.5" font-family="Helvetica,sans-Serif" font-size="10.00" fill="#000000">/AliceO2Group/AliceO2</text>
<text text-anchor="start" x="1321.5" y="-107.5" font-family="Helvetica,sans-Serif" font-size="10.00" fill="#000000">/Framework/Core/test/benchmark</text>
<text text-anchor="middle" x="1403" y="-96.5" font-family="Helvetica,sans-Serif" font-size="10.00" fill="#000000">_ASoA.cxx</text>
</a>
</g>
</g>
<!-- Node20&#45;&gt;Node35 -->
<g id="edge20" class="edge">
<title>Node20&#45;&gt;Node35</title>
<path fill="none" stroke="#191970" d="M966.7562,-193.6738C1055.7109,-183.2042 1189.2262,-165.4811 1304,-142 1307.0505,-141.3759 1310.1466,-140.7133 1313.2678,-140.0204"/>
<polygon fill="#191970" stroke="#191970" points="966.1997,-190.2149 956.6735,-194.8519 967.0122,-197.1676 966.1997,-190.2149"/>
</g>
<!-- Node36 -->
<g id="node17" class="node">
<title>Node36</title>
<g id="a_node17"><a xlink:href="../../d7/d6e/test__Kernels_8cxx.html" target="_top" xlink:title="/home/travis/build\l/AliceO2Group/AliceO2\l/Framework/Core/test/test\l_Kernels.cxx">
<polygon fill="none" stroke="#000000" points="1510.5,-89.5 1510.5,-141.5 1653.5,-141.5 1653.5,-89.5 1510.5,-89.5"/>
<text text-anchor="start" x="1518.5" y="-129.5" font-family="Helvetica,sans-Serif" font-size="10.00" fill="#000000">/home/travis/build</text>
<text text-anchor="start" x="1518.5" y="-118.5" font-family="Helvetica,sans-Serif" font-size="10.00" fill="#000000">/AliceO2Group/AliceO2</text>
<text text-anchor="start" x="1518.5" y="-107.5" font-family="Helvetica,sans-Serif" font-size="10.00" fill="#000000">/Framework/Core/test/test</text>
<text text-anchor="middle" x="1582" y="-96.5" font-family="Helvetica,sans-Serif" font-size="10.00" fill="#000000">_Kernels.cxx</text>
</a>
</g>
</g>
<!-- Node20&#45;&gt;Node36 -->
<g id="edge22" class="edge">
<title>Node20&#45;&gt;Node36</title>
<path fill="none" stroke="#191970" d="M966.5703,-201.5166C1092.4865,-196.1915 1315.3826,-181.5794 1502,-142 1504.7194,-141.4232 1507.4758,-140.7861 1510.2488,-140.1008"/>
<polygon fill="#191970" stroke="#191970" points="966.4038,-198.0204 956.5564,-201.9292 966.692,-205.0145 966.4038,-198.0204"/>
</g>
<!-- Node37 -->
<g id="node18" class="node">
<title>Node37</title>
<g id="a_node18"><a xlink:href="../../d7/d18/test__SimpleTracksED_8cxx.html" target="_top" xlink:title="/home/travis/build\l/AliceO2Group/AliceO2\l/Framework/Core/test/test\l_SimpleTracksED.cxx">
<polygon fill="none" stroke="#000000" points="1671.5,-89.5 1671.5,-141.5 1814.5,-141.5 1814.5,-89.5 1671.5,-89.5"/>
<text text-anchor="start" x="1679.5" y="-129.5" font-family="Helvetica,sans-Serif" font-size="10.00" fill="#000000">/home/travis/build</text>
<text text-anchor="start" x="1679.5" y="-118.5" font-family="Helvetica,sans-Serif" font-size="10.00" fill="#000000">/AliceO2Group/AliceO2</text>
<text text-anchor="start" x="1679.5" y="-107.5" font-family="Helvetica,sans-Serif" font-size="10.00" fill="#000000">/Framework/Core/test/test</text>
<text text-anchor="middle" x="1743" y="-96.5" font-family="Helvetica,sans-Serif" font-size="10.00" fill="#000000">_SimpleTracksED.cxx</text>
</a>
</g>
</g>
<!-- Node20&#45;&gt;Node37 -->
<g id="edge23" class="edge">
<title>Node20&#45;&gt;Node37</title>
<path fill="none" stroke="#191970" d="M966.9301,-199.6692C1150.0461,-190.3164 1532.5576,-168.3219 1663,-142 1665.725,-141.4501 1668.4861,-140.8359 1671.2631,-140.1699"/>
<polygon fill="#191970" stroke="#191970" points="966.5706,-196.1828 956.7612,-200.186 966.926,-203.1738 966.5706,-196.1828"/>
</g>
<!-- Node38 -->
<g id="node19" class="node">
<title>Node38</title>
<g id="a_node19"><a xlink:href="../../d9/daf/o2SimpleTracksAnalysis_8cxx.html" target="_top" xlink:title="/home/travis/build\l/AliceO2Group/AliceO2\l/Framework/TestWorkflows\l/src/o2SimpleTracksAnalysis.cxx">
<polygon fill="none" stroke="#000000" points="1832.5,-89.5 1832.5,-141.5 2007.5,-141.5 2007.5,-89.5 1832.5,-89.5"/>
<text text-anchor="start" x="1840.5" y="-129.5" font-family="Helvetica,sans-Serif" font-size="10.00" fill="#000000">/home/travis/build</text>
<text text-anchor="start" x="1840.5" y="-118.5" font-family="Helvetica,sans-Serif" font-size="10.00" fill="#000000">/AliceO2Group/AliceO2</text>
<text text-anchor="start" x="1840.5" y="-107.5" font-family="Helvetica,sans-Serif" font-size="10.00" fill="#000000">/Framework/TestWorkflows</text>
<text text-anchor="middle" x="1920" y="-96.5" font-family="Helvetica,sans-Serif" font-size="10.00" fill="#000000">/src/o2SimpleTracksAnalysis.cxx</text>
</a>
</g>
</g>
<!-- Node20&#45;&gt;Node38 -->
<g id="edge24" class="edge">
<title>Node20&#45;&gt;Node38</title>
<path fill="none" stroke="#191970" d="M966.6667,-200.5726C1177.233,-191.853 1661.3591,-169.4624 1824,-142 1826.7278,-141.5394 1829.4896,-141.0329 1832.2705,-140.4879"/>
<polygon fill="#191970" stroke="#191970" points="966.3913,-197.0809 956.544,-200.99 966.6797,-204.075 966.3913,-197.0809"/>
</g>
<!-- Node26&#45;&gt;Node21 -->
<g id="edge7" class="edge">
<title>Node26&#45;&gt;Node21</title>
<path fill="none" stroke="#191970" d="M680.1523,-111.9192C562.8734,-105.7876 345.0741,-90.1317 163,-53 160.0914,-52.4068 157.1409,-51.7557 154.1706,-51.0586"/>
<polygon fill="#191970" stroke="#191970" points="679.9813,-115.4149 690.1473,-112.4313 680.3395,-108.4241 679.9813,-115.4149"/>
</g>
<!-- Node26&#45;&gt;Node22 -->
<g id="edge9" class="edge">
<title>Node26&#45;&gt;Node22</title>
<path fill="none" stroke="#191970" d="M680.0567,-107.0753C592.8041,-97.5079 453.3952,-79.6773 335,-53 332.1042,-52.3475 329.1645,-51.6459 326.2034,-50.906"/>
<polygon fill="#191970" stroke="#191970" points="679.8516,-110.5735 690.1709,-108.1729 680.6069,-103.6143 679.8516,-110.5735"/>
</g>
<!-- Node26&#45;&gt;Node23 -->
<g id="edge10" class="edge">
<title>Node26&#45;&gt;Node23</title>
<path fill="none" stroke="#191970" d="M680.5507,-96.4182C630.0044,-84.6555 564.5964,-68.8342 507,-53 504.1378,-52.2131 501.2267,-51.3971 498.2897,-50.5605"/>
<polygon fill="#191970" stroke="#191970" points="679.9228,-99.8655 690.4551,-98.7155 681.5045,-93.0465 679.9228,-99.8655"/>
</g>
<!-- Node26&#45;&gt;Node24 -->
<g id="edge12" class="edge">
<title>Node26&#45;&gt;Node24</title>
<path fill="none" stroke="#191970" d="M705.2151,-84.5648C685.0223,-74.1162 662.6975,-62.5644 643.3132,-52.5341"/>
<polygon fill="#191970" stroke="#191970" points="703.8347,-87.7913 714.3246,-89.2784 707.0516,-81.5742 703.8347,-87.7913"/>
</g>
<!-- Node26&#45;&gt;Node25 -->
<g id="edge13" class="edge">
<title>Node26&#45;&gt;Node25</title>
<path fill="none" stroke="#191970" d="M765,-79.1155C765,-70.2061 765,-60.8475 765,-52.5341"/>
<polygon fill="#191970" stroke="#191970" points="761.5001,-79.2784 765,-89.2784 768.5001,-79.2785 761.5001,-79.2784"/>
</g>
<!-- Node27 -->
<g id="node8" class="node">
<title>Node27</title>
<g id="a_node8"><a xlink:href="../../d4/dd5/collisionTracksIteration_8cxx.html" target="_top" xlink:title="/home/travis/build\l/AliceO2Group/AliceO2\l/Framework/AnalysisTutorial\l/src/collisionTracksIteration.cxx">
<polygon fill="none" stroke="#000000" points="1226,-.5 1226,-52.5 1396,-52.5 1396,-.5 1226,-.5"/>
<text text-anchor="start" x="1234" y="-40.5" font-family="Helvetica,sans-Serif" font-size="10.00" fill="#000000">/home/travis/build</text>
<text text-anchor="start" x="1234" y="-29.5" font-family="Helvetica,sans-Serif" font-size="10.00" fill="#000000">/AliceO2Group/AliceO2</text>
<text text-anchor="start" x="1234" y="-18.5" font-family="Helvetica,sans-Serif" font-size="10.00" fill="#000000">/Framework/AnalysisTutorial</text>
<text text-anchor="middle" x="1311" y="-7.5" font-family="Helvetica,sans-Serif" font-size="10.00" fill="#000000">/src/collisionTracksIteration.cxx</text>
</a>
</g>
</g>
<!-- Node26&#45;&gt;Node27 -->
<g id="edge8" class="edge">
<title>Node26&#45;&gt;Node27</title>
<path fill="none" stroke="#191970" d="M849.6967,-89.6743C850.8029,-89.442 851.9044,-89.217 853,-89 1012.469,-57.4139 1057.2575,-83.1724 1217,-53 1219.9157,-52.4493 1222.872,-51.85 1225.8497,-51.2114"/>
<polygon fill="#191970" stroke="#191970" points="848.6255,-86.328 839.6436,-91.9473 850.1693,-93.1557 848.6255,-86.328"/>
</g>
<!-- Node28 -->
<g id="node9" class="node">
<title>Node28</title>
<g id="a_node9"><a xlink:href="../../d2/d4e/fullTrackIteration_8cxx.html" target="_top" xlink:title="/home/travis/build\l/AliceO2Group/AliceO2\l/Framework/AnalysisTutorial\l/src/fullTrackIteration.cxx">
<polygon fill="none" stroke="#000000" points="1414,-.5 1414,-52.5 1568,-52.5 1568,-.5 1414,-.5"/>
<text text-anchor="start" x="1422" y="-40.5" font-family="Helvetica,sans-Serif" font-size="10.00" fill="#000000">/home/travis/build</text>
<text text-anchor="start" x="1422" y="-29.5" font-family="Helvetica,sans-Serif" font-size="10.00" fill="#000000">/AliceO2Group/AliceO2</text>
<text text-anchor="start" x="1422" y="-18.5" font-family="Helvetica,sans-Serif" font-size="10.00" fill="#000000">/Framework/AnalysisTutorial</text>
<text text-anchor="middle" x="1491" y="-7.5" font-family="Helvetica,sans-Serif" font-size="10.00" fill="#000000">/src/fullTrackIteration.cxx</text>
</a>
</g>
</g>
<!-- Node26&#45;&gt;Node28 -->
<g id="edge11" class="edge">
<title>Node26&#45;&gt;Node28</title>
<path fill="none" stroke="#191970" d="M849.6868,-89.6222C850.7962,-89.4062 851.9009,-89.1986 853,-89 1094.9345,-45.2721 1163.2068,-97.5028 1405,-53 1407.9194,-52.4627 1410.8792,-51.8591 1413.8572,-51.2022"/>
<polygon fill="#191970" stroke="#191970" points="848.6597,-86.2625 839.6105,-91.7726 850.1208,-93.1083 848.6597,-86.2625"/>
</g>
<!-- Node29 -->
<g id="node10" class="node">
<title>Node29</title>
<g id="a_node10"><a xlink:href="../../d4/ded/trackCollectionIteration_8cxx.html" target="_top" xlink:title="/home/travis/build\l/AliceO2Group/AliceO2\l/Framework/AnalysisTutorial\l/src/trackCollectionIteration.cxx">
<polygon fill="none" stroke="#000000" points="1586,-.5 1586,-52.5 1758,-52.5 1758,-.5 1586,-.5"/>
<text text-anchor="start" x="1594" y="-40.5" font-family="Helvetica,sans-Serif" font-size="10.00" fill="#000000">/home/travis/build</text>
<text text-anchor="start" x="1594" y="-29.5" font-family="Helvetica,sans-Serif" font-size="10.00" fill="#000000">/AliceO2Group/AliceO2</text>
<text text-anchor="start" x="1594" y="-18.5" font-family="Helvetica,sans-Serif" font-size="10.00" fill="#000000">/Framework/AnalysisTutorial</text>
<text text-anchor="middle" x="1672" y="-7.5" font-family="Helvetica,sans-Serif" font-size="10.00" fill="#000000">/src/trackCollectionIteration.cxx</text>
</a>
</g>
</g>
<!-- Node26&#45;&gt;Node29 -->
<g id="edge14" class="edge">
<title>Node26&#45;&gt;Node29</title>
<path fill="none" stroke="#191970" d="M849.6826,-89.5981C850.7932,-89.3897 851.8994,-89.1902 853,-89 1170.4714,-34.1473 1258.9839,-104.6011 1577,-53 1579.9578,-52.5201 1582.9551,-51.9819 1585.9728,-51.3958"/>
<polygon fill="#191970" stroke="#191970" points="848.6761,-86.2323 839.5962,-91.6917 850.0989,-93.0862 848.6761,-86.2323"/>
</g>
<!-- Node30 -->
<g id="node11" class="node">
<title>Node30</title>
<g id="a_node11"><a xlink:href="../../db/d7e/trackIteration_8cxx.html" target="_top" xlink:title="/home/travis/build\l/AliceO2Group/AliceO2\l/Framework/AnalysisTutorial\l/src/trackIteration.cxx">
<polygon fill="none" stroke="#000000" points="860,-.5 860,-52.5 1014,-52.5 1014,-.5 860,-.5"/>
<text text-anchor="start" x="868" y="-40.5" font-family="Helvetica,sans-Serif" font-size="10.00" fill="#000000">/home/travis/build</text>
<text text-anchor="start" x="868" y="-29.5" font-family="Helvetica,sans-Serif" font-size="10.00" fill="#000000">/AliceO2Group/AliceO2</text>
<text text-anchor="start" x="868" y="-18.5" font-family="Helvetica,sans-Serif" font-size="10.00" fill="#000000">/Framework/AnalysisTutorial</text>
<text text-anchor="middle" x="937" y="-7.5" font-family="Helvetica,sans-Serif" font-size="10.00" fill="#000000">/src/trackIteration.cxx</text>
</a>
</g>
</g>
<!-- Node26&#45;&gt;Node30 -->
<g id="edge15" class="edge">
<title>Node26&#45;&gt;Node30</title>
<path fill="none" stroke="#191970" d="M824.7849,-84.5648C844.9777,-74.1162 867.3025,-62.5644 886.6868,-52.5341"/>
<polygon fill="#191970" stroke="#191970" points="822.9484,-81.5742 815.6754,-89.2784 826.1653,-87.7913 822.9484,-81.5742"/>
</g>
<!-- Node26&#45;&gt;Node31 -->
<g id="edge16" class="edge">
<title>Node26&#45;&gt;Node31</title>
<path fill="none" stroke="#191970" d="M849.6798,-89.5819C850.7914,-89.3787 851.8985,-89.1845 853,-89 1253.9533,-21.8512 1366.8701,-124.8924 1767,-53 1770.0582,-52.4505 1773.1597,-51.8129 1776.2768,-51.1052"/>
<polygon fill="#191970" stroke="#191970" points="848.6872,-86.2122 839.587,-91.6377 850.0844,-93.0713 848.6872,-86.2122"/>
</g>
<!-- Node32 -->
<g id="node13" class="node">
<title>Node32</title>
<g id="a_node13"><a xlink:href="../../d1/d61/o2AnalysisTaskExample_8cxx.html" target="_top" xlink:title="/home/travis/build\l/AliceO2Group/AliceO2\l/Framework/TestWorkflows\l/src/o2AnalysisTaskExample.cxx">
<polygon fill="none" stroke="#000000" points="1032.5,-.5 1032.5,-52.5 1207.5,-52.5 1207.5,-.5 1032.5,-.5"/>
<text text-anchor="start" x="1040.5" y="-40.5" font-family="Helvetica,sans-Serif" font-size="10.00" fill="#000000">/home/travis/build</text>
<text text-anchor="start" x="1040.5" y="-29.5" font-family="Helvetica,sans-Serif" font-size="10.00" fill="#000000">/AliceO2Group/AliceO2</text>
<text text-anchor="start" x="1040.5" y="-18.5" font-family="Helvetica,sans-Serif" font-size="10.00" fill="#000000">/Framework/TestWorkflows</text>
<text text-anchor="middle" x="1120" y="-7.5" font-family="Helvetica,sans-Serif" font-size="10.00" fill="#000000">/src/o2AnalysisTaskExample.cxx</text>
</a>
</g>
</g>
<!-- Node26&#45;&gt;Node32 -->
<g id="edge17" class="edge">
<title>Node26&#45;&gt;Node32</title>
<path fill="none" stroke="#191970" d="M849.7353,-89.8444C850.8294,-89.5586 851.918,-89.277 853,-89 927.8189,-69.8485 947.9402,-71.1843 1023,-53 1026.054,-52.2601 1029.1581,-51.4933 1032.2901,-50.7069"/>
<polygon fill="#191970" stroke="#191970" points="848.5241,-86.5456 839.773,-92.518 850.3385,-93.3063 848.5241,-86.5456"/>
</g>
</g>
</svg>
