<?xml version="1.0" encoding="UTF-8" standalone="no"?>
<!DOCTYPE svg PUBLIC "-//W3C//DTD SVG 1.1//EN"
 "http://www.w3.org/Graphics/SVG/1.1/DTD/svg11.dtd">
<!-- Generated by graphviz version 2.40.1 (20161225.0304)
 -->
<!-- Title: /home/travis/build/AliceO2Group/AliceO2/Detectors/PHOS/calib/src/CalibDB.cxx Pages: 1 -->
<!--zoomable 229 -->
<svg id="main" version="1.1" xmlns="http://www.w3.org/2000/svg" xmlns:xlink="http://www.w3.org/1999/xlink" xml:space="preserve" onload="init(evt)">
<style type="text/css"><![CDATA[
.edge:hover path { stroke: red; }
.edge:hover polygon { stroke: red; fill: red; }
]]></style>
<script type="text/javascript"><![CDATA[
var edges = document.getElementsByTagName('g');
if (edges && edges.length) {
  for (var i=0;i<edges.length;i++) {
    if (edges[i].id.substr(0,4)=='edge') {
      edges[i].setAttribute('class','edge');
    }
  }
}
]]></script>
        <defs>
                <circle id="rim" cx="0" cy="0" r="7"/>
                <circle id="rim2" cx="0" cy="0" r="3.5"/>
                <g id="zoomPlus">
                        <use xlink:href="#rim" fill="#404040">
                                <set attributeName="fill" to="#808080" begin="zoomplus.mouseover" end="zoomplus.mouseout"/>
                        </use>
                        <path d="M-4,0h8M0,-4v8" fill="none" stroke="white" stroke-width="1.5" pointer-events="none"/>
                </g>
                <g id="zoomMin">
                        <use xlink:href="#rim" fill="#404040">
                                <set attributeName="fill" to="#808080" begin="zoomminus.mouseover" end="zoomminus.mouseout"/>
                        </use>
                        <path d="M-4,0h8" fill="none" stroke="white" stroke-width="1.5" pointer-events="none"/>
                </g>
                <g id="dirArrow">
                        <path fill="none" stroke="white" stroke-width="1.5" d="M0,-3.0v7 M-2.5,-0.5L0,-3.0L2.5,-0.5"/>
                </g>
               <g id="resetDef">
                       <use xlink:href="#rim2" fill="#404040">
                               <set attributeName="fill" to="#808080" begin="reset.mouseover" end="reset.mouseout"/>
                       </use>
               </g>
        </defs>

<script type="text/javascript">
var viewWidth = 897;
var viewHeight = 229;
var sectionId = 'dynsection-0';
</script>
<script xlink:href="../../svgpan.js"/>
<svg id="graph" class="graph">
<g id="viewport">
<title>/home/travis/build/AliceO2Group/AliceO2/Detectors/PHOS/calib/src/CalibDB.cxx</title>
<!-- Node0 -->
<g id="node1" class="node">
<title>Node0</title>
<polygon fill="#bfbfbf" stroke="#000000" points="407,-168.5 407,-220.5 534,-220.5 534,-168.5 407,-168.5"/>
<text text-anchor="start" x="415" y="-208.5" font-family="Helvetica,sans-Serif" font-size="10.00" fill="#000000">/home/travis/build</text>
<text text-anchor="start" x="415" y="-197.5" font-family="Helvetica,sans-Serif" font-size="10.00" fill="#000000">/AliceO2Group/AliceO2</text>
<text text-anchor="start" x="415" y="-186.5" font-family="Helvetica,sans-Serif" font-size="10.00" fill="#000000">/Detectors/PHOS/calib</text>
<text text-anchor="middle" x="470.5" y="-175.5" font-family="Helvetica,sans-Serif" font-size="10.00" fill="#000000">/src/CalibDB.cxx</text>
</g>
<!-- Node1 -->
<g id="node2" class="node">
<title>Node1</title>
<g id="a_node2"><a xlink:href="../../da/d65/PHOS_2calib_2include_2PHOSCalib_2BadChannelMap_8h.html" target="_top" xlink:title="PHOSCalib/BadChannelMap.h">
<polygon fill="none" stroke="#000000" points="193,-112.5 193,-131.5 352,-131.5 352,-112.5 193,-112.5"/>
<text text-anchor="middle" x="272.5" y="-119.5" font-family="Helvetica,sans-Serif" font-size="10.00" fill="#000000">PHOSCalib/BadChannelMap.h</text>
</a>
</g>
</g>
<!-- Node0&#45;&gt;Node1 -->
<g id="edge1" class="edge">
<title>Node0&#45;&gt;Node1</title>
<path fill="none" stroke="#191970" d="M406.7617,-171.1615C374.1396,-159.2165 335.6417,-145.1201 308.2534,-135.0915"/>
<polygon fill="#191970" stroke="#191970" points="309.2908,-131.7442 298.6971,-131.5924 306.8839,-138.3174 309.2908,-131.7442"/>
</g>
<!-- Node12 -->
<g id="node13" class="node">
<title>Node12</title>
<g id="a_node13"><a xlink:href="../../de/d19/PHOS_2calib_2include_2PHOSCalib_2CalibDB_8h.html" target="_top" xlink:title="PHOSCalib/CalibDB.h">
<polygon fill="none" stroke="#000000" points="588,-112.5 588,-131.5 707,-131.5 707,-112.5 588,-112.5"/>
<text text-anchor="middle" x="647.5" y="-119.5" font-family="Helvetica,sans-Serif" font-size="10.00" fill="#000000">PHOSCalib/CalibDB.h</text>
</a>
</g>
</g>
<!-- Node0&#45;&gt;Node12 -->
<g id="edge13" class="edge">
<title>Node0&#45;&gt;Node12</title>
<path fill="none" stroke="#191970" d="M534.4011,-168.3258C561.6586,-157.161 592.2978,-144.6111 614.804,-135.3924"/>
<polygon fill="#191970" stroke="#191970" points="616.2967,-138.5633 624.2239,-131.534 613.6434,-132.0856 616.2967,-138.5633"/>
</g>
<!-- Node2 -->
<g id="node3" class="node">
<title>Node2</title>
<polygon fill="none" stroke="#bfbfbf" points="0,-.5 0,-19.5 49,-19.5 49,-.5 0,-.5"/>
<text text-anchor="middle" x="24.5" y="-7.5" font-family="Helvetica,sans-Serif" font-size="10.00" fill="#000000">iosfwd</text>
</g>
<!-- Node1&#45;&gt;Node2 -->
<g id="edge2" class="edge">
<title>Node1&#45;&gt;Node2</title>
<path fill="none" stroke="#191970" d="M236.8039,-112.437C208.448,-104.2897 168.1128,-91.4597 134.5,-76 102.6323,-61.3429 68.3403,-39.739 46.6694,-25.2841"/>
<polygon fill="#191970" stroke="#191970" points="48.4455,-22.2603 38.1985,-19.5679 44.53,-28.0628 48.4455,-22.2603"/>
</g>
<!-- Node3 -->
<g id="node4" class="node">
<title>Node3</title>
<polygon fill="none" stroke="#bfbfbf" points="143.5,-56.5 143.5,-75.5 187.5,-75.5 187.5,-56.5 143.5,-56.5"/>
<text text-anchor="middle" x="165.5" y="-63.5" font-family="Helvetica,sans-Serif" font-size="10.00" fill="#000000">bitset</text>
</g>
<!-- Node1&#45;&gt;Node3 -->
<g id="edge3" class="edge">
<title>Node1&#45;&gt;Node3</title>
<path fill="none" stroke="#191970" d="M253.862,-112.2455C237.0614,-103.4527 212.1366,-90.4079 193.0382,-80.4125"/>
<polygon fill="#191970" stroke="#191970" points="194.4073,-77.1787 183.9244,-75.6427 191.1614,-83.3807 194.4073,-77.1787"/>
</g>
<!-- Node4 -->
<g id="node5" class="node">
<title>Node4</title>
<polygon fill="none" stroke="#bfbfbf" points="379,-56.5 379,-75.5 438,-75.5 438,-56.5 379,-56.5"/>
<text text-anchor="middle" x="408.5" y="-63.5" font-family="Helvetica,sans-Serif" font-size="10.00" fill="#000000">Rtypes.h</text>
</g>
<!-- Node1&#45;&gt;Node4 -->
<g id="edge4" class="edge">
<title>Node1&#45;&gt;Node4</title>
<path fill="none" stroke="#191970" d="M295.8792,-112.3733C318.0045,-103.2629 351.4134,-89.5062 376.1019,-79.3404"/>
<polygon fill="#191970" stroke="#191970" points="377.5117,-82.5451 385.4258,-75.5011 374.8464,-76.0723 377.5117,-82.5451"/>
</g>
<!-- Node5 -->
<g id="node6" class="node">
<title>Node5</title>
<g id="a_node6"><a xlink:href="../../d7/d44/TObjectWrapper_8h.html" target="_top" xlink:title="CCDB/TObjectWrapper.h">
<polygon fill="none" stroke="#000000" points="205.5,-56.5 205.5,-75.5 339.5,-75.5 339.5,-56.5 205.5,-56.5"/>
<text text-anchor="middle" x="272.5" y="-63.5" font-family="Helvetica,sans-Serif" font-size="10.00" fill="#000000">CCDB/TObjectWrapper.h</text>
</a>
</g>
</g>
<!-- Node1&#45;&gt;Node5 -->
<g id="edge5" class="edge">
<title>Node1&#45;&gt;Node5</title>
<path fill="none" stroke="#191970" d="M272.5,-112.2455C272.5,-104.9382 272.5,-94.6944 272.5,-85.7046"/>
<polygon fill="#191970" stroke="#191970" points="276.0001,-85.6426 272.5,-75.6427 269.0001,-85.6427 276.0001,-85.6426"/>
</g>
<!-- Node5&#45;&gt;Node2 -->
<g id="edge9" class="edge">
<title>Node5&#45;&gt;Node2</title>
<path fill="none" stroke="#191970" d="M222.2634,-56.485C180.7348,-48.341 120.044,-35.8017 59.0863,-20.2758"/>
<polygon fill="#191970" stroke="#191970" points="59.8603,-16.861 49.3036,-17.7586 58.1159,-23.6402 59.8603,-16.861"/>
</g>
<!-- Node6 -->
<g id="node7" class="node">
<title>Node6</title>
<polygon fill="none" stroke="#bfbfbf" points="67,-.5 67,-19.5 124,-19.5 124,-.5 67,-.5"/>
<text text-anchor="middle" x="95.5" y="-7.5" font-family="Helvetica,sans-Serif" font-size="10.00" fill="#000000">TClass.h</text>
</g>
<!-- Node5&#45;&gt;Node6 -->
<g id="edge6" class="edge">
<title>Node5&#45;&gt;Node6</title>
<path fill="none" stroke="#191970" d="M242.0726,-56.3733C212.0649,-46.8793 166.1092,-32.3396 133.669,-22.0761"/>
<polygon fill="#191970" stroke="#191970" points="134.6579,-18.718 124.0679,-19.0384 132.5463,-25.3919 134.6579,-18.718"/>
</g>
<!-- Node7 -->
<g id="node8" class="node">
<title>Node7</title>
<polygon fill="none" stroke="#bfbfbf" points="377,-.5 377,-19.5 440,-19.5 440,-.5 377,-.5"/>
<text text-anchor="middle" x="408.5" y="-7.5" font-family="Helvetica,sans-Serif" font-size="10.00" fill="#000000">TObject.h</text>
</g>
<!-- Node5&#45;&gt;Node7 -->
<g id="edge7" class="edge">
<title>Node5&#45;&gt;Node7</title>
<path fill="none" stroke="#191970" d="M295.8792,-56.3733C318.0045,-47.2629 351.4134,-33.5062 376.1019,-23.3404"/>
<polygon fill="#191970" stroke="#191970" points="377.5117,-26.5451 385.4258,-19.5011 374.8464,-20.0723 377.5117,-26.5451"/>
</g>
<!-- Node8 -->
<g id="node9" class="node">
<title>Node8</title>
<polygon fill="none" stroke="#bfbfbf" points="142.5,-.5 142.5,-19.5 200.5,-19.5 200.5,-.5 142.5,-.5"/>
<text text-anchor="middle" x="171.5" y="-7.5" font-family="Helvetica,sans-Serif" font-size="10.00" fill="#000000">cxxabi.h</text>
</g>
<!-- Node5&#45;&gt;Node8 -->
<g id="edge8" class="edge">
<title>Node5&#45;&gt;Node8</title>
<path fill="none" stroke="#191970" d="M254.9071,-56.2455C239.121,-47.4928 215.7361,-34.527 197.7413,-24.5496"/>
<polygon fill="#191970" stroke="#191970" points="199.3341,-21.4308 188.8913,-19.6427 195.9397,-27.5528 199.3341,-21.4308"/>
</g>
<!-- Node9 -->
<g id="node10" class="node">
<title>Node9</title>
<polygon fill="none" stroke="#bfbfbf" points="458.5,-.5 458.5,-19.5 516.5,-19.5 516.5,-.5 458.5,-.5"/>
<text text-anchor="middle" x="487.5" y="-7.5" font-family="Helvetica,sans-Serif" font-size="10.00" fill="#000000">memory</text>
</g>
<!-- Node5&#45;&gt;Node9 -->
<g id="edge10" class="edge">
<title>Node5&#45;&gt;Node9</title>
<path fill="none" stroke="#191970" d="M309.4602,-56.4297C343.2454,-47.6736 394.8587,-34.2776 448.7314,-20.1959"/>
<polygon fill="#191970" stroke="#191970" points="449.6671,-23.569 458.4563,-17.6529 447.8961,-16.7967 449.6671,-23.569"/>
</g>
<!-- Node10 -->
<g id="node11" class="node">
<title>Node10</title>
<polygon fill="none" stroke="#bfbfbf" points="219,-.5 219,-19.5 284,-19.5 284,-.5 219,-.5"/>
<text text-anchor="middle" x="251.5" y="-7.5" font-family="Helvetica,sans-Serif" font-size="10.00" fill="#000000">stdexcept</text>
</g>
<!-- Node5&#45;&gt;Node10 -->
<g id="edge11" class="edge">
<title>Node5&#45;&gt;Node10</title>
<path fill="none" stroke="#191970" d="M268.8421,-56.2455C266.0416,-48.7776 262.091,-38.2427 258.6676,-29.1137"/>
<polygon fill="#191970" stroke="#191970" points="261.9045,-27.777 255.116,-19.6427 255.3501,-30.2349 261.9045,-27.777"/>
</g>
<!-- Node11 -->
<g id="node12" class="node">
<title>Node11</title>
<polygon fill="none" stroke="#bfbfbf" points="302,-.5 302,-19.5 359,-19.5 359,-.5 302,-.5"/>
<text text-anchor="middle" x="330.5" y="-7.5" font-family="Helvetica,sans-Serif" font-size="10.00" fill="#000000">typeinfo</text>
</g>
<!-- Node5&#45;&gt;Node11 -->
<g id="edge12" class="edge">
<title>Node5&#45;&gt;Node11</title>
<path fill="none" stroke="#191970" d="M282.6028,-56.2455C291.0028,-48.1352 303.1494,-36.4075 313.1084,-26.7919"/>
<polygon fill="#191970" stroke="#191970" points="315.75,-29.1066 320.5129,-19.6427 310.8878,-24.0707 315.75,-29.1066"/>
</g>
<!-- Node12&#45;&gt;Node4 -->
<g id="edge17" class="edge">
<title>Node12&#45;&gt;Node4</title>
<path fill="none" stroke="#191970" d="M606.686,-112.4369C562.282,-102.0326 491.7849,-85.5145 447.9316,-75.2392"/>
<polygon fill="#191970" stroke="#191970" points="448.7285,-71.8312 438.1937,-72.9575 447.1315,-78.6466 448.7285,-71.8312"/>
</g>
<!-- Node13 -->
<g id="node14" class="node">
<title>Node13</title>
<polygon fill="none" stroke="#bfbfbf" points="714,-56.5 714,-75.5 779,-75.5 779,-56.5 714,-56.5"/>
<text text-anchor="middle" x="746.5" y="-63.5" font-family="Helvetica,sans-Serif" font-size="10.00" fill="#000000">exception</text>
</g>
<!-- Node12&#45;&gt;Node13 -->
<g id="edge14" class="edge">
<title>Node12&#45;&gt;Node13</title>
<path fill="none" stroke="#191970" d="M664.7445,-112.2455C680.0761,-103.5731 702.7199,-90.7645 720.2916,-80.825"/>
<polygon fill="#191970" stroke="#191970" points="722.4724,-83.6126 729.4531,-75.6427 719.0259,-77.5198 722.4724,-83.6126"/>
</g>
<!-- Node14 -->
<g id="node15" class="node">
<title>Node14</title>
<polygon fill="none" stroke="#bfbfbf" points="788.5,-.5 788.5,-19.5 826.5,-19.5 826.5,-.5 788.5,-.5"/>
<text text-anchor="middle" x="807.5" y="-7.5" font-family="Helvetica,sans-Serif" font-size="10.00" fill="#000000">map</text>
</g>
<!-- Node12&#45;&gt;Node14 -->
<g id="edge15" class="edge">
<title>Node12&#45;&gt;Node14</title>
<path fill="none" stroke="#191970" d="M691.3185,-112.4489C727.4372,-103.7444 774.8624,-90.1242 788.5,-76 800.3799,-63.6962 804.9119,-44.4601 806.6006,-29.9228"/>
<polygon fill="#191970" stroke="#191970" points="810.0924,-30.1647 807.4123,-19.9145 803.1153,-29.5988 810.0924,-30.1647"/>
</g>
<!-- Node15 -->
<g id="node16" class="node">
<title>Node15</title>
<polygon fill="none" stroke="#bfbfbf" points="844.5,-.5 844.5,-19.5 888.5,-19.5 888.5,-.5 844.5,-.5"/>
<text text-anchor="middle" x="866.5" y="-7.5" font-family="Helvetica,sans-Serif" font-size="10.00" fill="#000000">string</text>
</g>
<!-- Node12&#45;&gt;Node15 -->
<g id="edge16" class="edge">
<title>Node12&#45;&gt;Node15</title>
<path fill="none" stroke="#191970" d="M707.0389,-113.1223C738.6593,-106.4451 777.1469,-95.0571 807.5,-76 827.1182,-63.6828 844.0868,-42.992 854.7256,-28.0568"/>
<polygon fill="#191970" stroke="#191970" points="857.7356,-29.8559 860.4988,-19.6277 851.9603,-25.9003 857.7356,-29.8559"/>
</g>
<!-- Node16 -->
<g id="node17" class="node">
<title>Node16</title>
<polygon fill="none" stroke="#bfbfbf" points="497.5,-56.5 497.5,-75.5 581.5,-75.5 581.5,-56.5 497.5,-56.5"/>
<text text-anchor="middle" x="539.5" y="-63.5" font-family="Helvetica,sans-Serif" font-size="10.00" fill="#000000">RStringView.h</text>
</g>
<!-- Node12&#45;&gt;Node16 -->
<g id="edge18" class="edge">
<title>Node12&#45;&gt;Node16</title>
<path fill="none" stroke="#191970" d="M628.6878,-112.2455C611.6527,-103.4125 586.3425,-90.2887 567.0319,-80.2758"/>
<polygon fill="#191970" stroke="#191970" points="568.5853,-77.1388 558.0966,-75.6427 565.363,-83.353 568.5853,-77.1388"/>
</g>
<!-- Node17 -->
<g id="node18" class="node">
<title>Node17</title>
<g id="a_node18"><a xlink:href="../../dd/d3e/CcdbApi_8h.html" target="_top" xlink:title="CCDB/CcdbApi.h">
<polygon fill="none" stroke="#000000" points="599.5,-56.5 599.5,-75.5 695.5,-75.5 695.5,-56.5 599.5,-56.5"/>
<text text-anchor="middle" x="647.5" y="-63.5" font-family="Helvetica,sans-Serif" font-size="10.00" fill="#000000">CCDB/CcdbApi.h</text>
</a>
</g>
</g>
<!-- Node12&#45;&gt;Node17 -->
<g id="edge19" class="edge">
<title>Node12&#45;&gt;Node17</title>
<path fill="none" stroke="#191970" d="M647.5,-112.2455C647.5,-104.9382 647.5,-94.6944 647.5,-85.7046"/>
<polygon fill="#191970" stroke="#191970" points="651.0001,-85.6426 647.5,-75.6427 644.0001,-85.6427 651.0001,-85.6426"/>
</g>
<!-- Node17&#45;&gt;Node7 -->
<g id="edge25" class="edge">
<title>Node17&#45;&gt;Node7</title>
<path fill="none" stroke="#191970" d="M605.751,-56.4406C567.7725,-47.7132 509.904,-34.3374 450.2518,-20.161"/>
<polygon fill="#191970" stroke="#191970" points="450.8145,-16.6972 440.2758,-17.7866 449.1936,-23.507 450.8145,-16.6972"/>
</g>
<!-- Node17&#45;&gt;Node9 -->
<g id="edge21" class="edge">
<title>Node17&#45;&gt;Node9</title>
<path fill="none" stroke="#191970" d="M619.995,-56.3733C593.6198,-47.1419 553.6149,-33.1402 524.4642,-22.9375"/>
<polygon fill="#191970" stroke="#191970" points="525.2409,-19.5012 514.6461,-19.5011 522.9284,-26.1082 525.2409,-19.5012"/>
</g>
<!-- Node17&#45;&gt;Node14 -->
<g id="edge23" class="edge">
<title>Node17&#45;&gt;Node14</title>
<path fill="none" stroke="#191970" d="M675.0787,-56.4584C699.8675,-47.867 737.5123,-34.7826 778.574,-20.3107"/>
<polygon fill="#191970" stroke="#191970" points="779.9614,-23.5328 788.2273,-16.9051 777.6324,-16.9315 779.9614,-23.5328"/>
</g>
<!-- Node17&#45;&gt;Node15 -->
<g id="edge20" class="edge">
<title>Node17&#45;&gt;Node15</title>
<path fill="none" stroke="#191970" d="M690.2889,-56.4565C726.3772,-48.2003 779.5842,-35.5456 834.3327,-20.1967"/>
<polygon fill="#191970" stroke="#191970" points="835.5378,-23.4932 844.2075,-17.4032 833.6323,-16.7575 835.5378,-23.4932"/>
</g>
<!-- Node18 -->
<g id="node19" class="node">
<title>Node18</title>
<polygon fill="none" stroke="#bfbfbf" points="710.5,-.5 710.5,-19.5 770.5,-19.5 770.5,-.5 710.5,-.5"/>
<text text-anchor="middle" x="740.5" y="-7.5" font-family="Helvetica,sans-Serif" font-size="10.00" fill="#000000">iostream</text>
</g>
<!-- Node17&#45;&gt;Node18 -->
<g id="edge22" class="edge">
<title>Node17&#45;&gt;Node18</title>
<path fill="none" stroke="#191970" d="M663.6994,-56.2455C678.1018,-47.5731 699.3732,-34.7645 715.8799,-24.825"/>
<polygon fill="#191970" stroke="#191970" points="717.725,-27.7996 724.4863,-19.6427 714.114,-21.8028 717.725,-27.7996"/>
</g>
<!-- Node19 -->
<g id="node20" class="node">
<title>Node19</title>
<polygon fill="none" stroke="#bfbfbf" points="535,-.5 535,-19.5 600,-19.5 600,-.5 535,-.5"/>
<text text-anchor="middle" x="567.5" y="-7.5" font-family="Helvetica,sans-Serif" font-size="10.00" fill="#000000">curl/curl.h</text>
</g>
<!-- Node17&#45;&gt;Node19 -->
<g id="edge24" class="edge">
<title>Node17&#45;&gt;Node19</title>
<path fill="none" stroke="#191970" d="M633.5651,-56.2455C621.4053,-47.7337 603.5536,-35.2375 589.4715,-25.3801"/>
<polygon fill="#191970" stroke="#191970" points="591.4747,-22.51 581.2752,-19.6427 587.4605,-28.2447 591.4747,-22.51"/>
</g>
<!-- Node20 -->
<g id="node21" class="node">
<title>Node20</title>
<polygon fill="none" stroke="#bfbfbf" points="618.5,-.5 618.5,-19.5 692.5,-19.5 692.5,-.5 618.5,-.5"/>
<text text-anchor="middle" x="655.5" y="-7.5" font-family="Helvetica,sans-Serif" font-size="10.00" fill="#000000">TMessage.h</text>
</g>
<!-- Node17&#45;&gt;Node20 -->
<g id="edge26" class="edge">
<title>Node17&#45;&gt;Node20</title>
<path fill="none" stroke="#191970" d="M648.8935,-56.2455C649.9374,-48.9382 651.4008,-38.6944 652.6851,-29.7046"/>
<polygon fill="#191970" stroke="#191970" points="656.173,-30.0372 654.1225,-19.6427 649.2434,-29.0472 656.173,-30.0372"/>
</g>
</g>
</svg>
        <g id="navigator" transform="translate(0 0)" fill="#404254">
                <rect fill="#f2f5e9" fill-opacity="0.5" stroke="#606060" stroke-width=".5" x="0" y="0" width="60" height="60"/>
                <use id="zoomplus" xlink:href="#zoomPlus" x="17" y="9" onmousedown="handleZoom(evt,'in')"/>
                <use id="zoomminus" xlink:href="#zoomMin" x="42" y="9" onmousedown="handleZoom(evt,'out')"/>
                <use id="reset" xlink:href="#resetDef" x="30" y="36" onmousedown="handleReset()"/>
                <g id="arrowUp" xlink:href="#dirArrow" transform="translate(30 24)" onmousedown="handlePan(0,-1)">
                  <use xlink:href="#rim" fill="#404040">
                        <set attributeName="fill" to="#808080" begin="arrowUp.mouseover" end="arrowUp.mouseout"/>
                  </use>
                  <path fill="none" stroke="white" stroke-width="1.5" d="M0,-3.0v7 M-2.5,-0.5L0,-3.0L2.5,-0.5"/>
                </g>
                <g id="arrowRight" xlink:href="#dirArrow" transform="rotate(90) translate(36 -43)" onmousedown="handlePan(1,0)">
                  <use xlink:href="#rim" fill="#404040">
                        <set attributeName="fill" to="#808080" begin="arrowRight.mouseover" end="arrowRight.mouseout"/>
                  </use>
                  <path fill="none" stroke="white" stroke-width="1.5" d="M0,-3.0v7 M-2.5,-0.5L0,-3.0L2.5,-0.5"/>
                </g>
                <g id="arrowDown" xlink:href="#dirArrow" transform="rotate(180) translate(-30 -48)" onmousedown="handlePan(0,1)">
                  <use xlink:href="#rim" fill="#404040">
                        <set attributeName="fill" to="#808080" begin="arrowDown.mouseover" end="arrowDown.mouseout"/>
                  </use>
                  <path fill="none" stroke="white" stroke-width="1.5" d="M0,-3.0v7 M-2.5,-0.5L0,-3.0L2.5,-0.5"/>
                </g>
                <g id="arrowLeft" xlink:href="#dirArrow" transform="rotate(270) translate(-36 17)" onmousedown="handlePan(-1,0)">
                  <use xlink:href="#rim" fill="#404040">
                        <set attributeName="fill" to="#808080" begin="arrowLeft.mouseover" end="arrowLeft.mouseout"/>
                  </use>
                  <path fill="none" stroke="white" stroke-width="1.5" d="M0,-3.0v7 M-2.5,-0.5L0,-3.0L2.5,-0.5"/>
                </g>
        </g>
        <svg viewBox="0 0 15 15" width="100%" height="30px" preserveAspectRatio="xMaxYMin meet">
         <g id="arrow_out" transform="scale(0.3 0.3)">
          <a xlink:href="PHOS_2calib_2src_2CalibDB_8cxx__incl_org.svg" target="_base">
           <rect id="button" ry="5" rx="5" y="6" x="6" height="38" width="38"
                fill="#f2f5e9" fill-opacity="0.5" stroke="#606060" stroke-width="1.0"/>
           <path id="arrow"
             d="M 11.500037,31.436501 C 11.940474,20.09759 22.043105,11.32322 32.158766,21.979434 L 37.068811,17.246167 C 37.068811,17.246167 37.088388,32 37.088388,32 L 22.160133,31.978069 C 22.160133,31.978069 26.997745,27.140456 26.997745,27.140456 C 18.528582,18.264221 13.291696,25.230495 11.500037,31.436501 z"
             style="fill:#404040;"/>
          </a>
         </g>
        </svg>
</svg>
