<?xml version="1.0" encoding="UTF-8" standalone="no"?>
<!DOCTYPE svg PUBLIC "-//W3C//DTD SVG 1.1//EN"
 "http://www.w3.org/Graphics/SVG/1.1/DTD/svg11.dtd">
<!-- Generated by graphviz version 2.40.1 (20161225.0304)
 -->
<!-- Title: o2::trd::TrapConfig Pages: 1 -->
<!--zoomable 633 -->
<svg id="main" version="1.1" xmlns="http://www.w3.org/2000/svg" xmlns:xlink="http://www.w3.org/1999/xlink" xml:space="preserve" onload="init(evt)">
<style type="text/css"><![CDATA[
.edge:hover path { stroke: red; }
.edge:hover polygon { stroke: red; fill: red; }
]]></style>
<script type="text/javascript"><![CDATA[
var edges = document.getElementsByTagName('g');
if (edges && edges.length) {
  for (var i=0;i<edges.length;i++) {
    if (edges[i].id.substr(0,4)=='edge') {
      edges[i].setAttribute('class','edge');
    }
  }
}
]]></script>
        <defs>
                <circle id="rim" cx="0" cy="0" r="7"/>
                <circle id="rim2" cx="0" cy="0" r="3.5"/>
                <g id="zoomPlus">
                        <use xlink:href="#rim" fill="#404040">
                                <set attributeName="fill" to="#808080" begin="zoomplus.mouseover" end="zoomplus.mouseout"/>
                        </use>
                        <path d="M-4,0h8M0,-4v8" fill="none" stroke="white" stroke-width="1.5" pointer-events="none"/>
                </g>
                <g id="zoomMin">
                        <use xlink:href="#rim" fill="#404040">
                                <set attributeName="fill" to="#808080" begin="zoomminus.mouseover" end="zoomminus.mouseout"/>
                        </use>
                        <path d="M-4,0h8" fill="none" stroke="white" stroke-width="1.5" pointer-events="none"/>
                </g>
                <g id="dirArrow">
                        <path fill="none" stroke="white" stroke-width="1.5" d="M0,-3.0v7 M-2.5,-0.5L0,-3.0L2.5,-0.5"/>
                </g>
               <g id="resetDef">
                       <use xlink:href="#rim2" fill="#404040">
                               <set attributeName="fill" to="#808080" begin="reset.mouseover" end="reset.mouseout"/>
                       </use>
               </g>
        </defs>

<script type="text/javascript">
var viewWidth = 917;
var viewHeight = 633;
var sectionId = 'dynsection-0';
</script>
<script xlink:href="../../svgpan.js"/>
<svg id="graph" class="graph">
<g id="viewport">
<title>o2::trd::TrapConfig</title>
<!-- Node1 -->
<g id="node1" class="node">
<title>Node1</title>
<polygon fill="#bfbfbf" stroke="#000000" points="346,-.5 346,-420.5 476,-420.5 476,-.5 346,-.5"/>
<text text-anchor="middle" x="411" y="-408.5" font-family="Helvetica,sans-Serif" font-size="10.00" fill="#000000">o2::trd::TrapConfig</text>
<polyline fill="none" stroke="#000000" points="346,-401.5 476,-401.5 "/>
<text text-anchor="middle" x="411" y="-389.5" font-family="Helvetica,sans-Serif" font-size="10.00" fill="#000000"> </text>
<polyline fill="none" stroke="#000000" points="346,-382.5 476,-382.5 "/>
<text text-anchor="start" x="354" y="-370.5" font-family="Helvetica,sans-Serif" font-size="10.00" fill="#000000">+ TrapConfig()</text>
<text text-anchor="start" x="354" y="-359.5" font-family="Helvetica,sans-Serif" font-size="10.00" fill="#000000">+ ~TrapConfig()</text>
<text text-anchor="start" x="354" y="-348.5" font-family="Helvetica,sans-Serif" font-size="10.00" fill="#000000">+ setTrapRegAlloc()</text>
<text text-anchor="start" x="354" y="-337.5" font-family="Helvetica,sans-Serif" font-size="10.00" fill="#000000">+ setTrapReg()</text>
<text text-anchor="start" x="354" y="-326.5" font-family="Helvetica,sans-Serif" font-size="10.00" fill="#000000">+ setTrapReg()</text>
<text text-anchor="start" x="354" y="-315.5" font-family="Helvetica,sans-Serif" font-size="10.00" fill="#000000">+ getTrapReg()</text>
<text text-anchor="start" x="354" y="-304.5" font-family="Helvetica,sans-Serif" font-size="10.00" fill="#000000">+ resetRegs()</text>
<text text-anchor="start" x="354" y="-293.5" font-family="Helvetica,sans-Serif" font-size="10.00" fill="#000000">+ getConfigVersion()</text>
<text text-anchor="start" x="354" y="-282.5" font-family="Helvetica,sans-Serif" font-size="10.00" fill="#000000">+ getConfigName()</text>
<text text-anchor="start" x="354" y="-271.5" font-family="Helvetica,sans-Serif" font-size="10.00" fill="#000000">+ setConfigVersion()</text>
<text text-anchor="start" x="354" y="-260.5" font-family="Helvetica,sans-Serif" font-size="10.00" fill="#000000">+ setConfigName()</text>
<text text-anchor="start" x="354" y="-249.5" font-family="Helvetica,sans-Serif" font-size="10.00" fill="#000000">+ setDmemAlloc()</text>
<text text-anchor="start" x="354" y="-238.5" font-family="Helvetica,sans-Serif" font-size="10.00" fill="#000000">+ setDmem()</text>
<text text-anchor="start" x="354" y="-227.5" font-family="Helvetica,sans-Serif" font-size="10.00" fill="#000000">+ setDmem()</text>
<text text-anchor="start" x="354" y="-216.5" font-family="Helvetica,sans-Serif" font-size="10.00" fill="#000000">+ setDmem()</text>
<text text-anchor="start" x="354" y="-205.5" font-family="Helvetica,sans-Serif" font-size="10.00" fill="#000000">+ setDmem()</text>
<text text-anchor="start" x="354" y="-194.5" font-family="Helvetica,sans-Serif" font-size="10.00" fill="#000000">+ getDmemUnsigned()</text>
<text text-anchor="start" x="354" y="-183.5" font-family="Helvetica,sans-Serif" font-size="10.00" fill="#000000">+ resetDmem()</text>
<text text-anchor="start" x="354" y="-172.5" font-family="Helvetica,sans-Serif" font-size="10.00" fill="#000000">+ peek()</text>
<text text-anchor="start" x="354" y="-161.5" font-family="Helvetica,sans-Serif" font-size="10.00" fill="#000000">+ poke()</text>
<text text-anchor="start" x="354" y="-150.5" font-family="Helvetica,sans-Serif" font-size="10.00" fill="#000000">+ getRegName()</text>
<text text-anchor="start" x="354" y="-139.5" font-family="Helvetica,sans-Serif" font-size="10.00" fill="#000000">+ getRegAddress()</text>
<text text-anchor="start" x="354" y="-128.5" font-family="Helvetica,sans-Serif" font-size="10.00" fill="#000000">+ getRegNBits()</text>
<text text-anchor="start" x="354" y="-117.5" font-family="Helvetica,sans-Serif" font-size="10.00" fill="#000000">+ getRegResetValue()</text>
<text text-anchor="start" x="354" y="-106.5" font-family="Helvetica,sans-Serif" font-size="10.00" fill="#000000">+ getRegByAddress()</text>
<text text-anchor="start" x="354" y="-95.5" font-family="Helvetica,sans-Serif" font-size="10.00" fill="#000000">+ printTrapReg()</text>
<text text-anchor="start" x="354" y="-84.5" font-family="Helvetica,sans-Serif" font-size="10.00" fill="#000000">+ printTrapAddr()</text>
<text text-anchor="start" x="354" y="-73.5" font-family="Helvetica,sans-Serif" font-size="10.00" fill="#000000">+ printMemDatx()</text>
<text text-anchor="start" x="354" y="-62.5" font-family="Helvetica,sans-Serif" font-size="10.00" fill="#000000">+ printMemDatx()</text>
<text text-anchor="start" x="354" y="-51.5" font-family="Helvetica,sans-Serif" font-size="10.00" fill="#000000">+ printMemDatx()</text>
<text text-anchor="start" x="354" y="-40.5" font-family="Helvetica,sans-Serif" font-size="10.00" fill="#000000">+ printMemDatx()</text>
<text text-anchor="start" x="354" y="-29.5" font-family="Helvetica,sans-Serif" font-size="10.00" fill="#000000">+ printDatx()</text>
<text text-anchor="start" x="354" y="-18.5" font-family="Helvetica,sans-Serif" font-size="10.00" fill="#000000">+ printVerify()</text>
<text text-anchor="start" x="354" y="-7.5" font-family="Helvetica,sans-Serif" font-size="10.00" fill="#000000">+ initRegs()</text>
</g>
<!-- Node2 -->
<g id="node2" class="node">
<title>Node2</title>
<polygon fill="none" stroke="#bfbfbf" points="0,-562 0,-619 44,-619 44,-562 0,-562"/>
<text text-anchor="middle" x="22" y="-607" font-family="Helvetica,sans-Serif" font-size="10.00" fill="#000000">string</text>
<polyline fill="none" stroke="#bfbfbf" points="0,-600 44,-600 "/>
<text text-anchor="middle" x="22" y="-588" font-family="Helvetica,sans-Serif" font-size="10.00" fill="#000000"> </text>
<polyline fill="none" stroke="#bfbfbf" points="0,-581 44,-581 "/>
<text text-anchor="middle" x="22" y="-569" font-family="Helvetica,sans-Serif" font-size="10.00" fill="#000000"> </text>
</g>
<!-- Node2&#45;&gt;Node1 -->
<g id="edge1" class="edge">
<title>Node2&#45;&gt;Node1</title>
<path fill="none" stroke="#404040" d="M29.6452,-561.785C39.3598,-529.3323 58.6134,-476.1936 89,-439 157.3744,-355.3088 263.6565,-288.037 335.2235,-248.7022"/>
<polygon fill="none" stroke="#404040" points="335.4172,-248.5969 338.779,-242.2174 345.9608,-242.8669 342.5991,-249.2465 335.4172,-248.5969"/>
<text text-anchor="middle" x="142" y="-491.5" font-family="Helvetica,sans-Serif" font-size="10.00" fill="#000000"> +mTrapConfigName</text>
<text text-anchor="middle" x="142" y="-480.5" font-family="Helvetica,sans-Serif" font-size="10.00" fill="#000000">+mTrapConfigVersion</text>
</g>
<!-- Node3 -->
<g id="node3" class="node">
<title>Node3</title>
<polygon fill="none" stroke="#bfbfbf" points="62.5,-556.5 62.5,-624.5 265.5,-624.5 265.5,-556.5 62.5,-556.5"/>
<text text-anchor="start" x="70.5" y="-612.5" font-family="Helvetica,sans-Serif" font-size="10.00" fill="#000000">array&lt; o2::trd::TrapConfig</text>
<text text-anchor="middle" x="164" y="-601.5" font-family="Helvetica,sans-Serif" font-size="10.00" fill="#000000">::TrapDmemWord, mgkDmemWords &gt;</text>
<polyline fill="none" stroke="#bfbfbf" points="62.5,-594.5 265.5,-594.5 "/>
<text text-anchor="middle" x="164" y="-582.5" font-family="Helvetica,sans-Serif" font-size="10.00" fill="#000000"> </text>
<polyline fill="none" stroke="#bfbfbf" points="62.5,-575.5 265.5,-575.5 "/>
<text text-anchor="middle" x="164" y="-563.5" font-family="Helvetica,sans-Serif" font-size="10.00" fill="#000000"> </text>
</g>
<!-- Node3&#45;&gt;Node1 -->
<g id="edge2" class="edge">
<title>Node3&#45;&gt;Node1</title>
<path fill="none" stroke="#404040" d="M186.137,-556.4431C220.26,-503.9461 287.2058,-400.9526 339.2165,-320.9362"/>
<polygon fill="none" stroke="#404040" points="339.2643,-320.8625 339.1805,-313.6519 345.8042,-310.8012 345.8881,-318.0118 339.2643,-320.8625"/>
<text text-anchor="middle" x="285.5" y="-486" font-family="Helvetica,sans-Serif" font-size="10.00" fill="#000000"> +mDmem</text>
</g>
<!-- Node4 -->
<g id="node4" class="node">
<title>Node4</title>
<polygon fill="none" stroke="#bfbfbf" points="284,-556.5 284,-624.5 428,-624.5 428,-556.5 284,-556.5"/>
<text text-anchor="start" x="292" y="-612.5" font-family="Helvetica,sans-Serif" font-size="10.00" fill="#000000">array&lt; o2::trd::TrapConfig</text>
<text text-anchor="middle" x="356" y="-601.5" font-family="Helvetica,sans-Serif" font-size="10.00" fill="#000000">::TrapRegister, kLastReg &gt;</text>
<polyline fill="none" stroke="#bfbfbf" points="284,-594.5 428,-594.5 "/>
<text text-anchor="middle" x="356" y="-582.5" font-family="Helvetica,sans-Serif" font-size="10.00" fill="#000000"> </text>
<polyline fill="none" stroke="#bfbfbf" points="284,-575.5 428,-575.5 "/>
<text text-anchor="middle" x="356" y="-563.5" font-family="Helvetica,sans-Serif" font-size="10.00" fill="#000000"> </text>
</g>
<!-- Node4&#45;&gt;Node1 -->
<g id="edge3" class="edge">
<title>Node4&#45;&gt;Node1</title>
<path fill="none" stroke="#404040" d="M354.0409,-556.3663C352.7914,-525.5703 352.1934,-479.0874 357,-439 357.2502,-436.9131 357.5123,-434.8176 357.7856,-432.7146"/>
<polygon fill="none" stroke="#404040" points="357.8177,-432.4831 354.6818,-425.9896 359.4698,-420.5974 362.6057,-427.091 357.8177,-432.4831"/>
<text text-anchor="middle" x="401" y="-486" font-family="Helvetica,sans-Serif" font-size="10.00" fill="#000000"> +mRegisterValue</text>
</g>
<!-- Node5 -->
<g id="node5" class="node">
<title>Node5</title>
<polygon fill="none" stroke="#bfbfbf" points="446.5,-562 446.5,-619 489.5,-619 489.5,-562 446.5,-562"/>
<text text-anchor="middle" x="468" y="-607" font-family="Helvetica,sans-Serif" font-size="10.00" fill="#000000">const</text>
<polyline fill="none" stroke="#bfbfbf" points="446.5,-600 489.5,-600 "/>
<text text-anchor="middle" x="468" y="-588" font-family="Helvetica,sans-Serif" font-size="10.00" fill="#000000"> </text>
<polyline fill="none" stroke="#bfbfbf" points="446.5,-581 489.5,-581 "/>
<text text-anchor="middle" x="468" y="-569" font-family="Helvetica,sans-Serif" font-size="10.00" fill="#000000"> </text>
</g>
<!-- Node5&#45;&gt;Node1 -->
<g id="edge4" class="edge">
<title>Node5&#45;&gt;Node1</title>
<path fill="none" stroke="#404040" d="M463.7157,-561.9382C459.3322,-532.7144 452.0831,-484.3873 444.3431,-432.7872"/>
<polygon fill="none" stroke="#404040" points="444.3067,-432.5442 439.4609,-427.204 442.5265,-420.677 447.3724,-426.0172 444.3067,-432.5442"/>
<text text-anchor="start" x="459" y="-502.5" font-family="Helvetica,sans-Serif" font-size="10.00" fill="#000000"> +mgkRegisterAddressBlock</text>
<text text-anchor="middle" x="528.5" y="-491.5" font-family="Helvetica,sans-Serif" font-size="10.00" fill="#000000">Size</text>
<text text-anchor="start" x="459" y="-480.5" font-family="Helvetica,sans-Serif" font-size="10.00" fill="#000000">+mgkRegisterAddressBlock</text>
<text text-anchor="middle" x="528.5" y="-469.5" font-family="Helvetica,sans-Serif" font-size="10.00" fill="#000000">Start</text>
</g>
<!-- Node6 -->
<g id="node6" class="node">
<title>Node6</title>
<polygon fill="none" stroke="#bfbfbf" points="607,-562 607,-619 651,-619 651,-562 607,-562"/>
<text text-anchor="middle" x="629" y="-607" font-family="Helvetica,sans-Serif" font-size="10.00" fill="#000000">static</text>
<polyline fill="none" stroke="#bfbfbf" points="607,-600 651,-600 "/>
<text text-anchor="middle" x="629" y="-588" font-family="Helvetica,sans-Serif" font-size="10.00" fill="#000000"> </text>
<polyline fill="none" stroke="#bfbfbf" points="607,-581 651,-581 "/>
<text text-anchor="middle" x="629" y="-569" font-family="Helvetica,sans-Serif" font-size="10.00" fill="#000000"> </text>
</g>
<!-- Node6&#45;&gt;Node1 -->
<g id="edge5" class="edge">
<title>Node6&#45;&gt;Node1</title>
<path fill="none" stroke="#404040" d="M628.2522,-561.8249C626.4603,-530.34 620.6289,-478.9526 602,-439 573.8498,-378.6272 525.6579,-321.1479 484.7267,-278.9407"/>
<polygon fill="none" stroke="#404040" points="484.5212,-278.7315 477.4631,-277.2539 476.1124,-270.1704 483.1705,-271.648 484.5212,-278.7315"/>
<text text-anchor="middle" x="701" y="-530" font-family="Helvetica,sans-Serif" font-size="10.00" fill="#000000"> +mgkMcmlistSize</text>
<text text-anchor="middle" x="701" y="-519" font-family="Helvetica,sans-Serif" font-size="10.00" fill="#000000">+mlastAlloc</text>
<text text-anchor="middle" x="701" y="-508" font-family="Helvetica,sans-Serif" font-size="10.00" fill="#000000">+mgkImemWords</text>
<text text-anchor="middle" x="701" y="-497" font-family="Helvetica,sans-Serif" font-size="10.00" fill="#000000">+mgkDbankStartAddress</text>
<text text-anchor="middle" x="701" y="-486" font-family="Helvetica,sans-Serif" font-size="10.00" fill="#000000">+mgkImemStartAddress</text>
<text text-anchor="middle" x="701" y="-475" font-family="Helvetica,sans-Serif" font-size="10.00" fill="#000000">+mgRegAddressMapInitialized</text>
<text text-anchor="middle" x="701" y="-464" font-family="Helvetica,sans-Serif" font-size="10.00" fill="#000000">+mgkDbankWords</text>
<text text-anchor="middle" x="701" y="-453" font-family="Helvetica,sans-Serif" font-size="10.00" fill="#000000">+mgkDmemWords</text>
<text text-anchor="middle" x="701" y="-442" font-family="Helvetica,sans-Serif" font-size="10.00" fill="#000000">+mgkDmemStartAddress</text>
</g>
<!-- Node7 -->
<g id="node7" class="node">
<title>Node7</title>
<polygon fill="none" stroke="#bfbfbf" points="733.5,-556.5 733.5,-624.5 870.5,-624.5 870.5,-556.5 733.5,-556.5"/>
<text text-anchor="start" x="741.5" y="-612.5" font-family="Helvetica,sans-Serif" font-size="10.00" fill="#000000">array&lt; TrapReg_t, 0x400</text>
<text text-anchor="middle" x="802" y="-601.5" font-family="Helvetica,sans-Serif" font-size="10.00" fill="#000000">+0x200+0x4 &gt;</text>
<polyline fill="none" stroke="#bfbfbf" points="733.5,-594.5 870.5,-594.5 "/>
<text text-anchor="middle" x="802" y="-582.5" font-family="Helvetica,sans-Serif" font-size="10.00" fill="#000000"> </text>
<polyline fill="none" stroke="#bfbfbf" points="733.5,-575.5 870.5,-575.5 "/>
<text text-anchor="middle" x="802" y="-563.5" font-family="Helvetica,sans-Serif" font-size="10.00" fill="#000000"> </text>
</g>
<!-- Node7&#45;&gt;Node1 -->
<g id="edge6" class="edge">
<title>Node7&#45;&gt;Node1</title>
<path fill="none" stroke="#404040" d="M804.9181,-556.333C806.0072,-523.5977 803.023,-474.1193 780,-439 710.6137,-333.158 573.4372,-267.841 487.2911,-235.4331"/>
<polygon fill="none" stroke="#404040" points="487.2641,-235.4232 480.2499,-237.097 476.0071,-231.2662 483.0212,-229.5923 487.2641,-235.4232"/>
<text text-anchor="middle" x="856.5" y="-486" font-family="Helvetica,sans-Serif" font-size="10.00" fill="#000000"> +mgRegAddressMap</text>
</g>
</g>
</svg>
        <g id="navigator" transform="translate(0 0)" fill="#404254">
                <rect fill="#f2f5e9" fill-opacity="0.5" stroke="#606060" stroke-width=".5" x="0" y="0" width="60" height="60"/>
                <use id="zoomplus" xlink:href="#zoomPlus" x="17" y="9" onmousedown="handleZoom(evt,'in')"/>
                <use id="zoomminus" xlink:href="#zoomMin" x="42" y="9" onmousedown="handleZoom(evt,'out')"/>
                <use id="reset" xlink:href="#resetDef" x="30" y="36" onmousedown="handleReset()"/>
                <g id="arrowUp" xlink:href="#dirArrow" transform="translate(30 24)" onmousedown="handlePan(0,-1)">
                  <use xlink:href="#rim" fill="#404040">
                        <set attributeName="fill" to="#808080" begin="arrowUp.mouseover" end="arrowUp.mouseout"/>
                  </use>
                  <path fill="none" stroke="white" stroke-width="1.5" d="M0,-3.0v7 M-2.5,-0.5L0,-3.0L2.5,-0.5"/>
                </g>
                <g id="arrowRight" xlink:href="#dirArrow" transform="rotate(90) translate(36 -43)" onmousedown="handlePan(1,0)">
                  <use xlink:href="#rim" fill="#404040">
                        <set attributeName="fill" to="#808080" begin="arrowRight.mouseover" end="arrowRight.mouseout"/>
                  </use>
                  <path fill="none" stroke="white" stroke-width="1.5" d="M0,-3.0v7 M-2.5,-0.5L0,-3.0L2.5,-0.5"/>
                </g>
                <g id="arrowDown" xlink:href="#dirArrow" transform="rotate(180) translate(-30 -48)" onmousedown="handlePan(0,1)">
                  <use xlink:href="#rim" fill="#404040">
                        <set attributeName="fill" to="#808080" begin="arrowDown.mouseover" end="arrowDown.mouseout"/>
                  </use>
                  <path fill="none" stroke="white" stroke-width="1.5" d="M0,-3.0v7 M-2.5,-0.5L0,-3.0L2.5,-0.5"/>
                </g>
                <g id="arrowLeft" xlink:href="#dirArrow" transform="rotate(270) translate(-36 17)" onmousedown="handlePan(-1,0)">
                  <use xlink:href="#rim" fill="#404040">
                        <set attributeName="fill" to="#808080" begin="arrowLeft.mouseover" end="arrowLeft.mouseout"/>
                  </use>
                  <path fill="none" stroke="white" stroke-width="1.5" d="M0,-3.0v7 M-2.5,-0.5L0,-3.0L2.5,-0.5"/>
                </g>
        </g>
        <svg viewBox="0 0 15 15" width="100%" height="30px" preserveAspectRatio="xMaxYMin meet">
         <g id="arrow_out" transform="scale(0.3 0.3)">
          <a xlink:href="classo2_1_1trd_1_1TrapConfig__coll__graph_org.svg" target="_base">
           <rect id="button" ry="5" rx="5" y="6" x="6" height="38" width="38"
                fill="#f2f5e9" fill-opacity="0.5" stroke="#606060" stroke-width="1.0"/>
           <path id="arrow"
             d="M 11.500037,31.436501 C 11.940474,20.09759 22.043105,11.32322 32.158766,21.979434 L 37.068811,17.246167 C 37.068811,17.246167 37.088388,32 37.088388,32 L 22.160133,31.978069 C 22.160133,31.978069 26.997745,27.140456 26.997745,27.140456 C 18.528582,18.264221 13.291696,25.230495 11.500037,31.436501 z"
             style="fill:#404040;"/>
          </a>
         </g>
        </svg>
</svg>
