<?xml version="1.0" encoding="UTF-8" standalone="no"?>
<!DOCTYPE svg PUBLIC "-//W3C//DTD SVG 1.1//EN"
 "http://www.w3.org/Graphics/SVG/1.1/DTD/svg11.dtd">
<!-- Generated by graphviz version 2.40.1 (20161225.0304)
 -->
<!-- Title: /home/travis/build/AliceO2Group/AliceO2/Detectors/TOF/base/include/TOFBase/Digit.h Pages: 1 -->
<svg width="330pt" height="184pt"
 viewBox="0.00 0.00 330.00 184.00" xmlns="http://www.w3.org/2000/svg" xmlns:xlink="http://www.w3.org/1999/xlink">
<g id="graph0" class="graph" transform="scale(1 1) rotate(0) translate(4 180)">
<title>/home/travis/build/AliceO2Group/AliceO2/Detectors/TOF/base/include/TOFBase/Digit.h</title>
<!-- Node0 -->
<g id="node1" class="node">
<title>Node0</title>
<polygon fill="#bfbfbf" stroke="#000000" points="38,-123.5 38,-175.5 191,-175.5 191,-123.5 38,-123.5"/>
<text text-anchor="start" x="46" y="-163.5" font-family="Helvetica,sans-Serif" font-size="10.00" fill="#000000">/home/travis/build</text>
<text text-anchor="start" x="46" y="-152.5" font-family="Helvetica,sans-Serif" font-size="10.00" fill="#000000">/AliceO2Group/AliceO2</text>
<text text-anchor="start" x="46" y="-141.5" font-family="Helvetica,sans-Serif" font-size="10.00" fill="#000000">/Detectors/TOF/base/include</text>
<text text-anchor="middle" x="114.5" y="-130.5" font-family="Helvetica,sans-Serif" font-size="10.00" fill="#000000">/TOFBase/Digit.h</text>
</g>
<!-- Node1 -->
<g id="node2" class="node">
<title>Node1</title>
<polygon fill="none" stroke="#bfbfbf" points="0,-62 0,-81 49,-81 49,-62 0,-62"/>
<text text-anchor="middle" x="24.5" y="-69" font-family="Helvetica,sans-Serif" font-size="10.00" fill="#000000">iosfwd</text>
</g>
<!-- Node0&#45;&gt;Node1 -->
<g id="edge1" class="edge">
<title>Node0&#45;&gt;Node1</title>
<path fill="none" stroke="#191970" d="M84.0301,-123.0928C70.5705,-111.4278 55.1681,-98.079 43.4027,-87.8824"/>
<polygon fill="#191970" stroke="#191970" points="45.4075,-84.9883 35.5583,-81.0839 40.823,-90.2781 45.4075,-84.9883"/>
</g>
<!-- Node2 -->
<g id="node3" class="node">
<title>Node2</title>
<polygon fill="none" stroke="#bfbfbf" points="48,-.5 48,-19.5 107,-19.5 107,-.5 48,-.5"/>
<text text-anchor="middle" x="77.5" y="-7.5" font-family="Helvetica,sans-Serif" font-size="10.00" fill="#000000">Rtypes.h</text>
</g>
<!-- Node0&#45;&gt;Node2 -->
<g id="edge2" class="edge">
<title>Node0&#45;&gt;Node2</title>
<path fill="none" stroke="#191970" d="M107.32,-123.3661C104.2638,-112.1747 100.6781,-98.9542 97.5,-87 92.3599,-67.6663 86.6338,-45.5608 82.6303,-30.0093"/>
<polygon fill="#191970" stroke="#191970" points="85.9311,-28.7914 80.0526,-19.9771 79.1514,-30.5335 85.9311,-28.7914"/>
</g>
<!-- Node3 -->
<g id="node4" class="node">
<title>Node3</title>
<g id="a_node4"><a xlink:href="../../d4/d54/Geo_8h.html" target="_top" xlink:title="TOFBase/Geo.h">
<polygon fill="none" stroke="#000000" points="106,-62 106,-81 197,-81 197,-62 106,-62"/>
<text text-anchor="middle" x="151.5" y="-69" font-family="Helvetica,sans-Serif" font-size="10.00" fill="#000000">TOFBase/Geo.h</text>
</a>
</g>
</g>
<!-- Node0&#45;&gt;Node3 -->
<g id="edge3" class="edge">
<title>Node0&#45;&gt;Node3</title>
<path fill="none" stroke="#191970" d="M127.0265,-123.0928C132.1301,-112.3338 137.9132,-100.1424 142.5759,-90.3131"/>
<polygon fill="#191970" stroke="#191970" points="145.8302,-91.619 146.9538,-81.0839 139.5056,-88.6188 145.8302,-91.619"/>
</g>
<!-- Node5 -->
<g id="node6" class="node">
<title>Node5</title>
<polygon fill="none" stroke="#bfbfbf" points="215,-56.5 215,-86.5 322,-86.5 322,-56.5 215,-56.5"/>
<text text-anchor="start" x="223" y="-74.5" font-family="Helvetica,sans-Serif" font-size="10.00" fill="#000000">boost/serialization</text>
<text text-anchor="middle" x="268.5" y="-63.5" font-family="Helvetica,sans-Serif" font-size="10.00" fill="#000000">/base_object.hpp</text>
</g>
<!-- Node0&#45;&gt;Node5 -->
<g id="edge6" class="edge">
<title>Node0&#45;&gt;Node5</title>
<path fill="none" stroke="#191970" d="M166.2082,-123.3101C186.9337,-112.8128 210.4092,-100.9226 229.6391,-91.1828"/>
<polygon fill="#191970" stroke="#191970" points="231.3679,-94.2306 238.7074,-86.5897 228.205,-87.9859 231.3679,-94.2306"/>
</g>
<!-- Node3&#45;&gt;Node2 -->
<g id="edge4" class="edge">
<title>Node3&#45;&gt;Node2</title>
<path fill="none" stroke="#191970" d="M139.9375,-61.8906C128.4921,-52.3786 110.7527,-37.6357 97.103,-26.2917"/>
<polygon fill="#191970" stroke="#191970" points="99.1533,-23.4447 89.2255,-19.7449 94.6792,-28.8283 99.1533,-23.4447"/>
</g>
<!-- Node4 -->
<g id="node5" class="node">
<title>Node4</title>
<g id="a_node5"><a xlink:href="../../d4/dc6/LHCConstants_8h.html" target="_top" xlink:title="Header to collect LHC related constants. ">
<polygon fill="none" stroke="#000000" points="125.5,-.5 125.5,-19.5 315.5,-19.5 315.5,-.5 125.5,-.5"/>
<text text-anchor="middle" x="220.5" y="-7.5" font-family="Helvetica,sans-Serif" font-size="10.00" fill="#000000">CommonConstants/LHCConstants.h</text>
</a>
</g>
</g>
<!-- Node3&#45;&gt;Node4 -->
<g id="edge5" class="edge">
<title>Node3&#45;&gt;Node4</title>
<path fill="none" stroke="#191970" d="M162.2813,-61.8906C172.8526,-52.4683 189.1825,-37.9134 201.8603,-26.6137"/>
<polygon fill="#191970" stroke="#191970" points="204.4304,-29.0114 209.5667,-19.7449 199.7728,-23.7858 204.4304,-29.0114"/>
</g>
</g>
</svg>
