<?xml version="1.0" encoding="UTF-8" standalone="no"?>
<!DOCTYPE svg PUBLIC "-//W3C//DTD SVG 1.1//EN"
 "http://www.w3.org/Graphics/SVG/1.1/DTD/svg11.dtd">
<!-- Generated by graphviz version 2.40.1 (20161225.0304)
 -->
<!-- Title: o2::framework::OutputObj&lt; T &gt; Pages: 1 -->
<svg width="325pt" height="259pt"
 viewBox="0.00 0.00 324.50 259.00" xmlns="http://www.w3.org/2000/svg" xmlns:xlink="http://www.w3.org/1999/xlink">
<g id="graph0" class="graph" transform="scale(1 1) rotate(0) translate(4 255)">
<title>o2::framework::OutputObj&lt; T &gt;</title>
<!-- Node3 -->
<g id="node1" class="node">
<title>Node3</title>
<polygon fill="#bfbfbf" stroke="#000000" points="119.5,-.5 119.5,-145.5 291.5,-145.5 291.5,-.5 119.5,-.5"/>
<text text-anchor="middle" x="205.5" y="-133.5" font-family="Helvetica,sans-Serif" font-size="10.00" fill="#000000">o2::framework::OutputObj&lt; T &gt;</text>
<polyline fill="none" stroke="#000000" points="119.5,-126.5 291.5,-126.5 "/>
<text text-anchor="middle" x="205.5" y="-114.5" font-family="Helvetica,sans-Serif" font-size="10.00" fill="#000000"> </text>
<polyline fill="none" stroke="#000000" points="119.5,-107.5 291.5,-107.5 "/>
<text text-anchor="start" x="127.5" y="-95.5" font-family="Helvetica,sans-Serif" font-size="10.00" fill="#000000">+ OutputObj()</text>
<text text-anchor="start" x="127.5" y="-84.5" font-family="Helvetica,sans-Serif" font-size="10.00" fill="#000000">+ OutputObj()</text>
<text text-anchor="start" x="127.5" y="-73.5" font-family="Helvetica,sans-Serif" font-size="10.00" fill="#000000">+ setObject()</text>
<text text-anchor="start" x="127.5" y="-62.5" font-family="Helvetica,sans-Serif" font-size="10.00" fill="#000000">+ setObject()</text>
<text text-anchor="start" x="127.5" y="-51.5" font-family="Helvetica,sans-Serif" font-size="10.00" fill="#000000">+ setObject()</text>
<text text-anchor="start" x="127.5" y="-40.5" font-family="Helvetica,sans-Serif" font-size="10.00" fill="#000000">+ spec()</text>
<text text-anchor="start" x="127.5" y="-29.5" font-family="Helvetica,sans-Serif" font-size="10.00" fill="#000000">+ operator&#45;&gt;()</text>
<text text-anchor="start" x="127.5" y="-18.5" font-family="Helvetica,sans-Serif" font-size="10.00" fill="#000000">+ operator*()</text>
<text text-anchor="start" x="127.5" y="-7.5" font-family="Helvetica,sans-Serif" font-size="10.00" fill="#000000">+ ref()</text>
</g>
<!-- Node4 -->
<g id="node2" class="node">
<title>Node4</title>
<polygon fill="none" stroke="#bfbfbf" points="0,-193.5 0,-250.5 139,-250.5 139,-193.5 0,-193.5"/>
<text text-anchor="middle" x="69.5" y="-238.5" font-family="Helvetica,sans-Serif" font-size="10.00" fill="#000000">OutputObjHandlingPolicy</text>
<polyline fill="none" stroke="#bfbfbf" points="0,-231.5 139,-231.5 "/>
<text text-anchor="middle" x="69.5" y="-219.5" font-family="Helvetica,sans-Serif" font-size="10.00" fill="#000000"> </text>
<polyline fill="none" stroke="#bfbfbf" points="0,-212.5 139,-212.5 "/>
<text text-anchor="middle" x="69.5" y="-200.5" font-family="Helvetica,sans-Serif" font-size="10.00" fill="#000000"> </text>
</g>
<!-- Node4&#45;&gt;Node3 -->
<g id="edge1" class="edge">
<title>Node4&#45;&gt;Node3</title>
<path fill="none" stroke="#404040" d="M95.7222,-193.2713C105.9797,-182.0333 118.3079,-168.5267 130.9409,-154.6861"/>
<polygon fill="none" stroke="#404040" points="131.178,-154.4263 132.2686,-147.2981 139.2679,-145.5631 138.1773,-152.6913 131.178,-154.4263"/>
<text text-anchor="middle" x="142" y="-167" font-family="Helvetica,sans-Serif" font-size="10.00" fill="#000000"> +policy</text>
</g>
<!-- Node5 -->
<g id="node3" class="node">
<title>Node5</title>
<polygon fill="none" stroke="#bfbfbf" points="157,-193.5 157,-250.5 254,-250.5 254,-193.5 157,-193.5"/>
<text text-anchor="middle" x="205.5" y="-238.5" font-family="Helvetica,sans-Serif" font-size="10.00" fill="#000000">shared_ptr&lt; T &gt;</text>
<polyline fill="none" stroke="#bfbfbf" points="157,-231.5 254,-231.5 "/>
<text text-anchor="middle" x="205.5" y="-219.5" font-family="Helvetica,sans-Serif" font-size="10.00" fill="#000000"> </text>
<polyline fill="none" stroke="#bfbfbf" points="157,-212.5 254,-212.5 "/>
<text text-anchor="middle" x="205.5" y="-200.5" font-family="Helvetica,sans-Serif" font-size="10.00" fill="#000000"> </text>
</g>
<!-- Node5&#45;&gt;Node3 -->
<g id="edge2" class="edge">
<title>Node5&#45;&gt;Node3</title>
<path fill="none" stroke="#404040" d="M205.5,-193.2713C205.5,-182.8895 205.5,-170.5716 205.5,-157.843"/>
<polygon fill="none" stroke="#404040" points="205.5001,-157.5631 201.5,-151.5632 205.5,-145.5631 209.5,-151.5631 205.5001,-157.5631"/>
<text text-anchor="middle" x="226.5" y="-167" font-family="Helvetica,sans-Serif" font-size="10.00" fill="#000000"> +object</text>
</g>
<!-- Node6 -->
<g id="node4" class="node">
<title>Node6</title>
<polygon fill="none" stroke="#bfbfbf" points="272.5,-193.5 272.5,-250.5 316.5,-250.5 316.5,-193.5 272.5,-193.5"/>
<text text-anchor="middle" x="294.5" y="-238.5" font-family="Helvetica,sans-Serif" font-size="10.00" fill="#000000">string</text>
<polyline fill="none" stroke="#bfbfbf" points="272.5,-231.5 316.5,-231.5 "/>
<text text-anchor="middle" x="294.5" y="-219.5" font-family="Helvetica,sans-Serif" font-size="10.00" fill="#000000"> </text>
<polyline fill="none" stroke="#bfbfbf" points="272.5,-212.5 316.5,-212.5 "/>
<text text-anchor="middle" x="294.5" y="-200.5" font-family="Helvetica,sans-Serif" font-size="10.00" fill="#000000"> </text>
</g>
<!-- Node6&#45;&gt;Node3 -->
<g id="edge3" class="edge">
<title>Node6&#45;&gt;Node3</title>
<path fill="none" stroke="#404040" d="M277.3399,-193.2713C270.8191,-182.3544 263.0195,-169.2966 255.0005,-155.8716"/>
<polygon fill="none" stroke="#404040" points="254.9967,-155.8652 248.4859,-152.7654 248.8431,-145.5631 255.3539,-148.663 254.9967,-155.8652"/>
<text text-anchor="middle" x="283.5" y="-167" font-family="Helvetica,sans-Serif" font-size="10.00" fill="#000000"> +label</text>
</g>
</g>
</svg>
