<?xml version="1.0" encoding="UTF-8" standalone="no"?>
<!DOCTYPE svg PUBLIC "-//W3C//DTD SVG 1.1//EN"
 "http://www.w3.org/Graphics/SVG/1.1/DTD/svg11.dtd">
<!-- Generated by graphviz version 2.40.1 (20161225.0304)
 -->
<!-- Title: /home/travis/build/AliceO2Group/AliceO2/GPU/GPUTracking/Merger/GPUTPCGMBorderTrack.h Pages: 1 -->
<svg width="1337pt" height="417pt"
 viewBox="0.00 0.00 1337.00 417.00" xmlns="http://www.w3.org/2000/svg" xmlns:xlink="http://www.w3.org/1999/xlink">
<g id="graph0" class="graph" transform="scale(1 1) rotate(0) translate(4 413)">
<title>/home/travis/build/AliceO2Group/AliceO2/GPU/GPUTracking/Merger/GPUTPCGMBorderTrack.h</title>
<!-- Node7 -->
<g id="node1" class="node">
<title>Node7</title>
<polygon fill="#bfbfbf" stroke="#000000" points="681,-356.5 681,-408.5 823,-408.5 823,-356.5 681,-356.5"/>
<text text-anchor="start" x="689" y="-396.5" font-family="Helvetica,sans-Serif" font-size="10.00" fill="#000000">/home/travis/build</text>
<text text-anchor="start" x="689" y="-385.5" font-family="Helvetica,sans-Serif" font-size="10.00" fill="#000000">/AliceO2Group/AliceO2</text>
<text text-anchor="start" x="689" y="-374.5" font-family="Helvetica,sans-Serif" font-size="10.00" fill="#000000">/GPU/GPUTracking/Merger</text>
<text text-anchor="middle" x="752" y="-363.5" font-family="Helvetica,sans-Serif" font-size="10.00" fill="#000000">/GPUTPCGMBorderTrack.h</text>
</g>
<!-- Node8 -->
<g id="node2" class="node">
<title>Node8</title>
<g id="a_node2"><a xlink:href="../../d4/dcf/GPUTPCGMMerger_8h.html" target="_top" xlink:title="/home/travis/build\l/AliceO2Group/AliceO2\l/GPU/GPUTracking/Merger\l/GPUTPCGMMerger.h">
<polygon fill="none" stroke="#000000" points="632,-267.5 632,-319.5 774,-319.5 774,-267.5 632,-267.5"/>
<text text-anchor="start" x="640" y="-307.5" font-family="Helvetica,sans-Serif" font-size="10.00" fill="#000000">/home/travis/build</text>
<text text-anchor="start" x="640" y="-296.5" font-family="Helvetica,sans-Serif" font-size="10.00" fill="#000000">/AliceO2Group/AliceO2</text>
<text text-anchor="start" x="640" y="-285.5" font-family="Helvetica,sans-Serif" font-size="10.00" fill="#000000">/GPU/GPUTracking/Merger</text>
<text text-anchor="middle" x="703" y="-274.5" font-family="Helvetica,sans-Serif" font-size="10.00" fill="#000000">/GPUTPCGMMerger.h</text>
</a>
</g>
</g>
<!-- Node7&#45;&gt;Node8 -->
<g id="edge1" class="edge">
<title>Node7&#45;&gt;Node8</title>
<path fill="none" stroke="#191970" d="M732.6064,-347.2749C727.5121,-338.0219 722.1094,-328.209 717.3334,-319.5341"/>
<polygon fill="#191970" stroke="#191970" points="729.6744,-349.2064 737.5634,-356.2784 735.8064,-345.8303 729.6744,-349.2064"/>
</g>
<!-- Node13 -->
<g id="node7" class="node">
<title>Node13</title>
<g id="a_node7"><a xlink:href="../../d0/dd4/GPUTPCGMMerger_8cxx.html" target="_top" xlink:title="/home/travis/build\l/AliceO2Group/AliceO2\l/GPU/GPUTracking/Merger\l/GPUTPCGMMerger.cxx">
<polygon fill="none" stroke="#000000" points="1025,-178.5 1025,-230.5 1167,-230.5 1167,-178.5 1025,-178.5"/>
<text text-anchor="start" x="1033" y="-218.5" font-family="Helvetica,sans-Serif" font-size="10.00" fill="#000000">/home/travis/build</text>
<text text-anchor="start" x="1033" y="-207.5" font-family="Helvetica,sans-Serif" font-size="10.00" fill="#000000">/AliceO2Group/AliceO2</text>
<text text-anchor="start" x="1033" y="-196.5" font-family="Helvetica,sans-Serif" font-size="10.00" fill="#000000">/GPU/GPUTracking/Merger</text>
<text text-anchor="middle" x="1096" y="-185.5" font-family="Helvetica,sans-Serif" font-size="10.00" fill="#000000">/GPUTPCGMMerger.cxx</text>
</a>
</g>
</g>
<!-- Node7&#45;&gt;Node13 -->
<g id="edge12" class="edge">
<title>Node7&#45;&gt;Node13</title>
<path fill="none" stroke="#191970" d="M811.446,-351.7401C877.5541,-317.533 983.209,-262.8628 1045.4762,-230.6431"/>
<polygon fill="#191970" stroke="#191970" points="809.6619,-348.7224 802.389,-356.4266 812.8789,-354.9395 809.6619,-348.7224"/>
</g>
<!-- Node14 -->
<g id="node8" class="node">
<title>Node14</title>
<g id="a_node8"><a xlink:href="../../d5/d84/GPUTPCGMSliceTrack_8cxx.html" target="_top" xlink:title="/home/travis/build\l/AliceO2Group/AliceO2\l/GPU/GPUTracking/Merger\l/GPUTPCGMSliceTrack.cxx">
<polygon fill="none" stroke="#000000" points="1185,-178.5 1185,-230.5 1329,-230.5 1329,-178.5 1185,-178.5"/>
<text text-anchor="start" x="1193" y="-218.5" font-family="Helvetica,sans-Serif" font-size="10.00" fill="#000000">/home/travis/build</text>
<text text-anchor="start" x="1193" y="-207.5" font-family="Helvetica,sans-Serif" font-size="10.00" fill="#000000">/AliceO2Group/AliceO2</text>
<text text-anchor="start" x="1193" y="-196.5" font-family="Helvetica,sans-Serif" font-size="10.00" fill="#000000">/GPU/GPUTracking/Merger</text>
<text text-anchor="middle" x="1257" y="-185.5" font-family="Helvetica,sans-Serif" font-size="10.00" fill="#000000">/GPUTPCGMSliceTrack.cxx</text>
</a>
</g>
</g>
<!-- Node7&#45;&gt;Node14 -->
<g id="edge13" class="edge">
<title>Node7&#45;&gt;Node14</title>
<path fill="none" stroke="#191970" d="M832.7581,-355.8173C865.4854,-344.886 903.6032,-332.0042 938,-320 1023.78,-290.0634 1122.0024,-254.2701 1186.5304,-230.5465"/>
<polygon fill="#191970" stroke="#191970" points="831.6113,-352.5102 823.2326,-358.9947 833.8263,-359.1505 831.6113,-352.5102"/>
</g>
<!-- Node15 -->
<g id="node9" class="node">
<title>Node15</title>
<g id="a_node9"><a xlink:href="../../df/dad/GPUTPCGMTrackParam_8cxx.html" target="_top" xlink:title="/home/travis/build\l/AliceO2Group/AliceO2\l/GPU/GPUTracking/Merger\l/GPUTPCGMTrackParam.cxx">
<polygon fill="none" stroke="#000000" points="0,-178.5 0,-230.5 152,-230.5 152,-178.5 0,-178.5"/>
<text text-anchor="start" x="8" y="-218.5" font-family="Helvetica,sans-Serif" font-size="10.00" fill="#000000">/home/travis/build</text>
<text text-anchor="start" x="8" y="-207.5" font-family="Helvetica,sans-Serif" font-size="10.00" fill="#000000">/AliceO2Group/AliceO2</text>
<text text-anchor="start" x="8" y="-196.5" font-family="Helvetica,sans-Serif" font-size="10.00" fill="#000000">/GPU/GPUTracking/Merger</text>
<text text-anchor="middle" x="76" y="-185.5" font-family="Helvetica,sans-Serif" font-size="10.00" fill="#000000">/GPUTPCGMTrackParam.cxx</text>
</a>
</g>
</g>
<!-- Node7&#45;&gt;Node15 -->
<g id="edge14" class="edge">
<title>Node7&#45;&gt;Node15</title>
<path fill="none" stroke="#191970" d="M671.0001,-363.1307C556.8093,-335.5081 342.1892,-282.4311 161,-231 158.1747,-230.198 155.3006,-229.3691 152.4004,-228.5217"/>
<polygon fill="#191970" stroke="#191970" points="670.183,-366.5339 680.7254,-365.4804 671.827,-359.7297 670.183,-366.5339"/>
</g>
<!-- Node9 -->
<g id="node3" class="node">
<title>Node9</title>
<g id="a_node3"><a xlink:href="../../d0/d25/GPUReconstructionIncludesDevice_8h.html" target="_top" xlink:title="/home/travis/build\l/AliceO2Group/AliceO2\l/GPU/GPUTracking/Base\l/GPUReconstructionIncludesDevice.h">
<polygon fill="none" stroke="#000000" points="121,-89.5 121,-141.5 317,-141.5 317,-89.5 121,-89.5"/>
<text text-anchor="start" x="129" y="-129.5" font-family="Helvetica,sans-Serif" font-size="10.00" fill="#000000">/home/travis/build</text>
<text text-anchor="start" x="129" y="-118.5" font-family="Helvetica,sans-Serif" font-size="10.00" fill="#000000">/AliceO2Group/AliceO2</text>
<text text-anchor="start" x="129" y="-107.5" font-family="Helvetica,sans-Serif" font-size="10.00" fill="#000000">/GPU/GPUTracking/Base</text>
<text text-anchor="middle" x="219" y="-96.5" font-family="Helvetica,sans-Serif" font-size="10.00" fill="#000000">/GPUReconstructionIncludesDevice.h</text>
</a>
</g>
</g>
<!-- Node8&#45;&gt;Node9 -->
<g id="edge2" class="edge">
<title>Node8&#45;&gt;Node9</title>
<path fill="none" stroke="#191970" d="M621.8984,-284.7285C539.7083,-274.6317 419.2382,-256.1477 380,-231 355.5972,-215.3603 363.9911,-196.8809 342,-178 325.0986,-163.489 304.2444,-151.2728 284.5399,-141.5992"/>
<polygon fill="#191970" stroke="#191970" points="621.6261,-288.221 631.9742,-285.948 622.4672,-281.2718 621.6261,-288.221"/>
</g>
<!-- Node11 -->
<g id="node5" class="node">
<title>Node11</title>
<g id="a_node5"><a xlink:href="../../d9/d57/GPUTPCCompressionKernels_8cxx.html" target="_top" xlink:title="/home/travis/build\l/AliceO2Group/AliceO2\l/GPU/GPUTracking/DataCompression\l/GPUTPCCompressionKernels.cxx">
<polygon fill="none" stroke="#000000" points="389.5,-178.5 389.5,-230.5 584.5,-230.5 584.5,-178.5 389.5,-178.5"/>
<text text-anchor="start" x="397.5" y="-218.5" font-family="Helvetica,sans-Serif" font-size="10.00" fill="#000000">/home/travis/build</text>
<text text-anchor="start" x="397.5" y="-207.5" font-family="Helvetica,sans-Serif" font-size="10.00" fill="#000000">/AliceO2Group/AliceO2</text>
<text text-anchor="start" x="397.5" y="-196.5" font-family="Helvetica,sans-Serif" font-size="10.00" fill="#000000">/GPU/GPUTracking/DataCompression</text>
<text text-anchor="middle" x="487" y="-185.5" font-family="Helvetica,sans-Serif" font-size="10.00" fill="#000000">/GPUTPCCompressionKernels.cxx</text>
</a>
</g>
</g>
<!-- Node8&#45;&gt;Node11 -->
<g id="edge4" class="edge">
<title>Node8&#45;&gt;Node11</title>
<path fill="none" stroke="#191970" d="M630.2579,-263.5276C604.3504,-252.8527 575.4025,-240.9251 550.3465,-230.6011"/>
<polygon fill="#191970" stroke="#191970" points="629.073,-266.8248 639.6523,-267.3984 631.7398,-260.3526 629.073,-266.8248"/>
</g>
<!-- Node12 -->
<g id="node6" class="node">
<title>Node12</title>
<g id="a_node6"><a xlink:href="../../df/d06/GPUTPCGlobalMergerComponent_8cxx.html" target="_top" xlink:title="/home/travis/build\l/AliceO2Group/AliceO2\l/GPU/GPUTracking/Merger\l/GPUTPCGlobalMergerComponent.cxx">
<polygon fill="none" stroke="#000000" points="602.5,-178.5 602.5,-230.5 803.5,-230.5 803.5,-178.5 602.5,-178.5"/>
<text text-anchor="start" x="610.5" y="-218.5" font-family="Helvetica,sans-Serif" font-size="10.00" fill="#000000">/home/travis/build</text>
<text text-anchor="start" x="610.5" y="-207.5" font-family="Helvetica,sans-Serif" font-size="10.00" fill="#000000">/AliceO2Group/AliceO2</text>
<text text-anchor="start" x="610.5" y="-196.5" font-family="Helvetica,sans-Serif" font-size="10.00" fill="#000000">/GPU/GPUTracking/Merger</text>
<text text-anchor="middle" x="703" y="-185.5" font-family="Helvetica,sans-Serif" font-size="10.00" fill="#000000">/GPUTPCGlobalMergerComponent.cxx</text>
</a>
</g>
</g>
<!-- Node8&#45;&gt;Node12 -->
<g id="edge5" class="edge">
<title>Node8&#45;&gt;Node12</title>
<path fill="none" stroke="#191970" d="M703,-257.1155C703,-248.2061 703,-238.8475 703,-230.5341"/>
<polygon fill="#191970" stroke="#191970" points="699.5001,-257.2784 703,-267.2784 706.5001,-257.2785 699.5001,-257.2784"/>
</g>
<!-- Node8&#45;&gt;Node13 -->
<g id="edge6" class="edge">
<title>Node8&#45;&gt;Node13</title>
<path fill="none" stroke="#191970" d="M784.1077,-279.9734C847.4368,-268.7586 937.4045,-251.3884 1015,-231 1018.1482,-230.1728 1021.3536,-229.292 1024.583,-228.3731"/>
<polygon fill="#191970" stroke="#191970" points="783.4208,-276.5404 774.1784,-281.72 784.6336,-283.4346 783.4208,-276.5404"/>
</g>
<!-- Node8&#45;&gt;Node14 -->
<g id="edge7" class="edge">
<title>Node8&#45;&gt;Node14</title>
<path fill="none" stroke="#191970" d="M784.3477,-287.3516C879.2356,-279.1233 1040.407,-261.8598 1176,-231 1178.8854,-230.3433 1181.8144,-229.6275 1184.7624,-228.8658"/>
<polygon fill="#191970" stroke="#191970" points="783.9093,-283.8762 774.2438,-288.2153 784.5056,-290.8508 783.9093,-283.8762"/>
</g>
<!-- Node8&#45;&gt;Node15 -->
<g id="edge8" class="edge">
<title>Node8&#45;&gt;Node15</title>
<path fill="none" stroke="#191970" d="M621.6722,-288.8881C514.9814,-281.755 322.3674,-265.1431 161,-231 158.1267,-230.392 155.2117,-229.7284 152.277,-229.0206"/>
<polygon fill="#191970" stroke="#191970" points="621.5169,-292.3853 631.725,-289.549 621.9762,-285.4004 621.5169,-292.3853"/>
</g>
<!-- Node16 -->
<g id="node10" class="node">
<title>Node16</title>
<g id="a_node10"><a xlink:href="../../d3/ddb/GPUTPCGMTracksToTPCSeeds_8cxx.html" target="_top" xlink:title="/home/travis/build\l/AliceO2Group/AliceO2\l/GPU/GPUTracking/Merger\l/GPUTPCGMTracksToTPCSeeds.cxx">
<polygon fill="none" stroke="#000000" points="821.5,-178.5 821.5,-230.5 1006.5,-230.5 1006.5,-178.5 821.5,-178.5"/>
<text text-anchor="start" x="829.5" y="-218.5" font-family="Helvetica,sans-Serif" font-size="10.00" fill="#000000">/home/travis/build</text>
<text text-anchor="start" x="829.5" y="-207.5" font-family="Helvetica,sans-Serif" font-size="10.00" fill="#000000">/AliceO2Group/AliceO2</text>
<text text-anchor="start" x="829.5" y="-196.5" font-family="Helvetica,sans-Serif" font-size="10.00" fill="#000000">/GPU/GPUTracking/Merger</text>
<text text-anchor="middle" x="914" y="-185.5" font-family="Helvetica,sans-Serif" font-size="10.00" fill="#000000">/GPUTPCGMTracksToTPCSeeds.cxx</text>
</a>
</g>
</g>
<!-- Node8&#45;&gt;Node16 -->
<g id="edge10" class="edge">
<title>Node8&#45;&gt;Node16</title>
<path fill="none" stroke="#191970" d="M774.3914,-263.387C799.614,-252.7481 827.7512,-240.8798 852.1198,-230.6011"/>
<polygon fill="#191970" stroke="#191970" points="772.7349,-260.2871 764.8813,-267.3984 775.4554,-266.7368 772.7349,-260.2871"/>
</g>
<!-- Node17 -->
<g id="node11" class="node">
<title>Node17</title>
<g id="a_node11"><a xlink:href="../../d7/d9f/genEvents_8cxx.html" target="_top" xlink:title="/home/travis/build\l/AliceO2Group/AliceO2\l/GPU/GPUTracking/Standalone\l/qa/genEvents.cxx">
<polygon fill="none" stroke="#000000" points="170.5,-178.5 170.5,-230.5 333.5,-230.5 333.5,-178.5 170.5,-178.5"/>
<text text-anchor="start" x="178.5" y="-218.5" font-family="Helvetica,sans-Serif" font-size="10.00" fill="#000000">/home/travis/build</text>
<text text-anchor="start" x="178.5" y="-207.5" font-family="Helvetica,sans-Serif" font-size="10.00" fill="#000000">/AliceO2Group/AliceO2</text>
<text text-anchor="start" x="178.5" y="-196.5" font-family="Helvetica,sans-Serif" font-size="10.00" fill="#000000">/GPU/GPUTracking/Standalone</text>
<text text-anchor="middle" x="252" y="-185.5" font-family="Helvetica,sans-Serif" font-size="10.00" fill="#000000">/qa/genEvents.cxx</text>
</a>
</g>
</g>
<!-- Node8&#45;&gt;Node17 -->
<g id="edge11" class="edge">
<title>Node8&#45;&gt;Node17</title>
<path fill="none" stroke="#191970" d="M621.9346,-281.4767C549.6965,-270.2293 441.2871,-252.0374 348,-231 343.2774,-229.935 338.4394,-228.7859 333.5678,-227.584"/>
<polygon fill="#191970" stroke="#191970" points="621.4645,-284.9455 631.8824,-283.0172 622.5358,-278.028 621.4645,-284.9455"/>
</g>
<!-- Node10 -->
<g id="node4" class="node">
<title>Node10</title>
<g id="a_node4"><a xlink:href="../../d3/d33/GPUReconstructionHIP_8hip_8cxx.html" target="_top" xlink:title="/home/travis/build\l/AliceO2Group/AliceO2\l/GPU/GPUTracking/Base\l/hip/GPUReconstructionHIP.hip.cxx">
<polygon fill="none" stroke="#000000" points="127,-.5 127,-52.5 311,-52.5 311,-.5 127,-.5"/>
<text text-anchor="start" x="135" y="-40.5" font-family="Helvetica,sans-Serif" font-size="10.00" fill="#000000">/home/travis/build</text>
<text text-anchor="start" x="135" y="-29.5" font-family="Helvetica,sans-Serif" font-size="10.00" fill="#000000">/AliceO2Group/AliceO2</text>
<text text-anchor="start" x="135" y="-18.5" font-family="Helvetica,sans-Serif" font-size="10.00" fill="#000000">/GPU/GPUTracking/Base</text>
<text text-anchor="middle" x="219" y="-7.5" font-family="Helvetica,sans-Serif" font-size="10.00" fill="#000000">/hip/GPUReconstructionHIP.hip.cxx</text>
</a>
</g>
</g>
<!-- Node9&#45;&gt;Node10 -->
<g id="edge3" class="edge">
<title>Node9&#45;&gt;Node10</title>
<path fill="none" stroke="#191970" d="M219,-79.1155C219,-70.2061 219,-60.8475 219,-52.5341"/>
<polygon fill="#191970" stroke="#191970" points="215.5001,-79.2784 219,-89.2784 222.5001,-79.2785 215.5001,-79.2784"/>
</g>
<!-- Node15&#45;&gt;Node9 -->
<g id="edge9" class="edge">
<title>Node15&#45;&gt;Node9</title>
<path fill="none" stroke="#191970" d="M127.0699,-172.7152C143.4946,-162.4929 161.4894,-151.2933 177.1699,-141.5341"/>
<polygon fill="#191970" stroke="#191970" points="124.7719,-170.0229 118.1313,-178.2784 128.4707,-175.9659 124.7719,-170.0229"/>
</g>
</g>
</svg>
