<?xml version="1.0" encoding="UTF-8" standalone="no"?>
<!DOCTYPE svg PUBLIC "-//W3C//DTD SVG 1.1//EN"
 "http://www.w3.org/Graphics/SVG/1.1/DTD/svg11.dtd">
<!-- Generated by graphviz version 2.40.1 (20161225.0304)
 -->
<!-- Title: /home/travis/build/AliceO2Group/AliceO2/Detectors/TOF/reconstruction/include/TOFReconstruction/Encoder.h Pages: 1 -->
<!--zoomable 251 -->
<svg id="main" version="1.1" xmlns="http://www.w3.org/2000/svg" xmlns:xlink="http://www.w3.org/1999/xlink" xml:space="preserve" onload="init(evt)">
<style type="text/css"><![CDATA[
.edge:hover path { stroke: red; }
.edge:hover polygon { stroke: red; fill: red; }
]]></style>
<script type="text/javascript"><![CDATA[
var edges = document.getElementsByTagName('g');
if (edges && edges.length) {
  for (var i=0;i<edges.length;i++) {
    if (edges[i].id.substr(0,4)=='edge') {
      edges[i].setAttribute('class','edge');
    }
  }
}
]]></script>
        <defs>
                <circle id="rim" cx="0" cy="0" r="7"/>
                <circle id="rim2" cx="0" cy="0" r="3.5"/>
                <g id="zoomPlus">
                        <use xlink:href="#rim" fill="#404040">
                                <set attributeName="fill" to="#808080" begin="zoomplus.mouseover" end="zoomplus.mouseout"/>
                        </use>
                        <path d="M-4,0h8M0,-4v8" fill="none" stroke="white" stroke-width="1.5" pointer-events="none"/>
                </g>
                <g id="zoomMin">
                        <use xlink:href="#rim" fill="#404040">
                                <set attributeName="fill" to="#808080" begin="zoomminus.mouseover" end="zoomminus.mouseout"/>
                        </use>
                        <path d="M-4,0h8" fill="none" stroke="white" stroke-width="1.5" pointer-events="none"/>
                </g>
                <g id="dirArrow">
                        <path fill="none" stroke="white" stroke-width="1.5" d="M0,-3.0v7 M-2.5,-0.5L0,-3.0L2.5,-0.5"/>
                </g>
               <g id="resetDef">
                       <use xlink:href="#rim2" fill="#404040">
                               <set attributeName="fill" to="#808080" begin="reset.mouseover" end="reset.mouseout"/>
                       </use>
               </g>
        </defs>

<script type="text/javascript">
var viewWidth = 654;
var viewHeight = 251;
var sectionId = 'dynsection-0';
</script>
<script xlink:href="../../svgpan.js"/>
<svg id="graph" class="graph">
<g id="viewport">
<title>/home/travis/build/AliceO2Group/AliceO2/Detectors/TOF/reconstruction/include/TOFReconstruction/Encoder.h</title>
<!-- Node0 -->
<g id="node1" class="node">
<title>Node0</title>
<polygon fill="#bfbfbf" stroke="#000000" points="121,-179.5 121,-242.5 282,-242.5 282,-179.5 121,-179.5"/>
<text text-anchor="start" x="129" y="-230.5" font-family="Helvetica,sans-Serif" font-size="10.00" fill="#000000">/home/travis/build</text>
<text text-anchor="start" x="129" y="-219.5" font-family="Helvetica,sans-Serif" font-size="10.00" fill="#000000">/AliceO2Group/AliceO2</text>
<text text-anchor="start" x="129" y="-208.5" font-family="Helvetica,sans-Serif" font-size="10.00" fill="#000000">/Detectors/TOF/reconstruction</text>
<text text-anchor="start" x="129" y="-197.5" font-family="Helvetica,sans-Serif" font-size="10.00" fill="#000000">/include/TOFReconstruction</text>
<text text-anchor="middle" x="201.5" y="-186.5" font-family="Helvetica,sans-Serif" font-size="10.00" fill="#000000">/Encoder.h</text>
</g>
<!-- Node1 -->
<g id="node2" class="node">
<title>Node1</title>
<polygon fill="none" stroke="#bfbfbf" points="0,-123.5 0,-142.5 55,-142.5 55,-123.5 0,-123.5"/>
<text text-anchor="middle" x="27.5" y="-130.5" font-family="Helvetica,sans-Serif" font-size="10.00" fill="#000000">fstream</text>
</g>
<!-- Node0&#45;&gt;Node1 -->
<g id="edge1" class="edge">
<title>Node0&#45;&gt;Node1</title>
<path fill="none" stroke="#191970" d="M131.2291,-179.4992C105.7777,-168.09 78.3412,-155.7909 58.0817,-146.7091"/>
<polygon fill="#191970" stroke="#191970" points="59.3097,-143.424 48.7528,-142.5271 56.4462,-149.8115 59.3097,-143.424"/>
</g>
<!-- Node2 -->
<g id="node3" class="node">
<title>Node2</title>
<polygon fill="none" stroke="#bfbfbf" points="73.5,-123.5 73.5,-142.5 117.5,-142.5 117.5,-123.5 73.5,-123.5"/>
<text text-anchor="middle" x="95.5" y="-130.5" font-family="Helvetica,sans-Serif" font-size="10.00" fill="#000000">string</text>
</g>
<!-- Node0&#45;&gt;Node2 -->
<g id="edge2" class="edge">
<title>Node0&#45;&gt;Node2</title>
<path fill="none" stroke="#191970" d="M158.6913,-179.4992C144.2655,-168.8841 128.793,-157.4986 116.7689,-148.6507"/>
<polygon fill="#191970" stroke="#191970" points="118.8161,-145.8117 108.6873,-142.7039 114.6673,-151.4497 118.8161,-145.8117"/>
</g>
<!-- Node3 -->
<g id="node4" class="node">
<title>Node3</title>
<polygon fill="none" stroke="#bfbfbf" points="176.5,-62 176.5,-81 226.5,-81 226.5,-62 176.5,-62"/>
<text text-anchor="middle" x="201.5" y="-69" font-family="Helvetica,sans-Serif" font-size="10.00" fill="#000000">cstdint</text>
</g>
<!-- Node0&#45;&gt;Node3 -->
<g id="edge3" class="edge">
<title>Node0&#45;&gt;Node3</title>
<path fill="none" stroke="#191970" d="M176.3563,-179.3193C166.2837,-162.792 158.3538,-142.0886 164.5,-123 168.5817,-110.3232 177.0676,-98.1274 184.884,-88.7887"/>
<polygon fill="#191970" stroke="#191970" points="187.7039,-90.8844 191.7286,-81.0837 182.4706,-86.2355 187.7039,-90.8844"/>
</g>
<!-- Node4 -->
<g id="node5" class="node">
<title>Node4</title>
<g id="a_node5"><a xlink:href="../../db/d54/DataFormat_8h.html" target="_top" xlink:title="Definition of the TOF raw data format. ">
<polygon fill="none" stroke="#000000" points="173.5,-123.5 173.5,-142.5 341.5,-142.5 341.5,-123.5 173.5,-123.5"/>
<text text-anchor="middle" x="257.5" y="-130.5" font-family="Helvetica,sans-Serif" font-size="10.00" fill="#000000">DataFormatsTOF/DataFormat.h</text>
</a>
</g>
</g>
<!-- Node0&#45;&gt;Node4 -->
<g id="edge4" class="edge">
<title>Node0&#45;&gt;Node4</title>
<path fill="none" stroke="#191970" d="M224.2773,-179.2744C231.2155,-169.6106 238.5972,-159.3289 244.636,-150.9177"/>
<polygon fill="#191970" stroke="#191970" points="247.5882,-152.8071 250.5771,-142.6426 241.9019,-148.7246 247.5882,-152.8071"/>
</g>
<!-- Node5 -->
<g id="node6" class="node">
<title>Node5</title>
<g id="a_node6"><a xlink:href="../../d4/d54/Geo_8h.html" target="_top" xlink:title="TOFBase/Geo.h">
<polygon fill="none" stroke="#000000" points="324,-62 324,-81 415,-81 415,-62 324,-62"/>
<text text-anchor="middle" x="369.5" y="-69" font-family="Helvetica,sans-Serif" font-size="10.00" fill="#000000">TOFBase/Geo.h</text>
</a>
</g>
</g>
<!-- Node0&#45;&gt;Node5 -->
<g id="edge6" class="edge">
<title>Node0&#45;&gt;Node5</title>
<path fill="none" stroke="#191970" d="M282.3308,-189.1185C307.2697,-178.7876 332.798,-163.9657 350.5,-143 362.7685,-128.4695 367.2013,-106.8295 368.7582,-91.1644"/>
<polygon fill="#191970" stroke="#191970" points="372.2628,-91.2167 369.4546,-81.0008 365.2791,-90.7382 372.2628,-91.2167"/>
</g>
<!-- Node8 -->
<g id="node9" class="node">
<title>Node8</title>
<g id="a_node9"><a xlink:href="../../d1/d90/Detectors_2TOF_2base_2include_2TOFBase_2Digit_8h.html" target="_top" xlink:title="TOFBase/Digit.h">
<polygon fill="none" stroke="#000000" points="398,-123.5 398,-142.5 493,-142.5 493,-123.5 398,-123.5"/>
<text text-anchor="middle" x="445.5" y="-130.5" font-family="Helvetica,sans-Serif" font-size="10.00" fill="#000000">TOFBase/Digit.h</text>
</a>
</g>
</g>
<!-- Node0&#45;&gt;Node8 -->
<g id="edge9" class="edge">
<title>Node0&#45;&gt;Node8</title>
<path fill="none" stroke="#191970" d="M282.071,-185.2437C323.5844,-171.973 372.3601,-156.3808 405.7506,-145.7068"/>
<polygon fill="#191970" stroke="#191970" points="407.1348,-148.9389 415.5942,-142.5601 405.0033,-142.2712 407.1348,-148.9389"/>
</g>
<!-- Node4&#45;&gt;Node3 -->
<g id="edge5" class="edge">
<title>Node4&#45;&gt;Node3</title>
<path fill="none" stroke="#191970" d="M248.75,-123.3906C240.3338,-114.1478 227.4203,-99.966 217.219,-88.7628"/>
<polygon fill="#191970" stroke="#191970" points="219.694,-86.2824 210.3734,-81.2449 214.5182,-90.9953 219.694,-86.2824"/>
</g>
<!-- Node6 -->
<g id="node7" class="node">
<title>Node6</title>
<polygon fill="none" stroke="#bfbfbf" points="414,-.5 414,-19.5 473,-19.5 473,-.5 414,-.5"/>
<text text-anchor="middle" x="443.5" y="-7.5" font-family="Helvetica,sans-Serif" font-size="10.00" fill="#000000">Rtypes.h</text>
</g>
<!-- Node5&#45;&gt;Node6 -->
<g id="edge7" class="edge">
<title>Node5&#45;&gt;Node6</title>
<path fill="none" stroke="#191970" d="M381.0625,-61.8906C392.5079,-52.3786 410.2473,-37.6357 423.897,-26.2917"/>
<polygon fill="#191970" stroke="#191970" points="426.3208,-28.8283 431.7745,-19.7449 421.8467,-23.4447 426.3208,-28.8283"/>
</g>
<!-- Node7 -->
<g id="node8" class="node">
<title>Node7</title>
<g id="a_node8"><a xlink:href="../../d4/dc6/LHCConstants_8h.html" target="_top" xlink:title="Header to collect LHC related constants. ">
<polygon fill="none" stroke="#000000" points="205.5,-.5 205.5,-19.5 395.5,-19.5 395.5,-.5 205.5,-.5"/>
<text text-anchor="middle" x="300.5" y="-7.5" font-family="Helvetica,sans-Serif" font-size="10.00" fill="#000000">CommonConstants/LHCConstants.h</text>
</a>
</g>
</g>
<!-- Node5&#45;&gt;Node7 -->
<g id="edge8" class="edge">
<title>Node5&#45;&gt;Node7</title>
<path fill="none" stroke="#191970" d="M358.7188,-61.8906C348.1474,-52.4683 331.8175,-37.9134 319.1397,-26.6137"/>
<polygon fill="#191970" stroke="#191970" points="321.2272,-23.7858 311.4333,-19.7449 316.5696,-29.0114 321.2272,-23.7858"/>
</g>
<!-- Node8&#45;&gt;Node5 -->
<g id="edge12" class="edge">
<title>Node8&#45;&gt;Node5</title>
<path fill="none" stroke="#191970" d="M433.625,-123.3906C421.8703,-113.8786 403.6514,-99.1357 389.6328,-87.7917"/>
<polygon fill="#191970" stroke="#191970" points="391.5178,-84.8146 381.5424,-81.2449 387.1144,-90.2562 391.5178,-84.8146"/>
</g>
<!-- Node8&#45;&gt;Node6 -->
<g id="edge11" class="edge">
<title>Node8&#45;&gt;Node6</title>
<path fill="none" stroke="#191970" d="M445.3431,-123.3484C445.0159,-103.2295 444.2555,-56.4608 443.8205,-29.7098"/>
<polygon fill="#191970" stroke="#191970" points="447.3184,-29.5485 443.6562,-19.6068 440.3193,-29.6624 447.3184,-29.5485"/>
</g>
<!-- Node9 -->
<g id="node10" class="node">
<title>Node9</title>
<polygon fill="none" stroke="#bfbfbf" points="472,-62 472,-81 521,-81 521,-62 472,-62"/>
<text text-anchor="middle" x="496.5" y="-69" font-family="Helvetica,sans-Serif" font-size="10.00" fill="#000000">iosfwd</text>
</g>
<!-- Node8&#45;&gt;Node9 -->
<g id="edge10" class="edge">
<title>Node8&#45;&gt;Node9</title>
<path fill="none" stroke="#191970" d="M453.4688,-123.3906C461.0591,-114.2376 472.6661,-100.2409 481.9132,-89.09"/>
<polygon fill="#191970" stroke="#191970" points="484.7297,-91.1766 488.4189,-81.2449 479.3413,-86.7083 484.7297,-91.1766"/>
</g>
<!-- Node10 -->
<g id="node11" class="node">
<title>Node10</title>
<polygon fill="none" stroke="#bfbfbf" points="539,-56.5 539,-86.5 646,-86.5 646,-56.5 539,-56.5"/>
<text text-anchor="start" x="547" y="-74.5" font-family="Helvetica,sans-Serif" font-size="10.00" fill="#000000">boost/serialization</text>
<text text-anchor="middle" x="592.5" y="-63.5" font-family="Helvetica,sans-Serif" font-size="10.00" fill="#000000">/base_object.hpp</text>
</g>
<!-- Node8&#45;&gt;Node10 -->
<g id="edge13" class="edge">
<title>Node8&#45;&gt;Node10</title>
<path fill="none" stroke="#191970" d="M468.4688,-123.3906C489.4687,-114.6049 521.1352,-101.3567 547.2145,-90.446"/>
<polygon fill="#191970" stroke="#191970" points="548.6654,-93.633 556.5398,-86.5446 545.9637,-87.1754 548.6654,-93.633"/>
</g>
</g>
</svg>
        <g id="navigator" transform="translate(0 0)" fill="#404254">
                <rect fill="#f2f5e9" fill-opacity="0.5" stroke="#606060" stroke-width=".5" x="0" y="0" width="60" height="60"/>
                <use id="zoomplus" xlink:href="#zoomPlus" x="17" y="9" onmousedown="handleZoom(evt,'in')"/>
                <use id="zoomminus" xlink:href="#zoomMin" x="42" y="9" onmousedown="handleZoom(evt,'out')"/>
                <use id="reset" xlink:href="#resetDef" x="30" y="36" onmousedown="handleReset()"/>
                <g id="arrowUp" xlink:href="#dirArrow" transform="translate(30 24)" onmousedown="handlePan(0,-1)">
                  <use xlink:href="#rim" fill="#404040">
                        <set attributeName="fill" to="#808080" begin="arrowUp.mouseover" end="arrowUp.mouseout"/>
                  </use>
                  <path fill="none" stroke="white" stroke-width="1.5" d="M0,-3.0v7 M-2.5,-0.5L0,-3.0L2.5,-0.5"/>
                </g>
                <g id="arrowRight" xlink:href="#dirArrow" transform="rotate(90) translate(36 -43)" onmousedown="handlePan(1,0)">
                  <use xlink:href="#rim" fill="#404040">
                        <set attributeName="fill" to="#808080" begin="arrowRight.mouseover" end="arrowRight.mouseout"/>
                  </use>
                  <path fill="none" stroke="white" stroke-width="1.5" d="M0,-3.0v7 M-2.5,-0.5L0,-3.0L2.5,-0.5"/>
                </g>
                <g id="arrowDown" xlink:href="#dirArrow" transform="rotate(180) translate(-30 -48)" onmousedown="handlePan(0,1)">
                  <use xlink:href="#rim" fill="#404040">
                        <set attributeName="fill" to="#808080" begin="arrowDown.mouseover" end="arrowDown.mouseout"/>
                  </use>
                  <path fill="none" stroke="white" stroke-width="1.5" d="M0,-3.0v7 M-2.5,-0.5L0,-3.0L2.5,-0.5"/>
                </g>
                <g id="arrowLeft" xlink:href="#dirArrow" transform="rotate(270) translate(-36 17)" onmousedown="handlePan(-1,0)">
                  <use xlink:href="#rim" fill="#404040">
                        <set attributeName="fill" to="#808080" begin="arrowLeft.mouseover" end="arrowLeft.mouseout"/>
                  </use>
                  <path fill="none" stroke="white" stroke-width="1.5" d="M0,-3.0v7 M-2.5,-0.5L0,-3.0L2.5,-0.5"/>
                </g>
        </g>
        <svg viewBox="0 0 15 15" width="100%" height="30px" preserveAspectRatio="xMaxYMin meet">
         <g id="arrow_out" transform="scale(0.3 0.3)">
          <a xlink:href="TOF_2reconstruction_2include_2TOFReconstruction_2Encoder_8h__incl_org.svg" target="_base">
           <rect id="button" ry="5" rx="5" y="6" x="6" height="38" width="38"
                fill="#f2f5e9" fill-opacity="0.5" stroke="#606060" stroke-width="1.0"/>
           <path id="arrow"
             d="M 11.500037,31.436501 C 11.940474,20.09759 22.043105,11.32322 32.158766,21.979434 L 37.068811,17.246167 C 37.068811,17.246167 37.088388,32 37.088388,32 L 22.160133,31.978069 C 22.160133,31.978069 26.997745,27.140456 26.997745,27.140456 C 18.528582,18.264221 13.291696,25.230495 11.500037,31.436501 z"
             style="fill:#404040;"/>
          </a>
         </g>
        </svg>
</svg>
