<?xml version="1.0" encoding="UTF-8" standalone="no"?>
<!DOCTYPE svg PUBLIC "-//W3C//DTD SVG 1.1//EN"
 "http://www.w3.org/Graphics/SVG/1.1/DTD/svg11.dtd">
<!-- Generated by graphviz version 2.40.1 (20161225.0304)
 -->
<!-- Title: Foo Pages: 1 -->
<svg width="335pt" height="259pt"
 viewBox="0.00 0.00 335.00 259.00" xmlns="http://www.w3.org/2000/svg" xmlns:xlink="http://www.w3.org/1999/xlink">
<g id="graph0" class="graph" transform="scale(1 1) rotate(0) translate(4 255)">
<title>Foo</title>
<!-- Node3 -->
<g id="node1" class="node">
<title>Node3</title>
<polygon fill="#bfbfbf" stroke="#000000" points="70.5,-.5 70.5,-112.5 203.5,-112.5 203.5,-.5 70.5,-.5"/>
<text text-anchor="middle" x="137" y="-100.5" font-family="Helvetica,sans-Serif" font-size="10.00" fill="#000000">Foo</text>
<polyline fill="none" stroke="#000000" points="70.5,-93.5 203.5,-93.5 "/>
<text text-anchor="middle" x="137" y="-81.5" font-family="Helvetica,sans-Serif" font-size="10.00" fill="#000000"> </text>
<polyline fill="none" stroke="#000000" points="70.5,-74.5 203.5,-74.5 "/>
<text text-anchor="start" x="78.5" y="-62.5" font-family="Helvetica,sans-Serif" font-size="10.00" fill="#000000">+ Foo()</text>
<text text-anchor="start" x="78.5" y="-51.5" font-family="Helvetica,sans-Serif" font-size="10.00" fill="#000000">+ Foo()</text>
<text text-anchor="start" x="78.5" y="-40.5" font-family="Helvetica,sans-Serif" font-size="10.00" fill="#000000">+ serialize()</text>
<text text-anchor="start" x="78.5" y="-29.5" font-family="Helvetica,sans-Serif" font-size="10.00" fill="#000000">+ Foo()</text>
<text text-anchor="start" x="78.5" y="-18.5" font-family="Helvetica,sans-Serif" font-size="10.00" fill="#000000">+ someHiddenMethod()</text>
<text text-anchor="start" x="78.5" y="-7.5" font-family="Helvetica,sans-Serif" font-size="10.00" fill="#000000">+ a()</text>
</g>
<!-- Node4 -->
<g id="node2" class="node">
<title>Node4</title>
<polygon fill="none" stroke="#bfbfbf" points="0,-193.5 0,-250.5 50,-250.5 50,-193.5 0,-193.5"/>
<text text-anchor="middle" x="25" y="-238.5" font-family="Helvetica,sans-Serif" font-size="10.00" fill="#000000">double</text>
<polyline fill="none" stroke="#bfbfbf" points="0,-231.5 50,-231.5 "/>
<text text-anchor="middle" x="25" y="-219.5" font-family="Helvetica,sans-Serif" font-size="10.00" fill="#000000"> </text>
<polyline fill="none" stroke="#bfbfbf" points="0,-212.5 50,-212.5 "/>
<text text-anchor="middle" x="25" y="-200.5" font-family="Helvetica,sans-Serif" font-size="10.00" fill="#000000"> </text>
</g>
<!-- Node4&#45;&gt;Node3 -->
<g id="edge1" class="edge">
<title>Node4&#45;&gt;Node3</title>
<path fill="none" stroke="#404040" d="M32.0851,-193.3824C37.5669,-174.6344 46.3734,-150.1486 59,-131 60.9329,-128.0688 63.001,-125.1673 65.1743,-122.3069"/>
<polygon fill="none" stroke="#404040" points="65.3629,-122.0744 66.0376,-114.8949 72.9244,-112.7564 72.2496,-119.9359 65.3629,-122.0744"/>
<text text-anchor="middle" x="78" y="-150.5" font-family="Helvetica,sans-Serif" font-size="10.00" fill="#000000"> +fBar2</text>
</g>
<!-- Node5 -->
<g id="node3" class="node">
<title>Node5</title>
<g id="a_node3"><a xlink:href="../../d4/dc3/classfloat.html" target="_top" xlink:title="{float\n||}">
<polygon fill="none" stroke="#000000" points="68,-193.5 68,-250.5 106,-250.5 106,-193.5 68,-193.5"/>
<text text-anchor="middle" x="87" y="-238.5" font-family="Helvetica,sans-Serif" font-size="10.00" fill="#000000">float</text>
<polyline fill="none" stroke="#000000" points="68,-231.5 106,-231.5 "/>
<text text-anchor="middle" x="87" y="-219.5" font-family="Helvetica,sans-Serif" font-size="10.00" fill="#000000"> </text>
<polyline fill="none" stroke="#000000" points="68,-212.5 106,-212.5 "/>
<text text-anchor="middle" x="87" y="-200.5" font-family="Helvetica,sans-Serif" font-size="10.00" fill="#000000"> </text>
</a>
</g>
</g>
<!-- Node5&#45;&gt;Node3 -->
<g id="edge2" class="edge">
<title>Node5&#45;&gt;Node3</title>
<path fill="none" stroke="#404040" d="M95.7093,-193.1721C101.456,-174.1507 109.2367,-148.3964 116.4948,-124.3721"/>
<polygon fill="none" stroke="#404040" points="116.5342,-124.2417 114.4404,-117.3412 120.0047,-112.7545 122.0985,-119.6549 116.5342,-124.2417"/>
<text text-anchor="middle" x="122" y="-150.5" font-family="Helvetica,sans-Serif" font-size="10.00" fill="#000000"> +y</text>
</g>
<!-- Node6 -->
<g id="node4" class="node">
<title>Node6</title>
<polygon fill="none" stroke="#bfbfbf" points="124.5,-193.5 124.5,-250.5 153.5,-250.5 153.5,-193.5 124.5,-193.5"/>
<text text-anchor="middle" x="139" y="-238.5" font-family="Helvetica,sans-Serif" font-size="10.00" fill="#000000">int</text>
<polyline fill="none" stroke="#bfbfbf" points="124.5,-231.5 153.5,-231.5 "/>
<text text-anchor="middle" x="139" y="-219.5" font-family="Helvetica,sans-Serif" font-size="10.00" fill="#000000"> </text>
<polyline fill="none" stroke="#bfbfbf" points="124.5,-212.5 153.5,-212.5 "/>
<text text-anchor="middle" x="139" y="-200.5" font-family="Helvetica,sans-Serif" font-size="10.00" fill="#000000"> </text>
</g>
<!-- Node6&#45;&gt;Node3 -->
<g id="edge3" class="edge">
<title>Node6&#45;&gt;Node3</title>
<path fill="none" stroke="#404040" d="M138.3281,-193.1682C138.2046,-187.1641 138.0873,-180.8757 138,-175 137.7589,-158.7711 137.5714,-141.2911 137.4274,-124.8722"/>
<polygon fill="none" stroke="#404040" points="137.4249,-124.5614 133.3754,-118.5947 137.3256,-112.5618 141.3751,-118.5285 137.4249,-124.5614"/>
<text text-anchor="middle" x="155.5" y="-167" font-family="Helvetica,sans-Serif" font-size="10.00" fill="#000000"> +foo</text>
<text text-anchor="middle" x="155.5" y="-156" font-family="Helvetica,sans-Serif" font-size="10.00" fill="#000000">+fBar1</text>
<text text-anchor="middle" x="155.5" y="-145" font-family="Helvetica,sans-Serif" font-size="10.00" fill="#000000">+x</text>
<text text-anchor="middle" x="155.5" y="-134" font-family="Helvetica,sans-Serif" font-size="10.00" fill="#000000">+y</text>
</g>
<!-- Node7 -->
<g id="node5" class="node">
<title>Node7</title>
<polygon fill="none" stroke="#bfbfbf" points="173,-193.5 173,-250.5 217,-250.5 217,-193.5 173,-193.5"/>
<text text-anchor="middle" x="195" y="-238.5" font-family="Helvetica,sans-Serif" font-size="10.00" fill="#000000">string</text>
<polyline fill="none" stroke="#bfbfbf" points="173,-231.5 217,-231.5 "/>
<text text-anchor="middle" x="195" y="-219.5" font-family="Helvetica,sans-Serif" font-size="10.00" fill="#000000"> </text>
<polyline fill="none" stroke="#bfbfbf" points="173,-212.5 217,-212.5 "/>
<text text-anchor="middle" x="195" y="-200.5" font-family="Helvetica,sans-Serif" font-size="10.00" fill="#000000"> </text>
</g>
<!-- Node7&#45;&gt;Node3 -->
<g id="edge4" class="edge">
<title>Node7&#45;&gt;Node3</title>
<path fill="none" stroke="#404040" d="M189.6887,-193.2604C185.9375,-175.1204 180.2839,-151.3534 173,-131 172.2014,-128.7684 171.3561,-126.515 170.4736,-124.2518"/>
<polygon fill="none" stroke="#404040" points="170.3712,-124.0034 164.3848,-119.9829 165.7936,-112.9107 171.7799,-116.9312 170.3712,-124.0034"/>
<text text-anchor="middle" x="204" y="-150.5" font-family="Helvetica,sans-Serif" font-size="10.00" fill="#000000"> +fBar4</text>
</g>
<!-- Node8 -->
<g id="node6" class="node">
<title>Node8</title>
<polygon fill="none" stroke="#bfbfbf" points="235,-193.5 235,-250.5 327,-250.5 327,-193.5 235,-193.5"/>
<text text-anchor="middle" x="281" y="-238.5" font-family="Helvetica,sans-Serif" font-size="10.00" fill="#000000">vector&lt; float &gt;</text>
<polyline fill="none" stroke="#bfbfbf" points="235,-231.5 327,-231.5 "/>
<text text-anchor="middle" x="281" y="-219.5" font-family="Helvetica,sans-Serif" font-size="10.00" fill="#000000"> </text>
<polyline fill="none" stroke="#bfbfbf" points="235,-212.5 327,-212.5 "/>
<text text-anchor="middle" x="281" y="-200.5" font-family="Helvetica,sans-Serif" font-size="10.00" fill="#000000"> </text>
</g>
<!-- Node8&#45;&gt;Node3 -->
<g id="edge5" class="edge">
<title>Node8&#45;&gt;Node3</title>
<path fill="none" stroke="#404040" d="M267.2312,-193.277C257.4627,-174.4844 243.2373,-149.9886 227,-131 222.5242,-125.7658 217.6524,-120.6095 212.5686,-115.6025"/>
<polygon fill="none" stroke="#404040" points="212.5523,-115.587 205.4462,-114.3608 203.8449,-107.3297 210.951,-108.5559 212.5523,-115.587"/>
<text text-anchor="middle" x="275" y="-150.5" font-family="Helvetica,sans-Serif" font-size="10.00" fill="#000000"> +fBar3</text>
</g>
</g>
</svg>
