<?xml version="1.0" encoding="UTF-8" standalone="no"?>
<!DOCTYPE svg PUBLIC "-//W3C//DTD SVG 1.1//EN"
 "http://www.w3.org/Graphics/SVG/1.1/DTD/svg11.dtd">
<!-- Generated by graphviz version 2.40.1 (20161225.0304)
 -->
<!-- Title: /home/travis/build/AliceO2Group/AliceO2/Detectors/Raw/src/rawfileCheck.cxx Pages: 1 -->
<svg width="723pt" height="218pt"
 viewBox="0.00 0.00 722.50 218.00" xmlns="http://www.w3.org/2000/svg" xmlns:xlink="http://www.w3.org/1999/xlink">
<g id="graph0" class="graph" transform="scale(1 1) rotate(0) translate(4 214)">
<title>/home/travis/build/AliceO2Group/AliceO2/Detectors/Raw/src/rawfileCheck.cxx</title>
<!-- Node0 -->
<g id="node1" class="node">
<title>Node0</title>
<polygon fill="#bfbfbf" stroke="#000000" points="294.5,-168.5 294.5,-209.5 488.5,-209.5 488.5,-168.5 294.5,-168.5"/>
<text text-anchor="start" x="302.5" y="-197.5" font-family="Helvetica,sans-Serif" font-size="10.00" fill="#000000">/home/travis/build</text>
<text text-anchor="start" x="302.5" y="-186.5" font-family="Helvetica,sans-Serif" font-size="10.00" fill="#000000">/AliceO2Group/AliceO2</text>
<text text-anchor="middle" x="391.5" y="-175.5" font-family="Helvetica,sans-Serif" font-size="10.00" fill="#000000">/Detectors/Raw/src/rawfileCheck.cxx</text>
</g>
<!-- Node1 -->
<g id="node2" class="node">
<title>Node1</title>
<g id="a_node2"><a xlink:href="../../de/da2/Raw_2include_2DetectorsRaw_2RawFileReader_8h.html" target="_top" xlink:title="DetectorsRaw/RawFileReader.h">
<polygon fill="none" stroke="#000000" points="162,-112.5 162,-131.5 329,-131.5 329,-112.5 162,-112.5"/>
<text text-anchor="middle" x="245.5" y="-119.5" font-family="Helvetica,sans-Serif" font-size="10.00" fill="#000000">DetectorsRaw/RawFileReader.h</text>
</a>
</g>
</g>
<!-- Node0&#45;&gt;Node1 -->
<g id="edge1" class="edge">
<title>Node0&#45;&gt;Node1</title>
<path fill="none" stroke="#191970" d="M346.5039,-168.3511C323.5027,-157.7958 296.1297,-145.2342 275.6855,-135.8523"/>
<polygon fill="#191970" stroke="#191970" points="277.087,-132.6445 266.5385,-131.6546 274.1673,-139.0066 277.087,-132.6445"/>
</g>
<!-- Node4 -->
<g id="node5" class="node">
<title>Node4</title>
<polygon fill="none" stroke="#bfbfbf" points="0,-56.5 0,-75.5 47,-75.5 47,-56.5 0,-56.5"/>
<text text-anchor="middle" x="23.5" y="-63.5" font-family="Helvetica,sans-Serif" font-size="10.00" fill="#000000">vector</text>
</g>
<!-- Node0&#45;&gt;Node4 -->
<g id="edge13" class="edge">
<title>Node0&#45;&gt;Node4</title>
<path fill="none" stroke="#191970" d="M294.437,-171.1508C250.6701,-161.7356 198.7599,-148.6457 153.5,-132 115.2049,-117.9158 73.5908,-95.3988 48.0225,-80.654"/>
<polygon fill="#191970" stroke="#191970" points="49.7658,-77.619 39.3644,-75.6033 46.2386,-83.6654 49.7658,-77.619"/>
</g>
<!-- Node5 -->
<g id="node6" class="node">
<title>Node5</title>
<polygon fill="none" stroke="#bfbfbf" points="500.5,-56.5 500.5,-75.5 544.5,-75.5 544.5,-56.5 500.5,-56.5"/>
<text text-anchor="middle" x="522.5" y="-63.5" font-family="Helvetica,sans-Serif" font-size="10.00" fill="#000000">string</text>
</g>
<!-- Node0&#45;&gt;Node5 -->
<g id="edge12" class="edge">
<title>Node0&#45;&gt;Node5</title>
<path fill="none" stroke="#191970" d="M379.521,-168.4522C371.5199,-151.742 364.4638,-128.3379 376.5,-112 406.7043,-71.0009 437.4232,-90.0341 490.441,-76.3224"/>
<polygon fill="#191970" stroke="#191970" points="491.6091,-79.6279 500.2366,-73.4784 489.6573,-72.9055 491.6091,-79.6279"/>
</g>
<!-- Node9 -->
<g id="node10" class="node">
<title>Node9</title>
<polygon fill="none" stroke="#bfbfbf" points="385,-112.5 385,-131.5 468,-131.5 468,-112.5 385,-112.5"/>
<text text-anchor="middle" x="426.5" y="-119.5" font-family="Helvetica,sans-Serif" font-size="10.00" fill="#000000">TStopwatch.h</text>
</g>
<!-- Node0&#45;&gt;Node9 -->
<g id="edge9" class="edge">
<title>Node0&#45;&gt;Node9</title>
<path fill="none" stroke="#191970" d="M402.3824,-168.168C406.9401,-159.4433 412.2001,-149.374 416.6425,-140.87"/>
<polygon fill="#191970" stroke="#191970" points="419.8628,-142.2646 421.3908,-131.7805 413.6583,-139.0234 419.8628,-142.2646"/>
</g>
<!-- Node10 -->
<g id="node11" class="node">
<title>Node10</title>
<polygon fill="none" stroke="#bfbfbf" points="486.5,-112.5 486.5,-131.5 636.5,-131.5 636.5,-112.5 486.5,-112.5"/>
<text text-anchor="middle" x="561.5" y="-119.5" font-family="Helvetica,sans-Serif" font-size="10.00" fill="#000000">boost/program_options.hpp</text>
</g>
<!-- Node0&#45;&gt;Node10 -->
<g id="edge10" class="edge">
<title>Node0&#45;&gt;Node10</title>
<path fill="none" stroke="#191970" d="M443.8928,-168.3511C471.1596,-157.6047 503.7031,-144.7788 527.6371,-135.346"/>
<polygon fill="#191970" stroke="#191970" points="528.983,-138.5776 537.0032,-131.6546 526.4163,-132.0651 528.983,-138.5776"/>
</g>
<!-- Node11 -->
<g id="node12" class="node">
<title>Node11</title>
<polygon fill="none" stroke="#bfbfbf" points="654.5,-112.5 654.5,-131.5 714.5,-131.5 714.5,-112.5 654.5,-112.5"/>
<text text-anchor="middle" x="684.5" y="-119.5" font-family="Helvetica,sans-Serif" font-size="10.00" fill="#000000">iostream</text>
</g>
<!-- Node0&#45;&gt;Node11 -->
<g id="edge11" class="edge">
<title>Node0&#45;&gt;Node11</title>
<path fill="none" stroke="#191970" d="M486.0441,-168.4963C531.2914,-158.5126 586.4622,-146.0927 644.237,-132.2577"/>
<polygon fill="#191970" stroke="#191970" points="645.3832,-135.582 654.2888,-129.8426 643.7478,-128.7757 645.3832,-135.582"/>
</g>
<!-- Node2 -->
<g id="node3" class="node">
<title>Node2</title>
<polygon fill="none" stroke="#bfbfbf" points="65.5,-56.5 65.5,-75.5 111.5,-75.5 111.5,-56.5 65.5,-56.5"/>
<text text-anchor="middle" x="88.5" y="-63.5" font-family="Helvetica,sans-Serif" font-size="10.00" fill="#000000">cstdio</text>
</g>
<!-- Node1&#45;&gt;Node2 -->
<g id="edge2" class="edge">
<title>Node1&#45;&gt;Node2</title>
<path fill="none" stroke="#191970" d="M218.5107,-112.3733C191.5321,-102.7503 150.0204,-87.9436 121.1899,-77.6601"/>
<polygon fill="#191970" stroke="#191970" points="122.1604,-74.2903 111.5657,-74.2273 119.8086,-80.8835 122.1604,-74.2903"/>
</g>
<!-- Node3 -->
<g id="node4" class="node">
<title>Node3</title>
<polygon fill="none" stroke="#bfbfbf" points="130,-56.5 130,-75.5 223,-75.5 223,-56.5 130,-56.5"/>
<text text-anchor="middle" x="176.5" y="-63.5" font-family="Helvetica,sans-Serif" font-size="10.00" fill="#000000">unordered_map</text>
</g>
<!-- Node1&#45;&gt;Node3 -->
<g id="edge3" class="edge">
<title>Node1&#45;&gt;Node3</title>
<path fill="none" stroke="#191970" d="M233.4811,-112.2455C223.2902,-103.9746 208.4638,-91.9416 196.4893,-82.2232"/>
<polygon fill="#191970" stroke="#191970" points="198.3514,-79.2268 188.3812,-75.6427 193.9402,-84.662 198.3514,-79.2268"/>
</g>
<!-- Node1&#45;&gt;Node4 -->
<g id="edge4" class="edge">
<title>Node1&#45;&gt;Node4</title>
<path fill="none" stroke="#191970" d="M203.2911,-112.4341C166.9755,-104.0454 112.9775,-91.1972 56.9826,-76.0243"/>
<polygon fill="#191970" stroke="#191970" points="57.8162,-72.6239 47.2475,-73.3681 55.9735,-79.377 57.8162,-72.6239"/>
</g>
<!-- Node1&#45;&gt;Node5 -->
<g id="edge5" class="edge">
<title>Node1&#45;&gt;Node5</title>
<path fill="none" stroke="#191970" d="M310.0037,-112.4821C357.8049,-104.8581 424.6442,-93.004 490.5992,-76.2748"/>
<polygon fill="#191970" stroke="#191970" points="491.5103,-79.6544 500.3215,-73.7711 489.7646,-72.8756 491.5103,-79.6544"/>
</g>
<!-- Node6 -->
<g id="node7" class="node">
<title>Node6</title>
<g id="a_node7"><a xlink:href="../../d4/d78/DataFormats_2Headers_2include_2Headers_2RAWDataHeader_8h.html" target="_top" xlink:title="Headers/RAWDataHeader.h">
<polygon fill="none" stroke="#000000" points="241,-56.5 241,-75.5 390,-75.5 390,-56.5 241,-56.5"/>
<text text-anchor="middle" x="315.5" y="-63.5" font-family="Helvetica,sans-Serif" font-size="10.00" fill="#000000">Headers/RAWDataHeader.h</text>
</a>
</g>
</g>
<!-- Node1&#45;&gt;Node6 -->
<g id="edge6" class="edge">
<title>Node1&#45;&gt;Node6</title>
<path fill="none" stroke="#191970" d="M257.6931,-112.2455C268.1321,-103.8943 283.3655,-91.7076 295.574,-81.9408"/>
<polygon fill="#191970" stroke="#191970" points="297.8244,-84.6227 303.4467,-75.6427 293.4515,-79.1566 297.8244,-84.6227"/>
</g>
<!-- Node8 -->
<g id="node9" class="node">
<title>Node8</title>
<polygon fill="none" stroke="#bfbfbf" points="408,-56.5 408,-75.5 483,-75.5 483,-56.5 408,-56.5"/>
<text text-anchor="middle" x="445.5" y="-63.5" font-family="Helvetica,sans-Serif" font-size="10.00" fill="#000000">FairLogger.h</text>
</g>
<!-- Node1&#45;&gt;Node8 -->
<g id="edge8" class="edge">
<title>Node1&#45;&gt;Node8</title>
<path fill="none" stroke="#191970" d="M279.8812,-112.3733C313.5701,-102.9404 365.0482,-88.5265 401.6618,-78.2747"/>
<polygon fill="#191970" stroke="#191970" points="402.8815,-81.5679 411.5674,-75.5011 400.994,-74.8271 402.8815,-81.5679"/>
</g>
<!-- Node7 -->
<g id="node8" class="node">
<title>Node7</title>
<polygon fill="none" stroke="#bfbfbf" points="290.5,-.5 290.5,-19.5 340.5,-19.5 340.5,-.5 290.5,-.5"/>
<text text-anchor="middle" x="315.5" y="-7.5" font-family="Helvetica,sans-Serif" font-size="10.00" fill="#000000">cstdint</text>
</g>
<!-- Node6&#45;&gt;Node7 -->
<g id="edge7" class="edge">
<title>Node6&#45;&gt;Node7</title>
<path fill="none" stroke="#191970" d="M315.5,-56.2455C315.5,-48.9382 315.5,-38.6944 315.5,-29.7046"/>
<polygon fill="#191970" stroke="#191970" points="319.0001,-29.6426 315.5,-19.6427 312.0001,-29.6427 319.0001,-29.6426"/>
</g>
</g>
</svg>
