<?xml version="1.0" encoding="UTF-8" standalone="no"?>
<!DOCTYPE svg PUBLIC "-//W3C//DTD SVG 1.1//EN"
 "http://www.w3.org/Graphics/SVG/1.1/DTD/svg11.dtd">
<!-- Generated by graphviz version 2.40.1 (20161225.0304)
 -->
<!-- Title: /home/travis/build/AliceO2Group/AliceO2/Detectors/CPV/simulation/src/DigitizerTask.cxx Pages: 1 -->
<!--zoomable 564 -->
<svg id="main" version="1.1" xmlns="http://www.w3.org/2000/svg" xmlns:xlink="http://www.w3.org/1999/xlink" xml:space="preserve" onload="init(evt)">
<style type="text/css"><![CDATA[
.edge:hover path { stroke: red; }
.edge:hover polygon { stroke: red; fill: red; }
]]></style>
<script type="text/javascript"><![CDATA[
var edges = document.getElementsByTagName('g');
if (edges && edges.length) {
  for (var i=0;i<edges.length;i++) {
    if (edges[i].id.substr(0,4)=='edge') {
      edges[i].setAttribute('class','edge');
    }
  }
}
]]></script>
        <defs>
                <circle id="rim" cx="0" cy="0" r="7"/>
                <circle id="rim2" cx="0" cy="0" r="3.5"/>
                <g id="zoomPlus">
                        <use xlink:href="#rim" fill="#404040">
                                <set attributeName="fill" to="#808080" begin="zoomplus.mouseover" end="zoomplus.mouseout"/>
                        </use>
                        <path d="M-4,0h8M0,-4v8" fill="none" stroke="white" stroke-width="1.5" pointer-events="none"/>
                </g>
                <g id="zoomMin">
                        <use xlink:href="#rim" fill="#404040">
                                <set attributeName="fill" to="#808080" begin="zoomminus.mouseover" end="zoomminus.mouseout"/>
                        </use>
                        <path d="M-4,0h8" fill="none" stroke="white" stroke-width="1.5" pointer-events="none"/>
                </g>
                <g id="dirArrow">
                        <path fill="none" stroke="white" stroke-width="1.5" d="M0,-3.0v7 M-2.5,-0.5L0,-3.0L2.5,-0.5"/>
                </g>
               <g id="resetDef">
                       <use xlink:href="#rim2" fill="#404040">
                               <set attributeName="fill" to="#808080" begin="reset.mouseover" end="reset.mouseout"/>
                       </use>
               </g>
        </defs>

<script type="text/javascript">
var viewWidth = 2011;
var viewHeight = 564;
var sectionId = 'dynsection-0';
</script>
<script xlink:href="../../svgpan.js"/>
<svg id="graph" class="graph">
<g id="viewport">
<title>/home/travis/build/AliceO2Group/AliceO2/Detectors/CPV/simulation/src/DigitizerTask.cxx</title>
<!-- Node0 -->
<g id="node1" class="node">
<title>Node0</title>
<polygon fill="#bfbfbf" stroke="#000000" points="663.5,-503.5 663.5,-555.5 807.5,-555.5 807.5,-503.5 663.5,-503.5"/>
<text text-anchor="start" x="671.5" y="-543.5" font-family="Helvetica,sans-Serif" font-size="10.00" fill="#000000">/home/travis/build</text>
<text text-anchor="start" x="671.5" y="-532.5" font-family="Helvetica,sans-Serif" font-size="10.00" fill="#000000">/AliceO2Group/AliceO2</text>
<text text-anchor="start" x="671.5" y="-521.5" font-family="Helvetica,sans-Serif" font-size="10.00" fill="#000000">/Detectors/CPV/simulation</text>
<text text-anchor="middle" x="735.5" y="-510.5" font-family="Helvetica,sans-Serif" font-size="10.00" fill="#000000">/src/DigitizerTask.cxx</text>
</g>
<!-- Node1 -->
<g id="node2" class="node">
<title>Node1</title>
<polygon fill="none" stroke="#bfbfbf" points="389.5,-447.5 389.5,-466.5 449.5,-466.5 449.5,-447.5 389.5,-447.5"/>
<text text-anchor="middle" x="419.5" y="-454.5" font-family="Helvetica,sans-Serif" font-size="10.00" fill="#000000">iostream</text>
</g>
<!-- Node0&#45;&gt;Node1 -->
<g id="edge1" class="edge">
<title>Node0&#45;&gt;Node1</title>
<path fill="none" stroke="#191970" d="M663.3993,-512.9579C600.3453,-498.4914 511.0681,-478.0085 459.8465,-466.2567"/>
<polygon fill="#191970" stroke="#191970" points="460.3524,-462.7819 449.8229,-463.957 458.787,-469.6046 460.3524,-462.7819"/>
</g>
<!-- Node2 -->
<g id="node3" class="node">
<title>Node2</title>
<g id="a_node3"><a xlink:href="../../d7/dff/CPV_2simulation_2include_2CPVSimulation_2DigitizerTask_8h.html" target="_top" xlink:title="CPVSimulation/DigitizerTask.h">
<polygon fill="none" stroke="#000000" points="543.5,-447.5 543.5,-466.5 707.5,-466.5 707.5,-447.5 543.5,-447.5"/>
<text text-anchor="middle" x="625.5" y="-454.5" font-family="Helvetica,sans-Serif" font-size="10.00" fill="#000000">CPVSimulation/DigitizerTask.h</text>
</a>
</g>
</g>
<!-- Node0&#45;&gt;Node2 -->
<g id="edge2" class="edge">
<title>Node0&#45;&gt;Node2</title>
<path fill="none" stroke="#191970" d="M695.7875,-503.3258C679.8353,-492.8119 662.0194,-481.0696 648.3158,-472.0377"/>
<polygon fill="#191970" stroke="#191970" points="650.2411,-469.1148 639.9654,-466.534 646.3889,-474.9595 650.2411,-469.1148"/>
</g>
<!-- Node3 -->
<g id="node4" class="node">
<title>Node3</title>
<polygon fill="none" stroke="#bfbfbf" points="422,-391.5 422,-410.5 487,-410.5 487,-391.5 422,-391.5"/>
<text text-anchor="middle" x="454.5" y="-398.5" font-family="Helvetica,sans-Serif" font-size="10.00" fill="#000000">FairTask.h</text>
</g>
<!-- Node0&#45;&gt;Node3 -->
<g id="edge55" class="edge">
<title>Node0&#45;&gt;Node3</title>
<path fill="none" stroke="#191970" d="M663.3725,-523.1053C614.1506,-515.8217 549.4378,-500.2549 501.5,-467 484.4086,-455.1435 471.3802,-434.9627 463.4237,-420.0305"/>
<polygon fill="#191970" stroke="#191970" points="466.3531,-418.0645 458.7381,-410.6981 460.0973,-421.2054 466.3531,-418.0645"/>
</g>
<!-- Node4 -->
<g id="node5" class="node">
<title>Node4</title>
<polygon fill="none" stroke="#bfbfbf" points="0,-73 0,-92 59,-92 59,-73 0,-73"/>
<text text-anchor="middle" x="29.5" y="-80" font-family="Helvetica,sans-Serif" font-size="10.00" fill="#000000">Rtypes.h</text>
</g>
<!-- Node0&#45;&gt;Node4 -->
<g id="edge56" class="edge">
<title>Node0&#45;&gt;Node4</title>
<path fill="none" stroke="#191970" d="M663.2698,-514.6312C613.3546,-502.9842 552.7793,-485.6704 534.5,-467 513.1455,-445.1886 515.5,-431.5246 515.5,-401 515.5,-401 515.5,-401 515.5,-205.5 515.5,-103.3345 165.884,-128.8893 68.5,-98 66.2147,-97.2751 63.8725,-96.4805 61.5258,-95.646"/>
<polygon fill="#191970" stroke="#191970" points="62.58,-92.3034 51.9878,-92.0679 60.1213,-98.8574 62.58,-92.3034"/>
</g>
<!-- Node5 -->
<g id="node6" class="node">
<title>Node5</title>
<g id="a_node6"><a xlink:href="../../db/dd0/Detectors_2CPV_2base_2include_2CPVBase_2Hit_8h.html" target="_top" xlink:title="CPVBase/Hit.h">
<polygon fill="none" stroke="#000000" points="686.5,-263 686.5,-282 772.5,-282 772.5,-263 686.5,-263"/>
<text text-anchor="middle" x="729.5" y="-270" font-family="Helvetica,sans-Serif" font-size="10.00" fill="#000000">CPVBase/Hit.h</text>
</a>
</g>
</g>
<!-- Node0&#45;&gt;Node5 -->
<g id="edge51" class="edge">
<title>Node0&#45;&gt;Node5</title>
<path fill="none" stroke="#191970" d="M734.8917,-503.4432C733.6887,-451.9162 731.0298,-338.0271 729.9596,-292.1848"/>
<polygon fill="#191970" stroke="#191970" points="733.4561,-291.991 729.7236,-282.0755 726.458,-292.1545 733.4561,-291.991"/>
</g>
<!-- Node25 -->
<g id="node26" class="node">
<title>Node25</title>
<g id="a_node26"><a xlink:href="../../d4/d37/CPV_2simulation_2include_2CPVSimulation_2Digitizer_8h.html" target="_top" xlink:title="CPVSimulation/Digitizer.h">
<polygon fill="none" stroke="#000000" points="796,-391.5 796,-410.5 937,-410.5 937,-391.5 796,-391.5"/>
<text text-anchor="middle" x="866.5" y="-398.5" font-family="Helvetica,sans-Serif" font-size="10.00" fill="#000000">CPVSimulation/Digitizer.h</text>
</a>
</g>
</g>
<!-- Node0&#45;&gt;Node25 -->
<g id="edge52" class="edge">
<title>Node0&#45;&gt;Node25</title>
<path fill="none" stroke="#191970" d="M762.0098,-503.4961C788.1114,-477.8926 827.2009,-439.5491 849.4294,-417.7448"/>
<polygon fill="#191970" stroke="#191970" points="852.1128,-420.0154 856.8007,-410.5142 847.2109,-415.0182 852.1128,-420.0154"/>
</g>
<!-- Node30 -->
<g id="node31" class="node">
<title>Node30</title>
<g id="a_node31"><a xlink:href="../../de/ddd/CPV_2base_2include_2CPVBase_2Geometry_8h.html" target="_top" xlink:title="CPVBase/Geometry.h">
<polygon fill="none" stroke="#000000" points="1745,-330 1745,-349 1864,-349 1864,-330 1745,-330"/>
<text text-anchor="middle" x="1804.5" y="-337" font-family="Helvetica,sans-Serif" font-size="10.00" fill="#000000">CPVBase/Geometry.h</text>
</a>
</g>
</g>
<!-- Node0&#45;&gt;Node30 -->
<g id="edge50" class="edge">
<title>Node0&#45;&gt;Node30</title>
<path fill="none" stroke="#191970" d="M802.6969,-503.494C852.4765,-485.1749 922.3408,-461.431 985.5,-447 1258.7936,-384.5564 1592.2637,-354.7948 1734.6524,-344.2134"/>
<polygon fill="#191970" stroke="#191970" points="1735.2626,-347.6781 1744.9793,-343.4548 1734.7497,-340.6969 1735.2626,-347.6781"/>
</g>
<!-- Node43 -->
<g id="node44" class="node">
<title>Node43</title>
<polygon fill="none" stroke="#bfbfbf" points="994,-447.5 994,-466.5 1069,-466.5 1069,-447.5 994,-447.5"/>
<text text-anchor="middle" x="1031.5" y="-454.5" font-family="Helvetica,sans-Serif" font-size="10.00" fill="#000000">FairLogger.h</text>
</g>
<!-- Node0&#45;&gt;Node43 -->
<g id="edge53" class="edge">
<title>Node0&#45;&gt;Node43</title>
<path fill="none" stroke="#191970" d="M807.5312,-511.8572C862.4896,-498.3961 936.623,-480.2385 984.2524,-468.5725"/>
<polygon fill="#191970" stroke="#191970" points="985.1171,-471.9642 993.9973,-466.1856 983.4517,-465.1652 985.1171,-471.9642"/>
</g>
<!-- Node44 -->
<g id="node45" class="node">
<title>Node44</title>
<polygon fill="none" stroke="#bfbfbf" points="1086.5,-447.5 1086.5,-466.5 1192.5,-466.5 1192.5,-447.5 1086.5,-447.5"/>
<text text-anchor="middle" x="1139.5" y="-454.5" font-family="Helvetica,sans-Serif" font-size="10.00" fill="#000000">FairRootManager.h</text>
</g>
<!-- Node0&#45;&gt;Node44 -->
<g id="edge54" class="edge">
<title>Node0&#45;&gt;Node44</title>
<path fill="none" stroke="#191970" d="M807.7271,-516.5385C884.1374,-502.8262 1003.5095,-481.4042 1076.3069,-468.3403"/>
<polygon fill="#191970" stroke="#191970" points="1077.036,-471.7655 1086.2605,-466.5541 1075.7995,-464.8756 1077.036,-471.7655"/>
</g>
<!-- Node2&#45;&gt;Node3 -->
<g id="edge3" class="edge">
<title>Node2&#45;&gt;Node3</title>
<path fill="none" stroke="#191970" d="M596.1041,-447.3733C567.6693,-438.0613 524.4123,-423.8953 493.1919,-413.671"/>
<polygon fill="#191970" stroke="#191970" points="494.105,-410.2872 483.5124,-410.5011 491.9264,-416.9396 494.105,-410.2872"/>
</g>
<!-- Node2&#45;&gt;Node4 -->
<g id="edge4" class="edge">
<title>Node2&#45;&gt;Node4</title>
<path fill="none" stroke="#191970" d="M618.6228,-447.4843C605.3503,-428.1531 577.5,-382.4698 577.5,-339.5 577.5,-339.5 577.5,-339.5 577.5,-205.5 577.5,-167.2255 562.5476,-153.3078 529.5,-134 440.7764,-82.1638 168.5944,-121.2373 68.5,-98 65.6389,-97.3358 62.7118,-96.4964 59.8105,-95.5535"/>
<polygon fill="#191970" stroke="#191970" points="60.7726,-92.1792 50.1785,-92.053 58.3816,-98.7582 60.7726,-92.1792"/>
</g>
<!-- Node2&#45;&gt;Node5 -->
<g id="edge5" class="edge">
<title>Node2&#45;&gt;Node5</title>
<path fill="none" stroke="#191970" d="M630.9451,-447.3402C647.4425,-418.0732 697.0801,-330.0142 718.9535,-291.2099"/>
<polygon fill="#191970" stroke="#191970" points="722.2473,-292.4942 724.1088,-282.0641 716.1494,-289.0568 722.2473,-292.4942"/>
</g>
<!-- Node2&#45;&gt;Node25 -->
<g id="edge26" class="edge">
<title>Node2&#45;&gt;Node25</title>
<path fill="none" stroke="#191970" d="M666.6555,-447.4369C707.8142,-437.8731 771.205,-423.1432 815.5242,-412.845"/>
<polygon fill="#191970" stroke="#191970" points="816.5659,-416.1963 825.5142,-410.5237 814.9815,-409.3779 816.5659,-416.1963"/>
</g>
<!-- Node6 -->
<g id="node7" class="node">
<title>Node6</title>
<g id="a_node7"><a xlink:href="../../d4/d25/BaseHits_8h.html" target="_top" xlink:title="SimulationDataFormat\l/BaseHits.h">
<polygon fill="none" stroke="#000000" points="666,-190.5 666,-220.5 793,-220.5 793,-190.5 666,-190.5"/>
<text text-anchor="start" x="674" y="-208.5" font-family="Helvetica,sans-Serif" font-size="10.00" fill="#000000">SimulationDataFormat</text>
<text text-anchor="middle" x="729.5" y="-197.5" font-family="Helvetica,sans-Serif" font-size="10.00" fill="#000000">/BaseHits.h</text>
</a>
</g>
</g>
<!-- Node5&#45;&gt;Node6 -->
<g id="edge6" class="edge">
<title>Node5&#45;&gt;Node6</title>
<path fill="none" stroke="#191970" d="M729.5,-262.9005C729.5,-254.5099 729.5,-241.9451 729.5,-230.7085"/>
<polygon fill="#191970" stroke="#191970" points="733.0001,-230.5217 729.5,-220.5218 726.0001,-230.5218 733.0001,-230.5217"/>
</g>
<!-- Node18 -->
<g id="node19" class="node">
<title>Node18</title>
<g id="a_node19"><a xlink:href="../../d0/d91/ShmAllocator_8h.html" target="_top" xlink:title="CommonUtils/ShmAllocator.h">
<polygon fill="none" stroke="#000000" points="964.5,-196 964.5,-215 1124.5,-215 1124.5,-196 964.5,-196"/>
<text text-anchor="middle" x="1044.5" y="-203" font-family="Helvetica,sans-Serif" font-size="10.00" fill="#000000">CommonUtils/ShmAllocator.h</text>
</a>
</g>
</g>
<!-- Node5&#45;&gt;Node18 -->
<g id="edge19" class="edge">
<title>Node5&#45;&gt;Node18</title>
<path fill="none" stroke="#191970" d="M760.4812,-262.9296C767.6763,-260.8491 775.3285,-258.7497 782.5,-257 819.6912,-247.9261 917.9497,-229.1239 982.9969,-216.9233"/>
<polygon fill="#191970" stroke="#191970" points="983.9521,-220.3053 993.137,-215.0243 982.6636,-213.4249 983.9521,-220.3053"/>
</g>
<!-- Node7 -->
<g id="node8" class="node">
<title>Node7</title>
<g id="a_node8"><a xlink:href="../../dd/d76/Cartesian3D_8h.html" target="_top" xlink:title="MathUtils/Cartesian3D.h">
<polygon fill="none" stroke="#000000" points="662,-134.5 662,-153.5 797,-153.5 797,-134.5 662,-134.5"/>
<text text-anchor="middle" x="729.5" y="-141.5" font-family="Helvetica,sans-Serif" font-size="10.00" fill="#000000">MathUtils/Cartesian3D.h</text>
</a>
</g>
</g>
<!-- Node6&#45;&gt;Node7 -->
<g id="edge7" class="edge">
<title>Node6&#45;&gt;Node7</title>
<path fill="none" stroke="#191970" d="M729.5,-190.2977C729.5,-182.3834 729.5,-172.6043 729.5,-164.0759"/>
<polygon fill="#191970" stroke="#191970" points="733.0001,-163.8469 729.5,-153.8469 726.0001,-163.847 733.0001,-163.8469"/>
</g>
<!-- Node7&#45;&gt;Node4 -->
<g id="edge13" class="edge">
<title>Node7&#45;&gt;Node4</title>
<path fill="none" stroke="#191970" d="M661.7589,-136.4455C652.9307,-135.5632 644.0034,-134.7219 635.5,-134 383.8977,-112.6393 314.8744,-153.3142 68.5,-98 65.6342,-97.3566 62.7038,-96.5315 59.8004,-95.5978"/>
<polygon fill="#191970" stroke="#191970" points="60.7594,-92.2228 50.1651,-92.1117 58.3777,-98.8052 60.7594,-92.2228"/>
</g>
<!-- Node8 -->
<g id="node9" class="node">
<title>Node8</title>
<polygon fill="none" stroke="#bfbfbf" points="77.5,-67.5 77.5,-97.5 241.5,-97.5 241.5,-67.5 77.5,-67.5"/>
<text text-anchor="start" x="85.5" y="-85.5" font-family="Helvetica,sans-Serif" font-size="10.00" fill="#000000">Math/GenVector/Displacement</text>
<text text-anchor="middle" x="159.5" y="-74.5" font-family="Helvetica,sans-Serif" font-size="10.00" fill="#000000">Vector3D.h</text>
</g>
<!-- Node7&#45;&gt;Node8 -->
<g id="edge8" class="edge">
<title>Node7&#45;&gt;Node8</title>
<path fill="none" stroke="#191970" d="M661.9911,-136.7135C653.0836,-135.7828 644.0733,-134.8568 635.5,-134 467.7508,-117.235 422.5927,-120.3172 251.8833,-98.1253"/>
<polygon fill="#191970" stroke="#191970" points="252.1677,-94.6328 241.7977,-96.804 251.2583,-101.5735 252.1677,-94.6328"/>
</g>
<!-- Node9 -->
<g id="node10" class="node">
<title>Node9</title>
<polygon fill="none" stroke="#bfbfbf" points="260,-73 260,-92 449,-92 449,-73 260,-73"/>
<text text-anchor="middle" x="354.5" y="-80" font-family="Helvetica,sans-Serif" font-size="10.00" fill="#000000">Math/GenVector/PositionVector3D.h</text>
</g>
<!-- Node7&#45;&gt;Node9 -->
<g id="edge9" class="edge">
<title>Node7&#45;&gt;Node9</title>
<path fill="none" stroke="#191970" d="M671.3177,-134.4581C604.1602,-123.4443 493.8479,-105.3531 422.7117,-93.6867"/>
<polygon fill="#191970" stroke="#191970" points="422.9449,-90.1783 412.5102,-92.0137 421.812,-97.086 422.9449,-90.1783"/>
</g>
<!-- Node10 -->
<g id="node11" class="node">
<title>Node10</title>
<polygon fill="none" stroke="#bfbfbf" points="467.5,-73 467.5,-92 627.5,-92 627.5,-73 467.5,-73"/>
<text text-anchor="middle" x="547.5" y="-80" font-family="Helvetica,sans-Serif" font-size="10.00" fill="#000000">Math/GenVector/Rotation3D.h</text>
</g>
<!-- Node7&#45;&gt;Node10 -->
<g id="edge10" class="edge">
<title>Node7&#45;&gt;Node10</title>
<path fill="none" stroke="#191970" d="M701.0625,-134.3906C669.9428,-123.8749 619.9036,-106.966 585.4515,-95.3243"/>
<polygon fill="#191970" stroke="#191970" points="586.332,-91.9274 575.7378,-92.0419 584.0911,-98.5591 586.332,-91.9274"/>
</g>
<!-- Node11 -->
<g id="node12" class="node">
<title>Node11</title>
<polygon fill="none" stroke="#bfbfbf" points="645.5,-73 645.5,-92 813.5,-92 813.5,-73 645.5,-73"/>
<text text-anchor="middle" x="729.5" y="-80" font-family="Helvetica,sans-Serif" font-size="10.00" fill="#000000">Math/GenVector/Transform3D.h</text>
</g>
<!-- Node7&#45;&gt;Node11 -->
<g id="edge11" class="edge">
<title>Node7&#45;&gt;Node11</title>
<path fill="none" stroke="#191970" d="M729.5,-134.3906C729.5,-125.8657 729.5,-113.1392 729.5,-102.4235"/>
<polygon fill="#191970" stroke="#191970" points="733.0001,-102.2448 729.5,-92.2449 726.0001,-102.2449 733.0001,-102.2448"/>
</g>
<!-- Node12 -->
<g id="node13" class="node">
<title>Node12</title>
<polygon fill="none" stroke="#bfbfbf" points="832,-73 832,-92 1005,-92 1005,-73 832,-73"/>
<text text-anchor="middle" x="918.5" y="-80" font-family="Helvetica,sans-Serif" font-size="10.00" fill="#000000">Math/GenVector/Translation3D.h</text>
</g>
<!-- Node7&#45;&gt;Node12 -->
<g id="edge12" class="edge">
<title>Node7&#45;&gt;Node12</title>
<path fill="none" stroke="#191970" d="M759.0313,-134.3906C791.4866,-123.8298 843.7581,-106.8208 879.5486,-95.1747"/>
<polygon fill="#191970" stroke="#191970" points="880.7499,-98.4645 889.1761,-92.0419 878.5839,-91.808 880.7499,-98.4645"/>
</g>
<!-- Node13 -->
<g id="node14" class="node">
<title>Node13</title>
<polygon fill="none" stroke="#bfbfbf" points="1023.5,-73 1023.5,-92 1105.5,-92 1105.5,-73 1023.5,-73"/>
<text text-anchor="middle" x="1064.5" y="-80" font-family="Helvetica,sans-Serif" font-size="10.00" fill="#000000">TGeoMatrix.h</text>
</g>
<!-- Node7&#45;&gt;Node13 -->
<g id="edge14" class="edge">
<title>Node7&#45;&gt;Node13</title>
<path fill="none" stroke="#191970" d="M797.1077,-135.8136C855.1862,-128.1336 940.9399,-115.248 1014.5,-98 1018.3711,-97.0923 1022.3793,-96.0422 1026.3648,-94.9248"/>
<polygon fill="#191970" stroke="#191970" points="1027.5277,-98.2311 1036.1338,-92.0516 1025.5525,-91.5156 1027.5277,-98.2311"/>
</g>
<!-- Node14 -->
<g id="node15" class="node">
<title>Node14</title>
<polygon fill="none" stroke="#bfbfbf" points="1124,-73 1124,-92 1173,-92 1173,-73 1124,-73"/>
<text text-anchor="middle" x="1148.5" y="-80" font-family="Helvetica,sans-Serif" font-size="10.00" fill="#000000">iosfwd</text>
</g>
<!-- Node7&#45;&gt;Node14 -->
<g id="edge15" class="edge">
<title>Node7&#45;&gt;Node14</title>
<path fill="none" stroke="#191970" d="M797.2946,-138.4326C891.3736,-130.2729 1056.4889,-114.2629 1114.5,-98 1116.4676,-97.4484 1118.4658,-96.7979 1120.4572,-96.0811"/>
<polygon fill="#191970" stroke="#191970" points="1122.258,-99.1258 1130.1854,-92.0967 1119.6049,-92.648 1122.258,-99.1258"/>
</g>
<!-- Node15 -->
<g id="node16" class="node">
<title>Node15</title>
<g id="a_node16"><a xlink:href="../../d2/dd0/Cartesian2D_8h.html" target="_top" xlink:title="MathUtils/Cartesian2D.h">
<polygon fill="none" stroke="#000000" points="1191,-73 1191,-92 1326,-92 1326,-73 1191,-73"/>
<text text-anchor="middle" x="1258.5" y="-80" font-family="Helvetica,sans-Serif" font-size="10.00" fill="#000000">MathUtils/Cartesian2D.h</text>
</a>
</g>
</g>
<!-- Node7&#45;&gt;Node15 -->
<g id="edge16" class="edge">
<title>Node7&#45;&gt;Node15</title>
<path fill="none" stroke="#191970" d="M797.3045,-139.2414C886.1142,-132.5228 1046.5217,-118.7171 1182.5,-98 1189.9976,-96.8577 1197.8747,-95.4678 1205.6014,-93.9945"/>
<polygon fill="#191970" stroke="#191970" points="1206.4907,-97.3868 1215.6277,-92.0236 1205.1404,-90.5182 1206.4907,-97.3868"/>
</g>
<!-- Node16 -->
<g id="node17" class="node">
<title>Node16</title>
<polygon fill="none" stroke="#bfbfbf" points="1078.5,-.5 1078.5,-30.5 1242.5,-30.5 1242.5,-.5 1078.5,-.5"/>
<text text-anchor="start" x="1086.5" y="-18.5" font-family="Helvetica,sans-Serif" font-size="10.00" fill="#000000">Math/GenVector/Displacement</text>
<text text-anchor="middle" x="1160.5" y="-7.5" font-family="Helvetica,sans-Serif" font-size="10.00" fill="#000000">Vector2D.h</text>
</g>
<!-- Node15&#45;&gt;Node16 -->
<g id="edge17" class="edge">
<title>Node15&#45;&gt;Node16</title>
<path fill="none" stroke="#191970" d="M1244.459,-72.9005C1230.5412,-63.3853 1208.772,-48.5023 1190.888,-36.2755"/>
<polygon fill="#191970" stroke="#191970" points="1192.7026,-33.2763 1182.4721,-30.5218 1188.7519,-39.0549 1192.7026,-33.2763"/>
</g>
<!-- Node17 -->
<g id="node18" class="node">
<title>Node17</title>
<polygon fill="none" stroke="#bfbfbf" points="1261,-6 1261,-25 1450,-25 1450,-6 1261,-6"/>
<text text-anchor="middle" x="1355.5" y="-13" font-family="Helvetica,sans-Serif" font-size="10.00" fill="#000000">Math/GenVector/PositionVector2D.h</text>
</g>
<!-- Node15&#45;&gt;Node17 -->
<g id="edge18" class="edge">
<title>Node15&#45;&gt;Node17</title>
<path fill="none" stroke="#191970" d="M1272.3977,-72.9005C1288.3164,-61.9052 1314.6121,-43.7422 1333.3599,-30.7927"/>
<polygon fill="#191970" stroke="#191970" points="1335.3892,-33.6448 1341.628,-25.0817 1331.4108,-27.8852 1335.3892,-33.6448"/>
</g>
<!-- Node19 -->
<g id="node20" class="node">
<title>Node19</title>
<g id="a_node20"><a xlink:href="../../de/d61/ShmManager_8h.html" target="_top" xlink:title="CommonUtils/ShmManager.h">
<polygon fill="none" stroke="#000000" points="1281.5,-134.5 1281.5,-153.5 1439.5,-153.5 1439.5,-134.5 1281.5,-134.5"/>
<text text-anchor="middle" x="1360.5" y="-141.5" font-family="Helvetica,sans-Serif" font-size="10.00" fill="#000000">CommonUtils/ShmManager.h</text>
</a>
</g>
</g>
<!-- Node18&#45;&gt;Node19 -->
<g id="edge20" class="edge">
<title>Node18&#45;&gt;Node19</title>
<path fill="none" stroke="#191970" d="M1093.5283,-195.9581C1149.6558,-185.0345 1241.5547,-167.1492 1301.5396,-155.4749"/>
<polygon fill="#191970" stroke="#191970" points="1302.4695,-158.8597 1311.6167,-153.5137 1301.1322,-151.9886 1302.4695,-158.8597"/>
</g>
<!-- Node24 -->
<g id="node25" class="node">
<title>Node24</title>
<polygon fill="none" stroke="#bfbfbf" points="1457.5,-134.5 1457.5,-153.5 1509.5,-153.5 1509.5,-134.5 1457.5,-134.5"/>
<text text-anchor="middle" x="1483.5" y="-141.5" font-family="Helvetica,sans-Serif" font-size="10.00" fill="#000000">cassert</text>
</g>
<!-- Node18&#45;&gt;Node24 -->
<g id="edge25" class="edge">
<title>Node18&#45;&gt;Node24</title>
<path fill="none" stroke="#191970" d="M1099.6053,-195.961C1112.3589,-193.879 1125.8881,-191.7711 1138.5,-190 1272.6367,-171.1633 1310.7059,-180.6695 1447.2361,-153.9838"/>
<polygon fill="#191970" stroke="#191970" points="1448.1115,-157.3785 1457.2391,-151.999 1446.7491,-150.5123 1448.1115,-157.3785"/>
</g>
<!-- Node20 -->
<g id="node21" class="node">
<title>Node20</title>
<polygon fill="none" stroke="#bfbfbf" points="1344.5,-73 1344.5,-92 1376.5,-92 1376.5,-73 1344.5,-73"/>
<text text-anchor="middle" x="1360.5" y="-80" font-family="Helvetica,sans-Serif" font-size="10.00" fill="#000000">list</text>
</g>
<!-- Node19&#45;&gt;Node20 -->
<g id="edge21" class="edge">
<title>Node19&#45;&gt;Node20</title>
<path fill="none" stroke="#191970" d="M1360.5,-134.3906C1360.5,-125.8657 1360.5,-113.1392 1360.5,-102.4235"/>
<polygon fill="#191970" stroke="#191970" points="1364.0001,-102.2448 1360.5,-92.2449 1357.0001,-102.2449 1364.0001,-102.2448"/>
</g>
<!-- Node21 -->
<g id="node22" class="node">
<title>Node21</title>
<polygon fill="none" stroke="#bfbfbf" points="1395,-73 1395,-92 1448,-92 1448,-73 1395,-73"/>
<text text-anchor="middle" x="1421.5" y="-80" font-family="Helvetica,sans-Serif" font-size="10.00" fill="#000000">cstddef</text>
</g>
<!-- Node19&#45;&gt;Node21 -->
<g id="edge22" class="edge">
<title>Node19&#45;&gt;Node21</title>
<path fill="none" stroke="#191970" d="M1370.0313,-134.3906C1379.2879,-125.0581 1393.539,-110.6902 1404.7003,-99.4374"/>
<polygon fill="#191970" stroke="#191970" points="1407.2772,-101.8095 1411.8344,-92.2449 1402.3072,-96.88 1407.2772,-101.8095"/>
</g>
<!-- Node22 -->
<g id="node23" class="node">
<title>Node22</title>
<polygon fill="none" stroke="#bfbfbf" points="1466,-67.5 1466,-97.5 1631,-97.5 1631,-67.5 1466,-67.5"/>
<text text-anchor="start" x="1474" y="-85.5" font-family="Helvetica,sans-Serif" font-size="10.00" fill="#000000">boost/interprocess</text>
<text text-anchor="middle" x="1548.5" y="-74.5" font-family="Helvetica,sans-Serif" font-size="10.00" fill="#000000">/managed_external_buffer.hpp</text>
</g>
<!-- Node19&#45;&gt;Node22 -->
<g id="edge23" class="edge">
<title>Node19&#45;&gt;Node22</title>
<path fill="none" stroke="#191970" d="M1389.875,-134.3906C1417.321,-125.4123 1459.0135,-111.7735 1492.7676,-100.7316"/>
<polygon fill="#191970" stroke="#191970" points="1494.0939,-103.9803 1502.51,-97.5446 1491.9174,-97.3273 1494.0939,-103.9803"/>
</g>
<!-- Node23 -->
<g id="node24" class="node">
<title>Node23</title>
<polygon fill="none" stroke="#bfbfbf" points="1649.5,-67.5 1649.5,-97.5 1783.5,-97.5 1783.5,-67.5 1649.5,-67.5"/>
<text text-anchor="start" x="1657.5" y="-85.5" font-family="Helvetica,sans-Serif" font-size="10.00" fill="#000000">boost/interprocess</text>
<text text-anchor="middle" x="1716.5" y="-74.5" font-family="Helvetica,sans-Serif" font-size="10.00" fill="#000000">/allocators/allocator.hpp</text>
</g>
<!-- Node19&#45;&gt;Node23 -->
<g id="edge24" class="edge">
<title>Node19&#45;&gt;Node23</title>
<path fill="none" stroke="#191970" d="M1422.6196,-134.4945C1477.108,-125.9974 1558.7354,-112.8844 1639.0894,-98.2218"/>
<polygon fill="#191970" stroke="#191970" points="1640.186,-101.5791 1649.3904,-96.3322 1638.923,-94.694 1640.186,-101.5791"/>
</g>
<!-- Node25&#45;&gt;Node5 -->
<g id="edge38" class="edge">
<title>Node25&#45;&gt;Node5</title>
<path fill="none" stroke="#191970" d="M856.2027,-391.3416C832.9954,-369.5742 776.3732,-316.465 747.3273,-289.2212"/>
<polygon fill="#191970" stroke="#191970" points="749.6049,-286.5589 739.9168,-282.2705 744.8161,-291.6645 749.6049,-286.5589"/>
</g>
<!-- Node26 -->
<g id="node27" class="node">
<title>Node26</title>
<g id="a_node27"><a xlink:href="../../d5/d34/Detectors_2CPV_2base_2include_2CPVBase_2Digit_8h.html" target="_top" xlink:title="CPVBase/Digit.h">
<polygon fill="none" stroke="#000000" points="836,-330 836,-349 931,-349 931,-330 836,-330"/>
<text text-anchor="middle" x="883.5" y="-337" font-family="Helvetica,sans-Serif" font-size="10.00" fill="#000000">CPVBase/Digit.h</text>
</a>
</g>
</g>
<!-- Node25&#45;&gt;Node26 -->
<g id="edge27" class="edge">
<title>Node25&#45;&gt;Node26</title>
<path fill="none" stroke="#191970" d="M869.1563,-391.3906C871.5375,-382.776 875.1048,-369.8708 878.086,-359.0858"/>
<polygon fill="#191970" stroke="#191970" points="881.5154,-359.8159 880.8063,-349.2449 874.7684,-357.9509 881.5154,-359.8159"/>
</g>
<!-- Node29 -->
<g id="node30" class="node">
<title>Node29</title>
<g id="a_node30"><a xlink:href="../../d7/dcd/MCCompLabel_8h.html" target="_top" xlink:title="SimulationDataFormat\l/MCCompLabel.h">
<polygon fill="none" stroke="#000000" points="996,-257.5 996,-287.5 1123,-287.5 1123,-257.5 996,-257.5"/>
<text text-anchor="start" x="1004" y="-275.5" font-family="Helvetica,sans-Serif" font-size="10.00" fill="#000000">SimulationDataFormat</text>
<text text-anchor="middle" x="1059.5" y="-264.5" font-family="Helvetica,sans-Serif" font-size="10.00" fill="#000000">/MCCompLabel.h</text>
</a>
</g>
</g>
<!-- Node25&#45;&gt;Node29 -->
<g id="edge39" class="edge">
<title>Node25&#45;&gt;Node29</title>
<path fill="none" stroke="#191970" d="M882.5242,-391.3572C897.6118,-382.2032 920.7762,-367.9558 940.5,-355 971.3771,-334.718 1006.0176,-310.5361 1029.9263,-293.6148"/>
<polygon fill="#191970" stroke="#191970" points="1032.0912,-296.3704 1038.2224,-287.7299 1028.0411,-290.661 1032.0912,-296.3704"/>
</g>
<!-- Node25&#45;&gt;Node30 -->
<g id="edge34" class="edge">
<title>Node25&#45;&gt;Node30</title>
<path fill="none" stroke="#191970" d="M937.43,-392.35C942.1886,-391.8639 946.9119,-391.4081 951.5,-391 1103.001,-377.5257 1559.0188,-352.5981 1734.5657,-343.2079"/>
<polygon fill="#191970" stroke="#191970" points="1734.9191,-346.6941 1744.7181,-342.6654 1734.5455,-339.704 1734.9191,-346.6941"/>
</g>
<!-- Node34 -->
<g id="node35" class="node">
<title>Node34</title>
<g id="a_node35"><a xlink:href="../../db/d14/MCTruthContainer_8h.html" target="_top" xlink:title="Definition of a container to keep Monte Carlo truth external to simulation objects. ">
<polygon fill="none" stroke="#000000" points="1341,-324.5 1341,-354.5 1468,-354.5 1468,-324.5 1341,-324.5"/>
<text text-anchor="start" x="1349" y="-342.5" font-family="Helvetica,sans-Serif" font-size="10.00" fill="#000000">SimulationDataFormat</text>
<text text-anchor="middle" x="1404.5" y="-331.5" font-family="Helvetica,sans-Serif" font-size="10.00" fill="#000000">/MCTruthContainer.h</text>
</a>
</g>
</g>
<!-- Node25&#45;&gt;Node34 -->
<g id="edge40" class="edge">
<title>Node25&#45;&gt;Node34</title>
<path fill="none" stroke="#191970" d="M937.4588,-392.6309C942.2104,-392.077 946.9243,-391.5293 951.5,-391 1085.1288,-375.5436 1240.9803,-357.9121 1330.6557,-347.8054"/>
<polygon fill="#191970" stroke="#191970" points="1331.1787,-351.2687 1340.7239,-346.671 1330.3948,-344.3128 1331.1787,-351.2687"/>
</g>
<!-- Node26&#45;&gt;Node5 -->
<g id="edge33" class="edge">
<title>Node26&#45;&gt;Node5</title>
<path fill="none" stroke="#191970" d="M861.4356,-329.9005C835.1335,-318.4574 790.9872,-299.2509 761.0755,-286.2374"/>
<polygon fill="#191970" stroke="#191970" points="762.0896,-282.8617 751.5235,-282.0817 759.297,-289.2806 762.0896,-282.8617"/>
</g>
<!-- Node27 -->
<g id="node28" class="node">
<title>Node27</title>
<g id="a_node28"><a xlink:href="../../df/d5d/common_2include_2CommonDataFormat_2TimeStamp_8h.html" target="_top" xlink:title="CommonDataFormat/TimeStamp.h">
<polygon fill="none" stroke="#000000" points="791,-263 791,-282 978,-282 978,-263 791,-263"/>
<text text-anchor="middle" x="884.5" y="-270" font-family="Helvetica,sans-Serif" font-size="10.00" fill="#000000">CommonDataFormat/TimeStamp.h</text>
</a>
</g>
</g>
<!-- Node26&#45;&gt;Node27 -->
<g id="edge28" class="edge">
<title>Node26&#45;&gt;Node27</title>
<path fill="none" stroke="#191970" d="M883.6433,-329.9005C883.7888,-320.149 884.0185,-304.7597 884.2034,-292.3695"/>
<polygon fill="#191970" stroke="#191970" points="887.7073,-292.1328 884.357,-282.0817 880.708,-292.0283 887.7073,-292.1328"/>
</g>
<!-- Node26&#45;&gt;Node29 -->
<g id="edge31" class="edge">
<title>Node26&#45;&gt;Node29</title>
<path fill="none" stroke="#191970" d="M908.7165,-329.9005C935.1887,-319.8231 977.477,-303.7247 1010.5418,-291.1375"/>
<polygon fill="#191970" stroke="#191970" points="1011.9394,-294.3506 1020.0398,-287.5218 1009.4489,-287.8086 1011.9394,-294.3506"/>
</g>
<!-- Node28 -->
<g id="node29" class="node">
<title>Node28</title>
<g id="a_node29"><a xlink:href="../../d2/d45/GPUCommonRtypes_8h.html" target="_top" xlink:title="GPUCommonRtypes.h">
<polygon fill="none" stroke="#000000" points="821,-196 821,-215 946,-215 946,-196 821,-196"/>
<text text-anchor="middle" x="883.5" y="-203" font-family="Helvetica,sans-Serif" font-size="10.00" fill="#000000">GPUCommonRtypes.h</text>
</a>
</g>
</g>
<!-- Node27&#45;&gt;Node28 -->
<g id="edge29" class="edge">
<title>Node27&#45;&gt;Node28</title>
<path fill="none" stroke="#191970" d="M884.3567,-262.9005C884.2112,-253.149 883.9815,-237.7597 883.7966,-225.3695"/>
<polygon fill="#191970" stroke="#191970" points="887.292,-225.0283 883.643,-215.0817 880.2927,-225.1328 887.292,-225.0283"/>
</g>
<!-- Node28&#45;&gt;Node4 -->
<g id="edge30" class="edge">
<title>Node28&#45;&gt;Node4</title>
<path fill="none" stroke="#191970" d="M834.0391,-195.9275C787.0304,-186.4876 714.5069,-171.0335 652.5,-154 624.9881,-146.4424 619.5026,-139.4661 591.5,-134 362.8214,-89.3622 295.6989,-149.644 68.5,-98 65.6359,-97.349 62.7067,-96.5186 59.804,-95.5816"/>
<polygon fill="#191970" stroke="#191970" points="60.7642,-92.2068 50.17,-92.0902 58.3791,-98.788 60.7642,-92.2068"/>
</g>
<!-- Node29&#45;&gt;Node28 -->
<g id="edge32" class="edge">
<title>Node29&#45;&gt;Node28</title>
<path fill="none" stroke="#191970" d="M1020.0022,-257.4639C989.3164,-245.7824 947.1882,-229.7449 917.8814,-218.5884"/>
<polygon fill="#191970" stroke="#191970" points="919.0601,-215.2921 908.4691,-215.0053 916.5696,-221.8341 919.0601,-215.2921"/>
</g>
<!-- Node31 -->
<g id="node32" class="node">
<title>Node31</title>
<polygon fill="none" stroke="#bfbfbf" points="1782.5,-263 1782.5,-282 1826.5,-282 1826.5,-263 1782.5,-263"/>
<text text-anchor="middle" x="1804.5" y="-270" font-family="Helvetica,sans-Serif" font-size="10.00" fill="#000000">string</text>
</g>
<!-- Node30&#45;&gt;Node31 -->
<g id="edge35" class="edge">
<title>Node30&#45;&gt;Node31</title>
<path fill="none" stroke="#191970" d="M1804.5,-329.9005C1804.5,-320.149 1804.5,-304.7597 1804.5,-292.3695"/>
<polygon fill="#191970" stroke="#191970" points="1808.0001,-292.0816 1804.5,-282.0817 1801.0001,-292.0817 1808.0001,-292.0816"/>
</g>
<!-- Node32 -->
<g id="node33" class="node">
<title>Node32</title>
<polygon fill="none" stroke="#bfbfbf" points="1844.5,-263 1844.5,-282 1928.5,-282 1928.5,-263 1844.5,-263"/>
<text text-anchor="middle" x="1886.5" y="-270" font-family="Helvetica,sans-Serif" font-size="10.00" fill="#000000">RStringView.h</text>
</g>
<!-- Node30&#45;&gt;Node32 -->
<g id="edge36" class="edge">
<title>Node30&#45;&gt;Node32</title>
<path fill="none" stroke="#191970" d="M1816.2486,-329.9005C1829.4011,-319.1539 1850.9336,-301.5603 1866.6983,-288.6794"/>
<polygon fill="#191970" stroke="#191970" points="1869.2439,-291.1193 1874.7732,-282.0817 1864.8148,-285.6986 1869.2439,-291.1193"/>
</g>
<!-- Node33 -->
<g id="node34" class="node">
<title>Node33</title>
<polygon fill="none" stroke="#bfbfbf" points="1946.5,-263 1946.5,-282 2002.5,-282 2002.5,-263 1946.5,-263"/>
<text text-anchor="middle" x="1974.5" y="-270" font-family="Helvetica,sans-Serif" font-size="10.00" fill="#000000">TMath.h</text>
</g>
<!-- Node30&#45;&gt;Node33 -->
<g id="edge37" class="edge">
<title>Node30&#45;&gt;Node33</title>
<path fill="none" stroke="#191970" d="M1830.0783,-329.8329C1856.9173,-319.6338 1900.2947,-302.993 1937.5,-288 1939.0988,-287.3557 1940.7343,-286.6911 1942.3844,-286.0162"/>
<polygon fill="#191970" stroke="#191970" points="1943.9376,-289.1615 1951.8421,-282.1067 1941.2635,-282.6924 1943.9376,-289.1615"/>
</g>
<!-- Node34&#45;&gt;Node24 -->
<g id="edge43" class="edge">
<title>Node34&#45;&gt;Node24</title>
<path fill="none" stroke="#191970" d="M1340.9525,-334.1896C1279.6878,-327.5958 1193.2852,-313.9051 1172.5,-288 1163.8776,-277.2537 1164.5943,-268.2839 1172.5,-257 1188.9634,-233.5016 1369.1335,-177.8609 1447.4732,-154.5558"/>
<polygon fill="#191970" stroke="#191970" points="1448.792,-157.8155 1457.3852,-151.6181 1446.8029,-151.104 1448.792,-157.8155"/>
</g>
<!-- Node35 -->
<g id="node36" class="node">
<title>Node35</title>
<polygon fill="none" stroke="#bfbfbf" points="1181,-263 1181,-282 1248,-282 1248,-263 1181,-263"/>
<text text-anchor="middle" x="1214.5" y="-270" font-family="Helvetica,sans-Serif" font-size="10.00" fill="#000000">TNamed.h</text>
</g>
<!-- Node34&#45;&gt;Node35 -->
<g id="edge41" class="edge">
<title>Node34&#45;&gt;Node35</title>
<path fill="none" stroke="#191970" d="M1361.0466,-324.3915C1331.764,-314.1818 1292.2807,-300.3609 1257.5,-288 1255.2288,-287.1928 1252.8911,-286.359 1250.5349,-285.5161"/>
<polygon fill="#191970" stroke="#191970" points="1251.4601,-282.1297 1240.8656,-282.0462 1249.0956,-288.7183 1251.4601,-282.1297"/>
</g>
<!-- Node36 -->
<g id="node37" class="node">
<title>Node36</title>
<polygon fill="none" stroke="#bfbfbf" points="1266.5,-263 1266.5,-282 1316.5,-282 1316.5,-263 1266.5,-263"/>
<text text-anchor="middle" x="1291.5" y="-270" font-family="Helvetica,sans-Serif" font-size="10.00" fill="#000000">cstdint</text>
</g>
<!-- Node34&#45;&gt;Node36 -->
<g id="edge42" class="edge">
<title>Node34&#45;&gt;Node36</title>
<path fill="none" stroke="#191970" d="M1379.1406,-324.4639C1360.4369,-313.3741 1335.1119,-298.3584 1316.495,-287.32"/>
<polygon fill="#191970" stroke="#191970" points="1318.0844,-284.1935 1307.6977,-282.1039 1314.5143,-290.2147 1318.0844,-284.1935"/>
</g>
<!-- Node37 -->
<g id="node38" class="node">
<title>Node37</title>
<polygon fill="none" stroke="#bfbfbf" points="1335,-263 1335,-282 1400,-282 1400,-263 1335,-263"/>
<text text-anchor="middle" x="1367.5" y="-270" font-family="Helvetica,sans-Serif" font-size="10.00" fill="#000000">stdexcept</text>
</g>
<!-- Node34&#45;&gt;Node37 -->
<g id="edge44" class="edge">
<title>Node34&#45;&gt;Node37</title>
<path fill="none" stroke="#191970" d="M1396.1041,-324.2967C1390.6192,-314.3645 1383.4249,-301.3371 1377.6237,-290.8321"/>
<polygon fill="#191970" stroke="#191970" points="1380.6748,-289.1169 1372.7766,-282.055 1374.547,-292.5009 1380.6748,-289.1169"/>
</g>
<!-- Node38 -->
<g id="node39" class="node">
<title>Node38</title>
<polygon fill="none" stroke="#bfbfbf" points="1418.5,-263 1418.5,-282 1466.5,-282 1466.5,-263 1418.5,-263"/>
<text text-anchor="middle" x="1442.5" y="-270" font-family="Helvetica,sans-Serif" font-size="10.00" fill="#000000">gsl/gsl</text>
</g>
<!-- Node34&#45;&gt;Node38 -->
<g id="edge45" class="edge">
<title>Node34&#45;&gt;Node38</title>
<path fill="none" stroke="#191970" d="M1413.1228,-324.2967C1418.756,-314.3645 1426.1447,-301.3371 1432.1027,-290.8321"/>
<polygon fill="#191970" stroke="#191970" points="1435.1917,-292.4801 1437.0808,-282.055 1429.1029,-289.0266 1435.1917,-292.4801"/>
</g>
<!-- Node39 -->
<g id="node40" class="node">
<title>Node39</title>
<polygon fill="none" stroke="#bfbfbf" points="1485,-263 1485,-282 1554,-282 1554,-263 1485,-263"/>
<text text-anchor="middle" x="1519.5" y="-270" font-family="Helvetica,sans-Serif" font-size="10.00" fill="#000000">type_traits</text>
</g>
<!-- Node34&#45;&gt;Node39 -->
<g id="edge46" class="edge">
<title>Node34&#45;&gt;Node39</title>
<path fill="none" stroke="#191970" d="M1430.3082,-324.4639C1449.4299,-313.3234 1475.3517,-298.2212 1494.3218,-287.1691"/>
<polygon fill="#191970" stroke="#191970" points="1496.1371,-290.1622 1503.0157,-282.1039 1492.6132,-284.1138 1496.1371,-290.1622"/>
</g>
<!-- Node40 -->
<g id="node41" class="node">
<title>Node40</title>
<polygon fill="none" stroke="#bfbfbf" points="1572.5,-263 1572.5,-282 1622.5,-282 1622.5,-263 1572.5,-263"/>
<text text-anchor="middle" x="1597.5" y="-270" font-family="Helvetica,sans-Serif" font-size="10.00" fill="#000000">cstring</text>
</g>
<!-- Node34&#45;&gt;Node40 -->
<g id="edge47" class="edge">
<title>Node34&#45;&gt;Node40</title>
<path fill="none" stroke="#191970" d="M1455.8626,-324.4989C1487.2633,-314.9256 1528.068,-301.7626 1563.5,-288 1565.0798,-287.3864 1566.6912,-286.7366 1568.3114,-286.0643"/>
<polygon fill="#191970" stroke="#191970" points="1569.7466,-289.2569 1577.5268,-282.0653 1566.96,-282.8355 1569.7466,-289.2569"/>
</g>
<!-- Node41 -->
<g id="node42" class="node">
<title>Node41</title>
<polygon fill="none" stroke="#bfbfbf" points="1640.5,-263 1640.5,-282 1698.5,-282 1698.5,-263 1640.5,-263"/>
<text text-anchor="middle" x="1669.5" y="-270" font-family="Helvetica,sans-Serif" font-size="10.00" fill="#000000">memory</text>
</g>
<!-- Node34&#45;&gt;Node41 -->
<g id="edge48" class="edge">
<title>Node34&#45;&gt;Node41</title>
<path fill="none" stroke="#191970" d="M1468.3568,-327.9283C1514.2593,-318.9069 1577.346,-305.0605 1631.5,-288 1633.6534,-287.3216 1635.8559,-286.5737 1638.0624,-285.7838"/>
<polygon fill="#191970" stroke="#191970" points="1639.5251,-288.9719 1647.6214,-282.1381 1637.0306,-282.4315 1639.5251,-288.9719"/>
</g>
<!-- Node42 -->
<g id="node43" class="node">
<title>Node42</title>
<polygon fill="none" stroke="#bfbfbf" points="1717,-263 1717,-282 1764,-282 1764,-263 1717,-263"/>
<text text-anchor="middle" x="1740.5" y="-270" font-family="Helvetica,sans-Serif" font-size="10.00" fill="#000000">vector</text>
</g>
<!-- Node34&#45;&gt;Node42 -->
<g id="edge49" class="edge">
<title>Node34&#45;&gt;Node42</title>
<path fill="none" stroke="#191970" d="M1468.0512,-333.7546C1530.1829,-326.966 1626.9252,-313.2549 1707.5,-288 1709.3573,-287.4179 1711.2445,-286.7519 1713.1277,-286.0308"/>
<polygon fill="#191970" stroke="#191970" points="1714.5272,-289.239 1722.3525,-282.0964 1711.7811,-282.8001 1714.5272,-289.239"/>
</g>
</g>
</svg>
        <g id="navigator" transform="translate(0 0)" fill="#404254">
                <rect fill="#f2f5e9" fill-opacity="0.5" stroke="#606060" stroke-width=".5" x="0" y="0" width="60" height="60"/>
                <use id="zoomplus" xlink:href="#zoomPlus" x="17" y="9" onmousedown="handleZoom(evt,'in')"/>
                <use id="zoomminus" xlink:href="#zoomMin" x="42" y="9" onmousedown="handleZoom(evt,'out')"/>
                <use id="reset" xlink:href="#resetDef" x="30" y="36" onmousedown="handleReset()"/>
                <g id="arrowUp" xlink:href="#dirArrow" transform="translate(30 24)" onmousedown="handlePan(0,-1)">
                  <use xlink:href="#rim" fill="#404040">
                        <set attributeName="fill" to="#808080" begin="arrowUp.mouseover" end="arrowUp.mouseout"/>
                  </use>
                  <path fill="none" stroke="white" stroke-width="1.5" d="M0,-3.0v7 M-2.5,-0.5L0,-3.0L2.5,-0.5"/>
                </g>
                <g id="arrowRight" xlink:href="#dirArrow" transform="rotate(90) translate(36 -43)" onmousedown="handlePan(1,0)">
                  <use xlink:href="#rim" fill="#404040">
                        <set attributeName="fill" to="#808080" begin="arrowRight.mouseover" end="arrowRight.mouseout"/>
                  </use>
                  <path fill="none" stroke="white" stroke-width="1.5" d="M0,-3.0v7 M-2.5,-0.5L0,-3.0L2.5,-0.5"/>
                </g>
                <g id="arrowDown" xlink:href="#dirArrow" transform="rotate(180) translate(-30 -48)" onmousedown="handlePan(0,1)">
                  <use xlink:href="#rim" fill="#404040">
                        <set attributeName="fill" to="#808080" begin="arrowDown.mouseover" end="arrowDown.mouseout"/>
                  </use>
                  <path fill="none" stroke="white" stroke-width="1.5" d="M0,-3.0v7 M-2.5,-0.5L0,-3.0L2.5,-0.5"/>
                </g>
                <g id="arrowLeft" xlink:href="#dirArrow" transform="rotate(270) translate(-36 17)" onmousedown="handlePan(-1,0)">
                  <use xlink:href="#rim" fill="#404040">
                        <set attributeName="fill" to="#808080" begin="arrowLeft.mouseover" end="arrowLeft.mouseout"/>
                  </use>
                  <path fill="none" stroke="white" stroke-width="1.5" d="M0,-3.0v7 M-2.5,-0.5L0,-3.0L2.5,-0.5"/>
                </g>
        </g>
        <svg viewBox="0 0 15 15" width="100%" height="30px" preserveAspectRatio="xMaxYMin meet">
         <g id="arrow_out" transform="scale(0.3 0.3)">
          <a xlink:href="CPV_2simulation_2src_2DigitizerTask_8cxx__incl_org.svg" target="_base">
           <rect id="button" ry="5" rx="5" y="6" x="6" height="38" width="38"
                fill="#f2f5e9" fill-opacity="0.5" stroke="#606060" stroke-width="1.0"/>
           <path id="arrow"
             d="M 11.500037,31.436501 C 11.940474,20.09759 22.043105,11.32322 32.158766,21.979434 L 37.068811,17.246167 C 37.068811,17.246167 37.088388,32 37.088388,32 L 22.160133,31.978069 C 22.160133,31.978069 26.997745,27.140456 26.997745,27.140456 C 18.528582,18.264221 13.291696,25.230495 11.500037,31.436501 z"
             style="fill:#404040;"/>
          </a>
         </g>
        </svg>
</svg>
