<?xml version="1.0" encoding="UTF-8" standalone="no"?>
<!DOCTYPE svg PUBLIC "-//W3C//DTD SVG 1.1//EN"
 "http://www.w3.org/Graphics/SVG/1.1/DTD/svg11.dtd">
<!-- Generated by graphviz version 2.40.1 (20161225.0304)
 -->
<!-- Title: /home/travis/build/AliceO2Group/AliceO2/Framework/Core/include/Framework/AnalysisTask.h Pages: 1 -->
<!--zoomable 150 -->
<svg id="main" version="1.1" xmlns="http://www.w3.org/2000/svg" xmlns:xlink="http://www.w3.org/1999/xlink" xml:space="preserve" onload="init(evt)">
<style type="text/css"><![CDATA[
.edge:hover path { stroke: red; }
.edge:hover polygon { stroke: red; fill: red; }
]]></style>
<script type="text/javascript"><![CDATA[
var edges = document.getElementsByTagName('g');
if (edges && edges.length) {
  for (var i=0;i<edges.length;i++) {
    if (edges[i].id.substr(0,4)=='edge') {
      edges[i].setAttribute('class','edge');
    }
  }
}
]]></script>
        <defs>
                <circle id="rim" cx="0" cy="0" r="7"/>
                <circle id="rim2" cx="0" cy="0" r="3.5"/>
                <g id="zoomPlus">
                        <use xlink:href="#rim" fill="#404040">
                                <set attributeName="fill" to="#808080" begin="zoomplus.mouseover" end="zoomplus.mouseout"/>
                        </use>
                        <path d="M-4,0h8M0,-4v8" fill="none" stroke="white" stroke-width="1.5" pointer-events="none"/>
                </g>
                <g id="zoomMin">
                        <use xlink:href="#rim" fill="#404040">
                                <set attributeName="fill" to="#808080" begin="zoomminus.mouseover" end="zoomminus.mouseout"/>
                        </use>
                        <path d="M-4,0h8" fill="none" stroke="white" stroke-width="1.5" pointer-events="none"/>
                </g>
                <g id="dirArrow">
                        <path fill="none" stroke="white" stroke-width="1.5" d="M0,-3.0v7 M-2.5,-0.5L0,-3.0L2.5,-0.5"/>
                </g>
               <g id="resetDef">
                       <use xlink:href="#rim2" fill="#404040">
                               <set attributeName="fill" to="#808080" begin="reset.mouseover" end="reset.mouseout"/>
                       </use>
               </g>
        </defs>

<script type="text/javascript">
var viewWidth = 1927;
var viewHeight = 150;
var sectionId = 'dynsection-1';
</script>
<script xlink:href="../../svgpan.js"/>
<svg id="graph" class="graph">
<g id="viewport">
<title>/home/travis/build/AliceO2Group/AliceO2/Framework/Core/include/Framework/AnalysisTask.h</title>
<!-- Node150 -->
<g id="node1" class="node">
<title>Node150</title>
<polygon fill="#bfbfbf" stroke="#000000" points="878.5,-89.5 878.5,-141.5 1027.5,-141.5 1027.5,-89.5 878.5,-89.5"/>
<text text-anchor="start" x="886.5" y="-129.5" font-family="Helvetica,sans-Serif" font-size="10.00" fill="#000000">/home/travis/build</text>
<text text-anchor="start" x="886.5" y="-118.5" font-family="Helvetica,sans-Serif" font-size="10.00" fill="#000000">/AliceO2Group/AliceO2</text>
<text text-anchor="start" x="886.5" y="-107.5" font-family="Helvetica,sans-Serif" font-size="10.00" fill="#000000">/Framework/Core/include</text>
<text text-anchor="middle" x="953" y="-96.5" font-family="Helvetica,sans-Serif" font-size="10.00" fill="#000000">/Framework/AnalysisTask.h</text>
</g>
<!-- Node151 -->
<g id="node2" class="node">
<title>Node151</title>
<g id="a_node2"><a xlink:href="../../d6/dcb/associatedExample_8cxx.html" target="_top" xlink:title="/home/travis/build\l/AliceO2Group/AliceO2\l/Framework/AnalysisTutorial\l/src/associatedExample.cxx">
<polygon fill="none" stroke="#000000" points="0,-.5 0,-52.5 154,-52.5 154,-.5 0,-.5"/>
<text text-anchor="start" x="8" y="-40.5" font-family="Helvetica,sans-Serif" font-size="10.00" fill="#000000">/home/travis/build</text>
<text text-anchor="start" x="8" y="-29.5" font-family="Helvetica,sans-Serif" font-size="10.00" fill="#000000">/AliceO2Group/AliceO2</text>
<text text-anchor="start" x="8" y="-18.5" font-family="Helvetica,sans-Serif" font-size="10.00" fill="#000000">/Framework/AnalysisTutorial</text>
<text text-anchor="middle" x="77" y="-7.5" font-family="Helvetica,sans-Serif" font-size="10.00" fill="#000000">/src/associatedExample.cxx</text>
</a>
</g>
</g>
<!-- Node150&#45;&gt;Node151 -->
<g id="edge1" class="edge">
<title>Node150&#45;&gt;Node151</title>
<path fill="none" stroke="#191970" d="M868.1925,-111.1546C692.966,-101.789 296.2392,-78.4765 163,-53 160.0844,-52.4425 157.1278,-51.8218 154.1525,-51.1503"/>
<polygon fill="#191970" stroke="#191970" points="868.2247,-114.6612 878.3966,-111.6976 868.5968,-107.6711 868.2247,-114.6612"/>
</g>
<!-- Node152 -->
<g id="node3" class="node">
<title>Node152</title>
<g id="a_node3"><a xlink:href="../../d4/dd5/collisionTracksIteration_8cxx.html" target="_top" xlink:title="/home/travis/build\l/AliceO2Group/AliceO2\l/Framework/AnalysisTutorial\l/src/collisionTracksIteration.cxx">
<polygon fill="none" stroke="#000000" points="172,-.5 172,-52.5 342,-52.5 342,-.5 172,-.5"/>
<text text-anchor="start" x="180" y="-40.5" font-family="Helvetica,sans-Serif" font-size="10.00" fill="#000000">/home/travis/build</text>
<text text-anchor="start" x="180" y="-29.5" font-family="Helvetica,sans-Serif" font-size="10.00" fill="#000000">/AliceO2Group/AliceO2</text>
<text text-anchor="start" x="180" y="-18.5" font-family="Helvetica,sans-Serif" font-size="10.00" fill="#000000">/Framework/AnalysisTutorial</text>
<text text-anchor="middle" x="257" y="-7.5" font-family="Helvetica,sans-Serif" font-size="10.00" fill="#000000">/src/collisionTracksIteration.cxx</text>
</a>
</g>
</g>
<!-- Node150&#45;&gt;Node152 -->
<g id="edge2" class="edge">
<title>Node150&#45;&gt;Node152</title>
<path fill="none" stroke="#191970" d="M867.9235,-111.2678C750.7048,-104.3947 533.3253,-87.8978 351,-53 348.0857,-52.4422 345.1305,-51.8368 342.1538,-51.193"/>
<polygon fill="#191970" stroke="#191970" points="868.0744,-114.7823 878.2594,-111.8641 868.4776,-107.7939 868.0744,-114.7823"/>
</g>
<!-- Node153 -->
<g id="node4" class="node">
<title>Node153</title>
<g id="a_node4"><a xlink:href="../../d2/df5/dynamicColumns_8cxx.html" target="_top" xlink:title="/home/travis/build\l/AliceO2Group/AliceO2\l/Framework/AnalysisTutorial\l/src/dynamicColumns.cxx">
<polygon fill="none" stroke="#000000" points="360,-.5 360,-52.5 514,-52.5 514,-.5 360,-.5"/>
<text text-anchor="start" x="368" y="-40.5" font-family="Helvetica,sans-Serif" font-size="10.00" fill="#000000">/home/travis/build</text>
<text text-anchor="start" x="368" y="-29.5" font-family="Helvetica,sans-Serif" font-size="10.00" fill="#000000">/AliceO2Group/AliceO2</text>
<text text-anchor="start" x="368" y="-18.5" font-family="Helvetica,sans-Serif" font-size="10.00" fill="#000000">/Framework/AnalysisTutorial</text>
<text text-anchor="middle" x="437" y="-7.5" font-family="Helvetica,sans-Serif" font-size="10.00" fill="#000000">/src/dynamicColumns.cxx</text>
</a>
</g>
</g>
<!-- Node150&#45;&gt;Node153 -->
<g id="edge3" class="edge">
<title>Node150&#45;&gt;Node153</title>
<path fill="none" stroke="#191970" d="M868.0567,-107.0753C780.8041,-97.5079 641.3952,-79.6773 523,-53 520.1042,-52.3475 517.1645,-51.6459 514.2034,-50.906"/>
<polygon fill="#191970" stroke="#191970" points="867.8516,-110.5735 878.1709,-108.1729 868.6069,-103.6143 867.8516,-110.5735"/>
</g>
<!-- Node154 -->
<g id="node5" class="node">
<title>Node154</title>
<g id="a_node5"><a xlink:href="../../d6/d77/filters_8cxx.html" target="_top" xlink:title="/home/travis/build\l/AliceO2Group/AliceO2\l/Framework/AnalysisTutorial\l/src/filters.cxx">
<polygon fill="none" stroke="#000000" points="532,-.5 532,-52.5 686,-52.5 686,-.5 532,-.5"/>
<text text-anchor="start" x="540" y="-40.5" font-family="Helvetica,sans-Serif" font-size="10.00" fill="#000000">/home/travis/build</text>
<text text-anchor="start" x="540" y="-29.5" font-family="Helvetica,sans-Serif" font-size="10.00" fill="#000000">/AliceO2Group/AliceO2</text>
<text text-anchor="start" x="540" y="-18.5" font-family="Helvetica,sans-Serif" font-size="10.00" fill="#000000">/Framework/AnalysisTutorial</text>
<text text-anchor="middle" x="609" y="-7.5" font-family="Helvetica,sans-Serif" font-size="10.00" fill="#000000">/src/filters.cxx</text>
</a>
</g>
</g>
<!-- Node150&#45;&gt;Node154 -->
<g id="edge4" class="edge">
<title>Node150&#45;&gt;Node154</title>
<path fill="none" stroke="#191970" d="M868.5507,-96.4182C818.0044,-84.6555 752.5964,-68.8342 695,-53 692.1378,-52.2131 689.2267,-51.3971 686.2897,-50.5605"/>
<polygon fill="#191970" stroke="#191970" points="867.9228,-99.8655 878.4551,-98.7155 869.5045,-93.0465 867.9228,-99.8655"/>
</g>
<!-- Node155 -->
<g id="node6" class="node">
<title>Node155</title>
<g id="a_node6"><a xlink:href="../../d2/d4e/fullTrackIteration_8cxx.html" target="_top" xlink:title="/home/travis/build\l/AliceO2Group/AliceO2\l/Framework/AnalysisTutorial\l/src/fullTrackIteration.cxx">
<polygon fill="none" stroke="#000000" points="704,-.5 704,-52.5 858,-52.5 858,-.5 704,-.5"/>
<text text-anchor="start" x="712" y="-40.5" font-family="Helvetica,sans-Serif" font-size="10.00" fill="#000000">/home/travis/build</text>
<text text-anchor="start" x="712" y="-29.5" font-family="Helvetica,sans-Serif" font-size="10.00" fill="#000000">/AliceO2Group/AliceO2</text>
<text text-anchor="start" x="712" y="-18.5" font-family="Helvetica,sans-Serif" font-size="10.00" fill="#000000">/Framework/AnalysisTutorial</text>
<text text-anchor="middle" x="781" y="-7.5" font-family="Helvetica,sans-Serif" font-size="10.00" fill="#000000">/src/fullTrackIteration.cxx</text>
</a>
</g>
</g>
<!-- Node150&#45;&gt;Node155 -->
<g id="edge5" class="edge">
<title>Node150&#45;&gt;Node155</title>
<path fill="none" stroke="#191970" d="M893.2151,-84.5648C873.0223,-74.1162 850.6975,-62.5644 831.3132,-52.5341"/>
<polygon fill="#191970" stroke="#191970" points="891.8347,-87.7913 902.3246,-89.2784 895.0516,-81.5742 891.8347,-87.7913"/>
</g>
<!-- Node156 -->
<g id="node7" class="node">
<title>Node156</title>
<g id="a_node7"><a xlink:href="../../df/d90/histograms_8cxx.html" target="_top" xlink:title="/home/travis/build\l/AliceO2Group/AliceO2\l/Framework/AnalysisTutorial\l/src/histograms.cxx">
<polygon fill="none" stroke="#000000" points="876,-.5 876,-52.5 1030,-52.5 1030,-.5 876,-.5"/>
<text text-anchor="start" x="884" y="-40.5" font-family="Helvetica,sans-Serif" font-size="10.00" fill="#000000">/home/travis/build</text>
<text text-anchor="start" x="884" y="-29.5" font-family="Helvetica,sans-Serif" font-size="10.00" fill="#000000">/AliceO2Group/AliceO2</text>
<text text-anchor="start" x="884" y="-18.5" font-family="Helvetica,sans-Serif" font-size="10.00" fill="#000000">/Framework/AnalysisTutorial</text>
<text text-anchor="middle" x="953" y="-7.5" font-family="Helvetica,sans-Serif" font-size="10.00" fill="#000000">/src/histograms.cxx</text>
</a>
</g>
</g>
<!-- Node150&#45;&gt;Node156 -->
<g id="edge6" class="edge">
<title>Node150&#45;&gt;Node156</title>
<path fill="none" stroke="#191970" d="M953,-79.1155C953,-70.2061 953,-60.8475 953,-52.5341"/>
<polygon fill="#191970" stroke="#191970" points="949.5001,-79.2784 953,-89.2784 956.5001,-79.2785 949.5001,-79.2784"/>
</g>
<!-- Node157 -->
<g id="node8" class="node">
<title>Node157</title>
<g id="a_node8"><a xlink:href="../../d7/d10/newCollections_8cxx.html" target="_top" xlink:title="/home/travis/build\l/AliceO2Group/AliceO2\l/Framework/AnalysisTutorial\l/src/newCollections.cxx">
<polygon fill="none" stroke="#000000" points="1048,-.5 1048,-52.5 1202,-52.5 1202,-.5 1048,-.5"/>
<text text-anchor="start" x="1056" y="-40.5" font-family="Helvetica,sans-Serif" font-size="10.00" fill="#000000">/home/travis/build</text>
<text text-anchor="start" x="1056" y="-29.5" font-family="Helvetica,sans-Serif" font-size="10.00" fill="#000000">/AliceO2Group/AliceO2</text>
<text text-anchor="start" x="1056" y="-18.5" font-family="Helvetica,sans-Serif" font-size="10.00" fill="#000000">/Framework/AnalysisTutorial</text>
<text text-anchor="middle" x="1125" y="-7.5" font-family="Helvetica,sans-Serif" font-size="10.00" fill="#000000">/src/newCollections.cxx</text>
</a>
</g>
</g>
<!-- Node150&#45;&gt;Node157 -->
<g id="edge7" class="edge">
<title>Node150&#45;&gt;Node157</title>
<path fill="none" stroke="#191970" d="M1012.7849,-84.5648C1032.9777,-74.1162 1055.3025,-62.5644 1074.6868,-52.5341"/>
<polygon fill="#191970" stroke="#191970" points="1010.9484,-81.5742 1003.6754,-89.2784 1014.1653,-87.7913 1010.9484,-81.5742"/>
</g>
<!-- Node158 -->
<g id="node9" class="node">
<title>Node158</title>
<g id="a_node9"><a xlink:href="../../d4/ded/trackCollectionIteration_8cxx.html" target="_top" xlink:title="/home/travis/build\l/AliceO2Group/AliceO2\l/Framework/AnalysisTutorial\l/src/trackCollectionIteration.cxx">
<polygon fill="none" stroke="#000000" points="1220,-.5 1220,-52.5 1392,-52.5 1392,-.5 1220,-.5"/>
<text text-anchor="start" x="1228" y="-40.5" font-family="Helvetica,sans-Serif" font-size="10.00" fill="#000000">/home/travis/build</text>
<text text-anchor="start" x="1228" y="-29.5" font-family="Helvetica,sans-Serif" font-size="10.00" fill="#000000">/AliceO2Group/AliceO2</text>
<text text-anchor="start" x="1228" y="-18.5" font-family="Helvetica,sans-Serif" font-size="10.00" fill="#000000">/Framework/AnalysisTutorial</text>
<text text-anchor="middle" x="1306" y="-7.5" font-family="Helvetica,sans-Serif" font-size="10.00" fill="#000000">/src/trackCollectionIteration.cxx</text>
</a>
</g>
</g>
<!-- Node150&#45;&gt;Node158 -->
<g id="edge8" class="edge">
<title>Node150&#45;&gt;Node158</title>
<path fill="none" stroke="#191970" d="M1037.5716,-95.7863C1088.0272,-83.8326 1153.3005,-68.0316 1211,-53 1213.8997,-52.2446 1216.8469,-51.4686 1219.8215,-50.6784"/>
<polygon fill="#191970" stroke="#191970" points="1036.6108,-92.4169 1027.6847,-98.1244 1038.2218,-99.229 1036.6108,-92.4169"/>
</g>
<!-- Node159 -->
<g id="node10" class="node">
<title>Node159</title>
<g id="a_node10"><a xlink:href="../../db/d7e/trackIteration_8cxx.html" target="_top" xlink:title="/home/travis/build\l/AliceO2Group/AliceO2\l/Framework/AnalysisTutorial\l/src/trackIteration.cxx">
<polygon fill="none" stroke="#000000" points="1410,-.5 1410,-52.5 1564,-52.5 1564,-.5 1410,-.5"/>
<text text-anchor="start" x="1418" y="-40.5" font-family="Helvetica,sans-Serif" font-size="10.00" fill="#000000">/home/travis/build</text>
<text text-anchor="start" x="1418" y="-29.5" font-family="Helvetica,sans-Serif" font-size="10.00" fill="#000000">/AliceO2Group/AliceO2</text>
<text text-anchor="start" x="1418" y="-18.5" font-family="Helvetica,sans-Serif" font-size="10.00" fill="#000000">/Framework/AnalysisTutorial</text>
<text text-anchor="middle" x="1487" y="-7.5" font-family="Helvetica,sans-Serif" font-size="10.00" fill="#000000">/src/trackIteration.cxx</text>
</a>
</g>
</g>
<!-- Node150&#45;&gt;Node159 -->
<g id="edge9" class="edge">
<title>Node150&#45;&gt;Node159</title>
<path fill="none" stroke="#191970" d="M1037.994,-107.7413C1128.6442,-98.5152 1276.0688,-80.7745 1401,-53 1403.8977,-52.3558 1406.839,-51.6612 1409.8014,-50.9273"/>
<polygon fill="#191970" stroke="#191970" points="1037.3699,-104.2863 1027.7707,-108.7701 1038.0709,-111.2511 1037.3699,-104.2863"/>
</g>
<!-- Node160 -->
<g id="node11" class="node">
<title>Node160</title>
<g id="a_node11"><a xlink:href="../../d9/d09/test__AnalysisTask_8cxx.html" target="_top" xlink:title="/home/travis/build\l/AliceO2Group/AliceO2\l/Framework/Core/test/test\l_AnalysisTask.cxx">
<polygon fill="none" stroke="#000000" points="1582.5,-.5 1582.5,-52.5 1725.5,-52.5 1725.5,-.5 1582.5,-.5"/>
<text text-anchor="start" x="1590.5" y="-40.5" font-family="Helvetica,sans-Serif" font-size="10.00" fill="#000000">/home/travis/build</text>
<text text-anchor="start" x="1590.5" y="-29.5" font-family="Helvetica,sans-Serif" font-size="10.00" fill="#000000">/AliceO2Group/AliceO2</text>
<text text-anchor="start" x="1590.5" y="-18.5" font-family="Helvetica,sans-Serif" font-size="10.00" fill="#000000">/Framework/Core/test/test</text>
<text text-anchor="middle" x="1654" y="-7.5" font-family="Helvetica,sans-Serif" font-size="10.00" fill="#000000">_AnalysisTask.cxx</text>
</a>
</g>
</g>
<!-- Node150&#45;&gt;Node160 -->
<g id="edge10" class="edge">
<title>Node150&#45;&gt;Node160</title>
<path fill="none" stroke="#191970" d="M1038.0045,-112.7266C1158.2928,-107.496 1384.5315,-92.8409 1573,-53 1576.04,-52.3574 1579.1263,-51.6419 1582.2308,-50.8697"/>
<polygon fill="#191970" stroke="#191970" points="1037.6034,-109.2404 1027.7604,-113.1603 1037.8995,-116.2341 1037.6034,-109.2404"/>
</g>
<!-- Node161 -->
<g id="node12" class="node">
<title>Node161</title>
<g id="a_node12"><a xlink:href="../../d1/d61/o2AnalysisTaskExample_8cxx.html" target="_top" xlink:title="/home/travis/build\l/AliceO2Group/AliceO2\l/Framework/TestWorkflows\l/src/o2AnalysisTaskExample.cxx">
<polygon fill="none" stroke="#000000" points="1743.5,-.5 1743.5,-52.5 1918.5,-52.5 1918.5,-.5 1743.5,-.5"/>
<text text-anchor="start" x="1751.5" y="-40.5" font-family="Helvetica,sans-Serif" font-size="10.00" fill="#000000">/home/travis/build</text>
<text text-anchor="start" x="1751.5" y="-29.5" font-family="Helvetica,sans-Serif" font-size="10.00" fill="#000000">/AliceO2Group/AliceO2</text>
<text text-anchor="start" x="1751.5" y="-18.5" font-family="Helvetica,sans-Serif" font-size="10.00" fill="#000000">/Framework/TestWorkflows</text>
<text text-anchor="middle" x="1831" y="-7.5" font-family="Helvetica,sans-Serif" font-size="10.00" fill="#000000">/src/o2AnalysisTaskExample.cxx</text>
</a>
</g>
</g>
<!-- Node150&#45;&gt;Node161 -->
<g id="edge11" class="edge">
<title>Node150&#45;&gt;Node161</title>
<path fill="none" stroke="#191970" d="M1037.8326,-113.9736C1182.0985,-110.2097 1484.0023,-97.2606 1735,-53 1737.7244,-52.5196 1740.4832,-51.9957 1743.2615,-51.4357"/>
<polygon fill="#191970" stroke="#191970" points="1037.6291,-110.4776 1027.7207,-114.2291 1037.806,-117.4753 1037.6291,-110.4776"/>
</g>
</g>
</svg>
        <g id="navigator" transform="translate(0 0)" fill="#404254">
                <rect fill="#f2f5e9" fill-opacity="0.5" stroke="#606060" stroke-width=".5" x="0" y="0" width="60" height="60"/>
                <use id="zoomplus" xlink:href="#zoomPlus" x="17" y="9" onmousedown="handleZoom(evt,'in')"/>
                <use id="zoomminus" xlink:href="#zoomMin" x="42" y="9" onmousedown="handleZoom(evt,'out')"/>
                <use id="reset" xlink:href="#resetDef" x="30" y="36" onmousedown="handleReset()"/>
                <g id="arrowUp" xlink:href="#dirArrow" transform="translate(30 24)" onmousedown="handlePan(0,-1)">
                  <use xlink:href="#rim" fill="#404040">
                        <set attributeName="fill" to="#808080" begin="arrowUp.mouseover" end="arrowUp.mouseout"/>
                  </use>
                  <path fill="none" stroke="white" stroke-width="1.5" d="M0,-3.0v7 M-2.5,-0.5L0,-3.0L2.5,-0.5"/>
                </g>
                <g id="arrowRight" xlink:href="#dirArrow" transform="rotate(90) translate(36 -43)" onmousedown="handlePan(1,0)">
                  <use xlink:href="#rim" fill="#404040">
                        <set attributeName="fill" to="#808080" begin="arrowRight.mouseover" end="arrowRight.mouseout"/>
                  </use>
                  <path fill="none" stroke="white" stroke-width="1.5" d="M0,-3.0v7 M-2.5,-0.5L0,-3.0L2.5,-0.5"/>
                </g>
                <g id="arrowDown" xlink:href="#dirArrow" transform="rotate(180) translate(-30 -48)" onmousedown="handlePan(0,1)">
                  <use xlink:href="#rim" fill="#404040">
                        <set attributeName="fill" to="#808080" begin="arrowDown.mouseover" end="arrowDown.mouseout"/>
                  </use>
                  <path fill="none" stroke="white" stroke-width="1.5" d="M0,-3.0v7 M-2.5,-0.5L0,-3.0L2.5,-0.5"/>
                </g>
                <g id="arrowLeft" xlink:href="#dirArrow" transform="rotate(270) translate(-36 17)" onmousedown="handlePan(-1,0)">
                  <use xlink:href="#rim" fill="#404040">
                        <set attributeName="fill" to="#808080" begin="arrowLeft.mouseover" end="arrowLeft.mouseout"/>
                  </use>
                  <path fill="none" stroke="white" stroke-width="1.5" d="M0,-3.0v7 M-2.5,-0.5L0,-3.0L2.5,-0.5"/>
                </g>
        </g>
        <svg viewBox="0 0 15 15" width="100%" height="30px" preserveAspectRatio="xMaxYMin meet">
         <g id="arrow_out" transform="scale(0.3 0.3)">
          <a xlink:href="AnalysisTask_8h__dep__incl_org.svg" target="_base">
           <rect id="button" ry="5" rx="5" y="6" x="6" height="38" width="38"
                fill="#f2f5e9" fill-opacity="0.5" stroke="#606060" stroke-width="1.0"/>
           <path id="arrow"
             d="M 11.500037,31.436501 C 11.940474,20.09759 22.043105,11.32322 32.158766,21.979434 L 37.068811,17.246167 C 37.068811,17.246167 37.088388,32 37.088388,32 L 22.160133,31.978069 C 22.160133,31.978069 26.997745,27.140456 26.997745,27.140456 C 18.528582,18.264221 13.291696,25.230495 11.500037,31.436501 z"
             style="fill:#404040;"/>
          </a>
         </g>
        </svg>
</svg>
