<?xml version="1.0" encoding="UTF-8" standalone="no"?>
<!DOCTYPE svg PUBLIC "-//W3C//DTD SVG 1.1//EN"
 "http://www.w3.org/Graphics/SVG/1.1/DTD/svg11.dtd">
<!-- Generated by graphviz version 2.40.1 (20161225.0304)
 -->
<!-- Title: o2::header::BaseHeader Pages: 1 -->
<!--zoomable 887 -->
<svg id="main" version="1.1" xmlns="http://www.w3.org/2000/svg" xmlns:xlink="http://www.w3.org/1999/xlink" xml:space="preserve" onload="init(evt)">
<style type="text/css"><![CDATA[
.edge:hover path { stroke: red; }
.edge:hover polygon { stroke: red; fill: red; }
]]></style>
<script type="text/javascript"><![CDATA[
var edges = document.getElementsByTagName('g');
if (edges && edges.length) {
  for (var i=0;i<edges.length;i++) {
    if (edges[i].id.substr(0,4)=='edge') {
      edges[i].setAttribute('class','edge');
    }
  }
}
]]></script>
        <defs>
                <circle id="rim" cx="0" cy="0" r="7"/>
                <circle id="rim2" cx="0" cy="0" r="3.5"/>
                <g id="zoomPlus">
                        <use xlink:href="#rim" fill="#404040">
                                <set attributeName="fill" to="#808080" begin="zoomplus.mouseover" end="zoomplus.mouseout"/>
                        </use>
                        <path d="M-4,0h8M0,-4v8" fill="none" stroke="white" stroke-width="1.5" pointer-events="none"/>
                </g>
                <g id="zoomMin">
                        <use xlink:href="#rim" fill="#404040">
                                <set attributeName="fill" to="#808080" begin="zoomminus.mouseover" end="zoomminus.mouseout"/>
                        </use>
                        <path d="M-4,0h8" fill="none" stroke="white" stroke-width="1.5" pointer-events="none"/>
                </g>
                <g id="dirArrow">
                        <path fill="none" stroke="white" stroke-width="1.5" d="M0,-3.0v7 M-2.5,-0.5L0,-3.0L2.5,-0.5"/>
                </g>
               <g id="resetDef">
                       <use xlink:href="#rim2" fill="#404040">
                               <set attributeName="fill" to="#808080" begin="reset.mouseover" end="reset.mouseout"/>
                       </use>
               </g>
        </defs>

<script type="text/javascript">
var viewWidth = 919;
var viewHeight = 887;
var sectionId = 'dynsection-1';
</script>
<script xlink:href="../../svgpan.js"/>
<svg id="graph" class="graph">
<g id="viewport">
<title>o2::header::BaseHeader</title>
<!-- Node13 -->
<g id="node1" class="node">
<title>Node13</title>
<polygon fill="#bfbfbf" stroke="#000000" points="500.4498,-.5 500.4498,-145.5 634.4498,-145.5 634.4498,-.5 500.4498,-.5"/>
<text text-anchor="middle" x="567.4498" y="-133.5" font-family="Helvetica,sans-Serif" font-size="10.00" fill="#000000">o2::header::BaseHeader</text>
<polyline fill="none" stroke="#000000" points="500.4498,-126.5 634.4498,-126.5 "/>
<text text-anchor="middle" x="567.4498" y="-114.5" font-family="Helvetica,sans-Serif" font-size="10.00" fill="#000000"> </text>
<polyline fill="none" stroke="#000000" points="500.4498,-107.5 634.4498,-107.5 "/>
<text text-anchor="start" x="508.4498" y="-95.5" font-family="Helvetica,sans-Serif" font-size="10.00" fill="#000000">+ BaseHeader()</text>
<text text-anchor="start" x="508.4498" y="-84.5" font-family="Helvetica,sans-Serif" font-size="10.00" fill="#000000">+ BaseHeader()</text>
<text text-anchor="start" x="508.4498" y="-73.5" font-family="Helvetica,sans-Serif" font-size="10.00" fill="#000000">+ BaseHeader()</text>
<text text-anchor="start" x="508.4498" y="-62.5" font-family="Helvetica,sans-Serif" font-size="10.00" fill="#000000">+ size()</text>
<text text-anchor="start" x="508.4498" y="-51.5" font-family="Helvetica,sans-Serif" font-size="10.00" fill="#000000">+ data()</text>
<text text-anchor="start" x="508.4498" y="-40.5" font-family="Helvetica,sans-Serif" font-size="10.00" fill="#000000">+ next()</text>
<text text-anchor="start" x="508.4498" y="-29.5" font-family="Helvetica,sans-Serif" font-size="10.00" fill="#000000">+ next()</text>
<text text-anchor="start" x="508.4498" y="-18.5" font-family="Helvetica,sans-Serif" font-size="10.00" fill="#000000">+ get()</text>
<text text-anchor="start" x="508.4498" y="-7.5" font-family="Helvetica,sans-Serif" font-size="10.00" fill="#000000">+ get()</text>
</g>
<!-- Node14 -->
<g id="node2" class="node">
<title>Node14</title>
<g id="a_node2"><a xlink:href="../../d9/db3/structo2_1_1header_1_1Descriptor.html" target="_top" xlink:title="{o2::header::Descriptor\l\&lt; gSizeHeaderDescriptionString \&gt;\n||+ Descriptor()\l+ Descriptor()\l+ Descriptor()\l+ Descriptor()\l+ operator=()\l+ operator ItgType()\l+ runtimeInit()\l+ operator==()\l+ operator==()\l+ operator\&lt;()\l+ operator!=()\l+ operator!=()\l+ as()\l+ print()\l}">
<polygon fill="none" stroke="#000000" points="84.9498,-248.5 84.9498,-459.5 269.9498,-459.5 269.9498,-248.5 84.9498,-248.5"/>
<text text-anchor="start" x="92.9498" y="-447.5" font-family="Helvetica,sans-Serif" font-size="10.00" fill="#000000">o2::header::Descriptor</text>
<text text-anchor="middle" x="177.4498" y="-436.5" font-family="Helvetica,sans-Serif" font-size="10.00" fill="#000000">&lt; gSizeHeaderDescriptionString &gt;</text>
<polyline fill="none" stroke="#000000" points="84.9498,-429.5 269.9498,-429.5 "/>
<text text-anchor="middle" x="177.4498" y="-417.5" font-family="Helvetica,sans-Serif" font-size="10.00" fill="#000000"> </text>
<polyline fill="none" stroke="#000000" points="84.9498,-410.5 269.9498,-410.5 "/>
<text text-anchor="start" x="92.9498" y="-398.5" font-family="Helvetica,sans-Serif" font-size="10.00" fill="#000000">+ Descriptor()</text>
<text text-anchor="start" x="92.9498" y="-387.5" font-family="Helvetica,sans-Serif" font-size="10.00" fill="#000000">+ Descriptor()</text>
<text text-anchor="start" x="92.9498" y="-376.5" font-family="Helvetica,sans-Serif" font-size="10.00" fill="#000000">+ Descriptor()</text>
<text text-anchor="start" x="92.9498" y="-365.5" font-family="Helvetica,sans-Serif" font-size="10.00" fill="#000000">+ Descriptor()</text>
<text text-anchor="start" x="92.9498" y="-354.5" font-family="Helvetica,sans-Serif" font-size="10.00" fill="#000000">+ operator=()</text>
<text text-anchor="start" x="92.9498" y="-343.5" font-family="Helvetica,sans-Serif" font-size="10.00" fill="#000000">+ operator ItgType()</text>
<text text-anchor="start" x="92.9498" y="-332.5" font-family="Helvetica,sans-Serif" font-size="10.00" fill="#000000">+ runtimeInit()</text>
<text text-anchor="start" x="92.9498" y="-321.5" font-family="Helvetica,sans-Serif" font-size="10.00" fill="#000000">+ operator==()</text>
<text text-anchor="start" x="92.9498" y="-310.5" font-family="Helvetica,sans-Serif" font-size="10.00" fill="#000000">+ operator==()</text>
<text text-anchor="start" x="92.9498" y="-299.5" font-family="Helvetica,sans-Serif" font-size="10.00" fill="#000000">+ operator&lt;()</text>
<text text-anchor="start" x="92.9498" y="-288.5" font-family="Helvetica,sans-Serif" font-size="10.00" fill="#000000">+ operator!=()</text>
<text text-anchor="start" x="92.9498" y="-277.5" font-family="Helvetica,sans-Serif" font-size="10.00" fill="#000000">+ operator!=()</text>
<text text-anchor="start" x="92.9498" y="-266.5" font-family="Helvetica,sans-Serif" font-size="10.00" fill="#000000">+ as()</text>
<text text-anchor="start" x="92.9498" y="-255.5" font-family="Helvetica,sans-Serif" font-size="10.00" fill="#000000">+ print()</text>
</a>
</g>
</g>
<!-- Node14&#45;&gt;Node13 -->
<g id="edge1" class="edge">
<title>Node14&#45;&gt;Node13</title>
<path fill="none" stroke="#404040" d="M270.1211,-259.1766C304.5799,-226.7435 345.1367,-191.6938 385.4498,-164 417.6275,-141.895 455.9387,-121.9173 489.0921,-106.3493"/>
<polygon fill="none" stroke="#404040" points="489.2322,-106.2844 492.9959,-100.1335 500.1214,-101.242 496.3576,-107.393 489.2322,-106.2844"/>
<text text-anchor="middle" x="418.4498" y="-194.5" font-family="Helvetica,sans-Serif" font-size="10.00" fill="#000000"> +description</text>
</g>
<!-- Node15 -->
<g id="node3" class="node">
<title>Node15</title>
<polygon fill="none" stroke="#bfbfbf" points="452.9498,-821.5 452.9498,-878.5 491.9498,-878.5 491.9498,-821.5 452.9498,-821.5"/>
<text text-anchor="middle" x="472.4498" y="-866.5" font-family="Helvetica,sans-Serif" font-size="10.00" fill="#000000">Type</text>
<polyline fill="none" stroke="#bfbfbf" points="452.9498,-859.5 491.9498,-859.5 "/>
<text text-anchor="middle" x="472.4498" y="-847.5" font-family="Helvetica,sans-Serif" font-size="10.00" fill="#000000"> </text>
<polyline fill="none" stroke="#bfbfbf" points="452.9498,-840.5 491.9498,-840.5 "/>
<text text-anchor="middle" x="472.4498" y="-828.5" font-family="Helvetica,sans-Serif" font-size="10.00" fill="#000000"> </text>
</g>
<!-- Node15&#45;&gt;Node14 -->
<g id="edge2" class="edge">
<title>Node15&#45;&gt;Node14</title>
<path fill="none" stroke="#404040" d="M477.9247,-821.224C487.373,-763.0535 500.7142,-629.4162 444.4498,-540 430.1201,-517.227 364.5707,-489.922 340.4498,-478 321.1391,-468.4555 313.7437,-471.3725 295.4498,-460 290.248,-456.7662 285.0593,-453.2942 279.9207,-449.6498"/>
<polygon fill="none" stroke="#404040" points="279.7828,-449.5485 272.5791,-449.2214 270.1105,-442.446 277.3142,-442.7732 279.7828,-449.5485"/>
<text text-anchor="middle" x="497.9498" y="-643.5" font-family="Helvetica,sans-Serif" font-size="10.00" fill="#000000"> +itg</text>
</g>
<!-- Node19 -->
<g id="node7" class="node">
<title>Node19</title>
<g id="a_node7"><a xlink:href="../../d9/db3/structo2_1_1header_1_1Descriptor.html" target="_top" xlink:title="{o2::header::Descriptor\l\&lt; N, PrinterPolicy \&gt;\n||+ Descriptor()\l+ Descriptor()\l+ Descriptor()\l+ operator=()\l+ operator ItgType()\l+ Descriptor()\l+ runtimeInit()\l+ operator==()\l+ operator\&lt;()\l+ operator!=()\l+ operator==()\l+ operator!=()\l+ as()\l+ print()\l}">
<polygon fill="none" stroke="#000000" points="310.9498,-540.5 310.9498,-751.5 435.9498,-751.5 435.9498,-540.5 310.9498,-540.5"/>
<text text-anchor="start" x="318.9498" y="-739.5" font-family="Helvetica,sans-Serif" font-size="10.00" fill="#000000">o2::header::Descriptor</text>
<text text-anchor="middle" x="373.4498" y="-728.5" font-family="Helvetica,sans-Serif" font-size="10.00" fill="#000000">&lt; N, PrinterPolicy &gt;</text>
<polyline fill="none" stroke="#000000" points="310.9498,-721.5 435.9498,-721.5 "/>
<text text-anchor="middle" x="373.4498" y="-709.5" font-family="Helvetica,sans-Serif" font-size="10.00" fill="#000000"> </text>
<polyline fill="none" stroke="#000000" points="310.9498,-702.5 435.9498,-702.5 "/>
<text text-anchor="start" x="318.9498" y="-690.5" font-family="Helvetica,sans-Serif" font-size="10.00" fill="#000000">+ Descriptor()</text>
<text text-anchor="start" x="318.9498" y="-679.5" font-family="Helvetica,sans-Serif" font-size="10.00" fill="#000000">+ Descriptor()</text>
<text text-anchor="start" x="318.9498" y="-668.5" font-family="Helvetica,sans-Serif" font-size="10.00" fill="#000000">+ Descriptor()</text>
<text text-anchor="start" x="318.9498" y="-657.5" font-family="Helvetica,sans-Serif" font-size="10.00" fill="#000000">+ operator=()</text>
<text text-anchor="start" x="318.9498" y="-646.5" font-family="Helvetica,sans-Serif" font-size="10.00" fill="#000000">+ operator ItgType()</text>
<text text-anchor="start" x="318.9498" y="-635.5" font-family="Helvetica,sans-Serif" font-size="10.00" fill="#000000">+ Descriptor()</text>
<text text-anchor="start" x="318.9498" y="-624.5" font-family="Helvetica,sans-Serif" font-size="10.00" fill="#000000">+ runtimeInit()</text>
<text text-anchor="start" x="318.9498" y="-613.5" font-family="Helvetica,sans-Serif" font-size="10.00" fill="#000000">+ operator==()</text>
<text text-anchor="start" x="318.9498" y="-602.5" font-family="Helvetica,sans-Serif" font-size="10.00" fill="#000000">+ operator&lt;()</text>
<text text-anchor="start" x="318.9498" y="-591.5" font-family="Helvetica,sans-Serif" font-size="10.00" fill="#000000">+ operator!=()</text>
<text text-anchor="start" x="318.9498" y="-580.5" font-family="Helvetica,sans-Serif" font-size="10.00" fill="#000000">+ operator==()</text>
<text text-anchor="start" x="318.9498" y="-569.5" font-family="Helvetica,sans-Serif" font-size="10.00" fill="#000000">+ operator!=()</text>
<text text-anchor="start" x="318.9498" y="-558.5" font-family="Helvetica,sans-Serif" font-size="10.00" fill="#000000">+ as()</text>
<text text-anchor="start" x="318.9498" y="-547.5" font-family="Helvetica,sans-Serif" font-size="10.00" fill="#000000">+ print()</text>
</a>
</g>
</g>
<!-- Node15&#45;&gt;Node19 -->
<g id="edge7" class="edge">
<title>Node15&#45;&gt;Node19</title>
<path fill="none" stroke="#404040" d="M452.6129,-829.1104C445.9205,-821.3288 438.7994,-812.1546 433.4498,-803 426.0733,-790.3767 419.2858,-776.6804 413.1393,-762.8147"/>
<polygon fill="none" stroke="#404040" points="413.0898,-762.6993 407.0446,-758.7679 408.3484,-751.6757 414.3936,-755.6071 413.0898,-762.6993"/>
<text text-anchor="middle" x="445.9498" y="-784" font-family="Helvetica,sans-Serif" font-size="10.00" fill="#000000"> +itg</text>
</g>
<!-- Node22 -->
<g id="node10" class="node">
<title>Node22</title>
<g id="a_node10"><a xlink:href="../../d9/db3/structo2_1_1header_1_1Descriptor.html" target="_top" xlink:title="{o2::header::Descriptor\l\&lt; gSizeSerializationMethodString \&gt;\n||+ Descriptor()\l+ Descriptor()\l+ Descriptor()\l+ Descriptor()\l+ operator=()\l+ operator ItgType()\l+ runtimeInit()\l+ operator==()\l+ operator==()\l+ operator\&lt;()\l+ operator!=()\l+ operator!=()\l+ as()\l+ print()\l}">
<polygon fill="none" stroke="#000000" points="304.9498,-248.5 304.9498,-459.5 495.9498,-459.5 495.9498,-248.5 304.9498,-248.5"/>
<text text-anchor="start" x="312.9498" y="-447.5" font-family="Helvetica,sans-Serif" font-size="10.00" fill="#000000">o2::header::Descriptor</text>
<text text-anchor="middle" x="400.4498" y="-436.5" font-family="Helvetica,sans-Serif" font-size="10.00" fill="#000000">&lt; gSizeSerializationMethodString &gt;</text>
<polyline fill="none" stroke="#000000" points="304.9498,-429.5 495.9498,-429.5 "/>
<text text-anchor="middle" x="400.4498" y="-417.5" font-family="Helvetica,sans-Serif" font-size="10.00" fill="#000000"> </text>
<polyline fill="none" stroke="#000000" points="304.9498,-410.5 495.9498,-410.5 "/>
<text text-anchor="start" x="312.9498" y="-398.5" font-family="Helvetica,sans-Serif" font-size="10.00" fill="#000000">+ Descriptor()</text>
<text text-anchor="start" x="312.9498" y="-387.5" font-family="Helvetica,sans-Serif" font-size="10.00" fill="#000000">+ Descriptor()</text>
<text text-anchor="start" x="312.9498" y="-376.5" font-family="Helvetica,sans-Serif" font-size="10.00" fill="#000000">+ Descriptor()</text>
<text text-anchor="start" x="312.9498" y="-365.5" font-family="Helvetica,sans-Serif" font-size="10.00" fill="#000000">+ Descriptor()</text>
<text text-anchor="start" x="312.9498" y="-354.5" font-family="Helvetica,sans-Serif" font-size="10.00" fill="#000000">+ operator=()</text>
<text text-anchor="start" x="312.9498" y="-343.5" font-family="Helvetica,sans-Serif" font-size="10.00" fill="#000000">+ operator ItgType()</text>
<text text-anchor="start" x="312.9498" y="-332.5" font-family="Helvetica,sans-Serif" font-size="10.00" fill="#000000">+ runtimeInit()</text>
<text text-anchor="start" x="312.9498" y="-321.5" font-family="Helvetica,sans-Serif" font-size="10.00" fill="#000000">+ operator==()</text>
<text text-anchor="start" x="312.9498" y="-310.5" font-family="Helvetica,sans-Serif" font-size="10.00" fill="#000000">+ operator==()</text>
<text text-anchor="start" x="312.9498" y="-299.5" font-family="Helvetica,sans-Serif" font-size="10.00" fill="#000000">+ operator&lt;()</text>
<text text-anchor="start" x="312.9498" y="-288.5" font-family="Helvetica,sans-Serif" font-size="10.00" fill="#000000">+ operator!=()</text>
<text text-anchor="start" x="312.9498" y="-277.5" font-family="Helvetica,sans-Serif" font-size="10.00" fill="#000000">+ operator!=()</text>
<text text-anchor="start" x="312.9498" y="-266.5" font-family="Helvetica,sans-Serif" font-size="10.00" fill="#000000">+ as()</text>
<text text-anchor="start" x="312.9498" y="-255.5" font-family="Helvetica,sans-Serif" font-size="10.00" fill="#000000">+ print()</text>
</a>
</g>
</g>
<!-- Node15&#45;&gt;Node22 -->
<g id="edge15" class="edge">
<title>Node15&#45;&gt;Node22</title>
<path fill="none" stroke="#404040" d="M492.3458,-848.714C520.1972,-845.7323 570.0194,-835.8373 593.4498,-803 619.7372,-766.1588 678.2264,-755.14 595.4498,-540 582.116,-505.3449 568.7482,-500.8115 539.4498,-478 528.1721,-469.2192 521.5844,-469.6617 506.2538,-459.881"/>
<polygon fill="none" stroke="#404040" points="505.9507,-459.6692 498.7414,-459.5099 496.1155,-452.7939 503.3249,-452.9531 505.9507,-459.6692"/>
<text text-anchor="middle" x="649.9498" y="-643.5" font-family="Helvetica,sans-Serif" font-size="10.00" fill="#000000"> +itg</text>
</g>
<!-- Node16 -->
<g id="node4" class="node">
<title>Node16</title>
<polygon fill="none" stroke="#bfbfbf" points="77.4498,-821.5 77.4498,-878.5 115.4498,-878.5 115.4498,-821.5 77.4498,-821.5"/>
<text text-anchor="middle" x="96.4498" y="-866.5" font-family="Helvetica,sans-Serif" font-size="10.00" fill="#000000">char</text>
<polyline fill="none" stroke="#bfbfbf" points="77.4498,-859.5 115.4498,-859.5 "/>
<text text-anchor="middle" x="96.4498" y="-847.5" font-family="Helvetica,sans-Serif" font-size="10.00" fill="#000000"> </text>
<polyline fill="none" stroke="#bfbfbf" points="77.4498,-840.5 115.4498,-840.5 "/>
<text text-anchor="middle" x="96.4498" y="-828.5" font-family="Helvetica,sans-Serif" font-size="10.00" fill="#000000"> </text>
</g>
<!-- Node16&#45;&gt;Node13 -->
<g id="edge12" class="edge">
<title>Node16&#45;&gt;Node13</title>
<path fill="none" stroke="#404040" d="M83.3072,-821.3686C41.5629,-725.6719 -76.5861,-413.6466 75.4498,-248 184.3564,-129.3437 379.0462,-91.0963 488.0122,-78.7992"/>
<polygon fill="none" stroke="#404040" points="488.2873,-78.7698 493.8265,-74.1527 500.2189,-77.4899 494.6797,-82.1071 488.2873,-78.7698"/>
<text text-anchor="middle" x="37.4498" y="-497.5" font-family="Helvetica,sans-Serif" font-size="10.00" fill="#000000"> +magicString</text>
</g>
<!-- Node16&#45;&gt;Node14 -->
<g id="edge3" class="edge">
<title>Node16&#45;&gt;Node14</title>
<path fill="none" stroke="#404040" d="M89.5214,-821.2716C77.3578,-765.9169 55.6909,-641.02 80.4498,-540 86.1865,-516.5936 95.4384,-492.8601 106.0051,-470.5326"/>
<polygon fill="none" stroke="#404040" points="106.0309,-470.4794 105.0639,-463.3334 111.2883,-459.6924 112.2553,-466.8383 106.0309,-470.4794"/>
<text text-anchor="middle" x="92.9498" y="-643.5" font-family="Helvetica,sans-Serif" font-size="10.00" fill="#000000"> +str</text>
</g>
<!-- Node16&#45;&gt;Node19 -->
<g id="edge8" class="edge">
<title>Node16&#45;&gt;Node19</title>
<path fill="none" stroke="#404040" d="M115.6925,-840.2148C145.8011,-824.9547 205.9387,-794.6787 257.4498,-770 274.6663,-761.7516 281.6959,-764.1147 296.4498,-752 298.2956,-750.4844 300.1195,-748.9148 301.9202,-747.2982"/>
<polygon fill="none" stroke="#404040" points="302.0632,-747.1611 303.6253,-740.1212 310.7245,-738.8556 309.1623,-745.8955 302.0632,-747.1611"/>
<text text-anchor="middle" x="269.9498" y="-784" font-family="Helvetica,sans-Serif" font-size="10.00" fill="#000000"> +str</text>
</g>
<!-- Node16&#45;&gt;Node22 -->
<g id="edge16" class="edge">
<title>Node16&#45;&gt;Node22</title>
<path fill="none" stroke="#404040" d="M115.7614,-832.6041C134.4847,-814.4802 161.9755,-784.2653 175.4498,-752 193.7204,-708.2497 167.2305,-574.7824 199.4498,-540 228.3561,-508.7941 258.262,-545.8998 293.4498,-522 312.6245,-508.9764 309.0003,-497.5523 321.4498,-478 323.1892,-475.2682 324.9503,-472.5026 326.7265,-469.7133"/>
<polygon fill="none" stroke="#404040" points="326.767,-469.6497 326.6161,-462.4402 333.213,-459.528 333.3639,-466.7375 326.767,-469.6497"/>
<text text-anchor="middle" x="211.9498" y="-643.5" font-family="Helvetica,sans-Serif" font-size="10.00" fill="#000000"> +str</text>
</g>
<!-- Node17 -->
<g id="node5" class="node">
<title>Node17</title>
<polygon fill="none" stroke="#bfbfbf" points="204.9498,-821.5 204.9498,-878.5 311.9498,-878.5 311.9498,-821.5 204.9498,-821.5"/>
<text text-anchor="middle" x="258.4498" y="-866.5" font-family="Helvetica,sans-Serif" font-size="10.00" fill="#000000">anonymous:+@24</text>
<polyline fill="none" stroke="#bfbfbf" points="204.9498,-859.5 311.9498,-859.5 "/>
<text text-anchor="middle" x="258.4498" y="-847.5" font-family="Helvetica,sans-Serif" font-size="10.00" fill="#000000"> </text>
<polyline fill="none" stroke="#bfbfbf" points="204.9498,-840.5 311.9498,-840.5 "/>
<text text-anchor="middle" x="258.4498" y="-828.5" font-family="Helvetica,sans-Serif" font-size="10.00" fill="#000000"> </text>
</g>
<!-- Node17&#45;&gt;Node14 -->
<g id="edge4" class="edge">
<title>Node17&#45;&gt;Node14</title>
<path fill="none" stroke="#404040" d="M237.6756,-821.4943C224.2846,-804.7224 205.6424,-784.1045 185.4498,-770 168.1283,-757.901 153.2267,-769.5421 141.4498,-752 111.598,-707.5348 130.8451,-571.9489 150.8276,-471.3195"/>
<polygon fill="none" stroke="#404040" points="150.831,-471.3023 148.0951,-464.6304 153.2016,-459.5388 155.9375,-466.2108 150.831,-471.3023"/>
<text text-anchor="middle" x="158.4498" y="-643.5" font-family="Helvetica,sans-Serif" font-size="10.00" fill="#000000"> +@24</text>
</g>
<!-- Node17&#45;&gt;Node19 -->
<g id="edge9" class="edge">
<title>Node17&#45;&gt;Node19</title>
<path fill="none" stroke="#404040" d="M274.6826,-821.2045C283.7155,-805.1809 295.6201,-784.0632 308.0264,-762.0555"/>
<polygon fill="none" stroke="#404040" points="308.0562,-762.0026 307.5181,-754.8115 313.9491,-751.5491 314.4871,-758.7401 308.0562,-762.0026"/>
<text text-anchor="middle" x="319.4498" y="-784" font-family="Helvetica,sans-Serif" font-size="10.00" fill="#000000"> +@24</text>
</g>
<!-- Node17&#45;&gt;Node22 -->
<g id="edge17" class="edge">
<title>Node17&#45;&gt;Node22</title>
<path fill="none" stroke="#404040" d="M249.4562,-821.3083C232.815,-762.1203 204.3486,-624.9225 267.4498,-540 282.5382,-519.6938 302.5392,-538.8044 321.4498,-522 337.509,-507.7294 350.5611,-489.5006 361.0835,-470.3423"/>
<polygon fill="none" stroke="#404040" points="361.1246,-470.2632 360.3514,-463.0937 366.672,-459.6224 367.4453,-466.7919 361.1246,-470.2632"/>
<text text-anchor="middle" x="284.4498" y="-643.5" font-family="Helvetica,sans-Serif" font-size="10.00" fill="#000000"> +@24</text>
</g>
<!-- Node18 -->
<g id="node6" class="node">
<title>Node18</title>
<polygon fill="none" stroke="#bfbfbf" points="641.4498,-821.5 641.4498,-878.5 685.4498,-878.5 685.4498,-821.5 641.4498,-821.5"/>
<text text-anchor="middle" x="663.4498" y="-866.5" font-family="Helvetica,sans-Serif" font-size="10.00" fill="#000000">static</text>
<polyline fill="none" stroke="#bfbfbf" points="641.4498,-859.5 685.4498,-859.5 "/>
<text text-anchor="middle" x="663.4498" y="-847.5" font-family="Helvetica,sans-Serif" font-size="10.00" fill="#000000"> </text>
<polyline fill="none" stroke="#bfbfbf" points="641.4498,-840.5 685.4498,-840.5 "/>
<text text-anchor="middle" x="663.4498" y="-828.5" font-family="Helvetica,sans-Serif" font-size="10.00" fill="#000000"> </text>
</g>
<!-- Node18&#45;&gt;Node13 -->
<g id="edge21" class="edge">
<title>Node18&#45;&gt;Node13</title>
<path fill="none" stroke="#404040" d="M685.5099,-834.5997C707.9801,-817.4274 741.4497,-787.3681 755.4498,-752 796.6718,-647.8619 798.3103,-351.4745 755.4498,-248 733.4909,-194.9866 686.1048,-151.0511 644.4031,-120.4625"/>
<polygon fill="none" stroke="#404040" points="644.2533,-120.3552 637.0462,-120.1116 634.4992,-113.3653 641.7062,-113.6089 644.2533,-120.3552"/>
<text text-anchor="middle" x="841.9498" y="-514" font-family="Helvetica,sans-Serif" font-size="10.00" fill="#000000"> +sMagicString</text>
<text text-anchor="middle" x="841.9498" y="-503" font-family="Helvetica,sans-Serif" font-size="10.00" fill="#000000">+sHeaderType</text>
<text text-anchor="middle" x="841.9498" y="-492" font-family="Helvetica,sans-Serif" font-size="10.00" fill="#000000">+sSerializationMethod</text>
<text text-anchor="middle" x="841.9498" y="-481" font-family="Helvetica,sans-Serif" font-size="10.00" fill="#000000">+sVersion</text>
</g>
<!-- Node18&#45;&gt;Node14 -->
<g id="edge5" class="edge">
<title>Node18&#45;&gt;Node14</title>
<path fill="none" stroke="#404040" d="M644.5097,-821.1519C631.9072,-804.0386 613.9366,-783.1809 593.4498,-770 570.0363,-754.9361 551.201,-773.4478 533.4498,-752 473.0516,-679.024 571.1321,-613.5626 511.4498,-540 494.9787,-519.6983 478.6386,-534.0722 455.4498,-522 426.7501,-507.0587 427.1005,-490.9518 397.4498,-478 355.265,-459.5731 336.835,-480.1588 295.4498,-460 290.305,-457.4939 285.2178,-454.6962 280.2129,-451.6708"/>
<polygon fill="none" stroke="#404040" points="280.1641,-451.6395 272.9541,-451.7674 270.063,-445.1612 277.273,-445.0333 280.1641,-451.6395"/>
<text text-anchor="middle" x="562.4498" y="-654.5" font-family="Helvetica,sans-Serif" font-size="10.00" fill="#000000"> +arraySize</text>
<text text-anchor="middle" x="562.4498" y="-643.5" font-family="Helvetica,sans-Serif" font-size="10.00" fill="#000000">+size</text>
<text text-anchor="middle" x="562.4498" y="-632.5" font-family="Helvetica,sans-Serif" font-size="10.00" fill="#000000">+bitcount</text>
</g>
<!-- Node18&#45;&gt;Node19 -->
<g id="edge10" class="edge">
<title>Node18&#45;&gt;Node19</title>
<path fill="none" stroke="#404040" d="M641.1779,-843.8854C600.0112,-831.747 510.7232,-801.4313 450.4498,-752 448.6031,-750.4855 446.7784,-748.9169 444.9769,-747.3012"/>
<polygon fill="none" stroke="#404040" points="444.8342,-747.1645 437.7345,-745.9018 436.1693,-738.8626 443.2691,-740.1253 444.8342,-747.1645"/>
<text text-anchor="middle" x="560.4498" y="-795" font-family="Helvetica,sans-Serif" font-size="10.00" fill="#000000"> +arraySize</text>
<text text-anchor="middle" x="560.4498" y="-784" font-family="Helvetica,sans-Serif" font-size="10.00" fill="#000000">+size</text>
<text text-anchor="middle" x="560.4498" y="-773" font-family="Helvetica,sans-Serif" font-size="10.00" fill="#000000">+bitcount</text>
</g>
<!-- Node18&#45;&gt;Node22 -->
<g id="edge18" class="edge">
<title>Node18&#45;&gt;Node22</title>
<path fill="none" stroke="#404040" d="M672.1948,-821.41C687.9735,-764.1435 715.2667,-632.9086 666.4498,-540 643.8571,-497.0014 620.6862,-498.0612 576.4498,-478 549.8133,-465.9204 536.5428,-474.0556 506.8455,-459.9553"/>
<polygon fill="none" stroke="#404040" points="506.7038,-459.8802 499.5291,-460.604 496.1015,-454.2597 503.2762,-453.5358 506.7038,-459.8802"/>
<text text-anchor="middle" x="722.4498" y="-654.5" font-family="Helvetica,sans-Serif" font-size="10.00" fill="#000000"> +arraySize</text>
<text text-anchor="middle" x="722.4498" y="-643.5" font-family="Helvetica,sans-Serif" font-size="10.00" fill="#000000">+size</text>
<text text-anchor="middle" x="722.4498" y="-632.5" font-family="Helvetica,sans-Serif" font-size="10.00" fill="#000000">+bitcount</text>
</g>
<!-- Node19&#45;&gt;Node14 -->
<g id="edge6" class="edge">
<title>Node19&#45;&gt;Node14</title>
<path fill="none" stroke="#ffa500" d="M302.8511,-544.4468C300.759,-542.8866 298.6251,-541.4009 296.4498,-540 262.887,-518.3848 236.4046,-550.4993 208.4498,-522 192.0424,-505.273 182.8093,-482.871 177.8851,-459.8895"/>
<polygon fill="#ffa500" stroke="#ffa500" points="300.7372,-547.2387 310.7113,-550.8121 305.1426,-541.7987 300.7372,-547.2387"/>
<text text-anchor="start" x="208.4498" y="-503" font-family="Helvetica,sans-Serif" font-size="10.00" fill="#000000"> &lt; gSizeHeaderDescription</text>
<text text-anchor="middle" x="274.4498" y="-492" font-family="Helvetica,sans-Serif" font-size="10.00" fill="#000000">String &gt;</text>
</g>
<!-- Node19&#45;&gt;Node22 -->
<g id="edge19" class="edge">
<title>Node19&#45;&gt;Node22</title>
<path fill="none" stroke="#ffa500" d="M392.57,-530.1928C392.8823,-527.4375 393.1764,-524.7034 393.4498,-522 395.4763,-501.9597 396.9189,-480.5177 397.9452,-459.8854"/>
<polygon fill="#ffa500" stroke="#ffa500" points="389.0802,-529.8995 391.3651,-540.2451 396.0305,-530.7327 389.0802,-529.8995"/>
<text text-anchor="start" x="397.4498" y="-503" font-family="Helvetica,sans-Serif" font-size="10.00" fill="#000000"> &lt; gSizeSerializationMethod</text>
<text text-anchor="middle" x="466.4498" y="-492" font-family="Helvetica,sans-Serif" font-size="10.00" fill="#000000">String &gt;</text>
</g>
<!-- Node20 -->
<g id="node8" class="node">
<title>Node20</title>
<polygon fill="none" stroke="#bfbfbf" points="513.9498,-325.5 513.9498,-382.5 620.9498,-382.5 620.9498,-325.5 513.9498,-325.5"/>
<text text-anchor="middle" x="567.4498" y="-370.5" font-family="Helvetica,sans-Serif" font-size="10.00" fill="#000000">anonymous:+@26</text>
<polyline fill="none" stroke="#bfbfbf" points="513.9498,-363.5 620.9498,-363.5 "/>
<text text-anchor="middle" x="567.4498" y="-351.5" font-family="Helvetica,sans-Serif" font-size="10.00" fill="#000000"> </text>
<polyline fill="none" stroke="#bfbfbf" points="513.9498,-344.5 620.9498,-344.5 "/>
<text text-anchor="middle" x="567.4498" y="-332.5" font-family="Helvetica,sans-Serif" font-size="10.00" fill="#000000"> </text>
</g>
<!-- Node20&#45;&gt;Node13 -->
<g id="edge11" class="edge">
<title>Node20&#45;&gt;Node13</title>
<path fill="none" stroke="#404040" d="M567.4498,-325.2486C567.4498,-286.219 567.4498,-214.8128 567.4498,-157.9103"/>
<polygon fill="none" stroke="#404040" points="567.4499,-157.6374 563.4499,-151.6375 567.4498,-145.6374 571.4499,-151.6374 567.4499,-157.6374"/>
<text text-anchor="middle" x="584.4498" y="-194.5" font-family="Helvetica,sans-Serif" font-size="10.00" fill="#000000"> +@26</text>
</g>
<!-- Node21 -->
<g id="node9" class="node">
<title>Node21</title>
<polygon fill="none" stroke="#bfbfbf" points="638.9498,-325.5 638.9498,-382.5 745.9498,-382.5 745.9498,-325.5 638.9498,-325.5"/>
<text text-anchor="middle" x="692.4498" y="-370.5" font-family="Helvetica,sans-Serif" font-size="10.00" fill="#000000">anonymous:+@28</text>
<polyline fill="none" stroke="#bfbfbf" points="638.9498,-363.5 745.9498,-363.5 "/>
<text text-anchor="middle" x="692.4498" y="-351.5" font-family="Helvetica,sans-Serif" font-size="10.00" fill="#000000"> </text>
<polyline fill="none" stroke="#bfbfbf" points="638.9498,-344.5 745.9498,-344.5 "/>
<text text-anchor="middle" x="692.4498" y="-332.5" font-family="Helvetica,sans-Serif" font-size="10.00" fill="#000000"> </text>
</g>
<!-- Node21&#45;&gt;Node13 -->
<g id="edge13" class="edge">
<title>Node21&#45;&gt;Node13</title>
<path fill="none" stroke="#404040" d="M679.66,-325.2486C662.1889,-285.9736 630.1337,-213.9133 604.7445,-156.8385"/>
<polygon fill="none" stroke="#404040" points="604.6392,-156.6016 598.5458,-152.7453 599.7618,-145.6374 605.8552,-149.4937 604.6392,-156.6016"/>
<text text-anchor="middle" x="650.4498" y="-194.5" font-family="Helvetica,sans-Serif" font-size="10.00" fill="#000000"> +@28</text>
</g>
<!-- Node22&#45;&gt;Node13 -->
<g id="edge14" class="edge">
<title>Node22&#45;&gt;Node13</title>
<path fill="none" stroke="#404040" d="M445.2788,-248.4307C458.7778,-220.2343 474.5423,-190.3061 491.4498,-164 493.3018,-161.1186 495.2341,-158.2272 497.2285,-155.3395"/>
<polygon fill="none" stroke="#404040" points="497.2444,-155.3171 497.479,-148.1098 504.2221,-145.5543 503.9875,-152.7616 497.2444,-155.3171"/>
<text text-anchor="middle" x="527.4498" y="-194.5" font-family="Helvetica,sans-Serif" font-size="10.00" fill="#000000"> +serialization</text>
</g>
<!-- Node23 -->
<g id="node11" class="node">
<title>Node23</title>
<polygon fill="none" stroke="#bfbfbf" points="802.4498,-325.5 802.4498,-382.5 858.4498,-382.5 858.4498,-325.5 802.4498,-325.5"/>
<text text-anchor="middle" x="830.4498" y="-370.5" font-family="Helvetica,sans-Serif" font-size="10.00" fill="#000000">uint32_t</text>
<polyline fill="none" stroke="#bfbfbf" points="802.4498,-363.5 858.4498,-363.5 "/>
<text text-anchor="middle" x="830.4498" y="-351.5" font-family="Helvetica,sans-Serif" font-size="10.00" fill="#000000"> </text>
<polyline fill="none" stroke="#bfbfbf" points="802.4498,-344.5 858.4498,-344.5 "/>
<text text-anchor="middle" x="830.4498" y="-332.5" font-family="Helvetica,sans-Serif" font-size="10.00" fill="#000000"> </text>
</g>
<!-- Node23&#45;&gt;Node13 -->
<g id="edge20" class="edge">
<title>Node23&#45;&gt;Node13</title>
<path fill="none" stroke="#404040" d="M831.8953,-325.3375C832.3871,-284.7412 827.3538,-210.2943 788.4498,-164 752.8277,-121.6109 694.2947,-98.6876 646.4145,-86.4541"/>
<polygon fill="none" stroke="#404040" points="646.1548,-86.3914 639.3823,-88.8679 634.4915,-83.5689 641.264,-81.0923 646.1548,-86.3914"/>
<text text-anchor="middle" x="865.9498" y="-222" font-family="Helvetica,sans-Serif" font-size="10.00" fill="#000000"> +headerVersion</text>
<text text-anchor="middle" x="865.9498" y="-211" font-family="Helvetica,sans-Serif" font-size="10.00" fill="#000000">+headerSize</text>
<text text-anchor="middle" x="865.9498" y="-200" font-family="Helvetica,sans-Serif" font-size="10.00" fill="#000000">+flagsNextHeader</text>
<text text-anchor="middle" x="865.9498" y="-189" font-family="Helvetica,sans-Serif" font-size="10.00" fill="#000000">+magicStringInt</text>
<text text-anchor="middle" x="865.9498" y="-178" font-family="Helvetica,sans-Serif" font-size="10.00" fill="#000000">+flagsUnused</text>
<text text-anchor="middle" x="865.9498" y="-167" font-family="Helvetica,sans-Serif" font-size="10.00" fill="#000000">+flags</text>
</g>
</g>
</svg>
        <g id="navigator" transform="translate(0 0)" fill="#404254">
                <rect fill="#f2f5e9" fill-opacity="0.5" stroke="#606060" stroke-width=".5" x="0" y="0" width="60" height="60"/>
                <use id="zoomplus" xlink:href="#zoomPlus" x="17" y="9" onmousedown="handleZoom(evt,'in')"/>
                <use id="zoomminus" xlink:href="#zoomMin" x="42" y="9" onmousedown="handleZoom(evt,'out')"/>
                <use id="reset" xlink:href="#resetDef" x="30" y="36" onmousedown="handleReset()"/>
                <g id="arrowUp" xlink:href="#dirArrow" transform="translate(30 24)" onmousedown="handlePan(0,-1)">
                  <use xlink:href="#rim" fill="#404040">
                        <set attributeName="fill" to="#808080" begin="arrowUp.mouseover" end="arrowUp.mouseout"/>
                  </use>
                  <path fill="none" stroke="white" stroke-width="1.5" d="M0,-3.0v7 M-2.5,-0.5L0,-3.0L2.5,-0.5"/>
                </g>
                <g id="arrowRight" xlink:href="#dirArrow" transform="rotate(90) translate(36 -43)" onmousedown="handlePan(1,0)">
                  <use xlink:href="#rim" fill="#404040">
                        <set attributeName="fill" to="#808080" begin="arrowRight.mouseover" end="arrowRight.mouseout"/>
                  </use>
                  <path fill="none" stroke="white" stroke-width="1.5" d="M0,-3.0v7 M-2.5,-0.5L0,-3.0L2.5,-0.5"/>
                </g>
                <g id="arrowDown" xlink:href="#dirArrow" transform="rotate(180) translate(-30 -48)" onmousedown="handlePan(0,1)">
                  <use xlink:href="#rim" fill="#404040">
                        <set attributeName="fill" to="#808080" begin="arrowDown.mouseover" end="arrowDown.mouseout"/>
                  </use>
                  <path fill="none" stroke="white" stroke-width="1.5" d="M0,-3.0v7 M-2.5,-0.5L0,-3.0L2.5,-0.5"/>
                </g>
                <g id="arrowLeft" xlink:href="#dirArrow" transform="rotate(270) translate(-36 17)" onmousedown="handlePan(-1,0)">
                  <use xlink:href="#rim" fill="#404040">
                        <set attributeName="fill" to="#808080" begin="arrowLeft.mouseover" end="arrowLeft.mouseout"/>
                  </use>
                  <path fill="none" stroke="white" stroke-width="1.5" d="M0,-3.0v7 M-2.5,-0.5L0,-3.0L2.5,-0.5"/>
                </g>
        </g>
        <svg viewBox="0 0 15 15" width="100%" height="30px" preserveAspectRatio="xMaxYMin meet">
         <g id="arrow_out" transform="scale(0.3 0.3)">
          <a xlink:href="structo2_1_1header_1_1BaseHeader__coll__graph_org.svg" target="_base">
           <rect id="button" ry="5" rx="5" y="6" x="6" height="38" width="38"
                fill="#f2f5e9" fill-opacity="0.5" stroke="#606060" stroke-width="1.0"/>
           <path id="arrow"
             d="M 11.500037,31.436501 C 11.940474,20.09759 22.043105,11.32322 32.158766,21.979434 L 37.068811,17.246167 C 37.068811,17.246167 37.088388,32 37.088388,32 L 22.160133,31.978069 C 22.160133,31.978069 26.997745,27.140456 26.997745,27.140456 C 18.528582,18.264221 13.291696,25.230495 11.500037,31.436501 z"
             style="fill:#404040;"/>
          </a>
         </g>
        </svg>
</svg>
