<?xml version="1.0" encoding="UTF-8" standalone="no"?>
<!DOCTYPE svg PUBLIC "-//W3C//DTD SVG 1.1//EN"
 "http://www.w3.org/Graphics/SVG/1.1/DTD/svg11.dtd">
<!-- Generated by graphviz version 2.40.1 (20161225.0304)
 -->
<!-- Title: /home/travis/build/AliceO2Group/AliceO2/Detectors/ITSMFT/MFT/base/include/MFTBase/Constants.h Pages: 1 -->
<svg width="930pt" height="350pt"
 viewBox="0.00 0.00 930.00 350.00" xmlns="http://www.w3.org/2000/svg" xmlns:xlink="http://www.w3.org/1999/xlink">
<g id="graph0" class="graph" transform="scale(1 1) rotate(0) translate(4 346)">
<title>/home/travis/build/AliceO2Group/AliceO2/Detectors/ITSMFT/MFT/base/include/MFTBase/Constants.h</title>
<!-- Node2 -->
<g id="node1" class="node">
<title>Node2</title>
<polygon fill="#bfbfbf" stroke="#000000" points="355,-289.5 355,-341.5 543,-341.5 543,-289.5 355,-289.5"/>
<text text-anchor="start" x="363" y="-329.5" font-family="Helvetica,sans-Serif" font-size="10.00" fill="#000000">/home/travis/build</text>
<text text-anchor="start" x="363" y="-318.5" font-family="Helvetica,sans-Serif" font-size="10.00" fill="#000000">/AliceO2Group/AliceO2</text>
<text text-anchor="start" x="363" y="-307.5" font-family="Helvetica,sans-Serif" font-size="10.00" fill="#000000">/Detectors/ITSMFT/MFT</text>
<text text-anchor="middle" x="449" y="-296.5" font-family="Helvetica,sans-Serif" font-size="10.00" fill="#000000">/base/include/MFTBase/Constants.h</text>
</g>
<!-- Node3 -->
<g id="node2" class="node">
<title>Node3</title>
<g id="a_node2"><a xlink:href="../../d1/d7f/HalfSegmentation_8cxx.html" target="_top" xlink:title="Segmentation class for each half of the ALICE Muon Forward Tracker. ">
<polygon fill="none" stroke="#000000" points="0,-195 0,-247 172,-247 172,-195 0,-195"/>
<text text-anchor="start" x="8" y="-235" font-family="Helvetica,sans-Serif" font-size="10.00" fill="#000000">/home/travis/build</text>
<text text-anchor="start" x="8" y="-224" font-family="Helvetica,sans-Serif" font-size="10.00" fill="#000000">/AliceO2Group/AliceO2</text>
<text text-anchor="start" x="8" y="-213" font-family="Helvetica,sans-Serif" font-size="10.00" fill="#000000">/Detectors/ITSMFT/MFT</text>
<text text-anchor="middle" x="86" y="-202" font-family="Helvetica,sans-Serif" font-size="10.00" fill="#000000">/base/src/HalfSegmentation.cxx</text>
</a>
</g>
</g>
<!-- Node2&#45;&gt;Node3 -->
<g id="edge1" class="edge">
<title>Node2&#45;&gt;Node3</title>
<path fill="none" stroke="#191970" d="M344.9628,-293.6721C295.0758,-282.5866 234.638,-268.2503 181,-253 174.5551,-251.1676 167.9,-249.1626 161.2437,-247.0783"/>
<polygon fill="#191970" stroke="#191970" points="344.2747,-297.1044 354.7944,-295.8452 345.7855,-290.2694 344.2747,-297.1044"/>
</g>
<!-- Node4 -->
<g id="node3" class="node">
<title>Node4</title>
<g id="a_node3"><a xlink:href="../../de/d02/HeatExchanger_8cxx.html" target="_top" xlink:title="Class building the MFT heat exchanger. ">
<polygon fill="none" stroke="#000000" points="190.5,-195 190.5,-247 347.5,-247 347.5,-195 190.5,-195"/>
<text text-anchor="start" x="198.5" y="-235" font-family="Helvetica,sans-Serif" font-size="10.00" fill="#000000">/home/travis/build</text>
<text text-anchor="start" x="198.5" y="-224" font-family="Helvetica,sans-Serif" font-size="10.00" fill="#000000">/AliceO2Group/AliceO2</text>
<text text-anchor="start" x="198.5" y="-213" font-family="Helvetica,sans-Serif" font-size="10.00" fill="#000000">/Detectors/ITSMFT/MFT</text>
<text text-anchor="middle" x="269" y="-202" font-family="Helvetica,sans-Serif" font-size="10.00" fill="#000000">/base/src/HeatExchanger.cxx</text>
</a>
</g>
</g>
<!-- Node2&#45;&gt;Node4 -->
<g id="edge2" class="edge">
<title>Node2&#45;&gt;Node4</title>
<path fill="none" stroke="#191970" d="M390.3209,-284.6935C367.2186,-272.5648 340.9706,-258.7845 318.8124,-247.1515"/>
<polygon fill="#191970" stroke="#191970" points="388.8568,-287.8778 399.3377,-289.4273 392.1107,-281.68 388.8568,-287.8778"/>
</g>
<!-- Node5 -->
<g id="node4" class="node">
<title>Node5</title>
<g id="a_node4"><a xlink:href="../../d6/d7d/PowerSupplyUnit_8cxx.html" target="_top" xlink:title="Class building the MFT heat exchanger. ">
<polygon fill="none" stroke="#000000" points="365.5,-195 365.5,-247 532.5,-247 532.5,-195 365.5,-195"/>
<text text-anchor="start" x="373.5" y="-235" font-family="Helvetica,sans-Serif" font-size="10.00" fill="#000000">/home/travis/build</text>
<text text-anchor="start" x="373.5" y="-224" font-family="Helvetica,sans-Serif" font-size="10.00" fill="#000000">/AliceO2Group/AliceO2</text>
<text text-anchor="start" x="373.5" y="-213" font-family="Helvetica,sans-Serif" font-size="10.00" fill="#000000">/Detectors/ITSMFT/MFT</text>
<text text-anchor="middle" x="449" y="-202" font-family="Helvetica,sans-Serif" font-size="10.00" fill="#000000">/base/src/PowerSupplyUnit.cxx</text>
</a>
</g>
</g>
<!-- Node2&#45;&gt;Node5 -->
<g id="edge3" class="edge">
<title>Node2&#45;&gt;Node5</title>
<path fill="none" stroke="#191970" d="M449,-279.1645C449,-268.5577 449,-257.1746 449,-247.3157"/>
<polygon fill="#191970" stroke="#191970" points="445.5001,-279.4273 449,-289.4273 452.5001,-279.4273 445.5001,-279.4273"/>
</g>
<!-- Node6 -->
<g id="node5" class="node">
<title>Node6</title>
<g id="a_node5"><a xlink:href="../../d6/d36/ITSMFT_2MFT_2reconstruction_2include_2MFTReconstruction_2Tracker_8h.html" target="_top" xlink:title="/home/travis/build\l/AliceO2Group/AliceO2\l/Detectors/ITSMFT/MFT\l/reconstruction/include\l/MFTReconstruction/Tracker.h">
<polygon fill="none" stroke="#000000" points="550,-189.5 550,-252.5 708,-252.5 708,-189.5 550,-189.5"/>
<text text-anchor="start" x="558" y="-240.5" font-family="Helvetica,sans-Serif" font-size="10.00" fill="#000000">/home/travis/build</text>
<text text-anchor="start" x="558" y="-229.5" font-family="Helvetica,sans-Serif" font-size="10.00" fill="#000000">/AliceO2Group/AliceO2</text>
<text text-anchor="start" x="558" y="-218.5" font-family="Helvetica,sans-Serif" font-size="10.00" fill="#000000">/Detectors/ITSMFT/MFT</text>
<text text-anchor="start" x="558" y="-207.5" font-family="Helvetica,sans-Serif" font-size="10.00" fill="#000000">/reconstruction/include</text>
<text text-anchor="middle" x="629" y="-196.5" font-family="Helvetica,sans-Serif" font-size="10.00" fill="#000000">/MFTReconstruction/Tracker.h</text>
</a>
</g>
</g>
<!-- Node2&#45;&gt;Node6 -->
<g id="edge4" class="edge">
<title>Node2&#45;&gt;Node6</title>
<path fill="none" stroke="#191970" d="M507.5214,-284.7763C527.1893,-274.4506 549.152,-262.9202 568.9365,-252.5333"/>
<polygon fill="#191970" stroke="#191970" points="505.8893,-281.68 498.6623,-289.4273 509.1432,-287.8778 505.8893,-281.68"/>
</g>
<!-- Node10 -->
<g id="node9" class="node">
<title>Node10</title>
<g id="a_node9"><a xlink:href="../../d9/d5e/ITSMFT_2MFT_2reconstruction_2src_2ClustererTask_8cxx.html" target="_top" xlink:title="/home/travis/build\l/AliceO2Group/AliceO2\l/Detectors/ITSMFT/MFT\l/reconstruction/src/ClustererTask.cxx">
<polygon fill="none" stroke="#000000" points="726,-195 726,-247 922,-247 922,-195 726,-195"/>
<text text-anchor="start" x="734" y="-235" font-family="Helvetica,sans-Serif" font-size="10.00" fill="#000000">/home/travis/build</text>
<text text-anchor="start" x="734" y="-224" font-family="Helvetica,sans-Serif" font-size="10.00" fill="#000000">/AliceO2Group/AliceO2</text>
<text text-anchor="start" x="734" y="-213" font-family="Helvetica,sans-Serif" font-size="10.00" fill="#000000">/Detectors/ITSMFT/MFT</text>
<text text-anchor="middle" x="824" y="-202" font-family="Helvetica,sans-Serif" font-size="10.00" fill="#000000">/reconstruction/src/ClustererTask.cxx</text>
</a>
</g>
</g>
<!-- Node2&#45;&gt;Node10 -->
<g id="edge8" class="edge">
<title>Node2&#45;&gt;Node10</title>
<path fill="none" stroke="#191970" d="M553.1122,-292.7852C602.891,-281.5258 663.2165,-267.2993 717,-253 724.0269,-251.1318 731.2911,-249.1242 738.5723,-247.0583"/>
<polygon fill="#191970" stroke="#191970" points="552.2877,-289.3831 543.3022,-294.9966 553.8271,-296.2118 552.2877,-289.3831"/>
</g>
<!-- Node7 -->
<g id="node6" class="node">
<title>Node7</title>
<g id="a_node6"><a xlink:href="../../d2/de5/TrackerTask_8h.html" target="_top" xlink:title="Task driving the track finding from MFT clusters. ">
<polygon fill="none" stroke="#000000" points="444,-89.5 444,-152.5 624,-152.5 624,-89.5 444,-89.5"/>
<text text-anchor="start" x="452" y="-140.5" font-family="Helvetica,sans-Serif" font-size="10.00" fill="#000000">/home/travis/build</text>
<text text-anchor="start" x="452" y="-129.5" font-family="Helvetica,sans-Serif" font-size="10.00" fill="#000000">/AliceO2Group/AliceO2</text>
<text text-anchor="start" x="452" y="-118.5" font-family="Helvetica,sans-Serif" font-size="10.00" fill="#000000">/Detectors/ITSMFT/MFT</text>
<text text-anchor="start" x="452" y="-107.5" font-family="Helvetica,sans-Serif" font-size="10.00" fill="#000000">/reconstruction/include</text>
<text text-anchor="middle" x="534" y="-96.5" font-family="Helvetica,sans-Serif" font-size="10.00" fill="#000000">/MFTReconstruction/TrackerTask.h</text>
</a>
</g>
</g>
<!-- Node6&#45;&gt;Node7 -->
<g id="edge5" class="edge">
<title>Node6&#45;&gt;Node7</title>
<path fill="none" stroke="#191970" d="M592.0261,-182.0801C582.809,-172.3779 573.0351,-162.0896 564.1891,-152.778"/>
<polygon fill="#191970" stroke="#191970" points="589.5164,-184.52 598.9414,-189.3594 594.5914,-179.6987 589.5164,-184.52"/>
</g>
<!-- Node9 -->
<g id="node8" class="node">
<title>Node9</title>
<g id="a_node8"><a xlink:href="../../de/d4b/ITSMFT_2MFT_2reconstruction_2src_2Tracker_8cxx.html" target="_top" xlink:title="/home/travis/build\l/AliceO2Group/AliceO2\l/Detectors/ITSMFT/MFT\l/reconstruction/src/Tracker.cxx">
<polygon fill="none" stroke="#000000" points="642,-95 642,-147 806,-147 806,-95 642,-95"/>
<text text-anchor="start" x="650" y="-135" font-family="Helvetica,sans-Serif" font-size="10.00" fill="#000000">/home/travis/build</text>
<text text-anchor="start" x="650" y="-124" font-family="Helvetica,sans-Serif" font-size="10.00" fill="#000000">/AliceO2Group/AliceO2</text>
<text text-anchor="start" x="650" y="-113" font-family="Helvetica,sans-Serif" font-size="10.00" fill="#000000">/Detectors/ITSMFT/MFT</text>
<text text-anchor="middle" x="724" y="-102" font-family="Helvetica,sans-Serif" font-size="10.00" fill="#000000">/reconstruction/src/Tracker.cxx</text>
</a>
</g>
</g>
<!-- Node6&#45;&gt;Node9 -->
<g id="edge7" class="edge">
<title>Node6&#45;&gt;Node9</title>
<path fill="none" stroke="#191970" d="M666.1999,-181.8422C677.2803,-170.1787 689.1463,-157.6881 699.2259,-147.078"/>
<polygon fill="#191970" stroke="#191970" points="663.4086,-179.6987 659.0586,-189.3594 668.4836,-184.52 663.4086,-179.6987"/>
</g>
<!-- Node8 -->
<g id="node7" class="node">
<title>Node8</title>
<g id="a_node7"><a xlink:href="../../d7/d1b/TrackerTask_8cxx.html" target="_top" xlink:title="Task driving the track finding from MFT clusters. ">
<polygon fill="none" stroke="#000000" points="440.5,-.5 440.5,-52.5 627.5,-52.5 627.5,-.5 440.5,-.5"/>
<text text-anchor="start" x="448.5" y="-40.5" font-family="Helvetica,sans-Serif" font-size="10.00" fill="#000000">/home/travis/build</text>
<text text-anchor="start" x="448.5" y="-29.5" font-family="Helvetica,sans-Serif" font-size="10.00" fill="#000000">/AliceO2Group/AliceO2</text>
<text text-anchor="start" x="448.5" y="-18.5" font-family="Helvetica,sans-Serif" font-size="10.00" fill="#000000">/Detectors/ITSMFT/MFT</text>
<text text-anchor="middle" x="534" y="-7.5" font-family="Helvetica,sans-Serif" font-size="10.00" fill="#000000">/reconstruction/src/TrackerTask.cxx</text>
</a>
</g>
</g>
<!-- Node7&#45;&gt;Node8 -->
<g id="edge6" class="edge">
<title>Node7&#45;&gt;Node8</title>
<path fill="none" stroke="#191970" d="M534,-79.2457C534,-70.2008 534,-60.8836 534,-52.6442"/>
<polygon fill="#191970" stroke="#191970" points="530.5001,-79.2699 534,-89.27 537.5001,-79.27 530.5001,-79.2699"/>
</g>
</g>
</svg>
