<?xml version="1.0" encoding="UTF-8" standalone="no"?>
<!DOCTYPE svg PUBLIC "-//W3C//DTD SVG 1.1//EN"
 "http://www.w3.org/Graphics/SVG/1.1/DTD/svg11.dtd">
<!-- Generated by graphviz version 2.40.1 (20161225.0304)
 -->
<!-- Title: o2::framework::DataProcessingHeader Pages: 1 -->
<svg width="999pt" height="1080pt"
 viewBox="0.00 0.00 998.63 1080.00" xmlns="http://www.w3.org/2000/svg" xmlns:xlink="http://www.w3.org/1999/xlink">
<g id="graph0" class="graph" transform="scale(1 1) rotate(0) translate(4 1076)">
<title>o2::framework::DataProcessingHeader</title>
<!-- Node2 -->
<g id="node1" class="node">
<title>Node2</title>
<polygon fill="#bfbfbf" stroke="#000000" points="820.6267,-.5 820.6267,-123.5 990.6267,-123.5 990.6267,-.5 820.6267,-.5"/>
<text text-anchor="start" x="828.6267" y="-111.5" font-family="Helvetica,sans-Serif" font-size="10.00" fill="#000000">o2::framework::DataProcessing</text>
<text text-anchor="middle" x="905.6267" y="-100.5" font-family="Helvetica,sans-Serif" font-size="10.00" fill="#000000">Header</text>
<polyline fill="none" stroke="#000000" points="820.6267,-93.5 990.6267,-93.5 "/>
<text text-anchor="middle" x="905.6267" y="-81.5" font-family="Helvetica,sans-Serif" font-size="10.00" fill="#000000"> </text>
<polyline fill="none" stroke="#000000" points="820.6267,-74.5 990.6267,-74.5 "/>
<text text-anchor="start" x="828.6267" y="-62.5" font-family="Helvetica,sans-Serif" font-size="10.00" fill="#000000">+ DataProcessingHeader()</text>
<text text-anchor="start" x="828.6267" y="-51.5" font-family="Helvetica,sans-Serif" font-size="10.00" fill="#000000">+ DataProcessingHeader()</text>
<text text-anchor="start" x="828.6267" y="-40.5" font-family="Helvetica,sans-Serif" font-size="10.00" fill="#000000">+ DataProcessingHeader()</text>
<text text-anchor="start" x="828.6267" y="-29.5" font-family="Helvetica,sans-Serif" font-size="10.00" fill="#000000">+ DataProcessingHeader()</text>
<text text-anchor="start" x="828.6267" y="-18.5" font-family="Helvetica,sans-Serif" font-size="10.00" fill="#000000">+ getCreationTime()</text>
<text text-anchor="start" x="828.6267" y="-7.5" font-family="Helvetica,sans-Serif" font-size="10.00" fill="#000000">+ Get()</text>
</g>
<!-- Node3 -->
<g id="node2" class="node">
<title>Node3</title>
<g id="a_node2"><a xlink:href="../../d8/dbd/structo2_1_1header_1_1BaseHeader.html" target="_top" xlink:title="the base header struct Every header type must begin (i.e. derive) with this. Don&#39;t use this struct di...">
<polygon fill="none" stroke="#000000" points="403.6267,-193.5 403.6267,-338.5 537.6267,-338.5 537.6267,-193.5 403.6267,-193.5"/>
<text text-anchor="middle" x="470.6267" y="-326.5" font-family="Helvetica,sans-Serif" font-size="10.00" fill="#000000">o2::header::BaseHeader</text>
<polyline fill="none" stroke="#000000" points="403.6267,-319.5 537.6267,-319.5 "/>
<text text-anchor="middle" x="470.6267" y="-307.5" font-family="Helvetica,sans-Serif" font-size="10.00" fill="#000000"> </text>
<polyline fill="none" stroke="#000000" points="403.6267,-300.5 537.6267,-300.5 "/>
<text text-anchor="start" x="411.6267" y="-288.5" font-family="Helvetica,sans-Serif" font-size="10.00" fill="#000000">+ BaseHeader()</text>
<text text-anchor="start" x="411.6267" y="-277.5" font-family="Helvetica,sans-Serif" font-size="10.00" fill="#000000">+ BaseHeader()</text>
<text text-anchor="start" x="411.6267" y="-266.5" font-family="Helvetica,sans-Serif" font-size="10.00" fill="#000000">+ BaseHeader()</text>
<text text-anchor="start" x="411.6267" y="-255.5" font-family="Helvetica,sans-Serif" font-size="10.00" fill="#000000">+ size()</text>
<text text-anchor="start" x="411.6267" y="-244.5" font-family="Helvetica,sans-Serif" font-size="10.00" fill="#000000">+ data()</text>
<text text-anchor="start" x="411.6267" y="-233.5" font-family="Helvetica,sans-Serif" font-size="10.00" fill="#000000">+ next()</text>
<text text-anchor="start" x="411.6267" y="-222.5" font-family="Helvetica,sans-Serif" font-size="10.00" fill="#000000">+ next()</text>
<text text-anchor="start" x="411.6267" y="-211.5" font-family="Helvetica,sans-Serif" font-size="10.00" fill="#000000">+ get()</text>
<text text-anchor="start" x="411.6267" y="-200.5" font-family="Helvetica,sans-Serif" font-size="10.00" fill="#000000">+ get()</text>
</a>
</g>
</g>
<!-- Node3&#45;&gt;Node2 -->
<g id="edge1" class="edge">
<title>Node3&#45;&gt;Node2</title>
<path fill="none" stroke="#191970" d="M546.7662,-230.2932C623.302,-194.4005 741.0384,-139.1862 820.5902,-101.8792"/>
<polygon fill="none" stroke="#191970" points="545.2098,-227.1572 537.6421,-234.5721 548.182,-233.4949 545.2098,-227.1572"/>
</g>
<!-- Node4 -->
<g id="node3" class="node">
<title>Node4</title>
<g id="a_node3"><a xlink:href="../../d9/db3/structo2_1_1header_1_1Descriptor.html" target="_top" xlink:title="{o2::header::Descriptor\l\&lt; gSizeHeaderDescriptionString \&gt;\n||+ Descriptor()\l+ Descriptor()\l+ Descriptor()\l+ Descriptor()\l+ operator=()\l+ operator ItgType()\l+ runtimeInit()\l+ operator==()\l+ operator==()\l+ operator\&lt;()\l+ operator!=()\l+ operator!=()\l+ as()\l+ print()\l}">
<polygon fill="none" stroke="#000000" points="33.1267,-441.5 33.1267,-652.5 218.1267,-652.5 218.1267,-441.5 33.1267,-441.5"/>
<text text-anchor="start" x="41.1267" y="-640.5" font-family="Helvetica,sans-Serif" font-size="10.00" fill="#000000">o2::header::Descriptor</text>
<text text-anchor="middle" x="125.6267" y="-629.5" font-family="Helvetica,sans-Serif" font-size="10.00" fill="#000000">&lt; gSizeHeaderDescriptionString &gt;</text>
<polyline fill="none" stroke="#000000" points="33.1267,-622.5 218.1267,-622.5 "/>
<text text-anchor="middle" x="125.6267" y="-610.5" font-family="Helvetica,sans-Serif" font-size="10.00" fill="#000000"> </text>
<polyline fill="none" stroke="#000000" points="33.1267,-603.5 218.1267,-603.5 "/>
<text text-anchor="start" x="41.1267" y="-591.5" font-family="Helvetica,sans-Serif" font-size="10.00" fill="#000000">+ Descriptor()</text>
<text text-anchor="start" x="41.1267" y="-580.5" font-family="Helvetica,sans-Serif" font-size="10.00" fill="#000000">+ Descriptor()</text>
<text text-anchor="start" x="41.1267" y="-569.5" font-family="Helvetica,sans-Serif" font-size="10.00" fill="#000000">+ Descriptor()</text>
<text text-anchor="start" x="41.1267" y="-558.5" font-family="Helvetica,sans-Serif" font-size="10.00" fill="#000000">+ Descriptor()</text>
<text text-anchor="start" x="41.1267" y="-547.5" font-family="Helvetica,sans-Serif" font-size="10.00" fill="#000000">+ operator=()</text>
<text text-anchor="start" x="41.1267" y="-536.5" font-family="Helvetica,sans-Serif" font-size="10.00" fill="#000000">+ operator ItgType()</text>
<text text-anchor="start" x="41.1267" y="-525.5" font-family="Helvetica,sans-Serif" font-size="10.00" fill="#000000">+ runtimeInit()</text>
<text text-anchor="start" x="41.1267" y="-514.5" font-family="Helvetica,sans-Serif" font-size="10.00" fill="#000000">+ operator==()</text>
<text text-anchor="start" x="41.1267" y="-503.5" font-family="Helvetica,sans-Serif" font-size="10.00" fill="#000000">+ operator==()</text>
<text text-anchor="start" x="41.1267" y="-492.5" font-family="Helvetica,sans-Serif" font-size="10.00" fill="#000000">+ operator&lt;()</text>
<text text-anchor="start" x="41.1267" y="-481.5" font-family="Helvetica,sans-Serif" font-size="10.00" fill="#000000">+ operator!=()</text>
<text text-anchor="start" x="41.1267" y="-470.5" font-family="Helvetica,sans-Serif" font-size="10.00" fill="#000000">+ operator!=()</text>
<text text-anchor="start" x="41.1267" y="-459.5" font-family="Helvetica,sans-Serif" font-size="10.00" fill="#000000">+ as()</text>
<text text-anchor="start" x="41.1267" y="-448.5" font-family="Helvetica,sans-Serif" font-size="10.00" fill="#000000">+ print()</text>
</a>
</g>
</g>
<!-- Node4&#45;&gt;Node3 -->
<g id="edge2" class="edge">
<title>Node4&#45;&gt;Node3</title>
<path fill="none" stroke="#404040" d="M207.5058,-441.1936C233.3843,-411.7553 263.4253,-381.241 294.6267,-357 324.1495,-334.063 360.3275,-314.1997 392.1884,-298.9344"/>
<polygon fill="none" stroke="#404040" points="392.4002,-298.8348 396.1282,-292.6621 403.2599,-293.7291 399.532,-299.9019 392.4002,-298.8348"/>
<text text-anchor="middle" x="327.6267" y="-387.5" font-family="Helvetica,sans-Serif" font-size="10.00" fill="#000000"> +description</text>
</g>
<!-- Node5 -->
<g id="node4" class="node">
<title>Node5</title>
<polygon fill="none" stroke="#bfbfbf" points="258.1267,-1014.5 258.1267,-1071.5 297.1267,-1071.5 297.1267,-1014.5 258.1267,-1014.5"/>
<text text-anchor="middle" x="277.6267" y="-1059.5" font-family="Helvetica,sans-Serif" font-size="10.00" fill="#000000">Type</text>
<polyline fill="none" stroke="#bfbfbf" points="258.1267,-1052.5 297.1267,-1052.5 "/>
<text text-anchor="middle" x="277.6267" y="-1040.5" font-family="Helvetica,sans-Serif" font-size="10.00" fill="#000000"> </text>
<polyline fill="none" stroke="#bfbfbf" points="258.1267,-1033.5 297.1267,-1033.5 "/>
<text text-anchor="middle" x="277.6267" y="-1021.5" font-family="Helvetica,sans-Serif" font-size="10.00" fill="#000000"> </text>
</g>
<!-- Node5&#45;&gt;Node4 -->
<g id="edge3" class="edge">
<title>Node5&#45;&gt;Node4</title>
<path fill="none" stroke="#404040" d="M258.5388,-1014.1215C245.6012,-996.7741 227.0025,-975.6762 205.6267,-963 175.7696,-945.2943 151.295,-972.1186 129.6267,-945 96.2596,-903.2402 101.7617,-766.5945 111.3392,-665.0013"/>
<polygon fill="none" stroke="#404040" points="111.3646,-664.7382 107.9636,-658.3795 112.525,-652.7944 115.9261,-659.1531 111.3646,-664.7382"/>
<text text-anchor="middle" x="142.1267" y="-836.5" font-family="Helvetica,sans-Serif" font-size="10.00" fill="#000000"> +itg</text>
</g>
<!-- Node9 -->
<g id="node8" class="node">
<title>Node9</title>
<g id="a_node8"><a xlink:href="../../d9/db3/structo2_1_1header_1_1Descriptor.html" target="_top" xlink:title="{o2::header::Descriptor\l\&lt; N, PrinterPolicy \&gt;\n||+ Descriptor()\l+ Descriptor()\l+ Descriptor()\l+ operator=()\l+ operator ItgType()\l+ Descriptor()\l+ runtimeInit()\l+ operator==()\l+ operator\&lt;()\l+ operator!=()\l+ operator==()\l+ operator!=()\l+ as()\l+ print()\l}">
<polygon fill="none" stroke="#000000" points="223.1267,-733.5 223.1267,-944.5 348.1267,-944.5 348.1267,-733.5 223.1267,-733.5"/>
<text text-anchor="start" x="231.1267" y="-932.5" font-family="Helvetica,sans-Serif" font-size="10.00" fill="#000000">o2::header::Descriptor</text>
<text text-anchor="middle" x="285.6267" y="-921.5" font-family="Helvetica,sans-Serif" font-size="10.00" fill="#000000">&lt; N, PrinterPolicy &gt;</text>
<polyline fill="none" stroke="#000000" points="223.1267,-914.5 348.1267,-914.5 "/>
<text text-anchor="middle" x="285.6267" y="-902.5" font-family="Helvetica,sans-Serif" font-size="10.00" fill="#000000"> </text>
<polyline fill="none" stroke="#000000" points="223.1267,-895.5 348.1267,-895.5 "/>
<text text-anchor="start" x="231.1267" y="-883.5" font-family="Helvetica,sans-Serif" font-size="10.00" fill="#000000">+ Descriptor()</text>
<text text-anchor="start" x="231.1267" y="-872.5" font-family="Helvetica,sans-Serif" font-size="10.00" fill="#000000">+ Descriptor()</text>
<text text-anchor="start" x="231.1267" y="-861.5" font-family="Helvetica,sans-Serif" font-size="10.00" fill="#000000">+ Descriptor()</text>
<text text-anchor="start" x="231.1267" y="-850.5" font-family="Helvetica,sans-Serif" font-size="10.00" fill="#000000">+ operator=()</text>
<text text-anchor="start" x="231.1267" y="-839.5" font-family="Helvetica,sans-Serif" font-size="10.00" fill="#000000">+ operator ItgType()</text>
<text text-anchor="start" x="231.1267" y="-828.5" font-family="Helvetica,sans-Serif" font-size="10.00" fill="#000000">+ Descriptor()</text>
<text text-anchor="start" x="231.1267" y="-817.5" font-family="Helvetica,sans-Serif" font-size="10.00" fill="#000000">+ runtimeInit()</text>
<text text-anchor="start" x="231.1267" y="-806.5" font-family="Helvetica,sans-Serif" font-size="10.00" fill="#000000">+ operator==()</text>
<text text-anchor="start" x="231.1267" y="-795.5" font-family="Helvetica,sans-Serif" font-size="10.00" fill="#000000">+ operator&lt;()</text>
<text text-anchor="start" x="231.1267" y="-784.5" font-family="Helvetica,sans-Serif" font-size="10.00" fill="#000000">+ operator!=()</text>
<text text-anchor="start" x="231.1267" y="-773.5" font-family="Helvetica,sans-Serif" font-size="10.00" fill="#000000">+ operator==()</text>
<text text-anchor="start" x="231.1267" y="-762.5" font-family="Helvetica,sans-Serif" font-size="10.00" fill="#000000">+ operator!=()</text>
<text text-anchor="start" x="231.1267" y="-751.5" font-family="Helvetica,sans-Serif" font-size="10.00" fill="#000000">+ as()</text>
<text text-anchor="start" x="231.1267" y="-740.5" font-family="Helvetica,sans-Serif" font-size="10.00" fill="#000000">+ print()</text>
</a>
</g>
</g>
<!-- Node5&#45;&gt;Node9 -->
<g id="edge8" class="edge">
<title>Node5&#45;&gt;Node9</title>
<path fill="none" stroke="#404040" d="M277.6795,-1014.4833C277.7844,-999.2095 278.0383,-980.0745 278.6267,-963 278.6981,-960.9259 278.7741,-958.8324 278.8542,-956.7241"/>
<polygon fill="none" stroke="#404040" points="278.863,-956.506 275.112,-950.3473 279.3543,-944.516 283.1053,-950.6748 278.863,-956.506"/>
<text text-anchor="middle" x="291.1267" y="-977" font-family="Helvetica,sans-Serif" font-size="10.00" fill="#000000"> +itg</text>
</g>
<!-- Node12 -->
<g id="node11" class="node">
<title>Node12</title>
<g id="a_node11"><a xlink:href="../../d9/db3/structo2_1_1header_1_1Descriptor.html" target="_top" xlink:title="{o2::header::Descriptor\l\&lt; gSizeSerializationMethodString \&gt;\n||+ Descriptor()\l+ Descriptor()\l+ Descriptor()\l+ Descriptor()\l+ operator=()\l+ operator ItgType()\l+ runtimeInit()\l+ operator==()\l+ operator==()\l+ operator\&lt;()\l+ operator!=()\l+ operator!=()\l+ as()\l+ print()\l}">
<polygon fill="none" stroke="#000000" points="486.1267,-441.5 486.1267,-652.5 677.1267,-652.5 677.1267,-441.5 486.1267,-441.5"/>
<text text-anchor="start" x="494.1267" y="-640.5" font-family="Helvetica,sans-Serif" font-size="10.00" fill="#000000">o2::header::Descriptor</text>
<text text-anchor="middle" x="581.6267" y="-629.5" font-family="Helvetica,sans-Serif" font-size="10.00" fill="#000000">&lt; gSizeSerializationMethodString &gt;</text>
<polyline fill="none" stroke="#000000" points="486.1267,-622.5 677.1267,-622.5 "/>
<text text-anchor="middle" x="581.6267" y="-610.5" font-family="Helvetica,sans-Serif" font-size="10.00" fill="#000000"> </text>
<polyline fill="none" stroke="#000000" points="486.1267,-603.5 677.1267,-603.5 "/>
<text text-anchor="start" x="494.1267" y="-591.5" font-family="Helvetica,sans-Serif" font-size="10.00" fill="#000000">+ Descriptor()</text>
<text text-anchor="start" x="494.1267" y="-580.5" font-family="Helvetica,sans-Serif" font-size="10.00" fill="#000000">+ Descriptor()</text>
<text text-anchor="start" x="494.1267" y="-569.5" font-family="Helvetica,sans-Serif" font-size="10.00" fill="#000000">+ Descriptor()</text>
<text text-anchor="start" x="494.1267" y="-558.5" font-family="Helvetica,sans-Serif" font-size="10.00" fill="#000000">+ Descriptor()</text>
<text text-anchor="start" x="494.1267" y="-547.5" font-family="Helvetica,sans-Serif" font-size="10.00" fill="#000000">+ operator=()</text>
<text text-anchor="start" x="494.1267" y="-536.5" font-family="Helvetica,sans-Serif" font-size="10.00" fill="#000000">+ operator ItgType()</text>
<text text-anchor="start" x="494.1267" y="-525.5" font-family="Helvetica,sans-Serif" font-size="10.00" fill="#000000">+ runtimeInit()</text>
<text text-anchor="start" x="494.1267" y="-514.5" font-family="Helvetica,sans-Serif" font-size="10.00" fill="#000000">+ operator==()</text>
<text text-anchor="start" x="494.1267" y="-503.5" font-family="Helvetica,sans-Serif" font-size="10.00" fill="#000000">+ operator==()</text>
<text text-anchor="start" x="494.1267" y="-492.5" font-family="Helvetica,sans-Serif" font-size="10.00" fill="#000000">+ operator&lt;()</text>
<text text-anchor="start" x="494.1267" y="-481.5" font-family="Helvetica,sans-Serif" font-size="10.00" fill="#000000">+ operator!=()</text>
<text text-anchor="start" x="494.1267" y="-470.5" font-family="Helvetica,sans-Serif" font-size="10.00" fill="#000000">+ operator!=()</text>
<text text-anchor="start" x="494.1267" y="-459.5" font-family="Helvetica,sans-Serif" font-size="10.00" fill="#000000">+ as()</text>
<text text-anchor="start" x="494.1267" y="-448.5" font-family="Helvetica,sans-Serif" font-size="10.00" fill="#000000">+ print()</text>
</a>
</g>
</g>
<!-- Node5&#45;&gt;Node12 -->
<g id="edge16" class="edge">
<title>Node5&#45;&gt;Node12</title>
<path fill="none" stroke="#404040" d="M293.7768,-1014.2287C305.6817,-994.0539 321.502,-969.5616 331.6267,-963 370.6245,-937.726 400.9607,-977.0345 434.6267,-945 504.6128,-878.4052 416.0968,-803.048 482.6267,-733 502.9753,-711.5753 526.4637,-736.5996 546.6267,-715 559.8428,-700.8422 568.6037,-683.0415 574.3199,-664.361"/>
<polygon fill="none" stroke="#404040" points="574.3574,-664.2224 572.0672,-657.3846 577.4982,-652.6407 579.7884,-659.4785 574.3574,-664.2224"/>
<text text-anchor="middle" x="495.1267" y="-836.5" font-family="Helvetica,sans-Serif" font-size="10.00" fill="#000000"> +itg</text>
</g>
<!-- Node6 -->
<g id="node5" class="node">
<title>Node6</title>
<polygon fill="none" stroke="#bfbfbf" points="77.6267,-1014.5 77.6267,-1071.5 115.6267,-1071.5 115.6267,-1014.5 77.6267,-1014.5"/>
<text text-anchor="middle" x="96.6267" y="-1059.5" font-family="Helvetica,sans-Serif" font-size="10.00" fill="#000000">char</text>
<polyline fill="none" stroke="#bfbfbf" points="77.6267,-1052.5 115.6267,-1052.5 "/>
<text text-anchor="middle" x="96.6267" y="-1040.5" font-family="Helvetica,sans-Serif" font-size="10.00" fill="#000000"> </text>
<polyline fill="none" stroke="#bfbfbf" points="77.6267,-1033.5 115.6267,-1033.5 "/>
<text text-anchor="middle" x="96.6267" y="-1021.5" font-family="Helvetica,sans-Serif" font-size="10.00" fill="#000000"> </text>
</g>
<!-- Node6&#45;&gt;Node3 -->
<g id="edge13" class="edge">
<title>Node6&#45;&gt;Node3</title>
<path fill="none" stroke="#404040" d="M95.5081,-1014.3331C92.4617,-947.0388 82.3776,-781.018 55.6267,-733 49.4782,-721.9636 39.9313,-725.9479 33.6267,-715 -5.3568,-647.3054 -12.3145,-494.9736 23.6267,-441 65.7726,-377.7084 274.962,-315.7277 391.6346,-285.3486"/>
<polygon fill="none" stroke="#404040" points="391.6986,-285.3321 396.5079,-279.959 403.3175,-282.3317 398.5082,-287.7049 391.6986,-285.3321"/>
<text text-anchor="middle" x="68.6267" y="-690.5" font-family="Helvetica,sans-Serif" font-size="10.00" fill="#000000"> +magicString</text>
</g>
<!-- Node6&#45;&gt;Node4 -->
<g id="edge4" class="edge">
<title>Node6&#45;&gt;Node4</title>
<path fill="none" stroke="#404040" d="M86.1377,-1014.2975C79.6582,-995.0009 71.9645,-968.8322 68.6267,-945 55.5579,-851.6885 49.0669,-825.1696 68.6267,-733 70.444,-724.4362 73.6164,-723.2207 76.6267,-715 82.5682,-698.7739 88.2883,-681.4654 93.592,-664.3563"/>
<polygon fill="none" stroke="#404040" points="93.6898,-664.0359 91.6168,-657.1291 97.195,-652.5592 99.268,-659.4659 93.6898,-664.0359"/>
<text text-anchor="middle" x="81.1267" y="-836.5" font-family="Helvetica,sans-Serif" font-size="10.00" fill="#000000"> +str</text>
</g>
<!-- Node6&#45;&gt;Node9 -->
<g id="edge9" class="edge">
<title>Node6&#45;&gt;Node9</title>
<path fill="none" stroke="#404040" d="M115.6627,-1029.5472C128.0189,-1020.5252 144.251,-1008.1176 157.6267,-996 177.8324,-977.6947 197.5392,-956.0777 215.196,-934.8336"/>
<polygon fill="none" stroke="#404040" points="215.2888,-934.7204 215.998,-927.5442 222.895,-925.4389 222.1857,-932.615 215.2888,-934.7204"/>
<text text-anchor="middle" x="202.1267" y="-977" font-family="Helvetica,sans-Serif" font-size="10.00" fill="#000000"> +str</text>
</g>
<!-- Node6&#45;&gt;Node12 -->
<g id="edge17" class="edge">
<title>Node6&#45;&gt;Node12</title>
<path fill="none" stroke="#404040" d="M115.6354,-1017.861C128.918,-998.8871 145.7976,-971.6494 154.6267,-945 173.8827,-886.8778 139.3874,-713.3305 183.6267,-671 205.444,-650.124 412.5275,-664.0194 474.1892,-651.7466"/>
<polygon fill="none" stroke="#404040" points="474.5327,-651.6456 479.16,-646.1149 486.045,-648.259 481.4177,-653.7897 474.5327,-651.6456"/>
<text text-anchor="middle" x="175.1267" y="-836.5" font-family="Helvetica,sans-Serif" font-size="10.00" fill="#000000"> +str</text>
</g>
<!-- Node7 -->
<g id="node6" class="node">
<title>Node7</title>
<polygon fill="none" stroke="#bfbfbf" points="346.1267,-1014.5 346.1267,-1071.5 453.1267,-1071.5 453.1267,-1014.5 346.1267,-1014.5"/>
<text text-anchor="middle" x="399.6267" y="-1059.5" font-family="Helvetica,sans-Serif" font-size="10.00" fill="#000000">anonymous:+@24</text>
<polyline fill="none" stroke="#bfbfbf" points="346.1267,-1052.5 453.1267,-1052.5 "/>
<text text-anchor="middle" x="399.6267" y="-1040.5" font-family="Helvetica,sans-Serif" font-size="10.00" fill="#000000"> </text>
<polyline fill="none" stroke="#bfbfbf" points="346.1267,-1033.5 453.1267,-1033.5 "/>
<text text-anchor="middle" x="399.6267" y="-1021.5" font-family="Helvetica,sans-Serif" font-size="10.00" fill="#000000"> </text>
</g>
<!-- Node7&#45;&gt;Node4 -->
<g id="edge5" class="edge">
<title>Node7&#45;&gt;Node4</title>
<path fill="none" stroke="#404040" d="M399.2259,-1014.4694C397.4522,-935.2199 387.8298,-715.3226 335.6267,-671 300.9753,-641.5795 274.2603,-670.8846 229.4454,-653.3963"/>
<polygon fill="none" stroke="#404040" points="229.1926,-653.2792 222.0668,-654.3857 218.3048,-648.2337 225.4305,-647.1272 229.1926,-653.2792"/>
<text text-anchor="middle" x="413.6267" y="-836.5" font-family="Helvetica,sans-Serif" font-size="10.00" fill="#000000"> +@24</text>
</g>
<!-- Node7&#45;&gt;Node9 -->
<g id="edge10" class="edge">
<title>Node7&#45;&gt;Node9</title>
<path fill="none" stroke="#404040" d="M366.7032,-1014.2817C361.2398,-1008.574 355.9536,-1002.3664 351.6267,-996 343.1679,-983.5542 335.4638,-969.8518 328.5487,-955.8842"/>
<polygon fill="none" stroke="#404040" points="328.3507,-955.47 322.1532,-951.7833 323.1727,-944.6446 329.3702,-948.3313 328.3507,-955.47"/>
<text text-anchor="middle" x="368.6267" y="-977" font-family="Helvetica,sans-Serif" font-size="10.00" fill="#000000"> +@24</text>
</g>
<!-- Node7&#45;&gt;Node12 -->
<g id="edge18" class="edge">
<title>Node7&#45;&gt;Node12</title>
<path fill="none" stroke="#404040" d="M453.313,-1034.0328C501.0169,-1022.7115 566.9062,-997.8901 591.6267,-945 632.4927,-857.5661 625.8037,-747.105 611.2787,-664.7487"/>
<polygon fill="none" stroke="#404040" points="611.2533,-664.61 606.2343,-659.4322 609.0835,-652.8078 614.1024,-657.9857 611.2533,-664.61"/>
<text text-anchor="middle" x="639.6267" y="-836.5" font-family="Helvetica,sans-Serif" font-size="10.00" fill="#000000"> +@24</text>
</g>
<!-- Node8 -->
<g id="node7" class="node">
<title>Node8</title>
<polygon fill="none" stroke="#bfbfbf" points="671.6267,-1014.5 671.6267,-1071.5 715.6267,-1071.5 715.6267,-1014.5 671.6267,-1014.5"/>
<text text-anchor="middle" x="693.6267" y="-1059.5" font-family="Helvetica,sans-Serif" font-size="10.00" fill="#000000">static</text>
<polyline fill="none" stroke="#bfbfbf" points="671.6267,-1052.5 715.6267,-1052.5 "/>
<text text-anchor="middle" x="693.6267" y="-1040.5" font-family="Helvetica,sans-Serif" font-size="10.00" fill="#000000"> </text>
<polyline fill="none" stroke="#bfbfbf" points="671.6267,-1033.5 715.6267,-1033.5 "/>
<text text-anchor="middle" x="693.6267" y="-1021.5" font-family="Helvetica,sans-Serif" font-size="10.00" fill="#000000"> </text>
</g>
<!-- Node8&#45;&gt;Node2 -->
<g id="edge24" class="edge">
<title>Node8&#45;&gt;Node2</title>
<path fill="none" stroke="#404040" d="M715.9137,-1034.2359C770.3439,-1011.2046 905.6267,-943.4551 905.6267,-839 905.6267,-839 905.6267,-839 905.6267,-266 905.6267,-222.8567 905.6267,-174.581 905.6267,-135.8262"/>
<polygon fill="none" stroke="#404040" points="905.6267,-135.5967 901.6267,-129.5967 905.6267,-123.5967 909.6267,-129.5966 905.6267,-135.5967"/>
<text text-anchor="middle" x="943.1267" y="-550" font-family="Helvetica,sans-Serif" font-size="10.00" fill="#000000"> +sHeaderType</text>
<text text-anchor="middle" x="943.1267" y="-539" font-family="Helvetica,sans-Serif" font-size="10.00" fill="#000000">+sVersion</text>
</g>
<!-- Node8&#45;&gt;Node3 -->
<g id="edge22" class="edge">
<title>Node8&#45;&gt;Node3</title>
<path fill="none" stroke="#404040" d="M715.6631,-1015.2609C729.102,-996.577 745.0977,-970.7312 752.6267,-945 770.9784,-882.2804 804.432,-409.5802 765.6267,-357 739.8346,-322.0525 628.4529,-294.8804 550.1974,-279.6465"/>
<polygon fill="none" stroke="#404040" points="549.7273,-279.5568 543.0832,-282.3597 537.9405,-277.3047 544.5846,-274.5018 549.7273,-279.5568"/>
<text text-anchor="middle" x="835.1267" y="-707" font-family="Helvetica,sans-Serif" font-size="10.00" fill="#000000"> +sMagicString</text>
<text text-anchor="middle" x="835.1267" y="-696" font-family="Helvetica,sans-Serif" font-size="10.00" fill="#000000">+sHeaderType</text>
<text text-anchor="middle" x="835.1267" y="-685" font-family="Helvetica,sans-Serif" font-size="10.00" fill="#000000">+sSerializationMethod</text>
<text text-anchor="middle" x="835.1267" y="-674" font-family="Helvetica,sans-Serif" font-size="10.00" fill="#000000">+sVersion</text>
</g>
<!-- Node8&#45;&gt;Node4 -->
<g id="edge6" class="edge">
<title>Node8&#45;&gt;Node4</title>
<path fill="none" stroke="#404040" d="M671.4451,-1037.2261C634.4477,-1026.2755 561.1026,-998.6371 529.6267,-945 521.9191,-931.8658 532.2227,-681.9379 521.6267,-671 500.4735,-649.1643 291.1719,-664.1984 230.1004,-652.2459"/>
<polygon fill="none" stroke="#404040" points="229.9562,-652.2036 223.0714,-654.3483 218.4437,-648.818 225.3284,-646.6733 229.9562,-652.2036"/>
<text text-anchor="middle" x="558.6267" y="-847.5" font-family="Helvetica,sans-Serif" font-size="10.00" fill="#000000"> +arraySize</text>
<text text-anchor="middle" x="558.6267" y="-836.5" font-family="Helvetica,sans-Serif" font-size="10.00" fill="#000000">+size</text>
<text text-anchor="middle" x="558.6267" y="-825.5" font-family="Helvetica,sans-Serif" font-size="10.00" fill="#000000">+bitcount</text>
</g>
<!-- Node8&#45;&gt;Node9 -->
<g id="edge11" class="edge">
<title>Node8&#45;&gt;Node9</title>
<path fill="none" stroke="#404040" d="M671.559,-1041.0852C616.1391,-1035.3325 468.5471,-1014.0855 370.6267,-945 366.1137,-941.816 361.7152,-938.3277 357.4481,-934.6175"/>
<polygon fill="none" stroke="#404040" points="357.1299,-934.323 350.0094,-933.1834 348.3227,-926.1723 355.4432,-927.3119 357.1299,-934.323"/>
<text text-anchor="middle" x="497.6267" y="-988" font-family="Helvetica,sans-Serif" font-size="10.00" fill="#000000"> +arraySize</text>
<text text-anchor="middle" x="497.6267" y="-977" font-family="Helvetica,sans-Serif" font-size="10.00" fill="#000000">+size</text>
<text text-anchor="middle" x="497.6267" y="-966" font-family="Helvetica,sans-Serif" font-size="10.00" fill="#000000">+bitcount</text>
</g>
<!-- Node8&#45;&gt;Node12 -->
<g id="edge19" class="edge">
<title>Node8&#45;&gt;Node12</title>
<path fill="none" stroke="#404040" d="M693.2044,-1014.3637C691.8367,-959.1662 686.0524,-834.5266 661.6267,-733 654.7151,-704.2717 649.0451,-698.2526 637.6267,-671 636.6461,-668.6597 635.6492,-666.2974 634.6391,-663.9192"/>
<polygon fill="none" stroke="#404040" points="634.5556,-663.7243 628.515,-659.7859 629.8272,-652.6952 635.8678,-656.6336 634.5556,-663.7243"/>
<text text-anchor="middle" x="719.6267" y="-847.5" font-family="Helvetica,sans-Serif" font-size="10.00" fill="#000000"> +arraySize</text>
<text text-anchor="middle" x="719.6267" y="-836.5" font-family="Helvetica,sans-Serif" font-size="10.00" fill="#000000">+size</text>
<text text-anchor="middle" x="719.6267" y="-825.5" font-family="Helvetica,sans-Serif" font-size="10.00" fill="#000000">+bitcount</text>
</g>
<!-- Node9&#45;&gt;Node4 -->
<g id="edge7" class="edge">
<title>Node9&#45;&gt;Node4</title>
<path fill="none" stroke="#ffa500" d="M217.6066,-738.8704C212.7343,-730.8796 208.0175,-722.8596 203.6267,-715 192.5698,-695.2084 181.6874,-673.5766 171.7218,-652.619"/>
<polygon fill="#ffa500" stroke="#ffa500" points="214.7154,-740.85 222.9466,-747.5208 220.6719,-737.173 214.7154,-740.85"/>
<text text-anchor="start" x="203.6267" y="-696" font-family="Helvetica,sans-Serif" font-size="10.00" fill="#000000"> &lt; gSizeHeaderDescription</text>
<text text-anchor="middle" x="269.6267" y="-685" font-family="Helvetica,sans-Serif" font-size="10.00" fill="#000000">String &gt;</text>
</g>
<!-- Node9&#45;&gt;Node12 -->
<g id="edge20" class="edge">
<title>Node9&#45;&gt;Node12</title>
<path fill="none" stroke="#ffa500" d="M352.5352,-724.94C368.7248,-704.6262 387.5388,-685.3898 408.6267,-671 434.4504,-653.3786 449.5654,-668.6547 476.6267,-653 479.7657,-651.1841 482.8754,-649.2498 485.9496,-647.2155"/>
<polygon fill="#ffa500" stroke="#ffa500" points="349.5876,-723.0297 346.2276,-733.0776 355.1202,-727.3181 349.5876,-723.0297"/>
<text text-anchor="start" x="408.6267" y="-696" font-family="Helvetica,sans-Serif" font-size="10.00" fill="#000000"> &lt; gSizeSerializationMethod</text>
<text text-anchor="middle" x="477.6267" y="-685" font-family="Helvetica,sans-Serif" font-size="10.00" fill="#000000">String &gt;</text>
</g>
<!-- Node10 -->
<g id="node9" class="node">
<title>Node10</title>
<polygon fill="none" stroke="#bfbfbf" points="236.1267,-518.5 236.1267,-575.5 343.1267,-575.5 343.1267,-518.5 236.1267,-518.5"/>
<text text-anchor="middle" x="289.6267" y="-563.5" font-family="Helvetica,sans-Serif" font-size="10.00" fill="#000000">anonymous:+@26</text>
<polyline fill="none" stroke="#bfbfbf" points="236.1267,-556.5 343.1267,-556.5 "/>
<text text-anchor="middle" x="289.6267" y="-544.5" font-family="Helvetica,sans-Serif" font-size="10.00" fill="#000000"> </text>
<polyline fill="none" stroke="#bfbfbf" points="236.1267,-537.5 343.1267,-537.5 "/>
<text text-anchor="middle" x="289.6267" y="-525.5" font-family="Helvetica,sans-Serif" font-size="10.00" fill="#000000"> </text>
</g>
<!-- Node10&#45;&gt;Node3 -->
<g id="edge12" class="edge">
<title>Node10&#45;&gt;Node3</title>
<path fill="none" stroke="#404040" d="M305.5011,-518.3991C326.7202,-480.6887 366.0304,-412.6105 403.6267,-357 405.4689,-354.2751 407.3572,-351.5168 409.2776,-348.7411"/>
<polygon fill="none" stroke="#404040" points="409.4644,-348.4742 409.6288,-341.265 416.3467,-338.6439 416.1823,-345.8532 409.4644,-348.4742"/>
<text text-anchor="middle" x="420.6267" y="-387.5" font-family="Helvetica,sans-Serif" font-size="10.00" fill="#000000"> +@26</text>
</g>
<!-- Node11 -->
<g id="node10" class="node">
<title>Node11</title>
<polygon fill="none" stroke="#bfbfbf" points="361.1267,-518.5 361.1267,-575.5 468.1267,-575.5 468.1267,-518.5 361.1267,-518.5"/>
<text text-anchor="middle" x="414.6267" y="-563.5" font-family="Helvetica,sans-Serif" font-size="10.00" fill="#000000">anonymous:+@28</text>
<polyline fill="none" stroke="#bfbfbf" points="361.1267,-556.5 468.1267,-556.5 "/>
<text text-anchor="middle" x="414.6267" y="-544.5" font-family="Helvetica,sans-Serif" font-size="10.00" fill="#000000"> </text>
<polyline fill="none" stroke="#bfbfbf" points="361.1267,-537.5 468.1267,-537.5 "/>
<text text-anchor="middle" x="414.6267" y="-525.5" font-family="Helvetica,sans-Serif" font-size="10.00" fill="#000000"> </text>
</g>
<!-- Node11&#45;&gt;Node3 -->
<g id="edge14" class="edge">
<title>Node11&#45;&gt;Node3</title>
<path fill="none" stroke="#404040" d="M420.3565,-518.2486C428.1509,-479.1372 442.4247,-407.5132 453.7763,-350.5527"/>
<polygon fill="none" stroke="#404040" points="453.8054,-350.406 451.0553,-343.7399 456.1509,-338.6374 458.901,-345.3035 453.8054,-350.406"/>
<text text-anchor="middle" x="468.6267" y="-387.5" font-family="Helvetica,sans-Serif" font-size="10.00" fill="#000000"> +@28</text>
</g>
<!-- Node12&#45;&gt;Node3 -->
<g id="edge15" class="edge">
<title>Node12&#45;&gt;Node3</title>
<path fill="none" stroke="#404040" d="M539.8205,-441.1664C527.8847,-410.9506 515.0476,-378.4531 503.7105,-349.7529"/>
<polygon fill="none" stroke="#404040" points="503.6895,-349.6994 497.7648,-345.5886 499.2807,-338.5386 505.2053,-342.6494 503.6895,-349.6994"/>
<text text-anchor="middle" x="565.6267" y="-387.5" font-family="Helvetica,sans-Serif" font-size="10.00" fill="#000000"> +serialization</text>
</g>
<!-- Node13 -->
<g id="node12" class="node">
<title>Node13</title>
<polygon fill="none" stroke="#bfbfbf" points="695.6267,-518.5 695.6267,-575.5 751.6267,-575.5 751.6267,-518.5 695.6267,-518.5"/>
<text text-anchor="middle" x="723.6267" y="-563.5" font-family="Helvetica,sans-Serif" font-size="10.00" fill="#000000">uint32_t</text>
<polyline fill="none" stroke="#bfbfbf" points="695.6267,-556.5 751.6267,-556.5 "/>
<text text-anchor="middle" x="723.6267" y="-544.5" font-family="Helvetica,sans-Serif" font-size="10.00" fill="#000000"> </text>
<polyline fill="none" stroke="#bfbfbf" points="695.6267,-537.5 751.6267,-537.5 "/>
<text text-anchor="middle" x="723.6267" y="-525.5" font-family="Helvetica,sans-Serif" font-size="10.00" fill="#000000"> </text>
</g>
<!-- Node13&#45;&gt;Node3 -->
<g id="edge21" class="edge">
<title>Node13&#45;&gt;Node3</title>
<path fill="none" stroke="#404040" d="M716.7819,-518.1047C710.7212,-495.9296 700.5064,-465.1276 685.6267,-441 651.8521,-386.2344 594.7183,-340.9426 547.8341,-310.1656"/>
<polygon fill="none" stroke="#404040" points="547.7781,-310.1295 540.5678,-310.2402 537.6925,-303.6272 544.9027,-303.5165 547.7781,-310.1295"/>
<text text-anchor="middle" x="719.1267" y="-415" font-family="Helvetica,sans-Serif" font-size="10.00" fill="#000000"> +headerVersion</text>
<text text-anchor="middle" x="719.1267" y="-404" font-family="Helvetica,sans-Serif" font-size="10.00" fill="#000000">+headerSize</text>
<text text-anchor="middle" x="719.1267" y="-393" font-family="Helvetica,sans-Serif" font-size="10.00" fill="#000000">+flagsNextHeader</text>
<text text-anchor="middle" x="719.1267" y="-382" font-family="Helvetica,sans-Serif" font-size="10.00" fill="#000000">+magicStringInt</text>
<text text-anchor="middle" x="719.1267" y="-371" font-family="Helvetica,sans-Serif" font-size="10.00" fill="#000000">+flagsUnused</text>
<text text-anchor="middle" x="719.1267" y="-360" font-family="Helvetica,sans-Serif" font-size="10.00" fill="#000000">+flags</text>
</g>
<!-- Node14 -->
<g id="node13" class="node">
<title>Node14</title>
<polygon fill="none" stroke="#bfbfbf" points="933.6267,-237.5 933.6267,-294.5 989.6267,-294.5 989.6267,-237.5 933.6267,-237.5"/>
<text text-anchor="middle" x="961.6267" y="-282.5" font-family="Helvetica,sans-Serif" font-size="10.00" fill="#000000">uint64_t</text>
<polyline fill="none" stroke="#bfbfbf" points="933.6267,-275.5 989.6267,-275.5 "/>
<text text-anchor="middle" x="961.6267" y="-263.5" font-family="Helvetica,sans-Serif" font-size="10.00" fill="#000000"> </text>
<polyline fill="none" stroke="#bfbfbf" points="933.6267,-256.5 989.6267,-256.5 "/>
<text text-anchor="middle" x="961.6267" y="-244.5" font-family="Helvetica,sans-Serif" font-size="10.00" fill="#000000"> </text>
</g>
<!-- Node14&#45;&gt;Node2 -->
<g id="edge23" class="edge">
<title>Node14&#45;&gt;Node2</title>
<path fill="none" stroke="#404040" d="M953.722,-237.2045C946.4897,-210.8582 935.4769,-170.74 925.8136,-135.5381"/>
<polygon fill="none" stroke="#404040" points="925.7723,-135.3875 920.3267,-130.6604 922.5956,-123.8155 928.0413,-128.5426 925.7723,-135.3875"/>
<text text-anchor="middle" x="962.6267" y="-167" font-family="Helvetica,sans-Serif" font-size="10.00" fill="#000000"> +duration</text>
<text text-anchor="middle" x="962.6267" y="-156" font-family="Helvetica,sans-Serif" font-size="10.00" fill="#000000">+startTime</text>
<text text-anchor="middle" x="962.6267" y="-145" font-family="Helvetica,sans-Serif" font-size="10.00" fill="#000000">+creation</text>
</g>
</g>
</svg>
