<?xml version="1.0" encoding="UTF-8" standalone="no"?>
<!DOCTYPE svg PUBLIC "-//W3C//DTD SVG 1.1//EN"
 "http://www.w3.org/Graphics/SVG/1.1/DTD/svg11.dtd">
<!-- Generated by graphviz version 2.40.1 (20161225.0304)
 -->
<!-- Title: /home/travis/build/AliceO2Group/AliceO2/Detectors/ZDC/simulation/src/SpatialPhotonResponse.cxx Pages: 1 -->
<svg width="313pt" height="184pt"
 viewBox="0.00 0.00 312.50 184.00" xmlns="http://www.w3.org/2000/svg" xmlns:xlink="http://www.w3.org/1999/xlink">
<g id="graph0" class="graph" transform="scale(1 1) rotate(0) translate(4 180)">
<title>/home/travis/build/AliceO2Group/AliceO2/Detectors/ZDC/simulation/src/SpatialPhotonResponse.cxx</title>
<!-- Node0 -->
<g id="node1" class="node">
<title>Node0</title>
<polygon fill="#bfbfbf" stroke="#000000" points="117,-123.5 117,-175.5 288,-175.5 288,-123.5 117,-123.5"/>
<text text-anchor="start" x="125" y="-163.5" font-family="Helvetica,sans-Serif" font-size="10.00" fill="#000000">/home/travis/build</text>
<text text-anchor="start" x="125" y="-152.5" font-family="Helvetica,sans-Serif" font-size="10.00" fill="#000000">/AliceO2Group/AliceO2</text>
<text text-anchor="start" x="125" y="-141.5" font-family="Helvetica,sans-Serif" font-size="10.00" fill="#000000">/Detectors/ZDC/simulation</text>
<text text-anchor="middle" x="202.5" y="-130.5" font-family="Helvetica,sans-Serif" font-size="10.00" fill="#000000">/src/SpatialPhotonResponse.cxx</text>
</g>
<!-- Node1 -->
<g id="node2" class="node">
<title>Node1</title>
<g id="a_node2"><a xlink:href="../../d9/de6/SpatialPhotonResponse_8h.html" target="_top" xlink:title="Visualizing spatial photon response in ZDC neutron and proton calorimeters. ">
<polygon fill="none" stroke="#000000" points="0,-56.5 0,-86.5 161,-86.5 161,-56.5 0,-56.5"/>
<text text-anchor="start" x="8" y="-74.5" font-family="Helvetica,sans-Serif" font-size="10.00" fill="#000000">ZDCSimulation/SpatialPhoton</text>
<text text-anchor="middle" x="80.5" y="-63.5" font-family="Helvetica,sans-Serif" font-size="10.00" fill="#000000">Response.h</text>
</a>
</g>
</g>
<!-- Node0&#45;&gt;Node1 -->
<g id="edge1" class="edge">
<title>Node0&#45;&gt;Node1</title>
<path fill="none" stroke="#191970" d="M161.5364,-123.3101C145.5653,-113.0991 127.5328,-101.5701 112.5398,-91.9844"/>
<polygon fill="#191970" stroke="#191970" points="114.4125,-89.0276 104.1019,-86.5897 110.6418,-94.9252 114.4125,-89.0276"/>
</g>
<!-- Node4 -->
<g id="node5" class="node">
<title>Node4</title>
<polygon fill="none" stroke="#bfbfbf" points="179,-62 179,-81 226,-81 226,-62 179,-62"/>
<text text-anchor="middle" x="202.5" y="-69" font-family="Helvetica,sans-Serif" font-size="10.00" fill="#000000">cmath</text>
</g>
<!-- Node0&#45;&gt;Node4 -->
<g id="edge4" class="edge">
<title>Node0&#45;&gt;Node4</title>
<path fill="none" stroke="#191970" d="M202.5,-123.0928C202.5,-112.6735 202.5,-100.911 202.5,-91.2512"/>
<polygon fill="#191970" stroke="#191970" points="206.0001,-91.0838 202.5,-81.0839 199.0001,-91.0839 206.0001,-91.0838"/>
</g>
<!-- Node5 -->
<g id="node6" class="node">
<title>Node5</title>
<polygon fill="none" stroke="#bfbfbf" points="244.5,-62 244.5,-81 304.5,-81 304.5,-62 244.5,-62"/>
<text text-anchor="middle" x="274.5" y="-69" font-family="Helvetica,sans-Serif" font-size="10.00" fill="#000000">iostream</text>
</g>
<!-- Node0&#45;&gt;Node5 -->
<g id="edge5" class="edge">
<title>Node0&#45;&gt;Node5</title>
<path fill="none" stroke="#191970" d="M226.8759,-123.0928C237.4345,-111.6543 249.4876,-98.5968 258.8263,-88.4799"/>
<polygon fill="#191970" stroke="#191970" points="261.4423,-90.8059 265.6534,-81.0839 256.2987,-86.0579 261.4423,-90.8059"/>
</g>
<!-- Node2 -->
<g id="node3" class="node">
<title>Node2</title>
<polygon fill="none" stroke="#bfbfbf" points="28.5,-.5 28.5,-19.5 70.5,-19.5 70.5,-.5 28.5,-.5"/>
<text text-anchor="middle" x="49.5" y="-7.5" font-family="Helvetica,sans-Serif" font-size="10.00" fill="#000000">array</text>
</g>
<!-- Node1&#45;&gt;Node2 -->
<g id="edge2" class="edge">
<title>Node1&#45;&gt;Node2</title>
<path fill="none" stroke="#191970" d="M72.8371,-56.2977C68.6684,-48.0277 63.4735,-37.7215 59.0439,-28.9339"/>
<polygon fill="#191970" stroke="#191970" points="62.0901,-27.2012 54.4635,-19.8469 55.8393,-30.3521 62.0901,-27.2012"/>
</g>
<!-- Node3 -->
<g id="node4" class="node">
<title>Node3</title>
<polygon fill="none" stroke="#bfbfbf" points="89,-.5 89,-19.5 136,-19.5 136,-.5 89,-.5"/>
<text text-anchor="middle" x="112.5" y="-7.5" font-family="Helvetica,sans-Serif" font-size="10.00" fill="#000000">vector</text>
</g>
<!-- Node1&#45;&gt;Node3 -->
<g id="edge3" class="edge">
<title>Node1&#45;&gt;Node3</title>
<path fill="none" stroke="#191970" d="M88.4101,-56.2977C92.7132,-48.0277 98.0758,-37.7215 102.6482,-28.9339"/>
<polygon fill="#191970" stroke="#191970" points="105.8654,-30.3335 107.3764,-19.8469 99.6557,-27.1024 105.8654,-30.3335"/>
</g>
</g>
</svg>
