<?xml version="1.0" encoding="UTF-8" standalone="no"?>
<!DOCTYPE svg PUBLIC "-//W3C//DTD SVG 1.1//EN"
 "http://www.w3.org/Graphics/SVG/1.1/DTD/svg11.dtd">
<!-- Generated by graphviz version 2.40.1 (20161225.0304)
 -->
<!-- Title: o2::framework::data_matcher::ContextElement Pages: 1 -->
<svg width="189pt" height="204pt"
 viewBox="0.00 0.00 189.00 204.00" xmlns="http://www.w3.org/2000/svg" xmlns:xlink="http://www.w3.org/1999/xlink">
<g id="graph0" class="graph" transform="scale(1 1) rotate(0) translate(4 200)">
<title>o2::framework::data_matcher::ContextElement</title>
<!-- Node1 -->
<g id="node1" class="node">
<title>Node1</title>
<polygon fill="#bfbfbf" stroke="#000000" points="34,-.5 34,-68.5 181,-68.5 181,-.5 34,-.5"/>
<text text-anchor="start" x="42" y="-56.5" font-family="Helvetica,sans-Serif" font-size="10.00" fill="#000000">o2::framework::data</text>
<text text-anchor="middle" x="107.5" y="-45.5" font-family="Helvetica,sans-Serif" font-size="10.00" fill="#000000">_matcher::ContextElement</text>
<polyline fill="none" stroke="#000000" points="34,-38.5 181,-38.5 "/>
<text text-anchor="middle" x="107.5" y="-26.5" font-family="Helvetica,sans-Serif" font-size="10.00" fill="#000000"> </text>
<polyline fill="none" stroke="#000000" points="34,-19.5 181,-19.5 "/>
<text text-anchor="middle" x="107.5" y="-7.5" font-family="Helvetica,sans-Serif" font-size="10.00" fill="#000000"> </text>
</g>
<!-- Node2 -->
<g id="node2" class="node">
<title>Node2</title>
<polygon fill="none" stroke="#bfbfbf" points="0,-116.5 0,-195.5 117,-195.5 117,-116.5 0,-116.5"/>
<text text-anchor="start" x="8" y="-183.5" font-family="Helvetica,sans-Serif" font-size="10.00" fill="#000000">variant&lt; uint32_t,</text>
<text text-anchor="start" x="8" y="-172.5" font-family="Helvetica,sans-Serif" font-size="10.00" fill="#000000"> uint64_t, std::string,</text>
<text text-anchor="middle" x="58.5" y="-161.5" font-family="Helvetica,sans-Serif" font-size="10.00" fill="#000000"> None &gt;</text>
<polyline fill="none" stroke="#bfbfbf" points="0,-154.5 117,-154.5 "/>
<text text-anchor="middle" x="58.5" y="-142.5" font-family="Helvetica,sans-Serif" font-size="10.00" fill="#000000"> </text>
<polyline fill="none" stroke="#bfbfbf" points="0,-135.5 117,-135.5 "/>
<text text-anchor="middle" x="58.5" y="-123.5" font-family="Helvetica,sans-Serif" font-size="10.00" fill="#000000"> </text>
</g>
<!-- Node2&#45;&gt;Node1 -->
<g id="edge1" class="edge">
<title>Node2&#45;&gt;Node1</title>
<path fill="none" stroke="#404040" d="M74.5444,-116.2164C79.24,-104.5732 84.4079,-91.7589 89.2308,-79.8001"/>
<polygon fill="none" stroke="#404040" points="89.2341,-79.7918 87.7686,-72.7312 93.7224,-68.6628 95.1879,-75.7234 89.2341,-79.7918"/>
<text text-anchor="middle" x="106" y="-90" font-family="Helvetica,sans-Serif" font-size="10.00" fill="#000000"> +value</text>
</g>
<!-- Node3 -->
<g id="node3" class="node">
<title>Node3</title>
<polygon fill="none" stroke="#bfbfbf" points="135.5,-127.5 135.5,-184.5 179.5,-184.5 179.5,-127.5 135.5,-127.5"/>
<text text-anchor="middle" x="157.5" y="-172.5" font-family="Helvetica,sans-Serif" font-size="10.00" fill="#000000">string</text>
<polyline fill="none" stroke="#bfbfbf" points="135.5,-165.5 179.5,-165.5 "/>
<text text-anchor="middle" x="157.5" y="-153.5" font-family="Helvetica,sans-Serif" font-size="10.00" fill="#000000"> </text>
<polyline fill="none" stroke="#bfbfbf" points="135.5,-146.5 179.5,-146.5 "/>
<text text-anchor="middle" x="157.5" y="-134.5" font-family="Helvetica,sans-Serif" font-size="10.00" fill="#000000"> </text>
</g>
<!-- Node3&#45;&gt;Node1 -->
<g id="edge2" class="edge">
<title>Node3&#45;&gt;Node1</title>
<path fill="none" stroke="#404040" d="M145.9929,-127.4353C140.9618,-115.0003 134.971,-100.2661 129.5,-87 128.5433,-84.6803 127.56,-82.3043 126.5648,-79.906"/>
<polygon fill="none" stroke="#404040" points="126.4896,-79.7254 120.4901,-75.7247 121.8755,-68.648 127.875,-72.6486 126.4896,-79.7254"/>
<text text-anchor="middle" x="150.5" y="-90" font-family="Helvetica,sans-Serif" font-size="10.00" fill="#000000"> +label</text>
</g>
</g>
</svg>
