<?xml version="1.0" encoding="UTF-8" standalone="no"?>
<!DOCTYPE svg PUBLIC "-//W3C//DTD SVG 1.1//EN"
 "http://www.w3.org/Graphics/SVG/1.1/DTD/svg11.dtd">
<!-- Generated by graphviz version 2.40.1 (20161225.0304)
 -->
<!-- Title: o2::conf::SimConfigData Pages: 1 -->
<svg width="828pt" height="336pt"
 viewBox="0.00 0.00 828.00 336.00" xmlns="http://www.w3.org/2000/svg" xmlns:xlink="http://www.w3.org/1999/xlink">
<g id="graph0" class="graph" transform="scale(1 1) rotate(0) translate(4 332)">
<title>o2::conf::SimConfigData</title>
<!-- Node1 -->
<g id="node1" class="node">
<title>Node1</title>
<polygon fill="#bfbfbf" stroke="#000000" points="303,-.5 303,-112.5 437,-112.5 437,-.5 303,-.5"/>
<text text-anchor="middle" x="370" y="-100.5" font-family="Helvetica,sans-Serif" font-size="10.00" fill="#000000">o2::conf::SimConfigData</text>
<polyline fill="none" stroke="#000000" points="303,-93.5 437,-93.5 "/>
<text text-anchor="start" x="311" y="-81.5" font-family="Helvetica,sans-Serif" font-size="10.00" fill="#000000">+ mExtKinFileName</text>
<text text-anchor="start" x="311" y="-70.5" font-family="Helvetica,sans-Serif" font-size="10.00" fill="#000000">+ mExtGenFuncName</text>
<text text-anchor="start" x="311" y="-59.5" font-family="Helvetica,sans-Serif" font-size="10.00" fill="#000000">+ mExtTrgFileName</text>
<text text-anchor="start" x="311" y="-48.5" font-family="Helvetica,sans-Serif" font-size="10.00" fill="#000000">+ mExtTrgFuncName</text>
<text text-anchor="start" x="311" y="-37.5" font-family="Helvetica,sans-Serif" font-size="10.00" fill="#000000">+ mLogVerbosity</text>
<text text-anchor="start" x="311" y="-26.5" font-family="Helvetica,sans-Serif" font-size="10.00" fill="#000000">+ mConfigFile</text>
<polyline fill="none" stroke="#000000" points="303,-19.5 437,-19.5 "/>
<text text-anchor="start" x="311" y="-7.5" font-family="Helvetica,sans-Serif" font-size="10.00" fill="#000000">+ ClassDefNV()</text>
</g>
<!-- Node2 -->
<g id="node2" class="node">
<title>Node2</title>
<g id="a_node2"><a xlink:href="../../d4/dc3/classfloat.html" target="_top" xlink:title="{float\n||}">
<polygon fill="none" stroke="#000000" points="0,-270.5 0,-327.5 38,-327.5 38,-270.5 0,-270.5"/>
<text text-anchor="middle" x="19" y="-315.5" font-family="Helvetica,sans-Serif" font-size="10.00" fill="#000000">float</text>
<polyline fill="none" stroke="#000000" points="0,-308.5 38,-308.5 "/>
<text text-anchor="middle" x="19" y="-296.5" font-family="Helvetica,sans-Serif" font-size="10.00" fill="#000000"> </text>
<polyline fill="none" stroke="#000000" points="0,-289.5 38,-289.5 "/>
<text text-anchor="middle" x="19" y="-277.5" font-family="Helvetica,sans-Serif" font-size="10.00" fill="#000000"> </text>
</a>
</g>
</g>
<!-- Node2&#45;&gt;Node1 -->
<g id="edge1" class="edge">
<title>Node2&#45;&gt;Node1</title>
<path fill="none" stroke="#404040" d="M15.9752,-270.4312C13.7279,-233.1994 15.8895,-168.4407 52,-131 84.5472,-97.2538 207.738,-76.0186 290.8861,-65.2124"/>
<polygon fill="none" stroke="#404040" points="290.9434,-65.2053 296.3916,-60.4812 302.8478,-63.6935 297.3995,-68.4175 290.9434,-65.2053"/>
<text text-anchor="middle" x="76.5" y="-189" font-family="Helvetica,sans-Serif" font-size="10.00" fill="#000000"> +mBMax</text>
</g>
<!-- Node3 -->
<g id="node3" class="node">
<title>Node3</title>
<polygon fill="none" stroke="#bfbfbf" points="56.5,-270.5 56.5,-327.5 175.5,-327.5 175.5,-270.5 56.5,-270.5"/>
<text text-anchor="middle" x="116" y="-315.5" font-family="Helvetica,sans-Serif" font-size="10.00" fill="#000000">vector&lt; std::string &gt;</text>
<polyline fill="none" stroke="#bfbfbf" points="56.5,-308.5 175.5,-308.5 "/>
<text text-anchor="middle" x="116" y="-296.5" font-family="Helvetica,sans-Serif" font-size="10.00" fill="#000000"> </text>
<polyline fill="none" stroke="#bfbfbf" points="56.5,-289.5 175.5,-289.5 "/>
<text text-anchor="middle" x="116" y="-277.5" font-family="Helvetica,sans-Serif" font-size="10.00" fill="#000000"> </text>
</g>
<!-- Node3&#45;&gt;Node1 -->
<g id="edge2" class="edge">
<title>Node3&#45;&gt;Node1</title>
<path fill="none" stroke="#404040" d="M109.52,-270.2397C103.0795,-233.688 98.2095,-170.5971 130,-131 150.4529,-105.5246 229.1152,-84.3588 290.8793,-71.1792"/>
<polygon fill="none" stroke="#404040" points="291.238,-71.1044 296.2935,-65.9621 302.9846,-68.6509 297.9291,-73.7932 291.238,-71.1044"/>
<text text-anchor="middle" x="180" y="-189" font-family="Helvetica,sans-Serif" font-size="10.00" fill="#000000"> +mActiveDetectors</text>
</g>
<!-- Node4 -->
<g id="node4" class="node">
<title>Node4</title>
<polygon fill="none" stroke="#bfbfbf" points="224.5,-270.5 224.5,-327.5 253.5,-327.5 253.5,-270.5 224.5,-270.5"/>
<text text-anchor="middle" x="239" y="-315.5" font-family="Helvetica,sans-Serif" font-size="10.00" fill="#000000">int</text>
<polyline fill="none" stroke="#bfbfbf" points="224.5,-308.5 253.5,-308.5 "/>
<text text-anchor="middle" x="239" y="-296.5" font-family="Helvetica,sans-Serif" font-size="10.00" fill="#000000"> </text>
<polyline fill="none" stroke="#bfbfbf" points="224.5,-289.5 253.5,-289.5 "/>
<text text-anchor="middle" x="239" y="-277.5" font-family="Helvetica,sans-Serif" font-size="10.00" fill="#000000"> </text>
</g>
<!-- Node4&#45;&gt;Node1 -->
<g id="edge3" class="edge">
<title>Node4&#45;&gt;Node1</title>
<path fill="none" stroke="#404040" d="M235.2685,-270.2143C232.1533,-234.7596 231.7645,-173.9626 258,-131 266.6676,-116.8062 279.18,-104.7441 292.7274,-94.7261"/>
<polygon fill="none" stroke="#404040" points="292.8714,-94.6264 295.5248,-87.9212 302.7348,-87.7915 300.0814,-94.4967 292.8714,-94.6264"/>
<text text-anchor="middle" x="312" y="-211" font-family="Helvetica,sans-Serif" font-size="10.00" fill="#000000"> +mStartSeed</text>
<text text-anchor="middle" x="312" y="-200" font-family="Helvetica,sans-Serif" font-size="10.00" fill="#000000">+mInternalChunkSize</text>
<text text-anchor="middle" x="312" y="-189" font-family="Helvetica,sans-Serif" font-size="10.00" fill="#000000">+mPrimaryChunkSize</text>
<text text-anchor="middle" x="312" y="-178" font-family="Helvetica,sans-Serif" font-size="10.00" fill="#000000">+mField</text>
<text text-anchor="middle" x="312" y="-167" font-family="Helvetica,sans-Serif" font-size="10.00" fill="#000000">+mSimWorkers</text>
</g>
<!-- Node5 -->
<g id="node5" class="node">
<title>Node5</title>
<polygon fill="none" stroke="#bfbfbf" points="351,-270.5 351,-327.5 389,-327.5 389,-270.5 351,-270.5"/>
<text text-anchor="middle" x="370" y="-315.5" font-family="Helvetica,sans-Serif" font-size="10.00" fill="#000000">bool</text>
<polyline fill="none" stroke="#bfbfbf" points="351,-308.5 389,-308.5 "/>
<text text-anchor="middle" x="370" y="-296.5" font-family="Helvetica,sans-Serif" font-size="10.00" fill="#000000"> </text>
<polyline fill="none" stroke="#bfbfbf" points="351,-289.5 389,-289.5 "/>
<text text-anchor="middle" x="370" y="-277.5" font-family="Helvetica,sans-Serif" font-size="10.00" fill="#000000"> </text>
</g>
<!-- Node5&#45;&gt;Node1 -->
<g id="edge4" class="edge">
<title>Node5&#45;&gt;Node1</title>
<path fill="none" stroke="#404040" d="M370,-270.2298C370,-234.6823 370,-173.0253 370,-125.0424"/>
<polygon fill="none" stroke="#404040" points="370.0001,-124.8489 366,-118.8489 370,-112.8489 374,-118.8488 370.0001,-124.8489"/>
<text text-anchor="middle" x="423" y="-194.5" font-family="Helvetica,sans-Serif" font-size="10.00" fill="#000000"> +mFilterNoHitEvents</text>
<text text-anchor="middle" x="423" y="-183.5" font-family="Helvetica,sans-Serif" font-size="10.00" fill="#000000">+mIsMT</text>
</g>
<!-- Node6 -->
<g id="node6" class="node">
<title>Node6</title>
<polygon fill="none" stroke="#bfbfbf" points="477,-270.5 477,-327.5 521,-327.5 521,-270.5 477,-270.5"/>
<text text-anchor="middle" x="499" y="-315.5" font-family="Helvetica,sans-Serif" font-size="10.00" fill="#000000">string</text>
<polyline fill="none" stroke="#bfbfbf" points="477,-308.5 521,-308.5 "/>
<text text-anchor="middle" x="499" y="-296.5" font-family="Helvetica,sans-Serif" font-size="10.00" fill="#000000"> </text>
<polyline fill="none" stroke="#bfbfbf" points="477,-289.5 521,-289.5 "/>
<text text-anchor="middle" x="499" y="-277.5" font-family="Helvetica,sans-Serif" font-size="10.00" fill="#000000"> </text>
</g>
<!-- Node6&#45;&gt;Node1 -->
<g id="edge5" class="edge">
<title>Node6&#45;&gt;Node1</title>
<path fill="none" stroke="#404040" d="M498.0191,-270.3921C496.1318,-228.7217 490.8709,-153.808 477,-131 469.297,-118.3339 458.5323,-107.2725 446.7766,-97.8239"/>
<polygon fill="none" stroke="#404040" points="446.7609,-97.8121 439.5617,-97.3972 437.1759,-90.5922 444.375,-91.0071 446.7609,-97.8121"/>
<text text-anchor="middle" x="554.5" y="-244" font-family="Helvetica,sans-Serif" font-size="10.00" fill="#000000"> +mOutputPrefix</text>
<text text-anchor="middle" x="554.5" y="-233" font-family="Helvetica,sans-Serif" font-size="10.00" fill="#000000">+mMCEngine</text>
<text text-anchor="middle" x="554.5" y="-222" font-family="Helvetica,sans-Serif" font-size="10.00" fill="#000000">+mCCDBUrl</text>
<text text-anchor="middle" x="554.5" y="-211" font-family="Helvetica,sans-Serif" font-size="10.00" fill="#000000">+mKeyValueTokens</text>
<text text-anchor="middle" x="554.5" y="-200" font-family="Helvetica,sans-Serif" font-size="10.00" fill="#000000">+mLogSeverity</text>
<text text-anchor="middle" x="554.5" y="-189" font-family="Helvetica,sans-Serif" font-size="10.00" fill="#000000">+mHepMCFileName</text>
<text text-anchor="middle" x="554.5" y="-178" font-family="Helvetica,sans-Serif" font-size="10.00" fill="#000000">+mTrigger</text>
<text text-anchor="middle" x="554.5" y="-167" font-family="Helvetica,sans-Serif" font-size="10.00" fill="#000000">+mGenerator</text>
<text text-anchor="middle" x="554.5" y="-156" font-family="Helvetica,sans-Serif" font-size="10.00" fill="#000000">+mEmbedIntoFileName</text>
<text text-anchor="middle" x="554.5" y="-145" font-family="Helvetica,sans-Serif" font-size="10.00" fill="#000000">+mExtGenFileName</text>
<text text-anchor="middle" x="554.5" y="-134" font-family="Helvetica,sans-Serif" font-size="10.00" fill="#000000">...</text>
</g>
<!-- Node7 -->
<g id="node7" class="node">
<title>Node7</title>
<polygon fill="none" stroke="#bfbfbf" points="620,-270.5 620,-327.5 658,-327.5 658,-270.5 620,-270.5"/>
<text text-anchor="middle" x="639" y="-315.5" font-family="Helvetica,sans-Serif" font-size="10.00" fill="#000000">long</text>
<polyline fill="none" stroke="#bfbfbf" points="620,-308.5 658,-308.5 "/>
<text text-anchor="middle" x="639" y="-296.5" font-family="Helvetica,sans-Serif" font-size="10.00" fill="#000000"> </text>
<polyline fill="none" stroke="#bfbfbf" points="620,-289.5 658,-289.5 "/>
<text text-anchor="middle" x="639" y="-277.5" font-family="Helvetica,sans-Serif" font-size="10.00" fill="#000000"> </text>
</g>
<!-- Node7&#45;&gt;Node1 -->
<g id="edge6" class="edge">
<title>Node7&#45;&gt;Node1</title>
<path fill="none" stroke="#404040" d="M638.8975,-270.4661C638.1575,-228.1282 634.3746,-151.4598 617,-131 595.0742,-105.1808 512.8349,-83.8647 449.2058,-70.7435"/>
<polygon fill="none" stroke="#404040" points="448.9188,-70.6856 442.2456,-73.4185 437.1563,-68.3097 443.8295,-65.5768 448.9188,-70.6856"/>
<text text-anchor="middle" x="676.5" y="-189" font-family="Helvetica,sans-Serif" font-size="10.00" fill="#000000"> +mTimestamp</text>
</g>
<!-- Node8 -->
<g id="node8" class="node">
<title>Node8</title>
<polygon fill="none" stroke="#bfbfbf" points="708.5,-270.5 708.5,-327.5 769.5,-327.5 769.5,-270.5 708.5,-270.5"/>
<text text-anchor="middle" x="739" y="-315.5" font-family="Helvetica,sans-Serif" font-size="10.00" fill="#000000">unsigned</text>
<polyline fill="none" stroke="#bfbfbf" points="708.5,-308.5 769.5,-308.5 "/>
<text text-anchor="middle" x="739" y="-296.5" font-family="Helvetica,sans-Serif" font-size="10.00" fill="#000000"> </text>
<polyline fill="none" stroke="#bfbfbf" points="708.5,-289.5 769.5,-289.5 "/>
<text text-anchor="middle" x="739" y="-277.5" font-family="Helvetica,sans-Serif" font-size="10.00" fill="#000000"> </text>
</g>
<!-- Node8&#45;&gt;Node1 -->
<g id="edge7" class="edge">
<title>Node8&#45;&gt;Node1</title>
<path fill="none" stroke="#404040" d="M744.3091,-270.2352C749.3744,-233.0887 751.7915,-168.7407 717,-131 681.5143,-92.5063 540.2316,-72.2893 449.2501,-63.0468"/>
<polygon fill="none" stroke="#404040" points="448.9801,-63.0202 442.6161,-66.4113 437.0381,-61.8411 443.4021,-58.45 448.9801,-63.0202"/>
<text text-anchor="middle" x="783.5" y="-194.5" font-family="Helvetica,sans-Serif" font-size="10.00" fill="#000000"> +mStartEvent</text>
<text text-anchor="middle" x="783.5" y="-183.5" font-family="Helvetica,sans-Serif" font-size="10.00" fill="#000000">+mNEvents</text>
</g>
</g>
</svg>
