<?xml version="1.0" encoding="UTF-8" standalone="no"?>
<!DOCTYPE svg PUBLIC "-//W3C//DTD SVG 1.1//EN"
 "http://www.w3.org/Graphics/SVG/1.1/DTD/svg11.dtd">
<!-- Generated by graphviz version 2.40.1 (20161225.0304)
 -->
<!-- Title: FooBar Pages: 1 -->
<svg width="335pt" height="354pt"
 viewBox="0.00 0.00 335.00 354.00" xmlns="http://www.w3.org/2000/svg" xmlns:xlink="http://www.w3.org/1999/xlink">
<g id="graph0" class="graph" transform="scale(1 1) rotate(0) translate(4 350)">
<title>FooBar</title>
<!-- Node2 -->
<g id="node1" class="node">
<title>Node2</title>
<polygon fill="#bfbfbf" stroke="#000000" points="112,-.5 112,-57.5 162,-57.5 162,-.5 112,-.5"/>
<text text-anchor="middle" x="137" y="-45.5" font-family="Helvetica,sans-Serif" font-size="10.00" fill="#000000">FooBar</text>
<polyline fill="none" stroke="#000000" points="112,-38.5 162,-38.5 "/>
<text text-anchor="middle" x="137" y="-26.5" font-family="Helvetica,sans-Serif" font-size="10.00" fill="#000000"> </text>
<polyline fill="none" stroke="#000000" points="112,-19.5 162,-19.5 "/>
<text text-anchor="middle" x="137" y="-7.5" font-family="Helvetica,sans-Serif" font-size="10.00" fill="#000000"> </text>
</g>
<!-- Node3 -->
<g id="node2" class="node">
<title>Node3</title>
<g id="a_node2"><a xlink:href="../../d8/d5d/classFoo.html" target="_top" xlink:title="Dummy boost&#45;serializable struct to perform some tests. ">
<polygon fill="none" stroke="#000000" points="70.5,-95.5 70.5,-207.5 203.5,-207.5 203.5,-95.5 70.5,-95.5"/>
<text text-anchor="middle" x="137" y="-195.5" font-family="Helvetica,sans-Serif" font-size="10.00" fill="#000000">Foo</text>
<polyline fill="none" stroke="#000000" points="70.5,-188.5 203.5,-188.5 "/>
<text text-anchor="middle" x="137" y="-176.5" font-family="Helvetica,sans-Serif" font-size="10.00" fill="#000000"> </text>
<polyline fill="none" stroke="#000000" points="70.5,-169.5 203.5,-169.5 "/>
<text text-anchor="start" x="78.5" y="-157.5" font-family="Helvetica,sans-Serif" font-size="10.00" fill="#000000">+ Foo()</text>
<text text-anchor="start" x="78.5" y="-146.5" font-family="Helvetica,sans-Serif" font-size="10.00" fill="#000000">+ Foo()</text>
<text text-anchor="start" x="78.5" y="-135.5" font-family="Helvetica,sans-Serif" font-size="10.00" fill="#000000">+ serialize()</text>
<text text-anchor="start" x="78.5" y="-124.5" font-family="Helvetica,sans-Serif" font-size="10.00" fill="#000000">+ Foo()</text>
<text text-anchor="start" x="78.5" y="-113.5" font-family="Helvetica,sans-Serif" font-size="10.00" fill="#000000">+ someHiddenMethod()</text>
<text text-anchor="start" x="78.5" y="-102.5" font-family="Helvetica,sans-Serif" font-size="10.00" fill="#000000">+ a()</text>
</a>
</g>
</g>
<!-- Node3&#45;&gt;Node2 -->
<g id="edge1" class="edge">
<title>Node3&#45;&gt;Node2</title>
<path fill="none" stroke="#191970" d="M137,-85.1308C137,-75.4223 137,-65.8865 137,-57.5083"/>
<polygon fill="none" stroke="#191970" points="133.5001,-85.2694 137,-95.2694 140.5001,-85.2694 133.5001,-85.2694"/>
</g>
<!-- Node4 -->
<g id="node3" class="node">
<title>Node4</title>
<polygon fill="none" stroke="#bfbfbf" points="0,-288.5 0,-345.5 50,-345.5 50,-288.5 0,-288.5"/>
<text text-anchor="middle" x="25" y="-333.5" font-family="Helvetica,sans-Serif" font-size="10.00" fill="#000000">double</text>
<polyline fill="none" stroke="#bfbfbf" points="0,-326.5 50,-326.5 "/>
<text text-anchor="middle" x="25" y="-314.5" font-family="Helvetica,sans-Serif" font-size="10.00" fill="#000000"> </text>
<polyline fill="none" stroke="#bfbfbf" points="0,-307.5 50,-307.5 "/>
<text text-anchor="middle" x="25" y="-295.5" font-family="Helvetica,sans-Serif" font-size="10.00" fill="#000000"> </text>
</g>
<!-- Node4&#45;&gt;Node3 -->
<g id="edge2" class="edge">
<title>Node4&#45;&gt;Node3</title>
<path fill="none" stroke="#404040" d="M32.0851,-288.3824C37.5669,-269.6344 46.3734,-245.1486 59,-226 60.9329,-223.0688 63.001,-220.1673 65.1743,-217.3069"/>
<polygon fill="none" stroke="#404040" points="65.3629,-217.0744 66.0376,-209.8949 72.9244,-207.7564 72.2496,-214.9359 65.3629,-217.0744"/>
<text text-anchor="middle" x="78" y="-245.5" font-family="Helvetica,sans-Serif" font-size="10.00" fill="#000000"> +fBar2</text>
</g>
<!-- Node5 -->
<g id="node4" class="node">
<title>Node5</title>
<g id="a_node4"><a xlink:href="../../d4/dc3/classfloat.html" target="_top" xlink:title="{float\n||}">
<polygon fill="none" stroke="#000000" points="68,-288.5 68,-345.5 106,-345.5 106,-288.5 68,-288.5"/>
<text text-anchor="middle" x="87" y="-333.5" font-family="Helvetica,sans-Serif" font-size="10.00" fill="#000000">float</text>
<polyline fill="none" stroke="#000000" points="68,-326.5 106,-326.5 "/>
<text text-anchor="middle" x="87" y="-314.5" font-family="Helvetica,sans-Serif" font-size="10.00" fill="#000000"> </text>
<polyline fill="none" stroke="#000000" points="68,-307.5 106,-307.5 "/>
<text text-anchor="middle" x="87" y="-295.5" font-family="Helvetica,sans-Serif" font-size="10.00" fill="#000000"> </text>
</a>
</g>
</g>
<!-- Node5&#45;&gt;Node3 -->
<g id="edge3" class="edge">
<title>Node5&#45;&gt;Node3</title>
<path fill="none" stroke="#404040" d="M95.7093,-288.1721C101.456,-269.1507 109.2367,-243.3964 116.4948,-219.3721"/>
<polygon fill="none" stroke="#404040" points="116.5342,-219.2417 114.4404,-212.3412 120.0047,-207.7545 122.0985,-214.6549 116.5342,-219.2417"/>
<text text-anchor="middle" x="122" y="-245.5" font-family="Helvetica,sans-Serif" font-size="10.00" fill="#000000"> +y</text>
</g>
<!-- Node6 -->
<g id="node5" class="node">
<title>Node6</title>
<polygon fill="none" stroke="#bfbfbf" points="124.5,-288.5 124.5,-345.5 153.5,-345.5 153.5,-288.5 124.5,-288.5"/>
<text text-anchor="middle" x="139" y="-333.5" font-family="Helvetica,sans-Serif" font-size="10.00" fill="#000000">int</text>
<polyline fill="none" stroke="#bfbfbf" points="124.5,-326.5 153.5,-326.5 "/>
<text text-anchor="middle" x="139" y="-314.5" font-family="Helvetica,sans-Serif" font-size="10.00" fill="#000000"> </text>
<polyline fill="none" stroke="#bfbfbf" points="124.5,-307.5 153.5,-307.5 "/>
<text text-anchor="middle" x="139" y="-295.5" font-family="Helvetica,sans-Serif" font-size="10.00" fill="#000000"> </text>
</g>
<!-- Node6&#45;&gt;Node3 -->
<g id="edge4" class="edge">
<title>Node6&#45;&gt;Node3</title>
<path fill="none" stroke="#404040" d="M138.3281,-288.1682C138.2046,-282.1641 138.0873,-275.8757 138,-270 137.7589,-253.7711 137.5714,-236.2911 137.4274,-219.8722"/>
<polygon fill="none" stroke="#404040" points="137.4249,-219.5614 133.3754,-213.5947 137.3256,-207.5618 141.3751,-213.5285 137.4249,-219.5614"/>
<text text-anchor="middle" x="155.5" y="-262" font-family="Helvetica,sans-Serif" font-size="10.00" fill="#000000"> +foo</text>
<text text-anchor="middle" x="155.5" y="-251" font-family="Helvetica,sans-Serif" font-size="10.00" fill="#000000">+fBar1</text>
<text text-anchor="middle" x="155.5" y="-240" font-family="Helvetica,sans-Serif" font-size="10.00" fill="#000000">+x</text>
<text text-anchor="middle" x="155.5" y="-229" font-family="Helvetica,sans-Serif" font-size="10.00" fill="#000000">+y</text>
</g>
<!-- Node7 -->
<g id="node6" class="node">
<title>Node7</title>
<polygon fill="none" stroke="#bfbfbf" points="173,-288.5 173,-345.5 217,-345.5 217,-288.5 173,-288.5"/>
<text text-anchor="middle" x="195" y="-333.5" font-family="Helvetica,sans-Serif" font-size="10.00" fill="#000000">string</text>
<polyline fill="none" stroke="#bfbfbf" points="173,-326.5 217,-326.5 "/>
<text text-anchor="middle" x="195" y="-314.5" font-family="Helvetica,sans-Serif" font-size="10.00" fill="#000000"> </text>
<polyline fill="none" stroke="#bfbfbf" points="173,-307.5 217,-307.5 "/>
<text text-anchor="middle" x="195" y="-295.5" font-family="Helvetica,sans-Serif" font-size="10.00" fill="#000000"> </text>
</g>
<!-- Node7&#45;&gt;Node3 -->
<g id="edge5" class="edge">
<title>Node7&#45;&gt;Node3</title>
<path fill="none" stroke="#404040" d="M189.6887,-288.2604C185.9375,-270.1204 180.2839,-246.3534 173,-226 172.2014,-223.7684 171.3561,-221.515 170.4736,-219.2518"/>
<polygon fill="none" stroke="#404040" points="170.3712,-219.0034 164.3848,-214.9829 165.7936,-207.9107 171.7799,-211.9312 170.3712,-219.0034"/>
<text text-anchor="middle" x="204" y="-245.5" font-family="Helvetica,sans-Serif" font-size="10.00" fill="#000000"> +fBar4</text>
</g>
<!-- Node8 -->
<g id="node7" class="node">
<title>Node8</title>
<polygon fill="none" stroke="#bfbfbf" points="235,-288.5 235,-345.5 327,-345.5 327,-288.5 235,-288.5"/>
<text text-anchor="middle" x="281" y="-333.5" font-family="Helvetica,sans-Serif" font-size="10.00" fill="#000000">vector&lt; float &gt;</text>
<polyline fill="none" stroke="#bfbfbf" points="235,-326.5 327,-326.5 "/>
<text text-anchor="middle" x="281" y="-314.5" font-family="Helvetica,sans-Serif" font-size="10.00" fill="#000000"> </text>
<polyline fill="none" stroke="#bfbfbf" points="235,-307.5 327,-307.5 "/>
<text text-anchor="middle" x="281" y="-295.5" font-family="Helvetica,sans-Serif" font-size="10.00" fill="#000000"> </text>
</g>
<!-- Node8&#45;&gt;Node3 -->
<g id="edge6" class="edge">
<title>Node8&#45;&gt;Node3</title>
<path fill="none" stroke="#404040" d="M267.2312,-288.277C257.4627,-269.4844 243.2373,-244.9886 227,-226 222.5242,-220.7658 217.6524,-215.6095 212.5686,-210.6025"/>
<polygon fill="none" stroke="#404040" points="212.5523,-210.587 205.4462,-209.3608 203.8449,-202.3297 210.951,-203.5559 212.5523,-210.587"/>
<text text-anchor="middle" x="275" y="-245.5" font-family="Helvetica,sans-Serif" font-size="10.00" fill="#000000"> +fBar3</text>
</g>
</g>
</svg>
