<?xml version="1.0" encoding="UTF-8" standalone="no"?>
<!DOCTYPE svg PUBLIC "-//W3C//DTD SVG 1.1//EN"
 "http://www.w3.org/Graphics/SVG/1.1/DTD/svg11.dtd">
<!-- Generated by graphviz version 2.40.1 (20161225.0304)
 -->
<!-- Title: GPUCA_NAMESPACE::gpu::GPUReconstructionCPU::timerMeta Pages: 1 -->
<svg width="362pt" height="204pt"
 viewBox="0.00 0.00 362.00 204.00" xmlns="http://www.w3.org/2000/svg" xmlns:xlink="http://www.w3.org/1999/xlink">
<g id="graph0" class="graph" transform="scale(1 1) rotate(0) translate(4 200)">
<title>GPUCA_NAMESPACE::gpu::GPUReconstructionCPU::timerMeta</title>
<!-- Node1 -->
<g id="node1" class="node">
<title>Node1</title>
<polygon fill="#bfbfbf" stroke="#000000" points="82,-.5 82,-79.5 222,-79.5 222,-.5 82,-.5"/>
<text text-anchor="start" x="90" y="-67.5" font-family="Helvetica,sans-Serif" font-size="10.00" fill="#000000">GPUCA_NAMESPACE::gpu</text>
<text text-anchor="start" x="90" y="-56.5" font-family="Helvetica,sans-Serif" font-size="10.00" fill="#000000">::GPUReconstructionCPU</text>
<text text-anchor="middle" x="152" y="-45.5" font-family="Helvetica,sans-Serif" font-size="10.00" fill="#000000">::timerMeta</text>
<polyline fill="none" stroke="#000000" points="82,-38.5 222,-38.5 "/>
<text text-anchor="middle" x="152" y="-26.5" font-family="Helvetica,sans-Serif" font-size="10.00" fill="#000000"> </text>
<polyline fill="none" stroke="#000000" points="82,-19.5 222,-19.5 "/>
<text text-anchor="middle" x="152" y="-7.5" font-family="Helvetica,sans-Serif" font-size="10.00" fill="#000000"> </text>
</g>
<!-- Node2 -->
<g id="node2" class="node">
<title>Node2</title>
<polygon fill="none" stroke="#bfbfbf" points="0,-138.5 0,-195.5 62,-195.5 62,-138.5 0,-138.5"/>
<text text-anchor="middle" x="31" y="-183.5" font-family="Helvetica,sans-Serif" font-size="10.00" fill="#000000">RecoStep</text>
<polyline fill="none" stroke="#bfbfbf" points="0,-176.5 62,-176.5 "/>
<text text-anchor="middle" x="31" y="-164.5" font-family="Helvetica,sans-Serif" font-size="10.00" fill="#000000"> </text>
<polyline fill="none" stroke="#bfbfbf" points="0,-157.5 62,-157.5 "/>
<text text-anchor="middle" x="31" y="-145.5" font-family="Helvetica,sans-Serif" font-size="10.00" fill="#000000"> </text>
</g>
<!-- Node2&#45;&gt;Node1 -->
<g id="edge1" class="edge">
<title>Node2&#45;&gt;Node1</title>
<path fill="none" stroke="#404040" d="M48.6809,-138.4599C57.3559,-125.4777 68.42,-110.3041 80,-98 83.2487,-94.5482 86.706,-91.1209 90.2805,-87.7585"/>
<polygon fill="none" stroke="#404040" points="90.4524,-87.6031 92.2218,-80.6124 99.3552,-79.5569 97.5859,-86.5476 90.4524,-87.6031"/>
<text text-anchor="middle" x="96.5" y="-106.5" font-family="Helvetica,sans-Serif" font-size="10.00" fill="#000000"> +step</text>
</g>
<!-- Node3 -->
<g id="node3" class="node">
<title>Node3</title>
<polygon fill="none" stroke="#bfbfbf" points="80.5,-138.5 80.5,-195.5 109.5,-195.5 109.5,-138.5 80.5,-138.5"/>
<text text-anchor="middle" x="95" y="-183.5" font-family="Helvetica,sans-Serif" font-size="10.00" fill="#000000">int</text>
<polyline fill="none" stroke="#bfbfbf" points="80.5,-176.5 109.5,-176.5 "/>
<text text-anchor="middle" x="95" y="-164.5" font-family="Helvetica,sans-Serif" font-size="10.00" fill="#000000"> </text>
<polyline fill="none" stroke="#bfbfbf" points="80.5,-157.5 109.5,-157.5 "/>
<text text-anchor="middle" x="95" y="-145.5" font-family="Helvetica,sans-Serif" font-size="10.00" fill="#000000"> </text>
</g>
<!-- Node3&#45;&gt;Node1 -->
<g id="edge2" class="edge">
<title>Node3&#45;&gt;Node1</title>
<path fill="none" stroke="#404040" d="M107.7919,-138.4987C114.0858,-124.4756 121.866,-107.1408 129.1364,-90.9417"/>
<polygon fill="none" stroke="#404040" points="129.1502,-90.9109 127.9577,-83.7991 134.0638,-79.963 135.2563,-87.0748 129.1502,-90.9109"/>
<text text-anchor="middle" x="143" y="-112" font-family="Helvetica,sans-Serif" font-size="10.00" fill="#000000"> +type</text>
<text text-anchor="middle" x="143" y="-101" font-family="Helvetica,sans-Serif" font-size="10.00" fill="#000000">+num</text>
</g>
<!-- Node4 -->
<g id="node4" class="node">
<title>Node4</title>
<polygon fill="none" stroke="#bfbfbf" points="128,-138.5 128,-195.5 292,-195.5 292,-138.5 128,-138.5"/>
<text text-anchor="middle" x="210" y="-183.5" font-family="Helvetica,sans-Serif" font-size="10.00" fill="#000000">unique_ptr&lt; HighResTimer[]&gt;</text>
<polyline fill="none" stroke="#bfbfbf" points="128,-176.5 292,-176.5 "/>
<text text-anchor="middle" x="210" y="-164.5" font-family="Helvetica,sans-Serif" font-size="10.00" fill="#000000"> </text>
<polyline fill="none" stroke="#bfbfbf" points="128,-157.5 292,-157.5 "/>
<text text-anchor="middle" x="210" y="-145.5" font-family="Helvetica,sans-Serif" font-size="10.00" fill="#000000"> </text>
</g>
<!-- Node4&#45;&gt;Node1 -->
<g id="edge3" class="edge">
<title>Node4&#45;&gt;Node1</title>
<path fill="none" stroke="#404040" d="M196.9837,-138.4987C190.5794,-124.4756 182.6627,-107.1408 175.2647,-90.9417"/>
<polygon fill="none" stroke="#404040" points="175.2359,-90.8786 169.1049,-87.0825 170.2508,-79.963 176.3819,-83.7591 175.2359,-90.8786"/>
<text text-anchor="middle" x="206" y="-106.5" font-family="Helvetica,sans-Serif" font-size="10.00" fill="#000000"> +timer</text>
</g>
<!-- Node5 -->
<g id="node5" class="node">
<title>Node5</title>
<polygon fill="none" stroke="#bfbfbf" points="310,-138.5 310,-195.5 354,-195.5 354,-138.5 310,-138.5"/>
<text text-anchor="middle" x="332" y="-183.5" font-family="Helvetica,sans-Serif" font-size="10.00" fill="#000000">string</text>
<polyline fill="none" stroke="#bfbfbf" points="310,-176.5 354,-176.5 "/>
<text text-anchor="middle" x="332" y="-164.5" font-family="Helvetica,sans-Serif" font-size="10.00" fill="#000000"> </text>
<polyline fill="none" stroke="#bfbfbf" points="310,-157.5 354,-157.5 "/>
<text text-anchor="middle" x="332" y="-145.5" font-family="Helvetica,sans-Serif" font-size="10.00" fill="#000000"> </text>
</g>
<!-- Node5&#45;&gt;Node1 -->
<g id="edge4" class="edge">
<title>Node5&#45;&gt;Node1</title>
<path fill="none" stroke="#404040" d="M309.7101,-145.3145C306.8422,-142.7747 303.8953,-140.2794 301,-138 278.0106,-119.9012 251.6904,-101.8104 227.6311,-86.188"/>
<polygon fill="none" stroke="#404040" points="227.5653,-86.1457 220.3551,-86.2619 217.4747,-79.651 224.6849,-79.5348 227.5653,-86.1457"/>
<text text-anchor="middle" x="293" y="-106.5" font-family="Helvetica,sans-Serif" font-size="10.00" fill="#000000"> +name</text>
</g>
</g>
</svg>
