<?xml version="1.0" encoding="UTF-8" standalone="no"?>
<!DOCTYPE svg PUBLIC "-//W3C//DTD SVG 1.1//EN"
 "http://www.w3.org/Graphics/SVG/1.1/DTD/svg11.dtd">
<!-- Generated by graphviz version 2.40.1 (20161225.0304)
 -->
<!-- Title: /home/travis/build/AliceO2Group/AliceO2/Detectors/CPV/simulation/include/CPVSimulation/DigitizerTask.h Pages: 1 -->
<!--zoomable 519 -->
<svg id="main" version="1.1" xmlns="http://www.w3.org/2000/svg" xmlns:xlink="http://www.w3.org/1999/xlink" xml:space="preserve" onload="init(evt)">
<style type="text/css"><![CDATA[
.edge:hover path { stroke: red; }
.edge:hover polygon { stroke: red; fill: red; }
]]></style>
<script type="text/javascript"><![CDATA[
var edges = document.getElementsByTagName('g');
if (edges && edges.length) {
  for (var i=0;i<edges.length;i++) {
    if (edges[i].id.substr(0,4)=='edge') {
      edges[i].setAttribute('class','edge');
    }
  }
}
]]></script>
        <defs>
                <circle id="rim" cx="0" cy="0" r="7"/>
                <circle id="rim2" cx="0" cy="0" r="3.5"/>
                <g id="zoomPlus">
                        <use xlink:href="#rim" fill="#404040">
                                <set attributeName="fill" to="#808080" begin="zoomplus.mouseover" end="zoomplus.mouseout"/>
                        </use>
                        <path d="M-4,0h8M0,-4v8" fill="none" stroke="white" stroke-width="1.5" pointer-events="none"/>
                </g>
                <g id="zoomMin">
                        <use xlink:href="#rim" fill="#404040">
                                <set attributeName="fill" to="#808080" begin="zoomminus.mouseover" end="zoomminus.mouseout"/>
                        </use>
                        <path d="M-4,0h8" fill="none" stroke="white" stroke-width="1.5" pointer-events="none"/>
                </g>
                <g id="dirArrow">
                        <path fill="none" stroke="white" stroke-width="1.5" d="M0,-3.0v7 M-2.5,-0.5L0,-3.0L2.5,-0.5"/>
                </g>
               <g id="resetDef">
                       <use xlink:href="#rim2" fill="#404040">
                               <set attributeName="fill" to="#808080" begin="reset.mouseover" end="reset.mouseout"/>
                       </use>
               </g>
        </defs>

<script type="text/javascript">
var viewWidth = 2217;
var viewHeight = 519;
var sectionId = 'dynsection-0';
</script>
<script xlink:href="../../svgpan.js"/>
<svg id="graph" class="graph">
<g id="viewport">
<title>/home/travis/build/AliceO2Group/AliceO2/Detectors/CPV/simulation/include/CPVSimulation/DigitizerTask.h</title>
<!-- Node0 -->
<g id="node1" class="node">
<title>Node0</title>
<polygon fill="#bfbfbf" stroke="#000000" points="645.5,-447.5 645.5,-510.5 819.5,-510.5 819.5,-447.5 645.5,-447.5"/>
<text text-anchor="start" x="653.5" y="-498.5" font-family="Helvetica,sans-Serif" font-size="10.00" fill="#000000">/home/travis/build</text>
<text text-anchor="start" x="653.5" y="-487.5" font-family="Helvetica,sans-Serif" font-size="10.00" fill="#000000">/AliceO2Group/AliceO2</text>
<text text-anchor="start" x="653.5" y="-476.5" font-family="Helvetica,sans-Serif" font-size="10.00" fill="#000000">/Detectors/CPV/simulation</text>
<text text-anchor="start" x="653.5" y="-465.5" font-family="Helvetica,sans-Serif" font-size="10.00" fill="#000000">/include/CPVSimulation/Digitizer</text>
<text text-anchor="middle" x="732.5" y="-454.5" font-family="Helvetica,sans-Serif" font-size="10.00" fill="#000000">Task.h</text>
</g>
<!-- Node1 -->
<g id="node2" class="node">
<title>Node1</title>
<polygon fill="none" stroke="#bfbfbf" points="596,-391.5 596,-410.5 661,-410.5 661,-391.5 596,-391.5"/>
<text text-anchor="middle" x="628.5" y="-398.5" font-family="Helvetica,sans-Serif" font-size="10.00" fill="#000000">FairTask.h</text>
</g>
<!-- Node0&#45;&gt;Node1 -->
<g id="edge1" class="edge">
<title>Node0&#45;&gt;Node1</title>
<path fill="none" stroke="#191970" d="M690.499,-447.4992C676.4828,-436.9871 661.4595,-425.7196 649.7122,-416.9091"/>
<polygon fill="#191970" stroke="#191970" points="651.5385,-413.9039 641.4385,-410.7039 647.3385,-419.5039 651.5385,-413.9039"/>
</g>
<!-- Node2 -->
<g id="node3" class="node">
<title>Node2</title>
<polygon fill="none" stroke="#bfbfbf" points="0,-73 0,-92 59,-92 59,-73 0,-73"/>
<text text-anchor="middle" x="29.5" y="-80" font-family="Helvetica,sans-Serif" font-size="10.00" fill="#000000">Rtypes.h</text>
</g>
<!-- Node0&#45;&gt;Node2 -->
<g id="edge2" class="edge">
<title>Node0&#45;&gt;Node2</title>
<path fill="none" stroke="#191970" d="M716.8544,-447.4359C704.5596,-419.7021 689.5,-377.895 689.5,-339.5 689.5,-339.5 689.5,-339.5 689.5,-205.5 689.5,-65.4476 203.2956,-136.0108 68.5,-98 65.8944,-97.2653 63.2236,-96.4173 60.5614,-95.5044"/>
<polygon fill="#191970" stroke="#191970" points="61.683,-92.1875 51.0898,-92.0006 59.2543,-98.7527 61.683,-92.1875"/>
</g>
<!-- Node3 -->
<g id="node4" class="node">
<title>Node3</title>
<g id="a_node4"><a xlink:href="../../db/dd0/Detectors_2CPV_2base_2include_2CPVBase_2Hit_8h.html" target="_top" xlink:title="CPVBase/Hit.h">
<polygon fill="none" stroke="#000000" points="780.5,-263 780.5,-282 866.5,-282 866.5,-263 780.5,-263"/>
<text text-anchor="middle" x="823.5" y="-270" font-family="Helvetica,sans-Serif" font-size="10.00" fill="#000000">CPVBase/Hit.h</text>
</a>
</g>
</g>
<!-- Node0&#45;&gt;Node3 -->
<g id="edge3" class="edge">
<title>Node0&#45;&gt;Node3</title>
<path fill="none" stroke="#191970" d="M746.5193,-447.1869C765.6683,-403.7335 799.4084,-327.1694 815.0719,-291.6253"/>
<polygon fill="#191970" stroke="#191970" points="818.3208,-292.932 819.1506,-282.3697 811.9152,-290.1092 818.3208,-292.932"/>
</g>
<!-- Node23 -->
<g id="node24" class="node">
<title>Node23</title>
<g id="a_node24"><a xlink:href="../../d4/d37/CPV_2simulation_2include_2CPVSimulation_2Digitizer_8h.html" target="_top" xlink:title="CPVSimulation/Digitizer.h">
<polygon fill="none" stroke="#000000" points="996,-391.5 996,-410.5 1137,-410.5 1137,-391.5 996,-391.5"/>
<text text-anchor="middle" x="1066.5" y="-398.5" font-family="Helvetica,sans-Serif" font-size="10.00" fill="#000000">CPVSimulation/Digitizer.h</text>
</a>
</g>
</g>
<!-- Node0&#45;&gt;Node23 -->
<g id="edge24" class="edge">
<title>Node0&#45;&gt;Node23</title>
<path fill="none" stroke="#191970" d="M819.8183,-458.6083C882.1523,-444.0513 963.8316,-424.9765 1015.7545,-412.8507"/>
<polygon fill="#191970" stroke="#191970" points="1016.7858,-416.2042 1025.7278,-410.5217 1015.1938,-409.3876 1016.7858,-416.2042"/>
</g>
<!-- Node4 -->
<g id="node5" class="node">
<title>Node4</title>
<g id="a_node5"><a xlink:href="../../d4/d25/BaseHits_8h.html" target="_top" xlink:title="SimulationDataFormat\l/BaseHits.h">
<polygon fill="none" stroke="#000000" points="760,-190.5 760,-220.5 887,-220.5 887,-190.5 760,-190.5"/>
<text text-anchor="start" x="768" y="-208.5" font-family="Helvetica,sans-Serif" font-size="10.00" fill="#000000">SimulationDataFormat</text>
<text text-anchor="middle" x="823.5" y="-197.5" font-family="Helvetica,sans-Serif" font-size="10.00" fill="#000000">/BaseHits.h</text>
</a>
</g>
</g>
<!-- Node3&#45;&gt;Node4 -->
<g id="edge4" class="edge">
<title>Node3&#45;&gt;Node4</title>
<path fill="none" stroke="#191970" d="M823.5,-262.9005C823.5,-254.5099 823.5,-241.9451 823.5,-230.7085"/>
<polygon fill="#191970" stroke="#191970" points="827.0001,-230.5217 823.5,-220.5218 820.0001,-230.5218 827.0001,-230.5217"/>
</g>
<!-- Node16 -->
<g id="node17" class="node">
<title>Node16</title>
<g id="a_node17"><a xlink:href="../../d0/d91/ShmAllocator_8h.html" target="_top" xlink:title="CommonUtils/ShmAllocator.h">
<polygon fill="none" stroke="#000000" points="1170.5,-196 1170.5,-215 1330.5,-215 1330.5,-196 1170.5,-196"/>
<text text-anchor="middle" x="1250.5" y="-203" font-family="Helvetica,sans-Serif" font-size="10.00" fill="#000000">CommonUtils/ShmAllocator.h</text>
</a>
</g>
</g>
<!-- Node3&#45;&gt;Node16 -->
<g id="edge17" class="edge">
<title>Node3&#45;&gt;Node16</title>
<path fill="none" stroke="#191970" d="M853.2942,-262.9499C860.8121,-260.7719 868.9064,-258.6239 876.5,-257 972.4971,-236.4708 1084.1845,-222.335 1160.3433,-214.1386"/>
<polygon fill="#191970" stroke="#191970" points="1160.8084,-217.609 1170.3819,-213.0705 1160.0677,-210.6483 1160.8084,-217.609"/>
</g>
<!-- Node5 -->
<g id="node6" class="node">
<title>Node5</title>
<g id="a_node6"><a xlink:href="../../dd/d76/Cartesian3D_8h.html" target="_top" xlink:title="MathUtils/Cartesian3D.h">
<polygon fill="none" stroke="#000000" points="756,-134.5 756,-153.5 891,-153.5 891,-134.5 756,-134.5"/>
<text text-anchor="middle" x="823.5" y="-141.5" font-family="Helvetica,sans-Serif" font-size="10.00" fill="#000000">MathUtils/Cartesian3D.h</text>
</a>
</g>
</g>
<!-- Node4&#45;&gt;Node5 -->
<g id="edge5" class="edge">
<title>Node4&#45;&gt;Node5</title>
<path fill="none" stroke="#191970" d="M823.5,-190.2977C823.5,-182.3834 823.5,-172.6043 823.5,-164.0759"/>
<polygon fill="#191970" stroke="#191970" points="827.0001,-163.8469 823.5,-153.8469 820.0001,-163.847 827.0001,-163.8469"/>
</g>
<!-- Node5&#45;&gt;Node2 -->
<g id="edge11" class="edge">
<title>Node5&#45;&gt;Node2</title>
<path fill="none" stroke="#191970" d="M755.969,-135.396C751.0764,-134.8859 746.2147,-134.4131 741.5,-134 443.1045,-107.8547 361.0867,-162.1596 68.5,-98 65.631,-97.3709 62.6985,-96.5555 59.7936,-95.6282"/>
<polygon fill="#191970" stroke="#191970" points="60.7505,-92.2527 50.1562,-92.152 58.3754,-98.8375 60.7505,-92.2527"/>
</g>
<!-- Node6 -->
<g id="node7" class="node">
<title>Node6</title>
<polygon fill="none" stroke="#bfbfbf" points="77.5,-67.5 77.5,-97.5 241.5,-97.5 241.5,-67.5 77.5,-67.5"/>
<text text-anchor="start" x="85.5" y="-85.5" font-family="Helvetica,sans-Serif" font-size="10.00" fill="#000000">Math/GenVector/Displacement</text>
<text text-anchor="middle" x="159.5" y="-74.5" font-family="Helvetica,sans-Serif" font-size="10.00" fill="#000000">Vector3D.h</text>
</g>
<!-- Node5&#45;&gt;Node6 -->
<g id="edge6" class="edge">
<title>Node5&#45;&gt;Node6</title>
<path fill="none" stroke="#191970" d="M755.9591,-135.502C751.0689,-134.9669 746.2103,-134.4596 741.5,-134 527.0227,-113.0717 469.4424,-124.0551 251.9318,-98.1015"/>
<polygon fill="#191970" stroke="#191970" points="252.1354,-94.6008 241.7883,-96.8784 251.2974,-101.5504 252.1354,-94.6008"/>
</g>
<!-- Node7 -->
<g id="node8" class="node">
<title>Node7</title>
<polygon fill="none" stroke="#bfbfbf" points="260,-73 260,-92 449,-92 449,-73 260,-73"/>
<text text-anchor="middle" x="354.5" y="-80" font-family="Helvetica,sans-Serif" font-size="10.00" fill="#000000">Math/GenVector/PositionVector3D.h</text>
</g>
<!-- Node5&#45;&gt;Node7 -->
<g id="edge7" class="edge">
<title>Node5&#45;&gt;Node7</title>
<path fill="none" stroke="#191970" d="M755.9169,-135.6683C666.6825,-124.6351 514.3392,-105.6787 458.5,-98 448.2899,-96.596 437.525,-95.0573 426.9466,-93.5118"/>
<polygon fill="#191970" stroke="#191970" points="427.2888,-90.0245 416.8859,-92.032 426.2701,-96.95 427.2888,-90.0245"/>
</g>
<!-- Node8 -->
<g id="node9" class="node">
<title>Node8</title>
<polygon fill="none" stroke="#bfbfbf" points="467.5,-73 467.5,-92 627.5,-92 627.5,-73 467.5,-73"/>
<text text-anchor="middle" x="547.5" y="-80" font-family="Helvetica,sans-Serif" font-size="10.00" fill="#000000">Math/GenVector/Rotation3D.h</text>
</g>
<!-- Node5&#45;&gt;Node8 -->
<g id="edge8" class="edge">
<title>Node5&#45;&gt;Node8</title>
<path fill="none" stroke="#191970" d="M780.6778,-134.4581C732.03,-123.6181 652.615,-105.9224 600.2042,-94.2439"/>
<polygon fill="#191970" stroke="#191970" points="600.9445,-90.8231 590.4226,-92.0643 599.422,-97.6555 600.9445,-90.8231"/>
</g>
<!-- Node9 -->
<g id="node10" class="node">
<title>Node9</title>
<polygon fill="none" stroke="#bfbfbf" points="645.5,-73 645.5,-92 813.5,-92 813.5,-73 645.5,-73"/>
<text text-anchor="middle" x="729.5" y="-80" font-family="Helvetica,sans-Serif" font-size="10.00" fill="#000000">Math/GenVector/Transform3D.h</text>
</g>
<!-- Node5&#45;&gt;Node9 -->
<g id="edge9" class="edge">
<title>Node5&#45;&gt;Node9</title>
<path fill="none" stroke="#191970" d="M808.8125,-134.3906C793.7744,-124.5519 770.1824,-109.1167 752.6333,-97.6351"/>
<polygon fill="#191970" stroke="#191970" points="754.3687,-94.588 744.0844,-92.0419 750.5363,-100.4457 754.3687,-94.588"/>
</g>
<!-- Node10 -->
<g id="node11" class="node">
<title>Node10</title>
<polygon fill="none" stroke="#bfbfbf" points="832,-73 832,-92 1005,-92 1005,-73 832,-73"/>
<text text-anchor="middle" x="918.5" y="-80" font-family="Helvetica,sans-Serif" font-size="10.00" fill="#000000">Math/GenVector/Translation3D.h</text>
</g>
<!-- Node5&#45;&gt;Node10 -->
<g id="edge10" class="edge">
<title>Node5&#45;&gt;Node10</title>
<path fill="none" stroke="#191970" d="M838.3438,-134.3906C853.5418,-124.5519 877.3848,-109.1167 895.1206,-97.6351"/>
<polygon fill="#191970" stroke="#191970" points="897.268,-100.4144 903.7605,-92.0419 893.4639,-94.5382 897.268,-100.4144"/>
</g>
<!-- Node11 -->
<g id="node12" class="node">
<title>Node11</title>
<polygon fill="none" stroke="#bfbfbf" points="1023.5,-73 1023.5,-92 1105.5,-92 1105.5,-73 1023.5,-73"/>
<text text-anchor="middle" x="1064.5" y="-80" font-family="Helvetica,sans-Serif" font-size="10.00" fill="#000000">TGeoMatrix.h</text>
</g>
<!-- Node5&#45;&gt;Node11 -->
<g id="edge12" class="edge">
<title>Node5&#45;&gt;Node11</title>
<path fill="none" stroke="#191970" d="M866.5617,-134.4613C905.406,-125.6595 964.02,-111.8877 1014.5,-98 1017.8886,-97.0677 1021.3945,-96.0634 1024.9048,-95.0301"/>
<polygon fill="#191970" stroke="#191970" points="1026.149,-98.3108 1034.7158,-92.0769 1024.1313,-91.6079 1026.149,-98.3108"/>
</g>
<!-- Node12 -->
<g id="node13" class="node">
<title>Node12</title>
<polygon fill="none" stroke="#bfbfbf" points="1124,-73 1124,-92 1173,-92 1173,-73 1124,-73"/>
<text text-anchor="middle" x="1148.5" y="-80" font-family="Helvetica,sans-Serif" font-size="10.00" fill="#000000">iosfwd</text>
</g>
<!-- Node5&#45;&gt;Node12 -->
<g id="edge13" class="edge">
<title>Node5&#45;&gt;Node12</title>
<path fill="none" stroke="#191970" d="M891.1085,-138.543C950.8385,-132.4953 1039.8066,-120.4731 1114.5,-98 1116.4102,-97.4253 1118.3521,-96.765 1120.2905,-96.0479"/>
<polygon fill="#191970" stroke="#191970" points="1121.8841,-99.1766 1129.7903,-92.1238 1119.2115,-92.7068 1121.8841,-99.1766"/>
</g>
<!-- Node13 -->
<g id="node14" class="node">
<title>Node13</title>
<g id="a_node14"><a xlink:href="../../d2/dd0/Cartesian2D_8h.html" target="_top" xlink:title="MathUtils/Cartesian2D.h">
<polygon fill="none" stroke="#000000" points="1191,-73 1191,-92 1326,-92 1326,-73 1191,-73"/>
<text text-anchor="middle" x="1258.5" y="-80" font-family="Helvetica,sans-Serif" font-size="10.00" fill="#000000">MathUtils/Cartesian2D.h</text>
</a>
</g>
</g>
<!-- Node5&#45;&gt;Node13 -->
<g id="edge14" class="edge">
<title>Node5&#45;&gt;Node13</title>
<path fill="none" stroke="#191970" d="M891.2069,-136.8316C963.5434,-128.8216 1081.4569,-114.7538 1182.5,-98 1189.6239,-96.8188 1197.0981,-95.4523 1204.4632,-94.03"/>
<polygon fill="#191970" stroke="#191970" points="1205.2636,-97.4397 1214.3958,-92.0681 1203.907,-90.5723 1205.2636,-97.4397"/>
</g>
<!-- Node14 -->
<g id="node15" class="node">
<title>Node14</title>
<polygon fill="none" stroke="#bfbfbf" points="1078.5,-.5 1078.5,-30.5 1242.5,-30.5 1242.5,-.5 1078.5,-.5"/>
<text text-anchor="start" x="1086.5" y="-18.5" font-family="Helvetica,sans-Serif" font-size="10.00" fill="#000000">Math/GenVector/Displacement</text>
<text text-anchor="middle" x="1160.5" y="-7.5" font-family="Helvetica,sans-Serif" font-size="10.00" fill="#000000">Vector2D.h</text>
</g>
<!-- Node13&#45;&gt;Node14 -->
<g id="edge15" class="edge">
<title>Node13&#45;&gt;Node14</title>
<path fill="none" stroke="#191970" d="M1244.459,-72.9005C1230.5412,-63.3853 1208.772,-48.5023 1190.888,-36.2755"/>
<polygon fill="#191970" stroke="#191970" points="1192.7026,-33.2763 1182.4721,-30.5218 1188.7519,-39.0549 1192.7026,-33.2763"/>
</g>
<!-- Node15 -->
<g id="node16" class="node">
<title>Node15</title>
<polygon fill="none" stroke="#bfbfbf" points="1261,-6 1261,-25 1450,-25 1450,-6 1261,-6"/>
<text text-anchor="middle" x="1355.5" y="-13" font-family="Helvetica,sans-Serif" font-size="10.00" fill="#000000">Math/GenVector/PositionVector2D.h</text>
</g>
<!-- Node13&#45;&gt;Node15 -->
<g id="edge16" class="edge">
<title>Node13&#45;&gt;Node15</title>
<path fill="none" stroke="#191970" d="M1272.3977,-72.9005C1288.3164,-61.9052 1314.6121,-43.7422 1333.3599,-30.7927"/>
<polygon fill="#191970" stroke="#191970" points="1335.3892,-33.6448 1341.628,-25.0817 1331.4108,-27.8852 1335.3892,-33.6448"/>
</g>
<!-- Node17 -->
<g id="node18" class="node">
<title>Node17</title>
<g id="a_node18"><a xlink:href="../../de/d61/ShmManager_8h.html" target="_top" xlink:title="CommonUtils/ShmManager.h">
<polygon fill="none" stroke="#000000" points="1281.5,-134.5 1281.5,-153.5 1439.5,-153.5 1439.5,-134.5 1281.5,-134.5"/>
<text text-anchor="middle" x="1360.5" y="-141.5" font-family="Helvetica,sans-Serif" font-size="10.00" fill="#000000">CommonUtils/ShmManager.h</text>
</a>
</g>
</g>
<!-- Node16&#45;&gt;Node17 -->
<g id="edge18" class="edge">
<title>Node16&#45;&gt;Node17</title>
<path fill="none" stroke="#191970" d="M1267.6875,-195.8906C1285.6082,-185.8713 1313.9095,-170.0483 1334.5523,-158.5071"/>
<polygon fill="#191970" stroke="#191970" points="1336.4128,-161.4769 1343.4332,-153.5419 1332.9967,-155.367 1336.4128,-161.4769"/>
</g>
<!-- Node22 -->
<g id="node23" class="node">
<title>Node22</title>
<polygon fill="none" stroke="#bfbfbf" points="1457.5,-134.5 1457.5,-153.5 1509.5,-153.5 1509.5,-134.5 1457.5,-134.5"/>
<text text-anchor="middle" x="1483.5" y="-141.5" font-family="Helvetica,sans-Serif" font-size="10.00" fill="#000000">cassert</text>
</g>
<!-- Node16&#45;&gt;Node22 -->
<g id="edge23" class="edge">
<title>Node16&#45;&gt;Node22</title>
<path fill="none" stroke="#191970" d="M1288.1605,-195.9889C1326.0208,-186.3643 1386.3036,-170.8686 1447.3455,-154.2745"/>
<polygon fill="#191970" stroke="#191970" points="1448.4184,-157.6098 1457.1455,-151.6026 1446.577,-150.8564 1448.4184,-157.6098"/>
</g>
<!-- Node18 -->
<g id="node19" class="node">
<title>Node18</title>
<polygon fill="none" stroke="#bfbfbf" points="1344.5,-73 1344.5,-92 1376.5,-92 1376.5,-73 1344.5,-73"/>
<text text-anchor="middle" x="1360.5" y="-80" font-family="Helvetica,sans-Serif" font-size="10.00" fill="#000000">list</text>
</g>
<!-- Node17&#45;&gt;Node18 -->
<g id="edge19" class="edge">
<title>Node17&#45;&gt;Node18</title>
<path fill="none" stroke="#191970" d="M1360.5,-134.3906C1360.5,-125.8657 1360.5,-113.1392 1360.5,-102.4235"/>
<polygon fill="#191970" stroke="#191970" points="1364.0001,-102.2448 1360.5,-92.2449 1357.0001,-102.2449 1364.0001,-102.2448"/>
</g>
<!-- Node19 -->
<g id="node20" class="node">
<title>Node19</title>
<polygon fill="none" stroke="#bfbfbf" points="1395,-73 1395,-92 1448,-92 1448,-73 1395,-73"/>
<text text-anchor="middle" x="1421.5" y="-80" font-family="Helvetica,sans-Serif" font-size="10.00" fill="#000000">cstddef</text>
</g>
<!-- Node17&#45;&gt;Node19 -->
<g id="edge20" class="edge">
<title>Node17&#45;&gt;Node19</title>
<path fill="none" stroke="#191970" d="M1370.0313,-134.3906C1379.2879,-125.0581 1393.539,-110.6902 1404.7003,-99.4374"/>
<polygon fill="#191970" stroke="#191970" points="1407.2772,-101.8095 1411.8344,-92.2449 1402.3072,-96.88 1407.2772,-101.8095"/>
</g>
<!-- Node20 -->
<g id="node21" class="node">
<title>Node20</title>
<polygon fill="none" stroke="#bfbfbf" points="1466,-67.5 1466,-97.5 1631,-97.5 1631,-67.5 1466,-67.5"/>
<text text-anchor="start" x="1474" y="-85.5" font-family="Helvetica,sans-Serif" font-size="10.00" fill="#000000">boost/interprocess</text>
<text text-anchor="middle" x="1548.5" y="-74.5" font-family="Helvetica,sans-Serif" font-size="10.00" fill="#000000">/managed_external_buffer.hpp</text>
</g>
<!-- Node17&#45;&gt;Node20 -->
<g id="edge21" class="edge">
<title>Node17&#45;&gt;Node20</title>
<path fill="none" stroke="#191970" d="M1389.875,-134.3906C1417.321,-125.4123 1459.0135,-111.7735 1492.7676,-100.7316"/>
<polygon fill="#191970" stroke="#191970" points="1494.0939,-103.9803 1502.51,-97.5446 1491.9174,-97.3273 1494.0939,-103.9803"/>
</g>
<!-- Node21 -->
<g id="node22" class="node">
<title>Node21</title>
<polygon fill="none" stroke="#bfbfbf" points="1649.5,-67.5 1649.5,-97.5 1783.5,-97.5 1783.5,-67.5 1649.5,-67.5"/>
<text text-anchor="start" x="1657.5" y="-85.5" font-family="Helvetica,sans-Serif" font-size="10.00" fill="#000000">boost/interprocess</text>
<text text-anchor="middle" x="1716.5" y="-74.5" font-family="Helvetica,sans-Serif" font-size="10.00" fill="#000000">/allocators/allocator.hpp</text>
</g>
<!-- Node17&#45;&gt;Node21 -->
<g id="edge22" class="edge">
<title>Node17&#45;&gt;Node21</title>
<path fill="none" stroke="#191970" d="M1422.6196,-134.4945C1477.108,-125.9974 1558.7354,-112.8844 1639.0894,-98.2218"/>
<polygon fill="#191970" stroke="#191970" points="1640.186,-101.5791 1649.3904,-96.3322 1638.923,-94.694 1640.186,-101.5791"/>
</g>
<!-- Node23&#45;&gt;Node3 -->
<g id="edge36" class="edge">
<title>Node23&#45;&gt;Node3</title>
<path fill="none" stroke="#191970" d="M1036.3734,-391.3977C1011.8327,-383.0971 976.6076,-370.0786 947.5,-355 909.226,-335.173 868.2178,-306.1847 844.2661,-288.3739"/>
<polygon fill="#191970" stroke="#191970" points="846.0605,-285.3445 835.9627,-282.1375 841.8567,-290.9416 846.0605,-285.3445"/>
</g>
<!-- Node24 -->
<g id="node25" class="node">
<title>Node24</title>
<g id="a_node25"><a xlink:href="../../d5/d34/Detectors_2CPV_2base_2include_2CPVBase_2Digit_8h.html" target="_top" xlink:title="CPVBase/Digit.h">
<polygon fill="none" stroke="#000000" points="956,-330 956,-349 1051,-349 1051,-330 956,-330"/>
<text text-anchor="middle" x="1003.5" y="-337" font-family="Helvetica,sans-Serif" font-size="10.00" fill="#000000">CPVBase/Digit.h</text>
</a>
</g>
</g>
<!-- Node23&#45;&gt;Node24 -->
<g id="edge25" class="edge">
<title>Node23&#45;&gt;Node24</title>
<path fill="none" stroke="#191970" d="M1056.6563,-391.3906C1047.0961,-382.0581 1032.3777,-367.6902 1020.8505,-356.4374"/>
<polygon fill="#191970" stroke="#191970" points="1023.0832,-353.7257 1013.4825,-349.2449 1018.1934,-358.7348 1023.0832,-353.7257"/>
</g>
<!-- Node27 -->
<g id="node28" class="node">
<title>Node27</title>
<g id="a_node28"><a xlink:href="../../d7/dcd/MCCompLabel_8h.html" target="_top" xlink:title="SimulationDataFormat\l/MCCompLabel.h">
<polygon fill="none" stroke="#000000" points="1090,-257.5 1090,-287.5 1217,-287.5 1217,-257.5 1090,-257.5"/>
<text text-anchor="start" x="1098" y="-275.5" font-family="Helvetica,sans-Serif" font-size="10.00" fill="#000000">SimulationDataFormat</text>
<text text-anchor="middle" x="1153.5" y="-264.5" font-family="Helvetica,sans-Serif" font-size="10.00" fill="#000000">/MCCompLabel.h</text>
</a>
</g>
</g>
<!-- Node23&#45;&gt;Node27 -->
<g id="edge37" class="edge">
<title>Node23&#45;&gt;Node27</title>
<path fill="none" stroke="#191970" d="M1073.0391,-391.3416C1086.5892,-371.328 1118.0775,-324.8194 1137.4,-296.2799"/>
<polygon fill="#191970" stroke="#191970" points="1140.4997,-297.9445 1143.2079,-287.7016 1134.7032,-294.02 1140.4997,-297.9445"/>
</g>
<!-- Node28 -->
<g id="node29" class="node">
<title>Node28</title>
<g id="a_node29"><a xlink:href="../../de/ddd/CPV_2base_2include_2CPVBase_2Geometry_8h.html" target="_top" xlink:title="CPVBase/Geometry.h">
<polygon fill="none" stroke="#000000" points="1992,-330 1992,-349 2111,-349 2111,-330 1992,-330"/>
<text text-anchor="middle" x="2051.5" y="-337" font-family="Helvetica,sans-Serif" font-size="10.00" fill="#000000">CPVBase/Geometry.h</text>
</a>
</g>
</g>
<!-- Node23&#45;&gt;Node28 -->
<g id="edge32" class="edge">
<title>Node23&#45;&gt;Node28</title>
<path fill="none" stroke="#191970" d="M1137.3388,-396.5771C1319.1878,-385.223 1800.8479,-355.1498 1981.6286,-343.8625"/>
<polygon fill="#191970" stroke="#191970" points="1982.0499,-347.3431 1991.8124,-343.2267 1981.6137,-340.3567 1982.0499,-347.3431"/>
</g>
<!-- Node32 -->
<g id="node33" class="node">
<title>Node32</title>
<g id="a_node33"><a xlink:href="../../db/d14/MCTruthContainer_8h.html" target="_top" xlink:title="Definition of a container to keep Monte Carlo truth external to simulation objects. ">
<polygon fill="none" stroke="#000000" points="1547,-324.5 1547,-354.5 1674,-354.5 1674,-324.5 1547,-324.5"/>
<text text-anchor="start" x="1555" y="-342.5" font-family="Helvetica,sans-Serif" font-size="10.00" fill="#000000">SimulationDataFormat</text>
<text text-anchor="middle" x="1610.5" y="-331.5" font-family="Helvetica,sans-Serif" font-size="10.00" fill="#000000">/MCTruthContainer.h</text>
</a>
</g>
</g>
<!-- Node23&#45;&gt;Node32 -->
<g id="edge38" class="edge">
<title>Node23&#45;&gt;Node32</title>
<path fill="none" stroke="#191970" d="M1137.0608,-393.023C1240.2811,-381.3538 1431.5529,-359.7302 1536.6228,-347.8519"/>
<polygon fill="#191970" stroke="#191970" points="1537.2825,-351.2997 1546.826,-346.6984 1536.4961,-344.344 1537.2825,-351.2997"/>
</g>
<!-- Node24&#45;&gt;Node3 -->
<g id="edge31" class="edge">
<title>Node24&#45;&gt;Node3</title>
<path fill="none" stroke="#191970" d="M977.7104,-329.9005C946.5667,-318.3082 894.0185,-298.7486 859.0469,-285.7313"/>
<polygon fill="#191970" stroke="#191970" points="859.8346,-282.29 849.2418,-282.0817 857.3926,-288.8503 859.8346,-282.29"/>
</g>
<!-- Node25 -->
<g id="node26" class="node">
<title>Node25</title>
<g id="a_node26"><a xlink:href="../../df/d5d/common_2include_2CommonDataFormat_2TimeStamp_8h.html" target="_top" xlink:title="CommonDataFormat/TimeStamp.h">
<polygon fill="none" stroke="#000000" points="885,-263 885,-282 1072,-282 1072,-263 885,-263"/>
<text text-anchor="middle" x="978.5" y="-270" font-family="Helvetica,sans-Serif" font-size="10.00" fill="#000000">CommonDataFormat/TimeStamp.h</text>
</a>
</g>
</g>
<!-- Node24&#45;&gt;Node25 -->
<g id="edge26" class="edge">
<title>Node24&#45;&gt;Node25</title>
<path fill="none" stroke="#191970" d="M999.9181,-329.9005C996.2052,-319.95 990.302,-304.1292 985.6324,-291.6147"/>
<polygon fill="#191970" stroke="#191970" points="988.8504,-290.2271 982.0752,-282.0817 982.2921,-292.6743 988.8504,-290.2271"/>
</g>
<!-- Node24&#45;&gt;Node27 -->
<g id="edge29" class="edge">
<title>Node24&#45;&gt;Node27</title>
<path fill="none" stroke="#191970" d="M1024.9913,-329.9005C1047.2623,-319.9528 1082.6682,-304.1382 1110.6819,-291.6254"/>
<polygon fill="#191970" stroke="#191970" points="1112.166,-294.7958 1119.8692,-287.5218 1109.3112,-288.4044 1112.166,-294.7958"/>
</g>
<!-- Node26 -->
<g id="node27" class="node">
<title>Node26</title>
<g id="a_node27"><a xlink:href="../../d2/d45/GPUCommonRtypes_8h.html" target="_top" xlink:title="GPUCommonRtypes.h">
<polygon fill="none" stroke="#000000" points="916,-196 916,-215 1041,-215 1041,-196 916,-196"/>
<text text-anchor="middle" x="978.5" y="-203" font-family="Helvetica,sans-Serif" font-size="10.00" fill="#000000">GPUCommonRtypes.h</text>
</a>
</g>
</g>
<!-- Node25&#45;&gt;Node26 -->
<g id="edge27" class="edge">
<title>Node25&#45;&gt;Node26</title>
<path fill="none" stroke="#191970" d="M978.5,-262.9005C978.5,-253.149 978.5,-237.7597 978.5,-225.3695"/>
<polygon fill="#191970" stroke="#191970" points="982.0001,-225.0816 978.5,-215.0817 975.0001,-225.0817 982.0001,-225.0816"/>
</g>
<!-- Node26&#45;&gt;Node2 -->
<g id="edge28" class="edge">
<title>Node26&#45;&gt;Node2</title>
<path fill="none" stroke="#191970" d="M929.8033,-195.9838C872.1991,-184.5004 779.9077,-165.3273 746.5,-154 726.539,-147.232 723.9427,-139.1327 703.5,-134 429.3342,-65.1631 344.5178,-158.9881 68.5,-98 65.632,-97.3663 62.7002,-96.5478 59.7958,-95.6185"/>
<polygon fill="#191970" stroke="#191970" points="60.7533,-92.2431 50.159,-92.1391 58.3761,-98.8271 60.7533,-92.2431"/>
</g>
<!-- Node27&#45;&gt;Node26 -->
<g id="edge30" class="edge">
<title>Node27&#45;&gt;Node26</title>
<path fill="none" stroke="#191970" d="M1114.2266,-257.4639C1083.7152,-245.7824 1041.8263,-229.7449 1012.686,-218.5884"/>
<polygon fill="#191970" stroke="#191970" points="1013.9176,-215.3122 1003.3272,-215.0053 1011.4148,-221.8495 1013.9176,-215.3122"/>
</g>
<!-- Node29 -->
<g id="node30" class="node">
<title>Node29</title>
<polygon fill="none" stroke="#bfbfbf" points="1988.5,-263 1988.5,-282 2032.5,-282 2032.5,-263 1988.5,-263"/>
<text text-anchor="middle" x="2010.5" y="-270" font-family="Helvetica,sans-Serif" font-size="10.00" fill="#000000">string</text>
</g>
<!-- Node28&#45;&gt;Node29 -->
<g id="edge33" class="edge">
<title>Node28&#45;&gt;Node29</title>
<path fill="none" stroke="#191970" d="M2045.6257,-329.9005C2039.4148,-319.751 2029.4665,-303.4941 2021.7401,-290.8679"/>
<polygon fill="#191970" stroke="#191970" points="2024.5685,-288.7844 2016.3634,-282.0817 2018.5977,-292.4382 2024.5685,-288.7844"/>
</g>
<!-- Node30 -->
<g id="node31" class="node">
<title>Node30</title>
<polygon fill="none" stroke="#bfbfbf" points="2050.5,-263 2050.5,-282 2134.5,-282 2134.5,-263 2050.5,-263"/>
<text text-anchor="middle" x="2092.5" y="-270" font-family="Helvetica,sans-Serif" font-size="10.00" fill="#000000">RStringView.h</text>
</g>
<!-- Node28&#45;&gt;Node30 -->
<g id="edge34" class="edge">
<title>Node28&#45;&gt;Node30</title>
<path fill="none" stroke="#191970" d="M2057.3743,-329.9005C2063.5852,-319.751 2073.5335,-303.4941 2081.2599,-290.8679"/>
<polygon fill="#191970" stroke="#191970" points="2084.4023,-292.4382 2086.6366,-282.0817 2078.4315,-288.7844 2084.4023,-292.4382"/>
</g>
<!-- Node31 -->
<g id="node32" class="node">
<title>Node31</title>
<polygon fill="none" stroke="#bfbfbf" points="2152.5,-263 2152.5,-282 2208.5,-282 2208.5,-263 2152.5,-263"/>
<text text-anchor="middle" x="2180.5" y="-270" font-family="Helvetica,sans-Serif" font-size="10.00" fill="#000000">TMath.h</text>
</g>
<!-- Node28&#45;&gt;Node31 -->
<g id="edge35" class="edge">
<title>Node28&#45;&gt;Node31</title>
<path fill="none" stroke="#191970" d="M2069.9826,-329.9005C2091.7275,-318.6067 2128.0323,-299.7506 2153.064,-286.7497"/>
<polygon fill="#191970" stroke="#191970" points="2154.7905,-289.797 2162.0517,-282.0817 2151.5641,-283.5849 2154.7905,-289.797"/>
</g>
<!-- Node32&#45;&gt;Node22 -->
<g id="edge41" class="edge">
<title>Node32&#45;&gt;Node22</title>
<path fill="none" stroke="#191970" d="M1546.9525,-334.1896C1485.6878,-327.5958 1399.2852,-313.9051 1378.5,-288 1341.8802,-242.3598 1416.6728,-185.5633 1458.2493,-159.0033"/>
<polygon fill="#191970" stroke="#191970" points="1460.1777,-161.9255 1466.8077,-153.6614 1456.4713,-155.9872 1460.1777,-161.9255"/>
</g>
<!-- Node33 -->
<g id="node34" class="node">
<title>Node33</title>
<polygon fill="none" stroke="#bfbfbf" points="1387,-263 1387,-282 1454,-282 1454,-263 1387,-263"/>
<text text-anchor="middle" x="1420.5" y="-270" font-family="Helvetica,sans-Serif" font-size="10.00" fill="#000000">TNamed.h</text>
</g>
<!-- Node32&#45;&gt;Node33 -->
<g id="edge39" class="edge">
<title>Node32&#45;&gt;Node33</title>
<path fill="none" stroke="#191970" d="M1567.0466,-324.3915C1537.764,-314.1818 1498.2807,-300.3609 1463.5,-288 1461.2288,-287.1928 1458.8911,-286.359 1456.5349,-285.5161"/>
<polygon fill="#191970" stroke="#191970" points="1457.4601,-282.1297 1446.8656,-282.0462 1455.0956,-288.7183 1457.4601,-282.1297"/>
</g>
<!-- Node34 -->
<g id="node35" class="node">
<title>Node34</title>
<polygon fill="none" stroke="#bfbfbf" points="1472.5,-263 1472.5,-282 1522.5,-282 1522.5,-263 1472.5,-263"/>
<text text-anchor="middle" x="1497.5" y="-270" font-family="Helvetica,sans-Serif" font-size="10.00" fill="#000000">cstdint</text>
</g>
<!-- Node32&#45;&gt;Node34 -->
<g id="edge40" class="edge">
<title>Node32&#45;&gt;Node34</title>
<path fill="none" stroke="#191970" d="M1585.1406,-324.4639C1566.4369,-313.3741 1541.1119,-298.3584 1522.495,-287.32"/>
<polygon fill="#191970" stroke="#191970" points="1524.0844,-284.1935 1513.6977,-282.1039 1520.5143,-290.2147 1524.0844,-284.1935"/>
</g>
<!-- Node35 -->
<g id="node36" class="node">
<title>Node35</title>
<polygon fill="none" stroke="#bfbfbf" points="1541,-263 1541,-282 1606,-282 1606,-263 1541,-263"/>
<text text-anchor="middle" x="1573.5" y="-270" font-family="Helvetica,sans-Serif" font-size="10.00" fill="#000000">stdexcept</text>
</g>
<!-- Node32&#45;&gt;Node35 -->
<g id="edge42" class="edge">
<title>Node32&#45;&gt;Node35</title>
<path fill="none" stroke="#191970" d="M1602.1041,-324.2967C1596.6192,-314.3645 1589.4249,-301.3371 1583.6237,-290.8321"/>
<polygon fill="#191970" stroke="#191970" points="1586.6748,-289.1169 1578.7766,-282.055 1580.547,-292.5009 1586.6748,-289.1169"/>
</g>
<!-- Node36 -->
<g id="node37" class="node">
<title>Node36</title>
<polygon fill="none" stroke="#bfbfbf" points="1624.5,-263 1624.5,-282 1672.5,-282 1672.5,-263 1624.5,-263"/>
<text text-anchor="middle" x="1648.5" y="-270" font-family="Helvetica,sans-Serif" font-size="10.00" fill="#000000">gsl/gsl</text>
</g>
<!-- Node32&#45;&gt;Node36 -->
<g id="edge43" class="edge">
<title>Node32&#45;&gt;Node36</title>
<path fill="none" stroke="#191970" d="M1619.1228,-324.2967C1624.756,-314.3645 1632.1447,-301.3371 1638.1027,-290.8321"/>
<polygon fill="#191970" stroke="#191970" points="1641.1917,-292.4801 1643.0808,-282.055 1635.1029,-289.0266 1641.1917,-292.4801"/>
</g>
<!-- Node37 -->
<g id="node38" class="node">
<title>Node37</title>
<polygon fill="none" stroke="#bfbfbf" points="1691,-263 1691,-282 1760,-282 1760,-263 1691,-263"/>
<text text-anchor="middle" x="1725.5" y="-270" font-family="Helvetica,sans-Serif" font-size="10.00" fill="#000000">type_traits</text>
</g>
<!-- Node32&#45;&gt;Node37 -->
<g id="edge44" class="edge">
<title>Node32&#45;&gt;Node37</title>
<path fill="none" stroke="#191970" d="M1636.3082,-324.4639C1655.4299,-313.3234 1681.3517,-298.2212 1700.3218,-287.1691"/>
<polygon fill="#191970" stroke="#191970" points="1702.1371,-290.1622 1709.0157,-282.1039 1698.6132,-284.1138 1702.1371,-290.1622"/>
</g>
<!-- Node38 -->
<g id="node39" class="node">
<title>Node38</title>
<polygon fill="none" stroke="#bfbfbf" points="1778.5,-263 1778.5,-282 1828.5,-282 1828.5,-263 1778.5,-263"/>
<text text-anchor="middle" x="1803.5" y="-270" font-family="Helvetica,sans-Serif" font-size="10.00" fill="#000000">cstring</text>
</g>
<!-- Node32&#45;&gt;Node38 -->
<g id="edge45" class="edge">
<title>Node32&#45;&gt;Node38</title>
<path fill="none" stroke="#191970" d="M1661.8626,-324.4989C1693.2633,-314.9256 1734.068,-301.7626 1769.5,-288 1771.0798,-287.3864 1772.6912,-286.7366 1774.3114,-286.0643"/>
<polygon fill="#191970" stroke="#191970" points="1775.7466,-289.2569 1783.5268,-282.0653 1772.96,-282.8355 1775.7466,-289.2569"/>
</g>
<!-- Node39 -->
<g id="node40" class="node">
<title>Node39</title>
<polygon fill="none" stroke="#bfbfbf" points="1846.5,-263 1846.5,-282 1904.5,-282 1904.5,-263 1846.5,-263"/>
<text text-anchor="middle" x="1875.5" y="-270" font-family="Helvetica,sans-Serif" font-size="10.00" fill="#000000">memory</text>
</g>
<!-- Node32&#45;&gt;Node39 -->
<g id="edge46" class="edge">
<title>Node32&#45;&gt;Node39</title>
<path fill="none" stroke="#191970" d="M1674.3568,-327.9283C1720.2593,-318.9069 1783.346,-305.0605 1837.5,-288 1839.6534,-287.3216 1841.8559,-286.5737 1844.0624,-285.7838"/>
<polygon fill="#191970" stroke="#191970" points="1845.5251,-288.9719 1853.6214,-282.1381 1843.0306,-282.4315 1845.5251,-288.9719"/>
</g>
<!-- Node40 -->
<g id="node41" class="node">
<title>Node40</title>
<polygon fill="none" stroke="#bfbfbf" points="1923,-263 1923,-282 1970,-282 1970,-263 1923,-263"/>
<text text-anchor="middle" x="1946.5" y="-270" font-family="Helvetica,sans-Serif" font-size="10.00" fill="#000000">vector</text>
</g>
<!-- Node32&#45;&gt;Node40 -->
<g id="edge47" class="edge">
<title>Node32&#45;&gt;Node40</title>
<path fill="none" stroke="#191970" d="M1674.0512,-333.7546C1736.1829,-326.966 1832.9252,-313.2549 1913.5,-288 1915.3573,-287.4179 1917.2445,-286.7519 1919.1277,-286.0308"/>
<polygon fill="#191970" stroke="#191970" points="1920.5272,-289.239 1928.3525,-282.0964 1917.7811,-282.8001 1920.5272,-289.239"/>
</g>
</g>
</svg>
        <g id="navigator" transform="translate(0 0)" fill="#404254">
                <rect fill="#f2f5e9" fill-opacity="0.5" stroke="#606060" stroke-width=".5" x="0" y="0" width="60" height="60"/>
                <use id="zoomplus" xlink:href="#zoomPlus" x="17" y="9" onmousedown="handleZoom(evt,'in')"/>
                <use id="zoomminus" xlink:href="#zoomMin" x="42" y="9" onmousedown="handleZoom(evt,'out')"/>
                <use id="reset" xlink:href="#resetDef" x="30" y="36" onmousedown="handleReset()"/>
                <g id="arrowUp" xlink:href="#dirArrow" transform="translate(30 24)" onmousedown="handlePan(0,-1)">
                  <use xlink:href="#rim" fill="#404040">
                        <set attributeName="fill" to="#808080" begin="arrowUp.mouseover" end="arrowUp.mouseout"/>
                  </use>
                  <path fill="none" stroke="white" stroke-width="1.5" d="M0,-3.0v7 M-2.5,-0.5L0,-3.0L2.5,-0.5"/>
                </g>
                <g id="arrowRight" xlink:href="#dirArrow" transform="rotate(90) translate(36 -43)" onmousedown="handlePan(1,0)">
                  <use xlink:href="#rim" fill="#404040">
                        <set attributeName="fill" to="#808080" begin="arrowRight.mouseover" end="arrowRight.mouseout"/>
                  </use>
                  <path fill="none" stroke="white" stroke-width="1.5" d="M0,-3.0v7 M-2.5,-0.5L0,-3.0L2.5,-0.5"/>
                </g>
                <g id="arrowDown" xlink:href="#dirArrow" transform="rotate(180) translate(-30 -48)" onmousedown="handlePan(0,1)">
                  <use xlink:href="#rim" fill="#404040">
                        <set attributeName="fill" to="#808080" begin="arrowDown.mouseover" end="arrowDown.mouseout"/>
                  </use>
                  <path fill="none" stroke="white" stroke-width="1.5" d="M0,-3.0v7 M-2.5,-0.5L0,-3.0L2.5,-0.5"/>
                </g>
                <g id="arrowLeft" xlink:href="#dirArrow" transform="rotate(270) translate(-36 17)" onmousedown="handlePan(-1,0)">
                  <use xlink:href="#rim" fill="#404040">
                        <set attributeName="fill" to="#808080" begin="arrowLeft.mouseover" end="arrowLeft.mouseout"/>
                  </use>
                  <path fill="none" stroke="white" stroke-width="1.5" d="M0,-3.0v7 M-2.5,-0.5L0,-3.0L2.5,-0.5"/>
                </g>
        </g>
        <svg viewBox="0 0 15 15" width="100%" height="30px" preserveAspectRatio="xMaxYMin meet">
         <g id="arrow_out" transform="scale(0.3 0.3)">
          <a xlink:href="CPV_2simulation_2include_2CPVSimulation_2DigitizerTask_8h__incl_org.svg" target="_base">
           <rect id="button" ry="5" rx="5" y="6" x="6" height="38" width="38"
                fill="#f2f5e9" fill-opacity="0.5" stroke="#606060" stroke-width="1.0"/>
           <path id="arrow"
             d="M 11.500037,31.436501 C 11.940474,20.09759 22.043105,11.32322 32.158766,21.979434 L 37.068811,17.246167 C 37.068811,17.246167 37.088388,32 37.088388,32 L 22.160133,31.978069 C 22.160133,31.978069 26.997745,27.140456 26.997745,27.140456 C 18.528582,18.264221 13.291696,25.230495 11.500037,31.436501 z"
             style="fill:#404040;"/>
          </a>
         </g>
        </svg>
</svg>
