<?xml version="1.0" encoding="UTF-8" standalone="no"?>
<!DOCTYPE svg PUBLIC "-//W3C//DTD SVG 1.1//EN"
 "http://www.w3.org/Graphics/SVG/1.1/DTD/svg11.dtd">
<!-- Generated by graphviz version 2.40.1 (20161225.0304)
 -->
<!-- Title: /home/travis/build/AliceO2Group/AliceO2/Detectors/MUON/MCH/Raw/Common/include/MCHRawCommon/SampaHeader.h Pages: 1 -->
<svg width="1431pt" height="528pt"
 viewBox="0.00 0.00 1431.00 528.00" xmlns="http://www.w3.org/2000/svg" xmlns:xlink="http://www.w3.org/1999/xlink">
<g id="graph0" class="graph" transform="scale(1 1) rotate(0) translate(4 524)">
<title>/home/travis/build/AliceO2Group/AliceO2/Detectors/MUON/MCH/Raw/Common/include/MCHRawCommon/SampaHeader.h</title>
<!-- Node3 -->
<g id="node1" class="node">
<title>Node3</title>
<polygon fill="#bfbfbf" stroke="#000000" points="621,-456.5 621,-519.5 814,-519.5 814,-456.5 621,-456.5"/>
<text text-anchor="start" x="629" y="-507.5" font-family="Helvetica,sans-Serif" font-size="10.00" fill="#000000">/home/travis/build</text>
<text text-anchor="start" x="629" y="-496.5" font-family="Helvetica,sans-Serif" font-size="10.00" fill="#000000">/AliceO2Group/AliceO2</text>
<text text-anchor="start" x="629" y="-485.5" font-family="Helvetica,sans-Serif" font-size="10.00" fill="#000000">/Detectors/MUON/MCH/Raw</text>
<text text-anchor="start" x="629" y="-474.5" font-family="Helvetica,sans-Serif" font-size="10.00" fill="#000000">/Common/include/MCHRawCommon</text>
<text text-anchor="middle" x="717.5" y="-463.5" font-family="Helvetica,sans-Serif" font-size="10.00" fill="#000000">/SampaHeader.h</text>
</g>
<!-- Node4 -->
<g id="node2" class="node">
<title>Node4</title>
<g id="a_node2"><a xlink:href="../../d1/d5b/SampaHeader_8cxx.html" target="_top" xlink:title="/home/travis/build\l/AliceO2Group/AliceO2\l/Detectors/MUON/MCH/Raw\l/Common/src/SampaHeader.cxx">
<polygon fill="none" stroke="#000000" points="0,-367.5 0,-419.5 173,-419.5 173,-367.5 0,-367.5"/>
<text text-anchor="start" x="8" y="-407.5" font-family="Helvetica,sans-Serif" font-size="10.00" fill="#000000">/home/travis/build</text>
<text text-anchor="start" x="8" y="-396.5" font-family="Helvetica,sans-Serif" font-size="10.00" fill="#000000">/AliceO2Group/AliceO2</text>
<text text-anchor="start" x="8" y="-385.5" font-family="Helvetica,sans-Serif" font-size="10.00" fill="#000000">/Detectors/MUON/MCH/Raw</text>
<text text-anchor="middle" x="86.5" y="-374.5" font-family="Helvetica,sans-Serif" font-size="10.00" fill="#000000">/Common/src/SampaHeader.cxx</text>
</a>
</g>
</g>
<!-- Node3&#45;&gt;Node4 -->
<g id="edge1" class="edge">
<title>Node3&#45;&gt;Node4</title>
<path fill="none" stroke="#191970" d="M610.6919,-478.9564C502.1795,-468.7098 329.6104,-449.4961 182.5,-420 179.4485,-419.3882 176.3516,-418.7314 173.2306,-418.0389"/>
<polygon fill="#191970" stroke="#191970" points="610.382,-482.4426 620.6647,-479.8898 611.0344,-475.473 610.382,-482.4426"/>
</g>
<!-- Node5 -->
<g id="node3" class="node">
<title>Node5</title>
<g id="a_node3"><a xlink:href="../../d7/df6/benchSampaHeader_8cxx.html" target="_top" xlink:title="/home/travis/build\l/AliceO2Group/AliceO2\l/Detectors/MUON/MCH/Raw\l/Common/test/benchSampaHeader.cxx">
<polygon fill="none" stroke="#000000" points="191.5,-367.5 191.5,-419.5 397.5,-419.5 397.5,-367.5 191.5,-367.5"/>
<text text-anchor="start" x="199.5" y="-407.5" font-family="Helvetica,sans-Serif" font-size="10.00" fill="#000000">/home/travis/build</text>
<text text-anchor="start" x="199.5" y="-396.5" font-family="Helvetica,sans-Serif" font-size="10.00" fill="#000000">/AliceO2Group/AliceO2</text>
<text text-anchor="start" x="199.5" y="-385.5" font-family="Helvetica,sans-Serif" font-size="10.00" fill="#000000">/Detectors/MUON/MCH/Raw</text>
<text text-anchor="middle" x="294.5" y="-374.5" font-family="Helvetica,sans-Serif" font-size="10.00" fill="#000000">/Common/test/benchSampaHeader.cxx</text>
</a>
</g>
</g>
<!-- Node3&#45;&gt;Node5 -->
<g id="edge2" class="edge">
<title>Node3&#45;&gt;Node5</title>
<path fill="none" stroke="#191970" d="M610.8664,-465.1554C550.7855,-452.1659 474.3944,-435.4535 406.5,-420 403.5775,-419.3348 400.6131,-418.6566 397.6215,-417.9692"/>
<polygon fill="#191970" stroke="#191970" points="610.2311,-468.5988 620.7447,-467.2893 611.7092,-461.7566 610.2311,-468.5988"/>
</g>
<!-- Node6 -->
<g id="node4" class="node">
<title>Node6</title>
<g id="a_node4"><a xlink:href="../../d8/db1/testSampaHeader_8cxx.html" target="_top" xlink:title="/home/travis/build\l/AliceO2Group/AliceO2\l/Detectors/MUON/MCH/Raw\l/Common/test/testSampaHeader.cxx">
<polygon fill="none" stroke="#000000" points="415.5,-367.5 415.5,-419.5 611.5,-419.5 611.5,-367.5 415.5,-367.5"/>
<text text-anchor="start" x="423.5" y="-407.5" font-family="Helvetica,sans-Serif" font-size="10.00" fill="#000000">/home/travis/build</text>
<text text-anchor="start" x="423.5" y="-396.5" font-family="Helvetica,sans-Serif" font-size="10.00" fill="#000000">/AliceO2Group/AliceO2</text>
<text text-anchor="start" x="423.5" y="-385.5" font-family="Helvetica,sans-Serif" font-size="10.00" fill="#000000">/Detectors/MUON/MCH/Raw</text>
<text text-anchor="middle" x="513.5" y="-374.5" font-family="Helvetica,sans-Serif" font-size="10.00" fill="#000000">/Common/test/testSampaHeader.cxx</text>
</a>
</g>
</g>
<!-- Node3&#45;&gt;Node6 -->
<g id="edge3" class="edge">
<title>Node3&#45;&gt;Node6</title>
<path fill="none" stroke="#191970" d="M640.0847,-452.1385C616.7014,-441.3065 591.4851,-429.6254 569.7602,-419.5617"/>
<polygon fill="#191970" stroke="#191970" points="638.7424,-455.374 649.2873,-456.4015 641.6848,-449.0223 638.7424,-455.374"/>
</g>
<!-- Node7 -->
<g id="node5" class="node">
<title>Node7</title>
<g id="a_node5"><a xlink:href="../../d7/ddc/BareElinkDecoder_8h.html" target="_top" xlink:title="/home/travis/build\l/AliceO2Group/AliceO2\l/Detectors/MUON/MCH/Raw\l/Decoder/src/BareElinkDecoder.h">
<polygon fill="none" stroke="#000000" points="629.5,-367.5 629.5,-419.5 805.5,-419.5 805.5,-367.5 629.5,-367.5"/>
<text text-anchor="start" x="637.5" y="-407.5" font-family="Helvetica,sans-Serif" font-size="10.00" fill="#000000">/home/travis/build</text>
<text text-anchor="start" x="637.5" y="-396.5" font-family="Helvetica,sans-Serif" font-size="10.00" fill="#000000">/AliceO2Group/AliceO2</text>
<text text-anchor="start" x="637.5" y="-385.5" font-family="Helvetica,sans-Serif" font-size="10.00" fill="#000000">/Detectors/MUON/MCH/Raw</text>
<text text-anchor="middle" x="717.5" y="-374.5" font-family="Helvetica,sans-Serif" font-size="10.00" fill="#000000">/Decoder/src/BareElinkDecoder.h</text>
</a>
</g>
</g>
<!-- Node3&#45;&gt;Node7 -->
<g id="edge4" class="edge">
<title>Node3&#45;&gt;Node7</title>
<path fill="none" stroke="#191970" d="M717.5,-446.2457C717.5,-437.2008 717.5,-427.8836 717.5,-419.6442"/>
<polygon fill="#191970" stroke="#191970" points="714.0001,-446.2699 717.5,-456.27 721.0001,-446.27 714.0001,-446.2699"/>
</g>
<!-- Node14 -->
<g id="node12" class="node">
<title>Node14</title>
<g id="a_node12"><a xlink:href="../../db/de7/UserLogicElinkDecoder_8h.html" target="_top" xlink:title="/home/travis/build\l/AliceO2Group/AliceO2\l/Detectors/MUON/MCH/Raw\l/Decoder/src/UserLogicElinkDecoder.h">
<polygon fill="none" stroke="#000000" points="1030,-367.5 1030,-419.5 1231,-419.5 1231,-367.5 1030,-367.5"/>
<text text-anchor="start" x="1038" y="-407.5" font-family="Helvetica,sans-Serif" font-size="10.00" fill="#000000">/home/travis/build</text>
<text text-anchor="start" x="1038" y="-396.5" font-family="Helvetica,sans-Serif" font-size="10.00" fill="#000000">/AliceO2Group/AliceO2</text>
<text text-anchor="start" x="1038" y="-385.5" font-family="Helvetica,sans-Serif" font-size="10.00" fill="#000000">/Detectors/MUON/MCH/Raw</text>
<text text-anchor="middle" x="1130.5" y="-374.5" font-family="Helvetica,sans-Serif" font-size="10.00" fill="#000000">/Decoder/src/UserLogicElinkDecoder.h</text>
</a>
</g>
</g>
<!-- Node3&#45;&gt;Node14 -->
<g id="edge13" class="edge">
<title>Node3&#45;&gt;Node14</title>
<path fill="none" stroke="#191970" d="M824.215,-463.7069C881.0226,-450.7604 952.068,-434.5457 1015.5,-420 1020.193,-418.9238 1024.9934,-417.822 1029.8421,-416.7081"/>
<polygon fill="#191970" stroke="#191970" points="823.1137,-460.3681 814.1413,-466.0025 824.6691,-467.1931 823.1137,-460.3681"/>
</g>
<!-- Node16 -->
<g id="node14" class="node">
<title>Node16</title>
<g id="a_node14"><a xlink:href="../../d5/d93/testUserLogicElinkDecoder_8cxx.html" target="_top" xlink:title="/home/travis/build\l/AliceO2Group/AliceO2\l/Detectors/MUON/MCH/Raw\l/Decoder/src/testUserLogicElink\lDecoder.cxx">
<polygon fill="none" stroke="#000000" points="1019,-267.5 1019,-330.5 1190,-330.5 1190,-267.5 1019,-267.5"/>
<text text-anchor="start" x="1027" y="-318.5" font-family="Helvetica,sans-Serif" font-size="10.00" fill="#000000">/home/travis/build</text>
<text text-anchor="start" x="1027" y="-307.5" font-family="Helvetica,sans-Serif" font-size="10.00" fill="#000000">/AliceO2Group/AliceO2</text>
<text text-anchor="start" x="1027" y="-296.5" font-family="Helvetica,sans-Serif" font-size="10.00" fill="#000000">/Detectors/MUON/MCH/Raw</text>
<text text-anchor="start" x="1027" y="-285.5" font-family="Helvetica,sans-Serif" font-size="10.00" fill="#000000">/Decoder/src/testUserLogicElink</text>
<text text-anchor="middle" x="1104.5" y="-274.5" font-family="Helvetica,sans-Serif" font-size="10.00" fill="#000000">Decoder.cxx</text>
</a>
</g>
</g>
<!-- Node3&#45;&gt;Node16 -->
<g id="edge19" class="edge">
<title>Node3&#45;&gt;Node16</title>
<path fill="none" stroke="#191970" d="M823.932,-468.2676C885.6811,-455.3704 956.2958,-437.6897 982.5,-420 1006.7394,-403.6367 1001.3648,-388.2105 1021.5,-367 1033.684,-354.1654 1048.2551,-341.4921 1061.7639,-330.6279"/>
<polygon fill="#191970" stroke="#191970" points="823.1919,-464.8465 814.1059,-470.2957 824.607,-471.702 823.1919,-464.8465"/>
</g>
<!-- Node17 -->
<g id="node15" class="node">
<title>Node17</title>
<g id="a_node15"><a xlink:href="../../d1/d53/DumpBuffer_8h.html" target="_top" xlink:title="/home/travis/build\l/AliceO2Group/AliceO2\l/Detectors/MUON/MCH/Raw\l/ImplHelpers/DumpBuffer.h">
<polygon fill="none" stroke="#000000" points="823.5,-367.5 823.5,-419.5 973.5,-419.5 973.5,-367.5 823.5,-367.5"/>
<text text-anchor="start" x="831.5" y="-407.5" font-family="Helvetica,sans-Serif" font-size="10.00" fill="#000000">/home/travis/build</text>
<text text-anchor="start" x="831.5" y="-396.5" font-family="Helvetica,sans-Serif" font-size="10.00" fill="#000000">/AliceO2Group/AliceO2</text>
<text text-anchor="start" x="831.5" y="-385.5" font-family="Helvetica,sans-Serif" font-size="10.00" fill="#000000">/Detectors/MUON/MCH/Raw</text>
<text text-anchor="middle" x="898.5" y="-374.5" font-family="Helvetica,sans-Serif" font-size="10.00" fill="#000000">/ImplHelpers/DumpBuffer.h</text>
</a>
</g>
</g>
<!-- Node3&#45;&gt;Node17 -->
<g id="edge20" class="edge">
<title>Node3&#45;&gt;Node17</title>
<path fill="none" stroke="#191970" d="M787.0141,-451.7067C807.5275,-440.9967 829.5632,-429.4919 848.5829,-419.5617"/>
<polygon fill="#191970" stroke="#191970" points="785.2667,-448.6707 778.022,-456.4015 788.5065,-454.8759 785.2667,-448.6707"/>
</g>
<!-- Node8 -->
<g id="node6" class="node">
<title>Node8</title>
<g id="a_node6"><a xlink:href="../../da/db7/BareGBTDecoder_8h.html" target="_top" xlink:title="/home/travis/build\l/AliceO2Group/AliceO2\l/Detectors/MUON/MCH/Raw\l/Decoder/src/BareGBTDecoder.h">
<polygon fill="none" stroke="#000000" points="398.5,-273 398.5,-325 570.5,-325 570.5,-273 398.5,-273"/>
<text text-anchor="start" x="406.5" y="-313" font-family="Helvetica,sans-Serif" font-size="10.00" fill="#000000">/home/travis/build</text>
<text text-anchor="start" x="406.5" y="-302" font-family="Helvetica,sans-Serif" font-size="10.00" fill="#000000">/AliceO2Group/AliceO2</text>
<text text-anchor="start" x="406.5" y="-291" font-family="Helvetica,sans-Serif" font-size="10.00" fill="#000000">/Detectors/MUON/MCH/Raw</text>
<text text-anchor="middle" x="484.5" y="-280" font-family="Helvetica,sans-Serif" font-size="10.00" fill="#000000">/Decoder/src/BareGBTDecoder.h</text>
</a>
</g>
</g>
<!-- Node7&#45;&gt;Node8 -->
<g id="edge5" class="edge">
<title>Node7&#45;&gt;Node8</title>
<path fill="none" stroke="#191970" d="M643.9162,-363.6559C613.4463,-351.298 578.4234,-337.0934 548.9794,-325.1515"/>
<polygon fill="#191970" stroke="#191970" points="642.6326,-366.9122 653.2149,-367.4273 645.2636,-360.4254 642.6326,-366.9122"/>
</g>
<!-- Node13 -->
<g id="node11" class="node">
<title>Node13</title>
<g id="a_node11"><a xlink:href="../../d1/d49/testBareElinkDecoder_8cxx.html" target="_top" xlink:title="/home/travis/build\l/AliceO2Group/AliceO2\l/Detectors/MUON/MCH/Raw\l/Decoder/src/testBareElinkDecoder.cxx">
<polygon fill="none" stroke="#000000" points="588.5,-273 588.5,-325 794.5,-325 794.5,-273 588.5,-273"/>
<text text-anchor="start" x="596.5" y="-313" font-family="Helvetica,sans-Serif" font-size="10.00" fill="#000000">/home/travis/build</text>
<text text-anchor="start" x="596.5" y="-302" font-family="Helvetica,sans-Serif" font-size="10.00" fill="#000000">/AliceO2Group/AliceO2</text>
<text text-anchor="start" x="596.5" y="-291" font-family="Helvetica,sans-Serif" font-size="10.00" fill="#000000">/Detectors/MUON/MCH/Raw</text>
<text text-anchor="middle" x="691.5" y="-280" font-family="Helvetica,sans-Serif" font-size="10.00" fill="#000000">/Decoder/src/testBareElinkDecoder.cxx</text>
</a>
</g>
</g>
<!-- Node7&#45;&gt;Node13 -->
<g id="edge12" class="edge">
<title>Node7&#45;&gt;Node13</title>
<path fill="none" stroke="#191970" d="M707.594,-357.4957C704.6499,-346.795 701.4811,-335.2773 698.7403,-325.3157"/>
<polygon fill="#191970" stroke="#191970" points="704.2991,-358.7141 710.3266,-367.4273 711.0483,-356.8571 704.2991,-358.7141"/>
</g>
<!-- Node9 -->
<g id="node7" class="node">
<title>Node9</title>
<g id="a_node7"><a xlink:href="../../d0/da1/PayloadDecoder_8h.html" target="_top" xlink:title="/home/travis/build\l/AliceO2Group/AliceO2\l/Detectors/MUON/MCH/Raw\l/Decoder/src/PayloadDecoder.h">
<polygon fill="none" stroke="#000000" points="739,-178.5 739,-230.5 906,-230.5 906,-178.5 739,-178.5"/>
<text text-anchor="start" x="747" y="-218.5" font-family="Helvetica,sans-Serif" font-size="10.00" fill="#000000">/home/travis/build</text>
<text text-anchor="start" x="747" y="-207.5" font-family="Helvetica,sans-Serif" font-size="10.00" fill="#000000">/AliceO2Group/AliceO2</text>
<text text-anchor="start" x="747" y="-196.5" font-family="Helvetica,sans-Serif" font-size="10.00" fill="#000000">/Detectors/MUON/MCH/Raw</text>
<text text-anchor="middle" x="822.5" y="-185.5" font-family="Helvetica,sans-Serif" font-size="10.00" fill="#000000">/Decoder/src/PayloadDecoder.h</text>
</a>
</g>
</g>
<!-- Node8&#45;&gt;Node9 -->
<g id="edge6" class="edge">
<title>Node8&#45;&gt;Node9</title>
<path fill="none" stroke="#191970" d="M569.8565,-269.9202C573.1069,-268.9172 576.3298,-267.9402 579.5,-267 632.1207,-251.3932 691.8093,-236.0089 738.861,-224.4087"/>
<polygon fill="#191970" stroke="#191970" points="568.5425,-266.6642 560.0485,-272.9969 570.6377,-273.3433 568.5425,-266.6642"/>
</g>
<!-- Node11 -->
<g id="node9" class="node">
<title>Node11</title>
<g id="a_node9"><a xlink:href="../../d0/d6c/MUON_2MCH_2Raw_2Decoder_2src_2Decoder_8cxx.html" target="_top" xlink:title="/home/travis/build\l/AliceO2Group/AliceO2\l/Detectors/MUON/MCH/Raw\l/Decoder/src/Decoder.cxx">
<polygon fill="none" stroke="#000000" points="747.5,-.5 747.5,-52.5 897.5,-52.5 897.5,-.5 747.5,-.5"/>
<text text-anchor="start" x="755.5" y="-40.5" font-family="Helvetica,sans-Serif" font-size="10.00" fill="#000000">/home/travis/build</text>
<text text-anchor="start" x="755.5" y="-29.5" font-family="Helvetica,sans-Serif" font-size="10.00" fill="#000000">/AliceO2Group/AliceO2</text>
<text text-anchor="start" x="755.5" y="-18.5" font-family="Helvetica,sans-Serif" font-size="10.00" fill="#000000">/Detectors/MUON/MCH/Raw</text>
<text text-anchor="middle" x="822.5" y="-7.5" font-family="Helvetica,sans-Serif" font-size="10.00" fill="#000000">/Decoder/src/Decoder.cxx</text>
</a>
</g>
</g>
<!-- Node8&#45;&gt;Node11 -->
<g id="edge10" class="edge">
<title>Node8&#45;&gt;Node11</title>
<path fill="none" stroke="#191970" d="M481.3376,-262.5239C480.9864,-236.5612 484.5972,-202.1383 502.5,-178 561.4529,-98.5136 672.8215,-59.0845 747.3594,-40.7668"/>
<polygon fill="#191970" stroke="#191970" points="477.8465,-262.848 481.6814,-272.7244 484.8425,-262.6121 477.8465,-262.848"/>
</g>
<!-- Node12 -->
<g id="node10" class="node">
<title>Node12</title>
<g id="a_node10"><a xlink:href="../../d7/d98/testDecoder_8cxx.html" target="_top" xlink:title="/home/travis/build\l/AliceO2Group/AliceO2\l/Detectors/MUON/MCH/Raw\l/Decoder/src/testDecoder.cxx">
<polygon fill="none" stroke="#000000" points="512,-178.5 512,-230.5 671,-230.5 671,-178.5 512,-178.5"/>
<text text-anchor="start" x="520" y="-218.5" font-family="Helvetica,sans-Serif" font-size="10.00" fill="#000000">/home/travis/build</text>
<text text-anchor="start" x="520" y="-207.5" font-family="Helvetica,sans-Serif" font-size="10.00" fill="#000000">/AliceO2Group/AliceO2</text>
<text text-anchor="start" x="520" y="-196.5" font-family="Helvetica,sans-Serif" font-size="10.00" fill="#000000">/Detectors/MUON/MCH/Raw</text>
<text text-anchor="middle" x="591.5" y="-185.5" font-family="Helvetica,sans-Serif" font-size="10.00" fill="#000000">/Decoder/src/testDecoder.cxx</text>
</a>
</g>
</g>
<!-- Node8&#45;&gt;Node12 -->
<g id="edge11" class="edge">
<title>Node8&#45;&gt;Node12</title>
<path fill="none" stroke="#191970" d="M521.552,-266.2765C534.6753,-254.6863 549.2613,-241.8043 561.7034,-230.8157"/>
<polygon fill="#191970" stroke="#191970" points="519.1999,-263.6842 514.0215,-272.9273 523.8337,-268.9309 519.1999,-263.6842"/>
</g>
<!-- Node9&#45;&gt;Node9 -->
<g id="edge9" class="edge">
<title>Node9&#45;&gt;Node9</title>
<path fill="none" stroke="#191970" d="M915.7878,-215.5549C920.9367,-212.8659 924,-209.1809 924,-204.5 924,-197.3672 916.887,-192.547 906.1203,-190.0393"/>
<polygon fill="#191970" stroke="#191970" points="914.3891,-212.3367 906.1203,-218.9607 916.7151,-218.939 914.3891,-212.3367"/>
</g>
<!-- Node10 -->
<g id="node8" class="node">
<title>Node10</title>
<g id="a_node8"><a xlink:href="../../d0/df0/Detectors_2MUON_2MCH_2Raw_2Decoder_2src_2PageParser_8h.html" target="_top" xlink:title="/home/travis/build\l/AliceO2Group/AliceO2\l/Detectors/MUON/MCH/Raw\l/Decoder/src/PageParser.h">
<polygon fill="none" stroke="#000000" points="747.5,-89.5 747.5,-141.5 897.5,-141.5 897.5,-89.5 747.5,-89.5"/>
<text text-anchor="start" x="755.5" y="-129.5" font-family="Helvetica,sans-Serif" font-size="10.00" fill="#000000">/home/travis/build</text>
<text text-anchor="start" x="755.5" y="-118.5" font-family="Helvetica,sans-Serif" font-size="10.00" fill="#000000">/AliceO2Group/AliceO2</text>
<text text-anchor="start" x="755.5" y="-107.5" font-family="Helvetica,sans-Serif" font-size="10.00" fill="#000000">/Detectors/MUON/MCH/Raw</text>
<text text-anchor="middle" x="822.5" y="-96.5" font-family="Helvetica,sans-Serif" font-size="10.00" fill="#000000">/Decoder/src/PageParser.h</text>
</a>
</g>
</g>
<!-- Node9&#45;&gt;Node10 -->
<g id="edge7" class="edge">
<title>Node9&#45;&gt;Node10</title>
<path fill="none" stroke="#191970" d="M822.5,-168.1155C822.5,-159.2061 822.5,-149.8475 822.5,-141.5341"/>
<polygon fill="#191970" stroke="#191970" points="819.0001,-168.2784 822.5,-178.2784 826.0001,-168.2785 819.0001,-168.2784"/>
</g>
<!-- Node10&#45;&gt;Node11 -->
<g id="edge8" class="edge">
<title>Node10&#45;&gt;Node11</title>
<path fill="none" stroke="#191970" d="M822.5,-79.1155C822.5,-70.2061 822.5,-60.8475 822.5,-52.5341"/>
<polygon fill="#191970" stroke="#191970" points="819.0001,-79.2784 822.5,-89.2784 826.0001,-79.2785 819.0001,-79.2784"/>
</g>
<!-- Node15 -->
<g id="node13" class="node">
<title>Node15</title>
<g id="a_node13"><a xlink:href="../../d3/d1b/UserLogicGBTDecoder_8h.html" target="_top" xlink:title="/home/travis/build\l/AliceO2Group/AliceO2\l/Detectors/MUON/MCH/Raw\l/Decoder/src/UserLogicGBTDecoder.h">
<polygon fill="none" stroke="#000000" points="1208,-273 1208,-325 1405,-325 1405,-273 1208,-273"/>
<text text-anchor="start" x="1216" y="-313" font-family="Helvetica,sans-Serif" font-size="10.00" fill="#000000">/home/travis/build</text>
<text text-anchor="start" x="1216" y="-302" font-family="Helvetica,sans-Serif" font-size="10.00" fill="#000000">/AliceO2Group/AliceO2</text>
<text text-anchor="start" x="1216" y="-291" font-family="Helvetica,sans-Serif" font-size="10.00" fill="#000000">/Detectors/MUON/MCH/Raw</text>
<text text-anchor="middle" x="1306.5" y="-280" font-family="Helvetica,sans-Serif" font-size="10.00" fill="#000000">/Decoder/src/UserLogicGBTDecoder.h</text>
</a>
</g>
</g>
<!-- Node14&#45;&gt;Node15 -->
<g id="edge14" class="edge">
<title>Node14&#45;&gt;Node15</title>
<path fill="none" stroke="#191970" d="M1187.8751,-362.6935C1210.464,-350.5648 1236.1288,-336.7845 1257.7946,-325.1515"/>
<polygon fill="#191970" stroke="#191970" points="1186.2133,-359.6131 1179.0587,-367.4273 1189.5247,-365.7803 1186.2133,-359.6131"/>
</g>
<!-- Node14&#45;&gt;Node16 -->
<g id="edge18" class="edge">
<title>Node14&#45;&gt;Node16</title>
<path fill="none" stroke="#191970" d="M1120.6547,-357.7162C1118.211,-348.8341 1115.6089,-339.3767 1113.2232,-330.7054"/>
<polygon fill="#191970" stroke="#191970" points="1117.2991,-358.7141 1123.3266,-367.4273 1124.0483,-356.8571 1117.2991,-358.7141"/>
</g>
<!-- Node15&#45;&gt;Node9 -->
<g id="edge15" class="edge">
<title>Node15&#45;&gt;Node9</title>
<path fill="none" stroke="#191970" d="M1213.5153,-270.4276C1208.79,-269.2156 1204.0985,-268.0643 1199.5,-267 1099.6373,-243.8869 982.9968,-225.9076 906.203,-215.2839"/>
<polygon fill="#191970" stroke="#191970" points="1212.6809,-273.8272 1223.2428,-272.9925 1214.4657,-267.0585 1212.6809,-273.8272"/>
</g>
<!-- Node15&#45;&gt;Node11 -->
<g id="edge17" class="edge">
<title>Node15&#45;&gt;Node11</title>
<path fill="none" stroke="#191970" d="M1251.0923,-267.8045C1154.7902,-213.5849 958.2768,-102.9446 868.7675,-52.5493"/>
<polygon fill="#191970" stroke="#191970" points="1249.6611,-271.0153 1260.092,-272.8716 1253.0953,-264.9156 1249.6611,-271.0153"/>
</g>
<!-- Node15&#45;&gt;Node15 -->
<g id="edge16" class="edge">
<title>Node15&#45;&gt;Node15</title>
<path fill="none" stroke="#191970" d="M1414.8178,-310.169C1419.974,-307.3616 1423,-303.6386 1423,-299 1423,-291.9316 1415.9735,-286.9893 1405.0908,-284.173"/>
<polygon fill="#191970" stroke="#191970" points="1413.2188,-307.031 1405.0908,-313.827 1415.6828,-313.583 1413.2188,-307.031"/>
</g>
<!-- Node17&#45;&gt;Node9 -->
<g id="edge21" class="edge">
<title>Node17&#45;&gt;Node9</title>
<path fill="none" stroke="#191970" d="M861.0926,-359.6471C853.5134,-351.0156 846.3806,-341.2538 841.5,-331 826.2288,-298.916 822.6247,-257.5229 822.0692,-230.9899"/>
<polygon fill="#191970" stroke="#191970" points="858.7625,-362.282 868.1268,-367.2379 863.897,-357.5241 858.7625,-362.282"/>
</g>
<!-- Node17&#45;&gt;Node16 -->
<g id="edge22" class="edge">
<title>Node17&#45;&gt;Node16</title>
<path fill="none" stroke="#191970" d="M964.5634,-363.1942C987.3035,-352.7625 1012.8124,-341.0606 1035.7607,-330.5333"/>
<polygon fill="#191970" stroke="#191970" points="962.9656,-360.0764 955.3357,-367.4273 965.8844,-366.4389 962.9656,-360.0764"/>
</g>
<!-- Node18 -->
<g id="node16" class="node">
<title>Node18</title>
<g id="a_node16"><a xlink:href="../../d4/dbc/rawdump_8cxx.html" target="_top" xlink:title="/home/travis/build\l/AliceO2Group/AliceO2\l/Detectors/MUON/MCH/Raw\l/Tools/rawdump.cxx">
<polygon fill="none" stroke="#000000" points="850.5,-273 850.5,-325 1000.5,-325 1000.5,-273 850.5,-273"/>
<text text-anchor="start" x="858.5" y="-313" font-family="Helvetica,sans-Serif" font-size="10.00" fill="#000000">/home/travis/build</text>
<text text-anchor="start" x="858.5" y="-302" font-family="Helvetica,sans-Serif" font-size="10.00" fill="#000000">/AliceO2Group/AliceO2</text>
<text text-anchor="start" x="858.5" y="-291" font-family="Helvetica,sans-Serif" font-size="10.00" fill="#000000">/Detectors/MUON/MCH/Raw</text>
<text text-anchor="middle" x="925.5" y="-280" font-family="Helvetica,sans-Serif" font-size="10.00" fill="#000000">/Tools/rawdump.cxx</text>
</a>
</g>
</g>
<!-- Node17&#45;&gt;Node18 -->
<g id="edge23" class="edge">
<title>Node17&#45;&gt;Node18</title>
<path fill="none" stroke="#191970" d="M908.787,-357.4957C911.8443,-346.795 915.1351,-335.2773 917.9812,-325.3157"/>
<polygon fill="#191970" stroke="#191970" points="905.3313,-356.8505 905.9493,-367.4273 912.062,-358.7736 905.3313,-356.8505"/>
</g>
</g>
</svg>
