<?xml version="1.0" encoding="UTF-8" standalone="no"?>
<!DOCTYPE svg PUBLIC "-//W3C//DTD SVG 1.1//EN"
 "http://www.w3.org/Graphics/SVG/1.1/DTD/svg11.dtd">
<!-- Generated by graphviz version 2.40.1 (20161225.0304)
 -->
<!-- Title: o2::framework::RawBufferContext::MessageRef Pages: 1 -->
<svg width="634pt" height="182pt"
 viewBox="0.00 0.00 633.50 182.00" xmlns="http://www.w3.org/2000/svg" xmlns:xlink="http://www.w3.org/1999/xlink">
<g id="graph0" class="graph" transform="scale(1 1) rotate(0) translate(4 178)">
<title>o2::framework::RawBufferContext::MessageRef</title>
<!-- Node1 -->
<g id="node1" class="node">
<title>Node1</title>
<polygon fill="#bfbfbf" stroke="#000000" points="164,-.5 164,-68.5 308,-68.5 308,-.5 164,-.5"/>
<text text-anchor="start" x="172" y="-56.5" font-family="Helvetica,sans-Serif" font-size="10.00" fill="#000000">o2::framework::RawBuffer</text>
<text text-anchor="middle" x="236" y="-45.5" font-family="Helvetica,sans-Serif" font-size="10.00" fill="#000000">Context::MessageRef</text>
<polyline fill="none" stroke="#000000" points="164,-38.5 308,-38.5 "/>
<text text-anchor="middle" x="236" y="-26.5" font-family="Helvetica,sans-Serif" font-size="10.00" fill="#000000"> </text>
<polyline fill="none" stroke="#000000" points="164,-19.5 308,-19.5 "/>
<text text-anchor="middle" x="236" y="-7.5" font-family="Helvetica,sans-Serif" font-size="10.00" fill="#000000"> </text>
</g>
<!-- Node2 -->
<g id="node2" class="node">
<title>Node2</title>
<polygon fill="none" stroke="#bfbfbf" points="0,-116.5 0,-173.5 104,-173.5 104,-116.5 0,-116.5"/>
<text text-anchor="middle" x="52" y="-161.5" font-family="Helvetica,sans-Serif" font-size="10.00" fill="#000000">function&lt; void()&gt;</text>
<polyline fill="none" stroke="#bfbfbf" points="0,-154.5 104,-154.5 "/>
<text text-anchor="middle" x="52" y="-142.5" font-family="Helvetica,sans-Serif" font-size="10.00" fill="#000000"> </text>
<polyline fill="none" stroke="#bfbfbf" points="0,-135.5 104,-135.5 "/>
<text text-anchor="middle" x="52" y="-123.5" font-family="Helvetica,sans-Serif" font-size="10.00" fill="#000000"> </text>
</g>
<!-- Node2&#45;&gt;Node1 -->
<g id="edge1" class="edge">
<title>Node2&#45;&gt;Node1</title>
<path fill="none" stroke="#404040" d="M60.5431,-116.374C64.9029,-105.9193 71.1954,-94.7665 80,-87 100.2564,-69.1319 126.822,-57.3013 152.2761,-49.4858"/>
<polygon fill="none" stroke="#404040" points="152.3292,-49.4706 156.9976,-43.9746 163.8664,-46.1701 159.198,-51.6661 152.3292,-49.4706"/>
<text text-anchor="middle" x="123.5" y="-90" font-family="Helvetica,sans-Serif" font-size="10.00" fill="#000000"> +destroyPayload</text>
</g>
<!-- Node3 -->
<g id="node3" class="node">
<title>Node3</title>
<polygon fill="none" stroke="#bfbfbf" points="143,-116.5 143,-173.5 181,-173.5 181,-116.5 143,-116.5"/>
<text text-anchor="middle" x="162" y="-161.5" font-family="Helvetica,sans-Serif" font-size="10.00" fill="#000000">char</text>
<polyline fill="none" stroke="#bfbfbf" points="143,-154.5 181,-154.5 "/>
<text text-anchor="middle" x="162" y="-142.5" font-family="Helvetica,sans-Serif" font-size="10.00" fill="#000000"> </text>
<polyline fill="none" stroke="#bfbfbf" points="143,-135.5 181,-135.5 "/>
<text text-anchor="middle" x="162" y="-123.5" font-family="Helvetica,sans-Serif" font-size="10.00" fill="#000000"> </text>
</g>
<!-- Node3&#45;&gt;Node1 -->
<g id="edge2" class="edge">
<title>Node3&#45;&gt;Node1</title>
<path fill="none" stroke="#404040" d="M165.3453,-116.2116C167.3918,-106.434 170.6888,-95.7725 176,-87 177.9098,-83.8457 180.0718,-80.7793 182.413,-77.8167"/>
<polygon fill="none" stroke="#404040" points="182.4832,-77.7368 183.4436,-70.59 190.4101,-68.7277 189.4497,-75.8746 182.4832,-77.7368"/>
<text text-anchor="middle" x="201.5" y="-90" font-family="Helvetica,sans-Serif" font-size="10.00" fill="#000000"> +payload</text>
</g>
<!-- Node4 -->
<g id="node4" class="node">
<title>Node4</title>
<polygon fill="none" stroke="#bfbfbf" points="206,-116.5 206,-173.5 250,-173.5 250,-116.5 206,-116.5"/>
<text text-anchor="middle" x="228" y="-161.5" font-family="Helvetica,sans-Serif" font-size="10.00" fill="#000000">string</text>
<polyline fill="none" stroke="#bfbfbf" points="206,-154.5 250,-154.5 "/>
<text text-anchor="middle" x="228" y="-142.5" font-family="Helvetica,sans-Serif" font-size="10.00" fill="#000000"> </text>
<polyline fill="none" stroke="#bfbfbf" points="206,-135.5 250,-135.5 "/>
<text text-anchor="middle" x="228" y="-123.5" font-family="Helvetica,sans-Serif" font-size="10.00" fill="#000000"> </text>
</g>
<!-- Node4&#45;&gt;Node1 -->
<g id="edge3" class="edge">
<title>Node4&#45;&gt;Node1</title>
<path fill="none" stroke="#404040" d="M230.081,-116.2559C230.8644,-105.4349 231.7766,-92.8362 232.6467,-80.8169"/>
<polygon fill="none" stroke="#404040" points="232.6646,-80.5687 229.1084,-74.2955 233.5312,-68.6001 237.0875,-74.8733 232.6646,-80.5687"/>
<text text-anchor="middle" x="257" y="-90" font-family="Helvetica,sans-Serif" font-size="10.00" fill="#000000"> +channel</text>
</g>
<!-- Node5 -->
<g id="node5" class="node">
<title>Node5</title>
<polygon fill="none" stroke="#bfbfbf" points="267.5,-116.5 267.5,-173.5 434.5,-173.5 434.5,-116.5 267.5,-116.5"/>
<text text-anchor="middle" x="351" y="-161.5" font-family="Helvetica,sans-Serif" font-size="10.00" fill="#000000">unique_ptr&lt; FairMQMessage &gt;</text>
<polyline fill="none" stroke="#bfbfbf" points="267.5,-154.5 434.5,-154.5 "/>
<text text-anchor="middle" x="351" y="-142.5" font-family="Helvetica,sans-Serif" font-size="10.00" fill="#000000"> </text>
<polyline fill="none" stroke="#bfbfbf" points="267.5,-135.5 434.5,-135.5 "/>
<text text-anchor="middle" x="351" y="-123.5" font-family="Helvetica,sans-Serif" font-size="10.00" fill="#000000"> </text>
</g>
<!-- Node5&#45;&gt;Node1 -->
<g id="edge4" class="edge">
<title>Node5&#45;&gt;Node1</title>
<path fill="none" stroke="#404040" d="M321.0853,-116.2559C308.6382,-104.2959 293.931,-90.1642 280.2759,-77.0434"/>
<polygon fill="none" stroke="#404040" points="280.1417,-76.9144 273.0438,-75.6415 271.4887,-68.6001 278.5866,-69.8729 280.1417,-76.9144"/>
<text text-anchor="middle" x="323" y="-90" font-family="Helvetica,sans-Serif" font-size="10.00" fill="#000000"> +header</text>
</g>
<!-- Node6 -->
<g id="node6" class="node">
<title>Node6</title>
<polygon fill="none" stroke="#bfbfbf" points="452.5,-116.5 452.5,-173.5 625.5,-173.5 625.5,-116.5 452.5,-116.5"/>
<text text-anchor="middle" x="539" y="-161.5" font-family="Helvetica,sans-Serif" font-size="10.00" fill="#000000">function&lt; std::ostringstream()&gt;</text>
<polyline fill="none" stroke="#bfbfbf" points="452.5,-154.5 625.5,-154.5 "/>
<text text-anchor="middle" x="539" y="-142.5" font-family="Helvetica,sans-Serif" font-size="10.00" fill="#000000"> </text>
<polyline fill="none" stroke="#bfbfbf" points="452.5,-135.5 625.5,-135.5 "/>
<text text-anchor="middle" x="539" y="-123.5" font-family="Helvetica,sans-Serif" font-size="10.00" fill="#000000"> </text>
</g>
<!-- Node6&#45;&gt;Node1 -->
<g id="edge5" class="edge">
<title>Node6&#45;&gt;Node1</title>
<path fill="none" stroke="#404040" d="M460.5759,-116.3998C417.2654,-100.605 363.4772,-80.9892 319.4003,-64.915"/>
<polygon fill="none" stroke="#404040" points="319.3976,-64.914 312.3902,-66.6162 308.1239,-60.8026 315.1312,-59.1004 319.3976,-64.914"/>
<text text-anchor="middle" x="441.5" y="-90" font-family="Helvetica,sans-Serif" font-size="10.00" fill="#000000"> +serializeMsg</text>
</g>
</g>
</svg>
