<?xml version="1.0" encoding="UTF-8" standalone="no"?>
<!DOCTYPE svg PUBLIC "-//W3C//DTD SVG 1.1//EN"
 "http://www.w3.org/Graphics/SVG/1.1/DTD/svg11.dtd">
<!-- Generated by graphviz version 2.40.1 (20161225.0304)
 -->
<!-- Title: o2::devices::FLPSyncSampler Pages: 1 -->
<svg width="801pt" height="303pt"
 viewBox="0.00 0.00 800.50 303.00" xmlns="http://www.w3.org/2000/svg" xmlns:xlink="http://www.w3.org/1999/xlink">
<g id="graph0" class="graph" transform="scale(1 1) rotate(0) translate(4 299)">
<title>o2::devices::FLPSyncSampler</title>
<!-- Node2 -->
<g id="node1" class="node">
<title>Node2</title>
<polygon fill="#bfbfbf" stroke="#000000" points="269.5,-.5 269.5,-134.5 427.5,-134.5 427.5,-.5 269.5,-.5"/>
<text text-anchor="middle" x="348.5" y="-122.5" font-family="Helvetica,sans-Serif" font-size="10.00" fill="#000000">o2::devices::FLPSyncSampler</text>
<polyline fill="none" stroke="#000000" points="269.5,-115.5 427.5,-115.5 "/>
<text text-anchor="middle" x="348.5" y="-103.5" font-family="Helvetica,sans-Serif" font-size="10.00" fill="#000000"> </text>
<polyline fill="none" stroke="#000000" points="269.5,-96.5 427.5,-96.5 "/>
<text text-anchor="start" x="277.5" y="-84.5" font-family="Helvetica,sans-Serif" font-size="10.00" fill="#000000">+ FLPSyncSampler()</text>
<text text-anchor="start" x="277.5" y="-73.5" font-family="Helvetica,sans-Serif" font-size="10.00" fill="#000000">+ ~FLPSyncSampler()</text>
<text text-anchor="start" x="277.5" y="-62.5" font-family="Helvetica,sans-Serif" font-size="10.00" fill="#000000">+ ResetEventCounter()</text>
<text text-anchor="start" x="277.5" y="-51.5" font-family="Helvetica,sans-Serif" font-size="10.00" fill="#000000">+ ListenForAcks()</text>
<text text-anchor="start" x="277.5" y="-40.5" font-family="Helvetica,sans-Serif" font-size="10.00" fill="#000000"># InitTask()</text>
<text text-anchor="start" x="277.5" y="-29.5" font-family="Helvetica,sans-Serif" font-size="10.00" fill="#000000"># ConditionalRun()</text>
<text text-anchor="start" x="277.5" y="-18.5" font-family="Helvetica,sans-Serif" font-size="10.00" fill="#000000"># PreRun()</text>
<text text-anchor="start" x="277.5" y="-7.5" font-family="Helvetica,sans-Serif" font-size="10.00" fill="#000000"># PostRun()</text>
</g>
<!-- Node3 -->
<g id="node2" class="node">
<title>Node3</title>
<g id="a_node2"><a xlink:href="../../db/dfe/classFairMQDevice.html" target="_top" xlink:title="{FairMQDevice\n||}">
<polygon fill="none" stroke="#000000" points="0,-226.5 0,-283.5 83,-283.5 83,-226.5 0,-226.5"/>
<text text-anchor="middle" x="41.5" y="-271.5" font-family="Helvetica,sans-Serif" font-size="10.00" fill="#000000">FairMQDevice</text>
<polyline fill="none" stroke="#000000" points="0,-264.5 83,-264.5 "/>
<text text-anchor="middle" x="41.5" y="-252.5" font-family="Helvetica,sans-Serif" font-size="10.00" fill="#000000"> </text>
<polyline fill="none" stroke="#000000" points="0,-245.5 83,-245.5 "/>
<text text-anchor="middle" x="41.5" y="-233.5" font-family="Helvetica,sans-Serif" font-size="10.00" fill="#000000"> </text>
</a>
</g>
</g>
<!-- Node3&#45;&gt;Node2 -->
<g id="edge1" class="edge">
<title>Node3&#45;&gt;Node2</title>
<path fill="none" stroke="#191970" d="M66.5121,-217.8425C82.4495,-196.4945 104.72,-170.5259 129.5,-153 171.6542,-123.1861 225.6225,-101.9597 269.4363,-88.1138"/>
<polygon fill="none" stroke="#191970" points="63.5764,-215.928 60.509,-226.0691 69.231,-220.0542 63.5764,-215.928"/>
</g>
<!-- Node4 -->
<g id="node3" class="node">
<title>Node4</title>
<polygon fill="none" stroke="#bfbfbf" points="101.5,-226.5 101.5,-283.5 157.5,-283.5 157.5,-226.5 101.5,-226.5"/>
<text text-anchor="middle" x="129.5" y="-271.5" font-family="Helvetica,sans-Serif" font-size="10.00" fill="#000000">uint16_t</text>
<polyline fill="none" stroke="#bfbfbf" points="101.5,-264.5 157.5,-264.5 "/>
<text text-anchor="middle" x="129.5" y="-252.5" font-family="Helvetica,sans-Serif" font-size="10.00" fill="#000000"> </text>
<polyline fill="none" stroke="#bfbfbf" points="101.5,-245.5 157.5,-245.5 "/>
<text text-anchor="middle" x="129.5" y="-233.5" font-family="Helvetica,sans-Serif" font-size="10.00" fill="#000000"> </text>
</g>
<!-- Node4&#45;&gt;Node2 -->
<g id="edge2" class="edge">
<title>Node4&#45;&gt;Node2</title>
<path fill="none" stroke="#404040" d="M129.2132,-226.4595C130.4409,-204.1489 135.5014,-173.5701 152.5,-153 179.0754,-120.8411 220.0867,-100.4405 257.7394,-87.6718"/>
<polygon fill="none" stroke="#404040" points="257.875,-87.6283 262.3599,-81.9815 269.2972,-83.9496 264.8123,-89.5964 257.875,-87.6283"/>
<text text-anchor="middle" x="195" y="-172.5" font-family="Helvetica,sans-Serif" font-size="10.00" fill="#000000"> #mTimeFrameId</text>
</g>
<!-- Node5 -->
<g id="node4" class="node">
<title>Node5</title>
<polygon fill="none" stroke="#bfbfbf" points="223,-226.5 223,-283.5 252,-283.5 252,-226.5 223,-226.5"/>
<text text-anchor="middle" x="237.5" y="-271.5" font-family="Helvetica,sans-Serif" font-size="10.00" fill="#000000">int</text>
<polyline fill="none" stroke="#bfbfbf" points="223,-264.5 252,-264.5 "/>
<text text-anchor="middle" x="237.5" y="-252.5" font-family="Helvetica,sans-Serif" font-size="10.00" fill="#000000"> </text>
<polyline fill="none" stroke="#bfbfbf" points="223,-245.5 252,-245.5 "/>
<text text-anchor="middle" x="237.5" y="-233.5" font-family="Helvetica,sans-Serif" font-size="10.00" fill="#000000"> </text>
</g>
<!-- Node5&#45;&gt;Node2 -->
<g id="edge3" class="edge">
<title>Node5&#45;&gt;Node2</title>
<path fill="none" stroke="#404040" d="M238.0786,-226.1147C239.6079,-204.7492 244.0811,-175.567 256.5,-153 258.2822,-149.7614 260.2319,-146.5768 262.319,-143.4532"/>
<polygon fill="none" stroke="#404040" points="262.358,-143.3995 262.6514,-136.1943 269.4152,-133.6939 269.1218,-140.8991 262.358,-143.3995"/>
<text text-anchor="middle" x="300.5" y="-189" font-family="Helvetica,sans-Serif" font-size="10.00" fill="#000000"> #mMaxEvents</text>
<text text-anchor="middle" x="300.5" y="-178" font-family="Helvetica,sans-Serif" font-size="10.00" fill="#000000">#mStoreRTTinFile</text>
<text text-anchor="middle" x="300.5" y="-167" font-family="Helvetica,sans-Serif" font-size="10.00" fill="#000000">#mEventRate</text>
<text text-anchor="middle" x="300.5" y="-156" font-family="Helvetica,sans-Serif" font-size="10.00" fill="#000000">#mEventCounter</text>
</g>
<!-- Node6 -->
<g id="node5" class="node">
<title>Node6</title>
<polygon fill="none" stroke="#bfbfbf" points="326.5,-226.5 326.5,-283.5 370.5,-283.5 370.5,-226.5 326.5,-226.5"/>
<text text-anchor="middle" x="348.5" y="-271.5" font-family="Helvetica,sans-Serif" font-size="10.00" fill="#000000">string</text>
<polyline fill="none" stroke="#bfbfbf" points="326.5,-264.5 370.5,-264.5 "/>
<text text-anchor="middle" x="348.5" y="-252.5" font-family="Helvetica,sans-Serif" font-size="10.00" fill="#000000"> </text>
<polyline fill="none" stroke="#bfbfbf" points="326.5,-245.5 370.5,-245.5 "/>
<text text-anchor="middle" x="348.5" y="-233.5" font-family="Helvetica,sans-Serif" font-size="10.00" fill="#000000"> </text>
</g>
<!-- Node6&#45;&gt;Node2 -->
<g id="edge4" class="edge">
<title>Node6&#45;&gt;Node2</title>
<path fill="none" stroke="#404040" d="M348.5,-226.114C348.5,-204.9065 348.5,-175.013 348.5,-146.8863"/>
<polygon fill="none" stroke="#404040" points="348.5001,-146.5496 344.5,-140.5496 348.5,-134.5496 352.5,-140.5495 348.5001,-146.5496"/>
<text text-anchor="middle" x="403" y="-178" font-family="Helvetica,sans-Serif" font-size="10.00" fill="#000000"> #mAckChannelName</text>
<text text-anchor="middle" x="403" y="-167" font-family="Helvetica,sans-Serif" font-size="10.00" fill="#000000">#mOutChannelName</text>
</g>
<!-- Node7 -->
<g id="node6" class="node">
<title>Node7</title>
<polygon fill="none" stroke="#bfbfbf" points="417,-215.5 417,-294.5 536,-294.5 536,-215.5 417,-215.5"/>
<text text-anchor="start" x="425" y="-282.5" font-family="Helvetica,sans-Serif" font-size="10.00" fill="#000000">array&lt; o2::devices</text>
<text text-anchor="start" x="425" y="-271.5" font-family="Helvetica,sans-Serif" font-size="10.00" fill="#000000">::timeframeDuration,</text>
<text text-anchor="middle" x="476.5" y="-260.5" font-family="Helvetica,sans-Serif" font-size="10.00" fill="#000000"> UINT16_MAX &gt;</text>
<polyline fill="none" stroke="#bfbfbf" points="417,-253.5 536,-253.5 "/>
<text text-anchor="middle" x="476.5" y="-241.5" font-family="Helvetica,sans-Serif" font-size="10.00" fill="#000000"> </text>
<polyline fill="none" stroke="#bfbfbf" points="417,-234.5 536,-234.5 "/>
<text text-anchor="middle" x="476.5" y="-222.5" font-family="Helvetica,sans-Serif" font-size="10.00" fill="#000000"> </text>
</g>
<!-- Node7&#45;&gt;Node2 -->
<g id="edge5" class="edge">
<title>Node7&#45;&gt;Node2</title>
<path fill="none" stroke="#404040" d="M476.1321,-215.3678C474.3663,-195.4419 469.7309,-171.6356 458.5,-153 452.5234,-143.0828 444.9355,-133.8849 436.548,-125.4839"/>
<polygon fill="none" stroke="#404040" points="436.2923,-125.2434 429.1813,-124.0457 427.5519,-117.0211 434.6628,-118.2188 436.2923,-125.2434"/>
<text text-anchor="middle" x="519.5" y="-172.5" font-family="Helvetica,sans-Serif" font-size="10.00" fill="#000000"> #mTimeframeRTT</text>
</g>
<!-- Node8 -->
<g id="node7" class="node">
<title>Node8</title>
<polygon fill="none" stroke="#bfbfbf" points="554.5,-226.5 554.5,-283.5 648.5,-283.5 648.5,-226.5 554.5,-226.5"/>
<text text-anchor="middle" x="601.5" y="-271.5" font-family="Helvetica,sans-Serif" font-size="10.00" fill="#000000">atomic&lt; bool &gt;</text>
<polyline fill="none" stroke="#bfbfbf" points="554.5,-264.5 648.5,-264.5 "/>
<text text-anchor="middle" x="601.5" y="-252.5" font-family="Helvetica,sans-Serif" font-size="10.00" fill="#000000"> </text>
<polyline fill="none" stroke="#bfbfbf" points="554.5,-245.5 648.5,-245.5 "/>
<text text-anchor="middle" x="601.5" y="-233.5" font-family="Helvetica,sans-Serif" font-size="10.00" fill="#000000"> </text>
</g>
<!-- Node8&#45;&gt;Node2 -->
<g id="edge6" class="edge">
<title>Node8&#45;&gt;Node2</title>
<path fill="none" stroke="#404040" d="M599.5024,-226.1078C596.4989,-203.5983 589.0276,-172.9235 570.5,-153 536.2905,-116.2131 484.4741,-95.0819 439.504,-83.0339"/>
<polygon fill="none" stroke="#404040" points="439.2602,-82.972 432.4599,-85.3713 427.6297,-80.017 434.43,-77.6177 439.2602,-82.972"/>
<text text-anchor="middle" x="622.5" y="-172.5" font-family="Helvetica,sans-Serif" font-size="10.00" fill="#000000"> #mLeaving</text>
</g>
<!-- Node9 -->
<g id="node8" class="node">
<title>Node9</title>
<polygon fill="none" stroke="#bfbfbf" points="666.5,-226.5 666.5,-283.5 714.5,-283.5 714.5,-226.5 666.5,-226.5"/>
<text text-anchor="middle" x="690.5" y="-271.5" font-family="Helvetica,sans-Serif" font-size="10.00" fill="#000000">thread</text>
<polyline fill="none" stroke="#bfbfbf" points="666.5,-264.5 714.5,-264.5 "/>
<text text-anchor="middle" x="690.5" y="-252.5" font-family="Helvetica,sans-Serif" font-size="10.00" fill="#000000"> </text>
<polyline fill="none" stroke="#bfbfbf" points="666.5,-245.5 714.5,-245.5 "/>
<text text-anchor="middle" x="690.5" y="-233.5" font-family="Helvetica,sans-Serif" font-size="10.00" fill="#000000"> </text>
</g>
<!-- Node9&#45;&gt;Node2 -->
<g id="edge7" class="edge">
<title>Node9&#45;&gt;Node2</title>
<path fill="none" stroke="#404040" d="M688.2125,-226.4793C684.8714,-203.5693 676.6613,-172.159 656.5,-153 625.2675,-123.3203 518.6066,-98.189 439.5115,-83.0079"/>
<polygon fill="none" stroke="#404040" points="439.3536,-82.9781 432.7151,-85.7941 427.5624,-80.7493 434.201,-77.9333 439.3536,-82.9781"/>
<text text-anchor="middle" x="736.5" y="-178" font-family="Helvetica,sans-Serif" font-size="10.00" fill="#000000"> #mAckListener</text>
<text text-anchor="middle" x="736.5" y="-167" font-family="Helvetica,sans-Serif" font-size="10.00" fill="#000000">#mResetEventCounter</text>
</g>
</g>
</svg>
