<?xml version="1.0" encoding="UTF-8" standalone="no"?>
<!DOCTYPE svg PUBLIC "-//W3C//DTD SVG 1.1//EN"
 "http://www.w3.org/Graphics/SVG/1.1/DTD/svg11.dtd">
<!-- Generated by graphviz version 2.40.1 (20161225.0304)
 -->
<!-- Title: GPUCA_NAMESPACE::gpu::GPUTPCGeometry Pages: 1 -->
<svg width="148pt" height="325pt"
 viewBox="0.00 0.00 148.00 325.00" xmlns="http://www.w3.org/2000/svg" xmlns:xlink="http://www.w3.org/1999/xlink">
<g id="graph0" class="graph" transform="scale(1 1) rotate(0) translate(4 321)">
<title>GPUCA_NAMESPACE::gpu::GPUTPCGeometry</title>
<!-- Node1 -->
<g id="node1" class="node">
<title>Node1</title>
<polygon fill="#bfbfbf" stroke="#000000" points="0,-.5 0,-200.5 140,-200.5 140,-.5 0,-.5"/>
<text text-anchor="start" x="8" y="-188.5" font-family="Helvetica,sans-Serif" font-size="10.00" fill="#000000">GPUCA_NAMESPACE::gpu</text>
<text text-anchor="middle" x="70" y="-177.5" font-family="Helvetica,sans-Serif" font-size="10.00" fill="#000000">::GPUTPCGeometry</text>
<polyline fill="none" stroke="#000000" points="0,-170.5 140,-170.5 "/>
<text text-anchor="middle" x="70" y="-158.5" font-family="Helvetica,sans-Serif" font-size="10.00" fill="#000000"> </text>
<polyline fill="none" stroke="#000000" points="0,-151.5 140,-151.5 "/>
<text text-anchor="start" x="8" y="-139.5" font-family="Helvetica,sans-Serif" font-size="10.00" fill="#000000">+ GPUd()</text>
<text text-anchor="start" x="8" y="-128.5" font-family="Helvetica,sans-Serif" font-size="10.00" fill="#000000">+ GPUd()</text>
<text text-anchor="start" x="8" y="-117.5" font-family="Helvetica,sans-Serif" font-size="10.00" fill="#000000">+ GPUd()</text>
<text text-anchor="start" x="8" y="-106.5" font-family="Helvetica,sans-Serif" font-size="10.00" fill="#000000">+ GPUd()</text>
<text text-anchor="start" x="8" y="-95.5" font-family="Helvetica,sans-Serif" font-size="10.00" fill="#000000">+ GPUd()</text>
<text text-anchor="start" x="8" y="-84.5" font-family="Helvetica,sans-Serif" font-size="10.00" fill="#000000">+ GPUd()</text>
<text text-anchor="start" x="8" y="-73.5" font-family="Helvetica,sans-Serif" font-size="10.00" fill="#000000">+ GPUd()</text>
<text text-anchor="start" x="8" y="-62.5" font-family="Helvetica,sans-Serif" font-size="10.00" fill="#000000">+ GPUd()</text>
<text text-anchor="start" x="8" y="-51.5" font-family="Helvetica,sans-Serif" font-size="10.00" fill="#000000">+ GPUd()</text>
<text text-anchor="start" x="8" y="-40.5" font-family="Helvetica,sans-Serif" font-size="10.00" fill="#000000">+ GPUd()</text>
<text text-anchor="start" x="8" y="-29.5" font-family="Helvetica,sans-Serif" font-size="10.00" fill="#000000">+ PadWidth()</text>
<text text-anchor="start" x="8" y="-18.5" font-family="Helvetica,sans-Serif" font-size="10.00" fill="#000000">+ GPUd()</text>
<text text-anchor="start" x="8" y="-7.5" font-family="Helvetica,sans-Serif" font-size="10.00" fill="#000000">+ return()</text>
</g>
<!-- Node2 -->
<g id="node2" class="node">
<title>Node2</title>
<g id="a_node2"><a xlink:href="../../d4/dc3/classfloat.html" target="_top" xlink:title="{float\n||}">
<polygon fill="none" stroke="#000000" points="23,-259.5 23,-316.5 61,-316.5 61,-259.5 23,-259.5"/>
<text text-anchor="middle" x="42" y="-304.5" font-family="Helvetica,sans-Serif" font-size="10.00" fill="#000000">float</text>
<polyline fill="none" stroke="#000000" points="23,-297.5 61,-297.5 "/>
<text text-anchor="middle" x="42" y="-285.5" font-family="Helvetica,sans-Serif" font-size="10.00" fill="#000000"> </text>
<polyline fill="none" stroke="#000000" points="23,-278.5 61,-278.5 "/>
<text text-anchor="middle" x="42" y="-266.5" font-family="Helvetica,sans-Serif" font-size="10.00" fill="#000000"> </text>
</a>
</g>
</g>
<!-- Node2&#45;&gt;Node1 -->
<g id="edge1" class="edge">
<title>Node2&#45;&gt;Node1</title>
<path fill="none" stroke="#404040" d="M41.0763,-259.3754C41.0197,-246.9297 41.4178,-232.2038 43,-219 43.2459,-216.9475 43.5126,-214.8786 43.798,-212.7975"/>
<polygon fill="none" stroke="#404040" points="43.8221,-212.6387 40.7687,-206.1059 45.6245,-200.7748 48.6779,-207.3075 43.8221,-212.6387"/>
<text text-anchor="middle" x="60" y="-233" font-family="Helvetica,sans-Serif" font-size="10.00" fill="#000000"> +time</text>
<text text-anchor="middle" x="60" y="-222" font-family="Helvetica,sans-Serif" font-size="10.00" fill="#000000">+z</text>
</g>
<!-- Node3 -->
<g id="node3" class="node">
<title>Node3</title>
<polygon fill="none" stroke="#bfbfbf" points="84.5,-259.5 84.5,-316.5 113.5,-316.5 113.5,-259.5 84.5,-259.5"/>
<text text-anchor="middle" x="99" y="-304.5" font-family="Helvetica,sans-Serif" font-size="10.00" fill="#000000">int</text>
<polyline fill="none" stroke="#bfbfbf" points="84.5,-297.5 113.5,-297.5 "/>
<text text-anchor="middle" x="99" y="-285.5" font-family="Helvetica,sans-Serif" font-size="10.00" fill="#000000"> </text>
<polyline fill="none" stroke="#bfbfbf" points="84.5,-278.5 113.5,-278.5 "/>
<text text-anchor="middle" x="99" y="-266.5" font-family="Helvetica,sans-Serif" font-size="10.00" fill="#000000"> </text>
</g>
<!-- Node3&#45;&gt;Node1 -->
<g id="edge2" class="edge">
<title>Node3&#45;&gt;Node1</title>
<path fill="none" stroke="#404040" d="M94.5323,-259.114C92.5185,-246.0936 89.9983,-229.7991 87.3458,-212.6496"/>
<polygon fill="none" stroke="#404040" points="87.3272,-212.529 82.4571,-207.2109 85.493,-200.67 90.3631,-205.988 87.3272,-212.529"/>
<text text-anchor="middle" x="110" y="-233" font-family="Helvetica,sans-Serif" font-size="10.00" fill="#000000"> +const</text>
<text text-anchor="middle" x="110" y="-222" font-family="Helvetica,sans-Serif" font-size="10.00" fill="#000000">+row</text>
</g>
</g>
</svg>
