<?xml version="1.0" encoding="UTF-8" standalone="no"?>
<!DOCTYPE svg PUBLIC "-//W3C//DTD SVG 1.1//EN"
 "http://www.w3.org/Graphics/SVG/1.1/DTD/svg11.dtd">
<!-- Generated by graphviz version 2.40.1 (20161225.0304)
 -->
<!-- Title: /home/travis/build/AliceO2Group/AliceO2/Detectors/PHOS/calib/include/PHOSCalib/CalibDB.h Pages: 1 -->
<svg width="573pt" height="173pt"
 viewBox="0.00 0.00 572.50 173.00" xmlns="http://www.w3.org/2000/svg" xmlns:xlink="http://www.w3.org/1999/xlink">
<g id="graph0" class="graph" transform="scale(1 1) rotate(0) translate(4 169)">
<title>/home/travis/build/AliceO2Group/AliceO2/Detectors/PHOS/calib/include/PHOSCalib/CalibDB.h</title>
<!-- Node0 -->
<g id="node1" class="node">
<title>Node0</title>
<polygon fill="#bfbfbf" stroke="#000000" points="89,-112.5 89,-164.5 250,-164.5 250,-112.5 89,-112.5"/>
<text text-anchor="start" x="97" y="-152.5" font-family="Helvetica,sans-Serif" font-size="10.00" fill="#000000">/home/travis/build</text>
<text text-anchor="start" x="97" y="-141.5" font-family="Helvetica,sans-Serif" font-size="10.00" fill="#000000">/AliceO2Group/AliceO2</text>
<text text-anchor="start" x="97" y="-130.5" font-family="Helvetica,sans-Serif" font-size="10.00" fill="#000000">/Detectors/PHOS/calib</text>
<text text-anchor="middle" x="169.5" y="-119.5" font-family="Helvetica,sans-Serif" font-size="10.00" fill="#000000">/include/PHOSCalib/CalibDB.h</text>
</g>
<!-- Node1 -->
<g id="node2" class="node">
<title>Node1</title>
<polygon fill="none" stroke="#bfbfbf" points="0,-56.5 0,-75.5 65,-75.5 65,-56.5 0,-56.5"/>
<text text-anchor="middle" x="32.5" y="-63.5" font-family="Helvetica,sans-Serif" font-size="10.00" fill="#000000">exception</text>
</g>
<!-- Node0&#45;&gt;Node1 -->
<g id="edge1" class="edge">
<title>Node0&#45;&gt;Node1</title>
<path fill="none" stroke="#191970" d="M120.0399,-112.3258C99.6045,-101.5115 76.7134,-89.3976 59.4659,-80.2703"/>
<polygon fill="#191970" stroke="#191970" points="60.9918,-77.1179 50.516,-75.534 57.7175,-83.305 60.9918,-77.1179"/>
</g>
<!-- Node2 -->
<g id="node3" class="node">
<title>Node2</title>
<polygon fill="none" stroke="#bfbfbf" points="53.5,-.5 53.5,-19.5 91.5,-19.5 91.5,-.5 53.5,-.5"/>
<text text-anchor="middle" x="72.5" y="-7.5" font-family="Helvetica,sans-Serif" font-size="10.00" fill="#000000">map</text>
</g>
<!-- Node0&#45;&gt;Node2 -->
<g id="edge2" class="edge">
<title>Node0&#45;&gt;Node2</title>
<path fill="none" stroke="#191970" d="M149.8706,-112.4961C130.7978,-87.2295 102.3594,-49.5559 85.7962,-27.614"/>
<polygon fill="#191970" stroke="#191970" points="88.5002,-25.3868 79.6819,-19.5142 82.9133,-29.6042 88.5002,-25.3868"/>
</g>
<!-- Node3 -->
<g id="node4" class="node">
<title>Node3</title>
<polygon fill="none" stroke="#bfbfbf" points="109.5,-.5 109.5,-19.5 153.5,-19.5 153.5,-.5 109.5,-.5"/>
<text text-anchor="middle" x="131.5" y="-7.5" font-family="Helvetica,sans-Serif" font-size="10.00" fill="#000000">string</text>
</g>
<!-- Node0&#45;&gt;Node3 -->
<g id="edge3" class="edge">
<title>Node0&#45;&gt;Node3</title>
<path fill="none" stroke="#191970" d="M161.4634,-112.3741C158.0457,-101.184 154.0399,-87.9623 150.5,-76 145.9006,-60.4575 140.8285,-42.8115 137.0825,-29.6784"/>
<polygon fill="#191970" stroke="#191970" points="140.3902,-28.5138 134.2873,-19.8533 133.6573,-30.4293 140.3902,-28.5138"/>
</g>
<!-- Node4 -->
<g id="node5" class="node">
<title>Node4</title>
<polygon fill="none" stroke="#bfbfbf" points="274,-56.5 274,-75.5 333,-75.5 333,-56.5 274,-56.5"/>
<text text-anchor="middle" x="303.5" y="-63.5" font-family="Helvetica,sans-Serif" font-size="10.00" fill="#000000">Rtypes.h</text>
</g>
<!-- Node0&#45;&gt;Node4 -->
<g id="edge4" class="edge">
<title>Node0&#45;&gt;Node4</title>
<path fill="none" stroke="#191970" d="M217.8771,-112.3258C237.6799,-101.6116 259.8404,-89.6218 276.6546,-80.5246"/>
<polygon fill="#191970" stroke="#191970" points="278.7488,-83.371 285.8785,-75.534 275.4178,-77.2143 278.7488,-83.371"/>
</g>
<!-- Node5 -->
<g id="node6" class="node">
<title>Node5</title>
<polygon fill="none" stroke="#bfbfbf" points="351.5,-56.5 351.5,-75.5 435.5,-75.5 435.5,-56.5 351.5,-56.5"/>
<text text-anchor="middle" x="393.5" y="-63.5" font-family="Helvetica,sans-Serif" font-size="10.00" fill="#000000">RStringView.h</text>
</g>
<!-- Node0&#45;&gt;Node5 -->
<g id="edge5" class="edge">
<title>Node0&#45;&gt;Node5</title>
<path fill="none" stroke="#191970" d="M250.0527,-112.4283C285.5073,-100.953 325.5372,-87.9969 354.2836,-78.6928"/>
<polygon fill="#191970" stroke="#191970" points="355.5186,-81.9719 363.9549,-75.5626 353.3631,-75.3121 355.5186,-81.9719"/>
</g>
<!-- Node6 -->
<g id="node7" class="node">
<title>Node6</title>
<g id="a_node7"><a xlink:href="../../dd/d3e/CcdbApi_8h.html" target="_top" xlink:title="CCDB/CcdbApi.h">
<polygon fill="none" stroke="#000000" points="159.5,-56.5 159.5,-75.5 255.5,-75.5 255.5,-56.5 159.5,-56.5"/>
<text text-anchor="middle" x="207.5" y="-63.5" font-family="Helvetica,sans-Serif" font-size="10.00" fill="#000000">CCDB/CcdbApi.h</text>
</a>
</g>
</g>
<!-- Node0&#45;&gt;Node6 -->
<g id="edge6" class="edge">
<title>Node0&#45;&gt;Node6</title>
<path fill="none" stroke="#191970" d="M183.2189,-112.3258C188.0473,-103.1136 193.3701,-92.9584 197.7984,-84.5096"/>
<polygon fill="#191970" stroke="#191970" points="200.9605,-86.016 202.5029,-75.534 194.7605,-82.7663 200.9605,-86.016"/>
</g>
<!-- Node6&#45;&gt;Node2 -->
<g id="edge10" class="edge">
<title>Node6&#45;&gt;Node2</title>
<path fill="none" stroke="#191970" d="M184.2927,-56.3733C161.2653,-46.8211 125.9247,-32.1613 101.1585,-21.888"/>
<polygon fill="#191970" stroke="#191970" points="102.4863,-18.6496 91.9084,-18.0509 99.8042,-25.1154 102.4863,-18.6496"/>
</g>
<!-- Node6&#45;&gt;Node3 -->
<g id="edge7" class="edge">
<title>Node6&#45;&gt;Node3</title>
<path fill="none" stroke="#191970" d="M194.2618,-56.2455C182.819,-47.814 166.0704,-35.4729 152.7525,-25.6598"/>
<polygon fill="#191970" stroke="#191970" points="154.7133,-22.757 144.5865,-19.6427 150.5609,-28.3924 154.7133,-22.757"/>
</g>
<!-- Node7 -->
<g id="node8" class="node">
<title>Node7</title>
<polygon fill="none" stroke="#bfbfbf" points="506.5,-.5 506.5,-19.5 564.5,-19.5 564.5,-.5 506.5,-.5"/>
<text text-anchor="middle" x="535.5" y="-7.5" font-family="Helvetica,sans-Serif" font-size="10.00" fill="#000000">memory</text>
</g>
<!-- Node6&#45;&gt;Node7 -->
<g id="edge8" class="edge">
<title>Node6&#45;&gt;Node7</title>
<path fill="none" stroke="#191970" d="M255.5963,-57.6436C258.9469,-57.0811 262.2732,-56.5285 265.5,-56 365.3558,-39.6455 393.656,-41.192 496.2798,-20.0974"/>
<polygon fill="#191970" stroke="#191970" points="497.0339,-23.5156 506.1128,-18.0544 495.6099,-16.6619 497.0339,-23.5156"/>
</g>
<!-- Node8 -->
<g id="node9" class="node">
<title>Node8</title>
<polygon fill="none" stroke="#bfbfbf" points="171.5,-.5 171.5,-19.5 231.5,-19.5 231.5,-.5 171.5,-.5"/>
<text text-anchor="middle" x="201.5" y="-7.5" font-family="Helvetica,sans-Serif" font-size="10.00" fill="#000000">iostream</text>
</g>
<!-- Node6&#45;&gt;Node8 -->
<g id="edge9" class="edge">
<title>Node6&#45;&gt;Node8</title>
<path fill="none" stroke="#191970" d="M206.4549,-56.2455C205.672,-48.9382 204.5744,-38.6944 203.6112,-29.7046"/>
<polygon fill="#191970" stroke="#191970" points="207.0786,-29.2129 202.5331,-19.6427 200.1185,-29.9587 207.0786,-29.2129"/>
</g>
<!-- Node9 -->
<g id="node10" class="node">
<title>Node9</title>
<polygon fill="none" stroke="#bfbfbf" points="250,-.5 250,-19.5 315,-19.5 315,-.5 250,-.5"/>
<text text-anchor="middle" x="282.5" y="-7.5" font-family="Helvetica,sans-Serif" font-size="10.00" fill="#000000">curl/curl.h</text>
</g>
<!-- Node6&#45;&gt;Node9 -->
<g id="edge11" class="edge">
<title>Node6&#45;&gt;Node9</title>
<path fill="none" stroke="#191970" d="M220.564,-56.2455C231.8562,-47.814 248.3845,-35.4729 261.5271,-25.6598"/>
<polygon fill="#191970" stroke="#191970" points="263.6669,-28.4301 269.5857,-19.6427 259.4789,-22.8211 263.6669,-28.4301"/>
</g>
<!-- Node10 -->
<g id="node11" class="node">
<title>Node10</title>
<polygon fill="none" stroke="#bfbfbf" points="333,-.5 333,-19.5 396,-19.5 396,-.5 333,-.5"/>
<text text-anchor="middle" x="364.5" y="-7.5" font-family="Helvetica,sans-Serif" font-size="10.00" fill="#000000">TObject.h</text>
</g>
<!-- Node6&#45;&gt;Node10 -->
<g id="edge12" class="edge">
<title>Node6&#45;&gt;Node10</title>
<path fill="none" stroke="#191970" d="M234.4893,-56.3733C260.3699,-47.1419 299.6248,-33.1402 328.2289,-22.9375"/>
<polygon fill="#191970" stroke="#191970" points="329.62,-26.1573 337.8629,-19.5011 327.2683,-19.5642 329.62,-26.1573"/>
</g>
<!-- Node11 -->
<g id="node12" class="node">
<title>Node11</title>
<polygon fill="none" stroke="#bfbfbf" points="414.5,-.5 414.5,-19.5 488.5,-19.5 488.5,-.5 414.5,-.5"/>
<text text-anchor="middle" x="451.5" y="-7.5" font-family="Helvetica,sans-Serif" font-size="10.00" fill="#000000">TMessage.h</text>
</g>
<!-- Node6&#45;&gt;Node11 -->
<g id="edge13" class="edge">
<title>Node6&#45;&gt;Node11</title>
<path fill="none" stroke="#191970" d="M249.1679,-56.4369C292.3185,-46.5335 359.6051,-31.0906 404.5947,-20.7652"/>
<polygon fill="#191970" stroke="#191970" points="405.436,-24.1631 414.3997,-18.5148 403.8701,-17.3405 405.436,-24.1631"/>
</g>
</g>
</svg>
