<?xml version="1.0" encoding="UTF-8" standalone="no"?>
<!DOCTYPE svg PUBLIC "-//W3C//DTD SVG 1.1//EN"
 "http://www.w3.org/Graphics/SVG/1.1/DTD/svg11.dtd">
<!-- Generated by graphviz version 2.40.1 (20161225.0304)
 -->
<!-- Title: /home/travis/build/AliceO2Group/AliceO2/Framework/Utils/include/DPLUtils/MakeRootTreeWriterSpec.h Pages: 1 -->
<!--zoomable 239 -->
<svg id="main" version="1.1" xmlns="http://www.w3.org/2000/svg" xmlns:xlink="http://www.w3.org/1999/xlink" xml:space="preserve" onload="init(evt)">
<style type="text/css"><![CDATA[
.edge:hover path { stroke: red; }
.edge:hover polygon { stroke: red; fill: red; }
]]></style>
<script type="text/javascript"><![CDATA[
var edges = document.getElementsByTagName('g');
if (edges && edges.length) {
  for (var i=0;i<edges.length;i++) {
    if (edges[i].id.substr(0,4)=='edge') {
      edges[i].setAttribute('class','edge');
    }
  }
}
]]></script>
        <defs>
                <circle id="rim" cx="0" cy="0" r="7"/>
                <circle id="rim2" cx="0" cy="0" r="3.5"/>
                <g id="zoomPlus">
                        <use xlink:href="#rim" fill="#404040">
                                <set attributeName="fill" to="#808080" begin="zoomplus.mouseover" end="zoomplus.mouseout"/>
                        </use>
                        <path d="M-4,0h8M0,-4v8" fill="none" stroke="white" stroke-width="1.5" pointer-events="none"/>
                </g>
                <g id="zoomMin">
                        <use xlink:href="#rim" fill="#404040">
                                <set attributeName="fill" to="#808080" begin="zoomminus.mouseover" end="zoomminus.mouseout"/>
                        </use>
                        <path d="M-4,0h8" fill="none" stroke="white" stroke-width="1.5" pointer-events="none"/>
                </g>
                <g id="dirArrow">
                        <path fill="none" stroke="white" stroke-width="1.5" d="M0,-3.0v7 M-2.5,-0.5L0,-3.0L2.5,-0.5"/>
                </g>
               <g id="resetDef">
                       <use xlink:href="#rim2" fill="#404040">
                               <set attributeName="fill" to="#808080" begin="reset.mouseover" end="reset.mouseout"/>
                       </use>
               </g>
        </defs>

<script type="text/javascript">
var viewWidth = 2500;
var viewHeight = 239;
var sectionId = 'dynsection-1';
</script>
<script xlink:href="../../svgpan.js"/>
<svg id="graph" class="graph">
<g id="viewport">
<title>/home/travis/build/AliceO2Group/AliceO2/Framework/Utils/include/DPLUtils/MakeRootTreeWriterSpec.h</title>
<!-- Node139 -->
<g id="node1" class="node">
<title>Node139</title>
<polygon fill="#bfbfbf" stroke="#000000" points="1184.5,-178.5 1184.5,-230.5 1377.5,-230.5 1377.5,-178.5 1184.5,-178.5"/>
<text text-anchor="start" x="1192.5" y="-218.5" font-family="Helvetica,sans-Serif" font-size="10.00" fill="#000000">/home/travis/build</text>
<text text-anchor="start" x="1192.5" y="-207.5" font-family="Helvetica,sans-Serif" font-size="10.00" fill="#000000">/AliceO2Group/AliceO2</text>
<text text-anchor="start" x="1192.5" y="-196.5" font-family="Helvetica,sans-Serif" font-size="10.00" fill="#000000">/Framework/Utils/include</text>
<text text-anchor="middle" x="1281" y="-185.5" font-family="Helvetica,sans-Serif" font-size="10.00" fill="#000000">/DPLUtils/MakeRootTreeWriterSpec.h</text>
</g>
<!-- Node140 -->
<g id="node2" class="node">
<title>Node140</title>
<g id="a_node2"><a xlink:href="../../d2/dbf/EMCAL_2workflow_2src_2RecoWorkflow_8cxx.html" target="_top" xlink:title="/home/travis/build\l/AliceO2Group/AliceO2\l/Detectors/EMCAL/workflow\l/src/RecoWorkflow.cxx">
<polygon fill="none" stroke="#000000" points="0,-89.5 0,-141.5 150,-141.5 150,-89.5 0,-89.5"/>
<text text-anchor="start" x="8" y="-129.5" font-family="Helvetica,sans-Serif" font-size="10.00" fill="#000000">/home/travis/build</text>
<text text-anchor="start" x="8" y="-118.5" font-family="Helvetica,sans-Serif" font-size="10.00" fill="#000000">/AliceO2Group/AliceO2</text>
<text text-anchor="start" x="8" y="-107.5" font-family="Helvetica,sans-Serif" font-size="10.00" fill="#000000">/Detectors/EMCAL/workflow</text>
<text text-anchor="middle" x="75" y="-96.5" font-family="Helvetica,sans-Serif" font-size="10.00" fill="#000000">/src/RecoWorkflow.cxx</text>
</a>
</g>
</g>
<!-- Node139&#45;&gt;Node140 -->
<g id="edge1" class="edge">
<title>Node139&#45;&gt;Node140</title>
<path fill="none" stroke="#191970" d="M1174.1079,-201.9496C932.7757,-195.639 351.7499,-177.1981 159,-142 156.1418,-141.4781 153.2452,-140.8876 150.3316,-140.2417"/>
<polygon fill="#191970" stroke="#191970" points="1174.2072,-205.4532 1184.2947,-202.214 1174.3889,-198.4556 1174.2072,-205.4532"/>
</g>
<!-- Node141 -->
<g id="node3" class="node">
<title>Node141</title>
<g id="a_node3"><a xlink:href="../../d2/de0/MUON_2MID_2Workflow_2src_2RecoWorkflow_8cxx.html" target="_top" xlink:title="Definition of MID reconstruction workflow. ">
<polygon fill="none" stroke="#000000" points="168,-89.5 168,-141.5 338,-141.5 338,-89.5 168,-89.5"/>
<text text-anchor="start" x="176" y="-129.5" font-family="Helvetica,sans-Serif" font-size="10.00" fill="#000000">/home/travis/build</text>
<text text-anchor="start" x="176" y="-118.5" font-family="Helvetica,sans-Serif" font-size="10.00" fill="#000000">/AliceO2Group/AliceO2</text>
<text text-anchor="start" x="176" y="-107.5" font-family="Helvetica,sans-Serif" font-size="10.00" fill="#000000">/Detectors/MUON/MID/Workflow</text>
<text text-anchor="middle" x="253" y="-96.5" font-family="Helvetica,sans-Serif" font-size="10.00" fill="#000000">/src/RecoWorkflow.cxx</text>
</a>
</g>
</g>
<!-- Node139&#45;&gt;Node141 -->
<g id="edge2" class="edge">
<title>Node139&#45;&gt;Node141</title>
<path fill="none" stroke="#191970" d="M1174.355,-200.1575C964.1779,-191.139 503.2899,-168.957 347,-142 344.076,-141.4957 341.1124,-140.9364 338.1285,-140.3322"/>
<polygon fill="#191970" stroke="#191970" points="1174.3369,-203.6599 1184.4772,-200.59 1174.6357,-196.6662 1174.3369,-203.6599"/>
</g>
<!-- Node142 -->
<g id="node4" class="node">
<title>Node142</title>
<g id="a_node4"><a xlink:href="../../dd/d65/RecoWorkflowMC_8cxx.html" target="_top" xlink:title="Definition of MID reconstruction workflow for MC. ">
<polygon fill="none" stroke="#000000" points="356,-89.5 356,-141.5 526,-141.5 526,-89.5 356,-89.5"/>
<text text-anchor="start" x="364" y="-129.5" font-family="Helvetica,sans-Serif" font-size="10.00" fill="#000000">/home/travis/build</text>
<text text-anchor="start" x="364" y="-118.5" font-family="Helvetica,sans-Serif" font-size="10.00" fill="#000000">/AliceO2Group/AliceO2</text>
<text text-anchor="start" x="364" y="-107.5" font-family="Helvetica,sans-Serif" font-size="10.00" fill="#000000">/Detectors/MUON/MID/Workflow</text>
<text text-anchor="middle" x="441" y="-96.5" font-family="Helvetica,sans-Serif" font-size="10.00" fill="#000000">/src/RecoWorkflowMC.cxx</text>
</a>
</g>
</g>
<!-- Node139&#45;&gt;Node142 -->
<g id="edge3" class="edge">
<title>Node139&#45;&gt;Node142</title>
<path fill="none" stroke="#191970" d="M1173.9822,-201.9501C1028.3544,-197.0252 760.1132,-182.774 535,-142 532.0803,-141.4712 529.1205,-140.8908 526.1397,-140.2684"/>
<polygon fill="#191970" stroke="#191970" points="1174.1433,-205.4572 1184.2532,-202.2888 1174.374,-198.461 1174.1433,-205.4572"/>
</g>
<!-- Node143 -->
<g id="node5" class="node">
<title>Node143</title>
<g id="a_node5"><a xlink:href="../../d8/d7e/PHOS_2workflow_2src_2RecoWorkflow_8cxx.html" target="_top" xlink:title="/home/travis/build\l/AliceO2Group/AliceO2\l/Detectors/PHOS/workflow\l/src/RecoWorkflow.cxx">
<polygon fill="none" stroke="#000000" points="544,-89.5 544,-141.5 688,-141.5 688,-89.5 544,-89.5"/>
<text text-anchor="start" x="552" y="-129.5" font-family="Helvetica,sans-Serif" font-size="10.00" fill="#000000">/home/travis/build</text>
<text text-anchor="start" x="552" y="-118.5" font-family="Helvetica,sans-Serif" font-size="10.00" fill="#000000">/AliceO2Group/AliceO2</text>
<text text-anchor="start" x="552" y="-107.5" font-family="Helvetica,sans-Serif" font-size="10.00" fill="#000000">/Detectors/PHOS/workflow</text>
<text text-anchor="middle" x="616" y="-96.5" font-family="Helvetica,sans-Serif" font-size="10.00" fill="#000000">/src/RecoWorkflow.cxx</text>
</a>
</g>
</g>
<!-- Node139&#45;&gt;Node143 -->
<g id="edge4" class="edge">
<title>Node139&#45;&gt;Node143</title>
<path fill="none" stroke="#191970" d="M1174.3183,-199.7978C1056.4202,-193.0511 861.4443,-177.2908 697,-142 694.1067,-141.3791 691.1711,-140.6934 688.2174,-139.957"/>
<polygon fill="#191970" stroke="#191970" points="1174.2474,-203.2993 1184.4278,-200.3651 1174.6396,-196.3103 1174.2474,-203.2993"/>
</g>
<!-- Node144 -->
<g id="node6" class="node">
<title>Node144</title>
<g id="a_node6"><a xlink:href="../../d0/d80/TPC_2workflow_2src_2RecoWorkflow_8cxx.html" target="_top" xlink:title="/home/travis/build\l/AliceO2Group/AliceO2\l/Detectors/TPC/workflow\l/src/RecoWorkflow.cxx">
<polygon fill="none" stroke="#000000" points="706,-89.5 706,-141.5 842,-141.5 842,-89.5 706,-89.5"/>
<text text-anchor="start" x="714" y="-129.5" font-family="Helvetica,sans-Serif" font-size="10.00" fill="#000000">/home/travis/build</text>
<text text-anchor="start" x="714" y="-118.5" font-family="Helvetica,sans-Serif" font-size="10.00" fill="#000000">/AliceO2Group/AliceO2</text>
<text text-anchor="start" x="714" y="-107.5" font-family="Helvetica,sans-Serif" font-size="10.00" fill="#000000">/Detectors/TPC/workflow</text>
<text text-anchor="middle" x="774" y="-96.5" font-family="Helvetica,sans-Serif" font-size="10.00" fill="#000000">/src/RecoWorkflow.cxx</text>
</a>
</g>
</g>
<!-- Node139&#45;&gt;Node144 -->
<g id="edge5" class="edge">
<title>Node139&#45;&gt;Node144</title>
<path fill="none" stroke="#191970" d="M1174.4201,-194.6176C1086.7559,-185.1537 959.7116,-168.3615 851,-142 848.1147,-141.3003 845.1847,-140.5372 842.2366,-139.7256"/>
<polygon fill="#191970" stroke="#191970" points="1174.0622,-198.0992 1184.377,-195.6793 1174.8045,-191.1386 1174.0622,-198.0992"/>
</g>
<!-- Node145 -->
<g id="node7" class="node">
<title>Node145</title>
<g id="a_node7"><a xlink:href="../../da/dcf/test__RootTreeWriter_8cxx.html" target="_top" xlink:title="/home/travis/build\l/AliceO2Group/AliceO2\l/Framework/Utils/test\l/test_RootTreeWriter.cxx">
<polygon fill="none" stroke="#000000" points="860,-89.5 860,-141.5 994,-141.5 994,-89.5 860,-89.5"/>
<text text-anchor="start" x="868" y="-129.5" font-family="Helvetica,sans-Serif" font-size="10.00" fill="#000000">/home/travis/build</text>
<text text-anchor="start" x="868" y="-118.5" font-family="Helvetica,sans-Serif" font-size="10.00" fill="#000000">/AliceO2Group/AliceO2</text>
<text text-anchor="start" x="868" y="-107.5" font-family="Helvetica,sans-Serif" font-size="10.00" fill="#000000">/Framework/Utils/test</text>
<text text-anchor="middle" x="927" y="-96.5" font-family="Helvetica,sans-Serif" font-size="10.00" fill="#000000">/test_RootTreeWriter.cxx</text>
</a>
</g>
</g>
<!-- Node139&#45;&gt;Node145 -->
<g id="edge6" class="edge">
<title>Node139&#45;&gt;Node145</title>
<path fill="none" stroke="#191970" d="M1174.3362,-183.289C1122.5759,-172.2717 1059.691,-157.8146 1004,-142 1000.736,-141.0731 997.4073,-140.0871 994.0546,-139.0612"/>
<polygon fill="#191970" stroke="#191970" points="1173.6925,-186.7302 1184.2004,-185.3757 1175.1413,-179.8818 1173.6925,-186.7302"/>
</g>
<!-- Node146 -->
<g id="node8" class="node">
<title>Node146</title>
<g id="a_node8"><a xlink:href="../../d1/d02/test__RootTreeWriterWorkflow_8cxx.html" target="_top" xlink:title="/home/travis/build\l/AliceO2Group/AliceO2\l/Framework/Utils/test\l/test_RootTreeWriterWorkflow.cxx">
<polygon fill="none" stroke="#000000" points="1012.5,-89.5 1012.5,-141.5 1191.5,-141.5 1191.5,-89.5 1012.5,-89.5"/>
<text text-anchor="start" x="1020.5" y="-129.5" font-family="Helvetica,sans-Serif" font-size="10.00" fill="#000000">/home/travis/build</text>
<text text-anchor="start" x="1020.5" y="-118.5" font-family="Helvetica,sans-Serif" font-size="10.00" fill="#000000">/AliceO2Group/AliceO2</text>
<text text-anchor="start" x="1020.5" y="-107.5" font-family="Helvetica,sans-Serif" font-size="10.00" fill="#000000">/Framework/Utils/test</text>
<text text-anchor="middle" x="1102" y="-96.5" font-family="Helvetica,sans-Serif" font-size="10.00" fill="#000000">/test_RootTreeWriterWorkflow.cxx</text>
</a>
</g>
</g>
<!-- Node139&#45;&gt;Node146 -->
<g id="edge7" class="edge">
<title>Node139&#45;&gt;Node146</title>
<path fill="none" stroke="#191970" d="M1219.0658,-173.7059C1197.9768,-163.2203 1174.6249,-151.6096 1154.3608,-141.5341"/>
<polygon fill="#191970" stroke="#191970" points="1217.7497,-176.9603 1228.2622,-178.2784 1220.8662,-170.6923 1217.7497,-176.9603"/>
</g>
<!-- Node147 -->
<g id="node9" class="node">
<title>Node147</title>
<g id="a_node9"><a xlink:href="../../d8/dcd/FDDDigitWriterSpec_8h.html" target="_top" xlink:title="/home/travis/build\l/AliceO2Group/AliceO2\l/Steer/DigitizerWorkflow\l/src/FDDDigitWriterSpec.h">
<polygon fill="none" stroke="#000000" points="1210,-89.5 1210,-141.5 1352,-141.5 1352,-89.5 1210,-89.5"/>
<text text-anchor="start" x="1218" y="-129.5" font-family="Helvetica,sans-Serif" font-size="10.00" fill="#000000">/home/travis/build</text>
<text text-anchor="start" x="1218" y="-118.5" font-family="Helvetica,sans-Serif" font-size="10.00" fill="#000000">/AliceO2Group/AliceO2</text>
<text text-anchor="start" x="1218" y="-107.5" font-family="Helvetica,sans-Serif" font-size="10.00" fill="#000000">/Steer/DigitizerWorkflow</text>
<text text-anchor="middle" x="1281" y="-96.5" font-family="Helvetica,sans-Serif" font-size="10.00" fill="#000000">/src/FDDDigitWriterSpec.h</text>
</a>
</g>
</g>
<!-- Node139&#45;&gt;Node147 -->
<g id="edge8" class="edge">
<title>Node139&#45;&gt;Node147</title>
<path fill="none" stroke="#191970" d="M1281,-168.1155C1281,-159.2061 1281,-149.8475 1281,-141.5341"/>
<polygon fill="#191970" stroke="#191970" points="1277.5001,-168.2784 1281,-178.2784 1284.5001,-168.2785 1277.5001,-168.2784"/>
</g>
<!-- Node149 -->
<g id="node11" class="node">
<title>Node149</title>
<g id="a_node11"><a xlink:href="../../d3/d12/FV0DigitWriterSpec_8h.html" target="_top" xlink:title="/home/travis/build\l/AliceO2Group/AliceO2\l/Steer/DigitizerWorkflow\l/src/FV0DigitWriterSpec.h">
<polygon fill="none" stroke="#000000" points="1370,-89.5 1370,-141.5 1510,-141.5 1510,-89.5 1370,-89.5"/>
<text text-anchor="start" x="1378" y="-129.5" font-family="Helvetica,sans-Serif" font-size="10.00" fill="#000000">/home/travis/build</text>
<text text-anchor="start" x="1378" y="-118.5" font-family="Helvetica,sans-Serif" font-size="10.00" fill="#000000">/AliceO2Group/AliceO2</text>
<text text-anchor="start" x="1378" y="-107.5" font-family="Helvetica,sans-Serif" font-size="10.00" fill="#000000">/Steer/DigitizerWorkflow</text>
<text text-anchor="middle" x="1440" y="-96.5" font-family="Helvetica,sans-Serif" font-size="10.00" fill="#000000">/src/FV0DigitWriterSpec.h</text>
</a>
</g>
</g>
<!-- Node139&#45;&gt;Node149 -->
<g id="edge10" class="edge">
<title>Node139&#45;&gt;Node149</title>
<path fill="none" stroke="#191970" d="M1336.7712,-173.2821C1355.3045,-162.9082 1375.7318,-151.4741 1393.4896,-141.5341"/>
<polygon fill="#191970" stroke="#191970" points="1334.8617,-170.3399 1327.8453,-178.2784 1338.2808,-176.4481 1334.8617,-170.3399"/>
</g>
<!-- Node150 -->
<g id="node12" class="node">
<title>Node150</title>
<g id="a_node12"><a xlink:href="../../d5/d5b/HMPIDDigitWriterSpec_8h.html" target="_top" xlink:title="/home/travis/build\l/AliceO2Group/AliceO2\l/Steer/DigitizerWorkflow\l/src/HMPIDDigitWriterSpec.h">
<polygon fill="none" stroke="#000000" points="1528,-89.5 1528,-141.5 1682,-141.5 1682,-89.5 1528,-89.5"/>
<text text-anchor="start" x="1536" y="-129.5" font-family="Helvetica,sans-Serif" font-size="10.00" fill="#000000">/home/travis/build</text>
<text text-anchor="start" x="1536" y="-118.5" font-family="Helvetica,sans-Serif" font-size="10.00" fill="#000000">/AliceO2Group/AliceO2</text>
<text text-anchor="start" x="1536" y="-107.5" font-family="Helvetica,sans-Serif" font-size="10.00" fill="#000000">/Steer/DigitizerWorkflow</text>
<text text-anchor="middle" x="1605" y="-96.5" font-family="Helvetica,sans-Serif" font-size="10.00" fill="#000000">/src/HMPIDDigitWriterSpec.h</text>
</a>
</g>
</g>
<!-- Node139&#45;&gt;Node150 -->
<g id="edge12" class="edge">
<title>Node139&#45;&gt;Node150</title>
<path fill="none" stroke="#191970" d="M1387.4373,-177.5702C1428.6372,-166.8792 1476.118,-154.2315 1519,-142 1521.8546,-141.1858 1524.7592,-140.3464 1527.6906,-139.4902"/>
<polygon fill="#191970" stroke="#191970" points="1386.4589,-174.2081 1377.6551,-180.1026 1388.2132,-180.9847 1386.4589,-174.2081"/>
</g>
<!-- Node151 -->
<g id="node13" class="node">
<title>Node151</title>
<g id="a_node13"><a xlink:href="../../d8/d60/MCHDigitWriterSpec_8h.html" target="_top" xlink:title="/home/travis/build\l/AliceO2Group/AliceO2\l/Steer/DigitizerWorkflow\l/src/MCHDigitWriterSpec.h">
<polygon fill="none" stroke="#000000" points="1700,-89.5 1700,-141.5 1844,-141.5 1844,-89.5 1700,-89.5"/>
<text text-anchor="start" x="1708" y="-129.5" font-family="Helvetica,sans-Serif" font-size="10.00" fill="#000000">/home/travis/build</text>
<text text-anchor="start" x="1708" y="-118.5" font-family="Helvetica,sans-Serif" font-size="10.00" fill="#000000">/AliceO2Group/AliceO2</text>
<text text-anchor="start" x="1708" y="-107.5" font-family="Helvetica,sans-Serif" font-size="10.00" fill="#000000">/Steer/DigitizerWorkflow</text>
<text text-anchor="middle" x="1772" y="-96.5" font-family="Helvetica,sans-Serif" font-size="10.00" fill="#000000">/src/MCHDigitWriterSpec.h</text>
</a>
</g>
</g>
<!-- Node139&#45;&gt;Node151 -->
<g id="edge14" class="edge">
<title>Node139&#45;&gt;Node151</title>
<path fill="none" stroke="#191970" d="M1387.5281,-193.1482C1470.8327,-183.0996 1589.1953,-166.2378 1691,-142 1693.8787,-141.3146 1696.802,-140.5746 1699.7454,-139.7926"/>
<polygon fill="#191970" stroke="#191970" points="1387.0608,-189.679 1377.5462,-194.3399 1387.8907,-196.6297 1387.0608,-189.679"/>
</g>
<!-- Node152 -->
<g id="node14" class="node">
<title>Node152</title>
<g id="a_node14"><a xlink:href="../../d9/d65/MIDDigitWriterSpec_8h.html" target="_top" xlink:title="/home/travis/build\l/AliceO2Group/AliceO2\l/Steer/DigitizerWorkflow\l/src/MIDDigitWriterSpec.h">
<polygon fill="none" stroke="#000000" points="1862,-89.5 1862,-141.5 2002,-141.5 2002,-89.5 1862,-89.5"/>
<text text-anchor="start" x="1870" y="-129.5" font-family="Helvetica,sans-Serif" font-size="10.00" fill="#000000">/home/travis/build</text>
<text text-anchor="start" x="1870" y="-118.5" font-family="Helvetica,sans-Serif" font-size="10.00" fill="#000000">/AliceO2Group/AliceO2</text>
<text text-anchor="start" x="1870" y="-107.5" font-family="Helvetica,sans-Serif" font-size="10.00" fill="#000000">/Steer/DigitizerWorkflow</text>
<text text-anchor="middle" x="1932" y="-96.5" font-family="Helvetica,sans-Serif" font-size="10.00" fill="#000000">/src/MIDDigitWriterSpec.h</text>
</a>
</g>
</g>
<!-- Node139&#45;&gt;Node152 -->
<g id="edge16" class="edge">
<title>Node139&#45;&gt;Node152</title>
<path fill="none" stroke="#191970" d="M1387.9378,-199.6813C1503.6887,-192.8778 1693.1742,-177.1099 1853,-142 1855.8259,-141.3792 1858.6924,-140.6937 1861.576,-139.9573"/>
<polygon fill="#191970" stroke="#191970" points="1387.4438,-196.2039 1377.6616,-200.2731 1387.8463,-203.1923 1387.4438,-196.2039"/>
</g>
<!-- Node153 -->
<g id="node15" class="node">
<title>Node153</title>
<g id="a_node15"><a xlink:href="../../d4/d33/PHOSDigitWriterSpec_8h.html" target="_top" xlink:title="/home/travis/build\l/AliceO2Group/AliceO2\l/Steer/DigitizerWorkflow\l/src/PHOSDigitWriterSpec.h">
<polygon fill="none" stroke="#000000" points="2020.5,-89.5 2020.5,-141.5 2169.5,-141.5 2169.5,-89.5 2020.5,-89.5"/>
<text text-anchor="start" x="2028.5" y="-129.5" font-family="Helvetica,sans-Serif" font-size="10.00" fill="#000000">/home/travis/build</text>
<text text-anchor="start" x="2028.5" y="-118.5" font-family="Helvetica,sans-Serif" font-size="10.00" fill="#000000">/AliceO2Group/AliceO2</text>
<text text-anchor="start" x="2028.5" y="-107.5" font-family="Helvetica,sans-Serif" font-size="10.00" fill="#000000">/Steer/DigitizerWorkflow</text>
<text text-anchor="middle" x="2095" y="-96.5" font-family="Helvetica,sans-Serif" font-size="10.00" fill="#000000">/src/PHOSDigitWriterSpec.h</text>
</a>
</g>
</g>
<!-- Node139&#45;&gt;Node153 -->
<g id="edge18" class="edge">
<title>Node139&#45;&gt;Node153</title>
<path fill="none" stroke="#191970" d="M1387.7162,-198.2614C1560.7035,-187.6604 1894.7009,-165.0308 2011,-142 2014.0001,-141.4059 2017.0441,-140.7429 2020.1069,-140.0253"/>
<polygon fill="#191970" stroke="#191970" points="1387.3411,-194.7777 1377.573,-198.8805 1387.7677,-201.7647 1387.3411,-194.7777"/>
</g>
<!-- Node154 -->
<g id="node16" class="node">
<title>Node154</title>
<g id="a_node16"><a xlink:href="../../da/d27/TRDDigitWriterSpec_8h.html" target="_top" xlink:title="/home/travis/build\l/AliceO2Group/AliceO2\l/Steer/DigitizerWorkflow\l/src/TRDDigitWriterSpec.h">
<polygon fill="none" stroke="#000000" points="2188,-89.5 2188,-141.5 2330,-141.5 2330,-89.5 2188,-89.5"/>
<text text-anchor="start" x="2196" y="-129.5" font-family="Helvetica,sans-Serif" font-size="10.00" fill="#000000">/home/travis/build</text>
<text text-anchor="start" x="2196" y="-118.5" font-family="Helvetica,sans-Serif" font-size="10.00" fill="#000000">/AliceO2Group/AliceO2</text>
<text text-anchor="start" x="2196" y="-107.5" font-family="Helvetica,sans-Serif" font-size="10.00" fill="#000000">/Steer/DigitizerWorkflow</text>
<text text-anchor="middle" x="2259" y="-96.5" font-family="Helvetica,sans-Serif" font-size="10.00" fill="#000000">/src/TRDDigitWriterSpec.h</text>
</a>
</g>
</g>
<!-- Node139&#45;&gt;Node154 -->
<g id="edge20" class="edge">
<title>Node139&#45;&gt;Node154</title>
<path fill="none" stroke="#191970" d="M1387.798,-200.4192C1591.9245,-192.0656 2030.3853,-171.3036 2179,-142 2181.8709,-141.4339 2184.7816,-140.7945 2187.7082,-140.0968"/>
<polygon fill="#191970" stroke="#191970" points="1387.5122,-196.9278 1377.6628,-200.8316 1387.7969,-203.922 1387.5122,-196.9278"/>
</g>
<!-- Node155 -->
<g id="node17" class="node">
<title>Node155</title>
<g id="a_node17"><a xlink:href="../../d9/d31/ZDCDigitWriterSpec_8h.html" target="_top" xlink:title="/home/travis/build\l/AliceO2Group/AliceO2\l/Steer/DigitizerWorkflow\l/src/ZDCDigitWriterSpec.h">
<polygon fill="none" stroke="#000000" points="2348.5,-89.5 2348.5,-141.5 2491.5,-141.5 2491.5,-89.5 2348.5,-89.5"/>
<text text-anchor="start" x="2356.5" y="-129.5" font-family="Helvetica,sans-Serif" font-size="10.00" fill="#000000">/home/travis/build</text>
<text text-anchor="start" x="2356.5" y="-118.5" font-family="Helvetica,sans-Serif" font-size="10.00" fill="#000000">/AliceO2Group/AliceO2</text>
<text text-anchor="start" x="2356.5" y="-107.5" font-family="Helvetica,sans-Serif" font-size="10.00" fill="#000000">/Steer/DigitizerWorkflow</text>
<text text-anchor="middle" x="2420" y="-96.5" font-family="Helvetica,sans-Serif" font-size="10.00" fill="#000000">/src/ZDCDigitWriterSpec.h</text>
</a>
</g>
</g>
<!-- Node139&#45;&gt;Node155 -->
<g id="edge22" class="edge">
<title>Node139&#45;&gt;Node155</title>
<path fill="none" stroke="#191970" d="M1387.673,-201.679C1618.7011,-195.0022 2158.9829,-176.1721 2339,-142 2342.0526,-141.4205 2345.1495,-140.7578 2348.2628,-140.0294"/>
<polygon fill="#191970" stroke="#191970" points="1387.4722,-198.1832 1377.5767,-201.9687 1387.6731,-205.1804 1387.4722,-198.1832"/>
</g>
<!-- Node148 -->
<g id="node10" class="node">
<title>Node148</title>
<g id="a_node10"><a xlink:href="../../d2/dd7/SimpleDigitizerWorkflow_8cxx.html" target="_top" xlink:title="/home/travis/build\l/AliceO2Group/AliceO2\l/Steer/DigitizerWorkflow\l/src/SimpleDigitizerWorkflow.cxx">
<polygon fill="none" stroke="#000000" points="1764,-.5 1764,-52.5 1940,-52.5 1940,-.5 1764,-.5"/>
<text text-anchor="start" x="1772" y="-40.5" font-family="Helvetica,sans-Serif" font-size="10.00" fill="#000000">/home/travis/build</text>
<text text-anchor="start" x="1772" y="-29.5" font-family="Helvetica,sans-Serif" font-size="10.00" fill="#000000">/AliceO2Group/AliceO2</text>
<text text-anchor="start" x="1772" y="-18.5" font-family="Helvetica,sans-Serif" font-size="10.00" fill="#000000">/Steer/DigitizerWorkflow</text>
<text text-anchor="middle" x="1852" y="-7.5" font-family="Helvetica,sans-Serif" font-size="10.00" fill="#000000">/src/SimpleDigitizerWorkflow.cxx</text>
</a>
</g>
</g>
<!-- Node147&#45;&gt;Node148 -->
<g id="edge9" class="edge">
<title>Node147&#45;&gt;Node148</title>
<path fill="none" stroke="#191970" d="M1362.3043,-88.8698C1507.2689,-56.7122 1666.9857,-40.3868 1763.7438,-32.5692"/>
<polygon fill="#191970" stroke="#191970" points="1361.3244,-85.5027 1352.336,-91.1117 1362.8603,-92.3321 1361.3244,-85.5027"/>
</g>
<!-- Node149&#45;&gt;Node148 -->
<g id="edge11" class="edge">
<title>Node149&#45;&gt;Node148</title>
<path fill="none" stroke="#191970" d="M1519.9455,-88.8851C1607.9667,-66.4007 1698.8613,-50.1061 1763.9783,-39.615"/>
<polygon fill="#191970" stroke="#191970" points="1518.8662,-85.549 1510.0601,-91.4399 1520.6177,-92.3263 1518.8662,-85.549"/>
</g>
<!-- Node150&#45;&gt;Node148 -->
<g id="edge13" class="edge">
<title>Node150&#45;&gt;Node148</title>
<path fill="none" stroke="#191970" d="M1687.0143,-85.9483C1716.9357,-75.1669 1750.5331,-63.061 1779.5621,-52.6011"/>
<polygon fill="#191970" stroke="#191970" points="1685.6606,-82.7157 1677.4392,-89.3984 1688.0336,-89.3012 1685.6606,-82.7157"/>
</g>
<!-- Node151&#45;&gt;Node148 -->
<g id="edge15" class="edge">
<title>Node151&#45;&gt;Node148</title>
<path fill="none" stroke="#191970" d="M1802.3677,-81.7159C1811.0587,-72.0472 1820.3948,-61.6608 1828.5985,-52.5341"/>
<polygon fill="#191970" stroke="#191970" points="1799.652,-79.5015 1795.5699,-89.2784 1804.858,-84.1811 1799.652,-79.5015"/>
</g>
<!-- Node152&#45;&gt;Node148 -->
<g id="edge17" class="edge">
<title>Node152&#45;&gt;Node148</title>
<path fill="none" stroke="#191970" d="M1901.6323,-81.7159C1892.9413,-72.0472 1883.6052,-61.6608 1875.4015,-52.5341"/>
<polygon fill="#191970" stroke="#191970" points="1899.142,-84.1811 1908.4301,-89.2784 1904.348,-79.5015 1899.142,-84.1811"/>
</g>
<!-- Node153&#45;&gt;Node148 -->
<g id="edge19" class="edge">
<title>Node153&#45;&gt;Node148</title>
<path fill="none" stroke="#191970" d="M2014.3138,-85.9483C1984.877,-75.1669 1951.8237,-63.061 1923.2648,-52.6011"/>
<polygon fill="#191970" stroke="#191970" points="2013.1402,-89.2457 2023.7339,-89.3984 2015.5476,-82.6727 2013.1402,-89.2457"/>
</g>
<!-- Node154&#45;&gt;Node148 -->
<g id="edge21" class="edge">
<title>Node154&#45;&gt;Node148</title>
<path fill="none" stroke="#191970" d="M2177.73,-88.7868C2092.167,-66.9441 2003.8917,-50.7292 1940.1343,-40.1254"/>
<polygon fill="#191970" stroke="#191970" points="2177.0516,-92.2263 2187.609,-91.3373 2178.8015,-85.4485 2177.0516,-92.2263"/>
</g>
<!-- Node155&#45;&gt;Node148 -->
<g id="edge23" class="edge">
<title>Node155&#45;&gt;Node148</title>
<path fill="none" stroke="#191970" d="M2338.3048,-89.0193C2194.305,-57.2368 2036.4495,-40.7932 1940.4051,-32.8057"/>
<polygon fill="#191970" stroke="#191970" points="2337.6851,-92.4672 2348.208,-91.2345 2339.2132,-85.636 2337.6851,-92.4672"/>
</g>
</g>
</svg>
        <g id="navigator" transform="translate(0 0)" fill="#404254">
                <rect fill="#f2f5e9" fill-opacity="0.5" stroke="#606060" stroke-width=".5" x="0" y="0" width="60" height="60"/>
                <use id="zoomplus" xlink:href="#zoomPlus" x="17" y="9" onmousedown="handleZoom(evt,'in')"/>
                <use id="zoomminus" xlink:href="#zoomMin" x="42" y="9" onmousedown="handleZoom(evt,'out')"/>
                <use id="reset" xlink:href="#resetDef" x="30" y="36" onmousedown="handleReset()"/>
                <g id="arrowUp" xlink:href="#dirArrow" transform="translate(30 24)" onmousedown="handlePan(0,-1)">
                  <use xlink:href="#rim" fill="#404040">
                        <set attributeName="fill" to="#808080" begin="arrowUp.mouseover" end="arrowUp.mouseout"/>
                  </use>
                  <path fill="none" stroke="white" stroke-width="1.5" d="M0,-3.0v7 M-2.5,-0.5L0,-3.0L2.5,-0.5"/>
                </g>
                <g id="arrowRight" xlink:href="#dirArrow" transform="rotate(90) translate(36 -43)" onmousedown="handlePan(1,0)">
                  <use xlink:href="#rim" fill="#404040">
                        <set attributeName="fill" to="#808080" begin="arrowRight.mouseover" end="arrowRight.mouseout"/>
                  </use>
                  <path fill="none" stroke="white" stroke-width="1.5" d="M0,-3.0v7 M-2.5,-0.5L0,-3.0L2.5,-0.5"/>
                </g>
                <g id="arrowDown" xlink:href="#dirArrow" transform="rotate(180) translate(-30 -48)" onmousedown="handlePan(0,1)">
                  <use xlink:href="#rim" fill="#404040">
                        <set attributeName="fill" to="#808080" begin="arrowDown.mouseover" end="arrowDown.mouseout"/>
                  </use>
                  <path fill="none" stroke="white" stroke-width="1.5" d="M0,-3.0v7 M-2.5,-0.5L0,-3.0L2.5,-0.5"/>
                </g>
                <g id="arrowLeft" xlink:href="#dirArrow" transform="rotate(270) translate(-36 17)" onmousedown="handlePan(-1,0)">
                  <use xlink:href="#rim" fill="#404040">
                        <set attributeName="fill" to="#808080" begin="arrowLeft.mouseover" end="arrowLeft.mouseout"/>
                  </use>
                  <path fill="none" stroke="white" stroke-width="1.5" d="M0,-3.0v7 M-2.5,-0.5L0,-3.0L2.5,-0.5"/>
                </g>
        </g>
        <svg viewBox="0 0 15 15" width="100%" height="30px" preserveAspectRatio="xMaxYMin meet">
         <g id="arrow_out" transform="scale(0.3 0.3)">
          <a xlink:href="MakeRootTreeWriterSpec_8h__dep__incl_org.svg" target="_base">
           <rect id="button" ry="5" rx="5" y="6" x="6" height="38" width="38"
                fill="#f2f5e9" fill-opacity="0.5" stroke="#606060" stroke-width="1.0"/>
           <path id="arrow"
             d="M 11.500037,31.436501 C 11.940474,20.09759 22.043105,11.32322 32.158766,21.979434 L 37.068811,17.246167 C 37.068811,17.246167 37.088388,32 37.088388,32 L 22.160133,31.978069 C 22.160133,31.978069 26.997745,27.140456 26.997745,27.140456 C 18.528582,18.264221 13.291696,25.230495 11.500037,31.436501 z"
             style="fill:#404040;"/>
          </a>
         </g>
        </svg>
</svg>
