<?xml version="1.0" encoding="UTF-8" standalone="no"?>
<!DOCTYPE svg PUBLIC "-//W3C//DTD SVG 1.1//EN"
 "http://www.w3.org/Graphics/SVG/1.1/DTD/svg11.dtd">
<!-- Generated by graphviz version 2.40.1 (20161225.0304)
 -->
<!-- Title: /home/travis/build/AliceO2Group/AliceO2/Framework/Core/include/Framework/CompletionPolicyHelpers.h Pages: 1 -->
<svg width="468pt" height="229pt"
 viewBox="0.00 0.00 467.50 229.00" xmlns="http://www.w3.org/2000/svg" xmlns:xlink="http://www.w3.org/1999/xlink">
<g id="graph0" class="graph" transform="scale(1 1) rotate(0) translate(4 225)">
<title>/home/travis/build/AliceO2Group/AliceO2/Framework/Core/include/Framework/CompletionPolicyHelpers.h</title>
<!-- Node0 -->
<g id="node1" class="node">
<title>Node0</title>
<polygon fill="#bfbfbf" stroke="#000000" points="124.5,-168.5 124.5,-220.5 333.5,-220.5 333.5,-168.5 124.5,-168.5"/>
<text text-anchor="start" x="132.5" y="-208.5" font-family="Helvetica,sans-Serif" font-size="10.00" fill="#000000">/home/travis/build</text>
<text text-anchor="start" x="132.5" y="-197.5" font-family="Helvetica,sans-Serif" font-size="10.00" fill="#000000">/AliceO2Group/AliceO2</text>
<text text-anchor="start" x="132.5" y="-186.5" font-family="Helvetica,sans-Serif" font-size="10.00" fill="#000000">/Framework/Core/include</text>
<text text-anchor="middle" x="229" y="-175.5" font-family="Helvetica,sans-Serif" font-size="10.00" fill="#000000">/Framework/CompletionPolicyHelpers.h</text>
</g>
<!-- Node0&#45;&gt;Node0 -->
<g id="edge3" class="edge">
<title>Node0&#45;&gt;Node0</title>
<path fill="none" stroke="#191970" d="M333.5518,-205.6855C344.4905,-203.5019 351.5,-199.7734 351.5,-194.5 351.5,-191.0393 348.4813,-188.244 343.3144,-186.114"/>
<polygon fill="#191970" stroke="#191970" points="344.1292,-182.7067 333.5518,-183.3145 342.1996,-189.4355 344.1292,-182.7067"/>
</g>
<!-- Node1 -->
<g id="node2" class="node">
<title>Node1</title>
<g id="a_node2"><a xlink:href="../../d6/d72/ChannelSpec_8h.html" target="_top" xlink:title="Framework/ChannelSpec.h">
<polygon fill="none" stroke="#000000" points="0,-112.5 0,-131.5 146,-131.5 146,-112.5 0,-112.5"/>
<text text-anchor="middle" x="73" y="-119.5" font-family="Helvetica,sans-Serif" font-size="10.00" fill="#000000">Framework/ChannelSpec.h</text>
</a>
</g>
</g>
<!-- Node0&#45;&gt;Node1 -->
<g id="edge1" class="edge">
<title>Node0&#45;&gt;Node1</title>
<path fill="none" stroke="#191970" d="M172.6804,-168.3258C148.9801,-157.3112 122.3788,-144.9485 102.6212,-135.7663"/>
<polygon fill="#191970" stroke="#191970" points="104.0582,-132.5746 93.5145,-131.534 101.1079,-138.9226 104.0582,-132.5746"/>
</g>
<!-- Node2 -->
<g id="node3" class="node">
<title>Node2</title>
<polygon fill="none" stroke="#bfbfbf" points="58,-56.5 58,-75.5 102,-75.5 102,-56.5 58,-56.5"/>
<text text-anchor="middle" x="80" y="-63.5" font-family="Helvetica,sans-Serif" font-size="10.00" fill="#000000">string</text>
</g>
<!-- Node0&#45;&gt;Node2 -->
<g id="edge12" class="edge">
<title>Node0&#45;&gt;Node2</title>
<path fill="none" stroke="#191970" d="M208.7132,-168.1569C194.7278,-150.9917 175.0992,-128.7553 155,-112 140.5632,-99.9651 122.6776,-88.8722 107.9938,-80.5961"/>
<polygon fill="#191970" stroke="#191970" points="109.3244,-77.3336 98.8752,-75.5827 105.9519,-83.4676 109.3244,-77.3336"/>
</g>
<!-- Node3 -->
<g id="node4" class="node">
<title>Node3</title>
<g id="a_node4"><a xlink:href="../../df/dd6/CompletionPolicy_8h.html" target="_top" xlink:title="Framework/CompletionPolicy.h">
<polygon fill="none" stroke="#000000" points="201.5,-112.5 201.5,-131.5 368.5,-131.5 368.5,-112.5 201.5,-112.5"/>
<text text-anchor="middle" x="285" y="-119.5" font-family="Helvetica,sans-Serif" font-size="10.00" fill="#000000">Framework/CompletionPolicy.h</text>
</a>
</g>
</g>
<!-- Node0&#45;&gt;Node3 -->
<g id="edge4" class="edge">
<title>Node0&#45;&gt;Node3</title>
<path fill="none" stroke="#191970" d="M249.2173,-168.3258C256.565,-158.8132 264.6893,-148.2951 271.3371,-139.6886"/>
<polygon fill="#191970" stroke="#191970" points="274.2928,-141.5876 277.6358,-131.534 268.7529,-137.3085 274.2928,-141.5876"/>
</g>
<!-- Node6 -->
<g id="node7" class="node">
<title>Node6</title>
<polygon fill="none" stroke="#bfbfbf" points="394.5,-56.5 394.5,-75.5 459.5,-75.5 459.5,-56.5 394.5,-56.5"/>
<text text-anchor="middle" x="427" y="-63.5" font-family="Helvetica,sans-Serif" font-size="10.00" fill="#000000">functional</text>
</g>
<!-- Node0&#45;&gt;Node6 -->
<g id="edge11" class="edge">
<title>Node0&#45;&gt;Node6</title>
<path fill="none" stroke="#191970" d="M312.9557,-168.4293C335.4287,-159.0929 358.7903,-147.0529 378,-132 394.4283,-119.1266 408.0782,-99.4216 416.7625,-84.8921"/>
<polygon fill="#191970" stroke="#191970" points="420.0311,-86.2264 421.9545,-75.8076 413.9537,-82.753 420.0311,-86.2264"/>
</g>
<!-- Node1&#45;&gt;Node2 -->
<g id="edge2" class="edge">
<title>Node1&#45;&gt;Node2</title>
<path fill="none" stroke="#191970" d="M74.2193,-112.2455C75.1327,-104.9382 76.4132,-94.6944 77.5369,-85.7046"/>
<polygon fill="#191970" stroke="#191970" points="81.0272,-85.9996 78.7947,-75.6427 74.0813,-85.1313 81.0272,-85.9996"/>
</g>
<!-- Node3&#45;&gt;Node2 -->
<g id="edge8" class="edge">
<title>Node3&#45;&gt;Node2</title>
<path fill="none" stroke="#191970" d="M246.4782,-112.447C213.1825,-104.0494 163.5643,-91.2011 111.9618,-76.1824"/>
<polygon fill="#191970" stroke="#191970" points="112.8876,-72.8066 102.3069,-73.3535 110.9192,-79.5242 112.8876,-72.8066"/>
</g>
<!-- Node4 -->
<g id="node5" class="node">
<title>Node4</title>
<g id="a_node5"><a xlink:href="../../d9/d32/PartRef_8h.html" target="_top" xlink:title="Framework/PartRef.h">
<polygon fill="none" stroke="#000000" points="120,-56.5 120,-75.5 236,-75.5 236,-56.5 120,-56.5"/>
<text text-anchor="middle" x="178" y="-63.5" font-family="Helvetica,sans-Serif" font-size="10.00" fill="#000000">Framework/PartRef.h</text>
</a>
</g>
</g>
<!-- Node3&#45;&gt;Node4 -->
<g id="edge5" class="edge">
<title>Node3&#45;&gt;Node4</title>
<path fill="none" stroke="#191970" d="M266.362,-112.2455C249.5614,-103.4527 224.6366,-90.4079 205.5382,-80.4125"/>
<polygon fill="#191970" stroke="#191970" points="206.9073,-77.1787 196.4244,-75.6427 203.6614,-83.3807 206.9073,-77.1787"/>
</g>
<!-- Node3&#45;&gt;Node6 -->
<g id="edge7" class="edge">
<title>Node3&#45;&gt;Node6</title>
<path fill="none" stroke="#191970" d="M309.4107,-112.3733C332.6142,-103.2226 367.7038,-89.3844 393.5142,-79.2057"/>
<polygon fill="#191970" stroke="#191970" points="394.8892,-82.4258 402.9079,-75.5011 392.3211,-75.9139 394.8892,-82.4258"/>
</g>
<!-- Node7 -->
<g id="node8" class="node">
<title>Node7</title>
<polygon fill="none" stroke="#bfbfbf" points="254.5,-56.5 254.5,-75.5 301.5,-75.5 301.5,-56.5 254.5,-56.5"/>
<text text-anchor="middle" x="278" y="-63.5" font-family="Helvetica,sans-Serif" font-size="10.00" fill="#000000">vector</text>
</g>
<!-- Node3&#45;&gt;Node7 -->
<g id="edge9" class="edge">
<title>Node3&#45;&gt;Node7</title>
<path fill="none" stroke="#191970" d="M283.7807,-112.2455C282.8673,-104.9382 281.5868,-94.6944 280.4631,-85.7046"/>
<polygon fill="#191970" stroke="#191970" points="283.9187,-85.1313 279.2053,-75.6427 276.9728,-85.9996 283.9187,-85.1313"/>
</g>
<!-- Node8 -->
<g id="node9" class="node">
<title>Node8</title>
<polygon fill="none" stroke="#bfbfbf" points="319.5,-56.5 319.5,-75.5 376.5,-75.5 376.5,-56.5 319.5,-56.5"/>
<text text-anchor="middle" x="348" y="-63.5" font-family="Helvetica,sans-Serif" font-size="10.00" fill="#000000">gsl/span</text>
</g>
<!-- Node3&#45;&gt;Node8 -->
<g id="edge10" class="edge">
<title>Node3&#45;&gt;Node8</title>
<path fill="none" stroke="#191970" d="M295.9738,-112.2455C305.1882,-104.0549 318.5532,-92.1749 329.4297,-82.5069"/>
<polygon fill="#191970" stroke="#191970" points="332.0032,-84.9023 337.152,-75.6427 327.3526,-79.6704 332.0032,-84.9023"/>
</g>
<!-- Node5 -->
<g id="node6" class="node">
<title>Node5</title>
<polygon fill="none" stroke="#bfbfbf" points="149,-.5 149,-19.5 207,-19.5 207,-.5 149,-.5"/>
<text text-anchor="middle" x="178" y="-7.5" font-family="Helvetica,sans-Serif" font-size="10.00" fill="#000000">memory</text>
</g>
<!-- Node4&#45;&gt;Node5 -->
<g id="edge6" class="edge">
<title>Node4&#45;&gt;Node5</title>
<path fill="none" stroke="#191970" d="M178,-56.2455C178,-48.9382 178,-38.6944 178,-29.7046"/>
<polygon fill="#191970" stroke="#191970" points="181.5001,-29.6426 178,-19.6427 174.5001,-29.6427 181.5001,-29.6426"/>
</g>
</g>
</svg>
