<?xml version="1.0" encoding="UTF-8" standalone="no"?>
<!DOCTYPE svg PUBLIC "-//W3C//DTD SVG 1.1//EN"
 "http://www.w3.org/Graphics/SVG/1.1/DTD/svg11.dtd">
<!-- Generated by graphviz version 2.40.1 (20161225.0304)
 -->
<!-- Title: GPUCA_NAMESPACE::gpu::Array2D Pages: 1 -->
<svg width="148pt" height="303pt"
 viewBox="0.00 0.00 148.00 303.00" xmlns="http://www.w3.org/2000/svg" xmlns:xlink="http://www.w3.org/1999/xlink">
<g id="graph0" class="graph" transform="scale(1 1) rotate(0) translate(4 299)">
<title>GPUCA_NAMESPACE::gpu::Array2D</title>
<!-- Node1 -->
<g id="node1" class="node">
<title>Node1</title>
<polygon fill="#bfbfbf" stroke="#000000" points="0,-.5 0,-123.5 140,-123.5 140,-.5 0,-.5"/>
<text text-anchor="start" x="8" y="-111.5" font-family="Helvetica,sans-Serif" font-size="10.00" fill="#000000">GPUCA_NAMESPACE::gpu</text>
<text text-anchor="middle" x="70" y="-100.5" font-family="Helvetica,sans-Serif" font-size="10.00" fill="#000000">::Array2D</text>
<polyline fill="none" stroke="#000000" points="0,-93.5 140,-93.5 "/>
<text text-anchor="middle" x="70" y="-81.5" font-family="Helvetica,sans-Serif" font-size="10.00" fill="#000000"> </text>
<polyline fill="none" stroke="#000000" points="0,-74.5 140,-74.5 "/>
<text text-anchor="start" x="8" y="-62.5" font-family="Helvetica,sans-Serif" font-size="10.00" fill="#000000">+ return()</text>
<text text-anchor="start" x="8" y="-51.5" font-family="Helvetica,sans-Serif" font-size="10.00" fill="#000000">+ GPUdi()</text>
<text text-anchor="start" x="8" y="-40.5" font-family="Helvetica,sans-Serif" font-size="10.00" fill="#000000">+ GPUdi()</text>
<text text-anchor="start" x="8" y="-29.5" font-family="Helvetica,sans-Serif" font-size="10.00" fill="#000000">+ GPUdi()</text>
<text text-anchor="start" x="8" y="-18.5" font-family="Helvetica,sans-Serif" font-size="10.00" fill="#000000">+ GPUdi()</text>
<text text-anchor="start" x="8" y="-7.5" font-family="Helvetica,sans-Serif" font-size="10.00" fill="#000000">+ GPUdi()</text>
</g>
<!-- Node2 -->
<g id="node2" class="node">
<title>Node2</title>
<polygon fill="none" stroke="#bfbfbf" points="3.5,-237.5 3.5,-294.5 46.5,-294.5 46.5,-237.5 3.5,-237.5"/>
<text text-anchor="middle" x="25" y="-282.5" font-family="Helvetica,sans-Serif" font-size="10.00" fill="#000000">const</text>
<polyline fill="none" stroke="#bfbfbf" points="3.5,-275.5 46.5,-275.5 "/>
<text text-anchor="middle" x="25" y="-263.5" font-family="Helvetica,sans-Serif" font-size="10.00" fill="#000000"> </text>
<polyline fill="none" stroke="#bfbfbf" points="3.5,-256.5 46.5,-256.5 "/>
<text text-anchor="middle" x="25" y="-244.5" font-family="Helvetica,sans-Serif" font-size="10.00" fill="#000000"> </text>
</g>
<!-- Node2&#45;&gt;Node1 -->
<g id="edge1" class="edge">
<title>Node2&#45;&gt;Node1</title>
<path fill="none" stroke="#404040" d="M21.3134,-237.4103C18.9453,-211.9371 17.6769,-173.8697 26,-142 26.6008,-139.6995 27.2822,-137.3939 28.0328,-135.0918"/>
<polygon fill="none" stroke="#404040" points="28.1083,-134.8898 26.4615,-127.8693 32.3087,-123.649 33.9554,-130.6695 28.1083,-134.8898"/>
<text text-anchor="middle" x="60" y="-211" font-family="Helvetica,sans-Serif" font-size="10.00" fill="#000000"> +inTileTime</text>
<text text-anchor="middle" x="60" y="-200" font-family="Helvetica,sans-Serif" font-size="10.00" fill="#000000">+tilePad</text>
<text text-anchor="middle" x="60" y="-189" font-family="Helvetica,sans-Serif" font-size="10.00" fill="#000000">+widthInTiles</text>
<text text-anchor="middle" x="60" y="-178" font-family="Helvetica,sans-Serif" font-size="10.00" fill="#000000">+inTilePad</text>
<text text-anchor="middle" x="60" y="-167" font-family="Helvetica,sans-Serif" font-size="10.00" fill="#000000">+tileTime</text>
<text text-anchor="middle" x="60" y="-156" font-family="Helvetica,sans-Serif" font-size="10.00" fill="#000000">+tileW</text>
<text text-anchor="middle" x="60" y="-145" font-family="Helvetica,sans-Serif" font-size="10.00" fill="#000000">+tileH</text>
</g>
<!-- Node3 -->
<g id="node3" class="node">
<title>Node3</title>
<polygon fill="none" stroke="#bfbfbf" points="94,-237.5 94,-294.5 138,-294.5 138,-237.5 94,-237.5"/>
<text text-anchor="middle" x="116" y="-282.5" font-family="Helvetica,sans-Serif" font-size="10.00" fill="#000000">static</text>
<polyline fill="none" stroke="#bfbfbf" points="94,-275.5 138,-275.5 "/>
<text text-anchor="middle" x="116" y="-263.5" font-family="Helvetica,sans-Serif" font-size="10.00" fill="#000000"> </text>
<polyline fill="none" stroke="#bfbfbf" points="94,-256.5 138,-256.5 "/>
<text text-anchor="middle" x="116" y="-244.5" font-family="Helvetica,sans-Serif" font-size="10.00" fill="#000000"> </text>
</g>
<!-- Node3&#45;&gt;Node1 -->
<g id="edge2" class="edge">
<title>Node3&#45;&gt;Node1</title>
<path fill="none" stroke="#404040" d="M111.8652,-237.2409C108.0043,-211.9839 101.6904,-174.3312 94,-142 93.4935,-139.8707 92.9633,-137.7145 92.414,-135.5418"/>
<polygon fill="none" stroke="#404040" points="92.384,-135.428 86.9844,-130.6484 89.3195,-123.8258 94.7192,-128.6054 92.384,-135.428"/>
<text text-anchor="middle" x="123.5" y="-189" font-family="Helvetica,sans-Serif" font-size="10.00" fill="#000000"> +N</text>
<text text-anchor="middle" x="123.5" y="-178" font-family="Helvetica,sans-Serif" font-size="10.00" fill="#000000">+pad</text>
<text text-anchor="middle" x="123.5" y="-167" font-family="Helvetica,sans-Serif" font-size="10.00" fill="#000000">+time</text>
</g>
</g>
</svg>
