<?xml version="1.0" encoding="UTF-8" standalone="no"?>
<!DOCTYPE svg PUBLIC "-//W3C//DTD SVG 1.1//EN"
 "http://www.w3.org/Graphics/SVG/1.1/DTD/svg11.dtd">
<!-- Generated by graphviz version 2.40.1 (20161225.0304)
 -->
<!-- Title: FairTask Pages: 1 -->
<!--zoomable 314 -->
<svg id="main" version="1.1" xmlns="http://www.w3.org/2000/svg" xmlns:xlink="http://www.w3.org/1999/xlink" xml:space="preserve" onload="init(evt)">
<style type="text/css"><![CDATA[
.edge:hover path { stroke: red; }
.edge:hover polygon { stroke: red; fill: red; }
]]></style>
<script type="text/javascript"><![CDATA[
var edges = document.getElementsByTagName('g');
if (edges && edges.length) {
  for (var i=0;i<edges.length;i++) {
    if (edges[i].id.substr(0,4)=='edge') {
      edges[i].setAttribute('class','edge');
    }
  }
}
]]></script>
        <defs>
                <circle id="rim" cx="0" cy="0" r="7"/>
                <circle id="rim2" cx="0" cy="0" r="3.5"/>
                <g id="zoomPlus">
                        <use xlink:href="#rim" fill="#404040">
                                <set attributeName="fill" to="#808080" begin="zoomplus.mouseover" end="zoomplus.mouseout"/>
                        </use>
                        <path d="M-4,0h8M0,-4v8" fill="none" stroke="white" stroke-width="1.5" pointer-events="none"/>
                </g>
                <g id="zoomMin">
                        <use xlink:href="#rim" fill="#404040">
                                <set attributeName="fill" to="#808080" begin="zoomminus.mouseover" end="zoomminus.mouseout"/>
                        </use>
                        <path d="M-4,0h8" fill="none" stroke="white" stroke-width="1.5" pointer-events="none"/>
                </g>
                <g id="dirArrow">
                        <path fill="none" stroke="white" stroke-width="1.5" d="M0,-3.0v7 M-2.5,-0.5L0,-3.0L2.5,-0.5"/>
                </g>
               <g id="resetDef">
                       <use xlink:href="#rim2" fill="#404040">
                               <set attributeName="fill" to="#808080" begin="reset.mouseover" end="reset.mouseout"/>
                       </use>
               </g>
        </defs>

<script type="text/javascript">
var viewWidth = 1485;
var viewHeight = 314;
var sectionId = 'dynsection-0';
</script>
<script xlink:href="../../svgpan.js"/>
<svg id="graph" class="graph">
<g id="viewport">
<title>FairTask</title>
<!-- Node0 -->
<g id="node1" class="node">
<title>Node0</title>
<polygon fill="#bfbfbf" stroke="#000000" points="700,-248.5 700,-305.5 756,-305.5 756,-248.5 700,-248.5"/>
<text text-anchor="middle" x="728" y="-293.5" font-family="Helvetica,sans-Serif" font-size="10.00" fill="#000000">FairTask</text>
<polyline fill="none" stroke="#000000" points="700,-286.5 756,-286.5 "/>
<text text-anchor="middle" x="728" y="-274.5" font-family="Helvetica,sans-Serif" font-size="10.00" fill="#000000"> </text>
<polyline fill="none" stroke="#000000" points="700,-267.5 756,-267.5 "/>
<text text-anchor="middle" x="728" y="-255.5" font-family="Helvetica,sans-Serif" font-size="10.00" fill="#000000"> </text>
</g>
<!-- Node1 -->
<g id="node2" class="node">
<title>Node1</title>
<g id="a_node2"><a xlink:href="../../d7/dd8/classo2_1_1cpv_1_1DigitizerTask.html" target="_top" xlink:title="{o2::cpv::DigitizerTask\n||+ DigitizerTask()\l+ ~DigitizerTask()\l+ Init()\l+ Exec()\l+ FinishTask()\l+ getDigitizer()\l+ setFairTimeUnitInNS()\l+ getFairTimeUnitInNS()\l}">
<polygon fill="none" stroke="#000000" points="0,-39 0,-173 136,-173 136,-39 0,-39"/>
<text text-anchor="middle" x="68" y="-161" font-family="Helvetica,sans-Serif" font-size="10.00" fill="#000000">o2::cpv::DigitizerTask</text>
<polyline fill="none" stroke="#000000" points="0,-154 136,-154 "/>
<text text-anchor="middle" x="68" y="-142" font-family="Helvetica,sans-Serif" font-size="10.00" fill="#000000"> </text>
<polyline fill="none" stroke="#000000" points="0,-135 136,-135 "/>
<text text-anchor="start" x="8" y="-123" font-family="Helvetica,sans-Serif" font-size="10.00" fill="#000000">+ DigitizerTask()</text>
<text text-anchor="start" x="8" y="-112" font-family="Helvetica,sans-Serif" font-size="10.00" fill="#000000">+ ~DigitizerTask()</text>
<text text-anchor="start" x="8" y="-101" font-family="Helvetica,sans-Serif" font-size="10.00" fill="#000000">+ Init()</text>
<text text-anchor="start" x="8" y="-90" font-family="Helvetica,sans-Serif" font-size="10.00" fill="#000000">+ Exec()</text>
<text text-anchor="start" x="8" y="-79" font-family="Helvetica,sans-Serif" font-size="10.00" fill="#000000">+ FinishTask()</text>
<text text-anchor="start" x="8" y="-68" font-family="Helvetica,sans-Serif" font-size="10.00" fill="#000000">+ getDigitizer()</text>
<text text-anchor="start" x="8" y="-57" font-family="Helvetica,sans-Serif" font-size="10.00" fill="#000000">+ setFairTimeUnitInNS()</text>
<text text-anchor="start" x="8" y="-46" font-family="Helvetica,sans-Serif" font-size="10.00" fill="#000000">+ getFairTimeUnitInNS()</text>
</a>
</g>
</g>
<!-- Node0&#45;&gt;Node1 -->
<g id="edge1" class="edge">
<title>Node0&#45;&gt;Node1</title>
<path fill="none" stroke="#191970" d="M689.8966,-274.5388C567.8934,-266.4131 192.1014,-239.3952 145,-212 128.7789,-202.5655 115.016,-188.2031 103.8115,-173.069"/>
<polygon fill="none" stroke="#191970" points="689.6938,-278.0329 699.903,-275.2007 690.1558,-271.0482 689.6938,-278.0329"/>
</g>
<!-- Node2 -->
<g id="node3" class="node">
<title>Node2</title>
<g id="a_node3"><a xlink:href="../../d1/d1d/classo2_1_1emcal_1_1DigitizerTask.html" target="_top" xlink:title="{o2::emcal::DigitizerTask\n||+ DigitizerTask()\l+ ~DigitizerTask()\l+ Init()\l+ Exec()\l+ FinishTask()\l+ getDigitizer()\l+ setFairTimeUnitInNS()\l+ getFairTimeUnitInNS()\l}">
<polygon fill="none" stroke="#000000" points="154,-39 154,-173 290,-173 290,-39 154,-39"/>
<text text-anchor="middle" x="222" y="-161" font-family="Helvetica,sans-Serif" font-size="10.00" fill="#000000">o2::emcal::DigitizerTask</text>
<polyline fill="none" stroke="#000000" points="154,-154 290,-154 "/>
<text text-anchor="middle" x="222" y="-142" font-family="Helvetica,sans-Serif" font-size="10.00" fill="#000000"> </text>
<polyline fill="none" stroke="#000000" points="154,-135 290,-135 "/>
<text text-anchor="start" x="162" y="-123" font-family="Helvetica,sans-Serif" font-size="10.00" fill="#000000">+ DigitizerTask()</text>
<text text-anchor="start" x="162" y="-112" font-family="Helvetica,sans-Serif" font-size="10.00" fill="#000000">+ ~DigitizerTask()</text>
<text text-anchor="start" x="162" y="-101" font-family="Helvetica,sans-Serif" font-size="10.00" fill="#000000">+ Init()</text>
<text text-anchor="start" x="162" y="-90" font-family="Helvetica,sans-Serif" font-size="10.00" fill="#000000">+ Exec()</text>
<text text-anchor="start" x="162" y="-79" font-family="Helvetica,sans-Serif" font-size="10.00" fill="#000000">+ FinishTask()</text>
<text text-anchor="start" x="162" y="-68" font-family="Helvetica,sans-Serif" font-size="10.00" fill="#000000">+ getDigitizer()</text>
<text text-anchor="start" x="162" y="-57" font-family="Helvetica,sans-Serif" font-size="10.00" fill="#000000">+ setFairTimeUnitInNS()</text>
<text text-anchor="start" x="162" y="-46" font-family="Helvetica,sans-Serif" font-size="10.00" fill="#000000">+ getFairTimeUnitInNS()</text>
</a>
</g>
</g>
<!-- Node0&#45;&gt;Node2 -->
<g id="edge2" class="edge">
<title>Node0&#45;&gt;Node2</title>
<path fill="none" stroke="#191970" d="M689.7415,-274.958C597.2904,-269.4368 364.5337,-251.8611 299,-212 283.162,-202.3665 269.6042,-188.1234 258.4799,-173.1822"/>
<polygon fill="none" stroke="#191970" points="689.6012,-278.4557 699.7878,-275.5433 690.0083,-271.4676 689.6012,-278.4557"/>
</g>
<!-- Node3 -->
<g id="node4" class="node">
<title>Node3</title>
<g id="a_node4"><a xlink:href="../../d5/d85/classo2_1_1ft0_1_1DigitizerTask.html" target="_top" xlink:title="{o2::ft0::DigitizerTask\n||+ DigitizerTask()\l+ ~DigitizerTask()\l+ Init()\l+ Exec()\l+ FinishTask()\l+ getDigitizer()\l+ setContinuous()\l+ isContinuous()\l+ setQEDInput()\l}">
<polygon fill="none" stroke="#000000" points="308.5,-33.5 308.5,-178.5 425.5,-178.5 425.5,-33.5 308.5,-33.5"/>
<text text-anchor="middle" x="367" y="-166.5" font-family="Helvetica,sans-Serif" font-size="10.00" fill="#000000">o2::ft0::DigitizerTask</text>
<polyline fill="none" stroke="#000000" points="308.5,-159.5 425.5,-159.5 "/>
<text text-anchor="middle" x="367" y="-147.5" font-family="Helvetica,sans-Serif" font-size="10.00" fill="#000000"> </text>
<polyline fill="none" stroke="#000000" points="308.5,-140.5 425.5,-140.5 "/>
<text text-anchor="start" x="316.5" y="-128.5" font-family="Helvetica,sans-Serif" font-size="10.00" fill="#000000">+ DigitizerTask()</text>
<text text-anchor="start" x="316.5" y="-117.5" font-family="Helvetica,sans-Serif" font-size="10.00" fill="#000000">+ ~DigitizerTask()</text>
<text text-anchor="start" x="316.5" y="-106.5" font-family="Helvetica,sans-Serif" font-size="10.00" fill="#000000">+ Init()</text>
<text text-anchor="start" x="316.5" y="-95.5" font-family="Helvetica,sans-Serif" font-size="10.00" fill="#000000">+ Exec()</text>
<text text-anchor="start" x="316.5" y="-84.5" font-family="Helvetica,sans-Serif" font-size="10.00" fill="#000000">+ FinishTask()</text>
<text text-anchor="start" x="316.5" y="-73.5" font-family="Helvetica,sans-Serif" font-size="10.00" fill="#000000">+ getDigitizer()</text>
<text text-anchor="start" x="316.5" y="-62.5" font-family="Helvetica,sans-Serif" font-size="10.00" fill="#000000">+ setContinuous()</text>
<text text-anchor="start" x="316.5" y="-51.5" font-family="Helvetica,sans-Serif" font-size="10.00" fill="#000000">+ isContinuous()</text>
<text text-anchor="start" x="316.5" y="-40.5" font-family="Helvetica,sans-Serif" font-size="10.00" fill="#000000">+ setQEDInput()</text>
</a>
</g>
</g>
<!-- Node0&#45;&gt;Node3 -->
<g id="edge3" class="edge">
<title>Node0&#45;&gt;Node3</title>
<path fill="none" stroke="#191970" d="M689.5404,-272.1621C619.8122,-262.7984 475.9452,-240.5784 435,-212 422.4499,-203.2404 411.6788,-191.3458 402.6524,-178.6856"/>
<polygon fill="none" stroke="#191970" points="689.2961,-275.6602 699.6687,-273.5017 690.214,-268.7206 689.2961,-275.6602"/>
</g>
<!-- Node4 -->
<g id="node5" class="node">
<title>Node4</title>
<g id="a_node5"><a xlink:href="../../db/db5/classo2_1_1its_1_1HitAnalysis.html" target="_top" xlink:title="{o2::its::HitAnalysis\n||+ HitAnalysis()\l+ ~HitAnalysis()\l+ Init()\l+ Exec()\l+ FinishTask()\l# ProcessHits()\l}">
<polygon fill="none" stroke="#000000" points="444,-50 444,-162 552,-162 552,-50 444,-50"/>
<text text-anchor="middle" x="498" y="-150" font-family="Helvetica,sans-Serif" font-size="10.00" fill="#000000">o2::its::HitAnalysis</text>
<polyline fill="none" stroke="#000000" points="444,-143 552,-143 "/>
<text text-anchor="middle" x="498" y="-131" font-family="Helvetica,sans-Serif" font-size="10.00" fill="#000000"> </text>
<polyline fill="none" stroke="#000000" points="444,-124 552,-124 "/>
<text text-anchor="start" x="452" y="-112" font-family="Helvetica,sans-Serif" font-size="10.00" fill="#000000">+ HitAnalysis()</text>
<text text-anchor="start" x="452" y="-101" font-family="Helvetica,sans-Serif" font-size="10.00" fill="#000000">+ ~HitAnalysis()</text>
<text text-anchor="start" x="452" y="-90" font-family="Helvetica,sans-Serif" font-size="10.00" fill="#000000">+ Init()</text>
<text text-anchor="start" x="452" y="-79" font-family="Helvetica,sans-Serif" font-size="10.00" fill="#000000">+ Exec()</text>
<text text-anchor="start" x="452" y="-68" font-family="Helvetica,sans-Serif" font-size="10.00" fill="#000000">+ FinishTask()</text>
<text text-anchor="start" x="452" y="-57" font-family="Helvetica,sans-Serif" font-size="10.00" fill="#000000"># ProcessHits()</text>
</a>
</g>
</g>
<!-- Node0&#45;&gt;Node4 -->
<g id="edge4" class="edge">
<title>Node0&#45;&gt;Node4</title>
<path fill="none" stroke="#191970" d="M690.2148,-269.782C653.7389,-261.2167 598.6462,-243.8937 561,-212 545.0744,-198.5079 532.1412,-179.9172 522.2312,-162.0688"/>
<polygon fill="none" stroke="#191970" points="689.4558,-273.1986 699.9792,-271.9704 690.9868,-266.3681 689.4558,-273.1986"/>
</g>
<!-- Node5 -->
<g id="node6" class="node">
<title>Node5</title>
<g id="a_node6"><a xlink:href="../../d4/d8d/classo2_1_1its_1_1TrivialClustererTask.html" target="_top" xlink:title="{o2::its::TrivialClustererTask\n||+ TrivialClustererTask()\l+ ~TrivialClustererTask()\l+ Init()\l+ Exec()\l}">
<polygon fill="none" stroke="#000000" points="570,-61 570,-151 718,-151 718,-61 570,-61"/>
<text text-anchor="middle" x="644" y="-139" font-family="Helvetica,sans-Serif" font-size="10.00" fill="#000000">o2::its::TrivialClustererTask</text>
<polyline fill="none" stroke="#000000" points="570,-132 718,-132 "/>
<text text-anchor="middle" x="644" y="-120" font-family="Helvetica,sans-Serif" font-size="10.00" fill="#000000"> </text>
<polyline fill="none" stroke="#000000" points="570,-113 718,-113 "/>
<text text-anchor="start" x="578" y="-101" font-family="Helvetica,sans-Serif" font-size="10.00" fill="#000000">+ TrivialClustererTask()</text>
<text text-anchor="start" x="578" y="-90" font-family="Helvetica,sans-Serif" font-size="10.00" fill="#000000">+ ~TrivialClustererTask()</text>
<text text-anchor="start" x="578" y="-79" font-family="Helvetica,sans-Serif" font-size="10.00" fill="#000000">+ Init()</text>
<text text-anchor="start" x="578" y="-68" font-family="Helvetica,sans-Serif" font-size="10.00" fill="#000000">+ Exec()</text>
</a>
</g>
</g>
<!-- Node0&#45;&gt;Node5 -->
<g id="edge5" class="edge">
<title>Node0&#45;&gt;Node5</title>
<path fill="none" stroke="#191970" d="M709.4434,-239.224C696.6761,-213.2336 679.6566,-178.5867 666.1743,-151.1405"/>
<polygon fill="none" stroke="#191970" points="706.3898,-240.9461 713.9403,-248.3784 712.6726,-237.8597 706.3898,-240.9461"/>
</g>
<!-- Node6 -->
<g id="node7" class="node">
<title>Node6</title>
<g id="a_node7"><a xlink:href="../../df/d23/classo2_1_1mft_1_1DigitizerTask.html" target="_top" xlink:title="{o2::mft::DigitizerTask\n||+ DigitizerTask()\l+ ~DigitizerTask()\l+ Init()\l+ Exec()\l+ FinishTask()\l+ getDigitizer()\l+ getDigiParams()\l+ getDigiParams()\l+ setContinuous()\l+ isContinuous()\l+ setFairTimeUnitInNS()\l+ getFairTimeUnitInNS()\l+ setAlpideROFramLength()\l+ getAlpideROFramLength()\l+ setQEDInput()\l}">
<polygon fill="none" stroke="#000000" points="736.5,-.5 736.5,-211.5 889.5,-211.5 889.5,-.5 736.5,-.5"/>
<text text-anchor="middle" x="813" y="-199.5" font-family="Helvetica,sans-Serif" font-size="10.00" fill="#000000">o2::mft::DigitizerTask</text>
<polyline fill="none" stroke="#000000" points="736.5,-192.5 889.5,-192.5 "/>
<text text-anchor="middle" x="813" y="-180.5" font-family="Helvetica,sans-Serif" font-size="10.00" fill="#000000"> </text>
<polyline fill="none" stroke="#000000" points="736.5,-173.5 889.5,-173.5 "/>
<text text-anchor="start" x="744.5" y="-161.5" font-family="Helvetica,sans-Serif" font-size="10.00" fill="#000000">+ DigitizerTask()</text>
<text text-anchor="start" x="744.5" y="-150.5" font-family="Helvetica,sans-Serif" font-size="10.00" fill="#000000">+ ~DigitizerTask()</text>
<text text-anchor="start" x="744.5" y="-139.5" font-family="Helvetica,sans-Serif" font-size="10.00" fill="#000000">+ Init()</text>
<text text-anchor="start" x="744.5" y="-128.5" font-family="Helvetica,sans-Serif" font-size="10.00" fill="#000000">+ Exec()</text>
<text text-anchor="start" x="744.5" y="-117.5" font-family="Helvetica,sans-Serif" font-size="10.00" fill="#000000">+ FinishTask()</text>
<text text-anchor="start" x="744.5" y="-106.5" font-family="Helvetica,sans-Serif" font-size="10.00" fill="#000000">+ getDigitizer()</text>
<text text-anchor="start" x="744.5" y="-95.5" font-family="Helvetica,sans-Serif" font-size="10.00" fill="#000000">+ getDigiParams()</text>
<text text-anchor="start" x="744.5" y="-84.5" font-family="Helvetica,sans-Serif" font-size="10.00" fill="#000000">+ getDigiParams()</text>
<text text-anchor="start" x="744.5" y="-73.5" font-family="Helvetica,sans-Serif" font-size="10.00" fill="#000000">+ setContinuous()</text>
<text text-anchor="start" x="744.5" y="-62.5" font-family="Helvetica,sans-Serif" font-size="10.00" fill="#000000">+ isContinuous()</text>
<text text-anchor="start" x="744.5" y="-51.5" font-family="Helvetica,sans-Serif" font-size="10.00" fill="#000000">+ setFairTimeUnitInNS()</text>
<text text-anchor="start" x="744.5" y="-40.5" font-family="Helvetica,sans-Serif" font-size="10.00" fill="#000000">+ getFairTimeUnitInNS()</text>
<text text-anchor="start" x="744.5" y="-29.5" font-family="Helvetica,sans-Serif" font-size="10.00" fill="#000000">+ setAlpideROFramLength()</text>
<text text-anchor="start" x="744.5" y="-18.5" font-family="Helvetica,sans-Serif" font-size="10.00" fill="#000000">+ getAlpideROFramLength()</text>
<text text-anchor="start" x="744.5" y="-7.5" font-family="Helvetica,sans-Serif" font-size="10.00" fill="#000000">+ setQEDInput()</text>
</a>
</g>
</g>
<!-- Node0&#45;&gt;Node6 -->
<g id="edge6" class="edge">
<title>Node0&#45;&gt;Node6</title>
<path fill="none" stroke="#191970" d="M746.7519,-239.2755C750.9432,-230.8437 755.5882,-221.499 760.4176,-211.7834"/>
<polygon fill="none" stroke="#191970" points="743.5442,-237.8658 742.2271,-248.3784 749.8125,-240.9816 743.5442,-237.8658"/>
</g>
<!-- Node7 -->
<g id="node8" class="node">
<title>Node7</title>
<g id="a_node8"><a xlink:href="../../d0/d8a/classo2_1_1mft_1_1TrackerTask.html" target="_top" xlink:title="{o2::mft::TrackerTask\n||+ TrackerTask()\l+ ~TrackerTask()\l+ Init()\l+ Exec()\l+ setContinuousMode()\l+ getContinuousMode()\l}">
<polygon fill="none" stroke="#000000" points="908,-50 908,-162 1040,-162 1040,-50 908,-50"/>
<text text-anchor="middle" x="974" y="-150" font-family="Helvetica,sans-Serif" font-size="10.00" fill="#000000">o2::mft::TrackerTask</text>
<polyline fill="none" stroke="#000000" points="908,-143 1040,-143 "/>
<text text-anchor="middle" x="974" y="-131" font-family="Helvetica,sans-Serif" font-size="10.00" fill="#000000"> </text>
<polyline fill="none" stroke="#000000" points="908,-124 1040,-124 "/>
<text text-anchor="start" x="916" y="-112" font-family="Helvetica,sans-Serif" font-size="10.00" fill="#000000">+ TrackerTask()</text>
<text text-anchor="start" x="916" y="-101" font-family="Helvetica,sans-Serif" font-size="10.00" fill="#000000">+ ~TrackerTask()</text>
<text text-anchor="start" x="916" y="-90" font-family="Helvetica,sans-Serif" font-size="10.00" fill="#000000">+ Init()</text>
<text text-anchor="start" x="916" y="-79" font-family="Helvetica,sans-Serif" font-size="10.00" fill="#000000">+ Exec()</text>
<text text-anchor="start" x="916" y="-68" font-family="Helvetica,sans-Serif" font-size="10.00" fill="#000000">+ setContinuousMode()</text>
<text text-anchor="start" x="916" y="-57" font-family="Helvetica,sans-Serif" font-size="10.00" fill="#000000">+ getContinuousMode()</text>
</a>
</g>
</g>
<!-- Node0&#45;&gt;Node7 -->
<g id="edge7" class="edge">
<title>Node0&#45;&gt;Node7</title>
<path fill="none" stroke="#191970" d="M766.139,-269.3274C803.074,-260.4202 859.183,-242.8471 899,-212 916.3755,-198.5388 931.3948,-179.9556 943.3323,-162.1044"/>
<polygon fill="none" stroke="#191970" points="765.2128,-265.9491 756.2594,-271.6137 766.791,-272.7689 765.2128,-265.9491"/>
</g>
<!-- Node8 -->
<g id="node9" class="node">
<title>Node8</title>
<g id="a_node9"><a xlink:href="../../d0/dc6/classo2_1_1tof_1_1ClustererTask.html" target="_top" xlink:title="{o2::tof::ClustererTask\n||+ ClustererTask()\l+ ~ClustererTask()\l+ Init()\l+ Exec()\l}">
<polygon fill="none" stroke="#000000" points="1058,-61 1058,-151 1178,-151 1178,-61 1058,-61"/>
<text text-anchor="middle" x="1118" y="-139" font-family="Helvetica,sans-Serif" font-size="10.00" fill="#000000">o2::tof::ClustererTask</text>
<polyline fill="none" stroke="#000000" points="1058,-132 1178,-132 "/>
<text text-anchor="middle" x="1118" y="-120" font-family="Helvetica,sans-Serif" font-size="10.00" fill="#000000"> </text>
<polyline fill="none" stroke="#000000" points="1058,-113 1178,-113 "/>
<text text-anchor="start" x="1066" y="-101" font-family="Helvetica,sans-Serif" font-size="10.00" fill="#000000">+ ClustererTask()</text>
<text text-anchor="start" x="1066" y="-90" font-family="Helvetica,sans-Serif" font-size="10.00" fill="#000000">+ ~ClustererTask()</text>
<text text-anchor="start" x="1066" y="-79" font-family="Helvetica,sans-Serif" font-size="10.00" fill="#000000">+ Init()</text>
<text text-anchor="start" x="1066" y="-68" font-family="Helvetica,sans-Serif" font-size="10.00" fill="#000000">+ Exec()</text>
</a>
</g>
</g>
<!-- Node0&#45;&gt;Node8 -->
<g id="edge8" class="edge">
<title>Node0&#45;&gt;Node8</title>
<path fill="none" stroke="#191970" d="M766.554,-272.9517C841.4367,-264.4902 1003.22,-243.1035 1049,-212 1070.8862,-197.1303 1087.4563,-172.7735 1098.8658,-151.1554"/>
<polygon fill="none" stroke="#191970" points="765.713,-269.5235 756.1604,-274.106 766.4857,-276.4807 765.713,-269.5235"/>
</g>
<!-- Node9 -->
<g id="node10" class="node">
<title>Node9</title>
<g id="a_node10"><a xlink:href="../../d0/dad/classo2_1_1tof_1_1DigitizerTask.html" target="_top" xlink:title="{o2::tof::DigitizerTask\n||+ DigitizerTask()\l+ ~DigitizerTask()\l+ Init()\l+ Exec()\l+ FinishTask()\l+ getDigitizer()\l+ setContinuous()\l+ isContinuous()\l}">
<polygon fill="none" stroke="#000000" points="1196.5,-39 1196.5,-173 1313.5,-173 1313.5,-39 1196.5,-39"/>
<text text-anchor="middle" x="1255" y="-161" font-family="Helvetica,sans-Serif" font-size="10.00" fill="#000000">o2::tof::DigitizerTask</text>
<polyline fill="none" stroke="#000000" points="1196.5,-154 1313.5,-154 "/>
<text text-anchor="middle" x="1255" y="-142" font-family="Helvetica,sans-Serif" font-size="10.00" fill="#000000"> </text>
<polyline fill="none" stroke="#000000" points="1196.5,-135 1313.5,-135 "/>
<text text-anchor="start" x="1204.5" y="-123" font-family="Helvetica,sans-Serif" font-size="10.00" fill="#000000">+ DigitizerTask()</text>
<text text-anchor="start" x="1204.5" y="-112" font-family="Helvetica,sans-Serif" font-size="10.00" fill="#000000">+ ~DigitizerTask()</text>
<text text-anchor="start" x="1204.5" y="-101" font-family="Helvetica,sans-Serif" font-size="10.00" fill="#000000">+ Init()</text>
<text text-anchor="start" x="1204.5" y="-90" font-family="Helvetica,sans-Serif" font-size="10.00" fill="#000000">+ Exec()</text>
<text text-anchor="start" x="1204.5" y="-79" font-family="Helvetica,sans-Serif" font-size="10.00" fill="#000000">+ FinishTask()</text>
<text text-anchor="start" x="1204.5" y="-68" font-family="Helvetica,sans-Serif" font-size="10.00" fill="#000000">+ getDigitizer()</text>
<text text-anchor="start" x="1204.5" y="-57" font-family="Helvetica,sans-Serif" font-size="10.00" fill="#000000">+ setContinuous()</text>
<text text-anchor="start" x="1204.5" y="-46" font-family="Helvetica,sans-Serif" font-size="10.00" fill="#000000">+ isContinuous()</text>
</a>
</g>
</g>
<!-- Node0&#45;&gt;Node9 -->
<g id="edge9" class="edge">
<title>Node0&#45;&gt;Node9</title>
<path fill="none" stroke="#191970" d="M766.349,-275.6265C863.6598,-271.5124 1117.3875,-256.673 1187,-212 1201.9967,-202.376 1214.3367,-188.1365 1224.1916,-173.1955"/>
<polygon fill="none" stroke="#191970" points="765.9317,-272.1405 756.0826,-276.0449 766.2169,-279.1347 765.9317,-272.1405"/>
</g>
<!-- Node10 -->
<g id="node11" class="node">
<title>Node10</title>
<g id="a_node11"><a xlink:href="../../db/dc7/classo2_1_1tpc_1_1ClustererTask.html" target="_top" xlink:title="{o2::tpc::ClustererTask\n||+ ClustererTask()\l+ ~ClustererTask()\l+ Init()\l+ Exec()\l+ FinishTask()\l+ setContinuousReadout()\l}">
<polygon fill="none" stroke="#000000" points="1331.5,-50 1331.5,-162 1476.5,-162 1476.5,-50 1331.5,-50"/>
<text text-anchor="middle" x="1404" y="-150" font-family="Helvetica,sans-Serif" font-size="10.00" fill="#000000">o2::tpc::ClustererTask</text>
<polyline fill="none" stroke="#000000" points="1331.5,-143 1476.5,-143 "/>
<text text-anchor="middle" x="1404" y="-131" font-family="Helvetica,sans-Serif" font-size="10.00" fill="#000000"> </text>
<polyline fill="none" stroke="#000000" points="1331.5,-124 1476.5,-124 "/>
<text text-anchor="start" x="1339.5" y="-112" font-family="Helvetica,sans-Serif" font-size="10.00" fill="#000000">+ ClustererTask()</text>
<text text-anchor="start" x="1339.5" y="-101" font-family="Helvetica,sans-Serif" font-size="10.00" fill="#000000">+ ~ClustererTask()</text>
<text text-anchor="start" x="1339.5" y="-90" font-family="Helvetica,sans-Serif" font-size="10.00" fill="#000000">+ Init()</text>
<text text-anchor="start" x="1339.5" y="-79" font-family="Helvetica,sans-Serif" font-size="10.00" fill="#000000">+ Exec()</text>
<text text-anchor="start" x="1339.5" y="-68" font-family="Helvetica,sans-Serif" font-size="10.00" fill="#000000">+ FinishTask()</text>
<text text-anchor="start" x="1339.5" y="-57" font-family="Helvetica,sans-Serif" font-size="10.00" fill="#000000">+ setContinuousReadout()</text>
</a>
</g>
</g>
<!-- Node0&#45;&gt;Node10 -->
<g id="edge10" class="edge">
<title>Node0&#45;&gt;Node10</title>
<path fill="none" stroke="#191970" d="M766.4364,-274.5599C890.4154,-266.4478 1274.5201,-239.3445 1323,-212 1343.6773,-200.3372 1360.782,-181.0206 1373.86,-162.049"/>
<polygon fill="none" stroke="#191970" points="766.0257,-271.0791 756.2737,-275.2203 766.4797,-278.0644 766.0257,-271.0791"/>
</g>
</g>
</svg>
        <g id="navigator" transform="translate(0 0)" fill="#404254">
                <rect fill="#f2f5e9" fill-opacity="0.5" stroke="#606060" stroke-width=".5" x="0" y="0" width="60" height="60"/>
                <use id="zoomplus" xlink:href="#zoomPlus" x="17" y="9" onmousedown="handleZoom(evt,'in')"/>
                <use id="zoomminus" xlink:href="#zoomMin" x="42" y="9" onmousedown="handleZoom(evt,'out')"/>
                <use id="reset" xlink:href="#resetDef" x="30" y="36" onmousedown="handleReset()"/>
                <g id="arrowUp" xlink:href="#dirArrow" transform="translate(30 24)" onmousedown="handlePan(0,-1)">
                  <use xlink:href="#rim" fill="#404040">
                        <set attributeName="fill" to="#808080" begin="arrowUp.mouseover" end="arrowUp.mouseout"/>
                  </use>
                  <path fill="none" stroke="white" stroke-width="1.5" d="M0,-3.0v7 M-2.5,-0.5L0,-3.0L2.5,-0.5"/>
                </g>
                <g id="arrowRight" xlink:href="#dirArrow" transform="rotate(90) translate(36 -43)" onmousedown="handlePan(1,0)">
                  <use xlink:href="#rim" fill="#404040">
                        <set attributeName="fill" to="#808080" begin="arrowRight.mouseover" end="arrowRight.mouseout"/>
                  </use>
                  <path fill="none" stroke="white" stroke-width="1.5" d="M0,-3.0v7 M-2.5,-0.5L0,-3.0L2.5,-0.5"/>
                </g>
                <g id="arrowDown" xlink:href="#dirArrow" transform="rotate(180) translate(-30 -48)" onmousedown="handlePan(0,1)">
                  <use xlink:href="#rim" fill="#404040">
                        <set attributeName="fill" to="#808080" begin="arrowDown.mouseover" end="arrowDown.mouseout"/>
                  </use>
                  <path fill="none" stroke="white" stroke-width="1.5" d="M0,-3.0v7 M-2.5,-0.5L0,-3.0L2.5,-0.5"/>
                </g>
                <g id="arrowLeft" xlink:href="#dirArrow" transform="rotate(270) translate(-36 17)" onmousedown="handlePan(-1,0)">
                  <use xlink:href="#rim" fill="#404040">
                        <set attributeName="fill" to="#808080" begin="arrowLeft.mouseover" end="arrowLeft.mouseout"/>
                  </use>
                  <path fill="none" stroke="white" stroke-width="1.5" d="M0,-3.0v7 M-2.5,-0.5L0,-3.0L2.5,-0.5"/>
                </g>
        </g>
        <svg viewBox="0 0 15 15" width="100%" height="30px" preserveAspectRatio="xMaxYMin meet">
         <g id="arrow_out" transform="scale(0.3 0.3)">
          <a xlink:href="classFairTask__inherit__graph_org.svg" target="_base">
           <rect id="button" ry="5" rx="5" y="6" x="6" height="38" width="38"
                fill="#f2f5e9" fill-opacity="0.5" stroke="#606060" stroke-width="1.0"/>
           <path id="arrow"
             d="M 11.500037,31.436501 C 11.940474,20.09759 22.043105,11.32322 32.158766,21.979434 L 37.068811,17.246167 C 37.068811,17.246167 37.088388,32 37.088388,32 L 22.160133,31.978069 C 22.160133,31.978069 26.997745,27.140456 26.997745,27.140456 C 18.528582,18.264221 13.291696,25.230495 11.500037,31.436501 z"
             style="fill:#404040;"/>
          </a>
         </g>
        </svg>
</svg>
