<?xml version="1.0" encoding="UTF-8" standalone="no"?>
<!DOCTYPE svg PUBLIC "-//W3C//DTD SVG 1.1//EN"
 "http://www.w3.org/Graphics/SVG/1.1/DTD/svg11.dtd">
<!-- Generated by graphviz version 2.40.1 (20161225.0304)
 -->
<!-- Title: o2::trd::TRsim Pages: 1 -->
<svg width="797pt" height="688pt"
 viewBox="0.00 0.00 797.00 688.00" xmlns="http://www.w3.org/2000/svg" xmlns:xlink="http://www.w3.org/1999/xlink">
<g id="graph0" class="graph" transform="scale(1 1) rotate(0) translate(4 684)">
<title>o2::trd::TRsim</title>
<!-- Node1 -->
<g id="node1" class="node">
<title>Node1</title>
<polygon fill="#bfbfbf" stroke="#000000" points="294,-.5 294,-464.5 416,-464.5 416,-.5 294,-.5"/>
<text text-anchor="middle" x="355" y="-452.5" font-family="Helvetica,sans-Serif" font-size="10.00" fill="#000000">o2::trd::TRsim</text>
<polyline fill="none" stroke="#000000" points="294,-445.5 416,-445.5 "/>
<text text-anchor="start" x="302" y="-433.5" font-family="Helvetica,sans-Serif" font-size="10.00" fill="#000000"># mFoilA</text>
<text text-anchor="start" x="302" y="-422.5" font-family="Helvetica,sans-Serif" font-size="10.00" fill="#000000"># mSpLower</text>
<polyline fill="none" stroke="#000000" points="294,-415.5 416,-415.5 "/>
<text text-anchor="start" x="302" y="-403.5" font-family="Helvetica,sans-Serif" font-size="10.00" fill="#000000">+ TRsim()</text>
<text text-anchor="start" x="302" y="-392.5" font-family="Helvetica,sans-Serif" font-size="10.00" fill="#000000">+ ~TRsim()</text>
<text text-anchor="start" x="302" y="-381.5" font-family="Helvetica,sans-Serif" font-size="10.00" fill="#000000">+ init()</text>
<text text-anchor="start" x="302" y="-370.5" font-family="Helvetica,sans-Serif" font-size="10.00" fill="#000000">+ createPhotons()</text>
<text text-anchor="start" x="302" y="-359.5" font-family="Helvetica,sans-Serif" font-size="10.00" fill="#000000">+ calculatePhotons()</text>
<text text-anchor="start" x="302" y="-348.5" font-family="Helvetica,sans-Serif" font-size="10.00" fill="#000000">+ getSigma()</text>
<text text-anchor="start" x="302" y="-337.5" font-family="Helvetica,sans-Serif" font-size="10.00" fill="#000000">+ interpolate()</text>
<text text-anchor="start" x="302" y="-326.5" font-family="Helvetica,sans-Serif" font-size="10.00" fill="#000000">+ locate()</text>
<text text-anchor="start" x="302" y="-315.5" font-family="Helvetica,sans-Serif" font-size="10.00" fill="#000000">+ getOmega()</text>
<text text-anchor="start" x="302" y="-304.5" font-family="Helvetica,sans-Serif" font-size="10.00" fill="#000000">+ selectNFoils()</text>
<text text-anchor="start" x="302" y="-293.5" font-family="Helvetica,sans-Serif" font-size="10.00" fill="#000000">+ setFoilThick()</text>
<text text-anchor="start" x="302" y="-282.5" font-family="Helvetica,sans-Serif" font-size="10.00" fill="#000000">+ setGapThick()</text>
<text text-anchor="start" x="302" y="-271.5" font-family="Helvetica,sans-Serif" font-size="10.00" fill="#000000">+ setFoilDens()</text>
<text text-anchor="start" x="302" y="-260.5" font-family="Helvetica,sans-Serif" font-size="10.00" fill="#000000">+ setFoilZ()</text>
<text text-anchor="start" x="302" y="-249.5" font-family="Helvetica,sans-Serif" font-size="10.00" fill="#000000">+ setFoilA()</text>
<text text-anchor="start" x="302" y="-238.5" font-family="Helvetica,sans-Serif" font-size="10.00" fill="#000000">+ setGapDens()</text>
<text text-anchor="start" x="302" y="-227.5" font-family="Helvetica,sans-Serif" font-size="10.00" fill="#000000">+ setGapZ()</text>
<text text-anchor="start" x="302" y="-216.5" font-family="Helvetica,sans-Serif" font-size="10.00" fill="#000000">+ setGapA()</text>
<text text-anchor="start" x="302" y="-205.5" font-family="Helvetica,sans-Serif" font-size="10.00" fill="#000000">+ setTemp()</text>
<text text-anchor="start" x="302" y="-194.5" font-family="Helvetica,sans-Serif" font-size="10.00" fill="#000000">+ setSigma()</text>
<text text-anchor="start" x="302" y="-183.5" font-family="Helvetica,sans-Serif" font-size="10.00" fill="#000000">+ getMuPo()</text>
<text text-anchor="start" x="302" y="-172.5" font-family="Helvetica,sans-Serif" font-size="10.00" fill="#000000">+ getMuCO()</text>
<text text-anchor="start" x="302" y="-161.5" font-family="Helvetica,sans-Serif" font-size="10.00" fill="#000000">+ getMuXe()</text>
<text text-anchor="start" x="302" y="-150.5" font-family="Helvetica,sans-Serif" font-size="10.00" fill="#000000">+ getMuAr()</text>
<text text-anchor="start" x="302" y="-139.5" font-family="Helvetica,sans-Serif" font-size="10.00" fill="#000000">+ getMuMy()</text>
<text text-anchor="start" x="302" y="-128.5" font-family="Helvetica,sans-Serif" font-size="10.00" fill="#000000">+ getMuN2()</text>
<text text-anchor="start" x="302" y="-117.5" font-family="Helvetica,sans-Serif" font-size="10.00" fill="#000000">+ getMuO2()</text>
<text text-anchor="start" x="302" y="-106.5" font-family="Helvetica,sans-Serif" font-size="10.00" fill="#000000">+ getMuHe()</text>
<text text-anchor="start" x="302" y="-95.5" font-family="Helvetica,sans-Serif" font-size="10.00" fill="#000000">+ getMuAi()</text>
<text text-anchor="start" x="302" y="-84.5" font-family="Helvetica,sans-Serif" font-size="10.00" fill="#000000">+ getFoilThick()</text>
<text text-anchor="start" x="302" y="-73.5" font-family="Helvetica,sans-Serif" font-size="10.00" fill="#000000">+ getGapThick()</text>
<text text-anchor="start" x="302" y="-62.5" font-family="Helvetica,sans-Serif" font-size="10.00" fill="#000000">+ getFoilDens()</text>
<text text-anchor="start" x="302" y="-51.5" font-family="Helvetica,sans-Serif" font-size="10.00" fill="#000000">+ getGapDens()</text>
<text text-anchor="start" x="302" y="-40.5" font-family="Helvetica,sans-Serif" font-size="10.00" fill="#000000">+ getFoilgetOmega()</text>
<text text-anchor="start" x="302" y="-29.5" font-family="Helvetica,sans-Serif" font-size="10.00" fill="#000000">+ getGapgetOmega()</text>
<text text-anchor="start" x="302" y="-18.5" font-family="Helvetica,sans-Serif" font-size="10.00" fill="#000000">+ getTemp()</text>
<text text-anchor="start" x="302" y="-7.5" font-family="Helvetica,sans-Serif" font-size="10.00" fill="#000000">+ getSpectrum()</text>
</g>
<!-- Node2 -->
<g id="node2" class="node">
<title>Node2</title>
<polygon fill="none" stroke="#bfbfbf" points="0,-622.5 0,-679.5 52,-679.5 52,-622.5 0,-622.5"/>
<text text-anchor="middle" x="26" y="-667.5" font-family="Helvetica,sans-Serif" font-size="10.00" fill="#000000">TH1D *</text>
<polyline fill="none" stroke="#bfbfbf" points="0,-660.5 52,-660.5 "/>
<text text-anchor="middle" x="26" y="-648.5" font-family="Helvetica,sans-Serif" font-size="10.00" fill="#000000"> </text>
<polyline fill="none" stroke="#bfbfbf" points="0,-641.5 52,-641.5 "/>
<text text-anchor="middle" x="26" y="-629.5" font-family="Helvetica,sans-Serif" font-size="10.00" fill="#000000"> </text>
</g>
<!-- Node2&#45;&gt;Node1 -->
<g id="edge1" class="edge">
<title>Node2&#45;&gt;Node1</title>
<path fill="none" stroke="#404040" d="M32.2514,-622.3909C40.8301,-587.3837 58.6254,-527.3107 88,-483 141.1458,-402.8312 224.7555,-329.9113 284.2437,-283.6828"/>
<polygon fill="none" stroke="#404040" points="284.4367,-283.5343 286.7507,-276.7045 293.9451,-276.2137 291.6311,-283.0435 284.4367,-283.5343"/>
<text text-anchor="middle" x="122" y="-541" font-family="Helvetica,sans-Serif" font-size="10.00" fill="#000000"> #mSpectrum</text>
</g>
<!-- Node3 -->
<g id="node3" class="node">
<title>Node3</title>
<polygon fill="none" stroke="#bfbfbf" points="70,-622.5 70,-679.5 224,-679.5 224,-622.5 70,-622.5"/>
<text text-anchor="middle" x="147" y="-667.5" font-family="Helvetica,sans-Serif" font-size="10.00" fill="#000000">array&lt; double, mSpNBins &gt;</text>
<polyline fill="none" stroke="#bfbfbf" points="70,-660.5 224,-660.5 "/>
<text text-anchor="middle" x="147" y="-648.5" font-family="Helvetica,sans-Serif" font-size="10.00" fill="#000000"> </text>
<polyline fill="none" stroke="#bfbfbf" points="70,-641.5 224,-641.5 "/>
<text text-anchor="middle" x="147" y="-629.5" font-family="Helvetica,sans-Serif" font-size="10.00" fill="#000000"> </text>
</g>
<!-- Node3&#45;&gt;Node1 -->
<g id="edge2" class="edge">
<title>Node3&#45;&gt;Node1</title>
<path fill="none" stroke="#404040" d="M153.74,-622.2583C162.2622,-588.1502 178.4606,-529.9844 200,-483 224.3215,-429.9468 257.7604,-374.4146 287.3548,-329.1563"/>
<polygon fill="none" stroke="#404040" points="287.3976,-329.0912 287.3571,-321.8802 293.9979,-319.0694 294.0383,-326.2804 287.3976,-329.0912"/>
<text text-anchor="middle" x="226" y="-541" font-family="Helvetica,sans-Serif" font-size="10.00" fill="#000000"> #mSigma</text>
</g>
<!-- Node4 -->
<g id="node4" class="node">
<title>Node4</title>
<polygon fill="none" stroke="#bfbfbf" points="242,-622.5 242,-679.5 292,-679.5 292,-622.5 242,-622.5"/>
<text text-anchor="middle" x="267" y="-667.5" font-family="Helvetica,sans-Serif" font-size="10.00" fill="#000000">double</text>
<polyline fill="none" stroke="#bfbfbf" points="242,-660.5 292,-660.5 "/>
<text text-anchor="middle" x="267" y="-648.5" font-family="Helvetica,sans-Serif" font-size="10.00" fill="#000000"> </text>
<polyline fill="none" stroke="#bfbfbf" points="242,-641.5 292,-641.5 "/>
<text text-anchor="middle" x="267" y="-629.5" font-family="Helvetica,sans-Serif" font-size="10.00" fill="#000000"> </text>
</g>
<!-- Node4&#45;&gt;Node1 -->
<g id="edge3" class="edge">
<title>Node4&#45;&gt;Node1</title>
<path fill="none" stroke="#404040" d="M262.2992,-622.4953C257.5976,-588.86 252.2203,-531.3871 261,-483 267.1943,-448.8618 277.7762,-413.3196 289.658,-380.0988"/>
<polygon fill="none" stroke="#404040" points="289.795,-379.7235 288.095,-372.7156 293.9099,-368.4511 295.6099,-375.459 289.795,-379.7235"/>
<text text-anchor="middle" x="298" y="-546.5" font-family="Helvetica,sans-Serif" font-size="10.00" fill="#000000"> #mFoilOmega</text>
<text text-anchor="middle" x="298" y="-535.5" font-family="Helvetica,sans-Serif" font-size="10.00" fill="#000000">#mGapOmega</text>
</g>
<!-- Node5 -->
<g id="node5" class="node">
<title>Node5</title>
<g id="a_node5"><a xlink:href="../../d4/dc3/classfloat.html" target="_top" xlink:title="{float\n||}">
<polygon fill="none" stroke="#000000" points="318,-622.5 318,-679.5 356,-679.5 356,-622.5 318,-622.5"/>
<text text-anchor="middle" x="337" y="-667.5" font-family="Helvetica,sans-Serif" font-size="10.00" fill="#000000">float</text>
<polyline fill="none" stroke="#000000" points="318,-660.5 356,-660.5 "/>
<text text-anchor="middle" x="337" y="-648.5" font-family="Helvetica,sans-Serif" font-size="10.00" fill="#000000"> </text>
<polyline fill="none" stroke="#000000" points="318,-641.5 356,-641.5 "/>
<text text-anchor="middle" x="337" y="-629.5" font-family="Helvetica,sans-Serif" font-size="10.00" fill="#000000"> </text>
</a>
</g>
</g>
<!-- Node5&#45;&gt;Node1 -->
<g id="edge4" class="edge">
<title>Node5&#45;&gt;Node1</title>
<path fill="none" stroke="#404040" d="M338.2372,-622.2348C339.6119,-590.2728 341.9727,-535.3844 344.4958,-476.722"/>
<polygon fill="none" stroke="#404040" points="344.5036,-476.539 340.7652,-470.3726 345.0194,-464.5501 348.7578,-470.7165 344.5036,-476.539"/>
<text text-anchor="middle" x="382" y="-596" font-family="Helvetica,sans-Serif" font-size="10.00" fill="#000000"> #mSpBinWidth</text>
<text text-anchor="middle" x="382" y="-585" font-family="Helvetica,sans-Serif" font-size="10.00" fill="#000000">#mGapA</text>
<text text-anchor="middle" x="382" y="-574" font-family="Helvetica,sans-Serif" font-size="10.00" fill="#000000">#mGapDens</text>
<text text-anchor="middle" x="382" y="-563" font-family="Helvetica,sans-Serif" font-size="10.00" fill="#000000">#mFoilZ</text>
<text text-anchor="middle" x="382" y="-552" font-family="Helvetica,sans-Serif" font-size="10.00" fill="#000000">#mTemp</text>
<text text-anchor="middle" x="382" y="-541" font-family="Helvetica,sans-Serif" font-size="10.00" fill="#000000">#mGapZ</text>
<text text-anchor="middle" x="382" y="-530" font-family="Helvetica,sans-Serif" font-size="10.00" fill="#000000">#mGapThick</text>
<text text-anchor="middle" x="382" y="-519" font-family="Helvetica,sans-Serif" font-size="10.00" fill="#000000">#mSpUpper</text>
<text text-anchor="middle" x="382" y="-508" font-family="Helvetica,sans-Serif" font-size="10.00" fill="#000000">#mFoilDens</text>
<text text-anchor="middle" x="382" y="-497" font-family="Helvetica,sans-Serif" font-size="10.00" fill="#000000">#mFoilThick</text>
<text text-anchor="middle" x="382" y="-486" font-family="Helvetica,sans-Serif" font-size="10.00" fill="#000000">...</text>
</g>
<!-- Node6 -->
<g id="node6" class="node">
<title>Node6</title>
<polygon fill="none" stroke="#bfbfbf" points="374,-622.5 374,-679.5 538,-679.5 538,-622.5 374,-622.5"/>
<text text-anchor="middle" x="456" y="-667.5" font-family="Helvetica,sans-Serif" font-size="10.00" fill="#000000">array&lt; double, mNFoilsDim &gt;</text>
<polyline fill="none" stroke="#bfbfbf" points="374,-660.5 538,-660.5 "/>
<text text-anchor="middle" x="456" y="-648.5" font-family="Helvetica,sans-Serif" font-size="10.00" fill="#000000"> </text>
<polyline fill="none" stroke="#bfbfbf" points="374,-641.5 538,-641.5 "/>
<text text-anchor="middle" x="456" y="-629.5" font-family="Helvetica,sans-Serif" font-size="10.00" fill="#000000"> </text>
</g>
<!-- Node6&#45;&gt;Node1 -->
<g id="edge5" class="edge">
<title>Node6&#45;&gt;Node1</title>
<path fill="none" stroke="#404040" d="M451.5126,-622.3016C446.0762,-588.7253 436.2372,-531.5436 425,-483 423.0746,-474.6827 421.0519,-466.2276 418.9566,-457.7005"/>
<polygon fill="none" stroke="#404040" points="418.9515,-457.6798 413.6223,-452.8218 416.0568,-446.0341 421.386,-450.892 418.9515,-457.6798"/>
<text text-anchor="middle" x="480.5" y="-541" font-family="Helvetica,sans-Serif" font-size="10.00" fill="#000000"> #mNFoilsUp</text>
</g>
<!-- Node7 -->
<g id="node7" class="node">
<title>Node7</title>
<polygon fill="none" stroke="#bfbfbf" points="556.5,-622.5 556.5,-679.5 699.5,-679.5 699.5,-622.5 556.5,-622.5"/>
<text text-anchor="middle" x="628" y="-667.5" font-family="Helvetica,sans-Serif" font-size="10.00" fill="#000000">array&lt; int, mNFoilsDim &gt;</text>
<polyline fill="none" stroke="#bfbfbf" points="556.5,-660.5 699.5,-660.5 "/>
<text text-anchor="middle" x="628" y="-648.5" font-family="Helvetica,sans-Serif" font-size="10.00" fill="#000000"> </text>
<polyline fill="none" stroke="#bfbfbf" points="556.5,-641.5 699.5,-641.5 "/>
<text text-anchor="middle" x="628" y="-629.5" font-family="Helvetica,sans-Serif" font-size="10.00" fill="#000000"> </text>
</g>
<!-- Node7&#45;&gt;Node1 -->
<g id="edge6" class="edge">
<title>Node7&#45;&gt;Node1</title>
<path fill="none" stroke="#404040" d="M609.2356,-622.2348C571.4025,-564.238 484.3264,-430.7531 422.6525,-336.2091"/>
<polygon fill="none" stroke="#404040" points="422.572,-336.0855 415.9436,-333.2457 416.0156,-326.0349 422.644,-328.8748 422.572,-336.0855"/>
<text text-anchor="middle" x="620" y="-541" font-family="Helvetica,sans-Serif" font-size="10.00" fill="#000000"> #mNFoils</text>
</g>
<!-- Node8 -->
<g id="node8" class="node">
<title>Node8</title>
<polygon fill="none" stroke="#bfbfbf" points="718,-622.5 718,-679.5 762,-679.5 762,-622.5 718,-622.5"/>
<text text-anchor="middle" x="740" y="-667.5" font-family="Helvetica,sans-Serif" font-size="10.00" fill="#000000">static</text>
<polyline fill="none" stroke="#bfbfbf" points="718,-660.5 762,-660.5 "/>
<text text-anchor="middle" x="740" y="-648.5" font-family="Helvetica,sans-Serif" font-size="10.00" fill="#000000"> </text>
<polyline fill="none" stroke="#bfbfbf" points="718,-641.5 762,-641.5 "/>
<text text-anchor="middle" x="740" y="-629.5" font-family="Helvetica,sans-Serif" font-size="10.00" fill="#000000"> </text>
</g>
<!-- Node8&#45;&gt;Node1 -->
<g id="edge7" class="edge">
<title>Node8&#45;&gt;Node1</title>
<path fill="none" stroke="#404040" d="M728.5794,-622.295C713.7618,-587.1911 685.547,-527.0207 650,-483 584.6894,-402.1207 490.5662,-327.5029 426.3151,-281.1215"/>
<polygon fill="none" stroke="#404040" points="426.0233,-280.9125 418.8163,-280.6695 416.2686,-273.9234 423.4756,-274.1664 426.0233,-280.9125"/>
<text text-anchor="middle" x="754.5" y="-552" font-family="Helvetica,sans-Serif" font-size="10.00" fill="#000000"> #mSpRange</text>
<text text-anchor="middle" x="754.5" y="-541" font-family="Helvetica,sans-Serif" font-size="10.00" fill="#000000">#mNFoilsDim</text>
<text text-anchor="middle" x="754.5" y="-530" font-family="Helvetica,sans-Serif" font-size="10.00" fill="#000000">#mSpNBins</text>
</g>
</g>
</svg>
