<?xml version="1.0" encoding="UTF-8" standalone="no"?>
<!DOCTYPE svg PUBLIC "-//W3C//DTD SVG 1.1//EN"
 "http://www.w3.org/Graphics/SVG/1.1/DTD/svg11.dtd">
<!-- Generated by graphviz version 2.40.1 (20161225.0304)
 -->
<!-- Title: o2::header::Descriptor&lt; N, PrinterPolicy &gt; Pages: 1 -->
<svg width="294pt" height="347pt"
 viewBox="0.00 0.00 293.50 347.00" xmlns="http://www.w3.org/2000/svg" xmlns:xlink="http://www.w3.org/1999/xlink">
<g id="graph0" class="graph" transform="scale(1 1) rotate(0) translate(4 343)">
<title>o2::header::Descriptor&lt; N, PrinterPolicy &gt;</title>
<!-- Node6 -->
<g id="node1" class="node">
<title>Node6</title>
<polygon fill="#bfbfbf" stroke="#000000" points="59,-.5 59,-211.5 184,-211.5 184,-.5 59,-.5"/>
<text text-anchor="start" x="67" y="-199.5" font-family="Helvetica,sans-Serif" font-size="10.00" fill="#000000">o2::header::Descriptor</text>
<text text-anchor="middle" x="121.5" y="-188.5" font-family="Helvetica,sans-Serif" font-size="10.00" fill="#000000">&lt; N, PrinterPolicy &gt;</text>
<polyline fill="none" stroke="#000000" points="59,-181.5 184,-181.5 "/>
<text text-anchor="middle" x="121.5" y="-169.5" font-family="Helvetica,sans-Serif" font-size="10.00" fill="#000000"> </text>
<polyline fill="none" stroke="#000000" points="59,-162.5 184,-162.5 "/>
<text text-anchor="start" x="67" y="-150.5" font-family="Helvetica,sans-Serif" font-size="10.00" fill="#000000">+ Descriptor()</text>
<text text-anchor="start" x="67" y="-139.5" font-family="Helvetica,sans-Serif" font-size="10.00" fill="#000000">+ Descriptor()</text>
<text text-anchor="start" x="67" y="-128.5" font-family="Helvetica,sans-Serif" font-size="10.00" fill="#000000">+ Descriptor()</text>
<text text-anchor="start" x="67" y="-117.5" font-family="Helvetica,sans-Serif" font-size="10.00" fill="#000000">+ operator=()</text>
<text text-anchor="start" x="67" y="-106.5" font-family="Helvetica,sans-Serif" font-size="10.00" fill="#000000">+ operator ItgType()</text>
<text text-anchor="start" x="67" y="-95.5" font-family="Helvetica,sans-Serif" font-size="10.00" fill="#000000">+ Descriptor()</text>
<text text-anchor="start" x="67" y="-84.5" font-family="Helvetica,sans-Serif" font-size="10.00" fill="#000000">+ runtimeInit()</text>
<text text-anchor="start" x="67" y="-73.5" font-family="Helvetica,sans-Serif" font-size="10.00" fill="#000000">+ operator==()</text>
<text text-anchor="start" x="67" y="-62.5" font-family="Helvetica,sans-Serif" font-size="10.00" fill="#000000">+ operator&lt;()</text>
<text text-anchor="start" x="67" y="-51.5" font-family="Helvetica,sans-Serif" font-size="10.00" fill="#000000">+ operator!=()</text>
<text text-anchor="start" x="67" y="-40.5" font-family="Helvetica,sans-Serif" font-size="10.00" fill="#000000">+ operator==()</text>
<text text-anchor="start" x="67" y="-29.5" font-family="Helvetica,sans-Serif" font-size="10.00" fill="#000000">+ operator!=()</text>
<text text-anchor="start" x="67" y="-18.5" font-family="Helvetica,sans-Serif" font-size="10.00" fill="#000000">+ as()</text>
<text text-anchor="start" x="67" y="-7.5" font-family="Helvetica,sans-Serif" font-size="10.00" fill="#000000">+ print()</text>
</g>
<!-- Node7 -->
<g id="node2" class="node">
<title>Node7</title>
<polygon fill="none" stroke="#bfbfbf" points="0,-281.5 0,-338.5 39,-338.5 39,-281.5 0,-281.5"/>
<text text-anchor="middle" x="19.5" y="-326.5" font-family="Helvetica,sans-Serif" font-size="10.00" fill="#000000">Type</text>
<polyline fill="none" stroke="#bfbfbf" points="0,-319.5 39,-319.5 "/>
<text text-anchor="middle" x="19.5" y="-307.5" font-family="Helvetica,sans-Serif" font-size="10.00" fill="#000000"> </text>
<polyline fill="none" stroke="#bfbfbf" points="0,-300.5 39,-300.5 "/>
<text text-anchor="middle" x="19.5" y="-288.5" font-family="Helvetica,sans-Serif" font-size="10.00" fill="#000000"> </text>
</g>
<!-- Node7&#45;&gt;Node6 -->
<g id="edge1" class="edge">
<title>Node7&#45;&gt;Node6</title>
<path fill="none" stroke="#404040" d="M33.2846,-281.4344C40.6974,-266.1468 50.0314,-247.0141 58.5,-230 59.7021,-227.585 60.9192,-225.1445 62.1478,-222.6856"/>
<polygon fill="none" stroke="#404040" points="62.2228,-222.5357 61.3334,-215.3797 67.5969,-211.8063 68.4863,-218.9624 62.2228,-222.5357"/>
<text text-anchor="middle" x="71" y="-244" font-family="Helvetica,sans-Serif" font-size="10.00" fill="#000000"> +itg</text>
</g>
<!-- Node8 -->
<g id="node3" class="node">
<title>Node8</title>
<polygon fill="none" stroke="#bfbfbf" points="57.5,-281.5 57.5,-338.5 95.5,-338.5 95.5,-281.5 57.5,-281.5"/>
<text text-anchor="middle" x="76.5" y="-326.5" font-family="Helvetica,sans-Serif" font-size="10.00" fill="#000000">char</text>
<polyline fill="none" stroke="#bfbfbf" points="57.5,-319.5 95.5,-319.5 "/>
<text text-anchor="middle" x="76.5" y="-307.5" font-family="Helvetica,sans-Serif" font-size="10.00" fill="#000000"> </text>
<polyline fill="none" stroke="#bfbfbf" points="57.5,-300.5 95.5,-300.5 "/>
<text text-anchor="middle" x="76.5" y="-288.5" font-family="Helvetica,sans-Serif" font-size="10.00" fill="#000000"> </text>
</g>
<!-- Node8&#45;&gt;Node6 -->
<g id="edge2" class="edge">
<title>Node8&#45;&gt;Node6</title>
<path fill="none" stroke="#404040" d="M82.852,-281.2045C86.3066,-265.5434 90.8347,-245.0161 95.5703,-223.5478"/>
<polygon fill="none" stroke="#404040" points="95.6321,-223.2674 93.0185,-216.5466 98.2171,-211.5491 100.8307,-218.2699 95.6321,-223.2674"/>
<text text-anchor="middle" x="107" y="-244" font-family="Helvetica,sans-Serif" font-size="10.00" fill="#000000"> +str</text>
</g>
<!-- Node9 -->
<g id="node4" class="node">
<title>Node9</title>
<polygon fill="none" stroke="#bfbfbf" points="114,-281.5 114,-338.5 221,-338.5 221,-281.5 114,-281.5"/>
<text text-anchor="middle" x="167.5" y="-326.5" font-family="Helvetica,sans-Serif" font-size="10.00" fill="#000000">anonymous:+@24</text>
<polyline fill="none" stroke="#bfbfbf" points="114,-319.5 221,-319.5 "/>
<text text-anchor="middle" x="167.5" y="-307.5" font-family="Helvetica,sans-Serif" font-size="10.00" fill="#000000"> </text>
<polyline fill="none" stroke="#bfbfbf" points="114,-300.5 221,-300.5 "/>
<text text-anchor="middle" x="167.5" y="-288.5" font-family="Helvetica,sans-Serif" font-size="10.00" fill="#000000"> </text>
</g>
<!-- Node9&#45;&gt;Node6 -->
<g id="edge3" class="edge">
<title>Node9&#45;&gt;Node6</title>
<path fill="none" stroke="#404040" d="M161.0069,-281.2045C157.4755,-265.5434 152.8468,-245.0161 148.0059,-223.5478"/>
<polygon fill="none" stroke="#404040" points="147.94,-223.2552 142.7181,-218.2821 145.3003,-211.5491 150.5222,-216.5223 147.94,-223.2552"/>
<text text-anchor="middle" x="172.5" y="-244" font-family="Helvetica,sans-Serif" font-size="10.00" fill="#000000"> +@24</text>
</g>
<!-- Node10 -->
<g id="node5" class="node">
<title>Node10</title>
<polygon fill="none" stroke="#bfbfbf" points="239.5,-281.5 239.5,-338.5 283.5,-338.5 283.5,-281.5 239.5,-281.5"/>
<text text-anchor="middle" x="261.5" y="-326.5" font-family="Helvetica,sans-Serif" font-size="10.00" fill="#000000">static</text>
<polyline fill="none" stroke="#bfbfbf" points="239.5,-319.5 283.5,-319.5 "/>
<text text-anchor="middle" x="261.5" y="-307.5" font-family="Helvetica,sans-Serif" font-size="10.00" fill="#000000"> </text>
<polyline fill="none" stroke="#bfbfbf" points="239.5,-300.5 283.5,-300.5 "/>
<text text-anchor="middle" x="261.5" y="-288.5" font-family="Helvetica,sans-Serif" font-size="10.00" fill="#000000"> </text>
</g>
<!-- Node10&#45;&gt;Node6 -->
<g id="edge4" class="edge">
<title>Node10&#45;&gt;Node6</title>
<path fill="none" stroke="#404040" d="M241.7384,-281.2045C228.3125,-261.6411 209.6754,-234.4841 191.0779,-207.385"/>
<polygon fill="none" stroke="#404040" points="191.0279,-207.3121 184.3348,-204.6284 184.2378,-197.4179 190.9309,-200.1016 191.0279,-207.3121"/>
<text text-anchor="middle" x="256.5" y="-255" font-family="Helvetica,sans-Serif" font-size="10.00" fill="#000000"> +arraySize</text>
<text text-anchor="middle" x="256.5" y="-244" font-family="Helvetica,sans-Serif" font-size="10.00" fill="#000000">+size</text>
<text text-anchor="middle" x="256.5" y="-233" font-family="Helvetica,sans-Serif" font-size="10.00" fill="#000000">+bitcount</text>
</g>
</g>
</svg>
