<?xml version="1.0" encoding="UTF-8" standalone="no"?>
<!DOCTYPE svg PUBLIC "-//W3C//DTD SVG 1.1//EN"
 "http://www.w3.org/Graphics/SVG/1.1/DTD/svg11.dtd">
<!-- Generated by graphviz version 2.40.1 (20161225.0304)
 -->
<!-- Title: /home/travis/build/AliceO2Group/AliceO2/Detectors/ITSMFT/ITS/tracking/hip/include/ITStrackingHIP/VectorHIP.h Pages: 1 -->
<svg width="693pt" height="240pt"
 viewBox="0.00 0.00 693.00 240.00" xmlns="http://www.w3.org/2000/svg" xmlns:xlink="http://www.w3.org/1999/xlink">
<g id="graph0" class="graph" transform="scale(1 1) rotate(0) translate(4 236)">
<title>/home/travis/build/AliceO2Group/AliceO2/Detectors/ITSMFT/ITS/tracking/hip/include/ITStrackingHIP/VectorHIP.h</title>
<!-- Node0 -->
<g id="node1" class="node">
<title>Node0</title>
<polygon fill="#bfbfbf" stroke="#000000" points="153.5,-168.5 153.5,-231.5 326.5,-231.5 326.5,-168.5 153.5,-168.5"/>
<text text-anchor="start" x="161.5" y="-219.5" font-family="Helvetica,sans-Serif" font-size="10.00" fill="#000000">/home/travis/build</text>
<text text-anchor="start" x="161.5" y="-208.5" font-family="Helvetica,sans-Serif" font-size="10.00" fill="#000000">/AliceO2Group/AliceO2</text>
<text text-anchor="start" x="161.5" y="-197.5" font-family="Helvetica,sans-Serif" font-size="10.00" fill="#000000">/Detectors/ITSMFT/ITS</text>
<text text-anchor="start" x="161.5" y="-186.5" font-family="Helvetica,sans-Serif" font-size="10.00" fill="#000000">/tracking/hip/include/ITStracking</text>
<text text-anchor="middle" x="240" y="-175.5" font-family="Helvetica,sans-Serif" font-size="10.00" fill="#000000">HIP/VectorHIP.h</text>
</g>
<!-- Node1 -->
<g id="node2" class="node">
<title>Node1</title>
<polygon fill="none" stroke="#bfbfbf" points="0,-112.5 0,-131.5 56,-131.5 56,-112.5 0,-112.5"/>
<text text-anchor="middle" x="28" y="-119.5" font-family="Helvetica,sans-Serif" font-size="10.00" fill="#000000">assert.h</text>
</g>
<!-- Node0&#45;&gt;Node1 -->
<g id="edge1" class="edge">
<title>Node0&#45;&gt;Node1</title>
<path fill="none" stroke="#191970" d="M154.3826,-168.4992C122.668,-156.8307 88.4237,-144.2314 63.5912,-135.0949"/>
<polygon fill="#191970" stroke="#191970" points="64.4878,-131.6954 53.8943,-131.5271 62.0707,-138.2649 64.4878,-131.6954"/>
</g>
<!-- Node2 -->
<g id="node3" class="node">
<title>Node2</title>
<polygon fill="none" stroke="#bfbfbf" points="74.5,-112.5 74.5,-131.5 111.5,-131.5 111.5,-112.5 74.5,-112.5"/>
<text text-anchor="middle" x="93" y="-119.5" font-family="Helvetica,sans-Serif" font-size="10.00" fill="#000000">new</text>
</g>
<!-- Node0&#45;&gt;Node2 -->
<g id="edge2" class="edge">
<title>Node0&#45;&gt;Node2</title>
<path fill="none" stroke="#191970" d="M180.6332,-168.4992C159.7175,-157.4011 137.2151,-145.4611 120.25,-136.4592"/>
<polygon fill="#191970" stroke="#191970" points="121.429,-133.1226 110.955,-131.5271 118.148,-139.3061 121.429,-133.1226"/>
</g>
<!-- Node3 -->
<g id="node4" class="node">
<title>Node3</title>
<polygon fill="none" stroke="#bfbfbf" points="129.5,-112.5 129.5,-131.5 198.5,-131.5 198.5,-112.5 129.5,-112.5"/>
<text text-anchor="middle" x="164" y="-119.5" font-family="Helvetica,sans-Serif" font-size="10.00" fill="#000000">type_traits</text>
</g>
<!-- Node0&#45;&gt;Node3 -->
<g id="edge3" class="edge">
<title>Node0&#45;&gt;Node3</title>
<path fill="none" stroke="#191970" d="M209.0879,-168.2744C199.2711,-158.1993 188.8001,-147.4527 180.4221,-138.8543"/>
<polygon fill="#191970" stroke="#191970" points="182.8808,-136.3623 173.3953,-131.6426 177.8672,-141.2474 182.8808,-136.3623"/>
</g>
<!-- Node4 -->
<g id="node5" class="node">
<title>Node4</title>
<polygon fill="none" stroke="#bfbfbf" points="216.5,-112.5 216.5,-131.5 263.5,-131.5 263.5,-112.5 216.5,-112.5"/>
<text text-anchor="middle" x="240" y="-119.5" font-family="Helvetica,sans-Serif" font-size="10.00" fill="#000000">vector</text>
</g>
<!-- Node0&#45;&gt;Node4 -->
<g id="edge4" class="edge">
<title>Node0&#45;&gt;Node4</title>
<path fill="none" stroke="#191970" d="M240,-168.2744C240,-159.3302 240,-149.8568 240,-141.8269"/>
<polygon fill="#191970" stroke="#191970" points="243.5001,-141.6425 240,-131.6426 236.5001,-141.6426 243.5001,-141.6425"/>
</g>
<!-- Node5 -->
<g id="node6" class="node">
<title>Node5</title>
<g id="a_node6"><a xlink:href="../../d4/dac/StreamHIP_8h.html" target="_top" xlink:title="ITStrackingHIP/StreamHIP.h">
<polygon fill="none" stroke="#000000" points="217,-56.5 217,-75.5 367,-75.5 367,-56.5 217,-56.5"/>
<text text-anchor="middle" x="292" y="-63.5" font-family="Helvetica,sans-Serif" font-size="10.00" fill="#000000">ITStrackingHIP/StreamHIP.h</text>
</a>
</g>
</g>
<!-- Node0&#45;&gt;Node5 -->
<g id="edge5" class="edge">
<title>Node0&#45;&gt;Node5</title>
<path fill="none" stroke="#191970" d="M256.1143,-168.247C261.5289,-156.9577 267.3647,-144.0566 272,-132 277.9077,-116.6338 283.239,-98.7342 286.9087,-85.4555"/>
<polygon fill="#191970" stroke="#191970" points="290.3567,-86.1114 289.5767,-75.5453 283.5974,-84.2916 290.3567,-86.1114"/>
</g>
<!-- Node7 -->
<g id="node8" class="node">
<title>Node7</title>
<g id="a_node8"><a xlink:href="../../d8/d28/UtilsHIP_8h.html" target="_top" xlink:title="ITStrackingHIP/UtilsHIP.h">
<polygon fill="none" stroke="#000000" points="320.5,-112.5 320.5,-131.5 457.5,-131.5 457.5,-112.5 320.5,-112.5"/>
<text text-anchor="middle" x="389" y="-119.5" font-family="Helvetica,sans-Serif" font-size="10.00" fill="#000000">ITStrackingHIP/UtilsHIP.h</text>
</a>
</g>
</g>
<!-- Node0&#45;&gt;Node7 -->
<g id="edge7" class="edge">
<title>Node0&#45;&gt;Node7</title>
<path fill="none" stroke="#191970" d="M300.1745,-168.4992C321.5729,-157.2974 344.6098,-145.2378 361.8599,-136.2076"/>
<polygon fill="#191970" stroke="#191970" points="363.5645,-139.2659 370.8007,-131.5271 360.318,-133.0642 363.5645,-139.2659"/>
</g>
<!-- Node8 -->
<g id="node9" class="node">
<title>Node8</title>
<g id="a_node9"><a xlink:href="../../df/d21/GPUCommonDef_8h.html" target="_top" xlink:title="GPUCommonDef.h">
<polygon fill="none" stroke="#000000" points="427.5,-56.5 427.5,-75.5 534.5,-75.5 534.5,-56.5 427.5,-56.5"/>
<text text-anchor="middle" x="481" y="-63.5" font-family="Helvetica,sans-Serif" font-size="10.00" fill="#000000">GPUCommonDef.h</text>
</a>
</g>
</g>
<!-- Node0&#45;&gt;Node8 -->
<g id="edge13" class="edge">
<title>Node0&#45;&gt;Node8</title>
<path fill="none" stroke="#191970" d="M326.5915,-183.3498C381.8435,-171.0094 446.6032,-152.7792 466,-132 477.5012,-119.6791 480.8231,-100.4451 481.5209,-85.9129"/>
<polygon fill="#191970" stroke="#191970" points="485.0206,-85.9481 481.635,-75.9088 478.0211,-85.8682 485.0206,-85.9481"/>
</g>
<!-- Node6 -->
<g id="node7" class="node">
<title>Node6</title>
<polygon fill="none" stroke="#bfbfbf" points="247,-.5 247,-19.5 369,-19.5 369,-.5 247,-.5"/>
<text text-anchor="middle" x="308" y="-7.5" font-family="Helvetica,sans-Serif" font-size="10.00" fill="#000000">hip/hip_runtime_api.h</text>
</g>
<!-- Node5&#45;&gt;Node6 -->
<g id="edge6" class="edge">
<title>Node5&#45;&gt;Node6</title>
<path fill="none" stroke="#191970" d="M294.787,-56.2455C296.8977,-48.8579 299.866,-38.4689 302.4547,-29.4087"/>
<polygon fill="#191970" stroke="#191970" points="305.863,-30.2195 305.245,-19.6427 299.1323,-28.2964 305.863,-30.2195"/>
</g>
<!-- Node7&#45;&gt;Node5 -->
<g id="edge11" class="edge">
<title>Node7&#45;&gt;Node5</title>
<path fill="none" stroke="#191970" d="M372.1039,-112.2455C357.082,-103.5731 334.8957,-90.7645 317.679,-80.825"/>
<polygon fill="#191970" stroke="#191970" points="319.1128,-77.6114 308.7025,-75.6427 315.6129,-83.6737 319.1128,-77.6114"/>
</g>
<!-- Node7&#45;&gt;Node6 -->
<g id="edge12" class="edge">
<title>Node7&#45;&gt;Node6</title>
<path fill="none" stroke="#191970" d="M389.3131,-112.1784C389.2827,-98.4676 387.4834,-73.328 376,-56 367.0438,-42.4855 352.6212,-31.899 339.3583,-24.3066"/>
<polygon fill="#191970" stroke="#191970" points="340.9104,-21.1676 330.4429,-19.5296 337.6043,-27.3376 340.9104,-21.1676"/>
</g>
<!-- Node7&#45;&gt;Node8 -->
<g id="edge8" class="edge">
<title>Node7&#45;&gt;Node8</title>
<path fill="none" stroke="#191970" d="M405.0252,-112.2455C419.1408,-103.6534 439.9263,-91.0014 456.1899,-81.1018"/>
<polygon fill="#191970" stroke="#191970" points="458.4363,-83.8319 465.1585,-75.6427 454.7966,-77.8525 458.4363,-83.8319"/>
</g>
<!-- Node9 -->
<g id="node10" class="node">
<title>Node9</title>
<g id="a_node10"><a xlink:href="../../d5/d93/GPUCommonDefSettings_8h.html" target="_top" xlink:title="GPUCommonDefSettings.h">
<polygon fill="none" stroke="#000000" points="395,-.5 395,-19.5 543,-19.5 543,-.5 395,-.5"/>
<text text-anchor="middle" x="469" y="-7.5" font-family="Helvetica,sans-Serif" font-size="10.00" fill="#000000">GPUCommonDefSettings.h</text>
</a>
</g>
</g>
<!-- Node8&#45;&gt;Node9 -->
<g id="edge9" class="edge">
<title>Node8&#45;&gt;Node9</title>
<path fill="none" stroke="#191970" d="M478.9098,-56.2455C477.3439,-48.9382 475.1488,-38.6944 473.2224,-29.7046"/>
<polygon fill="#191970" stroke="#191970" points="476.584,-28.6873 471.0663,-19.6427 469.7393,-30.1541 476.584,-28.6873"/>
</g>
<!-- Node10 -->
<g id="node11" class="node">
<title>Node10</title>
<g id="a_node11"><a xlink:href="../../da/d5a/GPUCommonDefAPI_8h.html" target="_top" xlink:title="GPUCommonDefAPI.h">
<polygon fill="none" stroke="#000000" points="561,-.5 561,-19.5 685,-19.5 685,-.5 561,-.5"/>
<text text-anchor="middle" x="623" y="-7.5" font-family="Helvetica,sans-Serif" font-size="10.00" fill="#000000">GPUCommonDefAPI.h</text>
</a>
</g>
</g>
<!-- Node8&#45;&gt;Node10 -->
<g id="edge10" class="edge">
<title>Node8&#45;&gt;Node10</title>
<path fill="none" stroke="#191970" d="M505.4107,-56.3733C528.6142,-47.2226 563.7038,-33.3844 589.5142,-23.2057"/>
<polygon fill="#191970" stroke="#191970" points="590.8892,-26.4258 598.9079,-19.5011 588.3211,-19.9139 590.8892,-26.4258"/>
</g>
</g>
</svg>
