<?xml version="1.0" encoding="UTF-8" standalone="no"?>
<!DOCTYPE svg PUBLIC "-//W3C//DTD SVG 1.1//EN"
 "http://www.w3.org/Graphics/SVG/1.1/DTD/svg11.dtd">
<!-- Generated by graphviz version 2.40.1 (20161225.0304)
 -->
<!-- Title: o2::tpc::ClusterNativeBuffer Pages: 1 -->
<!--zoomable 785 -->
<svg id="main" version="1.1" xmlns="http://www.w3.org/2000/svg" xmlns:xlink="http://www.w3.org/1999/xlink" xml:space="preserve" onload="init(evt)">
<style type="text/css"><![CDATA[
.edge:hover path { stroke: red; }
.edge:hover polygon { stroke: red; fill: red; }
]]></style>
<script type="text/javascript"><![CDATA[
var edges = document.getElementsByTagName('g');
if (edges && edges.length) {
  for (var i=0;i<edges.length;i++) {
    if (edges[i].id.substr(0,4)=='edge') {
      edges[i].setAttribute('class','edge');
    }
  }
}
]]></script>
        <defs>
                <circle id="rim" cx="0" cy="0" r="7"/>
                <circle id="rim2" cx="0" cy="0" r="3.5"/>
                <g id="zoomPlus">
                        <use xlink:href="#rim" fill="#404040">
                                <set attributeName="fill" to="#808080" begin="zoomplus.mouseover" end="zoomplus.mouseout"/>
                        </use>
                        <path d="M-4,0h8M0,-4v8" fill="none" stroke="white" stroke-width="1.5" pointer-events="none"/>
                </g>
                <g id="zoomMin">
                        <use xlink:href="#rim" fill="#404040">
                                <set attributeName="fill" to="#808080" begin="zoomminus.mouseover" end="zoomminus.mouseout"/>
                        </use>
                        <path d="M-4,0h8" fill="none" stroke="white" stroke-width="1.5" pointer-events="none"/>
                </g>
                <g id="dirArrow">
                        <path fill="none" stroke="white" stroke-width="1.5" d="M0,-3.0v7 M-2.5,-0.5L0,-3.0L2.5,-0.5"/>
                </g>
               <g id="resetDef">
                       <use xlink:href="#rim2" fill="#404040">
                               <set attributeName="fill" to="#808080" begin="reset.mouseover" end="reset.mouseout"/>
                       </use>
               </g>
        </defs>

<script type="text/javascript">
var viewWidth = 661;
var viewHeight = 785;
var sectionId = 'dynsection-1';
</script>
<script xlink:href="../../svgpan.js"/>
<svg id="graph" class="graph">
<g id="viewport">
<title>o2::tpc::ClusterNativeBuffer</title>
<!-- Node3 -->
<g id="node1" class="node">
<title>Node3</title>
<polygon fill="#bfbfbf" stroke="#000000" points="126,-.5 126,-79.5 278,-79.5 278,-.5 126,-.5"/>
<text text-anchor="middle" x="202" y="-67.5" font-family="Helvetica,sans-Serif" font-size="10.00" fill="#000000">o2::tpc::ClusterNativeBuffer</text>
<polyline fill="none" stroke="#000000" points="126,-60.5 278,-60.5 "/>
<text text-anchor="middle" x="202" y="-48.5" font-family="Helvetica,sans-Serif" font-size="10.00" fill="#000000"> </text>
<polyline fill="none" stroke="#000000" points="126,-41.5 278,-41.5 "/>
<text text-anchor="start" x="134" y="-29.5" font-family="Helvetica,sans-Serif" font-size="10.00" fill="#000000">+ getFlatSize()</text>
<text text-anchor="start" x="134" y="-18.5" font-family="Helvetica,sans-Serif" font-size="10.00" fill="#000000">+ data()</text>
<text text-anchor="start" x="134" y="-7.5" font-family="Helvetica,sans-Serif" font-size="10.00" fill="#000000">+ data()</text>
</g>
<!-- Node4 -->
<g id="node2" class="node">
<title>Node4</title>
<g id="a_node2"><a xlink:href="../../d4/dcf/structo2_1_1tpc_1_1ClusterGroupHeader.html" target="_top" xlink:title="{o2::tpc::ClusterGroupHeader\n||+ ClusterGroupHeader()\l}">
<polygon fill="none" stroke="#000000" points="46.5,-281.5 46.5,-338.5 201.5,-338.5 201.5,-281.5 46.5,-281.5"/>
<text text-anchor="middle" x="124" y="-326.5" font-family="Helvetica,sans-Serif" font-size="10.00" fill="#000000">o2::tpc::ClusterGroupHeader</text>
<polyline fill="none" stroke="#000000" points="46.5,-319.5 201.5,-319.5 "/>
<text text-anchor="middle" x="124" y="-307.5" font-family="Helvetica,sans-Serif" font-size="10.00" fill="#000000"> </text>
<polyline fill="none" stroke="#000000" points="46.5,-300.5 201.5,-300.5 "/>
<text text-anchor="start" x="54.5" y="-288.5" font-family="Helvetica,sans-Serif" font-size="10.00" fill="#000000">+ ClusterGroupHeader()</text>
</a>
</g>
</g>
<!-- Node4&#45;&gt;Node3 -->
<g id="edge1" class="edge">
<title>Node4&#45;&gt;Node3</title>
<path fill="none" stroke="#191970" d="M135.0599,-271.7156C149.769,-220.7996 175.6416,-131.2407 190.5466,-79.6462"/>
<polygon fill="none" stroke="#191970" points="131.6865,-270.7823 132.2735,-281.3609 138.4115,-272.7252 131.6865,-270.7823"/>
</g>
<!-- Node5 -->
<g id="node3" class="node">
<title>Node5</title>
<g id="a_node3"><a xlink:href="../../d6/de9/structo2_1_1tpc_1_1ClusterGroupAttribute.html" target="_top" xlink:title="{o2::tpc::ClusterGroupAttribute\n||+ set()\l+ getSubSpecification()\l}">
<polygon fill="none" stroke="#000000" points="0,-583 0,-651 162,-651 162,-583 0,-583"/>
<text text-anchor="middle" x="81" y="-639" font-family="Helvetica,sans-Serif" font-size="10.00" fill="#000000">o2::tpc::ClusterGroupAttribute</text>
<polyline fill="none" stroke="#000000" points="0,-632 162,-632 "/>
<text text-anchor="middle" x="81" y="-620" font-family="Helvetica,sans-Serif" font-size="10.00" fill="#000000"> </text>
<polyline fill="none" stroke="#000000" points="0,-613 162,-613 "/>
<text text-anchor="start" x="8" y="-601" font-family="Helvetica,sans-Serif" font-size="10.00" fill="#000000">+ set()</text>
<text text-anchor="start" x="8" y="-590" font-family="Helvetica,sans-Serif" font-size="10.00" fill="#000000">+ getSubSpecification()</text>
</a>
</g>
</g>
<!-- Node5&#45;&gt;Node4 -->
<g id="edge2" class="edge">
<title>Node5&#45;&gt;Node4</title>
<path fill="none" stroke="#191970" d="M87.1891,-572.8128C96.1357,-508.9381 112.4338,-392.577 119.9746,-338.7395"/>
<polygon fill="none" stroke="#191970" points="83.6871,-572.5838 85.766,-582.9726 90.6194,-573.5548 83.6871,-572.5838"/>
</g>
<!-- Node6 -->
<g id="node4" class="node">
<title>Node6</title>
<polygon fill="none" stroke="#bfbfbf" points="157,-719.5 157,-776.5 207,-776.5 207,-719.5 157,-719.5"/>
<text text-anchor="middle" x="182" y="-764.5" font-family="Helvetica,sans-Serif" font-size="10.00" fill="#000000">uint8_t</text>
<polyline fill="none" stroke="#bfbfbf" points="157,-757.5 207,-757.5 "/>
<text text-anchor="middle" x="182" y="-745.5" font-family="Helvetica,sans-Serif" font-size="10.00" fill="#000000"> </text>
<polyline fill="none" stroke="#bfbfbf" points="157,-738.5 207,-738.5 "/>
<text text-anchor="middle" x="182" y="-726.5" font-family="Helvetica,sans-Serif" font-size="10.00" fill="#000000"> </text>
</g>
<!-- Node6&#45;&gt;Node5 -->
<g id="edge3" class="edge">
<title>Node6&#45;&gt;Node5</title>
<path fill="none" stroke="#404040" d="M159.8351,-719.2515C146.6817,-702.1912 129.7364,-680.2126 114.9289,-661.0068"/>
<polygon fill="none" stroke="#404040" points="114.7389,-660.7604 107.9076,-658.451 107.4118,-651.2569 114.2432,-653.5663 114.7389,-660.7604"/>
<text text-anchor="middle" x="182" y="-693" font-family="Helvetica,sans-Serif" font-size="10.00" fill="#000000"> +sector</text>
<text text-anchor="middle" x="182" y="-682" font-family="Helvetica,sans-Serif" font-size="10.00" fill="#000000">+globalPadRow</text>
</g>
<!-- Node8 -->
<g id="node6" class="node">
<title>Node8</title>
<g id="a_node6"><a xlink:href="../../dc/dbc/structo2_1_1tpc_1_1ClusterNative.html" target="_top" xlink:title="{o2::tpc::ClusterNative\n||+ GPUd()\l+ GPUd()\l+ GPUd()\l+ GPUd()\l+ GPUdDefault()\l+ GPUd()\l+ sigmaTimePacked()\l+ sigmaPadPacked()\l+ qMax()\l+ qTot()\l+ GPUd()\l+ GPUd()\l+ GPUd()\l+ GPUd()\l+ GPUd()\l+ GPUd()\l+ GPUd()\l+ GPUd()\l+ GPUd()\l+ GPUd()\l+ GPUd()\l+ GPUd()\l+ GPUd()\l+ GPUd()\l+ GPUd()\l+ GPUd()\l+ GPUd()\l+ GPUd()\l+ GPUd()\l}">
<polygon fill="none" stroke="#000000" points="262.5,-127.5 262.5,-492.5 387.5,-492.5 387.5,-127.5 262.5,-127.5"/>
<text text-anchor="middle" x="325" y="-480.5" font-family="Helvetica,sans-Serif" font-size="10.00" fill="#000000">o2::tpc::ClusterNative</text>
<polyline fill="none" stroke="#000000" points="262.5,-473.5 387.5,-473.5 "/>
<text text-anchor="middle" x="325" y="-461.5" font-family="Helvetica,sans-Serif" font-size="10.00" fill="#000000"> </text>
<polyline fill="none" stroke="#000000" points="262.5,-454.5 387.5,-454.5 "/>
<text text-anchor="start" x="270.5" y="-442.5" font-family="Helvetica,sans-Serif" font-size="10.00" fill="#000000">+ GPUd()</text>
<text text-anchor="start" x="270.5" y="-431.5" font-family="Helvetica,sans-Serif" font-size="10.00" fill="#000000">+ GPUd()</text>
<text text-anchor="start" x="270.5" y="-420.5" font-family="Helvetica,sans-Serif" font-size="10.00" fill="#000000">+ GPUd()</text>
<text text-anchor="start" x="270.5" y="-409.5" font-family="Helvetica,sans-Serif" font-size="10.00" fill="#000000">+ GPUd()</text>
<text text-anchor="start" x="270.5" y="-398.5" font-family="Helvetica,sans-Serif" font-size="10.00" fill="#000000">+ GPUdDefault()</text>
<text text-anchor="start" x="270.5" y="-387.5" font-family="Helvetica,sans-Serif" font-size="10.00" fill="#000000">+ GPUd()</text>
<text text-anchor="start" x="270.5" y="-376.5" font-family="Helvetica,sans-Serif" font-size="10.00" fill="#000000">+ sigmaTimePacked()</text>
<text text-anchor="start" x="270.5" y="-365.5" font-family="Helvetica,sans-Serif" font-size="10.00" fill="#000000">+ sigmaPadPacked()</text>
<text text-anchor="start" x="270.5" y="-354.5" font-family="Helvetica,sans-Serif" font-size="10.00" fill="#000000">+ qMax()</text>
<text text-anchor="start" x="270.5" y="-343.5" font-family="Helvetica,sans-Serif" font-size="10.00" fill="#000000">+ qTot()</text>
<text text-anchor="start" x="270.5" y="-332.5" font-family="Helvetica,sans-Serif" font-size="10.00" fill="#000000">+ GPUd()</text>
<text text-anchor="start" x="270.5" y="-321.5" font-family="Helvetica,sans-Serif" font-size="10.00" fill="#000000">+ GPUd()</text>
<text text-anchor="start" x="270.5" y="-310.5" font-family="Helvetica,sans-Serif" font-size="10.00" fill="#000000">+ GPUd()</text>
<text text-anchor="start" x="270.5" y="-299.5" font-family="Helvetica,sans-Serif" font-size="10.00" fill="#000000">+ GPUd()</text>
<text text-anchor="start" x="270.5" y="-288.5" font-family="Helvetica,sans-Serif" font-size="10.00" fill="#000000">+ GPUd()</text>
<text text-anchor="start" x="270.5" y="-277.5" font-family="Helvetica,sans-Serif" font-size="10.00" fill="#000000">+ GPUd()</text>
<text text-anchor="start" x="270.5" y="-266.5" font-family="Helvetica,sans-Serif" font-size="10.00" fill="#000000">+ GPUd()</text>
<text text-anchor="start" x="270.5" y="-255.5" font-family="Helvetica,sans-Serif" font-size="10.00" fill="#000000">+ GPUd()</text>
<text text-anchor="start" x="270.5" y="-244.5" font-family="Helvetica,sans-Serif" font-size="10.00" fill="#000000">+ GPUd()</text>
<text text-anchor="start" x="270.5" y="-233.5" font-family="Helvetica,sans-Serif" font-size="10.00" fill="#000000">+ GPUd()</text>
<text text-anchor="start" x="270.5" y="-222.5" font-family="Helvetica,sans-Serif" font-size="10.00" fill="#000000">+ GPUd()</text>
<text text-anchor="start" x="270.5" y="-211.5" font-family="Helvetica,sans-Serif" font-size="10.00" fill="#000000">+ GPUd()</text>
<text text-anchor="start" x="270.5" y="-200.5" font-family="Helvetica,sans-Serif" font-size="10.00" fill="#000000">+ GPUd()</text>
<text text-anchor="start" x="270.5" y="-189.5" font-family="Helvetica,sans-Serif" font-size="10.00" fill="#000000">+ GPUd()</text>
<text text-anchor="start" x="270.5" y="-178.5" font-family="Helvetica,sans-Serif" font-size="10.00" fill="#000000">+ GPUd()</text>
<text text-anchor="start" x="270.5" y="-167.5" font-family="Helvetica,sans-Serif" font-size="10.00" fill="#000000">+ GPUd()</text>
<text text-anchor="start" x="270.5" y="-156.5" font-family="Helvetica,sans-Serif" font-size="10.00" fill="#000000">+ GPUd()</text>
<text text-anchor="start" x="270.5" y="-145.5" font-family="Helvetica,sans-Serif" font-size="10.00" fill="#000000">+ GPUd()</text>
<text text-anchor="start" x="270.5" y="-134.5" font-family="Helvetica,sans-Serif" font-size="10.00" fill="#000000">+ GPUd()</text>
</a>
</g>
</g>
<!-- Node6&#45;&gt;Node8 -->
<g id="edge7" class="edge">
<title>Node6&#45;&gt;Node8</title>
<path fill="none" stroke="#404040" d="M207.1846,-722.1014C213.0386,-715.4812 219.011,-708.1937 224,-701 235.4426,-684.5007 238.044,-679.8354 245,-661 263.33,-611.3665 278.2853,-556.1761 290.0934,-504.5317"/>
<polygon fill="none" stroke="#404040" points="290.1592,-504.2389 287.5751,-497.5067 292.7956,-492.532 295.3797,-499.2642 290.1592,-504.2389"/>
<text text-anchor="middle" x="321" y="-653" font-family="Helvetica,sans-Serif" font-size="10.00" fill="#000000"> +qtot</text>
<text text-anchor="middle" x="321" y="-642" font-family="Helvetica,sans-Serif" font-size="10.00" fill="#000000">+sigmaTimePacked</text>
<text text-anchor="middle" x="321" y="-631" font-family="Helvetica,sans-Serif" font-size="10.00" fill="#000000">+pad</text>
<text text-anchor="middle" x="321" y="-620" font-family="Helvetica,sans-Serif" font-size="10.00" fill="#000000">+sigmaTime</text>
<text text-anchor="middle" x="321" y="-609" font-family="Helvetica,sans-Serif" font-size="10.00" fill="#000000">+flags</text>
<text text-anchor="middle" x="321" y="-598" font-family="Helvetica,sans-Serif" font-size="10.00" fill="#000000">+sigmaPad</text>
<text text-anchor="middle" x="321" y="-587" font-family="Helvetica,sans-Serif" font-size="10.00" fill="#000000">+sigmaPadPacked</text>
<text text-anchor="middle" x="321" y="-576" font-family="Helvetica,sans-Serif" font-size="10.00" fill="#000000">+qmax</text>
</g>
<!-- Node7 -->
<g id="node5" class="node">
<title>Node7</title>
<polygon fill="none" stroke="#bfbfbf" points="180,-588.5 180,-645.5 236,-645.5 236,-588.5 180,-588.5"/>
<text text-anchor="middle" x="208" y="-633.5" font-family="Helvetica,sans-Serif" font-size="10.00" fill="#000000">uint16_t</text>
<polyline fill="none" stroke="#bfbfbf" points="180,-626.5 236,-626.5 "/>
<text text-anchor="middle" x="208" y="-614.5" font-family="Helvetica,sans-Serif" font-size="10.00" fill="#000000"> </text>
<polyline fill="none" stroke="#bfbfbf" points="180,-607.5 236,-607.5 "/>
<text text-anchor="middle" x="208" y="-595.5" font-family="Helvetica,sans-Serif" font-size="10.00" fill="#000000"> </text>
</g>
<!-- Node7&#45;&gt;Node4 -->
<g id="edge4" class="edge">
<title>Node7&#45;&gt;Node4</title>
<path fill="none" stroke="#404040" d="M187.5872,-588.432C182.6246,-582.7979 177.0012,-577.3052 171,-573 153.1615,-560.203 137.4132,-573.1076 125,-555 83.1412,-493.9391 97.7373,-402.6604 111.3724,-350.476"/>
<polygon fill="none" stroke="#404040" points="111.4245,-350.2861 109.157,-343.4408 114.6036,-338.7148 116.8712,-345.5602 111.4245,-350.2861"/>
<text text-anchor="middle" x="154" y="-530.5" font-family="Helvetica,sans-Serif" font-size="10.00" fill="#000000"> +nClusters</text>
</g>
<!-- Node7&#45;&gt;Node8 -->
<g id="edge6" class="edge">
<title>Node7&#45;&gt;Node8</title>
<path fill="none" stroke="#404040" d="M203.1118,-588.1124C200.4873,-566.4861 199.0487,-536.3861 206,-511 216.2924,-473.4124 235.6266,-435.7205 255.7639,-403.2992"/>
<polygon fill="none" stroke="#404040" points="255.8915,-403.098 255.7279,-395.8887 262.3197,-392.9649 262.4833,-400.1742 255.8915,-403.098"/>
<text text-anchor="middle" x="236.5" y="-541.5" font-family="Helvetica,sans-Serif" font-size="10.00" fill="#000000"> +qTot</text>
<text text-anchor="middle" x="236.5" y="-530.5" font-family="Helvetica,sans-Serif" font-size="10.00" fill="#000000">+padPacked</text>
<text text-anchor="middle" x="236.5" y="-519.5" font-family="Helvetica,sans-Serif" font-size="10.00" fill="#000000">+qMax</text>
</g>
<!-- Node8&#45;&gt;Node3 -->
<g id="edge5" class="edge">
<title>Node8&#45;&gt;Node3</title>
<path fill="none" stroke="#404040" d="M262.419,-172.6271C249.0567,-143.2953 235.7625,-114.1129 225.0606,-90.6209"/>
<polygon fill="none" stroke="#404040" points="225.0011,-90.4901 218.8736,-86.6882 220.0263,-79.5698 226.1538,-83.3717 225.0011,-90.4901"/>
<text text-anchor="middle" x="257" y="-101" font-family="Helvetica,sans-Serif" font-size="10.00" fill="#000000"> +clusters</text>
</g>
<!-- Node9 -->
<g id="node7" class="node">
<title>Node9</title>
<polygon fill="none" stroke="#bfbfbf" points="394,-588.5 394,-645.5 450,-645.5 450,-588.5 394,-588.5"/>
<text text-anchor="middle" x="422" y="-633.5" font-family="Helvetica,sans-Serif" font-size="10.00" fill="#000000">uint32_t</text>
<polyline fill="none" stroke="#bfbfbf" points="394,-626.5 450,-626.5 "/>
<text text-anchor="middle" x="422" y="-614.5" font-family="Helvetica,sans-Serif" font-size="10.00" fill="#000000"> </text>
<polyline fill="none" stroke="#bfbfbf" points="394,-607.5 450,-607.5 "/>
<text text-anchor="middle" x="422" y="-595.5" font-family="Helvetica,sans-Serif" font-size="10.00" fill="#000000"> </text>
</g>
<!-- Node9&#45;&gt;Node8 -->
<g id="edge8" class="edge">
<title>Node9&#45;&gt;Node8</title>
<path fill="none" stroke="#404040" d="M393.8856,-588.4031C382.2442,-575.9582 370.6128,-562.523 367,-555 359.2992,-538.9644 352.9894,-521.7407 347.8223,-504.1274"/>
<polygon fill="none" stroke="#404040" points="347.8053,-504.0661 342.3433,-499.3578 344.5886,-492.5052 350.0506,-497.2134 347.8053,-504.0661"/>
<text text-anchor="middle" x="414" y="-530.5" font-family="Helvetica,sans-Serif" font-size="10.00" fill="#000000"> +timeFlagsPacked</text>
</g>
<!-- Node10 -->
<g id="node8" class="node">
<title>Node10</title>
<polygon fill="none" stroke="#bfbfbf" points="468.5,-588.5 468.5,-645.5 497.5,-645.5 497.5,-588.5 468.5,-588.5"/>
<text text-anchor="middle" x="483" y="-633.5" font-family="Helvetica,sans-Serif" font-size="10.00" fill="#000000">int</text>
<polyline fill="none" stroke="#bfbfbf" points="468.5,-626.5 497.5,-626.5 "/>
<text text-anchor="middle" x="483" y="-614.5" font-family="Helvetica,sans-Serif" font-size="10.00" fill="#000000"> </text>
<polyline fill="none" stroke="#bfbfbf" points="468.5,-607.5 497.5,-607.5 "/>
<text text-anchor="middle" x="483" y="-595.5" font-family="Helvetica,sans-Serif" font-size="10.00" fill="#000000"> </text>
</g>
<!-- Node10&#45;&gt;Node8 -->
<g id="edge9" class="edge">
<title>Node10&#45;&gt;Node8</title>
<path fill="none" stroke="#404040" d="M480.1002,-588.2015C477.1776,-566.3536 471.5333,-535.9309 461,-511 444.1353,-471.0835 418.8707,-430.798 394.6774,-396.8826"/>
<polygon fill="none" stroke="#404040" points="394.5854,-396.7554 387.8282,-394.2375 387.5533,-387.0317 394.3106,-389.5495 394.5854,-396.7554"/>
<text text-anchor="middle" x="491.5" y="-536" font-family="Helvetica,sans-Serif" font-size="10.00" fill="#000000"> +f</text>
<text text-anchor="middle" x="491.5" y="-525" font-family="Helvetica,sans-Serif" font-size="10.00" fill="#000000">+qMax</text>
</g>
<!-- Node11 -->
<g id="node9" class="node">
<title>Node11</title>
<polygon fill="none" stroke="#bfbfbf" points="519,-588.5 519,-645.5 563,-645.5 563,-588.5 519,-588.5"/>
<text text-anchor="middle" x="541" y="-633.5" font-family="Helvetica,sans-Serif" font-size="10.00" fill="#000000">static</text>
<polyline fill="none" stroke="#bfbfbf" points="519,-626.5 563,-626.5 "/>
<text text-anchor="middle" x="541" y="-614.5" font-family="Helvetica,sans-Serif" font-size="10.00" fill="#000000"> </text>
<polyline fill="none" stroke="#bfbfbf" points="519,-607.5 563,-607.5 "/>
<text text-anchor="middle" x="541" y="-595.5" font-family="Helvetica,sans-Serif" font-size="10.00" fill="#000000"> </text>
</g>
<!-- Node11&#45;&gt;Node8 -->
<g id="edge10" class="edge">
<title>Node11&#45;&gt;Node8</title>
<path fill="none" stroke="#404040" d="M537.3054,-588.1188C533.5647,-565.9513 526.3557,-535.1526 513,-511 483.3354,-457.3542 436.1859,-406.9952 396.5276,-370.1024"/>
<polygon fill="none" stroke="#404040" points="396.5074,-370.0839 389.3826,-368.9718 387.6688,-361.9672 394.7937,-363.0794 396.5074,-370.0839"/>
<text text-anchor="middle" x="591" y="-547" font-family="Helvetica,sans-Serif" font-size="10.00" fill="#000000"> +scaleTimePacked</text>
<text text-anchor="middle" x="591" y="-536" font-family="Helvetica,sans-Serif" font-size="10.00" fill="#000000">+scaleSigmaPadPacked</text>
<text text-anchor="middle" x="591" y="-525" font-family="Helvetica,sans-Serif" font-size="10.00" fill="#000000">+scaleSigmaTimePacked</text>
<text text-anchor="middle" x="591" y="-514" font-family="Helvetica,sans-Serif" font-size="10.00" fill="#000000">+scalePadPacked</text>
</g>
</g>
</svg>
        <g id="navigator" transform="translate(0 0)" fill="#404254">
                <rect fill="#f2f5e9" fill-opacity="0.5" stroke="#606060" stroke-width=".5" x="0" y="0" width="60" height="60"/>
                <use id="zoomplus" xlink:href="#zoomPlus" x="17" y="9" onmousedown="handleZoom(evt,'in')"/>
                <use id="zoomminus" xlink:href="#zoomMin" x="42" y="9" onmousedown="handleZoom(evt,'out')"/>
                <use id="reset" xlink:href="#resetDef" x="30" y="36" onmousedown="handleReset()"/>
                <g id="arrowUp" xlink:href="#dirArrow" transform="translate(30 24)" onmousedown="handlePan(0,-1)">
                  <use xlink:href="#rim" fill="#404040">
                        <set attributeName="fill" to="#808080" begin="arrowUp.mouseover" end="arrowUp.mouseout"/>
                  </use>
                  <path fill="none" stroke="white" stroke-width="1.5" d="M0,-3.0v7 M-2.5,-0.5L0,-3.0L2.5,-0.5"/>
                </g>
                <g id="arrowRight" xlink:href="#dirArrow" transform="rotate(90) translate(36 -43)" onmousedown="handlePan(1,0)">
                  <use xlink:href="#rim" fill="#404040">
                        <set attributeName="fill" to="#808080" begin="arrowRight.mouseover" end="arrowRight.mouseout"/>
                  </use>
                  <path fill="none" stroke="white" stroke-width="1.5" d="M0,-3.0v7 M-2.5,-0.5L0,-3.0L2.5,-0.5"/>
                </g>
                <g id="arrowDown" xlink:href="#dirArrow" transform="rotate(180) translate(-30 -48)" onmousedown="handlePan(0,1)">
                  <use xlink:href="#rim" fill="#404040">
                        <set attributeName="fill" to="#808080" begin="arrowDown.mouseover" end="arrowDown.mouseout"/>
                  </use>
                  <path fill="none" stroke="white" stroke-width="1.5" d="M0,-3.0v7 M-2.5,-0.5L0,-3.0L2.5,-0.5"/>
                </g>
                <g id="arrowLeft" xlink:href="#dirArrow" transform="rotate(270) translate(-36 17)" onmousedown="handlePan(-1,0)">
                  <use xlink:href="#rim" fill="#404040">
                        <set attributeName="fill" to="#808080" begin="arrowLeft.mouseover" end="arrowLeft.mouseout"/>
                  </use>
                  <path fill="none" stroke="white" stroke-width="1.5" d="M0,-3.0v7 M-2.5,-0.5L0,-3.0L2.5,-0.5"/>
                </g>
        </g>
        <svg viewBox="0 0 15 15" width="100%" height="30px" preserveAspectRatio="xMaxYMin meet">
         <g id="arrow_out" transform="scale(0.3 0.3)">
          <a xlink:href="structo2_1_1tpc_1_1ClusterNativeBuffer__coll__graph_org.svg" target="_base">
           <rect id="button" ry="5" rx="5" y="6" x="6" height="38" width="38"
                fill="#f2f5e9" fill-opacity="0.5" stroke="#606060" stroke-width="1.0"/>
           <path id="arrow"
             d="M 11.500037,31.436501 C 11.940474,20.09759 22.043105,11.32322 32.158766,21.979434 L 37.068811,17.246167 C 37.068811,17.246167 37.088388,32 37.088388,32 L 22.160133,31.978069 C 22.160133,31.978069 26.997745,27.140456 26.997745,27.140456 C 18.528582,18.264221 13.291696,25.230495 11.500037,31.436501 z"
             style="fill:#404040;"/>
          </a>
         </g>
        </svg>
</svg>
