<?xml version="1.0" encoding="UTF-8" standalone="no"?>
<!DOCTYPE svg PUBLIC "-//W3C//DTD SVG 1.1//EN"
 "http://www.w3.org/Graphics/SVG/1.1/DTD/svg11.dtd">
<!-- Generated by graphviz version 2.40.1 (20161225.0304)
 -->
<!-- Title: o2::data_flow::TimeframeReaderDevice Pages: 1 -->
<svg width="695pt" height="364pt"
 viewBox="0.00 0.00 694.50 364.00" xmlns="http://www.w3.org/2000/svg" xmlns:xlink="http://www.w3.org/1999/xlink">
<g id="graph0" class="graph" transform="scale(1 1) rotate(0) translate(4 360)">
<title>o2::data_flow::TimeframeReaderDevice</title>
<!-- Node3 -->
<g id="node1" class="node">
<title>Node3</title>
<polygon fill="#bfbfbf" stroke="#000000" points="264,-.5 264,-101.5 429,-101.5 429,-.5 264,-.5"/>
<text text-anchor="start" x="272" y="-89.5" font-family="Helvetica,sans-Serif" font-size="10.00" fill="#000000">o2::data_flow::Timeframe</text>
<text text-anchor="middle" x="346.5" y="-78.5" font-family="Helvetica,sans-Serif" font-size="10.00" fill="#000000">ReaderDevice</text>
<polyline fill="none" stroke="#000000" points="264,-71.5 429,-71.5 "/>
<text text-anchor="middle" x="346.5" y="-59.5" font-family="Helvetica,sans-Serif" font-size="10.00" fill="#000000"> </text>
<polyline fill="none" stroke="#000000" points="264,-52.5 429,-52.5 "/>
<text text-anchor="start" x="272" y="-40.5" font-family="Helvetica,sans-Serif" font-size="10.00" fill="#000000">+ TimeframeReaderDevice()</text>
<text text-anchor="start" x="272" y="-29.5" font-family="Helvetica,sans-Serif" font-size="10.00" fill="#000000">+ ~TimeframeReaderDevice()</text>
<text text-anchor="start" x="272" y="-18.5" font-family="Helvetica,sans-Serif" font-size="10.00" fill="#000000">+ InitTask()</text>
<text text-anchor="start" x="272" y="-7.5" font-family="Helvetica,sans-Serif" font-size="10.00" fill="#000000"># ConditionalRun()</text>
</g>
<!-- Node4 -->
<g id="node2" class="node">
<title>Node4</title>
<g id="a_node2"><a xlink:href="../../db/d18/classo2_1_1base_1_1O2Device.html" target="_top" xlink:title="{o2::base::O2Device\n||+ ~O2Device()\l+ GetMonitoring()\l+ Init()\l}">
<polygon fill="none" stroke="#000000" points="53,-160.5 53,-239.5 164,-239.5 164,-160.5 53,-160.5"/>
<text text-anchor="middle" x="108.5" y="-227.5" font-family="Helvetica,sans-Serif" font-size="10.00" fill="#000000">o2::base::O2Device</text>
<polyline fill="none" stroke="#000000" points="53,-220.5 164,-220.5 "/>
<text text-anchor="middle" x="108.5" y="-208.5" font-family="Helvetica,sans-Serif" font-size="10.00" fill="#000000"> </text>
<polyline fill="none" stroke="#000000" points="53,-201.5 164,-201.5 "/>
<text text-anchor="start" x="61" y="-189.5" font-family="Helvetica,sans-Serif" font-size="10.00" fill="#000000">+ ~O2Device()</text>
<text text-anchor="start" x="61" y="-178.5" font-family="Helvetica,sans-Serif" font-size="10.00" fill="#000000">+ GetMonitoring()</text>
<text text-anchor="start" x="61" y="-167.5" font-family="Helvetica,sans-Serif" font-size="10.00" fill="#000000">+ Init()</text>
</a>
</g>
</g>
<!-- Node4&#45;&gt;Node3 -->
<g id="edge1" class="edge">
<title>Node4&#45;&gt;Node3</title>
<path fill="none" stroke="#191970" d="M172.6927,-159.8121C201.2939,-141.9064 235.2996,-120.6171 265.6153,-101.6379"/>
<polygon fill="none" stroke="#191970" points="170.6188,-156.9811 164.0001,-165.2542 174.3333,-162.9143 170.6188,-156.9811"/>
</g>
<!-- Node5 -->
<g id="node3" class="node">
<title>Node5</title>
<g id="a_node3"><a xlink:href="../../db/dfe/classFairMQDevice.html" target="_top" xlink:title="{FairMQDevice\n||}">
<polygon fill="none" stroke="#000000" points="0,-293 0,-350 83,-350 83,-293 0,-293"/>
<text text-anchor="middle" x="41.5" y="-338" font-family="Helvetica,sans-Serif" font-size="10.00" fill="#000000">FairMQDevice</text>
<polyline fill="none" stroke="#000000" points="0,-331 83,-331 "/>
<text text-anchor="middle" x="41.5" y="-319" font-family="Helvetica,sans-Serif" font-size="10.00" fill="#000000"> </text>
<polyline fill="none" stroke="#000000" points="0,-312 83,-312 "/>
<text text-anchor="middle" x="41.5" y="-300" font-family="Helvetica,sans-Serif" font-size="10.00" fill="#000000"> </text>
</a>
</g>
</g>
<!-- Node5&#45;&gt;Node4 -->
<g id="edge2" class="edge">
<title>Node5&#45;&gt;Node4</title>
<path fill="none" stroke="#191970" d="M62.288,-283.8023C70.0249,-269.772 78.8239,-253.8156 86.653,-239.6181"/>
<polygon fill="none" stroke="#191970" points="59.1421,-282.2592 57.3781,-292.7062 65.2719,-285.6395 59.1421,-282.2592"/>
</g>
<!-- Node6 -->
<g id="node4" class="node">
<title>Node6</title>
<polygon fill="none" stroke="#bfbfbf" points="101,-287.5 101,-355.5 252,-355.5 252,-287.5 101,-287.5"/>
<text text-anchor="start" x="109" y="-343.5" font-family="Helvetica,sans-Serif" font-size="10.00" fill="#000000">unique_ptr&lt; o2::monitoring</text>
<text text-anchor="middle" x="176.5" y="-332.5" font-family="Helvetica,sans-Serif" font-size="10.00" fill="#000000">::Monitoring &gt;</text>
<polyline fill="none" stroke="#bfbfbf" points="101,-325.5 252,-325.5 "/>
<text text-anchor="middle" x="176.5" y="-313.5" font-family="Helvetica,sans-Serif" font-size="10.00" fill="#000000"> </text>
<polyline fill="none" stroke="#bfbfbf" points="101,-306.5 252,-306.5 "/>
<text text-anchor="middle" x="176.5" y="-294.5" font-family="Helvetica,sans-Serif" font-size="10.00" fill="#000000"> </text>
</g>
<!-- Node6&#45;&gt;Node4 -->
<g id="edge3" class="edge">
<title>Node6&#45;&gt;Node4</title>
<path fill="none" stroke="#404040" d="M157.3772,-287.3321C150.9969,-275.9319 143.7459,-262.976 136.8186,-250.5987"/>
<polygon fill="none" stroke="#404040" points="136.7051,-250.3959 130.2843,-247.1136 130.8445,-239.9243 137.2653,-243.2065 136.7051,-250.3959"/>
<text text-anchor="middle" x="180" y="-261" font-family="Helvetica,sans-Serif" font-size="10.00" fill="#000000"> +monitoring</text>
</g>
<!-- Node7 -->
<g id="node5" class="node">
<title>Node7</title>
<polygon fill="none" stroke="#bfbfbf" points="182,-171.5 182,-228.5 301,-228.5 301,-171.5 182,-171.5"/>
<text text-anchor="middle" x="241.5" y="-216.5" font-family="Helvetica,sans-Serif" font-size="10.00" fill="#000000">vector&lt; std::string &gt;</text>
<polyline fill="none" stroke="#bfbfbf" points="182,-209.5 301,-209.5 "/>
<text text-anchor="middle" x="241.5" y="-197.5" font-family="Helvetica,sans-Serif" font-size="10.00" fill="#000000"> </text>
<polyline fill="none" stroke="#bfbfbf" points="182,-190.5 301,-190.5 "/>
<text text-anchor="middle" x="241.5" y="-178.5" font-family="Helvetica,sans-Serif" font-size="10.00" fill="#000000"> </text>
</g>
<!-- Node7&#45;&gt;Node3 -->
<g id="edge4" class="edge">
<title>Node7&#45;&gt;Node3</title>
<path fill="none" stroke="#404040" d="M260.9296,-171.3716C271.3806,-156.0661 284.5444,-136.9365 296.5,-120 298.4596,-117.224 300.47,-114.3908 302.5064,-111.5328"/>
<polygon fill="none" stroke="#404040" points="302.5106,-111.5268 302.7494,-104.3197 309.494,-101.7681 309.2552,-108.9752 302.5106,-111.5268"/>
<text text-anchor="middle" x="319.5" y="-128.5" font-family="Helvetica,sans-Serif" font-size="10.00" fill="#000000"> #mSeen</text>
</g>
<!-- Node8 -->
<g id="node6" class="node">
<title>Node8</title>
<polygon fill="none" stroke="#bfbfbf" points="319,-171.5 319,-228.5 374,-228.5 374,-171.5 319,-171.5"/>
<text text-anchor="middle" x="346.5" y="-216.5" font-family="Helvetica,sans-Serif" font-size="10.00" fill="#000000">fstream</text>
<polyline fill="none" stroke="#bfbfbf" points="319,-209.5 374,-209.5 "/>
<text text-anchor="middle" x="346.5" y="-197.5" font-family="Helvetica,sans-Serif" font-size="10.00" fill="#000000"> </text>
<polyline fill="none" stroke="#bfbfbf" points="319,-190.5 374,-190.5 "/>
<text text-anchor="middle" x="346.5" y="-178.5" font-family="Helvetica,sans-Serif" font-size="10.00" fill="#000000"> </text>
</g>
<!-- Node8&#45;&gt;Node3 -->
<g id="edge5" class="edge">
<title>Node8&#45;&gt;Node3</title>
<path fill="none" stroke="#404040" d="M346.5,-171.2713C346.5,-154.9541 346.5,-133.854 346.5,-113.8935"/>
<polygon fill="none" stroke="#404040" points="346.5001,-113.6655 342.5,-107.6655 346.5,-101.6655 350.5,-107.6655 346.5001,-113.6655"/>
<text text-anchor="middle" x="365.5" y="-128.5" font-family="Helvetica,sans-Serif" font-size="10.00" fill="#000000"> #mFile</text>
</g>
<!-- Node9 -->
<g id="node7" class="node">
<title>Node9</title>
<polygon fill="none" stroke="#bfbfbf" points="392.5,-171.5 392.5,-228.5 436.5,-228.5 436.5,-171.5 392.5,-171.5"/>
<text text-anchor="middle" x="414.5" y="-216.5" font-family="Helvetica,sans-Serif" font-size="10.00" fill="#000000">string</text>
<polyline fill="none" stroke="#bfbfbf" points="392.5,-209.5 436.5,-209.5 "/>
<text text-anchor="middle" x="414.5" y="-197.5" font-family="Helvetica,sans-Serif" font-size="10.00" fill="#000000"> </text>
<polyline fill="none" stroke="#bfbfbf" points="392.5,-190.5 436.5,-190.5 "/>
<text text-anchor="middle" x="414.5" y="-178.5" font-family="Helvetica,sans-Serif" font-size="10.00" fill="#000000"> </text>
</g>
<!-- Node9&#45;&gt;Node3 -->
<g id="edge6" class="edge">
<title>Node9&#45;&gt;Node3</title>
<path fill="none" stroke="#404040" d="M406.9187,-171.2515C402.3938,-155.7404 396.0575,-136.4566 388.5,-120 387.3148,-117.4193 386.0544,-114.8151 384.7379,-112.2074"/>
<polygon fill="none" stroke="#404040" points="384.6891,-112.1153 378.3421,-108.6926 379.0604,-101.5173 385.4074,-104.9401 384.6891,-112.1153"/>
<text text-anchor="middle" x="450.5" y="-134" font-family="Helvetica,sans-Serif" font-size="10.00" fill="#000000"> #mOutChannelName</text>
<text text-anchor="middle" x="450.5" y="-123" font-family="Helvetica,sans-Serif" font-size="10.00" fill="#000000">#mInFileName</text>
</g>
<!-- Node10 -->
<g id="node8" class="node">
<title>Node10</title>
<polygon fill="none" stroke="#bfbfbf" points="519.5,-171.5 519.5,-228.5 563.5,-228.5 563.5,-171.5 519.5,-171.5"/>
<text text-anchor="middle" x="541.5" y="-216.5" font-family="Helvetica,sans-Serif" font-size="10.00" fill="#000000">static</text>
<polyline fill="none" stroke="#bfbfbf" points="519.5,-209.5 563.5,-209.5 "/>
<text text-anchor="middle" x="541.5" y="-197.5" font-family="Helvetica,sans-Serif" font-size="10.00" fill="#000000"> </text>
<polyline fill="none" stroke="#bfbfbf" points="519.5,-190.5 563.5,-190.5 "/>
<text text-anchor="middle" x="541.5" y="-178.5" font-family="Helvetica,sans-Serif" font-size="10.00" fill="#000000"> </text>
</g>
<!-- Node10&#45;&gt;Node3 -->
<g id="edge7" class="edge">
<title>Node10&#45;&gt;Node3</title>
<path fill="none" stroke="#404040" d="M535.4772,-171.4169C530.6543,-154.6167 522.3373,-133.9962 508.5,-120 489.7689,-101.0538 465.0158,-87.0106 440.5119,-76.7279"/>
<polygon fill="none" stroke="#404040" points="440.4431,-76.7006 433.3894,-78.1989 429.2934,-72.264 436.3471,-70.7657 440.4431,-76.7006"/>
<text text-anchor="middle" x="604.5" y="-134" font-family="Helvetica,sans-Serif" font-size="10.00" fill="#000000"> +OptionKeyOutputChannelName</text>
<text text-anchor="middle" x="604.5" y="-123" font-family="Helvetica,sans-Serif" font-size="10.00" fill="#000000">+OptionKeyInputFileName</text>
</g>
</g>
</svg>
