<?xml version="1.0" encoding="UTF-8" standalone="no"?>
<!DOCTYPE svg PUBLIC "-//W3C//DTD SVG 1.1//EN"
 "http://www.w3.org/Graphics/SVG/1.1/DTD/svg11.dtd">
<!-- Generated by graphviz version 2.40.1 (20161225.0304)
 -->
<!-- Title: /home/travis/build/AliceO2Group/AliceO2/Detectors/TOF/simulation/include/TOFSimulation/Detector.h Pages: 1 -->
<!--zoomable 428 -->
<svg id="main" version="1.1" xmlns="http://www.w3.org/2000/svg" xmlns:xlink="http://www.w3.org/1999/xlink" xml:space="preserve" onload="init(evt)">
<style type="text/css"><![CDATA[
.edge:hover path { stroke: red; }
.edge:hover polygon { stroke: red; fill: red; }
]]></style>
<script type="text/javascript"><![CDATA[
var edges = document.getElementsByTagName('g');
if (edges && edges.length) {
  for (var i=0;i<edges.length;i++) {
    if (edges[i].id.substr(0,4)=='edge') {
      edges[i].setAttribute('class','edge');
    }
  }
}
]]></script>
        <defs>
                <circle id="rim" cx="0" cy="0" r="7"/>
                <circle id="rim2" cx="0" cy="0" r="3.5"/>
                <g id="zoomPlus">
                        <use xlink:href="#rim" fill="#404040">
                                <set attributeName="fill" to="#808080" begin="zoomplus.mouseover" end="zoomplus.mouseout"/>
                        </use>
                        <path d="M-4,0h8M0,-4v8" fill="none" stroke="white" stroke-width="1.5" pointer-events="none"/>
                </g>
                <g id="zoomMin">
                        <use xlink:href="#rim" fill="#404040">
                                <set attributeName="fill" to="#808080" begin="zoomminus.mouseover" end="zoomminus.mouseout"/>
                        </use>
                        <path d="M-4,0h8" fill="none" stroke="white" stroke-width="1.5" pointer-events="none"/>
                </g>
                <g id="dirArrow">
                        <path fill="none" stroke="white" stroke-width="1.5" d="M0,-3.0v7 M-2.5,-0.5L0,-3.0L2.5,-0.5"/>
                </g>
               <g id="resetDef">
                       <use xlink:href="#rim2" fill="#404040">
                               <set attributeName="fill" to="#808080" begin="reset.mouseover" end="reset.mouseout"/>
                       </use>
               </g>
        </defs>

<script type="text/javascript">
var viewWidth = 686;
var viewHeight = 428;
var sectionId = 'dynsection-1';
</script>
<script xlink:href="../../svgpan.js"/>
<svg id="graph" class="graph">
<g id="viewport">
<title>/home/travis/build/AliceO2Group/AliceO2/Detectors/TOF/simulation/include/TOFSimulation/Detector.h</title>
<!-- Node39 -->
<g id="node1" class="node">
<title>Node39</title>
<polygon fill="#bfbfbf" stroke="#000000" points="180.5,-367.5 180.5,-419.5 362.5,-419.5 362.5,-367.5 180.5,-367.5"/>
<text text-anchor="start" x="188.5" y="-407.5" font-family="Helvetica,sans-Serif" font-size="10.00" fill="#000000">/home/travis/build</text>
<text text-anchor="start" x="188.5" y="-396.5" font-family="Helvetica,sans-Serif" font-size="10.00" fill="#000000">/AliceO2Group/AliceO2</text>
<text text-anchor="start" x="188.5" y="-385.5" font-family="Helvetica,sans-Serif" font-size="10.00" fill="#000000">/Detectors/TOF/simulation</text>
<text text-anchor="middle" x="271.5" y="-374.5" font-family="Helvetica,sans-Serif" font-size="10.00" fill="#000000">/include/TOFSimulation/Detector.h</text>
</g>
<!-- Node40 -->
<g id="node2" class="node">
<title>Node40</title>
<g id="a_node2"><a xlink:href="../../d0/d85/TOF_2simulation_2include_2TOFSimulation_2Digitizer_8h.html" target="_top" xlink:title="/home/travis/build\l/AliceO2Group/AliceO2\l/Detectors/TOF/simulation\l/include/TOFSimulation/Digitizer.h">
<polygon fill="none" stroke="#000000" points="142.5,-189.5 142.5,-241.5 324.5,-241.5 324.5,-189.5 142.5,-189.5"/>
<text text-anchor="start" x="150.5" y="-229.5" font-family="Helvetica,sans-Serif" font-size="10.00" fill="#000000">/home/travis/build</text>
<text text-anchor="start" x="150.5" y="-218.5" font-family="Helvetica,sans-Serif" font-size="10.00" fill="#000000">/AliceO2Group/AliceO2</text>
<text text-anchor="start" x="150.5" y="-207.5" font-family="Helvetica,sans-Serif" font-size="10.00" fill="#000000">/Detectors/TOF/simulation</text>
<text text-anchor="middle" x="233.5" y="-196.5" font-family="Helvetica,sans-Serif" font-size="10.00" fill="#000000">/include/TOFSimulation/Digitizer.h</text>
</a>
</g>
</g>
<!-- Node39&#45;&gt;Node40 -->
<g id="edge1" class="edge">
<title>Node39&#45;&gt;Node40</title>
<path fill="none" stroke="#191970" d="M207.144,-361.3098C196.4184,-352.9606 186.7598,-342.8933 180.5,-331 169.5289,-310.1554 172.386,-300.114 180.5,-278 185.4496,-264.5103 194.7434,-251.9364 204.1831,-241.6554"/>
<polygon fill="#191970" stroke="#191970" points="205.3606,-364.3393 215.5153,-367.3614 209.4616,-358.6664 205.3606,-364.3393"/>
</g>
<!-- Node41 -->
<g id="node3" class="node">
<title>Node41</title>
<g id="a_node3"><a xlink:href="../../d8/dc6/TOF_2simulation_2include_2TOFSimulation_2DigitizerTask_8h.html" target="_top" xlink:title="/home/travis/build\l/AliceO2Group/AliceO2\l/Detectors/TOF/simulation\l/include/TOFSimulation/Digitizer\lTask.h">
<polygon fill="none" stroke="#000000" points="0,-89.5 0,-152.5 173,-152.5 173,-89.5 0,-89.5"/>
<text text-anchor="start" x="8" y="-140.5" font-family="Helvetica,sans-Serif" font-size="10.00" fill="#000000">/home/travis/build</text>
<text text-anchor="start" x="8" y="-129.5" font-family="Helvetica,sans-Serif" font-size="10.00" fill="#000000">/AliceO2Group/AliceO2</text>
<text text-anchor="start" x="8" y="-118.5" font-family="Helvetica,sans-Serif" font-size="10.00" fill="#000000">/Detectors/TOF/simulation</text>
<text text-anchor="start" x="8" y="-107.5" font-family="Helvetica,sans-Serif" font-size="10.00" fill="#000000">/include/TOFSimulation/Digitizer</text>
<text text-anchor="middle" x="86.5" y="-96.5" font-family="Helvetica,sans-Serif" font-size="10.00" fill="#000000">Task.h</text>
</a>
</g>
</g>
<!-- Node39&#45;&gt;Node41 -->
<g id="edge6" class="edge">
<title>Node39&#45;&gt;Node41</title>
<path fill="none" stroke="#191970" d="M205.9798,-361.9364C192.6515,-353.3006 179.6297,-342.9603 169.5,-331 124.4012,-277.751 101.8908,-197.0249 92.3602,-152.7758"/>
<polygon fill="#191970" stroke="#191970" points="204.4097,-365.0807 214.7553,-367.3652 208.0924,-359.1277 204.4097,-365.0807"/>
</g>
<!-- Node45 -->
<g id="node7" class="node">
<title>Node45</title>
<g id="a_node7"><a xlink:href="../../dd/d77/Strip_8h.html" target="_top" xlink:title="/home/travis/build\l/AliceO2Group/AliceO2\l/Detectors/TOF/simulation\l/include/TOFSimulation/Strip.h">
<polygon fill="none" stroke="#000000" points="189.5,-278.5 189.5,-330.5 353.5,-330.5 353.5,-278.5 189.5,-278.5"/>
<text text-anchor="start" x="197.5" y="-318.5" font-family="Helvetica,sans-Serif" font-size="10.00" fill="#000000">/home/travis/build</text>
<text text-anchor="start" x="197.5" y="-307.5" font-family="Helvetica,sans-Serif" font-size="10.00" fill="#000000">/AliceO2Group/AliceO2</text>
<text text-anchor="start" x="197.5" y="-296.5" font-family="Helvetica,sans-Serif" font-size="10.00" fill="#000000">/Detectors/TOF/simulation</text>
<text text-anchor="middle" x="271.5" y="-285.5" font-family="Helvetica,sans-Serif" font-size="10.00" fill="#000000">/include/TOFSimulation/Strip.h</text>
</a>
</g>
</g>
<!-- Node39&#45;&gt;Node45 -->
<g id="edge7" class="edge">
<title>Node39&#45;&gt;Node45</title>
<path fill="none" stroke="#191970" d="M271.5,-357.1155C271.5,-348.2061 271.5,-338.8475 271.5,-330.5341"/>
<polygon fill="#191970" stroke="#191970" points="268.0001,-357.2784 271.5,-367.2784 275.0001,-357.2785 268.0001,-357.2784"/>
</g>
<!-- Node47 -->
<g id="node9" class="node">
<title>Node47</title>
<g id="a_node9"><a xlink:href="../../d4/d59/TOF_2simulation_2src_2Detector_8cxx.html" target="_top" xlink:title="/home/travis/build\l/AliceO2Group/AliceO2\l/Detectors/TOF/simulation\l/src/Detector.cxx">
<polygon fill="none" stroke="#000000" points="372,-278.5 372,-330.5 515,-330.5 515,-278.5 372,-278.5"/>
<text text-anchor="start" x="380" y="-318.5" font-family="Helvetica,sans-Serif" font-size="10.00" fill="#000000">/home/travis/build</text>
<text text-anchor="start" x="380" y="-307.5" font-family="Helvetica,sans-Serif" font-size="10.00" fill="#000000">/AliceO2Group/AliceO2</text>
<text text-anchor="start" x="380" y="-296.5" font-family="Helvetica,sans-Serif" font-size="10.00" fill="#000000">/Detectors/TOF/simulation</text>
<text text-anchor="middle" x="443.5" y="-285.5" font-family="Helvetica,sans-Serif" font-size="10.00" fill="#000000">/src/Detector.cxx</text>
</a>
</g>
</g>
<!-- Node39&#45;&gt;Node47 -->
<g id="edge10" class="edge">
<title>Node39&#45;&gt;Node47</title>
<path fill="none" stroke="#191970" d="M331.2849,-362.5648C351.4777,-352.1162 373.8025,-340.5644 393.1868,-330.5341"/>
<polygon fill="#191970" stroke="#191970" points="329.4484,-359.5742 322.1754,-367.2784 332.6653,-365.7913 329.4484,-359.5742"/>
</g>
<!-- Node48 -->
<g id="node10" class="node">
<title>Node48</title>
<g id="a_node10"><a xlink:href="../../db/d50/O2HitMerger_8h.html" target="_top" xlink:title="/home/travis/build\l/AliceO2Group/AliceO2\l/run/O2HitMerger.h">
<polygon fill="none" stroke="#000000" points="533,-284 533,-325 660,-325 660,-284 533,-284"/>
<text text-anchor="start" x="541" y="-313" font-family="Helvetica,sans-Serif" font-size="10.00" fill="#000000">/home/travis/build</text>
<text text-anchor="start" x="541" y="-302" font-family="Helvetica,sans-Serif" font-size="10.00" fill="#000000">/AliceO2Group/AliceO2</text>
<text text-anchor="middle" x="596.5" y="-291" font-family="Helvetica,sans-Serif" font-size="10.00" fill="#000000">/run/O2HitMerger.h</text>
</a>
</g>
</g>
<!-- Node39&#45;&gt;Node48 -->
<g id="edge11" class="edge">
<title>Node39&#45;&gt;Node48</title>
<path fill="none" stroke="#191970" d="M372.4217,-371.2677C419.0383,-360.3103 474.9275,-346.195 524.5,-331 530.3581,-329.2044 536.4356,-327.1984 542.4646,-325.1157"/>
<polygon fill="#191970" stroke="#191970" points="371.5623,-367.8741 362.6206,-373.5572 373.1546,-374.6906 371.5623,-367.8741"/>
</g>
<!-- Node40&#45;&gt;Node41 -->
<g id="edge2" class="edge">
<title>Node40&#45;&gt;Node41</title>
<path fill="none" stroke="#191970" d="M184.4012,-183.9365C168.6772,-173.8282 151.2725,-162.6395 135.5518,-152.5333"/>
<polygon fill="#191970" stroke="#191970" points="182.638,-186.9638 192.9425,-189.4273 186.4233,-181.0756 182.638,-186.9638"/>
</g>
<!-- Node43 -->
<g id="node5" class="node">
<title>Node43</title>
<g id="a_node5"><a xlink:href="../../d4/df3/TOF_2simulation_2src_2Digitizer_8cxx.html" target="_top" xlink:title="/home/travis/build\l/AliceO2Group/AliceO2\l/Detectors/TOF/simulation\l/src/Digitizer.cxx">
<polygon fill="none" stroke="#000000" points="191,-95 191,-147 334,-147 334,-95 191,-95"/>
<text text-anchor="start" x="199" y="-135" font-family="Helvetica,sans-Serif" font-size="10.00" fill="#000000">/home/travis/build</text>
<text text-anchor="start" x="199" y="-124" font-family="Helvetica,sans-Serif" font-size="10.00" fill="#000000">/AliceO2Group/AliceO2</text>
<text text-anchor="start" x="199" y="-113" font-family="Helvetica,sans-Serif" font-size="10.00" fill="#000000">/Detectors/TOF/simulation</text>
<text text-anchor="middle" x="262.5" y="-102" font-family="Helvetica,sans-Serif" font-size="10.00" fill="#000000">/src/Digitizer.cxx</text>
</a>
</g>
</g>
<!-- Node40&#45;&gt;Node43 -->
<g id="edge4" class="edge">
<title>Node40&#45;&gt;Node43</title>
<path fill="none" stroke="#191970" d="M244.4475,-179.8263C247.7598,-169.0326 251.3358,-157.38 254.4243,-147.3157"/>
<polygon fill="#191970" stroke="#191970" points="241.089,-178.8405 241.5011,-189.4273 247.781,-180.8942 241.089,-178.8405"/>
</g>
<!-- Node44 -->
<g id="node6" class="node">
<title>Node44</title>
<g id="a_node6"><a xlink:href="../../d6/d61/TOFDigitizerSpec_8cxx.html" target="_top" xlink:title="/home/travis/build\l/AliceO2Group/AliceO2\l/Steer/DigitizerWorkflow\l/src/TOFDigitizerSpec.cxx">
<polygon fill="none" stroke="#000000" points="352.5,-95 352.5,-147 492.5,-147 492.5,-95 352.5,-95"/>
<text text-anchor="start" x="360.5" y="-135" font-family="Helvetica,sans-Serif" font-size="10.00" fill="#000000">/home/travis/build</text>
<text text-anchor="start" x="360.5" y="-124" font-family="Helvetica,sans-Serif" font-size="10.00" fill="#000000">/AliceO2Group/AliceO2</text>
<text text-anchor="start" x="360.5" y="-113" font-family="Helvetica,sans-Serif" font-size="10.00" fill="#000000">/Steer/DigitizerWorkflow</text>
<text text-anchor="middle" x="422.5" y="-102" font-family="Helvetica,sans-Serif" font-size="10.00" fill="#000000">/src/TOFDigitizerSpec.cxx</text>
</a>
</g>
</g>
<!-- Node40&#45;&gt;Node44 -->
<g id="edge5" class="edge">
<title>Node40&#45;&gt;Node44</title>
<path fill="none" stroke="#191970" d="M294.7912,-184.8544C319.1265,-172.6868 346.828,-158.836 370.197,-147.1515"/>
<polygon fill="#191970" stroke="#191970" points="293.0244,-181.8246 285.6454,-189.4273 296.1549,-188.0856 293.0244,-181.8246"/>
</g>
<!-- Node42 -->
<g id="node4" class="node">
<title>Node42</title>
<g id="a_node4"><a xlink:href="../../dd/df3/TOF_2simulation_2src_2DigitizerTask_8cxx.html" target="_top" xlink:title="/home/travis/build\l/AliceO2Group/AliceO2\l/Detectors/TOF/simulation\l/src/DigitizerTask.cxx">
<polygon fill="none" stroke="#000000" points="15,-.5 15,-52.5 158,-52.5 158,-.5 15,-.5"/>
<text text-anchor="start" x="23" y="-40.5" font-family="Helvetica,sans-Serif" font-size="10.00" fill="#000000">/home/travis/build</text>
<text text-anchor="start" x="23" y="-29.5" font-family="Helvetica,sans-Serif" font-size="10.00" fill="#000000">/AliceO2Group/AliceO2</text>
<text text-anchor="start" x="23" y="-18.5" font-family="Helvetica,sans-Serif" font-size="10.00" fill="#000000">/Detectors/TOF/simulation</text>
<text text-anchor="middle" x="86.5" y="-7.5" font-family="Helvetica,sans-Serif" font-size="10.00" fill="#000000">/src/DigitizerTask.cxx</text>
</a>
</g>
</g>
<!-- Node41&#45;&gt;Node42 -->
<g id="edge3" class="edge">
<title>Node41&#45;&gt;Node42</title>
<path fill="none" stroke="#191970" d="M86.5,-79.2457C86.5,-70.2008 86.5,-60.8836 86.5,-52.6442"/>
<polygon fill="#191970" stroke="#191970" points="83.0001,-79.2699 86.5,-89.27 90.0001,-79.27 83.0001,-79.2699"/>
</g>
<!-- Node45&#45;&gt;Node40 -->
<g id="edge8" class="edge">
<title>Node45&#45;&gt;Node40</title>
<path fill="none" stroke="#191970" d="M256.3365,-268.9856C252.4221,-259.8176 248.281,-250.1186 244.6157,-241.5341"/>
<polygon fill="#191970" stroke="#191970" points="253.1586,-270.456 260.3043,-278.2784 259.5964,-267.7073 253.1586,-270.456"/>
</g>
<!-- Node46 -->
<g id="node8" class="node">
<title>Node46</title>
<g id="a_node8"><a xlink:href="../../d6/d43/Strip_8cxx.html" target="_top" xlink:title="/home/travis/build\l/AliceO2Group/AliceO2\l/Detectors/TOF/simulation\l/src/Strip.cxx">
<polygon fill="none" stroke="#000000" points="343,-189.5 343,-241.5 486,-241.5 486,-189.5 343,-189.5"/>
<text text-anchor="start" x="351" y="-229.5" font-family="Helvetica,sans-Serif" font-size="10.00" fill="#000000">/home/travis/build</text>
<text text-anchor="start" x="351" y="-218.5" font-family="Helvetica,sans-Serif" font-size="10.00" fill="#000000">/AliceO2Group/AliceO2</text>
<text text-anchor="start" x="351" y="-207.5" font-family="Helvetica,sans-Serif" font-size="10.00" fill="#000000">/Detectors/TOF/simulation</text>
<text text-anchor="middle" x="414.5" y="-196.5" font-family="Helvetica,sans-Serif" font-size="10.00" fill="#000000">/src/Strip.cxx</text>
</a>
</g>
</g>
<!-- Node45&#45;&gt;Node46 -->
<g id="edge9" class="edge">
<title>Node45&#45;&gt;Node46</title>
<path fill="none" stroke="#191970" d="M322.5699,-272.7152C338.9946,-262.4929 356.9894,-251.2933 372.6699,-241.5341"/>
<polygon fill="#191970" stroke="#191970" points="320.2719,-270.0229 313.6313,-278.2784 323.9707,-275.9659 320.2719,-270.0229"/>
</g>
<!-- Node48&#45;&gt;Node48 -->
<g id="edge12" class="edge">
<title>Node48&#45;&gt;Node48</title>
<path fill="none" stroke="#191970" d="M669.6757,-316.5715C674.8451,-313.8251 678,-309.8013 678,-304.5 678,-296.4219 670.6744,-291.3099 660.058,-289.1642"/>
<polygon fill="#191970" stroke="#191970" points="668.4026,-313.3075 660.058,-319.8358 670.6524,-319.9361 668.4026,-313.3075"/>
</g>
<!-- Node49 -->
<g id="node11" class="node">
<title>Node49</title>
<g id="a_node11"><a xlink:href="../../d9/d16/O2HitMergerRunner_8cxx.html" target="_top" xlink:title="/home/travis/build\l/AliceO2Group/AliceO2\l/run/O2HitMergerRunner.cxx">
<polygon fill="none" stroke="#000000" points="520,-195 520,-236 673,-236 673,-195 520,-195"/>
<text text-anchor="start" x="528" y="-224" font-family="Helvetica,sans-Serif" font-size="10.00" fill="#000000">/home/travis/build</text>
<text text-anchor="start" x="528" y="-213" font-family="Helvetica,sans-Serif" font-size="10.00" fill="#000000">/AliceO2Group/AliceO2</text>
<text text-anchor="middle" x="596.5" y="-202" font-family="Helvetica,sans-Serif" font-size="10.00" fill="#000000">/run/O2HitMergerRunner.cxx</text>
</a>
</g>
</g>
<!-- Node48&#45;&gt;Node49 -->
<g id="edge13" class="edge">
<title>Node48&#45;&gt;Node49</title>
<path fill="none" stroke="#191970" d="M596.5,-273.844C596.5,-261.3522 596.5,-247.2439 596.5,-236.0301"/>
<polygon fill="#191970" stroke="#191970" points="593.0001,-273.8579 596.5,-283.8579 600.0001,-273.8579 593.0001,-273.8579"/>
</g>
</g>
</svg>
        <g id="navigator" transform="translate(0 0)" fill="#404254">
                <rect fill="#f2f5e9" fill-opacity="0.5" stroke="#606060" stroke-width=".5" x="0" y="0" width="60" height="60"/>
                <use id="zoomplus" xlink:href="#zoomPlus" x="17" y="9" onmousedown="handleZoom(evt,'in')"/>
                <use id="zoomminus" xlink:href="#zoomMin" x="42" y="9" onmousedown="handleZoom(evt,'out')"/>
                <use id="reset" xlink:href="#resetDef" x="30" y="36" onmousedown="handleReset()"/>
                <g id="arrowUp" xlink:href="#dirArrow" transform="translate(30 24)" onmousedown="handlePan(0,-1)">
                  <use xlink:href="#rim" fill="#404040">
                        <set attributeName="fill" to="#808080" begin="arrowUp.mouseover" end="arrowUp.mouseout"/>
                  </use>
                  <path fill="none" stroke="white" stroke-width="1.5" d="M0,-3.0v7 M-2.5,-0.5L0,-3.0L2.5,-0.5"/>
                </g>
                <g id="arrowRight" xlink:href="#dirArrow" transform="rotate(90) translate(36 -43)" onmousedown="handlePan(1,0)">
                  <use xlink:href="#rim" fill="#404040">
                        <set attributeName="fill" to="#808080" begin="arrowRight.mouseover" end="arrowRight.mouseout"/>
                  </use>
                  <path fill="none" stroke="white" stroke-width="1.5" d="M0,-3.0v7 M-2.5,-0.5L0,-3.0L2.5,-0.5"/>
                </g>
                <g id="arrowDown" xlink:href="#dirArrow" transform="rotate(180) translate(-30 -48)" onmousedown="handlePan(0,1)">
                  <use xlink:href="#rim" fill="#404040">
                        <set attributeName="fill" to="#808080" begin="arrowDown.mouseover" end="arrowDown.mouseout"/>
                  </use>
                  <path fill="none" stroke="white" stroke-width="1.5" d="M0,-3.0v7 M-2.5,-0.5L0,-3.0L2.5,-0.5"/>
                </g>
                <g id="arrowLeft" xlink:href="#dirArrow" transform="rotate(270) translate(-36 17)" onmousedown="handlePan(-1,0)">
                  <use xlink:href="#rim" fill="#404040">
                        <set attributeName="fill" to="#808080" begin="arrowLeft.mouseover" end="arrowLeft.mouseout"/>
                  </use>
                  <path fill="none" stroke="white" stroke-width="1.5" d="M0,-3.0v7 M-2.5,-0.5L0,-3.0L2.5,-0.5"/>
                </g>
        </g>
        <svg viewBox="0 0 15 15" width="100%" height="30px" preserveAspectRatio="xMaxYMin meet">
         <g id="arrow_out" transform="scale(0.3 0.3)">
          <a xlink:href="TOF_2simulation_2include_2TOFSimulation_2Detector_8h__dep__incl_org.svg" target="_base">
           <rect id="button" ry="5" rx="5" y="6" x="6" height="38" width="38"
                fill="#f2f5e9" fill-opacity="0.5" stroke="#606060" stroke-width="1.0"/>
           <path id="arrow"
             d="M 11.500037,31.436501 C 11.940474,20.09759 22.043105,11.32322 32.158766,21.979434 L 37.068811,17.246167 C 37.068811,17.246167 37.088388,32 37.088388,32 L 22.160133,31.978069 C 22.160133,31.978069 26.997745,27.140456 26.997745,27.140456 C 18.528582,18.264221 13.291696,25.230495 11.500037,31.436501 z"
             style="fill:#404040;"/>
          </a>
         </g>
        </svg>
</svg>
