<?xml version="1.0" encoding="UTF-8" standalone="no"?>
<!DOCTYPE svg PUBLIC "-//W3C//DTD SVG 1.1//EN"
 "http://www.w3.org/Graphics/SVG/1.1/DTD/svg11.dtd">
<!-- Generated by graphviz version 2.40.1 (20161225.0304)
 -->
<!-- Title: o2::trd::TrapConfig::TrapDmemWord Pages: 1 -->
<svg width="275pt" height="518pt"
 viewBox="0.00 0.00 274.50 518.00" xmlns="http://www.w3.org/2000/svg" xmlns:xlink="http://www.w3.org/1999/xlink">
<g id="graph0" class="graph" transform="scale(1 1) rotate(0) translate(4 514)">
<title>o2::trd::TrapConfig::TrapDmemWord</title>
<!-- Node2 -->
<g id="node1" class="node">
<title>Node2</title>
<polygon fill="#bfbfbf" stroke="#000000" points="101,-.5 101,-167.5 223,-167.5 223,-.5 101,-.5"/>
<text text-anchor="start" x="109" y="-155.5" font-family="Helvetica,sans-Serif" font-size="10.00" fill="#000000">o2::trd::TrapConfig</text>
<text text-anchor="middle" x="162" y="-144.5" font-family="Helvetica,sans-Serif" font-size="10.00" fill="#000000">::TrapDmemWord</text>
<polyline fill="none" stroke="#000000" points="101,-137.5 223,-137.5 "/>
<text text-anchor="middle" x="162" y="-125.5" font-family="Helvetica,sans-Serif" font-size="10.00" fill="#000000"> </text>
<polyline fill="none" stroke="#000000" points="101,-118.5 223,-118.5 "/>
<text text-anchor="start" x="109" y="-106.5" font-family="Helvetica,sans-Serif" font-size="10.00" fill="#000000">+ TrapDmemWord()</text>
<text text-anchor="start" x="109" y="-95.5" font-family="Helvetica,sans-Serif" font-size="10.00" fill="#000000">+ ~TrapDmemWord()</text>
<text text-anchor="start" x="109" y="-84.5" font-family="Helvetica,sans-Serif" font-size="10.00" fill="#000000">+ reset()</text>
<text text-anchor="start" x="109" y="-73.5" font-family="Helvetica,sans-Serif" font-size="10.00" fill="#000000">+ setValue()</text>
<text text-anchor="start" x="109" y="-62.5" font-family="Helvetica,sans-Serif" font-size="10.00" fill="#000000">+ setValue()</text>
<text text-anchor="start" x="109" y="-51.5" font-family="Helvetica,sans-Serif" font-size="10.00" fill="#000000">+ getValue()</text>
<text text-anchor="start" x="109" y="-40.5" font-family="Helvetica,sans-Serif" font-size="10.00" fill="#000000">+ setAddress()</text>
<text text-anchor="start" x="109" y="-29.5" font-family="Helvetica,sans-Serif" font-size="10.00" fill="#000000">+ getName()</text>
<text text-anchor="start" x="109" y="-18.5" font-family="Helvetica,sans-Serif" font-size="10.00" fill="#000000"># TrapDmemWord()</text>
<text text-anchor="start" x="109" y="-7.5" font-family="Helvetica,sans-Serif" font-size="10.00" fill="#000000"># operator=()</text>
</g>
<!-- Node3 -->
<g id="node2" class="node">
<title>Node3</title>
<g id="a_node2"><a xlink:href="../../d0/dbb/classo2_1_1trd_1_1TrapConfig_1_1TrapValue.html" target="_top" xlink:title="{o2::trd::TrapConfig\l::TrapValue\n||+ TrapValue()\l+ ~TrapValue()\l+ allocate()\l+ allocatei()\l+ getName()\l+ setDataFromRun2()\l+ getDataSize()\l# setData()\l# setData()\l# setData()\l# getData()\l# getIdx()\l}">
<polygon fill="none" stroke="#000000" points="0,-215.5 0,-404.5 122,-404.5 122,-215.5 0,-215.5"/>
<text text-anchor="start" x="8" y="-392.5" font-family="Helvetica,sans-Serif" font-size="10.00" fill="#000000">o2::trd::TrapConfig</text>
<text text-anchor="middle" x="61" y="-381.5" font-family="Helvetica,sans-Serif" font-size="10.00" fill="#000000">::TrapValue</text>
<polyline fill="none" stroke="#000000" points="0,-374.5 122,-374.5 "/>
<text text-anchor="middle" x="61" y="-362.5" font-family="Helvetica,sans-Serif" font-size="10.00" fill="#000000"> </text>
<polyline fill="none" stroke="#000000" points="0,-355.5 122,-355.5 "/>
<text text-anchor="start" x="8" y="-343.5" font-family="Helvetica,sans-Serif" font-size="10.00" fill="#000000">+ TrapValue()</text>
<text text-anchor="start" x="8" y="-332.5" font-family="Helvetica,sans-Serif" font-size="10.00" fill="#000000">+ ~TrapValue()</text>
<text text-anchor="start" x="8" y="-321.5" font-family="Helvetica,sans-Serif" font-size="10.00" fill="#000000">+ allocate()</text>
<text text-anchor="start" x="8" y="-310.5" font-family="Helvetica,sans-Serif" font-size="10.00" fill="#000000">+ allocatei()</text>
<text text-anchor="start" x="8" y="-299.5" font-family="Helvetica,sans-Serif" font-size="10.00" fill="#000000">+ getName()</text>
<text text-anchor="start" x="8" y="-288.5" font-family="Helvetica,sans-Serif" font-size="10.00" fill="#000000">+ setDataFromRun2()</text>
<text text-anchor="start" x="8" y="-277.5" font-family="Helvetica,sans-Serif" font-size="10.00" fill="#000000">+ getDataSize()</text>
<text text-anchor="start" x="8" y="-266.5" font-family="Helvetica,sans-Serif" font-size="10.00" fill="#000000"># setData()</text>
<text text-anchor="start" x="8" y="-255.5" font-family="Helvetica,sans-Serif" font-size="10.00" fill="#000000"># setData()</text>
<text text-anchor="start" x="8" y="-244.5" font-family="Helvetica,sans-Serif" font-size="10.00" fill="#000000"># setData()</text>
<text text-anchor="start" x="8" y="-233.5" font-family="Helvetica,sans-Serif" font-size="10.00" fill="#000000"># getData()</text>
<text text-anchor="start" x="8" y="-222.5" font-family="Helvetica,sans-Serif" font-size="10.00" fill="#000000"># getIdx()</text>
</a>
</g>
</g>
<!-- Node3&#45;&gt;Node2 -->
<g id="edge1" class="edge">
<title>Node3&#45;&gt;Node2</title>
<path fill="none" stroke="#191970" d="M107.4183,-206.1334C113.1687,-193.266 118.9902,-180.2397 124.5819,-167.7276"/>
<polygon fill="none" stroke="#191970" points="104.1326,-204.9073 103.2479,-215.4651 110.5235,-207.7634 104.1326,-204.9073"/>
</g>
<!-- Node4 -->
<g id="node3" class="node">
<title>Node4</title>
<polygon fill="none" stroke="#bfbfbf" points="39,-452.5 39,-509.5 83,-509.5 83,-452.5 39,-452.5"/>
<text text-anchor="middle" x="61" y="-497.5" font-family="Helvetica,sans-Serif" font-size="10.00" fill="#000000">static</text>
<polyline fill="none" stroke="#bfbfbf" points="39,-490.5 83,-490.5 "/>
<text text-anchor="middle" x="61" y="-478.5" font-family="Helvetica,sans-Serif" font-size="10.00" fill="#000000"> </text>
<polyline fill="none" stroke="#bfbfbf" points="39,-471.5 83,-471.5 "/>
<text text-anchor="middle" x="61" y="-459.5" font-family="Helvetica,sans-Serif" font-size="10.00" fill="#000000"> </text>
</g>
<!-- Node4&#45;&gt;Node3 -->
<g id="edge2" class="edge">
<title>Node4&#45;&gt;Node3</title>
<path fill="none" stroke="#404040" d="M61,-452.3784C61,-442.1146 61,-429.8493 61,-416.8829"/>
<polygon fill="none" stroke="#404040" points="61.0001,-416.8152 57,-410.8152 61,-404.8152 65,-410.8152 61.0001,-416.8152"/>
<text text-anchor="middle" x="88" y="-426" font-family="Helvetica,sans-Serif" font-size="10.00" fill="#000000"> +mgkSize</text>
</g>
<!-- Node5 -->
<g id="node4" class="node">
<title>Node5</title>
<polygon fill="none" stroke="#bfbfbf" points="140,-281.5 140,-338.5 184,-338.5 184,-281.5 140,-281.5"/>
<text text-anchor="middle" x="162" y="-326.5" font-family="Helvetica,sans-Serif" font-size="10.00" fill="#000000">string</text>
<polyline fill="none" stroke="#bfbfbf" points="140,-319.5 184,-319.5 "/>
<text text-anchor="middle" x="162" y="-307.5" font-family="Helvetica,sans-Serif" font-size="10.00" fill="#000000"> </text>
<polyline fill="none" stroke="#bfbfbf" points="140,-300.5 184,-300.5 "/>
<text text-anchor="middle" x="162" y="-288.5" font-family="Helvetica,sans-Serif" font-size="10.00" fill="#000000"> </text>
</g>
<!-- Node5&#45;&gt;Node2 -->
<g id="edge3" class="edge">
<title>Node5&#45;&gt;Node2</title>
<path fill="none" stroke="#404040" d="M162,-281.3769C162,-255.7658 162,-216.7196 162,-180.0968"/>
<polygon fill="none" stroke="#404040" points="162.0001,-179.7928 158,-173.7928 162,-167.7928 166,-173.7927 162.0001,-179.7928"/>
<text text-anchor="middle" x="187.5" y="-189" font-family="Helvetica,sans-Serif" font-size="10.00" fill="#000000"> #mName</text>
</g>
<!-- Node6 -->
<g id="node5" class="node">
<title>Node6</title>
<polygon fill="none" stroke="#bfbfbf" points="205.5,-281.5 205.5,-338.5 266.5,-338.5 266.5,-281.5 205.5,-281.5"/>
<text text-anchor="middle" x="236" y="-326.5" font-family="Helvetica,sans-Serif" font-size="10.00" fill="#000000">unsigned</text>
<polyline fill="none" stroke="#bfbfbf" points="205.5,-319.5 266.5,-319.5 "/>
<text text-anchor="middle" x="236" y="-307.5" font-family="Helvetica,sans-Serif" font-size="10.00" fill="#000000"> </text>
<polyline fill="none" stroke="#bfbfbf" points="205.5,-300.5 266.5,-300.5 "/>
<text text-anchor="middle" x="236" y="-288.5" font-family="Helvetica,sans-Serif" font-size="10.00" fill="#000000"> </text>
</g>
<!-- Node6&#45;&gt;Node2 -->
<g id="edge4" class="edge">
<title>Node6&#45;&gt;Node2</title>
<path fill="none" stroke="#404040" d="M233.3464,-281.3359C230.4159,-255.8137 224.6347,-217.7164 214,-186 213.2417,-183.7385 212.4403,-181.465 211.6013,-179.1854"/>
<polygon fill="none" stroke="#404040" points="211.5039,-178.9367 205.5888,-174.8121 207.1211,-167.7657 213.0362,-171.8903 211.5039,-178.9367"/>
<text text-anchor="middle" x="239" y="-189" font-family="Helvetica,sans-Serif" font-size="10.00" fill="#000000"> #mAddr</text>
</g>
</g>
</svg>
