<?xml version="1.0" encoding="UTF-8" standalone="no"?>
<!DOCTYPE svg PUBLIC "-//W3C//DTD SVG 1.1//EN"
 "http://www.w3.org/Graphics/SVG/1.1/DTD/svg11.dtd">
<!-- Generated by graphviz version 2.40.1 (20161225.0304)
 -->
<!-- Title: GPUCA_NAMESPACE::gpu::GPUOutputControl Pages: 1 -->
<svg width="281pt" height="193pt"
 viewBox="0.00 0.00 281.00 193.00" xmlns="http://www.w3.org/2000/svg" xmlns:xlink="http://www.w3.org/1999/xlink">
<g id="graph0" class="graph" transform="scale(1 1) rotate(0) translate(4 189)">
<title>GPUCA_NAMESPACE::gpu::GPUOutputControl</title>
<!-- Node1 -->
<g id="node1" class="node">
<title>Node1</title>
<polygon fill="#bfbfbf" stroke="#000000" points="39,-.5 39,-68.5 179,-68.5 179,-.5 39,-.5"/>
<text text-anchor="start" x="47" y="-56.5" font-family="Helvetica,sans-Serif" font-size="10.00" fill="#000000">GPUCA_NAMESPACE::gpu</text>
<text text-anchor="middle" x="109" y="-45.5" font-family="Helvetica,sans-Serif" font-size="10.00" fill="#000000">::GPUOutputControl</text>
<polyline fill="none" stroke="#000000" points="39,-38.5 179,-38.5 "/>
<text text-anchor="middle" x="109" y="-26.5" font-family="Helvetica,sans-Serif" font-size="10.00" fill="#000000"> </text>
<polyline fill="none" stroke="#000000" points="39,-19.5 179,-19.5 "/>
<text text-anchor="start" x="47" y="-7.5" font-family="Helvetica,sans-Serif" font-size="10.00" fill="#000000">+ GPUOutputControl()</text>
</g>
<!-- Node2 -->
<g id="node2" class="node">
<title>Node2</title>
<polygon fill="none" stroke="#bfbfbf" points="0,-127.5 0,-184.5 38,-184.5 38,-127.5 0,-127.5"/>
<text text-anchor="middle" x="19" y="-172.5" font-family="Helvetica,sans-Serif" font-size="10.00" fill="#000000">char</text>
<polyline fill="none" stroke="#bfbfbf" points="0,-165.5 38,-165.5 "/>
<text text-anchor="middle" x="19" y="-153.5" font-family="Helvetica,sans-Serif" font-size="10.00" fill="#000000"> </text>
<polyline fill="none" stroke="#bfbfbf" points="0,-146.5 38,-146.5 "/>
<text text-anchor="middle" x="19" y="-134.5" font-family="Helvetica,sans-Serif" font-size="10.00" fill="#000000"> </text>
</g>
<!-- Node2&#45;&gt;Node1 -->
<g id="edge1" class="edge">
<title>Node2&#45;&gt;Node1</title>
<path fill="none" stroke="#404040" d="M22.5154,-127.3254C25.1795,-114.1656 29.8452,-98.8842 38,-87 40.3704,-83.5456 43.0438,-80.2304 45.9285,-77.0642"/>
<polygon fill="none" stroke="#404040" points="46.0107,-76.9828 47.4629,-69.9194 54.5415,-68.5432 53.0893,-75.6066 46.0107,-76.9828"/>
<text text-anchor="middle" x="71.5" y="-101" font-family="Helvetica,sans-Serif" font-size="10.00" fill="#000000"> +OutputPtr</text>
<text text-anchor="middle" x="71.5" y="-90" font-family="Helvetica,sans-Serif" font-size="10.00" fill="#000000">+EndOfSpace</text>
</g>
<!-- Node3 -->
<g id="node3" class="node">
<title>Node3</title>
<g id="a_node3"><a xlink:href="../../dd/de2/classsize__t.html" target="_top" xlink:title="{size_t\n||}">
<polygon fill="none" stroke="#000000" points="86.5,-127.5 86.5,-184.5 131.5,-184.5 131.5,-127.5 86.5,-127.5"/>
<text text-anchor="middle" x="109" y="-172.5" font-family="Helvetica,sans-Serif" font-size="10.00" fill="#000000">size_t</text>
<polyline fill="none" stroke="#000000" points="86.5,-165.5 131.5,-165.5 "/>
<text text-anchor="middle" x="109" y="-153.5" font-family="Helvetica,sans-Serif" font-size="10.00" fill="#000000"> </text>
<polyline fill="none" stroke="#000000" points="86.5,-146.5 131.5,-146.5 "/>
<text text-anchor="middle" x="109" y="-134.5" font-family="Helvetica,sans-Serif" font-size="10.00" fill="#000000"> </text>
</a>
</g>
</g>
<!-- Node3&#45;&gt;Node1 -->
<g id="edge2" class="edge">
<title>Node3&#45;&gt;Node1</title>
<path fill="none" stroke="#404040" d="M109,-127.2062C109,-113.3632 109,-96.4255 109,-80.8327"/>
<polygon fill="none" stroke="#404040" points="109.0001,-80.7007 105,-74.7008 109,-68.7007 113,-74.7007 109.0001,-80.7007"/>
<text text-anchor="middle" x="151.5" y="-101" font-family="Helvetica,sans-Serif" font-size="10.00" fill="#000000"> +OutputMaxSize</text>
<text text-anchor="middle" x="151.5" y="-90" font-family="Helvetica,sans-Serif" font-size="10.00" fill="#000000">+Offset</text>
</g>
<!-- Node4 -->
<g id="node4" class="node">
<title>Node4</title>
<polygon fill="none" stroke="#bfbfbf" points="166.5,-127.5 166.5,-184.5 267.5,-184.5 267.5,-127.5 166.5,-127.5"/>
<text text-anchor="middle" x="217" y="-172.5" font-family="Helvetica,sans-Serif" font-size="10.00" fill="#000000">OutputTypeStruct</text>
<polyline fill="none" stroke="#bfbfbf" points="166.5,-165.5 267.5,-165.5 "/>
<text text-anchor="middle" x="217" y="-153.5" font-family="Helvetica,sans-Serif" font-size="10.00" fill="#000000"> </text>
<polyline fill="none" stroke="#bfbfbf" points="166.5,-146.5 267.5,-146.5 "/>
<text text-anchor="middle" x="217" y="-134.5" font-family="Helvetica,sans-Serif" font-size="10.00" fill="#000000"> </text>
</g>
<!-- Node4&#45;&gt;Node1 -->
<g id="edge3" class="edge">
<title>Node4&#45;&gt;Node1</title>
<path fill="none" stroke="#404040" d="M212.621,-127.2967C209.4614,-113.9768 204.0853,-98.57 195,-87 192.1877,-83.4186 189.0581,-80.0228 185.7049,-76.8117"/>
<polygon fill="none" stroke="#404040" points="185.4489,-76.5905 178.2939,-75.6929 176.3705,-68.743 183.5255,-69.6406 185.4489,-76.5905"/>
<text text-anchor="middle" x="239.5" y="-95.5" font-family="Helvetica,sans-Serif" font-size="10.00" fill="#000000"> +OutputType</text>
</g>
</g>
</svg>
