<?xml version="1.0" encoding="UTF-8" standalone="no"?>
<!DOCTYPE svg PUBLIC "-//W3C//DTD SVG 1.1//EN"
 "http://www.w3.org/Graphics/SVG/1.1/DTD/svg11.dtd">
<!-- Generated by graphviz version 2.40.1 (20161225.0304)
 -->
<!-- Title: /home/travis/build/AliceO2Group/AliceO2/Framework/Core/include/Framework/RawDeviceService.h Pages: 1 -->
<svg width="1929pt" height="228pt"
 viewBox="0.00 0.00 1928.50 228.00" xmlns="http://www.w3.org/2000/svg" xmlns:xlink="http://www.w3.org/1999/xlink">
<g id="graph0" class="graph" transform="scale(1 1) rotate(0) translate(4 224)">
<title>/home/travis/build/AliceO2Group/AliceO2/Framework/Core/include/Framework/RawDeviceService.h</title>
<!-- Node1 -->
<g id="node1" class="node">
<title>Node1</title>
<polygon fill="#bfbfbf" stroke="#000000" points="839,-167.5 839,-219.5 1015,-219.5 1015,-167.5 839,-167.5"/>
<text text-anchor="start" x="847" y="-207.5" font-family="Helvetica,sans-Serif" font-size="10.00" fill="#000000">/home/travis/build</text>
<text text-anchor="start" x="847" y="-196.5" font-family="Helvetica,sans-Serif" font-size="10.00" fill="#000000">/AliceO2Group/AliceO2</text>
<text text-anchor="start" x="847" y="-185.5" font-family="Helvetica,sans-Serif" font-size="10.00" fill="#000000">/Framework/Core/include</text>
<text text-anchor="middle" x="927" y="-174.5" font-family="Helvetica,sans-Serif" font-size="10.00" fill="#000000">/Framework/RawDeviceService.h</text>
</g>
<!-- Node2 -->
<g id="node2" class="node">
<title>Node2</title>
<g id="a_node2"><a xlink:href="../../de/d88/SimpleRawDeviceService_8h.html" target="_top" xlink:title="/home/travis/build\l/AliceO2Group/AliceO2\l/Framework/Core/include\l/Framework/SimpleRawDeviceService.h">
<polygon fill="none" stroke="#000000" points="0,-78.5 0,-130.5 210,-130.5 210,-78.5 0,-78.5"/>
<text text-anchor="start" x="8" y="-118.5" font-family="Helvetica,sans-Serif" font-size="10.00" fill="#000000">/home/travis/build</text>
<text text-anchor="start" x="8" y="-107.5" font-family="Helvetica,sans-Serif" font-size="10.00" fill="#000000">/AliceO2Group/AliceO2</text>
<text text-anchor="start" x="8" y="-96.5" font-family="Helvetica,sans-Serif" font-size="10.00" fill="#000000">/Framework/Core/include</text>
<text text-anchor="middle" x="105" y="-85.5" font-family="Helvetica,sans-Serif" font-size="10.00" fill="#000000">/Framework/SimpleRawDeviceService.h</text>
</a>
</g>
</g>
<!-- Node1&#45;&gt;Node2 -->
<g id="edge1" class="edge">
<title>Node1&#45;&gt;Node2</title>
<path fill="none" stroke="#191970" d="M828.8652,-188.824C692.5341,-181.409 438.3984,-164.2573 224,-131 219.5031,-130.3025 214.9223,-129.5352 210.3032,-128.7147"/>
<polygon fill="#191970" stroke="#191970" points="828.7029,-192.3203 838.8765,-189.3625 829.0789,-185.3304 828.7029,-192.3203"/>
</g>
<!-- Node3 -->
<g id="node3" class="node">
<title>Node3</title>
<g id="a_node3"><a xlink:href="../../d7/d54/runDataProcessing_8cxx.html" target="_top" xlink:title="/home/travis/build\l/AliceO2Group/AliceO2\l/Framework/Core/src/runDataProcessing.cxx">
<polygon fill="none" stroke="#000000" points="55.5,-.5 55.5,-41.5 286.5,-41.5 286.5,-.5 55.5,-.5"/>
<text text-anchor="start" x="63.5" y="-29.5" font-family="Helvetica,sans-Serif" font-size="10.00" fill="#000000">/home/travis/build</text>
<text text-anchor="start" x="63.5" y="-18.5" font-family="Helvetica,sans-Serif" font-size="10.00" fill="#000000">/AliceO2Group/AliceO2</text>
<text text-anchor="middle" x="171" y="-7.5" font-family="Helvetica,sans-Serif" font-size="10.00" fill="#000000">/Framework/Core/src/runDataProcessing.cxx</text>
</a>
</g>
</g>
<!-- Node1&#45;&gt;Node3 -->
<g id="edge7" class="edge">
<title>Node1&#45;&gt;Node3</title>
<path fill="none" stroke="#191970" d="M828.7436,-188.7546C654.8267,-179.7054 306.4686,-158.4165 258,-131 232.5446,-116.601 237.0955,-100.9753 219,-78 209.3142,-65.7022 198.0611,-52.2957 188.8862,-41.5759"/>
<polygon fill="#191970" stroke="#191970" points="828.7583,-192.26 838.9256,-189.2808 829.1196,-185.2693 828.7583,-192.26"/>
</g>
<!-- Node4 -->
<g id="node4" class="node">
<title>Node4</title>
<g id="a_node4"><a xlink:href="../../d4/dc5/AODReaderHelpers_8cxx.html" target="_top" xlink:title="/home/travis/build\l/AliceO2Group/AliceO2\l/Framework/Core/src/AODReader\lHelpers.cxx">
<polygon fill="none" stroke="#000000" points="266.5,-78.5 266.5,-130.5 441.5,-130.5 441.5,-78.5 266.5,-78.5"/>
<text text-anchor="start" x="274.5" y="-118.5" font-family="Helvetica,sans-Serif" font-size="10.00" fill="#000000">/home/travis/build</text>
<text text-anchor="start" x="274.5" y="-107.5" font-family="Helvetica,sans-Serif" font-size="10.00" fill="#000000">/AliceO2Group/AliceO2</text>
<text text-anchor="start" x="274.5" y="-96.5" font-family="Helvetica,sans-Serif" font-size="10.00" fill="#000000">/Framework/Core/src/AODReader</text>
<text text-anchor="middle" x="354" y="-85.5" font-family="Helvetica,sans-Serif" font-size="10.00" fill="#000000">Helpers.cxx</text>
</a>
</g>
</g>
<!-- Node1&#45;&gt;Node4 -->
<g id="edge3" class="edge">
<title>Node1&#45;&gt;Node4</title>
<path fill="none" stroke="#191970" d="M828.6209,-184.532C731.9157,-174.7907 580.4234,-157.0498 451,-131 447.9194,-130.38 444.7925,-129.7161 441.641,-129.0176"/>
<polygon fill="#191970" stroke="#191970" points="828.3804,-188.0253 838.6787,-185.5362 829.0759,-181.0599 828.3804,-188.0253"/>
</g>
<!-- Node5 -->
<g id="node5" class="node">
<title>Node5</title>
<g id="a_node5"><a xlink:href="../../d1/dca/Dispatcher_8cxx.html" target="_top" xlink:title="Implementation of Dispatcher for O2 Data Sampling. ">
<polygon fill="none" stroke="#000000" points="459.5,-84 459.5,-125 650.5,-125 650.5,-84 459.5,-84"/>
<text text-anchor="start" x="467.5" y="-113" font-family="Helvetica,sans-Serif" font-size="10.00" fill="#000000">/home/travis/build</text>
<text text-anchor="start" x="467.5" y="-102" font-family="Helvetica,sans-Serif" font-size="10.00" fill="#000000">/AliceO2Group/AliceO2</text>
<text text-anchor="middle" x="555" y="-91" font-family="Helvetica,sans-Serif" font-size="10.00" fill="#000000">/Framework/Core/src/Dispatcher.cxx</text>
</a>
</g>
</g>
<!-- Node1&#45;&gt;Node5 -->
<g id="edge4" class="edge">
<title>Node1&#45;&gt;Node5</title>
<path fill="none" stroke="#191970" d="M828.8841,-170.96C778.3752,-159.2484 715.8357,-144.5799 660,-131 652.1447,-129.0895 643.9658,-127.0731 635.7937,-125.0404"/>
<polygon fill="#191970" stroke="#191970" points="828.288,-174.4145 838.82,-173.2617 829.8679,-167.5951 828.288,-174.4145"/>
</g>
<!-- Node6 -->
<g id="node6" class="node">
<title>Node6</title>
<g id="a_node6"><a xlink:href="../../dc/df3/ExternalFairMQDeviceProxy_8cxx.html" target="_top" xlink:title="/home/travis/build\l/AliceO2Group/AliceO2\l/Framework/Core/src/External\lFairMQDeviceProxy.cxx">
<polygon fill="none" stroke="#000000" points="669,-78.5 669,-130.5 829,-130.5 829,-78.5 669,-78.5"/>
<text text-anchor="start" x="677" y="-118.5" font-family="Helvetica,sans-Serif" font-size="10.00" fill="#000000">/home/travis/build</text>
<text text-anchor="start" x="677" y="-107.5" font-family="Helvetica,sans-Serif" font-size="10.00" fill="#000000">/AliceO2Group/AliceO2</text>
<text text-anchor="start" x="677" y="-96.5" font-family="Helvetica,sans-Serif" font-size="10.00" fill="#000000">/Framework/Core/src/External</text>
<text text-anchor="middle" x="749" y="-85.5" font-family="Helvetica,sans-Serif" font-size="10.00" fill="#000000">FairMQDeviceProxy.cxx</text>
</a>
</g>
</g>
<!-- Node1&#45;&gt;Node6 -->
<g id="edge5" class="edge">
<title>Node1&#45;&gt;Node6</title>
<path fill="none" stroke="#191970" d="M865.4118,-162.7059C844.4406,-152.2203 821.2192,-140.6096 801.0683,-130.5341"/>
<polygon fill="#191970" stroke="#191970" points="864.0473,-165.9367 874.5569,-167.2784 867.1779,-159.6757 864.0473,-165.9367"/>
</g>
<!-- Node7 -->
<g id="node7" class="node">
<title>Node7</title>
<g id="a_node7"><a xlink:href="../../d4/d7a/LifetimeHelpers_8cxx.html" target="_top" xlink:title="/home/travis/build\l/AliceO2Group/AliceO2\l/Framework/Core/src/Lifetime\lHelpers.cxx">
<polygon fill="none" stroke="#000000" points="847,-78.5 847,-130.5 1007,-130.5 1007,-78.5 847,-78.5"/>
<text text-anchor="start" x="855" y="-118.5" font-family="Helvetica,sans-Serif" font-size="10.00" fill="#000000">/home/travis/build</text>
<text text-anchor="start" x="855" y="-107.5" font-family="Helvetica,sans-Serif" font-size="10.00" fill="#000000">/AliceO2Group/AliceO2</text>
<text text-anchor="start" x="855" y="-96.5" font-family="Helvetica,sans-Serif" font-size="10.00" fill="#000000">/Framework/Core/src/Lifetime</text>
<text text-anchor="middle" x="927" y="-85.5" font-family="Helvetica,sans-Serif" font-size="10.00" fill="#000000">Helpers.cxx</text>
</a>
</g>
</g>
<!-- Node1&#45;&gt;Node7 -->
<g id="edge6" class="edge">
<title>Node1&#45;&gt;Node7</title>
<path fill="none" stroke="#191970" d="M927,-157.1155C927,-148.2061 927,-138.8475 927,-130.5341"/>
<polygon fill="#191970" stroke="#191970" points="923.5001,-157.2784 927,-167.2784 930.5001,-157.2785 923.5001,-157.2784"/>
</g>
<!-- Node8 -->
<g id="node8" class="node">
<title>Node8</title>
<g id="a_node8"><a xlink:href="../../d3/dac/TextControlService_8cxx.html" target="_top" xlink:title="/home/travis/build\l/AliceO2Group/AliceO2\l/Framework/Core/src/TextControl\lService.cxx">
<polygon fill="none" stroke="#000000" points="1025.5,-78.5 1025.5,-130.5 1200.5,-130.5 1200.5,-78.5 1025.5,-78.5"/>
<text text-anchor="start" x="1033.5" y="-118.5" font-family="Helvetica,sans-Serif" font-size="10.00" fill="#000000">/home/travis/build</text>
<text text-anchor="start" x="1033.5" y="-107.5" font-family="Helvetica,sans-Serif" font-size="10.00" fill="#000000">/AliceO2Group/AliceO2</text>
<text text-anchor="start" x="1033.5" y="-96.5" font-family="Helvetica,sans-Serif" font-size="10.00" fill="#000000">/Framework/Core/src/TextControl</text>
<text text-anchor="middle" x="1113" y="-85.5" font-family="Helvetica,sans-Serif" font-size="10.00" fill="#000000">Service.cxx</text>
</a>
</g>
</g>
<!-- Node1&#45;&gt;Node8 -->
<g id="edge8" class="edge">
<title>Node1&#45;&gt;Node8</title>
<path fill="none" stroke="#191970" d="M990.8156,-162.9646C1012.8218,-152.4347 1037.2541,-140.744 1058.4516,-130.6011"/>
<polygon fill="#191970" stroke="#191970" points="989.0592,-159.9249 981.5494,-167.3984 992.0806,-166.2393 989.0592,-159.9249"/>
</g>
<!-- Node9 -->
<g id="node9" class="node">
<title>Node9</title>
<g id="a_node9"><a xlink:href="../../dc/da7/WorkflowHelpers_8cxx.html" target="_top" xlink:title="/home/travis/build\l/AliceO2Group/AliceO2\l/Framework/Core/src/Workflow\lHelpers.cxx">
<polygon fill="none" stroke="#000000" points="1219,-78.5 1219,-130.5 1383,-130.5 1383,-78.5 1219,-78.5"/>
<text text-anchor="start" x="1227" y="-118.5" font-family="Helvetica,sans-Serif" font-size="10.00" fill="#000000">/home/travis/build</text>
<text text-anchor="start" x="1227" y="-107.5" font-family="Helvetica,sans-Serif" font-size="10.00" fill="#000000">/AliceO2Group/AliceO2</text>
<text text-anchor="start" x="1227" y="-96.5" font-family="Helvetica,sans-Serif" font-size="10.00" fill="#000000">/Framework/Core/src/Workflow</text>
<text text-anchor="middle" x="1301" y="-85.5" font-family="Helvetica,sans-Serif" font-size="10.00" fill="#000000">Helpers.cxx</text>
</a>
</g>
</g>
<!-- Node1&#45;&gt;Node9 -->
<g id="edge9" class="edge">
<title>Node1&#45;&gt;Node9</title>
<path fill="none" stroke="#191970" d="M1025.335,-173.4502C1079.9373,-161.8997 1148.9652,-146.6085 1210,-131 1212.8695,-130.2662 1215.7854,-129.5045 1218.727,-128.7226"/>
<polygon fill="#191970" stroke="#191970" points="1024.3758,-170.0754 1015.3126,-175.5626 1025.8195,-176.9249 1024.3758,-170.0754"/>
</g>
<!-- Node10 -->
<g id="node10" class="node">
<title>Node10</title>
<g id="a_node10"><a xlink:href="../../d2/da2/test__DataAllocator_8cxx.html" target="_top" xlink:title="/home/travis/build\l/AliceO2Group/AliceO2\l/Framework/Core/test/test\l_DataAllocator.cxx">
<polygon fill="none" stroke="#000000" points="1401.5,-78.5 1401.5,-130.5 1544.5,-130.5 1544.5,-78.5 1401.5,-78.5"/>
<text text-anchor="start" x="1409.5" y="-118.5" font-family="Helvetica,sans-Serif" font-size="10.00" fill="#000000">/home/travis/build</text>
<text text-anchor="start" x="1409.5" y="-107.5" font-family="Helvetica,sans-Serif" font-size="10.00" fill="#000000">/AliceO2Group/AliceO2</text>
<text text-anchor="start" x="1409.5" y="-96.5" font-family="Helvetica,sans-Serif" font-size="10.00" fill="#000000">/Framework/Core/test/test</text>
<text text-anchor="middle" x="1473" y="-85.5" font-family="Helvetica,sans-Serif" font-size="10.00" fill="#000000">_DataAllocator.cxx</text>
</a>
</g>
</g>
<!-- Node1&#45;&gt;Node10 -->
<g id="edge10" class="edge">
<title>Node1&#45;&gt;Node10</title>
<path fill="none" stroke="#191970" d="M1025.4195,-185.5294C1120.1836,-176.6232 1267.1219,-159.5679 1392,-131 1395.0289,-130.3071 1398.1059,-129.5495 1401.2028,-128.7426"/>
<polygon fill="#191970" stroke="#191970" points="1024.9061,-182.0619 1015.2721,-186.4707 1025.5527,-189.032 1024.9061,-182.0619"/>
</g>
<!-- Node11 -->
<g id="node11" class="node">
<title>Node11</title>
<g id="a_node11"><a xlink:href="../../d5/d24/test__SimpleDataProcessingDevice01_8cxx.html" target="_top" xlink:title="/home/travis/build\l/AliceO2Group/AliceO2\l/Framework/Core/test/test\l_SimpleDataProcessingDevice01.cxx">
<polygon fill="none" stroke="#000000" points="1562.5,-78.5 1562.5,-130.5 1759.5,-130.5 1759.5,-78.5 1562.5,-78.5"/>
<text text-anchor="start" x="1570.5" y="-118.5" font-family="Helvetica,sans-Serif" font-size="10.00" fill="#000000">/home/travis/build</text>
<text text-anchor="start" x="1570.5" y="-107.5" font-family="Helvetica,sans-Serif" font-size="10.00" fill="#000000">/AliceO2Group/AliceO2</text>
<text text-anchor="start" x="1570.5" y="-96.5" font-family="Helvetica,sans-Serif" font-size="10.00" fill="#000000">/Framework/Core/test/test</text>
<text text-anchor="middle" x="1661" y="-85.5" font-family="Helvetica,sans-Serif" font-size="10.00" fill="#000000">_SimpleDataProcessingDevice01.cxx</text>
</a>
</g>
</g>
<!-- Node1&#45;&gt;Node11 -->
<g id="edge11" class="edge">
<title>Node1&#45;&gt;Node11</title>
<path fill="none" stroke="#191970" d="M1025.2479,-188.0797C1149.188,-180.2412 1368.5477,-163.0376 1554,-131 1556.7345,-130.5276 1559.5024,-130.0237 1562.2913,-129.4934"/>
<polygon fill="#191970" stroke="#191970" points="1024.7864,-184.6016 1015.0242,-188.7187 1025.2231,-191.5879 1024.7864,-184.6016"/>
</g>
<!-- Node12 -->
<g id="node12" class="node">
<title>Node12</title>
<g id="a_node12"><a xlink:href="../../dd/d16/test__StaggeringWorkflow_8cxx.html" target="_top" xlink:title="/home/travis/build\l/AliceO2Group/AliceO2\l/Framework/Core/test/test\l_StaggeringWorkflow.cxx">
<polygon fill="none" stroke="#000000" points="1777.5,-78.5 1777.5,-130.5 1920.5,-130.5 1920.5,-78.5 1777.5,-78.5"/>
<text text-anchor="start" x="1785.5" y="-118.5" font-family="Helvetica,sans-Serif" font-size="10.00" fill="#000000">/home/travis/build</text>
<text text-anchor="start" x="1785.5" y="-107.5" font-family="Helvetica,sans-Serif" font-size="10.00" fill="#000000">/AliceO2Group/AliceO2</text>
<text text-anchor="start" x="1785.5" y="-96.5" font-family="Helvetica,sans-Serif" font-size="10.00" fill="#000000">/Framework/Core/test/test</text>
<text text-anchor="middle" x="1849" y="-85.5" font-family="Helvetica,sans-Serif" font-size="10.00" fill="#000000">_StaggeringWorkflow.cxx</text>
</a>
</g>
</g>
<!-- Node1&#45;&gt;Node12 -->
<g id="edge12" class="edge">
<title>Node1&#45;&gt;Node12</title>
<path fill="none" stroke="#191970" d="M1025.1729,-189.245C1215.7106,-180.4867 1629.191,-158.9019 1769,-131 1771.7261,-130.4559 1774.4883,-129.8467 1777.2661,-129.1849"/>
<polygon fill="#191970" stroke="#191970" points="1024.9918,-185.7495 1015.1622,-189.7027 1025.3116,-192.7422 1024.9918,-185.7495"/>
</g>
<!-- Node2&#45;&gt;Node3 -->
<g id="edge2" class="edge">
<title>Node2&#45;&gt;Node3</title>
<path fill="none" stroke="#191970" d="M132.1558,-70.1438C139.7888,-60.487 147.8526,-50.2849 154.643,-41.6941"/>
<polygon fill="#191970" stroke="#191970" points="129.338,-68.0645 125.8828,-78.0801 134.8297,-72.4052 129.338,-68.0645"/>
</g>
</g>
</svg>
