<?xml version="1.0" encoding="UTF-8" standalone="no"?>
<!DOCTYPE svg PUBLIC "-//W3C//DTD SVG 1.1//EN"
 "http://www.w3.org/Graphics/SVG/1.1/DTD/svg11.dtd">
<!-- Generated by graphviz version 2.40.1 (20161225.0304)
 -->
<!-- Title: /home/travis/build/AliceO2Group/AliceO2/EventVisualisation/View/src/EventManagerFrame.cxx Pages: 1 -->
<svg width="1773pt" height="575pt"
 viewBox="0.00 0.00 1772.50 575.00" xmlns="http://www.w3.org/2000/svg" xmlns:xlink="http://www.w3.org/1999/xlink">
<g id="graph0" class="graph" transform="scale(1 1) rotate(0) translate(4 571)">
<title>/home/travis/build/AliceO2Group/AliceO2/EventVisualisation/View/src/EventManagerFrame.cxx</title>
<!-- Node0 -->
<g id="node1" class="node">
<title>Node0</title>
<polygon fill="#bfbfbf" stroke="#000000" points="630,-514.5 630,-566.5 787,-566.5 787,-514.5 630,-514.5"/>
<text text-anchor="start" x="638" y="-554.5" font-family="Helvetica,sans-Serif" font-size="10.00" fill="#000000">/home/travis/build</text>
<text text-anchor="start" x="638" y="-543.5" font-family="Helvetica,sans-Serif" font-size="10.00" fill="#000000">/AliceO2Group/AliceO2</text>
<text text-anchor="start" x="638" y="-532.5" font-family="Helvetica,sans-Serif" font-size="10.00" fill="#000000">/EventVisualisation/View</text>
<text text-anchor="middle" x="708.5" y="-521.5" font-family="Helvetica,sans-Serif" font-size="10.00" fill="#000000">/src/EventManagerFrame.cxx</text>
</g>
<!-- Node1 -->
<g id="node2" class="node">
<title>Node1</title>
<polygon fill="none" stroke="#bfbfbf" points="256,-453 256,-472 327,-472 327,-453 256,-453"/>
<text text-anchor="middle" x="291.5" y="-460" font-family="Helvetica,sans-Serif" font-size="10.00" fill="#000000">TGButton.h</text>
</g>
<!-- Node0&#45;&gt;Node1 -->
<g id="edge1" class="edge">
<title>Node0&#45;&gt;Node1</title>
<path fill="none" stroke="#191970" d="M629.697,-531.1076C553.8564,-521.1675 436.3025,-503.3867 336.5,-478 333.2968,-477.1852 329.996,-476.2466 326.7063,-475.2428"/>
<polygon fill="#191970" stroke="#191970" points="327.5709,-471.8439 316.979,-472.0943 325.4152,-478.5038 327.5709,-471.8439"/>
</g>
<!-- Node2 -->
<g id="node3" class="node">
<title>Node2</title>
<polygon fill="none" stroke="#bfbfbf" points="345.5,-453 345.5,-472 447.5,-472 447.5,-453 345.5,-453"/>
<text text-anchor="middle" x="396.5" y="-460" font-family="Helvetica,sans-Serif" font-size="10.00" fill="#000000">TGNumberEntry.h</text>
</g>
<!-- Node0&#45;&gt;Node2 -->
<g id="edge2" class="edge">
<title>Node0&#45;&gt;Node2</title>
<path fill="none" stroke="#191970" d="M629.904,-521.0318C580.4151,-508.7481 515.2041,-492.5154 457.5,-478 453.0891,-476.8904 448.4999,-475.7319 443.907,-474.5697"/>
<polygon fill="#191970" stroke="#191970" points="444.4676,-471.1012 433.9142,-472.037 442.7478,-477.8866 444.4676,-471.1012"/>
</g>
<!-- Node3 -->
<g id="node4" class="node">
<title>Node3</title>
<polygon fill="none" stroke="#bfbfbf" points="466,-453 466,-472 531,-472 531,-453 466,-453"/>
<text text-anchor="middle" x="498.5" y="-460" font-family="Helvetica,sans-Serif" font-size="10.00" fill="#000000">TGLabel.h</text>
</g>
<!-- Node0&#45;&gt;Node3 -->
<g id="edge3" class="edge">
<title>Node0&#45;&gt;Node3</title>
<path fill="none" stroke="#191970" d="M638.2811,-514.4187C603.19,-501.3849 562.2561,-486.1808 533.7905,-475.6079"/>
<polygon fill="#191970" stroke="#191970" points="534.8648,-472.2734 524.2719,-472.0724 532.4275,-478.8353 534.8648,-472.2734"/>
</g>
<!-- Node4 -->
<g id="node5" class="node">
<title>Node4</title>
<g id="a_node5"><a xlink:href="../../d9/d30/EventManagerFrame_8h.html" target="_top" xlink:title="GUI (bottom buttons) for visualisation. ">
<polygon fill="none" stroke="#000000" points="549,-447.5 549,-477.5 680,-477.5 680,-447.5 549,-447.5"/>
<text text-anchor="start" x="557" y="-465.5" font-family="Helvetica,sans-Serif" font-size="10.00" fill="#000000">EventVisualisationView</text>
<text text-anchor="middle" x="614.5" y="-454.5" font-family="Helvetica,sans-Serif" font-size="10.00" fill="#000000">/EventManagerFrame.h</text>
</a>
</g>
</g>
<!-- Node0&#45;&gt;Node4 -->
<g id="edge4" class="edge">
<title>Node0&#45;&gt;Node4</title>
<path fill="none" stroke="#191970" d="M676.9379,-514.3101C665.0923,-504.4808 651.7749,-493.4303 640.4915,-484.0674"/>
<polygon fill="#191970" stroke="#191970" points="642.6157,-481.282 632.6851,-477.5897 638.1457,-486.669 642.6157,-481.282"/>
</g>
<!-- Node23 -->
<g id="node24" class="node">
<title>Node23</title>
<polygon fill="none" stroke="#bfbfbf" points="475.5,-185 475.5,-204 535.5,-204 535.5,-185 475.5,-185"/>
<text text-anchor="middle" x="505.5" y="-192" font-family="Helvetica,sans-Serif" font-size="10.00" fill="#000000">iostream</text>
</g>
<!-- Node0&#45;&gt;Node23 -->
<g id="edge63" class="edge">
<title>Node0&#45;&gt;Node23</title>
<path fill="none" stroke="#191970" d="M707.5901,-514.2625C704.0954,-456.464 687.2655,-317.6189 606.5,-246 587.8116,-229.428 562.8325,-216.6308 542.3918,-207.9381"/>
<polygon fill="#191970" stroke="#191970" points="543.6452,-204.6693 533.0647,-204.1183 540.9922,-211.1472 543.6452,-204.6693"/>
</g>
<!-- Node32 -->
<g id="node33" class="node">
<title>Node32</title>
<g id="a_node33"><a xlink:href="../../d7/d29/MultiView_8h.html" target="_top" xlink:title="EventVisualisationView\l/MultiView.h">
<polygon fill="none" stroke="#000000" points="1100,-380.5 1100,-410.5 1231,-410.5 1231,-380.5 1100,-380.5"/>
<text text-anchor="start" x="1108" y="-398.5" font-family="Helvetica,sans-Serif" font-size="10.00" fill="#000000">EventVisualisationView</text>
<text text-anchor="middle" x="1165.5" y="-387.5" font-family="Helvetica,sans-Serif" font-size="10.00" fill="#000000">/MultiView.h</text>
</a>
</g>
</g>
<!-- Node0&#45;&gt;Node32 -->
<g id="edge45" class="edge">
<title>Node0&#45;&gt;Node32</title>
<path fill="none" stroke="#191970" d="M735.0463,-514.1064C761.615,-487.9512 799.7685,-451.1914 808.5,-447 856.8111,-423.8092 1000.0973,-408.608 1089.7693,-401.0791"/>
<polygon fill="#191970" stroke="#191970" points="1090.2119,-404.5546 1099.8896,-400.2428 1089.6353,-397.5784 1090.2119,-404.5546"/>
</g>
<!-- Node37 -->
<g id="node38" class="node">
<title>Node37</title>
<g id="a_node38"><a xlink:href="../../d1/deb/DataSourceOffline_8h.html" target="_top" xlink:title="Grouping reading from file(s) ">
<polygon fill="none" stroke="#000000" points="737,-380.5 737,-410.5 868,-410.5 868,-380.5 737,-380.5"/>
<text text-anchor="start" x="745" y="-398.5" font-family="Helvetica,sans-Serif" font-size="10.00" fill="#000000">EventVisualisationBase</text>
<text text-anchor="middle" x="802.5" y="-387.5" font-family="Helvetica,sans-Serif" font-size="10.00" fill="#000000">/DataSourceOffline.h</text>
</a>
</g>
</g>
<!-- Node0&#45;&gt;Node37 -->
<g id="edge51" class="edge">
<title>Node0&#45;&gt;Node37</title>
<path fill="none" stroke="#191970" d="M725.5227,-514.2416C743.0336,-487.2301 770.0725,-445.5211 787.0034,-419.4043"/>
<polygon fill="#191970" stroke="#191970" points="790.0355,-421.1613 792.5384,-410.8663 784.1617,-417.3535 790.0355,-421.1613"/>
</g>
<!-- Node39 -->
<g id="node40" class="node">
<title>Node39</title>
<g id="a_node40"><a xlink:href="../../d3/d28/DataReaderVSD_8h.html" target="_top" xlink:title="EventVisualisationDetectors\l/DataReaderVSD.h">
<polygon fill="none" stroke="#000000" points="1417,-380.5 1417,-410.5 1572,-410.5 1572,-380.5 1417,-380.5"/>
<text text-anchor="start" x="1425" y="-398.5" font-family="Helvetica,sans-Serif" font-size="10.00" fill="#000000">EventVisualisationDetectors</text>
<text text-anchor="middle" x="1494.5" y="-387.5" font-family="Helvetica,sans-Serif" font-size="10.00" fill="#000000">/DataReaderVSD.h</text>
</a>
</g>
</g>
<!-- Node0&#45;&gt;Node39 -->
<g id="edge55" class="edge">
<title>Node0&#45;&gt;Node39</title>
<path fill="none" stroke="#191970" d="M750.7409,-514.3818C767.7237,-503.5263 787.3142,-490.5489 804.5,-478 822.1027,-465.1467 822.2715,-455.1161 842.5,-447 868.25,-436.6685 1234.8436,-412.0865 1406.7319,-401.0415"/>
<polygon fill="#191970" stroke="#191970" points="1407.0126,-404.5307 1416.7681,-400.3977 1406.5645,-397.5451 1407.0126,-404.5307"/>
</g>
<!-- Node43 -->
<g id="node44" class="node">
<title>Node43</title>
<polygon fill="none" stroke="#bfbfbf" points="851,-453 851,-472 910,-472 910,-453 851,-453"/>
<text text-anchor="middle" x="880.5" y="-460" font-family="Helvetica,sans-Serif" font-size="10.00" fill="#000000">Rtypes.h</text>
</g>
<!-- Node0&#45;&gt;Node43 -->
<g id="edge62" class="edge">
<title>Node0&#45;&gt;Node43</title>
<path fill="none" stroke="#191970" d="M766.252,-514.3101C794.2613,-501.6083 826.7677,-486.867 849.9287,-476.3637"/>
<polygon fill="#191970" stroke="#191970" points="851.5806,-479.4578 859.2423,-472.1401 848.6895,-473.0827 851.5806,-479.4578"/>
</g>
<!-- Node5 -->
<g id="node6" class="node">
<title>Node5</title>
<g id="a_node6"><a xlink:href="../../d8/d25/EventManager_8h.html" target="_top" xlink:title="EventVisualisationView\l/EventManager.h">
<polygon fill="none" stroke="#000000" points="395,-380.5 395,-410.5 526,-410.5 526,-380.5 395,-380.5"/>
<text text-anchor="start" x="403" y="-398.5" font-family="Helvetica,sans-Serif" font-size="10.00" fill="#000000">EventVisualisationView</text>
<text text-anchor="middle" x="460.5" y="-387.5" font-family="Helvetica,sans-Serif" font-size="10.00" fill="#000000">/EventManager.h</text>
</a>
</g>
</g>
<!-- Node4&#45;&gt;Node5 -->
<g id="edge5" class="edge">
<title>Node4&#45;&gt;Node5</title>
<path fill="none" stroke="#191970" d="M579.9394,-447.4639C557.6273,-437.7567 528.4013,-425.0415 504.4446,-414.6188"/>
<polygon fill="#191970" stroke="#191970" points="505.7774,-411.3818 495.2113,-410.6017 502.9848,-417.8006 505.7774,-411.3818"/>
</g>
<!-- Node31 -->
<g id="node32" class="node">
<title>Node31</title>
<polygon fill="none" stroke="#bfbfbf" points="559.5,-386 559.5,-405 669.5,-405 669.5,-386 559.5,-386"/>
<text text-anchor="middle" x="614.5" y="-393" font-family="Helvetica,sans-Serif" font-size="10.00" fill="#000000">TGMdiMainFrame.h</text>
</g>
<!-- Node4&#45;&gt;Node31 -->
<g id="edge44" class="edge">
<title>Node4&#45;&gt;Node31</title>
<path fill="none" stroke="#191970" d="M614.5,-447.2967C614.5,-437.7699 614.5,-425.3954 614.5,-415.1306"/>
<polygon fill="#191970" stroke="#191970" points="618.0001,-415.0549 614.5,-405.055 611.0001,-415.055 618.0001,-415.0549"/>
</g>
<!-- Node6 -->
<g id="node7" class="node">
<title>Node6</title>
<g id="a_node7"><a xlink:href="../../d6/d7c/VisualisationConstants_8h.html" target="_top" xlink:title="EventVisualisationBase\l/VisualisationConstants.h">
<polygon fill="none" stroke="#000000" points="877.5,-246.5 877.5,-276.5 1017.5,-276.5 1017.5,-246.5 877.5,-246.5"/>
<text text-anchor="start" x="885.5" y="-264.5" font-family="Helvetica,sans-Serif" font-size="10.00" fill="#000000">EventVisualisationBase</text>
<text text-anchor="middle" x="947.5" y="-253.5" font-family="Helvetica,sans-Serif" font-size="10.00" fill="#000000">/VisualisationConstants.h</text>
</a>
</g>
</g>
<!-- Node5&#45;&gt;Node6 -->
<g id="edge6" class="edge">
<title>Node5&#45;&gt;Node6</title>
<path fill="none" stroke="#191970" d="M523.8624,-380.4363C561.3173,-371.032 609.4881,-358.065 651.5,-344 686.4831,-332.2882 693.3317,-324.1435 728.5,-313 773.8282,-298.6372 825.5708,-286.2883 867.3764,-277.286"/>
<polygon fill="#191970" stroke="#191970" points="868.18,-280.6934 877.2309,-275.1861 866.721,-273.8471 868.18,-280.6934"/>
</g>
<!-- Node7 -->
<g id="node8" class="node">
<title>Node7</title>
<polygon fill="none" stroke="#bfbfbf" points="587.5,-.5 587.5,-19.5 631.5,-19.5 631.5,-.5 587.5,-.5"/>
<text text-anchor="middle" x="609.5" y="-7.5" font-family="Helvetica,sans-Serif" font-size="10.00" fill="#000000">string</text>
</g>
<!-- Node5&#45;&gt;Node7 -->
<g id="edge43" class="edge">
<title>Node5&#45;&gt;Node7</title>
<path fill="none" stroke="#191970" d="M463.7751,-380.2394C467.3936,-363.6388 473.5051,-336.3471 479.5,-313 487.1979,-283.0205 481.24,-271.6927 498.5,-246 512.9769,-224.4502 530.3294,-231.7525 544.5,-210 583.0391,-150.8407 557.2297,-121.5359 583.5,-56 587.278,-46.5751 592.6496,-36.7008 597.5305,-28.5277"/>
<polygon fill="#191970" stroke="#191970" points="600.6192,-30.1877 602.9098,-19.8434 594.6684,-26.5015 600.6192,-30.1877"/>
</g>
<!-- Node8 -->
<g id="node9" class="node">
<title>Node8</title>
<g id="a_node9"><a xlink:href="../../dd/dbf/DataInterpreter_8h.html" target="_top" xlink:title="EventVisualisationBase\l/DataInterpreter.h">
<polygon fill="none" stroke="#000000" points="511,-313.5 511,-343.5 642,-343.5 642,-313.5 511,-313.5"/>
<text text-anchor="start" x="519" y="-331.5" font-family="Helvetica,sans-Serif" font-size="10.00" fill="#000000">EventVisualisationBase</text>
<text text-anchor="middle" x="576.5" y="-320.5" font-family="Helvetica,sans-Serif" font-size="10.00" fill="#000000">/DataInterpreter.h</text>
</a>
</g>
</g>
<!-- Node5&#45;&gt;Node8 -->
<g id="edge8" class="edge">
<title>Node5&#45;&gt;Node8</title>
<path fill="none" stroke="#191970" d="M486.5327,-380.4639C502.6874,-371.1332 523.6538,-359.0232 541.282,-348.8415"/>
<polygon fill="#191970" stroke="#191970" points="543.244,-351.7501 550.1529,-343.7177 539.7429,-345.6885 543.244,-351.7501"/>
</g>
<!-- Node18 -->
<g id="node19" class="node">
<title>Node18</title>
<polygon fill="none" stroke="#bfbfbf" points="507.5,-252 507.5,-271 597.5,-271 597.5,-252 507.5,-252"/>
<text text-anchor="middle" x="552.5" y="-259" font-family="Helvetica,sans-Serif" font-size="10.00" fill="#000000">TEveElement.h</text>
</g>
<!-- Node5&#45;&gt;Node18 -->
<g id="edge40" class="edge">
<title>Node5&#45;&gt;Node18</title>
<path fill="none" stroke="#191970" d="M466.5386,-380.4357C473.7717,-363.2889 486.8882,-334.8331 502.5,-313 511.5366,-300.3623 523.63,-287.8195 533.6597,-278.2765"/>
<polygon fill="#191970" stroke="#191970" points="536.2081,-280.6866 541.163,-271.3218 531.4496,-275.5527 536.2081,-280.6866"/>
</g>
<!-- Node19 -->
<g id="node20" class="node">
<title>Node19</title>
<g id="a_node20"><a xlink:href="../../d7/dec/EventVisualisation_2Base_2include_2EventVisualisationBase_2DataReader_8h.html" target="_top" xlink:title="EventVisualisationBase\l/DataReader.h">
<polygon fill="none" stroke="#000000" points="737,-313.5 737,-343.5 868,-343.5 868,-313.5 737,-313.5"/>
<text text-anchor="start" x="745" y="-331.5" font-family="Helvetica,sans-Serif" font-size="10.00" fill="#000000">EventVisualisationBase</text>
<text text-anchor="middle" x="802.5" y="-320.5" font-family="Helvetica,sans-Serif" font-size="10.00" fill="#000000">/DataReader.h</text>
</a>
</g>
</g>
<!-- Node5&#45;&gt;Node19 -->
<g id="edge26" class="edge">
<title>Node5&#45;&gt;Node19</title>
<path fill="none" stroke="#191970" d="M526.0364,-382.661C583.4513,-371.413 666.8905,-355.0668 727.0689,-343.2774"/>
<polygon fill="#191970" stroke="#191970" points="727.754,-346.7098 736.8945,-341.3525 726.4082,-339.8404 727.754,-346.7098"/>
</g>
<!-- Node20 -->
<g id="node21" class="node">
<title>Node20</title>
<g id="a_node21"><a xlink:href="../../d5/df3/BasicCCDBManager_8h.html" target="_top" xlink:title="CCDB/BasicCCDBManager.h">
<polygon fill="none" stroke="#000000" points="226.5,-319 226.5,-338 378.5,-338 378.5,-319 226.5,-319"/>
<text text-anchor="middle" x="302.5" y="-326" font-family="Helvetica,sans-Serif" font-size="10.00" fill="#000000">CCDB/BasicCCDBManager.h</text>
</a>
</g>
</g>
<!-- Node5&#45;&gt;Node20 -->
<g id="edge27" class="edge">
<title>Node5&#45;&gt;Node20</title>
<path fill="none" stroke="#191970" d="M425.0417,-380.4639C397.9343,-368.969 360.8801,-353.2561 334.6345,-342.1266"/>
<polygon fill="#191970" stroke="#191970" points="335.7209,-338.7857 325.1481,-338.1039 332.9881,-345.2302 335.7209,-338.7857"/>
</g>
<!-- Node21 -->
<g id="node22" class="node">
<title>Node21</title>
<g id="a_node22"><a xlink:href="../../dd/d3e/CcdbApi_8h.html" target="_top" xlink:title="CCDB/CcdbApi.h">
<polygon fill="none" stroke="#000000" points="299.5,-252 299.5,-271 395.5,-271 395.5,-252 299.5,-252"/>
<text text-anchor="middle" x="347.5" y="-259" font-family="Helvetica,sans-Serif" font-size="10.00" fill="#000000">CCDB/CcdbApi.h</text>
</a>
</g>
</g>
<!-- Node5&#45;&gt;Node21 -->
<g id="edge39" class="edge">
<title>Node5&#45;&gt;Node21</title>
<path fill="none" stroke="#191970" d="M447.7571,-380.389C426.6115,-355.3136 384.3965,-305.2534 362.0899,-278.8014"/>
<polygon fill="#191970" stroke="#191970" points="364.7213,-276.4925 355.599,-271.1042 359.3701,-281.0052 364.7213,-276.4925"/>
</g>
<!-- Node29 -->
<g id="node30" class="node">
<title>Node29</title>
<polygon fill="none" stroke="#bfbfbf" points="0,-319 0,-338 119,-338 119,-319 0,-319"/>
<text text-anchor="middle" x="59.5" y="-326" font-family="Helvetica,sans-Serif" font-size="10.00" fill="#000000">TEveEventManager.h</text>
</g>
<!-- Node5&#45;&gt;Node29 -->
<g id="edge41" class="edge">
<title>Node5&#45;&gt;Node29</title>
<path fill="none" stroke="#191970" d="M394.7638,-386.6292C327.6229,-377.2581 220.4772,-361.4442 128.5,-344 122.4046,-342.844 116.0271,-341.5404 109.7164,-340.1926"/>
<polygon fill="#191970" stroke="#191970" points="110.4209,-336.764 99.9048,-338.053 108.9294,-343.6033 110.4209,-336.764"/>
</g>
<!-- Node30 -->
<g id="node31" class="node">
<title>Node30</title>
<polygon fill="none" stroke="#bfbfbf" points="137,-319 137,-338 208,-338 208,-319 137,-319"/>
<text text-anchor="middle" x="172.5" y="-326" font-family="Helvetica,sans-Serif" font-size="10.00" fill="#000000">TQObject.h</text>
</g>
<!-- Node5&#45;&gt;Node30 -->
<g id="edge42" class="edge">
<title>Node5&#45;&gt;Node30</title>
<path fill="none" stroke="#191970" d="M394.9972,-383.88C345.7875,-374.6053 276.9293,-360.4655 217.5,-344 214.4915,-343.1665 211.3909,-342.2414 208.2908,-341.2699"/>
<polygon fill="#191970" stroke="#191970" points="209.0973,-337.8511 198.5046,-338.0642 206.9181,-344.5033 209.0973,-337.8511"/>
</g>
<!-- Node6&#45;&gt;Node7 -->
<g id="edge7" class="edge">
<title>Node6&#45;&gt;Node7</title>
<path fill="none" stroke="#191970" d="M962.6528,-246.4268C997.8661,-209.6191 1078.398,-113.9377 1026.5,-56 1000.9099,-27.4318 735.1331,-14.7338 641.7361,-11.1303"/>
<polygon fill="#191970" stroke="#191970" points="641.854,-7.6324 631.7294,-10.7539 641.5907,-14.6275 641.854,-7.6324"/>
</g>
<!-- Node8&#45;&gt;Node6 -->
<g id="edge9" class="edge">
<title>Node8&#45;&gt;Node6</title>
<path fill="none" stroke="#191970" d="M642.3984,-315.6068C647.1682,-314.712 651.9067,-313.8349 656.5,-313 747.4084,-296.4769 772.8214,-294.332 867.3203,-277.1892"/>
<polygon fill="#191970" stroke="#191970" points="868.0963,-280.6055 877.3064,-275.3687 866.8408,-273.719 868.0963,-280.6055"/>
</g>
<!-- Node9 -->
<g id="node10" class="node">
<title>Node9</title>
<g id="a_node10"><a xlink:href="../../d0/d35/VisualisationEvent_8h.html" target="_top" xlink:title="EventVisualisationDataConverter\l/VisualisationEvent.h">
<polygon fill="none" stroke="#000000" points="680,-246.5 680,-276.5 859,-276.5 859,-246.5 680,-246.5"/>
<text text-anchor="start" x="688" y="-264.5" font-family="Helvetica,sans-Serif" font-size="10.00" fill="#000000">EventVisualisationDataConverter</text>
<text text-anchor="middle" x="769.5" y="-253.5" font-family="Helvetica,sans-Serif" font-size="10.00" fill="#000000">/VisualisationEvent.h</text>
</a>
</g>
</g>
<!-- Node8&#45;&gt;Node9 -->
<g id="edge10" class="edge">
<title>Node8&#45;&gt;Node9</title>
<path fill="none" stroke="#191970" d="M619.813,-313.4639C648.3942,-303.5419 686.0278,-290.4774 716.4094,-279.9304"/>
<polygon fill="#191970" stroke="#191970" points="717.699,-283.1877 725.9981,-276.6017 715.4033,-276.5748 717.699,-283.1877"/>
</g>
<!-- Node8&#45;&gt;Node18 -->
<g id="edge25" class="edge">
<title>Node8&#45;&gt;Node18</title>
<path fill="none" stroke="#191970" d="M571.054,-313.2967C567.5688,-303.5672 563.0197,-290.8675 559.2982,-280.4784"/>
<polygon fill="#191970" stroke="#191970" points="562.59,-279.2889 555.9227,-271.055 556,-281.6495 562.59,-279.2889"/>
</g>
<!-- Node10 -->
<g id="node11" class="node">
<title>Node10</title>
<g id="a_node11"><a xlink:href="../../d0/d40/VisualisationTrack_8h.html" target="_top" xlink:title="EventVisualisationDataConverter\l/VisualisationTrack.h">
<polygon fill="none" stroke="#000000" points="740,-112.5 740,-142.5 919,-142.5 919,-112.5 740,-112.5"/>
<text text-anchor="start" x="748" y="-130.5" font-family="Helvetica,sans-Serif" font-size="10.00" fill="#000000">EventVisualisationDataConverter</text>
<text text-anchor="middle" x="829.5" y="-119.5" font-family="Helvetica,sans-Serif" font-size="10.00" fill="#000000">/VisualisationTrack.h</text>
</a>
</g>
</g>
<!-- Node9&#45;&gt;Node10 -->
<g id="edge11" class="edge">
<title>Node9&#45;&gt;Node10</title>
<path fill="none" stroke="#191970" d="M831.6758,-246.4323C850.2623,-238.7135 868.5799,-227.1702 879.5,-210 892.4762,-189.5968 874.9134,-165.9673 857.1302,-149.2399"/>
<polygon fill="#191970" stroke="#191970" points="859.3805,-146.5573 849.5837,-142.5232 854.7265,-151.7861 859.3805,-146.5573"/>
</g>
<!-- Node13 -->
<g id="node14" class="node">
<title>Node13</title>
<polygon fill="none" stroke="#bfbfbf" points="970,-56.5 970,-75.5 1017,-75.5 1017,-56.5 970,-56.5"/>
<text text-anchor="middle" x="993.5" y="-63.5" font-family="Helvetica,sans-Serif" font-size="10.00" fill="#000000">vector</text>
</g>
<!-- Node9&#45;&gt;Node13 -->
<g id="edge23" class="edge">
<title>Node9&#45;&gt;Node13</title>
<path fill="none" stroke="#191970" d="M820.1398,-246.3978C844.1942,-237.8657 872.6154,-225.7263 895.5,-210 929.1869,-186.8503 935.7376,-176.9498 958.5,-143 970.8429,-124.5908 980.798,-101.1224 986.8903,-84.9601"/>
<polygon fill="#191970" stroke="#191970" points="990.1945,-86.1149 990.3223,-75.5209 983.6159,-83.723 990.1945,-86.1149"/>
</g>
<!-- Node16 -->
<g id="node17" class="node">
<title>Node16</title>
<g id="a_node17"><a xlink:href="../../d5/d20/VisualisationCluster_8h.html" target="_top" xlink:title="EventVisualisationDataConverter\l/VisualisationCluster.h">
<polygon fill="none" stroke="#000000" points="691,-179.5 691,-209.5 870,-209.5 870,-179.5 691,-179.5"/>
<text text-anchor="start" x="699" y="-197.5" font-family="Helvetica,sans-Serif" font-size="10.00" fill="#000000">EventVisualisationDataConverter</text>
<text text-anchor="middle" x="780.5" y="-186.5" font-family="Helvetica,sans-Serif" font-size="10.00" fill="#000000">/VisualisationCluster.h</text>
</a>
</g>
</g>
<!-- Node9&#45;&gt;Node16 -->
<g id="edge19" class="edge">
<title>Node9&#45;&gt;Node16</title>
<path fill="none" stroke="#191970" d="M771.9961,-246.2967C773.29,-238.4156 774.9038,-228.5857 776.3769,-219.6135"/>
<polygon fill="#191970" stroke="#191970" points="779.8474,-220.0781 778.0138,-209.6432 772.9399,-218.944 779.8474,-220.0781"/>
</g>
<!-- Node17 -->
<g id="node18" class="node">
<title>Node17</title>
<polygon fill="none" stroke="#bfbfbf" points="650.5,-118 650.5,-137 694.5,-137 694.5,-118 650.5,-118"/>
<text text-anchor="middle" x="672.5" y="-125" font-family="Helvetica,sans-Serif" font-size="10.00" fill="#000000">ctime</text>
</g>
<!-- Node9&#45;&gt;Node17 -->
<g id="edge24" class="edge">
<title>Node9&#45;&gt;Node17</title>
<path fill="none" stroke="#191970" d="M727.637,-246.3507C710.9231,-238.1618 693.1521,-226.313 682.5,-210 670.2769,-191.2811 669.187,-164.9972 670.231,-147.1643"/>
<polygon fill="#191970" stroke="#191970" points="673.7299,-147.3271 671.1028,-137.0631 666.7558,-146.7251 673.7299,-147.3271"/>
</g>
<!-- Node10&#45;&gt;Node7 -->
<g id="edge15" class="edge">
<title>Node10&#45;&gt;Node7</title>
<path fill="none" stroke="#191970" d="M875.3828,-112.3725C907.8098,-99.2809 942.2696,-78.8874 922.5,-56 904.2835,-34.9106 718.2255,-18.3484 641.9012,-12.3902"/>
<polygon fill="#191970" stroke="#191970" points="642.1276,-8.8974 631.8887,-11.6205 641.591,-15.8768 642.1276,-8.8974"/>
</g>
<!-- Node11 -->
<g id="node12" class="node">
<title>Node11</title>
<g id="a_node12"><a xlink:href="../../de/ddf/ConversionConstants_8h.html" target="_top" xlink:title="ConversionConstants.h">
<polygon fill="none" stroke="#000000" points="592,-56.5 592,-75.5 721,-75.5 721,-56.5 592,-56.5"/>
<text text-anchor="middle" x="656.5" y="-63.5" font-family="Helvetica,sans-Serif" font-size="10.00" fill="#000000">ConversionConstants.h</text>
</a>
</g>
</g>
<!-- Node10&#45;&gt;Node11 -->
<g id="edge12" class="edge">
<title>Node10&#45;&gt;Node11</title>
<path fill="none" stroke="#191970" d="M787.1794,-112.4554C758.3139,-102.194 720.4761,-88.7429 692.9484,-78.9571"/>
<polygon fill="#191970" stroke="#191970" points="693.9036,-75.5821 683.3089,-75.5303 691.5588,-82.1778 693.9036,-75.5821"/>
</g>
<!-- Node12 -->
<g id="node13" class="node">
<title>Node12</title>
<polygon fill="none" stroke="#bfbfbf" points="804,-56.5 804,-75.5 853,-75.5 853,-56.5 804,-56.5"/>
<text text-anchor="middle" x="828.5" y="-63.5" font-family="Helvetica,sans-Serif" font-size="10.00" fill="#000000">iosfwd</text>
</g>
<!-- Node10&#45;&gt;Node12 -->
<g id="edge14" class="edge">
<title>Node10&#45;&gt;Node12</title>
<path fill="none" stroke="#191970" d="M829.2528,-112.2977C829.1241,-104.3834 828.9651,-94.6043 828.8264,-86.0759"/>
<polygon fill="#191970" stroke="#191970" points="832.3223,-85.7887 828.6601,-75.8469 825.3233,-85.9025 832.3223,-85.7887"/>
</g>
<!-- Node10&#45;&gt;Node13 -->
<g id="edge16" class="edge">
<title>Node10&#45;&gt;Node13</title>
<path fill="none" stroke="#191970" d="M869.6189,-112.4554C897.3672,-102.0498 933.8619,-88.3643 960.0419,-78.5468"/>
<polygon fill="#191970" stroke="#191970" points="961.3966,-81.7769 969.5309,-74.9884 958.9387,-75.2225 961.3966,-81.7769"/>
</g>
<!-- Node14 -->
<g id="node15" class="node">
<title>Node14</title>
<polygon fill="none" stroke="#bfbfbf" points="871.5,-56.5 871.5,-75.5 913.5,-75.5 913.5,-56.5 871.5,-56.5"/>
<text text-anchor="middle" x="892.5" y="-63.5" font-family="Helvetica,sans-Serif" font-size="10.00" fill="#000000">array</text>
</g>
<!-- Node10&#45;&gt;Node14 -->
<g id="edge17" class="edge">
<title>Node10&#45;&gt;Node14</title>
<path fill="none" stroke="#191970" d="M845.073,-112.2977C854.1825,-103.4052 865.7034,-92.1586 875.1091,-82.9769"/>
<polygon fill="#191970" stroke="#191970" points="877.702,-85.3368 882.4129,-75.8469 872.8122,-80.3278 877.702,-85.3368"/>
</g>
<!-- Node15 -->
<g id="node16" class="node">
<title>Node15</title>
<polygon fill="none" stroke="#bfbfbf" points="739,-56.5 739,-75.5 786,-75.5 786,-56.5 739,-56.5"/>
<text text-anchor="middle" x="762.5" y="-63.5" font-family="Helvetica,sans-Serif" font-size="10.00" fill="#000000">cmath</text>
</g>
<!-- Node10&#45;&gt;Node15 -->
<g id="edge18" class="edge">
<title>Node10&#45;&gt;Node15</title>
<path fill="none" stroke="#191970" d="M812.9382,-112.2977C803.1535,-103.3163 790.7526,-91.9334 780.6957,-82.702"/>
<polygon fill="#191970" stroke="#191970" points="782.9613,-80.0307 773.2275,-75.8469 778.2278,-85.1876 782.9613,-80.0307"/>
</g>
<!-- Node11&#45;&gt;Node7 -->
<g id="edge13" class="edge">
<title>Node11&#45;&gt;Node7</title>
<path fill="none" stroke="#191970" d="M648.3132,-56.2455C641.6411,-48.2958 632.0521,-36.8706 624.0747,-27.3656"/>
<polygon fill="#191970" stroke="#191970" points="626.7026,-25.0524 617.593,-19.6427 621.3408,-29.5525 626.7026,-25.0524"/>
</g>
<!-- Node16&#45;&gt;Node10 -->
<g id="edge20" class="edge">
<title>Node16&#45;&gt;Node10</title>
<path fill="none" stroke="#191970" d="M791.6189,-179.2967C797.7585,-170.9016 805.5154,-160.2952 812.4086,-150.8698"/>
<polygon fill="#191970" stroke="#191970" points="815.347,-152.781 818.4251,-142.6432 809.6968,-148.6488 815.347,-152.781"/>
</g>
<!-- Node16&#45;&gt;Node13 -->
<g id="edge21" class="edge">
<title>Node16&#45;&gt;Node13</title>
<path fill="none" stroke="#191970" d="M847.4255,-179.4544C874.164,-171.4126 904.2879,-159.6458 928.5,-143 951.2458,-127.3623 970.6449,-101.751 982.1824,-84.4004"/>
<polygon fill="#191970" stroke="#191970" points="985.2941,-86.032 987.7546,-75.7268 979.4048,-82.2484 985.2941,-86.032"/>
</g>
<!-- Node16&#45;&gt;Node17 -->
<g id="edge22" class="edge">
<title>Node16&#45;&gt;Node17</title>
<path fill="none" stroke="#191970" d="M756.2627,-179.4639C738.4682,-168.4247 714.4031,-153.4954 696.6331,-142.4715"/>
<polygon fill="#191970" stroke="#191970" points="698.3237,-139.4015 687.9809,-137.1039 694.6335,-145.3498 698.3237,-139.4015"/>
</g>
<!-- Node20&#45;&gt;Node7 -->
<g id="edge37" class="edge">
<title>Node20&#45;&gt;Node7</title>
<path fill="none" stroke="#191970" d="M249.4473,-318.9981C185.5611,-307.2053 84.9793,-287.3848 70.5,-277 35.6595,-252.0118 20.5,-237.3751 20.5,-194.5 20.5,-194.5 20.5,-194.5 20.5,-127.5 20.5,-70.2491 453.9963,-24.7505 577.1987,-12.9755"/>
<polygon fill="#191970" stroke="#191970" points="577.8597,-16.4287 587.4855,-12.0022 577.2002,-9.4599 577.8597,-16.4287"/>
</g>
<!-- Node20&#45;&gt;Node21 -->
<g id="edge28" class="edge">
<title>Node20&#45;&gt;Node21</title>
<path fill="none" stroke="#191970" d="M308.9474,-318.9005C315.8311,-308.6515 326.8976,-292.1747 335.412,-279.4976"/>
<polygon fill="#191970" stroke="#191970" points="338.3944,-281.3345 341.0646,-271.0817 332.5835,-277.4316 338.3944,-281.3345"/>
</g>
<!-- Node24 -->
<g id="node25" class="node">
<title>Node24</title>
<polygon fill="none" stroke="#bfbfbf" points="48.5,-185 48.5,-204 86.5,-204 86.5,-185 48.5,-185"/>
<text text-anchor="middle" x="67.5" y="-192" font-family="Helvetica,sans-Serif" font-size="10.00" fill="#000000">map</text>
</g>
<!-- Node20&#45;&gt;Node24 -->
<g id="edge38" class="edge">
<title>Node20&#45;&gt;Node24</title>
<path fill="none" stroke="#191970" d="M299.4815,-318.8682C293.5,-301.4374 278.4293,-264.7339 252.5,-246 194.4722,-204.0749 162.3601,-235.5864 95.5,-210 94.4622,-209.6028 93.4156,-209.1731 92.368,-208.7184"/>
<polygon fill="#191970" stroke="#191970" points="93.6355,-205.4409 83.1193,-204.1523 90.5367,-211.7176 93.6355,-205.4409"/>
</g>
<!-- Node28 -->
<g id="node29" class="node">
<title>Node28</title>
<g id="a_node29"><a xlink:href="../../da/d86/CCDBTimeStampUtils_8h.html" target="_top" xlink:title="CCDB/CCDBTimeStampUtils.h">
<polygon fill="none" stroke="#000000" points="80,-252 80,-271 243,-271 243,-252 80,-252"/>
<text text-anchor="middle" x="161.5" y="-259" font-family="Helvetica,sans-Serif" font-size="10.00" fill="#000000">CCDB/CCDBTimeStampUtils.h</text>
</a>
</g>
</g>
<!-- Node20&#45;&gt;Node28 -->
<g id="edge36" class="edge">
<title>Node20&#45;&gt;Node28</title>
<path fill="none" stroke="#191970" d="M282.2981,-318.9005C258.321,-307.5072 218.1479,-288.4178 190.7679,-275.4075"/>
<polygon fill="#191970" stroke="#191970" points="192.1987,-272.2123 181.6644,-271.0817 189.1944,-278.5348 192.1987,-272.2123"/>
</g>
<!-- Node21&#45;&gt;Node7 -->
<g id="edge29" class="edge">
<title>Node21&#45;&gt;Node7</title>
<path fill="none" stroke="#191970" d="M366.4327,-251.8701C383.6946,-242.5555 409.3489,-227.332 428.5,-210 493.0383,-151.5919 487.5857,-117.1826 549.5,-56 560.8086,-44.825 574.8479,-33.927 586.5023,-25.5455"/>
<polygon fill="#191970" stroke="#191970" points="588.699,-28.2796 594.8649,-19.6638 584.6719,-22.554 588.699,-28.2796"/>
</g>
<!-- Node22 -->
<g id="node23" class="node">
<title>Node22</title>
<polygon fill="none" stroke="#bfbfbf" points="196.5,-185 196.5,-204 254.5,-204 254.5,-185 196.5,-185"/>
<text text-anchor="middle" x="225.5" y="-192" font-family="Helvetica,sans-Serif" font-size="10.00" fill="#000000">memory</text>
</g>
<!-- Node21&#45;&gt;Node22 -->
<g id="edge30" class="edge">
<title>Node21&#45;&gt;Node22</title>
<path fill="none" stroke="#191970" d="M330.0204,-251.9005C309.546,-240.6564 275.4228,-221.9166 251.7607,-208.9219"/>
<polygon fill="#191970" stroke="#191970" points="253.3972,-205.8276 242.9472,-204.0817 250.0276,-211.9632 253.3972,-205.8276"/>
</g>
<!-- Node21&#45;&gt;Node23 -->
<g id="edge31" class="edge">
<title>Node21&#45;&gt;Node23</title>
<path fill="none" stroke="#191970" d="M370.1375,-251.9005C397.2401,-240.4077 442.8099,-221.0838 473.5039,-208.068"/>
<polygon fill="#191970" stroke="#191970" points="475.0644,-211.208 482.9044,-204.0817 472.3316,-204.7635 475.0644,-211.208"/>
</g>
<!-- Node21&#45;&gt;Node24 -->
<g id="edge32" class="edge">
<title>Node21&#45;&gt;Node24</title>
<path fill="none" stroke="#191970" d="M310.8641,-251.969C302.5465,-249.9089 293.7362,-247.8082 285.5,-246 201.5525,-227.5697 176.3412,-239.1816 95.5,-210 94.2947,-209.5649 93.0794,-209.0824 91.8655,-208.5646"/>
<polygon fill="#191970" stroke="#191970" points="93.3015,-205.3706 82.7827,-204.1039 90.2157,-211.6538 93.3015,-205.3706"/>
</g>
<!-- Node25 -->
<g id="node26" class="node">
<title>Node25</title>
<polygon fill="none" stroke="#bfbfbf" points="273,-185 273,-204 338,-204 338,-185 273,-185"/>
<text text-anchor="middle" x="305.5" y="-192" font-family="Helvetica,sans-Serif" font-size="10.00" fill="#000000">curl/curl.h</text>
</g>
<!-- Node21&#45;&gt;Node25 -->
<g id="edge33" class="edge">
<title>Node21&#45;&gt;Node25</title>
<path fill="none" stroke="#191970" d="M341.4824,-251.9005C335.12,-241.751 324.9291,-225.4941 317.0142,-212.8679"/>
<polygon fill="#191970" stroke="#191970" points="319.7833,-210.6956 311.5064,-204.0817 313.8523,-214.4135 319.7833,-210.6956"/>
</g>
<!-- Node26 -->
<g id="node27" class="node">
<title>Node26</title>
<polygon fill="none" stroke="#bfbfbf" points="356,-185 356,-204 419,-204 419,-185 356,-185"/>
<text text-anchor="middle" x="387.5" y="-192" font-family="Helvetica,sans-Serif" font-size="10.00" fill="#000000">TObject.h</text>
</g>
<!-- Node21&#45;&gt;Node26 -->
<g id="edge34" class="edge">
<title>Node21&#45;&gt;Node26</title>
<path fill="none" stroke="#191970" d="M353.231,-251.9005C359.2905,-241.751 368.9961,-225.4941 376.5341,-212.8679"/>
<polygon fill="#191970" stroke="#191970" points="379.6586,-214.462 381.7796,-204.0817 373.6483,-210.8737 379.6586,-214.462"/>
</g>
<!-- Node27 -->
<g id="node28" class="node">
<title>Node27</title>
<polygon fill="none" stroke="#bfbfbf" points="104.5,-185 104.5,-204 178.5,-204 178.5,-185 104.5,-185"/>
<text text-anchor="middle" x="141.5" y="-192" font-family="Helvetica,sans-Serif" font-size="10.00" fill="#000000">TMessage.h</text>
</g>
<!-- Node21&#45;&gt;Node27 -->
<g id="edge35" class="edge">
<title>Node21&#45;&gt;Node27</title>
<path fill="none" stroke="#191970" d="M317.3814,-251.9402C285.1901,-241.691 232.6776,-224.8814 187.5,-210 184.7986,-209.1102 182.0099,-208.1855 179.204,-207.2508"/>
<polygon fill="#191970" stroke="#191970" points="180.293,-203.9245 169.6991,-204.0694 178.0711,-210.5625 180.293,-203.9245"/>
</g>
<!-- Node32&#45;&gt;Node13 -->
<g id="edge50" class="edge">
<title>Node32&#45;&gt;Node13</title>
<path fill="none" stroke="#191970" d="M1117.2089,-380.4966C1098.5584,-372.4412 1078.5998,-360.6532 1065.5,-344 1042.1738,-314.3462 1045.5,-299.2287 1045.5,-261.5 1045.5,-261.5 1045.5,-261.5 1045.5,-194.5 1045.5,-152.6451 1021.501,-108.3534 1006.1106,-84.2527"/>
<polygon fill="#191970" stroke="#191970" points="1008.9439,-82.1917 1000.513,-75.7753 1003.1024,-86.0488 1008.9439,-82.1917"/>
</g>
<!-- Node33 -->
<g id="node34" class="node">
<title>Node33</title>
<polygon fill="none" stroke="#bfbfbf" points="1074,-319 1074,-338 1151,-338 1151,-319 1074,-319"/>
<text text-anchor="middle" x="1112.5" y="-326" font-family="Helvetica,sans-Serif" font-size="10.00" fill="#000000">TGLViewer.h</text>
</g>
<!-- Node32&#45;&gt;Node33 -->
<g id="edge46" class="edge">
<title>Node32&#45;&gt;Node33</title>
<path fill="none" stroke="#191970" d="M1153.4735,-380.2967C1145.4563,-370.1618 1134.8898,-356.804 1126.4953,-346.1921"/>
<polygon fill="#191970" stroke="#191970" points="1129.0075,-343.7264 1120.0584,-338.055 1123.5175,-348.0692 1129.0075,-343.7264"/>
</g>
<!-- Node34 -->
<g id="node35" class="node">
<title>Node34</title>
<polygon fill="none" stroke="#bfbfbf" points="1169,-319 1169,-338 1268,-338 1268,-319 1169,-319"/>
<text text-anchor="middle" x="1218.5" y="-326" font-family="Helvetica,sans-Serif" font-size="10.00" fill="#000000">TEveGeoShape.h</text>
</g>
<!-- Node32&#45;&gt;Node34 -->
<g id="edge47" class="edge">
<title>Node32&#45;&gt;Node34</title>
<path fill="none" stroke="#191970" d="M1177.5265,-380.2967C1185.5437,-370.1618 1196.1102,-356.804 1204.5047,-346.1921"/>
<polygon fill="#191970" stroke="#191970" points="1207.4825,-348.0692 1210.9416,-338.055 1201.9925,-343.7264 1207.4825,-348.0692"/>
</g>
<!-- Node35 -->
<g id="node36" class="node">
<title>Node35</title>
<polygon fill="none" stroke="#bfbfbf" points="1286,-319 1286,-338 1365,-338 1365,-319 1286,-319"/>
<text text-anchor="middle" x="1325.5" y="-326" font-family="Helvetica,sans-Serif" font-size="10.00" fill="#000000">TEveScene.h</text>
</g>
<!-- Node32&#45;&gt;Node35 -->
<g id="edge48" class="edge">
<title>Node32&#45;&gt;Node35</title>
<path fill="none" stroke="#191970" d="M1201.4071,-380.4639C1228.9786,-368.9183 1266.7117,-353.1176 1293.3094,-341.9798"/>
<polygon fill="#191970" stroke="#191970" points="1294.6932,-345.1949 1302.5653,-338.1039 1291.9894,-338.7381 1294.6932,-345.1949"/>
</g>
<!-- Node36 -->
<g id="node37" class="node">
<title>Node36</title>
<polygon fill="none" stroke="#bfbfbf" points="1383,-319 1383,-338 1466,-338 1466,-319 1383,-319"/>
<text text-anchor="middle" x="1424.5" y="-326" font-family="Helvetica,sans-Serif" font-size="10.00" fill="#000000">TEveViewer.h</text>
</g>
<!-- Node32&#45;&gt;Node36 -->
<g id="edge49" class="edge">
<title>Node32&#45;&gt;Node36</title>
<path fill="none" stroke="#191970" d="M1230.716,-380.4758C1272.0719,-370.6905 1326.6131,-357.3099 1374.5,-344 1377.8862,-343.0588 1381.3903,-342.0483 1384.8994,-341.0109"/>
<polygon fill="#191970" stroke="#191970" points="1386.146,-344.2906 1394.7086,-338.051 1384.1238,-337.5891 1386.146,-344.2906"/>
</g>
<!-- Node37&#45;&gt;Node19 -->
<g id="edge54" class="edge">
<title>Node37&#45;&gt;Node19</title>
<path fill="none" stroke="#191970" d="M802.5,-380.2967C802.5,-372.5013 802.5,-362.7991 802.5,-353.9064"/>
<polygon fill="#191970" stroke="#191970" points="806.0001,-353.6431 802.5,-343.6432 799.0001,-353.6432 806.0001,-353.6431"/>
</g>
<!-- Node38 -->
<g id="node39" class="node">
<title>Node38</title>
<g id="a_node39"><a xlink:href="../../dc/d54/DataSource_8h.html" target="_top" xlink:title="EventVisualisationBase\l/DataSource.h">
<polygon fill="none" stroke="#000000" points="886,-313.5 886,-343.5 1017,-343.5 1017,-313.5 886,-313.5"/>
<text text-anchor="start" x="894" y="-331.5" font-family="Helvetica,sans-Serif" font-size="10.00" fill="#000000">EventVisualisationBase</text>
<text text-anchor="middle" x="951.5" y="-320.5" font-family="Helvetica,sans-Serif" font-size="10.00" fill="#000000">/DataSource.h</text>
</a>
</g>
</g>
<!-- Node37&#45;&gt;Node38 -->
<g id="edge52" class="edge">
<title>Node37&#45;&gt;Node38</title>
<path fill="none" stroke="#191970" d="M835.9385,-380.4639C857.4307,-370.7996 885.5531,-358.154 908.6742,-347.7572"/>
<polygon fill="#191970" stroke="#191970" points="910.2307,-350.895 917.9156,-343.6017 907.3599,-344.5107 910.2307,-350.895"/>
</g>
<!-- Node38&#45;&gt;Node6 -->
<g id="edge53" class="edge">
<title>Node38&#45;&gt;Node6</title>
<path fill="none" stroke="#191970" d="M950.5923,-313.2967C950.1269,-305.5013 949.5477,-295.7991 949.0168,-286.9064"/>
<polygon fill="#191970" stroke="#191970" points="952.4939,-286.4168 948.4041,-276.6432 945.5063,-286.834 952.4939,-286.4168"/>
</g>
<!-- Node39&#45;&gt;Node6 -->
<g id="edge57" class="edge">
<title>Node39&#45;&gt;Node6</title>
<path fill="none" stroke="#191970" d="M1495.8274,-380.3991C1496.5636,-361.5584 1494.6024,-329.7823 1475.5,-313 1442.6136,-284.1078 1167.3691,-269.7255 1027.8765,-264.2364"/>
<polygon fill="#191970" stroke="#191970" points="1027.7931,-260.7306 1017.6651,-263.8409 1027.5221,-267.7254 1027.7931,-260.7306"/>
</g>
<!-- Node39&#45;&gt;Node19 -->
<g id="edge56" class="edge">
<title>Node39&#45;&gt;Node19</title>
<path fill="none" stroke="#191970" d="M1416.9663,-390.2015C1279.3941,-380.6105 996.756,-360.0051 878.5188,-343.9965"/>
<polygon fill="#191970" stroke="#191970" points="878.66,-340.4822 868.271,-342.56 877.6883,-347.4144 878.66,-340.4822"/>
</g>
<!-- Node39&#45;&gt;Node36 -->
<g id="edge60" class="edge">
<title>Node39&#45;&gt;Node36</title>
<path fill="none" stroke="#191970" d="M1478.6159,-380.2967C1467.7096,-369.8578 1453.231,-355.9997 1441.9944,-345.2446"/>
<polygon fill="#191970" stroke="#191970" points="1444.1271,-342.4411 1434.4828,-338.055 1439.2869,-347.498 1444.1271,-342.4411"/>
</g>
<!-- Node40 -->
<g id="node41" class="node">
<title>Node40</title>
<polygon fill="none" stroke="#bfbfbf" points="1522.5,-319 1522.5,-338 1582.5,-338 1582.5,-319 1522.5,-319"/>
<text text-anchor="middle" x="1552.5" y="-326" font-family="Helvetica,sans-Serif" font-size="10.00" fill="#000000">TString.h</text>
</g>
<!-- Node39&#45;&gt;Node40 -->
<g id="edge58" class="edge">
<title>Node39&#45;&gt;Node40</title>
<path fill="none" stroke="#191970" d="M1507.6611,-380.2967C1516.5223,-370.0605 1528.2295,-356.5366 1537.4593,-345.8746"/>
<polygon fill="#191970" stroke="#191970" points="1540.3297,-347.9064 1544.2285,-338.055 1535.0373,-343.3248 1540.3297,-347.9064"/>
</g>
<!-- Node41 -->
<g id="node42" class="node">
<title>Node41</title>
<polygon fill="none" stroke="#bfbfbf" points="1601,-319 1601,-338 1676,-338 1676,-319 1601,-319"/>
<text text-anchor="middle" x="1638.5" y="-326" font-family="Helvetica,sans-Serif" font-size="10.00" fill="#000000">TEveTrack.h</text>
</g>
<!-- Node39&#45;&gt;Node41 -->
<g id="edge59" class="edge">
<title>Node39&#45;&gt;Node41</title>
<path fill="none" stroke="#191970" d="M1526.8164,-380.4639C1551.3043,-369.0702 1584.6984,-353.5327 1608.5784,-342.4219"/>
<polygon fill="#191970" stroke="#191970" points="1610.2686,-345.4958 1617.8587,-338.1039 1607.3156,-339.1492 1610.2686,-345.4958"/>
</g>
<!-- Node42 -->
<g id="node43" class="node">
<title>Node42</title>
<polygon fill="none" stroke="#bfbfbf" points="1694.5,-319 1694.5,-338 1764.5,-338 1764.5,-319 1694.5,-319"/>
<text text-anchor="middle" x="1729.5" y="-326" font-family="Helvetica,sans-Serif" font-size="10.00" fill="#000000">TEveVSD.h</text>
</g>
<!-- Node39&#45;&gt;Node42 -->
<g id="edge61" class="edge">
<title>Node39&#45;&gt;Node42</title>
<path fill="none" stroke="#191970" d="M1555.0511,-380.4178C1592.7766,-370.7141 1642.2046,-357.4419 1685.5,-344 1688.2555,-343.1445 1691.0962,-342.2269 1693.945,-341.2811"/>
<polygon fill="#191970" stroke="#191970" points="1695.2147,-344.5462 1703.5499,-338.006 1692.9554,-337.9207 1695.2147,-344.5462"/>
</g>
</g>
</svg>
