<?xml version="1.0" encoding="UTF-8" standalone="no"?>
<!DOCTYPE svg PUBLIC "-//W3C//DTD SVG 1.1//EN"
 "http://www.w3.org/Graphics/SVG/1.1/DTD/svg11.dtd">
<!-- Generated by graphviz version 2.40.1 (20161225.0304)
 -->
<!-- Title: /home/travis/build/AliceO2Group/AliceO2/Framework/Core/include/Framework/Kernels.h Pages: 1 -->
<svg width="1927pt" height="239pt"
 viewBox="0.00 0.00 1926.50 239.00" xmlns="http://www.w3.org/2000/svg" xmlns:xlink="http://www.w3.org/1999/xlink">
<g id="graph0" class="graph" transform="scale(1 1) rotate(0) translate(4 235)">
<title>/home/travis/build/AliceO2Group/AliceO2/Framework/Core/include/Framework/Kernels.h</title>
<!-- Node7 -->
<g id="node1" class="node">
<title>Node7</title>
<polygon fill="#bfbfbf" stroke="#000000" points="1064.5,-178.5 1064.5,-230.5 1201.5,-230.5 1201.5,-178.5 1064.5,-178.5"/>
<text text-anchor="start" x="1072.5" y="-218.5" font-family="Helvetica,sans-Serif" font-size="10.00" fill="#000000">/home/travis/build</text>
<text text-anchor="start" x="1072.5" y="-207.5" font-family="Helvetica,sans-Serif" font-size="10.00" fill="#000000">/AliceO2Group/AliceO2</text>
<text text-anchor="start" x="1072.5" y="-196.5" font-family="Helvetica,sans-Serif" font-size="10.00" fill="#000000">/Framework/Core/include</text>
<text text-anchor="middle" x="1133" y="-185.5" font-family="Helvetica,sans-Serif" font-size="10.00" fill="#000000">/Framework/Kernels.h</text>
</g>
<!-- Node8 -->
<g id="node2" class="node">
<title>Node8</title>
<g id="a_node2"><a xlink:href="../../d6/d57/AnalysisTask_8h.html" target="_top" xlink:title="/home/travis/build\l/AliceO2Group/AliceO2\l/Framework/Core/include\l/Framework/AnalysisTask.h">
<polygon fill="none" stroke="#000000" points="878.5,-89.5 878.5,-141.5 1027.5,-141.5 1027.5,-89.5 878.5,-89.5"/>
<text text-anchor="start" x="886.5" y="-129.5" font-family="Helvetica,sans-Serif" font-size="10.00" fill="#000000">/home/travis/build</text>
<text text-anchor="start" x="886.5" y="-118.5" font-family="Helvetica,sans-Serif" font-size="10.00" fill="#000000">/AliceO2Group/AliceO2</text>
<text text-anchor="start" x="886.5" y="-107.5" font-family="Helvetica,sans-Serif" font-size="10.00" fill="#000000">/Framework/Core/include</text>
<text text-anchor="middle" x="953" y="-96.5" font-family="Helvetica,sans-Serif" font-size="10.00" fill="#000000">/Framework/AnalysisTask.h</text>
</a>
</g>
</g>
<!-- Node7&#45;&gt;Node8 -->
<g id="edge1" class="edge">
<title>Node7&#45;&gt;Node8</title>
<path fill="none" stroke="#191970" d="M1070.7198,-173.7059C1049.513,-163.2203 1026.0306,-151.6096 1005.6533,-141.5341"/>
<polygon fill="#191970" stroke="#191970" points="1069.4522,-176.9836 1079.9676,-178.2784 1072.5548,-170.7087 1069.4522,-176.9836"/>
</g>
<!-- Node20 -->
<g id="node14" class="node">
<title>Node20</title>
<g id="a_node14"><a xlink:href="../../d7/d55/Kernels_8cxx.html" target="_top" xlink:title="/home/travis/build\l/AliceO2Group/AliceO2\l/Framework/Core/src/Kernels.cxx">
<polygon fill="none" stroke="#000000" points="1045,-95 1045,-136 1221,-136 1221,-95 1045,-95"/>
<text text-anchor="start" x="1053" y="-124" font-family="Helvetica,sans-Serif" font-size="10.00" fill="#000000">/home/travis/build</text>
<text text-anchor="start" x="1053" y="-113" font-family="Helvetica,sans-Serif" font-size="10.00" fill="#000000">/AliceO2Group/AliceO2</text>
<text text-anchor="middle" x="1133" y="-102" font-family="Helvetica,sans-Serif" font-size="10.00" fill="#000000">/Framework/Core/src/Kernels.cxx</text>
</a>
</g>
</g>
<!-- Node7&#45;&gt;Node20 -->
<g id="edge13" class="edge">
<title>Node7&#45;&gt;Node20</title>
<path fill="none" stroke="#191970" d="M1133,-168.1335C1133,-157.2443 1133,-145.6825 1133,-136.1771"/>
<polygon fill="#191970" stroke="#191970" points="1129.5001,-168.2784 1133,-178.2784 1136.5001,-168.2785 1129.5001,-168.2784"/>
</g>
<!-- Node21 -->
<g id="node15" class="node">
<title>Node21</title>
<g id="a_node15"><a xlink:href="../../d7/d6e/test__Kernels_8cxx.html" target="_top" xlink:title="/home/travis/build\l/AliceO2Group/AliceO2\l/Framework/Core/test/test\l_Kernels.cxx">
<polygon fill="none" stroke="#000000" points="1239.5,-89.5 1239.5,-141.5 1382.5,-141.5 1382.5,-89.5 1239.5,-89.5"/>
<text text-anchor="start" x="1247.5" y="-129.5" font-family="Helvetica,sans-Serif" font-size="10.00" fill="#000000">/home/travis/build</text>
<text text-anchor="start" x="1247.5" y="-118.5" font-family="Helvetica,sans-Serif" font-size="10.00" fill="#000000">/AliceO2Group/AliceO2</text>
<text text-anchor="start" x="1247.5" y="-107.5" font-family="Helvetica,sans-Serif" font-size="10.00" fill="#000000">/Framework/Core/test/test</text>
<text text-anchor="middle" x="1311" y="-96.5" font-family="Helvetica,sans-Serif" font-size="10.00" fill="#000000">_Kernels.cxx</text>
</a>
</g>
</g>
<!-- Node7&#45;&gt;Node21 -->
<g id="edge14" class="edge">
<title>Node7&#45;&gt;Node21</title>
<path fill="none" stroke="#191970" d="M1194.5882,-173.7059C1215.5594,-163.2203 1238.7808,-151.6096 1258.9317,-141.5341"/>
<polygon fill="#191970" stroke="#191970" points="1192.8221,-170.6757 1185.4431,-178.2784 1195.9527,-176.9367 1192.8221,-170.6757"/>
</g>
<!-- Node9 -->
<g id="node3" class="node">
<title>Node9</title>
<g id="a_node3"><a xlink:href="../../d6/dcb/associatedExample_8cxx.html" target="_top" xlink:title="/home/travis/build\l/AliceO2Group/AliceO2\l/Framework/AnalysisTutorial\l/src/associatedExample.cxx">
<polygon fill="none" stroke="#000000" points="0,-.5 0,-52.5 154,-52.5 154,-.5 0,-.5"/>
<text text-anchor="start" x="8" y="-40.5" font-family="Helvetica,sans-Serif" font-size="10.00" fill="#000000">/home/travis/build</text>
<text text-anchor="start" x="8" y="-29.5" font-family="Helvetica,sans-Serif" font-size="10.00" fill="#000000">/AliceO2Group/AliceO2</text>
<text text-anchor="start" x="8" y="-18.5" font-family="Helvetica,sans-Serif" font-size="10.00" fill="#000000">/Framework/AnalysisTutorial</text>
<text text-anchor="middle" x="77" y="-7.5" font-family="Helvetica,sans-Serif" font-size="10.00" fill="#000000">/src/associatedExample.cxx</text>
</a>
</g>
</g>
<!-- Node8&#45;&gt;Node9 -->
<g id="edge2" class="edge">
<title>Node8&#45;&gt;Node9</title>
<path fill="none" stroke="#191970" d="M868.1925,-111.1546C692.966,-101.789 296.2392,-78.4765 163,-53 160.0844,-52.4425 157.1278,-51.8218 154.1525,-51.1503"/>
<polygon fill="#191970" stroke="#191970" points="868.2247,-114.6612 878.3966,-111.6976 868.5968,-107.6711 868.2247,-114.6612"/>
</g>
<!-- Node10 -->
<g id="node4" class="node">
<title>Node10</title>
<g id="a_node4"><a xlink:href="../../d4/dd5/collisionTracksIteration_8cxx.html" target="_top" xlink:title="/home/travis/build\l/AliceO2Group/AliceO2\l/Framework/AnalysisTutorial\l/src/collisionTracksIteration.cxx">
<polygon fill="none" stroke="#000000" points="172,-.5 172,-52.5 342,-52.5 342,-.5 172,-.5"/>
<text text-anchor="start" x="180" y="-40.5" font-family="Helvetica,sans-Serif" font-size="10.00" fill="#000000">/home/travis/build</text>
<text text-anchor="start" x="180" y="-29.5" font-family="Helvetica,sans-Serif" font-size="10.00" fill="#000000">/AliceO2Group/AliceO2</text>
<text text-anchor="start" x="180" y="-18.5" font-family="Helvetica,sans-Serif" font-size="10.00" fill="#000000">/Framework/AnalysisTutorial</text>
<text text-anchor="middle" x="257" y="-7.5" font-family="Helvetica,sans-Serif" font-size="10.00" fill="#000000">/src/collisionTracksIteration.cxx</text>
</a>
</g>
</g>
<!-- Node8&#45;&gt;Node10 -->
<g id="edge3" class="edge">
<title>Node8&#45;&gt;Node10</title>
<path fill="none" stroke="#191970" d="M867.9235,-111.2678C750.7048,-104.3947 533.3253,-87.8978 351,-53 348.0857,-52.4422 345.1305,-51.8368 342.1538,-51.193"/>
<polygon fill="#191970" stroke="#191970" points="868.0744,-114.7823 878.2594,-111.8641 868.4776,-107.7939 868.0744,-114.7823"/>
</g>
<!-- Node11 -->
<g id="node5" class="node">
<title>Node11</title>
<g id="a_node5"><a xlink:href="../../d2/df5/dynamicColumns_8cxx.html" target="_top" xlink:title="/home/travis/build\l/AliceO2Group/AliceO2\l/Framework/AnalysisTutorial\l/src/dynamicColumns.cxx">
<polygon fill="none" stroke="#000000" points="360,-.5 360,-52.5 514,-52.5 514,-.5 360,-.5"/>
<text text-anchor="start" x="368" y="-40.5" font-family="Helvetica,sans-Serif" font-size="10.00" fill="#000000">/home/travis/build</text>
<text text-anchor="start" x="368" y="-29.5" font-family="Helvetica,sans-Serif" font-size="10.00" fill="#000000">/AliceO2Group/AliceO2</text>
<text text-anchor="start" x="368" y="-18.5" font-family="Helvetica,sans-Serif" font-size="10.00" fill="#000000">/Framework/AnalysisTutorial</text>
<text text-anchor="middle" x="437" y="-7.5" font-family="Helvetica,sans-Serif" font-size="10.00" fill="#000000">/src/dynamicColumns.cxx</text>
</a>
</g>
</g>
<!-- Node8&#45;&gt;Node11 -->
<g id="edge4" class="edge">
<title>Node8&#45;&gt;Node11</title>
<path fill="none" stroke="#191970" d="M868.0567,-107.0753C780.8041,-97.5079 641.3952,-79.6773 523,-53 520.1042,-52.3475 517.1645,-51.6459 514.2034,-50.906"/>
<polygon fill="#191970" stroke="#191970" points="867.8516,-110.5735 878.1709,-108.1729 868.6069,-103.6143 867.8516,-110.5735"/>
</g>
<!-- Node12 -->
<g id="node6" class="node">
<title>Node12</title>
<g id="a_node6"><a xlink:href="../../d6/d77/filters_8cxx.html" target="_top" xlink:title="/home/travis/build\l/AliceO2Group/AliceO2\l/Framework/AnalysisTutorial\l/src/filters.cxx">
<polygon fill="none" stroke="#000000" points="532,-.5 532,-52.5 686,-52.5 686,-.5 532,-.5"/>
<text text-anchor="start" x="540" y="-40.5" font-family="Helvetica,sans-Serif" font-size="10.00" fill="#000000">/home/travis/build</text>
<text text-anchor="start" x="540" y="-29.5" font-family="Helvetica,sans-Serif" font-size="10.00" fill="#000000">/AliceO2Group/AliceO2</text>
<text text-anchor="start" x="540" y="-18.5" font-family="Helvetica,sans-Serif" font-size="10.00" fill="#000000">/Framework/AnalysisTutorial</text>
<text text-anchor="middle" x="609" y="-7.5" font-family="Helvetica,sans-Serif" font-size="10.00" fill="#000000">/src/filters.cxx</text>
</a>
</g>
</g>
<!-- Node8&#45;&gt;Node12 -->
<g id="edge5" class="edge">
<title>Node8&#45;&gt;Node12</title>
<path fill="none" stroke="#191970" d="M868.5507,-96.4182C818.0044,-84.6555 752.5964,-68.8342 695,-53 692.1378,-52.2131 689.2267,-51.3971 686.2897,-50.5605"/>
<polygon fill="#191970" stroke="#191970" points="867.9228,-99.8655 878.4551,-98.7155 869.5045,-93.0465 867.9228,-99.8655"/>
</g>
<!-- Node13 -->
<g id="node7" class="node">
<title>Node13</title>
<g id="a_node7"><a xlink:href="../../d2/d4e/fullTrackIteration_8cxx.html" target="_top" xlink:title="/home/travis/build\l/AliceO2Group/AliceO2\l/Framework/AnalysisTutorial\l/src/fullTrackIteration.cxx">
<polygon fill="none" stroke="#000000" points="704,-.5 704,-52.5 858,-52.5 858,-.5 704,-.5"/>
<text text-anchor="start" x="712" y="-40.5" font-family="Helvetica,sans-Serif" font-size="10.00" fill="#000000">/home/travis/build</text>
<text text-anchor="start" x="712" y="-29.5" font-family="Helvetica,sans-Serif" font-size="10.00" fill="#000000">/AliceO2Group/AliceO2</text>
<text text-anchor="start" x="712" y="-18.5" font-family="Helvetica,sans-Serif" font-size="10.00" fill="#000000">/Framework/AnalysisTutorial</text>
<text text-anchor="middle" x="781" y="-7.5" font-family="Helvetica,sans-Serif" font-size="10.00" fill="#000000">/src/fullTrackIteration.cxx</text>
</a>
</g>
</g>
<!-- Node8&#45;&gt;Node13 -->
<g id="edge6" class="edge">
<title>Node8&#45;&gt;Node13</title>
<path fill="none" stroke="#191970" d="M893.2151,-84.5648C873.0223,-74.1162 850.6975,-62.5644 831.3132,-52.5341"/>
<polygon fill="#191970" stroke="#191970" points="891.8347,-87.7913 902.3246,-89.2784 895.0516,-81.5742 891.8347,-87.7913"/>
</g>
<!-- Node14 -->
<g id="node8" class="node">
<title>Node14</title>
<g id="a_node8"><a xlink:href="../../df/d90/histograms_8cxx.html" target="_top" xlink:title="/home/travis/build\l/AliceO2Group/AliceO2\l/Framework/AnalysisTutorial\l/src/histograms.cxx">
<polygon fill="none" stroke="#000000" points="876,-.5 876,-52.5 1030,-52.5 1030,-.5 876,-.5"/>
<text text-anchor="start" x="884" y="-40.5" font-family="Helvetica,sans-Serif" font-size="10.00" fill="#000000">/home/travis/build</text>
<text text-anchor="start" x="884" y="-29.5" font-family="Helvetica,sans-Serif" font-size="10.00" fill="#000000">/AliceO2Group/AliceO2</text>
<text text-anchor="start" x="884" y="-18.5" font-family="Helvetica,sans-Serif" font-size="10.00" fill="#000000">/Framework/AnalysisTutorial</text>
<text text-anchor="middle" x="953" y="-7.5" font-family="Helvetica,sans-Serif" font-size="10.00" fill="#000000">/src/histograms.cxx</text>
</a>
</g>
</g>
<!-- Node8&#45;&gt;Node14 -->
<g id="edge7" class="edge">
<title>Node8&#45;&gt;Node14</title>
<path fill="none" stroke="#191970" d="M953,-79.1155C953,-70.2061 953,-60.8475 953,-52.5341"/>
<polygon fill="#191970" stroke="#191970" points="949.5001,-79.2784 953,-89.2784 956.5001,-79.2785 949.5001,-79.2784"/>
</g>
<!-- Node15 -->
<g id="node9" class="node">
<title>Node15</title>
<g id="a_node9"><a xlink:href="../../d7/d10/newCollections_8cxx.html" target="_top" xlink:title="/home/travis/build\l/AliceO2Group/AliceO2\l/Framework/AnalysisTutorial\l/src/newCollections.cxx">
<polygon fill="none" stroke="#000000" points="1048,-.5 1048,-52.5 1202,-52.5 1202,-.5 1048,-.5"/>
<text text-anchor="start" x="1056" y="-40.5" font-family="Helvetica,sans-Serif" font-size="10.00" fill="#000000">/home/travis/build</text>
<text text-anchor="start" x="1056" y="-29.5" font-family="Helvetica,sans-Serif" font-size="10.00" fill="#000000">/AliceO2Group/AliceO2</text>
<text text-anchor="start" x="1056" y="-18.5" font-family="Helvetica,sans-Serif" font-size="10.00" fill="#000000">/Framework/AnalysisTutorial</text>
<text text-anchor="middle" x="1125" y="-7.5" font-family="Helvetica,sans-Serif" font-size="10.00" fill="#000000">/src/newCollections.cxx</text>
</a>
</g>
</g>
<!-- Node8&#45;&gt;Node15 -->
<g id="edge8" class="edge">
<title>Node8&#45;&gt;Node15</title>
<path fill="none" stroke="#191970" d="M1012.7849,-84.5648C1032.9777,-74.1162 1055.3025,-62.5644 1074.6868,-52.5341"/>
<polygon fill="#191970" stroke="#191970" points="1010.9484,-81.5742 1003.6754,-89.2784 1014.1653,-87.7913 1010.9484,-81.5742"/>
</g>
<!-- Node16 -->
<g id="node10" class="node">
<title>Node16</title>
<g id="a_node10"><a xlink:href="../../d4/ded/trackCollectionIteration_8cxx.html" target="_top" xlink:title="/home/travis/build\l/AliceO2Group/AliceO2\l/Framework/AnalysisTutorial\l/src/trackCollectionIteration.cxx">
<polygon fill="none" stroke="#000000" points="1220,-.5 1220,-52.5 1392,-52.5 1392,-.5 1220,-.5"/>
<text text-anchor="start" x="1228" y="-40.5" font-family="Helvetica,sans-Serif" font-size="10.00" fill="#000000">/home/travis/build</text>
<text text-anchor="start" x="1228" y="-29.5" font-family="Helvetica,sans-Serif" font-size="10.00" fill="#000000">/AliceO2Group/AliceO2</text>
<text text-anchor="start" x="1228" y="-18.5" font-family="Helvetica,sans-Serif" font-size="10.00" fill="#000000">/Framework/AnalysisTutorial</text>
<text text-anchor="middle" x="1306" y="-7.5" font-family="Helvetica,sans-Serif" font-size="10.00" fill="#000000">/src/trackCollectionIteration.cxx</text>
</a>
</g>
</g>
<!-- Node8&#45;&gt;Node16 -->
<g id="edge9" class="edge">
<title>Node8&#45;&gt;Node16</title>
<path fill="none" stroke="#191970" d="M1037.2531,-88.7757C1114.5459,-69.0806 1136.8366,-70.9494 1211,-53 1213.9124,-52.2951 1216.8705,-51.5628 1219.8546,-50.81"/>
<polygon fill="#191970" stroke="#191970" points="1036.3517,-85.3936 1027.5473,-91.2872 1038.1053,-92.1704 1036.3517,-85.3936"/>
</g>
<!-- Node17 -->
<g id="node11" class="node">
<title>Node17</title>
<g id="a_node11"><a xlink:href="../../db/d7e/trackIteration_8cxx.html" target="_top" xlink:title="/home/travis/build\l/AliceO2Group/AliceO2\l/Framework/AnalysisTutorial\l/src/trackIteration.cxx">
<polygon fill="none" stroke="#000000" points="1410,-.5 1410,-52.5 1564,-52.5 1564,-.5 1410,-.5"/>
<text text-anchor="start" x="1418" y="-40.5" font-family="Helvetica,sans-Serif" font-size="10.00" fill="#000000">/home/travis/build</text>
<text text-anchor="start" x="1418" y="-29.5" font-family="Helvetica,sans-Serif" font-size="10.00" fill="#000000">/AliceO2Group/AliceO2</text>
<text text-anchor="start" x="1418" y="-18.5" font-family="Helvetica,sans-Serif" font-size="10.00" fill="#000000">/Framework/AnalysisTutorial</text>
<text text-anchor="middle" x="1487" y="-7.5" font-family="Helvetica,sans-Serif" font-size="10.00" fill="#000000">/src/trackIteration.cxx</text>
</a>
</g>
</g>
<!-- Node8&#45;&gt;Node17 -->
<g id="edge10" class="edge">
<title>Node8&#45;&gt;Node17</title>
<path fill="none" stroke="#191970" d="M1038.0797,-88.7427C1197.5563,-57.1966 1244.4724,-84.5032 1401,-53 1403.9101,-52.4143 1406.8619,-51.7696 1409.8333,-51.0778"/>
<polygon fill="#191970" stroke="#191970" points="1037.0185,-85.3865 1027.9127,-90.8027 1038.4086,-92.2471 1037.0185,-85.3865"/>
</g>
<!-- Node18 -->
<g id="node12" class="node">
<title>Node18</title>
<g id="a_node12"><a xlink:href="../../d9/d09/test__AnalysisTask_8cxx.html" target="_top" xlink:title="/home/travis/build\l/AliceO2Group/AliceO2\l/Framework/Core/test/test\l_AnalysisTask.cxx">
<polygon fill="none" stroke="#000000" points="1582.5,-.5 1582.5,-52.5 1725.5,-52.5 1725.5,-.5 1582.5,-.5"/>
<text text-anchor="start" x="1590.5" y="-40.5" font-family="Helvetica,sans-Serif" font-size="10.00" fill="#000000">/home/travis/build</text>
<text text-anchor="start" x="1590.5" y="-29.5" font-family="Helvetica,sans-Serif" font-size="10.00" fill="#000000">/AliceO2Group/AliceO2</text>
<text text-anchor="start" x="1590.5" y="-18.5" font-family="Helvetica,sans-Serif" font-size="10.00" fill="#000000">/Framework/Core/test/test</text>
<text text-anchor="middle" x="1654" y="-7.5" font-family="Helvetica,sans-Serif" font-size="10.00" fill="#000000">_AnalysisTask.cxx</text>
</a>
</g>
</g>
<!-- Node8&#45;&gt;Node18 -->
<g id="edge11" class="edge">
<title>Node8&#45;&gt;Node18</title>
<path fill="none" stroke="#191970" d="M1037.7641,-88.8469C1272.8564,-45.7607 1341.3836,-97.9197 1573,-53 1576.0503,-52.4084 1579.1452,-51.7356 1582.2569,-50.9988"/>
<polygon fill="#191970" stroke="#191970" points="1037.0769,-85.4147 1027.8911,-90.694 1038.3642,-92.2953 1037.0769,-85.4147"/>
</g>
<!-- Node19 -->
<g id="node13" class="node">
<title>Node19</title>
<g id="a_node13"><a xlink:href="../../d1/d61/o2AnalysisTaskExample_8cxx.html" target="_top" xlink:title="/home/travis/build\l/AliceO2Group/AliceO2\l/Framework/TestWorkflows\l/src/o2AnalysisTaskExample.cxx">
<polygon fill="none" stroke="#000000" points="1743.5,-.5 1743.5,-52.5 1918.5,-52.5 1918.5,-.5 1743.5,-.5"/>
<text text-anchor="start" x="1751.5" y="-40.5" font-family="Helvetica,sans-Serif" font-size="10.00" fill="#000000">/home/travis/build</text>
<text text-anchor="start" x="1751.5" y="-29.5" font-family="Helvetica,sans-Serif" font-size="10.00" fill="#000000">/AliceO2Group/AliceO2</text>
<text text-anchor="start" x="1751.5" y="-18.5" font-family="Helvetica,sans-Serif" font-size="10.00" fill="#000000">/Framework/TestWorkflows</text>
<text text-anchor="middle" x="1831" y="-7.5" font-family="Helvetica,sans-Serif" font-size="10.00" fill="#000000">/src/o2AnalysisTaskExample.cxx</text>
</a>
</g>
</g>
<!-- Node8&#45;&gt;Node19 -->
<g id="edge12" class="edge">
<title>Node8&#45;&gt;Node19</title>
<path fill="none" stroke="#191970" d="M1037.9269,-88.8338C1343.909,-34.709 1431.2133,-102.1482 1735,-53 1737.7309,-52.5582 1740.4954,-52.0681 1743.2787,-51.5374"/>
<polygon fill="#191970" stroke="#191970" points="1037.1038,-85.4256 1027.8811,-90.6403 1038.3427,-92.3151 1037.1038,-85.4256"/>
</g>
</g>
</svg>
