<?xml version="1.0" encoding="UTF-8" standalone="no"?>
<!DOCTYPE svg PUBLIC "-//W3C//DTD SVG 1.1//EN"
 "http://www.w3.org/Graphics/SVG/1.1/DTD/svg11.dtd">
<!-- Generated by graphviz version 2.40.1 (20161225.0304)
 -->
<!-- Title: /home/travis/build/AliceO2Group/AliceO2/Detectors/GlobalTracking/src/CalibTOF.cxx Pages: 1 -->
<svg width="2260pt" height="430pt"
 viewBox="0.00 0.00 2260.00 430.00" xmlns="http://www.w3.org/2000/svg" xmlns:xlink="http://www.w3.org/1999/xlink">
<g id="graph0" class="graph" transform="scale(1 1) rotate(0) translate(4 426)">
<title>/home/travis/build/AliceO2Group/AliceO2/Detectors/GlobalTracking/src/CalibTOF.cxx</title>
<!-- Node0 -->
<g id="node1" class="node">
<title>Node0</title>
<polygon fill="#bfbfbf" stroke="#000000" points="1069,-369.5 1069,-421.5 1211,-421.5 1211,-369.5 1069,-369.5"/>
<text text-anchor="start" x="1077" y="-409.5" font-family="Helvetica,sans-Serif" font-size="10.00" fill="#000000">/home/travis/build</text>
<text text-anchor="start" x="1077" y="-398.5" font-family="Helvetica,sans-Serif" font-size="10.00" fill="#000000">/AliceO2Group/AliceO2</text>
<text text-anchor="start" x="1077" y="-387.5" font-family="Helvetica,sans-Serif" font-size="10.00" fill="#000000">/Detectors/GlobalTracking</text>
<text text-anchor="middle" x="1140" y="-376.5" font-family="Helvetica,sans-Serif" font-size="10.00" fill="#000000">/src/CalibTOF.cxx</text>
</g>
<!-- Node1 -->
<g id="node2" class="node">
<title>Node1</title>
<polygon fill="none" stroke="#bfbfbf" points="0,-308 0,-327 52,-327 52,-308 0,-308"/>
<text text-anchor="middle" x="26" y="-315" font-family="Helvetica,sans-Serif" font-size="10.00" fill="#000000">TTree.h</text>
</g>
<!-- Node0&#45;&gt;Node1 -->
<g id="edge1" class="edge">
<title>Node0&#45;&gt;Node1</title>
<path fill="none" stroke="#191970" d="M1068.8538,-394.2408C861.1545,-390.1094 258.2133,-374.7544 66,-333 62.9683,-332.3414 59.8642,-331.4868 56.7914,-330.5173"/>
<polygon fill="#191970" stroke="#191970" points="57.805,-327.1634 47.2103,-327.1289 55.471,-333.7629 57.805,-327.1634"/>
</g>
<!-- Node2 -->
<g id="node3" class="node">
<title>Node2</title>
<polygon fill="none" stroke="#bfbfbf" points="58,-174 58,-193 110,-193 110,-174 58,-174"/>
<text text-anchor="middle" x="84" y="-181" font-family="Helvetica,sans-Serif" font-size="10.00" fill="#000000">cassert</text>
</g>
<!-- Node0&#45;&gt;Node2 -->
<g id="edge2" class="edge">
<title>Node0&#45;&gt;Node2</title>
<path fill="none" stroke="#191970" d="M1068.9674,-392.3331C938.4653,-385.8633 652.0024,-368.6307 413,-333 271.8627,-311.9591 198.3583,-368.4226 99,-266 82.9758,-249.4816 81.0222,-221.9041 81.872,-203.225"/>
<polygon fill="#191970" stroke="#191970" points="85.3686,-203.401 82.6366,-193.1645 78.3887,-202.8704 85.3686,-203.401"/>
</g>
<!-- Node3 -->
<g id="node4" class="node">
<title>Node3</title>
<polygon fill="none" stroke="#bfbfbf" points="1438.5,-308 1438.5,-327 1513.5,-327 1513.5,-308 1438.5,-308"/>
<text text-anchor="middle" x="1476" y="-315" font-family="Helvetica,sans-Serif" font-size="10.00" fill="#000000">FairLogger.h</text>
</g>
<!-- Node0&#45;&gt;Node3 -->
<g id="edge3" class="edge">
<title>Node0&#45;&gt;Node3</title>
<path fill="none" stroke="#191970" d="M1211.2452,-381.3264C1268.892,-369.497 1352.0297,-351.6191 1424,-333 1427.7905,-332.0194 1431.7209,-330.9486 1435.6458,-329.8428"/>
<polygon fill="#191970" stroke="#191970" points="1436.6712,-333.1898 1445.308,-327.0533 1434.7295,-326.4645 1436.6712,-333.1898"/>
</g>
<!-- Node4 -->
<g id="node5" class="node">
<title>Node4</title>
<g id="a_node5"><a xlink:href="../../d4/d54/Geo_8h.html" target="_top" xlink:title="TOFBase/Geo.h">
<polygon fill="none" stroke="#000000" points="656.5,-241 656.5,-260 747.5,-260 747.5,-241 656.5,-241"/>
<text text-anchor="middle" x="702" y="-248" font-family="Helvetica,sans-Serif" font-size="10.00" fill="#000000">TOFBase/Geo.h</text>
</a>
</g>
</g>
<!-- Node0&#45;&gt;Node4 -->
<g id="edge4" class="edge">
<title>Node0&#45;&gt;Node4</title>
<path fill="none" stroke="#191970" d="M1068.6529,-371.8805C975.1197,-340.9163 814.3268,-287.6858 740.7713,-263.3352"/>
<polygon fill="#191970" stroke="#191970" points="741.5807,-259.9164 730.9873,-260.0963 739.3807,-266.5618 741.5807,-259.9164"/>
</g>
<!-- Node6 -->
<g id="node7" class="node">
<title>Node6</title>
<g id="a_node7"><a xlink:href="../../d4/dc6/LHCConstants_8h.html" target="_top" xlink:title="Header to collect LHC related constants. ">
<polygon fill="none" stroke="#000000" points="583,-174 583,-193 773,-193 773,-174 583,-174"/>
<text text-anchor="middle" x="678" y="-181" font-family="Helvetica,sans-Serif" font-size="10.00" fill="#000000">CommonConstants/LHCConstants.h</text>
</a>
</g>
</g>
<!-- Node0&#45;&gt;Node6 -->
<g id="edge71" class="edge">
<title>Node0&#45;&gt;Node6</title>
<path fill="none" stroke="#191970" d="M1068.5525,-387.5985C944.3241,-372.1987 696.9566,-333.6163 647,-266 632.3886,-246.2235 648.3378,-218.7658 662.2368,-201.0639"/>
<polygon fill="#191970" stroke="#191970" points="665.0462,-203.1595 668.7523,-193.2339 659.6655,-198.6819 665.0462,-203.1595"/>
</g>
<!-- Node7 -->
<g id="node8" class="node">
<title>Node7</title>
<polygon fill="none" stroke="#bfbfbf" points="1919,-241 1919,-260 1967,-260 1967,-241 1919,-241"/>
<text text-anchor="middle" x="1943" y="-248" font-family="Helvetica,sans-Serif" font-size="10.00" fill="#000000">TFile.h</text>
</g>
<!-- Node0&#45;&gt;Node7 -->
<g id="edge7" class="edge">
<title>Node0&#45;&gt;Node7</title>
<path fill="none" stroke="#191970" d="M1211.237,-386.0777C1263.0781,-377.2755 1333.8998,-361.1356 1391,-333 1410.8618,-323.2133 1409.3855,-310.0817 1430,-302 1627.1103,-224.7249 1698.9298,-314.5694 1905,-266 1907.7956,-265.3411 1910.6531,-264.5053 1913.4836,-263.5648"/>
<polygon fill="#191970" stroke="#191970" points="1914.7242,-266.8377 1922.8741,-260.0679 1912.2813,-260.2777 1914.7242,-266.8377"/>
</g>
<!-- Node8 -->
<g id="node9" class="node">
<title>Node8</title>
<g id="a_node9"><a xlink:href="../../de/d28/GRPObject_8h.html" target="_top" xlink:title="Header of the General Run Parameters object. ">
<polygon fill="none" stroke="#000000" points="422.5,-302.5 422.5,-332.5 557.5,-332.5 557.5,-302.5 422.5,-302.5"/>
<text text-anchor="start" x="430.5" y="-320.5" font-family="Helvetica,sans-Serif" font-size="10.00" fill="#000000">DataFormatsParameters</text>
<text text-anchor="middle" x="490" y="-309.5" font-family="Helvetica,sans-Serif" font-size="10.00" fill="#000000">/GRPObject.h</text>
</a>
</g>
</g>
<!-- Node0&#45;&gt;Node8 -->
<g id="edge8" class="edge">
<title>Node0&#45;&gt;Node8</title>
<path fill="none" stroke="#191970" d="M1068.9432,-387.196C967.8525,-375.3504 776.7173,-352.8368 614,-333 598.9838,-331.1694 582.9485,-329.1861 567.5633,-327.2691"/>
<polygon fill="#191970" stroke="#191970" points="567.9207,-323.7867 557.5642,-326.0212 567.0537,-330.7328 567.9207,-323.7867"/>
</g>
<!-- Node24 -->
<g id="node25" class="node">
<title>Node24</title>
<g id="a_node25"><a xlink:href="../../d5/d08/DataFormats_2Reconstruction_2include_2ReconstructionDataFormats_2PID_8h.html" target="_top" xlink:title="ReconstructionDataFormats\l/PID.h">
<polygon fill="none" stroke="#000000" points="1230,-302.5 1230,-332.5 1382,-332.5 1382,-302.5 1230,-302.5"/>
<text text-anchor="start" x="1238" y="-320.5" font-family="Helvetica,sans-Serif" font-size="10.00" fill="#000000">ReconstructionDataFormats</text>
<text text-anchor="middle" x="1306" y="-309.5" font-family="Helvetica,sans-Serif" font-size="10.00" fill="#000000">/PID.h</text>
</a>
</g>
</g>
<!-- Node0&#45;&gt;Node24 -->
<g id="edge32" class="edge">
<title>Node0&#45;&gt;Node24</title>
<path fill="none" stroke="#191970" d="M1195.7374,-369.3101C1218.2809,-358.7174 1243.843,-346.7063 1264.6751,-336.9177"/>
<polygon fill="#191970" stroke="#191970" points="1266.3237,-340.0102 1273.8859,-332.5897 1263.3468,-333.6748 1266.3237,-340.0102"/>
</g>
<!-- Node26 -->
<g id="node27" class="node">
<title>Node26</title>
<g id="a_node27"><a xlink:href="../../d5/ded/CalibTOF_8h.html" target="_top" xlink:title="GlobalTracking/CalibTOF.h">
<polygon fill="none" stroke="#000000" points="1068.5,-308 1068.5,-327 1211.5,-327 1211.5,-308 1068.5,-308"/>
<text text-anchor="middle" x="1140" y="-315" font-family="Helvetica,sans-Serif" font-size="10.00" fill="#000000">GlobalTracking/CalibTOF.h</text>
</a>
</g>
</g>
<!-- Node0&#45;&gt;Node26 -->
<g id="edge35" class="edge">
<title>Node0&#45;&gt;Node26</title>
<path fill="none" stroke="#191970" d="M1140,-369.0928C1140,-358.6735 1140,-346.911 1140,-337.2512"/>
<polygon fill="#191970" stroke="#191970" points="1143.5001,-337.0838 1140,-327.0839 1136.5001,-337.0839 1143.5001,-337.0838"/>
</g>
<!-- Node48 -->
<g id="node49" class="node">
<title>Node48</title>
<polygon fill="none" stroke="#bfbfbf" points="1531,-308 1531,-327 1587,-327 1587,-308 1531,-308"/>
<text text-anchor="middle" x="1559" y="-315" font-family="Helvetica,sans-Serif" font-size="10.00" fill="#000000">TMath.h</text>
</g>
<!-- Node0&#45;&gt;Node48 -->
<g id="edge72" class="edge">
<title>Node0&#45;&gt;Node48</title>
<path fill="none" stroke="#191970" d="M1211.0375,-389.1624C1288.8093,-381.0176 1416.6167,-364.0711 1523,-333 1525.1759,-332.3645 1527.3951,-331.6319 1529.6095,-330.8383"/>
<polygon fill="#191970" stroke="#191970" points="1531.1196,-334.0052 1539.1377,-327.0798 1528.551,-327.4934 1531.1196,-334.0052"/>
</g>
<!-- Node49 -->
<g id="node50" class="node">
<title>Node49</title>
<polygon fill="none" stroke="#bfbfbf" points="1605,-308 1605,-327 1677,-327 1677,-308 1605,-308"/>
<text text-anchor="middle" x="1641" y="-315" font-family="Helvetica,sans-Serif" font-size="10.00" fill="#000000">TRandom.h</text>
</g>
<!-- Node0&#45;&gt;Node49 -->
<g id="edge73" class="edge">
<title>Node0&#45;&gt;Node49</title>
<path fill="none" stroke="#191970" d="M1211.097,-390.0891C1301.4871,-382.2241 1461.9162,-364.9561 1596,-333 1599.3985,-332.19 1602.9019,-331.2248 1606.3829,-330.1777"/>
<polygon fill="#191970" stroke="#191970" points="1607.5827,-333.4684 1616.0279,-327.0708 1605.4364,-326.8055 1607.5827,-333.4684"/>
</g>
<!-- Node5 -->
<g id="node6" class="node">
<title>Node5</title>
<polygon fill="none" stroke="#bfbfbf" points="1091.5,-112.5 1091.5,-131.5 1150.5,-131.5 1150.5,-112.5 1091.5,-112.5"/>
<text text-anchor="middle" x="1121" y="-119.5" font-family="Helvetica,sans-Serif" font-size="10.00" fill="#000000">Rtypes.h</text>
</g>
<!-- Node4&#45;&gt;Node5 -->
<g id="edge5" class="edge">
<title>Node4&#45;&gt;Node5</title>
<path fill="none" stroke="#191970" d="M733.1508,-240.9466C808.1608,-217.9423 998.7177,-159.5019 1081.5497,-134.0987"/>
<polygon fill="#191970" stroke="#191970" points="1082.8016,-137.3758 1091.3358,-131.0975 1080.7491,-130.6834 1082.8016,-137.3758"/>
</g>
<!-- Node4&#45;&gt;Node6 -->
<g id="edge6" class="edge">
<title>Node4&#45;&gt;Node6</title>
<path fill="none" stroke="#191970" d="M698.5614,-240.9005C694.997,-230.95 689.3299,-215.1292 684.8471,-202.6147"/>
<polygon fill="#191970" stroke="#191970" points="688.0995,-201.3156 681.4322,-193.0817 681.5096,-203.6762 688.0995,-201.3156"/>
</g>
<!-- Node8&#45;&gt;Node5 -->
<g id="edge9" class="edge">
<title>Node8&#45;&gt;Node5</title>
<path fill="none" stroke="#191970" d="M529.2893,-302.3431C545.1081,-294.1046 561.7662,-282.2197 571,-266 592.5587,-228.1307 544.0191,-199.6229 574,-168 608.7275,-131.3705 960.5948,-123.8639 1080.9125,-122.3642"/>
<polygon fill="#191970" stroke="#191970" points="1081.2003,-125.8611 1091.1586,-122.2442 1081.1183,-118.8616 1081.2003,-125.8611"/>
</g>
<!-- Node8&#45;&gt;Node6 -->
<g id="edge12" class="edge">
<title>Node8&#45;&gt;Node6</title>
<path fill="none" stroke="#191970" d="M489.2228,-302.3325C489.1376,-284.0143 491.8557,-253.3781 509,-235 524.0601,-218.8561 575.6246,-204.5833 617.8753,-195.1823"/>
<polygon fill="#191970" stroke="#191970" points="618.8059,-198.5618 627.8337,-193.0168 617.3184,-191.7217 618.8059,-198.5618"/>
</g>
<!-- Node9 -->
<g id="node10" class="node">
<title>Node9</title>
<polygon fill="none" stroke="#bfbfbf" points="477,-174 477,-193 527,-193 527,-174 477,-174"/>
<text text-anchor="middle" x="502" y="-181" font-family="Helvetica,sans-Serif" font-size="10.00" fill="#000000">cstdint</text>
</g>
<!-- Node8&#45;&gt;Node9 -->
<g id="edge10" class="edge">
<title>Node8&#45;&gt;Node9</title>
<path fill="none" stroke="#191970" d="M483.8458,-302.4771C477.8684,-285.8503 470.4475,-258.3187 476,-235 478.7841,-223.3079 484.6709,-211.2613 490.14,-201.7615"/>
<polygon fill="#191970" stroke="#191970" points="493.1304,-203.5801 495.3395,-193.2181 487.1508,-199.9409 493.1304,-203.5801"/>
</g>
<!-- Node10 -->
<g id="node11" class="node">
<title>Node10</title>
<polygon fill="none" stroke="#bfbfbf" points="518,-241 518,-260 562,-260 562,-241 518,-241"/>
<text text-anchor="middle" x="540" y="-248" font-family="Helvetica,sans-Serif" font-size="10.00" fill="#000000">ctime</text>
</g>
<!-- Node8&#45;&gt;Node10 -->
<g id="edge11" class="edge">
<title>Node8&#45;&gt;Node10</title>
<path fill="none" stroke="#191970" d="M501.3458,-302.2967C508.9091,-292.1618 518.8776,-278.804 526.7969,-268.1921"/>
<polygon fill="#191970" stroke="#191970" points="529.6936,-270.1626 532.8694,-260.055 524.0835,-265.976 529.6936,-270.1626"/>
</g>
<!-- Node11 -->
<g id="node12" class="node">
<title>Node11</title>
<g id="a_node12"><a xlink:href="../../da/d58/Units_8h.html" target="_top" xlink:title="Header to collect definitions for different units. ">
<polygon fill="none" stroke="#000000" points="108,-241 108,-260 234,-260 234,-241 108,-241"/>
<text text-anchor="middle" x="171" y="-248" font-family="Helvetica,sans-Serif" font-size="10.00" fill="#000000">CommonTypes/Units.h</text>
</a>
</g>
</g>
<!-- Node8&#45;&gt;Node11 -->
<g id="edge13" class="edge">
<title>Node8&#45;&gt;Node11</title>
<path fill="none" stroke="#191970" d="M422.3561,-303.5193C372.7036,-293.2271 303.6366,-278.8481 243,-266 237.2304,-264.7775 231.2025,-263.4923 225.1967,-262.2068"/>
<polygon fill="#191970" stroke="#191970" points="225.6714,-258.7291 215.1598,-260.0539 224.2033,-265.5734 225.6714,-258.7291"/>
</g>
<!-- Node12 -->
<g id="node13" class="node">
<title>Node12</title>
<g id="a_node13"><a xlink:href="../../d6/d31/DetID_8h.html" target="_top" xlink:title="DetectorsCommonDataFormats\l/DetID.h">
<polygon fill="none" stroke="#000000" points="252.5,-235.5 252.5,-265.5 423.5,-265.5 423.5,-235.5 252.5,-235.5"/>
<text text-anchor="start" x="260.5" y="-253.5" font-family="Helvetica,sans-Serif" font-size="10.00" fill="#000000">DetectorsCommonDataFormats</text>
<text text-anchor="middle" x="338" y="-242.5" font-family="Helvetica,sans-Serif" font-size="10.00" fill="#000000">/DetID.h</text>
</a>
</g>
</g>
<!-- Node8&#45;&gt;Node12 -->
<g id="edge14" class="edge">
<title>Node8&#45;&gt;Node12</title>
<path fill="none" stroke="#191970" d="M455.8882,-302.4639C433.9633,-292.7996 405.2746,-280.154 381.6881,-269.7572"/>
<polygon fill="#191970" stroke="#191970" points="382.8228,-266.4325 372.2605,-265.6017 379.9993,-272.8379 382.8228,-266.4325"/>
</g>
<!-- Node12&#45;&gt;Node2 -->
<g id="edge18" class="edge">
<title>Node12&#45;&gt;Node2</title>
<path fill="none" stroke="#191970" d="M267.2651,-235.4631C225.7881,-226.1139 172.5551,-213.1936 126,-199 123.4397,-198.2194 120.8083,-197.3684 118.1711,-196.4799"/>
<polygon fill="#191970" stroke="#191970" points="119.3075,-193.1696 108.7127,-193.1579 116.9878,-199.774 119.3075,-193.1696"/>
</g>
<!-- Node12&#45;&gt;Node5 -->
<g id="edge15" class="edge">
<title>Node12&#45;&gt;Node5</title>
<path fill="none" stroke="#191970" d="M368.2018,-235.3012C386.547,-225.6557 410.1731,-212.4862 430,-199 448.022,-186.7416 447.7372,-176.0301 468,-168 524.8994,-145.4509 948.4111,-128.2793 1081.26,-123.4015"/>
<polygon fill="#191970" stroke="#191970" points="1081.5345,-126.894 1091.4006,-123.0324 1081.2798,-119.8986 1081.5345,-126.894"/>
</g>
<!-- Node12&#45;&gt;Node9 -->
<g id="edge19" class="edge">
<title>Node12&#45;&gt;Node9</title>
<path fill="none" stroke="#191970" d="M374.8048,-235.4639C403.0656,-223.9183 441.742,-208.1176 469.0046,-196.9798"/>
<polygon fill="#191970" stroke="#191970" points="470.5583,-200.126 478.4919,-193.1039 467.9109,-193.6459 470.5583,-200.126"/>
</g>
<!-- Node13 -->
<g id="node14" class="node">
<title>Node13</title>
<polygon fill="none" stroke="#bfbfbf" points="574,-112.5 574,-131.5 616,-131.5 616,-112.5 574,-112.5"/>
<text text-anchor="middle" x="595" y="-119.5" font-family="Helvetica,sans-Serif" font-size="10.00" fill="#000000">array</text>
</g>
<!-- Node12&#45;&gt;Node13 -->
<g id="edge16" class="edge">
<title>Node12&#45;&gt;Node13</title>
<path fill="none" stroke="#191970" d="M353.9232,-235.468C376.6071,-214.3202 417.4209,-177.3195 435,-168 485.2791,-141.3447 505.5691,-148.6106 564.0192,-132.1006"/>
<polygon fill="#191970" stroke="#191970" points="565.1346,-135.4208 573.7382,-129.2379 563.1567,-128.706 565.1346,-135.4208"/>
</g>
<!-- Node14 -->
<g id="node15" class="node">
<title>Node14</title>
<polygon fill="none" stroke="#bfbfbf" points="135,-174 135,-193 179,-193 179,-174 135,-174"/>
<text text-anchor="middle" x="157" y="-181" font-family="Helvetica,sans-Serif" font-size="10.00" fill="#000000">bitset</text>
</g>
<!-- Node12&#45;&gt;Node14 -->
<g id="edge17" class="edge">
<title>Node12&#45;&gt;Node14</title>
<path fill="none" stroke="#191970" d="M288.7457,-235.416C259.1728,-225.9101 221.0075,-212.846 188,-199 186.8139,-198.5025 185.6098,-197.98 184.399,-197.4401"/>
<polygon fill="#191970" stroke="#191970" points="185.7088,-194.1882 175.1711,-193.0892 182.7235,-200.5197 185.7088,-194.1882"/>
</g>
<!-- Node15 -->
<g id="node16" class="node">
<title>Node15</title>
<polygon fill="none" stroke="#bfbfbf" points="197.5,-174 197.5,-193 266.5,-193 266.5,-174 197.5,-174"/>
<text text-anchor="middle" x="232" y="-181" font-family="Helvetica,sans-Serif" font-size="10.00" fill="#000000">type_traits</text>
</g>
<!-- Node12&#45;&gt;Node15 -->
<g id="edge20" class="edge">
<title>Node12&#45;&gt;Node15</title>
<path fill="none" stroke="#191970" d="M314.2115,-235.4639C296.7465,-224.4247 273.1271,-209.4954 255.6862,-198.4715"/>
<polygon fill="#191970" stroke="#191970" points="257.5173,-195.4883 247.1943,-193.1039 253.7772,-201.4054 257.5173,-195.4883"/>
</g>
<!-- Node16 -->
<g id="node17" class="node">
<title>Node16</title>
<g id="a_node17"><a xlink:href="../../d9/d52/Common_2MathUtils_2include_2MathUtils_2Utils_8h.html" target="_top" xlink:title="MathUtils/Utils.h">
<polygon fill="none" stroke="#000000" points="285,-174 285,-193 383,-193 383,-174 285,-174"/>
<text text-anchor="middle" x="334" y="-181" font-family="Helvetica,sans-Serif" font-size="10.00" fill="#000000">MathUtils/Utils.h</text>
</a>
</g>
</g>
<!-- Node12&#45;&gt;Node16 -->
<g id="edge21" class="edge">
<title>Node12&#45;&gt;Node16</title>
<path fill="none" stroke="#191970" d="M337.0923,-235.2967C336.5236,-225.7699 335.7848,-213.3954 335.172,-203.1306"/>
<polygon fill="#191970" stroke="#191970" points="338.6603,-202.8286 334.5704,-193.055 331.6727,-203.2458 338.6603,-202.8286"/>
</g>
<!-- Node16&#45;&gt;Node13 -->
<g id="edge22" class="edge">
<title>Node16&#45;&gt;Node13</title>
<path fill="none" stroke="#191970" d="M371.9344,-173.9708C380.1862,-171.9528 388.8772,-169.8691 397,-168 468.3648,-151.5787 489.607,-152.0347 563.9457,-132.0714"/>
<polygon fill="#191970" stroke="#191970" points="565.0531,-135.3974 573.7835,-129.3949 563.2154,-128.6429 565.0531,-135.3974"/>
</g>
<!-- Node17 -->
<g id="node18" class="node">
<title>Node17</title>
<polygon fill="none" stroke="#bfbfbf" points="138.5,-56.5 138.5,-75.5 185.5,-75.5 185.5,-56.5 138.5,-56.5"/>
<text text-anchor="middle" x="162" y="-63.5" font-family="Helvetica,sans-Serif" font-size="10.00" fill="#000000">cmath</text>
</g>
<!-- Node16&#45;&gt;Node17 -->
<g id="edge23" class="edge">
<title>Node16&#45;&gt;Node17</title>
<path fill="none" stroke="#191970" d="M300.2868,-173.9564C257.8606,-161.6731 189.4758,-140.8607 181,-132 169.1777,-119.6409 164.6387,-100.4115 162.9328,-85.8907"/>
<polygon fill="#191970" stroke="#191970" points="166.4186,-85.5739 162.1068,-75.8961 159.4424,-86.1505 166.4186,-85.5739"/>
</g>
<!-- Node18 -->
<g id="node19" class="node">
<title>Node18</title>
<g id="a_node19"><a xlink:href="../../df/d21/GPUCommonDef_8h.html" target="_top" xlink:title="GPUCommonDef.h">
<polygon fill="none" stroke="#000000" points="286.5,-56.5 286.5,-75.5 393.5,-75.5 393.5,-56.5 286.5,-56.5"/>
<text text-anchor="middle" x="340" y="-63.5" font-family="Helvetica,sans-Serif" font-size="10.00" fill="#000000">GPUCommonDef.h</text>
</a>
</g>
</g>
<!-- Node16&#45;&gt;Node18 -->
<g id="edge24" class="edge">
<title>Node16&#45;&gt;Node18</title>
<path fill="none" stroke="#191970" d="M334.491,-173.8845C335.4711,-154.6913 337.6875,-111.286 338.9907,-85.7663"/>
<polygon fill="#191970" stroke="#191970" points="342.4876,-85.9139 339.5022,-75.7484 335.4967,-85.5568 342.4876,-85.9139"/>
</g>
<!-- Node21 -->
<g id="node22" class="node">
<title>Node21</title>
<g id="a_node22"><a xlink:href="../../d6/da2/GPUCommonMath_8h.html" target="_top" xlink:title="GPUCommonMath.h">
<polygon fill="none" stroke="#000000" points="190.5,-112.5 190.5,-131.5 305.5,-131.5 305.5,-112.5 190.5,-112.5"/>
<text text-anchor="middle" x="248" y="-119.5" font-family="Helvetica,sans-Serif" font-size="10.00" fill="#000000">GPUCommonMath.h</text>
</a>
</g>
</g>
<!-- Node16&#45;&gt;Node21 -->
<g id="edge27" class="edge">
<title>Node16&#45;&gt;Node21</title>
<path fill="none" stroke="#191970" d="M320.5625,-173.8906C306.9305,-164.1421 285.6154,-148.8994 269.6078,-137.4521"/>
<polygon fill="#191970" stroke="#191970" points="271.5132,-134.5118 261.3431,-131.5419 267.4414,-140.2057 271.5132,-134.5118"/>
</g>
<!-- Node23 -->
<g id="node24" class="node">
<title>Node23</title>
<g id="a_node24"><a xlink:href="../../d6/d84/MathConstants_8h.html" target="_top" xlink:title="useful math constants ">
<polygon fill="none" stroke="#000000" points="362,-112.5 362,-131.5 556,-131.5 556,-112.5 362,-112.5"/>
<text text-anchor="middle" x="459" y="-119.5" font-family="Helvetica,sans-Serif" font-size="10.00" fill="#000000">CommonConstants/MathConstants.h</text>
</a>
</g>
</g>
<!-- Node16&#45;&gt;Node23 -->
<g id="edge31" class="edge">
<title>Node16&#45;&gt;Node23</title>
<path fill="none" stroke="#191970" d="M353.5313,-173.8906C374.1708,-163.7359 406.9276,-147.6196 430.4602,-136.0416"/>
<polygon fill="#191970" stroke="#191970" points="432.1782,-139.0971 439.6059,-131.5419 429.088,-132.8161 432.1782,-139.0971"/>
</g>
<!-- Node19 -->
<g id="node20" class="node">
<title>Node19</title>
<g id="a_node20"><a xlink:href="../../d5/d93/GPUCommonDefSettings_8h.html" target="_top" xlink:title="GPUCommonDefSettings.h">
<polygon fill="none" stroke="#000000" points="189,-.5 189,-19.5 337,-19.5 337,-.5 189,-.5"/>
<text text-anchor="middle" x="263" y="-7.5" font-family="Helvetica,sans-Serif" font-size="10.00" fill="#000000">GPUCommonDefSettings.h</text>
</a>
</g>
</g>
<!-- Node18&#45;&gt;Node19 -->
<g id="edge25" class="edge">
<title>Node18&#45;&gt;Node19</title>
<path fill="none" stroke="#191970" d="M326.5876,-56.2455C314.9943,-47.814 298.0252,-35.4729 284.5322,-25.6598"/>
<polygon fill="#191970" stroke="#191970" points="286.4047,-22.6938 276.2587,-19.6427 282.2874,-28.355 286.4047,-22.6938"/>
</g>
<!-- Node20 -->
<g id="node21" class="node">
<title>Node20</title>
<g id="a_node21"><a xlink:href="../../da/d5a/GPUCommonDefAPI_8h.html" target="_top" xlink:title="GPUCommonDefAPI.h">
<polygon fill="none" stroke="#000000" points="355,-.5 355,-19.5 479,-19.5 479,-.5 355,-.5"/>
<text text-anchor="middle" x="417" y="-7.5" font-family="Helvetica,sans-Serif" font-size="10.00" fill="#000000">GPUCommonDefAPI.h</text>
</a>
</g>
</g>
<!-- Node18&#45;&gt;Node20 -->
<g id="edge26" class="edge">
<title>Node18&#45;&gt;Node20</title>
<path fill="none" stroke="#191970" d="M353.4124,-56.2455C365.0057,-47.814 381.9748,-35.4729 395.4678,-25.6598"/>
<polygon fill="#191970" stroke="#191970" points="397.7126,-28.355 403.7413,-19.6427 393.5953,-22.6938 397.7126,-28.355"/>
</g>
<!-- Node21&#45;&gt;Node17 -->
<g id="edge29" class="edge">
<title>Node21&#45;&gt;Node17</title>
<path fill="none" stroke="#191970" d="M233.0199,-112.2455C219.8249,-103.6534 200.3949,-91.0014 185.1921,-81.1018"/>
<polygon fill="#191970" stroke="#191970" points="187.0983,-78.1665 176.8084,-75.6427 183.2785,-84.0325 187.0983,-78.1665"/>
</g>
<!-- Node21&#45;&gt;Node18 -->
<g id="edge28" class="edge">
<title>Node21&#45;&gt;Node18</title>
<path fill="none" stroke="#191970" d="M264.0252,-112.2455C278.1408,-103.6534 298.9263,-91.0014 315.1899,-81.1018"/>
<polygon fill="#191970" stroke="#191970" points="317.4363,-83.8319 324.1585,-75.6427 313.7966,-77.8525 317.4363,-83.8319"/>
</g>
<!-- Node22 -->
<g id="node23" class="node">
<title>Node22</title>
<polygon fill="none" stroke="#bfbfbf" points="204,-56.5 204,-75.5 268,-75.5 268,-56.5 204,-56.5"/>
<text text-anchor="middle" x="236" y="-63.5" font-family="Helvetica,sans-Serif" font-size="10.00" fill="#000000">algorithm</text>
</g>
<!-- Node21&#45;&gt;Node22 -->
<g id="edge30" class="edge">
<title>Node21&#45;&gt;Node22</title>
<path fill="none" stroke="#191970" d="M245.9098,-112.2455C244.3439,-104.9382 242.1488,-94.6944 240.2224,-85.7046"/>
<polygon fill="#191970" stroke="#191970" points="243.584,-84.6873 238.0663,-75.6427 236.7393,-86.1541 243.584,-84.6873"/>
</g>
<!-- Node24&#45;&gt;Node5 -->
<g id="edge33" class="edge">
<title>Node24&#45;&gt;Node5</title>
<path fill="none" stroke="#191970" d="M1382.0871,-302.4822C1452.0273,-288.5007 1545.3056,-269.3281 1548,-266 1556.6693,-255.2916 1557.0386,-245.3986 1548,-235 1510.3121,-191.6414 1347.189,-214.9537 1292,-199 1238.196,-183.4467 1179.4897,-154.0286 1146.7628,-136.4012"/>
<polygon fill="#191970" stroke="#191970" points="1148.316,-133.2617 1137.8603,-131.5505 1144.9667,-139.4085 1148.316,-133.2617"/>
</g>
<!-- Node25 -->
<g id="node26" class="node">
<title>Node25</title>
<g id="a_node26"><a xlink:href="../../d3/d9d/PhysicsConstants_8h.html" target="_top" xlink:title="Header to collect physics constants. ">
<polygon fill="none" stroke="#000000" points="1985.5,-241 1985.5,-260 2192.5,-260 2192.5,-241 1985.5,-241"/>
<text text-anchor="middle" x="2089" y="-248" font-family="Helvetica,sans-Serif" font-size="10.00" fill="#000000">CommonConstants/PhysicsConstants.h</text>
</a>
</g>
</g>
<!-- Node24&#45;&gt;Node25 -->
<g id="edge34" class="edge">
<title>Node24&#45;&gt;Node25</title>
<path fill="none" stroke="#191970" d="M1382.3223,-307.2471C1398.0689,-305.3322 1414.5579,-303.4729 1430,-302 1672.0947,-278.9079 1734.0477,-290.5397 1976,-266 1988.7947,-264.7023 2002.3702,-263.0655 2015.5069,-261.3451"/>
<polygon fill="#191970" stroke="#191970" points="2015.9983,-264.8106 2025.4469,-260.0174 2015.0715,-257.8722 2015.9983,-264.8106"/>
</g>
<!-- Node26&#45;&gt;Node4 -->
<g id="edge48" class="edge">
<title>Node26&#45;&gt;Node4</title>
<path fill="none" stroke="#191970" d="M1068.1757,-310.2548C991.8285,-301.962 867.7671,-286.792 762,-266 756.8537,-264.9883 751.4915,-263.7999 746.1825,-262.5386"/>
<polygon fill="#191970" stroke="#191970" points="746.6564,-259.0506 736.1089,-260.0509 744.978,-265.8464 746.6564,-259.0506"/>
</g>
<!-- Node26&#45;&gt;Node5 -->
<g id="edge36" class="edge">
<title>Node26&#45;&gt;Node5</title>
<path fill="none" stroke="#191970" d="M1139.0578,-307.8051C1136.101,-277.3813 1126.964,-183.3666 1122.9384,-141.9452"/>
<polygon fill="#191970" stroke="#191970" points="1126.3989,-141.3679 1121.9479,-131.7534 1119.4317,-142.0451 1126.3989,-141.3679"/>
</g>
<!-- Node26&#45;&gt;Node7 -->
<g id="edge53" class="edge">
<title>Node26&#45;&gt;Node7</title>
<path fill="none" stroke="#191970" d="M1183.9691,-307.9551C1195.9303,-305.6685 1208.9187,-303.4669 1221,-302 1523.2013,-265.307 1607.9125,-332.4153 1905,-266 1907.803,-265.3734 1910.6656,-264.5597 1913.4994,-263.6335"/>
<polygon fill="#191970" stroke="#191970" points="1914.7297,-266.9103 1922.895,-260.159 1912.3018,-260.3448 1914.7297,-266.9103"/>
</g>
<!-- Node26&#45;&gt;Node13 -->
<g id="edge37" class="edge">
<title>Node26&#45;&gt;Node13</title>
<path fill="none" stroke="#191970" d="M1068.2947,-311.3835C972.8631,-302.5557 813.8733,-285.1835 795,-266 764.186,-234.6796 811.3245,-200.7191 782,-168 761.4625,-145.085 673.7736,-131.3405 626.1232,-125.4262"/>
<polygon fill="#191970" stroke="#191970" points="626.3907,-121.9333 616.0452,-124.2181 625.5575,-128.8835 626.3907,-121.9333"/>
</g>
<!-- Node27 -->
<g id="node28" class="node">
<title>Node27</title>
<polygon fill="none" stroke="#bfbfbf" points="1534.5,-112.5 1534.5,-131.5 1581.5,-131.5 1581.5,-112.5 1534.5,-112.5"/>
<text text-anchor="middle" x="1558" y="-119.5" font-family="Helvetica,sans-Serif" font-size="10.00" fill="#000000">vector</text>
</g>
<!-- Node26&#45;&gt;Node27 -->
<g id="edge38" class="edge">
<title>Node26&#45;&gt;Node27</title>
<path fill="none" stroke="#191970" d="M1184.4057,-307.9865C1196.2497,-305.7279 1209.0712,-303.5324 1221,-302 1280.7531,-294.3242 1720.8395,-309.9905 1762,-266 1821.1429,-202.7907 1663.9098,-150.5784 1591.8643,-130.6643"/>
<polygon fill="#191970" stroke="#191970" points="1592.4559,-127.1985 1581.8887,-127.963 1590.6262,-133.9551 1592.4559,-127.1985"/>
</g>
<!-- Node28 -->
<g id="node29" class="node">
<title>Node28</title>
<polygon fill="none" stroke="#bfbfbf" points="1875,-56.5 1875,-75.5 1919,-75.5 1919,-56.5 1875,-56.5"/>
<text text-anchor="middle" x="1897" y="-63.5" font-family="Helvetica,sans-Serif" font-size="10.00" fill="#000000">string</text>
</g>
<!-- Node26&#45;&gt;Node28 -->
<g id="edge39" class="edge">
<title>Node26&#45;&gt;Node28</title>
<path fill="none" stroke="#191970" d="M1184.4033,-307.9674C1196.2473,-305.709 1209.0694,-303.5183 1221,-302 1468.8473,-270.4594 1538.5052,-321.9769 1782,-266 1858.7353,-248.3593 1899.694,-262.6809 1946,-199 1968.7778,-167.6755 1967.2376,-147.1623 1951,-112 1945.1741,-99.384 1933.9931,-88.9528 1923.3095,-81.2314"/>
<polygon fill="#191970" stroke="#191970" points="1925.2142,-78.2946 1914.9599,-75.6299 1921.3144,-84.1076 1925.2142,-78.2946"/>
</g>
<!-- Node29 -->
<g id="node30" class="node">
<title>Node29</title>
<polygon fill="none" stroke="#bfbfbf" points="1225.5,-241 1225.5,-260 1308.5,-260 1308.5,-241 1225.5,-241"/>
<text text-anchor="middle" x="1267" y="-248" font-family="Helvetica,sans-Serif" font-size="10.00" fill="#000000">TStopwatch.h</text>
</g>
<!-- Node26&#45;&gt;Node29 -->
<g id="edge40" class="edge">
<title>Node26&#45;&gt;Node29</title>
<path fill="none" stroke="#191970" d="M1158.196,-307.9005C1179.6038,-296.6067 1215.3458,-277.7506 1239.9893,-264.7497"/>
<polygon fill="#191970" stroke="#191970" points="1241.6262,-267.8434 1248.8378,-260.0817 1238.3599,-261.6522 1241.6262,-267.8434"/>
</g>
<!-- Node30 -->
<g id="node31" class="node">
<title>Node30</title>
<g id="a_node31"><a xlink:href="../../d4/d78/CalibInfoTOFshort_8h.html" target="_top" xlink:title="Class to store the output of the matching to TOF for calibration (no channel info, available in CalibInfoTOF.h) ">
<polygon fill="none" stroke="#000000" points="1326.5,-235.5 1326.5,-265.5 1471.5,-265.5 1471.5,-235.5 1326.5,-235.5"/>
<text text-anchor="start" x="1334.5" y="-253.5" font-family="Helvetica,sans-Serif" font-size="10.00" fill="#000000">DataFormatsTOF/CalibInfo</text>
<text text-anchor="middle" x="1399" y="-242.5" font-family="Helvetica,sans-Serif" font-size="10.00" fill="#000000">TOFshort.h</text>
</a>
</g>
</g>
<!-- Node26&#45;&gt;Node30 -->
<g id="edge41" class="edge">
<title>Node26&#45;&gt;Node30</title>
<path fill="none" stroke="#191970" d="M1176.8333,-307.9717C1216.8145,-297.6291 1281.5424,-280.8848 1330.8441,-268.1311"/>
<polygon fill="#191970" stroke="#191970" points="1331.9962,-271.4483 1340.801,-265.5553 1330.2431,-264.6714 1331.9962,-271.4483"/>
</g>
<!-- Node31 -->
<g id="node32" class="node">
<title>Node31</title>
<g id="a_node32"><a xlink:href="../../d8/de0/CalibLHCphaseTOF_8h.html" target="_top" xlink:title="Class to store the output of the matching to TOF for calibration. ">
<polygon fill="none" stroke="#000000" points="1470.5,-168.5 1470.5,-198.5 1645.5,-198.5 1645.5,-168.5 1470.5,-168.5"/>
<text text-anchor="start" x="1478.5" y="-186.5" font-family="Helvetica,sans-Serif" font-size="10.00" fill="#000000">DataFormatsTOF/CalibLHCphase</text>
<text text-anchor="middle" x="1558" y="-175.5" font-family="Helvetica,sans-Serif" font-size="10.00" fill="#000000">TOF.h</text>
</a>
</g>
</g>
<!-- Node26&#45;&gt;Node31 -->
<g id="edge42" class="edge">
<title>Node26&#45;&gt;Node31</title>
<path fill="none" stroke="#191970" d="M1148.3513,-307.7242C1166.2609,-286.8663 1207.4328,-239.5241 1216,-235 1310.8484,-184.9138 1350.4478,-213.9802 1460.2382,-199.1671"/>
<polygon fill="#191970" stroke="#191970" points="1460.9775,-202.5967 1470.3742,-197.7026 1459.9765,-195.6687 1460.9775,-202.5967"/>
</g>
<!-- Node32 -->
<g id="node33" class="node">
<title>Node32</title>
<g id="a_node33"><a xlink:href="../../d3/d81/CalibTimeSlewingParamTOF_8h.html" target="_top" xlink:title="Class to store the output of the matching to TOF for calibration. ">
<polygon fill="none" stroke="#000000" points="1301.5,-168.5 1301.5,-198.5 1452.5,-198.5 1452.5,-168.5 1301.5,-168.5"/>
<text text-anchor="start" x="1309.5" y="-186.5" font-family="Helvetica,sans-Serif" font-size="10.00" fill="#000000">DataFormatsTOF/CalibTime</text>
<text text-anchor="middle" x="1377" y="-175.5" font-family="Helvetica,sans-Serif" font-size="10.00" fill="#000000">SlewingParamTOF.h</text>
</a>
</g>
</g>
<!-- Node26&#45;&gt;Node32 -->
<g id="edge45" class="edge">
<title>Node26&#45;&gt;Node32</title>
<path fill="none" stroke="#191970" d="M1142.2502,-307.9729C1146.8324,-290.7125 1158.9135,-254.2755 1183,-235 1200.2003,-221.2353 1247.7334,-208.5047 1291.441,-199.1443"/>
<polygon fill="#191970" stroke="#191970" points="1292.2099,-202.5593 1301.2775,-197.0794 1290.7717,-195.7086 1292.2099,-202.5593"/>
</g>
<!-- Node33 -->
<g id="node34" class="node">
<title>Node33</title>
<polygon fill="none" stroke="#bfbfbf" points="1489.5,-241 1489.5,-260 1538.5,-260 1538.5,-241 1489.5,-241"/>
<text text-anchor="middle" x="1514" y="-248" font-family="Helvetica,sans-Serif" font-size="10.00" fill="#000000">TH1F.h</text>
</g>
<!-- Node26&#45;&gt;Node33 -->
<g id="edge49" class="edge">
<title>Node26&#45;&gt;Node33</title>
<path fill="none" stroke="#191970" d="M1187.4694,-307.9926C1198.46,-305.9092 1210.1221,-303.7926 1221,-302 1336.1054,-283.0309 1369.1583,-299.1741 1481,-266 1482.9115,-265.433 1484.8523,-264.7709 1486.7861,-264.0456"/>
<polygon fill="#191970" stroke="#191970" points="1488.3902,-267.1672 1496.2304,-260.0411 1485.6575,-260.7225 1488.3902,-267.1672"/>
</g>
<!-- Node34 -->
<g id="node35" class="node">
<title>Node34</title>
<polygon fill="none" stroke="#bfbfbf" points="804.5,-241 804.5,-260 857.5,-260 857.5,-241 804.5,-241"/>
<text text-anchor="middle" x="831" y="-248" font-family="Helvetica,sans-Serif" font-size="10.00" fill="#000000">TH1D.h</text>
</g>
<!-- Node26&#45;&gt;Node34 -->
<g id="edge50" class="edge">
<title>Node26&#45;&gt;Node34</title>
<path fill="none" stroke="#191970" d="M1068.222,-308.6398C1012.2958,-300.6336 933.1365,-286.8666 866,-266 863.8859,-265.3429 861.7294,-264.5944 859.5773,-263.7894"/>
<polygon fill="#191970" stroke="#191970" points="860.8964,-260.5475 850.3154,-260.0063 858.2494,-267.0278 860.8964,-260.5475"/>
</g>
<!-- Node35 -->
<g id="node36" class="node">
<title>Node35</title>
<polygon fill="none" stroke="#bfbfbf" points="875.5,-241 875.5,-260 924.5,-260 924.5,-241 875.5,-241"/>
<text text-anchor="middle" x="900" y="-248" font-family="Helvetica,sans-Serif" font-size="10.00" fill="#000000">TH2F.h</text>
</g>
<!-- Node26&#45;&gt;Node35 -->
<g id="edge51" class="edge">
<title>Node26&#45;&gt;Node35</title>
<path fill="none" stroke="#191970" d="M1090.2663,-307.9792C1047.8276,-299.1827 985.5166,-284.6644 933,-266 931.3598,-265.4171 929.6913,-264.7806 928.0193,-264.1086"/>
<polygon fill="#191970" stroke="#191970" points="929.1465,-260.7822 918.5806,-260.0005 926.3529,-267.2006 929.1465,-260.7822"/>
</g>
<!-- Node36 -->
<g id="node37" class="node">
<title>Node36</title>
<polygon fill="none" stroke="#bfbfbf" points="942.5,-241 942.5,-260 985.5,-260 985.5,-241 942.5,-241"/>
<text text-anchor="middle" x="964" y="-248" font-family="Helvetica,sans-Serif" font-size="10.00" fill="#000000">TF1.h</text>
</g>
<!-- Node26&#45;&gt;Node36 -->
<g id="edge52" class="edge">
<title>Node26&#45;&gt;Node36</title>
<path fill="none" stroke="#191970" d="M1109.0476,-307.9542C1079.1653,-298.419 1032.8579,-282.7966 994,-266 992.9776,-265.558 991.9417,-265.0963 990.8999,-264.6202"/>
<polygon fill="#191970" stroke="#191970" points="992.0965,-261.3105 981.5721,-260.0909 989.0389,-267.6074 992.0965,-261.3105"/>
</g>
<!-- Node37 -->
<g id="node38" class="node">
<title>Node37</title>
<polygon fill="none" stroke="#bfbfbf" points="1003.5,-241 1003.5,-260 1092.5,-260 1092.5,-241 1003.5,-241"/>
<text text-anchor="middle" x="1048" y="-248" font-family="Helvetica,sans-Serif" font-size="10.00" fill="#000000">TGraphErrors.h</text>
</g>
<!-- Node26&#45;&gt;Node37 -->
<g id="edge54" class="edge">
<title>Node26&#45;&gt;Node37</title>
<path fill="none" stroke="#191970" d="M1126.8186,-307.9005C1111.7889,-296.9549 1087.0058,-278.9064 1069.2407,-265.9688"/>
<polygon fill="#191970" stroke="#191970" points="1071.3009,-263.1394 1061.1569,-260.0817 1067.18,-268.7979 1071.3009,-263.1394"/>
</g>
<!-- Node38 -->
<g id="node39" class="node">
<title>Node38</title>
<g id="a_node39"><a xlink:href="../../d7/d65/CalibTOFapi_8h.html" target="_top" xlink:title="Class to use TOF calibration (decalibration, calibration) ">
<polygon fill="none" stroke="#000000" points="1595,-241 1595,-260 1753,-260 1753,-241 1595,-241"/>
<text text-anchor="middle" x="1674" y="-248" font-family="Helvetica,sans-Serif" font-size="10.00" fill="#000000">TOFCalibration/CalibTOFapi.h</text>
</a>
</g>
</g>
<!-- Node26&#45;&gt;Node38 -->
<g id="edge55" class="edge">
<title>Node26&#45;&gt;Node38</title>
<path fill="none" stroke="#191970" d="M1186.5791,-307.931C1197.8196,-305.8035 1209.815,-303.6831 1221,-302 1365.5835,-280.2428 1402.7716,-282.9262 1548,-266 1560.9093,-264.4954 1574.5568,-262.8616 1587.9176,-261.2379"/>
<polygon fill="#191970" stroke="#191970" points="1588.5592,-264.6856 1598.0618,-260.0005 1587.7115,-257.7371 1588.5592,-264.6856"/>
</g>
<!-- Node31&#45;&gt;Node5 -->
<g id="edge44" class="edge">
<title>Node31&#45;&gt;Node5</title>
<path fill="none" stroke="#191970" d="M1470.3803,-169.2568C1467.5547,-168.8282 1464.7555,-168.4082 1462,-168 1353.1259,-151.8701 1224.3381,-135.131 1160.6937,-127.0144"/>
<polygon fill="#191970" stroke="#191970" points="1161.0466,-123.5312 1150.6847,-125.7406 1160.1628,-130.4752 1161.0466,-123.5312"/>
</g>
<!-- Node31&#45;&gt;Node27 -->
<g id="edge43" class="edge">
<title>Node31&#45;&gt;Node27</title>
<path fill="none" stroke="#191970" d="M1558,-168.2977C1558,-160.3834 1558,-150.6043 1558,-142.0759"/>
<polygon fill="#191970" stroke="#191970" points="1561.5001,-141.8469 1558,-131.8469 1554.5001,-141.847 1561.5001,-141.8469"/>
</g>
<!-- Node32&#45;&gt;Node5 -->
<g id="edge47" class="edge">
<title>Node32&#45;&gt;Node5</title>
<path fill="none" stroke="#191970" d="M1314.3754,-168.4554C1266.3415,-156.916 1201.5176,-141.3431 1160.4811,-131.4847"/>
<polygon fill="#191970" stroke="#191970" points="1161.1262,-128.0402 1150.5852,-129.1074 1159.491,-134.8465 1161.1262,-128.0402"/>
</g>
<!-- Node32&#45;&gt;Node27 -->
<g id="edge46" class="edge">
<title>Node32&#45;&gt;Node27</title>
<path fill="none" stroke="#191970" d="M1421.2776,-168.4554C1453.2019,-157.6082 1495.6158,-143.1968 1524.6892,-133.3183"/>
<polygon fill="#191970" stroke="#191970" points="1526.035,-136.5576 1534.3773,-130.0265 1523.7829,-129.9298 1526.035,-136.5576"/>
</g>
<!-- Node38&#45;&gt;Node31 -->
<g id="edge69" class="edge">
<title>Node38&#45;&gt;Node31</title>
<path fill="none" stroke="#191970" d="M1657.38,-240.9005C1640.6064,-231.2123 1614.1983,-215.9593 1592.8195,-203.6113"/>
<polygon fill="#191970" stroke="#191970" points="1594.4178,-200.4926 1584.0078,-198.5218 1590.9167,-206.5541 1594.4178,-200.4926"/>
</g>
<!-- Node38&#45;&gt;Node32 -->
<g id="edge70" class="edge">
<title>Node38&#45;&gt;Node32</title>
<path fill="none" stroke="#191970" d="M1631.7626,-240.9717C1585.5326,-230.5427 1510.4491,-213.6047 1453.7431,-200.8124"/>
<polygon fill="#191970" stroke="#191970" points="1454.263,-197.3418 1443.7379,-198.5553 1452.7225,-204.1702 1454.263,-197.3418"/>
</g>
<!-- Node39 -->
<g id="node40" class="node">
<title>Node39</title>
<polygon fill="none" stroke="#bfbfbf" points="1669,-56.5 1669,-75.5 1729,-75.5 1729,-56.5 1669,-56.5"/>
<text text-anchor="middle" x="1699" y="-63.5" font-family="Helvetica,sans-Serif" font-size="10.00" fill="#000000">iostream</text>
</g>
<!-- Node38&#45;&gt;Node39 -->
<g id="edge56" class="edge">
<title>Node38&#45;&gt;Node39</title>
<path fill="none" stroke="#191970" d="M1675.3089,-240.8402C1679.2409,-211.8223 1691.0042,-125.0088 1696.3291,-85.7113"/>
<polygon fill="#191970" stroke="#191970" points="1699.8295,-85.9436 1697.704,-75.5641 1692.8929,-85.0036 1699.8295,-85.9436"/>
</g>
<!-- Node40 -->
<g id="node41" class="node">
<title>Node40</title>
<g id="a_node41"><a xlink:href="../../d5/df3/BasicCCDBManager_8h.html" target="_top" xlink:title="CCDB/BasicCCDBManager.h">
<polygon fill="none" stroke="#000000" points="1785,-174 1785,-193 1937,-193 1937,-174 1785,-174"/>
<text text-anchor="middle" x="1861" y="-181" font-family="Helvetica,sans-Serif" font-size="10.00" fill="#000000">CCDB/BasicCCDBManager.h</text>
</a>
</g>
</g>
<!-- Node38&#45;&gt;Node40 -->
<g id="edge57" class="edge">
<title>Node38&#45;&gt;Node40</title>
<path fill="none" stroke="#191970" d="M1700.7925,-240.9005C1733.2863,-229.2584 1788.2081,-209.5805 1824.5375,-196.5641"/>
<polygon fill="#191970" stroke="#191970" points="1826.0237,-199.7496 1834.2572,-193.0817 1823.6626,-193.1598 1826.0237,-199.7496"/>
</g>
<!-- Node40&#45;&gt;Node28 -->
<g id="edge67" class="edge">
<title>Node40&#45;&gt;Node28</title>
<path fill="none" stroke="#191970" d="M1829.8581,-173.9713C1796.4061,-162.055 1750.5024,-139.7993 1770,-112 1781.1659,-96.0799 1831.164,-81.4815 1864.9951,-73.1736"/>
<polygon fill="#191970" stroke="#191970" points="1866.0021,-76.5316 1874.9145,-70.8028 1864.3748,-69.7234 1866.0021,-76.5316"/>
</g>
<!-- Node41 -->
<g id="node42" class="node">
<title>Node41</title>
<g id="a_node42"><a xlink:href="../../dd/d3e/CcdbApi_8h.html" target="_top" xlink:title="CCDB/CcdbApi.h">
<polygon fill="none" stroke="#000000" points="1998,-112.5 1998,-131.5 2094,-131.5 2094,-112.5 1998,-112.5"/>
<text text-anchor="middle" x="2046" y="-119.5" font-family="Helvetica,sans-Serif" font-size="10.00" fill="#000000">CCDB/CcdbApi.h</text>
</a>
</g>
</g>
<!-- Node40&#45;&gt;Node41 -->
<g id="edge58" class="edge">
<title>Node40&#45;&gt;Node41</title>
<path fill="none" stroke="#191970" d="M1889.9063,-173.8906C1921.539,-163.3749 1972.403,-146.466 2007.4229,-134.8243"/>
<polygon fill="#191970" stroke="#191970" points="2008.9115,-138.0178 2017.2967,-131.5419 2006.7032,-131.3753 2008.9115,-138.0178"/>
</g>
<!-- Node43 -->
<g id="node44" class="node">
<title>Node43</title>
<polygon fill="none" stroke="#bfbfbf" points="1795,-56.5 1795,-75.5 1833,-75.5 1833,-56.5 1795,-56.5"/>
<text text-anchor="middle" x="1814" y="-63.5" font-family="Helvetica,sans-Serif" font-size="10.00" fill="#000000">map</text>
</g>
<!-- Node40&#45;&gt;Node43 -->
<g id="edge68" class="edge">
<title>Node40&#45;&gt;Node43</title>
<path fill="none" stroke="#191970" d="M1821.2697,-173.9314C1799.4055,-166.4166 1774.1158,-153.5076 1761,-132 1749.6391,-113.3702 1769.2875,-94.1479 1787.7954,-81.2879"/>
<polygon fill="#191970" stroke="#191970" points="1789.9166,-84.0829 1796.3752,-75.6842 1786.0888,-78.2221 1789.9166,-84.0829"/>
</g>
<!-- Node47 -->
<g id="node48" class="node">
<title>Node47</title>
<g id="a_node48"><a xlink:href="../../da/d86/CCDBTimeStampUtils_8h.html" target="_top" xlink:title="CCDB/CCDBTimeStampUtils.h">
<polygon fill="none" stroke="#000000" points="1778.5,-112.5 1778.5,-131.5 1941.5,-131.5 1941.5,-112.5 1778.5,-112.5"/>
<text text-anchor="middle" x="1860" y="-119.5" font-family="Helvetica,sans-Serif" font-size="10.00" fill="#000000">CCDB/CCDBTimeStampUtils.h</text>
</a>
</g>
</g>
<!-- Node40&#45;&gt;Node47 -->
<g id="edge66" class="edge">
<title>Node40&#45;&gt;Node47</title>
<path fill="none" stroke="#191970" d="M1860.8438,-173.8906C1860.7051,-165.3657 1860.4982,-152.6392 1860.324,-141.9235"/>
<polygon fill="#191970" stroke="#191970" points="1863.8207,-141.6866 1860.1585,-131.7449 1856.8216,-141.8005 1863.8207,-141.6866"/>
</g>
<!-- Node41&#45;&gt;Node28 -->
<g id="edge59" class="edge">
<title>Node41&#45;&gt;Node28</title>
<path fill="none" stroke="#191970" d="M2020.386,-112.3733C1995.0421,-102.848 1956.1844,-88.2438 1928.8615,-77.9748"/>
<polygon fill="#191970" stroke="#191970" points="1929.9555,-74.647 1919.3635,-74.4051 1927.4928,-81.1995 1929.9555,-74.647"/>
</g>
<!-- Node41&#45;&gt;Node39 -->
<g id="edge61" class="edge">
<title>Node41&#45;&gt;Node39</title>
<path fill="none" stroke="#191970" d="M1997.7511,-114.2134C1928.9542,-103.1108 1803.898,-82.9288 1739.5883,-72.5503"/>
<polygon fill="#191970" stroke="#191970" points="1739.8629,-69.0494 1729.4329,-70.9114 1738.7475,-75.96 1739.8629,-69.0494"/>
</g>
<!-- Node42 -->
<g id="node43" class="node">
<title>Node42</title>
<polygon fill="none" stroke="#bfbfbf" points="1937,-56.5 1937,-75.5 1995,-75.5 1995,-56.5 1937,-56.5"/>
<text text-anchor="middle" x="1966" y="-63.5" font-family="Helvetica,sans-Serif" font-size="10.00" fill="#000000">memory</text>
</g>
<!-- Node41&#45;&gt;Node42 -->
<g id="edge60" class="edge">
<title>Node41&#45;&gt;Node42</title>
<path fill="none" stroke="#191970" d="M2032.0651,-112.2455C2019.9053,-103.7337 2002.0536,-91.2375 1987.9715,-81.3801"/>
<polygon fill="#191970" stroke="#191970" points="1989.9747,-78.51 1979.7752,-75.6427 1985.9605,-84.2447 1989.9747,-78.51"/>
</g>
<!-- Node41&#45;&gt;Node43 -->
<g id="edge62" class="edge">
<title>Node41&#45;&gt;Node43</title>
<path fill="none" stroke="#191970" d="M2006.3814,-112.4369C1960.0692,-101.2581 1884.517,-83.0213 1843.2212,-73.0534"/>
<polygon fill="#191970" stroke="#191970" points="1843.7996,-69.5926 1833.2575,-70.6484 1842.1571,-76.3971 1843.7996,-69.5926"/>
</g>
<!-- Node44 -->
<g id="node45" class="node">
<title>Node44</title>
<polygon fill="none" stroke="#bfbfbf" points="2013.5,-56.5 2013.5,-75.5 2078.5,-75.5 2078.5,-56.5 2013.5,-56.5"/>
<text text-anchor="middle" x="2046" y="-63.5" font-family="Helvetica,sans-Serif" font-size="10.00" fill="#000000">curl/curl.h</text>
</g>
<!-- Node41&#45;&gt;Node44 -->
<g id="edge63" class="edge">
<title>Node41&#45;&gt;Node44</title>
<path fill="none" stroke="#191970" d="M2046,-112.2455C2046,-104.9382 2046,-94.6944 2046,-85.7046"/>
<polygon fill="#191970" stroke="#191970" points="2049.5001,-85.6426 2046,-75.6427 2042.5001,-85.6427 2049.5001,-85.6426"/>
</g>
<!-- Node45 -->
<g id="node46" class="node">
<title>Node45</title>
<polygon fill="none" stroke="#bfbfbf" points="2096.5,-56.5 2096.5,-75.5 2159.5,-75.5 2159.5,-56.5 2096.5,-56.5"/>
<text text-anchor="middle" x="2128" y="-63.5" font-family="Helvetica,sans-Serif" font-size="10.00" fill="#000000">TObject.h</text>
</g>
<!-- Node41&#45;&gt;Node45 -->
<g id="edge64" class="edge">
<title>Node41&#45;&gt;Node45</title>
<path fill="none" stroke="#191970" d="M2060.2833,-112.2455C2072.747,-103.7337 2091.0451,-91.2375 2105.4792,-81.3801"/>
<polygon fill="#191970" stroke="#191970" points="2107.5962,-84.1726 2113.8804,-75.6427 2103.6485,-78.392 2107.5962,-84.1726"/>
</g>
<!-- Node46 -->
<g id="node47" class="node">
<title>Node46</title>
<polygon fill="none" stroke="#bfbfbf" points="2178,-56.5 2178,-75.5 2252,-75.5 2252,-56.5 2178,-56.5"/>
<text text-anchor="middle" x="2215" y="-63.5" font-family="Helvetica,sans-Serif" font-size="10.00" fill="#000000">TMessage.h</text>
</g>
<!-- Node41&#45;&gt;Node46 -->
<g id="edge65" class="edge">
<title>Node41&#45;&gt;Node46</title>
<path fill="none" stroke="#191970" d="M2075.0521,-112.3733C2103.1543,-103.0613 2145.9054,-88.8953 2176.7607,-78.671"/>
<polygon fill="#191970" stroke="#191970" points="2177.9355,-81.969 2186.327,-75.5011 2175.7336,-75.3243 2177.9355,-81.969"/>
</g>
</g>
</svg>
