<?xml version="1.0" encoding="UTF-8" standalone="no"?>
<!DOCTYPE svg PUBLIC "-//W3C//DTD SVG 1.1//EN"
 "http://www.w3.org/Graphics/SVG/1.1/DTD/svg11.dtd">
<!-- Generated by graphviz version 2.40.1 (20161225.0304)
 -->
<!-- Title: o2::tpc::RawReader::EventInfo Pages: 1 -->
<svg width="375pt" height="375pt"
 viewBox="0.00 0.00 374.50 375.00" xmlns="http://www.w3.org/2000/svg" xmlns:xlink="http://www.w3.org/1999/xlink">
<g id="graph0" class="graph" transform="scale(1 1) rotate(0) translate(4 371)">
<title>o2::tpc::RawReader::EventInfo</title>
<!-- Node1 -->
<g id="node1" class="node">
<title>Node1</title>
<polygon fill="#bfbfbf" stroke="#000000" points="37.5,-.5 37.5,-79.5 147.5,-79.5 147.5,-.5 37.5,-.5"/>
<text text-anchor="start" x="45.5" y="-67.5" font-family="Helvetica,sans-Serif" font-size="10.00" fill="#000000">o2::tpc::RawReader</text>
<text text-anchor="middle" x="92.5" y="-56.5" font-family="Helvetica,sans-Serif" font-size="10.00" fill="#000000">::EventInfo</text>
<polyline fill="none" stroke="#000000" points="37.5,-49.5 147.5,-49.5 "/>
<text text-anchor="middle" x="92.5" y="-37.5" font-family="Helvetica,sans-Serif" font-size="10.00" fill="#000000"> </text>
<polyline fill="none" stroke="#000000" points="37.5,-30.5 147.5,-30.5 "/>
<text text-anchor="start" x="45.5" y="-18.5" font-family="Helvetica,sans-Serif" font-size="10.00" fill="#000000">+ EventInfo()</text>
<text text-anchor="start" x="45.5" y="-7.5" font-family="Helvetica,sans-Serif" font-size="10.00" fill="#000000">+ EventInfo()</text>
</g>
<!-- Node2 -->
<g id="node2" class="node">
<title>Node2</title>
<polygon fill="none" stroke="#bfbfbf" points="0,-155 0,-212 29,-212 29,-155 0,-155"/>
<text text-anchor="middle" x="14.5" y="-200" font-family="Helvetica,sans-Serif" font-size="10.00" fill="#000000">int</text>
<polyline fill="none" stroke="#bfbfbf" points="0,-193 29,-193 "/>
<text text-anchor="middle" x="14.5" y="-181" font-family="Helvetica,sans-Serif" font-size="10.00" fill="#000000"> </text>
<polyline fill="none" stroke="#bfbfbf" points="0,-174 29,-174 "/>
<text text-anchor="middle" x="14.5" y="-162" font-family="Helvetica,sans-Serif" font-size="10.00" fill="#000000"> </text>
</g>
<!-- Node2&#45;&gt;Node1 -->
<g id="edge1" class="edge">
<title>Node2&#45;&gt;Node1</title>
<path fill="none" stroke="#404040" d="M16.7567,-154.7128C19.0911,-137.401 23.8399,-115.4206 33.5,-98 35.1652,-94.997 37.034,-92.0491 39.0537,-89.1721"/>
<polygon fill="none" stroke="#404040" points="39.0617,-89.1617 39.5856,-81.9697 46.4259,-79.6871 45.902,-86.8792 39.0617,-89.1617"/>
<text text-anchor="middle" x="61" y="-101" font-family="Helvetica,sans-Serif" font-size="10.00" fill="#000000"> +posInFile</text>
</g>
<!-- Node3 -->
<g id="node3" class="node">
<title>Node3</title>
<polygon fill="none" stroke="#bfbfbf" points="70.5,-155 70.5,-212 114.5,-212 114.5,-155 70.5,-155"/>
<text text-anchor="middle" x="92.5" y="-200" font-family="Helvetica,sans-Serif" font-size="10.00" fill="#000000">string</text>
<polyline fill="none" stroke="#bfbfbf" points="70.5,-193 114.5,-193 "/>
<text text-anchor="middle" x="92.5" y="-181" font-family="Helvetica,sans-Serif" font-size="10.00" fill="#000000"> </text>
<polyline fill="none" stroke="#bfbfbf" points="70.5,-174 114.5,-174 "/>
<text text-anchor="middle" x="92.5" y="-162" font-family="Helvetica,sans-Serif" font-size="10.00" fill="#000000"> </text>
</g>
<!-- Node3&#45;&gt;Node1 -->
<g id="edge2" class="edge">
<title>Node3&#45;&gt;Node1</title>
<path fill="none" stroke="#404040" d="M92.5,-154.8055C92.5,-136.7553 92.5,-112.9361 92.5,-91.6746"/>
<polygon fill="none" stroke="#404040" points="92.5001,-91.5146 88.5,-85.5147 92.5,-79.5146 96.5,-85.5146 92.5001,-91.5146"/>
<text text-anchor="middle" x="109.5" y="-101" font-family="Helvetica,sans-Serif" font-size="10.00" fill="#000000"> +path</text>
</g>
<!-- Node4 -->
<g id="node4" class="node">
<title>Node4</title>
<g id="a_node4"><a xlink:href="../../d3/d66/structo2_1_1tpc_1_1RawReader_1_1Header.html" target="_top" xlink:title="Data header struct. ">
<polygon fill="none" stroke="#000000" points="132.5,-127.5 132.5,-239.5 242.5,-239.5 242.5,-127.5 132.5,-127.5"/>
<text text-anchor="start" x="140.5" y="-227.5" font-family="Helvetica,sans-Serif" font-size="10.00" fill="#000000">o2::tpc::RawReader</text>
<text text-anchor="middle" x="187.5" y="-216.5" font-family="Helvetica,sans-Serif" font-size="10.00" fill="#000000">::Header</text>
<polyline fill="none" stroke="#000000" points="132.5,-209.5 242.5,-209.5 "/>
<text text-anchor="middle" x="187.5" y="-197.5" font-family="Helvetica,sans-Serif" font-size="10.00" fill="#000000"> </text>
<polyline fill="none" stroke="#000000" points="132.5,-190.5 242.5,-190.5 "/>
<text text-anchor="start" x="140.5" y="-178.5" font-family="Helvetica,sans-Serif" font-size="10.00" fill="#000000">+ timeStamp()</text>
<text text-anchor="start" x="140.5" y="-167.5" font-family="Helvetica,sans-Serif" font-size="10.00" fill="#000000">+ eventCount()</text>
<text text-anchor="start" x="140.5" y="-156.5" font-family="Helvetica,sans-Serif" font-size="10.00" fill="#000000">+ reserved_2()</text>
<text text-anchor="start" x="140.5" y="-145.5" font-family="Helvetica,sans-Serif" font-size="10.00" fill="#000000">+ Header()</text>
<text text-anchor="start" x="140.5" y="-134.5" font-family="Helvetica,sans-Serif" font-size="10.00" fill="#000000">+ Header()</text>
</a>
</g>
</g>
<!-- Node4&#45;&gt;Node1 -->
<g id="edge3" class="edge">
<title>Node4&#45;&gt;Node1</title>
<path fill="none" stroke="#404040" d="M150.2261,-127.1969C142.1048,-114.9293 133.5647,-102.0293 125.6177,-90.0251"/>
<polygon fill="none" stroke="#404040" points="125.4362,-89.751 118.7888,-86.9561 118.812,-79.745 125.4595,-82.5399 125.4362,-89.751"/>
<text text-anchor="middle" x="159.5" y="-101" font-family="Helvetica,sans-Serif" font-size="10.00" fill="#000000"> +header</text>
</g>
<!-- Node5 -->
<g id="node5" class="node">
<title>Node5</title>
<polygon fill="none" stroke="#bfbfbf" points="15.5,-309.5 15.5,-366.5 71.5,-366.5 71.5,-309.5 15.5,-309.5"/>
<text text-anchor="middle" x="43.5" y="-354.5" font-family="Helvetica,sans-Serif" font-size="10.00" fill="#000000">uint64_t</text>
<polyline fill="none" stroke="#bfbfbf" points="15.5,-347.5 71.5,-347.5 "/>
<text text-anchor="middle" x="43.5" y="-335.5" font-family="Helvetica,sans-Serif" font-size="10.00" fill="#000000"> </text>
<polyline fill="none" stroke="#bfbfbf" points="15.5,-328.5 71.5,-328.5 "/>
<text text-anchor="middle" x="43.5" y="-316.5" font-family="Helvetica,sans-Serif" font-size="10.00" fill="#000000"> </text>
</g>
<!-- Node5&#45;&gt;Node4 -->
<g id="edge4" class="edge">
<title>Node5&#45;&gt;Node4</title>
<path fill="none" stroke="#404040" d="M42.2016,-309.1435C42.9988,-292.2435 46.893,-271.614 59.5,-258 77.3805,-238.6912 93.5938,-250.7084 121.5437,-239.8131"/>
<polygon fill="none" stroke="#404040" points="121.5559,-239.8073 125.2613,-233.6209 132.3969,-234.6619 128.6915,-240.8482 121.5559,-239.8073"/>
<text text-anchor="middle" x="100.5" y="-283" font-family="Helvetica,sans-Serif" font-size="10.00" fill="#000000"> +eventCount_w</text>
<text text-anchor="middle" x="100.5" y="-272" font-family="Helvetica,sans-Serif" font-size="10.00" fill="#000000">+timeStamp_w</text>
<text text-anchor="middle" x="100.5" y="-261" font-family="Helvetica,sans-Serif" font-size="10.00" fill="#000000">+reserved_2_w</text>
</g>
<!-- Node6 -->
<g id="node6" class="node">
<title>Node6</title>
<polygon fill="none" stroke="#bfbfbf" points="120.5,-309.5 120.5,-366.5 176.5,-366.5 176.5,-309.5 120.5,-309.5"/>
<text text-anchor="middle" x="148.5" y="-354.5" font-family="Helvetica,sans-Serif" font-size="10.00" fill="#000000">uint16_t</text>
<polyline fill="none" stroke="#bfbfbf" points="120.5,-347.5 176.5,-347.5 "/>
<text text-anchor="middle" x="148.5" y="-335.5" font-family="Helvetica,sans-Serif" font-size="10.00" fill="#000000"> </text>
<polyline fill="none" stroke="#bfbfbf" points="120.5,-328.5 176.5,-328.5 "/>
<text text-anchor="middle" x="148.5" y="-316.5" font-family="Helvetica,sans-Serif" font-size="10.00" fill="#000000"> </text>
</g>
<!-- Node6&#45;&gt;Node4 -->
<g id="edge5" class="edge">
<title>Node6&#45;&gt;Node4</title>
<path fill="none" stroke="#404040" d="M145.7302,-309.4627C145.0074,-294.0134 145.3711,-274.7213 149.5,-258 150.0613,-255.727 150.7026,-253.4448 151.4116,-251.1635"/>
<polygon fill="none" stroke="#404040" points="151.4295,-251.1134 149.6799,-244.1178 155.4645,-239.8122 157.2141,-246.8078 151.4295,-251.1134"/>
<text text-anchor="middle" x="177.5" y="-272" font-family="Helvetica,sans-Serif" font-size="10.00" fill="#000000"> +dataType</text>
</g>
<!-- Node7 -->
<g id="node7" class="node">
<title>Node7</title>
<polygon fill="none" stroke="#bfbfbf" points="202.5,-309.5 202.5,-366.5 252.5,-366.5 252.5,-309.5 202.5,-309.5"/>
<text text-anchor="middle" x="227.5" y="-354.5" font-family="Helvetica,sans-Serif" font-size="10.00" fill="#000000">uint8_t</text>
<polyline fill="none" stroke="#bfbfbf" points="202.5,-347.5 252.5,-347.5 "/>
<text text-anchor="middle" x="227.5" y="-335.5" font-family="Helvetica,sans-Serif" font-size="10.00" fill="#000000"> </text>
<polyline fill="none" stroke="#bfbfbf" points="202.5,-328.5 252.5,-328.5 "/>
<text text-anchor="middle" x="227.5" y="-316.5" font-family="Helvetica,sans-Serif" font-size="10.00" fill="#000000"> </text>
</g>
<!-- Node7&#45;&gt;Node4 -->
<g id="edge6" class="edge">
<title>Node7&#45;&gt;Node4</title>
<path fill="none" stroke="#404040" d="M220.0701,-309.3018C215.8395,-292.9612 210.347,-271.7465 205.0815,-251.4084"/>
<polygon fill="none" stroke="#404040" points="205.0264,-251.1954 199.6502,-246.3895 202.0187,-239.5784 207.3949,-244.3844 205.0264,-251.1954"/>
<text text-anchor="middle" x="255.5" y="-277.5" font-family="Helvetica,sans-Serif" font-size="10.00" fill="#000000"> +headerVersion</text>
<text text-anchor="middle" x="255.5" y="-266.5" font-family="Helvetica,sans-Serif" font-size="10.00" fill="#000000">+reserved_01</text>
</g>
<!-- Node8 -->
<g id="node8" class="node">
<title>Node8</title>
<polygon fill="none" stroke="#bfbfbf" points="304.5,-309.5 304.5,-366.5 360.5,-366.5 360.5,-309.5 304.5,-309.5"/>
<text text-anchor="middle" x="332.5" y="-354.5" font-family="Helvetica,sans-Serif" font-size="10.00" fill="#000000">uint32_t</text>
<polyline fill="none" stroke="#bfbfbf" points="304.5,-347.5 360.5,-347.5 "/>
<text text-anchor="middle" x="332.5" y="-335.5" font-family="Helvetica,sans-Serif" font-size="10.00" fill="#000000"> </text>
<polyline fill="none" stroke="#bfbfbf" points="304.5,-328.5 360.5,-328.5 "/>
<text text-anchor="middle" x="332.5" y="-316.5" font-family="Helvetica,sans-Serif" font-size="10.00" fill="#000000"> </text>
</g>
<!-- Node8&#45;&gt;Node4 -->
<g id="edge7" class="edge">
<title>Node8&#45;&gt;Node4</title>
<path fill="none" stroke="#404040" d="M325.5767,-309.1282C320.6023,-292.8375 312.6023,-272.8375 300.5,-258 287.5855,-242.1667 270.4074,-228.4942 253.3519,-217.3415"/>
<polygon fill="none" stroke="#404040" points="252.9581,-217.0949 245.7499,-217.3006 242.7876,-210.7261 249.9958,-210.5203 252.9581,-217.0949"/>
<text text-anchor="middle" x="342.5" y="-272" font-family="Helvetica,sans-Serif" font-size="10.00" fill="#000000"> +nWords</text>
</g>
</g>
</svg>
