<?xml version="1.0" encoding="UTF-8" standalone="no"?>
<!DOCTYPE svg PUBLIC "-//W3C//DTD SVG 1.1//EN"
 "http://www.w3.org/Graphics/SVG/1.1/DTD/svg11.dtd">
<!-- Generated by graphviz version 2.40.1 (20161225.0304)
 -->
<!-- Title: Bar Pages: 1 -->
<svg width="338pt" height="365pt"
 viewBox="0.00 0.00 337.50 365.00" xmlns="http://www.w3.org/2000/svg" xmlns:xlink="http://www.w3.org/1999/xlink">
<g id="graph0" class="graph" transform="scale(1 1) rotate(0) translate(4 361)">
<title>Bar</title>
<!-- Node2 -->
<g id="node1" class="node">
<title>Node2</title>
<polygon fill="#bfbfbf" stroke="#000000" points="213,-.5 213,-68.5 311,-68.5 311,-.5 213,-.5"/>
<text text-anchor="middle" x="262" y="-56.5" font-family="Helvetica,sans-Serif" font-size="10.00" fill="#000000">Bar</text>
<polyline fill="none" stroke="#000000" points="213,-49.5 311,-49.5 "/>
<text text-anchor="middle" x="262" y="-37.5" font-family="Helvetica,sans-Serif" font-size="10.00" fill="#000000"> </text>
<polyline fill="none" stroke="#000000" points="213,-30.5 311,-30.5 "/>
<text text-anchor="start" x="221" y="-18.5" font-family="Helvetica,sans-Serif" font-size="10.00" fill="#000000">+ someMethod()</text>
<text text-anchor="start" x="221" y="-7.5" font-family="Helvetica,sans-Serif" font-size="10.00" fill="#000000">+ a()</text>
</g>
<!-- Node3 -->
<g id="node2" class="node">
<title>Node3</title>
<g id="a_node2"><a xlink:href="../../d8/d5d/classFoo.html" target="_top" xlink:title="Dummy boost&#45;serializable struct to perform some tests. ">
<polygon fill="none" stroke="#000000" points="110.5,-106.5 110.5,-218.5 243.5,-218.5 243.5,-106.5 110.5,-106.5"/>
<text text-anchor="middle" x="177" y="-206.5" font-family="Helvetica,sans-Serif" font-size="10.00" fill="#000000">Foo</text>
<polyline fill="none" stroke="#000000" points="110.5,-199.5 243.5,-199.5 "/>
<text text-anchor="middle" x="177" y="-187.5" font-family="Helvetica,sans-Serif" font-size="10.00" fill="#000000"> </text>
<polyline fill="none" stroke="#000000" points="110.5,-180.5 243.5,-180.5 "/>
<text text-anchor="start" x="118.5" y="-168.5" font-family="Helvetica,sans-Serif" font-size="10.00" fill="#000000">+ Foo()</text>
<text text-anchor="start" x="118.5" y="-157.5" font-family="Helvetica,sans-Serif" font-size="10.00" fill="#000000">+ Foo()</text>
<text text-anchor="start" x="118.5" y="-146.5" font-family="Helvetica,sans-Serif" font-size="10.00" fill="#000000">+ serialize()</text>
<text text-anchor="start" x="118.5" y="-135.5" font-family="Helvetica,sans-Serif" font-size="10.00" fill="#000000">+ Foo()</text>
<text text-anchor="start" x="118.5" y="-124.5" font-family="Helvetica,sans-Serif" font-size="10.00" fill="#000000">+ someHiddenMethod()</text>
<text text-anchor="start" x="118.5" y="-113.5" font-family="Helvetica,sans-Serif" font-size="10.00" fill="#000000">+ a()</text>
</a>
</g>
</g>
<!-- Node3&#45;&gt;Node2 -->
<g id="edge1" class="edge">
<title>Node3&#45;&gt;Node2</title>
<path fill="none" stroke="#191970" d="M219.929,-97.854C226.6649,-87.7104 233.3866,-77.5885 239.4169,-68.5076"/>
<polygon fill="none" stroke="#191970" points="216.8986,-96.0906 214.2822,-106.3573 222.7299,-99.963 216.8986,-96.0906"/>
</g>
<!-- Node4 -->
<g id="node3" class="node">
<title>Node4</title>
<polygon fill="none" stroke="#bfbfbf" points="56,-299.5 56,-356.5 106,-356.5 106,-299.5 56,-299.5"/>
<text text-anchor="middle" x="81" y="-344.5" font-family="Helvetica,sans-Serif" font-size="10.00" fill="#000000">double</text>
<polyline fill="none" stroke="#bfbfbf" points="56,-337.5 106,-337.5 "/>
<text text-anchor="middle" x="81" y="-325.5" font-family="Helvetica,sans-Serif" font-size="10.00" fill="#000000"> </text>
<polyline fill="none" stroke="#bfbfbf" points="56,-318.5 106,-318.5 "/>
<text text-anchor="middle" x="81" y="-306.5" font-family="Helvetica,sans-Serif" font-size="10.00" fill="#000000"> </text>
</g>
<!-- Node4&#45;&gt;Node3 -->
<g id="edge2" class="edge">
<title>Node4&#45;&gt;Node3</title>
<path fill="none" stroke="#404040" d="M83.0371,-299.4452C85.362,-280.7237 90.3403,-256.2438 101,-237 102.5821,-234.1438 104.308,-231.3269 106.1502,-228.5575"/>
<polygon fill="none" stroke="#404040" points="106.2229,-228.4575 106.5167,-221.2523 113.2805,-218.7523 112.9868,-225.9575 106.2229,-228.4575"/>
<text text-anchor="middle" x="120" y="-256.5" font-family="Helvetica,sans-Serif" font-size="10.00" fill="#000000"> +fBar2</text>
</g>
<!-- Node5 -->
<g id="node4" class="node">
<title>Node5</title>
<g id="a_node4"><a xlink:href="../../d4/dc3/classfloat.html" target="_top" xlink:title="{float\n||}">
<polygon fill="none" stroke="#000000" points="0,-299.5 0,-356.5 38,-356.5 38,-299.5 0,-299.5"/>
<text text-anchor="middle" x="19" y="-344.5" font-family="Helvetica,sans-Serif" font-size="10.00" fill="#000000">float</text>
<polyline fill="none" stroke="#000000" points="0,-337.5 38,-337.5 "/>
<text text-anchor="middle" x="19" y="-325.5" font-family="Helvetica,sans-Serif" font-size="10.00" fill="#000000"> </text>
<polyline fill="none" stroke="#000000" points="0,-318.5 38,-318.5 "/>
<text text-anchor="middle" x="19" y="-306.5" font-family="Helvetica,sans-Serif" font-size="10.00" fill="#000000"> </text>
</a>
</g>
</g>
<!-- Node5&#45;&gt;Node3 -->
<g id="edge3" class="edge">
<title>Node5&#45;&gt;Node3</title>
<path fill="none" stroke="#404040" d="M28.6048,-299.4395C36.0786,-280.2475 47.897,-255.228 64,-237 74.4137,-225.2121 87.1073,-214.4951 100.1765,-205.095"/>
<polygon fill="none" stroke="#404040" points="100.3366,-204.9845 103.0021,-198.2841 110.2122,-198.1675 107.5468,-204.8679 100.3366,-204.9845"/>
<text text-anchor="middle" x="73" y="-256.5" font-family="Helvetica,sans-Serif" font-size="10.00" fill="#000000"> +y</text>
</g>
<!-- Node6 -->
<g id="node5" class="node">
<title>Node6</title>
<polygon fill="none" stroke="#bfbfbf" points="300.5,-299.5 300.5,-356.5 329.5,-356.5 329.5,-299.5 300.5,-299.5"/>
<text text-anchor="middle" x="315" y="-344.5" font-family="Helvetica,sans-Serif" font-size="10.00" fill="#000000">int</text>
<polyline fill="none" stroke="#bfbfbf" points="300.5,-337.5 329.5,-337.5 "/>
<text text-anchor="middle" x="315" y="-325.5" font-family="Helvetica,sans-Serif" font-size="10.00" fill="#000000"> </text>
<polyline fill="none" stroke="#bfbfbf" points="300.5,-318.5 329.5,-318.5 "/>
<text text-anchor="middle" x="315" y="-306.5" font-family="Helvetica,sans-Serif" font-size="10.00" fill="#000000"> </text>
</g>
<!-- Node6&#45;&gt;Node2 -->
<g id="edge7" class="edge">
<title>Node6&#45;&gt;Node2</title>
<path fill="none" stroke="#404040" d="M312.1483,-299.2228C310.2149,-281.2759 307.3964,-257.7296 304,-237 295.1423,-182.9385 281.9236,-121.3859 272.6888,-80.4759"/>
<polygon fill="none" stroke="#404040" points="272.6794,-80.4341 267.4489,-75.47 270.0193,-68.7326 275.2499,-73.6966 272.6794,-80.4341"/>
<text text-anchor="middle" x="314" y="-165.5" font-family="Helvetica,sans-Serif" font-size="10.00" fill="#000000"> +bar</text>
<text text-anchor="middle" x="314" y="-154.5" font-family="Helvetica,sans-Serif" font-size="10.00" fill="#000000">+foo</text>
</g>
<!-- Node6&#45;&gt;Node3 -->
<g id="edge4" class="edge">
<title>Node6&#45;&gt;Node3</title>
<path fill="none" stroke="#404040" d="M300.228,-312.5999C295.974,-308.1924 291.3165,-303.3929 287,-299 279.0705,-290.9301 275.6976,-290.1182 269,-281 255.937,-263.216 258.72,-255.031 246,-237 243.8834,-233.9996 241.6544,-230.9943 239.3454,-228.0047"/>
<polygon fill="none" stroke="#404040" points="239.254,-227.8909 232.3779,-225.7186 231.7384,-218.5358 238.6146,-220.7082 239.254,-227.8909"/>
<text text-anchor="middle" x="286.5" y="-273" font-family="Helvetica,sans-Serif" font-size="10.00" fill="#000000"> +foo</text>
<text text-anchor="middle" x="286.5" y="-262" font-family="Helvetica,sans-Serif" font-size="10.00" fill="#000000">+fBar1</text>
<text text-anchor="middle" x="286.5" y="-251" font-family="Helvetica,sans-Serif" font-size="10.00" fill="#000000">+x</text>
<text text-anchor="middle" x="286.5" y="-240" font-family="Helvetica,sans-Serif" font-size="10.00" fill="#000000">+y</text>
</g>
<!-- Node7 -->
<g id="node6" class="node">
<title>Node7</title>
<polygon fill="none" stroke="#bfbfbf" points="124,-299.5 124,-356.5 168,-356.5 168,-299.5 124,-299.5"/>
<text text-anchor="middle" x="146" y="-344.5" font-family="Helvetica,sans-Serif" font-size="10.00" fill="#000000">string</text>
<polyline fill="none" stroke="#bfbfbf" points="124,-337.5 168,-337.5 "/>
<text text-anchor="middle" x="146" y="-325.5" font-family="Helvetica,sans-Serif" font-size="10.00" fill="#000000"> </text>
<polyline fill="none" stroke="#bfbfbf" points="124,-318.5 168,-318.5 "/>
<text text-anchor="middle" x="146" y="-306.5" font-family="Helvetica,sans-Serif" font-size="10.00" fill="#000000"> </text>
</g>
<!-- Node7&#45;&gt;Node3 -->
<g id="edge5" class="edge">
<title>Node7&#45;&gt;Node3</title>
<path fill="none" stroke="#404040" d="M143.6237,-299.4363C142.7797,-281.3645 142.8891,-257.6074 147,-237 147.4313,-234.8378 147.9238,-232.6585 148.4683,-230.4724"/>
<polygon fill="none" stroke="#404040" points="148.5146,-230.3108 146.324,-223.4404 151.8234,-218.7759 154.0139,-225.6462 148.5146,-230.3108"/>
<text text-anchor="middle" x="166" y="-256.5" font-family="Helvetica,sans-Serif" font-size="10.00" fill="#000000"> +fBar4</text>
</g>
<!-- Node8 -->
<g id="node7" class="node">
<title>Node8</title>
<polygon fill="none" stroke="#bfbfbf" points="186,-299.5 186,-356.5 278,-356.5 278,-299.5 186,-299.5"/>
<text text-anchor="middle" x="232" y="-344.5" font-family="Helvetica,sans-Serif" font-size="10.00" fill="#000000">vector&lt; float &gt;</text>
<polyline fill="none" stroke="#bfbfbf" points="186,-337.5 278,-337.5 "/>
<text text-anchor="middle" x="232" y="-325.5" font-family="Helvetica,sans-Serif" font-size="10.00" fill="#000000"> </text>
<polyline fill="none" stroke="#bfbfbf" points="186,-318.5 278,-318.5 "/>
<text text-anchor="middle" x="232" y="-306.5" font-family="Helvetica,sans-Serif" font-size="10.00" fill="#000000"> </text>
</g>
<!-- Node8&#45;&gt;Node3 -->
<g id="edge6" class="edge">
<title>Node8&#45;&gt;Node3</title>
<path fill="none" stroke="#404040" d="M216.1425,-299.364C213.1932,-293.401 210.3159,-287.0788 208,-281 201.908,-265.0093 196.5829,-247.363 192.1444,-230.682"/>
<polygon fill="none" stroke="#404040" points="192.0628,-230.3647 186.6932,-225.5515 189.071,-218.7437 194.4406,-223.5569 192.0628,-230.3647"/>
<text text-anchor="middle" x="227" y="-256.5" font-family="Helvetica,sans-Serif" font-size="10.00" fill="#000000"> +fBar3</text>
</g>
</g>
</svg>
