<?xml version="1.0" encoding="UTF-8" standalone="no"?>
<!DOCTYPE svg PUBLIC "-//W3C//DTD SVG 1.1//EN"
 "http://www.w3.org/Graphics/SVG/1.1/DTD/svg11.dtd">
<!-- Generated by graphviz version 2.40.1 (20161225.0304)
 -->
<!-- Title: GPUCA_NAMESPACE::gpu::GPUTPCStartHitsSorter::GPUTPCSharedMemory Pages: 1 -->
<svg width="157pt" height="237pt"
 viewBox="0.00 0.00 157.00 237.00" xmlns="http://www.w3.org/2000/svg" xmlns:xlink="http://www.w3.org/1999/xlink">
<g id="graph0" class="graph" transform="scale(1 1) rotate(0) translate(4 233)">
<title>GPUCA_NAMESPACE::gpu::GPUTPCStartHitsSorter::GPUTPCSharedMemory</title>
<!-- Node1 -->
<g id="node1" class="node">
<title>Node1</title>
<polygon fill="#bfbfbf" stroke="#000000" points="0,-.5 0,-101.5 149,-101.5 149,-.5 0,-.5"/>
<text text-anchor="start" x="8" y="-89.5" font-family="Helvetica,sans-Serif" font-size="10.00" fill="#000000">GPUCA_NAMESPACE::gpu</text>
<text text-anchor="start" x="8" y="-78.5" font-family="Helvetica,sans-Serif" font-size="10.00" fill="#000000">::GPUTPCStartHitsSorter</text>
<text text-anchor="middle" x="74.5" y="-67.5" font-family="Helvetica,sans-Serif" font-size="10.00" fill="#000000">::GPUTPCSharedMemory</text>
<polyline fill="none" stroke="#000000" points="0,-60.5 149,-60.5 "/>
<text text-anchor="middle" x="74.5" y="-48.5" font-family="Helvetica,sans-Serif" font-size="10.00" fill="#000000"> </text>
<polyline fill="none" stroke="#000000" points="0,-41.5 149,-41.5 "/>
<text text-anchor="start" x="8" y="-29.5" font-family="Helvetica,sans-Serif" font-size="10.00" fill="#000000">+ GPUTPCSharedMemory()</text>
<text text-anchor="start" x="8" y="-18.5" font-family="Helvetica,sans-Serif" font-size="10.00" fill="#000000">+ GPUTPCSharedMemory()</text>
<text text-anchor="start" x="8" y="-7.5" font-family="Helvetica,sans-Serif" font-size="10.00" fill="#000000">+ operator=()</text>
</g>
<!-- Node2 -->
<g id="node2" class="node">
<title>Node2</title>
<polygon fill="none" stroke="#bfbfbf" points="60,-171.5 60,-228.5 89,-228.5 89,-171.5 60,-171.5"/>
<text text-anchor="middle" x="74.5" y="-216.5" font-family="Helvetica,sans-Serif" font-size="10.00" fill="#000000">int</text>
<polyline fill="none" stroke="#bfbfbf" points="60,-209.5 89,-209.5 "/>
<text text-anchor="middle" x="74.5" y="-197.5" font-family="Helvetica,sans-Serif" font-size="10.00" fill="#000000"> </text>
<polyline fill="none" stroke="#bfbfbf" points="60,-190.5 89,-190.5 "/>
<text text-anchor="middle" x="74.5" y="-178.5" font-family="Helvetica,sans-Serif" font-size="10.00" fill="#000000"> </text>
</g>
<!-- Node2&#45;&gt;Node1 -->
<g id="edge1" class="edge">
<title>Node2&#45;&gt;Node1</title>
<path fill="none" stroke="#404040" d="M74.5,-171.2713C74.5,-154.9541 74.5,-133.854 74.5,-113.8935"/>
<polygon fill="none" stroke="#404040" points="74.5001,-113.6655 70.5,-107.6655 74.5,-101.6655 78.5,-107.6655 74.5001,-113.6655"/>
<text text-anchor="middle" x="111.5" y="-145" font-family="Helvetica,sans-Serif" font-size="10.00" fill="#000000"> #mStartOffset</text>
<text text-anchor="middle" x="111.5" y="-134" font-family="Helvetica,sans-Serif" font-size="10.00" fill="#000000">#mNRows</text>
<text text-anchor="middle" x="111.5" y="-123" font-family="Helvetica,sans-Serif" font-size="10.00" fill="#000000">#mStartRow</text>
</g>
</g>
</svg>
