<?xml version="1.0" encoding="UTF-8" standalone="no"?>
<!DOCTYPE svg PUBLIC "-//W3C//DTD SVG 1.1//EN"
 "http://www.w3.org/Graphics/SVG/1.1/DTD/svg11.dtd">
<!-- Generated by graphviz version 2.40.1 (20161225.0304)
 -->
<!-- Title: o2::framework::DeviceConnectionEdge Pages: 1 -->
<svg width="305pt" height="226pt"
 viewBox="0.00 0.00 305.00 226.00" xmlns="http://www.w3.org/2000/svg" xmlns:xlink="http://www.w3.org/1999/xlink">
<g id="graph0" class="graph" transform="scale(1 1) rotate(0) translate(4 222)">
<title>o2::framework::DeviceConnectionEdge</title>
<!-- Node1 -->
<g id="node1" class="node">
<title>Node1</title>
<polygon fill="#bfbfbf" stroke="#000000" points="0,-.5 0,-57.5 206,-57.5 206,-.5 0,-.5"/>
<text text-anchor="middle" x="103" y="-45.5" font-family="Helvetica,sans-Serif" font-size="10.00" fill="#000000">o2::framework::DeviceConnectionEdge</text>
<polyline fill="none" stroke="#000000" points="0,-38.5 206,-38.5 "/>
<text text-anchor="middle" x="103" y="-26.5" font-family="Helvetica,sans-Serif" font-size="10.00" fill="#000000"> </text>
<polyline fill="none" stroke="#000000" points="0,-19.5 206,-19.5 "/>
<text text-anchor="middle" x="103" y="-7.5" font-family="Helvetica,sans-Serif" font-size="10.00" fill="#000000"> </text>
</g>
<!-- Node2 -->
<g id="node2" class="node">
<title>Node2</title>
<polygon fill="none" stroke="#bfbfbf" points="2,-160.5 2,-217.5 40,-217.5 40,-160.5 2,-160.5"/>
<text text-anchor="middle" x="21" y="-205.5" font-family="Helvetica,sans-Serif" font-size="10.00" fill="#000000">bool</text>
<polyline fill="none" stroke="#bfbfbf" points="2,-198.5 40,-198.5 "/>
<text text-anchor="middle" x="21" y="-186.5" font-family="Helvetica,sans-Serif" font-size="10.00" fill="#000000"> </text>
<polyline fill="none" stroke="#bfbfbf" points="2,-179.5 40,-179.5 "/>
<text text-anchor="middle" x="21" y="-167.5" font-family="Helvetica,sans-Serif" font-size="10.00" fill="#000000"> </text>
</g>
<!-- Node2&#45;&gt;Node1 -->
<g id="edge1" class="edge">
<title>Node2&#45;&gt;Node1</title>
<path fill="none" stroke="#404040" d="M20.0761,-160.0219C20.5982,-135.8856 24.4485,-101.4673 40,-76 42.0624,-72.6226 44.466,-69.4073 47.107,-66.3606"/>
<polygon fill="none" stroke="#404040" points="47.2007,-66.2658 48.5755,-59.187 55.6386,-57.7333 54.2638,-64.8122 47.2007,-66.2658"/>
<text text-anchor="middle" x="69.5" y="-106.5" font-family="Helvetica,sans-Serif" font-size="10.00" fill="#000000"> +isForward</text>
</g>
<!-- Node3 -->
<g id="node3" class="node">
<title>Node3</title>
<polygon fill="none" stroke="#bfbfbf" points="80.5,-160.5 80.5,-217.5 125.5,-217.5 125.5,-160.5 80.5,-160.5"/>
<text text-anchor="middle" x="103" y="-205.5" font-family="Helvetica,sans-Serif" font-size="10.00" fill="#000000">size_t</text>
<polyline fill="none" stroke="#bfbfbf" points="80.5,-198.5 125.5,-198.5 "/>
<text text-anchor="middle" x="103" y="-186.5" font-family="Helvetica,sans-Serif" font-size="10.00" fill="#000000"> </text>
<polyline fill="none" stroke="#bfbfbf" points="80.5,-179.5 125.5,-179.5 "/>
<text text-anchor="middle" x="103" y="-167.5" font-family="Helvetica,sans-Serif" font-size="10.00" fill="#000000"> </text>
</g>
<!-- Node3&#45;&gt;Node1 -->
<g id="edge2" class="edge">
<title>Node3&#45;&gt;Node1</title>
<path fill="none" stroke="#404040" d="M103,-160.3952C103,-135.218 103,-98.2632 103,-69.9524"/>
<polygon fill="none" stroke="#404040" points="103.0001,-69.6264 99,-63.6265 103,-57.6264 107,-63.6264 103.0001,-69.6264"/>
<text text-anchor="middle" x="157.5" y="-134" font-family="Helvetica,sans-Serif" font-size="10.00" fill="#000000"> +consumer</text>
<text text-anchor="middle" x="157.5" y="-123" font-family="Helvetica,sans-Serif" font-size="10.00" fill="#000000">+outputGlobalIndex</text>
<text text-anchor="middle" x="157.5" y="-112" font-family="Helvetica,sans-Serif" font-size="10.00" fill="#000000">+producerTimeIndex</text>
<text text-anchor="middle" x="157.5" y="-101" font-family="Helvetica,sans-Serif" font-size="10.00" fill="#000000">+producer</text>
<text text-anchor="middle" x="157.5" y="-90" font-family="Helvetica,sans-Serif" font-size="10.00" fill="#000000">+consumerInputIndex</text>
<text text-anchor="middle" x="157.5" y="-79" font-family="Helvetica,sans-Serif" font-size="10.00" fill="#000000">+timeIndex</text>
</g>
<!-- Node4 -->
<g id="node4" class="node">
<title>Node4</title>
<polygon fill="none" stroke="#bfbfbf" points="173,-160.5 173,-217.5 297,-217.5 297,-160.5 173,-160.5"/>
<text text-anchor="middle" x="235" y="-205.5" font-family="Helvetica,sans-Serif" font-size="10.00" fill="#000000">enum ConnectionKind</text>
<polyline fill="none" stroke="#bfbfbf" points="173,-198.5 297,-198.5 "/>
<text text-anchor="middle" x="235" y="-186.5" font-family="Helvetica,sans-Serif" font-size="10.00" fill="#000000"> </text>
<polyline fill="none" stroke="#bfbfbf" points="173,-179.5 297,-179.5 "/>
<text text-anchor="middle" x="235" y="-167.5" font-family="Helvetica,sans-Serif" font-size="10.00" fill="#000000"> </text>
</g>
<!-- Node4&#45;&gt;Node1 -->
<g id="edge3" class="edge">
<title>Node4&#45;&gt;Node1</title>
<path fill="none" stroke="#404040" d="M236.5155,-160.3929C236.3239,-135.5018 232.2195,-99.7844 213,-76 209.7328,-71.9567 206.0528,-68.2548 202.072,-64.8662"/>
<polygon fill="none" stroke="#404040" points="201.8831,-64.7242 194.6835,-64.317 192.2904,-57.5145 199.49,-57.9218 201.8831,-64.7242"/>
<text text-anchor="middle" x="251.5" y="-106.5" font-family="Helvetica,sans-Serif" font-size="10.00" fill="#000000"> +kind</text>
</g>
</g>
</svg>
