<?xml version="1.0" encoding="UTF-8" standalone="no"?>
<!DOCTYPE svg PUBLIC "-//W3C//DTD SVG 1.1//EN"
 "http://www.w3.org/Graphics/SVG/1.1/DTD/svg11.dtd">
<!-- Generated by graphviz version 2.40.1 (20161225.0304)
 -->
<!-- Title: GPUCA_NAMESPACE::gpu::GPUTPCSharedMemoryData::count_t Pages: 1 -->
<svg width="297pt" height="331pt"
 viewBox="0.00 0.00 297.00 331.00" xmlns="http://www.w3.org/2000/svg" xmlns:xlink="http://www.w3.org/1999/xlink">
<g id="graph0" class="graph" transform="scale(1 1) rotate(0) translate(4 327)">
<title>GPUCA_NAMESPACE::gpu::GPUTPCSharedMemoryData::count_t</title>
<!-- Node1 -->
<g id="node1" class="node">
<title>Node1</title>
<polygon fill="#bfbfbf" stroke="#000000" points="49.5,-.5 49.5,-79.5 208.5,-79.5 208.5,-.5 49.5,-.5"/>
<text text-anchor="start" x="57.5" y="-67.5" font-family="Helvetica,sans-Serif" font-size="10.00" fill="#000000">GPUCA_NAMESPACE::gpu</text>
<text text-anchor="start" x="57.5" y="-56.5" font-family="Helvetica,sans-Serif" font-size="10.00" fill="#000000">::GPUTPCSharedMemoryData</text>
<text text-anchor="middle" x="129" y="-45.5" font-family="Helvetica,sans-Serif" font-size="10.00" fill="#000000">::count_t</text>
<polyline fill="none" stroke="#000000" points="49.5,-38.5 208.5,-38.5 "/>
<text text-anchor="middle" x="129" y="-26.5" font-family="Helvetica,sans-Serif" font-size="10.00" fill="#000000"> </text>
<polyline fill="none" stroke="#000000" points="49.5,-19.5 208.5,-19.5 "/>
<text text-anchor="middle" x="129" y="-7.5" font-family="Helvetica,sans-Serif" font-size="10.00" fill="#000000"> </text>
</g>
<!-- Node2 -->
<g id="node2" class="node">
<title>Node2</title>
<g id="a_node2"><a xlink:href="../../dd/d68/structGPUCA__NAMESPACE_1_1gpu_1_1ChargePos.html" target="_top" xlink:title="{GPUCA_NAMESPACE::gpu\l::ChargePos\n||}">
<polygon fill="none" stroke="#000000" points="0,-138.5 0,-206.5 140,-206.5 140,-138.5 0,-138.5"/>
<text text-anchor="start" x="8" y="-194.5" font-family="Helvetica,sans-Serif" font-size="10.00" fill="#000000">GPUCA_NAMESPACE::gpu</text>
<text text-anchor="middle" x="70" y="-183.5" font-family="Helvetica,sans-Serif" font-size="10.00" fill="#000000">::ChargePos</text>
<polyline fill="none" stroke="#000000" points="0,-176.5 140,-176.5 "/>
<text text-anchor="middle" x="70" y="-164.5" font-family="Helvetica,sans-Serif" font-size="10.00" fill="#000000"> </text>
<polyline fill="none" stroke="#000000" points="0,-157.5 140,-157.5 "/>
<text text-anchor="middle" x="70" y="-145.5" font-family="Helvetica,sans-Serif" font-size="10.00" fill="#000000"> </text>
</a>
</g>
</g>
<!-- Node2&#45;&gt;Node1 -->
<g id="edge1" class="edge">
<title>Node2&#45;&gt;Node1</title>
<path fill="none" stroke="#404040" d="M85.194,-138.378C91.623,-123.9398 99.2482,-106.8156 106.3201,-90.9337"/>
<polygon fill="none" stroke="#404040" points="106.4654,-90.6073 105.252,-83.499 111.3468,-79.645 112.5602,-86.7533 106.4654,-90.6073"/>
<text text-anchor="middle" x="134" y="-106.5" font-family="Helvetica,sans-Serif" font-size="10.00" fill="#000000"> +posBcast1</text>
</g>
<!-- Node3 -->
<g id="node3" class="node">
<title>Node3</title>
<polygon fill="none" stroke="#bfbfbf" points="46.5,-265.5 46.5,-322.5 93.5,-322.5 93.5,-265.5 46.5,-265.5"/>
<text text-anchor="middle" x="70" y="-310.5" font-family="Helvetica,sans-Serif" font-size="10.00" fill="#000000">ushort</text>
<polyline fill="none" stroke="#bfbfbf" points="46.5,-303.5 93.5,-303.5 "/>
<text text-anchor="middle" x="70" y="-291.5" font-family="Helvetica,sans-Serif" font-size="10.00" fill="#000000"> </text>
<polyline fill="none" stroke="#bfbfbf" points="46.5,-284.5 93.5,-284.5 "/>
<text text-anchor="middle" x="70" y="-272.5" font-family="Helvetica,sans-Serif" font-size="10.00" fill="#000000"> </text>
</g>
<!-- Node3&#45;&gt;Node2 -->
<g id="edge2" class="edge">
<title>Node3&#45;&gt;Node2</title>
<path fill="none" stroke="#404040" d="M70,-265.2062C70,-251.3632 70,-234.4255 70,-218.8327"/>
<polygon fill="none" stroke="#404040" points="70.0001,-218.7007 66,-212.7008 70,-206.7007 74,-212.7007 70.0001,-218.7007"/>
<text text-anchor="middle" x="88" y="-239" font-family="Helvetica,sans-Serif" font-size="10.00" fill="#000000"> +gpad</text>
<text text-anchor="middle" x="88" y="-228" font-family="Helvetica,sans-Serif" font-size="10.00" fill="#000000">+time</text>
</g>
<!-- Node4 -->
<g id="node4" class="node">
<title>Node4</title>
<polygon fill="none" stroke="#bfbfbf" points="158.5,-144 158.5,-201 219.5,-201 219.5,-144 158.5,-144"/>
<text text-anchor="middle" x="189" y="-189" font-family="Helvetica,sans-Serif" font-size="10.00" fill="#000000">unsigned</text>
<polyline fill="none" stroke="#bfbfbf" points="158.5,-182 219.5,-182 "/>
<text text-anchor="middle" x="189" y="-170" font-family="Helvetica,sans-Serif" font-size="10.00" fill="#000000"> </text>
<polyline fill="none" stroke="#bfbfbf" points="158.5,-163 219.5,-163 "/>
<text text-anchor="middle" x="189" y="-151" font-family="Helvetica,sans-Serif" font-size="10.00" fill="#000000"> </text>
</g>
<!-- Node4&#45;&gt;Node1 -->
<g id="edge3" class="edge">
<title>Node4&#45;&gt;Node1</title>
<path fill="none" stroke="#404040" d="M182.6345,-143.8405C178.9701,-129.6855 173.7422,-112.5636 167,-98 165.8052,-95.4191 164.5073,-92.8207 163.1355,-90.2298"/>
<polygon fill="none" stroke="#404040" points="163.0755,-90.1241 156.6359,-86.8789 157.1546,-79.6864 163.5943,-82.9316 163.0755,-90.1241"/>
<text text-anchor="middle" x="232" y="-112" font-family="Helvetica,sans-Serif" font-size="10.00" fill="#000000"> +buf</text>
<text text-anchor="middle" x="232" y="-101" font-family="Helvetica,sans-Serif" font-size="10.00" fill="#000000">+aboveThresholdBcast</text>
</g>
</g>
</svg>
