<?xml version="1.0" encoding="UTF-8" standalone="no"?>
<!DOCTYPE svg PUBLIC "-//W3C//DTD SVG 1.1//EN"
 "http://www.w3.org/Graphics/SVG/1.1/DTD/svg11.dtd">
<!-- Generated by graphviz version 2.40.1 (20161225.0304)
 -->
<!-- Title: o2::framework::DeviceSpec Pages: 1 -->
<!--zoomable 430 -->
<svg id="main" version="1.1" xmlns="http://www.w3.org/2000/svg" xmlns:xlink="http://www.w3.org/1999/xlink" xml:space="preserve" onload="init(evt)">
<style type="text/css"><![CDATA[
.edge:hover path { stroke: red; }
.edge:hover polygon { stroke: red; fill: red; }
]]></style>
<script type="text/javascript"><![CDATA[
var edges = document.getElementsByTagName('g');
if (edges && edges.length) {
  for (var i=0;i<edges.length;i++) {
    if (edges[i].id.substr(0,4)=='edge') {
      edges[i].setAttribute('class','edge');
    }
  }
}
]]></script>
        <defs>
                <circle id="rim" cx="0" cy="0" r="7"/>
                <circle id="rim2" cx="0" cy="0" r="3.5"/>
                <g id="zoomPlus">
                        <use xlink:href="#rim" fill="#404040">
                                <set attributeName="fill" to="#808080" begin="zoomplus.mouseover" end="zoomplus.mouseout"/>
                        </use>
                        <path d="M-4,0h8M0,-4v8" fill="none" stroke="white" stroke-width="1.5" pointer-events="none"/>
                </g>
                <g id="zoomMin">
                        <use xlink:href="#rim" fill="#404040">
                                <set attributeName="fill" to="#808080" begin="zoomminus.mouseover" end="zoomminus.mouseout"/>
                        </use>
                        <path d="M-4,0h8" fill="none" stroke="white" stroke-width="1.5" pointer-events="none"/>
                </g>
                <g id="dirArrow">
                        <path fill="none" stroke="white" stroke-width="1.5" d="M0,-3.0v7 M-2.5,-0.5L0,-3.0L2.5,-0.5"/>
                </g>
               <g id="resetDef">
                       <use xlink:href="#rim2" fill="#404040">
                               <set attributeName="fill" to="#808080" begin="reset.mouseover" end="reset.mouseout"/>
                       </use>
               </g>
        </defs>

<script type="text/javascript">
var viewWidth = 1960;
var viewHeight = 430;
var sectionId = 'dynsection-0';
</script>
<script xlink:href="../../svgpan.js"/>
<svg id="graph" class="graph">
<g id="viewport">
<title>o2::framework::DeviceSpec</title>
<!-- Node1 -->
<g id="node1" class="node">
<title>Node1</title>
<polygon fill="#bfbfbf" stroke="#000000" points="894.5,-.5 894.5,-57.5 1045.5,-57.5 1045.5,-.5 894.5,-.5"/>
<text text-anchor="middle" x="970" y="-45.5" font-family="Helvetica,sans-Serif" font-size="10.00" fill="#000000">o2::framework::DeviceSpec</text>
<polyline fill="none" stroke="#000000" points="894.5,-38.5 1045.5,-38.5 "/>
<text text-anchor="middle" x="970" y="-26.5" font-family="Helvetica,sans-Serif" font-size="10.00" fill="#000000"> </text>
<polyline fill="none" stroke="#000000" points="894.5,-19.5 1045.5,-19.5 "/>
<text text-anchor="middle" x="970" y="-7.5" font-family="Helvetica,sans-Serif" font-size="10.00" fill="#000000"> </text>
</g>
<!-- Node2 -->
<g id="node2" class="node">
<title>Node2</title>
<g id="a_node2"><a xlink:href="../../d4/d18/structo2_1_1framework_1_1ComputingResource.html" target="_top" xlink:title="A computing resource which can be offered to run a device. ">
<polygon fill="none" stroke="#000000" points="41.5,-166 41.5,-245 188.5,-245 188.5,-166 41.5,-166"/>
<text text-anchor="start" x="49.5" y="-233" font-family="Helvetica,sans-Serif" font-size="10.00" fill="#000000">o2::framework::Computing</text>
<text text-anchor="middle" x="115" y="-222" font-family="Helvetica,sans-Serif" font-size="10.00" fill="#000000">Resource</text>
<polyline fill="none" stroke="#000000" points="41.5,-215 188.5,-215 "/>
<text text-anchor="middle" x="115" y="-203" font-family="Helvetica,sans-Serif" font-size="10.00" fill="#000000"> </text>
<polyline fill="none" stroke="#000000" points="41.5,-196 188.5,-196 "/>
<text text-anchor="start" x="49.5" y="-184" font-family="Helvetica,sans-Serif" font-size="10.00" fill="#000000">+ ComputingResource()</text>
<text text-anchor="start" x="49.5" y="-173" font-family="Helvetica,sans-Serif" font-size="10.00" fill="#000000">+ ComputingResource()</text>
</a>
</g>
</g>
<!-- Node2&#45;&gt;Node1 -->
<g id="edge1" class="edge">
<title>Node2&#45;&gt;Node1</title>
<path fill="none" stroke="#404040" d="M123.6114,-165.8176C132.3858,-135.7534 149.2245,-96.2739 180,-76 208.9211,-56.9477 682.4604,-38.748 882.2152,-31.8793"/>
<polygon fill="none" stroke="#404040" points="882.4025,-31.873 888.2623,-27.6703 894.3955,-31.4629 888.5357,-35.6656 882.4025,-31.873"/>
<text text-anchor="middle" x="207" y="-95.5" font-family="Helvetica,sans-Serif" font-size="10.00" fill="#000000"> +resource</text>
</g>
<!-- Node3 -->
<g id="node3" class="node">
<title>Node3</title>
<g id="a_node3"><a xlink:href="../../d4/dc3/classfloat.html" target="_top" xlink:title="{float\n||}">
<polygon fill="none" stroke="#000000" points="0,-353.5 0,-410.5 38,-410.5 38,-353.5 0,-353.5"/>
<text text-anchor="middle" x="19" y="-398.5" font-family="Helvetica,sans-Serif" font-size="10.00" fill="#000000">float</text>
<polyline fill="none" stroke="#000000" points="0,-391.5 38,-391.5 "/>
<text text-anchor="middle" x="19" y="-379.5" font-family="Helvetica,sans-Serif" font-size="10.00" fill="#000000"> </text>
<polyline fill="none" stroke="#000000" points="0,-372.5 38,-372.5 "/>
<text text-anchor="middle" x="19" y="-360.5" font-family="Helvetica,sans-Serif" font-size="10.00" fill="#000000"> </text>
</a>
</g>
</g>
<!-- Node3&#45;&gt;Node2 -->
<g id="edge2" class="edge">
<title>Node3&#45;&gt;Node2</title>
<path fill="none" stroke="#404040" d="M20.6968,-353.237C22.7338,-334.6541 27.2037,-310.4092 37,-291 43.5779,-277.9674 52.7049,-265.4454 62.4042,-254.194"/>
<polygon fill="none" stroke="#404040" points="62.6063,-253.9698 63.6541,-246.8352 70.6429,-245.0583 69.5951,-252.1929 62.6063,-253.9698"/>
<text text-anchor="middle" x="62" y="-310.5" font-family="Helvetica,sans-Serif" font-size="10.00" fill="#000000"> +cpu</text>
<text text-anchor="middle" x="62" y="-299.5" font-family="Helvetica,sans-Serif" font-size="10.00" fill="#000000">+memory</text>
</g>
<!-- Node4 -->
<g id="node4" class="node">
<title>Node4</title>
<polygon fill="none" stroke="#bfbfbf" points="236,-353.5 236,-410.5 280,-410.5 280,-353.5 236,-353.5"/>
<text text-anchor="middle" x="258" y="-398.5" font-family="Helvetica,sans-Serif" font-size="10.00" fill="#000000">string</text>
<polyline fill="none" stroke="#bfbfbf" points="236,-391.5 280,-391.5 "/>
<text text-anchor="middle" x="258" y="-379.5" font-family="Helvetica,sans-Serif" font-size="10.00" fill="#000000"> </text>
<polyline fill="none" stroke="#bfbfbf" points="236,-372.5 280,-372.5 "/>
<text text-anchor="middle" x="258" y="-360.5" font-family="Helvetica,sans-Serif" font-size="10.00" fill="#000000"> </text>
</g>
<!-- Node4&#45;&gt;Node1 -->
<g id="edge15" class="edge">
<title>Node4&#45;&gt;Node1</title>
<path fill="none" stroke="#404040" d="M253.7273,-353.1321C245.9284,-296.0229 232.3418,-171.266 257,-138 313.4294,-61.8719 368.0081,-94.2281 461,-76 607.0301,-47.3755 780.1397,-36.0848 882.2007,-31.7014"/>
<polygon fill="none" stroke="#404040" points="882.2987,-31.6974 888.1278,-27.4523 894.2884,-31.2004 888.4592,-35.4455 882.2987,-31.6974"/>
<text text-anchor="middle" x="275.5" y="-208.5" font-family="Helvetica,sans-Serif" font-size="10.00" fill="#000000"> +id</text>
<text text-anchor="middle" x="275.5" y="-197.5" font-family="Helvetica,sans-Serif" font-size="10.00" fill="#000000">+name</text>
</g>
<!-- Node4&#45;&gt;Node2 -->
<g id="edge3" class="edge">
<title>Node4&#45;&gt;Node2</title>
<path fill="none" stroke="#404040" d="M235.7432,-371.0251C217.0574,-360.9089 190.6574,-344.3945 173,-324 155.9559,-304.314 142.6118,-278.7435 133.0426,-256.397"/>
<polygon fill="none" stroke="#404040" points="132.9426,-256.1534 126.9628,-252.1232 128.383,-245.0533 134.3628,-249.0835 132.9426,-256.1534"/>
<text text-anchor="middle" x="203.5" y="-305" font-family="Helvetica,sans-Serif" font-size="10.00" fill="#000000"> +hostname</text>
</g>
<!-- Node6 -->
<g id="node6" class="node">
<title>Node6</title>
<g id="a_node6"><a xlink:href="../../d0/d80/structo2_1_1framework_1_1DispatchPolicy.html" target="_top" xlink:title="{o2::framework::DispatchPolicy\n||+ createDefaultPolicies()\l}">
<polygon fill="none" stroke="#000000" points="1201,-177 1201,-234 1367,-234 1367,-177 1201,-177"/>
<text text-anchor="middle" x="1284" y="-222" font-family="Helvetica,sans-Serif" font-size="10.00" fill="#000000">o2::framework::DispatchPolicy</text>
<polyline fill="none" stroke="#000000" points="1201,-215 1367,-215 "/>
<text text-anchor="middle" x="1284" y="-203" font-family="Helvetica,sans-Serif" font-size="10.00" fill="#000000"> </text>
<polyline fill="none" stroke="#000000" points="1201,-196 1367,-196 "/>
<text text-anchor="start" x="1209" y="-184" font-family="Helvetica,sans-Serif" font-size="10.00" fill="#000000">+ createDefaultPolicies()</text>
</a>
</g>
</g>
<!-- Node4&#45;&gt;Node6 -->
<g id="edge8" class="edge">
<title>Node4&#45;&gt;Node6</title>
<path fill="none" stroke="#404040" d="M280.2252,-355.3869C285.8294,-350.1751 292.2039,-345.3064 299,-342 353.431,-315.5185 374.891,-337.0431 434,-324 482.1823,-313.368 491.3264,-299.0901 540,-291 611.4913,-279.1174 1123.4452,-296.5041 1192,-273 1211.2151,-266.4121 1229.7973,-254.2723 1245.1708,-242.0851"/>
<polygon fill="none" stroke="#404040" points="1245.5404,-241.7792 1247.6118,-234.8719 1254.7844,-234.1274 1252.713,-241.0346 1245.5404,-241.7792"/>
<text text-anchor="middle" x="560" y="-305" font-family="Helvetica,sans-Serif" font-size="10.00" fill="#000000"> +name</text>
</g>
<!-- Node15 -->
<g id="node15" class="node">
<title>Node15</title>
<g id="a_node15"><a xlink:href="../../d6/d43/structo2_1_1framework_1_1CompletionPolicy.html" target="_top" xlink:title="{o2::framework::Completion\lPolicy\n||+ createDefaultPolicies()\l}">
<polygon fill="none" stroke="#000000" points="303,-171.5 303,-239.5 453,-239.5 453,-171.5 303,-171.5"/>
<text text-anchor="start" x="311" y="-227.5" font-family="Helvetica,sans-Serif" font-size="10.00" fill="#000000">o2::framework::Completion</text>
<text text-anchor="middle" x="378" y="-216.5" font-family="Helvetica,sans-Serif" font-size="10.00" fill="#000000">Policy</text>
<polyline fill="none" stroke="#000000" points="303,-209.5 453,-209.5 "/>
<text text-anchor="middle" x="378" y="-197.5" font-family="Helvetica,sans-Serif" font-size="10.00" fill="#000000"> </text>
<polyline fill="none" stroke="#000000" points="303,-190.5 453,-190.5 "/>
<text text-anchor="start" x="311" y="-178.5" font-family="Helvetica,sans-Serif" font-size="10.00" fill="#000000">+ createDefaultPolicies()</text>
</a>
</g>
</g>
<!-- Node4&#45;&gt;Node15 -->
<g id="edge19" class="edge">
<title>Node4&#45;&gt;Node15</title>
<path fill="none" stroke="#404040" d="M277.5471,-353.2494C296.604,-325.2199 325.852,-282.2011 347.8824,-249.798"/>
<polygon fill="none" stroke="#404040" points="348.0124,-249.6066 348.0781,-242.3958 354.7594,-239.683 354.6938,-246.8938 348.0124,-249.6066"/>
<text text-anchor="middle" x="338" y="-305" font-family="Helvetica,sans-Serif" font-size="10.00" fill="#000000"> +name</text>
</g>
<!-- Node5 -->
<g id="node5" class="node">
<title>Node5</title>
<polygon fill="none" stroke="#bfbfbf" points="61.5,-353.5 61.5,-410.5 122.5,-410.5 122.5,-353.5 61.5,-353.5"/>
<text text-anchor="middle" x="92" y="-398.5" font-family="Helvetica,sans-Serif" font-size="10.00" fill="#000000">unsigned</text>
<polyline fill="none" stroke="#bfbfbf" points="61.5,-391.5 122.5,-391.5 "/>
<text text-anchor="middle" x="92" y="-379.5" font-family="Helvetica,sans-Serif" font-size="10.00" fill="#000000"> </text>
<polyline fill="none" stroke="#bfbfbf" points="61.5,-372.5 122.5,-372.5 "/>
<text text-anchor="middle" x="92" y="-360.5" font-family="Helvetica,sans-Serif" font-size="10.00" fill="#000000"> </text>
</g>
<!-- Node5&#45;&gt;Node2 -->
<g id="edge4" class="edge">
<title>Node5&#45;&gt;Node2</title>
<path fill="none" stroke="#404040" d="M90.553,-353.1848C90.0866,-335.2236 90.2671,-311.6756 93,-291 94.475,-279.8411 96.9141,-268.0485 99.6429,-256.904"/>
<polygon fill="none" stroke="#404040" points="99.684,-256.7446 97.312,-249.9348 102.6857,-245.1261 105.0577,-251.9359 99.684,-256.7446"/>
<text text-anchor="middle" x="121.5" y="-316" font-family="Helvetica,sans-Serif" font-size="10.00" fill="#000000"> +startPort</text>
<text text-anchor="middle" x="121.5" y="-305" font-family="Helvetica,sans-Serif" font-size="10.00" fill="#000000">+usedPorts</text>
<text text-anchor="middle" x="121.5" y="-294" font-family="Helvetica,sans-Serif" font-size="10.00" fill="#000000">+lastPort</text>
</g>
<!-- Node6&#45;&gt;Node1 -->
<g id="edge5" class="edge">
<title>Node6&#45;&gt;Node1</title>
<path fill="none" stroke="#404040" d="M1253.5201,-176.9369C1221.2772,-148.0331 1167.8497,-103.7593 1115,-76 1097.0667,-66.5805 1076.8938,-58.5919 1057.424,-52.0207"/>
<polygon fill="none" stroke="#404040" points="1057.1521,-51.9322 1050.208,-53.8763 1045.7426,-48.2141 1052.6867,-46.27 1057.1521,-51.9322"/>
<text text-anchor="middle" x="1224" y="-95.5" font-family="Helvetica,sans-Serif" font-size="10.00" fill="#000000"> +dispatchPolicy</text>
</g>
<!-- Node7 -->
<g id="node7" class="node">
<title>Node7</title>
<polygon fill="none" stroke="#bfbfbf" points="1104.5,-348 1104.5,-416 1229.5,-416 1229.5,-348 1104.5,-348"/>
<text text-anchor="start" x="1112.5" y="-404" font-family="Helvetica,sans-Serif" font-size="10.00" fill="#000000">function&lt; bool(Output</text>
<text text-anchor="middle" x="1167" y="-393" font-family="Helvetica,sans-Serif" font-size="10.00" fill="#000000"> const &amp;)&gt;</text>
<polyline fill="none" stroke="#bfbfbf" points="1104.5,-386 1229.5,-386 "/>
<text text-anchor="middle" x="1167" y="-374" font-family="Helvetica,sans-Serif" font-size="10.00" fill="#000000"> </text>
<polyline fill="none" stroke="#bfbfbf" points="1104.5,-367 1229.5,-367 "/>
<text text-anchor="middle" x="1167" y="-355" font-family="Helvetica,sans-Serif" font-size="10.00" fill="#000000"> </text>
</g>
<!-- Node7&#45;&gt;Node6 -->
<g id="edge6" class="edge">
<title>Node7&#45;&gt;Node6</title>
<path fill="none" stroke="#404040" d="M1174.1301,-347.9054C1178.8485,-330.0622 1186.1961,-308.3761 1197,-291 1208.0196,-273.2771 1223.4473,-256.5291 1238.2565,-242.6318"/>
<polygon fill="none" stroke="#404040" points="1238.4726,-242.4354 1240.222,-235.4397 1247.3524,-234.3639 1245.603,-241.3596 1238.4726,-242.4354"/>
<text text-anchor="middle" x="1238.5" y="-305" font-family="Helvetica,sans-Serif" font-size="10.00" fill="#000000"> +triggerMatcher</text>
</g>
<!-- Node8 -->
<g id="node8" class="node">
<title>Node8</title>
<polygon fill="none" stroke="#bfbfbf" points="924.5,-348 924.5,-416 1073.5,-416 1073.5,-348 924.5,-348"/>
<text text-anchor="start" x="932.5" y="-404" font-family="Helvetica,sans-Serif" font-size="10.00" fill="#000000">function&lt; bool(DeviceSpec</text>
<text text-anchor="middle" x="999" y="-393" font-family="Helvetica,sans-Serif" font-size="10.00" fill="#000000"> const &amp;device)&gt;</text>
<polyline fill="none" stroke="#bfbfbf" points="924.5,-386 1073.5,-386 "/>
<text text-anchor="middle" x="999" y="-374" font-family="Helvetica,sans-Serif" font-size="10.00" fill="#000000"> </text>
<polyline fill="none" stroke="#bfbfbf" points="924.5,-367 1073.5,-367 "/>
<text text-anchor="middle" x="999" y="-355" font-family="Helvetica,sans-Serif" font-size="10.00" fill="#000000"> </text>
</g>
<!-- Node8&#45;&gt;Node6 -->
<g id="edge7" class="edge">
<title>Node8&#45;&gt;Node6</title>
<path fill="none" stroke="#404040" d="M1026.139,-347.8649C1043.6831,-328.1622 1068.193,-304.6533 1095,-291 1134.0713,-271.1003 1151.7561,-290.4067 1192,-273 1210.0473,-265.194 1227.9302,-253.2938 1243.0632,-241.6478"/>
<polygon fill="none" stroke="#404040" points="1243.192,-241.5454 1245.3989,-234.6802 1252.5848,-234.0769 1250.3779,-240.9421 1243.192,-241.5454"/>
<text text-anchor="middle" x="1136.5" y="-305" font-family="Helvetica,sans-Serif" font-size="10.00" fill="#000000"> +deviceMatcher</text>
</g>
<!-- Node8&#45;&gt;Node15 -->
<g id="edge17" class="edge">
<title>Node8&#45;&gt;Node15</title>
<path fill="none" stroke="#404040" d="M924.3448,-363.9918C841.5078,-344.3935 703.7128,-312.9291 584,-291 530.0878,-281.1243 512.2295,-294.9329 462,-273 447.6597,-266.7383 433.7232,-257.3628 421.4575,-247.5767"/>
<polygon fill="none" stroke="#404040" points="421.2189,-247.3777 414.0491,-246.6068 412.003,-239.692 419.1728,-240.4629 421.2189,-247.3777"/>
<text text-anchor="middle" x="771" y="-305" font-family="Helvetica,sans-Serif" font-size="10.00" fill="#000000"> +matcher</text>
</g>
<!-- Node9 -->
<g id="node9" class="node">
<title>Node9</title>
<polygon fill="none" stroke="#bfbfbf" points="1247.5,-353.5 1247.5,-410.5 1320.5,-410.5 1320.5,-353.5 1247.5,-353.5"/>
<text text-anchor="middle" x="1284" y="-398.5" font-family="Helvetica,sans-Serif" font-size="10.00" fill="#000000">DispatchOp</text>
<polyline fill="none" stroke="#bfbfbf" points="1247.5,-391.5 1320.5,-391.5 "/>
<text text-anchor="middle" x="1284" y="-379.5" font-family="Helvetica,sans-Serif" font-size="10.00" fill="#000000"> </text>
<polyline fill="none" stroke="#bfbfbf" points="1247.5,-372.5 1320.5,-372.5 "/>
<text text-anchor="middle" x="1284" y="-360.5" font-family="Helvetica,sans-Serif" font-size="10.00" fill="#000000"> </text>
</g>
<!-- Node9&#45;&gt;Node6 -->
<g id="edge9" class="edge">
<title>Node9&#45;&gt;Node6</title>
<path fill="none" stroke="#404040" d="M1284,-353.2494C1284,-324.2744 1284,-279.2816 1284,-246.556"/>
<polygon fill="none" stroke="#404040" points="1284.0001,-246.2383 1280,-240.2383 1284,-234.2383 1288,-240.2383 1284.0001,-246.2383"/>
<text text-anchor="middle" x="1305" y="-305" font-family="Helvetica,sans-Serif" font-size="10.00" fill="#000000"> +action</text>
</g>
<!-- Node10 -->
<g id="node10" class="node">
<title>Node10</title>
<polygon fill="none" stroke="#bfbfbf" points="471,-171.5 471,-239.5 601,-239.5 601,-171.5 471,-171.5"/>
<text text-anchor="start" x="479" y="-227.5" font-family="Helvetica,sans-Serif" font-size="10.00" fill="#000000">vector&lt; o2::framework</text>
<text text-anchor="middle" x="536" y="-216.5" font-family="Helvetica,sans-Serif" font-size="10.00" fill="#000000">::InputRoute &gt;</text>
<polyline fill="none" stroke="#bfbfbf" points="471,-209.5 601,-209.5 "/>
<text text-anchor="middle" x="536" y="-197.5" font-family="Helvetica,sans-Serif" font-size="10.00" fill="#000000"> </text>
<polyline fill="none" stroke="#bfbfbf" points="471,-190.5 601,-190.5 "/>
<text text-anchor="middle" x="536" y="-178.5" font-family="Helvetica,sans-Serif" font-size="10.00" fill="#000000"> </text>
</g>
<!-- Node10&#45;&gt;Node1 -->
<g id="edge10" class="edge">
<title>Node10&#45;&gt;Node1</title>
<path fill="none" stroke="#404040" d="M570.4562,-171.298C582.4997,-160.1089 596.4142,-147.9968 610,-138 653.9596,-105.6532 664.8461,-95.0275 716,-76 769.392,-56.14 832.3358,-44.417 882.2065,-37.6457"/>
<polygon fill="none" stroke="#404040" points="882.3643,-37.6251 887.7953,-32.8812 894.2631,-36.0699 888.8321,-40.8138 882.3643,-37.6251"/>
<text text-anchor="middle" x="737" y="-95.5" font-family="Helvetica,sans-Serif" font-size="10.00" fill="#000000"> +inputs</text>
</g>
<!-- Node11 -->
<g id="node11" class="node">
<title>Node11</title>
<polygon fill="none" stroke="#bfbfbf" points="619,-171.5 619,-239.5 749,-239.5 749,-171.5 619,-171.5"/>
<text text-anchor="start" x="627" y="-227.5" font-family="Helvetica,sans-Serif" font-size="10.00" fill="#000000">vector&lt; o2::framework</text>
<text text-anchor="middle" x="684" y="-216.5" font-family="Helvetica,sans-Serif" font-size="10.00" fill="#000000">::ConfigParamSpec &gt;</text>
<polyline fill="none" stroke="#bfbfbf" points="619,-209.5 749,-209.5 "/>
<text text-anchor="middle" x="684" y="-197.5" font-family="Helvetica,sans-Serif" font-size="10.00" fill="#000000"> </text>
<polyline fill="none" stroke="#bfbfbf" points="619,-190.5 749,-190.5 "/>
<text text-anchor="middle" x="684" y="-178.5" font-family="Helvetica,sans-Serif" font-size="10.00" fill="#000000"> </text>
</g>
<!-- Node11&#45;&gt;Node1 -->
<g id="edge11" class="edge">
<title>Node11&#45;&gt;Node1</title>
<path fill="none" stroke="#404040" d="M711.4409,-171.4578C736.6043,-142.3101 776.3466,-101.1739 819,-76 838.4414,-64.5257 860.9712,-55.5737 882.6,-48.7074"/>
<polygon fill="none" stroke="#404040" points="882.6674,-48.687 887.2485,-43.118 894.1511,-45.2048 889.57,-50.7738 882.6674,-48.687"/>
<text text-anchor="middle" x="843" y="-95.5" font-family="Helvetica,sans-Serif" font-size="10.00" fill="#000000"> +options</text>
</g>
<!-- Node12 -->
<g id="node12" class="node">
<title>Node12</title>
<polygon fill="none" stroke="#bfbfbf" points="767.5,-177 767.5,-234 886.5,-234 886.5,-177 767.5,-177"/>
<text text-anchor="middle" x="827" y="-222" font-family="Helvetica,sans-Serif" font-size="10.00" fill="#000000">vector&lt; std::string &gt;</text>
<polyline fill="none" stroke="#bfbfbf" points="767.5,-215 886.5,-215 "/>
<text text-anchor="middle" x="827" y="-203" font-family="Helvetica,sans-Serif" font-size="10.00" fill="#000000"> </text>
<polyline fill="none" stroke="#bfbfbf" points="767.5,-196 886.5,-196 "/>
<text text-anchor="middle" x="827" y="-184" font-family="Helvetica,sans-Serif" font-size="10.00" fill="#000000"> </text>
</g>
<!-- Node12&#45;&gt;Node1 -->
<g id="edge12" class="edge">
<title>Node12&#45;&gt;Node1</title>
<path fill="none" stroke="#404040" d="M839.0742,-176.8858C851.8332,-148.9573 873.9785,-106.3528 902,-76 905.4497,-72.2633 909.2474,-68.6604 913.2306,-65.2261"/>
<polygon fill="none" stroke="#404040" points="913.4376,-65.0595 915.6029,-58.1811 922.785,-57.5344 920.6196,-64.4128 913.4376,-65.0595"/>
<text text-anchor="middle" x="934" y="-95.5" font-family="Helvetica,sans-Serif" font-size="10.00" fill="#000000"> +arguments</text>
</g>
<!-- Node13 -->
<g id="node13" class="node">
<title>Node13</title>
<polygon fill="none" stroke="#bfbfbf" points="905,-171.5 905,-239.5 1035,-239.5 1035,-171.5 905,-171.5"/>
<text text-anchor="start" x="913" y="-227.5" font-family="Helvetica,sans-Serif" font-size="10.00" fill="#000000">vector&lt; o2::framework</text>
<text text-anchor="middle" x="970" y="-216.5" font-family="Helvetica,sans-Serif" font-size="10.00" fill="#000000">::OutputRoute &gt;</text>
<polyline fill="none" stroke="#bfbfbf" points="905,-209.5 1035,-209.5 "/>
<text text-anchor="middle" x="970" y="-197.5" font-family="Helvetica,sans-Serif" font-size="10.00" fill="#000000"> </text>
<polyline fill="none" stroke="#bfbfbf" points="905,-190.5 1035,-190.5 "/>
<text text-anchor="middle" x="970" y="-178.5" font-family="Helvetica,sans-Serif" font-size="10.00" fill="#000000"> </text>
</g>
<!-- Node13&#45;&gt;Node1 -->
<g id="edge13" class="edge">
<title>Node13&#45;&gt;Node1</title>
<path fill="none" stroke="#404040" d="M970,-171.469C970,-142.4148 970,-100.5593 970,-69.7296"/>
<polygon fill="none" stroke="#404040" points="970.0001,-69.6768 966,-63.6768 970,-57.6768 974,-63.6768 970.0001,-69.6768"/>
<text text-anchor="middle" x="994.5" y="-95.5" font-family="Helvetica,sans-Serif" font-size="10.00" fill="#000000"> +outputs</text>
</g>
<!-- Node14 -->
<g id="node14" class="node">
<title>Node14</title>
<polygon fill="none" stroke="#bfbfbf" points="1053,-171.5 1053,-239.5 1183,-239.5 1183,-171.5 1053,-171.5"/>
<text text-anchor="start" x="1061" y="-227.5" font-family="Helvetica,sans-Serif" font-size="10.00" fill="#000000">vector&lt; o2::framework</text>
<text text-anchor="middle" x="1118" y="-216.5" font-family="Helvetica,sans-Serif" font-size="10.00" fill="#000000">::ForwardRoute &gt;</text>
<polyline fill="none" stroke="#bfbfbf" points="1053,-209.5 1183,-209.5 "/>
<text text-anchor="middle" x="1118" y="-197.5" font-family="Helvetica,sans-Serif" font-size="10.00" fill="#000000"> </text>
<polyline fill="none" stroke="#bfbfbf" points="1053,-190.5 1183,-190.5 "/>
<text text-anchor="middle" x="1118" y="-178.5" font-family="Helvetica,sans-Serif" font-size="10.00" fill="#000000"> </text>
</g>
<!-- Node14&#45;&gt;Node1 -->
<g id="edge14" class="edge">
<title>Node14&#45;&gt;Node1</title>
<path fill="none" stroke="#404040" d="M1095.8298,-171.2603C1077.6519,-144.2364 1050.5177,-106.1901 1023,-76 1019.9632,-72.6683 1016.7094,-69.327 1013.363,-66.0473"/>
<polygon fill="none" stroke="#404040" points="1013.0985,-65.7975 1005.9899,-64.586 1004.3742,-57.5582 1011.4828,-58.7697 1013.0985,-65.7975"/>
<text text-anchor="middle" x="1083.5" y="-95.5" font-family="Helvetica,sans-Serif" font-size="10.00" fill="#000000"> +forwards</text>
</g>
<!-- Node15&#45;&gt;Node1 -->
<g id="edge16" class="edge">
<title>Node15&#45;&gt;Node1</title>
<path fill="none" stroke="#404040" d="M407.9001,-171.4519C437.015,-140.8045 484.2032,-97.3967 535,-76 595.6651,-50.4465 773.578,-37.9505 882.1703,-32.5444"/>
<polygon fill="none" stroke="#404040" points="882.4201,-32.5324 888.2191,-28.2462 894.406,-31.9506 888.607,-36.2368 882.4201,-32.5324"/>
<text text-anchor="middle" x="583" y="-95.5" font-family="Helvetica,sans-Serif" font-size="10.00" fill="#000000"> +completionPolicy</text>
</g>
<!-- Node16 -->
<g id="node16" class="node">
<title>Node16</title>
<polygon fill="none" stroke="#bfbfbf" points="308.5,-342.5 308.5,-421.5 447.5,-421.5 447.5,-342.5 308.5,-342.5"/>
<text text-anchor="start" x="316.5" y="-409.5" font-family="Helvetica,sans-Serif" font-size="10.00" fill="#000000">function&lt; CompletionOp</text>
<text text-anchor="start" x="316.5" y="-398.5" font-family="Helvetica,sans-Serif" font-size="10.00" fill="#000000">(gsl::span&lt; PartRef const</text>
<text text-anchor="middle" x="378" y="-387.5" font-family="Helvetica,sans-Serif" font-size="10.00" fill="#000000"> &gt; const &amp;)&gt;</text>
<polyline fill="none" stroke="#bfbfbf" points="308.5,-380.5 447.5,-380.5 "/>
<text text-anchor="middle" x="378" y="-368.5" font-family="Helvetica,sans-Serif" font-size="10.00" fill="#000000"> </text>
<polyline fill="none" stroke="#bfbfbf" points="308.5,-361.5 447.5,-361.5 "/>
<text text-anchor="middle" x="378" y="-349.5" font-family="Helvetica,sans-Serif" font-size="10.00" fill="#000000"> </text>
</g>
<!-- Node16&#45;&gt;Node15 -->
<g id="edge18" class="edge">
<title>Node16&#45;&gt;Node15</title>
<path fill="none" stroke="#404040" d="M378,-342.39C378,-315.5959 378,-280.1025 378,-251.9717"/>
<polygon fill="none" stroke="#404040" points="378.0001,-251.6225 374,-245.6225 378,-239.6225 382,-245.6224 378.0001,-251.6225"/>
<text text-anchor="middle" x="404" y="-305" font-family="Helvetica,sans-Serif" font-size="10.00" fill="#000000"> +callback</text>
</g>
<!-- Node17 -->
<g id="node17" class="node">
<title>Node17</title>
<g id="a_node17"><a xlink:href="../../d4/d5e/structo2_1_1framework_1_1AlgorithmSpec.html" target="_top" xlink:title="{o2::framework::AlgorithmSpec\n||+ AlgorithmSpec()\l+ AlgorithmSpec()\l+ AlgorithmSpec()\l+ AlgorithmSpec()\l+ operator=()\l+ AlgorithmSpec()\l+ AlgorithmSpec()\l+ emptyErrorCallback()\l}">
<polygon fill="none" stroke="#000000" points="1385.5,-138.5 1385.5,-272.5 1550.5,-272.5 1550.5,-138.5 1385.5,-138.5"/>
<text text-anchor="middle" x="1468" y="-260.5" font-family="Helvetica,sans-Serif" font-size="10.00" fill="#000000">o2::framework::AlgorithmSpec</text>
<polyline fill="none" stroke="#000000" points="1385.5,-253.5 1550.5,-253.5 "/>
<text text-anchor="middle" x="1468" y="-241.5" font-family="Helvetica,sans-Serif" font-size="10.00" fill="#000000"> </text>
<polyline fill="none" stroke="#000000" points="1385.5,-234.5 1550.5,-234.5 "/>
<text text-anchor="start" x="1393.5" y="-222.5" font-family="Helvetica,sans-Serif" font-size="10.00" fill="#000000">+ AlgorithmSpec()</text>
<text text-anchor="start" x="1393.5" y="-211.5" font-family="Helvetica,sans-Serif" font-size="10.00" fill="#000000">+ AlgorithmSpec()</text>
<text text-anchor="start" x="1393.5" y="-200.5" font-family="Helvetica,sans-Serif" font-size="10.00" fill="#000000">+ AlgorithmSpec()</text>
<text text-anchor="start" x="1393.5" y="-189.5" font-family="Helvetica,sans-Serif" font-size="10.00" fill="#000000">+ AlgorithmSpec()</text>
<text text-anchor="start" x="1393.5" y="-178.5" font-family="Helvetica,sans-Serif" font-size="10.00" fill="#000000">+ operator=()</text>
<text text-anchor="start" x="1393.5" y="-167.5" font-family="Helvetica,sans-Serif" font-size="10.00" fill="#000000">+ AlgorithmSpec()</text>
<text text-anchor="start" x="1393.5" y="-156.5" font-family="Helvetica,sans-Serif" font-size="10.00" fill="#000000">+ AlgorithmSpec()</text>
<text text-anchor="start" x="1393.5" y="-145.5" font-family="Helvetica,sans-Serif" font-size="10.00" fill="#000000">+ emptyErrorCallback()</text>
</a>
</g>
</g>
<!-- Node17&#45;&gt;Node1 -->
<g id="edge20" class="edge">
<title>Node17&#45;&gt;Node1</title>
<path fill="none" stroke="#404040" d="M1385.2921,-144.1852C1382.1719,-142.0738 1379.0674,-140.0056 1376,-138 1329.9983,-107.922 1320.8059,-94.3571 1269,-76 1200.4209,-51.6994 1118.5583,-39.9363 1057.8429,-34.2574"/>
<polygon fill="none" stroke="#404040" points="1057.5593,-34.2322 1051.2283,-37.6844 1045.6066,-33.1682 1051.9376,-29.7159 1057.5593,-34.2322"/>
<text text-anchor="middle" x="1377.5" y="-95.5" font-family="Helvetica,sans-Serif" font-size="10.00" fill="#000000"> +algorithm</text>
</g>
<!-- Node18 -->
<g id="node18" class="node">
<title>Node18</title>
<polygon fill="none" stroke="#bfbfbf" points="1339,-353.5 1339,-410.5 1515,-410.5 1515,-353.5 1339,-353.5"/>
<text text-anchor="middle" x="1427" y="-398.5" font-family="Helvetica,sans-Serif" font-size="10.00" fill="#000000">function&lt; void(ErrorContext &amp;)&gt;</text>
<polyline fill="none" stroke="#bfbfbf" points="1339,-391.5 1515,-391.5 "/>
<text text-anchor="middle" x="1427" y="-379.5" font-family="Helvetica,sans-Serif" font-size="10.00" fill="#000000"> </text>
<polyline fill="none" stroke="#bfbfbf" points="1339,-372.5 1515,-372.5 "/>
<text text-anchor="middle" x="1427" y="-360.5" font-family="Helvetica,sans-Serif" font-size="10.00" fill="#000000"> </text>
</g>
<!-- Node18&#45;&gt;Node17 -->
<g id="edge21" class="edge">
<title>Node18&#45;&gt;Node17</title>
<path fill="none" stroke="#404040" d="M1433.6786,-353.2494C1438.0271,-334.5295 1443.9288,-309.1237 1449.6116,-284.6597"/>
<polygon fill="none" stroke="#404040" points="1449.6608,-284.4479 1447.1222,-277.6984 1452.3761,-272.7591 1454.9147,-279.5086 1449.6608,-284.4479"/>
<text text-anchor="middle" x="1470.5" y="-305" font-family="Helvetica,sans-Serif" font-size="10.00" fill="#000000"> +onError</text>
</g>
<!-- Node19 -->
<g id="node19" class="node">
<title>Node19</title>
<polygon fill="none" stroke="#bfbfbf" points="1533.5,-348 1533.5,-416 1678.5,-416 1678.5,-348 1533.5,-348"/>
<text text-anchor="start" x="1541.5" y="-404" font-family="Helvetica,sans-Serif" font-size="10.00" fill="#000000">function&lt; void(Processing</text>
<text text-anchor="middle" x="1606" y="-393" font-family="Helvetica,sans-Serif" font-size="10.00" fill="#000000">Context &amp;)&gt;</text>
<polyline fill="none" stroke="#bfbfbf" points="1533.5,-386 1678.5,-386 "/>
<text text-anchor="middle" x="1606" y="-374" font-family="Helvetica,sans-Serif" font-size="10.00" fill="#000000"> </text>
<polyline fill="none" stroke="#bfbfbf" points="1533.5,-367 1678.5,-367 "/>
<text text-anchor="middle" x="1606" y="-355" font-family="Helvetica,sans-Serif" font-size="10.00" fill="#000000"> </text>
</g>
<!-- Node19&#45;&gt;Node17 -->
<g id="edge22" class="edge">
<title>Node19&#45;&gt;Node17</title>
<path fill="none" stroke="#404040" d="M1579.3922,-347.969C1564.7948,-329.2992 1546.0646,-305.3435 1528.1446,-282.4241"/>
<polygon fill="none" stroke="#404040" points="1527.92,-282.1368 1521.0732,-279.8739 1520.5286,-272.6834 1527.3755,-274.9463 1527.92,-282.1368"/>
<text text-anchor="middle" x="1587.5" y="-305" font-family="Helvetica,sans-Serif" font-size="10.00" fill="#000000"> +onProcess</text>
</g>
<!-- Node20 -->
<g id="node20" class="node">
<title>Node20</title>
<polygon fill="none" stroke="#bfbfbf" points="1696.5,-348 1696.5,-416 1843.5,-416 1843.5,-348 1696.5,-348"/>
<text text-anchor="start" x="1704.5" y="-404" font-family="Helvetica,sans-Serif" font-size="10.00" fill="#000000">function&lt; ProcessCallback</text>
<text text-anchor="middle" x="1770" y="-393" font-family="Helvetica,sans-Serif" font-size="10.00" fill="#000000">(InitContext &amp;)&gt;</text>
<polyline fill="none" stroke="#bfbfbf" points="1696.5,-386 1843.5,-386 "/>
<text text-anchor="middle" x="1770" y="-374" font-family="Helvetica,sans-Serif" font-size="10.00" fill="#000000"> </text>
<polyline fill="none" stroke="#bfbfbf" points="1696.5,-367 1843.5,-367 "/>
<text text-anchor="middle" x="1770" y="-355" font-family="Helvetica,sans-Serif" font-size="10.00" fill="#000000"> </text>
</g>
<!-- Node20&#45;&gt;Node17 -->
<g id="edge23" class="edge">
<title>Node20&#45;&gt;Node17</title>
<path fill="none" stroke="#404040" d="M1721.8141,-347.7834C1693.7234,-329.0292 1657.0256,-306.5121 1622,-291 1598.7365,-280.6971 1588.2185,-284.4836 1561.6849,-273.2213"/>
<polygon fill="none" stroke="#404040" points="1561.5553,-273.1612 1554.4288,-274.2623 1550.6714,-268.1074 1557.798,-267.0063 1561.5553,-273.1612"/>
<text text-anchor="middle" x="1701" y="-305" font-family="Helvetica,sans-Serif" font-size="10.00" fill="#000000"> +onInit</text>
</g>
<!-- Node21 -->
<g id="node21" class="node">
<title>Node21</title>
<polygon fill="none" stroke="#bfbfbf" points="1569,-171.5 1569,-239.5 1699,-239.5 1699,-171.5 1569,-171.5"/>
<text text-anchor="start" x="1577" y="-227.5" font-family="Helvetica,sans-Serif" font-size="10.00" fill="#000000">vector&lt; o2::framework</text>
<text text-anchor="middle" x="1634" y="-216.5" font-family="Helvetica,sans-Serif" font-size="10.00" fill="#000000">::OutputChannelSpec &gt;</text>
<polyline fill="none" stroke="#bfbfbf" points="1569,-209.5 1699,-209.5 "/>
<text text-anchor="middle" x="1634" y="-197.5" font-family="Helvetica,sans-Serif" font-size="10.00" fill="#000000"> </text>
<polyline fill="none" stroke="#bfbfbf" points="1569,-190.5 1699,-190.5 "/>
<text text-anchor="middle" x="1634" y="-178.5" font-family="Helvetica,sans-Serif" font-size="10.00" fill="#000000"> </text>
</g>
<!-- Node21&#45;&gt;Node1 -->
<g id="edge24" class="edge">
<title>Node21&#45;&gt;Node1</title>
<path fill="none" stroke="#404040" d="M1601.3943,-171.2555C1589.1692,-159.6808 1574.6689,-147.3383 1560,-138 1499.4939,-99.4812 1480.4924,-93.7624 1411,-76 1346.3534,-59.4762 1167.1,-43.7831 1058.0571,-35.37"/>
<polygon fill="none" stroke="#404040" points="1057.7382,-35.3457 1051.4505,-38.8763 1045.7732,-34.4301 1052.0609,-30.8996 1057.7382,-35.3457"/>
<text text-anchor="middle" x="1571" y="-95.5" font-family="Helvetica,sans-Serif" font-size="10.00" fill="#000000"> +outputChannels</text>
</g>
<!-- Node22 -->
<g id="node22" class="node">
<title>Node22</title>
<polygon fill="none" stroke="#bfbfbf" points="1717,-171.5 1717,-239.5 1847,-239.5 1847,-171.5 1717,-171.5"/>
<text text-anchor="start" x="1725" y="-227.5" font-family="Helvetica,sans-Serif" font-size="10.00" fill="#000000">vector&lt; o2::framework</text>
<text text-anchor="middle" x="1782" y="-216.5" font-family="Helvetica,sans-Serif" font-size="10.00" fill="#000000">::InputChannelSpec &gt;</text>
<polyline fill="none" stroke="#bfbfbf" points="1717,-209.5 1847,-209.5 "/>
<text text-anchor="middle" x="1782" y="-197.5" font-family="Helvetica,sans-Serif" font-size="10.00" fill="#000000"> </text>
<polyline fill="none" stroke="#bfbfbf" points="1717,-190.5 1847,-190.5 "/>
<text text-anchor="middle" x="1782" y="-178.5" font-family="Helvetica,sans-Serif" font-size="10.00" fill="#000000"> </text>
</g>
<!-- Node22&#45;&gt;Node1 -->
<g id="edge25" class="edge">
<title>Node22&#45;&gt;Node1</title>
<path fill="none" stroke="#404040" d="M1752.2929,-171.4781C1722.3028,-139.9251 1672.829,-95.0641 1619,-76 1567.4457,-57.7415 1222.5104,-40.2118 1057.5572,-32.7563"/>
<polygon fill="none" stroke="#404040" points="1057.5068,-32.7541 1051.3333,-36.4809 1045.5189,-32.2157 1051.6923,-28.4889 1057.5068,-32.7541"/>
<text text-anchor="middle" x="1733" y="-95.5" font-family="Helvetica,sans-Serif" font-size="10.00" fill="#000000"> +inputChannels</text>
</g>
<!-- Node23 -->
<g id="node23" class="node">
<title>Node23</title>
<polygon fill="none" stroke="#bfbfbf" points="1865.5,-177 1865.5,-234 1910.5,-234 1910.5,-177 1865.5,-177"/>
<text text-anchor="middle" x="1888" y="-222" font-family="Helvetica,sans-Serif" font-size="10.00" fill="#000000">size_t</text>
<polyline fill="none" stroke="#bfbfbf" points="1865.5,-215 1910.5,-215 "/>
<text text-anchor="middle" x="1888" y="-203" font-family="Helvetica,sans-Serif" font-size="10.00" fill="#000000"> </text>
<polyline fill="none" stroke="#bfbfbf" points="1865.5,-196 1910.5,-196 "/>
<text text-anchor="middle" x="1888" y="-184" font-family="Helvetica,sans-Serif" font-size="10.00" fill="#000000"> </text>
</g>
<!-- Node23&#45;&gt;Node1 -->
<g id="edge26" class="edge">
<title>Node23&#45;&gt;Node1</title>
<path fill="none" stroke="#404040" d="M1877.8699,-176.9236C1872.543,-164.2318 1865.1919,-149.5798 1856,-138 1828.4675,-103.315 1819.3692,-91.8012 1778,-76 1712.179,-50.8593 1253.5021,-36.2623 1057.9713,-31.12"/>
<polygon fill="none" stroke="#404040" points="1057.7565,-31.1145 1051.6544,-34.957 1045.7606,-30.8022 1051.8627,-26.9597 1057.7565,-31.1145"/>
<text text-anchor="middle" x="1896.5" y="-112" font-family="Helvetica,sans-Serif" font-size="10.00" fill="#000000"> +maxInputTimeslices</text>
<text text-anchor="middle" x="1896.5" y="-101" font-family="Helvetica,sans-Serif" font-size="10.00" fill="#000000">+rank</text>
<text text-anchor="middle" x="1896.5" y="-90" font-family="Helvetica,sans-Serif" font-size="10.00" fill="#000000">+nSlots</text>
<text text-anchor="middle" x="1896.5" y="-79" font-family="Helvetica,sans-Serif" font-size="10.00" fill="#000000">+inputTimesliceId</text>
</g>
</g>
</svg>
        <g id="navigator" transform="translate(0 0)" fill="#404254">
                <rect fill="#f2f5e9" fill-opacity="0.5" stroke="#606060" stroke-width=".5" x="0" y="0" width="60" height="60"/>
                <use id="zoomplus" xlink:href="#zoomPlus" x="17" y="9" onmousedown="handleZoom(evt,'in')"/>
                <use id="zoomminus" xlink:href="#zoomMin" x="42" y="9" onmousedown="handleZoom(evt,'out')"/>
                <use id="reset" xlink:href="#resetDef" x="30" y="36" onmousedown="handleReset()"/>
                <g id="arrowUp" xlink:href="#dirArrow" transform="translate(30 24)" onmousedown="handlePan(0,-1)">
                  <use xlink:href="#rim" fill="#404040">
                        <set attributeName="fill" to="#808080" begin="arrowUp.mouseover" end="arrowUp.mouseout"/>
                  </use>
                  <path fill="none" stroke="white" stroke-width="1.5" d="M0,-3.0v7 M-2.5,-0.5L0,-3.0L2.5,-0.5"/>
                </g>
                <g id="arrowRight" xlink:href="#dirArrow" transform="rotate(90) translate(36 -43)" onmousedown="handlePan(1,0)">
                  <use xlink:href="#rim" fill="#404040">
                        <set attributeName="fill" to="#808080" begin="arrowRight.mouseover" end="arrowRight.mouseout"/>
                  </use>
                  <path fill="none" stroke="white" stroke-width="1.5" d="M0,-3.0v7 M-2.5,-0.5L0,-3.0L2.5,-0.5"/>
                </g>
                <g id="arrowDown" xlink:href="#dirArrow" transform="rotate(180) translate(-30 -48)" onmousedown="handlePan(0,1)">
                  <use xlink:href="#rim" fill="#404040">
                        <set attributeName="fill" to="#808080" begin="arrowDown.mouseover" end="arrowDown.mouseout"/>
                  </use>
                  <path fill="none" stroke="white" stroke-width="1.5" d="M0,-3.0v7 M-2.5,-0.5L0,-3.0L2.5,-0.5"/>
                </g>
                <g id="arrowLeft" xlink:href="#dirArrow" transform="rotate(270) translate(-36 17)" onmousedown="handlePan(-1,0)">
                  <use xlink:href="#rim" fill="#404040">
                        <set attributeName="fill" to="#808080" begin="arrowLeft.mouseover" end="arrowLeft.mouseout"/>
                  </use>
                  <path fill="none" stroke="white" stroke-width="1.5" d="M0,-3.0v7 M-2.5,-0.5L0,-3.0L2.5,-0.5"/>
                </g>
        </g>
        <svg viewBox="0 0 15 15" width="100%" height="30px" preserveAspectRatio="xMaxYMin meet">
         <g id="arrow_out" transform="scale(0.3 0.3)">
          <a xlink:href="structo2_1_1framework_1_1DeviceSpec__coll__graph_org.svg" target="_base">
           <rect id="button" ry="5" rx="5" y="6" x="6" height="38" width="38"
                fill="#f2f5e9" fill-opacity="0.5" stroke="#606060" stroke-width="1.0"/>
           <path id="arrow"
             d="M 11.500037,31.436501 C 11.940474,20.09759 22.043105,11.32322 32.158766,21.979434 L 37.068811,17.246167 C 37.068811,17.246167 37.088388,32 37.088388,32 L 22.160133,31.978069 C 22.160133,31.978069 26.997745,27.140456 26.997745,27.140456 C 18.528582,18.264221 13.291696,25.230495 11.500037,31.436501 z"
             style="fill:#404040;"/>
          </a>
         </g>
        </svg>
</svg>
