<?xml version="1.0" encoding="UTF-8" standalone="no"?>
<!DOCTYPE svg PUBLIC "-//W3C//DTD SVG 1.1//EN"
 "http://www.w3.org/Graphics/SVG/1.1/DTD/svg11.dtd">
<!-- Generated by graphviz version 2.40.1 (20161225.0304)
 -->
<!-- Title: /home/travis/build/AliceO2Group/AliceO2/Detectors/ITSMFT/ITS/tracking/hip/include/ITStrackingHIP/VertexerTraitsHIP.h Pages: 1 -->
<svg width="2123pt" height="665pt"
 viewBox="0.00 0.00 2122.50 665.00" xmlns="http://www.w3.org/2000/svg" xmlns:xlink="http://www.w3.org/1999/xlink">
<g id="graph0" class="graph" transform="scale(1 1) rotate(0) translate(4 661)">
<title>/home/travis/build/AliceO2Group/AliceO2/Detectors/ITSMFT/ITS/tracking/hip/include/ITStrackingHIP/VertexerTraitsHIP.h</title>
<!-- Node0 -->
<g id="node1" class="node">
<title>Node0</title>
<polygon fill="#bfbfbf" stroke="#000000" points="1583,-593.5 1583,-656.5 1756,-656.5 1756,-593.5 1583,-593.5"/>
<text text-anchor="start" x="1591" y="-644.5" font-family="Helvetica,sans-Serif" font-size="10.00" fill="#000000">/home/travis/build</text>
<text text-anchor="start" x="1591" y="-633.5" font-family="Helvetica,sans-Serif" font-size="10.00" fill="#000000">/AliceO2Group/AliceO2</text>
<text text-anchor="start" x="1591" y="-622.5" font-family="Helvetica,sans-Serif" font-size="10.00" fill="#000000">/Detectors/ITSMFT/ITS</text>
<text text-anchor="start" x="1591" y="-611.5" font-family="Helvetica,sans-Serif" font-size="10.00" fill="#000000">/tracking/hip/include/ITStracking</text>
<text text-anchor="middle" x="1669.5" y="-600.5" font-family="Helvetica,sans-Serif" font-size="10.00" fill="#000000">HIP/VertexerTraitsHIP.h</text>
</g>
<!-- Node1 -->
<g id="node2" class="node">
<title>Node1</title>
<polygon fill="none" stroke="#bfbfbf" points="1693,-112.5 1693,-131.5 1740,-131.5 1740,-112.5 1693,-112.5"/>
<text text-anchor="middle" x="1716.5" y="-119.5" font-family="Helvetica,sans-Serif" font-size="10.00" fill="#000000">vector</text>
</g>
<!-- Node0&#45;&gt;Node1 -->
<g id="edge1" class="edge">
<title>Node0&#45;&gt;Node1</title>
<path fill="none" stroke="#191970" d="M1756.1671,-602.9935C1852.4436,-575.9452 1994.5,-527.1196 1994.5,-474.5 1994.5,-474.5 1994.5,-474.5 1994.5,-290 1994.5,-259.4754 1995.4767,-247.0799 1975.5,-224 1916.5211,-155.8594 1806.0348,-132.8677 1750.3774,-125.4055"/>
<polygon fill="#191970" stroke="#191970" points="1750.685,-121.9168 1740.3279,-124.1483 1749.816,-128.8627 1750.685,-121.9168"/>
</g>
<!-- Node2 -->
<g id="node3" class="node">
<title>Node2</title>
<polygon fill="none" stroke="#bfbfbf" points="1501.5,-56.5 1501.5,-75.5 1543.5,-75.5 1543.5,-56.5 1501.5,-56.5"/>
<text text-anchor="middle" x="1522.5" y="-63.5" font-family="Helvetica,sans-Serif" font-size="10.00" fill="#000000">array</text>
</g>
<!-- Node0&#45;&gt;Node2 -->
<g id="edge2" class="edge">
<title>Node0&#45;&gt;Node2</title>
<path fill="none" stroke="#191970" d="M1756.0924,-613.6688C1885.5484,-594.2704 2114.5,-549.3783 2114.5,-474.5 2114.5,-474.5 2114.5,-474.5 2114.5,-178 2114.5,-132.9267 2079.0354,-129.5048 2037.5,-112 1949.3975,-74.8697 1651.342,-67.6817 1553.732,-66.3147"/>
<polygon fill="#191970" stroke="#191970" points="1553.6657,-62.8136 1543.6213,-66.1842 1553.5753,-69.8131 1553.6657,-62.8136"/>
</g>
<!-- Node3 -->
<g id="node4" class="node">
<title>Node3</title>
<g id="a_node4"><a xlink:href="../../d2/dd6/VertexerTraits_8h.html" target="_top" xlink:title="Class to compute the primary vertex in ITS from tracklets. ">
<polygon fill="none" stroke="#000000" points="1434,-465 1434,-484 1585,-484 1585,-465 1434,-465"/>
<text text-anchor="middle" x="1509.5" y="-472" font-family="Helvetica,sans-Serif" font-size="10.00" fill="#000000">ITStracking/VertexerTraits.h</text>
</a>
</g>
</g>
<!-- Node0&#45;&gt;Node3 -->
<g id="edge3" class="edge">
<title>Node0&#45;&gt;Node3</title>
<path fill="none" stroke="#191970" d="M1635.9588,-593.4503C1602.7411,-562.2049 1553.1695,-515.5766 1527.0526,-491.0104"/>
<polygon fill="#191970" stroke="#191970" points="1529.4265,-488.4383 1519.7445,-484.1362 1524.6305,-493.5372 1529.4265,-488.4383"/>
</g>
<!-- Node5 -->
<g id="node6" class="node">
<title>Node5</title>
<g id="a_node6"><a xlink:href="../../da/d7f/Detectors_2ITSMFT_2ITS_2tracking_2include_2ITStracking_2Cluster_8h.html" target="_top" xlink:title="ITStracking/Cluster.h">
<polygon fill="none" stroke="#000000" points="1207,-280.5 1207,-299.5 1324,-299.5 1324,-280.5 1207,-280.5"/>
<text text-anchor="middle" x="1265.5" y="-287.5" font-family="Helvetica,sans-Serif" font-size="10.00" fill="#000000">ITStracking/Cluster.h</text>
</a>
</g>
</g>
<!-- Node0&#45;&gt;Node5 -->
<g id="edge63" class="edge">
<title>Node0&#45;&gt;Node5</title>
<path fill="none" stroke="#191970" d="M1675.4042,-593.3475C1680.3009,-558.3939 1683.3624,-501.4529 1661.5,-459 1627.7032,-393.3727 1410.3376,-328.4143 1312.7763,-302.1573"/>
<polygon fill="#191970" stroke="#191970" points="1313.4463,-298.7137 1302.882,-299.5167 1311.6413,-305.477 1313.4463,-298.7137"/>
</g>
<!-- Node18 -->
<g id="node19" class="node">
<title>Node18</title>
<g id="a_node19"><a xlink:href="../../d0/d86/Detectors_2ITSMFT_2ITS_2tracking_2include_2ITStracking_2Constants_8h.html" target="_top" xlink:title="ITStracking/Constants.h">
<polygon fill="none" stroke="#000000" points="1650.5,-168.5 1650.5,-187.5 1782.5,-187.5 1782.5,-168.5 1650.5,-168.5"/>
<text text-anchor="middle" x="1716.5" y="-175.5" font-family="Helvetica,sans-Serif" font-size="10.00" fill="#000000">ITStracking/Constants.h</text>
</a>
</g>
</g>
<!-- Node0&#45;&gt;Node18 -->
<g id="edge64" class="edge">
<title>Node0&#45;&gt;Node18</title>
<path fill="none" stroke="#191970" d="M1702.9744,-593.4326C1729.2794,-565.0857 1761.5,-520.8949 1761.5,-474.5 1761.5,-474.5 1761.5,-474.5 1761.5,-413 1761.5,-331.7441 1735.2269,-237.4592 1722.8312,-197.4972"/>
<polygon fill="#191970" stroke="#191970" points="1726.0916,-196.1994 1719.7363,-187.7224 1719.4181,-198.3124 1726.0916,-196.1994"/>
</g>
<!-- Node24 -->
<g id="node25" class="node">
<title>Node24</title>
<g id="a_node25"><a xlink:href="../../da/dc0/Tracklet_8h.html" target="_top" xlink:title="ITStracking/Tracklet.h">
<polygon fill="none" stroke="#000000" points="638.5,-342 638.5,-361 760.5,-361 760.5,-342 638.5,-342"/>
<text text-anchor="middle" x="699.5" y="-349" font-family="Helvetica,sans-Serif" font-size="10.00" fill="#000000">ITStracking/Tracklet.h</text>
</a>
</g>
</g>
<!-- Node0&#45;&gt;Node24 -->
<g id="edge65" class="edge">
<title>Node0&#45;&gt;Node24</title>
<path fill="none" stroke="#191970" d="M1582.6927,-621.6347C1325.82,-610.762 583.1258,-572.3942 515.5,-490 468.294,-432.485 586.9546,-385.4004 655.2762,-363.9752"/>
<polygon fill="#191970" stroke="#191970" points="656.4321,-367.2816 664.9655,-361.0021 654.3787,-360.5896 656.4321,-367.2816"/>
</g>
<!-- Node25 -->
<g id="node26" class="node">
<title>Node25</title>
<g id="a_node26"><a xlink:href="../../d4/d1e/DeviceStoreVertexerHIP_8h.html" target="_top" xlink:title="This class serves as memory interface for GPU vertexer. It will access needed data structures from de...">
<polygon fill="none" stroke="#000000" points="861.5,-526.5 861.5,-556.5 1011.5,-556.5 1011.5,-526.5 861.5,-526.5"/>
<text text-anchor="start" x="869.5" y="-544.5" font-family="Helvetica,sans-Serif" font-size="10.00" fill="#000000">ITStrackingHIP/DeviceStore</text>
<text text-anchor="middle" x="936.5" y="-533.5" font-family="Helvetica,sans-Serif" font-size="10.00" fill="#000000">VertexerHIP.h</text>
</a>
</g>
</g>
<!-- Node0&#45;&gt;Node25 -->
<g id="edge66" class="edge">
<title>Node0&#45;&gt;Node25</title>
<path fill="none" stroke="#191970" d="M1582.8988,-615.1348C1441.4395,-599.0204 1162.5021,-567.2451 1021.8549,-551.2232"/>
<polygon fill="#191970" stroke="#191970" points="1021.8919,-547.7049 1011.56,-550.0505 1021.0996,-554.6599 1021.8919,-547.7049"/>
</g>
<!-- Node30 -->
<g id="node31" class="node">
<title>Node30</title>
<g id="a_node31"><a xlink:href="../../d1/d7c/UniquePointerHIP_8h.html" target="_top" xlink:title="ITStrackingHIP/UniquePointer\lHIP.h">
<polygon fill="none" stroke="#000000" points="174.5,-336.5 174.5,-366.5 334.5,-366.5 334.5,-336.5 174.5,-336.5"/>
<text text-anchor="start" x="182.5" y="-354.5" font-family="Helvetica,sans-Serif" font-size="10.00" fill="#000000">ITStrackingHIP/UniquePointer</text>
<text text-anchor="middle" x="254.5" y="-343.5" font-family="Helvetica,sans-Serif" font-size="10.00" fill="#000000">HIP.h</text>
</a>
</g>
</g>
<!-- Node0&#45;&gt;Node30 -->
<g id="edge96" class="edge">
<title>Node0&#45;&gt;Node30</title>
<path fill="none" stroke="#191970" d="M1582.8415,-623.8578C1361.3453,-620.2475 778.8471,-606.2202 592.5,-557 461.0481,-522.2794 425.6563,-505.3853 317.5,-423 299.677,-409.4238 283.081,-390.203 271.4013,-375.1085"/>
<polygon fill="#191970" stroke="#191970" points="273.9333,-372.6527 265.1205,-366.7718 268.3424,-376.8649 273.9333,-372.6527"/>
</g>
<!-- Node3&#45;&gt;Node1 -->
<g id="edge6" class="edge">
<title>Node3&#45;&gt;Node1</title>
<path fill="none" stroke="#191970" d="M1535.1376,-464.871C1587.6653,-443.7386 1707.5201,-388.0455 1766.5,-300 1799.7312,-250.3923 1820.6653,-220.102 1791.5,-168 1782.4792,-151.8848 1765.2499,-140.731 1749.5779,-133.4469"/>
<polygon fill="#191970" stroke="#191970" points="1750.6794,-130.1115 1740.1084,-129.4017 1747.9295,-136.5488 1750.6794,-130.1115"/>
</g>
<!-- Node3&#45;&gt;Node2 -->
<g id="edge4" class="edge">
<title>Node3&#45;&gt;Node2</title>
<path fill="none" stroke="#191970" d="M1585.2086,-465.7943C1736.4937,-443.9807 2059.5013,-373.163 2032.5,-168 2029.1379,-142.454 2037.1926,-128.6163 2017.5,-112 1982.0222,-82.0645 1656.5884,-69.9565 1553.5988,-66.8538"/>
<polygon fill="#191970" stroke="#191970" points="1553.6216,-63.353 1543.5231,-66.5578 1553.416,-70.35 1553.6216,-63.353"/>
</g>
<!-- Node4 -->
<g id="node5" class="node">
<title>Node4</title>
<polygon fill="none" stroke="#bfbfbf" points="1537.5,-403.5 1537.5,-422.5 1581.5,-422.5 1581.5,-403.5 1537.5,-403.5"/>
<text text-anchor="middle" x="1559.5" y="-410.5" font-family="Helvetica,sans-Serif" font-size="10.00" fill="#000000">string</text>
</g>
<!-- Node3&#45;&gt;Node4 -->
<g id="edge5" class="edge">
<title>Node3&#45;&gt;Node4</title>
<path fill="none" stroke="#191970" d="M1517.3125,-464.8906C1524.754,-455.7376 1536.1334,-441.7409 1545.1992,-430.59"/>
<polygon fill="#191970" stroke="#191970" points="1547.9847,-432.712 1551.5774,-422.7449 1542.5533,-428.2962 1547.9847,-432.712"/>
</g>
<!-- Node3&#45;&gt;Node5 -->
<g id="edge7" class="edge">
<title>Node3&#45;&gt;Node5</title>
<path fill="none" stroke="#191970" d="M1496.725,-464.8402C1456.949,-434.7637 1335.0604,-342.5979 1286.1379,-305.6053"/>
<polygon fill="#191970" stroke="#191970" points="1288.2359,-302.8038 1278.1485,-299.5641 1284.0139,-308.3873 1288.2359,-302.8038"/>
</g>
<!-- Node6 -->
<g id="node7" class="node">
<title>Node6</title>
<g id="a_node7"><a xlink:href="../../df/d3d/Definitions_8h.html" target="_top" xlink:title="ITStracking/Definitions.h">
<polygon fill="none" stroke="#000000" points="1320.5,-112.5 1320.5,-131.5 1456.5,-131.5 1456.5,-112.5 1320.5,-112.5"/>
<text text-anchor="middle" x="1388.5" y="-119.5" font-family="Helvetica,sans-Serif" font-size="10.00" fill="#000000">ITStracking/Definitions.h</text>
</a>
</g>
</g>
<!-- Node3&#45;&gt;Node6 -->
<g id="edge59" class="edge">
<title>Node3&#45;&gt;Node6</title>
<path fill="none" stroke="#191970" d="M1511.4521,-464.5827C1514.3592,-450.5881 1520.3686,-424.3674 1528.5,-403 1549.6093,-347.5296 1605.2321,-333.9527 1580.5,-280 1547.7513,-208.5593 1464.483,-158.8238 1419.1092,-136.0514"/>
<polygon fill="#191970" stroke="#191970" points="1420.5538,-132.8617 1410.0339,-131.6032 1417.4729,-139.1473 1420.5538,-132.8617"/>
</g>
<!-- Node7 -->
<g id="node8" class="node">
<title>Node7</title>
<g id="a_node8"><a xlink:href="../../df/d21/GPUCommonDef_8h.html" target="_top" xlink:title="GPUCommonDef.h">
<polygon fill="none" stroke="#000000" points="557,-56.5 557,-75.5 664,-75.5 664,-56.5 557,-56.5"/>
<text text-anchor="middle" x="610.5" y="-63.5" font-family="Helvetica,sans-Serif" font-size="10.00" fill="#000000">GPUCommonDef.h</text>
</a>
</g>
</g>
<!-- Node3&#45;&gt;Node7 -->
<g id="edge62" class="edge">
<title>Node3&#45;&gt;Node7</title>
<path fill="none" stroke="#191970" d="M1433.8496,-468.4666C1274.5515,-455.7261 916.9677,-426.9239 890.5,-423 861.1607,-418.6503 650.7909,-387.6498 629.5,-367 604.1974,-342.4592 610.5,-325.2487 610.5,-290 610.5,-290 610.5,-290 610.5,-178 610.5,-145.7116 610.5,-108.1872 610.5,-85.8048"/>
<polygon fill="#191970" stroke="#191970" points="614.0001,-85.5883 610.5,-75.5884 607.0001,-85.5884 614.0001,-85.5883"/>
</g>
<!-- Node15 -->
<g id="node16" class="node">
<title>Node15</title>
<g id="a_node16"><a xlink:href="../../d6/da2/GPUCommonMath_8h.html" target="_top" xlink:title="GPUCommonMath.h">
<polygon fill="none" stroke="#000000" points="747,-112.5 747,-131.5 862,-131.5 862,-112.5 747,-112.5"/>
<text text-anchor="middle" x="804.5" y="-119.5" font-family="Helvetica,sans-Serif" font-size="10.00" fill="#000000">GPUCommonMath.h</text>
</a>
</g>
</g>
<!-- Node3&#45;&gt;Node15 -->
<g id="edge61" class="edge">
<title>Node3&#45;&gt;Node15</title>
<path fill="none" stroke="#191970" d="M1484.229,-464.9005C1398.4589,-431.876 1111.6811,-317.811 893.5,-188 868.0697,-172.8697 841.0658,-152.0921 823.5616,-137.9171"/>
<polygon fill="#191970" stroke="#191970" points="825.734,-135.1723 815.7803,-131.5426 821.2979,-140.5873 825.734,-135.1723"/>
</g>
<!-- Node22 -->
<g id="node23" class="node">
<title>Node22</title>
<g id="a_node23"><a xlink:href="../../d3/d59/Configuration_8h.html" target="_top" xlink:title="ITStracking/Configuration.h">
<polygon fill="none" stroke="#000000" points="1818,-224.5 1818,-243.5 1967,-243.5 1967,-224.5 1818,-224.5"/>
<text text-anchor="middle" x="1892.5" y="-231.5" font-family="Helvetica,sans-Serif" font-size="10.00" fill="#000000">ITStracking/Configuration.h</text>
</a>
</g>
</g>
<!-- Node3&#45;&gt;Node22 -->
<g id="edge42" class="edge">
<title>Node3&#45;&gt;Node22</title>
<path fill="none" stroke="#191970" d="M1524.9884,-464.7742C1584.1874,-427.601 1796.4255,-294.3288 1868.4164,-249.123"/>
<polygon fill="#191970" stroke="#191970" points="1870.6309,-251.8653 1877.2385,-243.5833 1866.9084,-245.9371 1870.6309,-251.8653"/>
</g>
<!-- Node23 -->
<g id="node24" class="node">
<title>Node23</title>
<g id="a_node24"><a xlink:href="../../df/d50/ClusterLines_8h.html" target="_top" xlink:title="ITStracking/ClusterLines.h">
<polygon fill="none" stroke="#000000" points="1001,-403.5 1001,-422.5 1144,-422.5 1144,-403.5 1001,-403.5"/>
<text text-anchor="middle" x="1072.5" y="-410.5" font-family="Helvetica,sans-Serif" font-size="10.00" fill="#000000">ITStracking/ClusterLines.h</text>
</a>
</g>
</g>
<!-- Node3&#45;&gt;Node23 -->
<g id="edge48" class="edge">
<title>Node3&#45;&gt;Node23</title>
<path fill="none" stroke="#191970" d="M1441.6982,-464.9581C1362.876,-453.8653 1233.0402,-435.5932 1150.2128,-423.9367"/>
<polygon fill="#191970" stroke="#191970" points="1150.4915,-420.4415 1140.1013,-422.5137 1149.5159,-427.3732 1150.4915,-420.4415"/>
</g>
<!-- Node3&#45;&gt;Node24 -->
<g id="edge60" class="edge">
<title>Node3&#45;&gt;Node24</title>
<path fill="none" stroke="#191970" d="M1433.5672,-468.2779C1310.8871,-458.0012 1074.453,-437.2067 991.5,-423 901.4781,-407.5826 798.0871,-379.8335 741.6684,-363.8158"/>
<polygon fill="#191970" stroke="#191970" points="742.6038,-360.443 732.0271,-361.0627 740.6817,-367.174 742.6038,-360.443"/>
</g>
<!-- Node5&#45;&gt;Node2 -->
<g id="edge8" class="edge">
<title>Node5&#45;&gt;Node2</title>
<path fill="none" stroke="#191970" d="M1324.1323,-287.968C1489.583,-282.0012 1949.8005,-263.7076 1975.5,-244 2022.6396,-207.851 2036.4251,-155.9872 1996.5,-112 1966.7444,-79.217 1654.9498,-69.09 1553.9114,-66.6567"/>
<polygon fill="#191970" stroke="#191970" points="1553.8085,-63.1535 1543.73,-66.4207 1553.6462,-70.1516 1553.8085,-63.1535"/>
</g>
<!-- Node5&#45;&gt;Node6 -->
<g id="edge9" class="edge">
<title>Node5&#45;&gt;Node6</title>
<path fill="none" stroke="#191970" d="M1266.6893,-280.4293C1268.6902,-267.0167 1273.6297,-242.2292 1284.5,-224 1305.9569,-188.0173 1343.1926,-155.8924 1366.8017,-137.6997"/>
<polygon fill="#191970" stroke="#191970" points="1368.952,-140.4617 1374.8287,-131.6461 1364.7372,-134.8729 1368.952,-140.4617"/>
</g>
<!-- Node10 -->
<g id="node11" class="node">
<title>Node10</title>
<g id="a_node11"><a xlink:href="../../dc/d3e/MathUtils_8h.html" target="_top" xlink:title="ITStracking/MathUtils.h">
<polygon fill="none" stroke="#000000" points="1069.5,-224.5 1069.5,-243.5 1199.5,-243.5 1199.5,-224.5 1069.5,-224.5"/>
<text text-anchor="middle" x="1134.5" y="-231.5" font-family="Helvetica,sans-Serif" font-size="10.00" fill="#000000">ITStracking/MathUtils.h</text>
</a>
</g>
</g>
<!-- Node5&#45;&gt;Node10 -->
<g id="edge14" class="edge">
<title>Node5&#45;&gt;Node10</title>
<path fill="none" stroke="#191970" d="M1242.9803,-280.3733C1221.7628,-271.3032 1189.7724,-257.6279 1166.0231,-247.4755"/>
<polygon fill="#191970" stroke="#191970" points="1167.2967,-244.2136 1156.7258,-243.5011 1164.5452,-250.6502 1167.2967,-244.2136"/>
</g>
<!-- Node20 -->
<g id="node21" class="node">
<title>Node20</title>
<g id="a_node21"><a xlink:href="../../dc/ddf/ITS_2tracking_2include_2ITStracking_2IndexTableUtils_8h.html" target="_top" xlink:title="ITStracking/IndexTableUtils.h">
<polygon fill="none" stroke="#000000" points="1293.5,-224.5 1293.5,-243.5 1451.5,-243.5 1451.5,-224.5 1293.5,-224.5"/>
<text text-anchor="middle" x="1372.5" y="-231.5" font-family="Helvetica,sans-Serif" font-size="10.00" fill="#000000">ITStracking/IndexTableUtils.h</text>
</a>
</g>
</g>
<!-- Node5&#45;&gt;Node20 -->
<g id="edge34" class="edge">
<title>Node5&#45;&gt;Node20</title>
<path fill="none" stroke="#191970" d="M1284.138,-280.2455C1300.9386,-271.4527 1325.8634,-258.4079 1344.9618,-248.4125"/>
<polygon fill="#191970" stroke="#191970" points="1346.8386,-251.3807 1354.0756,-243.6427 1343.5927,-245.1787 1346.8386,-251.3807"/>
</g>
<!-- Node6&#45;&gt;Node2 -->
<g id="edge10" class="edge">
<title>Node6&#45;&gt;Node2</title>
<path fill="none" stroke="#191970" d="M1411.5354,-112.3733C1433.6334,-103.1383 1467.1554,-89.1291 1491.5716,-78.9253"/>
<polygon fill="#191970" stroke="#191970" points="1493.2142,-82.0323 1501.0913,-74.9469 1490.515,-75.5736 1493.2142,-82.0323"/>
</g>
<!-- Node6&#45;&gt;Node7 -->
<g id="edge11" class="edge">
<title>Node6&#45;&gt;Node7</title>
<path fill="none" stroke="#191970" d="M1320.4794,-117.1039C1171.6948,-106.3945 819.0979,-81.0148 674.278,-70.5907"/>
<polygon fill="#191970" stroke="#191970" points="674.4412,-67.0935 664.2157,-69.8664 673.9386,-74.0754 674.4412,-67.0935"/>
</g>
<!-- Node8 -->
<g id="node9" class="node">
<title>Node8</title>
<g id="a_node9"><a xlink:href="../../d5/d93/GPUCommonDefSettings_8h.html" target="_top" xlink:title="GPUCommonDefSettings.h">
<polygon fill="none" stroke="#000000" points="613.5,-.5 613.5,-19.5 761.5,-19.5 761.5,-.5 613.5,-.5"/>
<text text-anchor="middle" x="687.5" y="-7.5" font-family="Helvetica,sans-Serif" font-size="10.00" fill="#000000">GPUCommonDefSettings.h</text>
</a>
</g>
</g>
<!-- Node7&#45;&gt;Node8 -->
<g id="edge12" class="edge">
<title>Node7&#45;&gt;Node8</title>
<path fill="none" stroke="#191970" d="M623.9124,-56.2455C635.5057,-47.814 652.4748,-35.4729 665.9678,-25.6598"/>
<polygon fill="#191970" stroke="#191970" points="668.2126,-28.355 674.2413,-19.6427 664.0953,-22.6938 668.2126,-28.355"/>
</g>
<!-- Node9 -->
<g id="node10" class="node">
<title>Node9</title>
<g id="a_node10"><a xlink:href="../../da/d5a/GPUCommonDefAPI_8h.html" target="_top" xlink:title="GPUCommonDefAPI.h">
<polygon fill="none" stroke="#000000" points="471.5,-.5 471.5,-19.5 595.5,-19.5 595.5,-.5 471.5,-.5"/>
<text text-anchor="middle" x="533.5" y="-7.5" font-family="Helvetica,sans-Serif" font-size="10.00" fill="#000000">GPUCommonDefAPI.h</text>
</a>
</g>
</g>
<!-- Node7&#45;&gt;Node9 -->
<g id="edge13" class="edge">
<title>Node7&#45;&gt;Node9</title>
<path fill="none" stroke="#191970" d="M597.0876,-56.2455C585.4943,-47.814 568.5252,-35.4729 555.0322,-25.6598"/>
<polygon fill="#191970" stroke="#191970" points="556.9047,-22.6938 546.7587,-19.6427 552.7874,-28.355 556.9047,-22.6938"/>
</g>
<!-- Node10&#45;&gt;Node2 -->
<g id="edge15" class="edge">
<title>Node10&#45;&gt;Node2</title>
<path fill="none" stroke="#191970" d="M1153.3213,-224.3685C1170.057,-215.5589 1194.9822,-201.829 1215.5,-188 1260.6257,-157.5853 1262.3145,-135.2846 1311.5,-112 1371.3237,-83.6793 1448.9802,-72.5432 1491.4248,-68.3587"/>
<polygon fill="#191970" stroke="#191970" points="1491.7877,-71.8401 1501.4248,-67.4383 1491.1461,-64.8696 1491.7877,-71.8401"/>
</g>
<!-- Node10&#45;&gt;Node7 -->
<g id="edge33" class="edge">
<title>Node10&#45;&gt;Node7</title>
<path fill="none" stroke="#191970" d="M1069.9425,-224.4878C1021.0499,-216.6085 952.4649,-204.105 893.5,-188 822.4377,-168.5909 805.0023,-161.496 737.5,-132 701.5617,-116.2963 661.6622,-94.8682 636.3473,-80.7438"/>
<polygon fill="#191970" stroke="#191970" points="637.8304,-77.5625 627.3978,-75.7153 634.4014,-83.6652 637.8304,-77.5625"/>
</g>
<!-- Node11 -->
<g id="node12" class="node">
<title>Node11</title>
<polygon fill="none" stroke="#bfbfbf" points="1174,-56.5 1174,-75.5 1221,-75.5 1221,-56.5 1174,-56.5"/>
<text text-anchor="middle" x="1197.5" y="-63.5" font-family="Helvetica,sans-Serif" font-size="10.00" fill="#000000">cmath</text>
</g>
<!-- Node10&#45;&gt;Node11 -->
<g id="edge16" class="edge">
<title>Node10&#45;&gt;Node11</title>
<path fill="none" stroke="#191970" d="M1156.6066,-224.4742C1171.1331,-216.902 1188.9737,-204.7828 1197.5,-188 1214.2136,-155.1016 1208.1786,-110.478 1202.617,-85.3245"/>
<polygon fill="#191970" stroke="#191970" points="1206.0035,-84.4373 1200.2544,-75.538 1199.199,-86.0801 1206.0035,-84.4373"/>
</g>
<!-- Node12 -->
<g id="node13" class="node">
<title>Node12</title>
<polygon fill="none" stroke="#bfbfbf" points="944.5,-168.5 944.5,-187.5 996.5,-187.5 996.5,-168.5 944.5,-168.5"/>
<text text-anchor="middle" x="970.5" y="-175.5" font-family="Helvetica,sans-Serif" font-size="10.00" fill="#000000">cassert</text>
</g>
<!-- Node10&#45;&gt;Node12 -->
<g id="edge17" class="edge">
<title>Node10&#45;&gt;Node12</title>
<path fill="none" stroke="#191970" d="M1106.3074,-224.3733C1078.6611,-214.933 1036.4048,-200.5041 1006.3773,-190.2508"/>
<polygon fill="#191970" stroke="#191970" points="1007.2962,-186.8662 996.7017,-186.9469 1005.0342,-193.4906 1007.2962,-186.8662"/>
</g>
<!-- Node13 -->
<g id="node14" class="node">
<title>Node13</title>
<polygon fill="none" stroke="#bfbfbf" points="752.5,-168.5 752.5,-187.5 812.5,-187.5 812.5,-168.5 752.5,-168.5"/>
<text text-anchor="middle" x="782.5" y="-175.5" font-family="Helvetica,sans-Serif" font-size="10.00" fill="#000000">iostream</text>
</g>
<!-- Node10&#45;&gt;Node13 -->
<g id="edge18" class="edge">
<title>Node10&#45;&gt;Node13</title>
<path fill="none" stroke="#191970" d="M1074.389,-224.4369C1002.5541,-213.0086 884.3526,-194.2038 822.7193,-184.3985"/>
<polygon fill="#191970" stroke="#191970" points="823.0363,-180.905 812.6106,-182.7903 821.9364,-187.8181 823.0363,-180.905"/>
</g>
<!-- Node14 -->
<g id="node15" class="node">
<title>Node14</title>
<g id="a_node15"><a xlink:href="../../d9/d52/Common_2MathUtils_2include_2MathUtils_2Utils_8h.html" target="_top" xlink:title="MathUtils/Utils.h">
<polygon fill="none" stroke="#000000" points="1090.5,-168.5 1090.5,-187.5 1188.5,-187.5 1188.5,-168.5 1090.5,-168.5"/>
<text text-anchor="middle" x="1139.5" y="-175.5" font-family="Helvetica,sans-Serif" font-size="10.00" fill="#000000">MathUtils/Utils.h</text>
</a>
</g>
</g>
<!-- Node10&#45;&gt;Node14 -->
<g id="edge19" class="edge">
<title>Node10&#45;&gt;Node14</title>
<path fill="none" stroke="#191970" d="M1135.3709,-224.2455C1136.0234,-216.9382 1136.938,-206.6944 1137.7407,-197.7046"/>
<polygon fill="#191970" stroke="#191970" points="1141.2358,-197.9143 1138.639,-187.6427 1134.2635,-197.2918 1141.2358,-197.9143"/>
</g>
<!-- Node10&#45;&gt;Node15 -->
<g id="edge32" class="edge">
<title>Node10&#45;&gt;Node15</title>
<path fill="none" stroke="#191970" d="M1076.8404,-224.4592C1036.5371,-216.8802 981.8523,-204.7589 935.5,-188 924.9923,-184.2009 867.325,-154.5924 832.0967,-136.3471"/>
<polygon fill="#191970" stroke="#191970" points="833.302,-133.0296 822.8133,-131.5332 830.0795,-139.2438 833.302,-133.0296"/>
</g>
<!-- Node10&#45;&gt;Node18 -->
<g id="edge28" class="edge">
<title>Node10&#45;&gt;Node18</title>
<path fill="none" stroke="#191970" d="M1199.5687,-227.7391C1307.8314,-217.3221 1524.4305,-196.4809 1639.8928,-185.3711"/>
<polygon fill="#191970" stroke="#191970" points="1640.4462,-188.8341 1650.065,-184.3924 1639.7757,-181.8663 1640.4462,-188.8341"/>
</g>
<!-- Node14&#45;&gt;Node2 -->
<g id="edge20" class="edge">
<title>Node14&#45;&gt;Node2</title>
<path fill="none" stroke="#191970" d="M1156.0401,-168.4177C1181.5181,-154.0621 1232.2699,-127.0548 1278.5,-112 1352.8421,-87.7905 1444.3196,-74.7954 1491.3362,-69.2762"/>
<polygon fill="#191970" stroke="#191970" points="1491.9449,-72.7296 1501.4848,-68.1208 1491.153,-65.7745 1491.9449,-72.7296"/>
</g>
<!-- Node14&#45;&gt;Node7 -->
<g id="edge22" class="edge">
<title>Node14&#45;&gt;Node7</title>
<path fill="none" stroke="#191970" d="M1090.1948,-169.0196C1050.9437,-161.1978 994.9197,-148.5212 947.5,-132 927.5963,-125.0655 924.665,-118.1336 904.5,-112 827.1722,-88.4792 734.5561,-76.5268 674.2182,-70.7878"/>
<polygon fill="#191970" stroke="#191970" points="674.3588,-67.286 664.0797,-69.8532 673.7161,-74.2565 674.3588,-67.286"/>
</g>
<!-- Node14&#45;&gt;Node11 -->
<g id="edge21" class="edge">
<title>Node14&#45;&gt;Node11</title>
<path fill="none" stroke="#191970" d="M1144.445,-168.4509C1154.0331,-149.936 1175.3051,-108.8591 1187.8064,-84.7187"/>
<polygon fill="#191970" stroke="#191970" points="1191.0769,-86.0144 1192.5675,-75.5249 1184.8609,-82.7953 1191.0769,-86.0144"/>
</g>
<!-- Node14&#45;&gt;Node15 -->
<g id="edge23" class="edge">
<title>Node14&#45;&gt;Node15</title>
<path fill="none" stroke="#191970" d="M1090.4294,-169.7971C1032.639,-160.1367 936.3412,-144.0391 871.6591,-133.2266"/>
<polygon fill="#191970" stroke="#191970" points="872.0005,-129.7352 861.5602,-131.5384 870.8463,-136.6394 872.0005,-129.7352"/>
</g>
<!-- Node17 -->
<g id="node18" class="node">
<title>Node17</title>
<g id="a_node18"><a xlink:href="../../d6/d84/MathConstants_8h.html" target="_top" xlink:title="useful math constants ">
<polygon fill="none" stroke="#000000" points="956.5,-112.5 956.5,-131.5 1150.5,-131.5 1150.5,-112.5 956.5,-112.5"/>
<text text-anchor="middle" x="1053.5" y="-119.5" font-family="Helvetica,sans-Serif" font-size="10.00" fill="#000000">CommonConstants/MathConstants.h</text>
</a>
</g>
</g>
<!-- Node14&#45;&gt;Node17 -->
<g id="edge27" class="edge">
<title>Node14&#45;&gt;Node17</title>
<path fill="none" stroke="#191970" d="M1124.5199,-168.2455C1111.3249,-159.6534 1091.8949,-147.0014 1076.6921,-137.1018"/>
<polygon fill="#191970" stroke="#191970" points="1078.5983,-134.1665 1068.3084,-131.6427 1074.7785,-140.0325 1078.5983,-134.1665"/>
</g>
<!-- Node15&#45;&gt;Node7 -->
<g id="edge24" class="edge">
<title>Node15&#45;&gt;Node7</title>
<path fill="none" stroke="#191970" d="M771.1502,-112.3733C738.472,-102.9404 688.5382,-88.5265 653.023,-78.2747"/>
<polygon fill="#191970" stroke="#191970" points="653.993,-74.9119 643.4146,-75.5011 652.0516,-81.6373 653.993,-74.9119"/>
</g>
<!-- Node15&#45;&gt;Node11 -->
<g id="edge25" class="edge">
<title>Node15&#45;&gt;Node11</title>
<path fill="none" stroke="#191970" d="M862.0665,-113.7971C945.2428,-101.945 1096.4157,-80.4039 1163.6703,-70.8205"/>
<polygon fill="#191970" stroke="#191970" points="1164.3142,-74.2642 1173.7205,-69.3884 1163.3267,-67.3342 1164.3142,-74.2642"/>
</g>
<!-- Node16 -->
<g id="node17" class="node">
<title>Node16</title>
<polygon fill="none" stroke="#bfbfbf" points="772.5,-56.5 772.5,-75.5 836.5,-75.5 836.5,-56.5 772.5,-56.5"/>
<text text-anchor="middle" x="804.5" y="-63.5" font-family="Helvetica,sans-Serif" font-size="10.00" fill="#000000">algorithm</text>
</g>
<!-- Node15&#45;&gt;Node16 -->
<g id="edge26" class="edge">
<title>Node15&#45;&gt;Node16</title>
<path fill="none" stroke="#191970" d="M804.5,-112.2455C804.5,-104.9382 804.5,-94.6944 804.5,-85.7046"/>
<polygon fill="#191970" stroke="#191970" points="808.0001,-85.6426 804.5,-75.6427 801.0001,-85.6427 808.0001,-85.6426"/>
</g>
<!-- Node18&#45;&gt;Node1 -->
<g id="edge30" class="edge">
<title>Node18&#45;&gt;Node1</title>
<path fill="none" stroke="#191970" d="M1716.5,-168.2455C1716.5,-160.9382 1716.5,-150.6944 1716.5,-141.7046"/>
<polygon fill="#191970" stroke="#191970" points="1720.0001,-141.6426 1716.5,-131.6427 1713.0001,-141.6427 1720.0001,-141.6426"/>
</g>
<!-- Node18&#45;&gt;Node6 -->
<g id="edge31" class="edge">
<title>Node18&#45;&gt;Node6</title>
<path fill="none" stroke="#191970" d="M1660.4875,-168.4369C1603.4094,-158.6918 1514.9158,-143.5832 1454.4776,-133.2645"/>
<polygon fill="#191970" stroke="#191970" points="1454.7279,-129.7566 1444.2815,-131.5237 1453.5498,-136.6568 1454.7279,-129.7566"/>
</g>
<!-- Node19 -->
<g id="node20" class="node">
<title>Node19</title>
<polygon fill="none" stroke="#bfbfbf" points="1810.5,-112.5 1810.5,-131.5 1860.5,-131.5 1860.5,-112.5 1810.5,-112.5"/>
<text text-anchor="middle" x="1835.5" y="-119.5" font-family="Helvetica,sans-Serif" font-size="10.00" fill="#000000">climits</text>
</g>
<!-- Node18&#45;&gt;Node19 -->
<g id="edge29" class="edge">
<title>Node18&#45;&gt;Node19</title>
<path fill="none" stroke="#191970" d="M1736.9568,-168.3733C1755.9738,-159.4241 1784.5175,-145.9917 1805.9976,-135.8835"/>
<polygon fill="#191970" stroke="#191970" points="1807.7522,-138.926 1815.3101,-131.5011 1804.7716,-132.5923 1807.7522,-138.926"/>
</g>
<!-- Node20&#45;&gt;Node1 -->
<g id="edge37" class="edge">
<title>Node20&#45;&gt;Node1</title>
<path fill="none" stroke="#191970" d="M1407.0687,-224.4343C1437.675,-215.7203 1483.4252,-202.0943 1522.5,-188 1544.2401,-180.1583 1548.7901,-175.9249 1570.5,-168 1608.5749,-154.1013 1653.1037,-140.4361 1682.8819,-131.6594"/>
<polygon fill="#191970" stroke="#191970" points="1684.1508,-134.9349 1692.7649,-128.7665 1682.1843,-128.2168 1684.1508,-134.9349"/>
</g>
<!-- Node20&#45;&gt;Node2 -->
<g id="edge35" class="edge">
<title>Node20&#45;&gt;Node2</title>
<path fill="none" stroke="#191970" d="M1395.0322,-224.4806C1411.8113,-216.5593 1434.4897,-204.0053 1450.5,-188 1481.2271,-157.2825 1503.833,-110.8625 1514.8937,-85.0399"/>
<polygon fill="#191970" stroke="#191970" points="1518.1966,-86.2122 1518.799,-75.6345 1511.7318,-83.5278 1518.1966,-86.2122"/>
</g>
<!-- Node20&#45;&gt;Node6 -->
<g id="edge39" class="edge">
<title>Node20&#45;&gt;Node6</title>
<path fill="none" stroke="#191970" d="M1373.8642,-224.4509C1376.4737,-206.184 1382.2207,-165.9553 1385.6861,-141.6976"/>
<polygon fill="#191970" stroke="#191970" points="1389.1898,-141.9194 1387.1393,-131.5249 1382.2602,-140.9294 1389.1898,-141.9194"/>
</g>
<!-- Node20&#45;&gt;Node7 -->
<g id="edge41" class="edge">
<title>Node20&#45;&gt;Node7</title>
<path fill="none" stroke="#191970" d="M1293.4824,-228.1067C1234.0773,-222.1051 1151.2724,-210.3664 1081.5,-188 1062.5726,-181.9326 1060.0999,-175.0076 1041.5,-168 982.5865,-145.8042 962.624,-156.1879 904.5,-132 888.3139,-125.2643 886.9481,-118.0678 870.5,-112 806.0574,-88.2267 727.9775,-76.5238 674.3029,-70.9059"/>
<polygon fill="#191970" stroke="#191970" points="674.5394,-67.4121 664.2394,-69.8939 673.839,-74.377 674.5394,-67.4121"/>
</g>
<!-- Node20&#45;&gt;Node15 -->
<g id="edge40" class="edge">
<title>Node20&#45;&gt;Node15</title>
<path fill="none" stroke="#191970" d="M1293.2137,-229.2745C1226.752,-223.7737 1129.9342,-212.1408 1048.5,-188 1028.2921,-182.0094 1025.4387,-174.8332 1005.5,-168 961.3254,-152.8608 909.981,-141.2065 870.2432,-133.4163"/>
<polygon fill="#191970" stroke="#191970" points="870.8836,-129.9754 860.4019,-131.5192 869.5586,-136.8489 870.8836,-129.9754"/>
</g>
<!-- Node20&#45;&gt;Node18 -->
<g id="edge38" class="edge">
<title>Node20&#45;&gt;Node18</title>
<path fill="none" stroke="#191970" d="M1431.2448,-224.4369C1491.3546,-214.6516 1584.6851,-199.4582 1648.0883,-189.1368"/>
<polygon fill="#191970" stroke="#191970" points="1648.6898,-192.585 1657.9975,-187.5237 1647.565,-185.676 1648.6898,-192.585"/>
</g>
<!-- Node21 -->
<g id="node22" class="node">
<title>Node21</title>
<polygon fill="none" stroke="#bfbfbf" points="1397,-168.5 1397,-187.5 1442,-187.5 1442,-168.5 1397,-168.5"/>
<text text-anchor="middle" x="1419.5" y="-175.5" font-family="Helvetica,sans-Serif" font-size="10.00" fill="#000000">utility</text>
</g>
<!-- Node20&#45;&gt;Node21 -->
<g id="edge36" class="edge">
<title>Node20&#45;&gt;Node21</title>
<path fill="none" stroke="#191970" d="M1380.6868,-224.2455C1387.3589,-216.2958 1396.9479,-204.8706 1404.9253,-195.3656"/>
<polygon fill="#191970" stroke="#191970" points="1407.6592,-197.5525 1411.407,-187.6427 1402.2974,-193.0524 1407.6592,-197.5525"/>
</g>
<!-- Node22&#45;&gt;Node1 -->
<g id="edge45" class="edge">
<title>Node22&#45;&gt;Node1</title>
<path fill="none" stroke="#191970" d="M1884.6001,-224.337C1872.7621,-210.3616 1849.1634,-184.3911 1824.5,-168 1801.2439,-152.5442 1771.9445,-140.4558 1749.7327,-132.5576"/>
<polygon fill="#191970" stroke="#191970" points="1750.6679,-129.1779 1740.0731,-129.2265 1748.3857,-135.7954 1750.6679,-129.1779"/>
</g>
<!-- Node22&#45;&gt;Node2 -->
<g id="edge43" class="edge">
<title>Node22&#45;&gt;Node2</title>
<path fill="none" stroke="#191970" d="M1927.2227,-224.4044C1945.3051,-217.4487 1965.8209,-206.0236 1976.5,-188 1993.7181,-158.9402 1999.1487,-137.0594 1976.5,-112 1948.1793,-80.6648 1651.9945,-69.6147 1553.8759,-66.7983"/>
<polygon fill="#191970" stroke="#191970" points="1553.7942,-63.2947 1543.7009,-66.5156 1553.5998,-70.292 1553.7942,-63.2947"/>
</g>
<!-- Node22&#45;&gt;Node11 -->
<g id="edge46" class="edge">
<title>Node22&#45;&gt;Node11</title>
<path fill="none" stroke="#191970" d="M1894.2026,-224.1622C1897.6539,-200.5779 1902.5663,-140.6536 1869.5,-112 1845.1385,-90.8896 1364.0754,-72.0144 1231.2279,-67.1889"/>
<polygon fill="#191970" stroke="#191970" points="1231.3367,-63.6906 1221.217,-66.828 1231.0844,-70.6861 1231.3367,-63.6906"/>
</g>
<!-- Node22&#45;&gt;Node18 -->
<g id="edge47" class="edge">
<title>Node22&#45;&gt;Node18</title>
<path fill="none" stroke="#191970" d="M1862.2445,-224.3733C1832.8517,-215.021 1788.0708,-200.7725 1755.9066,-190.5385"/>
<polygon fill="#191970" stroke="#191970" points="1756.9512,-187.198 1746.3607,-187.5011 1754.8287,-193.8685 1756.9512,-187.198"/>
</g>
<!-- Node22&#45;&gt;Node19 -->
<g id="edge44" class="edge">
<title>Node22&#45;&gt;Node19</title>
<path fill="none" stroke="#191970" d="M1888.5314,-224.4528C1883.0571,-211.4842 1872.7039,-187.6622 1862.5,-168 1857.6654,-158.684 1851.8191,-148.6 1846.8046,-140.2544"/>
<polygon fill="#191970" stroke="#191970" points="1849.7871,-138.4226 1841.5949,-131.704 1843.8093,-142.0649 1849.7871,-138.4226"/>
</g>
<!-- Node23&#45;&gt;Node1 -->
<g id="edge50" class="edge">
<title>Node23&#45;&gt;Node1</title>
<path fill="none" stroke="#191970" d="M1144.4222,-408.2791C1256.7129,-400.4409 1463.9509,-383.9218 1493.5,-367 1589.1494,-312.2247 1560.1592,-242.3829 1641.5,-168 1655.1853,-155.4854 1672.7582,-144.495 1687.4536,-136.3978"/>
<polygon fill="#191970" stroke="#191970" points="1689.4478,-139.3009 1696.6252,-131.5076 1686.1544,-133.1241 1689.4478,-139.3009"/>
</g>
<!-- Node23&#45;&gt;Node2 -->
<g id="edge49" class="edge">
<title>Node23&#45;&gt;Node2</title>
<path fill="none" stroke="#191970" d="M1128.299,-403.4473C1211.9963,-386.2616 1369.8691,-342.3239 1460.5,-244 1502.7271,-198.1886 1516.4374,-122.0621 1520.6912,-86.0528"/>
<polygon fill="#191970" stroke="#191970" points="1524.198,-86.1718 1521.7642,-75.8603 1517.2364,-85.4389 1524.198,-86.1718"/>
</g>
<!-- Node23&#45;&gt;Node5 -->
<g id="edge51" class="edge">
<title>Node23&#45;&gt;Node5</title>
<path fill="none" stroke="#191970" d="M1087.3685,-403.3578C1116.9715,-384.1633 1181.3177,-342.4583 1191.5,-336 1207.9519,-325.5651 1226.5792,-313.9872 1241.0294,-305.0574"/>
<polygon fill="#191970" stroke="#191970" points="1243.1848,-307.8401 1249.8571,-299.6102 1239.5089,-301.8829 1243.1848,-307.8401"/>
</g>
<!-- Node23&#45;&gt;Node6 -->
<g id="edge52" class="edge">
<title>Node23&#45;&gt;Node6</title>
<path fill="none" stroke="#191970" d="M1080.1911,-403.1158C1107.9826,-367.8507 1206.9322,-246.1554 1308.5,-168 1324.2723,-155.8634 1343.5741,-144.6742 1359.2665,-136.3707"/>
<polygon fill="#191970" stroke="#191970" points="1361.2331,-139.294 1368.507,-131.5907 1358.0169,-133.0766 1361.2331,-139.294"/>
</g>
<!-- Node23&#45;&gt;Node15 -->
<g id="edge58" class="edge">
<title>Node23&#45;&gt;Node15</title>
<path fill="none" stroke="#191970" d="M1035.0055,-403.4763C1008.8053,-395.8727 973.6204,-383.7153 945.5,-367 842.3866,-305.7076 792.7243,-297.3897 743.5,-188 734.172,-167.2707 755.2168,-148.7601 775.0856,-136.6563"/>
<polygon fill="#191970" stroke="#191970" points="777.0662,-139.5559 784.0184,-131.561 773.5979,-133.4755 777.0662,-139.5559"/>
</g>
<!-- Node23&#45;&gt;Node24 -->
<g id="edge53" class="edge">
<title>Node23&#45;&gt;Node24</title>
<path fill="none" stroke="#191970" d="M1004.2821,-403.4726C943.7752,-394.7835 853.0639,-381.1725 774.5,-367 767.8186,-365.7947 760.8186,-364.4536 753.8931,-363.0787"/>
<polygon fill="#191970" stroke="#191970" points="754.3399,-359.5984 743.8453,-361.0522 752.9559,-366.4603 754.3399,-359.5984"/>
</g>
<!-- Node24&#45;&gt;Node5 -->
<g id="edge54" class="edge">
<title>Node24&#45;&gt;Node5</title>
<path fill="none" stroke="#191970" d="M760.6097,-344.86C866.9145,-333.3092 1085.1614,-309.5951 1196.6482,-297.4812"/>
<polygon fill="#191970" stroke="#191970" points="1197.2074,-300.9412 1206.7708,-296.3814 1196.4512,-293.9821 1197.2074,-300.9412"/>
</g>
<!-- Node24&#45;&gt;Node7 -->
<g id="edge57" class="edge">
<title>Node24&#45;&gt;Node7</title>
<path fill="none" stroke="#191970" d="M691.9748,-341.7539C677.7883,-322.3746 648.5,-277.1417 648.5,-234 648.5,-234 648.5,-234 648.5,-178 648.5,-143.6118 632.2366,-106.2832 620.989,-84.5791"/>
<polygon fill="#191970" stroke="#191970" points="623.931,-82.6605 616.107,-75.5166 617.7683,-85.9804 623.931,-82.6605"/>
</g>
<!-- Node24&#45;&gt;Node13 -->
<g id="edge55" class="edge">
<title>Node24&#45;&gt;Node13</title>
<path fill="none" stroke="#191970" d="M704.0807,-341.9248C717.3139,-314.2625 755.7767,-233.8614 773.4392,-196.9403"/>
<polygon fill="#191970" stroke="#191970" points="776.673,-198.2909 777.8312,-187.7595 770.3583,-195.27 776.673,-198.2909"/>
</g>
<!-- Node24&#45;&gt;Node15 -->
<g id="edge56" class="edge">
<title>Node24&#45;&gt;Node15</title>
<path fill="none" stroke="#191970" d="M696.9387,-341.678C689.8994,-312.3593 673.1585,-224.0386 710.5,-168 720.6906,-152.7069 737.503,-142.3175 754.1135,-135.3443"/>
<polygon fill="#191970" stroke="#191970" points="755.7352,-138.4711 763.8187,-131.6221 753.2285,-131.9353 755.7352,-138.4711"/>
</g>
<!-- Node25&#45;&gt;Node5 -->
<g id="edge68" class="edge">
<title>Node25&#45;&gt;Node5</title>
<path fill="none" stroke="#191970" d="M972.9841,-526.4443C1018.0323,-506.788 1095.653,-469.3613 1152.5,-423 1195.3243,-388.0748 1234.4841,-335.4078 1253.4648,-308.0053"/>
<polygon fill="#191970" stroke="#191970" points="1256.3576,-309.9756 1259.1044,-299.7429 1250.576,-306.0293 1256.3576,-309.9756"/>
</g>
<!-- Node25&#45;&gt;Node7 -->
<g id="edge95" class="edge">
<title>Node25&#45;&gt;Node7</title>
<path fill="none" stroke="#191970" d="M861.3418,-536.9024C747.2467,-529.244 540.8466,-512.4694 515.5,-490 489.1234,-466.6175 496.5,-448.2487 496.5,-413 496.5,-413 496.5,-413 496.5,-178 496.5,-131.4628 545.4383,-97.828 579.1864,-80.1659"/>
<polygon fill="#191970" stroke="#191970" points="580.8862,-83.2289 588.249,-75.6105 577.7424,-76.9746 580.8862,-83.2289"/>
</g>
<!-- Node25&#45;&gt;Node18 -->
<g id="edge69" class="edge">
<title>Node25&#45;&gt;Node18</title>
<path fill="none" stroke="#191970" d="M1011.7474,-539.1951C1173.5569,-533.7246 1544.0051,-518.2544 1593.5,-490 1629.8007,-469.2776 1647.5,-454.799 1647.5,-413 1647.5,-413 1647.5,-413 1647.5,-290 1647.5,-251.3203 1677.7001,-214.7993 1698.1409,-194.5101"/>
<polygon fill="#191970" stroke="#191970" points="1700.6035,-196.998 1705.414,-187.5582 1695.7667,-191.9378 1700.6035,-196.998"/>
</g>
<!-- Node25&#45;&gt;Node22 -->
<g id="edge70" class="edge">
<title>Node25&#45;&gt;Node22</title>
<path fill="none" stroke="#191970" d="M1011.701,-539.4249C1171.4662,-534.4845 1540.0184,-520.1205 1661.5,-490 1733.1575,-472.233 1761.8011,-475.7038 1813.5,-423 1861.5726,-373.993 1882.0651,-291.4337 1889.2378,-253.7843"/>
<polygon fill="#191970" stroke="#191970" points="1892.7388,-254.0883 1891.052,-243.6286 1885.8479,-252.8573 1892.7388,-254.0883"/>
</g>
<!-- Node25&#45;&gt;Node23 -->
<g id="edge72" class="edge">
<title>Node25&#45;&gt;Node23</title>
<path fill="none" stroke="#191970" d="M952.635,-526.2548C978.2685,-502.0349 1028.1108,-454.9413 1054.7322,-429.788"/>
<polygon fill="#191970" stroke="#191970" points="1057.331,-432.1477 1062.196,-422.7358 1052.5236,-427.0596 1057.331,-432.1477"/>
</g>
<!-- Node25&#45;&gt;Node24 -->
<g id="edge71" class="edge">
<title>Node25&#45;&gt;Node24</title>
<path fill="none" stroke="#191970" d="M920.3995,-526.4684C902.1373,-509.5968 871.2809,-481.6246 843.5,-459 801.5896,-424.8683 750.4534,-387.6993 721.7737,-367.2363"/>
<polygon fill="#191970" stroke="#191970" points="723.4693,-364.1474 713.2913,-361.2046 719.4127,-369.8521 723.4693,-364.1474"/>
</g>
<!-- Node26 -->
<g id="node27" class="node">
<title>Node26</title>
<polygon fill="none" stroke="#bfbfbf" points="1201,-465 1201,-484 1306,-484 1306,-465 1201,-465"/>
<text text-anchor="middle" x="1253.5" y="-472" font-family="Helvetica,sans-Serif" font-size="10.00" fill="#000000">hipcub/hipcub.hpp</text>
</g>
<!-- Node25&#45;&gt;Node26 -->
<g id="edge67" class="edge">
<title>Node25&#45;&gt;Node26</title>
<path fill="none" stroke="#191970" d="M1011.5359,-526.5354C1061.2383,-516.5018 1127.84,-502.8253 1186.5,-490 1191.8944,-488.8206 1197.5265,-487.5614 1203.1344,-486.2898"/>
<polygon fill="#191970" stroke="#191970" points="1204.1768,-489.6419 1213.1457,-484.002 1202.6173,-482.8178 1204.1768,-489.6419"/>
</g>
<!-- Node27 -->
<g id="node28" class="node">
<title>Node27</title>
<g id="a_node28"><a xlink:href="../../de/d49/ArrayHIP_8h.html" target="_top" xlink:title="ITStrackingHIP/ArrayHIP.h">
<polygon fill="none" stroke="#000000" points="525,-465 525,-484 666,-484 666,-465 525,-465"/>
<text text-anchor="middle" x="595.5" y="-472" font-family="Helvetica,sans-Serif" font-size="10.00" fill="#000000">ITStrackingHIP/ArrayHIP.h</text>
</a>
</g>
</g>
<!-- Node25&#45;&gt;Node27 -->
<g id="edge73" class="edge">
<title>Node25&#45;&gt;Node27</title>
<path fill="none" stroke="#191970" d="M861.244,-526.7136C798.7979,-514.4442 711.2549,-497.2436 653.9749,-485.9892"/>
<polygon fill="#191970" stroke="#191970" points="654.4838,-482.5223 643.9966,-484.0287 653.1342,-489.391 654.4838,-482.5223"/>
</g>
<!-- Node29 -->
<g id="node30" class="node">
<title>Node29</title>
<g id="a_node30"><a xlink:href="../../d2/dc8/ClusterLinesHIP_8h.html" target="_top" xlink:title="GPU&#45;compliant version of ClusterLines, for the moment separated, might create a common traits for Clu...">
<polygon fill="none" stroke="#000000" points="684,-459.5 684,-489.5 835,-489.5 835,-459.5 684,-459.5"/>
<text text-anchor="start" x="692" y="-477.5" font-family="Helvetica,sans-Serif" font-size="10.00" fill="#000000">ITStrackingHIP/ClusterLines</text>
<text text-anchor="middle" x="759.5" y="-466.5" font-family="Helvetica,sans-Serif" font-size="10.00" fill="#000000">HIP.h</text>
</a>
</g>
</g>
<!-- Node25&#45;&gt;Node29 -->
<g id="edge76" class="edge">
<title>Node25&#45;&gt;Node29</title>
<path fill="none" stroke="#191970" d="M896.7777,-526.4639C870.7929,-516.6278 836.6493,-503.7034 808.9145,-493.2049"/>
<polygon fill="#191970" stroke="#191970" points="809.987,-489.8686 799.3955,-489.6017 807.5088,-496.4153 809.987,-489.8686"/>
</g>
<!-- Node25&#45;&gt;Node30 -->
<g id="edge80" class="edge">
<title>Node25&#45;&gt;Node30</title>
<path fill="none" stroke="#191970" d="M861.0691,-538.3926C742.5678,-532.7102 518.6492,-518.512 444.5,-490 408.7962,-476.2711 323.5329,-408.4099 280.4132,-373.0368"/>
<polygon fill="#191970" stroke="#191970" points="282.5707,-370.2795 272.6258,-366.6256 278.1215,-375.6837 282.5707,-370.2795"/>
</g>
<!-- Node34 -->
<g id="node35" class="node">
<title>Node34</title>
<g id="a_node35"><a xlink:href="../../dd/dda/VectorHIP_8h.html" target="_top" xlink:title="ITStrackingHIP/VectorHIP.h">
<polygon fill="none" stroke="#000000" points="285.5,-168.5 285.5,-187.5 431.5,-187.5 431.5,-168.5 285.5,-168.5"/>
<text text-anchor="middle" x="358.5" y="-175.5" font-family="Helvetica,sans-Serif" font-size="10.00" fill="#000000">ITStrackingHIP/VectorHIP.h</text>
</a>
</g>
</g>
<!-- Node25&#45;&gt;Node34 -->
<g id="edge87" class="edge">
<title>Node25&#45;&gt;Node34</title>
<path fill="none" stroke="#191970" d="M861.0756,-537.4134C739.5429,-530.1725 511.044,-513.597 482.5,-490 454.8722,-467.1605 458.5,-448.846 458.5,-413 458.5,-413 458.5,-413 458.5,-290 458.5,-246.0606 415.1447,-211.4269 385.5285,-192.8942"/>
<polygon fill="#191970" stroke="#191970" points="387.2145,-189.824 376.8415,-187.6672 383.6055,-195.8219 387.2145,-189.824"/>
</g>
<!-- Node27&#45;&gt;Node7 -->
<g id="edge75" class="edge">
<title>Node27&#45;&gt;Node7</title>
<path fill="none" stroke="#191970" d="M586.7602,-464.7942C569.8931,-445.0172 534.5,-397.9802 534.5,-351.5 534.5,-351.5 534.5,-351.5 534.5,-178 534.5,-146.7875 540.9364,-137.802 558.5,-112 566.3422,-100.4793 577.7082,-89.9817 587.8151,-81.9331"/>
<polygon fill="#191970" stroke="#191970" points="590.0642,-84.6198 595.9038,-75.7796 585.8259,-79.0487 590.0642,-84.6198"/>
</g>
<!-- Node28 -->
<g id="node29" class="node">
<title>Node28</title>
<polygon fill="none" stroke="#bfbfbf" points="600.5,-403.5 600.5,-422.5 702.5,-422.5 702.5,-403.5 600.5,-403.5"/>
<text text-anchor="middle" x="651.5" y="-410.5" font-family="Helvetica,sans-Serif" font-size="10.00" fill="#000000">hip/hip_runtime.h</text>
</g>
<!-- Node27&#45;&gt;Node28 -->
<g id="edge74" class="edge">
<title>Node27&#45;&gt;Node28</title>
<path fill="none" stroke="#191970" d="M604.25,-464.8906C612.6662,-455.6478 625.5797,-441.466 635.781,-430.2628"/>
<polygon fill="#191970" stroke="#191970" points="638.4818,-432.4953 642.6266,-422.7449 633.306,-427.7824 638.4818,-432.4953"/>
</g>
<!-- Node29&#45;&gt;Node7 -->
<g id="edge78" class="edge">
<title>Node29&#45;&gt;Node7</title>
<path fill="none" stroke="#191970" d="M753.1089,-459.4149C745.492,-443.1971 731.2652,-417.7615 711.5,-403 668.5895,-370.9526 634.3471,-404.8938 596.5,-367 571.1687,-341.6374 572.5,-325.846 572.5,-290 572.5,-290 572.5,-290 572.5,-178 572.5,-143.6118 588.7634,-106.2832 600.011,-84.5791"/>
<polygon fill="#191970" stroke="#191970" points="603.2317,-85.9804 604.893,-75.5166 597.069,-82.6605 603.2317,-85.9804"/>
</g>
<!-- Node29&#45;&gt;Node23 -->
<g id="edge79" class="edge">
<title>Node29&#45;&gt;Node23</title>
<path fill="none" stroke="#191970" d="M835.2686,-459.6126C890.1098,-448.837 963.1645,-434.4829 1013.6454,-424.5641"/>
<polygon fill="#191970" stroke="#191970" points="1014.6065,-427.9422 1023.7441,-422.5798 1013.2569,-421.0736 1014.6065,-427.9422"/>
</g>
<!-- Node29&#45;&gt;Node28 -->
<g id="edge77" class="edge">
<title>Node29&#45;&gt;Node28</title>
<path fill="none" stroke="#191970" d="M733.0802,-459.4554C716.0086,-449.734 693.9098,-437.15 677.0191,-427.5317"/>
<polygon fill="#191970" stroke="#191970" points="678.658,-424.4373 668.2362,-422.5303 675.1941,-430.5202 678.658,-424.4373"/>
</g>
<!-- Node30&#45;&gt;Node7 -->
<g id="edge81" class="edge">
<title>Node30&#45;&gt;Node7</title>
<path fill="none" stroke="#191970" d="M232.5,-336.4163C206.1445,-316.3674 165.5,-278.2717 165.5,-234 165.5,-234 165.5,-234 165.5,-178 165.5,-139.2415 188.2697,-130.1799 222.5,-112 277.1948,-82.9512 451.2611,-71.939 546.585,-68.0122"/>
<polygon fill="#191970" stroke="#191970" points="546.8289,-71.5053 556.6818,-67.6106 546.5506,-64.5108 546.8289,-71.5053"/>
</g>
<!-- Node31 -->
<g id="node32" class="node">
<title>Node31</title>
<g id="a_node32"><a xlink:href="../../d8/d28/UtilsHIP_8h.html" target="_top" xlink:title="ITStrackingHIP/UtilsHIP.h">
<polygon fill="none" stroke="#000000" points="0,-112.5 0,-131.5 137,-131.5 137,-112.5 0,-112.5"/>
<text text-anchor="middle" x="68.5" y="-119.5" font-family="Helvetica,sans-Serif" font-size="10.00" fill="#000000">ITStrackingHIP/UtilsHIP.h</text>
</a>
</g>
</g>
<!-- Node30&#45;&gt;Node31 -->
<g id="edge82" class="edge">
<title>Node30&#45;&gt;Node31</title>
<path fill="none" stroke="#191970" d="M208.7366,-336.4009C189.1697,-328.1232 167.255,-316.1915 151.5,-300 106.2266,-253.4722 82.3855,-177.695 73.1392,-141.9116"/>
<polygon fill="#191970" stroke="#191970" points="76.4348,-140.6573 70.6413,-131.7867 69.6385,-142.334 76.4348,-140.6573"/>
</g>
<!-- Node31&#45;&gt;Node7 -->
<g id="edge83" class="edge">
<title>Node31&#45;&gt;Node7</title>
<path fill="none" stroke="#191970" d="M137.3302,-113.5997C142.1244,-113.0477 146.8836,-112.5094 151.5,-112 292.3921,-96.4541 457.8676,-80.4163 546.5873,-71.9977"/>
<polygon fill="#191970" stroke="#191970" points="547.1331,-75.4618 556.7583,-71.0341 546.4728,-68.493 547.1331,-75.4618"/>
</g>
<!-- Node32 -->
<g id="node33" class="node">
<title>Node32</title>
<g id="a_node33"><a xlink:href="../../d4/dac/StreamHIP_8h.html" target="_top" xlink:title="ITStrackingHIP/StreamHIP.h">
<polygon fill="none" stroke="#000000" points="96.5,-56.5 96.5,-75.5 246.5,-75.5 246.5,-56.5 96.5,-56.5"/>
<text text-anchor="middle" x="171.5" y="-63.5" font-family="Helvetica,sans-Serif" font-size="10.00" fill="#000000">ITStrackingHIP/StreamHIP.h</text>
</a>
</g>
</g>
<!-- Node31&#45;&gt;Node32 -->
<g id="edge84" class="edge">
<title>Node31&#45;&gt;Node32</title>
<path fill="none" stroke="#191970" d="M86.4412,-112.2455C102.54,-103.4928 126.3879,-90.527 144.7391,-80.5496"/>
<polygon fill="#191970" stroke="#191970" points="146.6507,-83.4942 153.7644,-75.6427 143.3071,-77.3444 146.6507,-83.4942"/>
</g>
<!-- Node33 -->
<g id="node34" class="node">
<title>Node33</title>
<polygon fill="none" stroke="#bfbfbf" points="59.5,-.5 59.5,-19.5 181.5,-19.5 181.5,-.5 59.5,-.5"/>
<text text-anchor="middle" x="120.5" y="-7.5" font-family="Helvetica,sans-Serif" font-size="10.00" fill="#000000">hip/hip_runtime_api.h</text>
</g>
<!-- Node31&#45;&gt;Node33 -->
<g id="edge86" class="edge">
<title>Node31&#45;&gt;Node33</title>
<path fill="none" stroke="#191970" d="M70.2253,-112.225C72.7991,-98.9982 78.3474,-74.8846 87.5,-56 92.3479,-45.9974 99.3528,-35.855 105.6628,-27.6485"/>
<polygon fill="#191970" stroke="#191970" points="108.5868,-29.5963 112.1022,-19.6016 103.1213,-25.2227 108.5868,-29.5963"/>
</g>
<!-- Node32&#45;&gt;Node33 -->
<g id="edge85" class="edge">
<title>Node32&#45;&gt;Node33</title>
<path fill="none" stroke="#191970" d="M162.6165,-56.2455C155.3034,-48.2155 144.7609,-36.6394 136.0533,-27.0781"/>
<polygon fill="#191970" stroke="#191970" points="138.6028,-24.6795 129.2817,-19.6427 133.4273,-29.3928 138.6028,-24.6795"/>
</g>
<!-- Node34&#45;&gt;Node1 -->
<g id="edge91" class="edge">
<title>Node34&#45;&gt;Node1</title>
<path fill="none" stroke="#191970" d="M431.512,-174.9892C682.8307,-164.6255 1506.3883,-130.6644 1682.9725,-123.3826"/>
<polygon fill="#191970" stroke="#191970" points="1683.1269,-126.8793 1692.9741,-122.9701 1682.8384,-119.8852 1683.1269,-126.8793"/>
</g>
<!-- Node34&#45;&gt;Node7 -->
<g id="edge94" class="edge">
<title>Node34&#45;&gt;Node7</title>
<path fill="none" stroke="#191970" d="M374.5739,-168.4782C397.8663,-154.9052 442.5886,-129.6828 482.5,-112 511.2799,-99.249 544.7945,-87.3045 570.3092,-78.784"/>
<polygon fill="#191970" stroke="#191970" points="571.6192,-82.0374 580.0172,-75.578 569.424,-75.3905 571.6192,-82.0374"/>
</g>
<!-- Node34&#45;&gt;Node31 -->
<g id="edge93" class="edge">
<title>Node34&#45;&gt;Node31</title>
<path fill="none" stroke="#191970" d="M308.9767,-168.4369C258.8241,-158.7522 181.239,-143.7703 127.8303,-133.4569"/>
<polygon fill="#191970" stroke="#191970" points="128.3013,-129.9832 117.819,-131.5237 126.974,-136.8563 128.3013,-129.9832"/>
</g>
<!-- Node34&#45;&gt;Node32 -->
<g id="edge92" class="edge">
<title>Node34&#45;&gt;Node32</title>
<path fill="none" stroke="#191970" d="M308.3621,-168.4862C281.1497,-161.5734 247.9675,-150.1635 222.5,-132 204.8987,-119.4467 190.4816,-99.088 181.521,-84.2975"/>
<polygon fill="#191970" stroke="#191970" points="184.4799,-82.4225 176.442,-75.5201 178.4211,-85.9284 184.4799,-82.4225"/>
</g>
<!-- Node35 -->
<g id="node36" class="node">
<title>Node35</title>
<polygon fill="none" stroke="#bfbfbf" points="374.5,-112.5 374.5,-131.5 430.5,-131.5 430.5,-112.5 374.5,-112.5"/>
<text text-anchor="middle" x="402.5" y="-119.5" font-family="Helvetica,sans-Serif" font-size="10.00" fill="#000000">assert.h</text>
</g>
<!-- Node34&#45;&gt;Node35 -->
<g id="edge88" class="edge">
<title>Node34&#45;&gt;Node35</title>
<path fill="none" stroke="#191970" d="M366.1642,-168.2455C372.3473,-160.3761 381.2063,-149.101 388.6289,-139.6542"/>
<polygon fill="#191970" stroke="#191970" points="391.4975,-141.6683 394.9236,-131.6427 385.9932,-137.3435 391.4975,-141.6683"/>
</g>
<!-- Node36 -->
<g id="node37" class="node">
<title>Node36</title>
<polygon fill="none" stroke="#bfbfbf" points="232,-112.5 232,-131.5 269,-131.5 269,-112.5 232,-112.5"/>
<text text-anchor="middle" x="250.5" y="-119.5" font-family="Helvetica,sans-Serif" font-size="10.00" fill="#000000">new</text>
</g>
<!-- Node34&#45;&gt;Node36 -->
<g id="edge89" class="edge">
<title>Node34&#45;&gt;Node36</title>
<path fill="none" stroke="#191970" d="M339.6878,-168.2455C322.6527,-159.4125 297.3425,-146.2887 278.0319,-136.2758"/>
<polygon fill="#191970" stroke="#191970" points="279.5853,-133.1388 269.0966,-131.6427 276.363,-139.353 279.5853,-133.1388"/>
</g>
<!-- Node37 -->
<g id="node38" class="node">
<title>Node37</title>
<polygon fill="none" stroke="#bfbfbf" points="287,-112.5 287,-131.5 356,-131.5 356,-112.5 287,-112.5"/>
<text text-anchor="middle" x="321.5" y="-119.5" font-family="Helvetica,sans-Serif" font-size="10.00" fill="#000000">type_traits</text>
</g>
<!-- Node34&#45;&gt;Node37 -->
<g id="edge90" class="edge">
<title>Node34&#45;&gt;Node37</title>
<path fill="none" stroke="#191970" d="M352.0551,-168.2455C346.9618,-160.5367 339.7092,-149.5598 333.548,-140.2348"/>
<polygon fill="#191970" stroke="#191970" points="336.3038,-138.0566 327.8711,-131.6427 330.4635,-141.9155 336.3038,-138.0566"/>
</g>
</g>
</svg>
