<?xml version="1.0" encoding="UTF-8" standalone="no"?>
<!DOCTYPE svg PUBLIC "-//W3C//DTD SVG 1.1//EN"
 "http://www.w3.org/Graphics/SVG/1.1/DTD/svg11.dtd">
<!-- Generated by graphviz version 2.40.1 (20161225.0304)
 -->
<!-- Title: o2::framework::StringMetric Pages: 1 -->
<svg width="160pt" height="171pt"
 viewBox="0.00 0.00 160.00 171.00" xmlns="http://www.w3.org/2000/svg" xmlns:xlink="http://www.w3.org/1999/xlink">
<g id="graph0" class="graph" transform="scale(1 1) rotate(0) translate(4 167)">
<title>o2::framework::StringMetric</title>
<!-- Node1 -->
<g id="node1" class="node">
<title>Node1</title>
<polygon fill="#bfbfbf" stroke="#000000" points="0,-.5 0,-57.5 152,-57.5 152,-.5 0,-.5"/>
<text text-anchor="middle" x="76" y="-45.5" font-family="Helvetica,sans-Serif" font-size="10.00" fill="#000000">o2::framework::StringMetric</text>
<polyline fill="none" stroke="#000000" points="0,-38.5 152,-38.5 "/>
<text text-anchor="middle" x="76" y="-26.5" font-family="Helvetica,sans-Serif" font-size="10.00" fill="#000000"> </text>
<polyline fill="none" stroke="#000000" points="0,-19.5 152,-19.5 "/>
<text text-anchor="middle" x="76" y="-7.5" font-family="Helvetica,sans-Serif" font-size="10.00" fill="#000000"> </text>
</g>
<!-- Node2 -->
<g id="node2" class="node">
<title>Node2</title>
<polygon fill="none" stroke="#bfbfbf" points="28,-105.5 28,-162.5 66,-162.5 66,-105.5 28,-105.5"/>
<text text-anchor="middle" x="47" y="-150.5" font-family="Helvetica,sans-Serif" font-size="10.00" fill="#000000">char</text>
<polyline fill="none" stroke="#bfbfbf" points="28,-143.5 66,-143.5 "/>
<text text-anchor="middle" x="47" y="-131.5" font-family="Helvetica,sans-Serif" font-size="10.00" fill="#000000"> </text>
<polyline fill="none" stroke="#bfbfbf" points="28,-124.5 66,-124.5 "/>
<text text-anchor="middle" x="47" y="-112.5" font-family="Helvetica,sans-Serif" font-size="10.00" fill="#000000"> </text>
</g>
<!-- Node2&#45;&gt;Node1 -->
<g id="edge1" class="edge">
<title>Node2&#45;&gt;Node1</title>
<path fill="none" stroke="#404040" d="M45.9325,-105.2578C46.252,-95.7896 47.3391,-85.3067 50,-76 50.6909,-73.5834 51.5246,-71.1547 52.4632,-68.7433"/>
<polygon fill="none" stroke="#404040" points="52.5187,-68.621 51.357,-61.5041 57.4796,-57.6945 58.6413,-64.8114 52.5187,-68.621"/>
<text text-anchor="middle" x="67" y="-79" font-family="Helvetica,sans-Serif" font-size="10.00" fill="#000000"> +data</text>
</g>
<!-- Node3 -->
<g id="node3" class="node">
<title>Node3</title>
<polygon fill="none" stroke="#bfbfbf" points="84,-105.5 84,-162.5 128,-162.5 128,-105.5 84,-105.5"/>
<text text-anchor="middle" x="106" y="-150.5" font-family="Helvetica,sans-Serif" font-size="10.00" fill="#000000">static</text>
<polyline fill="none" stroke="#bfbfbf" points="84,-143.5 128,-143.5 "/>
<text text-anchor="middle" x="106" y="-131.5" font-family="Helvetica,sans-Serif" font-size="10.00" fill="#000000"> </text>
<polyline fill="none" stroke="#bfbfbf" points="84,-124.5 128,-124.5 "/>
<text text-anchor="middle" x="106" y="-112.5" font-family="Helvetica,sans-Serif" font-size="10.00" fill="#000000"> </text>
</g>
<!-- Node3&#45;&gt;Node1 -->
<g id="edge2" class="edge">
<title>Node3&#45;&gt;Node1</title>
<path fill="none" stroke="#404040" d="M97.8024,-105.3083C94.6276,-94.1966 90.937,-81.2796 87.5049,-69.2673"/>
<polygon fill="none" stroke="#404040" points="87.4844,-69.1953 81.99,-64.5251 84.1877,-57.657 89.6822,-62.3273 87.4844,-69.1953"/>
<text text-anchor="middle" x="121.5" y="-79" font-family="Helvetica,sans-Serif" font-size="10.00" fill="#000000"> +MAX_SIZE</text>
</g>
</g>
</svg>
