<?xml version="1.0" encoding="UTF-8" standalone="no"?>
<!DOCTYPE svg PUBLIC "-//W3C//DTD SVG 1.1//EN"
 "http://www.w3.org/Graphics/SVG/1.1/DTD/svg11.dtd">
<!-- Generated by graphviz version 2.40.1 (20161225.0304)
 -->
<!-- Title: o2::data::SubEventInfo Pages: 1 -->
<svg width="661pt" height="496pt"
 viewBox="0.00 0.00 661.00 496.00" xmlns="http://www.w3.org/2000/svg" xmlns:xlink="http://www.w3.org/1999/xlink">
<g id="graph0" class="graph" transform="scale(1 1) rotate(0) translate(4 492)">
<title>o2::data::SubEventInfo</title>
<!-- Node1 -->
<g id="node1" class="node">
<title>Node1</title>
<polygon fill="#bfbfbf" stroke="#000000" points="350.5,-.5 350.5,-57.5 477.5,-57.5 477.5,-.5 350.5,-.5"/>
<text text-anchor="middle" x="414" y="-45.5" font-family="Helvetica,sans-Serif" font-size="10.00" fill="#000000">o2::data::SubEventInfo</text>
<polyline fill="none" stroke="#000000" points="350.5,-38.5 477.5,-38.5 "/>
<text text-anchor="middle" x="414" y="-26.5" font-family="Helvetica,sans-Serif" font-size="10.00" fill="#000000"> </text>
<polyline fill="none" stroke="#000000" points="350.5,-19.5 477.5,-19.5 "/>
<text text-anchor="start" x="358.5" y="-7.5" font-family="Helvetica,sans-Serif" font-size="10.00" fill="#000000">+ ClassDefNV()</text>
</g>
<!-- Node2 -->
<g id="node2" class="node">
<title>Node2</title>
<g id="a_node2"><a xlink:href="../../d4/db1/classo2_1_1dataformats_1_1MCEventHeader.html" target="_top" xlink:title="{o2::dataformats::MCEvent\lHeader\n||+ MCEventHeader()\l+ MCEventHeader()\l+ operator=()\l+ ~MCEventHeader()\l+ setEmbeddingFileName()\l+ setEmbeddingEventIndex()\l+ Reset()\l+ getMCEventStats()\l# ClassDefOverride()\l}">
<polygon fill="none" stroke="#000000" points="144,-127.5 144,-283.5 304,-283.5 304,-127.5 144,-127.5"/>
<text text-anchor="start" x="152" y="-271.5" font-family="Helvetica,sans-Serif" font-size="10.00" fill="#000000">o2::dataformats::MCEvent</text>
<text text-anchor="middle" x="224" y="-260.5" font-family="Helvetica,sans-Serif" font-size="10.00" fill="#000000">Header</text>
<polyline fill="none" stroke="#000000" points="144,-253.5 304,-253.5 "/>
<text text-anchor="middle" x="224" y="-241.5" font-family="Helvetica,sans-Serif" font-size="10.00" fill="#000000"> </text>
<polyline fill="none" stroke="#000000" points="144,-234.5 304,-234.5 "/>
<text text-anchor="start" x="152" y="-222.5" font-family="Helvetica,sans-Serif" font-size="10.00" fill="#000000">+ MCEventHeader()</text>
<text text-anchor="start" x="152" y="-211.5" font-family="Helvetica,sans-Serif" font-size="10.00" fill="#000000">+ MCEventHeader()</text>
<text text-anchor="start" x="152" y="-200.5" font-family="Helvetica,sans-Serif" font-size="10.00" fill="#000000">+ operator=()</text>
<text text-anchor="start" x="152" y="-189.5" font-family="Helvetica,sans-Serif" font-size="10.00" fill="#000000">+ ~MCEventHeader()</text>
<text text-anchor="start" x="152" y="-178.5" font-family="Helvetica,sans-Serif" font-size="10.00" fill="#000000">+ setEmbeddingFileName()</text>
<text text-anchor="start" x="152" y="-167.5" font-family="Helvetica,sans-Serif" font-size="10.00" fill="#000000">+ setEmbeddingEventIndex()</text>
<text text-anchor="start" x="152" y="-156.5" font-family="Helvetica,sans-Serif" font-size="10.00" fill="#000000">+ Reset()</text>
<text text-anchor="start" x="152" y="-145.5" font-family="Helvetica,sans-Serif" font-size="10.00" fill="#000000">+ getMCEventStats()</text>
<text text-anchor="start" x="152" y="-134.5" font-family="Helvetica,sans-Serif" font-size="10.00" fill="#000000"># ClassDefOverride()</text>
</a>
</g>
</g>
<!-- Node2&#45;&gt;Node1 -->
<g id="edge1" class="edge">
<title>Node2&#45;&gt;Node1</title>
<path fill="none" stroke="#404040" d="M229.1588,-127.4179C233.7958,-108.6482 241.7131,-90.0028 255,-76 267.0602,-63.2901 303.6062,-52.0398 338.6227,-43.7351"/>
<polygon fill="none" stroke="#404040" points="338.7053,-43.7163 343.6594,-38.4763 350.4017,-41.0338 345.4476,-46.2738 338.7053,-43.7163"/>
<text text-anchor="middle" x="305" y="-90" font-family="Helvetica,sans-Serif" font-size="10.00" fill="#000000"> +mMCEventHeader</text>
</g>
<!-- Node3 -->
<g id="node3" class="node">
<title>Node3</title>
<g id="a_node3"><a xlink:href="../../dd/d8f/classFairMCEventHeader.html" target="_top" xlink:title="{FairMCEventHeader\n||}">
<polygon fill="none" stroke="#000000" points="0,-381 0,-438 112,-438 112,-381 0,-381"/>
<text text-anchor="middle" x="56" y="-426" font-family="Helvetica,sans-Serif" font-size="10.00" fill="#000000">FairMCEventHeader</text>
<polyline fill="none" stroke="#000000" points="0,-419 112,-419 "/>
<text text-anchor="middle" x="56" y="-407" font-family="Helvetica,sans-Serif" font-size="10.00" fill="#000000"> </text>
<polyline fill="none" stroke="#000000" points="0,-400 112,-400 "/>
<text text-anchor="middle" x="56" y="-388" font-family="Helvetica,sans-Serif" font-size="10.00" fill="#000000"> </text>
</a>
</g>
</g>
<!-- Node3&#45;&gt;Node2 -->
<g id="edge2" class="edge">
<title>Node3&#45;&gt;Node2</title>
<path fill="none" stroke="#191970" d="M86.3307,-372.6699C106.7018,-347.9336 134.3182,-314.3993 159.4701,-283.8578"/>
<polygon fill="none" stroke="#191970" points="83.3693,-370.7601 79.714,-380.7045 88.7728,-375.2101 83.3693,-370.7601"/>
</g>
<!-- Node4 -->
<g id="node4" class="node">
<title>Node4</title>
<polygon fill="none" stroke="#bfbfbf" points="130,-381 130,-438 174,-438 174,-381 130,-381"/>
<text text-anchor="middle" x="152" y="-426" font-family="Helvetica,sans-Serif" font-size="10.00" fill="#000000">string</text>
<polyline fill="none" stroke="#bfbfbf" points="130,-419 174,-419 "/>
<text text-anchor="middle" x="152" y="-407" font-family="Helvetica,sans-Serif" font-size="10.00" fill="#000000"> </text>
<polyline fill="none" stroke="#bfbfbf" points="130,-400 174,-400 "/>
<text text-anchor="middle" x="152" y="-388" font-family="Helvetica,sans-Serif" font-size="10.00" fill="#000000"> </text>
</g>
<!-- Node4&#45;&gt;Node2 -->
<g id="edge3" class="edge">
<title>Node4&#45;&gt;Node2</title>
<path fill="none" stroke="#404040" d="M147.5733,-380.8752C145.2564,-358.7515 144.4404,-327.6735 153,-302 153.8095,-299.5721 154.7052,-297.1546 155.6769,-294.7522"/>
<polygon fill="none" stroke="#404040" points="155.7661,-294.5564 154.6137,-287.4379 160.7414,-283.6364 161.8937,-290.7548 155.7661,-294.5564"/>
<text text-anchor="middle" x="214" y="-305" font-family="Helvetica,sans-Serif" font-size="10.00" fill="#000000"> #mEmbeddingFileName</text>
</g>
<!-- Node5 -->
<g id="node5" class="node">
<title>Node5</title>
<polygon fill="none" stroke="#bfbfbf" points="278,-381 278,-438 316,-438 316,-381 278,-381"/>
<text text-anchor="middle" x="297" y="-426" font-family="Helvetica,sans-Serif" font-size="10.00" fill="#000000">Int_t</text>
<polyline fill="none" stroke="#bfbfbf" points="278,-419 316,-419 "/>
<text text-anchor="middle" x="297" y="-407" font-family="Helvetica,sans-Serif" font-size="10.00" fill="#000000"> </text>
<polyline fill="none" stroke="#bfbfbf" points="278,-400 316,-400 "/>
<text text-anchor="middle" x="297" y="-388" font-family="Helvetica,sans-Serif" font-size="10.00" fill="#000000"> </text>
</g>
<!-- Node5&#45;&gt;Node2 -->
<g id="edge4" class="edge">
<title>Node5&#45;&gt;Node2</title>
<path fill="none" stroke="#404040" d="M293.3646,-380.6046C290.0566,-358.6102 284.2522,-327.8246 275,-302 274.1512,-299.6308 273.2531,-297.2476 272.3133,-294.8584"/>
<polygon fill="none" stroke="#404040" points="272.262,-294.7354 266.2588,-290.7402 267.6378,-283.6622 273.641,-287.6574 272.262,-294.7354"/>
<text text-anchor="middle" x="343.5" y="-305" font-family="Helvetica,sans-Serif" font-size="10.00" fill="#000000"> #mEmbeddingEventIndex</text>
</g>
<!-- Node6 -->
<g id="node6" class="node">
<title>Node6</title>
<g id="a_node6"><a xlink:href="../../d9/ddb/classo2_1_1dataformats_1_1MCEventStats.html" target="_top" xlink:title="{o2::dataformats::MCEvent\lStats\n||+ setNHits()\l+ getNHits()\l+ setNTransportedTracks()\l+ getNTransportedTracks()\l+ setNKeptTracks()\l+ getNKeptTracks()\l+ setNSteps()\l+ getNSteps()\l+ add()\l}">
<polygon fill="none" stroke="#000000" points="378,-331.5 378,-487.5 524,-487.5 524,-331.5 378,-331.5"/>
<text text-anchor="start" x="386" y="-475.5" font-family="Helvetica,sans-Serif" font-size="10.00" fill="#000000">o2::dataformats::MCEvent</text>
<text text-anchor="middle" x="451" y="-464.5" font-family="Helvetica,sans-Serif" font-size="10.00" fill="#000000">Stats</text>
<polyline fill="none" stroke="#000000" points="378,-457.5 524,-457.5 "/>
<text text-anchor="middle" x="451" y="-445.5" font-family="Helvetica,sans-Serif" font-size="10.00" fill="#000000"> </text>
<polyline fill="none" stroke="#000000" points="378,-438.5 524,-438.5 "/>
<text text-anchor="start" x="386" y="-426.5" font-family="Helvetica,sans-Serif" font-size="10.00" fill="#000000">+ setNHits()</text>
<text text-anchor="start" x="386" y="-415.5" font-family="Helvetica,sans-Serif" font-size="10.00" fill="#000000">+ getNHits()</text>
<text text-anchor="start" x="386" y="-404.5" font-family="Helvetica,sans-Serif" font-size="10.00" fill="#000000">+ setNTransportedTracks()</text>
<text text-anchor="start" x="386" y="-393.5" font-family="Helvetica,sans-Serif" font-size="10.00" fill="#000000">+ getNTransportedTracks()</text>
<text text-anchor="start" x="386" y="-382.5" font-family="Helvetica,sans-Serif" font-size="10.00" fill="#000000">+ setNKeptTracks()</text>
<text text-anchor="start" x="386" y="-371.5" font-family="Helvetica,sans-Serif" font-size="10.00" fill="#000000">+ getNKeptTracks()</text>
<text text-anchor="start" x="386" y="-360.5" font-family="Helvetica,sans-Serif" font-size="10.00" fill="#000000">+ setNSteps()</text>
<text text-anchor="start" x="386" y="-349.5" font-family="Helvetica,sans-Serif" font-size="10.00" fill="#000000">+ getNSteps()</text>
<text text-anchor="start" x="386" y="-338.5" font-family="Helvetica,sans-Serif" font-size="10.00" fill="#000000">+ add()</text>
</a>
</g>
</g>
<!-- Node6&#45;&gt;Node2 -->
<g id="edge5" class="edge">
<title>Node6&#45;&gt;Node2</title>
<path fill="none" stroke="#404040" d="M434.5878,-331.286C429.2871,-320.1855 422.2753,-309.885 413,-302 381.2816,-275.036 357.6089,-299.1981 315.3391,-284.0794"/>
<polygon fill="none" stroke="#404040" points="315.2194,-284.0285 308.1327,-285.3627 304.1756,-279.3343 311.2622,-278.0002 315.2194,-284.0285"/>
<text text-anchor="middle" x="460" y="-305" font-family="Helvetica,sans-Serif" font-size="10.00" fill="#000000"> #mEventStats</text>
</g>
<!-- Node7 -->
<g id="node7" class="node">
<title>Node7</title>
<polygon fill="none" stroke="#bfbfbf" points="322,-177 322,-234 378,-234 378,-177 322,-177"/>
<text text-anchor="middle" x="350" y="-222" font-family="Helvetica,sans-Serif" font-size="10.00" fill="#000000">uint16_t</text>
<polyline fill="none" stroke="#bfbfbf" points="322,-215 378,-215 "/>
<text text-anchor="middle" x="350" y="-203" font-family="Helvetica,sans-Serif" font-size="10.00" fill="#000000"> </text>
<polyline fill="none" stroke="#bfbfbf" points="322,-196 378,-196 "/>
<text text-anchor="middle" x="350" y="-184" font-family="Helvetica,sans-Serif" font-size="10.00" fill="#000000"> </text>
</g>
<!-- Node7&#45;&gt;Node1 -->
<g id="edge6" class="edge">
<title>Node7&#45;&gt;Node1</title>
<path fill="none" stroke="#404040" d="M349.6488,-176.7875C350.3916,-149.5468 354.3735,-108.1164 370,-76 371.4403,-73.0397 373.1317,-70.1385 374.9972,-67.3219"/>
<polygon fill="none" stroke="#404040" points="375.1507,-67.1184 375.5709,-59.9196 382.3777,-57.5387 381.9574,-64.7376 375.1507,-67.1184"/>
<text text-anchor="middle" x="390" y="-95.5" font-family="Helvetica,sans-Serif" font-size="10.00" fill="#000000"> +part</text>
<text text-anchor="middle" x="390" y="-84.5" font-family="Helvetica,sans-Serif" font-size="10.00" fill="#000000">+nparts</text>
</g>
<!-- Node8 -->
<g id="node8" class="node">
<title>Node8</title>
<g id="a_node8"><a xlink:href="../../d4/dc3/classfloat.html" target="_top" xlink:title="{float\n||}">
<polygon fill="none" stroke="#000000" points="396,-177 396,-234 434,-234 434,-177 396,-177"/>
<text text-anchor="middle" x="415" y="-222" font-family="Helvetica,sans-Serif" font-size="10.00" fill="#000000">float</text>
<polyline fill="none" stroke="#000000" points="396,-215 434,-215 "/>
<text text-anchor="middle" x="415" y="-203" font-family="Helvetica,sans-Serif" font-size="10.00" fill="#000000"> </text>
<polyline fill="none" stroke="#000000" points="396,-196 434,-196 "/>
<text text-anchor="middle" x="415" y="-184" font-family="Helvetica,sans-Serif" font-size="10.00" fill="#000000"> </text>
</a>
</g>
</g>
<!-- Node8&#45;&gt;Node1 -->
<g id="edge7" class="edge">
<title>Node8&#45;&gt;Node1</title>
<path fill="none" stroke="#404040" d="M414.8371,-176.7494C414.6729,-147.7744 414.418,-102.7816 414.2326,-70.056"/>
<polygon fill="none" stroke="#404040" points="414.2309,-69.7381 410.1969,-63.7609 414.1628,-57.7383 418.1968,-63.7155 414.2309,-69.7381"/>
<text text-anchor="middle" x="445" y="-90" font-family="Helvetica,sans-Serif" font-size="10.00" fill="#000000"> +eventtime</text>
</g>
<!-- Node9 -->
<g id="node9" class="node">
<title>Node9</title>
<polygon fill="none" stroke="#bfbfbf" points="474,-177 474,-234 524,-234 524,-177 474,-177"/>
<text text-anchor="middle" x="499" y="-222" font-family="Helvetica,sans-Serif" font-size="10.00" fill="#000000">int32_t</text>
<polyline fill="none" stroke="#bfbfbf" points="474,-215 524,-215 "/>
<text text-anchor="middle" x="499" y="-203" font-family="Helvetica,sans-Serif" font-size="10.00" fill="#000000"> </text>
<polyline fill="none" stroke="#bfbfbf" points="474,-196 524,-196 "/>
<text text-anchor="middle" x="499" y="-184" font-family="Helvetica,sans-Serif" font-size="10.00" fill="#000000"> </text>
</g>
<!-- Node9&#45;&gt;Node1 -->
<g id="edge8" class="edge">
<title>Node9&#45;&gt;Node1</title>
<path fill="none" stroke="#404040" d="M500.066,-176.8723C499.8023,-149.1278 495.8638,-106.8327 477,-76 474.9347,-72.6244 472.5289,-69.4104 469.8862,-66.3647"/>
<polygon fill="none" stroke="#404040" points="469.7918,-66.2693 462.7283,-64.818 461.3512,-57.7396 468.4147,-59.1909 469.7918,-66.2693"/>
<text text-anchor="middle" x="537" y="-101" font-family="Helvetica,sans-Serif" font-size="10.00" fill="#000000"> +runID</text>
<text text-anchor="middle" x="537" y="-90" font-family="Helvetica,sans-Serif" font-size="10.00" fill="#000000">+maxEvents</text>
<text text-anchor="middle" x="537" y="-79" font-family="Helvetica,sans-Serif" font-size="10.00" fill="#000000">+npersistenttracks</text>
</g>
<!-- Node10 -->
<g id="node10" class="node">
<title>Node10</title>
<polygon fill="none" stroke="#bfbfbf" points="588,-177 588,-234 644,-234 644,-177 588,-177"/>
<text text-anchor="middle" x="616" y="-222" font-family="Helvetica,sans-Serif" font-size="10.00" fill="#000000">uint32_t</text>
<polyline fill="none" stroke="#bfbfbf" points="588,-215 644,-215 "/>
<text text-anchor="middle" x="616" y="-203" font-family="Helvetica,sans-Serif" font-size="10.00" fill="#000000"> </text>
<polyline fill="none" stroke="#bfbfbf" points="588,-196 644,-196 "/>
<text text-anchor="middle" x="616" y="-184" font-family="Helvetica,sans-Serif" font-size="10.00" fill="#000000"> </text>
</g>
<!-- Node10&#45;&gt;Node1 -->
<g id="edge9" class="edge">
<title>Node10&#45;&gt;Node1</title>
<path fill="none" stroke="#404040" d="M617.8301,-176.8675C618.0644,-147.6947 613.6705,-103.011 588,-76 574.0702,-61.3428 529.857,-49.5059 489.4881,-41.3774"/>
<polygon fill="none" stroke="#404040" points="489.4576,-41.3715 482.804,-44.1519 477.6785,-39.0795 484.3321,-36.2991 489.4576,-41.3715"/>
<text text-anchor="middle" x="629.5" y="-101" font-family="Helvetica,sans-Serif" font-size="10.00" fill="#000000"> +index</text>
<text text-anchor="middle" x="629.5" y="-90" font-family="Helvetica,sans-Serif" font-size="10.00" fill="#000000">+eventID</text>
<text text-anchor="middle" x="629.5" y="-79" font-family="Helvetica,sans-Serif" font-size="10.00" fill="#000000">+seed</text>
</g>
</g>
</svg>
