<?xml version="1.0" encoding="UTF-8" standalone="no"?>
<!DOCTYPE svg PUBLIC "-//W3C//DTD SVG 1.1//EN"
 "http://www.w3.org/Graphics/SVG/1.1/DTD/svg11.dtd">
<!-- Generated by graphviz version 2.40.1 (20161225.0304)
 -->
<!-- Title: /home/travis/build/AliceO2Group/AliceO2/GPU/GPUTracking/TPCClusterFinder/Array2D.h Pages: 1 -->
<!--zoomable 239 -->
<svg id="main" version="1.1" xmlns="http://www.w3.org/2000/svg" xmlns:xlink="http://www.w3.org/1999/xlink" xml:space="preserve" onload="init(evt)">
<style type="text/css"><![CDATA[
.edge:hover path { stroke: red; }
.edge:hover polygon { stroke: red; fill: red; }
]]></style>
<script type="text/javascript"><![CDATA[
var edges = document.getElementsByTagName('g');
if (edges && edges.length) {
  for (var i=0;i<edges.length;i++) {
    if (edges[i].id.substr(0,4)=='edge') {
      edges[i].setAttribute('class','edge');
    }
  }
}
]]></script>
        <defs>
                <circle id="rim" cx="0" cy="0" r="7"/>
                <circle id="rim2" cx="0" cy="0" r="3.5"/>
                <g id="zoomPlus">
                        <use xlink:href="#rim" fill="#404040">
                                <set attributeName="fill" to="#808080" begin="zoomplus.mouseover" end="zoomplus.mouseout"/>
                        </use>
                        <path d="M-4,0h8M0,-4v8" fill="none" stroke="white" stroke-width="1.5" pointer-events="none"/>
                </g>
                <g id="zoomMin">
                        <use xlink:href="#rim" fill="#404040">
                                <set attributeName="fill" to="#808080" begin="zoomminus.mouseover" end="zoomminus.mouseout"/>
                        </use>
                        <path d="M-4,0h8" fill="none" stroke="white" stroke-width="1.5" pointer-events="none"/>
                </g>
                <g id="dirArrow">
                        <path fill="none" stroke="white" stroke-width="1.5" d="M0,-3.0v7 M-2.5,-0.5L0,-3.0L2.5,-0.5"/>
                </g>
               <g id="resetDef">
                       <use xlink:href="#rim2" fill="#404040">
                               <set attributeName="fill" to="#808080" begin="reset.mouseover" end="reset.mouseout"/>
                       </use>
               </g>
        </defs>

<script type="text/javascript">
var viewWidth = 1244;
var viewHeight = 239;
var sectionId = 'dynsection-1';
</script>
<script xlink:href="../../svgpan.js"/>
<svg id="graph" class="graph">
<g id="viewport">
<title>/home/travis/build/AliceO2Group/AliceO2/GPU/GPUTracking/TPCClusterFinder/Array2D.h</title>
<!-- Node13 -->
<g id="node1" class="node">
<title>Node13</title>
<polygon fill="#bfbfbf" stroke="#000000" points="627,-178.5 627,-230.5 818,-230.5 818,-178.5 627,-178.5"/>
<text text-anchor="start" x="635" y="-218.5" font-family="Helvetica,sans-Serif" font-size="10.00" fill="#000000">/home/travis/build</text>
<text text-anchor="start" x="635" y="-207.5" font-family="Helvetica,sans-Serif" font-size="10.00" fill="#000000">/AliceO2Group/AliceO2</text>
<text text-anchor="start" x="635" y="-196.5" font-family="Helvetica,sans-Serif" font-size="10.00" fill="#000000">/GPU/GPUTracking/TPCClusterFinder</text>
<text text-anchor="middle" x="722.5" y="-185.5" font-family="Helvetica,sans-Serif" font-size="10.00" fill="#000000">/Array2D.h</text>
</g>
<!-- Node14 -->
<g id="node2" class="node">
<title>Node14</title>
<g id="a_node2"><a xlink:href="../../da/de7/CfUtils_8h.html" target="_top" xlink:title="/home/travis/build\l/AliceO2Group/AliceO2\l/GPU/GPUTracking/TPCClusterFinder\l/CfUtils.h">
<polygon fill="none" stroke="#000000" points="503,-89.5 503,-141.5 694,-141.5 694,-89.5 503,-89.5"/>
<text text-anchor="start" x="511" y="-129.5" font-family="Helvetica,sans-Serif" font-size="10.00" fill="#000000">/home/travis/build</text>
<text text-anchor="start" x="511" y="-118.5" font-family="Helvetica,sans-Serif" font-size="10.00" fill="#000000">/AliceO2Group/AliceO2</text>
<text text-anchor="start" x="511" y="-107.5" font-family="Helvetica,sans-Serif" font-size="10.00" fill="#000000">/GPU/GPUTracking/TPCClusterFinder</text>
<text text-anchor="middle" x="598.5" y="-96.5" font-family="Helvetica,sans-Serif" font-size="10.00" fill="#000000">/CfUtils.h</text>
</a>
</g>
</g>
<!-- Node13&#45;&gt;Node14 -->
<g id="edge1" class="edge">
<title>Node13&#45;&gt;Node14</title>
<path fill="none" stroke="#191970" d="M677.8197,-172.431C663.6845,-162.2856 648.2435,-151.203 634.7723,-141.5341"/>
<polygon fill="#191970" stroke="#191970" points="675.8017,-175.2909 685.9666,-178.2784 679.8834,-169.604 675.8017,-175.2909"/>
</g>
<!-- Node16 -->
<g id="node4" class="node">
<title>Node16</title>
<g id="a_node4"><a xlink:href="../../db/ddd/GPU_2GPUTracking_2TPCClusterFinder_2Clusterizer_8cxx.html" target="_top" xlink:title="/home/travis/build\l/AliceO2Group/AliceO2\l/GPU/GPUTracking/TPCClusterFinder\l/Clusterizer.cxx">
<polygon fill="none" stroke="#000000" points="0,-.5 0,-52.5 191,-52.5 191,-.5 0,-.5"/>
<text text-anchor="start" x="8" y="-40.5" font-family="Helvetica,sans-Serif" font-size="10.00" fill="#000000">/home/travis/build</text>
<text text-anchor="start" x="8" y="-29.5" font-family="Helvetica,sans-Serif" font-size="10.00" fill="#000000">/AliceO2Group/AliceO2</text>
<text text-anchor="start" x="8" y="-18.5" font-family="Helvetica,sans-Serif" font-size="10.00" fill="#000000">/GPU/GPUTracking/TPCClusterFinder</text>
<text text-anchor="middle" x="95.5" y="-7.5" font-family="Helvetica,sans-Serif" font-size="10.00" fill="#000000">/Clusterizer.cxx</text>
</a>
</g>
</g>
<!-- Node13&#45;&gt;Node16 -->
<g id="edge9" class="edge">
<title>Node13&#45;&gt;Node16</title>
<path fill="none" stroke="#191970" d="M616.4768,-189.2767C551.6817,-178.7488 467.5099,-162.8727 394.5,-142 308.7591,-117.4877 213.1996,-78.4053 153.7113,-52.599"/>
<polygon fill="#191970" stroke="#191970" points="616.2763,-192.7893 626.705,-190.9204 617.387,-185.878 616.2763,-192.7893"/>
</g>
<!-- Node17 -->
<g id="node5" class="node">
<title>Node17</title>
<g id="a_node5"><a xlink:href="../../da/d32/Deconvolution_8cxx.html" target="_top" xlink:title="/home/travis/build\l/AliceO2Group/AliceO2\l/GPU/GPUTracking/TPCClusterFinder\l/Deconvolution.cxx">
<polygon fill="none" stroke="#000000" points="209,-.5 209,-52.5 400,-52.5 400,-.5 209,-.5"/>
<text text-anchor="start" x="217" y="-40.5" font-family="Helvetica,sans-Serif" font-size="10.00" fill="#000000">/home/travis/build</text>
<text text-anchor="start" x="217" y="-29.5" font-family="Helvetica,sans-Serif" font-size="10.00" fill="#000000">/AliceO2Group/AliceO2</text>
<text text-anchor="start" x="217" y="-18.5" font-family="Helvetica,sans-Serif" font-size="10.00" fill="#000000">/GPU/GPUTracking/TPCClusterFinder</text>
<text text-anchor="middle" x="304.5" y="-7.5" font-family="Helvetica,sans-Serif" font-size="10.00" fill="#000000">/Deconvolution.cxx</text>
</a>
</g>
</g>
<!-- Node13&#45;&gt;Node17 -->
<g id="edge10" class="edge">
<title>Node13&#45;&gt;Node17</title>
<path fill="none" stroke="#191970" d="M616.9303,-182.3104C577.3709,-172.2905 532.5663,-158.8631 493.5,-142 436.8343,-117.54 376.9318,-78.351 340.1248,-52.5162"/>
<polygon fill="#191970" stroke="#191970" points="616.3187,-185.7649 626.8681,-184.7844 618.0098,-178.9722 616.3187,-185.7649"/>
</g>
<!-- Node18 -->
<g id="node6" class="node">
<title>Node18</title>
<g id="a_node6"><a xlink:href="../../d8/db5/GPUTPCClusterFinderKernels_8cxx.html" target="_top" xlink:title="/home/travis/build\l/AliceO2Group/AliceO2\l/GPU/GPUTracking/TPCClusterFinder\l/GPUTPCClusterFinderKernels.cxx">
<polygon fill="none" stroke="#000000" points="627,-.5 627,-52.5 818,-52.5 818,-.5 627,-.5"/>
<text text-anchor="start" x="635" y="-40.5" font-family="Helvetica,sans-Serif" font-size="10.00" fill="#000000">/home/travis/build</text>
<text text-anchor="start" x="635" y="-29.5" font-family="Helvetica,sans-Serif" font-size="10.00" fill="#000000">/AliceO2Group/AliceO2</text>
<text text-anchor="start" x="635" y="-18.5" font-family="Helvetica,sans-Serif" font-size="10.00" fill="#000000">/GPU/GPUTracking/TPCClusterFinder</text>
<text text-anchor="middle" x="722.5" y="-7.5" font-family="Helvetica,sans-Serif" font-size="10.00" fill="#000000">/GPUTPCClusterFinderKernels.cxx</text>
</a>
</g>
</g>
<!-- Node13&#45;&gt;Node18 -->
<g id="edge11" class="edge">
<title>Node13&#45;&gt;Node18</title>
<path fill="none" stroke="#191970" d="M722.5,-168.1378C722.5,-133.7809 722.5,-83.0886 722.5,-52.5823"/>
<polygon fill="#191970" stroke="#191970" points="719.0001,-168.2355 722.5,-178.2355 726.0001,-168.2355 719.0001,-168.2355"/>
</g>
<!-- Node19 -->
<g id="node7" class="node">
<title>Node19</title>
<g id="a_node7"><a xlink:href="../../da/df9/NoiseSuppression_8cxx.html" target="_top" xlink:title="/home/travis/build\l/AliceO2Group/AliceO2\l/GPU/GPUTracking/TPCClusterFinder\l/NoiseSuppression.cxx">
<polygon fill="none" stroke="#000000" points="836,-.5 836,-52.5 1027,-52.5 1027,-.5 836,-.5"/>
<text text-anchor="start" x="844" y="-40.5" font-family="Helvetica,sans-Serif" font-size="10.00" fill="#000000">/home/travis/build</text>
<text text-anchor="start" x="844" y="-29.5" font-family="Helvetica,sans-Serif" font-size="10.00" fill="#000000">/AliceO2Group/AliceO2</text>
<text text-anchor="start" x="844" y="-18.5" font-family="Helvetica,sans-Serif" font-size="10.00" fill="#000000">/GPU/GPUTracking/TPCClusterFinder</text>
<text text-anchor="middle" x="931.5" y="-7.5" font-family="Helvetica,sans-Serif" font-size="10.00" fill="#000000">/NoiseSuppression.cxx</text>
</a>
</g>
</g>
<!-- Node13&#45;&gt;Node19 -->
<g id="edge12" class="edge">
<title>Node13&#45;&gt;Node19</title>
<path fill="none" stroke="#191970" d="M734.3957,-168.7516C744.3448,-143.5962 760.7627,-110.6778 784.5,-89 801.2916,-73.6653 822.4083,-61.7419 843.3565,-52.6178"/>
<polygon fill="#191970" stroke="#191970" points="731.0428,-167.723 730.7737,-178.3144 737.5889,-170.2025 731.0428,-167.723"/>
</g>
<!-- Node20 -->
<g id="node8" class="node">
<title>Node20</title>
<g id="a_node8"><a xlink:href="../../dd/d1f/PeakFinder_8cxx.html" target="_top" xlink:title="/home/travis/build\l/AliceO2Group/AliceO2\l/GPU/GPUTracking/TPCClusterFinder\l/PeakFinder.cxx">
<polygon fill="none" stroke="#000000" points="1045,-.5 1045,-52.5 1236,-52.5 1236,-.5 1045,-.5"/>
<text text-anchor="start" x="1053" y="-40.5" font-family="Helvetica,sans-Serif" font-size="10.00" fill="#000000">/home/travis/build</text>
<text text-anchor="start" x="1053" y="-29.5" font-family="Helvetica,sans-Serif" font-size="10.00" fill="#000000">/AliceO2Group/AliceO2</text>
<text text-anchor="start" x="1053" y="-18.5" font-family="Helvetica,sans-Serif" font-size="10.00" fill="#000000">/GPU/GPUTracking/TPCClusterFinder</text>
<text text-anchor="middle" x="1140.5" y="-7.5" font-family="Helvetica,sans-Serif" font-size="10.00" fill="#000000">/PeakFinder.cxx</text>
</a>
</g>
</g>
<!-- Node13&#45;&gt;Node20 -->
<g id="edge13" class="edge">
<title>Node13&#45;&gt;Node20</title>
<path fill="none" stroke="#191970" d="M754.4112,-170.811C762.7725,-161.6356 771.6424,-151.5809 779.5,-142 798.0458,-119.3867 793.5679,-104.2873 818.5,-89 902.2169,-37.6684 940.3868,-73.1424 1036.5,-53 1039.2354,-52.4267 1042.0074,-51.8297 1044.8022,-51.2136"/>
<polygon fill="#191970" stroke="#191970" points="751.7336,-168.552 747.5406,-178.2819 756.886,-173.2905 751.7336,-168.552"/>
</g>
<!-- Node21 -->
<g id="node9" class="node">
<title>Node21</title>
<g id="a_node9"><a xlink:href="../../d7/d43/ChargeMapFiller_8cxx.html" target="_top" xlink:title="/home/travis/build\l/AliceO2Group/AliceO2\l/GPU/GPUTracking/TPCClusterFinder\l/ChargeMapFiller.cxx">
<polygon fill="none" stroke="#000000" points="827,-89.5 827,-141.5 1018,-141.5 1018,-89.5 827,-89.5"/>
<text text-anchor="start" x="835" y="-129.5" font-family="Helvetica,sans-Serif" font-size="10.00" fill="#000000">/home/travis/build</text>
<text text-anchor="start" x="835" y="-118.5" font-family="Helvetica,sans-Serif" font-size="10.00" fill="#000000">/AliceO2Group/AliceO2</text>
<text text-anchor="start" x="835" y="-107.5" font-family="Helvetica,sans-Serif" font-size="10.00" fill="#000000">/GPU/GPUTracking/TPCClusterFinder</text>
<text text-anchor="middle" x="922.5" y="-96.5" font-family="Helvetica,sans-Serif" font-size="10.00" fill="#000000">/ChargeMapFiller.cxx</text>
</a>
</g>
</g>
<!-- Node13&#45;&gt;Node21 -->
<g id="edge8" class="edge">
<title>Node13&#45;&gt;Node21</title>
<path fill="none" stroke="#191970" d="M790.4857,-174.2464C814.3121,-163.6436 840.8493,-151.8346 863.8458,-141.6011"/>
<polygon fill="#191970" stroke="#191970" points="788.8685,-171.1351 781.1552,-178.3984 791.7145,-177.5304 788.8685,-171.1351"/>
</g>
<!-- Node15 -->
<g id="node3" class="node">
<title>Node15</title>
<g id="a_node3"><a xlink:href="../../d8/db8/ClusterAccumulator_8cxx.html" target="_top" xlink:title="/home/travis/build\l/AliceO2Group/AliceO2\l/GPU/GPUTracking/TPCClusterFinder\l/ClusterAccumulator.cxx">
<polygon fill="none" stroke="#000000" points="418,-.5 418,-52.5 609,-52.5 609,-.5 418,-.5"/>
<text text-anchor="start" x="426" y="-40.5" font-family="Helvetica,sans-Serif" font-size="10.00" fill="#000000">/home/travis/build</text>
<text text-anchor="start" x="426" y="-29.5" font-family="Helvetica,sans-Serif" font-size="10.00" fill="#000000">/AliceO2Group/AliceO2</text>
<text text-anchor="start" x="426" y="-18.5" font-family="Helvetica,sans-Serif" font-size="10.00" fill="#000000">/GPU/GPUTracking/TPCClusterFinder</text>
<text text-anchor="middle" x="513.5" y="-7.5" font-family="Helvetica,sans-Serif" font-size="10.00" fill="#000000">/ClusterAccumulator.cxx</text>
</a>
</g>
</g>
<!-- Node14&#45;&gt;Node15 -->
<g id="edge2" class="edge">
<title>Node14&#45;&gt;Node15</title>
<path fill="none" stroke="#191970" d="M566.5084,-82.0029C557.1966,-72.2529 547.1668,-61.7511 538.3641,-52.5341"/>
<polygon fill="#191970" stroke="#191970" points="564.0191,-84.464 573.4569,-89.2784 569.0813,-79.6293 564.0191,-84.464"/>
</g>
<!-- Node14&#45;&gt;Node16 -->
<g id="edge3" class="edge">
<title>Node14&#45;&gt;Node16</title>
<path fill="none" stroke="#191970" d="M492.748,-101.7C412.0466,-90.5016 298.2999,-73.2787 199.5,-53 196.7622,-52.4381 193.9882,-51.851 191.1916,-51.2437"/>
<polygon fill="#191970" stroke="#191970" points="492.533,-105.2035 502.9176,-103.1036 493.4901,-98.2692 492.533,-105.2035"/>
</g>
<!-- Node14&#45;&gt;Node17 -->
<g id="edge4" class="edge">
<title>Node14&#45;&gt;Node17</title>
<path fill="none" stroke="#191970" d="M502.7044,-86.5007C466.5483,-75.5554 425.6692,-63.1805 390.4676,-52.5242"/>
<polygon fill="#191970" stroke="#191970" points="501.6916,-89.8509 512.2768,-89.3984 503.7198,-83.1511 501.6916,-89.8509"/>
</g>
<!-- Node14&#45;&gt;Node18 -->
<g id="edge5" class="edge">
<title>Node14&#45;&gt;Node18</title>
<path fill="none" stroke="#191970" d="M643.1803,-83.431C657.3155,-73.2856 672.7565,-62.203 686.2277,-52.5341"/>
<polygon fill="#191970" stroke="#191970" points="641.1166,-80.604 635.0334,-89.2784 645.1983,-86.2909 641.1166,-80.604"/>
</g>
<!-- Node14&#45;&gt;Node19 -->
<g id="edge6" class="edge">
<title>Node14&#45;&gt;Node19</title>
<path fill="none" stroke="#191970" d="M704.1155,-87.2724C746.3144,-75.994 794.5646,-63.0983 835.7296,-52.0963"/>
<polygon fill="#191970" stroke="#191970" points="703.1278,-83.9135 694.3706,-89.8769 704.9353,-90.6761 703.1278,-83.9135"/>
</g>
<!-- Node14&#45;&gt;Node20 -->
<g id="edge7" class="edge">
<title>Node14&#45;&gt;Node20</title>
<path fill="none" stroke="#191970" d="M704.0127,-100.4614C833.2907,-82.0331 1035.4752,-53.2031 1036.5,-53 1039.2416,-52.4568 1042.0189,-51.8862 1044.8184,-51.2934"/>
<polygon fill="#191970" stroke="#191970" points="703.468,-97.0036 694.0621,-101.8798 704.4559,-103.9335 703.468,-97.0036"/>
</g>
</g>
</svg>
        <g id="navigator" transform="translate(0 0)" fill="#404254">
                <rect fill="#f2f5e9" fill-opacity="0.5" stroke="#606060" stroke-width=".5" x="0" y="0" width="60" height="60"/>
                <use id="zoomplus" xlink:href="#zoomPlus" x="17" y="9" onmousedown="handleZoom(evt,'in')"/>
                <use id="zoomminus" xlink:href="#zoomMin" x="42" y="9" onmousedown="handleZoom(evt,'out')"/>
                <use id="reset" xlink:href="#resetDef" x="30" y="36" onmousedown="handleReset()"/>
                <g id="arrowUp" xlink:href="#dirArrow" transform="translate(30 24)" onmousedown="handlePan(0,-1)">
                  <use xlink:href="#rim" fill="#404040">
                        <set attributeName="fill" to="#808080" begin="arrowUp.mouseover" end="arrowUp.mouseout"/>
                  </use>
                  <path fill="none" stroke="white" stroke-width="1.5" d="M0,-3.0v7 M-2.5,-0.5L0,-3.0L2.5,-0.5"/>
                </g>
                <g id="arrowRight" xlink:href="#dirArrow" transform="rotate(90) translate(36 -43)" onmousedown="handlePan(1,0)">
                  <use xlink:href="#rim" fill="#404040">
                        <set attributeName="fill" to="#808080" begin="arrowRight.mouseover" end="arrowRight.mouseout"/>
                  </use>
                  <path fill="none" stroke="white" stroke-width="1.5" d="M0,-3.0v7 M-2.5,-0.5L0,-3.0L2.5,-0.5"/>
                </g>
                <g id="arrowDown" xlink:href="#dirArrow" transform="rotate(180) translate(-30 -48)" onmousedown="handlePan(0,1)">
                  <use xlink:href="#rim" fill="#404040">
                        <set attributeName="fill" to="#808080" begin="arrowDown.mouseover" end="arrowDown.mouseout"/>
                  </use>
                  <path fill="none" stroke="white" stroke-width="1.5" d="M0,-3.0v7 M-2.5,-0.5L0,-3.0L2.5,-0.5"/>
                </g>
                <g id="arrowLeft" xlink:href="#dirArrow" transform="rotate(270) translate(-36 17)" onmousedown="handlePan(-1,0)">
                  <use xlink:href="#rim" fill="#404040">
                        <set attributeName="fill" to="#808080" begin="arrowLeft.mouseover" end="arrowLeft.mouseout"/>
                  </use>
                  <path fill="none" stroke="white" stroke-width="1.5" d="M0,-3.0v7 M-2.5,-0.5L0,-3.0L2.5,-0.5"/>
                </g>
        </g>
        <svg viewBox="0 0 15 15" width="100%" height="30px" preserveAspectRatio="xMaxYMin meet">
         <g id="arrow_out" transform="scale(0.3 0.3)">
          <a xlink:href="Array2D_8h__dep__incl_org.svg" target="_base">
           <rect id="button" ry="5" rx="5" y="6" x="6" height="38" width="38"
                fill="#f2f5e9" fill-opacity="0.5" stroke="#606060" stroke-width="1.0"/>
           <path id="arrow"
             d="M 11.500037,31.436501 C 11.940474,20.09759 22.043105,11.32322 32.158766,21.979434 L 37.068811,17.246167 C 37.068811,17.246167 37.088388,32 37.088388,32 L 22.160133,31.978069 C 22.160133,31.978069 26.997745,27.140456 26.997745,27.140456 C 18.528582,18.264221 13.291696,25.230495 11.500037,31.436501 z"
             style="fill:#404040;"/>
          </a>
         </g>
        </svg>
</svg>
