<?xml version="1.0" encoding="UTF-8" standalone="no"?>
<!DOCTYPE svg PUBLIC "-//W3C//DTD SVG 1.1//EN"
 "http://www.w3.org/Graphics/SVG/1.1/DTD/svg11.dtd">
<!-- Generated by graphviz version 2.40.1 (20161225.0304)
 -->
<!-- Title: o2::its::GPU::DeviceProperties Pages: 1 -->
<svg width="445pt" height="364pt"
 viewBox="0.00 0.00 444.50 364.00" xmlns="http://www.w3.org/2000/svg" xmlns:xlink="http://www.w3.org/1999/xlink">
<g id="graph0" class="graph" transform="scale(1 1) rotate(0) translate(4 360)">
<title>o2::its::GPU::DeviceProperties</title>
<!-- Node1 -->
<g id="node1" class="node">
<title>Node1</title>
<polygon fill="#bfbfbf" stroke="#000000" points="99,-.5 99,-57.5 262,-57.5 262,-.5 99,-.5"/>
<text text-anchor="middle" x="180.5" y="-45.5" font-family="Helvetica,sans-Serif" font-size="10.00" fill="#000000">o2::its::GPU::DeviceProperties</text>
<polyline fill="none" stroke="#000000" points="99,-38.5 262,-38.5 "/>
<text text-anchor="middle" x="180.5" y="-26.5" font-family="Helvetica,sans-Serif" font-size="10.00" fill="#000000"> </text>
<polyline fill="none" stroke="#000000" points="99,-19.5 262,-19.5 "/>
<text text-anchor="middle" x="180.5" y="-7.5" font-family="Helvetica,sans-Serif" font-size="10.00" fill="#000000"> </text>
</g>
<!-- Node2 -->
<g id="node2" class="node">
<title>Node2</title>
<polygon fill="none" stroke="#bfbfbf" points="0,-171.5 0,-228.5 29,-228.5 29,-171.5 0,-171.5"/>
<text text-anchor="middle" x="14.5" y="-216.5" font-family="Helvetica,sans-Serif" font-size="10.00" fill="#000000">int</text>
<polyline fill="none" stroke="#bfbfbf" points="0,-209.5 29,-209.5 "/>
<text text-anchor="middle" x="14.5" y="-197.5" font-family="Helvetica,sans-Serif" font-size="10.00" fill="#000000"> </text>
<polyline fill="none" stroke="#bfbfbf" points="0,-190.5 29,-190.5 "/>
<text text-anchor="middle" x="14.5" y="-178.5" font-family="Helvetica,sans-Serif" font-size="10.00" fill="#000000"> </text>
</g>
<!-- Node2&#45;&gt;Node1 -->
<g id="edge1" class="edge">
<title>Node2&#45;&gt;Node1</title>
<path fill="none" stroke="#404040" d="M9.2334,-171.2685C5.9098,-143.712 5.6982,-102.4907 27.5,-76 36.0753,-65.5804 60.1674,-56.3018 86.7676,-48.7982"/>
<polygon fill="none" stroke="#404040" points="87.112,-48.7056 91.8657,-43.2832 98.6993,-45.5857 93.9456,-51.0081 87.112,-48.7056"/>
<text text-anchor="middle" x="83.5" y="-145" font-family="Helvetica,sans-Serif" font-size="10.00" fill="#000000"> +busWidth</text>
<text text-anchor="middle" x="83.5" y="-134" font-family="Helvetica,sans-Serif" font-size="10.00" fill="#000000">+warpSize</text>
<text text-anchor="middle" x="83.5" y="-123" font-family="Helvetica,sans-Serif" font-size="10.00" fill="#000000">+cudaCores</text>
<text text-anchor="middle" x="83.5" y="-112" font-family="Helvetica,sans-Serif" font-size="10.00" fill="#000000">+maxBlocksPerSM</text>
<text text-anchor="middle" x="83.5" y="-101" font-family="Helvetica,sans-Serif" font-size="10.00" fill="#000000">+maxThreadsPerBlock</text>
<text text-anchor="middle" x="83.5" y="-90" font-family="Helvetica,sans-Serif" font-size="10.00" fill="#000000">+gpuProcessors</text>
<text text-anchor="middle" x="83.5" y="-79" font-family="Helvetica,sans-Serif" font-size="10.00" fill="#000000">+streamProcessors</text>
</g>
<!-- Node3 -->
<g id="node3" class="node">
<title>Node3</title>
<polygon fill="none" stroke="#bfbfbf" points="127.5,-171.5 127.5,-228.5 171.5,-228.5 171.5,-171.5 127.5,-171.5"/>
<text text-anchor="middle" x="149.5" y="-216.5" font-family="Helvetica,sans-Serif" font-size="10.00" fill="#000000">string</text>
<polyline fill="none" stroke="#bfbfbf" points="127.5,-209.5 171.5,-209.5 "/>
<text text-anchor="middle" x="149.5" y="-197.5" font-family="Helvetica,sans-Serif" font-size="10.00" fill="#000000"> </text>
<polyline fill="none" stroke="#bfbfbf" points="127.5,-190.5 171.5,-190.5 "/>
<text text-anchor="middle" x="149.5" y="-178.5" font-family="Helvetica,sans-Serif" font-size="10.00" fill="#000000"> </text>
</g>
<!-- Node3&#45;&gt;Node1 -->
<g id="edge2" class="edge">
<title>Node3&#45;&gt;Node1</title>
<path fill="none" stroke="#404040" d="M145.3106,-171.2702C142.6122,-145.7049 141.1416,-107.5812 150.5,-76 151.2598,-73.436 152.2049,-70.8781 153.2866,-68.3548"/>
<polygon fill="none" stroke="#404040" points="153.3145,-68.2997 152.4671,-61.1385 158.7515,-57.602 159.5989,-64.7632 153.3145,-68.2997"/>
<text text-anchor="middle" x="170.5" y="-112" font-family="Helvetica,sans-Serif" font-size="10.00" fill="#000000"> +name</text>
</g>
<!-- Node4 -->
<g id="node4" class="node">
<title>Node4</title>
<polygon fill="none" stroke="#bfbfbf" points="193.5,-171.5 193.5,-228.5 231.5,-228.5 231.5,-171.5 193.5,-171.5"/>
<text text-anchor="middle" x="212.5" y="-216.5" font-family="Helvetica,sans-Serif" font-size="10.00" fill="#000000">long</text>
<polyline fill="none" stroke="#bfbfbf" points="193.5,-209.5 231.5,-209.5 "/>
<text text-anchor="middle" x="212.5" y="-197.5" font-family="Helvetica,sans-Serif" font-size="10.00" fill="#000000"> </text>
<polyline fill="none" stroke="#bfbfbf" points="193.5,-190.5 231.5,-190.5 "/>
<text text-anchor="middle" x="212.5" y="-178.5" font-family="Helvetica,sans-Serif" font-size="10.00" fill="#000000"> </text>
</g>
<!-- Node4&#45;&gt;Node1 -->
<g id="edge3" class="edge">
<title>Node4&#45;&gt;Node1</title>
<path fill="none" stroke="#404040" d="M207.7073,-171.3832C203.4248,-146.2175 196.8617,-108.6187 190.5,-76 190.1048,-73.9734 189.6925,-71.8994 189.2701,-69.8061"/>
<polygon fill="none" stroke="#404040" points="189.2179,-69.553 184.0866,-64.4864 186.7899,-57.8012 191.9212,-62.8678 189.2179,-69.553"/>
<text text-anchor="middle" x="260" y="-139.5" font-family="Helvetica,sans-Serif" font-size="10.00" fill="#000000"> +globalMemorySize</text>
<text text-anchor="middle" x="260" y="-128.5" font-family="Helvetica,sans-Serif" font-size="10.00" fill="#000000">+registersPerBlock</text>
<text text-anchor="middle" x="260" y="-117.5" font-family="Helvetica,sans-Serif" font-size="10.00" fill="#000000">+l2CacheSize</text>
<text text-anchor="middle" x="260" y="-106.5" font-family="Helvetica,sans-Serif" font-size="10.00" fill="#000000">+constantMemorySize</text>
<text text-anchor="middle" x="260" y="-95.5" font-family="Helvetica,sans-Serif" font-size="10.00" fill="#000000">+sharedMemorySize</text>
<text text-anchor="middle" x="260" y="-84.5" font-family="Helvetica,sans-Serif" font-size="10.00" fill="#000000">+maxClockRate</text>
</g>
<!-- Node5 -->
<g id="node5" class="node">
<title>Node5</title>
<g id="a_node5"><a xlink:href="../../d3/db3/structdim3.html" target="_top" xlink:title="{dim3\n||}">
<polygon fill="none" stroke="#000000" points="326,-171.5 326,-228.5 367,-228.5 367,-171.5 326,-171.5"/>
<text text-anchor="middle" x="346.5" y="-216.5" font-family="Helvetica,sans-Serif" font-size="10.00" fill="#000000">dim3</text>
<polyline fill="none" stroke="#000000" points="326,-209.5 367,-209.5 "/>
<text text-anchor="middle" x="346.5" y="-197.5" font-family="Helvetica,sans-Serif" font-size="10.00" fill="#000000"> </text>
<polyline fill="none" stroke="#000000" points="326,-190.5 367,-190.5 "/>
<text text-anchor="middle" x="346.5" y="-178.5" font-family="Helvetica,sans-Serif" font-size="10.00" fill="#000000"> </text>
</a>
</g>
</g>
<!-- Node5&#45;&gt;Node1 -->
<g id="edge4" class="edge">
<title>Node5&#45;&gt;Node1</title>
<path fill="none" stroke="#404040" d="M347.8654,-171.3308C347.6103,-143.6238 342.8499,-102.1145 319.5,-76 312.2651,-67.9085 294.4439,-59.9958 273.8864,-53.0396"/>
<polygon fill="none" stroke="#404040" points="273.6536,-52.9646 266.715,-54.9281 262.2338,-49.2784 269.1724,-47.3149 273.6536,-52.9646"/>
<text text-anchor="middle" x="391.5" y="-117.5" font-family="Helvetica,sans-Serif" font-size="10.00" fill="#000000"> +maxGridDim</text>
<text text-anchor="middle" x="391.5" y="-106.5" font-family="Helvetica,sans-Serif" font-size="10.00" fill="#000000">+maxThreadsDim</text>
</g>
<!-- Node6 -->
<g id="node6" class="node">
<title>Node6</title>
<polygon fill="none" stroke="#bfbfbf" points="316,-298.5 316,-355.5 377,-355.5 377,-298.5 316,-298.5"/>
<text text-anchor="middle" x="346.5" y="-343.5" font-family="Helvetica,sans-Serif" font-size="10.00" fill="#000000">unsigned</text>
<polyline fill="none" stroke="#bfbfbf" points="316,-336.5 377,-336.5 "/>
<text text-anchor="middle" x="346.5" y="-324.5" font-family="Helvetica,sans-Serif" font-size="10.00" fill="#000000"> </text>
<polyline fill="none" stroke="#bfbfbf" points="316,-317.5 377,-317.5 "/>
<text text-anchor="middle" x="346.5" y="-305.5" font-family="Helvetica,sans-Serif" font-size="10.00" fill="#000000"> </text>
</g>
<!-- Node6&#45;&gt;Node5 -->
<g id="edge5" class="edge">
<title>Node6&#45;&gt;Node5</title>
<path fill="none" stroke="#404040" d="M346.5,-298.4987C346.5,-281.5423 346.5,-259.7438 346.5,-240.9661"/>
<polygon fill="none" stroke="#404040" points="346.5001,-240.8456 342.5,-234.8456 346.5,-228.8456 350.5,-234.8455 346.5001,-240.8456"/>
<text text-anchor="middle" x="355.5" y="-272" font-family="Helvetica,sans-Serif" font-size="10.00" fill="#000000"> +x</text>
<text text-anchor="middle" x="355.5" y="-261" font-family="Helvetica,sans-Serif" font-size="10.00" fill="#000000">+y</text>
<text text-anchor="middle" x="355.5" y="-250" font-family="Helvetica,sans-Serif" font-size="10.00" fill="#000000">+z</text>
</g>
</g>
</svg>
