<?xml version="1.0" encoding="UTF-8" standalone="no"?>
<!DOCTYPE svg PUBLIC "-//W3C//DTD SVG 1.1//EN"
 "http://www.w3.org/Graphics/SVG/1.1/DTD/svg11.dtd">
<!-- Generated by graphviz version 2.40.1 (20161225.0304)
 -->
<!-- Title: /home/travis/build/AliceO2Group/AliceO2/Detectors/ITSMFT/MFT/base/src/GeometryBuilder.cxx Pages: 1 -->
<svg width="1628pt" height="229pt"
 viewBox="0.00 0.00 1627.50 229.00" xmlns="http://www.w3.org/2000/svg" xmlns:xlink="http://www.w3.org/1999/xlink">
<g id="graph0" class="graph" transform="scale(1 1) rotate(0) translate(4 225)">
<title>/home/travis/build/AliceO2Group/AliceO2/Detectors/ITSMFT/MFT/base/src/GeometryBuilder.cxx</title>
<!-- Node0 -->
<g id="node1" class="node">
<title>Node0</title>
<polygon fill="#bfbfbf" stroke="#000000" points="850,-168.5 850,-220.5 1016,-220.5 1016,-168.5 850,-168.5"/>
<text text-anchor="start" x="858" y="-208.5" font-family="Helvetica,sans-Serif" font-size="10.00" fill="#000000">/home/travis/build</text>
<text text-anchor="start" x="858" y="-197.5" font-family="Helvetica,sans-Serif" font-size="10.00" fill="#000000">/AliceO2Group/AliceO2</text>
<text text-anchor="start" x="858" y="-186.5" font-family="Helvetica,sans-Serif" font-size="10.00" fill="#000000">/Detectors/ITSMFT/MFT</text>
<text text-anchor="middle" x="933" y="-175.5" font-family="Helvetica,sans-Serif" font-size="10.00" fill="#000000">/base/src/GeometryBuilder.cxx</text>
</g>
<!-- Node1 -->
<g id="node2" class="node">
<title>Node1</title>
<g id="a_node2"><a xlink:href="../../d6/d2e/ITSMFT_2MFT_2base_2include_2MFTBase_2Geometry_8h.html" target="_top" xlink:title="MFTBase/Geometry.h">
<polygon fill="none" stroke="#000000" points="300.5,-56.5 300.5,-75.5 419.5,-75.5 419.5,-56.5 300.5,-56.5"/>
<text text-anchor="middle" x="360" y="-63.5" font-family="Helvetica,sans-Serif" font-size="10.00" fill="#000000">MFTBase/Geometry.h</text>
</a>
</g>
</g>
<!-- Node0&#45;&gt;Node1 -->
<g id="edge1" class="edge">
<title>Node0&#45;&gt;Node1</title>
<path fill="none" stroke="#191970" d="M849.9871,-175.8837C730.1929,-149.0188 512.3001,-100.1546 412.4842,-77.77"/>
<polygon fill="#191970" stroke="#191970" points="413.1502,-74.3325 402.6267,-75.5594 411.6184,-81.1629 413.1502,-74.3325"/>
</g>
<!-- Node3 -->
<g id="node4" class="node">
<title>Node3</title>
<polygon fill="none" stroke="#bfbfbf" points="961,-112.5 961,-131.5 1107,-131.5 1107,-112.5 961,-112.5"/>
<text text-anchor="middle" x="1034" y="-119.5" font-family="Helvetica,sans-Serif" font-size="10.00" fill="#000000">MFTBase/GeometryTGeo.h</text>
</g>
<!-- Node0&#45;&gt;Node3 -->
<g id="edge3" class="edge">
<title>Node0&#45;&gt;Node3</title>
<path fill="none" stroke="#191970" d="M969.4633,-168.3258C983.8313,-158.0122 999.846,-146.5165 1012.3279,-137.5567"/>
<polygon fill="#191970" stroke="#191970" points="1014.6354,-140.2087 1020.7181,-131.534 1010.5534,-134.5221 1014.6354,-140.2087"/>
</g>
<!-- Node4 -->
<g id="node5" class="node">
<title>Node4</title>
<g id="a_node5"><a xlink:href="../../d1/d81/GeometryBuilder_8h.html" target="_top" xlink:title="Class describing MFT Geometry Builder. ">
<polygon fill="none" stroke="#000000" points="1125.5,-112.5 1125.5,-131.5 1280.5,-131.5 1280.5,-112.5 1125.5,-112.5"/>
<text text-anchor="middle" x="1203" y="-119.5" font-family="Helvetica,sans-Serif" font-size="10.00" fill="#000000">MFTBase/GeometryBuilder.h</text>
</a>
</g>
</g>
<!-- Node0&#45;&gt;Node4 -->
<g id="edge4" class="edge">
<title>Node0&#45;&gt;Node4</title>
<path fill="none" stroke="#191970" d="M1016.212,-172.156C1062.7231,-159.6669 1118.9008,-144.5822 1157.4234,-134.2382"/>
<polygon fill="#191970" stroke="#191970" points="1158.5581,-137.5575 1167.3083,-131.5839 1156.7427,-130.797 1158.5581,-137.5575"/>
</g>
<!-- Node5 -->
<g id="node6" class="node">
<title>Node5</title>
<g id="a_node6"><a xlink:href="../../dd/d83/ITSMFT_2MFT_2base_2include_2MFTBase_2Segmentation_8h.html" target="_top" xlink:title="MFTBase/Segmentation.h">
<polygon fill="none" stroke="#000000" points="0,-56.5 0,-75.5 140,-75.5 140,-56.5 0,-56.5"/>
<text text-anchor="middle" x="70" y="-63.5" font-family="Helvetica,sans-Serif" font-size="10.00" fill="#000000">MFTBase/Segmentation.h</text>
</a>
</g>
</g>
<!-- Node0&#45;&gt;Node5 -->
<g id="edge5" class="edge">
<title>Node0&#45;&gt;Node5</title>
<path fill="none" stroke="#191970" d="M849.6822,-192.2411C680.9367,-186.9041 304.4252,-170.915 182,-132 147.216,-120.9433 111.6841,-97.5178 90.2302,-81.7629"/>
<polygon fill="#191970" stroke="#191970" points="92.3025,-78.9421 82.203,-75.7402 88.1013,-84.5413 92.3025,-78.9421"/>
</g>
<!-- Node7 -->
<g id="node8" class="node">
<title>Node7</title>
<g id="a_node8"><a xlink:href="../../d2/d77/HalfSegmentation_8h.html" target="_top" xlink:title="Segmentation class for each half of the ALICE Muon Forward Tracker. ">
<polygon fill="none" stroke="#000000" points="191.5,-112.5 191.5,-131.5 352.5,-131.5 352.5,-112.5 191.5,-112.5"/>
<text text-anchor="middle" x="272" y="-119.5" font-family="Helvetica,sans-Serif" font-size="10.00" fill="#000000">MFTBase/HalfSegmentation.h</text>
</a>
</g>
</g>
<!-- Node0&#45;&gt;Node7 -->
<g id="edge8" class="edge">
<title>Node0&#45;&gt;Node7</title>
<path fill="none" stroke="#191970" d="M849.9532,-185.3912C725.5485,-171.7462 491.6931,-146.0964 362.8709,-131.9669"/>
<polygon fill="#191970" stroke="#191970" points="362.9623,-128.456 352.6402,-130.8448 362.199,-135.4143 362.9623,-128.456"/>
</g>
<!-- Node11 -->
<g id="node12" class="node">
<title>Node11</title>
<g id="a_node12"><a xlink:href="../../d3/d4f/HalfDetector_8h.html" target="_top" xlink:title="Class describing geometry of one half of the ALICE Muon Forward Tracker. ">
<polygon fill="none" stroke="#000000" points="771,-112.5 771,-131.5 905,-131.5 905,-112.5 771,-112.5"/>
<text text-anchor="middle" x="838" y="-119.5" font-family="Helvetica,sans-Serif" font-size="10.00" fill="#000000">MFTBase/HalfDetector.h</text>
</a>
</g>
</g>
<!-- Node0&#45;&gt;Node11 -->
<g id="edge15" class="edge">
<title>Node0&#45;&gt;Node11</title>
<path fill="none" stroke="#191970" d="M898.7028,-168.3258C885.3196,-158.1123 870.4174,-146.7396 858.7276,-137.8184"/>
<polygon fill="#191970" stroke="#191970" points="860.5657,-134.8184 850.4928,-131.534 856.319,-140.3831 860.5657,-134.8184"/>
</g>
<!-- Node12 -->
<g id="node13" class="node">
<title>Node12</title>
<polygon fill="none" stroke="#bfbfbf" points="847,-.5 847,-19.5 935,-19.5 935,-.5 847,-.5"/>
<text text-anchor="middle" x="891" y="-7.5" font-family="Helvetica,sans-Serif" font-size="10.00" fill="#000000">TGeoVolume.h</text>
</g>
<!-- Node0&#45;&gt;Node12 -->
<g id="edge25" class="edge">
<title>Node0&#45;&gt;Node12</title>
<path fill="none" stroke="#191970" d="M941.0063,-168.2599C948.3103,-139.4542 955.7795,-92.4567 940,-56 934.7663,-43.9081 924.6158,-33.5335 914.9045,-25.7139"/>
<polygon fill="#191970" stroke="#191970" points="916.7234,-22.7038 906.618,-19.5209 912.5329,-28.3109 916.7234,-22.7038"/>
</g>
<!-- Node14 -->
<g id="node15" class="node">
<title>Node14</title>
<g id="a_node15"><a xlink:href="../../da/dc5/HalfCone_8h.html" target="_top" xlink:title="Class building geometry of one half of one MFT half&#45;cone. ">
<polygon fill="none" stroke="#000000" points="1298.5,-112.5 1298.5,-131.5 1415.5,-131.5 1415.5,-112.5 1298.5,-112.5"/>
<text text-anchor="middle" x="1357" y="-119.5" font-family="Helvetica,sans-Serif" font-size="10.00" fill="#000000">MFTBase/HalfCone.h</text>
</a>
</g>
</g>
<!-- Node0&#45;&gt;Node14 -->
<g id="edge21" class="edge">
<title>Node0&#45;&gt;Node14</title>
<path fill="none" stroke="#191970" d="M1016.0103,-180.306C1096.4848,-166.5456 1216.9633,-145.945 1291.0792,-133.2718"/>
<polygon fill="#191970" stroke="#191970" points="1291.9536,-136.6732 1301.2206,-131.5378 1290.7737,-129.7733 1291.9536,-136.6732"/>
</g>
<!-- Node15 -->
<g id="node16" class="node">
<title>Node15</title>
<g id="a_node16"><a xlink:href="../../df/d7b/Barrel_8h.html" target="_top" xlink:title="MFTBase/Barrel.h">
<polygon fill="none" stroke="#000000" points="641.5,-56.5 641.5,-75.5 742.5,-75.5 742.5,-56.5 641.5,-56.5"/>
<text text-anchor="middle" x="692" y="-63.5" font-family="Helvetica,sans-Serif" font-size="10.00" fill="#000000">MFTBase/Barrel.h</text>
</a>
</g>
</g>
<!-- Node0&#45;&gt;Node15 -->
<g id="edge22" class="edge">
<title>Node0&#45;&gt;Node15</title>
<path fill="none" stroke="#191970" d="M849.8528,-171.6606C820.8693,-161.7772 788.8938,-148.6075 762,-132 740.6161,-118.795 720.1868,-98.3118 706.9774,-83.6682"/>
<polygon fill="#191970" stroke="#191970" points="709.3115,-81.0221 700.0816,-75.8202 704.053,-85.6425 709.3115,-81.0221"/>
</g>
<!-- Node16 -->
<g id="node17" class="node">
<title>Node16</title>
<polygon fill="none" stroke="#bfbfbf" points="1434,-112.5 1434,-131.5 1526,-131.5 1526,-112.5 1434,-112.5"/>
<text text-anchor="middle" x="1480" y="-119.5" font-family="Helvetica,sans-Serif" font-size="10.00" fill="#000000">TGeoManager.h</text>
</g>
<!-- Node0&#45;&gt;Node16 -->
<g id="edge26" class="edge">
<title>Node0&#45;&gt;Node16</title>
<path fill="none" stroke="#191970" d="M1016.3252,-185.2917C1112.1285,-174.3932 1274.337,-154.9896 1423.5526,-132.161"/>
<polygon fill="#191970" stroke="#191970" points="1424.4651,-135.5619 1433.8167,-130.582 1423.4008,-128.6433 1424.4651,-135.5619"/>
</g>
<!-- Node17 -->
<g id="node18" class="node">
<title>Node17</title>
<polygon fill="none" stroke="#bfbfbf" points="1544.5,-112.5 1544.5,-131.5 1619.5,-131.5 1619.5,-112.5 1544.5,-112.5"/>
<text text-anchor="middle" x="1582" y="-119.5" font-family="Helvetica,sans-Serif" font-size="10.00" fill="#000000">FairLogger.h</text>
</g>
<!-- Node0&#45;&gt;Node17 -->
<g id="edge27" class="edge">
<title>Node0&#45;&gt;Node17</title>
<path fill="none" stroke="#191970" d="M1016.1323,-188.6763C1130.6157,-180.03 1343.3443,-161.7177 1534.4096,-131.9408"/>
<polygon fill="#191970" stroke="#191970" points="1535.0204,-135.3878 1544.3555,-130.3772 1533.9332,-128.4728 1535.0204,-135.3878"/>
</g>
<!-- Node2 -->
<g id="node3" class="node">
<title>Node2</title>
<polygon fill="none" stroke="#bfbfbf" points="326.5,-.5 326.5,-19.5 393.5,-19.5 393.5,-.5 326.5,-.5"/>
<text text-anchor="middle" x="360" y="-7.5" font-family="Helvetica,sans-Serif" font-size="10.00" fill="#000000">TNamed.h</text>
</g>
<!-- Node1&#45;&gt;Node2 -->
<g id="edge2" class="edge">
<title>Node1&#45;&gt;Node2</title>
<path fill="none" stroke="#191970" d="M360,-56.2455C360,-48.9382 360,-38.6944 360,-29.7046"/>
<polygon fill="#191970" stroke="#191970" points="363.5001,-29.6426 360,-19.6427 356.5001,-29.6427 363.5001,-29.6426"/>
</g>
<!-- Node5&#45;&gt;Node2 -->
<g id="edge6" class="edge">
<title>Node5&#45;&gt;Node2</title>
<path fill="none" stroke="#191970" d="M119.5233,-56.4369C174.7281,-45.7766 263.1708,-28.698 316.0216,-18.4924"/>
<polygon fill="#191970" stroke="#191970" points="316.9418,-21.8794 326.0968,-16.5468 315.6145,-15.0064 316.9418,-21.8794"/>
</g>
<!-- Node6 -->
<g id="node7" class="node">
<title>Node6</title>
<polygon fill="none" stroke="#bfbfbf" points="25.5,-.5 25.5,-19.5 114.5,-19.5 114.5,-.5 25.5,-.5"/>
<text text-anchor="middle" x="70" y="-7.5" font-family="Helvetica,sans-Serif" font-size="10.00" fill="#000000">TClonesArray.h</text>
</g>
<!-- Node5&#45;&gt;Node6 -->
<g id="edge7" class="edge">
<title>Node5&#45;&gt;Node6</title>
<path fill="none" stroke="#191970" d="M70,-56.2455C70,-48.9382 70,-38.6944 70,-29.7046"/>
<polygon fill="#191970" stroke="#191970" points="73.5001,-29.6426 70,-19.6427 66.5001,-29.6427 73.5001,-29.6426"/>
</g>
<!-- Node7&#45;&gt;Node2 -->
<g id="edge9" class="edge">
<title>Node7&#45;&gt;Node2</title>
<path fill="none" stroke="#191970" d="M272.7269,-112.1233C274.1784,-98.3471 278.4694,-73.1303 291,-56 300.7378,-42.6876 315.5784,-32.0779 329.0045,-24.4179"/>
<polygon fill="#191970" stroke="#191970" points="330.8404,-27.4048 337.9934,-19.5891 327.5277,-21.2382 330.8404,-27.4048"/>
</g>
<!-- Node7&#45;&gt;Node5 -->
<g id="edge11" class="edge">
<title>Node7&#45;&gt;Node5</title>
<path fill="none" stroke="#191970" d="M237.275,-112.3733C203.2492,-102.9404 151.2563,-88.5265 114.2766,-78.2747"/>
<polygon fill="#191970" stroke="#191970" points="114.8435,-74.7999 104.2719,-75.5011 112.9734,-81.5455 114.8435,-74.7999"/>
</g>
<!-- Node8 -->
<g id="node9" class="node">
<title>Node8</title>
<polygon fill="none" stroke="#bfbfbf" points="158.5,-56.5 158.5,-75.5 243.5,-75.5 243.5,-56.5 158.5,-56.5"/>
<text text-anchor="middle" x="201" y="-63.5" font-family="Helvetica,sans-Serif" font-size="10.00" fill="#000000">TXMLEngine.h</text>
</g>
<!-- Node7&#45;&gt;Node8 -->
<g id="edge10" class="edge">
<title>Node7&#45;&gt;Node8</title>
<path fill="none" stroke="#191970" d="M259.6327,-112.2455C249.0446,-103.8943 233.5936,-91.7076 221.2107,-81.9408"/>
<polygon fill="#191970" stroke="#191970" points="223.2447,-79.0875 213.2255,-75.6427 218.9097,-84.5837 223.2447,-79.0875"/>
</g>
<!-- Node9 -->
<g id="node10" class="node">
<title>Node9</title>
<g id="a_node10"><a xlink:href="../../d3/de7/VSegmentation_8h.html" target="_top" xlink:title="Abstract base class for MFT Segmentation description. ">
<polygon fill="none" stroke="#000000" points="437.5,-56.5 437.5,-75.5 584.5,-75.5 584.5,-56.5 437.5,-56.5"/>
<text text-anchor="middle" x="511" y="-63.5" font-family="Helvetica,sans-Serif" font-size="10.00" fill="#000000">MFTBase/VSegmentation.h</text>
</a>
</g>
</g>
<!-- Node7&#45;&gt;Node9 -->
<g id="edge12" class="edge">
<title>Node7&#45;&gt;Node9</title>
<path fill="none" stroke="#191970" d="M312.814,-112.4369C353.6311,-102.8731 416.4959,-88.1432 460.4472,-77.845"/>
<polygon fill="#191970" stroke="#191970" points="461.4165,-81.2128 470.3543,-75.5237 459.8195,-74.3973 461.4165,-81.2128"/>
</g>
<!-- Node9&#45;&gt;Node2 -->
<g id="edge13" class="edge">
<title>Node9&#45;&gt;Node2</title>
<path fill="none" stroke="#191970" d="M485.0422,-56.3733C460.2593,-47.1822 422.7254,-33.2624 395.246,-23.0713"/>
<polygon fill="#191970" stroke="#191970" points="396.2121,-19.6968 385.6191,-19.5011 393.7781,-26.26 396.2121,-19.6968"/>
</g>
<!-- Node10 -->
<g id="node11" class="node">
<title>Node10</title>
<polygon fill="none" stroke="#bfbfbf" points="651,-.5 651,-19.5 733,-19.5 733,-.5 651,-.5"/>
<text text-anchor="middle" x="692" y="-7.5" font-family="Helvetica,sans-Serif" font-size="10.00" fill="#000000">TGeoMatrix.h</text>
</g>
<!-- Node9&#45;&gt;Node10 -->
<g id="edge14" class="edge">
<title>Node9&#45;&gt;Node10</title>
<path fill="none" stroke="#191970" d="M542.115,-56.3733C572.3429,-47.021 618.396,-32.7725 651.4739,-22.5385"/>
<polygon fill="#191970" stroke="#191970" points="652.7723,-25.8005 661.291,-19.5011 650.7033,-19.1133 652.7723,-25.8005"/>
</g>
<!-- Node11&#45;&gt;Node2 -->
<g id="edge16" class="edge">
<title>Node11&#45;&gt;Node2</title>
<path fill="none" stroke="#191970" d="M776.4519,-112.4823C734.8918,-105.0367 679.2148,-93.0624 632,-76 613.6799,-69.3795 611.4007,-62.393 593,-56 528.9553,-33.7489 451.0546,-21.1039 403.5214,-14.905"/>
<polygon fill="#191970" stroke="#191970" points="403.9268,-11.4285 393.566,-13.6433 403.0466,-18.3729 403.9268,-11.4285"/>
</g>
<!-- Node11&#45;&gt;Node12 -->
<g id="edge17" class="edge">
<title>Node11&#45;&gt;Node12</title>
<path fill="none" stroke="#191970" d="M874.8184,-112.3966C893.3138,-105.5069 914.0673,-94.1473 925,-76 934.7858,-59.7565 922.0939,-40.3844 909.5283,-26.8449"/>
<polygon fill="#191970" stroke="#191970" points="911.8558,-24.2224 902.3153,-19.6148 906.9002,-29.1662 911.8558,-24.2224"/>
</g>
<!-- Node13 -->
<g id="node14" class="node">
<title>Node13</title>
<g id="a_node14"><a xlink:href="../../dc/d37/PowerSupplyUnit_8h.html" target="_top" xlink:title="MFT heat exchanger builder. ">
<polygon fill="none" stroke="#000000" points="760.5,-56.5 760.5,-75.5 915.5,-75.5 915.5,-56.5 760.5,-56.5"/>
<text text-anchor="middle" x="838" y="-63.5" font-family="Helvetica,sans-Serif" font-size="10.00" fill="#000000">MFTBase/PowerSupplyUnit.h</text>
</a>
</g>
</g>
<!-- Node11&#45;&gt;Node13 -->
<g id="edge18" class="edge">
<title>Node11&#45;&gt;Node13</title>
<path fill="none" stroke="#191970" d="M838,-112.2455C838,-104.9382 838,-94.6944 838,-85.7046"/>
<polygon fill="#191970" stroke="#191970" points="841.5001,-85.6426 838,-75.6427 834.5001,-85.6427 841.5001,-85.6426"/>
</g>
<!-- Node13&#45;&gt;Node10 -->
<g id="edge20" class="edge">
<title>Node13&#45;&gt;Node10</title>
<path fill="none" stroke="#191970" d="M812.9017,-56.3733C789.0445,-47.2226 752.9665,-33.3844 726.429,-23.2057"/>
<polygon fill="#191970" stroke="#191970" points="727.361,-19.8145 716.7708,-19.5011 724.8541,-26.3503 727.361,-19.8145"/>
</g>
<!-- Node13&#45;&gt;Node12 -->
<g id="edge19" class="edge">
<title>Node13&#45;&gt;Node12</title>
<path fill="none" stroke="#191970" d="M847.2319,-56.2455C854.8317,-48.2155 865.7877,-36.6394 874.8368,-27.0781"/>
<polygon fill="#191970" stroke="#191970" points="877.5421,-29.3115 881.8739,-19.6427 872.458,-24.4998 877.5421,-29.3115"/>
</g>
<!-- Node15&#45;&gt;Node10 -->
<g id="edge24" class="edge">
<title>Node15&#45;&gt;Node10</title>
<path fill="none" stroke="#191970" d="M692,-56.2455C692,-48.9382 692,-38.6944 692,-29.7046"/>
<polygon fill="#191970" stroke="#191970" points="695.5001,-29.6426 692,-19.6427 688.5001,-29.6427 695.5001,-29.6426"/>
</g>
<!-- Node15&#45;&gt;Node12 -->
<g id="edge23" class="edge">
<title>Node15&#45;&gt;Node12</title>
<path fill="none" stroke="#191970" d="M726.2093,-56.3733C759.7297,-46.9404 810.9505,-32.5265 847.381,-22.2747"/>
<polygon fill="#191970" stroke="#191970" points="848.5591,-25.5792 857.2371,-19.5011 846.6628,-18.8409 848.5591,-25.5792"/>
</g>
</g>
</svg>
