<?xml version="1.0" encoding="UTF-8" standalone="no"?>
<!DOCTYPE svg PUBLIC "-//W3C//DTD SVG 1.1//EN"
 "http://www.w3.org/Graphics/SVG/1.1/DTD/svg11.dtd">
<!-- Generated by graphviz version 2.40.1 (20161225.0304)
 -->
<!-- Title: /home/travis/build/AliceO2Group/AliceO2/DataFormats/Detectors/TOF/include/DataFormatsTOF/CalibInfoTOF.h Pages: 1 -->
<svg width="1044pt" height="261pt"
 viewBox="0.00 0.00 1044.00 261.00" xmlns="http://www.w3.org/2000/svg" xmlns:xlink="http://www.w3.org/1999/xlink">
<g id="graph0" class="graph" transform="scale(1 1) rotate(0) translate(4 257)">
<title>/home/travis/build/AliceO2Group/AliceO2/DataFormats/Detectors/TOF/include/DataFormatsTOF/CalibInfoTOF.h</title>
<!-- Node2 -->
<g id="node1" class="node">
<title>Node2</title>
<polygon fill="#bfbfbf" stroke="#000000" points="381.5,-189.5 381.5,-252.5 542.5,-252.5 542.5,-189.5 381.5,-189.5"/>
<text text-anchor="start" x="389.5" y="-240.5" font-family="Helvetica,sans-Serif" font-size="10.00" fill="#000000">/home/travis/build</text>
<text text-anchor="start" x="389.5" y="-229.5" font-family="Helvetica,sans-Serif" font-size="10.00" fill="#000000">/AliceO2Group/AliceO2</text>
<text text-anchor="start" x="389.5" y="-218.5" font-family="Helvetica,sans-Serif" font-size="10.00" fill="#000000">/DataFormats/Detectors</text>
<text text-anchor="start" x="389.5" y="-207.5" font-family="Helvetica,sans-Serif" font-size="10.00" fill="#000000">/TOF/include/DataFormatsTOF</text>
<text text-anchor="middle" x="462" y="-196.5" font-family="Helvetica,sans-Serif" font-size="10.00" fill="#000000">/CalibInfoTOF.h</text>
</g>
<!-- Node3 -->
<g id="node2" class="node">
<title>Node3</title>
<g id="a_node2"><a xlink:href="../../da/d1f/CalibInfoTOF_8cxx.html" target="_top" xlink:title="Class to store the output of the matching to TOF for calibration. ">
<polygon fill="none" stroke="#000000" points="0,-95 0,-147 140,-147 140,-95 0,-95"/>
<text text-anchor="start" x="8" y="-135" font-family="Helvetica,sans-Serif" font-size="10.00" fill="#000000">/home/travis/build</text>
<text text-anchor="start" x="8" y="-124" font-family="Helvetica,sans-Serif" font-size="10.00" fill="#000000">/AliceO2Group/AliceO2</text>
<text text-anchor="start" x="8" y="-113" font-family="Helvetica,sans-Serif" font-size="10.00" fill="#000000">/DataFormats/Detectors</text>
<text text-anchor="middle" x="70" y="-102" font-family="Helvetica,sans-Serif" font-size="10.00" fill="#000000">/TOF/src/CalibInfoTOF.cxx</text>
</a>
</g>
</g>
<!-- Node2&#45;&gt;Node3 -->
<g id="edge1" class="edge">
<title>Node2&#45;&gt;Node3</title>
<path fill="none" stroke="#191970" d="M371.3404,-205.5524C308.2747,-193.7781 222.6365,-175.7297 149,-153 143.2028,-151.2106 137.2362,-149.1735 131.3031,-147.014"/>
<polygon fill="#191970" stroke="#191970" points="370.7931,-209.0104 381.2629,-207.388 372.0665,-202.1272 370.7931,-209.0104"/>
</g>
<!-- Node4 -->
<g id="node3" class="node">
<title>Node4</title>
<g id="a_node3"><a xlink:href="../../d8/d60/CollectCalibInfoTOF_8h.html" target="_top" xlink:title="/home/travis/build\l/AliceO2Group/AliceO2\l/Detectors/GlobalTracking\l/include/GlobalTracking/CollectCalib\lInfoTOF.h">
<polygon fill="none" stroke="#000000" points="158.5,-89.5 158.5,-152.5 349.5,-152.5 349.5,-89.5 158.5,-89.5"/>
<text text-anchor="start" x="166.5" y="-140.5" font-family="Helvetica,sans-Serif" font-size="10.00" fill="#000000">/home/travis/build</text>
<text text-anchor="start" x="166.5" y="-129.5" font-family="Helvetica,sans-Serif" font-size="10.00" fill="#000000">/AliceO2Group/AliceO2</text>
<text text-anchor="start" x="166.5" y="-118.5" font-family="Helvetica,sans-Serif" font-size="10.00" fill="#000000">/Detectors/GlobalTracking</text>
<text text-anchor="start" x="166.5" y="-107.5" font-family="Helvetica,sans-Serif" font-size="10.00" fill="#000000">/include/GlobalTracking/CollectCalib</text>
<text text-anchor="middle" x="254" y="-96.5" font-family="Helvetica,sans-Serif" font-size="10.00" fill="#000000">InfoTOF.h</text>
</a>
</g>
</g>
<!-- Node2&#45;&gt;Node4 -->
<g id="edge2" class="edge">
<title>Node2&#45;&gt;Node4</title>
<path fill="none" stroke="#191970" d="M387.4271,-185.1476C365.2452,-174.4833 341.1171,-162.8832 319.5549,-152.5168"/>
<polygon fill="#191970" stroke="#191970" points="385.9439,-188.318 396.473,-189.4966 388.977,-182.0092 385.9439,-188.318"/>
</g>
<!-- Node6 -->
<g id="node5" class="node">
<title>Node6</title>
<g id="a_node5"><a xlink:href="../../d0/d74/MatchTOF_8h.html" target="_top" xlink:title="Class to perform TOF calibration. ">
<polygon fill="none" stroke="#000000" points="368,-95 368,-147 556,-147 556,-95 368,-95"/>
<text text-anchor="start" x="376" y="-135" font-family="Helvetica,sans-Serif" font-size="10.00" fill="#000000">/home/travis/build</text>
<text text-anchor="start" x="376" y="-124" font-family="Helvetica,sans-Serif" font-size="10.00" fill="#000000">/AliceO2Group/AliceO2</text>
<text text-anchor="start" x="376" y="-113" font-family="Helvetica,sans-Serif" font-size="10.00" fill="#000000">/Detectors/GlobalTracking</text>
<text text-anchor="middle" x="462" y="-102" font-family="Helvetica,sans-Serif" font-size="10.00" fill="#000000">/include/GlobalTracking/MatchTOF.h</text>
</a>
</g>
</g>
<!-- Node2&#45;&gt;Node6 -->
<g id="edge4" class="edge">
<title>Node2&#45;&gt;Node6</title>
<path fill="none" stroke="#191970" d="M462,-179.1631C462,-168.2863 462,-156.8798 462,-147.078"/>
<polygon fill="#191970" stroke="#191970" points="458.5001,-179.3593 462,-189.3594 465.5001,-179.3594 458.5001,-179.3593"/>
</g>
<!-- Node9 -->
<g id="node8" class="node">
<title>Node9</title>
<g id="a_node8"><a xlink:href="../../dc/d9f/TOFCalibWriterSpec_8cxx.html" target="_top" xlink:title="/home/travis/build\l/AliceO2Group/AliceO2\l/Detectors/GlobalTrackingWorkflow\l/tofworkflow/src/TOFCalibWriterSpec.cxx">
<polygon fill="none" stroke="#000000" points="574,-95 574,-147 788,-147 788,-95 574,-95"/>
<text text-anchor="start" x="582" y="-135" font-family="Helvetica,sans-Serif" font-size="10.00" fill="#000000">/home/travis/build</text>
<text text-anchor="start" x="582" y="-124" font-family="Helvetica,sans-Serif" font-size="10.00" fill="#000000">/AliceO2Group/AliceO2</text>
<text text-anchor="start" x="582" y="-113" font-family="Helvetica,sans-Serif" font-size="10.00" fill="#000000">/Detectors/GlobalTrackingWorkflow</text>
<text text-anchor="middle" x="681" y="-102" font-family="Helvetica,sans-Serif" font-size="10.00" fill="#000000">/tofworkflow/src/TOFCalibWriterSpec.cxx</text>
</a>
</g>
</g>
<!-- Node2&#45;&gt;Node9 -->
<g id="edge7" class="edge">
<title>Node2&#45;&gt;Node9</title>
<path fill="none" stroke="#191970" d="M540.2175,-185.2843C567.7793,-172.699 598.2275,-158.7957 623.7363,-147.1478"/>
<polygon fill="#191970" stroke="#191970" points="538.6351,-182.1591 530.9924,-189.4966 541.5427,-188.5267 538.6351,-182.1591"/>
</g>
<!-- Node10 -->
<g id="node9" class="node">
<title>Node10</title>
<g id="a_node9"><a xlink:href="../../d1/dd9/TOFMatchedWriterSpec_8cxx.html" target="_top" xlink:title="/home/travis/build\l/AliceO2Group/AliceO2\l/Detectors/GlobalTrackingWorkflow\l/tofworkflow/src/TOFMatchedWriterSpec.cxx">
<polygon fill="none" stroke="#000000" points="806,-95 806,-147 1036,-147 1036,-95 806,-95"/>
<text text-anchor="start" x="814" y="-135" font-family="Helvetica,sans-Serif" font-size="10.00" fill="#000000">/home/travis/build</text>
<text text-anchor="start" x="814" y="-124" font-family="Helvetica,sans-Serif" font-size="10.00" fill="#000000">/AliceO2Group/AliceO2</text>
<text text-anchor="start" x="814" y="-113" font-family="Helvetica,sans-Serif" font-size="10.00" fill="#000000">/Detectors/GlobalTrackingWorkflow</text>
<text text-anchor="middle" x="921" y="-102" font-family="Helvetica,sans-Serif" font-size="10.00" fill="#000000">/tofworkflow/src/TOFMatchedWriterSpec.cxx</text>
</a>
</g>
</g>
<!-- Node2&#45;&gt;Node10 -->
<g id="edge8" class="edge">
<title>Node2&#45;&gt;Node10</title>
<path fill="none" stroke="#191970" d="M552.9895,-203.865C620.524,-190.8234 714.7639,-171.9438 797,-153 805.1246,-151.1284 813.5297,-149.1185 821.9588,-147.051"/>
<polygon fill="#191970" stroke="#191970" points="551.9629,-200.4983 542.8053,-205.8265 553.2868,-207.372 551.9629,-200.4983"/>
</g>
<!-- Node5 -->
<g id="node4" class="node">
<title>Node5</title>
<g id="a_node4"><a xlink:href="../../d0/dd5/CollectCalibInfoTOF_8cxx.html" target="_top" xlink:title="/home/travis/build\l/AliceO2Group/AliceO2\l/Detectors/GlobalTracking\l/src/CollectCalibInfoTOF.cxx">
<polygon fill="none" stroke="#000000" points="178,-.5 178,-52.5 330,-52.5 330,-.5 178,-.5"/>
<text text-anchor="start" x="186" y="-40.5" font-family="Helvetica,sans-Serif" font-size="10.00" fill="#000000">/home/travis/build</text>
<text text-anchor="start" x="186" y="-29.5" font-family="Helvetica,sans-Serif" font-size="10.00" fill="#000000">/AliceO2Group/AliceO2</text>
<text text-anchor="start" x="186" y="-18.5" font-family="Helvetica,sans-Serif" font-size="10.00" fill="#000000">/Detectors/GlobalTracking</text>
<text text-anchor="middle" x="254" y="-7.5" font-family="Helvetica,sans-Serif" font-size="10.00" fill="#000000">/src/CollectCalibInfoTOF.cxx</text>
</a>
</g>
</g>
<!-- Node4&#45;&gt;Node5 -->
<g id="edge3" class="edge">
<title>Node4&#45;&gt;Node5</title>
<path fill="none" stroke="#191970" d="M254,-79.2457C254,-70.2008 254,-60.8836 254,-52.6442"/>
<polygon fill="#191970" stroke="#191970" points="250.5001,-79.2699 254,-89.27 257.5001,-79.27 250.5001,-79.2699"/>
</g>
<!-- Node7 -->
<g id="node6" class="node">
<title>Node7</title>
<g id="a_node6"><a xlink:href="../../db/d6a/MatchTOF_8cxx.html" target="_top" xlink:title="/home/travis/build\l/AliceO2Group/AliceO2\l/Detectors/GlobalTracking\l/src/MatchTOF.cxx">
<polygon fill="none" stroke="#000000" points="369,-.5 369,-52.5 511,-52.5 511,-.5 369,-.5"/>
<text text-anchor="start" x="377" y="-40.5" font-family="Helvetica,sans-Serif" font-size="10.00" fill="#000000">/home/travis/build</text>
<text text-anchor="start" x="377" y="-29.5" font-family="Helvetica,sans-Serif" font-size="10.00" fill="#000000">/AliceO2Group/AliceO2</text>
<text text-anchor="start" x="377" y="-18.5" font-family="Helvetica,sans-Serif" font-size="10.00" fill="#000000">/Detectors/GlobalTracking</text>
<text text-anchor="middle" x="440" y="-7.5" font-family="Helvetica,sans-Serif" font-size="10.00" fill="#000000">/src/MatchTOF.cxx</text>
</a>
</g>
</g>
<!-- Node6&#45;&gt;Node7 -->
<g id="edge5" class="edge">
<title>Node6&#45;&gt;Node7</title>
<path fill="none" stroke="#191970" d="M453.618,-84.9957C451.1269,-74.295 448.4455,-62.7773 446.1264,-52.8157"/>
<polygon fill="#191970" stroke="#191970" points="450.2538,-85.9814 455.9302,-94.9273 457.0715,-84.3941 450.2538,-85.9814"/>
</g>
<!-- Node8 -->
<g id="node7" class="node">
<title>Node8</title>
<g id="a_node7"><a xlink:href="../../d8/d84/RecoWorkflowSpec_8cxx.html" target="_top" xlink:title="/home/travis/build\l/AliceO2Group/AliceO2\l/Detectors/GlobalTrackingWorkflow\l/tofworkflow/src/RecoWorkflowSpec.cxx">
<polygon fill="none" stroke="#000000" points="529.5,-.5 529.5,-52.5 738.5,-52.5 738.5,-.5 529.5,-.5"/>
<text text-anchor="start" x="537.5" y="-40.5" font-family="Helvetica,sans-Serif" font-size="10.00" fill="#000000">/home/travis/build</text>
<text text-anchor="start" x="537.5" y="-29.5" font-family="Helvetica,sans-Serif" font-size="10.00" fill="#000000">/AliceO2Group/AliceO2</text>
<text text-anchor="start" x="537.5" y="-18.5" font-family="Helvetica,sans-Serif" font-size="10.00" fill="#000000">/Detectors/GlobalTrackingWorkflow</text>
<text text-anchor="middle" x="634" y="-7.5" font-family="Helvetica,sans-Serif" font-size="10.00" fill="#000000">/tofworkflow/src/RecoWorkflowSpec.cxx</text>
</a>
</g>
</g>
<!-- Node6&#45;&gt;Node8 -->
<g id="edge6" class="edge">
<title>Node6&#45;&gt;Node8</title>
<path fill="none" stroke="#191970" d="M518.3644,-90.0324C540.3686,-77.9429 565.3218,-64.2331 586.4015,-52.6515"/>
<polygon fill="#191970" stroke="#191970" points="516.534,-87.0445 509.4551,-94.9273 519.9048,-93.1795 516.534,-87.0445"/>
</g>
</g>
</svg>
