<?xml version="1.0" encoding="UTF-8" standalone="no"?>
<!DOCTYPE svg PUBLIC "-//W3C//DTD SVG 1.1//EN"
 "http://www.w3.org/Graphics/SVG/1.1/DTD/svg11.dtd">
<!-- Generated by graphviz version 2.40.1 (20161225.0304)
 -->
<!-- Title: test::MetaHeader Pages: 1 -->
<svg width="998pt" height="992pt"
 viewBox="0.00 0.00 997.63 992.00" xmlns="http://www.w3.org/2000/svg" xmlns:xlink="http://www.w3.org/1999/xlink">
<g id="graph0" class="graph" transform="scale(1 1) rotate(0) translate(4 988)">
<title>test::MetaHeader</title>
<!-- Node2 -->
<g id="node1" class="node">
<title>Node2</title>
<polygon fill="#bfbfbf" stroke="#000000" points="855.1267,-.5 855.1267,-57.5 956.1267,-57.5 956.1267,-.5 855.1267,-.5"/>
<text text-anchor="middle" x="905.6267" y="-45.5" font-family="Helvetica,sans-Serif" font-size="10.00" fill="#000000">test::MetaHeader</text>
<polyline fill="none" stroke="#000000" points="855.1267,-38.5 956.1267,-38.5 "/>
<text text-anchor="middle" x="905.6267" y="-26.5" font-family="Helvetica,sans-Serif" font-size="10.00" fill="#000000"> </text>
<polyline fill="none" stroke="#000000" points="855.1267,-19.5 956.1267,-19.5 "/>
<text text-anchor="start" x="863.1267" y="-7.5" font-family="Helvetica,sans-Serif" font-size="10.00" fill="#000000">+ MetaHeader()</text>
</g>
<!-- Node3 -->
<g id="node2" class="node">
<title>Node3</title>
<g id="a_node2"><a xlink:href="../../d8/dbd/structo2_1_1header_1_1BaseHeader.html" target="_top" xlink:title="the base header struct Every header type must begin (i.e. derive) with this. Don&#39;t use this struct di...">
<polygon fill="none" stroke="#000000" points="403.6267,-105.5 403.6267,-250.5 537.6267,-250.5 537.6267,-105.5 403.6267,-105.5"/>
<text text-anchor="middle" x="470.6267" y="-238.5" font-family="Helvetica,sans-Serif" font-size="10.00" fill="#000000">o2::header::BaseHeader</text>
<polyline fill="none" stroke="#000000" points="403.6267,-231.5 537.6267,-231.5 "/>
<text text-anchor="middle" x="470.6267" y="-219.5" font-family="Helvetica,sans-Serif" font-size="10.00" fill="#000000"> </text>
<polyline fill="none" stroke="#000000" points="403.6267,-212.5 537.6267,-212.5 "/>
<text text-anchor="start" x="411.6267" y="-200.5" font-family="Helvetica,sans-Serif" font-size="10.00" fill="#000000">+ BaseHeader()</text>
<text text-anchor="start" x="411.6267" y="-189.5" font-family="Helvetica,sans-Serif" font-size="10.00" fill="#000000">+ BaseHeader()</text>
<text text-anchor="start" x="411.6267" y="-178.5" font-family="Helvetica,sans-Serif" font-size="10.00" fill="#000000">+ BaseHeader()</text>
<text text-anchor="start" x="411.6267" y="-167.5" font-family="Helvetica,sans-Serif" font-size="10.00" fill="#000000">+ size()</text>
<text text-anchor="start" x="411.6267" y="-156.5" font-family="Helvetica,sans-Serif" font-size="10.00" fill="#000000">+ data()</text>
<text text-anchor="start" x="411.6267" y="-145.5" font-family="Helvetica,sans-Serif" font-size="10.00" fill="#000000">+ next()</text>
<text text-anchor="start" x="411.6267" y="-134.5" font-family="Helvetica,sans-Serif" font-size="10.00" fill="#000000">+ next()</text>
<text text-anchor="start" x="411.6267" y="-123.5" font-family="Helvetica,sans-Serif" font-size="10.00" fill="#000000">+ get()</text>
<text text-anchor="start" x="411.6267" y="-112.5" font-family="Helvetica,sans-Serif" font-size="10.00" fill="#000000">+ get()</text>
</a>
</g>
</g>
<!-- Node3&#45;&gt;Node2 -->
<g id="edge1" class="edge">
<title>Node3&#45;&gt;Node2</title>
<path fill="none" stroke="#191970" d="M547.3661,-151.7145C635.9343,-121.3774 779.0919,-72.3418 854.8469,-46.3935"/>
<polygon fill="none" stroke="#191970" points="545.9683,-148.4936 537.6421,-155.0453 548.2367,-155.1159 545.9683,-148.4936"/>
</g>
<!-- Node4 -->
<g id="node3" class="node">
<title>Node4</title>
<g id="a_node3"><a xlink:href="../../d9/db3/structo2_1_1header_1_1Descriptor.html" target="_top" xlink:title="{o2::header::Descriptor\l\&lt; gSizeHeaderDescriptionString \&gt;\n||+ Descriptor()\l+ Descriptor()\l+ Descriptor()\l+ Descriptor()\l+ operator=()\l+ operator ItgType()\l+ runtimeInit()\l+ operator==()\l+ operator==()\l+ operator\&lt;()\l+ operator!=()\l+ operator!=()\l+ as()\l+ print()\l}">
<polygon fill="none" stroke="#000000" points="33.1267,-353.5 33.1267,-564.5 218.1267,-564.5 218.1267,-353.5 33.1267,-353.5"/>
<text text-anchor="start" x="41.1267" y="-552.5" font-family="Helvetica,sans-Serif" font-size="10.00" fill="#000000">o2::header::Descriptor</text>
<text text-anchor="middle" x="125.6267" y="-541.5" font-family="Helvetica,sans-Serif" font-size="10.00" fill="#000000">&lt; gSizeHeaderDescriptionString &gt;</text>
<polyline fill="none" stroke="#000000" points="33.1267,-534.5 218.1267,-534.5 "/>
<text text-anchor="middle" x="125.6267" y="-522.5" font-family="Helvetica,sans-Serif" font-size="10.00" fill="#000000"> </text>
<polyline fill="none" stroke="#000000" points="33.1267,-515.5 218.1267,-515.5 "/>
<text text-anchor="start" x="41.1267" y="-503.5" font-family="Helvetica,sans-Serif" font-size="10.00" fill="#000000">+ Descriptor()</text>
<text text-anchor="start" x="41.1267" y="-492.5" font-family="Helvetica,sans-Serif" font-size="10.00" fill="#000000">+ Descriptor()</text>
<text text-anchor="start" x="41.1267" y="-481.5" font-family="Helvetica,sans-Serif" font-size="10.00" fill="#000000">+ Descriptor()</text>
<text text-anchor="start" x="41.1267" y="-470.5" font-family="Helvetica,sans-Serif" font-size="10.00" fill="#000000">+ Descriptor()</text>
<text text-anchor="start" x="41.1267" y="-459.5" font-family="Helvetica,sans-Serif" font-size="10.00" fill="#000000">+ operator=()</text>
<text text-anchor="start" x="41.1267" y="-448.5" font-family="Helvetica,sans-Serif" font-size="10.00" fill="#000000">+ operator ItgType()</text>
<text text-anchor="start" x="41.1267" y="-437.5" font-family="Helvetica,sans-Serif" font-size="10.00" fill="#000000">+ runtimeInit()</text>
<text text-anchor="start" x="41.1267" y="-426.5" font-family="Helvetica,sans-Serif" font-size="10.00" fill="#000000">+ operator==()</text>
<text text-anchor="start" x="41.1267" y="-415.5" font-family="Helvetica,sans-Serif" font-size="10.00" fill="#000000">+ operator==()</text>
<text text-anchor="start" x="41.1267" y="-404.5" font-family="Helvetica,sans-Serif" font-size="10.00" fill="#000000">+ operator&lt;()</text>
<text text-anchor="start" x="41.1267" y="-393.5" font-family="Helvetica,sans-Serif" font-size="10.00" fill="#000000">+ operator!=()</text>
<text text-anchor="start" x="41.1267" y="-382.5" font-family="Helvetica,sans-Serif" font-size="10.00" fill="#000000">+ operator!=()</text>
<text text-anchor="start" x="41.1267" y="-371.5" font-family="Helvetica,sans-Serif" font-size="10.00" fill="#000000">+ as()</text>
<text text-anchor="start" x="41.1267" y="-360.5" font-family="Helvetica,sans-Serif" font-size="10.00" fill="#000000">+ print()</text>
</a>
</g>
</g>
<!-- Node4&#45;&gt;Node3 -->
<g id="edge2" class="edge">
<title>Node4&#45;&gt;Node3</title>
<path fill="none" stroke="#404040" d="M207.5058,-353.1936C233.3843,-323.7553 263.4253,-293.241 294.6267,-269 324.1495,-246.063 360.3275,-226.1997 392.1884,-210.9344"/>
<polygon fill="none" stroke="#404040" points="392.4002,-210.8348 396.1282,-204.6621 403.2599,-205.7291 399.532,-211.9019 392.4002,-210.8348"/>
<text text-anchor="middle" x="327.6267" y="-299.5" font-family="Helvetica,sans-Serif" font-size="10.00" fill="#000000"> +description</text>
</g>
<!-- Node5 -->
<g id="node4" class="node">
<title>Node5</title>
<polygon fill="none" stroke="#bfbfbf" points="258.1267,-926.5 258.1267,-983.5 297.1267,-983.5 297.1267,-926.5 258.1267,-926.5"/>
<text text-anchor="middle" x="277.6267" y="-971.5" font-family="Helvetica,sans-Serif" font-size="10.00" fill="#000000">Type</text>
<polyline fill="none" stroke="#bfbfbf" points="258.1267,-964.5 297.1267,-964.5 "/>
<text text-anchor="middle" x="277.6267" y="-952.5" font-family="Helvetica,sans-Serif" font-size="10.00" fill="#000000"> </text>
<polyline fill="none" stroke="#bfbfbf" points="258.1267,-945.5 297.1267,-945.5 "/>
<text text-anchor="middle" x="277.6267" y="-933.5" font-family="Helvetica,sans-Serif" font-size="10.00" fill="#000000"> </text>
</g>
<!-- Node5&#45;&gt;Node4 -->
<g id="edge3" class="edge">
<title>Node5&#45;&gt;Node4</title>
<path fill="none" stroke="#404040" d="M258.5388,-926.1215C245.6012,-908.7741 227.0025,-887.6762 205.6267,-875 175.7696,-857.2943 151.295,-884.1186 129.6267,-857 96.2596,-815.2402 101.7617,-678.5945 111.3392,-577.0013"/>
<polygon fill="none" stroke="#404040" points="111.3646,-576.7382 107.9636,-570.3795 112.525,-564.7944 115.9261,-571.1531 111.3646,-576.7382"/>
<text text-anchor="middle" x="142.1267" y="-748.5" font-family="Helvetica,sans-Serif" font-size="10.00" fill="#000000"> +itg</text>
</g>
<!-- Node9 -->
<g id="node8" class="node">
<title>Node9</title>
<g id="a_node8"><a xlink:href="../../d9/db3/structo2_1_1header_1_1Descriptor.html" target="_top" xlink:title="{o2::header::Descriptor\l\&lt; N, PrinterPolicy \&gt;\n||+ Descriptor()\l+ Descriptor()\l+ Descriptor()\l+ operator=()\l+ operator ItgType()\l+ Descriptor()\l+ runtimeInit()\l+ operator==()\l+ operator\&lt;()\l+ operator!=()\l+ operator==()\l+ operator!=()\l+ as()\l+ print()\l}">
<polygon fill="none" stroke="#000000" points="223.1267,-645.5 223.1267,-856.5 348.1267,-856.5 348.1267,-645.5 223.1267,-645.5"/>
<text text-anchor="start" x="231.1267" y="-844.5" font-family="Helvetica,sans-Serif" font-size="10.00" fill="#000000">o2::header::Descriptor</text>
<text text-anchor="middle" x="285.6267" y="-833.5" font-family="Helvetica,sans-Serif" font-size="10.00" fill="#000000">&lt; N, PrinterPolicy &gt;</text>
<polyline fill="none" stroke="#000000" points="223.1267,-826.5 348.1267,-826.5 "/>
<text text-anchor="middle" x="285.6267" y="-814.5" font-family="Helvetica,sans-Serif" font-size="10.00" fill="#000000"> </text>
<polyline fill="none" stroke="#000000" points="223.1267,-807.5 348.1267,-807.5 "/>
<text text-anchor="start" x="231.1267" y="-795.5" font-family="Helvetica,sans-Serif" font-size="10.00" fill="#000000">+ Descriptor()</text>
<text text-anchor="start" x="231.1267" y="-784.5" font-family="Helvetica,sans-Serif" font-size="10.00" fill="#000000">+ Descriptor()</text>
<text text-anchor="start" x="231.1267" y="-773.5" font-family="Helvetica,sans-Serif" font-size="10.00" fill="#000000">+ Descriptor()</text>
<text text-anchor="start" x="231.1267" y="-762.5" font-family="Helvetica,sans-Serif" font-size="10.00" fill="#000000">+ operator=()</text>
<text text-anchor="start" x="231.1267" y="-751.5" font-family="Helvetica,sans-Serif" font-size="10.00" fill="#000000">+ operator ItgType()</text>
<text text-anchor="start" x="231.1267" y="-740.5" font-family="Helvetica,sans-Serif" font-size="10.00" fill="#000000">+ Descriptor()</text>
<text text-anchor="start" x="231.1267" y="-729.5" font-family="Helvetica,sans-Serif" font-size="10.00" fill="#000000">+ runtimeInit()</text>
<text text-anchor="start" x="231.1267" y="-718.5" font-family="Helvetica,sans-Serif" font-size="10.00" fill="#000000">+ operator==()</text>
<text text-anchor="start" x="231.1267" y="-707.5" font-family="Helvetica,sans-Serif" font-size="10.00" fill="#000000">+ operator&lt;()</text>
<text text-anchor="start" x="231.1267" y="-696.5" font-family="Helvetica,sans-Serif" font-size="10.00" fill="#000000">+ operator!=()</text>
<text text-anchor="start" x="231.1267" y="-685.5" font-family="Helvetica,sans-Serif" font-size="10.00" fill="#000000">+ operator==()</text>
<text text-anchor="start" x="231.1267" y="-674.5" font-family="Helvetica,sans-Serif" font-size="10.00" fill="#000000">+ operator!=()</text>
<text text-anchor="start" x="231.1267" y="-663.5" font-family="Helvetica,sans-Serif" font-size="10.00" fill="#000000">+ as()</text>
<text text-anchor="start" x="231.1267" y="-652.5" font-family="Helvetica,sans-Serif" font-size="10.00" fill="#000000">+ print()</text>
</a>
</g>
</g>
<!-- Node5&#45;&gt;Node9 -->
<g id="edge8" class="edge">
<title>Node5&#45;&gt;Node9</title>
<path fill="none" stroke="#404040" d="M277.6795,-926.4833C277.7844,-911.2095 278.0383,-892.0745 278.6267,-875 278.6981,-872.9259 278.7741,-870.8324 278.8542,-868.7241"/>
<polygon fill="none" stroke="#404040" points="278.863,-868.506 275.112,-862.3473 279.3543,-856.516 283.1053,-862.6748 278.863,-868.506"/>
<text text-anchor="middle" x="291.1267" y="-889" font-family="Helvetica,sans-Serif" font-size="10.00" fill="#000000"> +itg</text>
</g>
<!-- Node12 -->
<g id="node11" class="node">
<title>Node12</title>
<g id="a_node11"><a xlink:href="../../d9/db3/structo2_1_1header_1_1Descriptor.html" target="_top" xlink:title="{o2::header::Descriptor\l\&lt; gSizeSerializationMethodString \&gt;\n||+ Descriptor()\l+ Descriptor()\l+ Descriptor()\l+ Descriptor()\l+ operator=()\l+ operator ItgType()\l+ runtimeInit()\l+ operator==()\l+ operator==()\l+ operator\&lt;()\l+ operator!=()\l+ operator!=()\l+ as()\l+ print()\l}">
<polygon fill="none" stroke="#000000" points="486.1267,-353.5 486.1267,-564.5 677.1267,-564.5 677.1267,-353.5 486.1267,-353.5"/>
<text text-anchor="start" x="494.1267" y="-552.5" font-family="Helvetica,sans-Serif" font-size="10.00" fill="#000000">o2::header::Descriptor</text>
<text text-anchor="middle" x="581.6267" y="-541.5" font-family="Helvetica,sans-Serif" font-size="10.00" fill="#000000">&lt; gSizeSerializationMethodString &gt;</text>
<polyline fill="none" stroke="#000000" points="486.1267,-534.5 677.1267,-534.5 "/>
<text text-anchor="middle" x="581.6267" y="-522.5" font-family="Helvetica,sans-Serif" font-size="10.00" fill="#000000"> </text>
<polyline fill="none" stroke="#000000" points="486.1267,-515.5 677.1267,-515.5 "/>
<text text-anchor="start" x="494.1267" y="-503.5" font-family="Helvetica,sans-Serif" font-size="10.00" fill="#000000">+ Descriptor()</text>
<text text-anchor="start" x="494.1267" y="-492.5" font-family="Helvetica,sans-Serif" font-size="10.00" fill="#000000">+ Descriptor()</text>
<text text-anchor="start" x="494.1267" y="-481.5" font-family="Helvetica,sans-Serif" font-size="10.00" fill="#000000">+ Descriptor()</text>
<text text-anchor="start" x="494.1267" y="-470.5" font-family="Helvetica,sans-Serif" font-size="10.00" fill="#000000">+ Descriptor()</text>
<text text-anchor="start" x="494.1267" y="-459.5" font-family="Helvetica,sans-Serif" font-size="10.00" fill="#000000">+ operator=()</text>
<text text-anchor="start" x="494.1267" y="-448.5" font-family="Helvetica,sans-Serif" font-size="10.00" fill="#000000">+ operator ItgType()</text>
<text text-anchor="start" x="494.1267" y="-437.5" font-family="Helvetica,sans-Serif" font-size="10.00" fill="#000000">+ runtimeInit()</text>
<text text-anchor="start" x="494.1267" y="-426.5" font-family="Helvetica,sans-Serif" font-size="10.00" fill="#000000">+ operator==()</text>
<text text-anchor="start" x="494.1267" y="-415.5" font-family="Helvetica,sans-Serif" font-size="10.00" fill="#000000">+ operator==()</text>
<text text-anchor="start" x="494.1267" y="-404.5" font-family="Helvetica,sans-Serif" font-size="10.00" fill="#000000">+ operator&lt;()</text>
<text text-anchor="start" x="494.1267" y="-393.5" font-family="Helvetica,sans-Serif" font-size="10.00" fill="#000000">+ operator!=()</text>
<text text-anchor="start" x="494.1267" y="-382.5" font-family="Helvetica,sans-Serif" font-size="10.00" fill="#000000">+ operator!=()</text>
<text text-anchor="start" x="494.1267" y="-371.5" font-family="Helvetica,sans-Serif" font-size="10.00" fill="#000000">+ as()</text>
<text text-anchor="start" x="494.1267" y="-360.5" font-family="Helvetica,sans-Serif" font-size="10.00" fill="#000000">+ print()</text>
</a>
</g>
</g>
<!-- Node5&#45;&gt;Node12 -->
<g id="edge16" class="edge">
<title>Node5&#45;&gt;Node12</title>
<path fill="none" stroke="#404040" d="M293.7768,-926.2287C305.6817,-906.0539 321.502,-881.5616 331.6267,-875 370.6245,-849.726 400.9607,-889.0345 434.6267,-857 504.6128,-790.4052 416.0968,-715.048 482.6267,-645 502.9753,-623.5753 526.4637,-648.5996 546.6267,-627 559.8428,-612.8422 568.6037,-595.0415 574.3199,-576.361"/>
<polygon fill="none" stroke="#404040" points="574.3574,-576.2224 572.0672,-569.3846 577.4982,-564.6407 579.7884,-571.4785 574.3574,-576.2224"/>
<text text-anchor="middle" x="495.1267" y="-748.5" font-family="Helvetica,sans-Serif" font-size="10.00" fill="#000000"> +itg</text>
</g>
<!-- Node6 -->
<g id="node5" class="node">
<title>Node6</title>
<polygon fill="none" stroke="#bfbfbf" points="77.6267,-926.5 77.6267,-983.5 115.6267,-983.5 115.6267,-926.5 77.6267,-926.5"/>
<text text-anchor="middle" x="96.6267" y="-971.5" font-family="Helvetica,sans-Serif" font-size="10.00" fill="#000000">char</text>
<polyline fill="none" stroke="#bfbfbf" points="77.6267,-964.5 115.6267,-964.5 "/>
<text text-anchor="middle" x="96.6267" y="-952.5" font-family="Helvetica,sans-Serif" font-size="10.00" fill="#000000"> </text>
<polyline fill="none" stroke="#bfbfbf" points="77.6267,-945.5 115.6267,-945.5 "/>
<text text-anchor="middle" x="96.6267" y="-933.5" font-family="Helvetica,sans-Serif" font-size="10.00" fill="#000000"> </text>
</g>
<!-- Node6&#45;&gt;Node3 -->
<g id="edge13" class="edge">
<title>Node6&#45;&gt;Node3</title>
<path fill="none" stroke="#404040" d="M95.5081,-926.3331C92.4617,-859.0388 82.3776,-693.018 55.6267,-645 49.4782,-633.9636 39.9313,-637.9479 33.6267,-627 -5.3568,-559.3054 -12.3145,-406.9736 23.6267,-353 65.7726,-289.7084 274.962,-227.7277 391.6346,-197.3486"/>
<polygon fill="none" stroke="#404040" points="391.6986,-197.3321 396.5079,-191.959 403.3175,-194.3317 398.5082,-199.7049 391.6986,-197.3321"/>
<text text-anchor="middle" x="68.6267" y="-602.5" font-family="Helvetica,sans-Serif" font-size="10.00" fill="#000000"> +magicString</text>
</g>
<!-- Node6&#45;&gt;Node4 -->
<g id="edge4" class="edge">
<title>Node6&#45;&gt;Node4</title>
<path fill="none" stroke="#404040" d="M86.1377,-926.2975C79.6582,-907.0009 71.9645,-880.8322 68.6267,-857 55.5579,-763.6885 49.0669,-737.1696 68.6267,-645 70.444,-636.4362 73.6164,-635.2207 76.6267,-627 82.5682,-610.7739 88.2883,-593.4654 93.592,-576.3563"/>
<polygon fill="none" stroke="#404040" points="93.6898,-576.0359 91.6168,-569.1291 97.195,-564.5592 99.268,-571.4659 93.6898,-576.0359"/>
<text text-anchor="middle" x="81.1267" y="-748.5" font-family="Helvetica,sans-Serif" font-size="10.00" fill="#000000"> +str</text>
</g>
<!-- Node6&#45;&gt;Node9 -->
<g id="edge9" class="edge">
<title>Node6&#45;&gt;Node9</title>
<path fill="none" stroke="#404040" d="M115.6627,-941.5472C128.0189,-932.5252 144.251,-920.1176 157.6267,-908 177.8324,-889.6947 197.5392,-868.0777 215.196,-846.8336"/>
<polygon fill="none" stroke="#404040" points="215.2888,-846.7204 215.998,-839.5442 222.895,-837.4389 222.1857,-844.615 215.2888,-846.7204"/>
<text text-anchor="middle" x="202.1267" y="-889" font-family="Helvetica,sans-Serif" font-size="10.00" fill="#000000"> +str</text>
</g>
<!-- Node6&#45;&gt;Node12 -->
<g id="edge17" class="edge">
<title>Node6&#45;&gt;Node12</title>
<path fill="none" stroke="#404040" d="M115.6354,-929.861C128.918,-910.8871 145.7976,-883.6494 154.6267,-857 173.8827,-798.8778 139.3874,-625.3305 183.6267,-583 205.444,-562.124 412.5275,-576.0194 474.1892,-563.7466"/>
<polygon fill="none" stroke="#404040" points="474.5327,-563.6456 479.16,-558.1149 486.045,-560.259 481.4177,-565.7897 474.5327,-563.6456"/>
<text text-anchor="middle" x="175.1267" y="-748.5" font-family="Helvetica,sans-Serif" font-size="10.00" fill="#000000"> +str</text>
</g>
<!-- Node7 -->
<g id="node6" class="node">
<title>Node7</title>
<polygon fill="none" stroke="#bfbfbf" points="346.1267,-926.5 346.1267,-983.5 453.1267,-983.5 453.1267,-926.5 346.1267,-926.5"/>
<text text-anchor="middle" x="399.6267" y="-971.5" font-family="Helvetica,sans-Serif" font-size="10.00" fill="#000000">anonymous:+@24</text>
<polyline fill="none" stroke="#bfbfbf" points="346.1267,-964.5 453.1267,-964.5 "/>
<text text-anchor="middle" x="399.6267" y="-952.5" font-family="Helvetica,sans-Serif" font-size="10.00" fill="#000000"> </text>
<polyline fill="none" stroke="#bfbfbf" points="346.1267,-945.5 453.1267,-945.5 "/>
<text text-anchor="middle" x="399.6267" y="-933.5" font-family="Helvetica,sans-Serif" font-size="10.00" fill="#000000"> </text>
</g>
<!-- Node7&#45;&gt;Node4 -->
<g id="edge5" class="edge">
<title>Node7&#45;&gt;Node4</title>
<path fill="none" stroke="#404040" d="M399.2259,-926.4694C397.4522,-847.2199 387.8298,-627.3226 335.6267,-583 300.9753,-553.5795 274.2603,-582.8846 229.4454,-565.3963"/>
<polygon fill="none" stroke="#404040" points="229.1926,-565.2792 222.0668,-566.3857 218.3048,-560.2337 225.4305,-559.1272 229.1926,-565.2792"/>
<text text-anchor="middle" x="413.6267" y="-748.5" font-family="Helvetica,sans-Serif" font-size="10.00" fill="#000000"> +@24</text>
</g>
<!-- Node7&#45;&gt;Node9 -->
<g id="edge10" class="edge">
<title>Node7&#45;&gt;Node9</title>
<path fill="none" stroke="#404040" d="M366.7032,-926.2817C361.2398,-920.574 355.9536,-914.3664 351.6267,-908 343.1679,-895.5542 335.4638,-881.8518 328.5487,-867.8842"/>
<polygon fill="none" stroke="#404040" points="328.3507,-867.47 322.1532,-863.7833 323.1727,-856.6446 329.3702,-860.3313 328.3507,-867.47"/>
<text text-anchor="middle" x="368.6267" y="-889" font-family="Helvetica,sans-Serif" font-size="10.00" fill="#000000"> +@24</text>
</g>
<!-- Node7&#45;&gt;Node12 -->
<g id="edge18" class="edge">
<title>Node7&#45;&gt;Node12</title>
<path fill="none" stroke="#404040" d="M453.313,-946.0328C501.0169,-934.7115 566.9062,-909.8901 591.6267,-857 632.4927,-769.5661 625.8037,-659.105 611.2787,-576.7487"/>
<polygon fill="none" stroke="#404040" points="611.2533,-576.61 606.2343,-571.4322 609.0835,-564.8078 614.1024,-569.9857 611.2533,-576.61"/>
<text text-anchor="middle" x="639.6267" y="-748.5" font-family="Helvetica,sans-Serif" font-size="10.00" fill="#000000"> +@24</text>
</g>
<!-- Node8 -->
<g id="node7" class="node">
<title>Node8</title>
<polygon fill="none" stroke="#bfbfbf" points="671.6267,-926.5 671.6267,-983.5 715.6267,-983.5 715.6267,-926.5 671.6267,-926.5"/>
<text text-anchor="middle" x="693.6267" y="-971.5" font-family="Helvetica,sans-Serif" font-size="10.00" fill="#000000">static</text>
<polyline fill="none" stroke="#bfbfbf" points="671.6267,-964.5 715.6267,-964.5 "/>
<text text-anchor="middle" x="693.6267" y="-952.5" font-family="Helvetica,sans-Serif" font-size="10.00" fill="#000000"> </text>
<polyline fill="none" stroke="#bfbfbf" points="671.6267,-945.5 715.6267,-945.5 "/>
<text text-anchor="middle" x="693.6267" y="-933.5" font-family="Helvetica,sans-Serif" font-size="10.00" fill="#000000"> </text>
</g>
<!-- Node8&#45;&gt;Node2 -->
<g id="edge24" class="edge">
<title>Node8&#45;&gt;Node2</title>
<path fill="none" stroke="#404040" d="M715.9137,-946.2359C770.3439,-923.2046 905.6267,-855.4551 905.6267,-751 905.6267,-751 905.6267,-751 905.6267,-178 905.6267,-141.332 905.6267,-99.5882 905.6267,-69.6319"/>
<polygon fill="none" stroke="#404040" points="905.6267,-69.5643 901.6267,-63.5643 905.6267,-57.5643 909.6267,-63.5643 905.6267,-69.5643"/>
<text text-anchor="middle" x="943.1267" y="-462" font-family="Helvetica,sans-Serif" font-size="10.00" fill="#000000"> +sHeaderType</text>
<text text-anchor="middle" x="943.1267" y="-451" font-family="Helvetica,sans-Serif" font-size="10.00" fill="#000000">+sVersion</text>
</g>
<!-- Node8&#45;&gt;Node3 -->
<g id="edge22" class="edge">
<title>Node8&#45;&gt;Node3</title>
<path fill="none" stroke="#404040" d="M715.6631,-927.2609C729.102,-908.577 745.0977,-882.7312 752.6267,-857 770.9784,-794.2804 804.432,-321.5802 765.6267,-269 739.8346,-234.0525 628.4529,-206.8804 550.1974,-191.6465"/>
<polygon fill="none" stroke="#404040" points="549.7273,-191.5568 543.0832,-194.3597 537.9405,-189.3047 544.5846,-186.5018 549.7273,-191.5568"/>
<text text-anchor="middle" x="835.1267" y="-619" font-family="Helvetica,sans-Serif" font-size="10.00" fill="#000000"> +sMagicString</text>
<text text-anchor="middle" x="835.1267" y="-608" font-family="Helvetica,sans-Serif" font-size="10.00" fill="#000000">+sHeaderType</text>
<text text-anchor="middle" x="835.1267" y="-597" font-family="Helvetica,sans-Serif" font-size="10.00" fill="#000000">+sSerializationMethod</text>
<text text-anchor="middle" x="835.1267" y="-586" font-family="Helvetica,sans-Serif" font-size="10.00" fill="#000000">+sVersion</text>
</g>
<!-- Node8&#45;&gt;Node4 -->
<g id="edge6" class="edge">
<title>Node8&#45;&gt;Node4</title>
<path fill="none" stroke="#404040" d="M671.4451,-949.2261C634.4477,-938.2755 561.1026,-910.6371 529.6267,-857 521.9191,-843.8658 532.2227,-593.9379 521.6267,-583 500.4735,-561.1643 291.1719,-576.1984 230.1004,-564.2459"/>
<polygon fill="none" stroke="#404040" points="229.9562,-564.2036 223.0714,-566.3483 218.4437,-560.818 225.3284,-558.6733 229.9562,-564.2036"/>
<text text-anchor="middle" x="558.6267" y="-759.5" font-family="Helvetica,sans-Serif" font-size="10.00" fill="#000000"> +arraySize</text>
<text text-anchor="middle" x="558.6267" y="-748.5" font-family="Helvetica,sans-Serif" font-size="10.00" fill="#000000">+size</text>
<text text-anchor="middle" x="558.6267" y="-737.5" font-family="Helvetica,sans-Serif" font-size="10.00" fill="#000000">+bitcount</text>
</g>
<!-- Node8&#45;&gt;Node9 -->
<g id="edge11" class="edge">
<title>Node8&#45;&gt;Node9</title>
<path fill="none" stroke="#404040" d="M671.559,-953.0852C616.1391,-947.3325 468.5471,-926.0855 370.6267,-857 366.1137,-853.816 361.7152,-850.3277 357.4481,-846.6175"/>
<polygon fill="none" stroke="#404040" points="357.1299,-846.323 350.0094,-845.1834 348.3227,-838.1723 355.4432,-839.3119 357.1299,-846.323"/>
<text text-anchor="middle" x="497.6267" y="-900" font-family="Helvetica,sans-Serif" font-size="10.00" fill="#000000"> +arraySize</text>
<text text-anchor="middle" x="497.6267" y="-889" font-family="Helvetica,sans-Serif" font-size="10.00" fill="#000000">+size</text>
<text text-anchor="middle" x="497.6267" y="-878" font-family="Helvetica,sans-Serif" font-size="10.00" fill="#000000">+bitcount</text>
</g>
<!-- Node8&#45;&gt;Node12 -->
<g id="edge19" class="edge">
<title>Node8&#45;&gt;Node12</title>
<path fill="none" stroke="#404040" d="M693.2044,-926.3637C691.8367,-871.1662 686.0524,-746.5266 661.6267,-645 654.7151,-616.2717 649.0451,-610.2526 637.6267,-583 636.6461,-580.6597 635.6492,-578.2974 634.6391,-575.9192"/>
<polygon fill="none" stroke="#404040" points="634.5556,-575.7243 628.515,-571.7859 629.8272,-564.6952 635.8678,-568.6336 634.5556,-575.7243"/>
<text text-anchor="middle" x="719.6267" y="-759.5" font-family="Helvetica,sans-Serif" font-size="10.00" fill="#000000"> +arraySize</text>
<text text-anchor="middle" x="719.6267" y="-748.5" font-family="Helvetica,sans-Serif" font-size="10.00" fill="#000000">+size</text>
<text text-anchor="middle" x="719.6267" y="-737.5" font-family="Helvetica,sans-Serif" font-size="10.00" fill="#000000">+bitcount</text>
</g>
<!-- Node9&#45;&gt;Node4 -->
<g id="edge7" class="edge">
<title>Node9&#45;&gt;Node4</title>
<path fill="none" stroke="#ffa500" d="M217.6066,-650.8704C212.7343,-642.8796 208.0175,-634.8596 203.6267,-627 192.5698,-607.2084 181.6874,-585.5766 171.7218,-564.619"/>
<polygon fill="#ffa500" stroke="#ffa500" points="214.7154,-652.85 222.9466,-659.5208 220.6719,-649.173 214.7154,-652.85"/>
<text text-anchor="start" x="203.6267" y="-608" font-family="Helvetica,sans-Serif" font-size="10.00" fill="#000000"> &lt; gSizeHeaderDescription</text>
<text text-anchor="middle" x="269.6267" y="-597" font-family="Helvetica,sans-Serif" font-size="10.00" fill="#000000">String &gt;</text>
</g>
<!-- Node9&#45;&gt;Node12 -->
<g id="edge20" class="edge">
<title>Node9&#45;&gt;Node12</title>
<path fill="none" stroke="#ffa500" d="M352.5352,-636.94C368.7248,-616.6262 387.5388,-597.3898 408.6267,-583 434.4504,-565.3786 449.5654,-580.6547 476.6267,-565 479.7657,-563.1841 482.8754,-561.2498 485.9496,-559.2155"/>
<polygon fill="#ffa500" stroke="#ffa500" points="349.5876,-635.0297 346.2276,-645.0776 355.1202,-639.3181 349.5876,-635.0297"/>
<text text-anchor="start" x="408.6267" y="-608" font-family="Helvetica,sans-Serif" font-size="10.00" fill="#000000"> &lt; gSizeSerializationMethod</text>
<text text-anchor="middle" x="477.6267" y="-597" font-family="Helvetica,sans-Serif" font-size="10.00" fill="#000000">String &gt;</text>
</g>
<!-- Node10 -->
<g id="node9" class="node">
<title>Node10</title>
<polygon fill="none" stroke="#bfbfbf" points="236.1267,-430.5 236.1267,-487.5 343.1267,-487.5 343.1267,-430.5 236.1267,-430.5"/>
<text text-anchor="middle" x="289.6267" y="-475.5" font-family="Helvetica,sans-Serif" font-size="10.00" fill="#000000">anonymous:+@26</text>
<polyline fill="none" stroke="#bfbfbf" points="236.1267,-468.5 343.1267,-468.5 "/>
<text text-anchor="middle" x="289.6267" y="-456.5" font-family="Helvetica,sans-Serif" font-size="10.00" fill="#000000"> </text>
<polyline fill="none" stroke="#bfbfbf" points="236.1267,-449.5 343.1267,-449.5 "/>
<text text-anchor="middle" x="289.6267" y="-437.5" font-family="Helvetica,sans-Serif" font-size="10.00" fill="#000000"> </text>
</g>
<!-- Node10&#45;&gt;Node3 -->
<g id="edge12" class="edge">
<title>Node10&#45;&gt;Node3</title>
<path fill="none" stroke="#404040" d="M305.5011,-430.3991C326.7202,-392.6887 366.0304,-324.6105 403.6267,-269 405.4689,-266.2751 407.3572,-263.5168 409.2776,-260.7411"/>
<polygon fill="none" stroke="#404040" points="409.4644,-260.4742 409.6288,-253.265 416.3467,-250.6439 416.1823,-257.8532 409.4644,-260.4742"/>
<text text-anchor="middle" x="420.6267" y="-299.5" font-family="Helvetica,sans-Serif" font-size="10.00" fill="#000000"> +@26</text>
</g>
<!-- Node11 -->
<g id="node10" class="node">
<title>Node11</title>
<polygon fill="none" stroke="#bfbfbf" points="361.1267,-430.5 361.1267,-487.5 468.1267,-487.5 468.1267,-430.5 361.1267,-430.5"/>
<text text-anchor="middle" x="414.6267" y="-475.5" font-family="Helvetica,sans-Serif" font-size="10.00" fill="#000000">anonymous:+@28</text>
<polyline fill="none" stroke="#bfbfbf" points="361.1267,-468.5 468.1267,-468.5 "/>
<text text-anchor="middle" x="414.6267" y="-456.5" font-family="Helvetica,sans-Serif" font-size="10.00" fill="#000000"> </text>
<polyline fill="none" stroke="#bfbfbf" points="361.1267,-449.5 468.1267,-449.5 "/>
<text text-anchor="middle" x="414.6267" y="-437.5" font-family="Helvetica,sans-Serif" font-size="10.00" fill="#000000"> </text>
</g>
<!-- Node11&#45;&gt;Node3 -->
<g id="edge14" class="edge">
<title>Node11&#45;&gt;Node3</title>
<path fill="none" stroke="#404040" d="M420.3565,-430.2486C428.1509,-391.1372 442.4247,-319.5132 453.7763,-262.5527"/>
<polygon fill="none" stroke="#404040" points="453.8054,-262.406 451.0553,-255.7399 456.1509,-250.6374 458.901,-257.3035 453.8054,-262.406"/>
<text text-anchor="middle" x="468.6267" y="-299.5" font-family="Helvetica,sans-Serif" font-size="10.00" fill="#000000"> +@28</text>
</g>
<!-- Node12&#45;&gt;Node3 -->
<g id="edge15" class="edge">
<title>Node12&#45;&gt;Node3</title>
<path fill="none" stroke="#404040" d="M539.8205,-353.1664C527.8847,-322.9506 515.0476,-290.4531 503.7105,-261.7529"/>
<polygon fill="none" stroke="#404040" points="503.6895,-261.6994 497.7648,-257.5886 499.2807,-250.5386 505.2053,-254.6494 503.6895,-261.6994"/>
<text text-anchor="middle" x="565.6267" y="-299.5" font-family="Helvetica,sans-Serif" font-size="10.00" fill="#000000"> +serialization</text>
</g>
<!-- Node13 -->
<g id="node12" class="node">
<title>Node13</title>
<polygon fill="none" stroke="#bfbfbf" points="695.6267,-430.5 695.6267,-487.5 751.6267,-487.5 751.6267,-430.5 695.6267,-430.5"/>
<text text-anchor="middle" x="723.6267" y="-475.5" font-family="Helvetica,sans-Serif" font-size="10.00" fill="#000000">uint32_t</text>
<polyline fill="none" stroke="#bfbfbf" points="695.6267,-468.5 751.6267,-468.5 "/>
<text text-anchor="middle" x="723.6267" y="-456.5" font-family="Helvetica,sans-Serif" font-size="10.00" fill="#000000"> </text>
<polyline fill="none" stroke="#bfbfbf" points="695.6267,-449.5 751.6267,-449.5 "/>
<text text-anchor="middle" x="723.6267" y="-437.5" font-family="Helvetica,sans-Serif" font-size="10.00" fill="#000000"> </text>
</g>
<!-- Node13&#45;&gt;Node3 -->
<g id="edge21" class="edge">
<title>Node13&#45;&gt;Node3</title>
<path fill="none" stroke="#404040" d="M716.7819,-430.1047C710.7212,-407.9296 700.5064,-377.1276 685.6267,-353 651.8521,-298.2344 594.7183,-252.9426 547.8341,-222.1656"/>
<polygon fill="none" stroke="#404040" points="547.7781,-222.1295 540.5678,-222.2402 537.6925,-215.6272 544.9027,-215.5165 547.7781,-222.1295"/>
<text text-anchor="middle" x="719.1267" y="-327" font-family="Helvetica,sans-Serif" font-size="10.00" fill="#000000"> +headerVersion</text>
<text text-anchor="middle" x="719.1267" y="-316" font-family="Helvetica,sans-Serif" font-size="10.00" fill="#000000">+headerSize</text>
<text text-anchor="middle" x="719.1267" y="-305" font-family="Helvetica,sans-Serif" font-size="10.00" fill="#000000">+flagsNextHeader</text>
<text text-anchor="middle" x="719.1267" y="-294" font-family="Helvetica,sans-Serif" font-size="10.00" fill="#000000">+magicStringInt</text>
<text text-anchor="middle" x="719.1267" y="-283" font-family="Helvetica,sans-Serif" font-size="10.00" fill="#000000">+flagsUnused</text>
<text text-anchor="middle" x="719.1267" y="-272" font-family="Helvetica,sans-Serif" font-size="10.00" fill="#000000">+flags</text>
</g>
<!-- Node14 -->
<g id="node13" class="node">
<title>Node14</title>
<polygon fill="none" stroke="#bfbfbf" points="933.6267,-149.5 933.6267,-206.5 989.6267,-206.5 989.6267,-149.5 933.6267,-149.5"/>
<text text-anchor="middle" x="961.6267" y="-194.5" font-family="Helvetica,sans-Serif" font-size="10.00" fill="#000000">uint64_t</text>
<polyline fill="none" stroke="#bfbfbf" points="933.6267,-187.5 989.6267,-187.5 "/>
<text text-anchor="middle" x="961.6267" y="-175.5" font-family="Helvetica,sans-Serif" font-size="10.00" fill="#000000"> </text>
<polyline fill="none" stroke="#bfbfbf" points="933.6267,-168.5 989.6267,-168.5 "/>
<text text-anchor="middle" x="961.6267" y="-156.5" font-family="Helvetica,sans-Serif" font-size="10.00" fill="#000000"> </text>
</g>
<!-- Node14&#45;&gt;Node2 -->
<g id="edge23" class="edge">
<title>Node14&#45;&gt;Node2</title>
<path fill="none" stroke="#404040" d="M950.8293,-149.2713C942.2687,-126.494 930.2055,-94.3973 920.6939,-69.0896"/>
<polygon fill="none" stroke="#404040" points="920.6127,-68.8734 914.7575,-64.6642 916.3909,-57.6405 922.2461,-61.8497 920.6127,-68.8734"/>
<text text-anchor="middle" x="947.6267" y="-79" font-family="Helvetica,sans-Serif" font-size="10.00" fill="#000000"> +secret</text>
</g>
</g>
</svg>
