<?xml version="1.0" encoding="UTF-8" standalone="no"?>
<!DOCTYPE svg PUBLIC "-//W3C//DTD SVG 1.1//EN"
 "http://www.w3.org/Graphics/SVG/1.1/DTD/svg11.dtd">
<!-- Generated by graphviz version 2.40.1 (20161225.0304)
 -->
<!-- Title: /home/travis/build/AliceO2Group/AliceO2/Detectors/MUON/MCH/Raw/Common/include/MCHRawCommon/DataFormats.h Pages: 1 -->
<!--zoomable 528 -->
<svg id="main" version="1.1" xmlns="http://www.w3.org/2000/svg" xmlns:xlink="http://www.w3.org/1999/xlink" xml:space="preserve" onload="init(evt)">
<style type="text/css"><![CDATA[
.edge:hover path { stroke: red; }
.edge:hover polygon { stroke: red; fill: red; }
]]></style>
<script type="text/javascript"><![CDATA[
var edges = document.getElementsByTagName('g');
if (edges && edges.length) {
  for (var i=0;i<edges.length;i++) {
    if (edges[i].id.substr(0,4)=='edge') {
      edges[i].setAttribute('class','edge');
    }
  }
}
]]></script>
        <defs>
                <circle id="rim" cx="0" cy="0" r="7"/>
                <circle id="rim2" cx="0" cy="0" r="3.5"/>
                <g id="zoomPlus">
                        <use xlink:href="#rim" fill="#404040">
                                <set attributeName="fill" to="#808080" begin="zoomplus.mouseover" end="zoomplus.mouseout"/>
                        </use>
                        <path d="M-4,0h8M0,-4v8" fill="none" stroke="white" stroke-width="1.5" pointer-events="none"/>
                </g>
                <g id="zoomMin">
                        <use xlink:href="#rim" fill="#404040">
                                <set attributeName="fill" to="#808080" begin="zoomminus.mouseover" end="zoomminus.mouseout"/>
                        </use>
                        <path d="M-4,0h8" fill="none" stroke="white" stroke-width="1.5" pointer-events="none"/>
                </g>
                <g id="dirArrow">
                        <path fill="none" stroke="white" stroke-width="1.5" d="M0,-3.0v7 M-2.5,-0.5L0,-3.0L2.5,-0.5"/>
                </g>
               <g id="resetDef">
                       <use xlink:href="#rim2" fill="#404040">
                               <set attributeName="fill" to="#808080" begin="reset.mouseover" end="reset.mouseout"/>
                       </use>
               </g>
        </defs>

<script type="text/javascript">
var viewWidth = 1432;
var viewHeight = 528;
var sectionId = 'dynsection-0';
</script>
<script xlink:href="../../svgpan.js"/>
<svg id="graph" class="graph">
<g id="viewport">
<title>/home/travis/build/AliceO2Group/AliceO2/Detectors/MUON/MCH/Raw/Common/include/MCHRawCommon/DataFormats.h</title>
<!-- Node1 -->
<g id="node1" class="node">
<title>Node1</title>
<polygon fill="#bfbfbf" stroke="#000000" points="684.5,-456.5 684.5,-519.5 877.5,-519.5 877.5,-456.5 684.5,-456.5"/>
<text text-anchor="start" x="692.5" y="-507.5" font-family="Helvetica,sans-Serif" font-size="10.00" fill="#000000">/home/travis/build</text>
<text text-anchor="start" x="692.5" y="-496.5" font-family="Helvetica,sans-Serif" font-size="10.00" fill="#000000">/AliceO2Group/AliceO2</text>
<text text-anchor="start" x="692.5" y="-485.5" font-family="Helvetica,sans-Serif" font-size="10.00" fill="#000000">/Detectors/MUON/MCH/Raw</text>
<text text-anchor="start" x="692.5" y="-474.5" font-family="Helvetica,sans-Serif" font-size="10.00" fill="#000000">/Common/include/MCHRawCommon</text>
<text text-anchor="middle" x="781" y="-463.5" font-family="Helvetica,sans-Serif" font-size="10.00" fill="#000000">/DataFormats.h</text>
</g>
<!-- Node2 -->
<g id="node2" class="node">
<title>Node2</title>
<g id="a_node2"><a xlink:href="../../d5/d6c/SampaCluster_8cxx.html" target="_top" xlink:title="/home/travis/build\l/AliceO2Group/AliceO2\l/Detectors/MUON/MCH/Raw\l/Common/src/SampaCluster.cxx">
<polygon fill="none" stroke="#000000" points="0,-367.5 0,-419.5 172,-419.5 172,-367.5 0,-367.5"/>
<text text-anchor="start" x="8" y="-407.5" font-family="Helvetica,sans-Serif" font-size="10.00" fill="#000000">/home/travis/build</text>
<text text-anchor="start" x="8" y="-396.5" font-family="Helvetica,sans-Serif" font-size="10.00" fill="#000000">/AliceO2Group/AliceO2</text>
<text text-anchor="start" x="8" y="-385.5" font-family="Helvetica,sans-Serif" font-size="10.00" fill="#000000">/Detectors/MUON/MCH/Raw</text>
<text text-anchor="middle" x="86" y="-374.5" font-family="Helvetica,sans-Serif" font-size="10.00" fill="#000000">/Common/src/SampaCluster.cxx</text>
</a>
</g>
</g>
<!-- Node1&#45;&gt;Node2 -->
<g id="edge1" class="edge">
<title>Node1&#45;&gt;Node2</title>
<path fill="none" stroke="#191970" d="M674.0007,-480.4795C554.3481,-470.9802 355.1418,-451.9016 186,-420 181.4112,-419.1345 176.723,-418.1715 172.003,-417.1397"/>
<polygon fill="#191970" stroke="#191970" points="674.0137,-483.9912 684.2573,-481.2857 674.5623,-477.0127 674.0137,-483.9912"/>
</g>
<!-- Node3 -->
<g id="node3" class="node">
<title>Node3</title>
<g id="a_node3"><a xlink:href="../../d7/ddc/BareElinkDecoder_8h.html" target="_top" xlink:title="/home/travis/build\l/AliceO2Group/AliceO2\l/Detectors/MUON/MCH/Raw\l/Decoder/src/BareElinkDecoder.h">
<polygon fill="none" stroke="#000000" points="448,-367.5 448,-419.5 624,-419.5 624,-367.5 448,-367.5"/>
<text text-anchor="start" x="456" y="-407.5" font-family="Helvetica,sans-Serif" font-size="10.00" fill="#000000">/home/travis/build</text>
<text text-anchor="start" x="456" y="-396.5" font-family="Helvetica,sans-Serif" font-size="10.00" fill="#000000">/AliceO2Group/AliceO2</text>
<text text-anchor="start" x="456" y="-385.5" font-family="Helvetica,sans-Serif" font-size="10.00" fill="#000000">/Detectors/MUON/MCH/Raw</text>
<text text-anchor="middle" x="536" y="-374.5" font-family="Helvetica,sans-Serif" font-size="10.00" fill="#000000">/Decoder/src/BareElinkDecoder.h</text>
</a>
</g>
</g>
<!-- Node1&#45;&gt;Node3 -->
<g id="edge2" class="edge">
<title>Node1&#45;&gt;Node3</title>
<path fill="none" stroke="#191970" d="M689.5148,-452.7129C661.0162,-441.7205 630.1203,-429.8036 603.5673,-419.5617"/>
<polygon fill="#191970" stroke="#191970" points="688.4883,-456.0682 699.0779,-456.4015 691.0075,-449.5372 688.4883,-456.0682"/>
</g>
<!-- Node7 -->
<g id="node7" class="node">
<title>Node7</title>
<g id="a_node7"><a xlink:href="../../d0/d6c/MUON_2MCH_2Raw_2Decoder_2src_2Decoder_8cxx.html" target="_top" xlink:title="/home/travis/build\l/AliceO2Group/AliceO2\l/Detectors/MUON/MCH/Raw\l/Decoder/src/Decoder.cxx">
<polygon fill="none" stroke="#000000" points="632,-.5 632,-52.5 782,-52.5 782,-.5 632,-.5"/>
<text text-anchor="start" x="640" y="-40.5" font-family="Helvetica,sans-Serif" font-size="10.00" fill="#000000">/home/travis/build</text>
<text text-anchor="start" x="640" y="-29.5" font-family="Helvetica,sans-Serif" font-size="10.00" fill="#000000">/AliceO2Group/AliceO2</text>
<text text-anchor="start" x="640" y="-18.5" font-family="Helvetica,sans-Serif" font-size="10.00" fill="#000000">/Detectors/MUON/MCH/Raw</text>
<text text-anchor="middle" x="707" y="-7.5" font-family="Helvetica,sans-Serif" font-size="10.00" fill="#000000">/Decoder/src/Decoder.cxx</text>
</a>
</g>
</g>
<!-- Node1&#45;&gt;Node7 -->
<g id="edge17" class="edge">
<title>Node1&#45;&gt;Node7</title>
<path fill="none" stroke="#191970" d="M701.4851,-450.733C689.7285,-442.1324 678.9246,-431.9273 671,-420 640.875,-374.6586 652,-353.4367 652,-299 652,-299 652,-299 652,-204.5 652,-152.1588 657.7976,-138.4336 675,-89 679.3269,-76.5659 685.6983,-63.4994 691.6191,-52.5471"/>
<polygon fill="#191970" stroke="#191970" points="699.533,-453.6383 709.7528,-456.4324 703.506,-447.875 699.533,-453.6383"/>
</g>
<!-- Node8 -->
<g id="node8" class="node">
<title>Node8</title>
<g id="a_node8"><a xlink:href="../../d7/d98/testDecoder_8cxx.html" target="_top" xlink:title="/home/travis/build\l/AliceO2Group/AliceO2\l/Detectors/MUON/MCH/Raw\l/Decoder/src/testDecoder.cxx">
<polygon fill="none" stroke="#000000" points="274.5,-178.5 274.5,-230.5 433.5,-230.5 433.5,-178.5 274.5,-178.5"/>
<text text-anchor="start" x="282.5" y="-218.5" font-family="Helvetica,sans-Serif" font-size="10.00" fill="#000000">/home/travis/build</text>
<text text-anchor="start" x="282.5" y="-207.5" font-family="Helvetica,sans-Serif" font-size="10.00" fill="#000000">/AliceO2Group/AliceO2</text>
<text text-anchor="start" x="282.5" y="-196.5" font-family="Helvetica,sans-Serif" font-size="10.00" fill="#000000">/Detectors/MUON/MCH/Raw</text>
<text text-anchor="middle" x="354" y="-185.5" font-family="Helvetica,sans-Serif" font-size="10.00" fill="#000000">/Decoder/src/testDecoder.cxx</text>
</a>
</g>
</g>
<!-- Node1&#45;&gt;Node8 -->
<g id="edge18" class="edge">
<title>Node1&#45;&gt;Node8</title>
<path fill="none" stroke="#191970" d="M674.3572,-474.5594C526.0293,-453.3084 269.8605,-406.4402 219,-331 203.0993,-307.4149 203.6838,-290.9688 219,-267 231.7249,-247.0864 252.5998,-233.4235 274.1731,-224.087"/>
<polygon fill="#191970" stroke="#191970" points="674.0148,-478.0458 684.407,-475.9837 674.9971,-471.115 674.0148,-478.0458"/>
</g>
<!-- Node10 -->
<g id="node10" class="node">
<title>Node10</title>
<g id="a_node10"><a xlink:href="../../db/de7/UserLogicElinkDecoder_8h.html" target="_top" xlink:title="/home/travis/build\l/AliceO2Group/AliceO2\l/Detectors/MUON/MCH/Raw\l/Decoder/src/UserLogicElinkDecoder.h">
<polygon fill="none" stroke="#000000" points="680.5,-367.5 680.5,-419.5 881.5,-419.5 881.5,-367.5 680.5,-367.5"/>
<text text-anchor="start" x="688.5" y="-407.5" font-family="Helvetica,sans-Serif" font-size="10.00" fill="#000000">/home/travis/build</text>
<text text-anchor="start" x="688.5" y="-396.5" font-family="Helvetica,sans-Serif" font-size="10.00" fill="#000000">/AliceO2Group/AliceO2</text>
<text text-anchor="start" x="688.5" y="-385.5" font-family="Helvetica,sans-Serif" font-size="10.00" fill="#000000">/Detectors/MUON/MCH/Raw</text>
<text text-anchor="middle" x="781" y="-374.5" font-family="Helvetica,sans-Serif" font-size="10.00" fill="#000000">/Decoder/src/UserLogicElinkDecoder.h</text>
</a>
</g>
</g>
<!-- Node1&#45;&gt;Node10 -->
<g id="edge11" class="edge">
<title>Node1&#45;&gt;Node10</title>
<path fill="none" stroke="#191970" d="M781,-446.2457C781,-437.2008 781,-427.8836 781,-419.6442"/>
<polygon fill="#191970" stroke="#191970" points="777.5001,-446.2699 781,-456.27 784.5001,-446.27 777.5001,-446.2699"/>
</g>
<!-- Node12 -->
<g id="node12" class="node">
<title>Node12</title>
<g id="a_node12"><a xlink:href="../../d5/d93/testUserLogicElinkDecoder_8cxx.html" target="_top" xlink:title="/home/travis/build\l/AliceO2Group/AliceO2\l/Detectors/MUON/MCH/Raw\l/Decoder/src/testUserLogicElink\lDecoder.cxx">
<polygon fill="none" stroke="#000000" points="913.5,-267.5 913.5,-330.5 1084.5,-330.5 1084.5,-267.5 913.5,-267.5"/>
<text text-anchor="start" x="921.5" y="-318.5" font-family="Helvetica,sans-Serif" font-size="10.00" fill="#000000">/home/travis/build</text>
<text text-anchor="start" x="921.5" y="-307.5" font-family="Helvetica,sans-Serif" font-size="10.00" fill="#000000">/AliceO2Group/AliceO2</text>
<text text-anchor="start" x="921.5" y="-296.5" font-family="Helvetica,sans-Serif" font-size="10.00" fill="#000000">/Detectors/MUON/MCH/Raw</text>
<text text-anchor="start" x="921.5" y="-285.5" font-family="Helvetica,sans-Serif" font-size="10.00" fill="#000000">/Decoder/src/testUserLogicElink</text>
<text text-anchor="middle" x="999" y="-274.5" font-family="Helvetica,sans-Serif" font-size="10.00" fill="#000000">Decoder.cxx</text>
</a>
</g>
</g>
<!-- Node1&#45;&gt;Node12 -->
<g id="edge19" class="edge">
<title>Node1&#45;&gt;Node12</title>
<path fill="none" stroke="#191970" d="M850.4992,-450.845C864.6583,-441.7216 878.9061,-431.2942 891,-420 912.1834,-400.2172 910.0858,-388.9625 929,-367 939.7246,-354.5469 952.3719,-341.7682 963.945,-330.6985"/>
<polygon fill="#191970" stroke="#191970" points="848.3276,-448.0755 841.7147,-456.3533 852.0463,-454.0061 848.3276,-448.0755"/>
</g>
<!-- Node13 -->
<g id="node13" class="node">
<title>Node13</title>
<g id="a_node13"><a xlink:href="../../df/d9f/RefBufferCRU_8cxx.html" target="_top" xlink:title="/home/travis/build\l/AliceO2Group/AliceO2\l/Detectors/MUON/MCH/Raw\l/testdata/RefBufferCRU.cxx">
<polygon fill="none" stroke="#000000" points="938,-367.5 938,-419.5 1088,-419.5 1088,-367.5 938,-367.5"/>
<text text-anchor="start" x="946" y="-407.5" font-family="Helvetica,sans-Serif" font-size="10.00" fill="#000000">/home/travis/build</text>
<text text-anchor="start" x="946" y="-396.5" font-family="Helvetica,sans-Serif" font-size="10.00" fill="#000000">/AliceO2Group/AliceO2</text>
<text text-anchor="start" x="946" y="-385.5" font-family="Helvetica,sans-Serif" font-size="10.00" fill="#000000">/Detectors/MUON/MCH/Raw</text>
<text text-anchor="middle" x="1013" y="-374.5" font-family="Helvetica,sans-Serif" font-size="10.00" fill="#000000">/testdata/RefBufferCRU.cxx</text>
</a>
</g>
</g>
<!-- Node1&#45;&gt;Node13 -->
<g id="edge20" class="edge">
<title>Node1&#45;&gt;Node13</title>
<path fill="none" stroke="#191970" d="M867.983,-452.5694C894.8716,-441.6169 923.9831,-429.759 949.0179,-419.5617"/>
<polygon fill="#191970" stroke="#191970" points="866.516,-449.3877 858.5752,-456.4015 869.1567,-455.8705 866.516,-449.3877"/>
</g>
<!-- Node14 -->
<g id="node14" class="node">
<title>Node14</title>
<g id="a_node14"><a xlink:href="../../db/d9c/RefBufferGBT_8cxx.html" target="_top" xlink:title="/home/travis/build\l/AliceO2Group/AliceO2\l/Detectors/MUON/MCH/Raw\l/testdata/RefBufferGBT.cxx">
<polygon fill="none" stroke="#000000" points="1106,-367.5 1106,-419.5 1256,-419.5 1256,-367.5 1106,-367.5"/>
<text text-anchor="start" x="1114" y="-407.5" font-family="Helvetica,sans-Serif" font-size="10.00" fill="#000000">/home/travis/build</text>
<text text-anchor="start" x="1114" y="-396.5" font-family="Helvetica,sans-Serif" font-size="10.00" fill="#000000">/AliceO2Group/AliceO2</text>
<text text-anchor="start" x="1114" y="-385.5" font-family="Helvetica,sans-Serif" font-size="10.00" fill="#000000">/Detectors/MUON/MCH/Raw</text>
<text text-anchor="middle" x="1181" y="-374.5" font-family="Helvetica,sans-Serif" font-size="10.00" fill="#000000">/testdata/RefBufferGBT.cxx</text>
</a>
</g>
</g>
<!-- Node1&#45;&gt;Node14 -->
<g id="edge21" class="edge">
<title>Node1&#45;&gt;Node14</title>
<path fill="none" stroke="#191970" d="M887.7789,-467.6131C949.2934,-455.2235 1027.8835,-438.2959 1097,-420 1099.9565,-419.2174 1102.9638,-418.3953 1105.9958,-417.5447"/>
<polygon fill="#191970" stroke="#191970" points="886.7858,-464.2425 877.6687,-469.6396 888.1616,-471.106 886.7858,-464.2425"/>
</g>
<!-- Node15 -->
<g id="node15" class="node">
<title>Node15</title>
<g id="a_node15"><a xlink:href="../../d4/dbc/rawdump_8cxx.html" target="_top" xlink:title="/home/travis/build\l/AliceO2Group/AliceO2\l/Detectors/MUON/MCH/Raw\l/Tools/rawdump.cxx">
<polygon fill="none" stroke="#000000" points="1274,-367.5 1274,-419.5 1424,-419.5 1424,-367.5 1274,-367.5"/>
<text text-anchor="start" x="1282" y="-407.5" font-family="Helvetica,sans-Serif" font-size="10.00" fill="#000000">/home/travis/build</text>
<text text-anchor="start" x="1282" y="-396.5" font-family="Helvetica,sans-Serif" font-size="10.00" fill="#000000">/AliceO2Group/AliceO2</text>
<text text-anchor="start" x="1282" y="-385.5" font-family="Helvetica,sans-Serif" font-size="10.00" fill="#000000">/Detectors/MUON/MCH/Raw</text>
<text text-anchor="middle" x="1349" y="-374.5" font-family="Helvetica,sans-Serif" font-size="10.00" fill="#000000">/Tools/rawdump.cxx</text>
</a>
</g>
</g>
<!-- Node1&#45;&gt;Node15 -->
<g id="edge22" class="edge">
<title>Node1&#45;&gt;Node15</title>
<path fill="none" stroke="#191970" d="M887.7996,-478.142C986.4877,-467.8209 1136.7811,-449.0209 1265,-420 1267.8338,-419.3586 1270.7096,-418.6665 1273.6057,-417.9346"/>
<polygon fill="#191970" stroke="#191970" points="887.4036,-474.6642 877.8173,-479.1755 888.1246,-481.627 887.4036,-474.6642"/>
</g>
<!-- Node4 -->
<g id="node4" class="node">
<title>Node4</title>
<g id="a_node4"><a xlink:href="../../da/db7/BareGBTDecoder_8h.html" target="_top" xlink:title="/home/travis/build\l/AliceO2Group/AliceO2\l/Detectors/MUON/MCH/Raw\l/Decoder/src/BareGBTDecoder.h">
<polygon fill="none" stroke="#000000" points="452,-273 452,-325 624,-325 624,-273 452,-273"/>
<text text-anchor="start" x="460" y="-313" font-family="Helvetica,sans-Serif" font-size="10.00" fill="#000000">/home/travis/build</text>
<text text-anchor="start" x="460" y="-302" font-family="Helvetica,sans-Serif" font-size="10.00" fill="#000000">/AliceO2Group/AliceO2</text>
<text text-anchor="start" x="460" y="-291" font-family="Helvetica,sans-Serif" font-size="10.00" fill="#000000">/Detectors/MUON/MCH/Raw</text>
<text text-anchor="middle" x="538" y="-280" font-family="Helvetica,sans-Serif" font-size="10.00" fill="#000000">/Decoder/src/BareGBTDecoder.h</text>
</a>
</g>
</g>
<!-- Node3&#45;&gt;Node4 -->
<g id="edge3" class="edge">
<title>Node3&#45;&gt;Node4</title>
<path fill="none" stroke="#191970" d="M536.769,-357.1645C536.9935,-346.5577 537.2344,-335.1746 537.4431,-325.3157"/>
<polygon fill="#191970" stroke="#191970" points="533.2643,-357.3555 536.5518,-367.4273 540.2627,-357.5036 533.2643,-357.3555"/>
</g>
<!-- Node9 -->
<g id="node9" class="node">
<title>Node9</title>
<g id="a_node9"><a xlink:href="../../d1/d49/testBareElinkDecoder_8cxx.html" target="_top" xlink:title="/home/travis/build\l/AliceO2Group/AliceO2\l/Detectors/MUON/MCH/Raw\l/Decoder/src/testBareElinkDecoder.cxx">
<polygon fill="none" stroke="#000000" points="228,-273 228,-325 434,-325 434,-273 228,-273"/>
<text text-anchor="start" x="236" y="-313" font-family="Helvetica,sans-Serif" font-size="10.00" fill="#000000">/home/travis/build</text>
<text text-anchor="start" x="236" y="-302" font-family="Helvetica,sans-Serif" font-size="10.00" fill="#000000">/AliceO2Group/AliceO2</text>
<text text-anchor="start" x="236" y="-291" font-family="Helvetica,sans-Serif" font-size="10.00" fill="#000000">/Detectors/MUON/MCH/Raw</text>
<text text-anchor="middle" x="331" y="-280" font-family="Helvetica,sans-Serif" font-size="10.00" fill="#000000">/Decoder/src/testBareElinkDecoder.cxx</text>
</a>
</g>
</g>
<!-- Node3&#45;&gt;Node9 -->
<g id="edge10" class="edge">
<title>Node3&#45;&gt;Node9</title>
<path fill="none" stroke="#191970" d="M470.2169,-363.1756C443.6545,-350.931 413.3015,-336.939 387.7308,-325.1515"/>
<polygon fill="#191970" stroke="#191970" points="468.8934,-366.4194 479.4402,-367.4273 471.8239,-360.0623 468.8934,-366.4194"/>
</g>
<!-- Node5 -->
<g id="node5" class="node">
<title>Node5</title>
<g id="a_node5"><a xlink:href="../../d0/da1/PayloadDecoder_8h.html" target="_top" xlink:title="/home/travis/build\l/AliceO2Group/AliceO2\l/Detectors/MUON/MCH/Raw\l/Decoder/src/PayloadDecoder.h">
<polygon fill="none" stroke="#000000" points="679.5,-178.5 679.5,-230.5 846.5,-230.5 846.5,-178.5 679.5,-178.5"/>
<text text-anchor="start" x="687.5" y="-218.5" font-family="Helvetica,sans-Serif" font-size="10.00" fill="#000000">/home/travis/build</text>
<text text-anchor="start" x="687.5" y="-207.5" font-family="Helvetica,sans-Serif" font-size="10.00" fill="#000000">/AliceO2Group/AliceO2</text>
<text text-anchor="start" x="687.5" y="-196.5" font-family="Helvetica,sans-Serif" font-size="10.00" fill="#000000">/Detectors/MUON/MCH/Raw</text>
<text text-anchor="middle" x="763" y="-185.5" font-family="Helvetica,sans-Serif" font-size="10.00" fill="#000000">/Decoder/src/PayloadDecoder.h</text>
</a>
</g>
</g>
<!-- Node4&#45;&gt;Node5 -->
<g id="edge4" class="edge">
<title>Node4&#45;&gt;Node5</title>
<path fill="none" stroke="#191970" d="M609.4381,-268.996C638.7725,-256.6756 672.424,-242.5419 700.7345,-230.6515"/>
<polygon fill="#191970" stroke="#191970" points="607.9423,-265.828 600.0778,-272.9273 610.653,-272.2819 607.9423,-265.828"/>
</g>
<!-- Node4&#45;&gt;Node7 -->
<g id="edge8" class="edge">
<title>Node4&#45;&gt;Node7</title>
<path fill="none" stroke="#191970" d="M550.0747,-263.3713C565.9522,-219.6354 596.7446,-144.4563 638,-89 647.8402,-75.7727 660.7929,-63.1638 672.8157,-52.7805"/>
<polygon fill="#191970" stroke="#191970" points="546.705,-262.4005 546.638,-272.9951 553.2972,-264.7547 546.705,-262.4005"/>
</g>
<!-- Node4&#45;&gt;Node8 -->
<g id="edge9" class="edge">
<title>Node4&#45;&gt;Node8</title>
<path fill="none" stroke="#191970" d="M478.3302,-268.3544C454.6388,-256.1868 427.6701,-242.336 404.9193,-230.6515"/>
<polygon fill="#191970" stroke="#191970" points="476.7397,-271.4721 487.2341,-272.9273 479.9377,-265.2453 476.7397,-271.4721"/>
</g>
<!-- Node5&#45;&gt;Node5 -->
<g id="edge7" class="edge">
<title>Node5&#45;&gt;Node5</title>
<path fill="none" stroke="#191970" d="M856.2878,-215.5549C861.4367,-212.8659 864.5,-209.1809 864.5,-204.5 864.5,-197.3672 857.387,-192.547 846.6203,-190.0393"/>
<polygon fill="#191970" stroke="#191970" points="854.8891,-212.3367 846.6203,-218.9607 857.2151,-218.939 854.8891,-212.3367"/>
</g>
<!-- Node6 -->
<g id="node6" class="node">
<title>Node6</title>
<g id="a_node6"><a xlink:href="../../d0/df0/Detectors_2MUON_2MCH_2Raw_2Decoder_2src_2PageParser_8h.html" target="_top" xlink:title="/home/travis/build\l/AliceO2Group/AliceO2\l/Detectors/MUON/MCH/Raw\l/Decoder/src/PageParser.h">
<polygon fill="none" stroke="#000000" points="684,-89.5 684,-141.5 834,-141.5 834,-89.5 684,-89.5"/>
<text text-anchor="start" x="692" y="-129.5" font-family="Helvetica,sans-Serif" font-size="10.00" fill="#000000">/home/travis/build</text>
<text text-anchor="start" x="692" y="-118.5" font-family="Helvetica,sans-Serif" font-size="10.00" fill="#000000">/AliceO2Group/AliceO2</text>
<text text-anchor="start" x="692" y="-107.5" font-family="Helvetica,sans-Serif" font-size="10.00" fill="#000000">/Detectors/MUON/MCH/Raw</text>
<text text-anchor="middle" x="759" y="-96.5" font-family="Helvetica,sans-Serif" font-size="10.00" fill="#000000">/Decoder/src/PageParser.h</text>
</a>
</g>
</g>
<!-- Node5&#45;&gt;Node6 -->
<g id="edge5" class="edge">
<title>Node5&#45;&gt;Node6</title>
<path fill="none" stroke="#191970" d="M761.3647,-168.1155C760.9643,-159.2061 760.5437,-149.8475 760.1701,-141.5341"/>
<polygon fill="#191970" stroke="#191970" points="757.876,-168.4457 761.8215,-178.2784 764.8689,-168.1313 757.876,-168.4457"/>
</g>
<!-- Node6&#45;&gt;Node7 -->
<g id="edge6" class="edge">
<title>Node6&#45;&gt;Node7</title>
<path fill="none" stroke="#191970" d="M738.5879,-80.5639C733.1323,-71.2264 727.3322,-61.2993 722.211,-52.5341"/>
<polygon fill="#191970" stroke="#191970" points="735.6127,-82.4098 743.6795,-89.2784 741.6567,-78.8785 735.6127,-82.4098"/>
</g>
<!-- Node11 -->
<g id="node11" class="node">
<title>Node11</title>
<g id="a_node11"><a xlink:href="../../d3/d1b/UserLogicGBTDecoder_8h.html" target="_top" xlink:title="/home/travis/build\l/AliceO2Group/AliceO2\l/Detectors/MUON/MCH/Raw\l/Decoder/src/UserLogicGBTDecoder.h">
<polygon fill="none" stroke="#000000" points="680.5,-273 680.5,-325 877.5,-325 877.5,-273 680.5,-273"/>
<text text-anchor="start" x="688.5" y="-313" font-family="Helvetica,sans-Serif" font-size="10.00" fill="#000000">/home/travis/build</text>
<text text-anchor="start" x="688.5" y="-302" font-family="Helvetica,sans-Serif" font-size="10.00" fill="#000000">/AliceO2Group/AliceO2</text>
<text text-anchor="start" x="688.5" y="-291" font-family="Helvetica,sans-Serif" font-size="10.00" fill="#000000">/Detectors/MUON/MCH/Raw</text>
<text text-anchor="middle" x="779" y="-280" font-family="Helvetica,sans-Serif" font-size="10.00" fill="#000000">/Decoder/src/UserLogicGBTDecoder.h</text>
</a>
</g>
</g>
<!-- Node10&#45;&gt;Node11 -->
<g id="edge12" class="edge">
<title>Node10&#45;&gt;Node11</title>
<path fill="none" stroke="#191970" d="M780.231,-357.1645C780.0065,-346.5577 779.7656,-335.1746 779.5569,-325.3157"/>
<polygon fill="#191970" stroke="#191970" points="776.7373,-357.5036 780.4482,-367.4273 783.7357,-357.3555 776.7373,-357.5036"/>
</g>
<!-- Node10&#45;&gt;Node12 -->
<g id="edge16" class="edge">
<title>Node10&#45;&gt;Node12</title>
<path fill="none" stroke="#191970" d="M850.591,-363.3332C874.7366,-352.8665 901.8635,-341.1073 926.2565,-330.5333"/>
<polygon fill="#191970" stroke="#191970" points="848.9295,-360.2387 841.1465,-367.4273 851.7136,-366.6613 848.9295,-360.2387"/>
</g>
<!-- Node11&#45;&gt;Node5 -->
<g id="edge13" class="edge">
<title>Node11&#45;&gt;Node5</title>
<path fill="none" stroke="#191970" d="M772.904,-262.9957C771.0923,-252.295 769.1422,-240.7773 767.4556,-230.8157"/>
<polygon fill="#191970" stroke="#191970" points="769.4652,-263.6519 774.5856,-272.9273 776.367,-262.4833 769.4652,-263.6519"/>
</g>
<!-- Node11&#45;&gt;Node7 -->
<g id="edge15" class="edge">
<title>Node11&#45;&gt;Node7</title>
<path fill="none" stroke="#191970" d="M841.4904,-267.2035C854.5493,-257.4581 866.5903,-245.416 874,-231 884.7682,-210.0498 877.9291,-201.2255 874,-178 867.0132,-136.7004 871.1691,-119.9996 843,-89 826.6607,-71.0188 804.1148,-57.8351 782.0757,-48.343"/>
<polygon fill="#191970" stroke="#191970" points="839.438,-264.368 833.2602,-272.9753 843.4572,-270.0991 839.438,-264.368"/>
</g>
<!-- Node11&#45;&gt;Node11 -->
<g id="edge14" class="edge">
<title>Node11&#45;&gt;Node11</title>
<path fill="none" stroke="#191970" d="M887.3178,-310.169C892.474,-307.3616 895.5,-303.6386 895.5,-299 895.5,-291.9316 888.4735,-286.9893 877.5908,-284.173"/>
<polygon fill="#191970" stroke="#191970" points="885.7188,-307.031 877.5908,-313.827 888.1828,-313.583 885.7188,-307.031"/>
</g>
</g>
</svg>
        <g id="navigator" transform="translate(0 0)" fill="#404254">
                <rect fill="#f2f5e9" fill-opacity="0.5" stroke="#606060" stroke-width=".5" x="0" y="0" width="60" height="60"/>
                <use id="zoomplus" xlink:href="#zoomPlus" x="17" y="9" onmousedown="handleZoom(evt,'in')"/>
                <use id="zoomminus" xlink:href="#zoomMin" x="42" y="9" onmousedown="handleZoom(evt,'out')"/>
                <use id="reset" xlink:href="#resetDef" x="30" y="36" onmousedown="handleReset()"/>
                <g id="arrowUp" xlink:href="#dirArrow" transform="translate(30 24)" onmousedown="handlePan(0,-1)">
                  <use xlink:href="#rim" fill="#404040">
                        <set attributeName="fill" to="#808080" begin="arrowUp.mouseover" end="arrowUp.mouseout"/>
                  </use>
                  <path fill="none" stroke="white" stroke-width="1.5" d="M0,-3.0v7 M-2.5,-0.5L0,-3.0L2.5,-0.5"/>
                </g>
                <g id="arrowRight" xlink:href="#dirArrow" transform="rotate(90) translate(36 -43)" onmousedown="handlePan(1,0)">
                  <use xlink:href="#rim" fill="#404040">
                        <set attributeName="fill" to="#808080" begin="arrowRight.mouseover" end="arrowRight.mouseout"/>
                  </use>
                  <path fill="none" stroke="white" stroke-width="1.5" d="M0,-3.0v7 M-2.5,-0.5L0,-3.0L2.5,-0.5"/>
                </g>
                <g id="arrowDown" xlink:href="#dirArrow" transform="rotate(180) translate(-30 -48)" onmousedown="handlePan(0,1)">
                  <use xlink:href="#rim" fill="#404040">
                        <set attributeName="fill" to="#808080" begin="arrowDown.mouseover" end="arrowDown.mouseout"/>
                  </use>
                  <path fill="none" stroke="white" stroke-width="1.5" d="M0,-3.0v7 M-2.5,-0.5L0,-3.0L2.5,-0.5"/>
                </g>
                <g id="arrowLeft" xlink:href="#dirArrow" transform="rotate(270) translate(-36 17)" onmousedown="handlePan(-1,0)">
                  <use xlink:href="#rim" fill="#404040">
                        <set attributeName="fill" to="#808080" begin="arrowLeft.mouseover" end="arrowLeft.mouseout"/>
                  </use>
                  <path fill="none" stroke="white" stroke-width="1.5" d="M0,-3.0v7 M-2.5,-0.5L0,-3.0L2.5,-0.5"/>
                </g>
        </g>
        <svg viewBox="0 0 15 15" width="100%" height="30px" preserveAspectRatio="xMaxYMin meet">
         <g id="arrow_out" transform="scale(0.3 0.3)">
          <a xlink:href="DataFormats_8h__dep__incl_org.svg" target="_base">
           <rect id="button" ry="5" rx="5" y="6" x="6" height="38" width="38"
                fill="#f2f5e9" fill-opacity="0.5" stroke="#606060" stroke-width="1.0"/>
           <path id="arrow"
             d="M 11.500037,31.436501 C 11.940474,20.09759 22.043105,11.32322 32.158766,21.979434 L 37.068811,17.246167 C 37.068811,17.246167 37.088388,32 37.088388,32 L 22.160133,31.978069 C 22.160133,31.978069 26.997745,27.140456 26.997745,27.140456 C 18.528582,18.264221 13.291696,25.230495 11.500037,31.436501 z"
             style="fill:#404040;"/>
          </a>
         </g>
        </svg>
</svg>
