<?xml version="1.0" encoding="UTF-8" standalone="no"?>
<!DOCTYPE svg PUBLIC "-//W3C//DTD SVG 1.1//EN"
 "http://www.w3.org/Graphics/SVG/1.1/DTD/svg11.dtd">
<!-- Generated by graphviz version 2.40.1 (20161225.0304)
 -->
<!-- Title: o2::tof::compressed::Union_t Pages: 1 -->
<!--zoomable 419 -->
<svg id="main" version="1.1" xmlns="http://www.w3.org/2000/svg" xmlns:xlink="http://www.w3.org/1999/xlink" xml:space="preserve" onload="init(evt)">
<style type="text/css"><![CDATA[
.edge:hover path { stroke: red; }
.edge:hover polygon { stroke: red; fill: red; }
]]></style>
<script type="text/javascript"><![CDATA[
var edges = document.getElementsByTagName('g');
if (edges && edges.length) {
  for (var i=0;i<edges.length;i++) {
    if (edges[i].id.substr(0,4)=='edge') {
      edges[i].setAttribute('class','edge');
    }
  }
}
]]></script>
        <defs>
                <circle id="rim" cx="0" cy="0" r="7"/>
                <circle id="rim2" cx="0" cy="0" r="3.5"/>
                <g id="zoomPlus">
                        <use xlink:href="#rim" fill="#404040">
                                <set attributeName="fill" to="#808080" begin="zoomplus.mouseover" end="zoomplus.mouseout"/>
                        </use>
                        <path d="M-4,0h8M0,-4v8" fill="none" stroke="white" stroke-width="1.5" pointer-events="none"/>
                </g>
                <g id="zoomMin">
                        <use xlink:href="#rim" fill="#404040">
                                <set attributeName="fill" to="#808080" begin="zoomminus.mouseover" end="zoomminus.mouseout"/>
                        </use>
                        <path d="M-4,0h8" fill="none" stroke="white" stroke-width="1.5" pointer-events="none"/>
                </g>
                <g id="dirArrow">
                        <path fill="none" stroke="white" stroke-width="1.5" d="M0,-3.0v7 M-2.5,-0.5L0,-3.0L2.5,-0.5"/>
                </g>
               <g id="resetDef">
                       <use xlink:href="#rim2" fill="#404040">
                               <set attributeName="fill" to="#808080" begin="reset.mouseover" end="reset.mouseout"/>
                       </use>
               </g>
        </defs>

<script type="text/javascript">
var viewWidth = 858;
var viewHeight = 419;
var sectionId = 'dynsection-0';
</script>
<script xlink:href="../../svgpan.js"/>
<svg id="graph" class="graph">
<g id="viewport">
<title>o2::tof::compressed::Union_t</title>
<!-- Node1 -->
<g id="node1" class="node">
<title>Node1</title>
<polygon fill="#bfbfbf" stroke="#000000" points="330.0166,-.5 330.0166,-68.5 443.0166,-68.5 443.0166,-.5 330.0166,-.5"/>
<text text-anchor="start" x="338.0166" y="-56.5" font-family="Helvetica,sans-Serif" font-size="10.00" fill="#000000">o2::tof::compressed</text>
<text text-anchor="middle" x="386.5166" y="-45.5" font-family="Helvetica,sans-Serif" font-size="10.00" fill="#000000">::Union_t</text>
<polyline fill="none" stroke="#000000" points="330.0166,-38.5 443.0166,-38.5 "/>
<text text-anchor="middle" x="386.5166" y="-26.5" font-family="Helvetica,sans-Serif" font-size="10.00" fill="#000000"> </text>
<polyline fill="none" stroke="#000000" points="330.0166,-19.5 443.0166,-19.5 "/>
<text text-anchor="middle" x="386.5166" y="-7.5" font-family="Helvetica,sans-Serif" font-size="10.00" fill="#000000"> </text>
</g>
<!-- Node2 -->
<g id="node2" class="node">
<title>Node2</title>
<g id="a_node2"><a xlink:href="../../df/d87/structo2_1_1tof_1_1compressed_1_1PackedHit__t.html" target="_top" xlink:title="{o2::tof::compressed\l::PackedHit_t\n||}">
<polygon fill="none" stroke="#000000" points="68.0166,-122 68.0166,-190 181.0166,-190 181.0166,-122 68.0166,-122"/>
<text text-anchor="start" x="76.0166" y="-178" font-family="Helvetica,sans-Serif" font-size="10.00" fill="#000000">o2::tof::compressed</text>
<text text-anchor="middle" x="124.5166" y="-167" font-family="Helvetica,sans-Serif" font-size="10.00" fill="#000000">::PackedHit_t</text>
<polyline fill="none" stroke="#000000" points="68.0166,-160 181.0166,-160 "/>
<text text-anchor="middle" x="124.5166" y="-148" font-family="Helvetica,sans-Serif" font-size="10.00" fill="#000000"> </text>
<polyline fill="none" stroke="#000000" points="68.0166,-141 181.0166,-141 "/>
<text text-anchor="middle" x="124.5166" y="-129" font-family="Helvetica,sans-Serif" font-size="10.00" fill="#000000"> </text>
</a>
</g>
</g>
<!-- Node2&#45;&gt;Node1 -->
<g id="edge1" class="edge">
<title>Node2&#45;&gt;Node1</title>
<path fill="none" stroke="#404040" d="M179.756,-121.8271C183.0516,-119.8441 186.3237,-117.8895 189.5166,-116 211.9567,-102.7207 216.8275,-97.8962 240.5166,-87 265.3394,-75.5823 293.4131,-64.9702 318.2642,-56.3179"/>
<polygon fill="none" stroke="#404040" points="318.4525,-56.2534 322.8297,-50.5227 329.8031,-52.3591 325.4259,-58.0898 318.4525,-56.2534"/>
<text text-anchor="middle" x="271.0166" y="-90" font-family="Helvetica,sans-Serif" font-size="10.00" fill="#000000"> +packedHit</text>
</g>
<!-- Node3 -->
<g id="node3" class="node">
<title>Node3</title>
<polygon fill="none" stroke="#bfbfbf" points="358.5166,-353.5 358.5166,-410.5 414.5166,-410.5 414.5166,-353.5 358.5166,-353.5"/>
<text text-anchor="middle" x="386.5166" y="-398.5" font-family="Helvetica,sans-Serif" font-size="10.00" fill="#000000">uint32_t</text>
<polyline fill="none" stroke="#bfbfbf" points="358.5166,-391.5 414.5166,-391.5 "/>
<text text-anchor="middle" x="386.5166" y="-379.5" font-family="Helvetica,sans-Serif" font-size="10.00" fill="#000000"> </text>
<polyline fill="none" stroke="#bfbfbf" points="358.5166,-372.5 414.5166,-372.5 "/>
<text text-anchor="middle" x="386.5166" y="-360.5" font-family="Helvetica,sans-Serif" font-size="10.00" fill="#000000"> </text>
</g>
<!-- Node3&#45;&gt;Node1 -->
<g id="edge9" class="edge">
<title>Node3&#45;&gt;Node1</title>
<path fill="none" stroke="#404040" d="M358.3135,-379.1738C301.1187,-373.0473 173.7508,-357.2785 136.5166,-335 42.7037,-278.8686 -43.7716,-201.3717 24.5166,-116 60.5608,-70.9386 223.4339,-49.0331 317.9762,-39.9419"/>
<polygon fill="none" stroke="#404040" points="318.0501,-39.9351 323.6522,-35.3945 329.9981,-38.8194 324.396,-43.3599 318.0501,-39.9351"/>
<text text-anchor="middle" x="41.5166" y="-153.5" font-family="Helvetica,sans-Serif" font-size="10.00" fill="#000000"> +data</text>
</g>
<!-- Node3&#45;&gt;Node2 -->
<g id="edge2" class="edge">
<title>Node3&#45;&gt;Node2</title>
<path fill="none" stroke="#404040" d="M358.4125,-377.2491C315.338,-369.4994 235.6487,-353.1673 213.5166,-335 172.0994,-301.0024 148.2676,-242.9046 135.8744,-202.1425"/>
<polygon fill="none" stroke="#404040" points="135.7992,-201.8827 130.2879,-197.2324 132.4607,-190.3565 137.9721,-195.0067 135.7992,-201.8827"/>
<text text-anchor="middle" x="237.0166" y="-294" font-family="Helvetica,sans-Serif" font-size="10.00" fill="#000000"> +chain</text>
<text text-anchor="middle" x="237.0166" y="-283" font-family="Helvetica,sans-Serif" font-size="10.00" fill="#000000">+channel</text>
<text text-anchor="middle" x="237.0166" y="-272" font-family="Helvetica,sans-Serif" font-size="10.00" fill="#000000">+time</text>
<text text-anchor="middle" x="237.0166" y="-261" font-family="Helvetica,sans-Serif" font-size="10.00" fill="#000000">+tot</text>
<text text-anchor="middle" x="237.0166" y="-250" font-family="Helvetica,sans-Serif" font-size="10.00" fill="#000000">+tdcID</text>
</g>
<!-- Node4 -->
<g id="node4" class="node">
<title>Node4</title>
<g id="a_node4"><a xlink:href="../../dc/d31/structo2_1_1tof_1_1compressed_1_1CrateTrailer__t.html" target="_top" xlink:title="{o2::tof::compressed\l::CrateTrailer_t\n|+ trmFault11\l+ trmFault12\l|}">
<polygon fill="none" stroke="#000000" points="199.0166,-116.5 199.0166,-195.5 312.0166,-195.5 312.0166,-116.5 199.0166,-116.5"/>
<text text-anchor="start" x="207.0166" y="-183.5" font-family="Helvetica,sans-Serif" font-size="10.00" fill="#000000">o2::tof::compressed</text>
<text text-anchor="middle" x="255.5166" y="-172.5" font-family="Helvetica,sans-Serif" font-size="10.00" fill="#000000">::CrateTrailer_t</text>
<polyline fill="none" stroke="#000000" points="199.0166,-165.5 312.0166,-165.5 "/>
<text text-anchor="start" x="207.0166" y="-153.5" font-family="Helvetica,sans-Serif" font-size="10.00" fill="#000000">+ trmFault11</text>
<text text-anchor="start" x="207.0166" y="-142.5" font-family="Helvetica,sans-Serif" font-size="10.00" fill="#000000">+ trmFault12</text>
<polyline fill="none" stroke="#000000" points="199.0166,-135.5 312.0166,-135.5 "/>
<text text-anchor="middle" x="255.5166" y="-123.5" font-family="Helvetica,sans-Serif" font-size="10.00" fill="#000000"> </text>
</a>
</g>
</g>
<!-- Node3&#45;&gt;Node4 -->
<g id="edge4" class="edge">
<title>Node3&#45;&gt;Node4</title>
<path fill="none" stroke="#404040" d="M358.4841,-369.7798C343.2509,-361.8546 325.1937,-350.169 313.5166,-335 284.8372,-297.7446 270.0729,-245.8026 262.6422,-207.463"/>
<polygon fill="none" stroke="#404040" points="262.6194,-207.3365 257.6133,-202.1461 260.479,-195.5289 265.4851,-200.7192 262.6194,-207.3365"/>
<text text-anchor="middle" x="348.0166" y="-327" font-family="Helvetica,sans-Serif" font-size="10.00" fill="#000000"> +mustBeOne</text>
<text text-anchor="middle" x="348.0166" y="-316" font-family="Helvetica,sans-Serif" font-size="10.00" fill="#000000">+trmFault03</text>
<text text-anchor="middle" x="348.0166" y="-305" font-family="Helvetica,sans-Serif" font-size="10.00" fill="#000000">+trmFault04</text>
<text text-anchor="middle" x="348.0166" y="-294" font-family="Helvetica,sans-Serif" font-size="10.00" fill="#000000">+trmFault05</text>
<text text-anchor="middle" x="348.0166" y="-283" font-family="Helvetica,sans-Serif" font-size="10.00" fill="#000000">+trmFault06</text>
<text text-anchor="middle" x="348.0166" y="-272" font-family="Helvetica,sans-Serif" font-size="10.00" fill="#000000">+trmFault07</text>
<text text-anchor="middle" x="348.0166" y="-261" font-family="Helvetica,sans-Serif" font-size="10.00" fill="#000000">+trmFault08</text>
<text text-anchor="middle" x="348.0166" y="-250" font-family="Helvetica,sans-Serif" font-size="10.00" fill="#000000">+trmFault09</text>
<text text-anchor="middle" x="348.0166" y="-239" font-family="Helvetica,sans-Serif" font-size="10.00" fill="#000000">+crateFault</text>
<text text-anchor="middle" x="348.0166" y="-228" font-family="Helvetica,sans-Serif" font-size="10.00" fill="#000000">+trmFault10</text>
<text text-anchor="middle" x="348.0166" y="-217" font-family="Helvetica,sans-Serif" font-size="10.00" fill="#000000">...</text>
</g>
<!-- Node5 -->
<g id="node5" class="node">
<title>Node5</title>
<g id="a_node5"><a xlink:href="../../d0/df7/structo2_1_1tof_1_1compressed_1_1CrateOrbit__t.html" target="_top" xlink:title="{o2::tof::compressed\l::CrateOrbit_t\n||}">
<polygon fill="none" stroke="#000000" points="330.0166,-122 330.0166,-190 443.0166,-190 443.0166,-122 330.0166,-122"/>
<text text-anchor="start" x="338.0166" y="-178" font-family="Helvetica,sans-Serif" font-size="10.00" fill="#000000">o2::tof::compressed</text>
<text text-anchor="middle" x="386.5166" y="-167" font-family="Helvetica,sans-Serif" font-size="10.00" fill="#000000">::CrateOrbit_t</text>
<polyline fill="none" stroke="#000000" points="330.0166,-160 443.0166,-160 "/>
<text text-anchor="middle" x="386.5166" y="-148" font-family="Helvetica,sans-Serif" font-size="10.00" fill="#000000"> </text>
<polyline fill="none" stroke="#000000" points="330.0166,-141 443.0166,-141 "/>
<text text-anchor="middle" x="386.5166" y="-129" font-family="Helvetica,sans-Serif" font-size="10.00" fill="#000000"> </text>
</a>
</g>
</g>
<!-- Node3&#45;&gt;Node5 -->
<g id="edge6" class="edge">
<title>Node3&#45;&gt;Node5</title>
<path fill="none" stroke="#404040" d="M386.5166,-353.3769C386.5166,-315.3778 386.5166,-247.8033 386.5166,-202.4497"/>
<polygon fill="none" stroke="#404040" points="386.5167,-202.29 382.5166,-196.29 386.5166,-190.29 390.5166,-196.29 386.5167,-202.29"/>
<text text-anchor="middle" x="409.0166" y="-272" font-family="Helvetica,sans-Serif" font-size="10.00" fill="#000000"> +orbitID</text>
</g>
<!-- Node6 -->
<g id="node6" class="node">
<title>Node6</title>
<g id="a_node6"><a xlink:href="../../d5/d0d/structo2_1_1tof_1_1compressed_1_1Word__t.html" target="_top" xlink:title="{o2::tof::compressed\l::Word_t\n||}">
<polygon fill="none" stroke="#000000" points="461.0166,-122 461.0166,-190 574.0166,-190 574.0166,-122 461.0166,-122"/>
<text text-anchor="start" x="469.0166" y="-178" font-family="Helvetica,sans-Serif" font-size="10.00" fill="#000000">o2::tof::compressed</text>
<text text-anchor="middle" x="517.5166" y="-167" font-family="Helvetica,sans-Serif" font-size="10.00" fill="#000000">::Word_t</text>
<polyline fill="none" stroke="#000000" points="461.0166,-160 574.0166,-160 "/>
<text text-anchor="middle" x="517.5166" y="-148" font-family="Helvetica,sans-Serif" font-size="10.00" fill="#000000"> </text>
<polyline fill="none" stroke="#000000" points="461.0166,-141 574.0166,-141 "/>
<text text-anchor="middle" x="517.5166" y="-129" font-family="Helvetica,sans-Serif" font-size="10.00" fill="#000000"> </text>
</a>
</g>
</g>
<!-- Node3&#45;&gt;Node6 -->
<g id="edge8" class="edge">
<title>Node3&#45;&gt;Node6</title>
<path fill="none" stroke="#404040" d="M414.6179,-358.5239C422.0132,-351.4648 429.5755,-343.359 435.5166,-335 465.0892,-293.392 488.0638,-239.4147 502.0749,-201.6585"/>
<polygon fill="none" stroke="#404040" points="502.2102,-201.2857 500.4983,-194.2807 506.306,-190.0063 508.0179,-197.0112 502.2102,-201.2857"/>
<text text-anchor="middle" x="526.5166" y="-277.5" font-family="Helvetica,sans-Serif" font-size="10.00" fill="#000000"> +wordType</text>
<text text-anchor="middle" x="526.5166" y="-266.5" font-family="Helvetica,sans-Serif" font-size="10.00" fill="#000000">+undefined</text>
</g>
<!-- Node7 -->
<g id="node7" class="node">
<title>Node7</title>
<g id="a_node7"><a xlink:href="../../df/d7e/structo2_1_1tof_1_1compressed_1_1FrameHeader__t.html" target="_top" xlink:title="{o2::tof::compressed\l::FrameHeader_t\n||}">
<polygon fill="none" stroke="#000000" points="592.0166,-122 592.0166,-190 705.0166,-190 705.0166,-122 592.0166,-122"/>
<text text-anchor="start" x="600.0166" y="-178" font-family="Helvetica,sans-Serif" font-size="10.00" fill="#000000">o2::tof::compressed</text>
<text text-anchor="middle" x="648.5166" y="-167" font-family="Helvetica,sans-Serif" font-size="10.00" fill="#000000">::FrameHeader_t</text>
<polyline fill="none" stroke="#000000" points="592.0166,-160 705.0166,-160 "/>
<text text-anchor="middle" x="648.5166" y="-148" font-family="Helvetica,sans-Serif" font-size="10.00" fill="#000000"> </text>
<polyline fill="none" stroke="#000000" points="592.0166,-141 705.0166,-141 "/>
<text text-anchor="middle" x="648.5166" y="-129" font-family="Helvetica,sans-Serif" font-size="10.00" fill="#000000"> </text>
</a>
</g>
</g>
<!-- Node3&#45;&gt;Node7 -->
<g id="edge11" class="edge">
<title>Node3&#45;&gt;Node7</title>
<path fill="none" stroke="#404040" d="M414.6207,-377.2491C457.6952,-369.4994 537.3845,-353.1673 559.5166,-335 600.9338,-301.0024 624.7656,-242.9046 637.1588,-202.1425"/>
<polygon fill="none" stroke="#404040" points="637.2339,-201.8827 635.0611,-195.0067 640.5725,-190.3565 642.7453,-197.2324 637.2339,-201.8827"/>
<text text-anchor="middle" x="673.5166" y="-294" font-family="Helvetica,sans-Serif" font-size="10.00" fill="#000000"> +numberOfHits</text>
<text text-anchor="middle" x="673.5166" y="-283" font-family="Helvetica,sans-Serif" font-size="10.00" fill="#000000">+deltaBC</text>
<text text-anchor="middle" x="673.5166" y="-272" font-family="Helvetica,sans-Serif" font-size="10.00" fill="#000000">+trmID</text>
<text text-anchor="middle" x="673.5166" y="-261" font-family="Helvetica,sans-Serif" font-size="10.00" fill="#000000">+frameID</text>
<text text-anchor="middle" x="673.5166" y="-250" font-family="Helvetica,sans-Serif" font-size="10.00" fill="#000000">+mustBeZero</text>
</g>
<!-- Node8 -->
<g id="node8" class="node">
<title>Node8</title>
<g id="a_node8"><a xlink:href="../../d5/da4/structo2_1_1tof_1_1compressed_1_1CrateHeader__t.html" target="_top" xlink:title="{o2::tof::compressed\l::CrateHeader_t\n||}">
<polygon fill="none" stroke="#000000" points="723.0166,-122 723.0166,-190 836.0166,-190 836.0166,-122 723.0166,-122"/>
<text text-anchor="start" x="731.0166" y="-178" font-family="Helvetica,sans-Serif" font-size="10.00" fill="#000000">o2::tof::compressed</text>
<text text-anchor="middle" x="779.5166" y="-167" font-family="Helvetica,sans-Serif" font-size="10.00" fill="#000000">::CrateHeader_t</text>
<polyline fill="none" stroke="#000000" points="723.0166,-160 836.0166,-160 "/>
<text text-anchor="middle" x="779.5166" y="-148" font-family="Helvetica,sans-Serif" font-size="10.00" fill="#000000"> </text>
<polyline fill="none" stroke="#000000" points="723.0166,-141 836.0166,-141 "/>
<text text-anchor="middle" x="779.5166" y="-129" font-family="Helvetica,sans-Serif" font-size="10.00" fill="#000000"> </text>
</a>
</g>
</g>
<!-- Node3&#45;&gt;Node8 -->
<g id="edge13" class="edge">
<title>Node3&#45;&gt;Node8</title>
<path fill="none" stroke="#404040" d="M414.6063,-379.6869C490.2701,-373.2248 694.2238,-354.1933 717.5166,-335 756.9342,-302.5198 771.3439,-243.5713 776.5812,-202.2221"/>
<polygon fill="none" stroke="#404040" points="776.584,-202.196 773.2685,-195.7923 777.9045,-190.2689 781.22,-196.6726 776.584,-202.196"/>
<text text-anchor="middle" x="812.0166" y="-288.5" font-family="Helvetica,sans-Serif" font-size="10.00" fill="#000000"> +mustBeOne</text>
<text text-anchor="middle" x="812.0166" y="-277.5" font-family="Helvetica,sans-Serif" font-size="10.00" fill="#000000">+eventCounter</text>
<text text-anchor="middle" x="812.0166" y="-266.5" font-family="Helvetica,sans-Serif" font-size="10.00" fill="#000000">+drmID</text>
<text text-anchor="middle" x="812.0166" y="-255.5" font-family="Helvetica,sans-Serif" font-size="10.00" fill="#000000">+bunchID</text>
</g>
<!-- Node4&#45;&gt;Node1 -->
<g id="edge3" class="edge">
<title>Node4&#45;&gt;Node1</title>
<path fill="none" stroke="#404040" d="M287.4263,-116.3064C296.1295,-106.3381 305.8389,-95.9415 315.5166,-87 319.4224,-83.3913 323.5732,-79.7967 327.8311,-76.2786"/>
<polygon fill="none" stroke="#404040" points="327.9013,-76.2224 330.0856,-69.3501 337.2695,-68.7232 335.0851,-75.5956 327.9013,-76.2224"/>
<text text-anchor="middle" x="349.0166" y="-90" font-family="Helvetica,sans-Serif" font-size="10.00" fill="#000000"> +crateTrailer</text>
</g>
<!-- Node5&#45;&gt;Node1 -->
<g id="edge5" class="edge">
<title>Node5&#45;&gt;Node1</title>
<path fill="none" stroke="#404040" d="M386.5166,-121.8321C386.5166,-109.1499 386.5166,-94.5424 386.5166,-80.948"/>
<polygon fill="none" stroke="#404040" points="386.5167,-80.8324 382.5166,-74.8324 386.5166,-68.8324 390.5166,-74.8323 386.5167,-80.8324"/>
<text text-anchor="middle" x="417.0166" y="-90" font-family="Helvetica,sans-Serif" font-size="10.00" fill="#000000"> +crateOrbit</text>
</g>
<!-- Node6&#45;&gt;Node1 -->
<g id="edge7" class="edge">
<title>Node6&#45;&gt;Node1</title>
<path fill="none" stroke="#404040" d="M486.4603,-121.8075C475.6949,-110.4262 463.3527,-97.884 451.5166,-87 447.7927,-83.5757 443.8772,-80.1101 439.8913,-76.6779"/>
<polygon fill="none" stroke="#404040" points="439.689,-76.5071 432.524,-75.6926 430.5201,-68.7655 437.6851,-69.58 439.689,-76.5071"/>
<text text-anchor="middle" x="481.5166" y="-90" font-family="Helvetica,sans-Serif" font-size="10.00" fill="#000000"> +word</text>
</g>
<!-- Node7&#45;&gt;Node1 -->
<g id="edge10" class="edge">
<title>Node7&#45;&gt;Node1</title>
<path fill="none" stroke="#404040" d="M593.7697,-121.9723C589.9956,-119.8896 586.2207,-117.8791 582.5166,-116 541.1166,-94.9981 493.0025,-74.9313 454.8059,-59.9646"/>
<polygon fill="none" stroke="#404040" points="454.4734,-59.8354 447.4319,-61.39 443.2886,-55.4881 450.3301,-53.9335 454.4734,-59.8354"/>
<text text-anchor="middle" x="579.5166" y="-90" font-family="Helvetica,sans-Serif" font-size="10.00" fill="#000000"> +frameHeader</text>
</g>
<!-- Node8&#45;&gt;Node1 -->
<g id="edge12" class="edge">
<title>Node8&#45;&gt;Node1</title>
<path fill="none" stroke="#404040" d="M725.6932,-121.9737C721.6307,-119.8416 717.5445,-117.8235 713.5166,-116 628.8431,-77.6668 523.3346,-55.5246 455.4565,-44.2403"/>
<polygon fill="none" stroke="#404040" points="455.0789,-44.1791 448.5159,-47.167 443.2336,-42.2581 449.7965,-39.2702 455.0789,-44.1791"/>
<text text-anchor="middle" x="698.5166" y="-90" font-family="Helvetica,sans-Serif" font-size="10.00" fill="#000000"> +crateHeader</text>
</g>
</g>
</svg>
        <g id="navigator" transform="translate(0 0)" fill="#404254">
                <rect fill="#f2f5e9" fill-opacity="0.5" stroke="#606060" stroke-width=".5" x="0" y="0" width="60" height="60"/>
                <use id="zoomplus" xlink:href="#zoomPlus" x="17" y="9" onmousedown="handleZoom(evt,'in')"/>
                <use id="zoomminus" xlink:href="#zoomMin" x="42" y="9" onmousedown="handleZoom(evt,'out')"/>
                <use id="reset" xlink:href="#resetDef" x="30" y="36" onmousedown="handleReset()"/>
                <g id="arrowUp" xlink:href="#dirArrow" transform="translate(30 24)" onmousedown="handlePan(0,-1)">
                  <use xlink:href="#rim" fill="#404040">
                        <set attributeName="fill" to="#808080" begin="arrowUp.mouseover" end="arrowUp.mouseout"/>
                  </use>
                  <path fill="none" stroke="white" stroke-width="1.5" d="M0,-3.0v7 M-2.5,-0.5L0,-3.0L2.5,-0.5"/>
                </g>
                <g id="arrowRight" xlink:href="#dirArrow" transform="rotate(90) translate(36 -43)" onmousedown="handlePan(1,0)">
                  <use xlink:href="#rim" fill="#404040">
                        <set attributeName="fill" to="#808080" begin="arrowRight.mouseover" end="arrowRight.mouseout"/>
                  </use>
                  <path fill="none" stroke="white" stroke-width="1.5" d="M0,-3.0v7 M-2.5,-0.5L0,-3.0L2.5,-0.5"/>
                </g>
                <g id="arrowDown" xlink:href="#dirArrow" transform="rotate(180) translate(-30 -48)" onmousedown="handlePan(0,1)">
                  <use xlink:href="#rim" fill="#404040">
                        <set attributeName="fill" to="#808080" begin="arrowDown.mouseover" end="arrowDown.mouseout"/>
                  </use>
                  <path fill="none" stroke="white" stroke-width="1.5" d="M0,-3.0v7 M-2.5,-0.5L0,-3.0L2.5,-0.5"/>
                </g>
                <g id="arrowLeft" xlink:href="#dirArrow" transform="rotate(270) translate(-36 17)" onmousedown="handlePan(-1,0)">
                  <use xlink:href="#rim" fill="#404040">
                        <set attributeName="fill" to="#808080" begin="arrowLeft.mouseover" end="arrowLeft.mouseout"/>
                  </use>
                  <path fill="none" stroke="white" stroke-width="1.5" d="M0,-3.0v7 M-2.5,-0.5L0,-3.0L2.5,-0.5"/>
                </g>
        </g>
        <svg viewBox="0 0 15 15" width="100%" height="30px" preserveAspectRatio="xMaxYMin meet">
         <g id="arrow_out" transform="scale(0.3 0.3)">
          <a xlink:href="uniono2_1_1tof_1_1compressed_1_1Union__t__coll__graph_org.svg" target="_base">
           <rect id="button" ry="5" rx="5" y="6" x="6" height="38" width="38"
                fill="#f2f5e9" fill-opacity="0.5" stroke="#606060" stroke-width="1.0"/>
           <path id="arrow"
             d="M 11.500037,31.436501 C 11.940474,20.09759 22.043105,11.32322 32.158766,21.979434 L 37.068811,17.246167 C 37.068811,17.246167 37.088388,32 37.088388,32 L 22.160133,31.978069 C 22.160133,31.978069 26.997745,27.140456 26.997745,27.140456 C 18.528582,18.264221 13.291696,25.230495 11.500037,31.436501 z"
             style="fill:#404040;"/>
          </a>
         </g>
        </svg>
</svg>
