<?xml version="1.0" encoding="UTF-8" standalone="no"?>
<!DOCTYPE svg PUBLIC "-//W3C//DTD SVG 1.1//EN"
 "http://www.w3.org/Graphics/SVG/1.1/DTD/svg11.dtd">
<!-- Generated by graphviz version 2.40.1 (20161225.0304)
 -->
<!-- Title: /home/travis/build/AliceO2Group/AliceO2/Detectors/GlobalTracking/include/GlobalTracking/CalibTOF.h Pages: 1 -->
<svg width="1606pt" height="307pt"
 viewBox="0.00 0.00 1605.68 307.00" xmlns="http://www.w3.org/2000/svg" xmlns:xlink="http://www.w3.org/1999/xlink">
<g id="graph0" class="graph" transform="scale(1 1) rotate(0) translate(4 303)">
<title>/home/travis/build/AliceO2Group/AliceO2/Detectors/GlobalTracking/include/GlobalTracking/CalibTOF.h</title>
<!-- Node0 -->
<g id="node1" class="node">
<title>Node0</title>
<polygon fill="#bfbfbf" stroke="#000000" points="820.1753,-246.5 820.1753,-298.5 1004.1753,-298.5 1004.1753,-246.5 820.1753,-246.5"/>
<text text-anchor="start" x="828.1753" y="-286.5" font-family="Helvetica,sans-Serif" font-size="10.00" fill="#000000">/home/travis/build</text>
<text text-anchor="start" x="828.1753" y="-275.5" font-family="Helvetica,sans-Serif" font-size="10.00" fill="#000000">/AliceO2Group/AliceO2</text>
<text text-anchor="start" x="828.1753" y="-264.5" font-family="Helvetica,sans-Serif" font-size="10.00" fill="#000000">/Detectors/GlobalTracking</text>
<text text-anchor="middle" x="912.1753" y="-253.5" font-family="Helvetica,sans-Serif" font-size="10.00" fill="#000000">/include/GlobalTracking/CalibTOF.h</text>
</g>
<!-- Node1 -->
<g id="node2" class="node">
<title>Node1</title>
<polygon fill="none" stroke="#bfbfbf" points="126.6753,-56.5 126.6753,-75.5 185.6753,-75.5 185.6753,-56.5 126.6753,-56.5"/>
<text text-anchor="middle" x="156.1753" y="-63.5" font-family="Helvetica,sans-Serif" font-size="10.00" fill="#000000">Rtypes.h</text>
</g>
<!-- Node0&#45;&gt;Node1 -->
<g id="edge1" class="edge">
<title>Node0&#45;&gt;Node1</title>
<path fill="none" stroke="#191970" d="M820.0319,-269.6362C615.0243,-262.699 134.0249,-243.0853 68.1753,-210 22.9507,-187.2775 -19.7564,-152.8127 10.1753,-112 22.8714,-94.6885 77.6929,-80.9063 116.4122,-73.0937"/>
<polygon fill="#191970" stroke="#191970" points="117.2243,-76.5012 126.3649,-71.144 115.8786,-69.6318 117.2243,-76.5012"/>
</g>
<!-- Node2 -->
<g id="node3" class="node">
<title>Node2</title>
<polygon fill="none" stroke="#bfbfbf" points="851.1753,-185 851.1753,-204 893.1753,-204 893.1753,-185 851.1753,-185"/>
<text text-anchor="middle" x="872.1753" y="-192" font-family="Helvetica,sans-Serif" font-size="10.00" fill="#000000">array</text>
</g>
<!-- Node0&#45;&gt;Node2 -->
<g id="edge2" class="edge">
<title>Node0&#45;&gt;Node2</title>
<path fill="none" stroke="#191970" d="M898.6331,-246.0928C893.0576,-235.2205 886.732,-222.8856 881.6642,-213.0034"/>
<polygon fill="#191970" stroke="#191970" points="884.7677,-211.3849 877.0901,-204.0839 878.5389,-214.5792 884.7677,-211.3849"/>
</g>
<!-- Node3 -->
<g id="node4" class="node">
<title>Node3</title>
<polygon fill="none" stroke="#bfbfbf" points="462.6753,-56.5 462.6753,-75.5 509.6753,-75.5 509.6753,-56.5 462.6753,-56.5"/>
<text text-anchor="middle" x="486.1753" y="-63.5" font-family="Helvetica,sans-Serif" font-size="10.00" fill="#000000">vector</text>
</g>
<!-- Node0&#45;&gt;Node3 -->
<g id="edge3" class="edge">
<title>Node0&#45;&gt;Node3</title>
<path fill="none" stroke="#191970" d="M820.1317,-261.7523C748.5597,-251.6946 656.7769,-234.522 628.1753,-210 592.7102,-179.5935 622.4306,-145.7923 590.1753,-112 571.2612,-92.1847 542.2991,-80.3361 519.737,-73.6393"/>
<polygon fill="#191970" stroke="#191970" points="520.4511,-70.2055 509.8801,-70.9148 518.5862,-76.9525 520.4511,-70.2055"/>
</g>
<!-- Node4 -->
<g id="node5" class="node">
<title>Node4</title>
<polygon fill="none" stroke="#bfbfbf" points="975.1753,-.5 975.1753,-19.5 1019.1753,-19.5 1019.1753,-.5 975.1753,-.5"/>
<text text-anchor="middle" x="997.1753" y="-7.5" font-family="Helvetica,sans-Serif" font-size="10.00" fill="#000000">string</text>
</g>
<!-- Node0&#45;&gt;Node4 -->
<g id="edge4" class="edge">
<title>Node0&#45;&gt;Node4</title>
<path fill="none" stroke="#191970" d="M871.4448,-246.1943C859.7704,-236.3749 848.5,-224.1261 842.1753,-210 836.545,-197.4251 837.1788,-191.8399 842.1753,-179 856.4032,-142.4374 940.598,-62.0003 978.5916,-26.9186"/>
<polygon fill="#191970" stroke="#191970" points="981.3713,-29.1179 986.369,-19.7758 976.6363,-23.9623 981.3713,-29.1179"/>
</g>
<!-- Node5 -->
<g id="node6" class="node">
<title>Node5</title>
<polygon fill="none" stroke="#bfbfbf" points="911.6753,-185 911.6753,-204 994.6753,-204 994.6753,-185 911.6753,-185"/>
<text text-anchor="middle" x="953.1753" y="-192" font-family="Helvetica,sans-Serif" font-size="10.00" fill="#000000">TStopwatch.h</text>
</g>
<!-- Node0&#45;&gt;Node5 -->
<g id="edge5" class="edge">
<title>Node0&#45;&gt;Node5</title>
<path fill="none" stroke="#191970" d="M926.056,-246.0928C931.7709,-235.2205 938.2546,-222.8856 943.4491,-213.0034"/>
<polygon fill="#191970" stroke="#191970" points="946.5828,-214.564 948.1376,-204.0839 940.3867,-211.307 946.5828,-214.564"/>
</g>
<!-- Node6 -->
<g id="node7" class="node">
<title>Node6</title>
<g id="a_node7"><a xlink:href="../../d4/d78/CalibInfoTOFshort_8h.html" target="_top" xlink:title="Class to store the output of the matching to TOF for calibration (no channel info, available in CalibInfoTOF.h) ">
<polygon fill="none" stroke="#000000" points="1012.6753,-179.5 1012.6753,-209.5 1157.6753,-209.5 1157.6753,-179.5 1012.6753,-179.5"/>
<text text-anchor="start" x="1020.6753" y="-197.5" font-family="Helvetica,sans-Serif" font-size="10.00" fill="#000000">DataFormatsTOF/CalibInfo</text>
<text text-anchor="middle" x="1085.1753" y="-186.5" font-family="Helvetica,sans-Serif" font-size="10.00" fill="#000000">TOFshort.h</text>
</a>
</g>
</g>
<!-- Node0&#45;&gt;Node6 -->
<g id="edge6" class="edge">
<title>Node0&#45;&gt;Node6</title>
<path fill="none" stroke="#191970" d="M970.263,-246.3101C993.863,-235.6697 1020.6373,-223.5981 1042.4009,-213.7856"/>
<polygon fill="#191970" stroke="#191970" points="1044.0293,-216.8907 1051.707,-209.5897 1041.1521,-210.5093 1044.0293,-216.8907"/>
</g>
<!-- Node7 -->
<g id="node8" class="node">
<title>Node7</title>
<g id="a_node8"><a xlink:href="../../d8/de0/CalibLHCphaseTOF_8h.html" target="_top" xlink:title="Class to store the output of the matching to TOF for calibration. ">
<polygon fill="none" stroke="#000000" points="405.6753,-112.5 405.6753,-142.5 580.6753,-142.5 580.6753,-112.5 405.6753,-112.5"/>
<text text-anchor="start" x="413.6753" y="-130.5" font-family="Helvetica,sans-Serif" font-size="10.00" fill="#000000">DataFormatsTOF/CalibLHCphase</text>
<text text-anchor="middle" x="493.1753" y="-119.5" font-family="Helvetica,sans-Serif" font-size="10.00" fill="#000000">TOF.h</text>
</a>
</g>
</g>
<!-- Node0&#45;&gt;Node7 -->
<g id="edge7" class="edge">
<title>Node0&#45;&gt;Node7</title>
<path fill="none" stroke="#191970" d="M820.0678,-266.1599C754.7659,-258.8927 666.4415,-243.323 595.1753,-210 563.6653,-195.2664 533.4487,-168.7494 514.1972,-149.7526"/>
<polygon fill="#191970" stroke="#191970" points="516.66,-147.2655 507.1329,-142.6302 511.69,-152.1949 516.66,-147.2655"/>
</g>
<!-- Node8 -->
<g id="node9" class="node">
<title>Node8</title>
<g id="a_node9"><a xlink:href="../../d3/d81/CalibTimeSlewingParamTOF_8h.html" target="_top" xlink:title="Class to store the output of the matching to TOF for calibration. ">
<polygon fill="none" stroke="#000000" points="236.6753,-112.5 236.6753,-142.5 387.6753,-142.5 387.6753,-112.5 236.6753,-112.5"/>
<text text-anchor="start" x="244.6753" y="-130.5" font-family="Helvetica,sans-Serif" font-size="10.00" fill="#000000">DataFormatsTOF/CalibTime</text>
<text text-anchor="middle" x="312.1753" y="-119.5" font-family="Helvetica,sans-Serif" font-size="10.00" fill="#000000">SlewingParamTOF.h</text>
</a>
</g>
</g>
<!-- Node0&#45;&gt;Node8 -->
<g id="edge10" class="edge">
<title>Node0&#45;&gt;Node8</title>
<path fill="none" stroke="#191970" d="M819.9858,-261.5435C744.5425,-251.4782 635.4525,-234.4017 542.1753,-210 476.4647,-192.8099 402.9807,-164.8509 357.1507,-146.3178"/>
<polygon fill="#191970" stroke="#191970" points="358.3853,-143.0415 347.8036,-142.5134 355.7463,-149.5251 358.3853,-143.0415"/>
</g>
<!-- Node9 -->
<g id="node10" class="node">
<title>Node9</title>
<g id="a_node10"><a xlink:href="../../d4/d54/Geo_8h.html" target="_top" xlink:title="TOFBase/Geo.h">
<polygon fill="none" stroke="#000000" points="77.6753,-185 77.6753,-204 168.6753,-204 168.6753,-185 77.6753,-185"/>
<text text-anchor="middle" x="123.1753" y="-192" font-family="Helvetica,sans-Serif" font-size="10.00" fill="#000000">TOFBase/Geo.h</text>
</a>
</g>
</g>
<!-- Node0&#45;&gt;Node9 -->
<g id="edge13" class="edge">
<title>Node0&#45;&gt;Node9</title>
<path fill="none" stroke="#191970" d="M820.1228,-263.3998C654.9151,-247.0674 312.8521,-213.2513 178.7935,-199.9984"/>
<polygon fill="#191970" stroke="#191970" points="179.0421,-196.506 168.7463,-199.0051 178.3534,-203.472 179.0421,-196.506"/>
</g>
<!-- Node11 -->
<g id="node12" class="node">
<title>Node11</title>
<polygon fill="none" stroke="#bfbfbf" points="1175.6753,-185 1175.6753,-204 1224.6753,-204 1224.6753,-185 1175.6753,-185"/>
<text text-anchor="middle" x="1200.1753" y="-192" font-family="Helvetica,sans-Serif" font-size="10.00" fill="#000000">TH1F.h</text>
</g>
<!-- Node0&#45;&gt;Node11 -->
<g id="edge16" class="edge">
<title>Node0&#45;&gt;Node11</title>
<path fill="none" stroke="#191970" d="M1004.3391,-254.5482C1053.3833,-243.8409 1114.3149,-228.683 1167.1753,-210 1168.8164,-209.4199 1170.4858,-208.7857 1172.1584,-208.1155"/>
<polygon fill="#191970" stroke="#191970" points="1173.8228,-211.2084 1181.5989,-204.0123 1171.0325,-204.7886 1173.8228,-211.2084"/>
</g>
<!-- Node12 -->
<g id="node13" class="node">
<title>Node12</title>
<polygon fill="none" stroke="#bfbfbf" points="1242.6753,-185 1242.6753,-204 1295.6753,-204 1295.6753,-185 1242.6753,-185"/>
<text text-anchor="middle" x="1269.1753" y="-192" font-family="Helvetica,sans-Serif" font-size="10.00" fill="#000000">TH1D.h</text>
</g>
<!-- Node0&#45;&gt;Node12 -->
<g id="edge17" class="edge">
<title>Node0&#45;&gt;Node12</title>
<path fill="none" stroke="#191970" d="M1004.449,-260.2384C1069.58,-250.2229 1158.3853,-233.8027 1234.1753,-210 1236.0774,-209.4026 1238.0143,-208.7324 1239.9518,-208.0146"/>
<polygon fill="#191970" stroke="#191970" points="1241.535,-211.1494 1249.4852,-204.1462 1238.903,-204.6631 1241.535,-211.1494"/>
</g>
<!-- Node13 -->
<g id="node14" class="node">
<title>Node13</title>
<polygon fill="none" stroke="#bfbfbf" points="1313.6753,-185 1313.6753,-204 1362.6753,-204 1362.6753,-185 1313.6753,-185"/>
<text text-anchor="middle" x="1338.1753" y="-192" font-family="Helvetica,sans-Serif" font-size="10.00" fill="#000000">TH2F.h</text>
</g>
<!-- Node0&#45;&gt;Node13 -->
<g id="edge18" class="edge">
<title>Node0&#45;&gt;Node13</title>
<path fill="none" stroke="#191970" d="M1004.3621,-265.2222C1085.0763,-257.1186 1204.8047,-240.8738 1305.1753,-210 1307.0356,-209.4278 1308.9252,-208.7694 1310.8101,-208.0537"/>
<polygon fill="#191970" stroke="#191970" points="1312.2038,-211.2645 1320.0391,-204.133 1309.4667,-204.8218 1312.2038,-211.2645"/>
</g>
<!-- Node14 -->
<g id="node15" class="node">
<title>Node14</title>
<polygon fill="none" stroke="#bfbfbf" points="1380.6753,-185 1380.6753,-204 1423.6753,-204 1423.6753,-185 1380.6753,-185"/>
<text text-anchor="middle" x="1402.1753" y="-192" font-family="Helvetica,sans-Serif" font-size="10.00" fill="#000000">TF1.h</text>
</g>
<!-- Node0&#45;&gt;Node14 -->
<g id="edge19" class="edge">
<title>Node0&#45;&gt;Node14</title>
<path fill="none" stroke="#191970" d="M1004.5231,-269.1889C1098.8687,-263.6831 1248.6361,-249.0244 1372.1753,-210 1373.6427,-209.5365 1375.1246,-209.005 1376.6026,-208.4245"/>
<polygon fill="#191970" stroke="#191970" points="1378.4656,-211.4212 1386.1047,-204.0799 1375.5549,-205.0551 1378.4656,-211.4212"/>
</g>
<!-- Node15 -->
<g id="node16" class="node">
<title>Node15</title>
<polygon fill="none" stroke="#bfbfbf" points="1442.1753,-185 1442.1753,-204 1490.1753,-204 1490.1753,-185 1442.1753,-185"/>
<text text-anchor="middle" x="1466.1753" y="-192" font-family="Helvetica,sans-Serif" font-size="10.00" fill="#000000">TFile.h</text>
</g>
<!-- Node0&#45;&gt;Node15 -->
<g id="edge20" class="edge">
<title>Node0&#45;&gt;Node15</title>
<path fill="none" stroke="#191970" d="M1004.2196,-265.015C1131.6189,-254.0459 1354.8541,-232.4582 1433.1753,-210 1435.0919,-209.4504 1437.0365,-208.8014 1438.9731,-208.0858"/>
<polygon fill="#191970" stroke="#191970" points="1440.5675,-211.2121 1448.4241,-204.104 1437.8496,-204.7612 1440.5675,-211.2121"/>
</g>
<!-- Node16 -->
<g id="node17" class="node">
<title>Node16</title>
<polygon fill="none" stroke="#bfbfbf" points="1508.6753,-185 1508.6753,-204 1597.6753,-204 1597.6753,-185 1508.6753,-185"/>
<text text-anchor="middle" x="1553.1753" y="-192" font-family="Helvetica,sans-Serif" font-size="10.00" fill="#000000">TGraphErrors.h</text>
</g>
<!-- Node0&#45;&gt;Node16 -->
<g id="edge21" class="edge">
<title>Node0&#45;&gt;Node16</title>
<path fill="none" stroke="#191970" d="M1004.4184,-267.638C1120.6566,-260.3786 1326.1658,-243.7754 1499.1753,-210 1503.8929,-209.079 1508.7953,-207.9382 1513.6366,-206.6964"/>
<polygon fill="#191970" stroke="#191970" points="1514.6755,-210.0411 1523.4092,-204.0434 1512.8415,-203.2856 1514.6755,-210.0411"/>
</g>
<!-- Node17 -->
<g id="node18" class="node">
<title>Node17</title>
<g id="a_node18"><a xlink:href="../../d7/d65/CalibTOFapi_8h.html" target="_top" xlink:title="Class to use TOF calibration (decalibration, calibration) ">
<polygon fill="none" stroke="#000000" points="637.1753,-185 637.1753,-204 795.1753,-204 795.1753,-185 637.1753,-185"/>
<text text-anchor="middle" x="716.1753" y="-192" font-family="Helvetica,sans-Serif" font-size="10.00" fill="#000000">TOFCalibration/CalibTOFapi.h</text>
</a>
</g>
</g>
<!-- Node0&#45;&gt;Node17 -->
<g id="edge22" class="edge">
<title>Node0&#45;&gt;Node17</title>
<path fill="none" stroke="#191970" d="M846.6376,-246.4187C814.2707,-233.538 776.5778,-218.5377 750.0541,-207.9824"/>
<polygon fill="#191970" stroke="#191970" points="751.0554,-204.6139 740.4699,-204.1683 748.4671,-211.1179 751.0554,-204.6139"/>
</g>
<!-- Node7&#45;&gt;Node1 -->
<g id="edge9" class="edge">
<title>Node7&#45;&gt;Node1</title>
<path fill="none" stroke="#191970" d="M410.7358,-112.4554C342.413,-99.987 248.2856,-82.8095 195.7378,-73.2199"/>
<polygon fill="#191970" stroke="#191970" points="196.2684,-69.759 185.8025,-71.4068 195.0117,-76.6452 196.2684,-69.759"/>
</g>
<!-- Node7&#45;&gt;Node3 -->
<g id="edge8" class="edge">
<title>Node7&#45;&gt;Node3</title>
<path fill="none" stroke="#191970" d="M491.4449,-112.2977C490.534,-104.2945 489.406,-94.3843 488.4277,-85.7889"/>
<polygon fill="#191970" stroke="#191970" points="491.9046,-85.3869 487.2961,-75.8469 484.9495,-86.1786 491.9046,-85.3869"/>
</g>
<!-- Node8&#45;&gt;Node1 -->
<g id="edge12" class="edge">
<title>Node8&#45;&gt;Node1</title>
<path fill="none" stroke="#191970" d="M274.0134,-112.4554C248.2127,-102.284 214.4627,-88.9787 189.6974,-79.2155"/>
<polygon fill="#191970" stroke="#191970" points="190.9366,-75.9419 180.3497,-75.5303 188.3692,-82.4541 190.9366,-75.9419"/>
</g>
<!-- Node8&#45;&gt;Node3 -->
<g id="edge11" class="edge">
<title>Node8&#45;&gt;Node3</title>
<path fill="none" stroke="#191970" d="M354.7405,-112.4554C384.8481,-101.8139 424.6608,-87.7422 452.5488,-77.8852"/>
<polygon fill="#191970" stroke="#191970" points="453.9817,-81.091 462.2438,-74.4586 451.649,-74.4911 453.9817,-81.091"/>
</g>
<!-- Node9&#45;&gt;Node1 -->
<g id="edge14" class="edge">
<title>Node9&#45;&gt;Node1</title>
<path fill="none" stroke="#191970" d="M80.5798,-184.9215C58.1682,-177.4837 32.6165,-164.6549 19.1753,-143 11.9093,-131.2939 11.1315,-123.1859 19.1753,-112 30.7903,-95.8478 80.591,-82.0545 116.8084,-73.8962"/>
<polygon fill="#191970" stroke="#191970" points="117.6007,-77.3057 126.6204,-71.7472 116.1031,-70.4677 117.6007,-77.3057"/>
</g>
<!-- Node10 -->
<g id="node11" class="node">
<title>Node10</title>
<g id="a_node11"><a xlink:href="../../d4/dc6/LHCConstants_8h.html" target="_top" xlink:title="Header to collect LHC related constants. ">
<polygon fill="none" stroke="#000000" points="28.1753,-118 28.1753,-137 218.1753,-137 218.1753,-118 28.1753,-118"/>
<text text-anchor="middle" x="123.1753" y="-125" font-family="Helvetica,sans-Serif" font-size="10.00" fill="#000000">CommonConstants/LHCConstants.h</text>
</a>
</g>
</g>
<!-- Node9&#45;&gt;Node10 -->
<g id="edge15" class="edge">
<title>Node9&#45;&gt;Node10</title>
<path fill="none" stroke="#191970" d="M123.1753,-184.9005C123.1753,-175.149 123.1753,-159.7597 123.1753,-147.3695"/>
<polygon fill="#191970" stroke="#191970" points="126.6754,-147.0816 123.1753,-137.0817 119.6754,-147.0817 126.6754,-147.0816"/>
</g>
<!-- Node17&#45;&gt;Node7 -->
<g id="edge36" class="edge">
<title>Node17&#45;&gt;Node7</title>
<path fill="none" stroke="#191970" d="M684.2248,-184.9005C650.0356,-174.6284 595.025,-158.1006 552.7934,-145.4122"/>
<polygon fill="#191970" stroke="#191970" points="553.7573,-142.0473 543.1731,-142.5218 551.7431,-148.7512 553.7573,-142.0473"/>
</g>
<!-- Node17&#45;&gt;Node8 -->
<g id="edge37" class="edge">
<title>Node17&#45;&gt;Node8</title>
<path fill="none" stroke="#191970" d="M654.9595,-184.9953C592.8289,-175.263 493.6017,-159.4855 397.5846,-143.0507"/>
<polygon fill="#191970" stroke="#191970" points="398.1528,-139.5971 387.7049,-141.3553 396.9689,-146.4962 398.1528,-139.5971"/>
</g>
<!-- Node18 -->
<g id="node19" class="node">
<title>Node18</title>
<polygon fill="none" stroke="#bfbfbf" points="508.1753,-.5 508.1753,-19.5 568.1753,-19.5 568.1753,-.5 508.1753,-.5"/>
<text text-anchor="middle" x="538.1753" y="-7.5" font-family="Helvetica,sans-Serif" font-size="10.00" fill="#000000">iostream</text>
</g>
<!-- Node17&#45;&gt;Node18 -->
<g id="edge23" class="edge">
<title>Node17&#45;&gt;Node18</title>
<path fill="none" stroke="#191970" d="M706.7296,-184.8309C690.5601,-168.5863 656.124,-135.31 623.1753,-112 596.216,-92.9274 578.9306,-101.6863 558.1753,-76 547.4875,-62.7731 542.5028,-43.9074 540.1828,-29.7311"/>
<polygon fill="#191970" stroke="#191970" points="543.619,-29.0182 538.8354,-19.5648 536.6797,-29.9379 543.619,-29.0182"/>
</g>
<!-- Node19 -->
<g id="node20" class="node">
<title>Node19</title>
<g id="a_node20"><a xlink:href="../../d5/df3/BasicCCDBManager_8h.html" target="_top" xlink:title="CCDB/BasicCCDBManager.h">
<polygon fill="none" stroke="#000000" points="682.1753,-118 682.1753,-137 834.1753,-137 834.1753,-118 682.1753,-118"/>
<text text-anchor="middle" x="758.1753" y="-125" font-family="Helvetica,sans-Serif" font-size="10.00" fill="#000000">CCDB/BasicCCDBManager.h</text>
</a>
</g>
</g>
<!-- Node17&#45;&gt;Node19 -->
<g id="edge24" class="edge">
<title>Node17&#45;&gt;Node19</title>
<path fill="none" stroke="#191970" d="M722.1929,-184.9005C728.5553,-174.751 738.7462,-158.4941 746.6611,-145.8679"/>
<polygon fill="#191970" stroke="#191970" points="749.823,-147.4135 752.1689,-137.0817 743.892,-143.6956 749.823,-147.4135"/>
</g>
<!-- Node19&#45;&gt;Node4 -->
<g id="edge34" class="edge">
<title>Node19&#45;&gt;Node4</title>
<path fill="none" stroke="#191970" d="M787.3839,-117.9645C814.7895,-108.6067 856.618,-93.258 891.1753,-76 921.4162,-60.8976 954.1429,-39.7075 975.1084,-25.4483"/>
<polygon fill="#191970" stroke="#191970" points="977.3373,-28.1634 983.5971,-19.6155 973.3731,-22.3941 977.3373,-28.1634"/>
</g>
<!-- Node20 -->
<g id="node21" class="node">
<title>Node20</title>
<g id="a_node21"><a xlink:href="../../dd/d3e/CcdbApi_8h.html" target="_top" xlink:title="CCDB/CcdbApi.h">
<polygon fill="none" stroke="#000000" points="786.1753,-56.5 786.1753,-75.5 882.1753,-75.5 882.1753,-56.5 786.1753,-56.5"/>
<text text-anchor="middle" x="834.1753" y="-63.5" font-family="Helvetica,sans-Serif" font-size="10.00" fill="#000000">CCDB/CcdbApi.h</text>
</a>
</g>
</g>
<!-- Node19&#45;&gt;Node20 -->
<g id="edge25" class="edge">
<title>Node19&#45;&gt;Node20</title>
<path fill="none" stroke="#191970" d="M770.0503,-117.8906C781.805,-108.3786 800.0239,-93.6357 814.0424,-82.2917"/>
<polygon fill="#191970" stroke="#191970" points="816.5609,-84.7562 822.1329,-75.7449 812.1575,-79.3146 816.5609,-84.7562"/>
</g>
<!-- Node22 -->
<g id="node23" class="node">
<title>Node22</title>
<polygon fill="none" stroke="#bfbfbf" points="586.1753,-.5 586.1753,-19.5 624.1753,-19.5 624.1753,-.5 586.1753,-.5"/>
<text text-anchor="middle" x="605.1753" y="-7.5" font-family="Helvetica,sans-Serif" font-size="10.00" fill="#000000">map</text>
</g>
<!-- Node19&#45;&gt;Node22 -->
<g id="edge35" class="edge">
<title>Node19&#45;&gt;Node22</title>
<path fill="none" stroke="#191970" d="M758.3351,-117.8171C758.0532,-102.6627 755.2864,-73.2901 739.1753,-56 705.5436,-19.9072 680.8278,-36.0411 634.1753,-20 634.0746,-19.9654 633.9736,-19.9307 633.8725,-19.8959"/>
<polygon fill="#191970" stroke="#191970" points="634.7996,-16.5135 624.2049,-16.5673 632.5207,-23.1322 634.7996,-16.5135"/>
</g>
<!-- Node26 -->
<g id="node27" class="node">
<title>Node26</title>
<g id="a_node27"><a xlink:href="../../da/d86/CCDBTimeStampUtils_8h.html" target="_top" xlink:title="CCDB/CCDBTimeStampUtils.h">
<polygon fill="none" stroke="#000000" points="566.6753,-56.5 566.6753,-75.5 729.6753,-75.5 729.6753,-56.5 566.6753,-56.5"/>
<text text-anchor="middle" x="648.1753" y="-63.5" font-family="Helvetica,sans-Serif" font-size="10.00" fill="#000000">CCDB/CCDBTimeStampUtils.h</text>
</a>
</g>
</g>
<!-- Node19&#45;&gt;Node26 -->
<g id="edge33" class="edge">
<title>Node19&#45;&gt;Node26</title>
<path fill="none" stroke="#191970" d="M740.9878,-117.8906C723.0671,-107.8713 694.7658,-92.0483 674.1229,-80.5071"/>
<polygon fill="#191970" stroke="#191970" points="675.6786,-77.367 665.2421,-75.5419 672.2625,-83.4769 675.6786,-77.367"/>
</g>
<!-- Node20&#45;&gt;Node4 -->
<g id="edge26" class="edge">
<title>Node20&#45;&gt;Node4</title>
<path fill="none" stroke="#191970" d="M862.196,-56.3733C890.9004,-46.5116 935.4511,-31.2059 965.4387,-20.9034"/>
<polygon fill="#191970" stroke="#191970" points="966.6859,-24.1757 975.0061,-17.6164 964.4115,-17.5555 966.6859,-24.1757"/>
</g>
<!-- Node20&#45;&gt;Node18 -->
<g id="edge28" class="edge">
<title>Node20&#45;&gt;Node18</title>
<path fill="none" stroke="#191970" d="M786.1271,-58.4891C736.4638,-50.4826 656.4901,-36.9138 578.3677,-20.1427"/>
<polygon fill="#191970" stroke="#191970" points="578.871,-16.6706 568.3565,-17.9735 577.3885,-23.5119 578.871,-16.6706"/>
</g>
<!-- Node21 -->
<g id="node22" class="node">
<title>Node21</title>
<polygon fill="none" stroke="#bfbfbf" points="899.1753,-.5 899.1753,-19.5 957.1753,-19.5 957.1753,-.5 899.1753,-.5"/>
<text text-anchor="middle" x="928.1753" y="-7.5" font-family="Helvetica,sans-Serif" font-size="10.00" fill="#000000">memory</text>
</g>
<!-- Node20&#45;&gt;Node21 -->
<g id="edge27" class="edge">
<title>Node20&#45;&gt;Node21</title>
<path fill="none" stroke="#191970" d="M850.5488,-56.2455C865.1061,-47.5731 886.6063,-34.7645 903.2905,-24.825"/>
<polygon fill="#191970" stroke="#191970" points="905.1897,-27.7676 911.9894,-19.6427 901.607,-21.7539 905.1897,-27.7676"/>
</g>
<!-- Node20&#45;&gt;Node22 -->
<g id="edge29" class="edge">
<title>Node20&#45;&gt;Node22</title>
<path fill="none" stroke="#191970" d="M786.1274,-56.4431C745.3853,-47.9839 685.5509,-34.7212 634.1753,-20 634.0761,-19.9716 633.9767,-19.943 633.8772,-19.9143"/>
<polygon fill="#191970" stroke="#191970" points="635.0166,-16.6035 624.4277,-16.9575 632.9261,-23.2841 635.0166,-16.6035"/>
</g>
<!-- Node23 -->
<g id="node24" class="node">
<title>Node23</title>
<polygon fill="none" stroke="#bfbfbf" points="642.6753,-.5 642.6753,-19.5 707.6753,-19.5 707.6753,-.5 642.6753,-.5"/>
<text text-anchor="middle" x="675.1753" y="-7.5" font-family="Helvetica,sans-Serif" font-size="10.00" fill="#000000">curl/curl.h</text>
</g>
<!-- Node20&#45;&gt;Node23 -->
<g id="edge30" class="edge">
<title>Node20&#45;&gt;Node23</title>
<path fill="none" stroke="#191970" d="M806.8422,-56.3733C780.6318,-47.1419 740.8769,-33.1402 711.9084,-22.9375"/>
<polygon fill="#191970" stroke="#191970" points="712.7465,-19.5219 702.1517,-19.5011 710.4211,-26.1244 712.7465,-19.5219"/>
</g>
<!-- Node24 -->
<g id="node25" class="node">
<title>Node24</title>
<polygon fill="none" stroke="#bfbfbf" points="725.6753,-.5 725.6753,-19.5 788.6753,-19.5 788.6753,-.5 725.6753,-.5"/>
<text text-anchor="middle" x="757.1753" y="-7.5" font-family="Helvetica,sans-Serif" font-size="10.00" fill="#000000">TObject.h</text>
</g>
<!-- Node20&#45;&gt;Node24 -->
<g id="edge31" class="edge">
<title>Node20&#45;&gt;Node24</title>
<path fill="none" stroke="#191970" d="M820.7629,-56.2455C809.1696,-47.814 792.2005,-35.4729 778.7074,-25.6598"/>
<polygon fill="#191970" stroke="#191970" points="780.5799,-22.6938 770.434,-19.6427 776.4627,-28.355 780.5799,-22.6938"/>
</g>
<!-- Node25 -->
<g id="node26" class="node">
<title>Node25</title>
<polygon fill="none" stroke="#bfbfbf" points="807.1753,-.5 807.1753,-19.5 881.1753,-19.5 881.1753,-.5 807.1753,-.5"/>
<text text-anchor="middle" x="844.1753" y="-7.5" font-family="Helvetica,sans-Serif" font-size="10.00" fill="#000000">TMessage.h</text>
</g>
<!-- Node20&#45;&gt;Node25 -->
<g id="edge32" class="edge">
<title>Node20&#45;&gt;Node25</title>
<path fill="none" stroke="#191970" d="M835.9171,-56.2455C837.222,-48.9382 839.0513,-38.6944 840.6566,-29.7046"/>
<polygon fill="#191970" stroke="#191970" points="844.1409,-30.1022 842.4534,-19.6427 837.2499,-28.8717 844.1409,-30.1022"/>
</g>
</g>
</svg>
