<?xml version="1.0" encoding="UTF-8" standalone="no"?>
<!DOCTYPE svg PUBLIC "-//W3C//DTD SVG 1.1//EN"
 "http://www.w3.org/Graphics/SVG/1.1/DTD/svg11.dtd">
<!-- Generated by graphviz version 2.40.1 (20161225.0304)
 -->
<!-- Title: AliTPCPoissonSolver Pages: 1 -->
<!--zoomable 529 -->
<svg id="main" version="1.1" xmlns="http://www.w3.org/2000/svg" xmlns:xlink="http://www.w3.org/1999/xlink" xml:space="preserve" onload="init(evt)">
<style type="text/css"><![CDATA[
.edge:hover path { stroke: red; }
.edge:hover polygon { stroke: red; fill: red; }
]]></style>
<script type="text/javascript"><![CDATA[
var edges = document.getElementsByTagName('g');
if (edges && edges.length) {
  for (var i=0;i<edges.length;i++) {
    if (edges[i].id.substr(0,4)=='edge') {
      edges[i].setAttribute('class','edge');
    }
  }
}
]]></script>
        <defs>
                <circle id="rim" cx="0" cy="0" r="7"/>
                <circle id="rim2" cx="0" cy="0" r="3.5"/>
                <g id="zoomPlus">
                        <use xlink:href="#rim" fill="#404040">
                                <set attributeName="fill" to="#808080" begin="zoomplus.mouseover" end="zoomplus.mouseout"/>
                        </use>
                        <path d="M-4,0h8M0,-4v8" fill="none" stroke="white" stroke-width="1.5" pointer-events="none"/>
                </g>
                <g id="zoomMin">
                        <use xlink:href="#rim" fill="#404040">
                                <set attributeName="fill" to="#808080" begin="zoomminus.mouseover" end="zoomminus.mouseout"/>
                        </use>
                        <path d="M-4,0h8" fill="none" stroke="white" stroke-width="1.5" pointer-events="none"/>
                </g>
                <g id="dirArrow">
                        <path fill="none" stroke="white" stroke-width="1.5" d="M0,-3.0v7 M-2.5,-0.5L0,-3.0L2.5,-0.5"/>
                </g>
               <g id="resetDef">
                       <use xlink:href="#rim2" fill="#404040">
                               <set attributeName="fill" to="#808080" begin="reset.mouseover" end="reset.mouseout"/>
                       </use>
               </g>
        </defs>

<script type="text/javascript">
var viewWidth = 653;
var viewHeight = 529;
var sectionId = 'dynsection-1';
</script>
<script xlink:href="../../svgpan.js"/>
<svg id="graph" class="graph">
<g id="viewport">
<title>AliTPCPoissonSolver</title>
<!-- Node2 -->
<g id="node1" class="node">
<title>Node2</title>
<polygon fill="#bfbfbf" stroke="#000000" points="338.5,-.5 338.5,-145.5 481.5,-145.5 481.5,-.5 338.5,-.5"/>
<text text-anchor="middle" x="410" y="-133.5" font-family="Helvetica,sans-Serif" font-size="10.00" fill="#000000">AliTPCPoissonSolver</text>
<polyline fill="none" stroke="#000000" points="338.5,-126.5 481.5,-126.5 "/>
<text text-anchor="start" x="346.5" y="-114.5" font-family="Helvetica,sans-Serif" font-size="10.00" fill="#000000">+ fgkdvdE</text>
<polyline fill="none" stroke="#000000" points="338.5,-107.5 481.5,-107.5 "/>
<text text-anchor="start" x="346.5" y="-95.5" font-family="Helvetica,sans-Serif" font-size="10.00" fill="#000000">+ AliTPCPoissonSolver()</text>
<text text-anchor="start" x="346.5" y="-84.5" font-family="Helvetica,sans-Serif" font-size="10.00" fill="#000000">+ AliTPCPoissonSolver()</text>
<text text-anchor="start" x="346.5" y="-73.5" font-family="Helvetica,sans-Serif" font-size="10.00" fill="#000000">+ ~AliTPCPoissonSolver()</text>
<text text-anchor="start" x="346.5" y="-62.5" font-family="Helvetica,sans-Serif" font-size="10.00" fill="#000000">+ PoissonSolver2D()</text>
<text text-anchor="start" x="346.5" y="-51.5" font-family="Helvetica,sans-Serif" font-size="10.00" fill="#000000">+ PoissonSolver3D()</text>
<text text-anchor="start" x="346.5" y="-40.5" font-family="Helvetica,sans-Serif" font-size="10.00" fill="#000000">+ SetStrategy()</text>
<text text-anchor="start" x="346.5" y="-29.5" font-family="Helvetica,sans-Serif" font-size="10.00" fill="#000000">+ GetStrategy()</text>
<text text-anchor="start" x="346.5" y="-18.5" font-family="Helvetica,sans-Serif" font-size="10.00" fill="#000000">+ SetExactSolution()</text>
<text text-anchor="start" x="346.5" y="-7.5" font-family="Helvetica,sans-Serif" font-size="10.00" fill="#000000">+ SetCycleType()</text>
</g>
<!-- Node3 -->
<g id="node2" class="node">
<title>Node3</title>
<polygon fill="none" stroke="#bfbfbf" points="180,-309 180,-366 238,-366 238,-309 180,-309"/>
<text text-anchor="middle" x="209" y="-354" font-family="Helvetica,sans-Serif" font-size="10.00" fill="#000000">TNamed</text>
<polyline fill="none" stroke="#bfbfbf" points="180,-347 238,-347 "/>
<text text-anchor="middle" x="209" y="-335" font-family="Helvetica,sans-Serif" font-size="10.00" fill="#000000"> </text>
<polyline fill="none" stroke="#bfbfbf" points="180,-328 238,-328 "/>
<text text-anchor="middle" x="209" y="-316" font-family="Helvetica,sans-Serif" font-size="10.00" fill="#000000"> </text>
</g>
<!-- Node3&#45;&gt;Node2 -->
<g id="edge1" class="edge">
<title>Node3&#45;&gt;Node2</title>
<path fill="none" stroke="#191970" d="M230.5831,-299.9685C252.01,-263.8403 286.6792,-208.3122 322,-164 327.137,-157.5553 332.6573,-151.0461 338.3383,-144.6295"/>
<polygon fill="none" stroke="#191970" points="227.4894,-298.3245 225.4285,-308.717 233.5204,-301.878 227.4894,-298.3245"/>
</g>
<!-- Node4 -->
<g id="node3" class="node">
<title>Node4</title>
<g id="a_node3"><a xlink:href="../../d7/d4a/structAliTPCPoissonSolver_1_1MGParameters.html" target="_top" xlink:title="{AliTPCPoissonSolver\l::MGParameters\n||+ MGParameters()\l}">
<polygon fill="none" stroke="#000000" points="256,-303.5 256,-371.5 372,-371.5 372,-303.5 256,-303.5"/>
<text text-anchor="start" x="264" y="-359.5" font-family="Helvetica,sans-Serif" font-size="10.00" fill="#000000">AliTPCPoissonSolver</text>
<text text-anchor="middle" x="314" y="-348.5" font-family="Helvetica,sans-Serif" font-size="10.00" fill="#000000">::MGParameters</text>
<polyline fill="none" stroke="#000000" points="256,-341.5 372,-341.5 "/>
<text text-anchor="middle" x="314" y="-329.5" font-family="Helvetica,sans-Serif" font-size="10.00" fill="#000000"> </text>
<polyline fill="none" stroke="#000000" points="256,-322.5 372,-322.5 "/>
<text text-anchor="start" x="264" y="-310.5" font-family="Helvetica,sans-Serif" font-size="10.00" fill="#000000">+ MGParameters()</text>
</a>
</g>
</g>
<!-- Node4&#45;&gt;Node2 -->
<g id="edge2" class="edge">
<title>Node4&#45;&gt;Node2</title>
<path fill="none" stroke="#404040" d="M320.7865,-303.4973C328.4338,-267.9671 342.2834,-210.9634 361,-164 361.985,-161.5284 363.0203,-159.0378 364.0968,-156.5387"/>
<polygon fill="none" stroke="#404040" points="364.1155,-156.4972 362.9378,-149.3829 369.0519,-145.5595 370.2296,-152.6738 364.1155,-156.4972"/>
<text text-anchor="middle" x="403.5" y="-222" font-family="Helvetica,sans-Serif" font-size="10.00" fill="#000000"> +fMgParameters</text>
</g>
<!-- Node5 -->
<g id="node4" class="node">
<title>Node5</title>
<polygon fill="none" stroke="#bfbfbf" points="0,-463.5 0,-520.5 98,-520.5 98,-463.5 0,-463.5"/>
<text text-anchor="middle" x="49" y="-508.5" font-family="Helvetica,sans-Serif" font-size="10.00" fill="#000000">GridTransferType</text>
<polyline fill="none" stroke="#bfbfbf" points="0,-501.5 98,-501.5 "/>
<text text-anchor="middle" x="49" y="-489.5" font-family="Helvetica,sans-Serif" font-size="10.00" fill="#000000"> </text>
<polyline fill="none" stroke="#bfbfbf" points="0,-482.5 98,-482.5 "/>
<text text-anchor="middle" x="49" y="-470.5" font-family="Helvetica,sans-Serif" font-size="10.00" fill="#000000"> </text>
</g>
<!-- Node5&#45;&gt;Node4 -->
<g id="edge3" class="edge">
<title>Node5&#45;&gt;Node4</title>
<path fill="none" stroke="#404040" d="M55.6606,-463.2881C62.7422,-439.6121 76.4164,-407.2187 101,-390 151.518,-354.6166 181.0516,-387.117 243.9663,-372.23"/>
<polygon fill="none" stroke="#404040" points="244.1011,-372.193 248.8257,-366.7452 255.6716,-369.0111 250.947,-374.4589 244.1011,-372.193"/>
<text text-anchor="middle" x="123" y="-415" font-family="Helvetica,sans-Serif" font-size="10.00" fill="#000000"> +gtType</text>
</g>
<!-- Node6 -->
<g id="node5" class="node">
<title>Node6</title>
<polygon fill="none" stroke="#bfbfbf" points="116,-463.5 116,-520.5 182,-520.5 182,-463.5 116,-463.5"/>
<text text-anchor="middle" x="149" y="-508.5" font-family="Helvetica,sans-Serif" font-size="10.00" fill="#000000">CycleType</text>
<polyline fill="none" stroke="#bfbfbf" points="116,-501.5 182,-501.5 "/>
<text text-anchor="middle" x="149" y="-489.5" font-family="Helvetica,sans-Serif" font-size="10.00" fill="#000000"> </text>
<polyline fill="none" stroke="#bfbfbf" points="116,-482.5 182,-482.5 "/>
<text text-anchor="middle" x="149" y="-470.5" font-family="Helvetica,sans-Serif" font-size="10.00" fill="#000000"> </text>
</g>
<!-- Node6&#45;&gt;Node4 -->
<g id="edge4" class="edge">
<title>Node6&#45;&gt;Node4</title>
<path fill="none" stroke="#404040" d="M147.4227,-463.0797C147.8127,-440.2475 152.2335,-409.1481 171,-390 192.9243,-367.63 210.6525,-380.7734 244.3761,-372.1149"/>
<polygon fill="none" stroke="#404040" points="244.4719,-372.0847 248.9859,-366.4611 255.913,-368.465 251.399,-374.0885 244.4719,-372.0847"/>
<text text-anchor="middle" x="201" y="-415" font-family="Helvetica,sans-Serif" font-size="10.00" fill="#000000"> +cycleType</text>
</g>
<!-- Node7 -->
<g id="node6" class="node">
<title>Node7</title>
<polygon fill="none" stroke="#bfbfbf" points="200,-463.5 200,-520.5 266,-520.5 266,-463.5 200,-463.5"/>
<text text-anchor="middle" x="233" y="-508.5" font-family="Helvetica,sans-Serif" font-size="10.00" fill="#000000">RelaxType</text>
<polyline fill="none" stroke="#bfbfbf" points="200,-501.5 266,-501.5 "/>
<text text-anchor="middle" x="233" y="-489.5" font-family="Helvetica,sans-Serif" font-size="10.00" fill="#000000"> </text>
<polyline fill="none" stroke="#bfbfbf" points="200,-482.5 266,-482.5 "/>
<text text-anchor="middle" x="233" y="-470.5" font-family="Helvetica,sans-Serif" font-size="10.00" fill="#000000"> </text>
</g>
<!-- Node7&#45;&gt;Node4 -->
<g id="edge5" class="edge">
<title>Node7&#45;&gt;Node4</title>
<path fill="none" stroke="#404040" d="M232.8641,-463.3763C233.9414,-441.8752 238.0134,-412.402 251,-390 252.8677,-386.7782 255.0114,-383.6668 257.3552,-380.6767"/>
<polygon fill="none" stroke="#404040" points="257.4762,-380.54 258.4572,-373.3959 265.4291,-371.5537 264.4481,-378.6978 257.4762,-380.54"/>
<text text-anchor="middle" x="280.5" y="-415" font-family="Helvetica,sans-Serif" font-size="10.00" fill="#000000"> +relaxType</text>
</g>
<!-- Node8 -->
<g id="node7" class="node">
<title>Node8</title>
<polygon fill="none" stroke="#bfbfbf" points="290.5,-463.5 290.5,-520.5 337.5,-520.5 337.5,-463.5 290.5,-463.5"/>
<text text-anchor="middle" x="314" y="-508.5" font-family="Helvetica,sans-Serif" font-size="10.00" fill="#000000">Bool_t</text>
<polyline fill="none" stroke="#bfbfbf" points="290.5,-501.5 337.5,-501.5 "/>
<text text-anchor="middle" x="314" y="-489.5" font-family="Helvetica,sans-Serif" font-size="10.00" fill="#000000"> </text>
<polyline fill="none" stroke="#bfbfbf" points="290.5,-482.5 337.5,-482.5 "/>
<text text-anchor="middle" x="314" y="-470.5" font-family="Helvetica,sans-Serif" font-size="10.00" fill="#000000"> </text>
</g>
<!-- Node8&#45;&gt;Node4 -->
<g id="edge6" class="edge">
<title>Node8&#45;&gt;Node4</title>
<path fill="none" stroke="#404040" d="M314,-463.3018C314,-441.0285 314,-409.6993 314,-383.878"/>
<polygon fill="none" stroke="#404040" points="314.0001,-383.7084 310,-377.7085 314,-371.7084 318,-377.7084 314.0001,-383.7084"/>
<text text-anchor="middle" x="339" y="-415" font-family="Helvetica,sans-Serif" font-size="10.00" fill="#000000"> +isFull3D</text>
</g>
<!-- Node9 -->
<g id="node8" class="node">
<title>Node9</title>
<polygon fill="none" stroke="#bfbfbf" points="404,-463.5 404,-520.5 442,-520.5 442,-463.5 404,-463.5"/>
<text text-anchor="middle" x="423" y="-508.5" font-family="Helvetica,sans-Serif" font-size="10.00" fill="#000000">Int_t</text>
<polyline fill="none" stroke="#bfbfbf" points="404,-501.5 442,-501.5 "/>
<text text-anchor="middle" x="423" y="-489.5" font-family="Helvetica,sans-Serif" font-size="10.00" fill="#000000"> </text>
<polyline fill="none" stroke="#bfbfbf" points="404,-482.5 442,-482.5 "/>
<text text-anchor="middle" x="423" y="-470.5" font-family="Helvetica,sans-Serif" font-size="10.00" fill="#000000"> </text>
</g>
<!-- Node9&#45;&gt;Node2 -->
<g id="edge9" class="edge">
<title>Node9&#45;&gt;Node2</title>
<path fill="none" stroke="#404040" d="M439.5096,-463.4316C442.1958,-457.5164 444.5655,-451.1951 446,-445 474.1739,-323.3305 469.3847,-286.68 446,-164 445.5827,-161.8108 445.1137,-159.6071 444.5993,-157.396"/>
<polygon fill="none" stroke="#404040" points="444.5316,-157.1408 439.1258,-152.3681 441.4522,-145.5426 446.858,-150.3152 444.5316,-157.1408"/>
<text text-anchor="middle" x="496" y="-335" font-family="Helvetica,sans-Serif" font-size="10.00" fill="#000000"> +fIterations</text>
</g>
<!-- Node9&#45;&gt;Node4 -->
<g id="edge7" class="edge">
<title>Node9&#45;&gt;Node4</title>
<path fill="none" stroke="#404040" d="M403.6557,-468.3768C398.2064,-461.1253 392.5344,-452.9547 388,-445 374.8789,-421.9813 379.5977,-412.1118 365,-390 362.9654,-386.918 360.7354,-383.8592 358.3807,-380.858"/>
<polygon fill="none" stroke="#404040" points="358.2443,-380.6958 351.3214,-378.6775 350.5218,-371.5108 357.4447,-373.5291 358.2443,-380.6958"/>
<text text-anchor="middle" x="417" y="-437" font-family="Helvetica,sans-Serif" font-size="10.00" fill="#000000"> +nPre</text>
<text text-anchor="middle" x="417" y="-426" font-family="Helvetica,sans-Serif" font-size="10.00" fill="#000000">+nMGCycle</text>
<text text-anchor="middle" x="417" y="-415" font-family="Helvetica,sans-Serif" font-size="10.00" fill="#000000">+maxLoop</text>
<text text-anchor="middle" x="417" y="-404" font-family="Helvetica,sans-Serif" font-size="10.00" fill="#000000">+gamma</text>
<text text-anchor="middle" x="417" y="-393" font-family="Helvetica,sans-Serif" font-size="10.00" fill="#000000">+nPost</text>
</g>
<!-- Node10 -->
<g id="node9" class="node">
<title>Node10</title>
<polygon fill="none" stroke="#bfbfbf" points="540,-309 540,-366 584,-366 584,-309 540,-309"/>
<text text-anchor="middle" x="562" y="-354" font-family="Helvetica,sans-Serif" font-size="10.00" fill="#000000">static</text>
<polyline fill="none" stroke="#bfbfbf" points="540,-347 584,-347 "/>
<text text-anchor="middle" x="562" y="-335" font-family="Helvetica,sans-Serif" font-size="10.00" fill="#000000"> </text>
<polyline fill="none" stroke="#bfbfbf" points="540,-328 584,-328 "/>
<text text-anchor="middle" x="562" y="-316" font-family="Helvetica,sans-Serif" font-size="10.00" fill="#000000"> </text>
</g>
<!-- Node10&#45;&gt;Node2 -->
<g id="edge8" class="edge">
<title>Node10&#45;&gt;Node2</title>
<path fill="none" stroke="#404040" d="M549.0355,-308.8845C532.8496,-273.9296 503.6643,-213.3571 474,-164 472.4112,-161.3564 470.7715,-158.6886 469.0936,-156.0097"/>
<polygon fill="none" stroke="#404040" points="468.931,-155.7558 462.3264,-152.861 462.4583,-145.6511 469.0629,-148.5459 468.931,-155.7558"/>
<text text-anchor="middle" x="590.5" y="-277" font-family="Helvetica,sans-Serif" font-size="10.00" fill="#000000"> +fgConvergenceError</text>
<text text-anchor="middle" x="590.5" y="-266" font-family="Helvetica,sans-Serif" font-size="10.00" fill="#000000">+fgkEM</text>
<text text-anchor="middle" x="590.5" y="-255" font-family="Helvetica,sans-Serif" font-size="10.00" fill="#000000">+fgkCathodeV</text>
<text text-anchor="middle" x="590.5" y="-244" font-family="Helvetica,sans-Serif" font-size="10.00" fill="#000000">+fgkIFCRadius</text>
<text text-anchor="middle" x="590.5" y="-233" font-family="Helvetica,sans-Serif" font-size="10.00" fill="#000000">+fgExactErr</text>
<text text-anchor="middle" x="590.5" y="-222" font-family="Helvetica,sans-Serif" font-size="10.00" fill="#000000">+fgkOFCRadius</text>
<text text-anchor="middle" x="590.5" y="-211" font-family="Helvetica,sans-Serif" font-size="10.00" fill="#000000">+fgkTPCZ0</text>
<text text-anchor="middle" x="590.5" y="-200" font-family="Helvetica,sans-Serif" font-size="10.00" fill="#000000">+fgke0</text>
<text text-anchor="middle" x="590.5" y="-189" font-family="Helvetica,sans-Serif" font-size="10.00" fill="#000000">+fgkGG</text>
<text text-anchor="middle" x="590.5" y="-178" font-family="Helvetica,sans-Serif" font-size="10.00" fill="#000000">+fgkZOffSet</text>
<text text-anchor="middle" x="590.5" y="-167" font-family="Helvetica,sans-Serif" font-size="10.00" fill="#000000">...</text>
</g>
</g>
</svg>
        <g id="navigator" transform="translate(0 0)" fill="#404254">
                <rect fill="#f2f5e9" fill-opacity="0.5" stroke="#606060" stroke-width=".5" x="0" y="0" width="60" height="60"/>
                <use id="zoomplus" xlink:href="#zoomPlus" x="17" y="9" onmousedown="handleZoom(evt,'in')"/>
                <use id="zoomminus" xlink:href="#zoomMin" x="42" y="9" onmousedown="handleZoom(evt,'out')"/>
                <use id="reset" xlink:href="#resetDef" x="30" y="36" onmousedown="handleReset()"/>
                <g id="arrowUp" xlink:href="#dirArrow" transform="translate(30 24)" onmousedown="handlePan(0,-1)">
                  <use xlink:href="#rim" fill="#404040">
                        <set attributeName="fill" to="#808080" begin="arrowUp.mouseover" end="arrowUp.mouseout"/>
                  </use>
                  <path fill="none" stroke="white" stroke-width="1.5" d="M0,-3.0v7 M-2.5,-0.5L0,-3.0L2.5,-0.5"/>
                </g>
                <g id="arrowRight" xlink:href="#dirArrow" transform="rotate(90) translate(36 -43)" onmousedown="handlePan(1,0)">
                  <use xlink:href="#rim" fill="#404040">
                        <set attributeName="fill" to="#808080" begin="arrowRight.mouseover" end="arrowRight.mouseout"/>
                  </use>
                  <path fill="none" stroke="white" stroke-width="1.5" d="M0,-3.0v7 M-2.5,-0.5L0,-3.0L2.5,-0.5"/>
                </g>
                <g id="arrowDown" xlink:href="#dirArrow" transform="rotate(180) translate(-30 -48)" onmousedown="handlePan(0,1)">
                  <use xlink:href="#rim" fill="#404040">
                        <set attributeName="fill" to="#808080" begin="arrowDown.mouseover" end="arrowDown.mouseout"/>
                  </use>
                  <path fill="none" stroke="white" stroke-width="1.5" d="M0,-3.0v7 M-2.5,-0.5L0,-3.0L2.5,-0.5"/>
                </g>
                <g id="arrowLeft" xlink:href="#dirArrow" transform="rotate(270) translate(-36 17)" onmousedown="handlePan(-1,0)">
                  <use xlink:href="#rim" fill="#404040">
                        <set attributeName="fill" to="#808080" begin="arrowLeft.mouseover" end="arrowLeft.mouseout"/>
                  </use>
                  <path fill="none" stroke="white" stroke-width="1.5" d="M0,-3.0v7 M-2.5,-0.5L0,-3.0L2.5,-0.5"/>
                </g>
        </g>
        <svg viewBox="0 0 15 15" width="100%" height="30px" preserveAspectRatio="xMaxYMin meet">
         <g id="arrow_out" transform="scale(0.3 0.3)">
          <a xlink:href="classAliTPCPoissonSolver__coll__graph_org.svg" target="_base">
           <rect id="button" ry="5" rx="5" y="6" x="6" height="38" width="38"
                fill="#f2f5e9" fill-opacity="0.5" stroke="#606060" stroke-width="1.0"/>
           <path id="arrow"
             d="M 11.500037,31.436501 C 11.940474,20.09759 22.043105,11.32322 32.158766,21.979434 L 37.068811,17.246167 C 37.068811,17.246167 37.088388,32 37.088388,32 L 22.160133,31.978069 C 22.160133,31.978069 26.997745,27.140456 26.997745,27.140456 C 18.528582,18.264221 13.291696,25.230495 11.500037,31.436501 z"
             style="fill:#404040;"/>
          </a>
         </g>
        </svg>
</svg>
