<?xml version="1.0" encoding="UTF-8" standalone="no"?>
<!DOCTYPE svg PUBLIC "-//W3C//DTD SVG 1.1//EN"
 "http://www.w3.org/Graphics/SVG/1.1/DTD/svg11.dtd">
<!-- Generated by graphviz version 2.40.1 (20161225.0304)
 -->
<!-- Title: /home/travis/build/AliceO2Group/AliceO2/Detectors/CPV/base/include/CPVBase/Hit.h Pages: 1 -->
<!--zoomable 428 -->
<svg id="main" version="1.1" xmlns="http://www.w3.org/2000/svg" xmlns:xlink="http://www.w3.org/1999/xlink" xml:space="preserve" onload="init(evt)">
<style type="text/css"><![CDATA[
.edge:hover path { stroke: red; }
.edge:hover polygon { stroke: red; fill: red; }
]]></style>
<script type="text/javascript"><![CDATA[
var edges = document.getElementsByTagName('g');
if (edges && edges.length) {
  for (var i=0;i<edges.length;i++) {
    if (edges[i].id.substr(0,4)=='edge') {
      edges[i].setAttribute('class','edge');
    }
  }
}
]]></script>
        <defs>
                <circle id="rim" cx="0" cy="0" r="7"/>
                <circle id="rim2" cx="0" cy="0" r="3.5"/>
                <g id="zoomPlus">
                        <use xlink:href="#rim" fill="#404040">
                                <set attributeName="fill" to="#808080" begin="zoomplus.mouseover" end="zoomplus.mouseout"/>
                        </use>
                        <path d="M-4,0h8M0,-4v8" fill="none" stroke="white" stroke-width="1.5" pointer-events="none"/>
                </g>
                <g id="zoomMin">
                        <use xlink:href="#rim" fill="#404040">
                                <set attributeName="fill" to="#808080" begin="zoomminus.mouseover" end="zoomminus.mouseout"/>
                        </use>
                        <path d="M-4,0h8" fill="none" stroke="white" stroke-width="1.5" pointer-events="none"/>
                </g>
                <g id="dirArrow">
                        <path fill="none" stroke="white" stroke-width="1.5" d="M0,-3.0v7 M-2.5,-0.5L0,-3.0L2.5,-0.5"/>
                </g>
               <g id="resetDef">
                       <use xlink:href="#rim2" fill="#404040">
                               <set attributeName="fill" to="#808080" begin="reset.mouseover" end="reset.mouseout"/>
                       </use>
               </g>
        </defs>

<script type="text/javascript">
var viewWidth = 845;
var viewHeight = 428;
var sectionId = 'dynsection-1';
</script>
<script xlink:href="../../svgpan.js"/>
<svg id="graph" class="graph">
<g id="viewport">
<title>/home/travis/build/AliceO2Group/AliceO2/Detectors/CPV/base/include/CPVBase/Hit.h</title>
<!-- Node21 -->
<g id="node1" class="node">
<title>Node21</title>
<polygon fill="#bfbfbf" stroke="#000000" points="334.5,-367.5 334.5,-419.5 488.5,-419.5 488.5,-367.5 334.5,-367.5"/>
<text text-anchor="start" x="342.5" y="-407.5" font-family="Helvetica,sans-Serif" font-size="10.00" fill="#000000">/home/travis/build</text>
<text text-anchor="start" x="342.5" y="-396.5" font-family="Helvetica,sans-Serif" font-size="10.00" fill="#000000">/AliceO2Group/AliceO2</text>
<text text-anchor="start" x="342.5" y="-385.5" font-family="Helvetica,sans-Serif" font-size="10.00" fill="#000000">/Detectors/CPV/base/include</text>
<text text-anchor="middle" x="411.5" y="-374.5" font-family="Helvetica,sans-Serif" font-size="10.00" fill="#000000">/CPVBase/Hit.h</text>
</g>
<!-- Node22 -->
<g id="node2" class="node">
<title>Node22</title>
<g id="a_node2"><a xlink:href="../../d5/d34/Detectors_2CPV_2base_2include_2CPVBase_2Digit_8h.html" target="_top" xlink:title="/home/travis/build\l/AliceO2Group/AliceO2\l/Detectors/CPV/base/include\l/CPVBase/Digit.h">
<polygon fill="none" stroke="#000000" points="153.5,-278.5 153.5,-330.5 307.5,-330.5 307.5,-278.5 153.5,-278.5"/>
<text text-anchor="start" x="161.5" y="-318.5" font-family="Helvetica,sans-Serif" font-size="10.00" fill="#000000">/home/travis/build</text>
<text text-anchor="start" x="161.5" y="-307.5" font-family="Helvetica,sans-Serif" font-size="10.00" fill="#000000">/AliceO2Group/AliceO2</text>
<text text-anchor="start" x="161.5" y="-296.5" font-family="Helvetica,sans-Serif" font-size="10.00" fill="#000000">/Detectors/CPV/base/include</text>
<text text-anchor="middle" x="230.5" y="-285.5" font-family="Helvetica,sans-Serif" font-size="10.00" fill="#000000">/CPVBase/Digit.h</text>
</a>
</g>
</g>
<!-- Node21&#45;&gt;Node22 -->
<g id="edge1" class="edge">
<title>Node21&#45;&gt;Node22</title>
<path fill="none" stroke="#191970" d="M349.1606,-362.8469C327.761,-352.3245 304.0283,-340.6548 283.4459,-330.5341"/>
<polygon fill="#191970" stroke="#191970" points="347.6548,-366.0067 358.173,-367.2784 350.7436,-359.725 347.6548,-366.0067"/>
</g>
<!-- Node24 -->
<g id="node4" class="node">
<title>Node24</title>
<g id="a_node4"><a xlink:href="../../d4/d37/CPV_2simulation_2include_2CPVSimulation_2Digitizer_8h.html" target="_top" xlink:title="/home/travis/build\l/AliceO2Group/AliceO2\l/Detectors/CPV/simulation\l/include/CPVSimulation/Digitizer.h">
<polygon fill="none" stroke="#000000" points="151.5,-189.5 151.5,-241.5 333.5,-241.5 333.5,-189.5 151.5,-189.5"/>
<text text-anchor="start" x="159.5" y="-229.5" font-family="Helvetica,sans-Serif" font-size="10.00" fill="#000000">/home/travis/build</text>
<text text-anchor="start" x="159.5" y="-218.5" font-family="Helvetica,sans-Serif" font-size="10.00" fill="#000000">/AliceO2Group/AliceO2</text>
<text text-anchor="start" x="159.5" y="-207.5" font-family="Helvetica,sans-Serif" font-size="10.00" fill="#000000">/Detectors/CPV/simulation</text>
<text text-anchor="middle" x="242.5" y="-196.5" font-family="Helvetica,sans-Serif" font-size="10.00" fill="#000000">/include/CPVSimulation/Digitizer.h</text>
</a>
</g>
</g>
<!-- Node21&#45;&gt;Node24 -->
<g id="edge14" class="edge">
<title>Node21&#45;&gt;Node24</title>
<path fill="none" stroke="#191970" d="M383.1076,-359.5295C375.4232,-350.2932 367.1235,-340.2788 359.5,-331 340.2439,-307.5629 337.736,-299.6594 316.5,-278 304.0206,-265.2718 289.1886,-252.3687 276.0918,-241.6177"/>
<polygon fill="#191970" stroke="#191970" points="380.5803,-361.964 389.6696,-367.4078 385.9589,-357.484 380.5803,-361.964"/>
</g>
<!-- Node25 -->
<g id="node5" class="node">
<title>Node25</title>
<g id="a_node5"><a xlink:href="../../d7/dff/CPV_2simulation_2include_2CPVSimulation_2DigitizerTask_8h.html" target="_top" xlink:title="/home/travis/build\l/AliceO2Group/AliceO2\l/Detectors/CPV/simulation\l/include/CPVSimulation/Digitizer\lTask.h">
<polygon fill="none" stroke="#000000" points="209.5,-89.5 209.5,-152.5 383.5,-152.5 383.5,-89.5 209.5,-89.5"/>
<text text-anchor="start" x="217.5" y="-140.5" font-family="Helvetica,sans-Serif" font-size="10.00" fill="#000000">/home/travis/build</text>
<text text-anchor="start" x="217.5" y="-129.5" font-family="Helvetica,sans-Serif" font-size="10.00" fill="#000000">/AliceO2Group/AliceO2</text>
<text text-anchor="start" x="217.5" y="-118.5" font-family="Helvetica,sans-Serif" font-size="10.00" fill="#000000">/Detectors/CPV/simulation</text>
<text text-anchor="start" x="217.5" y="-107.5" font-family="Helvetica,sans-Serif" font-size="10.00" fill="#000000">/include/CPVSimulation/Digitizer</text>
<text text-anchor="middle" x="296.5" y="-96.5" font-family="Helvetica,sans-Serif" font-size="10.00" fill="#000000">Task.h</text>
</a>
</g>
</g>
<!-- Node21&#45;&gt;Node25 -->
<g id="edge15" class="edge">
<title>Node21&#45;&gt;Node25</title>
<path fill="none" stroke="#191970" d="M402.5811,-357.716C391.4664,-315.963 370.4739,-245.4496 342.5,-189 336.3611,-176.6122 328.2702,-163.8493 320.5878,-152.774"/>
<polygon fill="#191970" stroke="#191970" points="399.2068,-358.6471 405.1273,-367.4334 405.9782,-356.8728 399.2068,-358.6471"/>
</g>
<!-- Node26 -->
<g id="node6" class="node">
<title>Node26</title>
<g id="a_node6"><a xlink:href="../../de/de0/CPV_2simulation_2src_2DigitizerTask_8cxx.html" target="_top" xlink:title="/home/travis/build\l/AliceO2Group/AliceO2\l/Detectors/CPV/simulation\l/src/DigitizerTask.cxx">
<polygon fill="none" stroke="#000000" points="224.5,-.5 224.5,-52.5 368.5,-52.5 368.5,-.5 224.5,-.5"/>
<text text-anchor="start" x="232.5" y="-40.5" font-family="Helvetica,sans-Serif" font-size="10.00" fill="#000000">/home/travis/build</text>
<text text-anchor="start" x="232.5" y="-29.5" font-family="Helvetica,sans-Serif" font-size="10.00" fill="#000000">/AliceO2Group/AliceO2</text>
<text text-anchor="start" x="232.5" y="-18.5" font-family="Helvetica,sans-Serif" font-size="10.00" fill="#000000">/Detectors/CPV/simulation</text>
<text text-anchor="middle" x="296.5" y="-7.5" font-family="Helvetica,sans-Serif" font-size="10.00" fill="#000000">/src/DigitizerTask.cxx</text>
</a>
</g>
</g>
<!-- Node21&#45;&gt;Node26 -->
<g id="edge17" class="edge">
<title>Node21&#45;&gt;Node26</title>
<path fill="none" stroke="#191970" d="M419.0952,-357.044C429.6319,-296.6958 442.2186,-174.2459 392.5,-89 383.7329,-73.9682 369.7437,-61.9105 355.1265,-52.5499"/>
<polygon fill="#191970" stroke="#191970" points="415.5902,-356.7544 417.2334,-367.221 422.4759,-358.0142 415.5902,-356.7544"/>
</g>
<!-- Node28 -->
<g id="node8" class="node">
<title>Node28</title>
<g id="a_node8"><a xlink:href="../../d2/dfe/Detectors_2CPV_2base_2src_2Hit_8cxx.html" target="_top" xlink:title="/home/travis/build\l/AliceO2Group/AliceO2\l/Detectors/CPV/base/src\l/Hit.cxx">
<polygon fill="none" stroke="#000000" points="440,-278.5 440,-330.5 573,-330.5 573,-278.5 440,-278.5"/>
<text text-anchor="start" x="448" y="-318.5" font-family="Helvetica,sans-Serif" font-size="10.00" fill="#000000">/home/travis/build</text>
<text text-anchor="start" x="448" y="-307.5" font-family="Helvetica,sans-Serif" font-size="10.00" fill="#000000">/AliceO2Group/AliceO2</text>
<text text-anchor="start" x="448" y="-296.5" font-family="Helvetica,sans-Serif" font-size="10.00" fill="#000000">/Detectors/CPV/base/src</text>
<text text-anchor="middle" x="506.5" y="-285.5" font-family="Helvetica,sans-Serif" font-size="10.00" fill="#000000">/Hit.cxx</text>
</a>
</g>
</g>
<!-- Node21&#45;&gt;Node28 -->
<g id="edge8" class="edge">
<title>Node21&#45;&gt;Node28</title>
<path fill="none" stroke="#191970" d="M446.9495,-360.2894C457.4427,-350.459 468.7759,-339.8415 478.7107,-330.5341"/>
<polygon fill="#191970" stroke="#191970" points="444.3942,-357.8873 439.4893,-367.2784 449.18,-362.9958 444.3942,-357.8873"/>
</g>
<!-- Node29 -->
<g id="node9" class="node">
<title>Node29</title>
<g id="a_node9"><a xlink:href="../../d3/de1/CPV_2simulation_2include_2CPVSimulation_2Detector_8h.html" target="_top" xlink:title="/home/travis/build\l/AliceO2Group/AliceO2\l/Detectors/CPV/simulation\l/include/CPVSimulation/Detector.h">
<polygon fill="none" stroke="#000000" points="630,-278.5 630,-330.5 813,-330.5 813,-278.5 630,-278.5"/>
<text text-anchor="start" x="638" y="-318.5" font-family="Helvetica,sans-Serif" font-size="10.00" fill="#000000">/home/travis/build</text>
<text text-anchor="start" x="638" y="-307.5" font-family="Helvetica,sans-Serif" font-size="10.00" fill="#000000">/AliceO2Group/AliceO2</text>
<text text-anchor="start" x="638" y="-296.5" font-family="Helvetica,sans-Serif" font-size="10.00" fill="#000000">/Detectors/CPV/simulation</text>
<text text-anchor="middle" x="721.5" y="-285.5" font-family="Helvetica,sans-Serif" font-size="10.00" fill="#000000">/include/CPVSimulation/Detector.h</text>
</a>
</g>
</g>
<!-- Node21&#45;&gt;Node29 -->
<g id="edge9" class="edge">
<title>Node21&#45;&gt;Node29</title>
<path fill="none" stroke="#191970" d="M498.3016,-368.5795C539.6224,-356.7165 589.0198,-342.5346 630.827,-330.5319"/>
<polygon fill="#191970" stroke="#191970" points="497.1734,-365.262 488.5275,-371.3856 499.1051,-371.9902 497.1734,-365.262"/>
</g>
<!-- Node30 -->
<g id="node10" class="node">
<title>Node30</title>
<g id="a_node10"><a xlink:href="../../de/de0/CPV_2simulation_2src_2Detector_8cxx.html" target="_top" xlink:title="/home/travis/build\l/AliceO2Group/AliceO2\l/Detectors/CPV/simulation\l/src/Detector.cxx">
<polygon fill="none" stroke="#000000" points="529.5,-189.5 529.5,-241.5 673.5,-241.5 673.5,-189.5 529.5,-189.5"/>
<text text-anchor="start" x="537.5" y="-229.5" font-family="Helvetica,sans-Serif" font-size="10.00" fill="#000000">/home/travis/build</text>
<text text-anchor="start" x="537.5" y="-218.5" font-family="Helvetica,sans-Serif" font-size="10.00" fill="#000000">/AliceO2Group/AliceO2</text>
<text text-anchor="start" x="537.5" y="-207.5" font-family="Helvetica,sans-Serif" font-size="10.00" fill="#000000">/Detectors/CPV/simulation</text>
<text text-anchor="middle" x="601.5" y="-196.5" font-family="Helvetica,sans-Serif" font-size="10.00" fill="#000000">/src/Detector.cxx</text>
</a>
</g>
</g>
<!-- Node21&#45;&gt;Node30 -->
<g id="edge16" class="edge">
<title>Node21&#45;&gt;Node30</title>
<path fill="none" stroke="#191970" d="M498.7936,-380.28C529.5212,-371.3121 561.5784,-356.2609 582.5,-331 603.11,-306.1153 605.4479,-267.5871 604.2606,-241.9626"/>
<polygon fill="#191970" stroke="#191970" points="497.6067,-376.9758 488.8797,-382.9831 499.4482,-383.7292 497.6067,-376.9758"/>
</g>
<!-- Node23 -->
<g id="node3" class="node">
<title>Node23</title>
<g id="a_node3"><a xlink:href="../../d9/da9/Detectors_2CPV_2base_2src_2Digit_8cxx.html" target="_top" xlink:title="/home/travis/build\l/AliceO2Group/AliceO2\l/Detectors/CPV/base/src\l/Digit.cxx">
<polygon fill="none" stroke="#000000" points="0,-189.5 0,-241.5 133,-241.5 133,-189.5 0,-189.5"/>
<text text-anchor="start" x="8" y="-229.5" font-family="Helvetica,sans-Serif" font-size="10.00" fill="#000000">/home/travis/build</text>
<text text-anchor="start" x="8" y="-218.5" font-family="Helvetica,sans-Serif" font-size="10.00" fill="#000000">/AliceO2Group/AliceO2</text>
<text text-anchor="start" x="8" y="-207.5" font-family="Helvetica,sans-Serif" font-size="10.00" fill="#000000">/Detectors/CPV/base/src</text>
<text text-anchor="middle" x="66.5" y="-196.5" font-family="Helvetica,sans-Serif" font-size="10.00" fill="#000000">/Digit.cxx</text>
</a>
</g>
</g>
<!-- Node22&#45;&gt;Node23 -->
<g id="edge2" class="edge">
<title>Node22&#45;&gt;Node23</title>
<path fill="none" stroke="#191970" d="M173.2355,-273.4235C154.0505,-263.0122 132.8725,-251.5192 114.473,-241.5341"/>
<polygon fill="#191970" stroke="#191970" points="171.723,-276.5849 182.1816,-278.2784 175.0618,-270.4324 171.723,-276.5849"/>
</g>
<!-- Node22&#45;&gt;Node24 -->
<g id="edge3" class="edge">
<title>Node22&#45;&gt;Node24</title>
<path fill="none" stroke="#191970" d="M235.4058,-268.1155C236.607,-259.2061 237.8689,-249.8475 238.9898,-241.5341"/>
<polygon fill="#191970" stroke="#191970" points="231.9032,-267.9004 234.0355,-278.2784 238.8404,-268.8358 231.9032,-267.9004"/>
</g>
<!-- Node24&#45;&gt;Node25 -->
<g id="edge4" class="edge">
<title>Node24&#45;&gt;Node25</title>
<path fill="none" stroke="#191970" d="M262.4578,-180.5739C267.6742,-171.4451 273.2678,-161.6564 278.3827,-152.7054"/>
<polygon fill="#191970" stroke="#191970" points="259.3213,-179.0084 257.3987,-189.4273 265.399,-182.4814 259.3213,-179.0084"/>
</g>
<!-- Node24&#45;&gt;Node26 -->
<g id="edge7" class="edge">
<title>Node24&#45;&gt;Node26</title>
<path fill="none" stroke="#191970" d="M141.4541,-187.3372C91.8844,-173.0406 41.9843,-157.7117 38.5,-153 21.5873,-130.1298 20.9131,-111.3559 38.5,-89 61.2962,-60.0222 156.3784,-42.8526 224.4843,-34.0504"/>
<polygon fill="#191970" stroke="#191970" points="140.7721,-190.7828 151.3498,-190.1793 142.7045,-184.0547 140.7721,-190.7828"/>
</g>
<!-- Node27 -->
<g id="node7" class="node">
<title>Node27</title>
<g id="a_node7"><a xlink:href="../../d3/d11/CPV_2simulation_2src_2Digitizer_8cxx.html" target="_top" xlink:title="/home/travis/build\l/AliceO2Group/AliceO2\l/Detectors/CPV/simulation\l/src/Digitizer.cxx">
<polygon fill="none" stroke="#000000" points="47.5,-95 47.5,-147 191.5,-147 191.5,-95 47.5,-95"/>
<text text-anchor="start" x="55.5" y="-135" font-family="Helvetica,sans-Serif" font-size="10.00" fill="#000000">/home/travis/build</text>
<text text-anchor="start" x="55.5" y="-124" font-family="Helvetica,sans-Serif" font-size="10.00" fill="#000000">/AliceO2Group/AliceO2</text>
<text text-anchor="start" x="55.5" y="-113" font-family="Helvetica,sans-Serif" font-size="10.00" fill="#000000">/Detectors/CPV/simulation</text>
<text text-anchor="middle" x="119.5" y="-102" font-family="Helvetica,sans-Serif" font-size="10.00" fill="#000000">/src/Digitizer.cxx</text>
</a>
</g>
</g>
<!-- Node24&#45;&gt;Node27 -->
<g id="edge6" class="edge">
<title>Node24&#45;&gt;Node27</title>
<path fill="none" stroke="#191970" d="M200.33,-183.1011C185.1354,-171.4272 168.1884,-158.407 153.7521,-147.3157"/>
<polygon fill="#191970" stroke="#191970" points="198.5019,-186.1103 208.5641,-189.4273 202.7666,-180.5594 198.5019,-186.1103"/>
</g>
<!-- Node25&#45;&gt;Node26 -->
<g id="edge5" class="edge">
<title>Node25&#45;&gt;Node26</title>
<path fill="none" stroke="#191970" d="M296.5,-79.2457C296.5,-70.2008 296.5,-60.8836 296.5,-52.6442"/>
<polygon fill="#191970" stroke="#191970" points="293.0001,-79.2699 296.5,-89.27 300.0001,-79.27 293.0001,-79.2699"/>
</g>
<!-- Node29&#45;&gt;Node30 -->
<g id="edge10" class="edge">
<title>Node29&#45;&gt;Node30</title>
<path fill="none" stroke="#191970" d="M677.8771,-272.1463C664.3026,-262.0786 649.517,-251.1126 636.6022,-241.5341"/>
<polygon fill="#191970" stroke="#191970" points="676.0281,-275.1325 686.1451,-278.2784 680.198,-269.5101 676.0281,-275.1325"/>
</g>
<!-- Node31 -->
<g id="node11" class="node">
<title>Node31</title>
<g id="a_node11"><a xlink:href="../../db/d50/O2HitMerger_8h.html" target="_top" xlink:title="/home/travis/build\l/AliceO2Group/AliceO2\l/run/O2HitMerger.h">
<polygon fill="none" stroke="#000000" points="692,-195 692,-236 819,-236 819,-195 692,-195"/>
<text text-anchor="start" x="700" y="-224" font-family="Helvetica,sans-Serif" font-size="10.00" fill="#000000">/home/travis/build</text>
<text text-anchor="start" x="700" y="-213" font-family="Helvetica,sans-Serif" font-size="10.00" fill="#000000">/AliceO2Group/AliceO2</text>
<text text-anchor="middle" x="755.5" y="-202" font-family="Helvetica,sans-Serif" font-size="10.00" fill="#000000">/run/O2HitMerger.h</text>
</a>
</g>
</g>
<!-- Node29&#45;&gt;Node31 -->
<g id="edge11" class="edge">
<title>Node29&#45;&gt;Node31</title>
<path fill="none" stroke="#191970" d="M735.1358,-268.8062C739.3703,-257.722 743.8947,-245.8785 747.6009,-236.1771"/>
<polygon fill="#191970" stroke="#191970" points="731.8164,-267.6878 731.5172,-278.2784 738.3555,-270.1859 731.8164,-267.6878"/>
</g>
<!-- Node31&#45;&gt;Node31 -->
<g id="edge12" class="edge">
<title>Node31&#45;&gt;Node31</title>
<path fill="none" stroke="#191970" d="M828.6757,-227.5715C833.8451,-224.8251 837,-220.8013 837,-215.5 837,-207.4219 829.6744,-202.3099 819.058,-200.1642"/>
<polygon fill="#191970" stroke="#191970" points="827.4026,-224.3075 819.058,-230.8358 829.6524,-230.9361 827.4026,-224.3075"/>
</g>
<!-- Node32 -->
<g id="node12" class="node">
<title>Node32</title>
<g id="a_node12"><a xlink:href="../../d9/d16/O2HitMergerRunner_8cxx.html" target="_top" xlink:title="/home/travis/build\l/AliceO2Group/AliceO2\l/run/O2HitMergerRunner.cxx">
<polygon fill="none" stroke="#000000" points="679,-100.5 679,-141.5 832,-141.5 832,-100.5 679,-100.5"/>
<text text-anchor="start" x="687" y="-129.5" font-family="Helvetica,sans-Serif" font-size="10.00" fill="#000000">/home/travis/build</text>
<text text-anchor="start" x="687" y="-118.5" font-family="Helvetica,sans-Serif" font-size="10.00" fill="#000000">/AliceO2Group/AliceO2</text>
<text text-anchor="middle" x="755.5" y="-107.5" font-family="Helvetica,sans-Serif" font-size="10.00" fill="#000000">/run/O2HitMergerRunner.cxx</text>
</a>
</g>
</g>
<!-- Node31&#45;&gt;Node32 -->
<g id="edge13" class="edge">
<title>Node31&#45;&gt;Node32</title>
<path fill="none" stroke="#191970" d="M755.5,-184.7694C755.5,-170.6989 755.5,-154.3926 755.5,-141.7914"/>
<polygon fill="#191970" stroke="#191970" points="752.0001,-184.9949 755.5,-194.9949 759.0001,-184.9949 752.0001,-184.9949"/>
</g>
</g>
</svg>
        <g id="navigator" transform="translate(0 0)" fill="#404254">
                <rect fill="#f2f5e9" fill-opacity="0.5" stroke="#606060" stroke-width=".5" x="0" y="0" width="60" height="60"/>
                <use id="zoomplus" xlink:href="#zoomPlus" x="17" y="9" onmousedown="handleZoom(evt,'in')"/>
                <use id="zoomminus" xlink:href="#zoomMin" x="42" y="9" onmousedown="handleZoom(evt,'out')"/>
                <use id="reset" xlink:href="#resetDef" x="30" y="36" onmousedown="handleReset()"/>
                <g id="arrowUp" xlink:href="#dirArrow" transform="translate(30 24)" onmousedown="handlePan(0,-1)">
                  <use xlink:href="#rim" fill="#404040">
                        <set attributeName="fill" to="#808080" begin="arrowUp.mouseover" end="arrowUp.mouseout"/>
                  </use>
                  <path fill="none" stroke="white" stroke-width="1.5" d="M0,-3.0v7 M-2.5,-0.5L0,-3.0L2.5,-0.5"/>
                </g>
                <g id="arrowRight" xlink:href="#dirArrow" transform="rotate(90) translate(36 -43)" onmousedown="handlePan(1,0)">
                  <use xlink:href="#rim" fill="#404040">
                        <set attributeName="fill" to="#808080" begin="arrowRight.mouseover" end="arrowRight.mouseout"/>
                  </use>
                  <path fill="none" stroke="white" stroke-width="1.5" d="M0,-3.0v7 M-2.5,-0.5L0,-3.0L2.5,-0.5"/>
                </g>
                <g id="arrowDown" xlink:href="#dirArrow" transform="rotate(180) translate(-30 -48)" onmousedown="handlePan(0,1)">
                  <use xlink:href="#rim" fill="#404040">
                        <set attributeName="fill" to="#808080" begin="arrowDown.mouseover" end="arrowDown.mouseout"/>
                  </use>
                  <path fill="none" stroke="white" stroke-width="1.5" d="M0,-3.0v7 M-2.5,-0.5L0,-3.0L2.5,-0.5"/>
                </g>
                <g id="arrowLeft" xlink:href="#dirArrow" transform="rotate(270) translate(-36 17)" onmousedown="handlePan(-1,0)">
                  <use xlink:href="#rim" fill="#404040">
                        <set attributeName="fill" to="#808080" begin="arrowLeft.mouseover" end="arrowLeft.mouseout"/>
                  </use>
                  <path fill="none" stroke="white" stroke-width="1.5" d="M0,-3.0v7 M-2.5,-0.5L0,-3.0L2.5,-0.5"/>
                </g>
        </g>
        <svg viewBox="0 0 15 15" width="100%" height="30px" preserveAspectRatio="xMaxYMin meet">
         <g id="arrow_out" transform="scale(0.3 0.3)">
          <a xlink:href="Detectors_2CPV_2base_2include_2CPVBase_2Hit_8h__dep__incl_org.svg" target="_base">
           <rect id="button" ry="5" rx="5" y="6" x="6" height="38" width="38"
                fill="#f2f5e9" fill-opacity="0.5" stroke="#606060" stroke-width="1.0"/>
           <path id="arrow"
             d="M 11.500037,31.436501 C 11.940474,20.09759 22.043105,11.32322 32.158766,21.979434 L 37.068811,17.246167 C 37.068811,17.246167 37.088388,32 37.088388,32 L 22.160133,31.978069 C 22.160133,31.978069 26.997745,27.140456 26.997745,27.140456 C 18.528582,18.264221 13.291696,25.230495 11.500037,31.436501 z"
             style="fill:#404040;"/>
          </a>
         </g>
        </svg>
</svg>
