<?xml version="1.0" encoding="UTF-8" standalone="no"?>
<!DOCTYPE svg PUBLIC "-//W3C//DTD SVG 1.1//EN"
 "http://www.w3.org/Graphics/SVG/1.1/DTD/svg11.dtd">
<!-- Generated by graphviz version 2.40.1 (20161225.0304)
 -->
<!-- Title: o2::globaltracking::ABClusterLink Pages: 1 -->
<svg width="192pt" height="237pt"
 viewBox="0.00 0.00 191.50 237.00" xmlns="http://www.w3.org/2000/svg" xmlns:xlink="http://www.w3.org/1999/xlink">
<g id="graph0" class="graph" transform="scale(1 1) rotate(0) translate(4 233)">
<title>o2::globaltracking::ABClusterLink</title>
<!-- Node1 -->
<g id="node1" class="node">
<title>Node1</title>
<polygon fill="#bfbfbf" stroke="#000000" points="24.5,-.5 24.5,-101.5 128.5,-101.5 128.5,-.5 24.5,-.5"/>
<text text-anchor="start" x="32.5" y="-89.5" font-family="Helvetica,sans-Serif" font-size="10.00" fill="#000000">o2::globaltracking</text>
<text text-anchor="middle" x="76.5" y="-78.5" font-family="Helvetica,sans-Serif" font-size="10.00" fill="#000000">::ABClusterLink</text>
<polyline fill="none" stroke="#000000" points="24.5,-71.5 128.5,-71.5 "/>
<text text-anchor="middle" x="76.5" y="-59.5" font-family="Helvetica,sans-Serif" font-size="10.00" fill="#000000"> </text>
<polyline fill="none" stroke="#000000" points="24.5,-52.5 128.5,-52.5 "/>
<text text-anchor="start" x="32.5" y="-40.5" font-family="Helvetica,sans-Serif" font-size="10.00" fill="#000000">+ ABClusterLink()</text>
<text text-anchor="start" x="32.5" y="-29.5" font-family="Helvetica,sans-Serif" font-size="10.00" fill="#000000">+ ABClusterLink()</text>
<text text-anchor="start" x="32.5" y="-18.5" font-family="Helvetica,sans-Serif" font-size="10.00" fill="#000000">+ isDisabled()</text>
<text text-anchor="start" x="32.5" y="-7.5" font-family="Helvetica,sans-Serif" font-size="10.00" fill="#000000">+ disable()</text>
</g>
<!-- Node2 -->
<g id="node2" class="node">
<title>Node2</title>
<polygon fill="none" stroke="#bfbfbf" points="0,-171.5 0,-228.5 29,-228.5 29,-171.5 0,-171.5"/>
<text text-anchor="middle" x="14.5" y="-216.5" font-family="Helvetica,sans-Serif" font-size="10.00" fill="#000000">int</text>
<polyline fill="none" stroke="#bfbfbf" points="0,-209.5 29,-209.5 "/>
<text text-anchor="middle" x="14.5" y="-197.5" font-family="Helvetica,sans-Serif" font-size="10.00" fill="#000000"> </text>
<polyline fill="none" stroke="#bfbfbf" points="0,-190.5 29,-190.5 "/>
<text text-anchor="middle" x="14.5" y="-178.5" font-family="Helvetica,sans-Serif" font-size="10.00" fill="#000000"> </text>
</g>
<!-- Node2&#45;&gt;Node1 -->
<g id="edge1" class="edge">
<title>Node2&#45;&gt;Node1</title>
<path fill="none" stroke="#404040" d="M10.108,-171.3192C8.8654,-155.6518 9.2503,-136.1987 15.5,-120 16.482,-117.4547 17.6041,-114.9422 18.8432,-112.4694"/>
<polygon fill="none" stroke="#404040" points="18.9464,-112.2909 18.4879,-105.0944 24.9544,-101.9032 25.413,-109.0997 18.9464,-112.2909"/>
<text text-anchor="middle" x="66.5" y="-145" font-family="Helvetica,sans-Serif" font-size="10.00" fill="#000000"> +nextABClusterLink</text>
<text text-anchor="middle" x="66.5" y="-134" font-family="Helvetica,sans-Serif" font-size="10.00" fill="#000000">+linkedABTrack</text>
<text text-anchor="middle" x="66.5" y="-123" font-family="Helvetica,sans-Serif" font-size="10.00" fill="#000000">+linkedABTrackList</text>
</g>
<!-- Node3 -->
<g id="node3" class="node">
<title>Node3</title>
<polygon fill="none" stroke="#bfbfbf" points="117.5,-171.5 117.5,-228.5 161.5,-228.5 161.5,-171.5 117.5,-171.5"/>
<text text-anchor="middle" x="139.5" y="-216.5" font-family="Helvetica,sans-Serif" font-size="10.00" fill="#000000">static</text>
<polyline fill="none" stroke="#bfbfbf" points="117.5,-209.5 161.5,-209.5 "/>
<text text-anchor="middle" x="139.5" y="-197.5" font-family="Helvetica,sans-Serif" font-size="10.00" fill="#000000"> </text>
<polyline fill="none" stroke="#bfbfbf" points="117.5,-190.5 161.5,-190.5 "/>
<text text-anchor="middle" x="139.5" y="-178.5" font-family="Helvetica,sans-Serif" font-size="10.00" fill="#000000"> </text>
</g>
<!-- Node3&#45;&gt;Node1 -->
<g id="edge2" class="edge">
<title>Node3&#45;&gt;Node1</title>
<path fill="none" stroke="#404040" d="M133.562,-171.235C129.8729,-155.719 124.4927,-136.4359 117.5,-120 116.4584,-117.5518 115.3441,-115.0849 114.1737,-112.6158"/>
<polygon fill="none" stroke="#404040" points="114.1366,-112.542 107.8638,-108.9849 108.7347,-101.8266 115.0075,-105.3837 114.1366,-112.542"/>
<text text-anchor="middle" x="156" y="-134" font-family="Helvetica,sans-Serif" font-size="10.00" fill="#000000"> +Disabled</text>
</g>
</g>
</svg>
