<?xml version="1.0" encoding="UTF-8" standalone="no"?>
<!DOCTYPE svg PUBLIC "-//W3C//DTD SVG 1.1//EN"
 "http://www.w3.org/Graphics/SVG/1.1/DTD/svg11.dtd">
<!-- Generated by graphviz version 2.40.1 (20161225.0304)
 -->
<!-- Title: UnaryKernel Pages: 1 -->
<svg width="453pt" height="193pt"
 viewBox="0.00 0.00 453.00 193.00" xmlns="http://www.w3.org/2000/svg" xmlns:xlink="http://www.w3.org/1999/xlink">
<g id="graph0" class="graph" transform="scale(1 1) rotate(0) translate(4 189)">
<title>UnaryKernel</title>
<!-- Node0 -->
<g id="node1" class="node">
<title>Node0</title>
<polygon fill="#bfbfbf" stroke="#000000" points="226,-127.5 226,-184.5 303,-184.5 303,-127.5 226,-127.5"/>
<text text-anchor="middle" x="264.5" y="-172.5" font-family="Helvetica,sans-Serif" font-size="10.00" fill="#000000">UnaryKernel</text>
<polyline fill="none" stroke="#000000" points="226,-165.5 303,-165.5 "/>
<text text-anchor="middle" x="264.5" y="-153.5" font-family="Helvetica,sans-Serif" font-size="10.00" fill="#000000"> </text>
<polyline fill="none" stroke="#000000" points="226,-146.5 303,-146.5 "/>
<text text-anchor="middle" x="264.5" y="-134.5" font-family="Helvetica,sans-Serif" font-size="10.00" fill="#000000"> </text>
</g>
<!-- Node1 -->
<g id="node2" class="node">
<title>Node1</title>
<g id="a_node2"><a xlink:href="../../d1/d1f/classo2_1_1framework_1_1HashByColumnKernel.html" target="_top" xlink:title="{o2::framework::HashByColumn\lKernel\n||+ HashByColumnKernel()\l+ Call()\l+ out_type()\l}">
<polygon fill="none" stroke="#000000" points="0,-.5 0,-90.5 169,-90.5 169,-.5 0,-.5"/>
<text text-anchor="start" x="8" y="-78.5" font-family="Helvetica,sans-Serif" font-size="10.00" fill="#000000">o2::framework::HashByColumn</text>
<text text-anchor="middle" x="84.5" y="-67.5" font-family="Helvetica,sans-Serif" font-size="10.00" fill="#000000">Kernel</text>
<polyline fill="none" stroke="#000000" points="0,-60.5 169,-60.5 "/>
<text text-anchor="middle" x="84.5" y="-48.5" font-family="Helvetica,sans-Serif" font-size="10.00" fill="#000000"> </text>
<polyline fill="none" stroke="#000000" points="0,-41.5 169,-41.5 "/>
<text text-anchor="start" x="8" y="-29.5" font-family="Helvetica,sans-Serif" font-size="10.00" fill="#000000">+ HashByColumnKernel()</text>
<text text-anchor="start" x="8" y="-18.5" font-family="Helvetica,sans-Serif" font-size="10.00" fill="#000000">+ Call()</text>
<text text-anchor="start" x="8" y="-7.5" font-family="Helvetica,sans-Serif" font-size="10.00" fill="#000000">+ out_type()</text>
</a>
</g>
</g>
<!-- Node0&#45;&gt;Node1 -->
<g id="edge1" class="edge">
<title>Node0&#45;&gt;Node1</title>
<path fill="none" stroke="#191970" d="M217.2393,-126.9872C199.0957,-115.849 177.934,-102.8581 157.9076,-90.5641"/>
<polygon fill="none" stroke="#191970" points="215.5321,-130.046 225.8855,-132.295 219.1943,-124.0804 215.5321,-130.046"/>
</g>
<!-- Node2 -->
<g id="node3" class="node">
<title>Node2</title>
<g id="a_node3"><a xlink:href="../../db/d8a/classo2_1_1framework_1_1SortedGroupByKernel.html" target="_top" xlink:title="Build ranges. ">
<polygon fill="none" stroke="#000000" points="187,-.5 187,-90.5 342,-90.5 342,-.5 187,-.5"/>
<text text-anchor="start" x="195" y="-78.5" font-family="Helvetica,sans-Serif" font-size="10.00" fill="#000000">o2::framework::SortedGroup</text>
<text text-anchor="middle" x="264.5" y="-67.5" font-family="Helvetica,sans-Serif" font-size="10.00" fill="#000000">ByKernel</text>
<polyline fill="none" stroke="#000000" points="187,-60.5 342,-60.5 "/>
<text text-anchor="middle" x="264.5" y="-48.5" font-family="Helvetica,sans-Serif" font-size="10.00" fill="#000000"> </text>
<polyline fill="none" stroke="#000000" points="187,-41.5 342,-41.5 "/>
<text text-anchor="start" x="195" y="-29.5" font-family="Helvetica,sans-Serif" font-size="10.00" fill="#000000">+ SortedGroupByKernel()</text>
<text text-anchor="start" x="195" y="-18.5" font-family="Helvetica,sans-Serif" font-size="10.00" fill="#000000">+ Call()</text>
<text text-anchor="start" x="195" y="-7.5" font-family="Helvetica,sans-Serif" font-size="10.00" fill="#000000">+ out_type()</text>
</a>
</g>
</g>
<!-- Node0&#45;&gt;Node2 -->
<g id="edge2" class="edge">
<title>Node0&#45;&gt;Node2</title>
<path fill="none" stroke="#191970" d="M264.5,-117.1977C264.5,-108.667 264.5,-99.5607 264.5,-90.7995"/>
<polygon fill="none" stroke="#191970" points="261.0001,-117.2559 264.5,-127.2559 268.0001,-117.2559 261.0001,-117.2559"/>
</g>
<!-- Node3 -->
<g id="node4" class="node">
<title>Node3</title>
<g id="a_node4"><a xlink:href="../../d6/d60/classPrintingKernel.html" target="_top" xlink:title="{PrintingKernel\n|+ mType\l|+ Call()\l+ out_type()\l}">
<polygon fill="none" stroke="#000000" points="360,-11.5 360,-79.5 445,-79.5 445,-11.5 360,-11.5"/>
<text text-anchor="middle" x="402.5" y="-67.5" font-family="Helvetica,sans-Serif" font-size="10.00" fill="#000000">PrintingKernel</text>
<polyline fill="none" stroke="#000000" points="360,-60.5 445,-60.5 "/>
<text text-anchor="start" x="368" y="-48.5" font-family="Helvetica,sans-Serif" font-size="10.00" fill="#000000">+ mType</text>
<polyline fill="none" stroke="#000000" points="360,-41.5 445,-41.5 "/>
<text text-anchor="start" x="368" y="-29.5" font-family="Helvetica,sans-Serif" font-size="10.00" fill="#000000">+ Call()</text>
<text text-anchor="start" x="368" y="-18.5" font-family="Helvetica,sans-Serif" font-size="10.00" fill="#000000">+ out_type()</text>
</a>
</g>
</g>
<!-- Node0&#45;&gt;Node3 -->
<g id="edge3" class="edge">
<title>Node0&#45;&gt;Node3</title>
<path fill="none" stroke="#191970" d="M311.2257,-122.2512C324.4274,-112.4047 338.6837,-101.4718 351.5,-91 355.9105,-87.3963 360.4601,-83.5444 364.9414,-79.664"/>
<polygon fill="none" stroke="#191970" points="309.1129,-119.4605 303.1643,-128.2278 313.2819,-125.0837 309.1129,-119.4605"/>
</g>
</g>
</svg>
