<?xml version="1.0" encoding="UTF-8" standalone="no"?>
<!DOCTYPE svg PUBLIC "-//W3C//DTD SVG 1.1//EN"
 "http://www.w3.org/Graphics/SVG/1.1/DTD/svg11.dtd">
<!-- Generated by graphviz version 2.40.1 (20161225.0304)
 -->
<!-- Title: o2::mch::raw::StateMachine_&lt; CHARGESUM &gt; Pages: 1 -->
<!--zoomable 578 -->
<svg id="main" version="1.1" xmlns="http://www.w3.org/2000/svg" xmlns:xlink="http://www.w3.org/1999/xlink" xml:space="preserve" onload="init(evt)">
<style type="text/css"><![CDATA[
.edge:hover path { stroke: red; }
.edge:hover polygon { stroke: red; fill: red; }
]]></style>
<script type="text/javascript"><![CDATA[
var edges = document.getElementsByTagName('g');
if (edges && edges.length) {
  for (var i=0;i<edges.length;i++) {
    if (edges[i].id.substr(0,4)=='edge') {
      edges[i].setAttribute('class','edge');
    }
  }
}
]]></script>
        <defs>
                <circle id="rim" cx="0" cy="0" r="7"/>
                <circle id="rim2" cx="0" cy="0" r="3.5"/>
                <g id="zoomPlus">
                        <use xlink:href="#rim" fill="#404040">
                                <set attributeName="fill" to="#808080" begin="zoomplus.mouseover" end="zoomplus.mouseout"/>
                        </use>
                        <path d="M-4,0h8M0,-4v8" fill="none" stroke="white" stroke-width="1.5" pointer-events="none"/>
                </g>
                <g id="zoomMin">
                        <use xlink:href="#rim" fill="#404040">
                                <set attributeName="fill" to="#808080" begin="zoomminus.mouseover" end="zoomminus.mouseout"/>
                        </use>
                        <path d="M-4,0h8" fill="none" stroke="white" stroke-width="1.5" pointer-events="none"/>
                </g>
                <g id="dirArrow">
                        <path fill="none" stroke="white" stroke-width="1.5" d="M0,-3.0v7 M-2.5,-0.5L0,-3.0L2.5,-0.5"/>
                </g>
               <g id="resetDef">
                       <use xlink:href="#rim2" fill="#404040">
                               <set attributeName="fill" to="#808080" begin="reset.mouseover" end="reset.mouseout"/>
                       </use>
               </g>
        </defs>

<script type="text/javascript">
var viewWidth = 1168;
var viewHeight = 578;
var sectionId = 'dynsection-1';
</script>
<script xlink:href="../../svgpan.js"/>
<svg id="graph" class="graph">
<g id="viewport">
<title>o2::mch::raw::StateMachine_&lt; CHARGESUM &gt;</title>
<!-- Node2 -->
<g id="node1" class="node">
<title>Node2</title>
<polygon fill="#bfbfbf" stroke="#000000" points="546,-.5 546,-123.5 697,-123.5 697,-.5 546,-.5"/>
<text text-anchor="start" x="554" y="-111.5" font-family="Helvetica,sans-Serif" font-size="10.00" fill="#000000">o2::mch::raw::StateMachine</text>
<text text-anchor="middle" x="621.5" y="-100.5" font-family="Helvetica,sans-Serif" font-size="10.00" fill="#000000">_&lt; CHARGESUM &gt;</text>
<polyline fill="none" stroke="#000000" points="546,-93.5 697,-93.5 "/>
<text text-anchor="middle" x="621.5" y="-81.5" font-family="Helvetica,sans-Serif" font-size="10.00" fill="#000000"> </text>
<polyline fill="none" stroke="#000000" points="546,-74.5 697,-74.5 "/>
<text text-anchor="start" x="554" y="-62.5" font-family="Helvetica,sans-Serif" font-size="10.00" fill="#000000">+ data10()</text>
<text text-anchor="start" x="554" y="-51.5" font-family="Helvetica,sans-Serif" font-size="10.00" fill="#000000">+ channelNumber()</text>
<text text-anchor="start" x="554" y="-40.5" font-family="Helvetica,sans-Serif" font-size="10.00" fill="#000000">+ pop10()</text>
<text text-anchor="start" x="554" y="-29.5" font-family="Helvetica,sans-Serif" font-size="10.00" fill="#000000">+ addSample()</text>
<text text-anchor="start" x="554" y="-18.5" font-family="Helvetica,sans-Serif" font-size="10.00" fill="#000000">+ addChargeSum()</text>
<text text-anchor="start" x="554" y="-7.5" font-family="Helvetica,sans-Serif" font-size="10.00" fill="#000000">+ no_transition()</text>
</g>
<!-- Node3 -->
<g id="node2" class="node">
<title>Node3</title>
<polygon fill="none" stroke="#bfbfbf" points="0,-347.5 0,-415.5 217,-415.5 217,-347.5 0,-347.5"/>
<text text-anchor="start" x="8" y="-403.5" font-family="Helvetica,sans-Serif" font-size="10.00" fill="#000000">msm::front::state_machine</text>
<text text-anchor="middle" x="108.5" y="-392.5" font-family="Helvetica,sans-Serif" font-size="10.00" fill="#000000">_def&lt; StateMachine_&lt; CHARGESUM &gt; &gt;</text>
<polyline fill="none" stroke="#bfbfbf" points="0,-385.5 217,-385.5 "/>
<text text-anchor="middle" x="108.5" y="-373.5" font-family="Helvetica,sans-Serif" font-size="10.00" fill="#000000"> </text>
<polyline fill="none" stroke="#bfbfbf" points="0,-366.5 217,-366.5 "/>
<text text-anchor="middle" x="108.5" y="-354.5" font-family="Helvetica,sans-Serif" font-size="10.00" fill="#000000"> </text>
</g>
<!-- Node3&#45;&gt;Node2 -->
<g id="edge1" class="edge">
<title>Node3&#45;&gt;Node2</title>
<path fill="none" stroke="#191970" d="M125.6304,-338.2016C144.4664,-295.7469 178.5551,-231.8958 226.5,-193 320.3402,-116.8712 460.1618,-84.301 545.8301,-70.8678"/>
<polygon fill="none" stroke="#191970" points="122.3886,-336.8801 121.619,-347.4469 128.8102,-339.6663 122.3886,-336.8801"/>
</g>
<!-- Node4 -->
<g id="node3" class="node">
<title>Node4</title>
<polygon fill="none" stroke="#bfbfbf" points="235.5,-353 235.5,-410 351.5,-410 351.5,-353 235.5,-353"/>
<text text-anchor="middle" x="293.5" y="-398" font-family="Helvetica,sans-Serif" font-size="10.00" fill="#000000">array&lt; uint64_t, 5 &gt;</text>
<polyline fill="none" stroke="#bfbfbf" points="235.5,-391 351.5,-391 "/>
<text text-anchor="middle" x="293.5" y="-379" font-family="Helvetica,sans-Serif" font-size="10.00" fill="#000000"> </text>
<polyline fill="none" stroke="#bfbfbf" points="235.5,-372 351.5,-372 "/>
<text text-anchor="middle" x="293.5" y="-360" font-family="Helvetica,sans-Serif" font-size="10.00" fill="#000000"> </text>
</g>
<!-- Node4&#45;&gt;Node2 -->
<g id="edge2" class="edge">
<title>Node4&#45;&gt;Node2</title>
<path fill="none" stroke="#404040" d="M296.9773,-352.9419C304.9081,-301.37 329.4222,-193.3003 399.5,-142 439.319,-112.8506 490.8166,-93.4206 534.1866,-81.0171"/>
<polygon fill="none" stroke="#404040" points="534.3291,-80.9778 539.0465,-75.5238 545.8954,-77.7807 541.178,-83.2347 534.3291,-80.9778"/>
<text text-anchor="middle" x="421.5" y="-156" font-family="Helvetica,sans-Serif" font-size="10.00" fill="#000000"> +masks</text>
</g>
<!-- Node5 -->
<g id="node4" class="node">
<title>Node5</title>
<polygon fill="none" stroke="#bfbfbf" points="369.5,-353 369.5,-410 425.5,-410 425.5,-353 369.5,-353"/>
<text text-anchor="middle" x="397.5" y="-398" font-family="Helvetica,sans-Serif" font-size="10.00" fill="#000000">uint64_t</text>
<polyline fill="none" stroke="#bfbfbf" points="369.5,-391 425.5,-391 "/>
<text text-anchor="middle" x="397.5" y="-379" font-family="Helvetica,sans-Serif" font-size="10.00" fill="#000000"> </text>
<polyline fill="none" stroke="#bfbfbf" points="369.5,-372 425.5,-372 "/>
<text text-anchor="middle" x="397.5" y="-360" font-family="Helvetica,sans-Serif" font-size="10.00" fill="#000000"> </text>
</g>
<!-- Node5&#45;&gt;Node2 -->
<g id="edge3" class="edge">
<title>Node5&#45;&gt;Node2</title>
<path fill="none" stroke="#404040" d="M398.5786,-352.9175C401.0061,-314.6898 408.8924,-245.6304 434.5,-193 454.9494,-150.9711 496.2336,-119.8672 534.821,-98.5407"/>
<polygon fill="none" stroke="#404040" points="535.0256,-98.4316 538.437,-92.0784 545.6135,-92.7839 542.2022,-99.1371 535.0256,-98.4316"/>
<text text-anchor="middle" x="487.5" y="-156" font-family="Helvetica,sans-Serif" font-size="10.00" fill="#000000"> +data</text>
</g>
<!-- Node6 -->
<g id="node5" class="node">
<title>Node6</title>
<polygon fill="none" stroke="#bfbfbf" points="443.5,-342 443.5,-421 577.5,-421 577.5,-342 443.5,-342"/>
<text text-anchor="start" x="451.5" y="-409" font-family="Helvetica,sans-Serif" font-size="10.00" fill="#000000">function&lt; void(DsElecId</text>
<text text-anchor="start" x="451.5" y="-398" font-family="Helvetica,sans-Serif" font-size="10.00" fill="#000000"> dsId, uint8_t channel,</text>
<text text-anchor="middle" x="510.5" y="-387" font-family="Helvetica,sans-Serif" font-size="10.00" fill="#000000"> SampaCluster)&gt;</text>
<polyline fill="none" stroke="#bfbfbf" points="443.5,-380 577.5,-380 "/>
<text text-anchor="middle" x="510.5" y="-368" font-family="Helvetica,sans-Serif" font-size="10.00" fill="#000000"> </text>
<polyline fill="none" stroke="#bfbfbf" points="443.5,-361 577.5,-361 "/>
<text text-anchor="middle" x="510.5" y="-349" font-family="Helvetica,sans-Serif" font-size="10.00" fill="#000000"> </text>
</g>
<!-- Node6&#45;&gt;Node2 -->
<g id="edge4" class="edge">
<title>Node6&#45;&gt;Node2</title>
<path fill="none" stroke="#404040" d="M504.8597,-341.7542C499.7223,-292.1513 497.194,-206.0566 529.5,-142 531.9796,-137.0833 534.9054,-132.3398 538.161,-127.785"/>
<polygon fill="none" stroke="#404040" points="538.3465,-127.5494 538.9155,-120.3607 545.77,-118.121 545.201,-125.3097 538.3465,-127.5494"/>
<text text-anchor="middle" x="573.5" y="-156" font-family="Helvetica,sans-Serif" font-size="10.00" fill="#000000"> +channelHandler</text>
</g>
<!-- Node7 -->
<g id="node6" class="node">
<title>Node7</title>
<polygon fill="none" stroke="#bfbfbf" points="595.5,-353 595.5,-410 651.5,-410 651.5,-353 595.5,-353"/>
<text text-anchor="middle" x="623.5" y="-398" font-family="Helvetica,sans-Serif" font-size="10.00" fill="#000000">uint16_t</text>
<polyline fill="none" stroke="#bfbfbf" points="595.5,-391 651.5,-391 "/>
<text text-anchor="middle" x="623.5" y="-379" font-family="Helvetica,sans-Serif" font-size="10.00" fill="#000000"> </text>
<polyline fill="none" stroke="#bfbfbf" points="595.5,-372 651.5,-372 "/>
<text text-anchor="middle" x="623.5" y="-360" font-family="Helvetica,sans-Serif" font-size="10.00" fill="#000000"> </text>
</g>
<!-- Node7&#45;&gt;Node2 -->
<g id="edge5" class="edge">
<title>Node7&#45;&gt;Node2</title>
<path fill="none" stroke="#404040" d="M623.3208,-352.8653C623.0173,-304.3884 622.3933,-204.6989 621.9609,-135.6358"/>
<polygon fill="none" stroke="#404040" points="621.9605,-135.5446 617.9229,-129.5698 621.8853,-123.5448 625.9228,-129.5196 621.9605,-135.5446"/>
<text text-anchor="middle" x="661.5" y="-167" font-family="Helvetica,sans-Serif" font-size="10.00" fill="#000000"> +clusterTime</text>
<text text-anchor="middle" x="661.5" y="-156" font-family="Helvetica,sans-Serif" font-size="10.00" fill="#000000">+clusterSize</text>
<text text-anchor="middle" x="661.5" y="-145" font-family="Helvetica,sans-Serif" font-size="10.00" fill="#000000">+nof10BitWords</text>
</g>
<!-- Node8 -->
<g id="node7" class="node">
<title>Node8</title>
<polygon fill="none" stroke="#bfbfbf" points="669.5,-353 669.5,-410 779.5,-410 779.5,-353 669.5,-353"/>
<text text-anchor="middle" x="724.5" y="-398" font-family="Helvetica,sans-Serif" font-size="10.00" fill="#000000">vector&lt; uint16_t &gt;</text>
<polyline fill="none" stroke="#bfbfbf" points="669.5,-391 779.5,-391 "/>
<text text-anchor="middle" x="724.5" y="-379" font-family="Helvetica,sans-Serif" font-size="10.00" fill="#000000"> </text>
<polyline fill="none" stroke="#bfbfbf" points="669.5,-372 779.5,-372 "/>
<text text-anchor="middle" x="724.5" y="-360" font-family="Helvetica,sans-Serif" font-size="10.00" fill="#000000"> </text>
</g>
<!-- Node8&#45;&gt;Node2 -->
<g id="edge6" class="edge">
<title>Node8&#45;&gt;Node2</title>
<path fill="none" stroke="#404040" d="M727.9453,-352.9452C732.2842,-306.3199 735.6037,-212.0248 702.5,-142 701.2527,-139.3615 699.8798,-136.7613 698.4,-134.2037"/>
<polygon fill="none" stroke="#404040" points="698.2787,-134.0162 691.6615,-131.1505 691.7616,-123.9401 698.3789,-126.8058 698.2787,-134.0162"/>
<text text-anchor="middle" x="740" y="-156" font-family="Helvetica,sans-Serif" font-size="10.00" fill="#000000"> +samples</text>
</g>
<!-- Node9 -->
<g id="node8" class="node">
<title>Node9</title>
<g id="a_node8"><a xlink:href="../../d8/d90/classo2_1_1mch_1_1raw_1_1SampaHeader.html" target="_top" xlink:title="SampaHeader is the 50&#45;bits header word used in Sampa data transmission protocol. ">
<polygon fill="none" stroke="#000000" points="797.5,-193.5 797.5,-569.5 951.5,-569.5 951.5,-193.5 797.5,-193.5"/>
<text text-anchor="middle" x="874.5" y="-557.5" font-family="Helvetica,sans-Serif" font-size="10.00" fill="#000000">o2::mch::raw::SampaHeader</text>
<polyline fill="none" stroke="#000000" points="797.5,-550.5 951.5,-550.5 "/>
<text text-anchor="middle" x="874.5" y="-538.5" font-family="Helvetica,sans-Serif" font-size="10.00" fill="#000000"> </text>
<polyline fill="none" stroke="#000000" points="797.5,-531.5 951.5,-531.5 "/>
<text text-anchor="start" x="805.5" y="-519.5" font-family="Helvetica,sans-Serif" font-size="10.00" fill="#000000">+ SampaHeader()</text>
<text text-anchor="start" x="805.5" y="-508.5" font-family="Helvetica,sans-Serif" font-size="10.00" fill="#000000">+ SampaHeader()</text>
<text text-anchor="start" x="805.5" y="-497.5" font-family="Helvetica,sans-Serif" font-size="10.00" fill="#000000">+ operator==()</text>
<text text-anchor="start" x="805.5" y="-486.5" font-family="Helvetica,sans-Serif" font-size="10.00" fill="#000000">+ operator!=()</text>
<text text-anchor="start" x="805.5" y="-475.5" font-family="Helvetica,sans-Serif" font-size="10.00" fill="#000000">+ operator&lt;()</text>
<text text-anchor="start" x="805.5" y="-464.5" font-family="Helvetica,sans-Serif" font-size="10.00" fill="#000000">+ operator&lt;=()</text>
<text text-anchor="start" x="805.5" y="-453.5" font-family="Helvetica,sans-Serif" font-size="10.00" fill="#000000">+ operator&gt;()</text>
<text text-anchor="start" x="805.5" y="-442.5" font-family="Helvetica,sans-Serif" font-size="10.00" fill="#000000">+ operator&gt;=()</text>
<text text-anchor="start" x="805.5" y="-431.5" font-family="Helvetica,sans-Serif" font-size="10.00" fill="#000000">+ hasError()</text>
<text text-anchor="start" x="805.5" y="-420.5" font-family="Helvetica,sans-Serif" font-size="10.00" fill="#000000">+ hasHammingError()</text>
<text text-anchor="start" x="805.5" y="-409.5" font-family="Helvetica,sans-Serif" font-size="10.00" fill="#000000">+ hasParityError()</text>
<text text-anchor="start" x="805.5" y="-398.5" font-family="Helvetica,sans-Serif" font-size="10.00" fill="#000000">+ uint64()</text>
<text text-anchor="start" x="805.5" y="-387.5" font-family="Helvetica,sans-Serif" font-size="10.00" fill="#000000">+ uint64()</text>
<text text-anchor="start" x="805.5" y="-376.5" font-family="Helvetica,sans-Serif" font-size="10.00" fill="#000000">+ isHeartbeat()</text>
<text text-anchor="start" x="805.5" y="-365.5" font-family="Helvetica,sans-Serif" font-size="10.00" fill="#000000">* hammingCode()</text>
<text text-anchor="start" x="805.5" y="-354.5" font-family="Helvetica,sans-Serif" font-size="10.00" fill="#000000">* headerParity()</text>
<text text-anchor="start" x="805.5" y="-343.5" font-family="Helvetica,sans-Serif" font-size="10.00" fill="#000000">* packetType()</text>
<text text-anchor="start" x="805.5" y="-332.5" font-family="Helvetica,sans-Serif" font-size="10.00" fill="#000000">* nof10BitWords()</text>
<text text-anchor="start" x="805.5" y="-321.5" font-family="Helvetica,sans-Serif" font-size="10.00" fill="#000000">* chipAddress()</text>
<text text-anchor="start" x="805.5" y="-310.5" font-family="Helvetica,sans-Serif" font-size="10.00" fill="#000000">* channelAddress()</text>
<text text-anchor="start" x="805.5" y="-299.5" font-family="Helvetica,sans-Serif" font-size="10.00" fill="#000000">* bunchCrossingCounter()</text>
<text text-anchor="start" x="805.5" y="-288.5" font-family="Helvetica,sans-Serif" font-size="10.00" fill="#000000">* payloadParity()</text>
<text text-anchor="start" x="805.5" y="-277.5" font-family="Helvetica,sans-Serif" font-size="10.00" fill="#000000">* hammingCode()</text>
<text text-anchor="start" x="805.5" y="-266.5" font-family="Helvetica,sans-Serif" font-size="10.00" fill="#000000">* headerParity()</text>
<text text-anchor="start" x="805.5" y="-255.5" font-family="Helvetica,sans-Serif" font-size="10.00" fill="#000000">* packetType()</text>
<text text-anchor="start" x="805.5" y="-244.5" font-family="Helvetica,sans-Serif" font-size="10.00" fill="#000000">* nof10BitWords()</text>
<text text-anchor="start" x="805.5" y="-233.5" font-family="Helvetica,sans-Serif" font-size="10.00" fill="#000000">* chipAddress()</text>
<text text-anchor="start" x="805.5" y="-222.5" font-family="Helvetica,sans-Serif" font-size="10.00" fill="#000000">* channelAddress()</text>
<text text-anchor="start" x="805.5" y="-211.5" font-family="Helvetica,sans-Serif" font-size="10.00" fill="#000000">* bunchCrossingCounter()</text>
<text text-anchor="start" x="805.5" y="-200.5" font-family="Helvetica,sans-Serif" font-size="10.00" fill="#000000">* payloadParity()</text>
</a>
</g>
</g>
<!-- Node9&#45;&gt;Node2 -->
<g id="edge7" class="edge">
<title>Node9&#45;&gt;Node2</title>
<path fill="none" stroke="#404040" d="M807.8711,-193.3957C797.0231,-174.9071 784.6198,-157.3443 770.5,-142 753.2437,-123.2472 730.5606,-108.0143 708.1143,-96.0701"/>
<polygon fill="none" stroke="#404040" points="707.8279,-95.924 700.6654,-96.7599 697.1391,-90.4698 704.3016,-89.634 707.8279,-95.924"/>
<text text-anchor="middle" x="832.5" y="-156" font-family="Helvetica,sans-Serif" font-size="10.00" fill="#000000"> +sampaHeader</text>
</g>
<!-- Node10 -->
<g id="node9" class="node">
<title>Node10</title>
<polygon fill="none" stroke="#bfbfbf" points="970,-353 970,-410 1015,-410 1015,-353 970,-353"/>
<text text-anchor="middle" x="992.5" y="-398" font-family="Helvetica,sans-Serif" font-size="10.00" fill="#000000">size_t</text>
<polyline fill="none" stroke="#bfbfbf" points="970,-391 1015,-391 "/>
<text text-anchor="middle" x="992.5" y="-379" font-family="Helvetica,sans-Serif" font-size="10.00" fill="#000000"> </text>
<polyline fill="none" stroke="#bfbfbf" points="970,-372 1015,-372 "/>
<text text-anchor="middle" x="992.5" y="-360" font-family="Helvetica,sans-Serif" font-size="10.00" fill="#000000"> </text>
</g>
<!-- Node10&#45;&gt;Node2 -->
<g id="edge8" class="edge">
<title>Node10&#45;&gt;Node2</title>
<path fill="none" stroke="#404040" d="M994.6571,-352.9456C996.1867,-313.5117 993.6052,-241.7393 960.5,-193 931.2917,-149.9979 799.2362,-108.0801 708.832,-83.6665"/>
<polygon fill="none" stroke="#404040" points="708.7898,-83.6553 701.9607,-85.9714 697.1963,-80.5584 704.0253,-78.2424 708.7898,-83.6553"/>
<text text-anchor="middle" x="971" y="-161.5" font-family="Helvetica,sans-Serif" font-size="10.00" fill="#000000"> +nofSync</text>
<text text-anchor="middle" x="971" y="-150.5" font-family="Helvetica,sans-Serif" font-size="10.00" fill="#000000">+maskIndex</text>
</g>
<!-- Node11 -->
<g id="node10" class="node">
<title>Node11</title>
<g id="a_node10"><a xlink:href="../../d9/d8c/classo2_1_1mch_1_1raw_1_1DsElecId.html" target="_top" xlink:title="{o2::mch::raw::DsElecId\n||+ DsElecId()\l+ elinkIndexInGroup()\l+ elinkGroupId()\l+ elinkId()\l+ solarId()\l+ operator==()\l+ operator!=()\l}">
<polygon fill="none" stroke="#000000" points="1033,-320 1033,-443 1160,-443 1160,-320 1033,-320"/>
<text text-anchor="middle" x="1096.5" y="-431" font-family="Helvetica,sans-Serif" font-size="10.00" fill="#000000">o2::mch::raw::DsElecId</text>
<polyline fill="none" stroke="#000000" points="1033,-424 1160,-424 "/>
<text text-anchor="middle" x="1096.5" y="-412" font-family="Helvetica,sans-Serif" font-size="10.00" fill="#000000"> </text>
<polyline fill="none" stroke="#000000" points="1033,-405 1160,-405 "/>
<text text-anchor="start" x="1041" y="-393" font-family="Helvetica,sans-Serif" font-size="10.00" fill="#000000">+ DsElecId()</text>
<text text-anchor="start" x="1041" y="-382" font-family="Helvetica,sans-Serif" font-size="10.00" fill="#000000">+ elinkIndexInGroup()</text>
<text text-anchor="start" x="1041" y="-371" font-family="Helvetica,sans-Serif" font-size="10.00" fill="#000000">+ elinkGroupId()</text>
<text text-anchor="start" x="1041" y="-360" font-family="Helvetica,sans-Serif" font-size="10.00" fill="#000000">+ elinkId()</text>
<text text-anchor="start" x="1041" y="-349" font-family="Helvetica,sans-Serif" font-size="10.00" fill="#000000">+ solarId()</text>
<text text-anchor="start" x="1041" y="-338" font-family="Helvetica,sans-Serif" font-size="10.00" fill="#000000">+ operator==()</text>
<text text-anchor="start" x="1041" y="-327" font-family="Helvetica,sans-Serif" font-size="10.00" fill="#000000">+ operator!=()</text>
</a>
</g>
</g>
<!-- Node11&#45;&gt;Node2 -->
<g id="edge9" class="edge">
<title>Node11&#45;&gt;Node2</title>
<path fill="none" stroke="#404040" d="M1089.9481,-319.988C1080.7592,-265.1325 1058.7973,-186.7793 1006.5,-142 962.6316,-104.438 808.5803,-81.582 709.15,-70.4005"/>
<polygon fill="none" stroke="#404040" points="708.9334,-70.3767 702.5313,-73.6953 697.0056,-69.0621 703.4077,-65.7435 708.9334,-70.3767"/>
<text text-anchor="middle" x="1049.5" y="-156" font-family="Helvetica,sans-Serif" font-size="10.00" fill="#000000"> +dsId</text>
</g>
</g>
</svg>
        <g id="navigator" transform="translate(0 0)" fill="#404254">
                <rect fill="#f2f5e9" fill-opacity="0.5" stroke="#606060" stroke-width=".5" x="0" y="0" width="60" height="60"/>
                <use id="zoomplus" xlink:href="#zoomPlus" x="17" y="9" onmousedown="handleZoom(evt,'in')"/>
                <use id="zoomminus" xlink:href="#zoomMin" x="42" y="9" onmousedown="handleZoom(evt,'out')"/>
                <use id="reset" xlink:href="#resetDef" x="30" y="36" onmousedown="handleReset()"/>
                <g id="arrowUp" xlink:href="#dirArrow" transform="translate(30 24)" onmousedown="handlePan(0,-1)">
                  <use xlink:href="#rim" fill="#404040">
                        <set attributeName="fill" to="#808080" begin="arrowUp.mouseover" end="arrowUp.mouseout"/>
                  </use>
                  <path fill="none" stroke="white" stroke-width="1.5" d="M0,-3.0v7 M-2.5,-0.5L0,-3.0L2.5,-0.5"/>
                </g>
                <g id="arrowRight" xlink:href="#dirArrow" transform="rotate(90) translate(36 -43)" onmousedown="handlePan(1,0)">
                  <use xlink:href="#rim" fill="#404040">
                        <set attributeName="fill" to="#808080" begin="arrowRight.mouseover" end="arrowRight.mouseout"/>
                  </use>
                  <path fill="none" stroke="white" stroke-width="1.5" d="M0,-3.0v7 M-2.5,-0.5L0,-3.0L2.5,-0.5"/>
                </g>
                <g id="arrowDown" xlink:href="#dirArrow" transform="rotate(180) translate(-30 -48)" onmousedown="handlePan(0,1)">
                  <use xlink:href="#rim" fill="#404040">
                        <set attributeName="fill" to="#808080" begin="arrowDown.mouseover" end="arrowDown.mouseout"/>
                  </use>
                  <path fill="none" stroke="white" stroke-width="1.5" d="M0,-3.0v7 M-2.5,-0.5L0,-3.0L2.5,-0.5"/>
                </g>
                <g id="arrowLeft" xlink:href="#dirArrow" transform="rotate(270) translate(-36 17)" onmousedown="handlePan(-1,0)">
                  <use xlink:href="#rim" fill="#404040">
                        <set attributeName="fill" to="#808080" begin="arrowLeft.mouseover" end="arrowLeft.mouseout"/>
                  </use>
                  <path fill="none" stroke="white" stroke-width="1.5" d="M0,-3.0v7 M-2.5,-0.5L0,-3.0L2.5,-0.5"/>
                </g>
        </g>
        <svg viewBox="0 0 15 15" width="100%" height="30px" preserveAspectRatio="xMaxYMin meet">
         <g id="arrow_out" transform="scale(0.3 0.3)">
          <a xlink:href="structo2_1_1mch_1_1raw_1_1StateMachine____coll__graph_org.svg" target="_base">
           <rect id="button" ry="5" rx="5" y="6" x="6" height="38" width="38"
                fill="#f2f5e9" fill-opacity="0.5" stroke="#606060" stroke-width="1.0"/>
           <path id="arrow"
             d="M 11.500037,31.436501 C 11.940474,20.09759 22.043105,11.32322 32.158766,21.979434 L 37.068811,17.246167 C 37.068811,17.246167 37.088388,32 37.088388,32 L 22.160133,31.978069 C 22.160133,31.978069 26.997745,27.140456 26.997745,27.140456 C 18.528582,18.264221 13.291696,25.230495 11.500037,31.436501 z"
             style="fill:#404040;"/>
          </a>
         </g>
        </svg>
</svg>
