<?xml version="1.0" encoding="UTF-8" standalone="no"?>
<!DOCTYPE svg PUBLIC "-//W3C//DTD SVG 1.1//EN"
 "http://www.w3.org/Graphics/SVG/1.1/DTD/svg11.dtd">
<!-- Generated by graphviz version 2.40.1 (20161225.0304)
 -->
<!-- Title: o2::framework::InputRoute Pages: 1 -->
<svg width="480pt" height="375pt"
 viewBox="0.00 0.00 479.62 375.00" xmlns="http://www.w3.org/2000/svg" xmlns:xlink="http://www.w3.org/1999/xlink">
<g id="graph0" class="graph" transform="scale(1 1) rotate(0) translate(4 371)">
<title>o2::framework::InputRoute</title>
<!-- Node1 -->
<g id="node1" class="node">
<title>Node1</title>
<polygon fill="#bfbfbf" stroke="#000000" points="181.1197,-.5 181.1197,-57.5 327.1197,-57.5 327.1197,-.5 181.1197,-.5"/>
<text text-anchor="middle" x="254.1197" y="-45.5" font-family="Helvetica,sans-Serif" font-size="10.00" fill="#000000">o2::framework::InputRoute</text>
<polyline fill="none" stroke="#000000" points="181.1197,-38.5 327.1197,-38.5 "/>
<text text-anchor="middle" x="254.1197" y="-26.5" font-family="Helvetica,sans-Serif" font-size="10.00" fill="#000000"> </text>
<polyline fill="none" stroke="#000000" points="181.1197,-19.5 327.1197,-19.5 "/>
<text text-anchor="middle" x="254.1197" y="-7.5" font-family="Helvetica,sans-Serif" font-size="10.00" fill="#000000"> </text>
</g>
<!-- Node2 -->
<g id="node2" class="node">
<title>Node2</title>
<polygon fill="none" stroke="#bfbfbf" points="40.1197,-293 40.1197,-350 84.1197,-350 84.1197,-293 40.1197,-293"/>
<text text-anchor="middle" x="62.1197" y="-338" font-family="Helvetica,sans-Serif" font-size="10.00" fill="#000000">string</text>
<polyline fill="none" stroke="#bfbfbf" points="40.1197,-331 84.1197,-331 "/>
<text text-anchor="middle" x="62.1197" y="-319" font-family="Helvetica,sans-Serif" font-size="10.00" fill="#000000"> </text>
<polyline fill="none" stroke="#bfbfbf" points="40.1197,-312 84.1197,-312 "/>
<text text-anchor="middle" x="62.1197" y="-300" font-family="Helvetica,sans-Serif" font-size="10.00" fill="#000000"> </text>
</g>
<!-- Node2&#45;&gt;Node1 -->
<g id="edge1" class="edge">
<title>Node2&#45;&gt;Node1</title>
<path fill="none" stroke="#404040" d="M42.8249,-292.8847C16.8973,-250.505 -21.7982,-170.2326 16.1197,-116 34.4058,-89.8461 108.4025,-65.3945 169.0934,-49.1155"/>
<polygon fill="none" stroke="#404040" points="169.4294,-49.027 174.2127,-43.6307 181.0337,-45.9706 176.2504,-51.3669 169.4294,-49.027"/>
<text text-anchor="middle" x="58.1197" y="-170" font-family="Helvetica,sans-Serif" font-size="10.00" fill="#000000"> +sourceChannel</text>
</g>
<!-- Node3 -->
<g id="node3" class="node">
<title>Node3</title>
<g id="a_node3"><a xlink:href="../../da/d96/structo2_1_1framework_1_1InputSpec.html" target="_top" xlink:title="{o2::framework::InputSpec\n||+ InputSpec()\l+ InputSpec()\l+ InputSpec()\l+ InputSpec()\l+ InputSpec()\l+ operator==()\l}">
<polygon fill="none" stroke="#000000" points="109.1197,-116.5 109.1197,-228.5 251.1197,-228.5 251.1197,-116.5 109.1197,-116.5"/>
<text text-anchor="middle" x="180.1197" y="-216.5" font-family="Helvetica,sans-Serif" font-size="10.00" fill="#000000">o2::framework::InputSpec</text>
<polyline fill="none" stroke="#000000" points="109.1197,-209.5 251.1197,-209.5 "/>
<text text-anchor="middle" x="180.1197" y="-197.5" font-family="Helvetica,sans-Serif" font-size="10.00" fill="#000000"> </text>
<polyline fill="none" stroke="#000000" points="109.1197,-190.5 251.1197,-190.5 "/>
<text text-anchor="start" x="117.1197" y="-178.5" font-family="Helvetica,sans-Serif" font-size="10.00" fill="#000000">+ InputSpec()</text>
<text text-anchor="start" x="117.1197" y="-167.5" font-family="Helvetica,sans-Serif" font-size="10.00" fill="#000000">+ InputSpec()</text>
<text text-anchor="start" x="117.1197" y="-156.5" font-family="Helvetica,sans-Serif" font-size="10.00" fill="#000000">+ InputSpec()</text>
<text text-anchor="start" x="117.1197" y="-145.5" font-family="Helvetica,sans-Serif" font-size="10.00" fill="#000000">+ InputSpec()</text>
<text text-anchor="start" x="117.1197" y="-134.5" font-family="Helvetica,sans-Serif" font-size="10.00" fill="#000000">+ InputSpec()</text>
<text text-anchor="start" x="117.1197" y="-123.5" font-family="Helvetica,sans-Serif" font-size="10.00" fill="#000000">+ operator==()</text>
</a>
</g>
</g>
<!-- Node2&#45;&gt;Node3 -->
<g id="edge5" class="edge">
<title>Node2&#45;&gt;Node3</title>
<path fill="none" stroke="#404040" d="M81.6064,-292.7137C91.3529,-278.6833 103.5197,-261.7059 115.1197,-247 117.5116,-243.9677 119.9851,-240.8929 122.5074,-237.8066"/>
<polygon fill="none" stroke="#404040" points="122.5285,-237.7811 123.2792,-230.6092 130.1882,-228.5437 129.4375,-235.7156 122.5285,-237.7811"/>
<text text-anchor="middle" x="139.1197" y="-250" font-family="Helvetica,sans-Serif" font-size="10.00" fill="#000000"> +binding</text>
</g>
<!-- Node3&#45;&gt;Node1 -->
<g id="edge2" class="edge">
<title>Node3&#45;&gt;Node1</title>
<path fill="none" stroke="#404040" d="M193.6593,-116.4032C198.1631,-102.6898 203.9204,-88.4034 211.1197,-76 212.8633,-72.996 214.8263,-70.0217 216.9285,-67.115"/>
<polygon fill="none" stroke="#404040" points="217.0516,-66.9594 217.6369,-59.7721 224.4964,-57.548 223.9112,-64.7353 217.0516,-66.9594"/>
<text text-anchor="middle" x="237.1197" y="-84.5" font-family="Helvetica,sans-Serif" font-size="10.00" fill="#000000"> +matcher</text>
</g>
<!-- Node4 -->
<g id="node4" class="node">
<title>Node4</title>
<polygon fill="none" stroke="#bfbfbf" points="112.1197,-293 112.1197,-350 200.1197,-350 200.1197,-293 112.1197,-293"/>
<text text-anchor="middle" x="156.1197" y="-338" font-family="Helvetica,sans-Serif" font-size="10.00" fill="#000000">enum Lifetime</text>
<polyline fill="none" stroke="#bfbfbf" points="112.1197,-331 200.1197,-331 "/>
<text text-anchor="middle" x="156.1197" y="-319" font-family="Helvetica,sans-Serif" font-size="10.00" fill="#000000"> </text>
<polyline fill="none" stroke="#bfbfbf" points="112.1197,-312 200.1197,-312 "/>
<text text-anchor="middle" x="156.1197" y="-300" font-family="Helvetica,sans-Serif" font-size="10.00" fill="#000000"> </text>
</g>
<!-- Node4&#45;&gt;Node3 -->
<g id="edge3" class="edge">
<title>Node4&#45;&gt;Node3</title>
<path fill="none" stroke="#404040" d="M160.7471,-292.7713C163.1495,-277.8567 166.1955,-258.9461 169.1566,-240.5623"/>
<polygon fill="none" stroke="#404040" points="169.1743,-240.4522 166.1794,-233.8925 171.0827,-228.6049 174.0776,-235.1647 169.1743,-240.4522"/>
<text text-anchor="middle" x="193.1197" y="-250" font-family="Helvetica,sans-Serif" font-size="10.00" fill="#000000"> +lifetime</text>
</g>
<!-- Node5 -->
<g id="node5" class="node">
<title>Node5</title>
<polygon fill="none" stroke="#bfbfbf" points="218.1197,-276.5 218.1197,-366.5 382.1197,-366.5 382.1197,-276.5 218.1197,-276.5"/>
<text text-anchor="start" x="226.1197" y="-354.5" font-family="Helvetica,sans-Serif" font-size="10.00" fill="#000000">variant&lt; o2::framework</text>
<text text-anchor="start" x="226.1197" y="-343.5" font-family="Helvetica,sans-Serif" font-size="10.00" fill="#000000">::ConcreteDataMatcher,</text>
<text text-anchor="start" x="226.1197" y="-332.5" font-family="Helvetica,sans-Serif" font-size="10.00" fill="#000000"> o2::framework::data_matcher</text>
<text text-anchor="middle" x="300.1197" y="-321.5" font-family="Helvetica,sans-Serif" font-size="10.00" fill="#000000">::DataDescriptorMatcher &gt;</text>
<polyline fill="none" stroke="#bfbfbf" points="218.1197,-314.5 382.1197,-314.5 "/>
<text text-anchor="middle" x="300.1197" y="-302.5" font-family="Helvetica,sans-Serif" font-size="10.00" fill="#000000"> </text>
<polyline fill="none" stroke="#bfbfbf" points="218.1197,-295.5 382.1197,-295.5 "/>
<text text-anchor="middle" x="300.1197" y="-283.5" font-family="Helvetica,sans-Serif" font-size="10.00" fill="#000000"> </text>
</g>
<!-- Node5&#45;&gt;Node3 -->
<g id="edge4" class="edge">
<title>Node5&#45;&gt;Node3</title>
<path fill="none" stroke="#404040" d="M263.7901,-276.3907C254.0204,-264.2601 243.2536,-250.8913 232.7888,-237.8975"/>
<polygon fill="none" stroke="#404040" points="232.7677,-237.8713 225.8889,-235.7073 225.2408,-228.5254 232.1195,-230.6893 232.7677,-237.8713"/>
<text text-anchor="middle" x="273.1197" y="-250" font-family="Helvetica,sans-Serif" font-size="10.00" fill="#000000"> +matcher</text>
</g>
<!-- Node6 -->
<g id="node6" class="node">
<title>Node6</title>
<polygon fill="none" stroke="#bfbfbf" points="269.6197,-144 269.6197,-201 314.6197,-201 314.6197,-144 269.6197,-144"/>
<text text-anchor="middle" x="292.1197" y="-189" font-family="Helvetica,sans-Serif" font-size="10.00" fill="#000000">size_t</text>
<polyline fill="none" stroke="#bfbfbf" points="269.6197,-182 314.6197,-182 "/>
<text text-anchor="middle" x="292.1197" y="-170" font-family="Helvetica,sans-Serif" font-size="10.00" fill="#000000"> </text>
<polyline fill="none" stroke="#bfbfbf" points="269.6197,-163 314.6197,-163 "/>
<text text-anchor="middle" x="292.1197" y="-151" font-family="Helvetica,sans-Serif" font-size="10.00" fill="#000000"> </text>
</g>
<!-- Node6&#45;&gt;Node1 -->
<g id="edge6" class="edge">
<title>Node6&#45;&gt;Node1</title>
<path fill="none" stroke="#404040" d="M284.5212,-143.8055C278.8773,-122.4926 271.1036,-93.1366 264.8299,-69.445"/>
<polygon fill="none" stroke="#404040" points="264.7769,-69.2449 259.3743,-64.4688 261.7051,-57.6447 267.1077,-62.4209 264.7769,-69.2449"/>
<text text-anchor="middle" x="313.1197" y="-90" font-family="Helvetica,sans-Serif" font-size="10.00" fill="#000000"> +timeslice</text>
<text text-anchor="middle" x="313.1197" y="-79" font-family="Helvetica,sans-Serif" font-size="10.00" fill="#000000">+inputSpecIndex</text>
</g>
<!-- Node7 -->
<g id="node7" class="node">
<title>Node7</title>
<polygon fill="none" stroke="#bfbfbf" points="332.6197,-138.5 332.6197,-206.5 471.6197,-206.5 471.6197,-138.5 332.6197,-138.5"/>
<text text-anchor="start" x="340.6197" y="-194.5" font-family="Helvetica,sans-Serif" font-size="10.00" fill="#000000">optional&lt; o2::framework</text>
<text text-anchor="middle" x="402.1197" y="-183.5" font-family="Helvetica,sans-Serif" font-size="10.00" fill="#000000">::RouteConfigurator &gt;</text>
<polyline fill="none" stroke="#bfbfbf" points="332.6197,-176.5 471.6197,-176.5 "/>
<text text-anchor="middle" x="402.1197" y="-164.5" font-family="Helvetica,sans-Serif" font-size="10.00" fill="#000000"> </text>
<polyline fill="none" stroke="#bfbfbf" points="332.6197,-157.5 471.6197,-157.5 "/>
<text text-anchor="middle" x="402.1197" y="-145.5" font-family="Helvetica,sans-Serif" font-size="10.00" fill="#000000"> </text>
</g>
<!-- Node7&#45;&gt;Node1 -->
<g id="edge7" class="edge">
<title>Node7&#45;&gt;Node1</title>
<path fill="none" stroke="#404040" d="M393.5173,-138.1083C386.9572,-117.8748 376.0952,-93.0042 359.1197,-76 352.7915,-69.6611 345.458,-64.1007 337.6657,-59.2407"/>
<polygon fill="none" stroke="#404040" points="337.6166,-59.2126 330.4221,-59.7015 327.2036,-53.2484 334.3982,-52.7595 337.6166,-59.2126"/>
<text text-anchor="middle" x="409.1197" y="-84.5" font-family="Helvetica,sans-Serif" font-size="10.00" fill="#000000"> +configurator</text>
</g>
</g>
</svg>
