<?xml version="1.0" encoding="UTF-8" standalone="no"?>
<!DOCTYPE svg PUBLIC "-//W3C//DTD SVG 1.1//EN"
 "http://www.w3.org/Graphics/SVG/1.1/DTD/svg11.dtd">
<!-- Generated by graphviz version 2.40.1 (20161225.0304)
 -->
<!-- Title: /home/travis/build/AliceO2Group/AliceO2/GPU/GPUTracking/TPCClusterFinder/ChargeMapFiller.cxx Pages: 1 -->
<svg width="1714pt" height="677pt"
 viewBox="0.00 0.00 1713.50 677.00" xmlns="http://www.w3.org/2000/svg" xmlns:xlink="http://www.w3.org/1999/xlink">
<g id="graph0" class="graph" transform="scale(1 1) rotate(0) translate(4 673)">
<title>/home/travis/build/AliceO2Group/AliceO2/GPU/GPUTracking/TPCClusterFinder/ChargeMapFiller.cxx</title>
<!-- Node0 -->
<g id="node1" class="node">
<title>Node0</title>
<polygon fill="#bfbfbf" stroke="#000000" points="96,-616.5 96,-668.5 287,-668.5 287,-616.5 96,-616.5"/>
<text text-anchor="start" x="104" y="-656.5" font-family="Helvetica,sans-Serif" font-size="10.00" fill="#000000">/home/travis/build</text>
<text text-anchor="start" x="104" y="-645.5" font-family="Helvetica,sans-Serif" font-size="10.00" fill="#000000">/AliceO2Group/AliceO2</text>
<text text-anchor="start" x="104" y="-634.5" font-family="Helvetica,sans-Serif" font-size="10.00" fill="#000000">/GPU/GPUTracking/TPCClusterFinder</text>
<text text-anchor="middle" x="191.5" y="-623.5" font-family="Helvetica,sans-Serif" font-size="10.00" fill="#000000">/ChargeMapFiller.cxx</text>
</g>
<!-- Node1 -->
<g id="node2" class="node">
<title>Node1</title>
<g id="a_node2"><a xlink:href="../../db/d0d/ChargeMapFiller_8h.html" target="_top" xlink:title="ChargeMapFiller.h">
<polygon fill="none" stroke="#000000" points="180,-560.5 180,-579.5 283,-579.5 283,-560.5 180,-560.5"/>
<text text-anchor="middle" x="231.5" y="-567.5" font-family="Helvetica,sans-Serif" font-size="10.00" fill="#000000">ChargeMapFiller.h</text>
</a>
</g>
</g>
<!-- Node0&#45;&gt;Node1 -->
<g id="edge1" class="edge">
<title>Node0&#45;&gt;Node1</title>
<path fill="none" stroke="#191970" d="M205.9409,-616.3258C211.0235,-607.1136 216.6264,-596.9584 221.2878,-588.5096"/>
<polygon fill="#191970" stroke="#191970" points="224.4736,-589.9806 226.2399,-579.534 218.3445,-586.599 224.4736,-589.9806"/>
</g>
<!-- Node41 -->
<g id="node42" class="node">
<title>Node41</title>
<g id="a_node42"><a xlink:href="../../d7/d60/Array2D_8h.html" target="_top" xlink:title="Array2D.h">
<polygon fill="none" stroke="#000000" points="119,-504.5 119,-523.5 184,-523.5 184,-504.5 119,-504.5"/>
<text text-anchor="middle" x="151.5" y="-511.5" font-family="Helvetica,sans-Serif" font-size="10.00" fill="#000000">Array2D.h</text>
</a>
</g>
</g>
<!-- Node0&#45;&gt;Node41 -->
<g id="edge74" class="edge">
<title>Node0&#45;&gt;Node41</title>
<path fill="none" stroke="#191970" d="M182.4567,-616.4312C178.6521,-605.2507 174.2478,-592.0208 170.5,-580 165.6756,-564.5259 160.6174,-546.8756 156.934,-533.7235"/>
<polygon fill="#191970" stroke="#191970" points="160.2484,-532.578 154.1986,-523.8802 153.5039,-534.4522 160.2484,-532.578"/>
</g>
<!-- Node2 -->
<g id="node3" class="node">
<title>Node2</title>
<g id="a_node3"><a xlink:href="../../d9/db0/clusterFinderDefs_8h.html" target="_top" xlink:title="clusterFinderDefs.h">
<polygon fill="none" stroke="#000000" points="132.5,-336.5 132.5,-355.5 242.5,-355.5 242.5,-336.5 132.5,-336.5"/>
<text text-anchor="middle" x="187.5" y="-343.5" font-family="Helvetica,sans-Serif" font-size="10.00" fill="#000000">clusterFinderDefs.h</text>
</a>
</g>
</g>
<!-- Node1&#45;&gt;Node2 -->
<g id="edge2" class="edge">
<title>Node1&#45;&gt;Node2</title>
<path fill="none" stroke="#191970" d="M229.6094,-560.375C222.9383,-526.4133 200.4146,-411.7472 191.3381,-365.5392"/>
<polygon fill="#191970" stroke="#191970" points="194.7455,-364.727 189.3836,-355.5891 187.8767,-366.0763 194.7455,-364.727"/>
</g>
<!-- Node14 -->
<g id="node15" class="node">
<title>Node14</title>
<g id="a_node15"><a xlink:href="../../d1/d59/GPUTPCClusterFinderKernels_8h.html" target="_top" xlink:title="GPUTPCClusterFinderKernels.h">
<polygon fill="none" stroke="#000000" points="279,-504.5 279,-523.5 444,-523.5 444,-504.5 279,-504.5"/>
<text text-anchor="middle" x="361.5" y="-511.5" font-family="Helvetica,sans-Serif" font-size="10.00" fill="#000000">GPUTPCClusterFinderKernels.h</text>
</a>
</g>
</g>
<!-- Node1&#45;&gt;Node14 -->
<g id="edge15" class="edge">
<title>Node1&#45;&gt;Node14</title>
<path fill="none" stroke="#191970" d="M253.8478,-560.3733C274.9033,-551.3032 306.6495,-537.6279 330.2175,-527.4755"/>
<polygon fill="#191970" stroke="#191970" points="331.6444,-530.6719 339.4438,-523.5011 328.875,-524.243 331.6444,-530.6719"/>
</g>
<!-- Node3 -->
<g id="node4" class="node">
<title>Node3</title>
<g id="a_node4"><a xlink:href="../../d2/d6d/GPUDef_8h.html" target="_top" xlink:title="GPUDef.h">
<polygon fill="none" stroke="#000000" points="916,-112.5 916,-131.5 979,-131.5 979,-112.5 916,-112.5"/>
<text text-anchor="middle" x="947.5" y="-119.5" font-family="Helvetica,sans-Serif" font-size="10.00" fill="#000000">GPUDef.h</text>
</a>
</g>
</g>
<!-- Node2&#45;&gt;Node3 -->
<g id="edge3" class="edge">
<title>Node2&#45;&gt;Node3</title>
<path fill="none" stroke="#191970" d="M188.4546,-336.4096C191.2741,-313.3745 201.687,-254.5775 236.5,-224 311.3359,-158.269 355.3776,-185.1165 453.5,-168 619.4668,-139.0488 820.1955,-127.4846 905.6855,-123.6391"/>
<polygon fill="#191970" stroke="#191970" points="905.9331,-127.1317 915.7703,-123.1975 905.6268,-120.1384 905.9331,-127.1317"/>
</g>
<!-- Node12 -->
<g id="node13" class="node">
<title>Node12</title>
<g id="a_node13"><a xlink:href="../../d6/deb/GPU_2GPUTracking_2TPCClusterFinder_2Digit_8h.html" target="_top" xlink:title="Digit.h">
<polygon fill="none" stroke="#000000" points="0,-280.5 0,-299.5 49,-299.5 49,-280.5 0,-280.5"/>
<text text-anchor="middle" x="24.5" y="-287.5" font-family="Helvetica,sans-Serif" font-size="10.00" fill="#000000">Digit.h</text>
</a>
</g>
</g>
<!-- Node2&#45;&gt;Node12 -->
<g id="edge12" class="edge">
<title>Node2&#45;&gt;Node12</title>
<path fill="none" stroke="#191970" d="M154.2373,-336.3733C125.5616,-327.1419 84.6227,-313.1402 56.3636,-302.9375"/>
<polygon fill="#191970" stroke="#191970" points="57.5317,-299.638 46.9378,-299.5011 55.1341,-306.2146 57.5317,-299.638"/>
</g>
<!-- Node13 -->
<g id="node14" class="node">
<title>Node13</title>
<g id="a_node14"><a xlink:href="../../d0/dc1/GPU_2GPUTracking_2TPCClusterFinder_2ClusterNative_8h.html" target="_top" xlink:title="ClusterNative.h">
<polygon fill="none" stroke="#000000" points="67.5,-280.5 67.5,-299.5 159.5,-299.5 159.5,-280.5 67.5,-280.5"/>
<text text-anchor="middle" x="113.5" y="-287.5" font-family="Helvetica,sans-Serif" font-size="10.00" fill="#000000">ClusterNative.h</text>
</a>
</g>
</g>
<!-- Node2&#45;&gt;Node13 -->
<g id="edge14" class="edge">
<title>Node2&#45;&gt;Node13</title>
<path fill="none" stroke="#191970" d="M174.6102,-336.2455C163.5746,-327.8943 147.4708,-315.7076 134.5647,-305.9408"/>
<polygon fill="#191970" stroke="#191970" points="136.3283,-302.8862 126.2421,-299.6427 132.1041,-308.4681 136.3283,-302.8862"/>
</g>
<!-- Node4 -->
<g id="node5" class="node">
<title>Node4</title>
<g id="a_node5"><a xlink:href="../../df/d21/GPUCommonDef_8h.html" target="_top" xlink:title="GPUCommonDef.h">
<polygon fill="none" stroke="#000000" points="1300,-56.5 1300,-75.5 1407,-75.5 1407,-56.5 1300,-56.5"/>
<text text-anchor="middle" x="1353.5" y="-63.5" font-family="Helvetica,sans-Serif" font-size="10.00" fill="#000000">GPUCommonDef.h</text>
</a>
</g>
</g>
<!-- Node3&#45;&gt;Node4 -->
<g id="edge4" class="edge">
<title>Node3&#45;&gt;Node4</title>
<path fill="none" stroke="#191970" d="M979.1923,-115.0351C984.619,-113.9465 990.2115,-112.8893 995.5,-112 1097.9851,-94.7669 1217.9304,-80.5567 1289.7026,-72.6851"/>
<polygon fill="#191970" stroke="#191970" points="1290.3726,-76.1329 1299.9345,-71.5701 1289.6142,-69.1741 1290.3726,-76.1329"/>
</g>
<!-- Node7 -->
<g id="node8" class="node">
<title>Node7</title>
<g id="a_node8"><a xlink:href="../../d2/d37/GPUDefConstantsAndSettings_8h.html" target="_top" xlink:title="GPUDefConstantsAndSettings.h">
<polygon fill="none" stroke="#000000" points="890,-56.5 890,-75.5 1061,-75.5 1061,-56.5 890,-56.5"/>
<text text-anchor="middle" x="975.5" y="-63.5" font-family="Helvetica,sans-Serif" font-size="10.00" fill="#000000">GPUDefConstantsAndSettings.h</text>
</a>
</g>
</g>
<!-- Node3&#45;&gt;Node7 -->
<g id="edge7" class="edge">
<title>Node3&#45;&gt;Node7</title>
<path fill="none" stroke="#191970" d="M952.3772,-112.2455C956.1513,-104.6973 961.4921,-94.0158 966.0901,-84.8197"/>
<polygon fill="#191970" stroke="#191970" points="969.337,-86.1522 970.6787,-75.6427 963.076,-83.0217 969.337,-86.1522"/>
</g>
<!-- Node8 -->
<g id="node9" class="node">
<title>Node8</title>
<g id="a_node9"><a xlink:href="../../dc/de9/GPUDefGPUParameters_8h.html" target="_top" xlink:title="GPUDefGPUParameters.h">
<polygon fill="none" stroke="#000000" points="1079.5,-56.5 1079.5,-75.5 1219.5,-75.5 1219.5,-56.5 1079.5,-56.5"/>
<text text-anchor="middle" x="1149.5" y="-63.5" font-family="Helvetica,sans-Serif" font-size="10.00" fill="#000000">GPUDefGPUParameters.h</text>
</a>
</g>
</g>
<!-- Node3&#45;&gt;Node8 -->
<g id="edge8" class="edge">
<title>Node3&#45;&gt;Node8</title>
<path fill="none" stroke="#191970" d="M979.0625,-113.25C1012.9817,-103.8466 1067.1521,-88.8291 1105.3014,-78.2531"/>
<polygon fill="#191970" stroke="#191970" points="1106.4175,-81.5757 1115.119,-75.5314 1104.5474,-74.8302 1106.4175,-81.5757"/>
</g>
<!-- Node9 -->
<g id="node10" class="node">
<title>Node9</title>
<g id="a_node10"><a xlink:href="../../d3/d4c/GPUDefOpenCL12Templates_8h.html" target="_top" xlink:title="GPUDefOpenCL12Templates.h">
<polygon fill="none" stroke="#000000" points="564.5,-56.5 564.5,-75.5 728.5,-75.5 728.5,-56.5 564.5,-56.5"/>
<text text-anchor="middle" x="646.5" y="-63.5" font-family="Helvetica,sans-Serif" font-size="10.00" fill="#000000">GPUDefOpenCL12Templates.h</text>
</a>
</g>
</g>
<!-- Node3&#45;&gt;Node9 -->
<g id="edge9" class="edge">
<title>Node3&#45;&gt;Node9</title>
<path fill="none" stroke="#191970" d="M915.8566,-116.1129C866.6719,-106.9622 770.9879,-89.1605 707.9159,-77.4262"/>
<polygon fill="#191970" stroke="#191970" points="708.1706,-73.9136 697.6991,-75.5254 706.8902,-80.7955 708.1706,-73.9136"/>
</g>
<!-- Node10 -->
<g id="node11" class="node">
<title>Node10</title>
<g id="a_node11"><a xlink:href="../../d2/d45/GPUCommonRtypes_8h.html" target="_top" xlink:title="GPUCommonRtypes.h">
<polygon fill="none" stroke="#000000" points="747,-56.5 747,-75.5 872,-75.5 872,-56.5 747,-56.5"/>
<text text-anchor="middle" x="809.5" y="-63.5" font-family="Helvetica,sans-Serif" font-size="10.00" fill="#000000">GPUCommonRtypes.h</text>
</a>
</g>
</g>
<!-- Node3&#45;&gt;Node10 -->
<g id="edge10" class="edge">
<title>Node3&#45;&gt;Node10</title>
<path fill="none" stroke="#191970" d="M923.777,-112.3733C901.3263,-103.2629 867.4261,-89.5062 842.3745,-79.3404"/>
<polygon fill="#191970" stroke="#191970" points="843.4957,-76.0182 832.9135,-75.5011 840.8635,-82.5045 843.4957,-76.0182"/>
</g>
<!-- Node5 -->
<g id="node6" class="node">
<title>Node5</title>
<g id="a_node6"><a xlink:href="../../d5/d93/GPUCommonDefSettings_8h.html" target="_top" xlink:title="GPUCommonDefSettings.h">
<polygon fill="none" stroke="#000000" points="1202.5,-.5 1202.5,-19.5 1350.5,-19.5 1350.5,-.5 1202.5,-.5"/>
<text text-anchor="middle" x="1276.5" y="-7.5" font-family="Helvetica,sans-Serif" font-size="10.00" fill="#000000">GPUCommonDefSettings.h</text>
</a>
</g>
</g>
<!-- Node4&#45;&gt;Node5 -->
<g id="edge5" class="edge">
<title>Node4&#45;&gt;Node5</title>
<path fill="none" stroke="#191970" d="M1340.0876,-56.2455C1328.4943,-47.814 1311.5252,-35.4729 1298.0322,-25.6598"/>
<polygon fill="#191970" stroke="#191970" points="1299.9047,-22.6938 1289.7587,-19.6427 1295.7874,-28.355 1299.9047,-22.6938"/>
</g>
<!-- Node6 -->
<g id="node7" class="node">
<title>Node6</title>
<g id="a_node7"><a xlink:href="../../da/d5a/GPUCommonDefAPI_8h.html" target="_top" xlink:title="GPUCommonDefAPI.h">
<polygon fill="none" stroke="#000000" points="1368.5,-.5 1368.5,-19.5 1492.5,-19.5 1492.5,-.5 1368.5,-.5"/>
<text text-anchor="middle" x="1430.5" y="-7.5" font-family="Helvetica,sans-Serif" font-size="10.00" fill="#000000">GPUCommonDefAPI.h</text>
</a>
</g>
</g>
<!-- Node4&#45;&gt;Node6 -->
<g id="edge6" class="edge">
<title>Node4&#45;&gt;Node6</title>
<path fill="none" stroke="#191970" d="M1366.9124,-56.2455C1378.5057,-47.814 1395.4748,-35.4729 1408.9678,-25.6598"/>
<polygon fill="#191970" stroke="#191970" points="1411.2126,-28.355 1417.2413,-19.6427 1407.0953,-22.6938 1411.2126,-28.355"/>
</g>
<!-- Node11 -->
<g id="node12" class="node">
<title>Node11</title>
<polygon fill="none" stroke="#bfbfbf" points="780,-.5 780,-19.5 839,-19.5 839,-.5 780,-.5"/>
<text text-anchor="middle" x="809.5" y="-7.5" font-family="Helvetica,sans-Serif" font-size="10.00" fill="#000000">Rtypes.h</text>
</g>
<!-- Node10&#45;&gt;Node11 -->
<g id="edge11" class="edge">
<title>Node10&#45;&gt;Node11</title>
<path fill="none" stroke="#191970" d="M809.5,-56.2455C809.5,-48.9382 809.5,-38.6944 809.5,-29.7046"/>
<polygon fill="#191970" stroke="#191970" points="813.0001,-29.6426 809.5,-19.6427 806.0001,-29.6427 813.0001,-29.6426"/>
</g>
<!-- Node12&#45;&gt;Node2 -->
<g id="edge13" class="edge">
<title>Node12&#45;&gt;Node2</title>
<path fill="none" stroke="#191970" d="M49.0734,-296.8579C77.4542,-305.7954 123.8922,-321.6114 155.1487,-332.8865"/>
<polygon fill="#191970" stroke="#191970" points="154.1273,-336.2394 164.7213,-336.3733 156.5231,-329.6621 154.1273,-336.2394"/>
</g>
<!-- Node14&#45;&gt;Node2 -->
<g id="edge73" class="edge">
<title>Node14&#45;&gt;Node2</title>
<path fill="none" stroke="#191970" d="M333.4244,-504.4245C314.2801,-496.8295 289.2743,-484.7034 271.5,-468 242.8944,-441.1177 249.2737,-423.9734 226.5,-392 219.4843,-382.1502 210.8605,-371.8247 203.5077,-363.4578"/>
<polygon fill="#191970" stroke="#191970" points="205.962,-360.9518 196.6853,-355.8338 200.7456,-365.6198 205.962,-360.9518"/>
</g>
<!-- Node15 -->
<g id="node16" class="node">
<title>Node15</title>
<g id="a_node16"><a xlink:href="../../d9/de5/GPUGeneralKernels_8h.html" target="_top" xlink:title="GPUGeneralKernels.h">
<polygon fill="none" stroke="#000000" points="1370,-224.5 1370,-243.5 1491,-243.5 1491,-224.5 1370,-224.5"/>
<text text-anchor="middle" x="1430.5" y="-231.5" font-family="Helvetica,sans-Serif" font-size="10.00" fill="#000000">GPUGeneralKernels.h</text>
</a>
</g>
</g>
<!-- Node14&#45;&gt;Node15 -->
<g id="edge16" class="edge">
<title>Node14&#45;&gt;Node15</title>
<path fill="none" stroke="#191970" d="M444.3002,-512.7597C681.1412,-508.8933 1350.486,-495.6298 1445.5,-468 1498.0893,-452.7072 1559.1199,-444.1851 1542.5,-392 1523.8338,-333.3898 1474.6504,-277.8605 1448.0982,-250.9395"/>
<polygon fill="#191970" stroke="#191970" points="1450.5063,-248.3982 1440.9478,-243.828 1445.57,-253.3614 1450.5063,-248.3982"/>
</g>
<!-- Node18 -->
<g id="node19" class="node">
<title>Node18</title>
<g id="a_node19"><a xlink:href="../../db/df8/GPUConstantMem_8h.html" target="_top" xlink:title="GPUConstantMem.h">
<polygon fill="none" stroke="#000000" points="1322.5,-448.5 1322.5,-467.5 1436.5,-467.5 1436.5,-448.5 1322.5,-448.5"/>
<text text-anchor="middle" x="1379.5" y="-455.5" font-family="Helvetica,sans-Serif" font-size="10.00" fill="#000000">GPUConstantMem.h</text>
</a>
</g>
</g>
<!-- Node14&#45;&gt;Node18 -->
<g id="edge21" class="edge">
<title>Node14&#45;&gt;Node18</title>
<path fill="none" stroke="#191970" d="M444.3756,-509.441C640.9854,-498.6256 1132.5777,-471.5831 1312.3214,-461.6955"/>
<polygon fill="#191970" stroke="#191970" points="1312.6397,-465.1834 1322.4323,-461.1393 1312.2551,-458.1939 1312.6397,-465.1834"/>
</g>
<!-- Node39 -->
<g id="node40" class="node">
<title>Node39</title>
<g id="a_node40"><a xlink:href="../../d5/df1/GPUTPCSharedMemoryData_8h.html" target="_top" xlink:title="GPUTPCSharedMemoryData.h">
<polygon fill="none" stroke="#000000" points="280.5,-448.5 280.5,-467.5 442.5,-467.5 442.5,-448.5 280.5,-448.5"/>
<text text-anchor="middle" x="361.5" y="-455.5" font-family="Helvetica,sans-Serif" font-size="10.00" fill="#000000">GPUTPCSharedMemoryData.h</text>
</a>
</g>
</g>
<!-- Node14&#45;&gt;Node39 -->
<g id="edge68" class="edge">
<title>Node14&#45;&gt;Node39</title>
<path fill="none" stroke="#191970" d="M361.5,-504.2455C361.5,-496.9382 361.5,-486.6944 361.5,-477.7046"/>
<polygon fill="#191970" stroke="#191970" points="365.0001,-477.6426 361.5,-467.6427 358.0001,-477.6427 365.0001,-477.6426"/>
</g>
<!-- Node15&#45;&gt;Node3 -->
<g id="edge17" class="edge">
<title>Node15&#45;&gt;Node3</title>
<path fill="none" stroke="#191970" d="M1369.9291,-225.1866C1317.1914,-217.0513 1238.8482,-203.8511 1171.5,-188 1105.599,-172.4895 1030.3594,-149.1306 986.0063,-134.7624"/>
<polygon fill="#191970" stroke="#191970" points="986.8152,-131.345 976.2229,-131.5764 984.6476,-138.0009 986.8152,-131.345"/>
</g>
<!-- Node16 -->
<g id="node17" class="node">
<title>Node16</title>
<g id="a_node17"><a xlink:href="../../d4/dc5/GPUDataTypes_8h.html" target="_top" xlink:title="GPUDataTypes.h">
<polygon fill="none" stroke="#000000" points="1422.5,-168.5 1422.5,-187.5 1520.5,-187.5 1520.5,-168.5 1422.5,-168.5"/>
<text text-anchor="middle" x="1471.5" y="-175.5" font-family="Helvetica,sans-Serif" font-size="10.00" fill="#000000">GPUDataTypes.h</text>
</a>
</g>
</g>
<!-- Node15&#45;&gt;Node16 -->
<g id="edge18" class="edge">
<title>Node15&#45;&gt;Node16</title>
<path fill="none" stroke="#191970" d="M1437.6417,-224.2455C1443.3444,-216.4564 1451.49,-205.3308 1458.3625,-195.9439"/>
<polygon fill="#191970" stroke="#191970" points="1461.3568,-197.7789 1464.4402,-187.6427 1455.7087,-193.6437 1461.3568,-197.7789"/>
</g>
<!-- Node16&#45;&gt;Node4 -->
<g id="edge19" class="edge">
<title>Node16&#45;&gt;Node4</title>
<path fill="none" stroke="#191970" d="M1461.4394,-168.4509C1441.323,-149.3574 1395.927,-106.2697 1370.8906,-82.5063"/>
<polygon fill="#191970" stroke="#191970" points="1373.1977,-79.8706 1363.5351,-75.5249 1368.3787,-84.9478 1373.1977,-79.8706"/>
</g>
<!-- Node17 -->
<g id="node18" class="node">
<title>Node17</title>
<polygon fill="none" stroke="#bfbfbf" points="1300,-112.5 1300,-131.5 1353,-131.5 1353,-112.5 1300,-112.5"/>
<text text-anchor="middle" x="1326.5" y="-119.5" font-family="Helvetica,sans-Serif" font-size="10.00" fill="#000000">cstddef</text>
</g>
<!-- Node16&#45;&gt;Node17 -->
<g id="edge20" class="edge">
<title>Node16&#45;&gt;Node17</title>
<path fill="none" stroke="#191970" d="M1446.5736,-168.3733C1422.8798,-159.2226 1387.0489,-145.3844 1360.6932,-135.2057"/>
<polygon fill="#191970" stroke="#191970" points="1361.6906,-131.8389 1351.1011,-131.5011 1359.1686,-138.3689 1361.6906,-131.8389"/>
</g>
<!-- Node18&#45;&gt;Node16 -->
<g id="edge64" class="edge">
<title>Node18&#45;&gt;Node16</title>
<path fill="none" stroke="#191970" d="M1430.985,-448.4417C1483.5551,-435.3565 1557.5,-406.2435 1557.5,-346 1557.5,-346 1557.5,-346 1557.5,-290 1557.5,-248.5919 1520.0622,-213.0689 1494.5888,-193.6911"/>
<polygon fill="#191970" stroke="#191970" points="1496.616,-190.8375 1486.4801,-187.7532 1492.4804,-196.4852 1496.616,-190.8375"/>
</g>
<!-- Node19 -->
<g id="node20" class="node">
<title>Node19</title>
<g id="a_node20"><a xlink:href="../../d6/d25/GPUTPCTracker_8h.html" target="_top" xlink:title="GPUTPCTracker.h">
<polygon fill="none" stroke="#000000" points="687.5,-392.5 687.5,-411.5 787.5,-411.5 787.5,-392.5 687.5,-392.5"/>
<text text-anchor="middle" x="737.5" y="-399.5" font-family="Helvetica,sans-Serif" font-size="10.00" fill="#000000">GPUTPCTracker.h</text>
</a>
</g>
</g>
<!-- Node18&#45;&gt;Node19 -->
<g id="edge22" class="edge">
<title>Node18&#45;&gt;Node19</title>
<path fill="none" stroke="#191970" d="M1322.2446,-453.0058C1201.3304,-442.4587 920.9574,-418.0025 797.5928,-407.2417"/>
<polygon fill="#191970" stroke="#191970" points="797.8341,-403.7496 787.5678,-406.3673 797.2258,-410.7231 797.8341,-403.7496"/>
</g>
<!-- Node29 -->
<g id="node30" class="node">
<title>Node29</title>
<g id="a_node30"><a xlink:href="../../df/d13/GPUParam_8h.html" target="_top" xlink:title="GPUParam.h">
<polygon fill="none" stroke="#000000" points="1042,-280.5 1042,-299.5 1119,-299.5 1119,-280.5 1042,-280.5"/>
<text text-anchor="middle" x="1080.5" y="-287.5" font-family="Helvetica,sans-Serif" font-size="10.00" fill="#000000">GPUParam.h</text>
</a>
</g>
</g>
<!-- Node18&#45;&gt;Node29 -->
<g id="edge63" class="edge">
<title>Node18&#45;&gt;Node29</title>
<path fill="none" stroke="#191970" d="M1362.5678,-448.4862C1312.7302,-420.4839 1166.314,-338.2166 1106.4532,-304.5824"/>
<polygon fill="#191970" stroke="#191970" points="1108.0497,-301.4648 1097.6171,-299.6177 1104.6208,-307.5675 1108.0497,-301.4648"/>
</g>
<!-- Node38 -->
<g id="node39" class="node">
<title>Node38</title>
<g id="a_node39"><a xlink:href="../../da/d28/GPUO2FakeClasses_8h.html" target="_top" xlink:title="GPUO2FakeClasses.h">
<polygon fill="none" stroke="#000000" points="1585.5,-224.5 1585.5,-243.5 1705.5,-243.5 1705.5,-224.5 1585.5,-224.5"/>
<text text-anchor="middle" x="1645.5" y="-231.5" font-family="Helvetica,sans-Serif" font-size="10.00" fill="#000000">GPUO2FakeClasses.h</text>
</a>
</g>
</g>
<!-- Node18&#45;&gt;Node38 -->
<g id="edge65" class="edge">
<title>Node18&#45;&gt;Node38</title>
<path fill="none" stroke="#191970" d="M1436.6108,-450.142C1485.5895,-442.3769 1551.3503,-429.1788 1571.5,-412 1620.4296,-370.2847 1637.5962,-290.9277 1643.1166,-253.9237"/>
<polygon fill="#191970" stroke="#191970" points="1646.6019,-254.2678 1644.4782,-243.888 1639.6655,-253.3266 1646.6019,-254.2678"/>
</g>
<!-- Node20 -->
<g id="node21" class="node">
<title>Node20</title>
<g id="a_node21"><a xlink:href="../../da/dab/GPUTPCDef_8h.html" target="_top" xlink:title="GPUTPCDef.h">
<polygon fill="none" stroke="#000000" points="462.5,-168.5 462.5,-187.5 544.5,-187.5 544.5,-168.5 462.5,-168.5"/>
<text text-anchor="middle" x="503.5" y="-175.5" font-family="Helvetica,sans-Serif" font-size="10.00" fill="#000000">GPUTPCDef.h</text>
</a>
</g>
</g>
<!-- Node19&#45;&gt;Node20 -->
<g id="edge23" class="edge">
<title>Node19&#45;&gt;Node20</title>
<path fill="none" stroke="#191970" d="M701.113,-392.4694C656.8175,-379.0464 582.6049,-350.396 539.5,-300 514.3674,-270.6163 506.7733,-224.357 504.4835,-198.0513"/>
<polygon fill="#191970" stroke="#191970" points="507.9565,-197.5382 503.7758,-187.8031 500.9732,-198.0205 507.9565,-197.5382"/>
</g>
<!-- Node21 -->
<g id="node22" class="node">
<title>Node21</title>
<polygon fill="none" stroke="#bfbfbf" points="759.5,-336.5 759.5,-355.5 819.5,-355.5 819.5,-336.5 759.5,-336.5"/>
<text text-anchor="middle" x="789.5" y="-343.5" font-family="Helvetica,sans-Serif" font-size="10.00" fill="#000000">iostream</text>
</g>
<!-- Node19&#45;&gt;Node21 -->
<g id="edge25" class="edge">
<title>Node19&#45;&gt;Node21</title>
<path fill="none" stroke="#191970" d="M746.5577,-392.2455C754.0142,-384.2155 764.7634,-372.6394 773.6417,-363.0781"/>
<polygon fill="#191970" stroke="#191970" points="776.3063,-365.3522 780.5461,-355.6427 771.1768,-360.589 776.3063,-365.3522"/>
</g>
<!-- Node22 -->
<g id="node23" class="node">
<title>Node22</title>
<g id="a_node23"><a xlink:href="../../dd/d7b/GPUTPCHitId_8h.html" target="_top" xlink:title="GPUTPCHitId.h">
<polygon fill="none" stroke="#000000" points="838,-336.5 838,-355.5 927,-355.5 927,-336.5 838,-336.5"/>
<text text-anchor="middle" x="882.5" y="-343.5" font-family="Helvetica,sans-Serif" font-size="10.00" fill="#000000">GPUTPCHitId.h</text>
</a>
</g>
</g>
<!-- Node19&#45;&gt;Node22 -->
<g id="edge26" class="edge">
<title>Node19&#45;&gt;Node22</title>
<path fill="none" stroke="#191970" d="M762.4264,-392.3733C786.1202,-383.2226 821.9511,-369.3844 848.3068,-359.2057"/>
<polygon fill="#191970" stroke="#191970" points="849.8314,-362.3689 857.8989,-355.5011 847.3094,-355.8389 849.8314,-362.3689"/>
</g>
<!-- Node23 -->
<g id="node24" class="node">
<title>Node23</title>
<g id="a_node24"><a xlink:href="../../df/d4a/GPUTPCSliceData_8h.html" target="_top" xlink:title="GPUTPCSliceData.h">
<polygon fill="none" stroke="#000000" points="629.5,-336.5 629.5,-355.5 741.5,-355.5 741.5,-336.5 629.5,-336.5"/>
<text text-anchor="middle" x="685.5" y="-343.5" font-family="Helvetica,sans-Serif" font-size="10.00" fill="#000000">GPUTPCSliceData.h</text>
</a>
</g>
</g>
<!-- Node19&#45;&gt;Node23 -->
<g id="edge27" class="edge">
<title>Node19&#45;&gt;Node23</title>
<path fill="none" stroke="#191970" d="M728.4423,-392.2455C720.9858,-384.2155 710.2366,-372.6394 701.3583,-363.0781"/>
<polygon fill="#191970" stroke="#191970" points="703.8232,-360.589 694.4539,-355.6427 698.6937,-365.3522 703.8232,-360.589"/>
</g>
<!-- Node34 -->
<g id="node35" class="node">
<title>Node34</title>
<g id="a_node35"><a xlink:href="../../d6/d57/GPUProcessor_8h.html" target="_top" xlink:title="GPUProcessor.h">
<polygon fill="none" stroke="#000000" points="1180,-168.5 1180,-187.5 1273,-187.5 1273,-168.5 1180,-168.5"/>
<text text-anchor="middle" x="1226.5" y="-175.5" font-family="Helvetica,sans-Serif" font-size="10.00" fill="#000000">GPUProcessor.h</text>
</a>
</g>
</g>
<!-- Node19&#45;&gt;Node34 -->
<g id="edge62" class="edge">
<title>Node19&#45;&gt;Node34</title>
<path fill="none" stroke="#191970" d="M787.8456,-395.7307C912.4626,-379.012 1229.2333,-328.7706 1284.5,-244 1296.982,-224.8546 1274.9863,-205.5121 1254.5946,-192.7612"/>
<polygon fill="#191970" stroke="#191970" points="1256.1561,-189.6188 1245.7641,-187.5555 1252.6012,-195.649 1256.1561,-189.6188"/>
</g>
<!-- Node35 -->
<g id="node36" class="node">
<title>Node35</title>
<g id="a_node36"><a xlink:href="../../de/d15/GPUTPCTrackParam_8h.html" target="_top" xlink:title="GPUTPCTrackParam.h">
<polygon fill="none" stroke="#000000" points="223.5,-280.5 223.5,-299.5 345.5,-299.5 345.5,-280.5 223.5,-280.5"/>
<text text-anchor="middle" x="284.5" y="-287.5" font-family="Helvetica,sans-Serif" font-size="10.00" fill="#000000">GPUTPCTrackParam.h</text>
</a>
</g>
</g>
<!-- Node19&#45;&gt;Node35 -->
<g id="edge54" class="edge">
<title>Node19&#45;&gt;Node35</title>
<path fill="none" stroke="#191970" d="M687.215,-392.7597C641.8569,-384.1564 573.4192,-370.5082 514.5,-356 447.5608,-339.5169 370.7576,-316.6697 325.0077,-302.6357"/>
<polygon fill="#191970" stroke="#191970" points="325.7652,-299.2068 315.178,-299.6093 323.7054,-305.8969 325.7652,-299.2068"/>
</g>
<!-- Node37 -->
<g id="node38" class="node">
<title>Node37</title>
<g id="a_node38"><a xlink:href="../../db/d6e/GPUTPCTracklet_8h.html" target="_top" xlink:title="GPUTPCTracklet.h">
<polygon fill="none" stroke="#000000" points="363.5,-280.5 363.5,-299.5 467.5,-299.5 467.5,-280.5 363.5,-280.5"/>
<text text-anchor="middle" x="415.5" y="-287.5" font-family="Helvetica,sans-Serif" font-size="10.00" fill="#000000">GPUTPCTracklet.h</text>
</a>
</g>
</g>
<!-- Node19&#45;&gt;Node37 -->
<g id="edge59" class="edge">
<title>Node19&#45;&gt;Node37</title>
<path fill="none" stroke="#191970" d="M697.4755,-392.463C663.5713,-384.016 613.8604,-370.76 571.5,-356 526.646,-340.3712 476.2915,-318.1906 445.233,-303.9473"/>
<polygon fill="#191970" stroke="#191970" points="446.4047,-300.6334 435.8584,-299.6202 443.471,-306.989 446.4047,-300.6334"/>
</g>
<!-- Node20&#45;&gt;Node3 -->
<g id="edge24" class="edge">
<title>Node20&#45;&gt;Node3</title>
<path fill="none" stroke="#191970" d="M544.8717,-172.7819C629.3956,-162.1213 821.0516,-137.9484 905.8283,-127.2559"/>
<polygon fill="#191970" stroke="#191970" points="906.3794,-130.7142 915.8628,-125.9903 905.5034,-123.7692 906.3794,-130.7142"/>
</g>
<!-- Node23&#45;&gt;Node20 -->
<g id="edge28" class="edge">
<title>Node23&#45;&gt;Node20</title>
<path fill="none" stroke="#191970" d="M634.2903,-336.4273C609.8684,-329.6836 581.6572,-318.4469 561.5,-300 530.9205,-272.0151 514.9188,-224.5169 507.942,-197.7907"/>
<polygon fill="#191970" stroke="#191970" points="511.2573,-196.6122 505.4883,-187.7258 504.4565,-198.2702 511.2573,-196.6122"/>
</g>
<!-- Node24 -->
<g id="node25" class="node">
<title>Node24</title>
<g id="a_node25"><a xlink:href="../../d8/dff/GPUTPCRow_8h.html" target="_top" xlink:title="GPUTPCRow.h">
<polygon fill="none" stroke="#000000" points="570,-280.5 570,-299.5 655,-299.5 655,-280.5 570,-280.5"/>
<text text-anchor="middle" x="612.5" y="-287.5" font-family="Helvetica,sans-Serif" font-size="10.00" fill="#000000">GPUTPCRow.h</text>
</a>
</g>
</g>
<!-- Node23&#45;&gt;Node24 -->
<g id="edge29" class="edge">
<title>Node23&#45;&gt;Node24</title>
<path fill="none" stroke="#191970" d="M672.7844,-336.2455C661.898,-327.8943 646.0117,-315.7076 633.28,-305.9408"/>
<polygon fill="#191970" stroke="#191970" points="635.1346,-302.9523 625.0699,-299.6427 630.8739,-308.5063 635.1346,-302.9523"/>
</g>
<!-- Node26 -->
<g id="node27" class="node">
<title>Node26</title>
<g id="a_node27"><a xlink:href="../../d6/da2/GPUCommonMath_8h.html" target="_top" xlink:title="GPUCommonMath.h">
<polygon fill="none" stroke="#000000" points="970,-168.5 970,-187.5 1085,-187.5 1085,-168.5 970,-168.5"/>
<text text-anchor="middle" x="1027.5" y="-175.5" font-family="Helvetica,sans-Serif" font-size="10.00" fill="#000000">GPUCommonMath.h</text>
</a>
</g>
</g>
<!-- Node23&#45;&gt;Node26 -->
<g id="edge33" class="edge">
<title>Node23&#45;&gt;Node26</title>
<path fill="none" stroke="#191970" d="M692.2753,-336.3075C711.6381,-308.7264 766.5877,-231.3211 778.5,-224 808.1683,-205.7663 896.4814,-192.4832 959.4897,-185.0067"/>
<polygon fill="#191970" stroke="#191970" points="960.2342,-188.4438 969.763,-183.8121 959.4257,-181.4906 960.2342,-188.4438"/>
</g>
<!-- Node23&#45;&gt;Node29 -->
<g id="edge37" class="edge">
<title>Node23&#45;&gt;Node29</title>
<path fill="none" stroke="#191970" d="M741.5123,-337.3313C744.5518,-336.8769 747.5629,-336.4306 750.5,-336 850.2566,-321.3744 967.1477,-305.341 1031.5988,-296.5965"/>
<polygon fill="#191970" stroke="#191970" points="1032.4239,-300.0167 1041.8633,-295.2053 1031.4838,-293.0802 1032.4239,-300.0167"/>
</g>
<!-- Node33 -->
<g id="node34" class="node">
<title>Node33</title>
<g id="a_node34"><a xlink:href="../../d5/da6/GPUMemoryResource_8h.html" target="_top" xlink:title="GPUMemoryResource.h">
<polygon fill="none" stroke="#000000" points="1144,-224.5 1144,-243.5 1275,-243.5 1275,-224.5 1144,-224.5"/>
<text text-anchor="middle" x="1209.5" y="-231.5" font-family="Helvetica,sans-Serif" font-size="10.00" fill="#000000">GPUMemoryResource.h</text>
</a>
</g>
</g>
<!-- Node23&#45;&gt;Node33 -->
<g id="edge47" class="edge">
<title>Node23&#45;&gt;Node33</title>
<path fill="none" stroke="#191970" d="M741.8425,-337.1284C744.7683,-336.7315 747.6675,-336.3525 750.5,-336 917.9686,-315.1607 972.3693,-364.0562 1128.5,-300 1154.7955,-289.2117 1179.2462,-266.9048 1194.2596,-251.2209"/>
<polygon fill="#191970" stroke="#191970" points="1196.9811,-253.4333 1201.2102,-243.7191 1191.8463,-248.6758 1196.9811,-253.4333"/>
</g>
<!-- Node24&#45;&gt;Node20 -->
<g id="edge30" class="edge">
<title>Node24&#45;&gt;Node20</title>
<path fill="none" stroke="#191970" d="M600.5266,-280.1995C589.7144,-271.1675 573.5469,-257.203 560.5,-244 545.1359,-228.4521 528.9722,-209.4494 517.7975,-195.8338"/>
<polygon fill="#191970" stroke="#191970" points="520.2555,-193.3087 511.233,-187.7548 514.8228,-197.723 520.2555,-193.3087"/>
</g>
<!-- Node25 -->
<g id="node26" class="node">
<title>Node25</title>
<g id="a_node26"><a xlink:href="../../d3/da7/GPUTPCGrid_8h.html" target="_top" xlink:title="GPUTPCGrid.h">
<polygon fill="none" stroke="#000000" points="569.5,-224.5 569.5,-243.5 655.5,-243.5 655.5,-224.5 569.5,-224.5"/>
<text text-anchor="middle" x="612.5" y="-231.5" font-family="Helvetica,sans-Serif" font-size="10.00" fill="#000000">GPUTPCGrid.h</text>
</a>
</g>
</g>
<!-- Node24&#45;&gt;Node25 -->
<g id="edge31" class="edge">
<title>Node24&#45;&gt;Node25</title>
<path fill="none" stroke="#191970" d="M612.5,-280.2455C612.5,-272.9382 612.5,-262.6944 612.5,-253.7046"/>
<polygon fill="#191970" stroke="#191970" points="616.0001,-253.6426 612.5,-243.6427 609.0001,-253.6427 616.0001,-253.6426"/>
</g>
<!-- Node25&#45;&gt;Node20 -->
<g id="edge32" class="edge">
<title>Node25&#45;&gt;Node20</title>
<path fill="none" stroke="#191970" d="M593.5136,-224.2455C576.3208,-215.4125 550.7762,-202.2887 531.2868,-192.2758"/>
<polygon fill="#191970" stroke="#191970" points="532.763,-189.0993 522.2688,-187.6427 529.5641,-195.3257 532.763,-189.0993"/>
</g>
<!-- Node26&#45;&gt;Node4 -->
<g id="edge34" class="edge">
<title>Node26&#45;&gt;Node4</title>
<path fill="none" stroke="#191970" d="M1040.3062,-168.3666C1060.0987,-153.9442 1099.7854,-126.8509 1137.5,-112 1186.8141,-92.5816 1245.8506,-80.7218 1289.7315,-73.9195"/>
<polygon fill="#191970" stroke="#191970" points="1290.3298,-77.369 1299.6981,-72.4208 1289.2888,-70.4468 1290.3298,-77.369"/>
</g>
<!-- Node27 -->
<g id="node28" class="node">
<title>Node27</title>
<polygon fill="none" stroke="#bfbfbf" points="1004,-112.5 1004,-131.5 1051,-131.5 1051,-112.5 1004,-112.5"/>
<text text-anchor="middle" x="1027.5" y="-119.5" font-family="Helvetica,sans-Serif" font-size="10.00" fill="#000000">cmath</text>
</g>
<!-- Node26&#45;&gt;Node27 -->
<g id="edge35" class="edge">
<title>Node26&#45;&gt;Node27</title>
<path fill="none" stroke="#191970" d="M1027.5,-168.2455C1027.5,-160.9382 1027.5,-150.6944 1027.5,-141.7046"/>
<polygon fill="#191970" stroke="#191970" points="1031.0001,-141.6426 1027.5,-131.6427 1024.0001,-141.6427 1031.0001,-141.6426"/>
</g>
<!-- Node28 -->
<g id="node29" class="node">
<title>Node28</title>
<polygon fill="none" stroke="#bfbfbf" points="1179.5,-112.5 1179.5,-131.5 1243.5,-131.5 1243.5,-112.5 1179.5,-112.5"/>
<text text-anchor="middle" x="1211.5" y="-119.5" font-family="Helvetica,sans-Serif" font-size="10.00" fill="#000000">algorithm</text>
</g>
<!-- Node26&#45;&gt;Node28 -->
<g id="edge36" class="edge">
<title>Node26&#45;&gt;Node28</title>
<path fill="none" stroke="#191970" d="M1059.1307,-168.3733C1089.8596,-159.021 1136.676,-144.7725 1170.3022,-134.5385"/>
<polygon fill="#191970" stroke="#191970" points="1171.7344,-137.7612 1180.282,-131.5011 1169.6962,-131.0644 1171.7344,-137.7612"/>
</g>
<!-- Node29&#45;&gt;Node3 -->
<g id="edge40" class="edge">
<title>Node29&#45;&gt;Node3</title>
<path fill="none" stroke="#191970" d="M1052.9018,-280.4475C1034.1157,-272.863 1009.6454,-260.7402 992.5,-244 963.9496,-216.1244 953.3721,-168.5845 949.5592,-141.8221"/>
<polygon fill="#191970" stroke="#191970" points="953.0132,-141.2345 948.3066,-131.7424 946.0666,-142.0978 953.0132,-141.2345"/>
</g>
<!-- Node29&#45;&gt;Node4 -->
<g id="edge38" class="edge">
<title>Node29&#45;&gt;Node4</title>
<path fill="none" stroke="#191970" d="M1119.0973,-287.845C1216.984,-282.09 1469.3813,-265.3364 1500.5,-244 1530.3176,-223.5557 1547.5509,-199.3245 1529.5,-168 1501.9937,-120.2671 1442.6589,-92.8329 1400.4985,-78.6829"/>
<polygon fill="#191970" stroke="#191970" points="1401.3065,-75.2662 1390.715,-75.5323 1399.1607,-81.9292 1401.3065,-75.2662"/>
</g>
<!-- Node29&#45;&gt;Node26 -->
<g id="edge39" class="edge">
<title>Node29&#45;&gt;Node26</title>
<path fill="none" stroke="#191970" d="M1087.0795,-280.0524C1095.0571,-266.63 1106.2914,-242.2955 1096.5,-224 1089.0485,-210.0767 1075.3151,-199.6399 1062.051,-192.258"/>
<polygon fill="#191970" stroke="#191970" points="1063.5215,-189.0787 1053.0262,-187.6302 1060.3274,-195.3075 1063.5215,-189.0787"/>
</g>
<!-- Node30 -->
<g id="node31" class="node">
<title>Node30</title>
<g id="a_node31"><a xlink:href="../../dd/dc6/GPUSettings_8h.html" target="_top" xlink:title="GPUSettings.h">
<polygon fill="none" stroke="#000000" points="1001.5,-224.5 1001.5,-243.5 1087.5,-243.5 1087.5,-224.5 1001.5,-224.5"/>
<text text-anchor="middle" x="1044.5" y="-231.5" font-family="Helvetica,sans-Serif" font-size="10.00" fill="#000000">GPUSettings.h</text>
</a>
</g>
</g>
<!-- Node29&#45;&gt;Node30 -->
<g id="edge41" class="edge">
<title>Node29&#45;&gt;Node30</title>
<path fill="none" stroke="#191970" d="M1074.2293,-280.2455C1069.2736,-272.5367 1062.217,-261.5598 1056.2224,-252.2348"/>
<polygon fill="#191970" stroke="#191970" points="1059.0506,-250.1618 1050.6989,-243.6427 1053.1624,-253.9471 1059.0506,-250.1618"/>
</g>
<!-- Node31 -->
<g id="node32" class="node">
<title>Node31</title>
<g id="a_node32"><a xlink:href="../../d6/d1b/GPUTPCGeometry_8h.html" target="_top" xlink:title="GPUTPCGeometry.h">
<polygon fill="none" stroke="#000000" points="1291,-168.5 1291,-187.5 1404,-187.5 1404,-168.5 1291,-168.5"/>
<text text-anchor="middle" x="1347.5" y="-175.5" font-family="Helvetica,sans-Serif" font-size="10.00" fill="#000000">GPUTPCGeometry.h</text>
</a>
</g>
</g>
<!-- Node29&#45;&gt;Node31 -->
<g id="edge43" class="edge">
<title>Node29&#45;&gt;Node31</title>
<path fill="none" stroke="#191970" d="M1119.3551,-287.9181C1162.2718,-284.1576 1232.2137,-273.6058 1284.5,-244 1305.4714,-232.1255 1323.7673,-211.0543 1335.1609,-195.9117"/>
<polygon fill="#191970" stroke="#191970" points="1338.0082,-197.9472 1341.0397,-187.7953 1332.339,-193.8409 1338.0082,-197.9472"/>
</g>
<!-- Node32 -->
<g id="node33" class="node">
<title>Node32</title>
<g id="a_node33"><a xlink:href="../../d9/d9c/GPUTPCGMPolynomialField_8h.html" target="_top" xlink:title="GPUTPCGMPolynomialField.h">
<polygon fill="none" stroke="#000000" points="787.5,-224.5 787.5,-243.5 945.5,-243.5 945.5,-224.5 787.5,-224.5"/>
<text text-anchor="middle" x="866.5" y="-231.5" font-family="Helvetica,sans-Serif" font-size="10.00" fill="#000000">GPUTPCGMPolynomialField.h</text>
</a>
</g>
</g>
<!-- Node29&#45;&gt;Node32 -->
<g id="edge45" class="edge">
<title>Node29&#45;&gt;Node32</title>
<path fill="none" stroke="#191970" d="M1043.7121,-280.3733C1007.4339,-270.8799 951.8764,-256.3415 912.6554,-246.0781"/>
<polygon fill="#191970" stroke="#191970" points="913.3682,-242.6468 902.8079,-243.5011 911.596,-249.4188 913.3682,-242.6468"/>
</g>
<!-- Node30&#45;&gt;Node26 -->
<g id="edge42" class="edge">
<title>Node30&#45;&gt;Node26</title>
<path fill="none" stroke="#191970" d="M1041.5388,-224.2455C1039.2962,-216.8579 1036.1423,-206.4689 1033.3919,-197.4087"/>
<polygon fill="#191970" stroke="#191970" points="1036.6812,-196.1948 1030.4272,-187.6427 1029.983,-198.2282 1036.6812,-196.1948"/>
</g>
<!-- Node31&#45;&gt;Node4 -->
<g id="edge44" class="edge">
<title>Node31&#45;&gt;Node4</title>
<path fill="none" stroke="#191970" d="M1351.6368,-168.3507C1355.3231,-159.1921 1360.4433,-144.9416 1362.5,-132 1364.9674,-116.4745 1362.2767,-98.8274 1359.2101,-85.6896"/>
<polygon fill="#191970" stroke="#191970" points="1362.5576,-84.6554 1356.6508,-75.86 1355.7835,-86.4192 1362.5576,-84.6554"/>
</g>
<!-- Node32&#45;&gt;Node20 -->
<g id="edge46" class="edge">
<title>Node32&#45;&gt;Node20</title>
<path fill="none" stroke="#191970" d="M804.5105,-224.4369C734.065,-213.5693 620.3803,-196.0311 554.7392,-185.9047"/>
<polygon fill="#191970" stroke="#191970" points="555.0474,-182.4109 544.6307,-184.3452 553.9801,-189.3291 555.0474,-182.4109"/>
</g>
<!-- Node33&#45;&gt;Node4 -->
<g id="edge48" class="edge">
<title>Node33&#45;&gt;Node4</title>
<path fill="none" stroke="#191970" d="M1198.1217,-224.3672C1189.0086,-215.8617 1176.8885,-202.5737 1171.5,-188 1159.7851,-156.3157 1149.7281,-138.6395 1170.5,-112 1185.2319,-93.1067 1242.8697,-80.7864 1289.575,-73.6957"/>
<polygon fill="#191970" stroke="#191970" points="1290.271,-77.1312 1299.6582,-72.2188 1289.2565,-70.2051 1290.271,-77.1312"/>
</g>
<!-- Node33&#45;&gt;Node34 -->
<g id="edge49" class="edge">
<title>Node33&#45;&gt;Node34</title>
<path fill="none" stroke="#191970" d="M1212.4612,-224.2455C1214.7038,-216.8579 1217.8577,-206.4689 1220.6081,-197.4087"/>
<polygon fill="#191970" stroke="#191970" points="1224.017,-198.2282 1223.5728,-187.6427 1217.3188,-196.1948 1224.017,-198.2282"/>
</g>
<!-- Node34&#45;&gt;Node3 -->
<g id="edge51" class="edge">
<title>Node34&#45;&gt;Node3</title>
<path fill="none" stroke="#191970" d="M1179.5787,-168.7825C1132.8894,-159.5808 1059.2089,-144.9794 995.5,-132 993.4474,-131.5818 991.3458,-131.1516 989.2237,-130.7156"/>
<polygon fill="#191970" stroke="#191970" points="989.751,-127.2507 979.2498,-128.6558 988.3352,-134.1061 989.751,-127.2507"/>
</g>
<!-- Node34&#45;&gt;Node4 -->
<g id="edge50" class="edge">
<title>Node34&#45;&gt;Node4</title>
<path fill="none" stroke="#191970" d="M1235.3178,-168.1333C1247.4272,-154.8025 1270.1398,-130.5715 1291.5,-112 1304.0341,-101.1022 1318.9615,-89.9762 1331.0281,-81.3964"/>
<polygon fill="#191970" stroke="#191970" points="1333.0583,-84.2476 1339.2338,-75.6387 1329.0375,-78.5175 1333.0583,-84.2476"/>
</g>
<!-- Node34&#45;&gt;Node17 -->
<g id="edge52" class="edge">
<title>Node34&#45;&gt;Node17</title>
<path fill="none" stroke="#191970" d="M1243.9187,-168.2455C1259.5485,-159.4928 1282.7019,-146.527 1300.5185,-136.5496"/>
<polygon fill="#191970" stroke="#191970" points="1302.266,-139.5825 1309.2809,-131.6427 1298.8457,-133.475 1302.266,-139.5825"/>
</g>
<!-- Node34&#45;&gt;Node28 -->
<g id="edge53" class="edge">
<title>Node34&#45;&gt;Node28</title>
<path fill="none" stroke="#191970" d="M1223.8872,-168.2455C1221.9084,-160.8579 1219.1256,-150.4689 1216.6988,-141.4087"/>
<polygon fill="#191970" stroke="#191970" points="1220.0511,-140.3966 1214.0829,-131.6427 1213.2895,-142.2078 1220.0511,-140.3966"/>
</g>
<!-- Node35&#45;&gt;Node20 -->
<g id="edge57" class="edge">
<title>Node35&#45;&gt;Node20</title>
<path fill="none" stroke="#191970" d="M271.3564,-280.4433C254.5036,-267.0471 229.1813,-242.2791 244.5,-224 270.4832,-192.9954 384.5359,-182.8734 452.3244,-179.5795"/>
<polygon fill="#191970" stroke="#191970" points="452.5487,-183.073 462.3802,-179.1243 452.2321,-176.0802 452.5487,-183.073"/>
</g>
<!-- Node35&#45;&gt;Node26 -->
<g id="edge58" class="edge">
<title>Node35&#45;&gt;Node26</title>
<path fill="none" stroke="#191970" d="M345.5705,-281.1793C348.5888,-280.7736 351.5781,-280.3783 354.5,-280 492.0556,-262.1906 531.0262,-281.7289 664.5,-244 684.7824,-238.2668 687.2973,-230.0081 707.5,-224 792.2697,-198.7902 893.9188,-187.1869 959.5533,-181.9911"/>
<polygon fill="#191970" stroke="#191970" points="960.0654,-185.4623 969.77,-181.2111 959.5325,-178.4826 960.0654,-185.4623"/>
</g>
<!-- Node36 -->
<g id="node37" class="node">
<title>Node36</title>
<g id="a_node37"><a xlink:href="../../df/d00/GPUTPCBaseTrackParam_8h.html" target="_top" xlink:title="GPUTPCBaseTrackParam.h">
<polygon fill="none" stroke="#000000" points="253.5,-224.5 253.5,-243.5 399.5,-243.5 399.5,-224.5 253.5,-224.5"/>
<text text-anchor="middle" x="326.5" y="-231.5" font-family="Helvetica,sans-Serif" font-size="10.00" fill="#000000">GPUTPCBaseTrackParam.h</text>
</a>
</g>
</g>
<!-- Node35&#45;&gt;Node36 -->
<g id="edge55" class="edge">
<title>Node35&#45;&gt;Node36</title>
<path fill="none" stroke="#191970" d="M291.8158,-280.2455C297.7179,-272.3761 306.1742,-261.101 313.2594,-251.6542"/>
<polygon fill="#191970" stroke="#191970" points="316.068,-253.7427 319.268,-243.6427 310.4679,-249.5427 316.068,-253.7427"/>
</g>
<!-- Node36&#45;&gt;Node20 -->
<g id="edge56" class="edge">
<title>Node36&#45;&gt;Node20</title>
<path fill="none" stroke="#191970" d="M356.9274,-224.3733C386.4872,-215.021 431.5226,-200.7725 463.8695,-190.5385"/>
<polygon fill="#191970" stroke="#191970" points="464.9913,-193.8546 473.4697,-187.5011 462.8797,-187.1807 464.9913,-193.8546"/>
</g>
<!-- Node37&#45;&gt;Node20 -->
<g id="edge61" class="edge">
<title>Node37&#45;&gt;Node20</title>
<path fill="none" stroke="#191970" d="M419.4566,-280.4122C425.2713,-266.9792 437.0193,-242.1677 451.5,-224 460.4213,-212.8073 472.255,-202.1005 482.3795,-193.8372"/>
<polygon fill="#191970" stroke="#191970" points="484.7053,-196.4602 490.3807,-187.5137 480.3649,-190.9683 484.7053,-196.4602"/>
</g>
<!-- Node37&#45;&gt;Node36 -->
<g id="edge60" class="edge">
<title>Node37&#45;&gt;Node36</title>
<path fill="none" stroke="#191970" d="M399.9974,-280.2455C386.342,-271.6534 366.2343,-259.0014 350.5011,-249.1018"/>
<polygon fill="#191970" stroke="#191970" points="352.1529,-246.006 341.825,-243.6427 348.4249,-251.9307 352.1529,-246.006"/>
</g>
<!-- Node38&#45;&gt;Node4 -->
<g id="edge66" class="edge">
<title>Node38&#45;&gt;Node4</title>
<path fill="none" stroke="#191970" d="M1641.8381,-224.2259C1632.5224,-200.7831 1605.5661,-141.1492 1562.5,-112 1539.0869,-96.1529 1469.6455,-82.8902 1417.1781,-74.74"/>
<polygon fill="#191970" stroke="#191970" points="1417.6753,-71.2754 1407.2621,-73.2285 1416.6205,-78.1955 1417.6753,-71.2754"/>
</g>
<!-- Node38&#45;&gt;Node16 -->
<g id="edge67" class="edge">
<title>Node38&#45;&gt;Node16</title>
<path fill="none" stroke="#191970" d="M1615.5883,-224.3733C1586.6548,-215.0613 1542.6389,-200.8953 1510.8707,-190.671"/>
<polygon fill="#191970" stroke="#191970" points="1511.6128,-187.2331 1501.0213,-187.5011 1509.4682,-193.8965 1511.6128,-187.2331"/>
</g>
<!-- Node39&#45;&gt;Node2 -->
<g id="edge69" class="edge">
<title>Node39&#45;&gt;Node2</title>
<path fill="none" stroke="#191970" d="M347.8561,-448.3421C329.2354,-435.2481 294.7204,-411.2844 264.5,-392 247.5417,-381.1785 228.0902,-369.5645 212.9804,-360.7137"/>
<polygon fill="#191970" stroke="#191970" points="214.5965,-357.6045 204.1946,-355.5917 211.0709,-363.6519 214.5965,-357.6045"/>
</g>
<!-- Node40 -->
<g id="node41" class="node">
<title>Node40</title>
<g id="a_node41"><a xlink:href="../../d1/d65/PackedCharge_8h.html" target="_top" xlink:title="PackedCharge.h">
<polygon fill="none" stroke="#000000" points="317,-392.5 317,-411.5 412,-411.5 412,-392.5 317,-392.5"/>
<text text-anchor="middle" x="364.5" y="-399.5" font-family="Helvetica,sans-Serif" font-size="10.00" fill="#000000">PackedCharge.h</text>
</a>
</g>
</g>
<!-- Node39&#45;&gt;Node40 -->
<g id="edge70" class="edge">
<title>Node39&#45;&gt;Node40</title>
<path fill="none" stroke="#191970" d="M362.0226,-448.2455C362.414,-440.9382 362.9628,-430.6944 363.4444,-421.7046"/>
<polygon fill="#191970" stroke="#191970" points="366.9434,-421.8156 363.9834,-411.6427 359.9534,-421.4411 366.9434,-421.8156"/>
</g>
<!-- Node40&#45;&gt;Node2 -->
<g id="edge71" class="edge">
<title>Node40&#45;&gt;Node2</title>
<path fill="none" stroke="#191970" d="M334.0726,-392.3733C304.5128,-383.021 259.4774,-368.7725 227.1305,-358.5385"/>
<polygon fill="#191970" stroke="#191970" points="228.1203,-355.1807 217.5303,-355.5011 226.0087,-361.8546 228.1203,-355.1807"/>
</g>
<!-- Node40&#45;&gt;Node26 -->
<g id="edge72" class="edge">
<title>Node40&#45;&gt;Node26</title>
<path fill="none" stroke="#191970" d="M408.3211,-392.4778C468.6913,-378.1909 579.6053,-347.685 664.5,-300 710.4429,-274.1941 707.6395,-246.0469 755.5,-224 790.8759,-207.7041 891.0987,-193.5465 959.4866,-185.3883"/>
<polygon fill="#191970" stroke="#191970" points="960.2316,-188.8249 969.7539,-184.1798 959.4133,-181.8728 960.2316,-188.8249"/>
</g>
<!-- Node41&#45;&gt;Node2 -->
<g id="edge75" class="edge">
<title>Node41&#45;&gt;Node2</title>
<path fill="none" stroke="#191970" d="M153.5387,-504.4862C159.2541,-477.8144 175.5189,-401.9117 183.2796,-365.695"/>
<polygon fill="#191970" stroke="#191970" points="186.721,-366.3393 185.394,-355.8279 179.8763,-364.8725 186.721,-366.3393"/>
</g>
</g>
</svg>
