<?xml version="1.0" encoding="UTF-8" standalone="no"?>
<!DOCTYPE svg PUBLIC "-//W3C//DTD SVG 1.1//EN"
 "http://www.w3.org/Graphics/SVG/1.1/DTD/svg11.dtd">
<!-- Generated by graphviz version 2.40.1 (20161225.0304)
 -->
<!-- Title: o2::tof::compressed::Decoder Pages: 1 -->
<!--zoomable 667 -->
<svg id="main" version="1.1" xmlns="http://www.w3.org/2000/svg" xmlns:xlink="http://www.w3.org/1999/xlink" xml:space="preserve" onload="init(evt)">
<style type="text/css"><![CDATA[
.edge:hover path { stroke: red; }
.edge:hover polygon { stroke: red; fill: red; }
]]></style>
<script type="text/javascript"><![CDATA[
var edges = document.getElementsByTagName('g');
if (edges && edges.length) {
  for (var i=0;i<edges.length;i++) {
    if (edges[i].id.substr(0,4)=='edge') {
      edges[i].setAttribute('class','edge');
    }
  }
}
]]></script>
        <defs>
                <circle id="rim" cx="0" cy="0" r="7"/>
                <circle id="rim2" cx="0" cy="0" r="3.5"/>
                <g id="zoomPlus">
                        <use xlink:href="#rim" fill="#404040">
                                <set attributeName="fill" to="#808080" begin="zoomplus.mouseover" end="zoomplus.mouseout"/>
                        </use>
                        <path d="M-4,0h8M0,-4v8" fill="none" stroke="white" stroke-width="1.5" pointer-events="none"/>
                </g>
                <g id="zoomMin">
                        <use xlink:href="#rim" fill="#404040">
                                <set attributeName="fill" to="#808080" begin="zoomminus.mouseover" end="zoomminus.mouseout"/>
                        </use>
                        <path d="M-4,0h8" fill="none" stroke="white" stroke-width="1.5" pointer-events="none"/>
                </g>
                <g id="dirArrow">
                        <path fill="none" stroke="white" stroke-width="1.5" d="M0,-3.0v7 M-2.5,-0.5L0,-3.0L2.5,-0.5"/>
                </g>
               <g id="resetDef">
                       <use xlink:href="#rim2" fill="#404040">
                               <set attributeName="fill" to="#808080" begin="reset.mouseover" end="reset.mouseout"/>
                       </use>
               </g>
        </defs>

<script type="text/javascript">
var viewWidth = 858;
var viewHeight = 667;
var sectionId = 'dynsection-0';
</script>
<script xlink:href="../../svgpan.js"/>
<svg id="graph" class="graph">
<g id="viewport">
<title>o2::tof::compressed::Decoder</title>
<!-- Node1 -->
<g id="node1" class="node">
<title>Node1</title>
<polygon fill="#bfbfbf" stroke="#000000" points="489.0745,-.5 489.0745,-189.5 622.0745,-189.5 622.0745,-.5 489.0745,-.5"/>
<text text-anchor="start" x="497.0745" y="-177.5" font-family="Helvetica,sans-Serif" font-size="10.00" fill="#000000">o2::tof::compressed</text>
<text text-anchor="middle" x="555.5745" y="-166.5" font-family="Helvetica,sans-Serif" font-size="10.00" fill="#000000">::Decoder</text>
<polyline fill="none" stroke="#000000" points="489.0745,-159.5 622.0745,-159.5 "/>
<text text-anchor="middle" x="555.5745" y="-147.5" font-family="Helvetica,sans-Serif" font-size="10.00" fill="#000000"> </text>
<polyline fill="none" stroke="#000000" points="489.0745,-140.5 622.0745,-140.5 "/>
<text text-anchor="start" x="497.0745" y="-128.5" font-family="Helvetica,sans-Serif" font-size="10.00" fill="#000000">+ Decoder()</text>
<text text-anchor="start" x="497.0745" y="-117.5" font-family="Helvetica,sans-Serif" font-size="10.00" fill="#000000">+ ~Decoder()</text>
<text text-anchor="start" x="497.0745" y="-106.5" font-family="Helvetica,sans-Serif" font-size="10.00" fill="#000000">+ open()</text>
<text text-anchor="start" x="497.0745" y="-95.5" font-family="Helvetica,sans-Serif" font-size="10.00" fill="#000000">+ decode()</text>
<text text-anchor="start" x="497.0745" y="-84.5" font-family="Helvetica,sans-Serif" font-size="10.00" fill="#000000">+ readTRM()</text>
<text text-anchor="start" x="497.0745" y="-73.5" font-family="Helvetica,sans-Serif" font-size="10.00" fill="#000000">+ close()</text>
<text text-anchor="start" x="497.0745" y="-62.5" font-family="Helvetica,sans-Serif" font-size="10.00" fill="#000000">+ setVerbose()</text>
<text text-anchor="start" x="497.0745" y="-51.5" font-family="Helvetica,sans-Serif" font-size="10.00" fill="#000000">+ printCrateInfo()</text>
<text text-anchor="start" x="497.0745" y="-40.5" font-family="Helvetica,sans-Serif" font-size="10.00" fill="#000000">+ printTRMInfo()</text>
<text text-anchor="start" x="497.0745" y="-29.5" font-family="Helvetica,sans-Serif" font-size="10.00" fill="#000000">+ printCrateTrailerInfo()</text>
<text text-anchor="start" x="497.0745" y="-18.5" font-family="Helvetica,sans-Serif" font-size="10.00" fill="#000000">+ printHitInfo()</text>
<text text-anchor="start" x="497.0745" y="-7.5" font-family="Helvetica,sans-Serif" font-size="10.00" fill="#000000">+ fromRawHit2Digit()</text>
</g>
<!-- Node2 -->
<g id="node2" class="node">
<title>Node2</title>
<polygon fill="none" stroke="#bfbfbf" points="248.5745,-254 248.5745,-311 298.5745,-311 298.5745,-254 248.5745,-254"/>
<text text-anchor="middle" x="273.5745" y="-299" font-family="Helvetica,sans-Serif" font-size="10.00" fill="#000000">double</text>
<polyline fill="none" stroke="#bfbfbf" points="248.5745,-292 298.5745,-292 "/>
<text text-anchor="middle" x="273.5745" y="-280" font-family="Helvetica,sans-Serif" font-size="10.00" fill="#000000"> </text>
<polyline fill="none" stroke="#bfbfbf" points="248.5745,-273 298.5745,-273 "/>
<text text-anchor="middle" x="273.5745" y="-261" font-family="Helvetica,sans-Serif" font-size="10.00" fill="#000000"> </text>
</g>
<!-- Node2&#45;&gt;Node1 -->
<g id="edge1" class="edge">
<title>Node2&#45;&gt;Node1</title>
<path fill="none" stroke="#404040" d="M280.0327,-253.8065C284.6941,-238.6154 292.3711,-220.5588 304.5745,-208 351.4249,-159.7851 422.5803,-130.4374 477.1808,-113.7807"/>
<polygon fill="none" stroke="#404040" points="477.4071,-113.7139 482.0293,-108.1789 488.9162,-110.3166 484.2941,-115.8516 477.4071,-113.7139"/>
<text text-anchor="middle" x="353.0745" y="-222" font-family="Helvetica,sans-Serif" font-size="10.00" fill="#000000"> #mIntegratedTime</text>
<text text-anchor="middle" x="353.0745" y="-211" font-family="Helvetica,sans-Serif" font-size="10.00" fill="#000000">#mIntegratedBytes</text>
</g>
<!-- Node3 -->
<g id="node3" class="node">
<title>Node3</title>
<g id="a_node3"><a xlink:href="../../df/dd7/uniono2_1_1tof_1_1compressed_1_1Union__t.html" target="_top" xlink:title="{o2::tof::compressed\l::Union_t\n||}">
<polygon fill="none" stroke="#000000" points="331.0745,-248.5 331.0745,-316.5 444.0745,-316.5 444.0745,-248.5 331.0745,-248.5"/>
<text text-anchor="start" x="339.0745" y="-304.5" font-family="Helvetica,sans-Serif" font-size="10.00" fill="#000000">o2::tof::compressed</text>
<text text-anchor="middle" x="387.5745" y="-293.5" font-family="Helvetica,sans-Serif" font-size="10.00" fill="#000000">::Union_t</text>
<polyline fill="none" stroke="#000000" points="331.0745,-286.5 444.0745,-286.5 "/>
<text text-anchor="middle" x="387.5745" y="-274.5" font-family="Helvetica,sans-Serif" font-size="10.00" fill="#000000"> </text>
<polyline fill="none" stroke="#000000" points="331.0745,-267.5 444.0745,-267.5 "/>
<text text-anchor="middle" x="387.5745" y="-255.5" font-family="Helvetica,sans-Serif" font-size="10.00" fill="#000000"> </text>
</a>
</g>
</g>
<!-- Node3&#45;&gt;Node1 -->
<g id="edge2" class="edge">
<title>Node3&#45;&gt;Node1</title>
<path fill="none" stroke="#404040" d="M397.7852,-248.405C402.7705,-235.0346 409.6503,-220.0437 418.5745,-208 435.3636,-185.3424 457.6441,-164.4505 479.3488,-146.9549"/>
<polygon fill="none" stroke="#404040" points="479.4974,-146.838 481.7383,-139.9839 488.927,-139.4162 486.6861,-146.2703 479.4974,-146.838"/>
<text text-anchor="middle" x="451.0745" y="-222" font-family="Helvetica,sans-Serif" font-size="10.00" fill="#000000"> #mUnion</text>
<text text-anchor="middle" x="451.0745" y="-211" font-family="Helvetica,sans-Serif" font-size="10.00" fill="#000000">#mUnionEnd</text>
</g>
<!-- Node4 -->
<g id="node4" class="node">
<title>Node4</title>
<g id="a_node4"><a xlink:href="../../df/d87/structo2_1_1tof_1_1compressed_1_1PackedHit__t.html" target="_top" xlink:title="{o2::tof::compressed\l::PackedHit_t\n||}">
<polygon fill="none" stroke="#000000" points="69.0745,-370 69.0745,-438 182.0745,-438 182.0745,-370 69.0745,-370"/>
<text text-anchor="start" x="77.0745" y="-426" font-family="Helvetica,sans-Serif" font-size="10.00" fill="#000000">o2::tof::compressed</text>
<text text-anchor="middle" x="125.5745" y="-415" font-family="Helvetica,sans-Serif" font-size="10.00" fill="#000000">::PackedHit_t</text>
<polyline fill="none" stroke="#000000" points="69.0745,-408 182.0745,-408 "/>
<text text-anchor="middle" x="125.5745" y="-396" font-family="Helvetica,sans-Serif" font-size="10.00" fill="#000000"> </text>
<polyline fill="none" stroke="#000000" points="69.0745,-389 182.0745,-389 "/>
<text text-anchor="middle" x="125.5745" y="-377" font-family="Helvetica,sans-Serif" font-size="10.00" fill="#000000"> </text>
</a>
</g>
</g>
<!-- Node4&#45;&gt;Node3 -->
<g id="edge3" class="edge">
<title>Node4&#45;&gt;Node3</title>
<path fill="none" stroke="#404040" d="M180.8139,-369.8271C184.1096,-367.8441 187.3816,-365.8895 190.5745,-364 213.0147,-350.7207 217.4739,-344.953 241.5745,-335 269.6771,-323.3943 278.8771,-327.045 307.5745,-317 311.4759,-315.6344 315.456,-314.1672 319.4535,-312.6357"/>
<polygon fill="none" stroke="#404040" points="319.5563,-312.595 323.6638,-306.6681 330.7147,-308.1801 326.6072,-314.107 319.5563,-312.595"/>
<text text-anchor="middle" x="272.0745" y="-338" font-family="Helvetica,sans-Serif" font-size="10.00" fill="#000000"> +packedHit</text>
</g>
<!-- Node5 -->
<g id="node5" class="node">
<title>Node5</title>
<polygon fill="none" stroke="#bfbfbf" points="359.5745,-601.5 359.5745,-658.5 415.5745,-658.5 415.5745,-601.5 359.5745,-601.5"/>
<text text-anchor="middle" x="387.5745" y="-646.5" font-family="Helvetica,sans-Serif" font-size="10.00" fill="#000000">uint32_t</text>
<polyline fill="none" stroke="#bfbfbf" points="359.5745,-639.5 415.5745,-639.5 "/>
<text text-anchor="middle" x="387.5745" y="-627.5" font-family="Helvetica,sans-Serif" font-size="10.00" fill="#000000"> </text>
<polyline fill="none" stroke="#bfbfbf" points="359.5745,-620.5 415.5745,-620.5 "/>
<text text-anchor="middle" x="387.5745" y="-608.5" font-family="Helvetica,sans-Serif" font-size="10.00" fill="#000000"> </text>
</g>
<!-- Node5&#45;&gt;Node3 -->
<g id="edge11" class="edge">
<title>Node5&#45;&gt;Node3</title>
<path fill="none" stroke="#404040" d="M359.3715,-627.1738C302.1767,-621.0473 174.8087,-605.2785 137.5745,-583 43.7616,-526.8686 -45.0894,-447.4159 25.5745,-364 66.6394,-315.5245 246.6268,-334.9324 307.5745,-317 311.5399,-315.8333 315.5704,-314.5225 319.6068,-313.1117"/>
<polygon fill="none" stroke="#404040" points="319.6969,-313.0784 323.9327,-307.2424 330.9489,-308.9077 326.7131,-314.7437 319.6969,-313.0784"/>
<text text-anchor="middle" x="42.5745" y="-401.5" font-family="Helvetica,sans-Serif" font-size="10.00" fill="#000000"> +data</text>
</g>
<!-- Node5&#45;&gt;Node4 -->
<g id="edge4" class="edge">
<title>Node5&#45;&gt;Node4</title>
<path fill="none" stroke="#404040" d="M359.4704,-625.2491C316.3959,-617.4994 236.7066,-601.1673 214.5745,-583 173.1574,-549.0024 149.3255,-490.9046 136.9323,-450.1425"/>
<polygon fill="none" stroke="#404040" points="136.8572,-449.8827 131.3458,-445.2324 133.5186,-438.3565 139.03,-443.0067 136.8572,-449.8827"/>
<text text-anchor="middle" x="238.0745" y="-542" font-family="Helvetica,sans-Serif" font-size="10.00" fill="#000000"> +chain</text>
<text text-anchor="middle" x="238.0745" y="-531" font-family="Helvetica,sans-Serif" font-size="10.00" fill="#000000">+channel</text>
<text text-anchor="middle" x="238.0745" y="-520" font-family="Helvetica,sans-Serif" font-size="10.00" fill="#000000">+time</text>
<text text-anchor="middle" x="238.0745" y="-509" font-family="Helvetica,sans-Serif" font-size="10.00" fill="#000000">+tot</text>
<text text-anchor="middle" x="238.0745" y="-498" font-family="Helvetica,sans-Serif" font-size="10.00" fill="#000000">+tdcID</text>
</g>
<!-- Node6 -->
<g id="node6" class="node">
<title>Node6</title>
<g id="a_node6"><a xlink:href="../../dc/d31/structo2_1_1tof_1_1compressed_1_1CrateTrailer__t.html" target="_top" xlink:title="{o2::tof::compressed\l::CrateTrailer_t\n|+ trmFault11\l+ trmFault12\l|}">
<polygon fill="none" stroke="#000000" points="200.0745,-364.5 200.0745,-443.5 313.0745,-443.5 313.0745,-364.5 200.0745,-364.5"/>
<text text-anchor="start" x="208.0745" y="-431.5" font-family="Helvetica,sans-Serif" font-size="10.00" fill="#000000">o2::tof::compressed</text>
<text text-anchor="middle" x="256.5745" y="-420.5" font-family="Helvetica,sans-Serif" font-size="10.00" fill="#000000">::CrateTrailer_t</text>
<polyline fill="none" stroke="#000000" points="200.0745,-413.5 313.0745,-413.5 "/>
<text text-anchor="start" x="208.0745" y="-401.5" font-family="Helvetica,sans-Serif" font-size="10.00" fill="#000000">+ trmFault11</text>
<text text-anchor="start" x="208.0745" y="-390.5" font-family="Helvetica,sans-Serif" font-size="10.00" fill="#000000">+ trmFault12</text>
<polyline fill="none" stroke="#000000" points="200.0745,-383.5 313.0745,-383.5 "/>
<text text-anchor="middle" x="256.5745" y="-371.5" font-family="Helvetica,sans-Serif" font-size="10.00" fill="#000000"> </text>
</a>
</g>
</g>
<!-- Node5&#45;&gt;Node6 -->
<g id="edge6" class="edge">
<title>Node5&#45;&gt;Node6</title>
<path fill="none" stroke="#404040" d="M359.542,-617.7798C344.3089,-609.8546 326.2517,-598.169 314.5745,-583 285.8951,-545.7446 271.1308,-493.8026 263.7002,-455.463"/>
<polygon fill="none" stroke="#404040" points="263.6773,-455.3365 258.6713,-450.1461 261.537,-443.5289 266.543,-448.7192 263.6773,-455.3365"/>
<text text-anchor="middle" x="349.0745" y="-575" font-family="Helvetica,sans-Serif" font-size="10.00" fill="#000000"> +mustBeOne</text>
<text text-anchor="middle" x="349.0745" y="-564" font-family="Helvetica,sans-Serif" font-size="10.00" fill="#000000">+trmFault03</text>
<text text-anchor="middle" x="349.0745" y="-553" font-family="Helvetica,sans-Serif" font-size="10.00" fill="#000000">+trmFault04</text>
<text text-anchor="middle" x="349.0745" y="-542" font-family="Helvetica,sans-Serif" font-size="10.00" fill="#000000">+trmFault05</text>
<text text-anchor="middle" x="349.0745" y="-531" font-family="Helvetica,sans-Serif" font-size="10.00" fill="#000000">+trmFault06</text>
<text text-anchor="middle" x="349.0745" y="-520" font-family="Helvetica,sans-Serif" font-size="10.00" fill="#000000">+trmFault07</text>
<text text-anchor="middle" x="349.0745" y="-509" font-family="Helvetica,sans-Serif" font-size="10.00" fill="#000000">+trmFault08</text>
<text text-anchor="middle" x="349.0745" y="-498" font-family="Helvetica,sans-Serif" font-size="10.00" fill="#000000">+trmFault09</text>
<text text-anchor="middle" x="349.0745" y="-487" font-family="Helvetica,sans-Serif" font-size="10.00" fill="#000000">+crateFault</text>
<text text-anchor="middle" x="349.0745" y="-476" font-family="Helvetica,sans-Serif" font-size="10.00" fill="#000000">+trmFault10</text>
<text text-anchor="middle" x="349.0745" y="-465" font-family="Helvetica,sans-Serif" font-size="10.00" fill="#000000">...</text>
</g>
<!-- Node7 -->
<g id="node7" class="node">
<title>Node7</title>
<g id="a_node7"><a xlink:href="../../d0/df7/structo2_1_1tof_1_1compressed_1_1CrateOrbit__t.html" target="_top" xlink:title="{o2::tof::compressed\l::CrateOrbit_t\n||}">
<polygon fill="none" stroke="#000000" points="331.0745,-370 331.0745,-438 444.0745,-438 444.0745,-370 331.0745,-370"/>
<text text-anchor="start" x="339.0745" y="-426" font-family="Helvetica,sans-Serif" font-size="10.00" fill="#000000">o2::tof::compressed</text>
<text text-anchor="middle" x="387.5745" y="-415" font-family="Helvetica,sans-Serif" font-size="10.00" fill="#000000">::CrateOrbit_t</text>
<polyline fill="none" stroke="#000000" points="331.0745,-408 444.0745,-408 "/>
<text text-anchor="middle" x="387.5745" y="-396" font-family="Helvetica,sans-Serif" font-size="10.00" fill="#000000"> </text>
<polyline fill="none" stroke="#000000" points="331.0745,-389 444.0745,-389 "/>
<text text-anchor="middle" x="387.5745" y="-377" font-family="Helvetica,sans-Serif" font-size="10.00" fill="#000000"> </text>
</a>
</g>
</g>
<!-- Node5&#45;&gt;Node7 -->
<g id="edge8" class="edge">
<title>Node5&#45;&gt;Node7</title>
<path fill="none" stroke="#404040" d="M387.5745,-601.3769C387.5745,-563.3778 387.5745,-495.8033 387.5745,-450.4497"/>
<polygon fill="none" stroke="#404040" points="387.5746,-450.29 383.5746,-444.29 387.5745,-438.29 391.5746,-444.29 387.5746,-450.29"/>
<text text-anchor="middle" x="410.0745" y="-520" font-family="Helvetica,sans-Serif" font-size="10.00" fill="#000000"> +orbitID</text>
</g>
<!-- Node8 -->
<g id="node8" class="node">
<title>Node8</title>
<g id="a_node8"><a xlink:href="../../d5/d0d/structo2_1_1tof_1_1compressed_1_1Word__t.html" target="_top" xlink:title="{o2::tof::compressed\l::Word_t\n||}">
<polygon fill="none" stroke="#000000" points="462.0745,-370 462.0745,-438 575.0745,-438 575.0745,-370 462.0745,-370"/>
<text text-anchor="start" x="470.0745" y="-426" font-family="Helvetica,sans-Serif" font-size="10.00" fill="#000000">o2::tof::compressed</text>
<text text-anchor="middle" x="518.5745" y="-415" font-family="Helvetica,sans-Serif" font-size="10.00" fill="#000000">::Word_t</text>
<polyline fill="none" stroke="#000000" points="462.0745,-408 575.0745,-408 "/>
<text text-anchor="middle" x="518.5745" y="-396" font-family="Helvetica,sans-Serif" font-size="10.00" fill="#000000"> </text>
<polyline fill="none" stroke="#000000" points="462.0745,-389 575.0745,-389 "/>
<text text-anchor="middle" x="518.5745" y="-377" font-family="Helvetica,sans-Serif" font-size="10.00" fill="#000000"> </text>
</a>
</g>
</g>
<!-- Node5&#45;&gt;Node8 -->
<g id="edge10" class="edge">
<title>Node5&#45;&gt;Node8</title>
<path fill="none" stroke="#404040" d="M415.6759,-606.5239C423.0712,-599.4648 430.6334,-591.359 436.5745,-583 466.1471,-541.392 489.1218,-487.4147 503.1328,-449.6585"/>
<polygon fill="none" stroke="#404040" points="503.2681,-449.2857 501.5562,-442.2807 507.3639,-438.0063 509.0758,-445.0112 503.2681,-449.2857"/>
<text text-anchor="middle" x="526.5745" y="-525.5" font-family="Helvetica,sans-Serif" font-size="10.00" fill="#000000"> +wordType</text>
<text text-anchor="middle" x="526.5745" y="-514.5" font-family="Helvetica,sans-Serif" font-size="10.00" fill="#000000">+undefined</text>
</g>
<!-- Node9 -->
<g id="node9" class="node">
<title>Node9</title>
<g id="a_node9"><a xlink:href="../../df/d7e/structo2_1_1tof_1_1compressed_1_1FrameHeader__t.html" target="_top" xlink:title="{o2::tof::compressed\l::FrameHeader_t\n||}">
<polygon fill="none" stroke="#000000" points="593.0745,-370 593.0745,-438 706.0745,-438 706.0745,-370 593.0745,-370"/>
<text text-anchor="start" x="601.0745" y="-426" font-family="Helvetica,sans-Serif" font-size="10.00" fill="#000000">o2::tof::compressed</text>
<text text-anchor="middle" x="649.5745" y="-415" font-family="Helvetica,sans-Serif" font-size="10.00" fill="#000000">::FrameHeader_t</text>
<polyline fill="none" stroke="#000000" points="593.0745,-408 706.0745,-408 "/>
<text text-anchor="middle" x="649.5745" y="-396" font-family="Helvetica,sans-Serif" font-size="10.00" fill="#000000"> </text>
<polyline fill="none" stroke="#000000" points="593.0745,-389 706.0745,-389 "/>
<text text-anchor="middle" x="649.5745" y="-377" font-family="Helvetica,sans-Serif" font-size="10.00" fill="#000000"> </text>
</a>
</g>
</g>
<!-- Node5&#45;&gt;Node9 -->
<g id="edge13" class="edge">
<title>Node5&#45;&gt;Node9</title>
<path fill="none" stroke="#404040" d="M415.8575,-625.1544C458.7516,-617.3367 537.5944,-600.9875 559.5745,-583 601.2248,-548.9155 625.4052,-490.6437 638.0184,-449.8733"/>
<polygon fill="none" stroke="#404040" points="638.0223,-449.8599 635.8856,-442.9726 641.4212,-438.3513 643.558,-445.2386 638.0223,-449.8599"/>
<text text-anchor="middle" x="673.5745" y="-542" font-family="Helvetica,sans-Serif" font-size="10.00" fill="#000000"> +numberOfHits</text>
<text text-anchor="middle" x="673.5745" y="-531" font-family="Helvetica,sans-Serif" font-size="10.00" fill="#000000">+deltaBC</text>
<text text-anchor="middle" x="673.5745" y="-520" font-family="Helvetica,sans-Serif" font-size="10.00" fill="#000000">+trmID</text>
<text text-anchor="middle" x="673.5745" y="-509" font-family="Helvetica,sans-Serif" font-size="10.00" fill="#000000">+frameID</text>
<text text-anchor="middle" x="673.5745" y="-498" font-family="Helvetica,sans-Serif" font-size="10.00" fill="#000000">+mustBeZero</text>
</g>
<!-- Node10 -->
<g id="node10" class="node">
<title>Node10</title>
<g id="a_node10"><a xlink:href="../../d5/da4/structo2_1_1tof_1_1compressed_1_1CrateHeader__t.html" target="_top" xlink:title="{o2::tof::compressed\l::CrateHeader_t\n||}">
<polygon fill="none" stroke="#000000" points="724.0745,-370 724.0745,-438 837.0745,-438 837.0745,-370 724.0745,-370"/>
<text text-anchor="start" x="732.0745" y="-426" font-family="Helvetica,sans-Serif" font-size="10.00" fill="#000000">o2::tof::compressed</text>
<text text-anchor="middle" x="780.5745" y="-415" font-family="Helvetica,sans-Serif" font-size="10.00" fill="#000000">::CrateHeader_t</text>
<polyline fill="none" stroke="#000000" points="724.0745,-408 837.0745,-408 "/>
<text text-anchor="middle" x="780.5745" y="-396" font-family="Helvetica,sans-Serif" font-size="10.00" fill="#000000"> </text>
<polyline fill="none" stroke="#000000" points="724.0745,-389 837.0745,-389 "/>
<text text-anchor="middle" x="780.5745" y="-377" font-family="Helvetica,sans-Serif" font-size="10.00" fill="#000000"> </text>
</a>
</g>
</g>
<!-- Node5&#45;&gt;Node10 -->
<g id="edge15" class="edge">
<title>Node5&#45;&gt;Node10</title>
<path fill="none" stroke="#404040" d="M415.6655,-629.6368C486.7896,-628.163 671.5992,-620.7082 717.5745,-583 757.1348,-550.5534 771.8821,-491.5977 777.3629,-450.2377"/>
<polygon fill="none" stroke="#404040" points="777.3672,-450.2003 774.0889,-443.7775 778.7569,-438.2811 782.0351,-444.7039 777.3672,-450.2003"/>
<text text-anchor="middle" x="812.0745" y="-536.5" font-family="Helvetica,sans-Serif" font-size="10.00" fill="#000000"> +mustBeOne</text>
<text text-anchor="middle" x="812.0745" y="-525.5" font-family="Helvetica,sans-Serif" font-size="10.00" fill="#000000">+eventCounter</text>
<text text-anchor="middle" x="812.0745" y="-514.5" font-family="Helvetica,sans-Serif" font-size="10.00" fill="#000000">+drmID</text>
<text text-anchor="middle" x="812.0745" y="-503.5" font-family="Helvetica,sans-Serif" font-size="10.00" fill="#000000">+bunchID</text>
</g>
<!-- Node6&#45;&gt;Node3 -->
<g id="edge5" class="edge">
<title>Node6&#45;&gt;Node3</title>
<path fill="none" stroke="#404040" d="M288.4842,-364.3064C297.1875,-354.3381 306.8968,-343.9415 316.5745,-335 320.4803,-331.3913 324.6312,-327.7967 328.889,-324.2786"/>
<polygon fill="none" stroke="#404040" points="328.9592,-324.2224 331.1436,-317.3501 338.3274,-316.7232 336.143,-323.5956 328.9592,-324.2224"/>
<text text-anchor="middle" x="350.0745" y="-338" font-family="Helvetica,sans-Serif" font-size="10.00" fill="#000000"> +crateTrailer</text>
</g>
<!-- Node7&#45;&gt;Node3 -->
<g id="edge7" class="edge">
<title>Node7&#45;&gt;Node3</title>
<path fill="none" stroke="#404040" d="M387.5745,-369.8321C387.5745,-357.1499 387.5745,-342.5424 387.5745,-328.948"/>
<polygon fill="none" stroke="#404040" points="387.5746,-328.8324 383.5746,-322.8324 387.5745,-316.8324 391.5746,-322.8323 387.5746,-328.8324"/>
<text text-anchor="middle" x="418.0745" y="-338" font-family="Helvetica,sans-Serif" font-size="10.00" fill="#000000"> +crateOrbit</text>
</g>
<!-- Node8&#45;&gt;Node3 -->
<g id="edge9" class="edge">
<title>Node8&#45;&gt;Node3</title>
<path fill="none" stroke="#404040" d="M487.5182,-369.8075C476.7528,-358.4262 464.4106,-345.884 452.5745,-335 448.8507,-331.5757 444.9351,-328.1101 440.9492,-324.6779"/>
<polygon fill="none" stroke="#404040" points="440.7469,-324.5071 433.5819,-323.6926 431.5781,-316.7655 438.743,-317.58 440.7469,-324.5071"/>
<text text-anchor="middle" x="481.5745" y="-338" font-family="Helvetica,sans-Serif" font-size="10.00" fill="#000000"> +word</text>
</g>
<!-- Node9&#45;&gt;Node3 -->
<g id="edge12" class="edge">
<title>Node9&#45;&gt;Node3</title>
<path fill="none" stroke="#404040" d="M596.1451,-369.9379C592.2779,-367.8396 588.3961,-365.8369 584.5745,-364 559.2583,-351.8313 495.2384,-333.2392 455.4664,-317.4344"/>
<polygon fill="none" stroke="#404040" points="455.2884,-317.3602 448.2105,-318.7398 444.2147,-312.7369 451.2926,-311.3573 455.2884,-317.3602"/>
<text text-anchor="middle" x="572.5745" y="-338" font-family="Helvetica,sans-Serif" font-size="10.00" fill="#000000"> +frameHeader</text>
</g>
<!-- Node10&#45;&gt;Node3 -->
<g id="edge14" class="edge">
<title>Node10&#45;&gt;Node3</title>
<path fill="none" stroke="#404040" d="M727.6427,-369.8417C723.6239,-367.7405 719.5749,-365.7655 715.5745,-364 672.8481,-345.143 660.3878,-344.0711 614.5745,-335 547.669,-321.7526 524.8393,-336.328 456.1686,-317.2755"/>
<polygon fill="none" stroke="#404040" points="455.77,-317.1583 448.8848,-319.3016 444.2582,-313.7703 451.1434,-311.627 455.77,-317.1583"/>
<text text-anchor="middle" x="701.5745" y="-338" font-family="Helvetica,sans-Serif" font-size="10.00" fill="#000000"> +crateHeader</text>
</g>
<!-- Node11 -->
<g id="node11" class="node">
<title>Node11</title>
<polygon fill="none" stroke="#bfbfbf" points="462.5745,-254 462.5745,-311 500.5745,-311 500.5745,-254 462.5745,-254"/>
<text text-anchor="middle" x="481.5745" y="-299" font-family="Helvetica,sans-Serif" font-size="10.00" fill="#000000">char</text>
<polyline fill="none" stroke="#bfbfbf" points="462.5745,-292 500.5745,-292 "/>
<text text-anchor="middle" x="481.5745" y="-280" font-family="Helvetica,sans-Serif" font-size="10.00" fill="#000000"> </text>
<polyline fill="none" stroke="#bfbfbf" points="462.5745,-273 500.5745,-273 "/>
<text text-anchor="middle" x="481.5745" y="-261" font-family="Helvetica,sans-Serif" font-size="10.00" fill="#000000"> </text>
</g>
<!-- Node11&#45;&gt;Node1 -->
<g id="edge16" class="edge">
<title>Node11&#45;&gt;Node1</title>
<path fill="none" stroke="#404040" d="M484.4087,-253.6539C486.3387,-239.6093 489.4974,-222.6372 494.5745,-208 495.4022,-205.614 496.276,-203.2178 497.1903,-200.8172"/>
<polygon fill="none" stroke="#404040" points="497.2404,-200.6933 495.7841,-193.6307 501.7432,-189.5701 503.1995,-196.6326 497.2404,-200.6933"/>
<text text-anchor="middle" x="520.0745" y="-216.5" font-family="Helvetica,sans-Serif" font-size="10.00" fill="#000000"> #mBuffer</text>
</g>
<!-- Node12 -->
<g id="node12" class="node">
<title>Node12</title>
<polygon fill="none" stroke="#bfbfbf" points="518.5745,-254 518.5745,-311 576.5745,-311 576.5745,-254 518.5745,-254"/>
<text text-anchor="middle" x="547.5745" y="-299" font-family="Helvetica,sans-Serif" font-size="10.00" fill="#000000">ifstream</text>
<polyline fill="none" stroke="#bfbfbf" points="518.5745,-292 576.5745,-292 "/>
<text text-anchor="middle" x="547.5745" y="-280" font-family="Helvetica,sans-Serif" font-size="10.00" fill="#000000"> </text>
<polyline fill="none" stroke="#bfbfbf" points="518.5745,-273 576.5745,-273 "/>
<text text-anchor="middle" x="547.5745" y="-261" font-family="Helvetica,sans-Serif" font-size="10.00" fill="#000000"> </text>
</g>
<!-- Node12&#45;&gt;Node1 -->
<g id="edge17" class="edge">
<title>Node12&#45;&gt;Node1</title>
<path fill="none" stroke="#404040" d="M548.807,-253.614C549.4175,-239.3052 550.1967,-221.0421 551.0077,-202.0356"/>
<polygon fill="none" stroke="#404040" points="551.0179,-201.7937 547.2774,-195.6286 551.5295,-189.8046 555.2701,-195.9697 551.0179,-201.7937"/>
<text text-anchor="middle" x="569.5745" y="-216.5" font-family="Helvetica,sans-Serif" font-size="10.00" fill="#000000"> #mFile</text>
</g>
<!-- Node13 -->
<g id="node13" class="node">
<title>Node13</title>
<polygon fill="none" stroke="#bfbfbf" points="595.0745,-254 595.0745,-311 686.0745,-311 686.0745,-254 595.0745,-254"/>
<text text-anchor="middle" x="640.5745" y="-299" font-family="Helvetica,sans-Serif" font-size="10.00" fill="#000000">vector&lt; char &gt;</text>
<polyline fill="none" stroke="#bfbfbf" points="595.0745,-292 686.0745,-292 "/>
<text text-anchor="middle" x="640.5745" y="-280" font-family="Helvetica,sans-Serif" font-size="10.00" fill="#000000"> </text>
<polyline fill="none" stroke="#bfbfbf" points="595.0745,-273 686.0745,-273 "/>
<text text-anchor="middle" x="640.5745" y="-261" font-family="Helvetica,sans-Serif" font-size="10.00" fill="#000000"> </text>
</g>
<!-- Node13&#45;&gt;Node1 -->
<g id="edge18" class="edge">
<title>Node13&#45;&gt;Node1</title>
<path fill="none" stroke="#404040" d="M627.4796,-253.614C620.8699,-239.0339 612.3991,-220.3483 603.6069,-200.9538"/>
<polygon fill="none" stroke="#404040" points="603.5073,-200.734 597.3869,-196.9209 598.5526,-189.8046 604.6731,-193.6178 603.5073,-200.734"/>
<text text-anchor="middle" x="652.5745" y="-216.5" font-family="Helvetica,sans-Serif" font-size="10.00" fill="#000000"> #mBufferLocal</text>
</g>
<!-- Node14 -->
<g id="node14" class="node">
<title>Node14</title>
<polygon fill="none" stroke="#bfbfbf" points="704.5745,-254 704.5745,-311 742.5745,-311 742.5745,-254 704.5745,-254"/>
<text text-anchor="middle" x="723.5745" y="-299" font-family="Helvetica,sans-Serif" font-size="10.00" fill="#000000">bool</text>
<polyline fill="none" stroke="#bfbfbf" points="704.5745,-292 742.5745,-292 "/>
<text text-anchor="middle" x="723.5745" y="-280" font-family="Helvetica,sans-Serif" font-size="10.00" fill="#000000"> </text>
<polyline fill="none" stroke="#bfbfbf" points="704.5745,-273 742.5745,-273 "/>
<text text-anchor="middle" x="723.5745" y="-261" font-family="Helvetica,sans-Serif" font-size="10.00" fill="#000000"> </text>
</g>
<!-- Node14&#45;&gt;Node1 -->
<g id="edge19" class="edge">
<title>Node14&#45;&gt;Node1</title>
<path fill="none" stroke="#404040" d="M716.2523,-253.8814C711.6002,-239.2464 704.5465,-221.6851 694.5745,-208 677.4269,-184.4673 654.2301,-163.0334 631.7024,-145.3107"/>
<polygon fill="none" stroke="#404040" points="631.6277,-145.2534 624.4325,-144.7734 622.1082,-137.9472 629.3033,-138.4271 631.6277,-145.2534"/>
<text text-anchor="middle" x="736.0745" y="-216.5" font-family="Helvetica,sans-Serif" font-size="10.00" fill="#000000"> #mVerbose</text>
</g>
<!-- Node15 -->
<g id="node15" class="node">
<title>Node15</title>
<polygon fill="none" stroke="#bfbfbf" points="788.5745,-254 788.5745,-311 826.5745,-311 826.5745,-254 788.5745,-254"/>
<text text-anchor="middle" x="807.5745" y="-299" font-family="Helvetica,sans-Serif" font-size="10.00" fill="#000000">long</text>
<polyline fill="none" stroke="#bfbfbf" points="788.5745,-292 826.5745,-292 "/>
<text text-anchor="middle" x="807.5745" y="-280" font-family="Helvetica,sans-Serif" font-size="10.00" fill="#000000"> </text>
<polyline fill="none" stroke="#bfbfbf" points="788.5745,-273 826.5745,-273 "/>
<text text-anchor="middle" x="807.5745" y="-261" font-family="Helvetica,sans-Serif" font-size="10.00" fill="#000000"> </text>
</g>
<!-- Node15&#45;&gt;Node1 -->
<g id="edge20" class="edge">
<title>Node15&#45;&gt;Node1</title>
<path fill="none" stroke="#404040" d="M798.1907,-253.7192C792.1628,-238.6861 783.0908,-220.8068 770.5745,-208 732.4807,-169.022 678.0484,-140.5984 633.4856,-122.0073"/>
<polygon fill="none" stroke="#404040" points="633.2067,-121.894 626.1421,-123.3403 622.0899,-117.3754 629.1545,-115.9291 633.2067,-121.894"/>
<text text-anchor="middle" x="807.5745" y="-216.5" font-family="Helvetica,sans-Serif" font-size="10.00" fill="#000000"> #mSize</text>
</g>
</g>
</svg>
        <g id="navigator" transform="translate(0 0)" fill="#404254">
                <rect fill="#f2f5e9" fill-opacity="0.5" stroke="#606060" stroke-width=".5" x="0" y="0" width="60" height="60"/>
                <use id="zoomplus" xlink:href="#zoomPlus" x="17" y="9" onmousedown="handleZoom(evt,'in')"/>
                <use id="zoomminus" xlink:href="#zoomMin" x="42" y="9" onmousedown="handleZoom(evt,'out')"/>
                <use id="reset" xlink:href="#resetDef" x="30" y="36" onmousedown="handleReset()"/>
                <g id="arrowUp" xlink:href="#dirArrow" transform="translate(30 24)" onmousedown="handlePan(0,-1)">
                  <use xlink:href="#rim" fill="#404040">
                        <set attributeName="fill" to="#808080" begin="arrowUp.mouseover" end="arrowUp.mouseout"/>
                  </use>
                  <path fill="none" stroke="white" stroke-width="1.5" d="M0,-3.0v7 M-2.5,-0.5L0,-3.0L2.5,-0.5"/>
                </g>
                <g id="arrowRight" xlink:href="#dirArrow" transform="rotate(90) translate(36 -43)" onmousedown="handlePan(1,0)">
                  <use xlink:href="#rim" fill="#404040">
                        <set attributeName="fill" to="#808080" begin="arrowRight.mouseover" end="arrowRight.mouseout"/>
                  </use>
                  <path fill="none" stroke="white" stroke-width="1.5" d="M0,-3.0v7 M-2.5,-0.5L0,-3.0L2.5,-0.5"/>
                </g>
                <g id="arrowDown" xlink:href="#dirArrow" transform="rotate(180) translate(-30 -48)" onmousedown="handlePan(0,1)">
                  <use xlink:href="#rim" fill="#404040">
                        <set attributeName="fill" to="#808080" begin="arrowDown.mouseover" end="arrowDown.mouseout"/>
                  </use>
                  <path fill="none" stroke="white" stroke-width="1.5" d="M0,-3.0v7 M-2.5,-0.5L0,-3.0L2.5,-0.5"/>
                </g>
                <g id="arrowLeft" xlink:href="#dirArrow" transform="rotate(270) translate(-36 17)" onmousedown="handlePan(-1,0)">
                  <use xlink:href="#rim" fill="#404040">
                        <set attributeName="fill" to="#808080" begin="arrowLeft.mouseover" end="arrowLeft.mouseout"/>
                  </use>
                  <path fill="none" stroke="white" stroke-width="1.5" d="M0,-3.0v7 M-2.5,-0.5L0,-3.0L2.5,-0.5"/>
                </g>
        </g>
        <svg viewBox="0 0 15 15" width="100%" height="30px" preserveAspectRatio="xMaxYMin meet">
         <g id="arrow_out" transform="scale(0.3 0.3)">
          <a xlink:href="classo2_1_1tof_1_1compressed_1_1Decoder__coll__graph_org.svg" target="_base">
           <rect id="button" ry="5" rx="5" y="6" x="6" height="38" width="38"
                fill="#f2f5e9" fill-opacity="0.5" stroke="#606060" stroke-width="1.0"/>
           <path id="arrow"
             d="M 11.500037,31.436501 C 11.940474,20.09759 22.043105,11.32322 32.158766,21.979434 L 37.068811,17.246167 C 37.068811,17.246167 37.088388,32 37.088388,32 L 22.160133,31.978069 C 22.160133,31.978069 26.997745,27.140456 26.997745,27.140456 C 18.528582,18.264221 13.291696,25.230495 11.500037,31.436501 z"
             style="fill:#404040;"/>
          </a>
         </g>
        </svg>
</svg>
