<?xml version="1.0" encoding="UTF-8" standalone="no"?>
<!DOCTYPE svg PUBLIC "-//W3C//DTD SVG 1.1//EN"
 "http://www.w3.org/Graphics/SVG/1.1/DTD/svg11.dtd">
<!-- Generated by graphviz version 2.40.1 (20161225.0304)
 -->
<!-- Title: o2::itsmft::ITSMFTDPLDigitWriter Pages: 1 -->
<!--zoomable 1121 -->
<svg id="main" version="1.1" xmlns="http://www.w3.org/2000/svg" xmlns:xlink="http://www.w3.org/1999/xlink" xml:space="preserve" onload="init(evt)">
<style type="text/css"><![CDATA[
.edge:hover path { stroke: red; }
.edge:hover polygon { stroke: red; fill: red; }
]]></style>
<script type="text/javascript"><![CDATA[
var edges = document.getElementsByTagName('g');
if (edges && edges.length) {
  for (var i=0;i<edges.length;i++) {
    if (edges[i].id.substr(0,4)=='edge') {
      edges[i].setAttribute('class','edge');
    }
  }
}
]]></script>
        <defs>
                <circle id="rim" cx="0" cy="0" r="7"/>
                <circle id="rim2" cx="0" cy="0" r="3.5"/>
                <g id="zoomPlus">
                        <use xlink:href="#rim" fill="#404040">
                                <set attributeName="fill" to="#808080" begin="zoomplus.mouseover" end="zoomplus.mouseout"/>
                        </use>
                        <path d="M-4,0h8M0,-4v8" fill="none" stroke="white" stroke-width="1.5" pointer-events="none"/>
                </g>
                <g id="zoomMin">
                        <use xlink:href="#rim" fill="#404040">
                                <set attributeName="fill" to="#808080" begin="zoomminus.mouseover" end="zoomminus.mouseout"/>
                        </use>
                        <path d="M-4,0h8" fill="none" stroke="white" stroke-width="1.5" pointer-events="none"/>
                </g>
                <g id="dirArrow">
                        <path fill="none" stroke="white" stroke-width="1.5" d="M0,-3.0v7 M-2.5,-0.5L0,-3.0L2.5,-0.5"/>
                </g>
               <g id="resetDef">
                       <use xlink:href="#rim2" fill="#404040">
                               <set attributeName="fill" to="#808080" begin="reset.mouseover" end="reset.mouseout"/>
                       </use>
               </g>
        </defs>

<script type="text/javascript">
var viewWidth = 785;
var viewHeight = 1121;
var sectionId = 'dynsection-1';
</script>
<script xlink:href="../../svgpan.js"/>
<svg id="graph" class="graph">
<g id="viewport">
<title>o2::itsmft::ITSMFTDPLDigitWriter</title>
<!-- Node3 -->
<g id="node1" class="node">
<title>Node3</title>
<polygon fill="#bfbfbf" stroke="#000000" points="374.5283,-.5 374.5283,-101.5 520.5283,-101.5 520.5283,-.5 374.5283,-.5"/>
<text text-anchor="start" x="382.5283" y="-89.5" font-family="Helvetica,sans-Serif" font-size="10.00" fill="#000000">o2::itsmft::ITSMFTDPLDigit</text>
<text text-anchor="middle" x="447.5283" y="-78.5" font-family="Helvetica,sans-Serif" font-size="10.00" fill="#000000">Writer</text>
<polyline fill="none" stroke="#000000" points="374.5283,-71.5 520.5283,-71.5 "/>
<text text-anchor="middle" x="447.5283" y="-59.5" font-family="Helvetica,sans-Serif" font-size="10.00" fill="#000000"> </text>
<polyline fill="none" stroke="#000000" points="374.5283,-52.5 520.5283,-52.5 "/>
<text text-anchor="start" x="382.5283" y="-40.5" font-family="Helvetica,sans-Serif" font-size="10.00" fill="#000000">+ init()</text>
<text text-anchor="start" x="382.5283" y="-29.5" font-family="Helvetica,sans-Serif" font-size="10.00" fill="#000000">+ run()</text>
<text text-anchor="start" x="382.5283" y="-18.5" font-family="Helvetica,sans-Serif" font-size="10.00" fill="#000000"># ITSMFTDPLDigitWriter()</text>
<text text-anchor="start" x="382.5283" y="-7.5" font-family="Helvetica,sans-Serif" font-size="10.00" fill="#000000"># getOrMakeBranch()</text>
</g>
<!-- Node4 -->
<g id="node2" class="node">
<title>Node4</title>
<polygon fill="none" stroke="#bfbfbf" points="17.5283,-237.5 17.5283,-305.5 123.5283,-305.5 123.5283,-237.5 17.5283,-237.5"/>
<text text-anchor="start" x="25.5283" y="-293.5" font-family="Helvetica,sans-Serif" font-size="10.00" fill="#000000">vector&lt; o2::itsmft</text>
<text text-anchor="middle" x="70.5283" y="-282.5" font-family="Helvetica,sans-Serif" font-size="10.00" fill="#000000">::Digit &gt;</text>
<polyline fill="none" stroke="#bfbfbf" points="17.5283,-275.5 123.5283,-275.5 "/>
<text text-anchor="middle" x="70.5283" y="-263.5" font-family="Helvetica,sans-Serif" font-size="10.00" fill="#000000"> </text>
<polyline fill="none" stroke="#bfbfbf" points="17.5283,-256.5 123.5283,-256.5 "/>
<text text-anchor="middle" x="70.5283" y="-244.5" font-family="Helvetica,sans-Serif" font-size="10.00" fill="#000000"> </text>
</g>
<!-- Node4&#45;&gt;Node3 -->
<g id="edge1" class="edge">
<title>Node4&#45;&gt;Node3</title>
<path fill="none" stroke="#404040" d="M82.1748,-237.3223C92.1032,-212.8023 108.6036,-180.5861 132.5283,-160 197.8069,-103.8308 293.6361,-76.1316 362.4384,-62.7834"/>
<polygon fill="none" stroke="#404040" points="362.7296,-62.7293 367.8954,-57.6979 374.5266,-60.5312 369.3608,-65.5626 362.7296,-62.7293"/>
<text text-anchor="middle" x="209.5283" y="-128.5" font-family="Helvetica,sans-Serif" font-size="10.00" fill="#000000"> #mDigits</text>
</g>
<!-- Node5 -->
<g id="node3" class="node">
<title>Node5</title>
<g id="a_node3"><a xlink:href="../../d9/db3/structo2_1_1header_1_1Descriptor.html" target="_top" xlink:title="{o2::header::Descriptor\l\&lt; gSizeDataOriginString,\l printDataOrigin \&gt;\n||+ Descriptor()\l+ Descriptor()\l+ Descriptor()\l+ Descriptor()\l+ operator=()\l+ operator ItgType()\l+ runtimeInit()\l+ operator==()\l+ operator==()\l+ operator\&lt;()\l+ operator!=()\l+ operator!=()\l+ as()\l+ print()\l}">
<polygon fill="none" stroke="#000000" points="141.5283,-160.5 141.5283,-382.5 279.5283,-382.5 279.5283,-160.5 141.5283,-160.5"/>
<text text-anchor="start" x="149.5283" y="-370.5" font-family="Helvetica,sans-Serif" font-size="10.00" fill="#000000">o2::header::Descriptor</text>
<text text-anchor="start" x="149.5283" y="-359.5" font-family="Helvetica,sans-Serif" font-size="10.00" fill="#000000">&lt; gSizeDataOriginString,</text>
<text text-anchor="middle" x="210.5283" y="-348.5" font-family="Helvetica,sans-Serif" font-size="10.00" fill="#000000"> printDataOrigin &gt;</text>
<polyline fill="none" stroke="#000000" points="141.5283,-341.5 279.5283,-341.5 "/>
<text text-anchor="middle" x="210.5283" y="-329.5" font-family="Helvetica,sans-Serif" font-size="10.00" fill="#000000"> </text>
<polyline fill="none" stroke="#000000" points="141.5283,-322.5 279.5283,-322.5 "/>
<text text-anchor="start" x="149.5283" y="-310.5" font-family="Helvetica,sans-Serif" font-size="10.00" fill="#000000">+ Descriptor()</text>
<text text-anchor="start" x="149.5283" y="-299.5" font-family="Helvetica,sans-Serif" font-size="10.00" fill="#000000">+ Descriptor()</text>
<text text-anchor="start" x="149.5283" y="-288.5" font-family="Helvetica,sans-Serif" font-size="10.00" fill="#000000">+ Descriptor()</text>
<text text-anchor="start" x="149.5283" y="-277.5" font-family="Helvetica,sans-Serif" font-size="10.00" fill="#000000">+ Descriptor()</text>
<text text-anchor="start" x="149.5283" y="-266.5" font-family="Helvetica,sans-Serif" font-size="10.00" fill="#000000">+ operator=()</text>
<text text-anchor="start" x="149.5283" y="-255.5" font-family="Helvetica,sans-Serif" font-size="10.00" fill="#000000">+ operator ItgType()</text>
<text text-anchor="start" x="149.5283" y="-244.5" font-family="Helvetica,sans-Serif" font-size="10.00" fill="#000000">+ runtimeInit()</text>
<text text-anchor="start" x="149.5283" y="-233.5" font-family="Helvetica,sans-Serif" font-size="10.00" fill="#000000">+ operator==()</text>
<text text-anchor="start" x="149.5283" y="-222.5" font-family="Helvetica,sans-Serif" font-size="10.00" fill="#000000">+ operator==()</text>
<text text-anchor="start" x="149.5283" y="-211.5" font-family="Helvetica,sans-Serif" font-size="10.00" fill="#000000">+ operator&lt;()</text>
<text text-anchor="start" x="149.5283" y="-200.5" font-family="Helvetica,sans-Serif" font-size="10.00" fill="#000000">+ operator!=()</text>
<text text-anchor="start" x="149.5283" y="-189.5" font-family="Helvetica,sans-Serif" font-size="10.00" fill="#000000">+ operator!=()</text>
<text text-anchor="start" x="149.5283" y="-178.5" font-family="Helvetica,sans-Serif" font-size="10.00" fill="#000000">+ as()</text>
<text text-anchor="start" x="149.5283" y="-167.5" font-family="Helvetica,sans-Serif" font-size="10.00" fill="#000000">+ print()</text>
</a>
</g>
</g>
<!-- Node5&#45;&gt;Node3 -->
<g id="edge2" class="edge">
<title>Node5&#45;&gt;Node3</title>
<path fill="none" stroke="#404040" d="M277.2661,-160.2429C288.6368,-145.7378 301.1427,-131.8325 314.5283,-120 329.0542,-107.1595 346.3952,-95.9472 363.681,-86.5034"/>
<polygon fill="none" stroke="#404040" points="363.7932,-86.4443 367.2384,-80.1094 374.411,-80.8531 370.9659,-87.188 363.7932,-86.4443"/>
<text text-anchor="middle" x="340.0283" y="-128.5" font-family="Helvetica,sans-Serif" font-size="10.00" fill="#000000"> #mOrigin</text>
</g>
<!-- Node6 -->
<g id="node4" class="node">
<title>Node6</title>
<polygon fill="none" stroke="#bfbfbf" points="156.0283,-1055.5 156.0283,-1112.5 195.0283,-1112.5 195.0283,-1055.5 156.0283,-1055.5"/>
<text text-anchor="middle" x="175.5283" y="-1100.5" font-family="Helvetica,sans-Serif" font-size="10.00" fill="#000000">Type</text>
<polyline fill="none" stroke="#bfbfbf" points="156.0283,-1093.5 195.0283,-1093.5 "/>
<text text-anchor="middle" x="175.5283" y="-1081.5" font-family="Helvetica,sans-Serif" font-size="10.00" fill="#000000"> </text>
<polyline fill="none" stroke="#bfbfbf" points="156.0283,-1074.5 195.0283,-1074.5 "/>
<text text-anchor="middle" x="175.5283" y="-1062.5" font-family="Helvetica,sans-Serif" font-size="10.00" fill="#000000"> </text>
</g>
<!-- Node6&#45;&gt;Node5 -->
<g id="edge3" class="edge">
<title>Node6&#45;&gt;Node5</title>
<path fill="none" stroke="#404040" d="M174.9359,-1055.0184C173.7548,-989.3268 171.6932,-824.0729 177.5283,-686 181.6712,-587.9681 190.7173,-477.1893 198.2922,-394.8334"/>
<polygon fill="none" stroke="#404040" points="198.315,-394.5861 194.8857,-388.2426 199.4223,-382.6373 202.8516,-388.9808 198.315,-394.5861"/>
<text text-anchor="middle" x="190.0283" y="-789.5" font-family="Helvetica,sans-Serif" font-size="10.00" fill="#000000"> +itg</text>
</g>
<!-- Node10 -->
<g id="node8" class="node">
<title>Node10</title>
<g id="a_node8"><a xlink:href="../../d9/db3/structo2_1_1header_1_1Descriptor.html" target="_top" xlink:title="{o2::header::Descriptor\l\&lt; N, PrinterPolicy \&gt;\n||+ Descriptor()\l+ Descriptor()\l+ Descriptor()\l+ operator=()\l+ operator ItgType()\l+ Descriptor()\l+ runtimeInit()\l+ operator==()\l+ operator\&lt;()\l+ operator!=()\l+ operator==()\l+ operator!=()\l+ as()\l+ print()\l}">
<polygon fill="none" stroke="#000000" points="212.0283,-686.5 212.0283,-897.5 337.0283,-897.5 337.0283,-686.5 212.0283,-686.5"/>
<text text-anchor="start" x="220.0283" y="-885.5" font-family="Helvetica,sans-Serif" font-size="10.00" fill="#000000">o2::header::Descriptor</text>
<text text-anchor="middle" x="274.5283" y="-874.5" font-family="Helvetica,sans-Serif" font-size="10.00" fill="#000000">&lt; N, PrinterPolicy &gt;</text>
<polyline fill="none" stroke="#000000" points="212.0283,-867.5 337.0283,-867.5 "/>
<text text-anchor="middle" x="274.5283" y="-855.5" font-family="Helvetica,sans-Serif" font-size="10.00" fill="#000000"> </text>
<polyline fill="none" stroke="#000000" points="212.0283,-848.5 337.0283,-848.5 "/>
<text text-anchor="start" x="220.0283" y="-836.5" font-family="Helvetica,sans-Serif" font-size="10.00" fill="#000000">+ Descriptor()</text>
<text text-anchor="start" x="220.0283" y="-825.5" font-family="Helvetica,sans-Serif" font-size="10.00" fill="#000000">+ Descriptor()</text>
<text text-anchor="start" x="220.0283" y="-814.5" font-family="Helvetica,sans-Serif" font-size="10.00" fill="#000000">+ Descriptor()</text>
<text text-anchor="start" x="220.0283" y="-803.5" font-family="Helvetica,sans-Serif" font-size="10.00" fill="#000000">+ operator=()</text>
<text text-anchor="start" x="220.0283" y="-792.5" font-family="Helvetica,sans-Serif" font-size="10.00" fill="#000000">+ operator ItgType()</text>
<text text-anchor="start" x="220.0283" y="-781.5" font-family="Helvetica,sans-Serif" font-size="10.00" fill="#000000">+ Descriptor()</text>
<text text-anchor="start" x="220.0283" y="-770.5" font-family="Helvetica,sans-Serif" font-size="10.00" fill="#000000">+ runtimeInit()</text>
<text text-anchor="start" x="220.0283" y="-759.5" font-family="Helvetica,sans-Serif" font-size="10.00" fill="#000000">+ operator==()</text>
<text text-anchor="start" x="220.0283" y="-748.5" font-family="Helvetica,sans-Serif" font-size="10.00" fill="#000000">+ operator&lt;()</text>
<text text-anchor="start" x="220.0283" y="-737.5" font-family="Helvetica,sans-Serif" font-size="10.00" fill="#000000">+ operator!=()</text>
<text text-anchor="start" x="220.0283" y="-726.5" font-family="Helvetica,sans-Serif" font-size="10.00" fill="#000000">+ operator==()</text>
<text text-anchor="start" x="220.0283" y="-715.5" font-family="Helvetica,sans-Serif" font-size="10.00" fill="#000000">+ operator!=()</text>
<text text-anchor="start" x="220.0283" y="-704.5" font-family="Helvetica,sans-Serif" font-size="10.00" fill="#000000">+ as()</text>
<text text-anchor="start" x="220.0283" y="-693.5" font-family="Helvetica,sans-Serif" font-size="10.00" fill="#000000">+ print()</text>
</a>
</g>
</g>
<!-- Node6&#45;&gt;Node10 -->
<g id="edge8" class="edge">
<title>Node6&#45;&gt;Node10</title>
<path fill="none" stroke="#404040" d="M185.2011,-1055.4702C196.7145,-1021.5115 216.6666,-962.6627 234.7977,-909.1853"/>
<polygon fill="none" stroke="#404040" points="234.9022,-908.8768 233.0406,-901.9101 238.7553,-897.5122 240.617,-904.4789 234.9022,-908.8768"/>
<text text-anchor="middle" x="244.0283" y="-974" font-family="Helvetica,sans-Serif" font-size="10.00" fill="#000000"> +itg</text>
</g>
<!-- Node7 -->
<g id="node5" class="node">
<title>Node7</title>
<polygon fill="none" stroke="#bfbfbf" points="73.5283,-1055.5 73.5283,-1112.5 111.5283,-1112.5 111.5283,-1055.5 73.5283,-1055.5"/>
<text text-anchor="middle" x="92.5283" y="-1100.5" font-family="Helvetica,sans-Serif" font-size="10.00" fill="#000000">char</text>
<polyline fill="none" stroke="#bfbfbf" points="73.5283,-1093.5 111.5283,-1093.5 "/>
<text text-anchor="middle" x="92.5283" y="-1081.5" font-family="Helvetica,sans-Serif" font-size="10.00" fill="#000000"> </text>
<polyline fill="none" stroke="#bfbfbf" points="73.5283,-1074.5 111.5283,-1074.5 "/>
<text text-anchor="middle" x="92.5283" y="-1062.5" font-family="Helvetica,sans-Serif" font-size="10.00" fill="#000000"> </text>
</g>
<!-- Node7&#45;&gt;Node5 -->
<g id="edge4" class="edge">
<title>Node7&#45;&gt;Node5</title>
<path fill="none" stroke="#404040" d="M80.7257,-1055.4285C40.7789,-953.6855 -78.3062,-604.2759 79.5283,-401 92.878,-383.8069 108.2111,-394.3542 131.0911,-382.4082"/>
<polygon fill="none" stroke="#404040" points="131.2953,-382.2763 134.1647,-375.6607 141.3751,-375.7649 138.5057,-382.3805 131.2953,-382.2763"/>
<text text-anchor="middle" x="43.0283" y="-789.5" font-family="Helvetica,sans-Serif" font-size="10.00" fill="#000000"> +str</text>
</g>
<!-- Node7&#45;&gt;Node10 -->
<g id="edge9" class="edge">
<title>Node7&#45;&gt;Node10</title>
<path fill="none" stroke="#404040" d="M98.4067,-1055.207C107.1035,-1018.9085 126.5154,-956.3836 163.5283,-916 175.081,-903.3952 184.6146,-909.2063 197.5283,-898 199.5522,-896.2437 201.5529,-894.4245 203.5283,-892.552"/>
<polygon fill="none" stroke="#404040" points="203.5501,-892.5301 204.9517,-885.4565 212.0203,-884.0296 210.6187,-891.1032 203.5501,-892.5301"/>
<text text-anchor="middle" x="176.0283" y="-974" font-family="Helvetica,sans-Serif" font-size="10.00" fill="#000000"> +str</text>
</g>
<!-- Node8 -->
<g id="node6" class="node">
<title>Node8</title>
<polygon fill="none" stroke="#bfbfbf" points="92.0283,-763.5 92.0283,-820.5 121.0283,-820.5 121.0283,-763.5 92.0283,-763.5"/>
<text text-anchor="middle" x="106.5283" y="-808.5" font-family="Helvetica,sans-Serif" font-size="10.00" fill="#000000">int</text>
<polyline fill="none" stroke="#bfbfbf" points="92.0283,-801.5 121.0283,-801.5 "/>
<text text-anchor="middle" x="106.5283" y="-789.5" font-family="Helvetica,sans-Serif" font-size="10.00" fill="#000000"> </text>
<polyline fill="none" stroke="#bfbfbf" points="92.0283,-782.5 121.0283,-782.5 "/>
<text text-anchor="middle" x="106.5283" y="-770.5" font-family="Helvetica,sans-Serif" font-size="10.00" fill="#000000"> </text>
</g>
<!-- Node8&#45;&gt;Node5 -->
<g id="edge5" class="edge">
<title>Node8&#45;&gt;Node5</title>
<path fill="none" stroke="#404040" d="M102.4672,-763.2331C91.8027,-683.6541 66.1753,-462.4081 101.5283,-401 109.4773,-387.1927 120.7977,-393.7805 132.5283,-383 132.6234,-382.9126 132.7185,-382.825 132.8135,-382.7373"/>
<polygon fill="none" stroke="#404040" points="132.9288,-382.6244 134.4133,-375.5677 141.4981,-374.2239 140.0136,-381.2806 132.9288,-382.6244"/>
<text text-anchor="middle" x="130.5283" y="-543" font-family="Helvetica,sans-Serif" font-size="10.00" fill="#000000"> +arraySize</text>
<text text-anchor="middle" x="130.5283" y="-532" font-family="Helvetica,sans-Serif" font-size="10.00" fill="#000000">+size</text>
<text text-anchor="middle" x="130.5283" y="-521" font-family="Helvetica,sans-Serif" font-size="10.00" fill="#000000">+bitcount</text>
</g>
<!-- Node9 -->
<g id="node7" class="node">
<title>Node9</title>
<polygon fill="none" stroke="#bfbfbf" points="272.0283,-1055.5 272.0283,-1112.5 379.0283,-1112.5 379.0283,-1055.5 272.0283,-1055.5"/>
<text text-anchor="middle" x="325.5283" y="-1100.5" font-family="Helvetica,sans-Serif" font-size="10.00" fill="#000000">anonymous:+@24</text>
<polyline fill="none" stroke="#bfbfbf" points="272.0283,-1093.5 379.0283,-1093.5 "/>
<text text-anchor="middle" x="325.5283" y="-1081.5" font-family="Helvetica,sans-Serif" font-size="10.00" fill="#000000"> </text>
<polyline fill="none" stroke="#bfbfbf" points="272.0283,-1074.5 379.0283,-1074.5 "/>
<text text-anchor="middle" x="325.5283" y="-1062.5" font-family="Helvetica,sans-Serif" font-size="10.00" fill="#000000"> </text>
</g>
<!-- Node9&#45;&gt;Node5 -->
<g id="edge6" class="edge">
<title>Node9&#45;&gt;Node5</title>
<path fill="none" stroke="#404040" d="M346.5294,-1055.3152C349.8064,-1049.5107 352.7065,-1043.2601 354.5283,-1037 374.275,-969.1461 402.9265,-456.7735 359.5283,-401 341.5672,-377.9171 320.1925,-396.7128 290.2264,-382.5058"/>
<polygon fill="none" stroke="#404040" points="290.0637,-382.4099 282.8635,-382.8076 279.7271,-376.3143 286.9272,-375.9166 290.0637,-382.4099"/>
<text text-anchor="middle" x="397.5283" y="-789.5" font-family="Helvetica,sans-Serif" font-size="10.00" fill="#000000"> +@24</text>
</g>
<!-- Node9&#45;&gt;Node10 -->
<g id="edge10" class="edge">
<title>Node9&#45;&gt;Node10</title>
<path fill="none" stroke="#404040" d="M320.5454,-1055.4702C314.6267,-1021.5827 304.3789,-962.9094 295.0544,-909.5217"/>
<polygon fill="none" stroke="#404040" points="295.0215,-909.3333 290.0488,-904.111 292.9568,-897.5122 297.9295,-902.7345 295.0215,-909.3333"/>
<text text-anchor="middle" x="333.5283" y="-974" font-family="Helvetica,sans-Serif" font-size="10.00" fill="#000000"> +@24</text>
</g>
<!-- Node10&#45;&gt;Node5 -->
<g id="edge7" class="edge">
<title>Node10&#45;&gt;Node5</title>
<path fill="none" stroke="#ffa500" d="M236.249,-676.5054C235.6339,-673.6516 235.0584,-670.8133 234.5283,-668 216.5863,-572.783 211.1093,-462.6508 209.8195,-382.6558"/>
<polygon fill="#ffa500" stroke="#ffa500" points="232.8379,-677.2898 238.4842,-686.2548 239.6609,-675.7255 232.8379,-677.2898"/>
<text text-anchor="start" x="234.5283" y="-537.5" font-family="Helvetica,sans-Serif" font-size="10.00" fill="#000000"> &lt; gSizeDataOriginString,</text>
<text text-anchor="middle" x="297.0283" y="-526.5" font-family="Helvetica,sans-Serif" font-size="10.00" fill="#000000"> printDataOrigin &gt;</text>
</g>
<!-- Node11 -->
<g id="node9" class="node">
<title>Node11</title>
<polygon fill="none" stroke="#bfbfbf" points="424.5283,-1055.5 424.5283,-1112.5 468.5283,-1112.5 468.5283,-1055.5 424.5283,-1055.5"/>
<text text-anchor="middle" x="446.5283" y="-1100.5" font-family="Helvetica,sans-Serif" font-size="10.00" fill="#000000">static</text>
<polyline fill="none" stroke="#bfbfbf" points="424.5283,-1093.5 468.5283,-1093.5 "/>
<text text-anchor="middle" x="446.5283" y="-1081.5" font-family="Helvetica,sans-Serif" font-size="10.00" fill="#000000"> </text>
<polyline fill="none" stroke="#bfbfbf" points="424.5283,-1074.5 468.5283,-1074.5 "/>
<text text-anchor="middle" x="446.5283" y="-1062.5" font-family="Helvetica,sans-Serif" font-size="10.00" fill="#000000"> </text>
</g>
<!-- Node11&#45;&gt;Node10 -->
<g id="edge11" class="edge">
<title>Node11&#45;&gt;Node10</title>
<path fill="none" stroke="#404040" d="M424.5145,-1060.103C418.5664,-1052.9766 412.4272,-1044.9413 407.5283,-1037 376.704,-987.0323 382.3093,-967.7216 354.5283,-916 350.9881,-909.409 347.2145,-902.7081 343.307,-896.0081"/>
<polygon fill="none" stroke="#404040" points="343.1934,-895.8167 336.6918,-892.6975 337.0704,-885.4964 343.572,-888.6155 343.1934,-895.8167"/>
<text text-anchor="middle" x="436.5283" y="-985" font-family="Helvetica,sans-Serif" font-size="10.00" fill="#000000"> +arraySize</text>
<text text-anchor="middle" x="436.5283" y="-974" font-family="Helvetica,sans-Serif" font-size="10.00" fill="#000000">+size</text>
<text text-anchor="middle" x="436.5283" y="-963" font-family="Helvetica,sans-Serif" font-size="10.00" fill="#000000">+bitcount</text>
</g>
<!-- Node13 -->
<g id="node11" class="node">
<title>Node13</title>
<g id="a_node11"><a xlink:href="../../d6/dd5/classo2_1_1detectors_1_1DetID.html" target="_top" xlink:title="Static class with identifiers, bitmasks and names for ALICE detectors. ">
<polygon fill="none" stroke="#000000" points="400.5283,-401.5 400.5283,-667.5 514.5283,-667.5 514.5283,-401.5 400.5283,-401.5"/>
<text text-anchor="middle" x="457.5283" y="-655.5" font-family="Helvetica,sans-Serif" font-size="10.00" fill="#000000">o2::detectors::DetID</text>
<polyline fill="none" stroke="#000000" points="400.5283,-648.5 514.5283,-648.5 "/>
<text text-anchor="start" x="408.5283" y="-636.5" font-family="Helvetica,sans-Serif" font-size="10.00" fill="#000000">+ ITS</text>
<text text-anchor="start" x="408.5283" y="-625.5" font-family="Helvetica,sans-Serif" font-size="10.00" fill="#000000">+ TOF</text>
<text text-anchor="start" x="408.5283" y="-614.5" font-family="Helvetica,sans-Serif" font-size="10.00" fill="#000000">+ PHS</text>
<text text-anchor="start" x="408.5283" y="-603.5" font-family="Helvetica,sans-Serif" font-size="10.00" fill="#000000">+ CPV</text>
<text text-anchor="start" x="408.5283" y="-592.5" font-family="Helvetica,sans-Serif" font-size="10.00" fill="#000000">+ EMC</text>
<text text-anchor="start" x="408.5283" y="-581.5" font-family="Helvetica,sans-Serif" font-size="10.00" fill="#000000">+ HMP</text>
<text text-anchor="start" x="408.5283" y="-570.5" font-family="Helvetica,sans-Serif" font-size="10.00" fill="#000000">+ MFT</text>
<text text-anchor="start" x="408.5283" y="-559.5" font-family="Helvetica,sans-Serif" font-size="10.00" fill="#000000">+ MID</text>
<text text-anchor="start" x="408.5283" y="-548.5" font-family="Helvetica,sans-Serif" font-size="10.00" fill="#000000">+ Last</text>
<polyline fill="none" stroke="#000000" points="400.5283,-541.5 514.5283,-541.5 "/>
<text text-anchor="start" x="408.5283" y="-529.5" font-family="Helvetica,sans-Serif" font-size="10.00" fill="#000000">+ DetID()</text>
<text text-anchor="start" x="408.5283" y="-518.5" font-family="Helvetica,sans-Serif" font-size="10.00" fill="#000000">+ DetID()</text>
<text text-anchor="start" x="408.5283" y="-507.5" font-family="Helvetica,sans-Serif" font-size="10.00" fill="#000000">+ DetID()</text>
<text text-anchor="start" x="408.5283" y="-496.5" font-family="Helvetica,sans-Serif" font-size="10.00" fill="#000000">+ operator=()</text>
<text text-anchor="start" x="408.5283" y="-485.5" font-family="Helvetica,sans-Serif" font-size="10.00" fill="#000000">+ getID()</text>
<text text-anchor="start" x="408.5283" y="-474.5" font-family="Helvetica,sans-Serif" font-size="10.00" fill="#000000">+ getMask()</text>
<text text-anchor="start" x="408.5283" y="-463.5" font-family="Helvetica,sans-Serif" font-size="10.00" fill="#000000">+ getName()</text>
<text text-anchor="start" x="408.5283" y="-452.5" font-family="Helvetica,sans-Serif" font-size="10.00" fill="#000000">+ operator int()</text>
<text text-anchor="start" x="408.5283" y="-441.5" font-family="Helvetica,sans-Serif" font-size="10.00" fill="#000000">+ DetID()</text>
<text text-anchor="start" x="408.5283" y="-430.5" font-family="Helvetica,sans-Serif" font-size="10.00" fill="#000000">+ getNDetectors()</text>
<text text-anchor="start" x="408.5283" y="-419.5" font-family="Helvetica,sans-Serif" font-size="10.00" fill="#000000">+ getName()</text>
<text text-anchor="start" x="408.5283" y="-408.5" font-family="Helvetica,sans-Serif" font-size="10.00" fill="#000000">+ getMask()</text>
</a>
</g>
</g>
<!-- Node11&#45;&gt;Node13 -->
<g id="edge14" class="edge">
<title>Node11&#45;&gt;Node13</title>
<path fill="none" stroke="#404040" d="M460.0856,-1055.4504C462.3427,-1049.4807 464.3354,-1043.134 465.5283,-1037 475.7948,-984.2113 466.0921,-969.7748 465.5283,-916 464.711,-838.037 462.9543,-751.1268 461.2948,-679.9738"/>
<polygon fill="none" stroke="#404040" points="461.2904,-679.7846 457.1503,-673.8804 461.0079,-667.7879 465.148,-673.6921 461.2904,-679.7846"/>
<text text-anchor="middle" x="500.5283" y="-1029" font-family="Helvetica,sans-Serif" font-size="10.00" fill="#000000"> +ACO</text>
<text text-anchor="middle" x="500.5283" y="-1018" font-family="Helvetica,sans-Serif" font-size="10.00" fill="#000000">+First</text>
<text text-anchor="middle" x="500.5283" y="-1007" font-family="Helvetica,sans-Serif" font-size="10.00" fill="#000000">+MCH</text>
<text text-anchor="middle" x="500.5283" y="-996" font-family="Helvetica,sans-Serif" font-size="10.00" fill="#000000">+FV0</text>
<text text-anchor="middle" x="500.5283" y="-985" font-family="Helvetica,sans-Serif" font-size="10.00" fill="#000000">+FT0</text>
<text text-anchor="middle" x="500.5283" y="-974" font-family="Helvetica,sans-Serif" font-size="10.00" fill="#000000">+FDD</text>
<text text-anchor="middle" x="500.5283" y="-963" font-family="Helvetica,sans-Serif" font-size="10.00" fill="#000000">+TRD</text>
<text text-anchor="middle" x="500.5283" y="-952" font-family="Helvetica,sans-Serif" font-size="10.00" fill="#000000">+nDetectors</text>
<text text-anchor="middle" x="500.5283" y="-941" font-family="Helvetica,sans-Serif" font-size="10.00" fill="#000000">+TPC</text>
<text text-anchor="middle" x="500.5283" y="-930" font-family="Helvetica,sans-Serif" font-size="10.00" fill="#000000">+ZDC</text>
<text text-anchor="middle" x="500.5283" y="-919" font-family="Helvetica,sans-Serif" font-size="10.00" fill="#000000">...</text>
</g>
<!-- Node12 -->
<g id="node10" class="node">
<title>Node12</title>
<polygon fill="none" stroke="#bfbfbf" points="298.0283,-243 298.0283,-300 411.0283,-300 411.0283,-243 298.0283,-243"/>
<text text-anchor="middle" x="354.5283" y="-288" font-family="Helvetica,sans-Serif" font-size="10.00" fill="#000000">unique_ptr&lt; TFile &gt;</text>
<polyline fill="none" stroke="#bfbfbf" points="298.0283,-281 411.0283,-281 "/>
<text text-anchor="middle" x="354.5283" y="-269" font-family="Helvetica,sans-Serif" font-size="10.00" fill="#000000"> </text>
<polyline fill="none" stroke="#bfbfbf" points="298.0283,-262 411.0283,-262 "/>
<text text-anchor="middle" x="354.5283" y="-250" font-family="Helvetica,sans-Serif" font-size="10.00" fill="#000000"> </text>
</g>
<!-- Node12&#45;&gt;Node3 -->
<g id="edge12" class="edge">
<title>Node12&#45;&gt;Node3</title>
<path fill="none" stroke="#404040" d="M353.9039,-242.8088C354.3506,-211.0825 358.5191,-159.2688 378.5283,-120 379.9416,-117.2264 381.5075,-114.4954 383.1968,-111.8153"/>
<polygon fill="none" stroke="#404040" points="383.3691,-111.5697 383.5418,-104.3607 390.2627,-101.7473 390.09,-108.9564 383.3691,-111.5697"/>
<text text-anchor="middle" x="406.0283" y="-128.5" font-family="Helvetica,sans-Serif" font-size="10.00" fill="#000000"> #mOutFile</text>
</g>
<!-- Node13&#45;&gt;Node3 -->
<g id="edge13" class="edge">
<title>Node13&#45;&gt;Node3</title>
<path fill="none" stroke="#404040" d="M454.7759,-401.4219C452.8357,-307.6123 450.3253,-186.2337 448.8257,-113.7267"/>
<polygon fill="none" stroke="#404040" points="448.8241,-113.6457 444.7008,-107.7298 448.5758,-101.6483 452.6991,-107.5643 448.8241,-113.6457"/>
<text text-anchor="middle" x="469.5283" y="-269" font-family="Helvetica,sans-Serif" font-size="10.00" fill="#000000"> #mID</text>
</g>
<!-- Node14 -->
<g id="node12" class="node">
<title>Node14</title>
<polygon fill="none" stroke="#bfbfbf" points="498.0283,-243 498.0283,-300 615.0283,-300 615.0283,-243 498.0283,-243"/>
<text text-anchor="middle" x="556.5283" y="-288" font-family="Helvetica,sans-Serif" font-size="10.00" fill="#000000">unique_ptr&lt; TTree &gt;</text>
<polyline fill="none" stroke="#bfbfbf" points="498.0283,-281 615.0283,-281 "/>
<text text-anchor="middle" x="556.5283" y="-269" font-family="Helvetica,sans-Serif" font-size="10.00" fill="#000000"> </text>
<polyline fill="none" stroke="#bfbfbf" points="498.0283,-262 615.0283,-262 "/>
<text text-anchor="middle" x="556.5283" y="-250" font-family="Helvetica,sans-Serif" font-size="10.00" fill="#000000"> </text>
</g>
<!-- Node14&#45;&gt;Node3 -->
<g id="edge15" class="edge">
<title>Node14&#45;&gt;Node3</title>
<path fill="none" stroke="#404040" d="M542.2785,-242.6735C526.0343,-209.8126 499.0114,-155.1469 477.9721,-112.5859"/>
<polygon fill="none" stroke="#404040" points="477.9427,-112.5262 471.698,-108.9201 472.6249,-101.7688 478.8696,-105.3749 477.9427,-112.5262"/>
<text text-anchor="middle" x="529.5283" y="-128.5" font-family="Helvetica,sans-Serif" font-size="10.00" fill="#000000"> #mOutTreeDig</text>
</g>
<!-- Node15 -->
<g id="node13" class="node">
<title>Node15</title>
<polygon fill="none" stroke="#bfbfbf" points="633.5283,-243 633.5283,-300 671.5283,-300 671.5283,-243 633.5283,-243"/>
<text text-anchor="middle" x="652.5283" y="-288" font-family="Helvetica,sans-Serif" font-size="10.00" fill="#000000">bool</text>
<polyline fill="none" stroke="#bfbfbf" points="633.5283,-281 671.5283,-281 "/>
<text text-anchor="middle" x="652.5283" y="-269" font-family="Helvetica,sans-Serif" font-size="10.00" fill="#000000"> </text>
<polyline fill="none" stroke="#bfbfbf" points="633.5283,-262 671.5283,-262 "/>
<text text-anchor="middle" x="652.5283" y="-250" font-family="Helvetica,sans-Serif" font-size="10.00" fill="#000000"> </text>
</g>
<!-- Node15&#45;&gt;Node3 -->
<g id="edge16" class="edge">
<title>Node15&#45;&gt;Node3</title>
<path fill="none" stroke="#404040" d="M650.6072,-242.818C647.835,-218.9481 641.064,-184.9571 624.5283,-160 602.3153,-126.4742 565.9007,-101.4817 531.8581,-83.9462"/>
<polygon fill="none" stroke="#404040" points="531.659,-83.8475 524.5063,-84.7636 520.9096,-78.5135 528.0623,-77.5973 531.659,-83.8475"/>
<text text-anchor="middle" x="637.0283" y="-128.5" font-family="Helvetica,sans-Serif" font-size="10.00" fill="#000000"> #mFinished</text>
</g>
<!-- Node16 -->
<g id="node14" class="node">
<title>Node16</title>
<polygon fill="none" stroke="#bfbfbf" points="714.5283,-243 714.5283,-300 758.5283,-300 758.5283,-243 714.5283,-243"/>
<text text-anchor="middle" x="736.5283" y="-288" font-family="Helvetica,sans-Serif" font-size="10.00" fill="#000000">string</text>
<polyline fill="none" stroke="#bfbfbf" points="714.5283,-281 758.5283,-281 "/>
<text text-anchor="middle" x="736.5283" y="-269" font-family="Helvetica,sans-Serif" font-size="10.00" fill="#000000"> </text>
<polyline fill="none" stroke="#bfbfbf" points="714.5283,-262 758.5283,-262 "/>
<text text-anchor="middle" x="736.5283" y="-250" font-family="Helvetica,sans-Serif" font-size="10.00" fill="#000000"> </text>
</g>
<!-- Node16&#45;&gt;Node3 -->
<g id="edge17" class="edge">
<title>Node16&#45;&gt;Node3</title>
<path fill="none" stroke="#404040" d="M731.7017,-242.7069C724.5047,-208.661 707.7148,-152.5249 671.5283,-120 650.5581,-101.1517 586.6501,-82.4899 532.4369,-69.3361"/>
<polygon fill="none" stroke="#404040" points="532.353,-69.3161 525.5886,-71.8147 520.6806,-66.5316 527.445,-64.0331 532.353,-69.3161"/>
<text text-anchor="middle" x="732.5283" y="-134" font-family="Helvetica,sans-Serif" font-size="10.00" fill="#000000"> #mTreeNameDig</text>
<text text-anchor="middle" x="732.5283" y="-123" font-family="Helvetica,sans-Serif" font-size="10.00" fill="#000000">#mFileName</text>
</g>
</g>
</svg>
        <g id="navigator" transform="translate(0 0)" fill="#404254">
                <rect fill="#f2f5e9" fill-opacity="0.5" stroke="#606060" stroke-width=".5" x="0" y="0" width="60" height="60"/>
                <use id="zoomplus" xlink:href="#zoomPlus" x="17" y="9" onmousedown="handleZoom(evt,'in')"/>
                <use id="zoomminus" xlink:href="#zoomMin" x="42" y="9" onmousedown="handleZoom(evt,'out')"/>
                <use id="reset" xlink:href="#resetDef" x="30" y="36" onmousedown="handleReset()"/>
                <g id="arrowUp" xlink:href="#dirArrow" transform="translate(30 24)" onmousedown="handlePan(0,-1)">
                  <use xlink:href="#rim" fill="#404040">
                        <set attributeName="fill" to="#808080" begin="arrowUp.mouseover" end="arrowUp.mouseout"/>
                  </use>
                  <path fill="none" stroke="white" stroke-width="1.5" d="M0,-3.0v7 M-2.5,-0.5L0,-3.0L2.5,-0.5"/>
                </g>
                <g id="arrowRight" xlink:href="#dirArrow" transform="rotate(90) translate(36 -43)" onmousedown="handlePan(1,0)">
                  <use xlink:href="#rim" fill="#404040">
                        <set attributeName="fill" to="#808080" begin="arrowRight.mouseover" end="arrowRight.mouseout"/>
                  </use>
                  <path fill="none" stroke="white" stroke-width="1.5" d="M0,-3.0v7 M-2.5,-0.5L0,-3.0L2.5,-0.5"/>
                </g>
                <g id="arrowDown" xlink:href="#dirArrow" transform="rotate(180) translate(-30 -48)" onmousedown="handlePan(0,1)">
                  <use xlink:href="#rim" fill="#404040">
                        <set attributeName="fill" to="#808080" begin="arrowDown.mouseover" end="arrowDown.mouseout"/>
                  </use>
                  <path fill="none" stroke="white" stroke-width="1.5" d="M0,-3.0v7 M-2.5,-0.5L0,-3.0L2.5,-0.5"/>
                </g>
                <g id="arrowLeft" xlink:href="#dirArrow" transform="rotate(270) translate(-36 17)" onmousedown="handlePan(-1,0)">
                  <use xlink:href="#rim" fill="#404040">
                        <set attributeName="fill" to="#808080" begin="arrowLeft.mouseover" end="arrowLeft.mouseout"/>
                  </use>
                  <path fill="none" stroke="white" stroke-width="1.5" d="M0,-3.0v7 M-2.5,-0.5L0,-3.0L2.5,-0.5"/>
                </g>
        </g>
        <svg viewBox="0 0 15 15" width="100%" height="30px" preserveAspectRatio="xMaxYMin meet">
         <g id="arrow_out" transform="scale(0.3 0.3)">
          <a xlink:href="classo2_1_1itsmft_1_1ITSMFTDPLDigitWriter__coll__graph_org.svg" target="_base">
           <rect id="button" ry="5" rx="5" y="6" x="6" height="38" width="38"
                fill="#f2f5e9" fill-opacity="0.5" stroke="#606060" stroke-width="1.0"/>
           <path id="arrow"
             d="M 11.500037,31.436501 C 11.940474,20.09759 22.043105,11.32322 32.158766,21.979434 L 37.068811,17.246167 C 37.068811,17.246167 37.088388,32 37.088388,32 L 22.160133,31.978069 C 22.160133,31.978069 26.997745,27.140456 26.997745,27.140456 C 18.528582,18.264221 13.291696,25.230495 11.500037,31.436501 z"
             style="fill:#404040;"/>
          </a>
         </g>
        </svg>
</svg>
