<?xml version="1.0" encoding="UTF-8" standalone="no"?>
<!DOCTYPE svg PUBLIC "-//W3C//DTD SVG 1.1//EN"
 "http://www.w3.org/Graphics/SVG/1.1/DTD/svg11.dtd">
<!-- Generated by graphviz version 2.40.1 (20161225.0304)
 -->
<!-- Title: WorkflowInfo Pages: 1 -->
<svg width="363pt" height="171pt"
 viewBox="0.00 0.00 363.00 171.00" xmlns="http://www.w3.org/2000/svg" xmlns:xlink="http://www.w3.org/1999/xlink">
<g id="graph0" class="graph" transform="scale(1 1) rotate(0) translate(4 167)">
<title>WorkflowInfo</title>
<!-- Node1 -->
<g id="node1" class="node">
<title>Node1</title>
<polygon fill="#bfbfbf" stroke="#000000" points="119.5,-.5 119.5,-57.5 199.5,-57.5 199.5,-.5 119.5,-.5"/>
<text text-anchor="middle" x="159.5" y="-45.5" font-family="Helvetica,sans-Serif" font-size="10.00" fill="#000000">WorkflowInfo</text>
<polyline fill="none" stroke="#000000" points="119.5,-38.5 199.5,-38.5 "/>
<text text-anchor="middle" x="159.5" y="-26.5" font-family="Helvetica,sans-Serif" font-size="10.00" fill="#000000"> </text>
<polyline fill="none" stroke="#000000" points="119.5,-19.5 199.5,-19.5 "/>
<text text-anchor="middle" x="159.5" y="-7.5" font-family="Helvetica,sans-Serif" font-size="10.00" fill="#000000"> </text>
</g>
<!-- Node2 -->
<g id="node2" class="node">
<title>Node2</title>
<polygon fill="none" stroke="#bfbfbf" points="0,-105.5 0,-162.5 119,-162.5 119,-105.5 0,-105.5"/>
<text text-anchor="middle" x="59.5" y="-150.5" font-family="Helvetica,sans-Serif" font-size="10.00" fill="#000000">vector&lt; std::string &gt;</text>
<polyline fill="none" stroke="#bfbfbf" points="0,-143.5 119,-143.5 "/>
<text text-anchor="middle" x="59.5" y="-131.5" font-family="Helvetica,sans-Serif" font-size="10.00" fill="#000000"> </text>
<polyline fill="none" stroke="#bfbfbf" points="0,-124.5 119,-124.5 "/>
<text text-anchor="middle" x="59.5" y="-112.5" font-family="Helvetica,sans-Serif" font-size="10.00" fill="#000000"> </text>
</g>
<!-- Node2&#45;&gt;Node1 -->
<g id="edge1" class="edge">
<title>Node2&#45;&gt;Node1</title>
<path fill="none" stroke="#404040" d="M86.8254,-105.3083C98.1797,-93.3863 111.5131,-79.3862 123.638,-66.6551"/>
<polygon fill="none" stroke="#404040" points="123.9317,-66.3467 125.1731,-59.2432 132.2076,-57.657 130.9662,-64.7605 123.9317,-66.3467"/>
<text text-anchor="middle" x="129" y="-79" font-family="Helvetica,sans-Serif" font-size="10.00" fill="#000000"> +args</text>
</g>
<!-- Node3 -->
<g id="node3" class="node">
<title>Node3</title>
<polygon fill="none" stroke="#bfbfbf" points="137.5,-105.5 137.5,-162.5 181.5,-162.5 181.5,-105.5 137.5,-105.5"/>
<text text-anchor="middle" x="159.5" y="-150.5" font-family="Helvetica,sans-Serif" font-size="10.00" fill="#000000">string</text>
<polyline fill="none" stroke="#bfbfbf" points="137.5,-143.5 181.5,-143.5 "/>
<text text-anchor="middle" x="159.5" y="-131.5" font-family="Helvetica,sans-Serif" font-size="10.00" fill="#000000"> </text>
<polyline fill="none" stroke="#bfbfbf" points="137.5,-124.5 181.5,-124.5 "/>
<text text-anchor="middle" x="159.5" y="-112.5" font-family="Helvetica,sans-Serif" font-size="10.00" fill="#000000"> </text>
</g>
<!-- Node3&#45;&gt;Node1 -->
<g id="edge2" class="edge">
<title>Node3&#45;&gt;Node1</title>
<path fill="none" stroke="#404040" d="M159.5,-105.3083C159.5,-94.4281 159.5,-81.817 159.5,-70.0192"/>
<polygon fill="none" stroke="#404040" points="159.5001,-69.657 155.5,-63.6571 159.5,-57.657 163.5,-63.657 159.5001,-69.657"/>
<text text-anchor="middle" x="192.5" y="-79" font-family="Helvetica,sans-Serif" font-size="10.00" fill="#000000"> +executable</text>
</g>
<!-- Node4 -->
<g id="node4" class="node">
<title>Node4</title>
<polygon fill="none" stroke="#bfbfbf" points="200,-105.5 200,-162.5 355,-162.5 355,-105.5 200,-105.5"/>
<text text-anchor="middle" x="277.5" y="-150.5" font-family="Helvetica,sans-Serif" font-size="10.00" fill="#000000">vector&lt; ConfigParamSpec &gt;</text>
<polyline fill="none" stroke="#bfbfbf" points="200,-143.5 355,-143.5 "/>
<text text-anchor="middle" x="277.5" y="-131.5" font-family="Helvetica,sans-Serif" font-size="10.00" fill="#000000"> </text>
<polyline fill="none" stroke="#bfbfbf" points="200,-124.5 355,-124.5 "/>
<text text-anchor="middle" x="277.5" y="-112.5" font-family="Helvetica,sans-Serif" font-size="10.00" fill="#000000"> </text>
</g>
<!-- Node4&#45;&gt;Node1 -->
<g id="edge3" class="edge">
<title>Node4&#45;&gt;Node1</title>
<path fill="none" stroke="#404040" d="M256.5485,-105.4044C248.6373,-95.5368 239.1928,-84.7686 229.5,-76 223.4465,-70.5237 216.7087,-65.2031 209.872,-60.2301"/>
<polygon fill="none" stroke="#404040" points="209.6829,-60.0977 202.4737,-59.9332 199.8528,-53.2152 207.062,-53.3798 209.6829,-60.0977"/>
<text text-anchor="middle" x="263.5" y="-79" font-family="Helvetica,sans-Serif" font-size="10.00" fill="#000000"> +options</text>
</g>
</g>
</svg>
