<?xml version="1.0" encoding="UTF-8" standalone="no"?>
<!DOCTYPE svg PUBLIC "-//W3C//DTD SVG 1.1//EN"
 "http://www.w3.org/Graphics/SVG/1.1/DTD/svg11.dtd">
<!-- Generated by graphviz version 2.40.1 (20161225.0304)
 -->
<!-- Title: /home/travis/build/AliceO2Group/AliceO2/Framework/Core/src/verifyAODFile.cxx Pages: 1 -->
<svg width="2120pt" height="397pt"
 viewBox="0.00 0.00 2120.00 397.00" xmlns="http://www.w3.org/2000/svg" xmlns:xlink="http://www.w3.org/1999/xlink">
<g id="graph0" class="graph" transform="scale(1 1) rotate(0) translate(4 393)">
<title>/home/travis/build/AliceO2Group/AliceO2/Framework/Core/src/verifyAODFile.cxx</title>
<!-- Node0 -->
<g id="node1" class="node">
<title>Node0</title>
<polygon fill="#bfbfbf" stroke="#000000" points="1721,-347.5 1721,-388.5 1927,-388.5 1927,-347.5 1721,-347.5"/>
<text text-anchor="start" x="1729" y="-376.5" font-family="Helvetica,sans-Serif" font-size="10.00" fill="#000000">/home/travis/build</text>
<text text-anchor="start" x="1729" y="-365.5" font-family="Helvetica,sans-Serif" font-size="10.00" fill="#000000">/AliceO2Group/AliceO2</text>
<text text-anchor="middle" x="1824" y="-354.5" font-family="Helvetica,sans-Serif" font-size="10.00" fill="#000000">/Framework/Core/src/verifyAODFile.cxx</text>
</g>
<!-- Node1 -->
<g id="node2" class="node">
<title>Node1</title>
<g id="a_node2"><a xlink:href="../../d2/d8c/AnalysisDataModel_8h.html" target="_top" xlink:title="Framework/AnalysisDataModel.h">
<polygon fill="none" stroke="#000000" points="630,-286 630,-305 806,-305 806,-286 630,-286"/>
<text text-anchor="middle" x="718" y="-293" font-family="Helvetica,sans-Serif" font-size="10.00" fill="#000000">Framework/AnalysisDataModel.h</text>
</a>
</g>
</g>
<!-- Node0&#45;&gt;Node1 -->
<g id="edge1" class="edge">
<title>Node0&#45;&gt;Node1</title>
<path fill="none" stroke="#191970" d="M1720.764,-365.3428C1538.5112,-359.9378 1147.9763,-345.1533 820,-311 808.4945,-309.8019 796.3026,-308.2218 784.5029,-306.5288"/>
<polygon fill="#191970" stroke="#191970" points="784.6651,-303.0149 774.2614,-305.0186 783.6439,-309.9401 784.6651,-303.0149"/>
</g>
<!-- Node2 -->
<g id="node3" class="node">
<title>Node2</title>
<g id="a_node3"><a xlink:href="../../de/d33/ASoA_8h.html" target="_top" xlink:title="Framework/ASoA.h">
<polygon fill="none" stroke="#000000" points="764,-168.5 764,-187.5 872,-187.5 872,-168.5 764,-168.5"/>
<text text-anchor="middle" x="818" y="-175.5" font-family="Helvetica,sans-Serif" font-size="10.00" fill="#000000">Framework/ASoA.h</text>
</a>
</g>
</g>
<!-- Node0&#45;&gt;Node2 -->
<g id="edge51" class="edge">
<title>Node0&#45;&gt;Node2</title>
<path fill="none" stroke="#191970" d="M1720.7031,-360.221C1485.18,-341.7194 923.2887,-292.966 853,-244 837.4144,-233.1424 828.2065,-213.1073 823.1801,-197.9488"/>
<polygon fill="#191970" stroke="#191970" points="826.4219,-196.5692 820.2276,-187.9738 819.7098,-198.556 826.4219,-196.5692"/>
</g>
<!-- Node17 -->
<g id="node18" class="node">
<title>Node17</title>
<polygon fill="none" stroke="#bfbfbf" points="1555,-56.5 1555,-75.5 1613,-75.5 1613,-56.5 1555,-56.5"/>
<text text-anchor="middle" x="1584" y="-63.5" font-family="Helvetica,sans-Serif" font-size="10.00" fill="#000000">memory</text>
</g>
<!-- Node0&#45;&gt;Node17 -->
<g id="edge54" class="edge">
<title>Node0&#45;&gt;Node17</title>
<path fill="none" stroke="#191970" d="M1824,-347.1105C1824,-320.7489 1824,-274.0139 1824,-234 1824,-234 1824,-234 1824,-178 1824,-134.2647 1691.4715,-93.6824 1623.3791,-75.7179"/>
<polygon fill="#191970" stroke="#191970" points="1623.9875,-72.2598 1613.4287,-73.1327 1622.2273,-79.0349 1623.9875,-72.2598"/>
</g>
<!-- Node21 -->
<g id="node22" class="node">
<title>Node21</title>
<g id="a_node22"><a xlink:href="../../d9/dd5/RootTableBuilderHelpers_8h.html" target="_top" xlink:title="Framework/RootTableBuilder\lHelpers.h">
<polygon fill="none" stroke="#000000" points="1359.5,-280.5 1359.5,-310.5 1514.5,-310.5 1514.5,-280.5 1359.5,-280.5"/>
<text text-anchor="start" x="1367.5" y="-298.5" font-family="Helvetica,sans-Serif" font-size="10.00" fill="#000000">Framework/RootTableBuilder</text>
<text text-anchor="middle" x="1437" y="-287.5" font-family="Helvetica,sans-Serif" font-size="10.00" fill="#000000">Helpers.h</text>
</a>
</g>
</g>
<!-- Node0&#45;&gt;Node21 -->
<g id="edge25" class="edge">
<title>Node0&#45;&gt;Node21</title>
<path fill="none" stroke="#191970" d="M1720.7995,-348.6666C1659.6277,-337.2067 1582.9353,-322.8393 1524.7018,-311.9299"/>
<polygon fill="#191970" stroke="#191970" points="1525.2605,-308.4738 1514.787,-310.0725 1523.9715,-315.3541 1525.2605,-308.4738"/>
</g>
<!-- Node32 -->
<g id="node33" class="node">
<title>Node32</title>
<g id="a_node33"><a xlink:href="../../dd/da4/Logger_8h.html" target="_top" xlink:title="Framework/Logger.h">
<polygon fill="none" stroke="#000000" points="1852.5,-286 1852.5,-305 1967.5,-305 1967.5,-286 1852.5,-286"/>
<text text-anchor="middle" x="1910" y="-293" font-family="Helvetica,sans-Serif" font-size="10.00" fill="#000000">Framework/Logger.h</text>
</a>
</g>
</g>
<!-- Node0&#45;&gt;Node32 -->
<g id="edge50" class="edge">
<title>Node0&#45;&gt;Node32</title>
<path fill="none" stroke="#191970" d="M1848.4141,-347.4183C1861.8096,-336.1256 1878.1849,-322.3208 1890.6819,-311.7856"/>
<polygon fill="#191970" stroke="#191970" points="1893.24,-314.2068 1898.6298,-305.0853 1888.7282,-308.8549 1893.24,-314.2068"/>
</g>
<!-- Node33 -->
<g id="node34" class="node">
<title>Node33</title>
<polygon fill="none" stroke="#bfbfbf" points="1986,-286 1986,-305 2034,-305 2034,-286 1986,-286"/>
<text text-anchor="middle" x="2010" y="-293" font-family="Helvetica,sans-Serif" font-size="10.00" fill="#000000">TFile.h</text>
</g>
<!-- Node0&#45;&gt;Node33 -->
<g id="edge52" class="edge">
<title>Node0&#45;&gt;Node33</title>
<path fill="none" stroke="#191970" d="M1882.5652,-347.4647C1911.2485,-337.0825 1946.1644,-323.9596 1977,-311 1978.3494,-310.4329 1979.7243,-309.8417 1981.1091,-309.2355"/>
<polygon fill="#191970" stroke="#191970" points="1982.557,-312.4221 1990.2255,-305.1116 1979.6718,-306.0443 1982.557,-312.4221"/>
</g>
<!-- Node34 -->
<g id="node35" class="node">
<title>Node34</title>
<polygon fill="none" stroke="#bfbfbf" points="2052,-286 2052,-305 2112,-305 2112,-286 2052,-286"/>
<text text-anchor="middle" x="2082" y="-293" font-family="Helvetica,sans-Serif" font-size="10.00" fill="#000000">iostream</text>
</g>
<!-- Node0&#45;&gt;Node34 -->
<g id="edge53" class="edge">
<title>Node0&#45;&gt;Node34</title>
<path fill="none" stroke="#191970" d="M1913.1663,-347.4459C1953.1955,-337.5408 2000.8096,-324.8159 2043,-311 2045.1378,-310.2999 2047.3273,-309.5433 2049.5248,-308.7539"/>
<polygon fill="#191970" stroke="#191970" points="2050.951,-311.9568 2059.0758,-305.157 2048.4839,-305.4059 2050.951,-311.9568"/>
</g>
<!-- Node1&#45;&gt;Node2 -->
<g id="edge2" class="edge">
<title>Node1&#45;&gt;Node2</title>
<path fill="none" stroke="#191970" d="M718.4379,-285.6734C719.5669,-270.8454 723.6009,-242.5203 738,-224 749.0752,-209.7549 765.8894,-199.1406 781.2494,-191.7196"/>
<polygon fill="#191970" stroke="#191970" points="782.8921,-194.818 790.5609,-187.5076 780.0071,-188.4401 782.8921,-194.818"/>
</g>
<!-- Node20 -->
<g id="node21" class="node">
<title>Node20</title>
<polygon fill="none" stroke="#bfbfbf" points="746.5,-224.5 746.5,-243.5 793.5,-243.5 793.5,-224.5 746.5,-224.5"/>
<text text-anchor="middle" x="770" y="-231.5" font-family="Helvetica,sans-Serif" font-size="10.00" fill="#000000">cmath</text>
</g>
<!-- Node1&#45;&gt;Node20 -->
<g id="edge24" class="edge">
<title>Node1&#45;&gt;Node20</title>
<path fill="none" stroke="#191970" d="M726.125,-285.8906C733.8642,-276.7376 745.6987,-262.7409 755.1272,-251.59"/>
<polygon fill="#191970" stroke="#191970" points="757.9765,-253.6409 761.7604,-243.7449 752.6311,-249.1213 757.9765,-253.6409"/>
</g>
<!-- Node3 -->
<g id="node4" class="node">
<title>Node3</title>
<g id="a_node4"><a xlink:href="../../de/d9b/FunctionalHelpers_8h.html" target="_top" xlink:title="Framework/FunctionalHelpers.h">
<polygon fill="none" stroke="#000000" points="964,-56.5 964,-75.5 1134,-75.5 1134,-56.5 964,-56.5"/>
<text text-anchor="middle" x="1049" y="-63.5" font-family="Helvetica,sans-Serif" font-size="10.00" fill="#000000">Framework/FunctionalHelpers.h</text>
</a>
</g>
</g>
<!-- Node2&#45;&gt;Node3 -->
<g id="edge3" class="edge">
<title>Node2&#45;&gt;Node3</title>
<path fill="none" stroke="#191970" d="M862.7469,-168.4856C892.7627,-161.0414 932.5831,-149.0674 965,-132 990.1546,-118.7561 1015.301,-97.7104 1031.4308,-82.9537"/>
<polygon fill="#191970" stroke="#191970" points="1034.0789,-85.2695 1038.9961,-75.8848 1029.2998,-80.1548 1034.0789,-85.2695"/>
</g>
<!-- Node5 -->
<g id="node6" class="node">
<title>Node5</title>
<g id="a_node6"><a xlink:href="../../d9/de8/CompilerBuiltins_8h.html" target="_top" xlink:title="Framework/CompilerBuiltins.h">
<polygon fill="none" stroke="#000000" points="0,-56.5 0,-75.5 164,-75.5 164,-56.5 0,-56.5"/>
<text text-anchor="middle" x="82" y="-63.5" font-family="Helvetica,sans-Serif" font-size="10.00" fill="#000000">Framework/CompilerBuiltins.h</text>
</a>
</g>
</g>
<!-- Node2&#45;&gt;Node5 -->
<g id="edge5" class="edge">
<title>Node2&#45;&gt;Node5</title>
<path fill="none" stroke="#191970" d="M763.8197,-171.4352C695.4661,-163.011 574.3519,-147.6128 471,-132 355.4565,-114.5455 221.1672,-91.046 144.4225,-77.3087"/>
<polygon fill="#191970" stroke="#191970" points="144.9012,-73.8387 134.4404,-75.5188 143.6657,-80.7289 144.9012,-73.8387"/>
</g>
<!-- Node6 -->
<g id="node7" class="node">
<title>Node6</title>
<g id="a_node7"><a xlink:href="../../db/d31/Traits_8h.html" target="_top" xlink:title="Framework/Traits.h">
<polygon fill="none" stroke="#000000" points="846.5,-112.5 846.5,-131.5 955.5,-131.5 955.5,-112.5 846.5,-112.5"/>
<text text-anchor="middle" x="901" y="-119.5" font-family="Helvetica,sans-Serif" font-size="10.00" fill="#000000">Framework/Traits.h</text>
</a>
</g>
</g>
<!-- Node2&#45;&gt;Node6 -->
<g id="edge6" class="edge">
<title>Node2&#45;&gt;Node6</title>
<path fill="none" stroke="#191970" d="M832.4575,-168.2455C845.0732,-159.7337 863.5944,-147.2375 878.2045,-137.3801"/>
<polygon fill="#191970" stroke="#191970" points="880.3761,-140.1371 886.7082,-131.6427 876.4609,-134.3343 880.3761,-140.1371"/>
</g>
<!-- Node8 -->
<g id="node9" class="node">
<title>Node8</title>
<g id="a_node9"><a xlink:href="../../d0/d91/Expressions_8h.html" target="_top" xlink:title="Framework/Expressions.h">
<polygon fill="none" stroke="#000000" points="480.5,-112.5 480.5,-131.5 621.5,-131.5 621.5,-112.5 480.5,-112.5"/>
<text text-anchor="middle" x="551" y="-119.5" font-family="Helvetica,sans-Serif" font-size="10.00" fill="#000000">Framework/Expressions.h</text>
</a>
</g>
</g>
<!-- Node2&#45;&gt;Node8 -->
<g id="edge8" class="edge">
<title>Node2&#45;&gt;Node8</title>
<path fill="none" stroke="#191970" d="M772.4044,-168.4369C726.4215,-158.7925 655.3912,-143.8948 606.2394,-133.5858"/>
<polygon fill="#191970" stroke="#191970" points="606.913,-130.151 596.4075,-131.5237 605.4761,-137.0019 606.913,-130.151"/>
</g>
<!-- Node11 -->
<g id="node12" class="node">
<title>Node11</title>
<polygon fill="none" stroke="#bfbfbf" points="1152.5,-56.5 1152.5,-75.5 1233.5,-75.5 1233.5,-56.5 1152.5,-56.5"/>
<text text-anchor="middle" x="1193" y="-63.5" font-family="Helvetica,sans-Serif" font-size="10.00" fill="#000000">arrow/table.h</text>
</g>
<!-- Node2&#45;&gt;Node11 -->
<g id="edge20" class="edge">
<title>Node2&#45;&gt;Node11</title>
<path fill="none" stroke="#191970" d="M857.1146,-168.4533C892.7072,-159.5923 946.6135,-145.7361 993,-132 1050.5299,-114.9641 1116.4814,-92.6506 1156.4209,-78.8247"/>
<polygon fill="#191970" stroke="#191970" points="1157.6949,-82.0874 1165.9936,-75.5009 1155.3988,-75.4747 1157.6949,-82.0874"/>
</g>
<!-- Node12 -->
<g id="node13" class="node">
<title>Node12</title>
<polygon fill="none" stroke="#bfbfbf" points="711.5,-56.5 711.5,-75.5 858.5,-75.5 858.5,-56.5 711.5,-56.5"/>
<text text-anchor="middle" x="785" y="-63.5" font-family="Helvetica,sans-Serif" font-size="10.00" fill="#000000">gandiva/selection_vector.h</text>
</g>
<!-- Node2&#45;&gt;Node12 -->
<g id="edge22" class="edge">
<title>Node2&#45;&gt;Node12</title>
<path fill="none" stroke="#191970" d="M815.2137,-168.1465C811.551,-155.2346 804.8904,-131.8935 799,-112 796.3963,-103.2065 793.4491,-93.489 790.9326,-85.2598"/>
<polygon fill="#191970" stroke="#191970" points="794.218,-84.0351 787.9378,-75.5021 787.526,-86.089 794.218,-84.0351"/>
</g>
<!-- Node18 -->
<g id="node19" class="node">
<title>Node18</title>
<polygon fill="none" stroke="#bfbfbf" points="640,-112.5 640,-131.5 720,-131.5 720,-112.5 640,-112.5"/>
<text text-anchor="middle" x="680" y="-119.5" font-family="Helvetica,sans-Serif" font-size="10.00" fill="#000000">arrow/array.h</text>
</g>
<!-- Node2&#45;&gt;Node18 -->
<g id="edge21" class="edge">
<title>Node2&#45;&gt;Node18</title>
<path fill="none" stroke="#191970" d="M794.277,-168.3733C771.8263,-159.2629 737.9261,-145.5062 712.8745,-135.3404"/>
<polygon fill="#191970" stroke="#191970" points="713.9957,-132.0182 703.4135,-131.5011 711.3635,-138.5045 713.9957,-132.0182"/>
</g>
<!-- Node19 -->
<g id="node20" class="node">
<title>Node19</title>
<polygon fill="none" stroke="#bfbfbf" points="738,-112.5 738,-131.5 790,-131.5 790,-112.5 738,-112.5"/>
<text text-anchor="middle" x="764" y="-119.5" font-family="Helvetica,sans-Serif" font-size="10.00" fill="#000000">cassert</text>
</g>
<!-- Node2&#45;&gt;Node19 -->
<g id="edge23" class="edge">
<title>Node2&#45;&gt;Node19</title>
<path fill="none" stroke="#191970" d="M808.5939,-168.2455C800.8507,-160.2155 789.688,-148.6394 780.4682,-139.0781"/>
<polygon fill="#191970" stroke="#191970" points="782.7591,-136.4117 773.2983,-131.6427 777.7202,-141.2706 782.7591,-136.4117"/>
</g>
<!-- Node4 -->
<g id="node5" class="node">
<title>Node4</title>
<polygon fill="none" stroke="#bfbfbf" points="1153.5,-.5 1153.5,-19.5 1218.5,-19.5 1218.5,-.5 1153.5,-.5"/>
<text text-anchor="middle" x="1186" y="-7.5" font-family="Helvetica,sans-Serif" font-size="10.00" fill="#000000">functional</text>
</g>
<!-- Node3&#45;&gt;Node4 -->
<g id="edge4" class="edge">
<title>Node3&#45;&gt;Node4</title>
<path fill="none" stroke="#191970" d="M1072.5511,-56.3733C1094.8391,-47.2629 1128.4937,-33.5062 1153.3637,-23.3404"/>
<polygon fill="#191970" stroke="#191970" points="1154.8239,-26.5247 1162.7562,-19.5011 1152.1753,-20.0451 1154.8239,-26.5247"/>
</g>
<!-- Node7 -->
<g id="node8" class="node">
<title>Node7</title>
<polygon fill="none" stroke="#bfbfbf" points="876.5,-56.5 876.5,-75.5 945.5,-75.5 945.5,-56.5 876.5,-56.5"/>
<text text-anchor="middle" x="911" y="-63.5" font-family="Helvetica,sans-Serif" font-size="10.00" fill="#000000">type_traits</text>
</g>
<!-- Node6&#45;&gt;Node7 -->
<g id="edge7" class="edge">
<title>Node6&#45;&gt;Node7</title>
<path fill="none" stroke="#191970" d="M902.7419,-112.2455C904.0467,-104.9382 905.876,-94.6944 907.4813,-85.7046"/>
<polygon fill="#191970" stroke="#191970" points="910.9656,-86.1022 909.2781,-75.6427 904.0746,-84.8717 910.9656,-86.1022"/>
</g>
<!-- Node8&#45;&gt;Node3 -->
<g id="edge11" class="edge">
<title>Node8&#45;&gt;Node3</title>
<path fill="none" stroke="#191970" d="M621.6634,-113.1097C624.8182,-112.7309 627.9417,-112.3594 631,-112 691.3478,-104.9081 849.9427,-87.5905 953.5052,-76.3435"/>
<polygon fill="#191970" stroke="#191970" points="954.0985,-79.7998 963.6623,-75.2408 953.3429,-72.8407 954.0985,-79.7998"/>
</g>
<!-- Node8&#45;&gt;Node5 -->
<g id="edge10" class="edge">
<title>Node8&#45;&gt;Node5</title>
<path fill="none" stroke="#191970" d="M480.2782,-113.5556C397.9802,-103.729 261.9284,-87.484 172.1232,-76.761"/>
<polygon fill="#191970" stroke="#191970" points="172.2963,-73.2569 161.9518,-75.5465 171.4663,-80.2075 172.2963,-73.2569"/>
</g>
<!-- Node9 -->
<g id="node10" class="node">
<title>Node9</title>
<g id="a_node10"><a xlink:href="../../dd/dc2/BasicOps_8h.html" target="_top" xlink:title="Framework/BasicOps.h">
<polygon fill="none" stroke="#000000" points="252,-56.5 252,-75.5 380,-75.5 380,-56.5 252,-56.5"/>
<text text-anchor="middle" x="316" y="-63.5" font-family="Helvetica,sans-Serif" font-size="10.00" fill="#000000">Framework/BasicOps.h</text>
</a>
</g>
</g>
<!-- Node8&#45;&gt;Node9 -->
<g id="edge9" class="edge">
<title>Node8&#45;&gt;Node9</title>
<path fill="none" stroke="#191970" d="M510.8691,-112.4369C470.7351,-102.8731 408.9225,-88.1432 365.7067,-77.845"/>
<polygon fill="#191970" stroke="#191970" points="366.5044,-74.4372 355.9654,-75.5237 364.8817,-81.2465 366.5044,-74.4372"/>
</g>
<!-- Node10 -->
<g id="node11" class="node">
<title>Node10</title>
<polygon fill="none" stroke="#bfbfbf" points="398,-56.5 398,-75.5 476,-75.5 476,-56.5 398,-56.5"/>
<text text-anchor="middle" x="437" y="-63.5" font-family="Helvetica,sans-Serif" font-size="10.00" fill="#000000">arrow/type.h</text>
</g>
<!-- Node8&#45;&gt;Node10 -->
<g id="edge12" class="edge">
<title>Node8&#45;&gt;Node10</title>
<path fill="none" stroke="#191970" d="M531.4027,-112.3733C513.2669,-103.4644 486.0865,-90.1127 465.5413,-80.0203"/>
<polygon fill="#191970" stroke="#191970" points="466.8603,-76.7688 456.3416,-75.5011 463.7739,-83.0517 466.8603,-76.7688"/>
</g>
<!-- Node8&#45;&gt;Node11 -->
<g id="edge13" class="edge">
<title>Node8&#45;&gt;Node11</title>
<path fill="none" stroke="#191970" d="M621.6471,-112.9585C624.8064,-112.6206 627.9352,-112.2991 631,-112 854.7132,-90.1692 915.1603,-105.9527 1142.1774,-75.9356"/>
<polygon fill="#191970" stroke="#191970" points="1142.966,-79.3614 1152.4135,-74.5663 1142.0377,-72.4232 1142.966,-79.3614"/>
</g>
<!-- Node8&#45;&gt;Node12 -->
<g id="edge14" class="edge">
<title>Node8&#45;&gt;Node12</title>
<path fill="none" stroke="#191970" d="M590.9602,-112.4369C630.8392,-102.8932 692.2139,-88.2052 735.2328,-77.9101"/>
<polygon fill="#191970" stroke="#191970" points="736.2939,-81.2551 745.2047,-75.5237 734.6646,-74.4473 736.2939,-81.2551"/>
</g>
<!-- Node13 -->
<g id="node14" class="node">
<title>Node13</title>
<polygon fill="none" stroke="#bfbfbf" points="494,-56.5 494,-75.5 586,-75.5 586,-56.5 494,-56.5"/>
<text text-anchor="middle" x="540" y="-63.5" font-family="Helvetica,sans-Serif" font-size="10.00" fill="#000000">gandiva/node.h</text>
</g>
<!-- Node8&#45;&gt;Node13 -->
<g id="edge15" class="edge">
<title>Node8&#45;&gt;Node13</title>
<path fill="none" stroke="#191970" d="M549.0839,-112.2455C547.6486,-104.9382 545.6364,-94.6944 543.8705,-85.7046"/>
<polygon fill="#191970" stroke="#191970" points="547.256,-84.7805 541.8941,-75.6427 540.3873,-86.1298 547.256,-84.7805"/>
</g>
<!-- Node14 -->
<g id="node15" class="node">
<title>Node14</title>
<polygon fill="none" stroke="#bfbfbf" points="604.5,-56.5 604.5,-75.5 693.5,-75.5 693.5,-56.5 604.5,-56.5"/>
<text text-anchor="middle" x="649" y="-63.5" font-family="Helvetica,sans-Serif" font-size="10.00" fill="#000000">gandiva/filter.h</text>
</g>
<!-- Node8&#45;&gt;Node14 -->
<g id="edge16" class="edge">
<title>Node8&#45;&gt;Node14</title>
<path fill="none" stroke="#191970" d="M568.0703,-112.2455C583.247,-103.5731 605.6621,-90.7645 623.0563,-80.825"/>
<polygon fill="#191970" stroke="#191970" points="625.1794,-83.643 632.1253,-75.6427 621.7064,-77.5653 625.1794,-83.643"/>
</g>
<!-- Node15 -->
<g id="node16" class="node">
<title>Node15</title>
<polygon fill="none" stroke="#bfbfbf" points="182.5,-56.5 182.5,-75.5 233.5,-75.5 233.5,-56.5 182.5,-56.5"/>
<text text-anchor="middle" x="208" y="-63.5" font-family="Helvetica,sans-Serif" font-size="10.00" fill="#000000">variant</text>
</g>
<!-- Node8&#45;&gt;Node15 -->
<g id="edge17" class="edge">
<title>Node8&#45;&gt;Node15</title>
<path fill="none" stroke="#191970" d="M480.4977,-114.1181C420.0298,-106.7536 330.4692,-94.4125 243.3077,-75.8225"/>
<polygon fill="#191970" stroke="#191970" points="244.031,-72.3981 233.5171,-73.7054 242.5515,-79.2399 244.031,-72.3981"/>
</g>
<!-- Node16 -->
<g id="node17" class="node">
<title>Node16</title>
<polygon fill="none" stroke="#bfbfbf" points="1252,-56.5 1252,-75.5 1296,-75.5 1296,-56.5 1252,-56.5"/>
<text text-anchor="middle" x="1274" y="-63.5" font-family="Helvetica,sans-Serif" font-size="10.00" fill="#000000">string</text>
</g>
<!-- Node8&#45;&gt;Node16 -->
<g id="edge18" class="edge">
<title>Node8&#45;&gt;Node16</title>
<path fill="none" stroke="#191970" d="M621.643,-112.9145C624.8033,-112.5885 627.9336,-112.2815 631,-112 899.0169,-87.3928 973.3906,-125.2808 1241.7836,-75.7729"/>
<polygon fill="#191970" stroke="#191970" points="1242.6364,-79.1742 1251.8235,-73.8972 1241.3508,-72.2933 1242.6364,-79.1742"/>
</g>
<!-- Node8&#45;&gt;Node17 -->
<g id="edge19" class="edge">
<title>Node8&#45;&gt;Node17</title>
<path fill="none" stroke="#191970" d="M621.6394,-112.8741C624.8007,-112.559 627.9321,-112.2654 631,-112 812.8894,-96.2651 1388.1393,-73.5214 1544.4626,-67.5057"/>
<polygon fill="#191970" stroke="#191970" points="1544.7064,-70.999 1554.5647,-67.1178 1544.4378,-64.0042 1544.7064,-70.999"/>
</g>
<!-- Node21&#45;&gt;Node11 -->
<g id="edge41" class="edge">
<title>Node21&#45;&gt;Node11</title>
<path fill="none" stroke="#191970" d="M1359.3696,-289.0196C1275.8185,-281.067 1149.1036,-265.8884 1106,-244 1074.6164,-228.0631 1063.4698,-220.5189 1050,-188 1028.1062,-135.1438 1103.2616,-97.4665 1152.8124,-78.9667"/>
<polygon fill="#191970" stroke="#191970" points="1154.1286,-82.2127 1162.3448,-75.5236 1151.7505,-75.629 1154.1286,-82.2127"/>
</g>
<!-- Node21&#45;&gt;Node16 -->
<g id="edge47" class="edge">
<title>Node21&#45;&gt;Node16</title>
<path fill="none" stroke="#191970" d="M1359.2304,-285.6919C1257.8646,-270.9888 1089.732,-239.3435 1058,-188 1053.3268,-180.4387 1053.2422,-175.5084 1058,-168 1068.6754,-151.1531 1185.2769,-102.0284 1242.5801,-78.6492"/>
<polygon fill="#191970" stroke="#191970" points="1243.9521,-81.8697 1251.8979,-74.8614 1241.316,-75.385 1243.9521,-81.8697"/>
</g>
<!-- Node21&#45;&gt;Node17 -->
<g id="edge48" class="edge">
<title>Node21&#45;&gt;Node17</title>
<path fill="none" stroke="#191970" d="M1514.6333,-288.6613C1606.9748,-279.7268 1750.7619,-262.9688 1767,-244 1788.966,-218.3401 1784.1094,-197.124 1767,-168 1736.0628,-115.338 1666.9749,-87.8761 1623.0961,-75.2129"/>
<polygon fill="#191970" stroke="#191970" points="1623.9019,-71.8045 1613.3311,-72.5182 1622.0397,-78.5523 1623.9019,-71.8045"/>
</g>
<!-- Node22 -->
<g id="node23" class="node">
<title>Node22</title>
<g id="a_node23"><a xlink:href="../../d5/d98/TableBuilder_8h.html" target="_top" xlink:title="Framework/TableBuilder.h">
<polygon fill="none" stroke="#000000" points="1229,-224.5 1229,-243.5 1371,-243.5 1371,-224.5 1229,-224.5"/>
<text text-anchor="middle" x="1300" y="-231.5" font-family="Helvetica,sans-Serif" font-size="10.00" fill="#000000">Framework/TableBuilder.h</text>
</a>
</g>
</g>
<!-- Node21&#45;&gt;Node22 -->
<g id="edge26" class="edge">
<title>Node21&#45;&gt;Node22</title>
<path fill="none" stroke="#191970" d="M1403.486,-280.4554C1381.2288,-270.464 1352.2353,-257.4487 1330.6015,-247.7372"/>
<polygon fill="#191970" stroke="#191970" points="1331.7865,-244.4327 1321.2301,-243.5303 1328.9197,-250.8187 1331.7865,-244.4327"/>
</g>
<!-- Node24 -->
<g id="node25" class="node">
<title>Node24</title>
<polygon fill="none" stroke="#bfbfbf" points="1390,-168.5 1390,-187.5 1458,-187.5 1458,-168.5 1390,-168.5"/>
<text text-anchor="middle" x="1424" y="-175.5" font-family="Helvetica,sans-Serif" font-size="10.00" fill="#000000">arrow/stl.h</text>
</g>
<!-- Node21&#45;&gt;Node24 -->
<g id="edge39" class="edge">
<title>Node21&#45;&gt;Node24</title>
<path fill="none" stroke="#191970" d="M1431.7545,-280.3942C1428.5144,-270.2442 1424.6674,-256.4902 1423,-244 1421.8238,-235.1893 1422.9034,-232.8884 1423,-224 1423.0943,-215.3235 1423.2886,-205.7282 1423.4811,-197.5559"/>
<polygon fill="#191970" stroke="#191970" points="1426.981,-197.5984 1423.7329,-187.5138 1419.9832,-197.4229 1426.981,-197.5984"/>
</g>
<!-- Node25 -->
<g id="node26" class="node">
<title>Node25</title>
<polygon fill="none" stroke="#bfbfbf" points="1476.5,-168.5 1476.5,-187.5 1585.5,-187.5 1585.5,-168.5 1476.5,-168.5"/>
<text text-anchor="middle" x="1531" y="-175.5" font-family="Helvetica,sans-Serif" font-size="10.00" fill="#000000">arrow/type_traits.h</text>
</g>
<!-- Node21&#45;&gt;Node25 -->
<g id="edge40" class="edge">
<title>Node21&#45;&gt;Node25</title>
<path fill="none" stroke="#191970" d="M1439.0936,-280.4548C1441.8798,-264.9706 1448.0511,-240.801 1461,-224 1471.242,-210.7111 1486.4703,-200.0571 1500.1101,-192.3621"/>
<polygon fill="#191970" stroke="#191970" points="1502.0372,-195.3013 1509.2185,-187.5115 1498.7468,-189.1228 1502.0372,-195.3013"/>
</g>
<!-- Node26 -->
<g id="node27" class="node">
<title>Node26</title>
<polygon fill="none" stroke="#bfbfbf" points="1603.5,-168.5 1603.5,-187.5 1692.5,-187.5 1692.5,-168.5 1603.5,-168.5"/>
<text text-anchor="middle" x="1648" y="-175.5" font-family="Helvetica,sans-Serif" font-size="10.00" fill="#000000">arrow/builder.h</text>
</g>
<!-- Node21&#45;&gt;Node26 -->
<g id="edge42" class="edge">
<title>Node21&#45;&gt;Node26</title>
<path fill="none" stroke="#191970" d="M1446.3254,-280.4333C1457.1008,-264.2316 1476.2932,-238.81 1499,-224 1515.5817,-213.1849 1561.8468,-199.7138 1598.468,-190.1512"/>
<polygon fill="#191970" stroke="#191970" points="1599.6987,-193.4484 1608.5086,-187.5631 1597.9515,-186.67 1599.6987,-193.4484"/>
</g>
<!-- Node27 -->
<g id="node28" class="node">
<title>Node27</title>
<polygon fill="none" stroke="#bfbfbf" points="1710.5,-168.5 1710.5,-187.5 1757.5,-187.5 1757.5,-168.5 1710.5,-168.5"/>
<text text-anchor="middle" x="1734" y="-175.5" font-family="Helvetica,sans-Serif" font-size="10.00" fill="#000000">vector</text>
</g>
<!-- Node21&#45;&gt;Node27 -->
<g id="edge46" class="edge">
<title>Node21&#45;&gt;Node27</title>
<path fill="none" stroke="#191970" d="M1455.1691,-280.4865C1478.0985,-261.8071 1516.5288,-231.455 1533,-224 1600.0942,-193.6327 1625.6075,-206.311 1700.4276,-188.1758"/>
<polygon fill="#191970" stroke="#191970" points="1701.4708,-191.5222 1710.3054,-185.674 1699.7521,-184.7365 1701.4708,-191.5222"/>
</g>
<!-- Node28 -->
<g id="node29" class="node">
<title>Node28</title>
<polygon fill="none" stroke="#bfbfbf" points="1066.5,-168.5 1066.5,-187.5 1107.5,-187.5 1107.5,-168.5 1066.5,-168.5"/>
<text text-anchor="middle" x="1087" y="-175.5" font-family="Helvetica,sans-Serif" font-size="10.00" fill="#000000">tuple</text>
</g>
<!-- Node21&#45;&gt;Node28 -->
<g id="edge49" class="edge">
<title>Node21&#45;&gt;Node28</title>
<path fill="none" stroke="#191970" d="M1359.4309,-281.5605C1317.4774,-272.9132 1265.154,-260.3203 1220,-244 1180.9209,-229.8754 1138.3206,-207.3689 1112.1294,-192.6373"/>
<polygon fill="#191970" stroke="#191970" points="1113.682,-189.4939 1103.2594,-187.5916 1110.2209,-195.5784 1113.682,-189.4939"/>
</g>
<!-- Node29 -->
<g id="node30" class="node">
<title>Node29</title>
<polygon fill="none" stroke="#bfbfbf" points="1541.5,-224.5 1541.5,-243.5 1626.5,-243.5 1626.5,-224.5 1541.5,-224.5"/>
<text text-anchor="middle" x="1584" y="-231.5" font-family="Helvetica,sans-Serif" font-size="10.00" fill="#000000">TTreeReader.h</text>
</g>
<!-- Node21&#45;&gt;Node29 -->
<g id="edge43" class="edge">
<title>Node21&#45;&gt;Node29</title>
<path fill="none" stroke="#191970" d="M1472.9602,-280.4554C1497.0573,-270.374 1528.513,-257.2139 1551.7903,-247.4755"/>
<polygon fill="#191970" stroke="#191970" points="1553.3459,-250.6187 1561.2202,-243.5303 1550.6442,-244.1611 1553.3459,-250.6187"/>
</g>
<!-- Node30 -->
<g id="node31" class="node">
<title>Node30</title>
<polygon fill="none" stroke="#bfbfbf" points="1644.5,-224.5 1644.5,-243.5 1757.5,-243.5 1757.5,-224.5 1644.5,-224.5"/>
<text text-anchor="middle" x="1701" y="-231.5" font-family="Helvetica,sans-Serif" font-size="10.00" fill="#000000">TTreeReaderValue.h</text>
</g>
<!-- Node21&#45;&gt;Node30 -->
<g id="edge44" class="edge">
<title>Node21&#45;&gt;Node30</title>
<path fill="none" stroke="#191970" d="M1501.5817,-280.4554C1547.3695,-269.7889 1607.9516,-255.6761 1650.2785,-245.8158"/>
<polygon fill="#191970" stroke="#191970" points="1651.1442,-249.2079 1660.0894,-243.5303 1649.556,-242.3905 1651.1442,-249.2079"/>
</g>
<!-- Node31 -->
<g id="node32" class="node">
<title>Node31</title>
<polygon fill="none" stroke="#bfbfbf" points="862,-224.5 862,-243.5 972,-243.5 972,-224.5 862,-224.5"/>
<text text-anchor="middle" x="917" y="-231.5" font-family="Helvetica,sans-Serif" font-size="10.00" fill="#000000">TTreeReaderArray.h</text>
</g>
<!-- Node21&#45;&gt;Node31 -->
<g id="edge45" class="edge">
<title>Node21&#45;&gt;Node31</title>
<path fill="none" stroke="#191970" d="M1359.1004,-287.3275C1269.1306,-277.721 1116.7135,-260.9312 986,-244 984.8896,-243.8562 983.7694,-243.7097 982.6415,-243.5609"/>
<polygon fill="#191970" stroke="#191970" points="982.7197,-240.0398 972.3414,-242.1706 981.7833,-246.9769 982.7197,-240.0398"/>
</g>
<!-- Node22&#45;&gt;Node2 -->
<g id="edge27" class="edge">
<title>Node22&#45;&gt;Node2</title>
<path fill="none" stroke="#191970" d="M1228.8792,-225.737C1135.3315,-214.8684 972.3028,-195.9273 882.2897,-185.4693"/>
<polygon fill="#191970" stroke="#191970" points="882.5532,-181.9765 872.2161,-184.299 881.7453,-188.9297 882.5532,-181.9765"/>
</g>
<!-- Node22&#45;&gt;Node3 -->
<g id="edge28" class="edge">
<title>Node22&#45;&gt;Node3</title>
<path fill="none" stroke="#191970" d="M1285.786,-224.4862C1244.2074,-196.6567 1122.5522,-115.2301 1071.7256,-81.2108"/>
<polygon fill="#191970" stroke="#191970" points="1073.6264,-78.2714 1063.3692,-75.6177 1069.7327,-84.0886 1073.6264,-78.2714"/>
</g>
<!-- Node22&#45;&gt;Node4 -->
<g id="edge34" class="edge">
<title>Node22&#45;&gt;Node4</title>
<path fill="none" stroke="#191970" d="M1303.8282,-224.4208C1314.5704,-195.8365 1341.884,-109.8015 1305,-56 1295.9138,-42.7463 1258.8989,-29.7392 1228.5336,-20.957"/>
<polygon fill="#191970" stroke="#191970" points="1229.1148,-17.4847 1218.5407,-18.1463 1227.2195,-24.2232 1229.1148,-17.4847"/>
</g>
<!-- Node22&#45;&gt;Node11 -->
<g id="edge32" class="edge">
<title>Node22&#45;&gt;Node11</title>
<path fill="none" stroke="#191970" d="M1293.9406,-224.4862C1276.7335,-197.4695 1227.355,-119.9405 1204.6618,-84.3102"/>
<polygon fill="#191970" stroke="#191970" points="1207.5836,-82.3822 1199.2594,-75.8279 1201.6794,-86.1427 1207.5836,-82.3822"/>
</g>
<!-- Node22&#45;&gt;Node16 -->
<g id="edge36" class="edge">
<title>Node22&#45;&gt;Node16</title>
<path fill="none" stroke="#191970" d="M1298.5276,-224.4862C1294.4176,-197.9293 1282.7541,-122.5651 1277.1209,-86.1655"/>
<polygon fill="#191970" stroke="#191970" points="1280.5093,-85.1749 1275.521,-75.8279 1273.5917,-86.2456 1280.5093,-85.1749"/>
</g>
<!-- Node22&#45;&gt;Node17 -->
<g id="edge37" class="edge">
<title>Node22&#45;&gt;Node17</title>
<path fill="none" stroke="#191970" d="M1310.4285,-224.2403C1325.3243,-210.6032 1353.8977,-185.5505 1381,-168 1438.1611,-130.9844 1510.5582,-97.5013 1551.6382,-79.6234"/>
<polygon fill="#191970" stroke="#191970" points="1553.0957,-82.8065 1560.8904,-75.6307 1550.3221,-76.3794 1553.0957,-82.8065"/>
</g>
<!-- Node23 -->
<g id="node24" class="node">
<title>Node23</title>
<polygon fill="none" stroke="#bfbfbf" points="1126,-168.5 1126,-187.5 1182,-187.5 1182,-168.5 1126,-168.5"/>
<text text-anchor="middle" x="1154" y="-175.5" font-family="Helvetica,sans-Serif" font-size="10.00" fill="#000000">sstream</text>
</g>
<!-- Node22&#45;&gt;Node23 -->
<g id="edge29" class="edge">
<title>Node22&#45;&gt;Node23</title>
<path fill="none" stroke="#191970" d="M1274.9017,-224.3733C1251.0445,-215.2226 1214.9665,-201.3844 1188.429,-191.2057"/>
<polygon fill="#191970" stroke="#191970" points="1189.361,-187.8145 1178.7708,-187.5011 1186.8541,-194.3503 1189.361,-187.8145"/>
</g>
<!-- Node22&#45;&gt;Node24 -->
<g id="edge30" class="edge">
<title>Node22&#45;&gt;Node24</title>
<path fill="none" stroke="#191970" d="M1321.3164,-224.3733C1341.2216,-215.3838 1371.1436,-201.8706 1393.56,-191.7471"/>
<polygon fill="#191970" stroke="#191970" points="1395.2887,-194.8068 1402.9618,-187.5011 1392.4075,-188.4272 1395.2887,-194.8068"/>
</g>
<!-- Node22&#45;&gt;Node25 -->
<g id="edge31" class="edge">
<title>Node22&#45;&gt;Node25</title>
<path fill="none" stroke="#191970" d="M1339.4478,-224.4369C1378.8156,-214.8932 1439.4034,-200.2052 1481.8708,-189.9101"/>
<polygon fill="#191970" stroke="#191970" points="1482.821,-193.2812 1491.7149,-187.5237 1481.1717,-186.4783 1482.821,-193.2812"/>
</g>
<!-- Node22&#45;&gt;Node26 -->
<g id="edge33" class="edge">
<title>Node22&#45;&gt;Node26</title>
<path fill="none" stroke="#191970" d="M1364.8392,-224.4952C1422.3958,-215.9197 1509.0438,-202.6733 1593.4697,-188.2267"/>
<polygon fill="#191970" stroke="#191970" points="1594.2229,-191.6486 1603.4855,-186.5052 1593.0372,-184.7498 1594.2229,-191.6486"/>
</g>
<!-- Node22&#45;&gt;Node27 -->
<g id="edge35" class="edge">
<title>Node22&#45;&gt;Node27</title>
<path fill="none" stroke="#191970" d="M1371.0898,-229.9376C1449.7281,-224.5312 1580.1931,-212.8608 1700.2659,-188.0556"/>
<polygon fill="#191970" stroke="#191970" points="1701.3004,-191.4147 1710.3665,-185.9323 1699.8604,-184.5645 1701.3004,-191.4147"/>
</g>
<!-- Node22&#45;&gt;Node28 -->
<g id="edge38" class="edge">
<title>Node22&#45;&gt;Node28</title>
<path fill="none" stroke="#191970" d="M1258.3318,-224.4731C1223.1926,-216.2272 1171.3939,-203.579 1117.3485,-187.9404"/>
<polygon fill="#191970" stroke="#191970" points="1118.1727,-184.5349 1107.5925,-185.0914 1116.2105,-191.2543 1118.1727,-184.5349"/>
</g>
</g>
</svg>
