<?xml version="1.0" encoding="UTF-8" standalone="no"?>
<!DOCTYPE svg PUBLIC "-//W3C//DTD SVG 1.1//EN"
 "http://www.w3.org/Graphics/SVG/1.1/DTD/svg11.dtd">
<!-- Generated by graphviz version 2.40.1 (20161225.0304)
 -->
<!-- Title: GPUCA_NAMESPACE::gpu::GPUTPCClusterFinderKernels Pages: 1 -->
<svg width="260pt" height="376pt"
 viewBox="0.00 0.00 260.00 376.00" xmlns="http://www.w3.org/2000/svg" xmlns:xlink="http://www.w3.org/1999/xlink">
<g id="graph0" class="graph" transform="scale(1 1) rotate(0) translate(4 372)">
<title>GPUCA_NAMESPACE::gpu::GPUTPCClusterFinderKernels</title>
<!-- Node2 -->
<g id="node1" class="node">
<title>Node2</title>
<polygon fill="#bfbfbf" stroke="#000000" points="0,-.5 0,-90.5 162,-90.5 162,-.5 0,-.5"/>
<text text-anchor="start" x="8" y="-78.5" font-family="Helvetica,sans-Serif" font-size="10.00" fill="#000000">GPUCA_NAMESPACE::gpu</text>
<text text-anchor="middle" x="81" y="-67.5" font-family="Helvetica,sans-Serif" font-size="10.00" fill="#000000">::GPUTPCClusterFinderKernels</text>
<polyline fill="none" stroke="#000000" points="0,-60.5 162,-60.5 "/>
<text text-anchor="middle" x="81" y="-48.5" font-family="Helvetica,sans-Serif" font-size="10.00" fill="#000000"> </text>
<polyline fill="none" stroke="#000000" points="0,-41.5 162,-41.5 "/>
<text text-anchor="start" x="8" y="-29.5" font-family="Helvetica,sans-Serif" font-size="10.00" fill="#000000">+ GPUhdi()</text>
<text text-anchor="start" x="8" y="-18.5" font-family="Helvetica,sans-Serif" font-size="10.00" fill="#000000">+ GPUd()</text>
<text text-anchor="start" x="8" y="-7.5" font-family="Helvetica,sans-Serif" font-size="10.00" fill="#000000">+ GPUsharedref()</text>
</g>
<!-- Node3 -->
<g id="node2" class="node">
<title>Node3</title>
<g id="a_node2"><a xlink:href="../../d3/d60/classGPUCA__NAMESPACE_1_1gpu_1_1GPUKernelTemplate.html" target="_top" xlink:title="{GPUCA_NAMESPACE::gpu\l::GPUKernelTemplate\n||+ GPUconstantref()\l+ GPUhdi()\l+ GPUhdi()\l+ GPUd()\l+ GPUsharedref()\l}">
<polygon fill="none" stroke="#000000" points="112,-128.5 112,-240.5 252,-240.5 252,-128.5 112,-128.5"/>
<text text-anchor="start" x="120" y="-228.5" font-family="Helvetica,sans-Serif" font-size="10.00" fill="#000000">GPUCA_NAMESPACE::gpu</text>
<text text-anchor="middle" x="182" y="-217.5" font-family="Helvetica,sans-Serif" font-size="10.00" fill="#000000">::GPUKernelTemplate</text>
<polyline fill="none" stroke="#000000" points="112,-210.5 252,-210.5 "/>
<text text-anchor="middle" x="182" y="-198.5" font-family="Helvetica,sans-Serif" font-size="10.00" fill="#000000"> </text>
<polyline fill="none" stroke="#000000" points="112,-191.5 252,-191.5 "/>
<text text-anchor="start" x="120" y="-179.5" font-family="Helvetica,sans-Serif" font-size="10.00" fill="#000000">+ GPUconstantref()</text>
<text text-anchor="start" x="120" y="-168.5" font-family="Helvetica,sans-Serif" font-size="10.00" fill="#000000">+ GPUhdi()</text>
<text text-anchor="start" x="120" y="-157.5" font-family="Helvetica,sans-Serif" font-size="10.00" fill="#000000">+ GPUhdi()</text>
<text text-anchor="start" x="120" y="-146.5" font-family="Helvetica,sans-Serif" font-size="10.00" fill="#000000">+ GPUd()</text>
<text text-anchor="start" x="120" y="-135.5" font-family="Helvetica,sans-Serif" font-size="10.00" fill="#000000">+ GPUsharedref()</text>
</a>
</g>
</g>
<!-- Node3&#45;&gt;Node2 -->
<g id="edge1" class="edge">
<title>Node3&#45;&gt;Node2</title>
<path fill="none" stroke="#191970" d="M135.1968,-120.0876C127.9938,-110.1747 120.69,-100.1229 113.8758,-90.7449"/>
<polygon fill="none" stroke="#191970" points="132.5008,-122.3315 141.2106,-128.364 138.1637,-118.2167 132.5008,-122.3315"/>
</g>
<!-- Node4 -->
<g id="node3" class="node">
<title>Node4</title>
<polygon fill="none" stroke="#bfbfbf" points="41.5,-310.5 41.5,-367.5 70.5,-367.5 70.5,-310.5 41.5,-310.5"/>
<text text-anchor="middle" x="56" y="-355.5" font-family="Helvetica,sans-Serif" font-size="10.00" fill="#000000">int</text>
<polyline fill="none" stroke="#bfbfbf" points="41.5,-348.5 70.5,-348.5 "/>
<text text-anchor="middle" x="56" y="-336.5" font-family="Helvetica,sans-Serif" font-size="10.00" fill="#000000"> </text>
<polyline fill="none" stroke="#bfbfbf" points="41.5,-329.5 70.5,-329.5 "/>
<text text-anchor="middle" x="56" y="-317.5" font-family="Helvetica,sans-Serif" font-size="10.00" fill="#000000"> </text>
</g>
<!-- Node4&#45;&gt;Node2 -->
<g id="edge3" class="edge">
<title>Node4&#45;&gt;Node2</title>
<path fill="none" stroke="#404040" d="M51.1549,-310.3761C45.1165,-269.52 36.965,-192.3075 49,-128 50.5932,-119.4871 53.0365,-110.7228 55.8782,-102.2305"/>
<polygon fill="none" stroke="#404040" points="55.9027,-102.1621 54.1657,-95.1633 59.9579,-90.868 61.695,-97.8668 55.9027,-102.1621"/>
<text text-anchor="middle" x="76" y="-204" font-family="Helvetica,sans-Serif" font-size="10.00" fill="#000000"> +iThread</text>
<text text-anchor="middle" x="76" y="-193" font-family="Helvetica,sans-Serif" font-size="10.00" fill="#000000">+iBlock</text>
<text text-anchor="middle" x="76" y="-182" font-family="Helvetica,sans-Serif" font-size="10.00" fill="#000000">+args</text>
<text text-anchor="middle" x="76" y="-171" font-family="Helvetica,sans-Serif" font-size="10.00" fill="#000000">+clusterer</text>
<text text-anchor="middle" x="76" y="-160" font-family="Helvetica,sans-Serif" font-size="10.00" fill="#000000">+nThreads</text>
</g>
<!-- Node4&#45;&gt;Node3 -->
<g id="edge2" class="edge">
<title>Node4&#45;&gt;Node3</title>
<path fill="none" stroke="#404040" d="M70.7004,-320.9745C84.9811,-303.4637 107.5367,-275.8062 128.6201,-249.9539"/>
<polygon fill="none" stroke="#404040" points="128.7189,-249.8328 129.4111,-242.6549 136.303,-240.5332 135.6108,-247.711 128.7189,-249.8328"/>
<text text-anchor="middle" x="146" y="-284" font-family="Helvetica,sans-Serif" font-size="10.00" fill="#000000"> +iThread</text>
<text text-anchor="middle" x="146" y="-273" font-family="Helvetica,sans-Serif" font-size="10.00" fill="#000000">+iBlock</text>
<text text-anchor="middle" x="146" y="-262" font-family="Helvetica,sans-Serif" font-size="10.00" fill="#000000">+nThreads</text>
</g>
</g>
</svg>
