<?xml version="1.0" encoding="UTF-8" standalone="no"?>
<!DOCTYPE svg PUBLIC "-//W3C//DTD SVG 1.1//EN"
 "http://www.w3.org/Graphics/SVG/1.1/DTD/svg11.dtd">
<!-- Generated by graphviz version 2.40.1 (20161225.0304)
 -->
<!-- Title: /home/travis/build/AliceO2Group/AliceO2/CCDB/src/BasicCCDBManager.cxx Pages: 1 -->
<svg width="519pt" height="218pt"
 viewBox="0.00 0.00 519.00 218.00" xmlns="http://www.w3.org/2000/svg" xmlns:xlink="http://www.w3.org/1999/xlink">
<g id="graph0" class="graph" transform="scale(1 1) rotate(0) translate(4 214)">
<title>/home/travis/build/AliceO2Group/AliceO2/CCDB/src/BasicCCDBManager.cxx</title>
<!-- Node0 -->
<g id="node1" class="node">
<title>Node0</title>
<polygon fill="#bfbfbf" stroke="#000000" points="35.5,-168.5 35.5,-209.5 218.5,-209.5 218.5,-168.5 35.5,-168.5"/>
<text text-anchor="start" x="43.5" y="-197.5" font-family="Helvetica,sans-Serif" font-size="10.00" fill="#000000">/home/travis/build</text>
<text text-anchor="start" x="43.5" y="-186.5" font-family="Helvetica,sans-Serif" font-size="10.00" fill="#000000">/AliceO2Group/AliceO2</text>
<text text-anchor="middle" x="127" y="-175.5" font-family="Helvetica,sans-Serif" font-size="10.00" fill="#000000">/CCDB/src/BasicCCDBManager.cxx</text>
</g>
<!-- Node1 -->
<g id="node2" class="node">
<title>Node1</title>
<g id="a_node2"><a xlink:href="../../d5/df3/BasicCCDBManager_8h.html" target="_top" xlink:title="CCDB/BasicCCDBManager.h">
<polygon fill="none" stroke="#000000" points="132,-112.5 132,-131.5 284,-131.5 284,-112.5 132,-112.5"/>
<text text-anchor="middle" x="208" y="-119.5" font-family="Helvetica,sans-Serif" font-size="10.00" fill="#000000">CCDB/BasicCCDBManager.h</text>
</a>
</g>
</g>
<!-- Node0&#45;&gt;Node1 -->
<g id="edge1" class="edge">
<title>Node0&#45;&gt;Node1</title>
<path fill="none" stroke="#191970" d="M152.1849,-168.168C163.8793,-158.4949 177.5716,-147.1692 188.4678,-138.1562"/>
<polygon fill="#191970" stroke="#191970" points="190.7011,-140.8512 196.1759,-131.7805 186.2395,-135.4573 190.7011,-140.8512"/>
</g>
<!-- Node3 -->
<g id="node4" class="node">
<title>Node3</title>
<polygon fill="none" stroke="#bfbfbf" points="0,-.5 0,-19.5 44,-19.5 44,-.5 0,-.5"/>
<text text-anchor="middle" x="22" y="-7.5" font-family="Helvetica,sans-Serif" font-size="10.00" fill="#000000">string</text>
</g>
<!-- Node0&#45;&gt;Node3 -->
<g id="edge13" class="edge">
<title>Node0&#45;&gt;Node3</title>
<path fill="none" stroke="#191970" d="M114.9552,-168.4664C94.3635,-133.3626 52.7038,-62.3427 32.9138,-28.6054"/>
<polygon fill="#191970" stroke="#191970" points="35.8125,-26.6295 27.7339,-19.7749 29.7746,-30.1713 35.8125,-26.6295"/>
</g>
<!-- Node2 -->
<g id="node3" class="node">
<title>Node2</title>
<g id="a_node3"><a xlink:href="../../dd/d3e/CcdbApi_8h.html" target="_top" xlink:title="CCDB/CcdbApi.h">
<polygon fill="none" stroke="#000000" points="160,-56.5 160,-75.5 256,-75.5 256,-56.5 160,-56.5"/>
<text text-anchor="middle" x="208" y="-63.5" font-family="Helvetica,sans-Serif" font-size="10.00" fill="#000000">CCDB/CcdbApi.h</text>
</a>
</g>
</g>
<!-- Node1&#45;&gt;Node2 -->
<g id="edge2" class="edge">
<title>Node1&#45;&gt;Node2</title>
<path fill="none" stroke="#191970" d="M208,-112.2455C208,-104.9382 208,-94.6944 208,-85.7046"/>
<polygon fill="#191970" stroke="#191970" points="211.5001,-85.6426 208,-75.6427 204.5001,-85.6427 211.5001,-85.6426"/>
</g>
<!-- Node1&#45;&gt;Node3 -->
<g id="edge11" class="edge">
<title>Node1&#45;&gt;Node3</title>
<path fill="none" stroke="#191970" d="M192.1417,-112.4509C159.6092,-92.8615 85.1324,-48.0152 46.4034,-24.6945"/>
<polygon fill="#191970" stroke="#191970" points="48.1904,-21.6851 37.8181,-19.5249 44.5794,-27.6818 48.1904,-21.6851"/>
</g>
<!-- Node6 -->
<g id="node7" class="node">
<title>Node6</title>
<polygon fill="none" stroke="#bfbfbf" points="473,-.5 473,-19.5 511,-19.5 511,-.5 473,-.5"/>
<text text-anchor="middle" x="492" y="-7.5" font-family="Helvetica,sans-Serif" font-size="10.00" fill="#000000">map</text>
</g>
<!-- Node1&#45;&gt;Node6 -->
<g id="edge12" class="edge">
<title>Node1&#45;&gt;Node6</title>
<path fill="none" stroke="#191970" d="M218.9711,-112.3372C235.9766,-97.8765 270.2669,-70.7338 304,-56 367.9254,-28.0791 391.9195,-39.2163 462.9598,-19.9779"/>
<polygon fill="#191970" stroke="#191970" points="464.1465,-23.2799 472.8209,-17.1967 462.2462,-16.5427 464.1465,-23.2799"/>
</g>
<!-- Node10 -->
<g id="node11" class="node">
<title>Node10</title>
<g id="a_node11"><a xlink:href="../../da/d86/CCDBTimeStampUtils_8h.html" target="_top" xlink:title="CCDB/CCDBTimeStampUtils.h">
<polygon fill="none" stroke="#000000" points="312.5,-56.5 312.5,-75.5 475.5,-75.5 475.5,-56.5 312.5,-56.5"/>
<text text-anchor="middle" x="394" y="-63.5" font-family="Helvetica,sans-Serif" font-size="10.00" fill="#000000">CCDB/CCDBTimeStampUtils.h</text>
</a>
</g>
</g>
<!-- Node1&#45;&gt;Node10 -->
<g id="edge10" class="edge">
<title>Node1&#45;&gt;Node10</title>
<path fill="none" stroke="#191970" d="M239.9745,-112.3733C271.1713,-102.9807 318.771,-88.6496 352.7932,-78.4064"/>
<polygon fill="#191970" stroke="#191970" points="353.8763,-81.7355 362.4427,-75.5011 351.8582,-75.0327 353.8763,-81.7355"/>
</g>
<!-- Node2&#45;&gt;Node3 -->
<g id="edge3" class="edge">
<title>Node2&#45;&gt;Node3</title>
<path fill="none" stroke="#191970" d="M174.9739,-56.4432C145.5727,-47.8813 101.1551,-34.815 54.0918,-20.2938"/>
<polygon fill="#191970" stroke="#191970" points="54.9189,-16.8861 44.3311,-17.2729 52.8492,-23.5731 54.9189,-16.8861"/>
</g>
<!-- Node4 -->
<g id="node5" class="node">
<title>Node4</title>
<polygon fill="none" stroke="#bfbfbf" points="62,-.5 62,-19.5 120,-19.5 120,-.5 62,-.5"/>
<text text-anchor="middle" x="91" y="-7.5" font-family="Helvetica,sans-Serif" font-size="10.00" fill="#000000">memory</text>
</g>
<!-- Node2&#45;&gt;Node4 -->
<g id="edge4" class="edge">
<title>Node2&#45;&gt;Node4</title>
<path fill="none" stroke="#191970" d="M187.887,-56.3733C169.1897,-47.4241 141.1256,-33.9917 120.0066,-23.8835"/>
<polygon fill="#191970" stroke="#191970" points="121.3817,-20.6614 110.8506,-19.5011 118.3595,-26.9755 121.3817,-20.6614"/>
</g>
<!-- Node5 -->
<g id="node6" class="node">
<title>Node5</title>
<polygon fill="none" stroke="#bfbfbf" points="138,-.5 138,-19.5 198,-19.5 198,-.5 138,-.5"/>
<text text-anchor="middle" x="168" y="-7.5" font-family="Helvetica,sans-Serif" font-size="10.00" fill="#000000">iostream</text>
</g>
<!-- Node2&#45;&gt;Node5 -->
<g id="edge5" class="edge">
<title>Node2&#45;&gt;Node5</title>
<path fill="none" stroke="#191970" d="M201.0325,-56.2455C195.4689,-48.4564 187.522,-37.3308 180.8171,-27.9439"/>
<polygon fill="#191970" stroke="#191970" points="183.5481,-25.7457 174.8876,-19.6427 177.852,-29.8144 183.5481,-25.7457"/>
</g>
<!-- Node2&#45;&gt;Node6 -->
<g id="edge6" class="edge">
<title>Node2&#45;&gt;Node6</title>
<path fill="none" stroke="#191970" d="M256.2435,-57.7747C318.6308,-47.0763 423.2227,-28.9125 463.053,-19.7452"/>
<polygon fill="#191970" stroke="#191970" points="463.9919,-23.1184 472.8522,-17.3093 462.3032,-16.3252 463.9919,-23.1184"/>
</g>
<!-- Node7 -->
<g id="node8" class="node">
<title>Node7</title>
<polygon fill="none" stroke="#bfbfbf" points="216.5,-.5 216.5,-19.5 281.5,-19.5 281.5,-.5 216.5,-.5"/>
<text text-anchor="middle" x="249" y="-7.5" font-family="Helvetica,sans-Serif" font-size="10.00" fill="#000000">curl/curl.h</text>
</g>
<!-- Node2&#45;&gt;Node7 -->
<g id="edge7" class="edge">
<title>Node2&#45;&gt;Node7</title>
<path fill="none" stroke="#191970" d="M215.1417,-56.2455C220.8444,-48.4564 228.99,-37.3308 235.8625,-27.9439"/>
<polygon fill="#191970" stroke="#191970" points="238.8568,-29.7789 241.9402,-19.6427 233.2087,-25.6437 238.8568,-29.7789"/>
</g>
<!-- Node8 -->
<g id="node9" class="node">
<title>Node8</title>
<polygon fill="none" stroke="#bfbfbf" points="299.5,-.5 299.5,-19.5 362.5,-19.5 362.5,-.5 299.5,-.5"/>
<text text-anchor="middle" x="331" y="-7.5" font-family="Helvetica,sans-Serif" font-size="10.00" fill="#000000">TObject.h</text>
</g>
<!-- Node2&#45;&gt;Node8 -->
<g id="edge8" class="edge">
<title>Node2&#45;&gt;Node8</title>
<path fill="none" stroke="#191970" d="M229.1445,-56.3733C248.8892,-47.3838 278.5698,-33.8706 300.8055,-23.7471"/>
<polygon fill="#191970" stroke="#191970" points="302.4806,-26.8302 310.1315,-19.5011 299.58,-20.4594 302.4806,-26.8302"/>
</g>
<!-- Node9 -->
<g id="node10" class="node">
<title>Node9</title>
<polygon fill="none" stroke="#bfbfbf" points="381,-.5 381,-19.5 455,-19.5 455,-.5 381,-.5"/>
<text text-anchor="middle" x="418" y="-7.5" font-family="Helvetica,sans-Serif" font-size="10.00" fill="#000000">TMessage.h</text>
</g>
<!-- Node2&#45;&gt;Node9 -->
<g id="edge9" class="edge">
<title>Node2&#45;&gt;Node9</title>
<path fill="none" stroke="#191970" d="M244.1003,-56.3733C279.6248,-46.9001 333.988,-32.4032 372.4619,-22.1435"/>
<polygon fill="#191970" stroke="#191970" points="373.6103,-25.4596 382.3708,-19.5011 371.8066,-18.696 373.6103,-25.4596"/>
</g>
</g>
</svg>
