<?xml version="1.0" encoding="UTF-8" standalone="no"?>
<!DOCTYPE svg PUBLIC "-//W3C//DTD SVG 1.1//EN"
 "http://www.w3.org/Graphics/SVG/1.1/DTD/svg11.dtd">
<!-- Generated by graphviz version 2.40.1 (20161225.0304)
 -->
<!-- Title: /home/travis/build/AliceO2Group/AliceO2/Detectors/MUON/MCH/Raw/ImplHelpers/Assertions.h Pages: 1 -->
<!--zoomable 517 -->
<svg id="main" version="1.1" xmlns="http://www.w3.org/2000/svg" xmlns:xlink="http://www.w3.org/1999/xlink" xml:space="preserve" onload="init(evt)">
<style type="text/css"><![CDATA[
.edge:hover path { stroke: red; }
.edge:hover polygon { stroke: red; fill: red; }
]]></style>
<script type="text/javascript"><![CDATA[
var edges = document.getElementsByTagName('g');
if (edges && edges.length) {
  for (var i=0;i<edges.length;i++) {
    if (edges[i].id.substr(0,4)=='edge') {
      edges[i].setAttribute('class','edge');
    }
  }
}
]]></script>
        <defs>
                <circle id="rim" cx="0" cy="0" r="7"/>
                <circle id="rim2" cx="0" cy="0" r="3.5"/>
                <g id="zoomPlus">
                        <use xlink:href="#rim" fill="#404040">
                                <set attributeName="fill" to="#808080" begin="zoomplus.mouseover" end="zoomplus.mouseout"/>
                        </use>
                        <path d="M-4,0h8M0,-4v8" fill="none" stroke="white" stroke-width="1.5" pointer-events="none"/>
                </g>
                <g id="zoomMin">
                        <use xlink:href="#rim" fill="#404040">
                                <set attributeName="fill" to="#808080" begin="zoomminus.mouseover" end="zoomminus.mouseout"/>
                        </use>
                        <path d="M-4,0h8" fill="none" stroke="white" stroke-width="1.5" pointer-events="none"/>
                </g>
                <g id="dirArrow">
                        <path fill="none" stroke="white" stroke-width="1.5" d="M0,-3.0v7 M-2.5,-0.5L0,-3.0L2.5,-0.5"/>
                </g>
               <g id="resetDef">
                       <use xlink:href="#rim2" fill="#404040">
                               <set attributeName="fill" to="#808080" begin="reset.mouseover" end="reset.mouseout"/>
                       </use>
               </g>
        </defs>

<script type="text/javascript">
var viewWidth = 1144;
var viewHeight = 517;
var sectionId = 'dynsection-1';
</script>
<script xlink:href="../../svgpan.js"/>
<svg id="graph" class="graph">
<g id="viewport">
<title>/home/travis/build/AliceO2Group/AliceO2/Detectors/MUON/MCH/Raw/ImplHelpers/Assertions.h</title>
<!-- Node2 -->
<g id="node1" class="node">
<title>Node2</title>
<polygon fill="#bfbfbf" stroke="#000000" points="414,-456.5 414,-508.5 564,-508.5 564,-456.5 414,-456.5"/>
<text text-anchor="start" x="422" y="-496.5" font-family="Helvetica,sans-Serif" font-size="10.00" fill="#000000">/home/travis/build</text>
<text text-anchor="start" x="422" y="-485.5" font-family="Helvetica,sans-Serif" font-size="10.00" fill="#000000">/AliceO2Group/AliceO2</text>
<text text-anchor="start" x="422" y="-474.5" font-family="Helvetica,sans-Serif" font-size="10.00" fill="#000000">/Detectors/MUON/MCH/Raw</text>
<text text-anchor="middle" x="489" y="-463.5" font-family="Helvetica,sans-Serif" font-size="10.00" fill="#000000">/ImplHelpers/Assertions.h</text>
</g>
<!-- Node3 -->
<g id="node2" class="node">
<title>Node3</title>
<g id="a_node2"><a xlink:href="../../d5/d6c/SampaCluster_8cxx.html" target="_top" xlink:title="/home/travis/build\l/AliceO2Group/AliceO2\l/Detectors/MUON/MCH/Raw\l/Common/src/SampaCluster.cxx">
<polygon fill="none" stroke="#000000" points="0,-362 0,-414 172,-414 172,-362 0,-362"/>
<text text-anchor="start" x="8" y="-402" font-family="Helvetica,sans-Serif" font-size="10.00" fill="#000000">/home/travis/build</text>
<text text-anchor="start" x="8" y="-391" font-family="Helvetica,sans-Serif" font-size="10.00" fill="#000000">/AliceO2Group/AliceO2</text>
<text text-anchor="start" x="8" y="-380" font-family="Helvetica,sans-Serif" font-size="10.00" fill="#000000">/Detectors/MUON/MCH/Raw</text>
<text text-anchor="middle" x="86" y="-369" font-family="Helvetica,sans-Serif" font-size="10.00" fill="#000000">/Common/src/SampaCluster.cxx</text>
</a>
</g>
</g>
<!-- Node2&#45;&gt;Node3 -->
<g id="edge1" class="edge">
<title>Node2&#45;&gt;Node3</title>
<path fill="none" stroke="#191970" d="M403.7998,-467.4329C342.7688,-456.0317 258.8364,-439.108 186,-420 179.0355,-418.1729 171.8394,-416.1478 164.6491,-414.0293"/>
<polygon fill="#191970" stroke="#191970" points="403.3028,-470.9003 413.7738,-469.285 404.581,-464.018 403.3028,-470.9003"/>
</g>
<!-- Node4 -->
<g id="node3" class="node">
<title>Node4</title>
<g id="a_node3"><a xlink:href="../../d7/ddc/BareElinkDecoder_8h.html" target="_top" xlink:title="/home/travis/build\l/AliceO2Group/AliceO2\l/Detectors/MUON/MCH/Raw\l/Decoder/src/BareElinkDecoder.h">
<polygon fill="none" stroke="#000000" points="228,-362 228,-414 404,-414 404,-362 228,-362"/>
<text text-anchor="start" x="236" y="-402" font-family="Helvetica,sans-Serif" font-size="10.00" fill="#000000">/home/travis/build</text>
<text text-anchor="start" x="236" y="-391" font-family="Helvetica,sans-Serif" font-size="10.00" fill="#000000">/AliceO2Group/AliceO2</text>
<text text-anchor="start" x="236" y="-380" font-family="Helvetica,sans-Serif" font-size="10.00" fill="#000000">/Detectors/MUON/MCH/Raw</text>
<text text-anchor="middle" x="316" y="-369" font-family="Helvetica,sans-Serif" font-size="10.00" fill="#000000">/Decoder/src/BareElinkDecoder.h</text>
</a>
</g>
</g>
<!-- Node2&#45;&gt;Node4 -->
<g id="edge2" class="edge">
<title>Node2&#45;&gt;Node4</title>
<path fill="none" stroke="#191970" d="M432.3079,-451.5324C410.1758,-439.4429 385.0775,-425.7331 363.8752,-414.1515"/>
<polygon fill="#191970" stroke="#191970" points="430.8151,-454.705 441.269,-456.4273 434.1708,-448.5618 430.8151,-454.705"/>
</g>
<!-- Node5 -->
<g id="node4" class="node">
<title>Node5</title>
<g id="a_node4"><a xlink:href="../../da/db7/BareGBTDecoder_8h.html" target="_top" xlink:title="/home/travis/build\l/AliceO2Group/AliceO2\l/Detectors/MUON/MCH/Raw\l/Decoder/src/BareGBTDecoder.h">
<polygon fill="none" stroke="#000000" points="69,-267.5 69,-319.5 241,-319.5 241,-267.5 69,-267.5"/>
<text text-anchor="start" x="77" y="-307.5" font-family="Helvetica,sans-Serif" font-size="10.00" fill="#000000">/home/travis/build</text>
<text text-anchor="start" x="77" y="-296.5" font-family="Helvetica,sans-Serif" font-size="10.00" fill="#000000">/AliceO2Group/AliceO2</text>
<text text-anchor="start" x="77" y="-285.5" font-family="Helvetica,sans-Serif" font-size="10.00" fill="#000000">/Detectors/MUON/MCH/Raw</text>
<text text-anchor="middle" x="155" y="-274.5" font-family="Helvetica,sans-Serif" font-size="10.00" fill="#000000">/Decoder/src/BareGBTDecoder.h</text>
</a>
</g>
</g>
<!-- Node2&#45;&gt;Node5 -->
<g id="edge11" class="edge">
<title>Node2&#45;&gt;Node5</title>
<path fill="none" stroke="#191970" d="M403.4549,-470.7409C335.5481,-459.9634 247.4518,-442.3079 219,-420 210.3809,-413.2421 182.8063,-354.7243 166.8032,-319.6923"/>
<polygon fill="#191970" stroke="#191970" points="403.3224,-474.2625 413.7424,-472.346 404.4016,-467.3461 403.3224,-474.2625"/>
</g>
<!-- Node11 -->
<g id="node10" class="node">
<title>Node11</title>
<g id="a_node10"><a xlink:href="../../d3/d1b/UserLogicGBTDecoder_8h.html" target="_top" xlink:title="/home/travis/build\l/AliceO2Group/AliceO2\l/Detectors/MUON/MCH/Raw\l/Decoder/src/UserLogicGBTDecoder.h">
<polygon fill="none" stroke="#000000" points="483.5,-267.5 483.5,-319.5 680.5,-319.5 680.5,-267.5 483.5,-267.5"/>
<text text-anchor="start" x="491.5" y="-307.5" font-family="Helvetica,sans-Serif" font-size="10.00" fill="#000000">/home/travis/build</text>
<text text-anchor="start" x="491.5" y="-296.5" font-family="Helvetica,sans-Serif" font-size="10.00" fill="#000000">/AliceO2Group/AliceO2</text>
<text text-anchor="start" x="491.5" y="-285.5" font-family="Helvetica,sans-Serif" font-size="10.00" fill="#000000">/Detectors/MUON/MCH/Raw</text>
<text text-anchor="middle" x="582" y="-274.5" font-family="Helvetica,sans-Serif" font-size="10.00" fill="#000000">/Decoder/src/UserLogicGBTDecoder.h</text>
</a>
</g>
</g>
<!-- Node2&#45;&gt;Node11 -->
<g id="edge12" class="edge">
<title>Node2&#45;&gt;Node11</title>
<path fill="none" stroke="#191970" d="M464.0889,-447.4239C448.4857,-420.7617 434.3814,-384.0194 452,-356 461.8644,-340.3123 476.8883,-328.4718 493.2648,-319.565"/>
<polygon fill="#191970" stroke="#191970" points="461.1749,-449.367 469.3942,-456.0523 467.1378,-445.7005 461.1749,-449.367"/>
</g>
<!-- Node12 -->
<g id="node11" class="node">
<title>Node12</title>
<g id="a_node11"><a xlink:href="../../d5/d93/testUserLogicElinkDecoder_8cxx.html" target="_top" xlink:title="/home/travis/build\l/AliceO2Group/AliceO2\l/Detectors/MUON/MCH/Raw\l/Decoder/src/testUserLogicElink\lDecoder.cxx">
<polygon fill="none" stroke="#000000" points="460.5,-356.5 460.5,-419.5 631.5,-419.5 631.5,-356.5 460.5,-356.5"/>
<text text-anchor="start" x="468.5" y="-407.5" font-family="Helvetica,sans-Serif" font-size="10.00" fill="#000000">/home/travis/build</text>
<text text-anchor="start" x="468.5" y="-396.5" font-family="Helvetica,sans-Serif" font-size="10.00" fill="#000000">/AliceO2Group/AliceO2</text>
<text text-anchor="start" x="468.5" y="-385.5" font-family="Helvetica,sans-Serif" font-size="10.00" fill="#000000">/Detectors/MUON/MCH/Raw</text>
<text text-anchor="start" x="468.5" y="-374.5" font-family="Helvetica,sans-Serif" font-size="10.00" fill="#000000">/Decoder/src/testUserLogicElink</text>
<text text-anchor="middle" x="546" y="-363.5" font-family="Helvetica,sans-Serif" font-size="10.00" fill="#000000">Decoder.cxx</text>
</a>
</g>
</g>
<!-- Node2&#45;&gt;Node12 -->
<g id="edge16" class="edge">
<title>Node2&#45;&gt;Node12</title>
<path fill="none" stroke="#191970" d="M509.8946,-447.8589C515.4498,-438.6491 521.4208,-428.7496 526.8761,-419.7054"/>
<polygon fill="#191970" stroke="#191970" points="506.8943,-446.0566 504.7264,-456.4273 512.8884,-449.6721 506.8943,-446.0566"/>
</g>
<!-- Node13 -->
<g id="node12" class="node">
<title>Node13</title>
<g id="a_node12"><a xlink:href="../../d5/dfc/CruLinkId_8cxx.html" target="_top" xlink:title="/home/travis/build\l/AliceO2Group/AliceO2\l/Detectors/MUON/MCH/Raw\l/ElecMap/src/CruLinkId.cxx">
<polygon fill="none" stroke="#000000" points="650,-362 650,-414 800,-414 800,-362 650,-362"/>
<text text-anchor="start" x="658" y="-402" font-family="Helvetica,sans-Serif" font-size="10.00" fill="#000000">/home/travis/build</text>
<text text-anchor="start" x="658" y="-391" font-family="Helvetica,sans-Serif" font-size="10.00" fill="#000000">/AliceO2Group/AliceO2</text>
<text text-anchor="start" x="658" y="-380" font-family="Helvetica,sans-Serif" font-size="10.00" fill="#000000">/Detectors/MUON/MCH/Raw</text>
<text text-anchor="middle" x="725" y="-369" font-family="Helvetica,sans-Serif" font-size="10.00" fill="#000000">/ElecMap/src/CruLinkId.cxx</text>
</a>
</g>
</g>
<!-- Node2&#45;&gt;Node13 -->
<g id="edge17" class="edge">
<title>Node2&#45;&gt;Node13</title>
<path fill="none" stroke="#191970" d="M563.5313,-452.6559C594.3934,-440.298 629.8673,-426.0934 659.6904,-414.1515"/>
<polygon fill="#191970" stroke="#191970" points="562.0951,-449.4607 554.1128,-456.4273 564.6973,-455.9591 562.0951,-449.4607"/>
</g>
<!-- Node14 -->
<g id="node13" class="node">
<title>Node14</title>
<g id="a_node13"><a xlink:href="../../d6/d4f/DsDetId_8cxx.html" target="_top" xlink:title="/home/travis/build\l/AliceO2Group/AliceO2\l/Detectors/MUON/MCH/Raw\l/ElecMap/src/DsDetId.cxx">
<polygon fill="none" stroke="#000000" points="818,-362 818,-414 968,-414 968,-362 818,-362"/>
<text text-anchor="start" x="826" y="-402" font-family="Helvetica,sans-Serif" font-size="10.00" fill="#000000">/home/travis/build</text>
<text text-anchor="start" x="826" y="-391" font-family="Helvetica,sans-Serif" font-size="10.00" fill="#000000">/AliceO2Group/AliceO2</text>
<text text-anchor="start" x="826" y="-380" font-family="Helvetica,sans-Serif" font-size="10.00" fill="#000000">/Detectors/MUON/MCH/Raw</text>
<text text-anchor="middle" x="893" y="-369" font-family="Helvetica,sans-Serif" font-size="10.00" fill="#000000">/ElecMap/src/DsDetId.cxx</text>
</a>
</g>
</g>
<!-- Node2&#45;&gt;Node14 -->
<g id="edge18" class="edge">
<title>Node2&#45;&gt;Node14</title>
<path fill="none" stroke="#191970" d="M574.4154,-469.9007C639.4197,-459.3327 730.7328,-442.3732 809,-420 815.1519,-418.2414 821.4879,-416.2254 827.7912,-414.0794"/>
<polygon fill="#191970" stroke="#191970" points="573.5317,-466.4977 564.2145,-471.5417 574.6435,-473.4089 573.5317,-466.4977"/>
</g>
<!-- Node15 -->
<g id="node14" class="node">
<title>Node15</title>
<g id="a_node14"><a xlink:href="../../d0/d1a/DsElecId_8cxx.html" target="_top" xlink:title="/home/travis/build\l/AliceO2Group/AliceO2\l/Detectors/MUON/MCH/Raw\l/ElecMap/src/DsElecId.cxx">
<polygon fill="none" stroke="#000000" points="986,-362 986,-414 1136,-414 1136,-362 986,-362"/>
<text text-anchor="start" x="994" y="-402" font-family="Helvetica,sans-Serif" font-size="10.00" fill="#000000">/home/travis/build</text>
<text text-anchor="start" x="994" y="-391" font-family="Helvetica,sans-Serif" font-size="10.00" fill="#000000">/AliceO2Group/AliceO2</text>
<text text-anchor="start" x="994" y="-380" font-family="Helvetica,sans-Serif" font-size="10.00" fill="#000000">/Detectors/MUON/MCH/Raw</text>
<text text-anchor="middle" x="1061" y="-369" font-family="Helvetica,sans-Serif" font-size="10.00" fill="#000000">/ElecMap/src/DsElecId.cxx</text>
</a>
</g>
</g>
<!-- Node2&#45;&gt;Node15 -->
<g id="edge19" class="edge">
<title>Node2&#45;&gt;Node15</title>
<path fill="none" stroke="#191970" d="M574.1877,-477.7105C672.477,-470.7823 838.3694,-454.7609 977,-420 983.6603,-418.33 990.5126,-416.2887 997.2941,-414.0531"/>
<polygon fill="#191970" stroke="#191970" points="573.7462,-474.2326 564.0107,-478.4124 574.2279,-481.216 573.7462,-474.2326"/>
</g>
<!-- Node4&#45;&gt;Node5 -->
<g id="edge3" class="edge">
<title>Node4&#45;&gt;Node5</title>
<path fill="none" stroke="#191970" d="M262.6904,-356.7096C242.2284,-344.6993 219.1106,-331.1301 199.5544,-319.6515"/>
<polygon fill="#191970" stroke="#191970" points="261.184,-359.8837 271.5799,-361.9273 264.7274,-353.8468 261.184,-359.8837"/>
</g>
<!-- Node10 -->
<g id="node9" class="node">
<title>Node10</title>
<g id="a_node9"><a xlink:href="../../d1/d49/testBareElinkDecoder_8cxx.html" target="_top" xlink:title="/home/travis/build\l/AliceO2Group/AliceO2\l/Detectors/MUON/MCH/Raw\l/Decoder/src/testBareElinkDecoder.cxx">
<polygon fill="none" stroke="#000000" points="259,-267.5 259,-319.5 465,-319.5 465,-267.5 259,-267.5"/>
<text text-anchor="start" x="267" y="-307.5" font-family="Helvetica,sans-Serif" font-size="10.00" fill="#000000">/home/travis/build</text>
<text text-anchor="start" x="267" y="-296.5" font-family="Helvetica,sans-Serif" font-size="10.00" fill="#000000">/AliceO2Group/AliceO2</text>
<text text-anchor="start" x="267" y="-285.5" font-family="Helvetica,sans-Serif" font-size="10.00" fill="#000000">/Detectors/MUON/MCH/Raw</text>
<text text-anchor="middle" x="362" y="-274.5" font-family="Helvetica,sans-Serif" font-size="10.00" fill="#000000">/Decoder/src/testBareElinkDecoder.cxx</text>
</a>
</g>
</g>
<!-- Node4&#45;&gt;Node10 -->
<g id="edge10" class="edge">
<title>Node4&#45;&gt;Node10</title>
<path fill="none" stroke="#191970" d="M333.2042,-352.6565C338.5032,-341.7706 344.2412,-329.9827 349.1903,-319.8157"/>
<polygon fill="#191970" stroke="#191970" points="329.9213,-351.4041 328.6915,-361.9273 336.2152,-354.4678 329.9213,-351.4041"/>
</g>
<!-- Node6 -->
<g id="node5" class="node">
<title>Node6</title>
<g id="a_node5"><a xlink:href="../../d0/da1/PayloadDecoder_8h.html" target="_top" xlink:title="/home/travis/build\l/AliceO2Group/AliceO2\l/Detectors/MUON/MCH/Raw\l/Decoder/src/PayloadDecoder.h">
<polygon fill="none" stroke="#000000" points="348.5,-178.5 348.5,-230.5 515.5,-230.5 515.5,-178.5 348.5,-178.5"/>
<text text-anchor="start" x="356.5" y="-218.5" font-family="Helvetica,sans-Serif" font-size="10.00" fill="#000000">/home/travis/build</text>
<text text-anchor="start" x="356.5" y="-207.5" font-family="Helvetica,sans-Serif" font-size="10.00" fill="#000000">/AliceO2Group/AliceO2</text>
<text text-anchor="start" x="356.5" y="-196.5" font-family="Helvetica,sans-Serif" font-size="10.00" fill="#000000">/Detectors/MUON/MCH/Raw</text>
<text text-anchor="middle" x="432" y="-185.5" font-family="Helvetica,sans-Serif" font-size="10.00" fill="#000000">/Decoder/src/PayloadDecoder.h</text>
</a>
</g>
</g>
<!-- Node5&#45;&gt;Node6 -->
<g id="edge4" class="edge">
<title>Node5&#45;&gt;Node6</title>
<path fill="none" stroke="#191970" d="M246.1049,-264.228C279.8783,-253.3766 317.9273,-241.1515 350.764,-230.6011"/>
<polygon fill="#191970" stroke="#191970" points="244.6875,-261.0071 236.2375,-267.3984 246.8288,-267.6716 244.6875,-261.0071"/>
</g>
<!-- Node8 -->
<g id="node7" class="node">
<title>Node8</title>
<g id="a_node7"><a xlink:href="../../d0/d6c/MUON_2MCH_2Raw_2Decoder_2src_2Decoder_8cxx.html" target="_top" xlink:title="/home/travis/build\l/AliceO2Group/AliceO2\l/Detectors/MUON/MCH/Raw\l/Decoder/src/Decoder.cxx">
<polygon fill="none" stroke="#000000" points="357,-.5 357,-52.5 507,-52.5 507,-.5 357,-.5"/>
<text text-anchor="start" x="365" y="-40.5" font-family="Helvetica,sans-Serif" font-size="10.00" fill="#000000">/home/travis/build</text>
<text text-anchor="start" x="365" y="-29.5" font-family="Helvetica,sans-Serif" font-size="10.00" fill="#000000">/AliceO2Group/AliceO2</text>
<text text-anchor="start" x="365" y="-18.5" font-family="Helvetica,sans-Serif" font-size="10.00" fill="#000000">/Detectors/MUON/MCH/Raw</text>
<text text-anchor="middle" x="432" y="-7.5" font-family="Helvetica,sans-Serif" font-size="10.00" fill="#000000">/Decoder/src/Decoder.cxx</text>
</a>
</g>
</g>
<!-- Node5&#45;&gt;Node8 -->
<g id="edge8" class="edge">
<title>Node5&#45;&gt;Node8</title>
<path fill="none" stroke="#191970" d="M205.7276,-261.5923C218.5306,-252.4595 231.8075,-241.9802 243,-231 299.0302,-176.0326 292.5813,-144.5838 348,-89 361.2191,-75.7415 377.3989,-63.0344 392.0171,-52.5813"/>
<polygon fill="#191970" stroke="#191970" points="203.6111,-258.8011 197.4093,-267.3911 207.6143,-264.5435 203.6111,-258.8011"/>
</g>
<!-- Node9 -->
<g id="node8" class="node">
<title>Node9</title>
<g id="a_node8"><a xlink:href="../../d7/d98/testDecoder_8cxx.html" target="_top" xlink:title="/home/travis/build\l/AliceO2Group/AliceO2\l/Detectors/MUON/MCH/Raw\l/Decoder/src/testDecoder.cxx">
<polygon fill="none" stroke="#000000" points="75.5,-178.5 75.5,-230.5 234.5,-230.5 234.5,-178.5 75.5,-178.5"/>
<text text-anchor="start" x="83.5" y="-218.5" font-family="Helvetica,sans-Serif" font-size="10.00" fill="#000000">/home/travis/build</text>
<text text-anchor="start" x="83.5" y="-207.5" font-family="Helvetica,sans-Serif" font-size="10.00" fill="#000000">/AliceO2Group/AliceO2</text>
<text text-anchor="start" x="83.5" y="-196.5" font-family="Helvetica,sans-Serif" font-size="10.00" fill="#000000">/Detectors/MUON/MCH/Raw</text>
<text text-anchor="middle" x="155" y="-185.5" font-family="Helvetica,sans-Serif" font-size="10.00" fill="#000000">/Decoder/src/testDecoder.cxx</text>
</a>
</g>
</g>
<!-- Node5&#45;&gt;Node9 -->
<g id="edge9" class="edge">
<title>Node5&#45;&gt;Node9</title>
<path fill="none" stroke="#191970" d="M155,-257.1155C155,-248.2061 155,-238.8475 155,-230.5341"/>
<polygon fill="#191970" stroke="#191970" points="151.5001,-257.2784 155,-267.2784 158.5001,-257.2785 151.5001,-257.2784"/>
</g>
<!-- Node6&#45;&gt;Node6 -->
<g id="edge7" class="edge">
<title>Node6&#45;&gt;Node6</title>
<path fill="none" stroke="#191970" d="M525.2878,-215.5549C530.4367,-212.8659 533.5,-209.1809 533.5,-204.5 533.5,-197.3672 526.387,-192.547 515.6203,-190.0393"/>
<polygon fill="#191970" stroke="#191970" points="523.8891,-212.3367 515.6203,-218.9607 526.2151,-218.939 523.8891,-212.3367"/>
</g>
<!-- Node7 -->
<g id="node6" class="node">
<title>Node7</title>
<g id="a_node6"><a xlink:href="../../d0/df0/Detectors_2MUON_2MCH_2Raw_2Decoder_2src_2PageParser_8h.html" target="_top" xlink:title="/home/travis/build\l/AliceO2Group/AliceO2\l/Detectors/MUON/MCH/Raw\l/Decoder/src/PageParser.h">
<polygon fill="none" stroke="#000000" points="357,-89.5 357,-141.5 507,-141.5 507,-89.5 357,-89.5"/>
<text text-anchor="start" x="365" y="-129.5" font-family="Helvetica,sans-Serif" font-size="10.00" fill="#000000">/home/travis/build</text>
<text text-anchor="start" x="365" y="-118.5" font-family="Helvetica,sans-Serif" font-size="10.00" fill="#000000">/AliceO2Group/AliceO2</text>
<text text-anchor="start" x="365" y="-107.5" font-family="Helvetica,sans-Serif" font-size="10.00" fill="#000000">/Detectors/MUON/MCH/Raw</text>
<text text-anchor="middle" x="432" y="-96.5" font-family="Helvetica,sans-Serif" font-size="10.00" fill="#000000">/Decoder/src/PageParser.h</text>
</a>
</g>
</g>
<!-- Node6&#45;&gt;Node7 -->
<g id="edge5" class="edge">
<title>Node6&#45;&gt;Node7</title>
<path fill="none" stroke="#191970" d="M432,-168.1155C432,-159.2061 432,-149.8475 432,-141.5341"/>
<polygon fill="#191970" stroke="#191970" points="428.5001,-168.2784 432,-178.2784 435.5001,-168.2785 428.5001,-168.2784"/>
</g>
<!-- Node7&#45;&gt;Node8 -->
<g id="edge6" class="edge">
<title>Node7&#45;&gt;Node8</title>
<path fill="none" stroke="#191970" d="M432,-79.1155C432,-70.2061 432,-60.8475 432,-52.5341"/>
<polygon fill="#191970" stroke="#191970" points="428.5001,-79.2784 432,-89.2784 435.5001,-79.2785 428.5001,-79.2784"/>
</g>
<!-- Node11&#45;&gt;Node6 -->
<g id="edge13" class="edge">
<title>Node11&#45;&gt;Node6</title>
<path fill="none" stroke="#191970" d="M528.9083,-261.9989C511.5513,-251.7004 492.4781,-240.3837 475.8778,-230.5341"/>
<polygon fill="#191970" stroke="#191970" points="527.4202,-265.1857 537.8064,-267.2784 530.9922,-259.1656 527.4202,-265.1857"/>
</g>
<!-- Node11&#45;&gt;Node8 -->
<g id="edge15" class="edge">
<title>Node11&#45;&gt;Node8</title>
<path fill="none" stroke="#191970" d="M577.1621,-257.2131C569.9173,-213.8062 552.9318,-140.5517 516,-89 505.8374,-74.8145 491.4843,-62.479 477.5126,-52.6009"/>
<polygon fill="#191970" stroke="#191970" points="573.7403,-257.9829 578.7612,-267.3125 580.6542,-256.8881 573.7403,-257.9829"/>
</g>
<!-- Node11&#45;&gt;Node11 -->
<g id="edge14" class="edge">
<title>Node11&#45;&gt;Node11</title>
<path fill="none" stroke="#191970" d="M690.3178,-303.9561C695.474,-301.3279 698.5,-297.8425 698.5,-293.5 698.5,-286.8828 691.4735,-282.256 680.5908,-279.6194"/>
<polygon fill="#191970" stroke="#191970" points="688.861,-300.7583 680.5908,-307.3806 691.1856,-307.3611 688.861,-300.7583"/>
</g>
</g>
</svg>
        <g id="navigator" transform="translate(0 0)" fill="#404254">
                <rect fill="#f2f5e9" fill-opacity="0.5" stroke="#606060" stroke-width=".5" x="0" y="0" width="60" height="60"/>
                <use id="zoomplus" xlink:href="#zoomPlus" x="17" y="9" onmousedown="handleZoom(evt,'in')"/>
                <use id="zoomminus" xlink:href="#zoomMin" x="42" y="9" onmousedown="handleZoom(evt,'out')"/>
                <use id="reset" xlink:href="#resetDef" x="30" y="36" onmousedown="handleReset()"/>
                <g id="arrowUp" xlink:href="#dirArrow" transform="translate(30 24)" onmousedown="handlePan(0,-1)">
                  <use xlink:href="#rim" fill="#404040">
                        <set attributeName="fill" to="#808080" begin="arrowUp.mouseover" end="arrowUp.mouseout"/>
                  </use>
                  <path fill="none" stroke="white" stroke-width="1.5" d="M0,-3.0v7 M-2.5,-0.5L0,-3.0L2.5,-0.5"/>
                </g>
                <g id="arrowRight" xlink:href="#dirArrow" transform="rotate(90) translate(36 -43)" onmousedown="handlePan(1,0)">
                  <use xlink:href="#rim" fill="#404040">
                        <set attributeName="fill" to="#808080" begin="arrowRight.mouseover" end="arrowRight.mouseout"/>
                  </use>
                  <path fill="none" stroke="white" stroke-width="1.5" d="M0,-3.0v7 M-2.5,-0.5L0,-3.0L2.5,-0.5"/>
                </g>
                <g id="arrowDown" xlink:href="#dirArrow" transform="rotate(180) translate(-30 -48)" onmousedown="handlePan(0,1)">
                  <use xlink:href="#rim" fill="#404040">
                        <set attributeName="fill" to="#808080" begin="arrowDown.mouseover" end="arrowDown.mouseout"/>
                  </use>
                  <path fill="none" stroke="white" stroke-width="1.5" d="M0,-3.0v7 M-2.5,-0.5L0,-3.0L2.5,-0.5"/>
                </g>
                <g id="arrowLeft" xlink:href="#dirArrow" transform="rotate(270) translate(-36 17)" onmousedown="handlePan(-1,0)">
                  <use xlink:href="#rim" fill="#404040">
                        <set attributeName="fill" to="#808080" begin="arrowLeft.mouseover" end="arrowLeft.mouseout"/>
                  </use>
                  <path fill="none" stroke="white" stroke-width="1.5" d="M0,-3.0v7 M-2.5,-0.5L0,-3.0L2.5,-0.5"/>
                </g>
        </g>
        <svg viewBox="0 0 15 15" width="100%" height="30px" preserveAspectRatio="xMaxYMin meet">
         <g id="arrow_out" transform="scale(0.3 0.3)">
          <a xlink:href="Assertions_8h__dep__incl_org.svg" target="_base">
           <rect id="button" ry="5" rx="5" y="6" x="6" height="38" width="38"
                fill="#f2f5e9" fill-opacity="0.5" stroke="#606060" stroke-width="1.0"/>
           <path id="arrow"
             d="M 11.500037,31.436501 C 11.940474,20.09759 22.043105,11.32322 32.158766,21.979434 L 37.068811,17.246167 C 37.068811,17.246167 37.088388,32 37.088388,32 L 22.160133,31.978069 C 22.160133,31.978069 26.997745,27.140456 26.997745,27.140456 C 18.528582,18.264221 13.291696,25.230495 11.500037,31.436501 z"
             style="fill:#404040;"/>
          </a>
         </g>
        </svg>
</svg>
