<?xml version="1.0" encoding="UTF-8" standalone="no"?>
<!DOCTYPE svg PUBLIC "-//W3C//DTD SVG 1.1//EN"
 "http://www.w3.org/Graphics/SVG/1.1/DTD/svg11.dtd">
<!-- Generated by graphviz version 2.40.1 (20161225.0304)
 -->
<!-- Title: /home/travis/build/AliceO2Group/AliceO2/GPU/GPUTracking/Merger/GPUTPCGMMergedTrack.h Pages: 1 -->
<!--zoomable 417 -->
<svg id="main" version="1.1" xmlns="http://www.w3.org/2000/svg" xmlns:xlink="http://www.w3.org/1999/xlink" xml:space="preserve" onload="init(evt)">
<style type="text/css"><![CDATA[
.edge:hover path { stroke: red; }
.edge:hover polygon { stroke: red; fill: red; }
]]></style>
<script type="text/javascript"><![CDATA[
var edges = document.getElementsByTagName('g');
if (edges && edges.length) {
  for (var i=0;i<edges.length;i++) {
    if (edges[i].id.substr(0,4)=='edge') {
      edges[i].setAttribute('class','edge');
    }
  }
}
]]></script>
        <defs>
                <circle id="rim" cx="0" cy="0" r="7"/>
                <circle id="rim2" cx="0" cy="0" r="3.5"/>
                <g id="zoomPlus">
                        <use xlink:href="#rim" fill="#404040">
                                <set attributeName="fill" to="#808080" begin="zoomplus.mouseover" end="zoomplus.mouseout"/>
                        </use>
                        <path d="M-4,0h8M0,-4v8" fill="none" stroke="white" stroke-width="1.5" pointer-events="none"/>
                </g>
                <g id="zoomMin">
                        <use xlink:href="#rim" fill="#404040">
                                <set attributeName="fill" to="#808080" begin="zoomminus.mouseover" end="zoomminus.mouseout"/>
                        </use>
                        <path d="M-4,0h8" fill="none" stroke="white" stroke-width="1.5" pointer-events="none"/>
                </g>
                <g id="dirArrow">
                        <path fill="none" stroke="white" stroke-width="1.5" d="M0,-3.0v7 M-2.5,-0.5L0,-3.0L2.5,-0.5"/>
                </g>
               <g id="resetDef">
                       <use xlink:href="#rim2" fill="#404040">
                               <set attributeName="fill" to="#808080" begin="reset.mouseover" end="reset.mouseout"/>
                       </use>
               </g>
        </defs>

<script type="text/javascript">
var viewWidth = 2080;
var viewHeight = 417;
var sectionId = 'dynsection-1';
</script>
<script xlink:href="../../svgpan.js"/>
<svg id="graph" class="graph">
<g id="viewport">
<title>/home/travis/build/AliceO2Group/AliceO2/GPU/GPUTracking/Merger/GPUTPCGMMergedTrack.h</title>
<!-- Node18 -->
<g id="node1" class="node">
<title>Node18</title>
<polygon fill="#bfbfbf" stroke="#000000" points="1050.5,-356.5 1050.5,-408.5 1196.5,-408.5 1196.5,-356.5 1050.5,-356.5"/>
<text text-anchor="start" x="1058.5" y="-396.5" font-family="Helvetica,sans-Serif" font-size="10.00" fill="#000000">/home/travis/build</text>
<text text-anchor="start" x="1058.5" y="-385.5" font-family="Helvetica,sans-Serif" font-size="10.00" fill="#000000">/AliceO2Group/AliceO2</text>
<text text-anchor="start" x="1058.5" y="-374.5" font-family="Helvetica,sans-Serif" font-size="10.00" fill="#000000">/GPU/GPUTracking/Merger</text>
<text text-anchor="middle" x="1123.5" y="-363.5" font-family="Helvetica,sans-Serif" font-size="10.00" fill="#000000">/GPUTPCGMMergedTrack.h</text>
</g>
<!-- Node19 -->
<g id="node2" class="node">
<title>Node19</title>
<g id="a_node2"><a xlink:href="../../d4/d2e/GPUCATracking_8cxx.html" target="_top" xlink:title="/home/travis/build\l/AliceO2Group/AliceO2\l/Detectors/TPC/reconstruction\l/src/GPUCATracking.cxx">
<polygon fill="none" stroke="#000000" points="0,-267.5 0,-319.5 161,-319.5 161,-267.5 0,-267.5"/>
<text text-anchor="start" x="8" y="-307.5" font-family="Helvetica,sans-Serif" font-size="10.00" fill="#000000">/home/travis/build</text>
<text text-anchor="start" x="8" y="-296.5" font-family="Helvetica,sans-Serif" font-size="10.00" fill="#000000">/AliceO2Group/AliceO2</text>
<text text-anchor="start" x="8" y="-285.5" font-family="Helvetica,sans-Serif" font-size="10.00" fill="#000000">/Detectors/TPC/reconstruction</text>
<text text-anchor="middle" x="80.5" y="-274.5" font-family="Helvetica,sans-Serif" font-size="10.00" fill="#000000">/src/GPUCATracking.cxx</text>
</a>
</g>
</g>
<!-- Node18&#45;&gt;Node19 -->
<g id="edge1" class="edge">
<title>Node18&#45;&gt;Node19</title>
<path fill="none" stroke="#191970" d="M1040.2845,-379.2183C841.0017,-371.0035 340.7077,-348.1775 175.5,-320 170.7739,-319.1939 165.9451,-318.2472 161.0927,-317.2001"/>
<polygon fill="#191970" stroke="#191970" points="1040.2678,-382.7205 1050.4029,-379.6335 1040.5549,-375.7264 1040.2678,-382.7205"/>
</g>
<!-- Node20 -->
<g id="node3" class="node">
<title>Node20</title>
<g id="a_node3"><a xlink:href="../../da/df6/GPUReconstructionCPU_8cxx.html" target="_top" xlink:title="/home/travis/build\l/AliceO2Group/AliceO2\l/GPU/GPUTracking/Base\l/GPUReconstructionCPU.cxx">
<polygon fill="none" stroke="#000000" points="113,-.5 113,-52.5 266,-52.5 266,-.5 113,-.5"/>
<text text-anchor="start" x="121" y="-40.5" font-family="Helvetica,sans-Serif" font-size="10.00" fill="#000000">/home/travis/build</text>
<text text-anchor="start" x="121" y="-29.5" font-family="Helvetica,sans-Serif" font-size="10.00" fill="#000000">/AliceO2Group/AliceO2</text>
<text text-anchor="start" x="121" y="-18.5" font-family="Helvetica,sans-Serif" font-size="10.00" fill="#000000">/GPU/GPUTracking/Base</text>
<text text-anchor="middle" x="189.5" y="-7.5" font-family="Helvetica,sans-Serif" font-size="10.00" fill="#000000">/GPUReconstructionCPU.cxx</text>
</a>
</g>
</g>
<!-- Node18&#45;&gt;Node20 -->
<g id="edge2" class="edge">
<title>Node18&#45;&gt;Node20</title>
<path fill="none" stroke="#191970" d="M1040.1129,-379.5937C888.3801,-373.4702 573.3274,-356.6724 470.5,-320 336.5159,-272.2158 279.4703,-262.8905 204.5,-142 187.7688,-115.0207 185.9177,-77.692 186.9882,-52.8554"/>
<polygon fill="#191970" stroke="#191970" points="1040.1777,-383.099 1050.3088,-379.999 1040.4558,-376.1045 1040.1777,-383.099"/>
</g>
<!-- Node21 -->
<g id="node4" class="node">
<title>Node21</title>
<g id="a_node4"><a xlink:href="../../d2/d58/GPUChainTracking_8cxx.html" target="_top" xlink:title="/home/travis/build\l/AliceO2Group/AliceO2\l/GPU/GPUTracking/Global\l/GPUChainTracking.cxx">
<polygon fill="none" stroke="#000000" points="662.5,-.5 662.5,-52.5 802.5,-52.5 802.5,-.5 662.5,-.5"/>
<text text-anchor="start" x="670.5" y="-40.5" font-family="Helvetica,sans-Serif" font-size="10.00" fill="#000000">/home/travis/build</text>
<text text-anchor="start" x="670.5" y="-29.5" font-family="Helvetica,sans-Serif" font-size="10.00" fill="#000000">/AliceO2Group/AliceO2</text>
<text text-anchor="start" x="670.5" y="-18.5" font-family="Helvetica,sans-Serif" font-size="10.00" fill="#000000">/GPU/GPUTracking/Global</text>
<text text-anchor="middle" x="732.5" y="-7.5" font-family="Helvetica,sans-Serif" font-size="10.00" fill="#000000">/GPUChainTracking.cxx</text>
</a>
</g>
</g>
<!-- Node18&#45;&gt;Node21 -->
<g id="edge3" class="edge">
<title>Node18&#45;&gt;Node21</title>
<path fill="none" stroke="#191970" d="M1040.4717,-362.2399C936.6829,-335.0049 768.3681,-283.8679 733.5,-231 697.4351,-176.3174 712.8349,-94.2347 724.2505,-52.6494"/>
<polygon fill="#191970" stroke="#191970" points="1039.7485,-365.6682 1050.3077,-364.8002 1041.5119,-358.8939 1039.7485,-365.6682"/>
</g>
<!-- Node22 -->
<g id="node5" class="node">
<title>Node22</title>
<g id="a_node5"><a xlink:href="../../d4/dcf/GPUTPCGMMerger_8h.html" target="_top" xlink:title="/home/travis/build\l/AliceO2Group/AliceO2\l/GPU/GPUTracking/Merger\l/GPUTPCGMMerger.h">
<polygon fill="none" stroke="#000000" points="1146.5,-267.5 1146.5,-319.5 1288.5,-319.5 1288.5,-267.5 1146.5,-267.5"/>
<text text-anchor="start" x="1154.5" y="-307.5" font-family="Helvetica,sans-Serif" font-size="10.00" fill="#000000">/home/travis/build</text>
<text text-anchor="start" x="1154.5" y="-296.5" font-family="Helvetica,sans-Serif" font-size="10.00" fill="#000000">/AliceO2Group/AliceO2</text>
<text text-anchor="start" x="1154.5" y="-285.5" font-family="Helvetica,sans-Serif" font-size="10.00" fill="#000000">/GPU/GPUTracking/Merger</text>
<text text-anchor="middle" x="1217.5" y="-274.5" font-family="Helvetica,sans-Serif" font-size="10.00" fill="#000000">/GPUTPCGMMerger.h</text>
</a>
</g>
</g>
<!-- Node18&#45;&gt;Node22 -->
<g id="edge4" class="edge">
<title>Node18&#45;&gt;Node22</title>
<path fill="none" stroke="#191970" d="M1158.5763,-349.2894C1168.959,-339.459 1180.173,-328.8415 1190.0033,-319.5341"/>
<polygon fill="#191970" stroke="#191970" points="1156.0499,-346.8615 1151.1947,-356.2784 1160.8626,-351.9447 1156.0499,-346.8615"/>
</g>
<!-- Node26 -->
<g id="node9" class="node">
<title>Node26</title>
<g id="a_node9"><a xlink:href="../../df/d06/GPUTPCGlobalMergerComponent_8cxx.html" target="_top" xlink:title="/home/travis/build\l/AliceO2Group/AliceO2\l/GPU/GPUTracking/Merger\l/GPUTPCGlobalMergerComponent.cxx">
<polygon fill="none" stroke="#000000" points="743,-178.5 743,-230.5 944,-230.5 944,-178.5 743,-178.5"/>
<text text-anchor="start" x="751" y="-218.5" font-family="Helvetica,sans-Serif" font-size="10.00" fill="#000000">/home/travis/build</text>
<text text-anchor="start" x="751" y="-207.5" font-family="Helvetica,sans-Serif" font-size="10.00" fill="#000000">/AliceO2Group/AliceO2</text>
<text text-anchor="start" x="751" y="-196.5" font-family="Helvetica,sans-Serif" font-size="10.00" fill="#000000">/GPU/GPUTracking/Merger</text>
<text text-anchor="middle" x="843.5" y="-185.5" font-family="Helvetica,sans-Serif" font-size="10.00" fill="#000000">/GPUTPCGlobalMergerComponent.cxx</text>
</a>
</g>
</g>
<!-- Node18&#45;&gt;Node26 -->
<g id="edge15" class="edge">
<title>Node18&#45;&gt;Node26</title>
<path fill="none" stroke="#191970" d="M1073.7868,-350.8966C1019.9002,-316.6401 934.892,-262.5992 884.624,-230.6431"/>
<polygon fill="#191970" stroke="#191970" points="1072.1689,-354.0154 1082.4857,-356.4266 1075.9243,-348.1081 1072.1689,-354.0154"/>
</g>
<!-- Node27 -->
<g id="node10" class="node">
<title>Node27</title>
<g id="a_node10"><a xlink:href="../../d0/dd4/GPUTPCGMMerger_8cxx.html" target="_top" xlink:title="/home/travis/build\l/AliceO2Group/AliceO2\l/GPU/GPUTracking/Merger\l/GPUTPCGMMerger.cxx">
<polygon fill="none" stroke="#000000" points="1929.5,-178.5 1929.5,-230.5 2071.5,-230.5 2071.5,-178.5 1929.5,-178.5"/>
<text text-anchor="start" x="1937.5" y="-218.5" font-family="Helvetica,sans-Serif" font-size="10.00" fill="#000000">/home/travis/build</text>
<text text-anchor="start" x="1937.5" y="-207.5" font-family="Helvetica,sans-Serif" font-size="10.00" fill="#000000">/AliceO2Group/AliceO2</text>
<text text-anchor="start" x="1937.5" y="-196.5" font-family="Helvetica,sans-Serif" font-size="10.00" fill="#000000">/GPU/GPUTracking/Merger</text>
<text text-anchor="middle" x="2000.5" y="-185.5" font-family="Helvetica,sans-Serif" font-size="10.00" fill="#000000">/GPUTPCGMMerger.cxx</text>
</a>
</g>
</g>
<!-- Node18&#45;&gt;Node27 -->
<g id="edge16" class="edge">
<title>Node18&#45;&gt;Node27</title>
<path fill="none" stroke="#191970" d="M1206.7725,-369.7233C1247.2693,-360.6119 1295.1382,-345.3214 1332.5,-320 1357.3795,-303.1383 1347.8866,-280.9656 1374.5,-267 1482.1723,-210.4982 1801.1575,-254.3056 1920.5,-231 1923.372,-230.4392 1926.2835,-229.8042 1929.2108,-229.1101"/>
<polygon fill="#191970" stroke="#191970" points="1205.9509,-366.3199 1196.9157,-371.8532 1207.4294,-373.162 1205.9509,-366.3199"/>
</g>
<!-- Node29 -->
<g id="node12" class="node">
<title>Node29</title>
<g id="a_node12"><a xlink:href="../../df/dad/GPUTPCGMTrackParam_8cxx.html" target="_top" xlink:title="/home/travis/build\l/AliceO2Group/AliceO2\l/GPU/GPUTracking/Merger\l/GPUTPCGMTrackParam.cxx">
<polygon fill="none" stroke="#000000" points="1759.5,-178.5 1759.5,-230.5 1911.5,-230.5 1911.5,-178.5 1759.5,-178.5"/>
<text text-anchor="start" x="1767.5" y="-218.5" font-family="Helvetica,sans-Serif" font-size="10.00" fill="#000000">/home/travis/build</text>
<text text-anchor="start" x="1767.5" y="-207.5" font-family="Helvetica,sans-Serif" font-size="10.00" fill="#000000">/AliceO2Group/AliceO2</text>
<text text-anchor="start" x="1767.5" y="-196.5" font-family="Helvetica,sans-Serif" font-size="10.00" fill="#000000">/GPU/GPUTracking/Merger</text>
<text text-anchor="middle" x="1835.5" y="-185.5" font-family="Helvetica,sans-Serif" font-size="10.00" fill="#000000">/GPUTPCGMTrackParam.cxx</text>
</a>
</g>
</g>
<!-- Node18&#45;&gt;Node29 -->
<g id="edge17" class="edge">
<title>Node18&#45;&gt;Node29</title>
<path fill="none" stroke="#191970" d="M1206.4881,-362.7997C1236.8947,-353.0685 1270.4519,-339.1883 1297.5,-320 1322.2399,-302.4491 1313.7223,-281.2497 1340.5,-267 1420.0688,-224.6578 1655.9232,-247.6792 1744.5,-231 1749.3512,-230.0865 1754.3151,-229.0232 1759.2987,-227.8577"/>
<polygon fill="#191970" stroke="#191970" points="1205.2582,-359.5164 1196.7388,-365.8148 1207.3265,-366.2039 1205.2582,-359.5164"/>
</g>
<!-- Node32 -->
<g id="node15" class="node">
<title>Node32</title>
<g id="a_node15"><a xlink:href="../../de/ddc/GPUQA_8cxx.html" target="_top" xlink:title="/home/travis/build\l/AliceO2Group/AliceO2\l/GPU/GPUTracking/Standalone\l/qa/GPUQA.cxx">
<polygon fill="none" stroke="#000000" points="1383,-267.5 1383,-319.5 1546,-319.5 1546,-267.5 1383,-267.5"/>
<text text-anchor="start" x="1391" y="-307.5" font-family="Helvetica,sans-Serif" font-size="10.00" fill="#000000">/home/travis/build</text>
<text text-anchor="start" x="1391" y="-296.5" font-family="Helvetica,sans-Serif" font-size="10.00" fill="#000000">/AliceO2Group/AliceO2</text>
<text text-anchor="start" x="1391" y="-285.5" font-family="Helvetica,sans-Serif" font-size="10.00" fill="#000000">/GPU/GPUTracking/Standalone</text>
<text text-anchor="middle" x="1464.5" y="-274.5" font-family="Helvetica,sans-Serif" font-size="10.00" fill="#000000">/qa/GPUQA.cxx</text>
</a>
</g>
</g>
<!-- Node18&#45;&gt;Node32 -->
<g id="edge18" class="edge">
<title>Node18&#45;&gt;Node32</title>
<path fill="none" stroke="#191970" d="M1206.6875,-361.7082C1254.1536,-349.737 1314.7305,-334.2782 1368.5,-320 1373.179,-318.7575 1377.983,-317.4698 1382.8285,-316.1616"/>
<polygon fill="#191970" stroke="#191970" points="1205.6068,-358.371 1196.7649,-364.2081 1207.317,-365.1589 1205.6068,-358.371"/>
</g>
<!-- Node33 -->
<g id="node16" class="node">
<title>Node33</title>
<g id="a_node16"><a xlink:href="../../dc/df9/standalone_8cxx.html" target="_top" xlink:title="/home/travis/build\l/AliceO2Group/AliceO2\l/GPU/GPUTracking/Standalone\l/standalone.cxx">
<polygon fill="none" stroke="#000000" points="1564,-267.5 1564,-319.5 1727,-319.5 1727,-267.5 1564,-267.5"/>
<text text-anchor="start" x="1572" y="-307.5" font-family="Helvetica,sans-Serif" font-size="10.00" fill="#000000">/home/travis/build</text>
<text text-anchor="start" x="1572" y="-296.5" font-family="Helvetica,sans-Serif" font-size="10.00" fill="#000000">/AliceO2Group/AliceO2</text>
<text text-anchor="start" x="1572" y="-285.5" font-family="Helvetica,sans-Serif" font-size="10.00" fill="#000000">/GPU/GPUTracking/Standalone</text>
<text text-anchor="middle" x="1645.5" y="-274.5" font-family="Helvetica,sans-Serif" font-size="10.00" fill="#000000">/standalone.cxx</text>
</a>
</g>
</g>
<!-- Node18&#45;&gt;Node33 -->
<g id="edge19" class="edge">
<title>Node18&#45;&gt;Node33</title>
<path fill="none" stroke="#191970" d="M1206.8154,-374.0179C1294.2816,-364.2825 1435.5008,-346.2068 1555.5,-320 1558.2052,-319.4092 1560.9481,-318.78 1563.7116,-318.1201"/>
<polygon fill="#191970" stroke="#191970" points="1206.2396,-370.5601 1196.6835,-375.1351 1207.0069,-377.518 1206.2396,-370.5601"/>
</g>
<!-- Node34 -->
<g id="node17" class="node">
<title>Node34</title>
<g id="a_node17"><a xlink:href="../../df/d77/GPUTRDInterfaces_8h.html" target="_top" xlink:title="/home/travis/build\l/AliceO2Group/AliceO2\l/GPU/GPUTracking/TRDTracking\l/GPUTRDInterfaces.h">
<polygon fill="none" stroke="#000000" points="480,-267.5 480,-319.5 649,-319.5 649,-267.5 480,-267.5"/>
<text text-anchor="start" x="488" y="-307.5" font-family="Helvetica,sans-Serif" font-size="10.00" fill="#000000">/home/travis/build</text>
<text text-anchor="start" x="488" y="-296.5" font-family="Helvetica,sans-Serif" font-size="10.00" fill="#000000">/AliceO2Group/AliceO2</text>
<text text-anchor="start" x="488" y="-285.5" font-family="Helvetica,sans-Serif" font-size="10.00" fill="#000000">/GPU/GPUTracking/TRDTracking</text>
<text text-anchor="middle" x="564.5" y="-274.5" font-family="Helvetica,sans-Serif" font-size="10.00" fill="#000000">/GPUTRDInterfaces.h</text>
</a>
</g>
</g>
<!-- Node18&#45;&gt;Node34 -->
<g id="edge20" class="edge">
<title>Node18&#45;&gt;Node34</title>
<path fill="none" stroke="#191970" d="M1040.1962,-371.3379C954.7571,-359.621 818.0967,-340.1339 700.5,-320 683.9029,-317.1584 666.2139,-313.8894 649.271,-310.6393"/>
<polygon fill="#191970" stroke="#191970" points="1039.9748,-374.8402 1050.357,-372.7278 1040.9236,-367.9048 1039.9748,-374.8402"/>
</g>
<!-- Node23 -->
<g id="node6" class="node">
<title>Node23</title>
<g id="a_node6"><a xlink:href="../../d0/d25/GPUReconstructionIncludesDevice_8h.html" target="_top" xlink:title="/home/travis/build\l/AliceO2Group/AliceO2\l/GPU/GPUTracking/Base\l/GPUReconstructionIncludesDevice.h">
<polygon fill="none" stroke="#000000" points="1685.5,-89.5 1685.5,-141.5 1881.5,-141.5 1881.5,-89.5 1685.5,-89.5"/>
<text text-anchor="start" x="1693.5" y="-129.5" font-family="Helvetica,sans-Serif" font-size="10.00" fill="#000000">/home/travis/build</text>
<text text-anchor="start" x="1693.5" y="-118.5" font-family="Helvetica,sans-Serif" font-size="10.00" fill="#000000">/AliceO2Group/AliceO2</text>
<text text-anchor="start" x="1693.5" y="-107.5" font-family="Helvetica,sans-Serif" font-size="10.00" fill="#000000">/GPU/GPUTracking/Base</text>
<text text-anchor="middle" x="1783.5" y="-96.5" font-family="Helvetica,sans-Serif" font-size="10.00" fill="#000000">/GPUReconstructionIncludesDevice.h</text>
</a>
</g>
</g>
<!-- Node22&#45;&gt;Node23 -->
<g id="edge5" class="edge">
<title>Node22&#45;&gt;Node23</title>
<path fill="none" stroke="#191970" d="M1298.6393,-267.7927C1299.9329,-267.517 1301.2204,-267.2524 1302.5,-267 1392.4491,-249.2536 1635.6584,-279.4403 1713.5,-231 1722.1846,-225.5956 1751.554,-173.8937 1769.3739,-141.5219"/>
<polygon fill="#191970" stroke="#191970" points="1297.5895,-264.443 1288.6345,-270.1051 1299.1659,-271.2632 1297.5895,-264.443"/>
</g>
<!-- Node25 -->
<g id="node8" class="node">
<title>Node25</title>
<g id="a_node8"><a xlink:href="../../d9/d57/GPUTPCCompressionKernels_8cxx.html" target="_top" xlink:title="/home/travis/build\l/AliceO2Group/AliceO2\l/GPU/GPUTracking/DataCompression\l/GPUTPCCompressionKernels.cxx">
<polygon fill="none" stroke="#000000" points="1509,-178.5 1509,-230.5 1704,-230.5 1704,-178.5 1509,-178.5"/>
<text text-anchor="start" x="1517" y="-218.5" font-family="Helvetica,sans-Serif" font-size="10.00" fill="#000000">/home/travis/build</text>
<text text-anchor="start" x="1517" y="-207.5" font-family="Helvetica,sans-Serif" font-size="10.00" fill="#000000">/AliceO2Group/AliceO2</text>
<text text-anchor="start" x="1517" y="-196.5" font-family="Helvetica,sans-Serif" font-size="10.00" fill="#000000">/GPU/GPUTracking/DataCompression</text>
<text text-anchor="middle" x="1606.5" y="-185.5" font-family="Helvetica,sans-Serif" font-size="10.00" fill="#000000">/GPUTPCCompressionKernels.cxx</text>
</a>
</g>
</g>
<!-- Node22&#45;&gt;Node25 -->
<g id="edge7" class="edge">
<title>Node22&#45;&gt;Node25</title>
<path fill="none" stroke="#191970" d="M1298.6758,-267.9579C1299.9581,-267.6309 1301.2335,-267.3113 1302.5,-267 1389.3571,-245.6494 1413.0676,-249.8565 1500.5,-231 1503.2814,-230.4001 1506.1008,-229.7796 1508.9442,-229.1428"/>
<polygon fill="#191970" stroke="#191970" points="1297.5102,-264.646 1288.7429,-270.5946 1299.3062,-271.4117 1297.5102,-264.646"/>
</g>
<!-- Node22&#45;&gt;Node26 -->
<g id="edge8" class="edge">
<title>Node22&#45;&gt;Node26</title>
<path fill="none" stroke="#191970" d="M1136.4505,-274.3993C1084.2102,-262.0665 1014.8293,-245.647 953.5,-231 950.443,-230.2699 947.3384,-229.5276 944.2042,-228.7774"/>
<polygon fill="#191970" stroke="#191970" points="1135.794,-277.8405 1146.3306,-276.7314 1137.4021,-271.0277 1135.794,-277.8405"/>
</g>
<!-- Node22&#45;&gt;Node27 -->
<g id="edge9" class="edge">
<title>Node22&#45;&gt;Node27</title>
<path fill="none" stroke="#191970" d="M1298.7289,-274.2006C1312.6022,-271.4217 1326.918,-268.8738 1340.5,-267 1596.3505,-231.7024 1666.9195,-280.0137 1920.5,-231 1923.373,-230.4447 1926.2854,-229.8144 1929.2135,-229.1242"/>
<polygon fill="#191970" stroke="#191970" points="1297.812,-270.8159 1288.722,-276.2586 1299.2221,-277.6724 1297.812,-270.8159"/>
</g>
<!-- Node28 -->
<g id="node11" class="node">
<title>Node28</title>
<g id="a_node11"><a xlink:href="../../d5/d84/GPUTPCGMSliceTrack_8cxx.html" target="_top" xlink:title="/home/travis/build\l/AliceO2Group/AliceO2\l/GPU/GPUTracking/Merger\l/GPUTPCGMSliceTrack.cxx">
<polygon fill="none" stroke="#000000" points="962.5,-178.5 962.5,-230.5 1106.5,-230.5 1106.5,-178.5 962.5,-178.5"/>
<text text-anchor="start" x="970.5" y="-218.5" font-family="Helvetica,sans-Serif" font-size="10.00" fill="#000000">/home/travis/build</text>
<text text-anchor="start" x="970.5" y="-207.5" font-family="Helvetica,sans-Serif" font-size="10.00" fill="#000000">/AliceO2Group/AliceO2</text>
<text text-anchor="start" x="970.5" y="-196.5" font-family="Helvetica,sans-Serif" font-size="10.00" fill="#000000">/GPU/GPUTracking/Merger</text>
<text text-anchor="middle" x="1034.5" y="-185.5" font-family="Helvetica,sans-Serif" font-size="10.00" fill="#000000">/GPUTPCGMSliceTrack.cxx</text>
</a>
</g>
</g>
<!-- Node22&#45;&gt;Node28 -->
<g id="edge10" class="edge">
<title>Node22&#45;&gt;Node28</title>
<path fill="none" stroke="#191970" d="M1154.4717,-262.8469C1132.8357,-252.3245 1108.8407,-240.6548 1088.0309,-230.5341"/>
<polygon fill="#191970" stroke="#191970" points="1153.0601,-266.0523 1163.5837,-267.2784 1156.1216,-259.7573 1153.0601,-266.0523"/>
</g>
<!-- Node22&#45;&gt;Node29 -->
<g id="edge11" class="edge">
<title>Node22&#45;&gt;Node29</title>
<path fill="none" stroke="#191970" d="M1298.6371,-267.7814C1299.9314,-267.5093 1301.2197,-267.2484 1302.5,-267 1496.4213,-229.3731 1551.2864,-267.0877 1745.5,-231 1749.984,-230.1668 1754.5637,-229.1989 1759.1647,-228.1356"/>
<polygon fill="#191970" stroke="#191970" points="1297.5953,-264.4293 1288.628,-270.0717 1299.1568,-271.2529 1297.5953,-264.4293"/>
</g>
<!-- Node30 -->
<g id="node13" class="node">
<title>Node30</title>
<g id="a_node13"><a xlink:href="../../d3/ddb/GPUTPCGMTracksToTPCSeeds_8cxx.html" target="_top" xlink:title="/home/travis/build\l/AliceO2Group/AliceO2\l/GPU/GPUTracking/Merger\l/GPUTPCGMTracksToTPCSeeds.cxx">
<polygon fill="none" stroke="#000000" points="1125,-178.5 1125,-230.5 1310,-230.5 1310,-178.5 1125,-178.5"/>
<text text-anchor="start" x="1133" y="-218.5" font-family="Helvetica,sans-Serif" font-size="10.00" fill="#000000">/home/travis/build</text>
<text text-anchor="start" x="1133" y="-207.5" font-family="Helvetica,sans-Serif" font-size="10.00" fill="#000000">/AliceO2Group/AliceO2</text>
<text text-anchor="start" x="1133" y="-196.5" font-family="Helvetica,sans-Serif" font-size="10.00" fill="#000000">/GPU/GPUTracking/Merger</text>
<text text-anchor="middle" x="1217.5" y="-185.5" font-family="Helvetica,sans-Serif" font-size="10.00" fill="#000000">/GPUTPCGMTracksToTPCSeeds.cxx</text>
</a>
</g>
</g>
<!-- Node22&#45;&gt;Node30 -->
<g id="edge13" class="edge">
<title>Node22&#45;&gt;Node30</title>
<path fill="none" stroke="#191970" d="M1217.5,-257.1155C1217.5,-248.2061 1217.5,-238.8475 1217.5,-230.5341"/>
<polygon fill="#191970" stroke="#191970" points="1214.0001,-257.2784 1217.5,-267.2784 1221.0001,-257.2785 1214.0001,-257.2784"/>
</g>
<!-- Node31 -->
<g id="node14" class="node">
<title>Node31</title>
<g id="a_node14"><a xlink:href="../../d7/d9f/genEvents_8cxx.html" target="_top" xlink:title="/home/travis/build\l/AliceO2Group/AliceO2\l/GPU/GPUTracking/Standalone\l/qa/genEvents.cxx">
<polygon fill="none" stroke="#000000" points="1328,-178.5 1328,-230.5 1491,-230.5 1491,-178.5 1328,-178.5"/>
<text text-anchor="start" x="1336" y="-218.5" font-family="Helvetica,sans-Serif" font-size="10.00" fill="#000000">/home/travis/build</text>
<text text-anchor="start" x="1336" y="-207.5" font-family="Helvetica,sans-Serif" font-size="10.00" fill="#000000">/AliceO2Group/AliceO2</text>
<text text-anchor="start" x="1336" y="-196.5" font-family="Helvetica,sans-Serif" font-size="10.00" fill="#000000">/GPU/GPUTracking/Standalone</text>
<text text-anchor="middle" x="1409.5" y="-185.5" font-family="Helvetica,sans-Serif" font-size="10.00" fill="#000000">/qa/genEvents.cxx</text>
</a>
</g>
</g>
<!-- Node22&#45;&gt;Node31 -->
<g id="edge14" class="edge">
<title>Node22&#45;&gt;Node31</title>
<path fill="none" stroke="#191970" d="M1283.0701,-263.1055C1305.865,-252.5391 1331.213,-240.7893 1353.192,-230.6011"/>
<polygon fill="#191970" stroke="#191970" points="1281.4097,-260.0174 1273.809,-267.3984 1284.3537,-266.3682 1281.4097,-260.0174"/>
</g>
<!-- Node24 -->
<g id="node7" class="node">
<title>Node24</title>
<g id="a_node7"><a xlink:href="../../d3/d33/GPUReconstructionHIP_8hip_8cxx.html" target="_top" xlink:title="/home/travis/build\l/AliceO2Group/AliceO2\l/GPU/GPUTracking/Base\l/hip/GPUReconstructionHIP.hip.cxx">
<polygon fill="none" stroke="#000000" points="1691.5,-.5 1691.5,-52.5 1875.5,-52.5 1875.5,-.5 1691.5,-.5"/>
<text text-anchor="start" x="1699.5" y="-40.5" font-family="Helvetica,sans-Serif" font-size="10.00" fill="#000000">/home/travis/build</text>
<text text-anchor="start" x="1699.5" y="-29.5" font-family="Helvetica,sans-Serif" font-size="10.00" fill="#000000">/AliceO2Group/AliceO2</text>
<text text-anchor="start" x="1699.5" y="-18.5" font-family="Helvetica,sans-Serif" font-size="10.00" fill="#000000">/GPU/GPUTracking/Base</text>
<text text-anchor="middle" x="1783.5" y="-7.5" font-family="Helvetica,sans-Serif" font-size="10.00" fill="#000000">/hip/GPUReconstructionHIP.hip.cxx</text>
</a>
</g>
</g>
<!-- Node23&#45;&gt;Node24 -->
<g id="edge6" class="edge">
<title>Node23&#45;&gt;Node24</title>
<path fill="none" stroke="#191970" d="M1783.5,-79.1155C1783.5,-70.2061 1783.5,-60.8475 1783.5,-52.5341"/>
<polygon fill="#191970" stroke="#191970" points="1780.0001,-79.2784 1783.5,-89.2784 1787.0001,-79.2785 1780.0001,-79.2784"/>
</g>
<!-- Node29&#45;&gt;Node23 -->
<g id="edge12" class="edge">
<title>Node29&#45;&gt;Node23</title>
<path fill="none" stroke="#191970" d="M1815.0879,-169.5639C1809.6323,-160.2264 1803.8322,-150.2993 1798.711,-141.5341"/>
<polygon fill="#191970" stroke="#191970" points="1812.1127,-171.4098 1820.1795,-178.2784 1818.1567,-167.8785 1812.1127,-171.4098"/>
</g>
<!-- Node35 -->
<g id="node18" class="node">
<title>Node35</title>
<g id="a_node18"><a xlink:href="../../db/dca/GPUTRDTrack_8h.html" target="_top" xlink:title="/home/travis/build\l/AliceO2Group/AliceO2\l/GPU/GPUTracking/TRDTracking\l/GPUTRDTrack.h">
<polygon fill="none" stroke="#000000" points="461,-178.5 461,-230.5 630,-230.5 630,-178.5 461,-178.5"/>
<text text-anchor="start" x="469" y="-218.5" font-family="Helvetica,sans-Serif" font-size="10.00" fill="#000000">/home/travis/build</text>
<text text-anchor="start" x="469" y="-207.5" font-family="Helvetica,sans-Serif" font-size="10.00" fill="#000000">/AliceO2Group/AliceO2</text>
<text text-anchor="start" x="469" y="-196.5" font-family="Helvetica,sans-Serif" font-size="10.00" fill="#000000">/GPU/GPUTracking/TRDTracking</text>
<text text-anchor="middle" x="545.5" y="-185.5" font-family="Helvetica,sans-Serif" font-size="10.00" fill="#000000">/GPUTRDTrack.h</text>
</a>
</g>
</g>
<!-- Node34&#45;&gt;Node35 -->
<g id="edge21" class="edge">
<title>Node34&#45;&gt;Node35</title>
<path fill="none" stroke="#191970" d="M556.7945,-257.4059C554.874,-248.4097 552.8519,-238.9379 551.0579,-230.5341"/>
<polygon fill="#191970" stroke="#191970" points="553.3914,-258.2296 558.9021,-267.2784 560.2371,-256.7681 553.3914,-258.2296"/>
</g>
<!-- Node35&#45;&gt;Node20 -->
<g id="edge22" class="edge">
<title>Node35&#45;&gt;Node20</title>
<path fill="none" stroke="#191970" d="M450.7173,-193.9477C375.195,-183.8921 277.067,-166.6194 245.5,-142 217.0329,-119.7982 202.1691,-79.4434 195.0917,-52.8012"/>
<polygon fill="#191970" stroke="#191970" points="450.3756,-197.4327 460.745,-195.2585 451.283,-190.4918 450.3756,-197.4327"/>
</g>
<!-- Node35&#45;&gt;Node21 -->
<g id="edge23" class="edge">
<title>Node35&#45;&gt;Node21</title>
<path fill="none" stroke="#191970" d="M598.2152,-172.4688C611.6032,-163.3372 625.5647,-152.8894 637.5,-142 667.6129,-114.526 696.5213,-77.3094 714.3767,-52.6335"/>
<polygon fill="#191970" stroke="#191970" points="595.8994,-169.8065 589.5272,-178.2709 599.787,-175.6278 595.8994,-169.8065"/>
</g>
<!-- Node36 -->
<g id="node19" class="node">
<title>Node36</title>
<g id="a_node19"><a xlink:href="../../d0/d7f/GPUTRDTrack_8cxx.html" target="_top" xlink:title="/home/travis/build\l/AliceO2Group/AliceO2\l/GPU/GPUTracking/TRDTracking\l/GPUTRDTrack.cxx">
<polygon fill="none" stroke="#000000" points="255,-89.5 255,-141.5 424,-141.5 424,-89.5 255,-89.5"/>
<text text-anchor="start" x="263" y="-129.5" font-family="Helvetica,sans-Serif" font-size="10.00" fill="#000000">/home/travis/build</text>
<text text-anchor="start" x="263" y="-118.5" font-family="Helvetica,sans-Serif" font-size="10.00" fill="#000000">/AliceO2Group/AliceO2</text>
<text text-anchor="start" x="263" y="-107.5" font-family="Helvetica,sans-Serif" font-size="10.00" fill="#000000">/GPU/GPUTracking/TRDTracking</text>
<text text-anchor="middle" x="339.5" y="-96.5" font-family="Helvetica,sans-Serif" font-size="10.00" fill="#000000">/GPUTRDTrack.cxx</text>
</a>
</g>
</g>
<!-- Node35&#45;&gt;Node36 -->
<g id="edge24" class="edge">
<title>Node35&#45;&gt;Node36</title>
<path fill="none" stroke="#191970" d="M475.8003,-174.387C451.1754,-163.7481 423.705,-151.8798 399.9138,-141.6011"/>
<polygon fill="#191970" stroke="#191970" points="474.5171,-177.6453 485.0851,-178.3984 477.2934,-171.2193 474.5171,-177.6453"/>
</g>
<!-- Node37 -->
<g id="node20" class="node">
<title>Node37</title>
<g id="a_node20"><a xlink:href="../../dd/d44/GPUTRDTracker_8h.html" target="_top" xlink:title="Online TRD tracker based on extrapolated TPC tracks. ">
<polygon fill="none" stroke="#000000" points="442,-89.5 442,-141.5 611,-141.5 611,-89.5 442,-89.5"/>
<text text-anchor="start" x="450" y="-129.5" font-family="Helvetica,sans-Serif" font-size="10.00" fill="#000000">/home/travis/build</text>
<text text-anchor="start" x="450" y="-118.5" font-family="Helvetica,sans-Serif" font-size="10.00" fill="#000000">/AliceO2Group/AliceO2</text>
<text text-anchor="start" x="450" y="-107.5" font-family="Helvetica,sans-Serif" font-size="10.00" fill="#000000">/GPU/GPUTracking/TRDTracking</text>
<text text-anchor="middle" x="526.5" y="-96.5" font-family="Helvetica,sans-Serif" font-size="10.00" fill="#000000">/GPUTRDTracker.h</text>
</a>
</g>
</g>
<!-- Node35&#45;&gt;Node37 -->
<g id="edge25" class="edge">
<title>Node35&#45;&gt;Node37</title>
<path fill="none" stroke="#191970" d="M537.7945,-168.4059C535.874,-159.4097 533.8519,-149.9379 532.0579,-141.5341"/>
<polygon fill="#191970" stroke="#191970" points="534.3914,-169.2296 539.9021,-178.2784 541.2371,-167.7681 534.3914,-169.2296"/>
</g>
<!-- Node39 -->
<g id="node22" class="node">
<title>Node39</title>
<g id="a_node22"><a xlink:href="../../db/dd1/GPUTRDTrackerComponent_8cxx.html" target="_top" xlink:title="A TRD tracker processing component for the GPU. ">
<polygon fill="none" stroke="#000000" points="471,-.5 471,-52.5 644,-52.5 644,-.5 471,-.5"/>
<text text-anchor="start" x="479" y="-40.5" font-family="Helvetica,sans-Serif" font-size="10.00" fill="#000000">/home/travis/build</text>
<text text-anchor="start" x="479" y="-29.5" font-family="Helvetica,sans-Serif" font-size="10.00" fill="#000000">/AliceO2Group/AliceO2</text>
<text text-anchor="start" x="479" y="-18.5" font-family="Helvetica,sans-Serif" font-size="10.00" fill="#000000">/GPU/GPUTracking/TRDTracking</text>
<text text-anchor="middle" x="557.5" y="-7.5" font-family="Helvetica,sans-Serif" font-size="10.00" fill="#000000">/GPUTRDTrackerComponent.cxx</text>
</a>
</g>
</g>
<!-- Node35&#45;&gt;Node39 -->
<g id="edge30" class="edge">
<title>Node35&#45;&gt;Node39</title>
<path fill="none" stroke="#191970" d="M596.5134,-171.8208C605.8258,-163.3168 614.2469,-153.3128 619.5,-142 629.4207,-120.6354 628.4706,-110.7806 619.5,-89 613.7959,-75.1504 603.3731,-62.7453 592.6804,-52.7084"/>
<polygon fill="#191970" stroke="#191970" points="594.2354,-169.1636 588.8975,-178.3155 598.7776,-174.4898 594.2354,-169.1636"/>
</g>
<!-- Node37&#45;&gt;Node20 -->
<g id="edge26" class="edge">
<title>Node37&#45;&gt;Node20</title>
<path fill="none" stroke="#191970" d="M431.8869,-88.9055C361.0086,-71.2314 341.055,-70.9275 274.5,-53 271.8134,-52.2763 269.0844,-51.5234 266.3322,-50.7489"/>
<polygon fill="#191970" stroke="#191970" points="431.1981,-92.3413 441.7505,-91.3943 432.9107,-85.5541 431.1981,-92.3413"/>
</g>
<!-- Node37&#45;&gt;Node21 -->
<g id="edge27" class="edge">
<title>Node37&#45;&gt;Node21</title>
<path fill="none" stroke="#191970" d="M596.1997,-85.387C620.8246,-74.7481 648.295,-62.8798 672.0862,-52.6011"/>
<polygon fill="#191970" stroke="#191970" points="594.7066,-82.2193 586.9149,-89.3984 597.4829,-88.6453 594.7066,-82.2193"/>
</g>
<!-- Node38 -->
<g id="node21" class="node">
<title>Node38</title>
<g id="a_node21"><a xlink:href="../../d9/d33/GPUTRDTracker_8cxx.html" target="_top" xlink:title="/home/travis/build\l/AliceO2Group/AliceO2\l/GPU/GPUTracking/TRDTracking\l/GPUTRDTracker.cxx">
<polygon fill="none" stroke="#000000" points="284,-.5 284,-52.5 453,-52.5 453,-.5 284,-.5"/>
<text text-anchor="start" x="292" y="-40.5" font-family="Helvetica,sans-Serif" font-size="10.00" fill="#000000">/home/travis/build</text>
<text text-anchor="start" x="292" y="-29.5" font-family="Helvetica,sans-Serif" font-size="10.00" fill="#000000">/AliceO2Group/AliceO2</text>
<text text-anchor="start" x="292" y="-18.5" font-family="Helvetica,sans-Serif" font-size="10.00" fill="#000000">/GPU/GPUTracking/TRDTracking</text>
<text text-anchor="middle" x="368.5" y="-7.5" font-family="Helvetica,sans-Serif" font-size="10.00" fill="#000000">/GPUTRDTracker.cxx</text>
</a>
</g>
</g>
<!-- Node37&#45;&gt;Node38 -->
<g id="edge28" class="edge">
<title>Node37&#45;&gt;Node38</title>
<path fill="none" stroke="#191970" d="M471.0795,-84.2821C452.6629,-73.9082 432.364,-62.4741 414.7179,-52.5341"/>
<polygon fill="#191970" stroke="#191970" points="469.5188,-87.42 479.9494,-89.2784 472.9543,-81.321 469.5188,-87.42"/>
</g>
<!-- Node37&#45;&gt;Node39 -->
<g id="edge29" class="edge">
<title>Node37&#45;&gt;Node39</title>
<path fill="none" stroke="#191970" d="M538.9711,-79.6959C542.1346,-70.6135 545.4733,-61.0282 548.4319,-52.5341"/>
<polygon fill="#191970" stroke="#191970" points="535.6175,-78.6836 535.6334,-89.2784 542.228,-80.9862 535.6175,-78.6836"/>
</g>
</g>
</svg>
        <g id="navigator" transform="translate(0 0)" fill="#404254">
                <rect fill="#f2f5e9" fill-opacity="0.5" stroke="#606060" stroke-width=".5" x="0" y="0" width="60" height="60"/>
                <use id="zoomplus" xlink:href="#zoomPlus" x="17" y="9" onmousedown="handleZoom(evt,'in')"/>
                <use id="zoomminus" xlink:href="#zoomMin" x="42" y="9" onmousedown="handleZoom(evt,'out')"/>
                <use id="reset" xlink:href="#resetDef" x="30" y="36" onmousedown="handleReset()"/>
                <g id="arrowUp" xlink:href="#dirArrow" transform="translate(30 24)" onmousedown="handlePan(0,-1)">
                  <use xlink:href="#rim" fill="#404040">
                        <set attributeName="fill" to="#808080" begin="arrowUp.mouseover" end="arrowUp.mouseout"/>
                  </use>
                  <path fill="none" stroke="white" stroke-width="1.5" d="M0,-3.0v7 M-2.5,-0.5L0,-3.0L2.5,-0.5"/>
                </g>
                <g id="arrowRight" xlink:href="#dirArrow" transform="rotate(90) translate(36 -43)" onmousedown="handlePan(1,0)">
                  <use xlink:href="#rim" fill="#404040">
                        <set attributeName="fill" to="#808080" begin="arrowRight.mouseover" end="arrowRight.mouseout"/>
                  </use>
                  <path fill="none" stroke="white" stroke-width="1.5" d="M0,-3.0v7 M-2.5,-0.5L0,-3.0L2.5,-0.5"/>
                </g>
                <g id="arrowDown" xlink:href="#dirArrow" transform="rotate(180) translate(-30 -48)" onmousedown="handlePan(0,1)">
                  <use xlink:href="#rim" fill="#404040">
                        <set attributeName="fill" to="#808080" begin="arrowDown.mouseover" end="arrowDown.mouseout"/>
                  </use>
                  <path fill="none" stroke="white" stroke-width="1.5" d="M0,-3.0v7 M-2.5,-0.5L0,-3.0L2.5,-0.5"/>
                </g>
                <g id="arrowLeft" xlink:href="#dirArrow" transform="rotate(270) translate(-36 17)" onmousedown="handlePan(-1,0)">
                  <use xlink:href="#rim" fill="#404040">
                        <set attributeName="fill" to="#808080" begin="arrowLeft.mouseover" end="arrowLeft.mouseout"/>
                  </use>
                  <path fill="none" stroke="white" stroke-width="1.5" d="M0,-3.0v7 M-2.5,-0.5L0,-3.0L2.5,-0.5"/>
                </g>
        </g>
        <svg viewBox="0 0 15 15" width="100%" height="30px" preserveAspectRatio="xMaxYMin meet">
         <g id="arrow_out" transform="scale(0.3 0.3)">
          <a xlink:href="GPUTPCGMMergedTrack_8h__dep__incl_org.svg" target="_base">
           <rect id="button" ry="5" rx="5" y="6" x="6" height="38" width="38"
                fill="#f2f5e9" fill-opacity="0.5" stroke="#606060" stroke-width="1.0"/>
           <path id="arrow"
             d="M 11.500037,31.436501 C 11.940474,20.09759 22.043105,11.32322 32.158766,21.979434 L 37.068811,17.246167 C 37.068811,17.246167 37.088388,32 37.088388,32 L 22.160133,31.978069 C 22.160133,31.978069 26.997745,27.140456 26.997745,27.140456 C 18.528582,18.264221 13.291696,25.230495 11.500037,31.436501 z"
             style="fill:#404040;"/>
          </a>
         </g>
        </svg>
</svg>
