<?xml version="1.0" encoding="UTF-8" standalone="no"?>
<!DOCTYPE svg PUBLIC "-//W3C//DTD SVG 1.1//EN"
 "http://www.w3.org/Graphics/SVG/1.1/DTD/svg11.dtd">
<!-- Generated by graphviz version 2.40.1 (20161225.0304)
 -->
<!-- Title: /home/travis/build/AliceO2Group/AliceO2/Detectors/TOF/simulation/include/TOFSimulation/Strip.h Pages: 1 -->
<!--zoomable 385 -->
<svg id="main" version="1.1" xmlns="http://www.w3.org/2000/svg" xmlns:xlink="http://www.w3.org/1999/xlink" xml:space="preserve" onload="init(evt)">
<style type="text/css"><![CDATA[
.edge:hover path { stroke: red; }
.edge:hover polygon { stroke: red; fill: red; }
]]></style>
<script type="text/javascript"><![CDATA[
var edges = document.getElementsByTagName('g');
if (edges && edges.length) {
  for (var i=0;i<edges.length;i++) {
    if (edges[i].id.substr(0,4)=='edge') {
      edges[i].setAttribute('class','edge');
    }
  }
}
]]></script>
        <defs>
                <circle id="rim" cx="0" cy="0" r="7"/>
                <circle id="rim2" cx="0" cy="0" r="3.5"/>
                <g id="zoomPlus">
                        <use xlink:href="#rim" fill="#404040">
                                <set attributeName="fill" to="#808080" begin="zoomplus.mouseover" end="zoomplus.mouseout"/>
                        </use>
                        <path d="M-4,0h8M0,-4v8" fill="none" stroke="white" stroke-width="1.5" pointer-events="none"/>
                </g>
                <g id="zoomMin">
                        <use xlink:href="#rim" fill="#404040">
                                <set attributeName="fill" to="#808080" begin="zoomminus.mouseover" end="zoomminus.mouseout"/>
                        </use>
                        <path d="M-4,0h8" fill="none" stroke="white" stroke-width="1.5" pointer-events="none"/>
                </g>
                <g id="dirArrow">
                        <path fill="none" stroke="white" stroke-width="1.5" d="M0,-3.0v7 M-2.5,-0.5L0,-3.0L2.5,-0.5"/>
                </g>
               <g id="resetDef">
                       <use xlink:href="#rim2" fill="#404040">
                               <set attributeName="fill" to="#808080" begin="reset.mouseover" end="reset.mouseout"/>
                       </use>
               </g>
        </defs>

<script type="text/javascript">
var viewWidth = 2583;
var viewHeight = 385;
var sectionId = 'dynsection-0';
</script>
<script xlink:href="../../svgpan.js"/>
<svg id="graph" class="graph">
<g id="viewport">
<title>/home/travis/build/AliceO2Group/AliceO2/Detectors/TOF/simulation/include/TOFSimulation/Strip.h</title>
<!-- Node0 -->
<g id="node1" class="node">
<title>Node0</title>
<polygon fill="#bfbfbf" stroke="#000000" points="831,-324.5 831,-376.5 995,-376.5 995,-324.5 831,-324.5"/>
<text text-anchor="start" x="839" y="-364.5" font-family="Helvetica,sans-Serif" font-size="10.00" fill="#000000">/home/travis/build</text>
<text text-anchor="start" x="839" y="-353.5" font-family="Helvetica,sans-Serif" font-size="10.00" fill="#000000">/AliceO2Group/AliceO2</text>
<text text-anchor="start" x="839" y="-342.5" font-family="Helvetica,sans-Serif" font-size="10.00" fill="#000000">/Detectors/TOF/simulation</text>
<text text-anchor="middle" x="913" y="-331.5" font-family="Helvetica,sans-Serif" font-size="10.00" fill="#000000">/include/TOFSimulation/Strip.h</text>
</g>
<!-- Node1 -->
<g id="node2" class="node">
<title>Node1</title>
<g id="a_node2"><a xlink:href="../../d1/d90/Detectors_2TOF_2base_2include_2TOFBase_2Digit_8h.html" target="_top" xlink:title="TOFBase/Digit.h">
<polygon fill="none" stroke="#000000" points="634.5,-207 634.5,-226 729.5,-226 729.5,-207 634.5,-207"/>
<text text-anchor="middle" x="682" y="-214" font-family="Helvetica,sans-Serif" font-size="10.00" fill="#000000">TOFBase/Digit.h</text>
</a>
</g>
</g>
<!-- Node0&#45;&gt;Node1 -->
<g id="edge1" class="edge">
<title>Node0&#45;&gt;Node1</title>
<path fill="none" stroke="#191970" d="M830.8875,-334.9357C779.4118,-323.5914 719.4342,-306.938 701,-288 687.7353,-274.3728 683.4587,-252.5912 682.2105,-236.6461"/>
<polygon fill="#191970" stroke="#191970" points="685.69,-236.1028 681.7516,-226.2672 678.6968,-236.4121 685.69,-236.1028"/>
</g>
<!-- Node7 -->
<g id="node8" class="node">
<title>Node7</title>
<polygon fill="none" stroke="#bfbfbf" points="710.5,-268.5 710.5,-287.5 773.5,-287.5 773.5,-268.5 710.5,-268.5"/>
<text text-anchor="middle" x="742" y="-275.5" font-family="Helvetica,sans-Serif" font-size="10.00" fill="#000000">TObject.h</text>
</g>
<!-- Node0&#45;&gt;Node7 -->
<g id="edge8" class="edge">
<title>Node0&#45;&gt;Node7</title>
<path fill="none" stroke="#191970" d="M851.2651,-324.3258C825.0497,-313.2111 795.5963,-300.7236 773.8807,-291.5167"/>
<polygon fill="#191970" stroke="#191970" points="775.06,-288.2151 764.4871,-287.534 772.3276,-294.6598 775.06,-288.2151"/>
</g>
<!-- Node8 -->
<g id="node9" class="node">
<title>Node8</title>
<polygon fill="none" stroke="#bfbfbf" points="791.5,-268.5 791.5,-287.5 856.5,-287.5 856.5,-268.5 791.5,-268.5"/>
<text text-anchor="middle" x="824" y="-275.5" font-family="Helvetica,sans-Serif" font-size="10.00" fill="#000000">exception</text>
</g>
<!-- Node0&#45;&gt;Node8 -->
<g id="edge9" class="edge">
<title>Node0&#45;&gt;Node8</title>
<path fill="none" stroke="#191970" d="M880.869,-324.3258C868.4539,-314.2124 854.6436,-302.9624 843.7414,-294.0815"/>
<polygon fill="#191970" stroke="#191970" points="845.6675,-291.1362 835.7038,-287.534 841.2464,-296.5634 845.6675,-291.1362"/>
</g>
<!-- Node9 -->
<g id="node10" class="node">
<title>Node9</title>
<polygon fill="none" stroke="#bfbfbf" points="2142,-73 2142,-92 2180,-92 2180,-73 2142,-73"/>
<text text-anchor="middle" x="2161" y="-80" font-family="Helvetica,sans-Serif" font-size="10.00" fill="#000000">map</text>
</g>
<!-- Node0&#45;&gt;Node9 -->
<g id="edge10" class="edge">
<title>Node0&#45;&gt;Node9</title>
<path fill="none" stroke="#191970" d="M995.2845,-344.9452C1268.6071,-325.6691 2133.5454,-257.7397 2214,-165 2232.4981,-143.6773 2204.7973,-115.3647 2182.9848,-98.063"/>
<polygon fill="#191970" stroke="#191970" points="2185.1007,-95.2749 2175.0219,-92.0086 2180.8639,-100.8472 2185.1007,-95.2749"/>
</g>
<!-- Node10 -->
<g id="node11" class="node">
<title>Node10</title>
<polygon fill="none" stroke="#bfbfbf" points="913,-268.5 913,-287.5 969,-287.5 969,-268.5 913,-268.5"/>
<text text-anchor="middle" x="941" y="-275.5" font-family="Helvetica,sans-Serif" font-size="10.00" fill="#000000">sstream</text>
</g>
<!-- Node0&#45;&gt;Node10 -->
<g id="edge11" class="edge">
<title>Node0&#45;&gt;Node10</title>
<path fill="none" stroke="#191970" d="M923.1086,-324.3258C926.5891,-315.3139 930.4181,-305.3995 933.6378,-297.063"/>
<polygon fill="#191970" stroke="#191970" points="936.9801,-298.1235 937.3179,-287.534 930.4502,-295.6015 936.9801,-298.1235"/>
</g>
<!-- Node11 -->
<g id="node12" class="node">
<title>Node11</title>
<polygon fill="none" stroke="#bfbfbf" points="973.5,-140 973.5,-159 1020.5,-159 1020.5,-140 973.5,-140"/>
<text text-anchor="middle" x="997" y="-147" font-family="Helvetica,sans-Serif" font-size="10.00" fill="#000000">vector</text>
</g>
<!-- Node0&#45;&gt;Node11 -->
<g id="edge12" class="edge">
<title>Node0&#45;&gt;Node11</title>
<path fill="none" stroke="#191970" d="M948.4256,-324.3978C959.6585,-314.2899 970.9717,-301.8133 978,-288 997.637,-249.4058 999.1311,-197.3337 998.2332,-169.3169"/>
<polygon fill="#191970" stroke="#191970" points="1001.7239,-169.0329 997.767,-159.2047 994.7313,-169.3553 1001.7239,-169.0329"/>
</g>
<!-- Node12 -->
<g id="node13" class="node">
<title>Node12</title>
<g id="a_node13"><a xlink:href="../../dd/d76/Cartesian3D_8h.html" target="_top" xlink:title="MathUtils/Cartesian3D.h">
<polygon fill="none" stroke="#000000" points="781.5,-140 781.5,-159 916.5,-159 916.5,-140 781.5,-140"/>
<text text-anchor="middle" x="849" y="-147" font-family="Helvetica,sans-Serif" font-size="10.00" fill="#000000">MathUtils/Cartesian3D.h</text>
</a>
</g>
</g>
<!-- Node0&#45;&gt;Node12 -->
<g id="edge13" class="edge">
<title>Node0&#45;&gt;Node12</title>
<path fill="none" stroke="#191970" d="M904.6331,-324.2228C891.6137,-283.3336 866.8017,-205.4085 855.2305,-169.0677"/>
<polygon fill="#191970" stroke="#191970" points="858.4613,-167.6783 852.0923,-159.2116 851.7913,-169.8022 858.4613,-167.6783"/>
</g>
<!-- Node22 -->
<g id="node23" class="node">
<title>Node22</title>
<g id="a_node23"><a xlink:href="../../d5/d3c/TOF_2simulation_2include_2TOFSimulation_2Detector_8h.html" target="_top" xlink:title="TOFSimulation/Detector.h">
<polygon fill="none" stroke="#000000" points="1025.5,-268.5 1025.5,-287.5 1166.5,-287.5 1166.5,-268.5 1025.5,-268.5"/>
<text text-anchor="middle" x="1096" y="-275.5" font-family="Helvetica,sans-Serif" font-size="10.00" fill="#000000">TOFSimulation/Detector.h</text>
</a>
</g>
</g>
<!-- Node0&#45;&gt;Node22 -->
<g id="edge25" class="edge">
<title>Node0&#45;&gt;Node22</title>
<path fill="none" stroke="#191970" d="M978.8087,-324.4283C1007.1414,-313.2035 1039.0505,-300.5619 1062.4102,-291.3074"/>
<polygon fill="#191970" stroke="#191970" points="1063.8549,-294.4998 1071.8627,-287.5626 1061.2766,-287.9919 1063.8549,-294.4998"/>
</g>
<!-- Node2 -->
<g id="node3" class="node">
<title>Node2</title>
<polygon fill="none" stroke="#bfbfbf" points="208.5,-73 208.5,-92 257.5,-92 257.5,-73 208.5,-73"/>
<text text-anchor="middle" x="233" y="-80" font-family="Helvetica,sans-Serif" font-size="10.00" fill="#000000">iosfwd</text>
</g>
<!-- Node1&#45;&gt;Node2 -->
<g id="edge2" class="edge">
<title>Node1&#45;&gt;Node2</title>
<path fill="none" stroke="#191970" d="M678.3781,-206.7918C671.1332,-188.8926 653.0164,-150.9728 624,-134 486.3482,-53.4824 420.9414,-139.6312 267,-98 264.8121,-97.4083 262.5882,-96.6894 260.3787,-95.8891"/>
<polygon fill="#191970" stroke="#191970" points="261.5214,-92.5745 250.9422,-92.0008 258.8546,-99.0466 261.5214,-92.5745"/>
</g>
<!-- Node3 -->
<g id="node4" class="node">
<title>Node3</title>
<polygon fill="none" stroke="#bfbfbf" points="1475.5,-73 1475.5,-92 1534.5,-92 1534.5,-73 1475.5,-73"/>
<text text-anchor="middle" x="1505" y="-80" font-family="Helvetica,sans-Serif" font-size="10.00" fill="#000000">Rtypes.h</text>
</g>
<!-- Node1&#45;&gt;Node3 -->
<g id="edge3" class="edge">
<title>Node1&#45;&gt;Node3</title>
<path fill="none" stroke="#191970" d="M729.7311,-212.908C780.2824,-207.6427 861.409,-194.9549 925,-165 945.031,-155.5643 943.3686,-142.0384 964,-134 1172.8361,-52.633 1248.7426,-148.9588 1467,-98 1469.797,-97.347 1472.6554,-96.5152 1475.4865,-95.5773"/>
<polygon fill="#191970" stroke="#191970" points="1476.7253,-98.8509 1484.878,-92.0845 1474.2851,-92.2899 1476.7253,-98.8509"/>
</g>
<!-- Node4 -->
<g id="node5" class="node">
<title>Node4</title>
<g id="a_node5"><a xlink:href="../../d4/d54/Geo_8h.html" target="_top" xlink:title="TOFBase/Geo.h">
<polygon fill="none" stroke="#000000" points="672.5,-140 672.5,-159 763.5,-159 763.5,-140 672.5,-140"/>
<text text-anchor="middle" x="718" y="-147" font-family="Helvetica,sans-Serif" font-size="10.00" fill="#000000">TOFBase/Geo.h</text>
</a>
</g>
</g>
<!-- Node1&#45;&gt;Node4 -->
<g id="edge4" class="edge">
<title>Node1&#45;&gt;Node4</title>
<path fill="none" stroke="#191970" d="M687.1579,-206.9005C692.5579,-196.8505 701.1755,-180.8122 707.9306,-168.2403"/>
<polygon fill="#191970" stroke="#191970" points="711.2016,-169.5472 712.8516,-159.0817 705.0353,-166.234 711.2016,-169.5472"/>
</g>
<!-- Node6 -->
<g id="node7" class="node">
<title>Node6</title>
<polygon fill="none" stroke="#bfbfbf" points="508.5,-134.5 508.5,-164.5 615.5,-164.5 615.5,-134.5 508.5,-134.5"/>
<text text-anchor="start" x="516.5" y="-152.5" font-family="Helvetica,sans-Serif" font-size="10.00" fill="#000000">boost/serialization</text>
<text text-anchor="middle" x="562" y="-141.5" font-family="Helvetica,sans-Serif" font-size="10.00" fill="#000000">/base_object.hpp</text>
</g>
<!-- Node1&#45;&gt;Node6 -->
<g id="edge7" class="edge">
<title>Node1&#45;&gt;Node6</title>
<path fill="none" stroke="#191970" d="M664.8069,-206.9005C647.3774,-197.1691 619.892,-181.823 597.7243,-169.4461"/>
<polygon fill="#191970" stroke="#191970" points="599.3422,-166.3408 588.9047,-164.5218 595.9297,-172.4527 599.3422,-166.3408"/>
</g>
<!-- Node4&#45;&gt;Node3 -->
<g id="edge5" class="edge">
<title>Node4&#45;&gt;Node3</title>
<path fill="none" stroke="#191970" d="M746.5866,-139.9829C754.713,-137.6374 763.6305,-135.3991 772,-134 1077.0697,-83.0019 1165.1198,-165.3551 1467,-98 1469.8685,-97.36 1472.7992,-96.5238 1475.6976,-95.5712"/>
<polygon fill="#191970" stroke="#191970" points="1477.1393,-98.7693 1485.29,-92.0005 1474.6972,-92.2091 1477.1393,-98.7693"/>
</g>
<!-- Node5 -->
<g id="node6" class="node">
<title>Node5</title>
<g id="a_node6"><a xlink:href="../../d4/dc6/LHCConstants_8h.html" target="_top" xlink:title="Header to collect LHC related constants. ">
<polygon fill="none" stroke="#000000" points="0,-73 0,-92 190,-92 190,-73 0,-73"/>
<text text-anchor="middle" x="95" y="-80" font-family="Helvetica,sans-Serif" font-size="10.00" fill="#000000">CommonConstants/LHCConstants.h</text>
</a>
</g>
</g>
<!-- Node4&#45;&gt;Node5 -->
<g id="edge6" class="edge">
<title>Node4&#45;&gt;Node5</title>
<path fill="none" stroke="#191970" d="M672.2067,-141.205C656.9142,-138.6338 639.7564,-135.9633 624,-134 435.8893,-110.5609 387.2864,-119.983 199,-98 187.7809,-96.6901 175.9096,-95.108 164.3568,-93.4617"/>
<polygon fill="#191970" stroke="#191970" points="164.7097,-89.9763 154.3106,-92.0036 163.7042,-96.9037 164.7097,-89.9763"/>
</g>
<!-- Node12&#45;&gt;Node2 -->
<g id="edge21" class="edge">
<title>Node12&#45;&gt;Node2</title>
<path fill="none" stroke="#191970" d="M806.8015,-139.9976C795.5423,-137.739 783.3503,-135.5406 772,-134 549.0304,-103.7364 485.0494,-153.5496 267,-98 264.8037,-97.4405 262.5736,-96.745 260.3598,-95.961"/>
<polygon fill="#191970" stroke="#191970" points="261.4958,-92.6444 250.9147,-92.1055 258.8502,-99.1253 261.4958,-92.6444"/>
</g>
<!-- Node12&#45;&gt;Node3 -->
<g id="edge19" class="edge">
<title>Node12&#45;&gt;Node3</title>
<path fill="none" stroke="#191970" d="M893.9592,-139.9979C905.9494,-137.7392 918.9278,-135.5407 931,-134 1167.8378,-103.7728 1234.3758,-151.7755 1467,-98 1469.7984,-97.3531 1472.6578,-96.5256 1475.4896,-95.5903"/>
<polygon fill="#191970" stroke="#191970" points="1476.7264,-98.8647 1484.882,-92.1018 1474.2891,-92.3027 1476.7264,-98.8647"/>
</g>
<!-- Node13 -->
<g id="node14" class="node">
<title>Node13</title>
<polygon fill="none" stroke="#bfbfbf" points="530,-67.5 530,-97.5 694,-97.5 694,-67.5 530,-67.5"/>
<text text-anchor="start" x="538" y="-85.5" font-family="Helvetica,sans-Serif" font-size="10.00" fill="#000000">Math/GenVector/Displacement</text>
<text text-anchor="middle" x="612" y="-74.5" font-family="Helvetica,sans-Serif" font-size="10.00" fill="#000000">Vector3D.h</text>
</g>
<!-- Node12&#45;&gt;Node13 -->
<g id="edge14" class="edge">
<title>Node12&#45;&gt;Node13</title>
<path fill="none" stroke="#191970" d="M815.2954,-139.9717C778.8631,-129.6723 719.9747,-113.0245 674.9325,-100.291"/>
<polygon fill="#191970" stroke="#191970" points="675.8305,-96.9078 665.2555,-97.5553 673.9262,-103.6438 675.8305,-96.9078"/>
</g>
<!-- Node14 -->
<g id="node15" class="node">
<title>Node14</title>
<polygon fill="none" stroke="#bfbfbf" points="712.5,-73 712.5,-92 901.5,-92 901.5,-73 712.5,-73"/>
<text text-anchor="middle" x="807" y="-80" font-family="Helvetica,sans-Serif" font-size="10.00" fill="#000000">Math/GenVector/PositionVector3D.h</text>
</g>
<!-- Node12&#45;&gt;Node14 -->
<g id="edge15" class="edge">
<title>Node12&#45;&gt;Node14</title>
<path fill="none" stroke="#191970" d="M842.9824,-139.9005C836.62,-129.751 826.4291,-113.4941 818.5142,-100.8679"/>
<polygon fill="#191970" stroke="#191970" points="821.2833,-98.6956 813.0064,-92.0817 815.3523,-102.4135 821.2833,-98.6956"/>
</g>
<!-- Node15 -->
<g id="node16" class="node">
<title>Node15</title>
<polygon fill="none" stroke="#bfbfbf" points="920,-73 920,-92 1080,-92 1080,-73 920,-73"/>
<text text-anchor="middle" x="1000" y="-80" font-family="Helvetica,sans-Serif" font-size="10.00" fill="#000000">Math/GenVector/Rotation3D.h</text>
</g>
<!-- Node12&#45;&gt;Node15 -->
<g id="edge16" class="edge">
<title>Node12&#45;&gt;Node15</title>
<path fill="none" stroke="#191970" d="M870.6346,-139.9005C896.4243,-128.4574 939.7106,-109.2509 969.0397,-96.2374"/>
<polygon fill="#191970" stroke="#191970" points="970.6844,-99.3367 978.4055,-92.0817 967.8454,-92.9383 970.6844,-99.3367"/>
</g>
<!-- Node16 -->
<g id="node17" class="node">
<title>Node16</title>
<polygon fill="none" stroke="#bfbfbf" points="1098,-73 1098,-92 1266,-92 1266,-73 1098,-73"/>
<text text-anchor="middle" x="1182" y="-80" font-family="Helvetica,sans-Serif" font-size="10.00" fill="#000000">Math/GenVector/Transform3D.h</text>
</g>
<!-- Node12&#45;&gt;Node16 -->
<g id="edge17" class="edge">
<title>Node12&#45;&gt;Node16</title>
<path fill="none" stroke="#191970" d="M896.3571,-139.9717C956.4383,-127.8833 1059.9844,-107.0497 1124.526,-94.0638"/>
<polygon fill="#191970" stroke="#191970" points="1125.4238,-97.4534 1134.5369,-92.0496 1124.043,-90.5909 1125.4238,-97.4534"/>
</g>
<!-- Node17 -->
<g id="node18" class="node">
<title>Node17</title>
<polygon fill="none" stroke="#bfbfbf" points="1284.5,-73 1284.5,-92 1457.5,-92 1457.5,-73 1284.5,-73"/>
<text text-anchor="middle" x="1371" y="-80" font-family="Helvetica,sans-Serif" font-size="10.00" fill="#000000">Math/GenVector/Translation3D.h</text>
</g>
<!-- Node12&#45;&gt;Node17 -->
<g id="edge18" class="edge">
<title>Node12&#45;&gt;Node17</title>
<path fill="none" stroke="#191970" d="M895.7202,-139.9786C907.2237,-137.8251 919.532,-135.681 931,-134 1083.0985,-111.705 1122.617,-118.2592 1275,-98 1284.8529,-96.6901 1295.2514,-95.1628 1305.4234,-93.5876"/>
<polygon fill="#191970" stroke="#191970" points="1306.1573,-97.0152 1315.4913,-92.0025 1305.0686,-90.1004 1306.1573,-97.0152"/>
</g>
<!-- Node18 -->
<g id="node19" class="node">
<title>Node18</title>
<polygon fill="none" stroke="#bfbfbf" points="276,-73 276,-92 358,-92 358,-73 276,-73"/>
<text text-anchor="middle" x="317" y="-80" font-family="Helvetica,sans-Serif" font-size="10.00" fill="#000000">TGeoMatrix.h</text>
</g>
<!-- Node12&#45;&gt;Node18 -->
<g id="edge20" class="edge">
<title>Node12&#45;&gt;Node18</title>
<path fill="none" stroke="#191970" d="M805.9769,-139.9706C794.9438,-137.7663 783.0665,-135.6007 772,-134 593.1516,-108.1302 544.2978,-132.95 367,-98 362.6184,-97.1363 358.0766,-96.033 353.5975,-94.814"/>
<polygon fill="#191970" stroke="#191970" points="354.5589,-91.4486 343.9789,-92.0085 352.5988,-98.1686 354.5589,-91.4486"/>
</g>
<!-- Node19 -->
<g id="node20" class="node">
<title>Node19</title>
<g id="a_node20"><a xlink:href="../../d2/dd0/Cartesian2D_8h.html" target="_top" xlink:title="MathUtils/Cartesian2D.h">
<polygon fill="none" stroke="#000000" points="376.5,-73 376.5,-92 511.5,-92 511.5,-73 376.5,-73"/>
<text text-anchor="middle" x="444" y="-80" font-family="Helvetica,sans-Serif" font-size="10.00" fill="#000000">MathUtils/Cartesian2D.h</text>
</a>
</g>
</g>
<!-- Node12&#45;&gt;Node19 -->
<g id="edge22" class="edge">
<title>Node12&#45;&gt;Node19</title>
<path fill="none" stroke="#191970" d="M803.8848,-139.9771C793.4365,-137.8944 782.3475,-135.7821 772,-134 660.9379,-114.8726 632.0621,-117.1274 521,-98 513.8861,-96.7748 506.4217,-95.3935 499.056,-93.9731"/>
<polygon fill="#191970" stroke="#191970" points="499.602,-90.5136 489.1152,-92.0229 498.2543,-97.3827 499.602,-90.5136"/>
</g>
<!-- Node20 -->
<g id="node21" class="node">
<title>Node20</title>
<polygon fill="none" stroke="#bfbfbf" points="265,-.5 265,-30.5 429,-30.5 429,-.5 265,-.5"/>
<text text-anchor="start" x="273" y="-18.5" font-family="Helvetica,sans-Serif" font-size="10.00" fill="#000000">Math/GenVector/Displacement</text>
<text text-anchor="middle" x="347" y="-7.5" font-family="Helvetica,sans-Serif" font-size="10.00" fill="#000000">Vector2D.h</text>
</g>
<!-- Node19&#45;&gt;Node20 -->
<g id="edge23" class="edge">
<title>Node19&#45;&gt;Node20</title>
<path fill="none" stroke="#191970" d="M430.1023,-72.9005C416.3265,-63.3853 394.7795,-48.5023 377.0779,-36.2755"/>
<polygon fill="#191970" stroke="#191970" points="378.9651,-33.3253 368.7479,-30.5218 374.9868,-39.0849 378.9651,-33.3253"/>
</g>
<!-- Node21 -->
<g id="node22" class="node">
<title>Node21</title>
<polygon fill="none" stroke="#bfbfbf" points="447.5,-6 447.5,-25 636.5,-25 636.5,-6 447.5,-6"/>
<text text-anchor="middle" x="542" y="-13" font-family="Helvetica,sans-Serif" font-size="10.00" fill="#000000">Math/GenVector/PositionVector2D.h</text>
</g>
<!-- Node19&#45;&gt;Node21 -->
<g id="edge24" class="edge">
<title>Node19&#45;&gt;Node21</title>
<path fill="none" stroke="#191970" d="M458.041,-72.9005C474.1238,-61.9052 500.6906,-43.7422 519.6316,-30.7927"/>
<polygon fill="#191970" stroke="#191970" points="521.7052,-33.6148 527.985,-25.0817 517.7545,-27.8362 521.7052,-33.6148"/>
</g>
<!-- Node22&#45;&gt;Node4 -->
<g id="edge55" class="edge">
<title>Node22&#45;&gt;Node4</title>
<path fill="none" stroke="#191970" d="M1067.8974,-268.4466C1000.8432,-245.6517 831.4374,-188.0627 755.6543,-162.3005"/>
<polygon fill="#191970" stroke="#191970" points="756.6252,-158.9339 746.0307,-159.029 754.3721,-165.5614 756.6252,-158.9339"/>
</g>
<!-- Node23 -->
<g id="node24" class="node">
<title>Node23</title>
<g id="a_node24"><a xlink:href="../../d1/d3a/Base_2include_2DetectorsBase_2Detector_8h.html" target="_top" xlink:title="DetectorsBase/Detector.h">
<polygon fill="none" stroke="#000000" points="1587.5,-207 1587.5,-226 1728.5,-226 1728.5,-207 1587.5,-207"/>
<text text-anchor="middle" x="1658" y="-214" font-family="Helvetica,sans-Serif" font-size="10.00" fill="#000000">DetectorsBase/Detector.h</text>
</a>
</g>
</g>
<!-- Node22&#45;&gt;Node23 -->
<g id="edge26" class="edge">
<title>Node22&#45;&gt;Node23</title>
<path fill="none" stroke="#191970" d="M1166.6086,-270.2733C1271.2418,-258.8232 1466.9394,-237.4079 1577.1697,-225.3453"/>
<polygon fill="#191970" stroke="#191970" points="1577.6783,-228.8106 1587.2382,-224.2435 1576.9167,-221.8522 1577.6783,-228.8106"/>
</g>
<!-- Node40 -->
<g id="node41" class="node">
<title>Node40</title>
<g id="a_node41"><a xlink:href="../../d0/d91/ShmAllocator_8h.html" target="_top" xlink:title="CommonUtils/ShmAllocator.h">
<polygon fill="none" stroke="#000000" points="2320,-140 2320,-159 2480,-159 2480,-140 2320,-140"/>
<text text-anchor="middle" x="2400" y="-147" font-family="Helvetica,sans-Serif" font-size="10.00" fill="#000000">CommonUtils/ShmAllocator.h</text>
</a>
</g>
</g>
<!-- Node22&#45;&gt;Node40 -->
<g id="edge58" class="edge">
<title>Node22&#45;&gt;Node40</title>
<path fill="none" stroke="#191970" d="M1166.8774,-274.1402C1285.3115,-267.4174 1530.8703,-252.3129 1738,-232 1950.1773,-211.1921 2199.4949,-177.6533 2322.8411,-160.4499"/>
<polygon fill="#191970" stroke="#191970" points="2323.5221,-163.8889 2332.9415,-159.0384 2322.5533,-156.9562 2323.5221,-163.8889"/>
</g>
<!-- Node44 -->
<g id="node45" class="node">
<title>Node44</title>
<g id="a_node45"><a xlink:href="../../d4/d25/BaseHits_8h.html" target="_top" xlink:title="SimulationDataFormat\l/BaseHits.h">
<polygon fill="none" stroke="#000000" points="1029.5,-201.5 1029.5,-231.5 1156.5,-231.5 1156.5,-201.5 1029.5,-201.5"/>
<text text-anchor="start" x="1037.5" y="-219.5" font-family="Helvetica,sans-Serif" font-size="10.00" fill="#000000">SimulationDataFormat</text>
<text text-anchor="middle" x="1093" y="-208.5" font-family="Helvetica,sans-Serif" font-size="10.00" fill="#000000">/BaseHits.h</text>
</a>
</g>
</g>
<!-- Node22&#45;&gt;Node44 -->
<g id="edge56" class="edge">
<title>Node22&#45;&gt;Node44</title>
<path fill="none" stroke="#191970" d="M1095.5313,-268.3906C1095.1816,-261.2234 1094.6871,-251.0862 1094.2279,-241.671"/>
<polygon fill="#191970" stroke="#191970" points="1097.717,-241.3622 1093.7339,-231.5446 1090.7254,-241.7033 1097.717,-241.3622"/>
</g>
<!-- Node23&#45;&gt;Node3 -->
<g id="edge38" class="edge">
<title>Node23&#45;&gt;Node3</title>
<path fill="none" stroke="#191970" d="M1587.2934,-215.5658C1438.213,-212.8611 1102.4754,-202.6157 1068,-165 1058.6909,-154.8429 1058.7057,-144.1707 1068,-134 1128.0565,-68.2809 1380.4961,-119.0441 1467,-98 1469.7908,-97.3211 1472.645,-96.4716 1475.4734,-95.5221"/>
<polygon fill="#191970" stroke="#191970" points="1476.7202,-98.7927 1484.8606,-92.0114 1474.2681,-92.2362 1476.7202,-98.7927"/>
</g>
<!-- Node23&#45;&gt;Node9 -->
<g id="edge27" class="edge">
<title>Node23&#45;&gt;Node9</title>
<path fill="none" stroke="#191970" d="M1728.7539,-212.25C1871.4273,-203.3386 2181.4494,-182.1072 2197,-165 2214.2281,-146.0474 2194.6402,-117.5466 2178.316,-99.4923"/>
<polygon fill="#191970" stroke="#191970" points="2180.6187,-96.8349 2171.1893,-92.004 2175.548,-101.6607 2180.6187,-96.8349"/>
</g>
<!-- Node23&#45;&gt;Node11 -->
<g id="edge28" class="edge">
<title>Node23&#45;&gt;Node11</title>
<path fill="none" stroke="#191970" d="M1587.3477,-213.3674C1447.096,-206.7043 1138.1737,-189.6897 1035,-165 1032.2066,-164.3315 1029.3507,-163.4893 1026.5212,-162.5445"/>
<polygon fill="#191970" stroke="#191970" points="1027.7249,-159.2579 1017.1323,-159.041 1025.2777,-165.8162 1027.7249,-159.2579"/>
</g>
<!-- Node24 -->
<g id="node25" class="node">
<title>Node24</title>
<polygon fill="none" stroke="#bfbfbf" points="1552.5,-73 1552.5,-92 1635.5,-92 1635.5,-73 1552.5,-73"/>
<text text-anchor="middle" x="1594" y="-80" font-family="Helvetica,sans-Serif" font-size="10.00" fill="#000000">initializer_list</text>
</g>
<!-- Node23&#45;&gt;Node24 -->
<g id="edge29" class="edge">
<title>Node23&#45;&gt;Node24</title>
<path fill="none" stroke="#191970" d="M1587.3441,-214.0016C1460.9304,-208.7995 1206.6994,-194.7305 1180,-165 1170.7942,-154.7491 1170.7495,-144.2105 1180,-134 1234.5745,-73.7618 1464.3302,-114.1161 1544,-98 1548.2089,-97.1486 1552.5674,-96.0835 1556.8769,-94.9125"/>
<polygon fill="#191970" stroke="#191970" points="1558.1267,-98.1941 1566.7502,-92.0389 1556.1705,-91.4729 1558.1267,-98.1941"/>
</g>
<!-- Node25 -->
<g id="node26" class="node">
<title>Node25</title>
<polygon fill="none" stroke="#bfbfbf" points="1189,-140 1189,-159 1247,-159 1247,-140 1189,-140"/>
<text text-anchor="middle" x="1218" y="-147" font-family="Helvetica,sans-Serif" font-size="10.00" fill="#000000">memory</text>
</g>
<!-- Node23&#45;&gt;Node25 -->
<g id="edge30" class="edge">
<title>Node23&#45;&gt;Node25</title>
<path fill="none" stroke="#191970" d="M1587.224,-212.9987C1506.0838,-207.7111 1369.6348,-194.9076 1256,-165 1253.3774,-164.3098 1250.6946,-163.4821 1248.0275,-162.5732"/>
<polygon fill="#191970" stroke="#191970" points="1249.165,-159.2618 1238.5728,-159.0258 1246.706,-165.8157 1249.165,-159.2618"/>
</g>
<!-- Node26 -->
<g id="node27" class="node">
<title>Node26</title>
<polygon fill="none" stroke="#bfbfbf" points="1265,-140 1265,-159 1349,-159 1349,-140 1265,-140"/>
<text text-anchor="middle" x="1307" y="-147" font-family="Helvetica,sans-Serif" font-size="10.00" fill="#000000">FairDetector.h</text>
</g>
<!-- Node23&#45;&gt;Node26 -->
<g id="edge31" class="edge">
<title>Node23&#45;&gt;Node26</title>
<path fill="none" stroke="#191970" d="M1587.7887,-206.9842C1526.6698,-198.0985 1435.9058,-183.4492 1358,-165 1354.1096,-164.0787 1350.0797,-163.0269 1346.0683,-161.9149"/>
<polygon fill="#191970" stroke="#191970" points="1346.8038,-158.4842 1336.225,-159.0668 1344.8581,-165.2084 1346.8038,-158.4842"/>
</g>
<!-- Node27 -->
<g id="node28" class="node">
<title>Node27</title>
<polygon fill="none" stroke="#bfbfbf" points="1367,-140 1367,-159 1473,-159 1473,-140 1367,-140"/>
<text text-anchor="middle" x="1420" y="-147" font-family="Helvetica,sans-Serif" font-size="10.00" fill="#000000">FairRootManager.h</text>
</g>
<!-- Node23&#45;&gt;Node27 -->
<g id="edge32" class="edge">
<title>Node23&#45;&gt;Node27</title>
<path fill="none" stroke="#191970" d="M1624.1532,-206.9717C1582.0673,-195.124 1510.141,-174.8758 1463.8656,-161.8487"/>
<polygon fill="#191970" stroke="#191970" points="1464.6897,-158.4447 1454.1154,-159.1039 1462.7928,-165.1828 1464.6897,-158.4447"/>
</g>
<!-- Node28 -->
<g id="node29" class="node">
<title>Node28</title>
<g id="a_node29"><a xlink:href="../../d0/d9a/MaterialManager_8h.html" target="_top" xlink:title="DetectorsBase/MaterialManager.h">
<polygon fill="none" stroke="#000000" points="1567.5,-140 1567.5,-159 1748.5,-159 1748.5,-140 1567.5,-140"/>
<text text-anchor="middle" x="1658" y="-147" font-family="Helvetica,sans-Serif" font-size="10.00" fill="#000000">DetectorsBase/MaterialManager.h</text>
</a>
</g>
</g>
<!-- Node23&#45;&gt;Node28 -->
<g id="edge33" class="edge">
<title>Node23&#45;&gt;Node28</title>
<path fill="none" stroke="#191970" d="M1658,-206.9005C1658,-197.149 1658,-181.7597 1658,-169.3695"/>
<polygon fill="#191970" stroke="#191970" points="1661.5001,-169.0816 1658,-159.0817 1654.5001,-169.0817 1661.5001,-169.0816"/>
</g>
<!-- Node30 -->
<g id="node31" class="node">
<title>Node30</title>
<polygon fill="none" stroke="#bfbfbf" points="1491,-140 1491,-159 1549,-159 1549,-140 1491,-140"/>
<text text-anchor="middle" x="1520" y="-147" font-family="Helvetica,sans-Serif" font-size="10.00" fill="#000000">cxxabi.h</text>
</g>
<!-- Node23&#45;&gt;Node30 -->
<g id="edge39" class="edge">
<title>Node23&#45;&gt;Node30</title>
<path fill="none" stroke="#191970" d="M1638.228,-206.9005C1614.8635,-195.5569 1575.7857,-176.5844 1548.997,-163.5783"/>
<polygon fill="#191970" stroke="#191970" points="1550.2598,-160.3007 1539.7354,-159.0817 1547.2025,-166.5978 1550.2598,-160.3007"/>
</g>
<!-- Node31 -->
<g id="node32" class="node">
<title>Node31</title>
<polygon fill="none" stroke="#bfbfbf" points="1805.5,-140 1805.5,-159 1862.5,-159 1862.5,-140 1805.5,-140"/>
<text text-anchor="middle" x="1834" y="-147" font-family="Helvetica,sans-Serif" font-size="10.00" fill="#000000">typeinfo</text>
</g>
<!-- Node23&#45;&gt;Node31 -->
<g id="edge40" class="edge">
<title>Node23&#45;&gt;Node31</title>
<path fill="none" stroke="#191970" d="M1683.2165,-206.9005C1713.6681,-195.3082 1765.0485,-175.7486 1799.243,-162.7313"/>
<polygon fill="#191970" stroke="#191970" points="1800.7298,-165.9105 1808.8303,-159.0817 1798.2393,-159.3685 1800.7298,-165.9105"/>
</g>
<!-- Node32 -->
<g id="node33" class="node">
<title>Node32</title>
<polygon fill="none" stroke="#bfbfbf" points="1880.5,-140 1880.5,-159 1949.5,-159 1949.5,-140 1880.5,-140"/>
<text text-anchor="middle" x="1915" y="-147" font-family="Helvetica,sans-Serif" font-size="10.00" fill="#000000">type_traits</text>
</g>
<!-- Node23&#45;&gt;Node32 -->
<g id="edge41" class="edge">
<title>Node23&#45;&gt;Node32</title>
<path fill="none" stroke="#191970" d="M1703.8912,-206.9858C1747.4905,-197.5876 1814.7113,-182.1622 1872,-165 1874.6178,-164.2158 1877.3095,-163.362 1880.0077,-162.4717"/>
<polygon fill="#191970" stroke="#191970" points="1881.3677,-165.7053 1889.6878,-159.1459 1879.0931,-159.0852 1881.3677,-165.7053"/>
</g>
<!-- Node33 -->
<g id="node34" class="node">
<title>Node33</title>
<polygon fill="none" stroke="#bfbfbf" points="1968,-140 1968,-159 2012,-159 2012,-140 1968,-140"/>
<text text-anchor="middle" x="1990" y="-147" font-family="Helvetica,sans-Serif" font-size="10.00" fill="#000000">string</text>
</g>
<!-- Node23&#45;&gt;Node33 -->
<g id="edge42" class="edge">
<title>Node23&#45;&gt;Node33</title>
<path fill="none" stroke="#191970" d="M1728.7514,-210.3275C1790.6638,-203.5376 1882.4191,-190.0853 1959,-165 1960.6118,-164.472 1962.2445,-163.8724 1963.874,-163.2233"/>
<polygon fill="#191970" stroke="#191970" points="1965.3173,-166.4119 1973.0028,-159.1192 1962.4469,-160.0275 1965.3173,-166.4119"/>
</g>
<!-- Node34 -->
<g id="node35" class="node">
<title>Node34</title>
<polygon fill="none" stroke="#bfbfbf" points="2030,-140 2030,-159 2104,-159 2104,-140 2030,-140"/>
<text text-anchor="middle" x="2067" y="-147" font-family="Helvetica,sans-Serif" font-size="10.00" fill="#000000">TMessage.h</text>
</g>
<!-- Node23&#45;&gt;Node34 -->
<g id="edge43" class="edge">
<title>Node23&#45;&gt;Node34</title>
<path fill="none" stroke="#191970" d="M1728.6441,-210.3638C1802.3223,-203.0618 1920.8244,-188.7695 2021,-165 2024.4669,-164.1774 2028.0434,-163.2037 2031.5987,-162.1512"/>
<polygon fill="#191970" stroke="#191970" points="2032.9734,-165.3875 2041.4539,-159.0368 2030.864,-158.7129 2032.9734,-165.3875"/>
</g>
<!-- Node35 -->
<g id="node36" class="node">
<title>Node35</title>
<g id="a_node36"><a xlink:href="../../de/d61/ShmManager_8h.html" target="_top" xlink:title="CommonUtils/ShmManager.h">
<polygon fill="none" stroke="#000000" points="2198,-73 2198,-92 2356,-92 2356,-73 2198,-73"/>
<text text-anchor="middle" x="2277" y="-80" font-family="Helvetica,sans-Serif" font-size="10.00" fill="#000000">CommonUtils/ShmManager.h</text>
</a>
</g>
</g>
<!-- Node23&#45;&gt;Node35 -->
<g id="edge44" class="edge">
<title>Node23&#45;&gt;Node35</title>
<path fill="none" stroke="#191970" d="M1679.3499,-206.9979C1700.0657,-197.4364 1732.0835,-181.7432 1758,-165 1776.5984,-152.9846 1776.4505,-142.2457 1797,-134 1959.3713,-68.8467 2015.5889,-121.1943 2189,-98 2198.0334,-96.7918 2207.5553,-95.3217 2216.8657,-93.7737"/>
<polygon fill="#191970" stroke="#191970" points="2217.5824,-97.2022 2226.8523,-92.0721 2216.4065,-90.3016 2217.5824,-97.2022"/>
</g>
<!-- Node23&#45;&gt;Node40 -->
<g id="edge49" class="edge">
<title>Node23&#45;&gt;Node40</title>
<path fill="none" stroke="#191970" d="M1728.5159,-211.2986C1842.1791,-202.7455 2072.9048,-184.6847 2268,-165 2282.3628,-163.5508 2297.5891,-161.8842 2312.399,-160.1931"/>
<polygon fill="#191970" stroke="#191970" points="2313.0363,-163.6429 2322.5697,-159.0207 2312.2347,-156.6889 2313.0363,-163.6429"/>
</g>
<!-- Node41 -->
<g id="node42" class="node">
<title>Node41</title>
<polygon fill="none" stroke="#bfbfbf" points="2374,-73 2374,-92 2426,-92 2426,-73 2374,-73"/>
<text text-anchor="middle" x="2400" y="-80" font-family="Helvetica,sans-Serif" font-size="10.00" fill="#000000">cassert</text>
</g>
<!-- Node23&#45;&gt;Node41 -->
<g id="edge54" class="edge">
<title>Node23&#45;&gt;Node41</title>
<path fill="none" stroke="#191970" d="M1728.7425,-212.8113C1857.2672,-205.6352 2124.12,-188.4217 2214,-165 2273.9929,-149.3665 2339.1452,-116.3951 2374.1877,-97.205"/>
<polygon fill="#191970" stroke="#191970" points="2376.1953,-100.0939 2383.2437,-92.1838 2372.8009,-93.972 2376.1953,-100.0939"/>
</g>
<!-- Node42 -->
<g id="node43" class="node">
<title>Node42</title>
<polygon fill="none" stroke="#bfbfbf" points="2122,-140 2122,-159 2188,-159 2188,-140 2122,-140"/>
<text text-anchor="middle" x="2155" y="-147" font-family="Helvetica,sans-Serif" font-size="10.00" fill="#000000">sys/shm.h</text>
</g>
<!-- Node23&#45;&gt;Node42 -->
<g id="edge52" class="edge">
<title>Node23&#45;&gt;Node42</title>
<path fill="none" stroke="#191970" d="M1728.6658,-213.7688C1818.9074,-209.0855 1979.3831,-196.7262 2113,-165 2116.1761,-164.2459 2119.4405,-163.322 2122.6788,-162.3043"/>
<polygon fill="#191970" stroke="#191970" points="2123.8725,-165.5952 2132.2008,-159.0461 2121.6062,-158.9722 2123.8725,-165.5952"/>
</g>
<!-- Node43 -->
<g id="node44" class="node">
<title>Node43</title>
<polygon fill="none" stroke="#bfbfbf" points="1077,-140 1077,-159 1133,-159 1133,-140 1077,-140"/>
<text text-anchor="middle" x="1105" y="-147" font-family="Helvetica,sans-Serif" font-size="10.00" fill="#000000">unistd.h</text>
</g>
<!-- Node23&#45;&gt;Node43 -->
<g id="edge53" class="edge">
<title>Node23&#45;&gt;Node43</title>
<path fill="none" stroke="#191970" d="M1587.2416,-215.0039C1487.7584,-211.6331 1301.4246,-200.668 1147,-165 1143.8193,-164.2654 1140.5518,-163.3546 1137.3116,-162.3452"/>
<polygon fill="#191970" stroke="#191970" points="1138.3813,-159.0121 1127.7868,-159.0989 1136.1231,-165.6379 1138.3813,-159.0121"/>
</g>
<!-- Node28&#45;&gt;Node3 -->
<g id="edge34" class="edge">
<title>Node28&#45;&gt;Node3</title>
<path fill="none" stroke="#191970" d="M1636.0788,-139.9005C1609.9475,-128.4574 1566.0879,-109.2509 1536.3704,-96.2374"/>
<polygon fill="#191970" stroke="#191970" points="1537.4447,-92.887 1526.8805,-92.0817 1534.6367,-99.2991 1537.4447,-92.887"/>
</g>
<!-- Node28&#45;&gt;Node9 -->
<g id="edge35" class="edge">
<title>Node28&#45;&gt;Node9</title>
<path fill="none" stroke="#191970" d="M1721.2713,-139.9731C1735.0215,-137.955 1749.4932,-135.8707 1763,-134 1900.9415,-114.8956 2066.0978,-94.2296 2131.8869,-86.0861"/>
<polygon fill="#191970" stroke="#191970" points="2132.4335,-89.5453 2141.9286,-84.8449 2131.5748,-82.5982 2132.4335,-89.5453"/>
</g>
<!-- Node28&#45;&gt;Node24 -->
<g id="edge37" class="edge">
<title>Node28&#45;&gt;Node24</title>
<path fill="none" stroke="#191970" d="M1648.8304,-139.9005C1638.7551,-129.353 1622.3793,-112.2096 1610.1431,-99.3998"/>
<polygon fill="#191970" stroke="#191970" points="1612.5909,-96.8952 1603.1526,-92.0817 1607.5291,-101.7304 1612.5909,-96.8952"/>
</g>
<!-- Node29 -->
<g id="node30" class="node">
<title>Node29</title>
<polygon fill="none" stroke="#bfbfbf" points="1653.5,-73 1653.5,-92 1746.5,-92 1746.5,-73 1653.5,-73"/>
<text text-anchor="middle" x="1700" y="-80" font-family="Helvetica,sans-Serif" font-size="10.00" fill="#000000">unordered_map</text>
</g>
<!-- Node28&#45;&gt;Node29 -->
<g id="edge36" class="edge">
<title>Node28&#45;&gt;Node29</title>
<path fill="none" stroke="#191970" d="M1664.0176,-139.9005C1670.38,-129.751 1680.5709,-113.4941 1688.4858,-100.8679"/>
<polygon fill="#191970" stroke="#191970" points="1691.6477,-102.4135 1693.9936,-92.0817 1685.7167,-98.6956 1691.6477,-102.4135"/>
</g>
<!-- Node36 -->
<g id="node37" class="node">
<title>Node36</title>
<polygon fill="none" stroke="#bfbfbf" points="2136,-6 2136,-25 2168,-25 2168,-6 2136,-6"/>
<text text-anchor="middle" x="2152" y="-13" font-family="Helvetica,sans-Serif" font-size="10.00" fill="#000000">list</text>
</g>
<!-- Node35&#45;&gt;Node36 -->
<g id="edge45" class="edge">
<title>Node35&#45;&gt;Node36</title>
<path fill="none" stroke="#191970" d="M2257.8467,-72.9507C2237.776,-62.8477 2205.4128,-46.2844 2178,-31 2177.5869,-30.7697 2177.1707,-30.5364 2176.7522,-30.3006"/>
<polygon fill="#191970" stroke="#191970" points="2178.2732,-27.137 2167.8653,-25.1558 2174.766,-33.1951 2178.2732,-27.137"/>
</g>
<!-- Node37 -->
<g id="node38" class="node">
<title>Node37</title>
<polygon fill="none" stroke="#bfbfbf" points="2186.5,-6 2186.5,-25 2239.5,-25 2239.5,-6 2186.5,-6"/>
<text text-anchor="middle" x="2213" y="-13" font-family="Helvetica,sans-Serif" font-size="10.00" fill="#000000">cstddef</text>
</g>
<!-- Node35&#45;&gt;Node37 -->
<g id="edge46" class="edge">
<title>Node35&#45;&gt;Node37</title>
<path fill="none" stroke="#191970" d="M2267.8304,-72.9005C2257.7551,-62.353 2241.3793,-45.2096 2229.1431,-32.3998"/>
<polygon fill="#191970" stroke="#191970" points="2231.5909,-29.8952 2222.1526,-25.0817 2226.5291,-34.7304 2231.5909,-29.8952"/>
</g>
<!-- Node38 -->
<g id="node39" class="node">
<title>Node38</title>
<polygon fill="none" stroke="#bfbfbf" points="2257.5,-.5 2257.5,-30.5 2422.5,-30.5 2422.5,-.5 2257.5,-.5"/>
<text text-anchor="start" x="2265.5" y="-18.5" font-family="Helvetica,sans-Serif" font-size="10.00" fill="#000000">boost/interprocess</text>
<text text-anchor="middle" x="2340" y="-7.5" font-family="Helvetica,sans-Serif" font-size="10.00" fill="#000000">/managed_external_buffer.hpp</text>
</g>
<!-- Node35&#45;&gt;Node38 -->
<g id="edge47" class="edge">
<title>Node35&#45;&gt;Node38</title>
<path fill="none" stroke="#191970" d="M2286.0264,-72.9005C2294.5668,-63.8178 2307.7062,-49.8442 2318.8823,-37.9585"/>
<polygon fill="#191970" stroke="#191970" points="2321.5746,-40.2046 2325.8751,-30.5218 2316.4749,-35.4094 2321.5746,-40.2046"/>
</g>
<!-- Node39 -->
<g id="node40" class="node">
<title>Node39</title>
<polygon fill="none" stroke="#bfbfbf" points="2441,-.5 2441,-30.5 2575,-30.5 2575,-.5 2441,-.5"/>
<text text-anchor="start" x="2449" y="-18.5" font-family="Helvetica,sans-Serif" font-size="10.00" fill="#000000">boost/interprocess</text>
<text text-anchor="middle" x="2508" y="-7.5" font-family="Helvetica,sans-Serif" font-size="10.00" fill="#000000">/allocators/allocator.hpp</text>
</g>
<!-- Node35&#45;&gt;Node39 -->
<g id="edge48" class="edge">
<title>Node35&#45;&gt;Node39</title>
<path fill="none" stroke="#191970" d="M2310.0967,-72.9005C2345.587,-62.6068 2402.7365,-46.031 2446.5192,-33.3321"/>
<polygon fill="#191970" stroke="#191970" points="2447.5794,-36.6689 2456.2085,-30.5218 2445.6294,-29.946 2447.5794,-36.6689"/>
</g>
<!-- Node40&#45;&gt;Node35 -->
<g id="edge50" class="edge">
<title>Node40&#45;&gt;Node35</title>
<path fill="none" stroke="#191970" d="M2382.3771,-139.9005C2361.7349,-128.6564 2327.332,-109.9166 2303.476,-96.9219"/>
<polygon fill="#191970" stroke="#191970" points="2305.0462,-93.7916 2294.5902,-92.0817 2301.6977,-99.9388 2305.0462,-93.7916"/>
</g>
<!-- Node40&#45;&gt;Node41 -->
<g id="edge51" class="edge">
<title>Node40&#45;&gt;Node41</title>
<path fill="none" stroke="#191970" d="M2400,-139.9005C2400,-130.149 2400,-114.7597 2400,-102.3695"/>
<polygon fill="#191970" stroke="#191970" points="2403.5001,-102.0816 2400,-92.0817 2396.5001,-102.0817 2403.5001,-102.0816"/>
</g>
<!-- Node44&#45;&gt;Node12 -->
<g id="edge57" class="edge">
<title>Node44&#45;&gt;Node12</title>
<path fill="none" stroke="#191970" d="M1038.2416,-201.4639C994.4977,-189.4522 933.9811,-172.835 893.2637,-161.6544"/>
<polygon fill="#191970" stroke="#191970" points="894.1861,-158.2782 883.6163,-159.0053 892.3325,-165.0283 894.1861,-158.2782"/>
</g>
</g>
</svg>
        <g id="navigator" transform="translate(0 0)" fill="#404254">
                <rect fill="#f2f5e9" fill-opacity="0.5" stroke="#606060" stroke-width=".5" x="0" y="0" width="60" height="60"/>
                <use id="zoomplus" xlink:href="#zoomPlus" x="17" y="9" onmousedown="handleZoom(evt,'in')"/>
                <use id="zoomminus" xlink:href="#zoomMin" x="42" y="9" onmousedown="handleZoom(evt,'out')"/>
                <use id="reset" xlink:href="#resetDef" x="30" y="36" onmousedown="handleReset()"/>
                <g id="arrowUp" xlink:href="#dirArrow" transform="translate(30 24)" onmousedown="handlePan(0,-1)">
                  <use xlink:href="#rim" fill="#404040">
                        <set attributeName="fill" to="#808080" begin="arrowUp.mouseover" end="arrowUp.mouseout"/>
                  </use>
                  <path fill="none" stroke="white" stroke-width="1.5" d="M0,-3.0v7 M-2.5,-0.5L0,-3.0L2.5,-0.5"/>
                </g>
                <g id="arrowRight" xlink:href="#dirArrow" transform="rotate(90) translate(36 -43)" onmousedown="handlePan(1,0)">
                  <use xlink:href="#rim" fill="#404040">
                        <set attributeName="fill" to="#808080" begin="arrowRight.mouseover" end="arrowRight.mouseout"/>
                  </use>
                  <path fill="none" stroke="white" stroke-width="1.5" d="M0,-3.0v7 M-2.5,-0.5L0,-3.0L2.5,-0.5"/>
                </g>
                <g id="arrowDown" xlink:href="#dirArrow" transform="rotate(180) translate(-30 -48)" onmousedown="handlePan(0,1)">
                  <use xlink:href="#rim" fill="#404040">
                        <set attributeName="fill" to="#808080" begin="arrowDown.mouseover" end="arrowDown.mouseout"/>
                  </use>
                  <path fill="none" stroke="white" stroke-width="1.5" d="M0,-3.0v7 M-2.5,-0.5L0,-3.0L2.5,-0.5"/>
                </g>
                <g id="arrowLeft" xlink:href="#dirArrow" transform="rotate(270) translate(-36 17)" onmousedown="handlePan(-1,0)">
                  <use xlink:href="#rim" fill="#404040">
                        <set attributeName="fill" to="#808080" begin="arrowLeft.mouseover" end="arrowLeft.mouseout"/>
                  </use>
                  <path fill="none" stroke="white" stroke-width="1.5" d="M0,-3.0v7 M-2.5,-0.5L0,-3.0L2.5,-0.5"/>
                </g>
        </g>
        <svg viewBox="0 0 15 15" width="100%" height="30px" preserveAspectRatio="xMaxYMin meet">
         <g id="arrow_out" transform="scale(0.3 0.3)">
          <a xlink:href="Strip_8h__incl_org.svg" target="_base">
           <rect id="button" ry="5" rx="5" y="6" x="6" height="38" width="38"
                fill="#f2f5e9" fill-opacity="0.5" stroke="#606060" stroke-width="1.0"/>
           <path id="arrow"
             d="M 11.500037,31.436501 C 11.940474,20.09759 22.043105,11.32322 32.158766,21.979434 L 37.068811,17.246167 C 37.068811,17.246167 37.088388,32 37.088388,32 L 22.160133,31.978069 C 22.160133,31.978069 26.997745,27.140456 26.997745,27.140456 C 18.528582,18.264221 13.291696,25.230495 11.500037,31.436501 z"
             style="fill:#404040;"/>
          </a>
         </g>
        </svg>
</svg>
