<?xml version="1.0" encoding="UTF-8" standalone="no"?>
<!DOCTYPE svg PUBLIC "-//W3C//DTD SVG 1.1//EN"
 "http://www.w3.org/Graphics/SVG/1.1/DTD/svg11.dtd">
<!-- Generated by graphviz version 2.40.1 (20161225.0304)
 -->
<!-- Title: /home/travis/build/AliceO2Group/AliceO2/DataFormats/simulation/include/SimulationDataFormat/RunContext.h Pages: 1 -->
<svg width="2822pt" height="250pt"
 viewBox="0.00 0.00 2822.00 250.00" xmlns="http://www.w3.org/2000/svg" xmlns:xlink="http://www.w3.org/1999/xlink">
<g id="graph0" class="graph" transform="scale(1 1) rotate(0) translate(4 246)">
<title>/home/travis/build/AliceO2Group/AliceO2/DataFormats/simulation/include/SimulationDataFormat/RunContext.h</title>
<!-- Node13 -->
<g id="node1" class="node">
<title>Node13</title>
<polygon fill="#bfbfbf" stroke="#000000" points="1227.5,-178.5 1227.5,-241.5 1395.5,-241.5 1395.5,-178.5 1227.5,-178.5"/>
<text text-anchor="start" x="1235.5" y="-229.5" font-family="Helvetica,sans-Serif" font-size="10.00" fill="#000000">/home/travis/build</text>
<text text-anchor="start" x="1235.5" y="-218.5" font-family="Helvetica,sans-Serif" font-size="10.00" fill="#000000">/AliceO2Group/AliceO2</text>
<text text-anchor="start" x="1235.5" y="-207.5" font-family="Helvetica,sans-Serif" font-size="10.00" fill="#000000">/DataFormats/simulation</text>
<text text-anchor="start" x="1235.5" y="-196.5" font-family="Helvetica,sans-Serif" font-size="10.00" fill="#000000">/include/SimulationDataFormat</text>
<text text-anchor="middle" x="1311.5" y="-185.5" font-family="Helvetica,sans-Serif" font-size="10.00" fill="#000000">/RunContext.h</text>
</g>
<!-- Node14 -->
<g id="node2" class="node">
<title>Node14</title>
<g id="a_node2"><a xlink:href="../../da/dea/RunContext_8cxx.html" target="_top" xlink:title="/home/travis/build\l/AliceO2Group/AliceO2\l/DataFormats/simulation\l/src/RunContext.cxx">
<polygon fill="none" stroke="#000000" points="1154,-89.5 1154,-141.5 1291,-141.5 1291,-89.5 1154,-89.5"/>
<text text-anchor="start" x="1162" y="-129.5" font-family="Helvetica,sans-Serif" font-size="10.00" fill="#000000">/home/travis/build</text>
<text text-anchor="start" x="1162" y="-118.5" font-family="Helvetica,sans-Serif" font-size="10.00" fill="#000000">/AliceO2Group/AliceO2</text>
<text text-anchor="start" x="1162" y="-107.5" font-family="Helvetica,sans-Serif" font-size="10.00" fill="#000000">/DataFormats/simulation</text>
<text text-anchor="middle" x="1222.5" y="-96.5" font-family="Helvetica,sans-Serif" font-size="10.00" fill="#000000">/src/RunContext.cxx</text>
</a>
</g>
</g>
<!-- Node13&#45;&gt;Node14 -->
<g id="edge1" class="edge">
<title>Node13&#45;&gt;Node14</title>
<path fill="none" stroke="#191970" d="M1274.6406,-170.8628C1265.3653,-161.0143 1255.6334,-150.681 1247.1225,-141.6442"/>
<polygon fill="#191970" stroke="#191970" points="1272.2127,-173.3898 1281.6167,-178.27 1277.3085,-168.5906 1272.2127,-173.3898"/>
</g>
<!-- Node15 -->
<g id="node3" class="node">
<title>Node15</title>
<g id="a_node3"><a xlink:href="../../dd/d40/HitProcessingManager_8h.html" target="_top" xlink:title="/home/travis/build\l/AliceO2Group/AliceO2\l/Steer/include/Steer/HitProcessing\lManager.h">
<polygon fill="none" stroke="#000000" points="1309.5,-89.5 1309.5,-141.5 1491.5,-141.5 1491.5,-89.5 1309.5,-89.5"/>
<text text-anchor="start" x="1317.5" y="-129.5" font-family="Helvetica,sans-Serif" font-size="10.00" fill="#000000">/home/travis/build</text>
<text text-anchor="start" x="1317.5" y="-118.5" font-family="Helvetica,sans-Serif" font-size="10.00" fill="#000000">/AliceO2Group/AliceO2</text>
<text text-anchor="start" x="1317.5" y="-107.5" font-family="Helvetica,sans-Serif" font-size="10.00" fill="#000000">/Steer/include/Steer/HitProcessing</text>
<text text-anchor="middle" x="1400.5" y="-96.5" font-family="Helvetica,sans-Serif" font-size="10.00" fill="#000000">Manager.h</text>
</a>
</g>
</g>
<!-- Node13&#45;&gt;Node15 -->
<g id="edge2" class="edge">
<title>Node13&#45;&gt;Node15</title>
<path fill="none" stroke="#191970" d="M1348.3594,-170.8628C1357.6347,-161.0143 1367.3666,-150.681 1375.8775,-141.6442"/>
<polygon fill="#191970" stroke="#191970" points="1345.6915,-168.5906 1341.3833,-178.27 1350.7873,-173.3898 1345.6915,-168.5906"/>
</g>
<!-- Node16 -->
<g id="node4" class="node">
<title>Node16</title>
<g id="a_node4"><a xlink:href="../../d3/d87/CollisionTimePrinter_8cxx.html" target="_top" xlink:title="/home/travis/build\l/AliceO2Group/AliceO2\l/Steer/DigitizerWorkflow\l/src/CollisionTimePrinter.cxx">
<polygon fill="none" stroke="#000000" points="0,-.5 0,-52.5 155,-52.5 155,-.5 0,-.5"/>
<text text-anchor="start" x="8" y="-40.5" font-family="Helvetica,sans-Serif" font-size="10.00" fill="#000000">/home/travis/build</text>
<text text-anchor="start" x="8" y="-29.5" font-family="Helvetica,sans-Serif" font-size="10.00" fill="#000000">/AliceO2Group/AliceO2</text>
<text text-anchor="start" x="8" y="-18.5" font-family="Helvetica,sans-Serif" font-size="10.00" fill="#000000">/Steer/DigitizerWorkflow</text>
<text text-anchor="middle" x="77.5" y="-7.5" font-family="Helvetica,sans-Serif" font-size="10.00" fill="#000000">/src/CollisionTimePrinter.cxx</text>
</a>
</g>
</g>
<!-- Node15&#45;&gt;Node16 -->
<g id="edge3" class="edge">
<title>Node15&#45;&gt;Node16</title>
<path fill="none" stroke="#191970" d="M1299.2697,-89.1488C797.7629,-18.0116 658.4729,-135.5692 163.5,-53 160.7261,-52.5373 157.9172,-52.0086 155.0918,-51.4256"/>
<polygon fill="#191970" stroke="#191970" points="1298.9049,-92.6322 1309.3011,-90.5899 1299.9004,-85.7034 1298.9049,-92.6322"/>
</g>
<!-- Node17 -->
<g id="node5" class="node">
<title>Node17</title>
<g id="a_node5"><a xlink:href="../../d5/d9b/EMCALDigitizerSpec_8cxx.html" target="_top" xlink:title="/home/travis/build\l/AliceO2Group/AliceO2\l/Steer/DigitizerWorkflow\l/src/EMCALDigitizerSpec.cxx">
<polygon fill="none" stroke="#000000" points="173,-.5 173,-52.5 328,-52.5 328,-.5 173,-.5"/>
<text text-anchor="start" x="181" y="-40.5" font-family="Helvetica,sans-Serif" font-size="10.00" fill="#000000">/home/travis/build</text>
<text text-anchor="start" x="181" y="-29.5" font-family="Helvetica,sans-Serif" font-size="10.00" fill="#000000">/AliceO2Group/AliceO2</text>
<text text-anchor="start" x="181" y="-18.5" font-family="Helvetica,sans-Serif" font-size="10.00" fill="#000000">/Steer/DigitizerWorkflow</text>
<text text-anchor="middle" x="250.5" y="-7.5" font-family="Helvetica,sans-Serif" font-size="10.00" fill="#000000">/src/EMCALDigitizerSpec.cxx</text>
</a>
</g>
</g>
<!-- Node15&#45;&gt;Node17 -->
<g id="edge4" class="edge">
<title>Node15&#45;&gt;Node17</title>
<path fill="none" stroke="#191970" d="M1299.2058,-89.1368C874.4155,-27.8468 756.139,-123.3707 337.5,-53 334.3858,-52.4765 331.2272,-51.8731 328.0502,-51.2054"/>
<polygon fill="#191970" stroke="#191970" points="1298.8961,-92.6287 1309.2975,-90.6139 1299.9099,-85.7025 1298.8961,-92.6287"/>
</g>
<!-- Node18 -->
<g id="node6" class="node">
<title>Node18</title>
<g id="a_node6"><a xlink:href="../../d2/d97/FDDDigitizerSpec_8cxx.html" target="_top" xlink:title="/home/travis/build\l/AliceO2Group/AliceO2\l/Steer/DigitizerWorkflow\l/src/FDDDigitizerSpec.cxx">
<polygon fill="none" stroke="#000000" points="346.5,-.5 346.5,-52.5 488.5,-52.5 488.5,-.5 346.5,-.5"/>
<text text-anchor="start" x="354.5" y="-40.5" font-family="Helvetica,sans-Serif" font-size="10.00" fill="#000000">/home/travis/build</text>
<text text-anchor="start" x="354.5" y="-29.5" font-family="Helvetica,sans-Serif" font-size="10.00" fill="#000000">/AliceO2Group/AliceO2</text>
<text text-anchor="start" x="354.5" y="-18.5" font-family="Helvetica,sans-Serif" font-size="10.00" fill="#000000">/Steer/DigitizerWorkflow</text>
<text text-anchor="middle" x="417.5" y="-7.5" font-family="Helvetica,sans-Serif" font-size="10.00" fill="#000000">/src/FDDDigitizerSpec.cxx</text>
</a>
</g>
</g>
<!-- Node15&#45;&gt;Node18 -->
<g id="edge5" class="edge">
<title>Node15&#45;&gt;Node18</title>
<path fill="none" stroke="#191970" d="M1299.2701,-89.1434C944.8952,-36.9383 845.1313,-117.1084 497.5,-53 494.6223,-52.4693 491.706,-51.8598 488.7746,-51.187"/>
<polygon fill="#191970" stroke="#191970" points="1298.8846,-92.6247 1309.2929,-90.6451 1299.9219,-85.7019 1298.8846,-92.6247"/>
</g>
<!-- Node19 -->
<g id="node7" class="node">
<title>Node19</title>
<g id="a_node7"><a xlink:href="../../d4/dfd/FT0DigitizerSpec_8cxx.html" target="_top" xlink:title="/home/travis/build\l/AliceO2Group/AliceO2\l/Steer/DigitizerWorkflow\l/src/FT0DigitizerSpec.cxx">
<polygon fill="none" stroke="#000000" points="507,-.5 507,-52.5 646,-52.5 646,-.5 507,-.5"/>
<text text-anchor="start" x="515" y="-40.5" font-family="Helvetica,sans-Serif" font-size="10.00" fill="#000000">/home/travis/build</text>
<text text-anchor="start" x="515" y="-29.5" font-family="Helvetica,sans-Serif" font-size="10.00" fill="#000000">/AliceO2Group/AliceO2</text>
<text text-anchor="start" x="515" y="-18.5" font-family="Helvetica,sans-Serif" font-size="10.00" fill="#000000">/Steer/DigitizerWorkflow</text>
<text text-anchor="middle" x="576.5" y="-7.5" font-family="Helvetica,sans-Serif" font-size="10.00" fill="#000000">/src/FT0DigitizerSpec.cxx</text>
</a>
</g>
</g>
<!-- Node15&#45;&gt;Node19 -->
<g id="edge6" class="edge">
<title>Node15&#45;&gt;Node19</title>
<path fill="none" stroke="#191970" d="M1299.0736,-89.1081C1014.4354,-45.852 933.7249,-106.4347 655.5,-53 652.3745,-52.3997 649.2028,-51.7069 646.0159,-50.9419"/>
<polygon fill="#191970" stroke="#191970" points="1298.8676,-92.6179 1309.2858,-90.691 1299.9399,-85.7005 1298.8676,-92.6179"/>
</g>
<!-- Node20 -->
<g id="node8" class="node">
<title>Node20</title>
<g id="a_node8"><a xlink:href="../../d0/d1c/FV0DigitizerSpec_8cxx.html" target="_top" xlink:title="/home/travis/build\l/AliceO2Group/AliceO2\l/Steer/DigitizerWorkflow\l/src/FV0DigitizerSpec.cxx">
<polygon fill="none" stroke="#000000" points="664.5,-.5 664.5,-52.5 804.5,-52.5 804.5,-.5 664.5,-.5"/>
<text text-anchor="start" x="672.5" y="-40.5" font-family="Helvetica,sans-Serif" font-size="10.00" fill="#000000">/home/travis/build</text>
<text text-anchor="start" x="672.5" y="-29.5" font-family="Helvetica,sans-Serif" font-size="10.00" fill="#000000">/AliceO2Group/AliceO2</text>
<text text-anchor="start" x="672.5" y="-18.5" font-family="Helvetica,sans-Serif" font-size="10.00" fill="#000000">/Steer/DigitizerWorkflow</text>
<text text-anchor="middle" x="734.5" y="-7.5" font-family="Helvetica,sans-Serif" font-size="10.00" fill="#000000">/src/FV0DigitizerSpec.cxx</text>
</a>
</g>
</g>
<!-- Node15&#45;&gt;Node20 -->
<g id="edge7" class="edge">
<title>Node15&#45;&gt;Node20</title>
<path fill="none" stroke="#191970" d="M1299.2394,-89.1226C1084.007,-54.6318 1022.6122,-95.1266 813.5,-53 810.6637,-52.4286 807.7884,-51.7848 804.8975,-51.0833"/>
<polygon fill="#191970" stroke="#191970" points="1298.8392,-92.6036 1309.2735,-90.7666 1299.971,-85.6957 1298.8392,-92.6036"/>
</g>
<!-- Node21 -->
<g id="node9" class="node">
<title>Node21</title>
<g id="a_node9"><a xlink:href="../../d8/d00/HMPIDDigitizerSpec_8cxx.html" target="_top" xlink:title="/home/travis/build\l/AliceO2Group/AliceO2\l/Steer/DigitizerWorkflow\l/src/HMPIDDigitizerSpec.cxx">
<polygon fill="none" stroke="#000000" points="822.5,-.5 822.5,-52.5 976.5,-52.5 976.5,-.5 822.5,-.5"/>
<text text-anchor="start" x="830.5" y="-40.5" font-family="Helvetica,sans-Serif" font-size="10.00" fill="#000000">/home/travis/build</text>
<text text-anchor="start" x="830.5" y="-29.5" font-family="Helvetica,sans-Serif" font-size="10.00" fill="#000000">/AliceO2Group/AliceO2</text>
<text text-anchor="start" x="830.5" y="-18.5" font-family="Helvetica,sans-Serif" font-size="10.00" fill="#000000">/Steer/DigitizerWorkflow</text>
<text text-anchor="middle" x="899.5" y="-7.5" font-family="Helvetica,sans-Serif" font-size="10.00" fill="#000000">/src/HMPIDDigitizerSpec.cxx</text>
</a>
</g>
</g>
<!-- Node15&#45;&gt;Node21 -->
<g id="edge8" class="edge">
<title>Node15&#45;&gt;Node21</title>
<path fill="none" stroke="#191970" d="M1299.0287,-89.0531C1159.58,-63.96 1119.7623,-81.1302 985.5,-53 982.5947,-52.3913 979.6468,-51.7269 976.6789,-51.0186"/>
<polygon fill="#191970" stroke="#191970" points="1298.7753,-92.5652 1309.2438,-90.9341 1300.043,-85.681 1298.7753,-92.5652"/>
</g>
<!-- Node22 -->
<g id="node10" class="node">
<title>Node22</title>
<g id="a_node10"><a xlink:href="../../d3/d43/ITSMFTDigitizerSpec_8cxx.html" target="_top" xlink:title="/home/travis/build\l/AliceO2Group/AliceO2\l/Steer/DigitizerWorkflow\l/src/ITSMFTDigitizerSpec.cxx">
<polygon fill="none" stroke="#000000" points="994.5,-.5 994.5,-52.5 1150.5,-52.5 1150.5,-.5 994.5,-.5"/>
<text text-anchor="start" x="1002.5" y="-40.5" font-family="Helvetica,sans-Serif" font-size="10.00" fill="#000000">/home/travis/build</text>
<text text-anchor="start" x="1002.5" y="-29.5" font-family="Helvetica,sans-Serif" font-size="10.00" fill="#000000">/AliceO2Group/AliceO2</text>
<text text-anchor="start" x="1002.5" y="-18.5" font-family="Helvetica,sans-Serif" font-size="10.00" fill="#000000">/Steer/DigitizerWorkflow</text>
<text text-anchor="middle" x="1072.5" y="-7.5" font-family="Helvetica,sans-Serif" font-size="10.00" fill="#000000">/src/ITSMFTDigitizerSpec.cxx</text>
</a>
</g>
</g>
<!-- Node15&#45;&gt;Node22 -->
<g id="edge9" class="edge">
<title>Node15&#45;&gt;Node22</title>
<path fill="none" stroke="#191970" d="M1299.8045,-89.0791C1299.7029,-89.0527 1299.6014,-89.0263 1299.5,-89 1237.3172,-72.8475 1221.3554,-70.3643 1159.5,-53 1156.6117,-52.1892 1153.6729,-51.3527 1150.707,-50.499"/>
<polygon fill="#191970" stroke="#191970" points="1298.8284,-92.4416 1309.3875,-91.5723 1300.591,-85.6671 1298.8284,-92.4416"/>
</g>
<!-- Node23 -->
<g id="node11" class="node">
<title>Node23</title>
<g id="a_node11"><a xlink:href="../../db/d2f/MCHDigitizerSpec_8cxx.html" target="_top" xlink:title="/home/travis/build\l/AliceO2Group/AliceO2\l/Steer/DigitizerWorkflow\l/src/MCHDigitizerSpec.cxx">
<polygon fill="none" stroke="#000000" points="1168.5,-.5 1168.5,-52.5 1312.5,-52.5 1312.5,-.5 1168.5,-.5"/>
<text text-anchor="start" x="1176.5" y="-40.5" font-family="Helvetica,sans-Serif" font-size="10.00" fill="#000000">/home/travis/build</text>
<text text-anchor="start" x="1176.5" y="-29.5" font-family="Helvetica,sans-Serif" font-size="10.00" fill="#000000">/AliceO2Group/AliceO2</text>
<text text-anchor="start" x="1176.5" y="-18.5" font-family="Helvetica,sans-Serif" font-size="10.00" fill="#000000">/Steer/DigitizerWorkflow</text>
<text text-anchor="middle" x="1240.5" y="-7.5" font-family="Helvetica,sans-Serif" font-size="10.00" fill="#000000">/src/MCHDigitizerSpec.cxx</text>
</a>
</g>
</g>
<!-- Node15&#45;&gt;Node23 -->
<g id="edge10" class="edge">
<title>Node15&#45;&gt;Node23</title>
<path fill="none" stroke="#191970" d="M1344.378,-84.2821C1325.7282,-73.9082 1305.1725,-62.4741 1287.303,-52.5341"/>
<polygon fill="#191970" stroke="#191970" points="1342.9197,-87.476 1353.3601,-89.2784 1346.3225,-81.3587 1342.9197,-87.476"/>
</g>
<!-- Node24 -->
<g id="node12" class="node">
<title>Node24</title>
<g id="a_node12"><a xlink:href="../../d4/dd3/MIDDigitizerSpec_8cxx.html" target="_top" xlink:title="/home/travis/build\l/AliceO2Group/AliceO2\l/Steer/DigitizerWorkflow\l/src/MIDDigitizerSpec.cxx">
<polygon fill="none" stroke="#000000" points="1330.5,-.5 1330.5,-52.5 1470.5,-52.5 1470.5,-.5 1330.5,-.5"/>
<text text-anchor="start" x="1338.5" y="-40.5" font-family="Helvetica,sans-Serif" font-size="10.00" fill="#000000">/home/travis/build</text>
<text text-anchor="start" x="1338.5" y="-29.5" font-family="Helvetica,sans-Serif" font-size="10.00" fill="#000000">/AliceO2Group/AliceO2</text>
<text text-anchor="start" x="1338.5" y="-18.5" font-family="Helvetica,sans-Serif" font-size="10.00" fill="#000000">/Steer/DigitizerWorkflow</text>
<text text-anchor="middle" x="1400.5" y="-7.5" font-family="Helvetica,sans-Serif" font-size="10.00" fill="#000000">/src/MIDDigitizerSpec.cxx</text>
</a>
</g>
</g>
<!-- Node15&#45;&gt;Node24 -->
<g id="edge11" class="edge">
<title>Node15&#45;&gt;Node24</title>
<path fill="none" stroke="#191970" d="M1400.5,-79.1155C1400.5,-70.2061 1400.5,-60.8475 1400.5,-52.5341"/>
<polygon fill="#191970" stroke="#191970" points="1397.0001,-79.2784 1400.5,-89.2784 1404.0001,-79.2785 1397.0001,-79.2784"/>
</g>
<!-- Node25 -->
<g id="node13" class="node">
<title>Node25</title>
<g id="a_node13"><a xlink:href="../../db/d77/PHOSDigitizerSpec_8cxx.html" target="_top" xlink:title="/home/travis/build\l/AliceO2Group/AliceO2\l/Steer/DigitizerWorkflow\l/src/PHOSDigitizerSpec.cxx">
<polygon fill="none" stroke="#000000" points="1489,-.5 1489,-52.5 1638,-52.5 1638,-.5 1489,-.5"/>
<text text-anchor="start" x="1497" y="-40.5" font-family="Helvetica,sans-Serif" font-size="10.00" fill="#000000">/home/travis/build</text>
<text text-anchor="start" x="1497" y="-29.5" font-family="Helvetica,sans-Serif" font-size="10.00" fill="#000000">/AliceO2Group/AliceO2</text>
<text text-anchor="start" x="1497" y="-18.5" font-family="Helvetica,sans-Serif" font-size="10.00" fill="#000000">/Steer/DigitizerWorkflow</text>
<text text-anchor="middle" x="1563.5" y="-7.5" font-family="Helvetica,sans-Serif" font-size="10.00" fill="#000000">/src/PHOSDigitizerSpec.cxx</text>
</a>
</g>
</g>
<!-- Node15&#45;&gt;Node25 -->
<g id="edge12" class="edge">
<title>Node15&#45;&gt;Node25</title>
<path fill="none" stroke="#191970" d="M1457.4153,-84.4235C1476.4833,-74.0122 1497.5322,-62.5192 1515.8195,-52.5341"/>
<polygon fill="#191970" stroke="#191970" points="1455.6234,-81.4142 1448.5238,-89.2784 1458.978,-87.558 1455.6234,-81.4142"/>
</g>
<!-- Node26 -->
<g id="node14" class="node">
<title>Node26</title>
<g id="a_node14"><a xlink:href="../../d3/d13/SimReaderSpec_8cxx.html" target="_top" xlink:title="/home/travis/build\l/AliceO2Group/AliceO2\l/Steer/DigitizerWorkflow\l/src/SimReaderSpec.cxx">
<polygon fill="none" stroke="#000000" points="1656.5,-.5 1656.5,-52.5 1790.5,-52.5 1790.5,-.5 1656.5,-.5"/>
<text text-anchor="start" x="1664.5" y="-40.5" font-family="Helvetica,sans-Serif" font-size="10.00" fill="#000000">/home/travis/build</text>
<text text-anchor="start" x="1664.5" y="-29.5" font-family="Helvetica,sans-Serif" font-size="10.00" fill="#000000">/AliceO2Group/AliceO2</text>
<text text-anchor="start" x="1664.5" y="-18.5" font-family="Helvetica,sans-Serif" font-size="10.00" fill="#000000">/Steer/DigitizerWorkflow</text>
<text text-anchor="middle" x="1723.5" y="-7.5" font-family="Helvetica,sans-Serif" font-size="10.00" fill="#000000">/src/SimReaderSpec.cxx</text>
</a>
</g>
</g>
<!-- Node15&#45;&gt;Node26 -->
<g id="edge13" class="edge">
<title>Node15&#45;&gt;Node26</title>
<path fill="none" stroke="#191970" d="M1501.4012,-92.0887C1546.3714,-81.1109 1599.8409,-67.3087 1647.5,-53 1650.4443,-52.116 1653.4439,-51.1883 1656.4675,-50.2308"/>
<polygon fill="#191970" stroke="#191970" points="1500.5362,-88.6969 1491.645,-94.4586 1502.1887,-95.4991 1500.5362,-88.6969"/>
</g>
<!-- Node27 -->
<g id="node15" class="node">
<title>Node27</title>
<g id="a_node15"><a xlink:href="../../d6/d61/TOFDigitizerSpec_8cxx.html" target="_top" xlink:title="/home/travis/build\l/AliceO2Group/AliceO2\l/Steer/DigitizerWorkflow\l/src/TOFDigitizerSpec.cxx">
<polygon fill="none" stroke="#000000" points="1808.5,-.5 1808.5,-52.5 1948.5,-52.5 1948.5,-.5 1808.5,-.5"/>
<text text-anchor="start" x="1816.5" y="-40.5" font-family="Helvetica,sans-Serif" font-size="10.00" fill="#000000">/home/travis/build</text>
<text text-anchor="start" x="1816.5" y="-29.5" font-family="Helvetica,sans-Serif" font-size="10.00" fill="#000000">/AliceO2Group/AliceO2</text>
<text text-anchor="start" x="1816.5" y="-18.5" font-family="Helvetica,sans-Serif" font-size="10.00" fill="#000000">/Steer/DigitizerWorkflow</text>
<text text-anchor="middle" x="1878.5" y="-7.5" font-family="Helvetica,sans-Serif" font-size="10.00" fill="#000000">/src/TOFDigitizerSpec.cxx</text>
</a>
</g>
</g>
<!-- Node15&#45;&gt;Node27 -->
<g id="edge14" class="edge">
<title>Node15&#45;&gt;Node27</title>
<path fill="none" stroke="#191970" d="M1501.9069,-104.3988C1583.1112,-94.3661 1699.5601,-77.4055 1799.5,-53 1802.4512,-52.2793 1805.4498,-51.4985 1808.4682,-50.6724"/>
<polygon fill="#191970" stroke="#191970" points="1501.1866,-100.9607 1491.6851,-105.6481 1502.0359,-107.909 1501.1866,-100.9607"/>
</g>
<!-- Node28 -->
<g id="node16" class="node">
<title>Node28</title>
<g id="a_node16"><a xlink:href="../../d2/d0b/TPCDigitizerSpec_8cxx.html" target="_top" xlink:title="/home/travis/build\l/AliceO2Group/AliceO2\l/Steer/DigitizerWorkflow\l/src/TPCDigitizerSpec.cxx">
<polygon fill="none" stroke="#000000" points="1966.5,-.5 1966.5,-52.5 2106.5,-52.5 2106.5,-.5 1966.5,-.5"/>
<text text-anchor="start" x="1974.5" y="-40.5" font-family="Helvetica,sans-Serif" font-size="10.00" fill="#000000">/home/travis/build</text>
<text text-anchor="start" x="1974.5" y="-29.5" font-family="Helvetica,sans-Serif" font-size="10.00" fill="#000000">/AliceO2Group/AliceO2</text>
<text text-anchor="start" x="1974.5" y="-18.5" font-family="Helvetica,sans-Serif" font-size="10.00" fill="#000000">/Steer/DigitizerWorkflow</text>
<text text-anchor="middle" x="2036.5" y="-7.5" font-family="Helvetica,sans-Serif" font-size="10.00" fill="#000000">/src/TPCDigitizerSpec.cxx</text>
</a>
</g>
</g>
<!-- Node15&#45;&gt;Node28 -->
<g id="edge15" class="edge">
<title>Node15&#45;&gt;Node28</title>
<path fill="none" stroke="#191970" d="M1501.9842,-110.5798C1614.4413,-103.6357 1800.6397,-87.6975 1957.5,-53 1960.325,-52.3751 1963.1907,-51.6861 1966.0737,-50.9469"/>
<polygon fill="#191970" stroke="#191970" points="1501.4409,-107.1062 1491.6707,-111.2041 1501.864,-114.0934 1501.4409,-107.1062"/>
</g>
<!-- Node29 -->
<g id="node17" class="node">
<title>Node29</title>
<g id="a_node17"><a xlink:href="../../d6/df2/TRDDigitizerSpec_8cxx.html" target="_top" xlink:title="/home/travis/build\l/AliceO2Group/AliceO2\l/Steer/DigitizerWorkflow\l/src/TRDDigitizerSpec.cxx">
<polygon fill="none" stroke="#000000" points="2124.5,-.5 2124.5,-52.5 2266.5,-52.5 2266.5,-.5 2124.5,-.5"/>
<text text-anchor="start" x="2132.5" y="-40.5" font-family="Helvetica,sans-Serif" font-size="10.00" fill="#000000">/home/travis/build</text>
<text text-anchor="start" x="2132.5" y="-29.5" font-family="Helvetica,sans-Serif" font-size="10.00" fill="#000000">/AliceO2Group/AliceO2</text>
<text text-anchor="start" x="2132.5" y="-18.5" font-family="Helvetica,sans-Serif" font-size="10.00" fill="#000000">/Steer/DigitizerWorkflow</text>
<text text-anchor="middle" x="2195.5" y="-7.5" font-family="Helvetica,sans-Serif" font-size="10.00" fill="#000000">/src/TRDDigitizerSpec.cxx</text>
</a>
</g>
</g>
<!-- Node15&#45;&gt;Node29 -->
<g id="edge16" class="edge">
<title>Node15&#45;&gt;Node29</title>
<path fill="none" stroke="#191970" d="M1501.6599,-109.5695C1670.1329,-99.2039 2000.9924,-76.6333 2115.5,-53 2118.3658,-52.4085 2121.2721,-51.7477 2124.1951,-51.032"/>
<polygon fill="#191970" stroke="#191970" points="1501.3087,-106.0844 1491.5414,-110.1894 1501.7368,-113.0713 1501.3087,-106.0844"/>
</g>
<!-- Node30 -->
<g id="node18" class="node">
<title>Node30</title>
<g id="a_node18"><a xlink:href="../../d1/d1a/ZDCDigitizerSpec_8cxx.html" target="_top" xlink:title="/home/travis/build\l/AliceO2Group/AliceO2\l/Steer/DigitizerWorkflow\l/src/ZDCDigitizerSpec.cxx">
<polygon fill="none" stroke="#000000" points="2285,-.5 2285,-52.5 2428,-52.5 2428,-.5 2285,-.5"/>
<text text-anchor="start" x="2293" y="-40.5" font-family="Helvetica,sans-Serif" font-size="10.00" fill="#000000">/home/travis/build</text>
<text text-anchor="start" x="2293" y="-29.5" font-family="Helvetica,sans-Serif" font-size="10.00" fill="#000000">/AliceO2Group/AliceO2</text>
<text text-anchor="start" x="2293" y="-18.5" font-family="Helvetica,sans-Serif" font-size="10.00" fill="#000000">/Steer/DigitizerWorkflow</text>
<text text-anchor="middle" x="2356.5" y="-7.5" font-family="Helvetica,sans-Serif" font-size="10.00" fill="#000000">/src/ZDCDigitizerSpec.cxx</text>
</a>
</g>
</g>
<!-- Node15&#45;&gt;Node30 -->
<g id="edge17" class="edge">
<title>Node15&#45;&gt;Node30</title>
<path fill="none" stroke="#191970" d="M1501.84,-111.3808C1699.5251,-102.8312 2129.9839,-81.5513 2275.5,-53 2278.549,-52.4018 2281.6429,-51.7233 2284.7537,-50.9819"/>
<polygon fill="#191970" stroke="#191970" points="1501.5827,-107.8885 1491.7424,-111.8151 1501.8836,-114.882 1501.5827,-107.8885"/>
</g>
<!-- Node31 -->
<g id="node19" class="node">
<title>Node31</title>
<g id="a_node19"><a xlink:href="../../d6/d0b/HitProcessingManager_8cxx.html" target="_top" xlink:title="/home/travis/build\l/AliceO2Group/AliceO2\l/Steer/src/HitProcessingManager.cxx">
<polygon fill="none" stroke="#000000" points="2446.5,-6 2446.5,-47 2640.5,-47 2640.5,-6 2446.5,-6"/>
<text text-anchor="start" x="2454.5" y="-35" font-family="Helvetica,sans-Serif" font-size="10.00" fill="#000000">/home/travis/build</text>
<text text-anchor="start" x="2454.5" y="-24" font-family="Helvetica,sans-Serif" font-size="10.00" fill="#000000">/AliceO2Group/AliceO2</text>
<text text-anchor="middle" x="2543.5" y="-13" font-family="Helvetica,sans-Serif" font-size="10.00" fill="#000000">/Steer/src/HitProcessingManager.cxx</text>
</a>
</g>
</g>
<!-- Node15&#45;&gt;Node31 -->
<g id="edge18" class="edge">
<title>Node15&#45;&gt;Node31</title>
<path fill="none" stroke="#191970" d="M1501.8961,-111.7782C1726.3059,-103.1522 2259.1893,-80.4212 2437.5,-53 2447.6243,-51.443 2458.1939,-49.3638 2468.5704,-47.0519"/>
<polygon fill="#191970" stroke="#191970" points="1501.6288,-108.2858 1491.7701,-112.1659 1501.8967,-115.2807 1501.6288,-108.2858"/>
</g>
<!-- Node32 -->
<g id="node20" class="node">
<title>Node32</title>
<g id="a_node20"><a xlink:href="../../d7/d6d/testHitProcessingManager_8cxx.html" target="_top" xlink:title="/home/travis/build\l/AliceO2Group/AliceO2\l/Steer/test/testHitProcessing\lManager.cxx">
<polygon fill="none" stroke="#000000" points="2659,-.5 2659,-52.5 2814,-52.5 2814,-.5 2659,-.5"/>
<text text-anchor="start" x="2667" y="-40.5" font-family="Helvetica,sans-Serif" font-size="10.00" fill="#000000">/home/travis/build</text>
<text text-anchor="start" x="2667" y="-29.5" font-family="Helvetica,sans-Serif" font-size="10.00" fill="#000000">/AliceO2Group/AliceO2</text>
<text text-anchor="start" x="2667" y="-18.5" font-family="Helvetica,sans-Serif" font-size="10.00" fill="#000000">/Steer/test/testHitProcessing</text>
<text text-anchor="middle" x="2736.5" y="-7.5" font-family="Helvetica,sans-Serif" font-size="10.00" fill="#000000">Manager.cxx</text>
</a>
</g>
</g>
<!-- Node15&#45;&gt;Node32 -->
<g id="edge19" class="edge">
<title>Node15&#45;&gt;Node32</title>
<path fill="none" stroke="#191970" d="M1501.9247,-113.6328C1758.7415,-108.3902 2429.8685,-91.3423 2649.5,-53 2652.6108,-52.4569 2655.7666,-51.837 2658.9413,-51.1554"/>
<polygon fill="#191970" stroke="#191970" points="1501.7827,-110.1349 1491.8556,-113.8367 1501.9245,-117.1335 1501.7827,-110.1349"/>
</g>
</g>
</svg>
