<?xml version="1.0" encoding="UTF-8" standalone="no"?>
<!DOCTYPE svg PUBLIC "-//W3C//DTD SVG 1.1//EN"
 "http://www.w3.org/Graphics/SVG/1.1/DTD/svg11.dtd">
<!-- Generated by graphviz version 2.40.1 (20161225.0304)
 -->
<!-- Title: /home/travis/build/AliceO2Group/AliceO2/Framework/Core/test/benchmark_ASoA.cxx Pages: 1 -->
<!--zoomable 341 -->
<svg id="main" version="1.1" xmlns="http://www.w3.org/2000/svg" xmlns:xlink="http://www.w3.org/1999/xlink" xml:space="preserve" onload="init(evt)">
<style type="text/css"><![CDATA[
.edge:hover path { stroke: red; }
.edge:hover polygon { stroke: red; fill: red; }
]]></style>
<script type="text/javascript"><![CDATA[
var edges = document.getElementsByTagName('g');
if (edges && edges.length) {
  for (var i=0;i<edges.length;i++) {
    if (edges[i].id.substr(0,4)=='edge') {
      edges[i].setAttribute('class','edge');
    }
  }
}
]]></script>
        <defs>
                <circle id="rim" cx="0" cy="0" r="7"/>
                <circle id="rim2" cx="0" cy="0" r="3.5"/>
                <g id="zoomPlus">
                        <use xlink:href="#rim" fill="#404040">
                                <set attributeName="fill" to="#808080" begin="zoomplus.mouseover" end="zoomplus.mouseout"/>
                        </use>
                        <path d="M-4,0h8M0,-4v8" fill="none" stroke="white" stroke-width="1.5" pointer-events="none"/>
                </g>
                <g id="zoomMin">
                        <use xlink:href="#rim" fill="#404040">
                                <set attributeName="fill" to="#808080" begin="zoomminus.mouseover" end="zoomminus.mouseout"/>
                        </use>
                        <path d="M-4,0h8" fill="none" stroke="white" stroke-width="1.5" pointer-events="none"/>
                </g>
                <g id="dirArrow">
                        <path fill="none" stroke="white" stroke-width="1.5" d="M0,-3.0v7 M-2.5,-0.5L0,-3.0L2.5,-0.5"/>
                </g>
               <g id="resetDef">
                       <use xlink:href="#rim2" fill="#404040">
                               <set attributeName="fill" to="#808080" begin="reset.mouseover" end="reset.mouseout"/>
                       </use>
               </g>
        </defs>

<script type="text/javascript">
var viewWidth = 1400;
var viewHeight = 341;
var sectionId = 'dynsection-0';
</script>
<script xlink:href="../../svgpan.js"/>
<svg id="graph" class="graph">
<g id="viewport">
<title>/home/travis/build/AliceO2Group/AliceO2/Framework/Core/test/benchmark_ASoA.cxx</title>
<!-- Node0 -->
<g id="node1" class="node">
<title>Node0</title>
<polygon fill="#bfbfbf" stroke="#000000" points="735.8363,-280.5 735.8363,-332.5 914.8363,-332.5 914.8363,-280.5 735.8363,-280.5"/>
<text text-anchor="start" x="743.8363" y="-320.5" font-family="Helvetica,sans-Serif" font-size="10.00" fill="#000000">/home/travis/build</text>
<text text-anchor="start" x="743.8363" y="-309.5" font-family="Helvetica,sans-Serif" font-size="10.00" fill="#000000">/AliceO2Group/AliceO2</text>
<text text-anchor="start" x="743.8363" y="-298.5" font-family="Helvetica,sans-Serif" font-size="10.00" fill="#000000">/Framework/Core/test/benchmark</text>
<text text-anchor="middle" x="825.3363" y="-287.5" font-family="Helvetica,sans-Serif" font-size="10.00" fill="#000000">_ASoA.cxx</text>
</g>
<!-- Node1 -->
<g id="node2" class="node">
<title>Node1</title>
<g id="a_node2"><a xlink:href="../../de/d33/ASoA_8h.html" target="_top" xlink:title="Framework/ASoA.h">
<polygon fill="none" stroke="#000000" points="771.3363,-168.5 771.3363,-187.5 879.3363,-187.5 879.3363,-168.5 771.3363,-168.5"/>
<text text-anchor="middle" x="825.3363" y="-175.5" font-family="Helvetica,sans-Serif" font-size="10.00" fill="#000000">Framework/ASoA.h</text>
</a>
</g>
</g>
<!-- Node0&#45;&gt;Node1 -->
<g id="edge1" class="edge">
<title>Node0&#45;&gt;Node1</title>
<path fill="none" stroke="#191970" d="M804.4964,-280.3929C797.2592,-269.7444 790.0339,-256.9103 786.3363,-244 783.8889,-235.4547 783.2749,-232.345 786.3363,-224 790.3931,-212.9418 798.416,-202.7193 806.1357,-194.7335"/>
<polygon fill="#191970" stroke="#191970" points="808.8235,-197.0041 813.5963,-187.5451 803.9666,-191.9632 808.8235,-197.0041"/>
</g>
<!-- Node19 -->
<g id="node20" class="node">
<title>Node19</title>
<g id="a_node20"><a xlink:href="../../d5/d98/TableBuilder_8h.html" target="_top" xlink:title="Framework/TableBuilder.h">
<polygon fill="none" stroke="#000000" points="367.3363,-224.5 367.3363,-243.5 509.3363,-243.5 509.3363,-224.5 367.3363,-224.5"/>
<text text-anchor="middle" x="438.3363" y="-231.5" font-family="Helvetica,sans-Serif" font-size="10.00" fill="#000000">Framework/TableBuilder.h</text>
</a>
</g>
</g>
<!-- Node0&#45;&gt;Node19 -->
<g id="edge23" class="edge">
<title>Node0&#45;&gt;Node19</title>
<path fill="none" stroke="#191970" d="M735.578,-289.6848C662.8793,-276.0655 562.443,-257.25 498.9432,-245.354"/>
<polygon fill="#191970" stroke="#191970" points="499.5524,-241.9073 489.0789,-243.506 498.2634,-248.7876 499.5524,-241.9073"/>
</g>
<!-- Node24 -->
<g id="node25" class="node">
<title>Node24</title>
<polygon fill="none" stroke="#bfbfbf" points="705.8363,-168.5 705.8363,-187.5 752.8363,-187.5 752.8363,-168.5 705.8363,-168.5"/>
<text text-anchor="middle" x="729.3363" y="-175.5" font-family="Helvetica,sans-Serif" font-size="10.00" fill="#000000">vector</text>
</g>
<!-- Node0&#45;&gt;Node24 -->
<g id="edge41" class="edge">
<title>Node0&#45;&gt;Node24</title>
<path fill="none" stroke="#191970" d="M805.9093,-280.4961C787.0331,-255.2295 758.8878,-217.5559 742.4954,-195.614"/>
<polygon fill="#191970" stroke="#191970" points="745.2332,-193.4306 736.4442,-187.5142 739.6253,-197.6202 745.2332,-193.4306"/>
</g>
<!-- Node26 -->
<g id="node27" class="node">
<title>Node26</title>
<g id="a_node27"><a xlink:href="../../d2/d8c/AnalysisDataModel_8h.html" target="_top" xlink:title="Framework/AnalysisDataModel.h">
<polygon fill="none" stroke="#000000" points="795.3363,-224.5 795.3363,-243.5 971.3363,-243.5 971.3363,-224.5 795.3363,-224.5"/>
<text text-anchor="middle" x="883.3363" y="-231.5" font-family="Helvetica,sans-Serif" font-size="10.00" fill="#000000">Framework/AnalysisDataModel.h</text>
</a>
</g>
</g>
<!-- Node0&#45;&gt;Node26 -->
<g id="edge36" class="edge">
<title>Node0&#45;&gt;Node26</title>
<path fill="none" stroke="#191970" d="M846.2757,-280.3258C853.9658,-270.7131 862.4775,-260.0735 869.4024,-251.4174"/>
<polygon fill="#191970" stroke="#191970" points="872.1952,-253.5292 875.7091,-243.534 866.7291,-249.1563 872.1952,-253.5292"/>
</g>
<!-- Node28 -->
<g id="node29" class="node">
<title>Node28</title>
<polygon fill="none" stroke="#bfbfbf" points="989.3363,-224.5 989.3363,-243.5 1127.3363,-243.5 1127.3363,-224.5 989.3363,-224.5"/>
<text text-anchor="middle" x="1058.3363" y="-231.5" font-family="Helvetica,sans-Serif" font-size="10.00" fill="#000000">benchmark/benchmark.h</text>
</g>
<!-- Node0&#45;&gt;Node28 -->
<g id="edge39" class="edge">
<title>Node0&#45;&gt;Node28</title>
<path fill="none" stroke="#191970" d="M909.1255,-280.4283C946.1657,-268.9029 988.0066,-255.8837 1017.9353,-246.5711"/>
<polygon fill="#191970" stroke="#191970" points="1019.0956,-249.8757 1027.6042,-243.5626 1017.0158,-243.1918 1019.0956,-249.8757"/>
</g>
<!-- Node29 -->
<g id="node30" class="node">
<title>Node29</title>
<polygon fill="none" stroke="#bfbfbf" points="1145.3363,-224.5 1145.3363,-243.5 1199.3363,-243.5 1199.3363,-224.5 1145.3363,-224.5"/>
<text text-anchor="middle" x="1172.3363" y="-231.5" font-family="Helvetica,sans-Serif" font-size="10.00" fill="#000000">random</text>
</g>
<!-- Node0&#45;&gt;Node29 -->
<g id="edge40" class="edge">
<title>Node0&#45;&gt;Node29</title>
<path fill="none" stroke="#191970" d="M914.8602,-290.2939C974.7719,-279.03 1055.5491,-263.0409 1135.5175,-244.0746"/>
<polygon fill="#191970" stroke="#191970" points="1136.3507,-247.4741 1145.2642,-241.747 1134.7247,-240.6655 1136.3507,-247.4741"/>
</g>
<!-- Node2 -->
<g id="node3" class="node">
<title>Node2</title>
<g id="a_node3"><a xlink:href="../../de/d9b/FunctionalHelpers_8h.html" target="_top" xlink:title="Framework/FunctionalHelpers.h">
<polygon fill="none" stroke="#000000" points="159.3363,-56.5 159.3363,-75.5 329.3363,-75.5 329.3363,-56.5 159.3363,-56.5"/>
<text text-anchor="middle" x="244.3363" y="-63.5" font-family="Helvetica,sans-Serif" font-size="10.00" fill="#000000">Framework/FunctionalHelpers.h</text>
</a>
</g>
</g>
<!-- Node1&#45;&gt;Node2 -->
<g id="edge2" class="edge">
<title>Node1&#45;&gt;Node2</title>
<path fill="none" stroke="#191970" d="M771.2278,-169.4563C767.8819,-168.9556 764.5641,-168.4665 761.3363,-168 641.0832,-150.6203 606.1111,-168.8655 490.3363,-132 472.1508,-126.2093 470.2575,-118.5634 452.3363,-112 408.9563,-96.1127 358.3875,-84.7775 317.9739,-77.3347"/>
<polygon fill="#191970" stroke="#191970" points="318.3906,-73.8535 307.9286,-75.5259 317.15,-80.7427 318.3906,-73.8535"/>
</g>
<!-- Node4 -->
<g id="node5" class="node">
<title>Node4</title>
<g id="a_node5"><a xlink:href="../../d9/de8/CompilerBuiltins_8h.html" target="_top" xlink:title="Framework/CompilerBuiltins.h">
<polygon fill="none" stroke="#000000" points="347.3363,-56.5 347.3363,-75.5 511.3363,-75.5 511.3363,-56.5 347.3363,-56.5"/>
<text text-anchor="middle" x="429.3363" y="-63.5" font-family="Helvetica,sans-Serif" font-size="10.00" fill="#000000">Framework/CompilerBuiltins.h</text>
</a>
</g>
</g>
<!-- Node1&#45;&gt;Node4 -->
<g id="edge4" class="edge">
<title>Node1&#45;&gt;Node4</title>
<path fill="none" stroke="#191970" d="M771.0743,-169.5219C687.0087,-156.3776 534.7261,-132.5245 533.3363,-132 501.4429,-119.9636 468.9433,-97.3258 448.9591,-81.9565"/>
<polygon fill="#191970" stroke="#191970" points="450.9785,-79.0921 440.9519,-75.6688 446.6552,-84.5976 450.9785,-79.0921"/>
</g>
<!-- Node5 -->
<g id="node6" class="node">
<title>Node5</title>
<g id="a_node6"><a xlink:href="../../db/d31/Traits_8h.html" target="_top" xlink:title="Framework/Traits.h">
<polygon fill="none" stroke="#000000" points="1197.8363,-112.5 1197.8363,-131.5 1306.8363,-131.5 1306.8363,-112.5 1197.8363,-112.5"/>
<text text-anchor="middle" x="1252.3363" y="-119.5" font-family="Helvetica,sans-Serif" font-size="10.00" fill="#000000">Framework/Traits.h</text>
</a>
</g>
</g>
<!-- Node1&#45;&gt;Node5 -->
<g id="edge5" class="edge">
<title>Node1&#45;&gt;Node5</title>
<path fill="none" stroke="#191970" d="M879.4415,-169.4334C882.7883,-168.9384 886.1072,-168.4568 889.3363,-168 993.3501,-153.2867 1114.4548,-138.3875 1187.1681,-129.682"/>
<polygon fill="#191970" stroke="#191970" points="1188.0232,-133.1048 1197.5374,-128.4433 1187.1928,-126.1542 1188.0232,-133.1048"/>
</g>
<!-- Node7 -->
<g id="node8" class="node">
<title>Node7</title>
<g id="a_node8"><a xlink:href="../../d0/d91/Expressions_8h.html" target="_top" xlink:title="Framework/Expressions.h">
<polygon fill="none" stroke="#000000" points="542.8363,-112.5 542.8363,-131.5 683.8363,-131.5 683.8363,-112.5 542.8363,-112.5"/>
<text text-anchor="middle" x="613.3363" y="-119.5" font-family="Helvetica,sans-Serif" font-size="10.00" fill="#000000">Framework/Expressions.h</text>
</a>
</g>
</g>
<!-- Node1&#45;&gt;Node7 -->
<g id="edge7" class="edge">
<title>Node1&#45;&gt;Node7</title>
<path fill="none" stroke="#191970" d="M788.8922,-168.3733C753.0294,-158.9001 698.1485,-144.4032 659.3081,-134.1435"/>
<polygon fill="#191970" stroke="#191970" points="659.8671,-130.6712 649.3049,-131.5011 658.0793,-137.439 659.8671,-130.6712"/>
</g>
<!-- Node10 -->
<g id="node11" class="node">
<title>Node10</title>
<polygon fill="none" stroke="#bfbfbf" points="1058.8363,-56.5 1058.8363,-75.5 1139.8363,-75.5 1139.8363,-56.5 1058.8363,-56.5"/>
<text text-anchor="middle" x="1099.3363" y="-63.5" font-family="Helvetica,sans-Serif" font-size="10.00" fill="#000000">arrow/table.h</text>
</g>
<!-- Node1&#45;&gt;Node10 -->
<g id="edge19" class="edge">
<title>Node1&#45;&gt;Node10</title>
<path fill="none" stroke="#191970" d="M822.702,-168.0353C819.5676,-153.6842 816.3627,-127.2502 830.3363,-112 861.8333,-77.6254 986.1235,-83.9675 1048.5216,-75.8194"/>
<polygon fill="#191970" stroke="#191970" points="1049.3503,-79.233 1058.6997,-74.2491 1048.2829,-72.3149 1049.3503,-79.233"/>
</g>
<!-- Node11 -->
<g id="node12" class="node">
<title>Node11</title>
<polygon fill="none" stroke="#bfbfbf" points="1157.8363,-56.5 1157.8363,-75.5 1304.8363,-75.5 1304.8363,-56.5 1157.8363,-56.5"/>
<text text-anchor="middle" x="1231.3363" y="-63.5" font-family="Helvetica,sans-Serif" font-size="10.00" fill="#000000">gandiva/selection_vector.h</text>
</g>
<!-- Node1&#45;&gt;Node11 -->
<g id="edge21" class="edge">
<title>Node1&#45;&gt;Node11</title>
<path fill="none" stroke="#191970" d="M827.8543,-168.4691C832.3068,-153.668 843.0721,-125.4619 863.3363,-112 864.8158,-111.0172 1039.2902,-89.5105 1147.4381,-76.2567"/>
<polygon fill="#191970" stroke="#191970" points="1148.1888,-79.691 1157.689,-75.0008 1147.3375,-72.743 1148.1888,-79.691"/>
</g>
<!-- Node17 -->
<g id="node18" class="node">
<title>Node17</title>
<polygon fill="none" stroke="#bfbfbf" points="872.3363,-112.5 872.3363,-131.5 952.3363,-131.5 952.3363,-112.5 872.3363,-112.5"/>
<text text-anchor="middle" x="912.3363" y="-119.5" font-family="Helvetica,sans-Serif" font-size="10.00" fill="#000000">arrow/array.h</text>
</g>
<!-- Node1&#45;&gt;Node17 -->
<g id="edge20" class="edge">
<title>Node1&#45;&gt;Node17</title>
<path fill="none" stroke="#191970" d="M840.4906,-168.2455C853.839,-159.6534 873.4949,-147.0014 888.8746,-137.1018"/>
<polygon fill="#191970" stroke="#191970" points="890.8415,-139.9982 897.3557,-131.6427 887.0527,-134.1121 890.8415,-139.9982"/>
</g>
<!-- Node18 -->
<g id="node19" class="node">
<title>Node18</title>
<polygon fill="none" stroke="#bfbfbf" points="970.3363,-112.5 970.3363,-131.5 1022.3363,-131.5 1022.3363,-112.5 970.3363,-112.5"/>
<text text-anchor="middle" x="996.3363" y="-119.5" font-family="Helvetica,sans-Serif" font-size="10.00" fill="#000000">cassert</text>
</g>
<!-- Node1&#45;&gt;Node18 -->
<g id="edge22" class="edge">
<title>Node1&#45;&gt;Node18</title>
<path fill="none" stroke="#191970" d="M854.7323,-168.3733C884.0286,-158.7791 929.0592,-144.0323 960.4488,-133.7527"/>
<polygon fill="#191970" stroke="#191970" points="961.7095,-137.0227 970.1236,-130.5843 959.5309,-130.3704 961.7095,-137.0227"/>
</g>
<!-- Node3 -->
<g id="node4" class="node">
<title>Node3</title>
<polygon fill="none" stroke="#bfbfbf" points="85.8363,-.5 85.8363,-19.5 150.8363,-19.5 150.8363,-.5 85.8363,-.5"/>
<text text-anchor="middle" x="118.3363" y="-7.5" font-family="Helvetica,sans-Serif" font-size="10.00" fill="#000000">functional</text>
</g>
<!-- Node2&#45;&gt;Node3 -->
<g id="edge3" class="edge">
<title>Node2&#45;&gt;Node3</title>
<path fill="none" stroke="#191970" d="M222.6762,-56.3733C202.3592,-47.3435 171.7724,-33.7494 148.9613,-23.6111"/>
<polygon fill="#191970" stroke="#191970" points="150.2735,-20.3642 139.7138,-19.5011 147.4305,-26.7609 150.2735,-20.3642"/>
</g>
<!-- Node6 -->
<g id="node7" class="node">
<title>Node6</title>
<polygon fill="none" stroke="#bfbfbf" points="1322.8363,-56.5 1322.8363,-75.5 1391.8363,-75.5 1391.8363,-56.5 1322.8363,-56.5"/>
<text text-anchor="middle" x="1357.3363" y="-63.5" font-family="Helvetica,sans-Serif" font-size="10.00" fill="#000000">type_traits</text>
</g>
<!-- Node5&#45;&gt;Node6 -->
<g id="edge6" class="edge">
<title>Node5&#45;&gt;Node6</title>
<path fill="none" stroke="#191970" d="M1270.6259,-112.2455C1287.1126,-103.4527 1311.5715,-90.4079 1330.3129,-80.4125"/>
<polygon fill="#191970" stroke="#191970" points="1332.0798,-83.4368 1339.2563,-75.6427 1328.7857,-77.2604 1332.0798,-83.4368"/>
</g>
<!-- Node7&#45;&gt;Node2 -->
<g id="edge10" class="edge">
<title>Node7&#45;&gt;Node2</title>
<path fill="none" stroke="#191970" d="M550.3222,-112.4369C485.7114,-102.6314 385.3186,-87.3957 317.3004,-77.0731"/>
<polygon fill="#191970" stroke="#191970" points="317.5025,-73.5638 307.0905,-75.5237 316.4521,-80.4846 317.5025,-73.5638"/>
</g>
<!-- Node7&#45;&gt;Node4 -->
<g id="edge9" class="edge">
<title>Node7&#45;&gt;Node4</title>
<path fill="none" stroke="#191970" d="M581.7056,-112.3733C550.9767,-103.021 504.1603,-88.7725 470.5341,-78.5385"/>
<polygon fill="#191970" stroke="#191970" points="471.1401,-75.0644 460.5543,-75.5011 469.102,-81.7612 471.1401,-75.0644"/>
</g>
<!-- Node8 -->
<g id="node9" class="node">
<title>Node8</title>
<g id="a_node9"><a xlink:href="../../dd/dc2/BasicOps_8h.html" target="_top" xlink:title="Framework/BasicOps.h">
<polygon fill="none" stroke="#000000" points="816.3363,-56.5 816.3363,-75.5 944.3363,-75.5 944.3363,-56.5 816.3363,-56.5"/>
<text text-anchor="middle" x="880.3363" y="-63.5" font-family="Helvetica,sans-Serif" font-size="10.00" fill="#000000">Framework/BasicOps.h</text>
</a>
</g>
</g>
<!-- Node7&#45;&gt;Node8 -->
<g id="edge8" class="edge">
<title>Node7&#45;&gt;Node8</title>
<path fill="none" stroke="#191970" d="M658.9319,-112.4369C704.9149,-102.7925 775.9451,-87.8948 825.097,-77.5858"/>
<polygon fill="#191970" stroke="#191970" points="825.8602,-81.0019 834.9288,-75.5237 824.4233,-74.151 825.8602,-81.0019"/>
</g>
<!-- Node9 -->
<g id="node10" class="node">
<title>Node9</title>
<polygon fill="none" stroke="#bfbfbf" points="962.3363,-56.5 962.3363,-75.5 1040.3363,-75.5 1040.3363,-56.5 962.3363,-56.5"/>
<text text-anchor="middle" x="1001.3363" y="-63.5" font-family="Helvetica,sans-Serif" font-size="10.00" fill="#000000">arrow/type.h</text>
</g>
<!-- Node7&#45;&gt;Node9 -->
<g id="edge11" class="edge">
<title>Node7&#45;&gt;Node9</title>
<path fill="none" stroke="#191970" d="M683.9254,-113.0496C763.4786,-102.8627 888.9551,-86.47 952.1333,-76.0891"/>
<polygon fill="#191970" stroke="#191970" points="952.8066,-79.5251 962.0868,-74.4134 951.6445,-72.6223 952.8066,-79.5251"/>
</g>
<!-- Node7&#45;&gt;Node10 -->
<g id="edge12" class="edge">
<title>Node7&#45;&gt;Node10</title>
<path fill="none" stroke="#191970" d="M684.2885,-113.5726C689.0417,-113.0327 693.7578,-112.5041 698.3363,-112 851.0161,-95.19 892.5823,-99.2257 1048.7709,-75.9546"/>
<polygon fill="#191970" stroke="#191970" points="1049.3658,-79.4046 1058.7342,-74.4565 1048.3249,-72.4824 1049.3658,-79.4046"/>
</g>
<!-- Node7&#45;&gt;Node11 -->
<g id="edge13" class="edge">
<title>Node7&#45;&gt;Node11</title>
<path fill="none" stroke="#191970" d="M684.0787,-116.7385C784.7487,-109.0708 975.3814,-93.8859 1147.586,-76.1547"/>
<polygon fill="#191970" stroke="#191970" points="1148.0065,-79.6299 1157.5932,-75.1192 1147.286,-72.6671 1148.0065,-79.6299"/>
</g>
<!-- Node12 -->
<g id="node13" class="node">
<title>Node12</title>
<polygon fill="none" stroke="#bfbfbf" points="529.3363,-56.5 529.3363,-75.5 621.3363,-75.5 621.3363,-56.5 529.3363,-56.5"/>
<text text-anchor="middle" x="575.3363" y="-63.5" font-family="Helvetica,sans-Serif" font-size="10.00" fill="#000000">gandiva/node.h</text>
</g>
<!-- Node7&#45;&gt;Node12 -->
<g id="edge14" class="edge">
<title>Node7&#45;&gt;Node12</title>
<path fill="none" stroke="#191970" d="M606.7172,-112.2455C601.4318,-104.4564 593.8822,-93.3308 587.5126,-83.9439"/>
<polygon fill="#191970" stroke="#191970" points="590.3908,-81.9522 581.8796,-75.6427 584.5985,-85.8827 590.3908,-81.9522"/>
</g>
<!-- Node13 -->
<g id="node14" class="node">
<title>Node13</title>
<polygon fill="none" stroke="#bfbfbf" points="639.8363,-56.5 639.8363,-75.5 728.8363,-75.5 728.8363,-56.5 639.8363,-56.5"/>
<text text-anchor="middle" x="684.3363" y="-63.5" font-family="Helvetica,sans-Serif" font-size="10.00" fill="#000000">gandiva/filter.h</text>
</g>
<!-- Node7&#45;&gt;Node13 -->
<g id="edge15" class="edge">
<title>Node7&#45;&gt;Node13</title>
<path fill="none" stroke="#191970" d="M625.7036,-112.2455C636.2917,-103.8943 651.7427,-91.7076 664.1256,-81.9408"/>
<polygon fill="#191970" stroke="#191970" points="666.4266,-84.5837 672.1108,-75.6427 662.0916,-79.0875 666.4266,-84.5837"/>
</g>
<!-- Node14 -->
<g id="node15" class="node">
<title>Node14</title>
<polygon fill="none" stroke="#bfbfbf" points="746.8363,-56.5 746.8363,-75.5 797.8363,-75.5 797.8363,-56.5 746.8363,-56.5"/>
<text text-anchor="middle" x="772.3363" y="-63.5" font-family="Helvetica,sans-Serif" font-size="10.00" fill="#000000">variant</text>
</g>
<!-- Node7&#45;&gt;Node14 -->
<g id="edge16" class="edge">
<title>Node7&#45;&gt;Node14</title>
<path fill="none" stroke="#191970" d="M640.6694,-112.3733C667.2769,-103.0021 707.8425,-88.7148 736.9124,-78.4764"/>
<polygon fill="#191970" stroke="#191970" points="738.4042,-81.6617 746.6736,-75.0384 736.0788,-75.0593 738.4042,-81.6617"/>
</g>
<!-- Node15 -->
<g id="node16" class="node">
<title>Node15</title>
<polygon fill="none" stroke="#bfbfbf" points="21.3363,-56.5 21.3363,-75.5 65.3363,-75.5 65.3363,-56.5 21.3363,-56.5"/>
<text text-anchor="middle" x="43.3363" y="-63.5" font-family="Helvetica,sans-Serif" font-size="10.00" fill="#000000">string</text>
</g>
<!-- Node7&#45;&gt;Node15 -->
<g id="edge17" class="edge">
<title>Node7&#45;&gt;Node15</title>
<path fill="none" stroke="#191970" d="M542.7601,-117.9729C421.8344,-110.7513 178.8663,-94.7573 75.6556,-75.7892"/>
<polygon fill="#191970" stroke="#191970" points="76.0104,-72.2929 65.5269,-73.8246 74.6775,-79.1648 76.0104,-72.2929"/>
</g>
<!-- Node16 -->
<g id="node17" class="node">
<title>Node16</title>
<polygon fill="none" stroke="#bfbfbf" points="83.3363,-56.5 83.3363,-75.5 141.3363,-75.5 141.3363,-56.5 83.3363,-56.5"/>
<text text-anchor="middle" x="112.3363" y="-63.5" font-family="Helvetica,sans-Serif" font-size="10.00" fill="#000000">memory</text>
</g>
<!-- Node7&#45;&gt;Node16 -->
<g id="edge18" class="edge">
<title>Node7&#45;&gt;Node16</title>
<path fill="none" stroke="#191970" d="M542.6537,-118.463C453.4812,-113.2235 295.3704,-101.3525 151.58,-75.9863"/>
<polygon fill="#191970" stroke="#191970" points="152.1524,-72.5331 141.6921,-74.2163 150.9189,-79.4236 152.1524,-72.5331"/>
</g>
<!-- Node19&#45;&gt;Node1 -->
<g id="edge24" class="edge">
<title>Node19&#45;&gt;Node1</title>
<path fill="none" stroke="#191970" d="M507.056,-224.4879C570.2362,-215.6798 666.7878,-202.0617 761.2078,-188.0021"/>
<polygon fill="#191970" stroke="#191970" points="761.8486,-191.4453 771.2226,-186.508 760.8156,-184.522 761.8486,-191.4453"/>
</g>
<!-- Node19&#45;&gt;Node2 -->
<g id="edge25" class="edge">
<title>Node19&#45;&gt;Node2</title>
<path fill="none" stroke="#191970" d="M437.6218,-224.4786C436.1441,-210.6798 431.6755,-184.9269 418.3363,-168 383.2713,-123.5037 323.0304,-94.5099 283.4407,-79.1961"/>
<polygon fill="#191970" stroke="#191970" points="284.4405,-75.833 273.8483,-75.5964 281.9811,-82.3867 284.4405,-75.833"/>
</g>
<!-- Node19&#45;&gt;Node3 -->
<g id="edge31" class="edge">
<title>Node19&#45;&gt;Node3</title>
<path fill="none" stroke="#191970" d="M367.198,-231.4612C278.683,-227.1492 133.6534,-215.9489 88.3363,-188 30.7176,-152.4641 -24.801,-112.5998 12.3363,-56 26.3807,-34.5954 52.7639,-23.1001 75.6941,-16.9536"/>
<polygon fill="#191970" stroke="#191970" points="76.6974,-20.312 85.5958,-14.5615 75.0535,-13.5078 76.6974,-20.312"/>
</g>
<!-- Node19&#45;&gt;Node10 -->
<g id="edge29" class="edge">
<title>Node19&#45;&gt;Node10</title>
<path fill="none" stroke="#191970" d="M483.6458,-224.4361C521.3787,-216.0668 576.3389,-202.9339 623.3363,-188 711.9848,-159.831 728.5212,-136.1928 818.3363,-112 915.6289,-85.7931 945.2519,-93.6681 1048.7877,-76.0079"/>
<polygon fill="#191970" stroke="#191970" points="1049.4553,-79.4444 1058.7048,-74.2775 1048.252,-72.5486 1049.4553,-79.4444"/>
</g>
<!-- Node19&#45;&gt;Node15 -->
<g id="edge33" class="edge">
<title>Node19&#45;&gt;Node15</title>
<path fill="none" stroke="#191970" d="M367.1374,-231.0633C284.5129,-226.4347 154.4588,-215.0031 114.3363,-188 77.7221,-163.358 57.4856,-113.0091 48.704,-85.3177"/>
<polygon fill="#191970" stroke="#191970" points="52.0172,-84.1806 45.8009,-75.6011 45.3101,-86.1845 52.0172,-84.1806"/>
</g>
<!-- Node19&#45;&gt;Node16 -->
<g id="edge34" class="edge">
<title>Node19&#45;&gt;Node16</title>
<path fill="none" stroke="#191970" d="M367.2907,-227.7765C281.8673,-219.6199 147.8418,-204.4106 131.3363,-188 104.3354,-161.1543 105.6565,-112.8285 108.9961,-85.7545"/>
<polygon fill="#191970" stroke="#191970" points="112.5006,-85.9764 110.4743,-75.5772 105.5732,-84.9702 112.5006,-85.9764"/>
</g>
<!-- Node20 -->
<g id="node21" class="node">
<title>Node20</title>
<polygon fill="none" stroke="#bfbfbf" points="140.3363,-168.5 140.3363,-187.5 196.3363,-187.5 196.3363,-168.5 140.3363,-168.5"/>
<text text-anchor="middle" x="168.3363" y="-175.5" font-family="Helvetica,sans-Serif" font-size="10.00" fill="#000000">sstream</text>
</g>
<!-- Node19&#45;&gt;Node20 -->
<g id="edge26" class="edge">
<title>Node19&#45;&gt;Node20</title>
<path fill="none" stroke="#191970" d="M384.4352,-224.4503C339.2857,-216.2037 272.9435,-203.5129 206.3863,-188.1337"/>
<polygon fill="#191970" stroke="#191970" points="207.1007,-184.7065 196.5673,-185.8454 205.5119,-191.5238 207.1007,-184.7065"/>
</g>
<!-- Node21 -->
<g id="node22" class="node">
<title>Node21</title>
<polygon fill="none" stroke="#bfbfbf" points="214.3363,-168.5 214.3363,-187.5 282.3363,-187.5 282.3363,-168.5 214.3363,-168.5"/>
<text text-anchor="middle" x="248.3363" y="-175.5" font-family="Helvetica,sans-Serif" font-size="10.00" fill="#000000">arrow/stl.h</text>
</g>
<!-- Node19&#45;&gt;Node21 -->
<g id="edge27" class="edge">
<title>Node19&#45;&gt;Node21</title>
<path fill="none" stroke="#191970" d="M405.6742,-224.3733C373.8065,-214.9807 325.1832,-200.6496 290.4293,-190.4064"/>
<polygon fill="#191970" stroke="#191970" points="291.1538,-186.9711 280.5723,-187.5011 289.1748,-193.6855 291.1538,-186.9711"/>
</g>
<!-- Node22 -->
<g id="node23" class="node">
<title>Node22</title>
<polygon fill="none" stroke="#bfbfbf" points="300.8363,-168.5 300.8363,-187.5 409.8363,-187.5 409.8363,-168.5 300.8363,-168.5"/>
<text text-anchor="middle" x="355.3363" y="-175.5" font-family="Helvetica,sans-Serif" font-size="10.00" fill="#000000">arrow/type_traits.h</text>
</g>
<!-- Node19&#45;&gt;Node22 -->
<g id="edge28" class="edge">
<title>Node19&#45;&gt;Node22</title>
<path fill="none" stroke="#191970" d="M423.8788,-224.2455C411.2631,-215.7337 392.7419,-203.2375 378.1318,-193.3801"/>
<polygon fill="#191970" stroke="#191970" points="379.8754,-190.3343 369.6281,-187.6427 375.9602,-196.1371 379.8754,-190.3343"/>
</g>
<!-- Node23 -->
<g id="node24" class="node">
<title>Node23</title>
<polygon fill="none" stroke="#bfbfbf" points="466.8363,-168.5 466.8363,-187.5 555.8363,-187.5 555.8363,-168.5 466.8363,-168.5"/>
<text text-anchor="middle" x="511.3363" y="-175.5" font-family="Helvetica,sans-Serif" font-size="10.00" fill="#000000">arrow/builder.h</text>
</g>
<!-- Node19&#45;&gt;Node23 -->
<g id="edge30" class="edge">
<title>Node19&#45;&gt;Node23</title>
<path fill="none" stroke="#191970" d="M451.052,-224.2455C461.9384,-215.8943 477.8246,-203.7076 490.5563,-193.9408"/>
<polygon fill="#191970" stroke="#191970" points="492.9624,-196.5063 498.7664,-187.6427 488.7018,-190.9523 492.9624,-196.5063"/>
</g>
<!-- Node19&#45;&gt;Node24 -->
<g id="edge32" class="edge">
<title>Node19&#45;&gt;Node24</title>
<path fill="none" stroke="#191970" d="M498.151,-224.4679C549.5829,-215.9515 625.6374,-202.5942 691.3363,-188 692.7931,-187.6764 694.2784,-187.3351 695.7766,-186.9814"/>
<polygon fill="#191970" stroke="#191970" points="696.8237,-190.3279 705.6887,-184.5259 695.1404,-183.5333 696.8237,-190.3279"/>
</g>
<!-- Node25 -->
<g id="node26" class="node">
<title>Node25</title>
<polygon fill="none" stroke="#bfbfbf" points="573.8363,-168.5 573.8363,-187.5 614.8363,-187.5 614.8363,-168.5 573.8363,-168.5"/>
<text text-anchor="middle" x="594.3363" y="-175.5" font-family="Helvetica,sans-Serif" font-size="10.00" fill="#000000">tuple</text>
</g>
<!-- Node19&#45;&gt;Node25 -->
<g id="edge35" class="edge">
<title>Node19&#45;&gt;Node25</title>
<path fill="none" stroke="#191970" d="M465.1537,-224.3733C492.7398,-214.4706 535.6181,-199.0784 564.3203,-188.775"/>
<polygon fill="#191970" stroke="#191970" points="565.6037,-192.033 573.8331,-185.3601 563.2386,-185.4447 565.6037,-192.033"/>
</g>
<!-- Node26&#45;&gt;Node1 -->
<g id="edge37" class="edge">
<title>Node26&#45;&gt;Node1</title>
<path fill="none" stroke="#191970" d="M873.2335,-224.2455C864.8335,-216.1352 852.687,-204.4075 842.728,-194.7919"/>
<polygon fill="#191970" stroke="#191970" points="844.9485,-192.0707 835.3234,-187.6427 840.0863,-197.1066 844.9485,-192.0707"/>
</g>
<!-- Node27 -->
<g id="node28" class="node">
<title>Node27</title>
<polygon fill="none" stroke="#bfbfbf" points="897.8363,-168.5 897.8363,-187.5 944.8363,-187.5 944.8363,-168.5 897.8363,-168.5"/>
<text text-anchor="middle" x="921.3363" y="-175.5" font-family="Helvetica,sans-Serif" font-size="10.00" fill="#000000">cmath</text>
</g>
<!-- Node26&#45;&gt;Node27 -->
<g id="edge38" class="edge">
<title>Node26&#45;&gt;Node27</title>
<path fill="none" stroke="#191970" d="M889.9554,-224.2455C895.2409,-216.4564 902.7904,-205.3308 909.1601,-195.9439"/>
<polygon fill="#191970" stroke="#191970" points="912.0742,-197.8827 914.7931,-187.6427 906.2819,-193.9522 912.0742,-197.8827"/>
</g>
</g>
</svg>
        <g id="navigator" transform="translate(0 0)" fill="#404254">
                <rect fill="#f2f5e9" fill-opacity="0.5" stroke="#606060" stroke-width=".5" x="0" y="0" width="60" height="60"/>
                <use id="zoomplus" xlink:href="#zoomPlus" x="17" y="9" onmousedown="handleZoom(evt,'in')"/>
                <use id="zoomminus" xlink:href="#zoomMin" x="42" y="9" onmousedown="handleZoom(evt,'out')"/>
                <use id="reset" xlink:href="#resetDef" x="30" y="36" onmousedown="handleReset()"/>
                <g id="arrowUp" xlink:href="#dirArrow" transform="translate(30 24)" onmousedown="handlePan(0,-1)">
                  <use xlink:href="#rim" fill="#404040">
                        <set attributeName="fill" to="#808080" begin="arrowUp.mouseover" end="arrowUp.mouseout"/>
                  </use>
                  <path fill="none" stroke="white" stroke-width="1.5" d="M0,-3.0v7 M-2.5,-0.5L0,-3.0L2.5,-0.5"/>
                </g>
                <g id="arrowRight" xlink:href="#dirArrow" transform="rotate(90) translate(36 -43)" onmousedown="handlePan(1,0)">
                  <use xlink:href="#rim" fill="#404040">
                        <set attributeName="fill" to="#808080" begin="arrowRight.mouseover" end="arrowRight.mouseout"/>
                  </use>
                  <path fill="none" stroke="white" stroke-width="1.5" d="M0,-3.0v7 M-2.5,-0.5L0,-3.0L2.5,-0.5"/>
                </g>
                <g id="arrowDown" xlink:href="#dirArrow" transform="rotate(180) translate(-30 -48)" onmousedown="handlePan(0,1)">
                  <use xlink:href="#rim" fill="#404040">
                        <set attributeName="fill" to="#808080" begin="arrowDown.mouseover" end="arrowDown.mouseout"/>
                  </use>
                  <path fill="none" stroke="white" stroke-width="1.5" d="M0,-3.0v7 M-2.5,-0.5L0,-3.0L2.5,-0.5"/>
                </g>
                <g id="arrowLeft" xlink:href="#dirArrow" transform="rotate(270) translate(-36 17)" onmousedown="handlePan(-1,0)">
                  <use xlink:href="#rim" fill="#404040">
                        <set attributeName="fill" to="#808080" begin="arrowLeft.mouseover" end="arrowLeft.mouseout"/>
                  </use>
                  <path fill="none" stroke="white" stroke-width="1.5" d="M0,-3.0v7 M-2.5,-0.5L0,-3.0L2.5,-0.5"/>
                </g>
        </g>
        <svg viewBox="0 0 15 15" width="100%" height="30px" preserveAspectRatio="xMaxYMin meet">
         <g id="arrow_out" transform="scale(0.3 0.3)">
          <a xlink:href="benchmark__ASoA_8cxx__incl_org.svg" target="_base">
           <rect id="button" ry="5" rx="5" y="6" x="6" height="38" width="38"
                fill="#f2f5e9" fill-opacity="0.5" stroke="#606060" stroke-width="1.0"/>
           <path id="arrow"
             d="M 11.500037,31.436501 C 11.940474,20.09759 22.043105,11.32322 32.158766,21.979434 L 37.068811,17.246167 C 37.068811,17.246167 37.088388,32 37.088388,32 L 22.160133,31.978069 C 22.160133,31.978069 26.997745,27.140456 26.997745,27.140456 C 18.528582,18.264221 13.291696,25.230495 11.500037,31.436501 z"
             style="fill:#404040;"/>
          </a>
         </g>
        </svg>
</svg>
