<?xml version="1.0" encoding="UTF-8" standalone="no"?>
<!DOCTYPE svg PUBLIC "-//W3C//DTD SVG 1.1//EN"
 "http://www.w3.org/Graphics/SVG/1.1/DTD/svg11.dtd">
<!-- Generated by graphviz version 2.40.1 (20161225.0304)
 -->
<!-- Title: /home/travis/build/AliceO2Group/AliceO2/EventVisualisation/View/src/main.cxx Pages: 1 -->
<svg width="1220pt" height="575pt"
 viewBox="0.00 0.00 1220.00 575.00" xmlns="http://www.w3.org/2000/svg" xmlns:xlink="http://www.w3.org/1999/xlink">
<g id="graph0" class="graph" transform="scale(1 1) rotate(0) translate(4 571)">
<title>/home/travis/build/AliceO2Group/AliceO2/EventVisualisation/View/src/main.cxx</title>
<!-- Node0 -->
<g id="node1" class="node">
<title>Node0</title>
<polygon fill="#bfbfbf" stroke="#000000" points="566.5,-514.5 566.5,-566.5 703.5,-566.5 703.5,-514.5 566.5,-514.5"/>
<text text-anchor="start" x="574.5" y="-554.5" font-family="Helvetica,sans-Serif" font-size="10.00" fill="#000000">/home/travis/build</text>
<text text-anchor="start" x="574.5" y="-543.5" font-family="Helvetica,sans-Serif" font-size="10.00" fill="#000000">/AliceO2Group/AliceO2</text>
<text text-anchor="start" x="574.5" y="-532.5" font-family="Helvetica,sans-Serif" font-size="10.00" fill="#000000">/EventVisualisation/View</text>
<text text-anchor="middle" x="635" y="-521.5" font-family="Helvetica,sans-Serif" font-size="10.00" fill="#000000">/src/main.cxx</text>
</g>
<!-- Node1 -->
<g id="node2" class="node">
<title>Node1</title>
<g id="a_node2"><a xlink:href="../../d8/df3/Initializer_8h.html" target="_top" xlink:title="EventVisualisationView\l/Initializer.h">
<polygon fill="none" stroke="#000000" points="318.5,-447.5 318.5,-477.5 449.5,-477.5 449.5,-447.5 318.5,-447.5"/>
<text text-anchor="start" x="326.5" y="-465.5" font-family="Helvetica,sans-Serif" font-size="10.00" fill="#000000">EventVisualisationView</text>
<text text-anchor="middle" x="384" y="-454.5" font-family="Helvetica,sans-Serif" font-size="10.00" fill="#000000">/Initializer.h</text>
</a>
</g>
</g>
<!-- Node0&#45;&gt;Node1 -->
<g id="edge1" class="edge">
<title>Node0&#45;&gt;Node1</title>
<path fill="none" stroke="#191970" d="M566.4131,-519.1862C527.5063,-507.0956 479.3409,-492.1279 442.2749,-480.6093"/>
<polygon fill="#191970" stroke="#191970" points="443.2067,-477.2338 432.6185,-477.6085 441.1293,-483.9185 443.2067,-477.2338"/>
</g>
<!-- Node5 -->
<g id="node6" class="node">
<title>Node5</title>
<g id="a_node6"><a xlink:href="../../dd/dbf/DataInterpreter_8h.html" target="_top" xlink:title="EventVisualisationBase\l/DataInterpreter.h">
<polygon fill="none" stroke="#000000" points="69.5,-313.5 69.5,-343.5 200.5,-343.5 200.5,-313.5 69.5,-313.5"/>
<text text-anchor="start" x="77.5" y="-331.5" font-family="Helvetica,sans-Serif" font-size="10.00" fill="#000000">EventVisualisationBase</text>
<text text-anchor="middle" x="135" y="-320.5" font-family="Helvetica,sans-Serif" font-size="10.00" fill="#000000">/DataInterpreter.h</text>
</a>
</g>
</g>
<!-- Node0&#45;&gt;Node5 -->
<g id="edge43" class="edge">
<title>Node0&#45;&gt;Node5</title>
<path fill="none" stroke="#191970" d="M566.4395,-531.5868C484.6874,-520.2279 353.5048,-499.4771 309,-478 244.1894,-446.7238 184.1855,-385.1215 154.4896,-351.583"/>
<polygon fill="#191970" stroke="#191970" points="156.8202,-348.9303 147.6084,-343.6964 151.5456,-353.5325 156.8202,-348.9303"/>
</g>
<!-- Node14 -->
<g id="node15" class="node">
<title>Node14</title>
<polygon fill="none" stroke="#bfbfbf" points="80,-118 80,-137 124,-137 124,-118 80,-118"/>
<text text-anchor="middle" x="102" y="-125" font-family="Helvetica,sans-Serif" font-size="10.00" fill="#000000">ctime</text>
</g>
<!-- Node0&#45;&gt;Node14 -->
<g id="edge50" class="edge">
<title>Node0&#45;&gt;Node14</title>
<path fill="none" stroke="#191970" d="M566.4405,-532.0432C402.2435,-510.8636 0,-453.1005 0,-395.5 0,-395.5 0,-395.5 0,-261.5 0,-209.8764 48.5239,-165.7182 78.6351,-143.2858"/>
<polygon fill="#191970" stroke="#191970" points="80.8847,-145.9788 86.9495,-137.2916 76.791,-140.3006 80.8847,-145.9788"/>
</g>
<!-- Node28 -->
<g id="node29" class="node">
<title>Node28</title>
<g id="a_node29"><a xlink:href="../../db/d9e/ConfigurationManager_8h.html" target="_top" xlink:title="EventVisualisationBase\l/ConfigurationManager.h">
<polygon fill="none" stroke="#000000" points="506.5,-447.5 506.5,-477.5 641.5,-477.5 641.5,-447.5 506.5,-447.5"/>
<text text-anchor="start" x="514.5" y="-465.5" font-family="Helvetica,sans-Serif" font-size="10.00" fill="#000000">EventVisualisationBase</text>
<text text-anchor="middle" x="574" y="-454.5" font-family="Helvetica,sans-Serif" font-size="10.00" fill="#000000">/ConfigurationManager.h</text>
</a>
</g>
</g>
<!-- Node0&#45;&gt;Node28 -->
<g id="edge41" class="edge">
<title>Node0&#45;&gt;Node28</title>
<path fill="none" stroke="#191970" d="M614.3482,-514.0928C607.119,-504.8489 599.0629,-494.5476 592.0619,-485.5955"/>
<polygon fill="#191970" stroke="#191970" points="594.6517,-483.2256 585.7343,-477.5046 589.1377,-487.5379 594.6517,-483.2256"/>
</g>
<!-- Node29 -->
<g id="node30" class="node">
<title>Node29</title>
<polygon fill="none" stroke="#bfbfbf" points="549.5,-386 549.5,-405 598.5,-405 598.5,-386 549.5,-386"/>
<text text-anchor="middle" x="574" y="-393" font-family="Helvetica,sans-Serif" font-size="10.00" fill="#000000">TEnv.h</text>
</g>
<!-- Node0&#45;&gt;Node29 -->
<g id="edge48" class="edge">
<title>Node0&#45;&gt;Node29</title>
<path fill="none" stroke="#191970" d="M566.2453,-525.926C540.2863,-516.7208 513.34,-501.8591 498,-478 490.5489,-466.4109 491.5448,-459.172 498,-447 503.4474,-436.7284 527.3696,-421.4379 546.9398,-410.1851"/>
<polygon fill="#191970" stroke="#191970" points="548.8278,-413.1386 555.8197,-405.1785 545.3899,-407.041 548.8278,-413.1386"/>
</g>
<!-- Node30 -->
<g id="node31" class="node">
<title>Node30</title>
<polygon fill="none" stroke="#bfbfbf" points="659.5,-453 659.5,-472 734.5,-472 734.5,-453 659.5,-453"/>
<text text-anchor="middle" x="697" y="-460" font-family="Helvetica,sans-Serif" font-size="10.00" fill="#000000">FairLogger.h</text>
</g>
<!-- Node0&#45;&gt;Node30 -->
<g id="edge44" class="edge">
<title>Node0&#45;&gt;Node30</title>
<path fill="none" stroke="#191970" d="M655.9904,-514.0928C664.9025,-502.8808 675.051,-490.1133 683.0227,-480.0843"/>
<polygon fill="#191970" stroke="#191970" points="685.8995,-482.09 689.3821,-472.0839 680.4197,-477.7343 685.8995,-482.09"/>
</g>
<!-- Node31 -->
<g id="node32" class="node">
<title>Node31</title>
<polygon fill="none" stroke="#bfbfbf" points="753,-453 753,-472 839,-472 839,-453 753,-453"/>
<text text-anchor="middle" x="796" y="-460" font-family="Helvetica,sans-Serif" font-size="10.00" fill="#000000">TApplication.h</text>
</g>
<!-- Node0&#45;&gt;Node31 -->
<g id="edge45" class="edge">
<title>Node0&#45;&gt;Node31</title>
<path fill="none" stroke="#191970" d="M689.0586,-514.3101C715.1595,-501.665 745.4325,-486.9985 767.093,-476.5046"/>
<polygon fill="#191970" stroke="#191970" points="768.6284,-479.65 776.1018,-472.1401 765.5763,-473.3503 768.6284,-479.65"/>
</g>
<!-- Node32 -->
<g id="node33" class="node">
<title>Node32</title>
<polygon fill="none" stroke="#bfbfbf" points="857.5,-453 857.5,-472 946.5,-472 946.5,-453 857.5,-453"/>
<text text-anchor="middle" x="902" y="-460" font-family="Helvetica,sans-Serif" font-size="10.00" fill="#000000">TEveBrowser.h</text>
</g>
<!-- Node0&#45;&gt;Node32 -->
<g id="edge46" class="edge">
<title>Node0&#45;&gt;Node32</title>
<path fill="none" stroke="#191970" d="M703.7591,-520.4131C752.9664,-506.0379 817.6574,-487.1394 859.5321,-474.9064"/>
<polygon fill="#191970" stroke="#191970" points="860.5262,-478.2623 869.1435,-472.0985 858.5632,-471.5432 860.5262,-478.2623"/>
</g>
<!-- Node33 -->
<g id="node34" class="node">
<title>Node33</title>
<polygon fill="none" stroke="#bfbfbf" points="964.5,-453 964.5,-472 1055.5,-472 1055.5,-453 964.5,-453"/>
<text text-anchor="middle" x="1010" y="-460" font-family="Helvetica,sans-Serif" font-size="10.00" fill="#000000">TEveManager.h</text>
</g>
<!-- Node0&#45;&gt;Node33 -->
<g id="edge47" class="edge">
<title>Node0&#45;&gt;Node33</title>
<path fill="none" stroke="#191970" d="M703.6283,-528.9264C768.8783,-517.5012 869.6071,-498.7677 956,-478 960.1075,-477.0126 964.3709,-475.9156 968.6198,-474.7744"/>
<polygon fill="#191970" stroke="#191970" points="969.7222,-478.101 978.4275,-472.0621 967.8564,-471.3543 969.7222,-478.101"/>
</g>
<!-- Node34 -->
<g id="node35" class="node">
<title>Node34</title>
<polygon fill="none" stroke="#bfbfbf" points="1074,-453 1074,-472 1130,-472 1130,-453 1074,-453"/>
<text text-anchor="middle" x="1102" y="-460" font-family="Helvetica,sans-Serif" font-size="10.00" fill="#000000">unistd.h</text>
</g>
<!-- Node0&#45;&gt;Node34 -->
<g id="edge49" class="edge">
<title>Node0&#45;&gt;Node34</title>
<path fill="none" stroke="#191970" d="M703.8709,-535.8674C789.7166,-528.8737 940.3304,-512.5736 1065,-478 1067.3217,-477.3562 1069.6915,-476.6033 1072.0541,-475.7826"/>
<polygon fill="#191970" stroke="#191970" points="1073.497,-478.978 1081.5837,-472.1327 1070.9933,-472.441 1073.497,-478.978"/>
</g>
<!-- Node2 -->
<g id="node3" class="node">
<title>Node2</title>
<g id="a_node3"><a xlink:href="../../d8/d25/EventManager_8h.html" target="_top" xlink:title="EventVisualisationView\l/EventManager.h">
<polygon fill="none" stroke="#000000" points="400.5,-380.5 400.5,-410.5 531.5,-410.5 531.5,-380.5 400.5,-380.5"/>
<text text-anchor="start" x="408.5" y="-398.5" font-family="Helvetica,sans-Serif" font-size="10.00" fill="#000000">EventVisualisationView</text>
<text text-anchor="middle" x="466" y="-387.5" font-family="Helvetica,sans-Serif" font-size="10.00" fill="#000000">/EventManager.h</text>
</a>
</g>
</g>
<!-- Node1&#45;&gt;Node2 -->
<g id="edge2" class="edge">
<title>Node1&#45;&gt;Node2</title>
<path fill="none" stroke="#191970" d="M402.6071,-447.2967C413.5107,-438.3876 427.4622,-426.9882 439.4997,-417.1527"/>
<polygon fill="#191970" stroke="#191970" points="441.9373,-419.6808 447.4666,-410.6432 437.5082,-414.2601 441.9373,-419.6808"/>
</g>
<!-- Node3 -->
<g id="node4" class="node">
<title>Node3</title>
<g id="a_node4"><a xlink:href="../../d6/d7c/VisualisationConstants_8h.html" target="_top" xlink:title="EventVisualisationBase\l/VisualisationConstants.h">
<polygon fill="none" stroke="#000000" points="226,-246.5 226,-276.5 366,-276.5 366,-246.5 226,-246.5"/>
<text text-anchor="start" x="234" y="-264.5" font-family="Helvetica,sans-Serif" font-size="10.00" fill="#000000">EventVisualisationBase</text>
<text text-anchor="middle" x="296" y="-253.5" font-family="Helvetica,sans-Serif" font-size="10.00" fill="#000000">/VisualisationConstants.h</text>
</a>
</g>
</g>
<!-- Node2&#45;&gt;Node3 -->
<g id="edge3" class="edge">
<title>Node2&#45;&gt;Node3</title>
<path fill="none" stroke="#191970" d="M400.2612,-388.8835C343.1648,-381.6183 266.7622,-367.7109 248,-344 232.9747,-325.0116 250.7414,-300.8208 268.7601,-283.5533"/>
<polygon fill="#191970" stroke="#191970" points="271.3532,-285.9262 276.4029,-276.6122 266.6471,-280.7443 271.3532,-285.9262"/>
</g>
<!-- Node4 -->
<g id="node5" class="node">
<title>Node4</title>
<polygon fill="none" stroke="#bfbfbf" points="628,-.5 628,-19.5 672,-19.5 672,-.5 628,-.5"/>
<text text-anchor="middle" x="650" y="-7.5" font-family="Helvetica,sans-Serif" font-size="10.00" fill="#000000">string</text>
</g>
<!-- Node2&#45;&gt;Node4 -->
<g id="edge40" class="edge">
<title>Node2&#45;&gt;Node4</title>
<path fill="none" stroke="#191970" d="M531.7882,-381.5533C534.8978,-381.0044 537.9803,-380.483 541,-380 690.5177,-356.0831 1212,-412.9185 1212,-261.5 1212,-261.5 1212,-261.5 1212,-127.5 1212,-72.9522 801.1131,-25.7808 681.9994,-13.2522"/>
<polygon fill="#191970" stroke="#191970" points="682.34,-9.7688 672.0311,-12.2132 681.6143,-16.7311 682.34,-9.7688"/>
</g>
<!-- Node2&#45;&gt;Node5 -->
<g id="edge5" class="edge">
<title>Node2&#45;&gt;Node5</title>
<path fill="none" stroke="#191970" d="M400.2093,-382.1828C345.6076,-371.1305 267.921,-355.4055 210.7355,-343.8301"/>
<polygon fill="#191970" stroke="#191970" points="211.1618,-340.3455 200.6662,-341.7919 209.773,-347.2064 211.1618,-340.3455"/>
</g>
<!-- Node15 -->
<g id="node16" class="node">
<title>Node15</title>
<polygon fill="none" stroke="#bfbfbf" points="384,-252 384,-271 474,-271 474,-252 384,-252"/>
<text text-anchor="middle" x="429" y="-259" font-family="Helvetica,sans-Serif" font-size="10.00" fill="#000000">TEveElement.h</text>
</g>
<!-- Node2&#45;&gt;Node15 -->
<g id="edge37" class="edge">
<title>Node2&#45;&gt;Node15</title>
<path fill="none" stroke="#191970" d="M531.713,-382.2178C569.8877,-373.0207 612.6453,-359.6437 624,-344 632.0932,-332.8498 632.4518,-323.8809 624,-313 584.3246,-261.9219 545.4235,-293.9239 483,-277 479.2419,-275.9811 475.3426,-274.9031 471.4377,-273.8091"/>
<polygon fill="#191970" stroke="#191970" points="472.3716,-270.436 461.7965,-271.0816 470.4661,-277.1716 472.3716,-270.436"/>
</g>
<!-- Node16 -->
<g id="node17" class="node">
<title>Node16</title>
<g id="a_node17"><a xlink:href="../../d7/dec/EventVisualisation_2Base_2include_2EventVisualisationBase_2DataReader_8h.html" target="_top" xlink:title="EventVisualisationBase\l/DataReader.h">
<polygon fill="none" stroke="#000000" points="257.5,-313.5 257.5,-343.5 388.5,-343.5 388.5,-313.5 257.5,-313.5"/>
<text text-anchor="start" x="265.5" y="-331.5" font-family="Helvetica,sans-Serif" font-size="10.00" fill="#000000">EventVisualisationBase</text>
<text text-anchor="middle" x="323" y="-320.5" font-family="Helvetica,sans-Serif" font-size="10.00" fill="#000000">/DataReader.h</text>
</a>
</g>
</g>
<!-- Node2&#45;&gt;Node16 -->
<g id="edge23" class="edge">
<title>Node2&#45;&gt;Node16</title>
<path fill="none" stroke="#191970" d="M433.908,-380.4639C413.445,-370.8763 386.7194,-358.3545 364.6306,-348.0052"/>
<polygon fill="#191970" stroke="#191970" points="366.02,-344.7911 355.4796,-343.7177 363.05,-351.1299 366.02,-344.7911"/>
</g>
<!-- Node17 -->
<g id="node18" class="node">
<title>Node17</title>
<g id="a_node18"><a xlink:href="../../d5/df3/BasicCCDBManager_8h.html" target="_top" xlink:title="CCDB/BasicCCDBManager.h">
<polygon fill="none" stroke="#000000" points="671,-319 671,-338 823,-338 823,-319 671,-319"/>
<text text-anchor="middle" x="747" y="-326" font-family="Helvetica,sans-Serif" font-size="10.00" fill="#000000">CCDB/BasicCCDBManager.h</text>
</a>
</g>
</g>
<!-- Node2&#45;&gt;Node17 -->
<g id="edge24" class="edge">
<title>Node2&#45;&gt;Node17</title>
<path fill="none" stroke="#191970" d="M529.0619,-380.4639C579.8651,-368.3507 650.3125,-351.5536 697.2089,-340.3719"/>
<polygon fill="#191970" stroke="#191970" points="698.219,-343.7292 707.1345,-338.0053 696.5954,-336.9201 698.219,-343.7292"/>
</g>
<!-- Node18 -->
<g id="node19" class="node">
<title>Node18</title>
<g id="a_node19"><a xlink:href="../../dd/d3e/CcdbApi_8h.html" target="_top" xlink:title="CCDB/CcdbApi.h">
<polygon fill="none" stroke="#000000" points="820,-252 820,-271 916,-271 916,-252 820,-252"/>
<text text-anchor="middle" x="868" y="-259" font-family="Helvetica,sans-Serif" font-size="10.00" fill="#000000">CCDB/CcdbApi.h</text>
</a>
</g>
</g>
<!-- Node2&#45;&gt;Node18 -->
<g id="edge36" class="edge">
<title>Node2&#45;&gt;Node18</title>
<path fill="none" stroke="#191970" d="M531.7941,-381.5895C534.9021,-381.0309 537.9827,-380.4976 541,-380 605.2913,-369.3975 779.783,-382.9764 832,-344 852.0997,-328.997 861.1468,-300.3781 865.0996,-281.1135"/>
<polygon fill="#191970" stroke="#191970" points="868.5886,-281.4822 866.8833,-271.0255 861.6956,-280.2633 868.5886,-281.4822"/>
</g>
<!-- Node26 -->
<g id="node27" class="node">
<title>Node26</title>
<polygon fill="none" stroke="#bfbfbf" points="406.5,-319 406.5,-338 525.5,-338 525.5,-319 406.5,-319"/>
<text text-anchor="middle" x="466" y="-326" font-family="Helvetica,sans-Serif" font-size="10.00" fill="#000000">TEveEventManager.h</text>
</g>
<!-- Node2&#45;&gt;Node26 -->
<g id="edge38" class="edge">
<title>Node2&#45;&gt;Node26</title>
<path fill="none" stroke="#191970" d="M466,-380.2967C466,-370.7699 466,-358.3954 466,-348.1306"/>
<polygon fill="#191970" stroke="#191970" points="469.5001,-348.0549 466,-338.055 462.5001,-348.055 469.5001,-348.0549"/>
</g>
<!-- Node27 -->
<g id="node28" class="node">
<title>Node27</title>
<polygon fill="none" stroke="#bfbfbf" points="543.5,-319 543.5,-338 614.5,-338 614.5,-319 543.5,-319"/>
<text text-anchor="middle" x="579" y="-326" font-family="Helvetica,sans-Serif" font-size="10.00" fill="#000000">TQObject.h</text>
</g>
<!-- Node2&#45;&gt;Node27 -->
<g id="edge39" class="edge">
<title>Node2&#45;&gt;Node27</title>
<path fill="none" stroke="#191970" d="M491.3594,-380.4639C510.0631,-369.3741 535.3881,-354.3584 554.005,-343.32"/>
<polygon fill="#191970" stroke="#191970" points="555.9857,-346.2147 562.8023,-338.1039 552.4156,-340.1935 555.9857,-346.2147"/>
</g>
<!-- Node3&#45;&gt;Node4 -->
<g id="edge4" class="edge">
<title>Node3&#45;&gt;Node4</title>
<path fill="none" stroke="#191970" d="M335.0123,-246.4288C399.2759,-220.0332 528.5731,-160.1324 612,-76 625.4847,-62.4013 635.8749,-43.0625 642.3556,-28.8324"/>
<polygon fill="#191970" stroke="#191970" points="645.6219,-30.0969 646.372,-19.5286 639.1952,-27.3225 645.6219,-30.0969"/>
</g>
<!-- Node5&#45;&gt;Node3 -->
<g id="edge6" class="edge">
<title>Node5&#45;&gt;Node3</title>
<path fill="none" stroke="#191970" d="M171.1315,-313.4639C194.561,-303.7137 225.2828,-290.9289 250.3901,-280.4805"/>
<polygon fill="#191970" stroke="#191970" points="251.8231,-283.6752 259.7109,-276.6017 249.1336,-277.2125 251.8231,-283.6752"/>
</g>
<!-- Node6 -->
<g id="node7" class="node">
<title>Node6</title>
<g id="a_node7"><a xlink:href="../../d0/d35/VisualisationEvent_8h.html" target="_top" xlink:title="EventVisualisationDataConverter\l/VisualisationEvent.h">
<polygon fill="none" stroke="#000000" points="28.5,-246.5 28.5,-276.5 207.5,-276.5 207.5,-246.5 28.5,-246.5"/>
<text text-anchor="start" x="36.5" y="-264.5" font-family="Helvetica,sans-Serif" font-size="10.00" fill="#000000">EventVisualisationDataConverter</text>
<text text-anchor="middle" x="118" y="-253.5" font-family="Helvetica,sans-Serif" font-size="10.00" fill="#000000">/VisualisationEvent.h</text>
</a>
</g>
</g>
<!-- Node5&#45;&gt;Node6 -->
<g id="edge7" class="edge">
<title>Node5&#45;&gt;Node6</title>
<path fill="none" stroke="#191970" d="M131.1424,-313.2967C129.1428,-305.4156 126.6486,-295.5857 124.3721,-286.6135"/>
<polygon fill="#191970" stroke="#191970" points="127.6943,-285.4752 121.8423,-276.6432 120.9093,-287.1968 127.6943,-285.4752"/>
</g>
<!-- Node5&#45;&gt;Node15 -->
<g id="edge22" class="edge">
<title>Node5&#45;&gt;Node15</title>
<path fill="none" stroke="#191970" d="M200.7258,-315.6539C249.1151,-305.8914 316.4035,-291.6785 375,-277 379.0447,-275.9868 383.2444,-274.8798 387.4345,-273.7385"/>
<polygon fill="#191970" stroke="#191970" points="388.4227,-277.0965 397.1167,-271.0413 386.5442,-270.3533 388.4227,-277.0965"/>
</g>
<!-- Node7 -->
<g id="node8" class="node">
<title>Node7</title>
<g id="a_node8"><a xlink:href="../../d0/d40/VisualisationTrack_8h.html" target="_top" xlink:title="EventVisualisationDataConverter\l/VisualisationTrack.h">
<polygon fill="none" stroke="#000000" points="236.5,-112.5 236.5,-142.5 415.5,-142.5 415.5,-112.5 236.5,-112.5"/>
<text text-anchor="start" x="244.5" y="-130.5" font-family="Helvetica,sans-Serif" font-size="10.00" fill="#000000">EventVisualisationDataConverter</text>
<text text-anchor="middle" x="326" y="-119.5" font-family="Helvetica,sans-Serif" font-size="10.00" fill="#000000">/VisualisationTrack.h</text>
</a>
</g>
</g>
<!-- Node6&#45;&gt;Node7 -->
<g id="edge8" class="edge">
<title>Node6&#45;&gt;Node7</title>
<path fill="none" stroke="#191970" d="M205.0019,-246.4962C246.9989,-237.5565 291.414,-225.0234 306,-210 320.6064,-194.9556 325.1548,-171.151 326.3134,-152.9704"/>
<polygon fill="#191970" stroke="#191970" points="329.8184,-152.8773 326.6556,-142.7656 322.8224,-152.6427 329.8184,-152.8773"/>
</g>
<!-- Node10 -->
<g id="node11" class="node">
<title>Node10</title>
<polygon fill="none" stroke="#bfbfbf" points="176.5,-56.5 176.5,-75.5 223.5,-75.5 223.5,-56.5 176.5,-56.5"/>
<text text-anchor="middle" x="200" y="-63.5" font-family="Helvetica,sans-Serif" font-size="10.00" fill="#000000">vector</text>
</g>
<!-- Node6&#45;&gt;Node10 -->
<g id="edge20" class="edge">
<title>Node6&#45;&gt;Node10</title>
<path fill="none" stroke="#191970" d="M105.0121,-246.1455C82.3865,-217.4401 40.8979,-154.6927 71,-112 82.2374,-96.0624 132.036,-81.6631 166.3662,-73.3741"/>
<polygon fill="#191970" stroke="#191970" points="167.529,-76.6963 176.464,-71.0029 165.9287,-69.8817 167.529,-76.6963"/>
</g>
<!-- Node13 -->
<g id="node14" class="node">
<title>Node13</title>
<g id="a_node14"><a xlink:href="../../d5/d20/VisualisationCluster_8h.html" target="_top" xlink:title="EventVisualisationDataConverter\l/VisualisationCluster.h">
<polygon fill="none" stroke="#000000" points="118.5,-179.5 118.5,-209.5 297.5,-209.5 297.5,-179.5 118.5,-179.5"/>
<text text-anchor="start" x="126.5" y="-197.5" font-family="Helvetica,sans-Serif" font-size="10.00" fill="#000000">EventVisualisationDataConverter</text>
<text text-anchor="middle" x="208" y="-186.5" font-family="Helvetica,sans-Serif" font-size="10.00" fill="#000000">/VisualisationCluster.h</text>
</a>
</g>
</g>
<!-- Node6&#45;&gt;Node13 -->
<g id="edge16" class="edge">
<title>Node6&#45;&gt;Node13</title>
<path fill="none" stroke="#191970" d="M138.4224,-246.2967C150.5048,-237.302 165.9972,-225.7687 179.2948,-215.8694"/>
<polygon fill="#191970" stroke="#191970" points="181.7271,-218.4221 187.6584,-209.6432 177.5471,-212.8072 181.7271,-218.4221"/>
</g>
<!-- Node6&#45;&gt;Node14 -->
<g id="edge21" class="edge">
<title>Node6&#45;&gt;Node14</title>
<path fill="none" stroke="#191970" d="M114.9667,-246.2304C113.0268,-236.0113 110.5859,-222.2417 109,-210 106.2392,-188.6884 104.3156,-164.1325 103.193,-147.3895"/>
<polygon fill="#191970" stroke="#191970" points="106.6716,-146.9398 102.5433,-137.1824 99.6857,-147.3846 106.6716,-146.9398"/>
</g>
<!-- Node7&#45;&gt;Node4 -->
<g id="edge12" class="edge">
<title>Node7&#45;&gt;Node4</title>
<path fill="none" stroke="#191970" d="M354.8907,-112.4782C394.9316,-91.6662 462.5796,-56.535 464,-56 516.3557,-36.2788 580.2003,-22.6157 617.8397,-15.5629"/>
<polygon fill="#191970" stroke="#191970" points="618.525,-18.9956 627.7297,-13.7493 617.2624,-12.1104 618.525,-18.9956"/>
</g>
<!-- Node8 -->
<g id="node9" class="node">
<title>Node8</title>
<g id="a_node9"><a xlink:href="../../de/ddf/ConversionConstants_8h.html" target="_top" xlink:title="ConversionConstants.h">
<polygon fill="none" stroke="#000000" points="473.5,-56.5 473.5,-75.5 602.5,-75.5 602.5,-56.5 473.5,-56.5"/>
<text text-anchor="middle" x="538" y="-63.5" font-family="Helvetica,sans-Serif" font-size="10.00" fill="#000000">ConversionConstants.h</text>
</a>
</g>
</g>
<!-- Node7&#45;&gt;Node8 -->
<g id="edge9" class="edge">
<title>Node7&#45;&gt;Node8</title>
<path fill="none" stroke="#191970" d="M377.861,-112.4554C414.0095,-101.9689 461.6405,-88.1515 495.5357,-78.3187"/>
<polygon fill="#191970" stroke="#191970" points="496.5186,-81.6779 505.1475,-75.5303 494.5683,-74.9551 496.5186,-81.6779"/>
</g>
<!-- Node9 -->
<g id="node10" class="node">
<title>Node9</title>
<polygon fill="none" stroke="#bfbfbf" points="367.5,-56.5 367.5,-75.5 416.5,-75.5 416.5,-56.5 367.5,-56.5"/>
<text text-anchor="middle" x="392" y="-63.5" font-family="Helvetica,sans-Serif" font-size="10.00" fill="#000000">iosfwd</text>
</g>
<!-- Node7&#45;&gt;Node9 -->
<g id="edge11" class="edge">
<title>Node7&#45;&gt;Node9</title>
<path fill="none" stroke="#191970" d="M342.3146,-112.2977C351.9533,-103.3163 364.1691,-91.9334 374.0759,-82.702"/>
<polygon fill="#191970" stroke="#191970" points="376.5025,-85.2249 381.4326,-75.8469 371.7304,-80.1036 376.5025,-85.2249"/>
</g>
<!-- Node7&#45;&gt;Node10 -->
<g id="edge13" class="edge">
<title>Node7&#45;&gt;Node10</title>
<path fill="none" stroke="#191970" d="M295.1769,-112.4554C274.8912,-102.554 248.5212,-89.683 228.6838,-80.0004"/>
<polygon fill="#191970" stroke="#191970" points="230.0474,-76.7714 219.5255,-75.5303 226.977,-83.062 230.0474,-76.7714"/>
</g>
<!-- Node11 -->
<g id="node12" class="node">
<title>Node11</title>
<polygon fill="none" stroke="#bfbfbf" points="242,-56.5 242,-75.5 284,-75.5 284,-56.5 242,-56.5"/>
<text text-anchor="middle" x="263" y="-63.5" font-family="Helvetica,sans-Serif" font-size="10.00" fill="#000000">array</text>
</g>
<!-- Node7&#45;&gt;Node11 -->
<g id="edge14" class="edge">
<title>Node7&#45;&gt;Node11</title>
<path fill="none" stroke="#191970" d="M310.427,-112.2977C301.3175,-103.4052 289.7966,-92.1586 280.3909,-82.9769"/>
<polygon fill="#191970" stroke="#191970" points="282.6878,-80.3278 273.0871,-75.8469 277.798,-85.3368 282.6878,-80.3278"/>
</g>
<!-- Node12 -->
<g id="node13" class="node">
<title>Node12</title>
<polygon fill="none" stroke="#bfbfbf" points="302.5,-56.5 302.5,-75.5 349.5,-75.5 349.5,-56.5 302.5,-56.5"/>
<text text-anchor="middle" x="326" y="-63.5" font-family="Helvetica,sans-Serif" font-size="10.00" fill="#000000">cmath</text>
</g>
<!-- Node7&#45;&gt;Node12 -->
<g id="edge15" class="edge">
<title>Node7&#45;&gt;Node12</title>
<path fill="none" stroke="#191970" d="M326,-112.2977C326,-104.3834 326,-94.6043 326,-86.0759"/>
<polygon fill="#191970" stroke="#191970" points="329.5001,-85.8469 326,-75.8469 322.5001,-85.847 329.5001,-85.8469"/>
</g>
<!-- Node8&#45;&gt;Node4 -->
<g id="edge10" class="edge">
<title>Node8&#45;&gt;Node4</title>
<path fill="none" stroke="#191970" d="M557.2535,-56.3733C575.0712,-47.4644 601.7747,-34.1127 621.9594,-24.0203"/>
<polygon fill="#191970" stroke="#191970" points="623.6187,-27.1038 630.9978,-19.5011 620.4882,-20.8428 623.6187,-27.1038"/>
</g>
<!-- Node13&#45;&gt;Node7 -->
<g id="edge17" class="edge">
<title>Node13&#45;&gt;Node7</title>
<path fill="none" stroke="#191970" d="M234.4815,-179.4639C250.9148,-170.1332 272.2427,-158.0232 290.1747,-147.8415"/>
<polygon fill="#191970" stroke="#191970" points="292.2308,-150.699 299.1986,-142.7177 288.7744,-144.6117 292.2308,-150.699"/>
</g>
<!-- Node13&#45;&gt;Node10 -->
<g id="edge18" class="edge">
<title>Node13&#45;&gt;Node10</title>
<path fill="none" stroke="#191970" d="M207.0509,-179.2548C205.6015,-155.9744 202.8365,-111.5607 201.2334,-85.8117"/>
<polygon fill="#191970" stroke="#191970" points="204.7208,-85.499 200.6061,-75.7358 197.7343,-85.934 204.7208,-85.499"/>
</g>
<!-- Node13&#45;&gt;Node14 -->
<g id="edge19" class="edge">
<title>Node13&#45;&gt;Node14</title>
<path fill="none" stroke="#191970" d="M184.2115,-179.4639C166.7465,-168.4247 143.1271,-153.4954 125.6862,-142.4715"/>
<polygon fill="#191970" stroke="#191970" points="127.5173,-139.4883 117.1943,-137.1039 123.7772,-145.4054 127.5173,-139.4883"/>
</g>
<!-- Node17&#45;&gt;Node4 -->
<g id="edge34" class="edge">
<title>Node17&#45;&gt;Node4</title>
<path fill="none" stroke="#191970" d="M740.9832,-318.756C729.0493,-298.9954 702.3038,-252.4706 688,-210 666.522,-146.2278 655.9726,-66.6876 651.9761,-30.108"/>
<polygon fill="#191970" stroke="#191970" points="655.4212,-29.3988 650.9033,-19.8156 648.459,-30.1246 655.4212,-29.3988"/>
</g>
<!-- Node17&#45;&gt;Node18 -->
<g id="edge25" class="edge">
<title>Node17&#45;&gt;Node18</title>
<path fill="none" stroke="#191970" d="M764.3363,-318.9005C784.553,-307.7062 818.1872,-289.0823 841.6424,-276.0947"/>
<polygon fill="#191970" stroke="#191970" points="843.6429,-278.9878 850.6958,-271.0817 840.2519,-272.8639 843.6429,-278.9878"/>
</g>
<!-- Node21 -->
<g id="node22" class="node">
<title>Node21</title>
<polygon fill="none" stroke="#bfbfbf" points="697,-185 697,-204 735,-204 735,-185 697,-185"/>
<text text-anchor="middle" x="716" y="-192" font-family="Helvetica,sans-Serif" font-size="10.00" fill="#000000">map</text>
</g>
<!-- Node17&#45;&gt;Node21 -->
<g id="edge35" class="edge">
<title>Node17&#45;&gt;Node21</title>
<path fill="none" stroke="#191970" d="M744.7706,-318.8631C739.6988,-296.9398 727.2169,-242.9858 720.4817,-213.8727"/>
<polygon fill="#191970" stroke="#191970" points="723.8732,-213.0034 718.2092,-204.0496 717.0533,-214.5812 723.8732,-213.0034"/>
</g>
<!-- Node25 -->
<g id="node26" class="node">
<title>Node25</title>
<g id="a_node26"><a xlink:href="../../da/d86/CCDBTimeStampUtils_8h.html" target="_top" xlink:title="CCDB/CCDBTimeStampUtils.h">
<polygon fill="none" stroke="#000000" points="492.5,-252 492.5,-271 655.5,-271 655.5,-252 492.5,-252"/>
<text text-anchor="middle" x="574" y="-259" font-family="Helvetica,sans-Serif" font-size="10.00" fill="#000000">CCDB/CCDBTimeStampUtils.h</text>
</a>
</g>
</g>
<!-- Node17&#45;&gt;Node25 -->
<g id="edge33" class="edge">
<title>Node17&#45;&gt;Node25</title>
<path fill="none" stroke="#191970" d="M722.2133,-318.9005C692.2808,-307.3082 641.7761,-287.7486 608.1645,-274.7313"/>
<polygon fill="#191970" stroke="#191970" points="609.3298,-271.4294 598.7407,-271.0817 606.8018,-277.957 609.3298,-271.4294"/>
</g>
<!-- Node18&#45;&gt;Node4 -->
<g id="edge26" class="edge">
<title>Node18&#45;&gt;Node4</title>
<path fill="none" stroke="#191970" d="M916.2453,-260.0472C989.9266,-256.6985 1125.1177,-245.7217 1155,-210 1163.8402,-199.4322 1163.0494,-190.1819 1155,-179 1097.2898,-98.8311 784.0624,-34.7476 682.0971,-15.754"/>
<polygon fill="#191970" stroke="#191970" points="682.555,-12.2795 672.0861,-13.9082 681.2857,-19.1635 682.555,-12.2795"/>
</g>
<!-- Node19 -->
<g id="node20" class="node">
<title>Node19</title>
<polygon fill="none" stroke="#bfbfbf" points="1010,-185 1010,-204 1068,-204 1068,-185 1010,-185"/>
<text text-anchor="middle" x="1039" y="-192" font-family="Helvetica,sans-Serif" font-size="10.00" fill="#000000">memory</text>
</g>
<!-- Node18&#45;&gt;Node19 -->
<g id="edge27" class="edge">
<title>Node18&#45;&gt;Node19</title>
<path fill="none" stroke="#191970" d="M893.0552,-251.9511C919.8302,-241.7111 963.4944,-224.9092 1001,-210 1002.6387,-209.3486 1004.3157,-208.6783 1006.0083,-207.9987"/>
<polygon fill="#191970" stroke="#191970" points="1007.7557,-211.0676 1015.7149,-204.0745 1005.132,-204.5779 1007.7557,-211.0676"/>
</g>
<!-- Node20 -->
<g id="node21" class="node">
<title>Node20</title>
<polygon fill="none" stroke="#bfbfbf" points="1086,-185 1086,-204 1146,-204 1146,-185 1086,-185"/>
<text text-anchor="middle" x="1116" y="-192" font-family="Helvetica,sans-Serif" font-size="10.00" fill="#000000">iostream</text>
</g>
<!-- Node18&#45;&gt;Node20 -->
<g id="edge28" class="edge">
<title>Node18&#45;&gt;Node20</title>
<path fill="none" stroke="#191970" d="M914.5803,-251.9373C957.2738,-242.7222 1022.0144,-227.6101 1077,-210 1079.2833,-209.2687 1081.624,-208.4694 1083.9696,-207.6315"/>
<polygon fill="#191970" stroke="#191970" points="1085.3769,-210.8416 1093.5052,-204.046 1082.9132,-204.2895 1085.3769,-210.8416"/>
</g>
<!-- Node18&#45;&gt;Node21 -->
<g id="edge29" class="edge">
<title>Node18&#45;&gt;Node21</title>
<path fill="none" stroke="#191970" d="M843.1955,-251.9131C818.1375,-242.0426 778.4542,-225.9005 745,-210 744.1654,-209.6033 743.3203,-209.1948 742.4696,-208.7776"/>
<polygon fill="#191970" stroke="#191970" points="743.8432,-205.549 733.3461,-204.1136 740.657,-211.7818 743.8432,-205.549"/>
</g>
<!-- Node22 -->
<g id="node23" class="node">
<title>Node22</title>
<polygon fill="none" stroke="#bfbfbf" points="753.5,-185 753.5,-204 818.5,-204 818.5,-185 753.5,-185"/>
<text text-anchor="middle" x="786" y="-192" font-family="Helvetica,sans-Serif" font-size="10.00" fill="#000000">curl/curl.h</text>
</g>
<!-- Node18&#45;&gt;Node22 -->
<g id="edge30" class="edge">
<title>Node18&#45;&gt;Node22</title>
<path fill="none" stroke="#191970" d="M856.2514,-251.9005C843.0989,-241.1539 821.5664,-223.5603 805.8017,-210.6794"/>
<polygon fill="#191970" stroke="#191970" points="807.6852,-207.6986 797.7268,-204.0817 803.2561,-213.1193 807.6852,-207.6986"/>
</g>
<!-- Node23 -->
<g id="node24" class="node">
<title>Node23</title>
<polygon fill="none" stroke="#bfbfbf" points="836.5,-185 836.5,-204 899.5,-204 899.5,-185 836.5,-185"/>
<text text-anchor="middle" x="868" y="-192" font-family="Helvetica,sans-Serif" font-size="10.00" fill="#000000">TObject.h</text>
</g>
<!-- Node18&#45;&gt;Node23 -->
<g id="edge31" class="edge">
<title>Node18&#45;&gt;Node23</title>
<path fill="none" stroke="#191970" d="M868,-251.9005C868,-242.149 868,-226.7597 868,-214.3695"/>
<polygon fill="#191970" stroke="#191970" points="871.5001,-214.0816 868,-204.0817 864.5001,-214.0817 871.5001,-214.0816"/>
</g>
<!-- Node24 -->
<g id="node25" class="node">
<title>Node24</title>
<polygon fill="none" stroke="#bfbfbf" points="918,-185 918,-204 992,-204 992,-185 918,-185"/>
<text text-anchor="middle" x="955" y="-192" font-family="Helvetica,sans-Serif" font-size="10.00" fill="#000000">TMessage.h</text>
</g>
<!-- Node18&#45;&gt;Node24 -->
<g id="edge32" class="edge">
<title>Node18&#45;&gt;Node24</title>
<path fill="none" stroke="#191970" d="M880.465,-251.9005C894.5487,-241.0544 917.6888,-223.2339 934.4539,-210.3229"/>
<polygon fill="#191970" stroke="#191970" points="936.7708,-212.9562 942.5581,-204.0817 932.4997,-207.4102 936.7708,-212.9562"/>
</g>
<!-- Node28&#45;&gt;Node29 -->
<g id="edge42" class="edge">
<title>Node28&#45;&gt;Node29</title>
<path fill="none" stroke="#191970" d="M574,-447.2967C574,-437.7699 574,-425.3954 574,-415.1306"/>
<polygon fill="#191970" stroke="#191970" points="577.5001,-415.0549 574,-405.055 570.5001,-415.055 577.5001,-415.0549"/>
</g>
</g>
</svg>
