<?xml version="1.0" encoding="UTF-8" standalone="no"?>
<!DOCTYPE svg PUBLIC "-//W3C//DTD SVG 1.1//EN"
 "http://www.w3.org/Graphics/SVG/1.1/DTD/svg11.dtd">
<!-- Generated by graphviz version 2.40.1 (20161225.0304)
 -->
<!-- Title: /home/travis/build/AliceO2Group/AliceO2/Framework/Core/src/TableBuilder.cxx Pages: 1 -->
<!--zoomable 330 -->
<svg id="main" version="1.1" xmlns="http://www.w3.org/2000/svg" xmlns:xlink="http://www.w3.org/1999/xlink" xml:space="preserve" onload="init(evt)">
<style type="text/css"><![CDATA[
.edge:hover path { stroke: red; }
.edge:hover polygon { stroke: red; fill: red; }
]]></style>
<script type="text/javascript"><![CDATA[
var edges = document.getElementsByTagName('g');
if (edges && edges.length) {
  for (var i=0;i<edges.length;i++) {
    if (edges[i].id.substr(0,4)=='edge') {
      edges[i].setAttribute('class','edge');
    }
  }
}
]]></script>
        <defs>
                <circle id="rim" cx="0" cy="0" r="7"/>
                <circle id="rim2" cx="0" cy="0" r="3.5"/>
                <g id="zoomPlus">
                        <use xlink:href="#rim" fill="#404040">
                                <set attributeName="fill" to="#808080" begin="zoomplus.mouseover" end="zoomplus.mouseout"/>
                        </use>
                        <path d="M-4,0h8M0,-4v8" fill="none" stroke="white" stroke-width="1.5" pointer-events="none"/>
                </g>
                <g id="zoomMin">
                        <use xlink:href="#rim" fill="#404040">
                                <set attributeName="fill" to="#808080" begin="zoomminus.mouseover" end="zoomminus.mouseout"/>
                        </use>
                        <path d="M-4,0h8" fill="none" stroke="white" stroke-width="1.5" pointer-events="none"/>
                </g>
                <g id="dirArrow">
                        <path fill="none" stroke="white" stroke-width="1.5" d="M0,-3.0v7 M-2.5,-0.5L0,-3.0L2.5,-0.5"/>
                </g>
               <g id="resetDef">
                       <use xlink:href="#rim2" fill="#404040">
                               <set attributeName="fill" to="#808080" begin="reset.mouseover" end="reset.mouseout"/>
                       </use>
               </g>
        </defs>

<script type="text/javascript">
var viewWidth = 1804;
var viewHeight = 330;
var sectionId = 'dynsection-0';
</script>
<script xlink:href="../../svgpan.js"/>
<svg id="graph" class="graph">
<g id="viewport">
<title>/home/travis/build/AliceO2Group/AliceO2/Framework/Core/src/TableBuilder.cxx</title>
<!-- Node0 -->
<g id="node1" class="node">
<title>Node0</title>
<polygon fill="#bfbfbf" stroke="#000000" points="1283.0194,-280.5 1283.0194,-321.5 1482.0194,-321.5 1482.0194,-280.5 1283.0194,-280.5"/>
<text text-anchor="start" x="1291.0194" y="-309.5" font-family="Helvetica,sans-Serif" font-size="10.00" fill="#000000">/home/travis/build</text>
<text text-anchor="start" x="1291.0194" y="-298.5" font-family="Helvetica,sans-Serif" font-size="10.00" fill="#000000">/AliceO2Group/AliceO2</text>
<text text-anchor="middle" x="1382.5194" y="-287.5" font-family="Helvetica,sans-Serif" font-size="10.00" fill="#000000">/Framework/Core/src/TableBuilder.cxx</text>
</g>
<!-- Node1 -->
<g id="node2" class="node">
<title>Node1</title>
<g id="a_node2"><a xlink:href="../../d5/d98/TableBuilder_8h.html" target="_top" xlink:title="Framework/TableBuilder.h">
<polygon fill="none" stroke="#000000" points="861.5194,-224.5 861.5194,-243.5 1003.5194,-243.5 1003.5194,-224.5 861.5194,-224.5"/>
<text text-anchor="middle" x="932.5194" y="-231.5" font-family="Helvetica,sans-Serif" font-size="10.00" fill="#000000">Framework/TableBuilder.h</text>
</a>
</g>
</g>
<!-- Node0&#45;&gt;Node1 -->
<g id="edge1" class="edge">
<title>Node0&#45;&gt;Node1</title>
<path fill="none" stroke="#191970" d="M1282.929,-286.1721C1199.3109,-273.7223 1081.7391,-256.2172 1006.3317,-244.9898"/>
<polygon fill="#191970" stroke="#191970" points="1006.843,-241.5275 996.4366,-243.5166 1005.8121,-248.4511 1006.843,-241.5275"/>
</g>
<!-- Node11 -->
<g id="node12" class="node">
<title>Node11</title>
<polygon fill="none" stroke="#bfbfbf" points="1303.0194,-56.5 1303.0194,-75.5 1384.0194,-75.5 1384.0194,-56.5 1303.0194,-56.5"/>
<text text-anchor="middle" x="1343.5194" y="-63.5" font-family="Helvetica,sans-Serif" font-size="10.00" fill="#000000">arrow/table.h</text>
</g>
<!-- Node0&#45;&gt;Node11 -->
<g id="edge39" class="edge">
<title>Node0&#45;&gt;Node11</title>
<path fill="none" stroke="#191970" d="M1383.5517,-280.0689C1384.4373,-253.7001 1384.6215,-207.1036 1377.5194,-168 1372.0941,-138.1284 1359.8381,-105.0406 1351.6211,-84.8816"/>
<polygon fill="#191970" stroke="#191970" points="1354.8309,-83.4848 1347.7499,-75.6037 1348.3706,-86.1803 1354.8309,-83.4848"/>
</g>
<!-- Node17 -->
<g id="node18" class="node">
<title>Node17</title>
<polygon fill="none" stroke="#bfbfbf" points="1226.5194,-56.5 1226.5194,-75.5 1284.5194,-75.5 1284.5194,-56.5 1226.5194,-56.5"/>
<text text-anchor="middle" x="1255.5194" y="-63.5" font-family="Helvetica,sans-Serif" font-size="10.00" fill="#000000">memory</text>
</g>
<!-- Node0&#45;&gt;Node17 -->
<g id="edge35" class="edge">
<title>Node0&#45;&gt;Node17</title>
<path fill="none" stroke="#191970" d="M1379.4627,-280.1044C1374.8579,-252.9614 1364.474,-204.7122 1344.5194,-168 1325.9746,-133.8813 1294.2916,-101.3129 1274.1563,-82.5074"/>
<polygon fill="#191970" stroke="#191970" points="1276.2954,-79.7205 1266.5558,-75.5501 1271.5689,-84.8839 1276.2954,-79.7205"/>
</g>
<!-- Node22 -->
<g id="node23" class="node">
<title>Node22</title>
<polygon fill="none" stroke="#bfbfbf" points="1119.0194,-168.5 1119.0194,-187.5 1228.0194,-187.5 1228.0194,-168.5 1119.0194,-168.5"/>
<text text-anchor="middle" x="1173.5194" y="-175.5" font-family="Helvetica,sans-Serif" font-size="10.00" fill="#000000">arrow/type_traits.h</text>
</g>
<!-- Node0&#45;&gt;Node22 -->
<g id="edge40" class="edge">
<title>Node0&#45;&gt;Node22</title>
<path fill="none" stroke="#191970" d="M1347.5375,-280.4126C1305.3295,-255.5725 1235.43,-214.4354 1198.3702,-192.6251"/>
<polygon fill="#191970" stroke="#191970" points="1200.0861,-189.5738 1189.6926,-187.5182 1196.5357,-195.6066 1200.0861,-189.5738"/>
</g>
<!-- Node23 -->
<g id="node24" class="node">
<title>Node23</title>
<polygon fill="none" stroke="#bfbfbf" points="1246.0194,-168.5 1246.0194,-187.5 1335.0194,-187.5 1335.0194,-168.5 1246.0194,-168.5"/>
<text text-anchor="middle" x="1290.5194" y="-175.5" font-family="Helvetica,sans-Serif" font-size="10.00" fill="#000000">arrow/builder.h</text>
</g>
<!-- Node0&#45;&gt;Node23 -->
<g id="edge36" class="edge">
<title>Node0&#45;&gt;Node23</title>
<path fill="none" stroke="#191970" d="M1367.1207,-280.4126C1349.4071,-256.7303 1320.6138,-218.2348 1303.8312,-195.7972"/>
<polygon fill="#191970" stroke="#191970" points="1306.4311,-193.4296 1297.6387,-187.5182 1300.8256,-197.6224 1306.4311,-193.4296"/>
</g>
<!-- Node26 -->
<g id="node27" class="node">
<title>Node26</title>
<polygon fill="none" stroke="#bfbfbf" points="1429.5194,-224.5 1429.5194,-243.5 1553.5194,-243.5 1553.5194,-224.5 1429.5194,-224.5"/>
<text text-anchor="middle" x="1491.5194" y="-231.5" font-family="Helvetica,sans-Serif" font-size="10.00" fill="#000000">arrow/memory_pool.h</text>
</g>
<!-- Node0&#45;&gt;Node26 -->
<g id="edge37" class="edge">
<title>Node0&#45;&gt;Node26</title>
<path fill="none" stroke="#191970" d="M1416.1124,-280.3511C1432.5852,-270.2256 1452.0615,-258.254 1467.0938,-249.0139"/>
<polygon fill="#191970" stroke="#191970" points="1469.1262,-251.873 1475.8126,-243.6546 1465.4605,-245.9095 1469.1262,-251.873"/>
</g>
<!-- Node27 -->
<g id="node28" class="node">
<title>Node27</title>
<polygon fill="none" stroke="#bfbfbf" points="1572.0194,-224.5 1572.0194,-243.5 1691.0194,-243.5 1691.0194,-224.5 1572.0194,-224.5"/>
<text text-anchor="middle" x="1631.5194" y="-231.5" font-family="Helvetica,sans-Serif" font-size="10.00" fill="#000000">arrow/record_batch.h</text>
</g>
<!-- Node0&#45;&gt;Node27 -->
<g id="edge38" class="edge">
<title>Node0&#45;&gt;Node27</title>
<path fill="none" stroke="#191970" d="M1458.9198,-280.4425C1500.5565,-269.239 1550.6744,-255.7535 1586.1514,-246.2075"/>
<polygon fill="#191970" stroke="#191970" points="1587.4601,-249.4799 1596.2072,-243.5017 1585.6412,-242.7203 1587.4601,-249.4799"/>
</g>
<!-- Node28 -->
<g id="node29" class="node">
<title>Node28</title>
<polygon fill="none" stroke="#bfbfbf" points="1709.5194,-224.5 1709.5194,-243.5 1795.5194,-243.5 1795.5194,-224.5 1709.5194,-224.5"/>
<text text-anchor="middle" x="1752.5194" y="-231.5" font-family="Helvetica,sans-Serif" font-size="10.00" fill="#000000">arrow/status.h</text>
</g>
<!-- Node0&#45;&gt;Node28 -->
<g id="edge41" class="edge">
<title>Node0&#45;&gt;Node28</title>
<path fill="none" stroke="#191970" d="M1482.1234,-283.4793C1542.2612,-272.8217 1620.7088,-258.7808 1699.3122,-244.2086"/>
<polygon fill="#191970" stroke="#191970" points="1700.2041,-247.6029 1709.3972,-242.3362 1698.9262,-240.7205 1700.2041,-247.6029"/>
</g>
<!-- Node2 -->
<g id="node3" class="node">
<title>Node2</title>
<g id="a_node3"><a xlink:href="../../de/d33/ASoA_8h.html" target="_top" xlink:title="Framework/ASoA.h">
<polygon fill="none" stroke="#000000" points="878.5194,-168.5 878.5194,-187.5 986.5194,-187.5 986.5194,-168.5 878.5194,-168.5"/>
<text text-anchor="middle" x="932.5194" y="-175.5" font-family="Helvetica,sans-Serif" font-size="10.00" fill="#000000">Framework/ASoA.h</text>
</a>
</g>
</g>
<!-- Node1&#45;&gt;Node2 -->
<g id="edge2" class="edge">
<title>Node1&#45;&gt;Node2</title>
<path fill="none" stroke="#191970" d="M932.5194,-224.2455C932.5194,-216.9382 932.5194,-206.6944 932.5194,-197.7046"/>
<polygon fill="#191970" stroke="#191970" points="936.0195,-197.6426 932.5194,-187.6427 929.0195,-197.6427 936.0195,-197.6426"/>
</g>
<!-- Node3 -->
<g id="node4" class="node">
<title>Node3</title>
<g id="a_node4"><a xlink:href="../../de/d9b/FunctionalHelpers_8h.html" target="_top" xlink:title="Framework/FunctionalHelpers.h">
<polygon fill="none" stroke="#000000" points="1038.5194,-56.5 1038.5194,-75.5 1208.5194,-75.5 1208.5194,-56.5 1038.5194,-56.5"/>
<text text-anchor="middle" x="1123.5194" y="-63.5" font-family="Helvetica,sans-Serif" font-size="10.00" fill="#000000">Framework/FunctionalHelpers.h</text>
</a>
</g>
</g>
<!-- Node1&#45;&gt;Node3 -->
<g id="edge24" class="edge">
<title>Node1&#45;&gt;Node3</title>
<path fill="none" stroke="#191970" d="M946.6784,-224.4544C959.7136,-215.4835 979.411,-201.4593 995.5194,-188 1037.6389,-152.8073 1083.359,-107.2653 1107.1064,-82.9952"/>
<polygon fill="#191970" stroke="#191970" points="1109.813,-85.2324 1114.2806,-75.6256 1104.7972,-80.3496 1109.813,-85.2324"/>
</g>
<!-- Node4 -->
<g id="node5" class="node">
<title>Node4</title>
<polygon fill="none" stroke="#bfbfbf" points="521.0194,-.5 521.0194,-19.5 586.0194,-19.5 586.0194,-.5 521.0194,-.5"/>
<text text-anchor="middle" x="553.5194" y="-7.5" font-family="Helvetica,sans-Serif" font-size="10.00" fill="#000000">functional</text>
</g>
<!-- Node1&#45;&gt;Node4 -->
<g id="edge30" class="edge">
<title>Node1&#45;&gt;Node4</title>
<path fill="none" stroke="#191970" d="M861.4081,-227.1012C773.3492,-218.458 618.7849,-202.9588 486.5194,-188 267.5529,-163.2356 54.1484,-290.4675 3.5194,-76 1.4772,-67.3489 -2.4983,-62.5421 3.5194,-56 37.6358,-18.9111 387.0842,-11.7153 510.5769,-10.3284"/>
<polygon fill="#191970" stroke="#191970" points="510.8228,-13.8261 520.7855,-10.2213 510.7493,-6.8265 510.8228,-13.8261"/>
</g>
<!-- Node1&#45;&gt;Node11 -->
<g id="edge28" class="edge">
<title>Node1&#45;&gt;Node11</title>
<path fill="none" stroke="#191970" d="M955.7942,-224.4862C1025.0862,-196.1625 1230.1982,-112.3211 1310.6303,-79.4438"/>
<polygon fill="#191970" stroke="#191970" points="1312.3136,-82.5368 1320.2459,-75.5133 1309.665,-76.0573 1312.3136,-82.5368"/>
</g>
<!-- Node16 -->
<g id="node17" class="node">
<title>Node16</title>
<polygon fill="none" stroke="#bfbfbf" points="100.5194,-56.5 100.5194,-75.5 144.5194,-75.5 144.5194,-56.5 100.5194,-56.5"/>
<text text-anchor="middle" x="122.5194" y="-63.5" font-family="Helvetica,sans-Serif" font-size="10.00" fill="#000000">string</text>
</g>
<!-- Node1&#45;&gt;Node16 -->
<g id="edge32" class="edge">
<title>Node1&#45;&gt;Node16</title>
<path fill="none" stroke="#191970" d="M861.456,-227.1901C790.8327,-219.8169 679.6216,-206.5693 584.5194,-188 393.495,-150.7013 345.1482,-131.9214 154.5965,-76.2178"/>
<polygon fill="#191970" stroke="#191970" points="155.4031,-72.8072 144.823,-73.3648 153.4416,-79.5268 155.4031,-72.8072"/>
</g>
<!-- Node1&#45;&gt;Node17 -->
<g id="edge33" class="edge">
<title>Node1&#45;&gt;Node17</title>
<path fill="none" stroke="#191970" d="M950.8108,-224.4862C1004.7594,-196.4263 1163.4687,-113.8778 1227.881,-80.3754"/>
<polygon fill="#191970" stroke="#191970" points="1229.7717,-83.3372 1237.0284,-75.6177 1226.5416,-77.127 1229.7717,-83.3372"/>
</g>
<!-- Node20 -->
<g id="node21" class="node">
<title>Node20</title>
<polygon fill="none" stroke="#bfbfbf" points="593.5194,-168.5 593.5194,-187.5 649.5194,-187.5 649.5194,-168.5 593.5194,-168.5"/>
<text text-anchor="middle" x="621.5194" y="-175.5" font-family="Helvetica,sans-Serif" font-size="10.00" fill="#000000">sstream</text>
</g>
<!-- Node1&#45;&gt;Node20 -->
<g id="edge25" class="edge">
<title>Node1&#45;&gt;Node20</title>
<path fill="none" stroke="#191970" d="M864.6053,-224.4843C811.3347,-216.5884 735.149,-204.3486 659.8642,-188.1369"/>
<polygon fill="#191970" stroke="#191970" points="660.2473,-184.6384 649.7314,-185.9293 658.7571,-191.4779 660.2473,-184.6384"/>
</g>
<!-- Node21 -->
<g id="node22" class="node">
<title>Node21</title>
<polygon fill="none" stroke="#bfbfbf" points="667.5194,-168.5 667.5194,-187.5 735.5194,-187.5 735.5194,-168.5 667.5194,-168.5"/>
<text text-anchor="middle" x="701.5194" y="-175.5" font-family="Helvetica,sans-Serif" font-size="10.00" fill="#000000">arrow/stl.h</text>
</g>
<!-- Node1&#45;&gt;Node21 -->
<g id="edge26" class="edge">
<title>Node1&#45;&gt;Node21</title>
<path fill="none" stroke="#191970" d="M893.0716,-224.4369C852.0337,-214.4883 787.937,-198.9497 745.3445,-188.6243"/>
<polygon fill="#191970" stroke="#191970" points="746.0815,-185.2016 735.5383,-186.247 744.4322,-192.0046 746.0815,-185.2016"/>
</g>
<!-- Node1&#45;&gt;Node22 -->
<g id="edge27" class="edge">
<title>Node1&#45;&gt;Node22</title>
<path fill="none" stroke="#191970" d="M973.675,-224.4369C1014.8336,-214.8731 1078.2245,-200.1432 1122.5436,-189.845"/>
<polygon fill="#191970" stroke="#191970" points="1123.5854,-193.1963 1132.5336,-187.5237 1122.001,-186.3779 1123.5854,-193.1963"/>
</g>
<!-- Node1&#45;&gt;Node23 -->
<g id="edge29" class="edge">
<title>Node1&#45;&gt;Node23</title>
<path fill="none" stroke="#191970" d="M999.6367,-224.4918C1059.0147,-215.932 1148.2681,-202.7059 1235.6568,-188.1023"/>
<polygon fill="#191970" stroke="#191970" points="1236.4679,-191.5152 1245.7505,-186.4079 1235.309,-184.6118 1236.4679,-191.5152"/>
</g>
<!-- Node24 -->
<g id="node25" class="node">
<title>Node24</title>
<polygon fill="none" stroke="#bfbfbf" points="754.0194,-168.5 754.0194,-187.5 801.0194,-187.5 801.0194,-168.5 754.0194,-168.5"/>
<text text-anchor="middle" x="777.5194" y="-175.5" font-family="Helvetica,sans-Serif" font-size="10.00" fill="#000000">vector</text>
</g>
<!-- Node1&#45;&gt;Node24 -->
<g id="edge31" class="edge">
<title>Node1&#45;&gt;Node24</title>
<path fill="none" stroke="#191970" d="M905.874,-224.3733C879.5487,-214.8622 839.2073,-200.2872 810.7909,-190.0207"/>
<polygon fill="#191970" stroke="#191970" points="811.8738,-186.6905 801.2795,-186.5843 809.4952,-193.274 811.8738,-186.6905"/>
</g>
<!-- Node25 -->
<g id="node26" class="node">
<title>Node25</title>
<polygon fill="none" stroke="#bfbfbf" points="819.0194,-168.5 819.0194,-187.5 860.0194,-187.5 860.0194,-168.5 819.0194,-168.5"/>
<text text-anchor="middle" x="839.5194" y="-175.5" font-family="Helvetica,sans-Serif" font-size="10.00" fill="#000000">tuple</text>
</g>
<!-- Node1&#45;&gt;Node25 -->
<g id="edge34" class="edge">
<title>Node1&#45;&gt;Node25</title>
<path fill="none" stroke="#191970" d="M916.3201,-224.2455C901.9177,-215.5731 880.6462,-202.7645 864.1395,-192.825"/>
<polygon fill="#191970" stroke="#191970" points="865.9055,-189.8028 855.5332,-187.6427 862.2945,-195.7996 865.9055,-189.8028"/>
</g>
<!-- Node2&#45;&gt;Node3 -->
<g id="edge3" class="edge">
<title>Node2&#45;&gt;Node3</title>
<path fill="none" stroke="#191970" d="M940.324,-168.1899C952.0432,-154.0314 975.4953,-127.8349 1000.5194,-112 1023.9711,-97.1602 1052.9307,-86.0324 1076.8577,-78.4418"/>
<polygon fill="#191970" stroke="#191970" points="1077.899,-81.7834 1086.4334,-75.5053 1075.8466,-75.091 1077.899,-81.7834"/>
</g>
<!-- Node5 -->
<g id="node6" class="node">
<title>Node5</title>
<g id="a_node6"><a xlink:href="../../d9/de8/CompilerBuiltins_8h.html" target="_top" xlink:title="Framework/CompilerBuiltins.h">
<polygon fill="none" stroke="#000000" points="162.5194,-56.5 162.5194,-75.5 326.5194,-75.5 326.5194,-56.5 162.5194,-56.5"/>
<text text-anchor="middle" x="244.5194" y="-63.5" font-family="Helvetica,sans-Serif" font-size="10.00" fill="#000000">Framework/CompilerBuiltins.h</text>
</a>
</g>
</g>
<!-- Node2&#45;&gt;Node5 -->
<g id="edge5" class="edge">
<title>Node2&#45;&gt;Node5</title>
<path fill="none" stroke="#191970" d="M878.4125,-169.4455C875.0662,-168.9475 871.7479,-168.4619 868.5194,-168 745.6246,-150.4159 714.1078,-151.607 591.5194,-132 488.1333,-115.4643 368.3044,-91.6281 299.9517,-77.5845"/>
<polygon fill="#191970" stroke="#191970" points="300.3418,-74.0914 289.8413,-75.5014 298.9292,-80.9474 300.3418,-74.0914"/>
</g>
<!-- Node6 -->
<g id="node7" class="node">
<title>Node6</title>
<g id="a_node7"><a xlink:href="../../db/d31/Traits_8h.html" target="_top" xlink:title="Framework/Traits.h">
<polygon fill="none" stroke="#000000" points="41.0194,-112.5 41.0194,-131.5 150.0194,-131.5 150.0194,-112.5 41.0194,-112.5"/>
<text text-anchor="middle" x="95.5194" y="-119.5" font-family="Helvetica,sans-Serif" font-size="10.00" fill="#000000">Framework/Traits.h</text>
</a>
</g>
</g>
<!-- Node2&#45;&gt;Node6 -->
<g id="edge6" class="edge">
<title>Node2&#45;&gt;Node6</title>
<path fill="none" stroke="#191970" d="M878.4459,-169.1791C875.0913,-168.7473 871.762,-168.349 868.5194,-168 606.6709,-139.8172 292.9262,-127.8306 160.0382,-123.7557"/>
<polygon fill="#191970" stroke="#191970" points="160.1257,-120.2569 150.0245,-123.4532 159.9142,-127.2537 160.1257,-120.2569"/>
</g>
<!-- Node8 -->
<g id="node9" class="node">
<title>Node8</title>
<g id="a_node9"><a xlink:href="../../d0/d91/Expressions_8h.html" target="_top" xlink:title="Framework/Expressions.h">
<polygon fill="none" stroke="#000000" points="671.0194,-112.5 671.0194,-131.5 812.0194,-131.5 812.0194,-112.5 671.0194,-112.5"/>
<text text-anchor="middle" x="741.5194" y="-119.5" font-family="Helvetica,sans-Serif" font-size="10.00" fill="#000000">Framework/Expressions.h</text>
</a>
</g>
</g>
<!-- Node2&#45;&gt;Node8 -->
<g id="edge8" class="edge">
<title>Node2&#45;&gt;Node8</title>
<path fill="none" stroke="#191970" d="M899.6854,-168.3733C867.65,-158.9807 818.7708,-144.6496 783.834,-134.4064"/>
<polygon fill="#191970" stroke="#191970" points="784.5059,-130.9561 773.9251,-131.5011 782.5364,-137.6733 784.5059,-130.9561"/>
</g>
<!-- Node2&#45;&gt;Node11 -->
<g id="edge20" class="edge">
<title>Node2&#45;&gt;Node11</title>
<path fill="none" stroke="#191970" d="M967.5611,-168.4509C1042.1015,-148.1382 1216.2952,-100.6694 1298.7428,-78.2019"/>
<polygon fill="#191970" stroke="#191970" points="1299.8386,-81.531 1308.5665,-75.5249 1297.9981,-74.7773 1299.8386,-81.531"/>
</g>
<!-- Node12 -->
<g id="node13" class="node">
<title>Node12</title>
<polygon fill="none" stroke="#bfbfbf" points="873.0194,-56.5 873.0194,-75.5 1020.0194,-75.5 1020.0194,-56.5 873.0194,-56.5"/>
<text text-anchor="middle" x="946.5194" y="-63.5" font-family="Helvetica,sans-Serif" font-size="10.00" fill="#000000">gandiva/selection_vector.h</text>
</g>
<!-- Node2&#45;&gt;Node12 -->
<g id="edge22" class="edge">
<title>Node2&#45;&gt;Node12</title>
<path fill="none" stroke="#191970" d="M933.7131,-168.4509C935.9965,-150.184 941.025,-109.9553 944.0572,-85.6976"/>
<polygon fill="#191970" stroke="#191970" points="947.5614,-85.8818 945.3288,-75.5249 940.6154,-85.0135 947.5614,-85.8818"/>
</g>
<!-- Node18 -->
<g id="node19" class="node">
<title>Node18</title>
<polygon fill="none" stroke="#bfbfbf" points="830.5194,-112.5 830.5194,-131.5 910.5194,-131.5 910.5194,-112.5 830.5194,-112.5"/>
<text text-anchor="middle" x="870.5194" y="-119.5" font-family="Helvetica,sans-Serif" font-size="10.00" fill="#000000">arrow/array.h</text>
</g>
<!-- Node2&#45;&gt;Node18 -->
<g id="edge21" class="edge">
<title>Node2&#45;&gt;Node18</title>
<path fill="none" stroke="#191970" d="M921.7199,-168.2455C912.6517,-160.0549 899.4988,-148.1749 888.795,-138.5069"/>
<polygon fill="#191970" stroke="#191970" points="890.9623,-135.7482 881.1953,-131.6427 886.2703,-140.9429 890.9623,-135.7482"/>
</g>
<!-- Node19 -->
<g id="node20" class="node">
<title>Node19</title>
<polygon fill="none" stroke="#bfbfbf" points="600.5194,-112.5 600.5194,-131.5 652.5194,-131.5 652.5194,-112.5 600.5194,-112.5"/>
<text text-anchor="middle" x="626.5194" y="-119.5" font-family="Helvetica,sans-Serif" font-size="10.00" fill="#000000">cassert</text>
</g>
<!-- Node2&#45;&gt;Node19 -->
<g id="edge23" class="edge">
<title>Node2&#45;&gt;Node19</title>
<path fill="none" stroke="#191970" d="M878.5147,-169.5567C815.8756,-159.6449 715.3978,-143.3519 662.6915,-132.0408"/>
<polygon fill="#191970" stroke="#191970" points="663.3333,-128.5981 652.8125,-129.8483 661.8167,-135.4318 663.3333,-128.5981"/>
</g>
<!-- Node3&#45;&gt;Node4 -->
<g id="edge4" class="edge">
<title>Node3&#45;&gt;Node4</title>
<path fill="none" stroke="#191970" d="M1038.3272,-56.9977C1035.0155,-56.6588 1031.737,-56.3251 1028.5194,-56 869.0355,-39.884 679.3066,-21.8536 596.1422,-14.0076"/>
<polygon fill="#191970" stroke="#191970" points="596.3513,-10.5118 586.0669,-13.0577 595.6942,-17.4809 596.3513,-10.5118"/>
</g>
<!-- Node7 -->
<g id="node8" class="node">
<title>Node7</title>
<polygon fill="none" stroke="#bfbfbf" points="13.0194,-56.5 13.0194,-75.5 82.0194,-75.5 82.0194,-56.5 13.0194,-56.5"/>
<text text-anchor="middle" x="47.5194" y="-63.5" font-family="Helvetica,sans-Serif" font-size="10.00" fill="#000000">type_traits</text>
</g>
<!-- Node6&#45;&gt;Node7 -->
<g id="edge7" class="edge">
<title>Node6&#45;&gt;Node7</title>
<path fill="none" stroke="#191970" d="M87.1585,-112.2455C80.3444,-104.2958 70.5514,-92.8706 62.4042,-83.3656"/>
<polygon fill="#191970" stroke="#191970" points="64.9499,-80.9575 55.7846,-75.6427 59.6351,-85.513 64.9499,-80.9575"/>
</g>
<!-- Node8&#45;&gt;Node3 -->
<g id="edge11" class="edge">
<title>Node8&#45;&gt;Node3</title>
<path fill="none" stroke="#191970" d="M806.7535,-112.4369C873.778,-102.6113 977.9972,-87.3331 1048.4181,-77.0096"/>
<polygon fill="#191970" stroke="#191970" points="1049.1678,-80.4372 1058.5544,-75.5237 1048.1525,-73.5112 1049.1678,-80.4372"/>
</g>
<!-- Node8&#45;&gt;Node5 -->
<g id="edge10" class="edge">
<title>Node8&#45;&gt;Node5</title>
<path fill="none" stroke="#191970" d="M670.8559,-113.1107C667.7011,-112.7316 664.5777,-112.3598 661.5194,-112 645.6169,-110.1291 454.7491,-89.1178 336.8268,-76.1483"/>
<polygon fill="#191970" stroke="#191970" points="337.0307,-72.6497 326.708,-75.0354 336.2654,-79.6077 337.0307,-72.6497"/>
</g>
<!-- Node9 -->
<g id="node10" class="node">
<title>Node9</title>
<g id="a_node10"><a xlink:href="../../dd/dc2/BasicOps_8h.html" target="_top" xlink:title="Framework/BasicOps.h">
<polygon fill="none" stroke="#000000" points="344.5194,-56.5 344.5194,-75.5 472.5194,-75.5 472.5194,-56.5 344.5194,-56.5"/>
<text text-anchor="middle" x="408.5194" y="-63.5" font-family="Helvetica,sans-Serif" font-size="10.00" fill="#000000">Framework/BasicOps.h</text>
</a>
</g>
</g>
<!-- Node8&#45;&gt;Node9 -->
<g id="edge9" class="edge">
<title>Node8&#45;&gt;Node9</title>
<path fill="none" stroke="#191970" d="M684.6531,-112.4369C626.5851,-102.6717 536.491,-87.5207 475.1228,-77.2006"/>
<polygon fill="#191970" stroke="#191970" points="475.5933,-73.7306 465.1513,-75.5237 474.4323,-80.6337 475.5933,-73.7306"/>
</g>
<!-- Node10 -->
<g id="node11" class="node">
<title>Node10</title>
<polygon fill="none" stroke="#bfbfbf" points="490.5194,-56.5 490.5194,-75.5 568.5194,-75.5 568.5194,-56.5 490.5194,-56.5"/>
<text text-anchor="middle" x="529.5194" y="-63.5" font-family="Helvetica,sans-Serif" font-size="10.00" fill="#000000">arrow/type.h</text>
</g>
<!-- Node8&#45;&gt;Node10 -->
<g id="edge12" class="edge">
<title>Node8&#45;&gt;Node10</title>
<path fill="none" stroke="#191970" d="M705.0753,-112.3733C669.2125,-102.9001 614.3316,-88.4032 575.4912,-78.1435"/>
<polygon fill="#191970" stroke="#191970" points="576.0503,-74.6712 565.488,-75.5011 574.2625,-81.439 576.0503,-74.6712"/>
</g>
<!-- Node8&#45;&gt;Node11 -->
<g id="edge13" class="edge">
<title>Node8&#45;&gt;Node11</title>
<path fill="none" stroke="#191970" d="M812.1688,-112.9813C815.3275,-112.6372 818.4556,-112.3082 821.5194,-112 1027.5796,-91.2752 1083.3637,-104.2621 1292.8379,-75.9268"/>
<polygon fill="#191970" stroke="#191970" points="1293.497,-79.3693 1302.9302,-74.5459 1292.548,-72.4339 1293.497,-79.3693"/>
</g>
<!-- Node8&#45;&gt;Node12 -->
<g id="edge14" class="edge">
<title>Node8&#45;&gt;Node12</title>
<path fill="none" stroke="#191970" d="M776.7602,-112.3733C811.4389,-102.9001 864.5077,-88.4032 902.0656,-78.1435"/>
<polygon fill="#191970" stroke="#191970" points="903.0143,-81.5126 911.7385,-75.5011 901.1697,-74.7601 903.0143,-81.5126"/>
</g>
<!-- Node13 -->
<g id="node14" class="node">
<title>Node13</title>
<polygon fill="none" stroke="#bfbfbf" points="586.5194,-56.5 586.5194,-75.5 678.5194,-75.5 678.5194,-56.5 586.5194,-56.5"/>
<text text-anchor="middle" x="632.5194" y="-63.5" font-family="Helvetica,sans-Serif" font-size="10.00" fill="#000000">gandiva/node.h</text>
</g>
<!-- Node8&#45;&gt;Node13 -->
<g id="edge15" class="edge">
<title>Node8&#45;&gt;Node13</title>
<path fill="none" stroke="#191970" d="M722.5331,-112.2455C705.3402,-103.4125 679.7957,-90.2887 660.3062,-80.2758"/>
<polygon fill="#191970" stroke="#191970" points="661.7825,-77.0993 651.2882,-75.6427 658.5836,-83.3257 661.7825,-77.0993"/>
</g>
<!-- Node14 -->
<g id="node15" class="node">
<title>Node14</title>
<polygon fill="none" stroke="#bfbfbf" points="697.0194,-56.5 697.0194,-75.5 786.0194,-75.5 786.0194,-56.5 697.0194,-56.5"/>
<text text-anchor="middle" x="741.5194" y="-63.5" font-family="Helvetica,sans-Serif" font-size="10.00" fill="#000000">gandiva/filter.h</text>
</g>
<!-- Node8&#45;&gt;Node14 -->
<g id="edge16" class="edge">
<title>Node8&#45;&gt;Node14</title>
<path fill="none" stroke="#191970" d="M741.5194,-112.2455C741.5194,-104.9382 741.5194,-94.6944 741.5194,-85.7046"/>
<polygon fill="#191970" stroke="#191970" points="745.0195,-85.6426 741.5194,-75.6427 738.0195,-85.6427 745.0195,-85.6426"/>
</g>
<!-- Node15 -->
<g id="node16" class="node">
<title>Node15</title>
<polygon fill="none" stroke="#bfbfbf" points="804.0194,-56.5 804.0194,-75.5 855.0194,-75.5 855.0194,-56.5 804.0194,-56.5"/>
<text text-anchor="middle" x="829.5194" y="-63.5" font-family="Helvetica,sans-Serif" font-size="10.00" fill="#000000">variant</text>
</g>
<!-- Node8&#45;&gt;Node15 -->
<g id="edge17" class="edge">
<title>Node8&#45;&gt;Node15</title>
<path fill="none" stroke="#191970" d="M756.8479,-112.2455C770.3498,-103.6534 790.2316,-91.0014 805.788,-81.1018"/>
<polygon fill="#191970" stroke="#191970" points="807.8091,-83.9643 814.3667,-75.6427 804.051,-78.0587 807.8091,-83.9643"/>
</g>
<!-- Node8&#45;&gt;Node16 -->
<g id="edge18" class="edge">
<title>Node8&#45;&gt;Node16</title>
<path fill="none" stroke="#191970" d="M670.8721,-112.9606C667.7129,-112.6221 664.5841,-112.2999 661.5194,-112 439.5514,-90.2778 377.5388,-118.2155 154.7461,-75.8028"/>
<polygon fill="#191970" stroke="#191970" points="155.1843,-72.3228 144.7022,-73.8642 153.8577,-79.196 155.1843,-72.3228"/>
</g>
<!-- Node8&#45;&gt;Node17 -->
<g id="edge19" class="edge">
<title>Node8&#45;&gt;Node17</title>
<path fill="none" stroke="#191970" d="M812.1746,-113.0371C815.3317,-112.6779 818.4579,-112.3304 821.5194,-112 993.9648,-93.3891 1041.7015,-106.102 1216.1372,-75.995"/>
<polygon fill="#191970" stroke="#191970" points="1216.9204,-79.4112 1226.1681,-74.241 1215.7147,-72.5158 1216.9204,-79.4112"/>
</g>
</g>
</svg>
        <g id="navigator" transform="translate(0 0)" fill="#404254">
                <rect fill="#f2f5e9" fill-opacity="0.5" stroke="#606060" stroke-width=".5" x="0" y="0" width="60" height="60"/>
                <use id="zoomplus" xlink:href="#zoomPlus" x="17" y="9" onmousedown="handleZoom(evt,'in')"/>
                <use id="zoomminus" xlink:href="#zoomMin" x="42" y="9" onmousedown="handleZoom(evt,'out')"/>
                <use id="reset" xlink:href="#resetDef" x="30" y="36" onmousedown="handleReset()"/>
                <g id="arrowUp" xlink:href="#dirArrow" transform="translate(30 24)" onmousedown="handlePan(0,-1)">
                  <use xlink:href="#rim" fill="#404040">
                        <set attributeName="fill" to="#808080" begin="arrowUp.mouseover" end="arrowUp.mouseout"/>
                  </use>
                  <path fill="none" stroke="white" stroke-width="1.5" d="M0,-3.0v7 M-2.5,-0.5L0,-3.0L2.5,-0.5"/>
                </g>
                <g id="arrowRight" xlink:href="#dirArrow" transform="rotate(90) translate(36 -43)" onmousedown="handlePan(1,0)">
                  <use xlink:href="#rim" fill="#404040">
                        <set attributeName="fill" to="#808080" begin="arrowRight.mouseover" end="arrowRight.mouseout"/>
                  </use>
                  <path fill="none" stroke="white" stroke-width="1.5" d="M0,-3.0v7 M-2.5,-0.5L0,-3.0L2.5,-0.5"/>
                </g>
                <g id="arrowDown" xlink:href="#dirArrow" transform="rotate(180) translate(-30 -48)" onmousedown="handlePan(0,1)">
                  <use xlink:href="#rim" fill="#404040">
                        <set attributeName="fill" to="#808080" begin="arrowDown.mouseover" end="arrowDown.mouseout"/>
                  </use>
                  <path fill="none" stroke="white" stroke-width="1.5" d="M0,-3.0v7 M-2.5,-0.5L0,-3.0L2.5,-0.5"/>
                </g>
                <g id="arrowLeft" xlink:href="#dirArrow" transform="rotate(270) translate(-36 17)" onmousedown="handlePan(-1,0)">
                  <use xlink:href="#rim" fill="#404040">
                        <set attributeName="fill" to="#808080" begin="arrowLeft.mouseover" end="arrowLeft.mouseout"/>
                  </use>
                  <path fill="none" stroke="white" stroke-width="1.5" d="M0,-3.0v7 M-2.5,-0.5L0,-3.0L2.5,-0.5"/>
                </g>
        </g>
        <svg viewBox="0 0 15 15" width="100%" height="30px" preserveAspectRatio="xMaxYMin meet">
         <g id="arrow_out" transform="scale(0.3 0.3)">
          <a xlink:href="TableBuilder_8cxx__incl_org.svg" target="_base">
           <rect id="button" ry="5" rx="5" y="6" x="6" height="38" width="38"
                fill="#f2f5e9" fill-opacity="0.5" stroke="#606060" stroke-width="1.0"/>
           <path id="arrow"
             d="M 11.500037,31.436501 C 11.940474,20.09759 22.043105,11.32322 32.158766,21.979434 L 37.068811,17.246167 C 37.068811,17.246167 37.088388,32 37.088388,32 L 22.160133,31.978069 C 22.160133,31.978069 26.997745,27.140456 26.997745,27.140456 C 18.528582,18.264221 13.291696,25.230495 11.500037,31.436501 z"
             style="fill:#404040;"/>
          </a>
         </g>
        </svg>
</svg>
