<?xml version="1.0" encoding="UTF-8" standalone="no"?>
<!DOCTYPE svg PUBLIC "-//W3C//DTD SVG 1.1//EN"
 "http://www.w3.org/Graphics/SVG/1.1/DTD/svg11.dtd">
<!-- Generated by graphviz version 2.40.1 (20161225.0304)
 -->
<!-- Title: /home/travis/build/AliceO2Group/AliceO2/Framework/Core/include/Framework/CompletionPolicyHelpers.h Pages: 1 -->
<svg width="1871pt" height="150pt"
 viewBox="0.00 0.00 1870.50 150.00" xmlns="http://www.w3.org/2000/svg" xmlns:xlink="http://www.w3.org/1999/xlink">
<g id="graph0" class="graph" transform="scale(1 1) rotate(0) translate(4 146)">
<title>/home/travis/build/AliceO2Group/AliceO2/Framework/Core/include/Framework/CompletionPolicyHelpers.h</title>
<!-- Node9 -->
<g id="node1" class="node">
<title>Node9</title>
<polygon fill="#bfbfbf" stroke="#000000" points="886.5,-89.5 886.5,-141.5 1095.5,-141.5 1095.5,-89.5 886.5,-89.5"/>
<text text-anchor="start" x="894.5" y="-129.5" font-family="Helvetica,sans-Serif" font-size="10.00" fill="#000000">/home/travis/build</text>
<text text-anchor="start" x="894.5" y="-118.5" font-family="Helvetica,sans-Serif" font-size="10.00" fill="#000000">/AliceO2Group/AliceO2</text>
<text text-anchor="start" x="894.5" y="-107.5" font-family="Helvetica,sans-Serif" font-size="10.00" fill="#000000">/Framework/Core/include</text>
<text text-anchor="middle" x="991" y="-96.5" font-family="Helvetica,sans-Serif" font-size="10.00" fill="#000000">/Framework/CompletionPolicyHelpers.h</text>
</g>
<!-- Node9&#45;&gt;Node9 -->
<g id="edge1" class="edge">
<title>Node9&#45;&gt;Node9</title>
<path fill="none" stroke="#191970" d="M1105.3144,-125.7496C1110.4813,-123.1463 1113.5,-119.7297 1113.5,-115.5 1113.5,-109.0547 1106.4905,-104.4977 1095.5518,-101.8289"/>
<polygon fill="#191970" stroke="#191970" points="1103.8314,-122.5605 1095.5518,-129.1711 1106.1467,-129.1665 1103.8314,-122.5605"/>
</g>
<!-- Node10 -->
<g id="node2" class="node">
<title>Node10</title>
<g id="a_node2"><a xlink:href="../../da/d6d/CompletionPolicy_8cxx.html" target="_top" xlink:title="/home/travis/build\l/AliceO2Group/AliceO2\l/Framework/Core/src/Completion\lPolicy.cxx">
<polygon fill="none" stroke="#000000" points="0,-.5 0,-52.5 176,-52.5 176,-.5 0,-.5"/>
<text text-anchor="start" x="8" y="-40.5" font-family="Helvetica,sans-Serif" font-size="10.00" fill="#000000">/home/travis/build</text>
<text text-anchor="start" x="8" y="-29.5" font-family="Helvetica,sans-Serif" font-size="10.00" fill="#000000">/AliceO2Group/AliceO2</text>
<text text-anchor="start" x="8" y="-18.5" font-family="Helvetica,sans-Serif" font-size="10.00" fill="#000000">/Framework/Core/src/Completion</text>
<text text-anchor="middle" x="88" y="-7.5" font-family="Helvetica,sans-Serif" font-size="10.00" fill="#000000">Policy.cxx</text>
</a>
</g>
</g>
<!-- Node9&#45;&gt;Node10 -->
<g id="edge2" class="edge">
<title>Node9&#45;&gt;Node10</title>
<path fill="none" stroke="#191970" d="M876.0447,-113.4121C718.9075,-109.0101 428.7234,-95.3484 185,-53 182.076,-52.4919 179.1127,-51.9345 176.128,-51.3365"/>
<polygon fill="#191970" stroke="#191970" points="876.1091,-116.9151 886.2007,-113.6889 876.2998,-109.9177 876.1091,-116.9151"/>
</g>
<!-- Node11 -->
<g id="node3" class="node">
<title>Node11</title>
<g id="a_node3"><a xlink:href="../../da/da3/CompletionPolicyHelpers_8cxx.html" target="_top" xlink:title="/home/travis/build\l/AliceO2Group/AliceO2\l/Framework/Core/src/Completion\lPolicyHelpers.cxx">
<polygon fill="none" stroke="#000000" points="194,-.5 194,-52.5 370,-52.5 370,-.5 194,-.5"/>
<text text-anchor="start" x="202" y="-40.5" font-family="Helvetica,sans-Serif" font-size="10.00" fill="#000000">/home/travis/build</text>
<text text-anchor="start" x="202" y="-29.5" font-family="Helvetica,sans-Serif" font-size="10.00" fill="#000000">/AliceO2Group/AliceO2</text>
<text text-anchor="start" x="202" y="-18.5" font-family="Helvetica,sans-Serif" font-size="10.00" fill="#000000">/Framework/Core/src/Completion</text>
<text text-anchor="middle" x="282" y="-7.5" font-family="Helvetica,sans-Serif" font-size="10.00" fill="#000000">PolicyHelpers.cxx</text>
</a>
</g>
</g>
<!-- Node9&#45;&gt;Node11 -->
<g id="edge3" class="edge">
<title>Node9&#45;&gt;Node11</title>
<path fill="none" stroke="#191970" d="M876.0618,-109.4329C752.4606,-101.5918 550.5688,-84.9706 379,-53 376.0825,-52.4563 373.1247,-51.868 370.1448,-51.2434"/>
<polygon fill="#191970" stroke="#191970" points="876.0988,-112.942 886.2979,-110.0735 876.5361,-105.9557 876.0988,-112.942"/>
</g>
<!-- Node12 -->
<g id="node4" class="node">
<title>Node12</title>
<g id="a_node4"><a xlink:href="../../d0/dd6/DataSampling_8cxx.html" target="_top" xlink:title="Implementation of O2 Data Sampling, v1.0. ">
<polygon fill="none" stroke="#000000" points="388.5,-6 388.5,-47 597.5,-47 597.5,-6 388.5,-6"/>
<text text-anchor="start" x="396.5" y="-35" font-family="Helvetica,sans-Serif" font-size="10.00" fill="#000000">/home/travis/build</text>
<text text-anchor="start" x="396.5" y="-24" font-family="Helvetica,sans-Serif" font-size="10.00" fill="#000000">/AliceO2Group/AliceO2</text>
<text text-anchor="middle" x="493" y="-13" font-family="Helvetica,sans-Serif" font-size="10.00" fill="#000000">/Framework/Core/src/DataSampling.cxx</text>
</a>
</g>
</g>
<!-- Node9&#45;&gt;Node12 -->
<g id="edge4" class="edge">
<title>Node9&#45;&gt;Node12</title>
<path fill="none" stroke="#191970" d="M876.304,-99.0119C799.5558,-87.4562 696.4274,-70.9206 606,-53 596.8089,-51.1785 587.2284,-49.1444 577.7034,-47.0351"/>
<polygon fill="#191970" stroke="#191970" points="876.0698,-102.5159 886.4784,-100.538 877.1082,-95.5933 876.0698,-102.5159"/>
</g>
<!-- Node13 -->
<g id="node5" class="node">
<title>Node13</title>
<g id="a_node5"><a xlink:href="../../d8/dd6/benchmark__DataRelayer_8cxx.html" target="_top" xlink:title="/home/travis/build\l/AliceO2Group/AliceO2\l/Framework/Core/test/benchmark\l_DataRelayer.cxx">
<polygon fill="none" stroke="#000000" points="615.5,-.5 615.5,-52.5 794.5,-52.5 794.5,-.5 615.5,-.5"/>
<text text-anchor="start" x="623.5" y="-40.5" font-family="Helvetica,sans-Serif" font-size="10.00" fill="#000000">/home/travis/build</text>
<text text-anchor="start" x="623.5" y="-29.5" font-family="Helvetica,sans-Serif" font-size="10.00" fill="#000000">/AliceO2Group/AliceO2</text>
<text text-anchor="start" x="623.5" y="-18.5" font-family="Helvetica,sans-Serif" font-size="10.00" fill="#000000">/Framework/Core/test/benchmark</text>
<text text-anchor="middle" x="705" y="-7.5" font-family="Helvetica,sans-Serif" font-size="10.00" fill="#000000">_DataRelayer.cxx</text>
</a>
</g>
</g>
<!-- Node9&#45;&gt;Node13 -->
<g id="edge5" class="edge">
<title>Node9&#45;&gt;Node13</title>
<path fill="none" stroke="#191970" d="M897.3837,-86.3677C862.4016,-75.4816 822.9246,-63.1968 788.8755,-52.6011"/>
<polygon fill="#191970" stroke="#191970" points="896.5347,-89.7689 907.123,-89.3984 898.6146,-83.0851 896.5347,-89.7689"/>
</g>
<!-- Node14 -->
<g id="node6" class="node">
<title>Node14</title>
<g id="a_node6"><a xlink:href="../../df/d93/benchmark__InputRecord_8cxx.html" target="_top" xlink:title="/home/travis/build\l/AliceO2Group/AliceO2\l/Framework/Core/test/benchmark\l_InputRecord.cxx">
<polygon fill="none" stroke="#000000" points="812.5,-.5 812.5,-52.5 991.5,-52.5 991.5,-.5 812.5,-.5"/>
<text text-anchor="start" x="820.5" y="-40.5" font-family="Helvetica,sans-Serif" font-size="10.00" fill="#000000">/home/travis/build</text>
<text text-anchor="start" x="820.5" y="-29.5" font-family="Helvetica,sans-Serif" font-size="10.00" fill="#000000">/AliceO2Group/AliceO2</text>
<text text-anchor="start" x="820.5" y="-18.5" font-family="Helvetica,sans-Serif" font-size="10.00" fill="#000000">/Framework/Core/test/benchmark</text>
<text text-anchor="middle" x="902" y="-7.5" font-family="Helvetica,sans-Serif" font-size="10.00" fill="#000000">_InputRecord.cxx</text>
</a>
</g>
</g>
<!-- Node9&#45;&gt;Node14 -->
<g id="edge6" class="edge">
<title>Node9&#45;&gt;Node14</title>
<path fill="none" stroke="#191970" d="M957.5029,-82.0029C947.7529,-72.2529 937.2511,-61.7511 928.0341,-52.5341"/>
<polygon fill="#191970" stroke="#191970" points="955.2325,-84.6822 964.7784,-89.2784 960.1822,-79.7325 955.2325,-84.6822"/>
</g>
<!-- Node15 -->
<g id="node7" class="node">
<title>Node15</title>
<g id="a_node7"><a xlink:href="../../dc/d6d/test__DataRelayer_8cxx.html" target="_top" xlink:title="/home/travis/build\l/AliceO2Group/AliceO2\l/Framework/Core/test/test\l_DataRelayer.cxx">
<polygon fill="none" stroke="#000000" points="1009.5,-.5 1009.5,-52.5 1152.5,-52.5 1152.5,-.5 1009.5,-.5"/>
<text text-anchor="start" x="1017.5" y="-40.5" font-family="Helvetica,sans-Serif" font-size="10.00" fill="#000000">/home/travis/build</text>
<text text-anchor="start" x="1017.5" y="-29.5" font-family="Helvetica,sans-Serif" font-size="10.00" fill="#000000">/AliceO2Group/AliceO2</text>
<text text-anchor="start" x="1017.5" y="-18.5" font-family="Helvetica,sans-Serif" font-size="10.00" fill="#000000">/Framework/Core/test/test</text>
<text text-anchor="middle" x="1081" y="-7.5" font-family="Helvetica,sans-Serif" font-size="10.00" fill="#000000">_DataRelayer.cxx</text>
</a>
</g>
</g>
<!-- Node9&#45;&gt;Node15 -->
<g id="edge7" class="edge">
<title>Node9&#45;&gt;Node15</title>
<path fill="none" stroke="#191970" d="M1024.8735,-82.0029C1034.733,-72.2529 1045.3528,-61.7511 1054.6733,-52.5341"/>
<polygon fill="#191970" stroke="#191970" points="1022.1657,-79.7583 1017.5162,-89.2784 1027.0877,-84.7356 1022.1657,-79.7583"/>
</g>
<!-- Node16 -->
<g id="node8" class="node">
<title>Node16</title>
<g id="a_node8"><a xlink:href="../../d4/dbb/o2DiamondWorkflow_8cxx.html" target="_top" xlink:title="/home/travis/build\l/AliceO2Group/AliceO2\l/Framework/TestWorkflows\l/src/o2DiamondWorkflow.cxx">
<polygon fill="none" stroke="#000000" points="1171,-.5 1171,-52.5 1329,-52.5 1329,-.5 1171,-.5"/>
<text text-anchor="start" x="1179" y="-40.5" font-family="Helvetica,sans-Serif" font-size="10.00" fill="#000000">/home/travis/build</text>
<text text-anchor="start" x="1179" y="-29.5" font-family="Helvetica,sans-Serif" font-size="10.00" fill="#000000">/AliceO2Group/AliceO2</text>
<text text-anchor="start" x="1179" y="-18.5" font-family="Helvetica,sans-Serif" font-size="10.00" fill="#000000">/Framework/TestWorkflows</text>
<text text-anchor="middle" x="1250" y="-7.5" font-family="Helvetica,sans-Serif" font-size="10.00" fill="#000000">/src/o2DiamondWorkflow.cxx</text>
</a>
</g>
</g>
<!-- Node9&#45;&gt;Node16 -->
<g id="edge8" class="edge">
<title>Node9&#45;&gt;Node16</title>
<path fill="none" stroke="#191970" d="M1076.5916,-86.0882C1108.0688,-75.2717 1143.4717,-63.1062 1174.0428,-52.6011"/>
<polygon fill="#191970" stroke="#191970" points="1075.2783,-82.8386 1066.9585,-89.3984 1077.5532,-89.4586 1075.2783,-82.8386"/>
</g>
<!-- Node17 -->
<g id="node9" class="node">
<title>Node17</title>
<g id="a_node9"><a xlink:href="../../d8/d33/test__CompletionPolicies_8cxx.html" target="_top" xlink:title="/home/travis/build\l/AliceO2Group/AliceO2\l/Framework/TestWorkflows\l/src/test_CompletionPolicies.cxx">
<polygon fill="none" stroke="#000000" points="1347.5,-.5 1347.5,-52.5 1522.5,-52.5 1522.5,-.5 1347.5,-.5"/>
<text text-anchor="start" x="1355.5" y="-40.5" font-family="Helvetica,sans-Serif" font-size="10.00" fill="#000000">/home/travis/build</text>
<text text-anchor="start" x="1355.5" y="-29.5" font-family="Helvetica,sans-Serif" font-size="10.00" fill="#000000">/AliceO2Group/AliceO2</text>
<text text-anchor="start" x="1355.5" y="-18.5" font-family="Helvetica,sans-Serif" font-size="10.00" fill="#000000">/Framework/TestWorkflows</text>
<text text-anchor="middle" x="1435" y="-7.5" font-family="Helvetica,sans-Serif" font-size="10.00" fill="#000000">/src/test_CompletionPolicies.cxx</text>
</a>
</g>
</g>
<!-- Node9&#45;&gt;Node17 -->
<g id="edge9" class="edge">
<title>Node9&#45;&gt;Node17</title>
<path fill="none" stroke="#191970" d="M1105.7439,-97.4548C1173.5944,-86.1328 1261.0352,-70.4086 1338,-53 1341.0649,-52.3067 1344.1784,-51.58 1347.3184,-50.8278"/>
<polygon fill="#191970" stroke="#191970" points="1105.1704,-94.002 1095.8789,-99.0929 1106.3172,-100.9074 1105.1704,-94.002"/>
</g>
<!-- Node18 -->
<g id="node10" class="node">
<title>Node18</title>
<g id="a_node10"><a xlink:href="../../d2/dd7/SimpleDigitizerWorkflow_8cxx.html" target="_top" xlink:title="/home/travis/build\l/AliceO2Group/AliceO2\l/Steer/DigitizerWorkflow\l/src/SimpleDigitizerWorkflow.cxx">
<polygon fill="none" stroke="#000000" points="1541,-.5 1541,-52.5 1717,-52.5 1717,-.5 1541,-.5"/>
<text text-anchor="start" x="1549" y="-40.5" font-family="Helvetica,sans-Serif" font-size="10.00" fill="#000000">/home/travis/build</text>
<text text-anchor="start" x="1549" y="-29.5" font-family="Helvetica,sans-Serif" font-size="10.00" fill="#000000">/AliceO2Group/AliceO2</text>
<text text-anchor="start" x="1549" y="-18.5" font-family="Helvetica,sans-Serif" font-size="10.00" fill="#000000">/Steer/DigitizerWorkflow</text>
<text text-anchor="middle" x="1629" y="-7.5" font-family="Helvetica,sans-Serif" font-size="10.00" fill="#000000">/src/SimpleDigitizerWorkflow.cxx</text>
</a>
</g>
</g>
<!-- Node9&#45;&gt;Node18 -->
<g id="edge10" class="edge">
<title>Node9&#45;&gt;Node18</title>
<path fill="none" stroke="#191970" d="M1105.8095,-107.3175C1215.8527,-98.2805 1386.2781,-81.1541 1532,-53 1534.9139,-52.437 1537.8685,-51.832 1540.8456,-51.1929"/>
<polygon fill="#191970" stroke="#191970" points="1105.3661,-103.8419 1095.6824,-108.1403 1105.933,-110.8189 1105.3661,-103.8419"/>
</g>
<!-- Node19 -->
<g id="node11" class="node">
<title>Node19</title>
<g id="a_node11"><a xlink:href="../../d8/d56/MergerBuilder_8cxx.html" target="_top" xlink:title="Definition of MergerBuilder for O2 Mergers. ">
<polygon fill="none" stroke="#000000" points="1735.5,-.5 1735.5,-52.5 1862.5,-52.5 1862.5,-.5 1735.5,-.5"/>
<text text-anchor="start" x="1743.5" y="-40.5" font-family="Helvetica,sans-Serif" font-size="10.00" fill="#000000">/home/travis/build</text>
<text text-anchor="start" x="1743.5" y="-29.5" font-family="Helvetica,sans-Serif" font-size="10.00" fill="#000000">/AliceO2Group/AliceO2</text>
<text text-anchor="start" x="1743.5" y="-18.5" font-family="Helvetica,sans-Serif" font-size="10.00" fill="#000000">/Utilities/Mergers/src</text>
<text text-anchor="middle" x="1799" y="-7.5" font-family="Helvetica,sans-Serif" font-size="10.00" fill="#000000">/MergerBuilder.cxx</text>
</a>
</g>
</g>
<!-- Node9&#45;&gt;Node19 -->
<g id="edge11" class="edge">
<title>Node9&#45;&gt;Node19</title>
<path fill="none" stroke="#191970" d="M1105.6118,-109.4446C1281.8244,-99.5094 1610.9757,-78.3023 1726,-53 1729.0286,-52.3338 1732.1023,-51.5734 1735.1885,-50.7411"/>
<polygon fill="#191970" stroke="#191970" points="1105.3134,-105.9558 1095.5252,-110.0104 1105.7055,-112.9448 1105.3134,-105.9558"/>
</g>
</g>
</svg>
