<?xml version="1.0" encoding="UTF-8" standalone="no"?>
<!DOCTYPE svg PUBLIC "-//W3C//DTD SVG 1.1//EN"
 "http://www.w3.org/Graphics/SVG/1.1/DTD/svg11.dtd">
<!-- Generated by graphviz version 2.40.1 (20161225.0304)
 -->
<!-- Title: o2::framework::ForwardRoute Pages: 1 -->
<svg width="485pt" height="375pt"
 viewBox="0.00 0.00 484.50 375.00" xmlns="http://www.w3.org/2000/svg" xmlns:xlink="http://www.w3.org/1999/xlink">
<g id="graph0" class="graph" transform="scale(1 1) rotate(0) translate(4 371)">
<title>o2::framework::ForwardRoute</title>
<!-- Node1 -->
<g id="node1" class="node">
<title>Node1</title>
<polygon fill="#bfbfbf" stroke="#000000" points="43,-.5 43,-57.5 204,-57.5 204,-.5 43,-.5"/>
<text text-anchor="middle" x="123.5" y="-45.5" font-family="Helvetica,sans-Serif" font-size="10.00" fill="#000000">o2::framework::ForwardRoute</text>
<polyline fill="none" stroke="#000000" points="43,-38.5 204,-38.5 "/>
<text text-anchor="middle" x="123.5" y="-26.5" font-family="Helvetica,sans-Serif" font-size="10.00" fill="#000000"> </text>
<polyline fill="none" stroke="#000000" points="43,-19.5 204,-19.5 "/>
<text text-anchor="middle" x="123.5" y="-7.5" font-family="Helvetica,sans-Serif" font-size="10.00" fill="#000000"> </text>
</g>
<!-- Node2 -->
<g id="node2" class="node">
<title>Node2</title>
<polygon fill="none" stroke="#bfbfbf" points="0,-144 0,-201 45,-201 45,-144 0,-144"/>
<text text-anchor="middle" x="22.5" y="-189" font-family="Helvetica,sans-Serif" font-size="10.00" fill="#000000">size_t</text>
<polyline fill="none" stroke="#bfbfbf" points="0,-182 45,-182 "/>
<text text-anchor="middle" x="22.5" y="-170" font-family="Helvetica,sans-Serif" font-size="10.00" fill="#000000"> </text>
<polyline fill="none" stroke="#bfbfbf" points="0,-163 45,-163 "/>
<text text-anchor="middle" x="22.5" y="-151" font-family="Helvetica,sans-Serif" font-size="10.00" fill="#000000"> </text>
</g>
<!-- Node2&#45;&gt;Node1 -->
<g id="edge1" class="edge">
<title>Node2&#45;&gt;Node1</title>
<path fill="none" stroke="#404040" d="M15.1957,-143.6089C11.7272,-123.1328 10.734,-95.8773 23.5,-76 26.2989,-71.642 29.6198,-67.6804 33.3214,-64.0801"/>
<polygon fill="none" stroke="#404040" points="33.3856,-64.0263 35.415,-57.1067 42.583,-56.3186 40.5535,-63.2383 33.3856,-64.0263"/>
<text text-anchor="middle" x="66.5" y="-90" font-family="Helvetica,sans-Serif" font-size="10.00" fill="#000000"> +maxTimeslices</text>
<text text-anchor="middle" x="66.5" y="-79" font-family="Helvetica,sans-Serif" font-size="10.00" fill="#000000">+timeslice</text>
</g>
<!-- Node3 -->
<g id="node3" class="node">
<title>Node3</title>
<polygon fill="none" stroke="#bfbfbf" points="123.5,-293 123.5,-350 167.5,-350 167.5,-293 123.5,-293"/>
<text text-anchor="middle" x="145.5" y="-338" font-family="Helvetica,sans-Serif" font-size="10.00" fill="#000000">string</text>
<polyline fill="none" stroke="#bfbfbf" points="123.5,-331 167.5,-331 "/>
<text text-anchor="middle" x="145.5" y="-319" font-family="Helvetica,sans-Serif" font-size="10.00" fill="#000000"> </text>
<polyline fill="none" stroke="#bfbfbf" points="123.5,-312 167.5,-312 "/>
<text text-anchor="middle" x="145.5" y="-300" font-family="Helvetica,sans-Serif" font-size="10.00" fill="#000000"> </text>
</g>
<!-- Node3&#45;&gt;Node1 -->
<g id="edge2" class="edge">
<title>Node3&#45;&gt;Node1</title>
<path fill="none" stroke="#404040" d="M140.7574,-292.8322C137.9191,-274.6046 134.4879,-250.4766 132.5,-229 127.4015,-173.9169 125.1638,-110.0214 124.2005,-69.5614"/>
<polygon fill="none" stroke="#404040" points="124.2001,-69.5383 120.0688,-63.6279 123.9356,-57.5412 128.0669,-63.4516 124.2001,-69.5383"/>
<text text-anchor="middle" x="157.5" y="-170" font-family="Helvetica,sans-Serif" font-size="10.00" fill="#000000"> +channel</text>
</g>
<!-- Node4 -->
<g id="node4" class="node">
<title>Node4</title>
<g id="a_node4"><a xlink:href="../../da/d96/structo2_1_1framework_1_1InputSpec.html" target="_top" xlink:title="{o2::framework::InputSpec\n||+ InputSpec()\l+ InputSpec()\l+ InputSpec()\l+ InputSpec()\l+ InputSpec()\l+ operator==()\l}">
<polygon fill="none" stroke="#000000" points="191.5,-116.5 191.5,-228.5 333.5,-228.5 333.5,-116.5 191.5,-116.5"/>
<text text-anchor="middle" x="262.5" y="-216.5" font-family="Helvetica,sans-Serif" font-size="10.00" fill="#000000">o2::framework::InputSpec</text>
<polyline fill="none" stroke="#000000" points="191.5,-209.5 333.5,-209.5 "/>
<text text-anchor="middle" x="262.5" y="-197.5" font-family="Helvetica,sans-Serif" font-size="10.00" fill="#000000"> </text>
<polyline fill="none" stroke="#000000" points="191.5,-190.5 333.5,-190.5 "/>
<text text-anchor="start" x="199.5" y="-178.5" font-family="Helvetica,sans-Serif" font-size="10.00" fill="#000000">+ InputSpec()</text>
<text text-anchor="start" x="199.5" y="-167.5" font-family="Helvetica,sans-Serif" font-size="10.00" fill="#000000">+ InputSpec()</text>
<text text-anchor="start" x="199.5" y="-156.5" font-family="Helvetica,sans-Serif" font-size="10.00" fill="#000000">+ InputSpec()</text>
<text text-anchor="start" x="199.5" y="-145.5" font-family="Helvetica,sans-Serif" font-size="10.00" fill="#000000">+ InputSpec()</text>
<text text-anchor="start" x="199.5" y="-134.5" font-family="Helvetica,sans-Serif" font-size="10.00" fill="#000000">+ InputSpec()</text>
<text text-anchor="start" x="199.5" y="-123.5" font-family="Helvetica,sans-Serif" font-size="10.00" fill="#000000">+ operator==()</text>
</a>
</g>
</g>
<!-- Node3&#45;&gt;Node4 -->
<g id="edge6" class="edge">
<title>Node3&#45;&gt;Node4</title>
<path fill="none" stroke="#404040" d="M167.5068,-293.4742C179.7385,-277.8972 195.5141,-257.8068 210.6825,-238.4898"/>
<polygon fill="none" stroke="#404040" points="210.8875,-238.2287 211.447,-231.0393 218.2986,-228.7907 217.739,-235.9801 210.8875,-238.2287"/>
<text text-anchor="middle" x="228.5" y="-250" font-family="Helvetica,sans-Serif" font-size="10.00" fill="#000000"> +binding</text>
</g>
<!-- Node4&#45;&gt;Node1 -->
<g id="edge3" class="edge">
<title>Node4&#45;&gt;Node1</title>
<path fill="none" stroke="#404040" d="M207.9625,-116.1969C191.6861,-99.3935 174.2603,-81.4036 159.4894,-66.1546"/>
<polygon fill="none" stroke="#404040" points="159.4772,-66.1419 152.4295,-64.6153 151.1281,-57.5226 158.1758,-59.0492 159.4772,-66.1419"/>
<text text-anchor="middle" x="215.5" y="-84.5" font-family="Helvetica,sans-Serif" font-size="10.00" fill="#000000"> +matcher</text>
</g>
<!-- Node5 -->
<g id="node5" class="node">
<title>Node5</title>
<polygon fill="none" stroke="#bfbfbf" points="206.5,-293 206.5,-350 294.5,-350 294.5,-293 206.5,-293"/>
<text text-anchor="middle" x="250.5" y="-338" font-family="Helvetica,sans-Serif" font-size="10.00" fill="#000000">enum Lifetime</text>
<polyline fill="none" stroke="#bfbfbf" points="206.5,-331 294.5,-331 "/>
<text text-anchor="middle" x="250.5" y="-319" font-family="Helvetica,sans-Serif" font-size="10.00" fill="#000000"> </text>
<polyline fill="none" stroke="#bfbfbf" points="206.5,-312 294.5,-312 "/>
<text text-anchor="middle" x="250.5" y="-300" font-family="Helvetica,sans-Serif" font-size="10.00" fill="#000000"> </text>
</g>
<!-- Node5&#45;&gt;Node4 -->
<g id="edge4" class="edge">
<title>Node5&#45;&gt;Node4</title>
<path fill="none" stroke="#404040" d="M252.8137,-292.7713C254.0092,-277.9277 255.5234,-259.1262 256.9973,-240.825"/>
<polygon fill="none" stroke="#404040" points="257.0181,-240.5662 253.5127,-234.2644 257.9815,-228.6049 261.4869,-234.9067 257.0181,-240.5662"/>
<text text-anchor="middle" x="281.5" y="-250" font-family="Helvetica,sans-Serif" font-size="10.00" fill="#000000"> +lifetime</text>
</g>
<!-- Node6 -->
<g id="node6" class="node">
<title>Node6</title>
<polygon fill="none" stroke="#bfbfbf" points="312.5,-276.5 312.5,-366.5 476.5,-366.5 476.5,-276.5 312.5,-276.5"/>
<text text-anchor="start" x="320.5" y="-354.5" font-family="Helvetica,sans-Serif" font-size="10.00" fill="#000000">variant&lt; o2::framework</text>
<text text-anchor="start" x="320.5" y="-343.5" font-family="Helvetica,sans-Serif" font-size="10.00" fill="#000000">::ConcreteDataMatcher,</text>
<text text-anchor="start" x="320.5" y="-332.5" font-family="Helvetica,sans-Serif" font-size="10.00" fill="#000000"> o2::framework::data_matcher</text>
<text text-anchor="middle" x="394.5" y="-321.5" font-family="Helvetica,sans-Serif" font-size="10.00" fill="#000000">::DataDescriptorMatcher &gt;</text>
<polyline fill="none" stroke="#bfbfbf" points="312.5,-314.5 476.5,-314.5 "/>
<text text-anchor="middle" x="394.5" y="-302.5" font-family="Helvetica,sans-Serif" font-size="10.00" fill="#000000"> </text>
<polyline fill="none" stroke="#bfbfbf" points="312.5,-295.5 476.5,-295.5 "/>
<text text-anchor="middle" x="394.5" y="-283.5" font-family="Helvetica,sans-Serif" font-size="10.00" fill="#000000"> </text>
</g>
<!-- Node6&#45;&gt;Node4 -->
<g id="edge5" class="edge">
<title>Node6&#45;&gt;Node4</title>
<path fill="none" stroke="#404040" d="M354.5374,-276.3907C343.6865,-264.1423 331.7172,-250.6316 320.1009,-237.5191"/>
<polygon fill="none" stroke="#404040" points="320.0906,-237.5076 313.1178,-235.6689 312.1332,-228.5254 319.106,-230.364 320.0906,-237.5076"/>
<text text-anchor="middle" x="362.5" y="-250" font-family="Helvetica,sans-Serif" font-size="10.00" fill="#000000"> +matcher</text>
</g>
</g>
</svg>
