<?xml version="1.0" encoding="UTF-8" standalone="no"?>
<!DOCTYPE svg PUBLIC "-//W3C//DTD SVG 1.1//EN"
 "http://www.w3.org/Graphics/SVG/1.1/DTD/svg11.dtd">
<!-- Generated by graphviz version 2.40.1 (20161225.0304)
 -->
<!-- Title: o2::soa::Index&lt; START, END &gt; Pages: 1 -->
<svg width="458pt" height="408pt"
 viewBox="0.00 0.00 458.00 408.00" xmlns="http://www.w3.org/2000/svg" xmlns:xlink="http://www.w3.org/1999/xlink">
<g id="graph0" class="graph" transform="scale(1 1) rotate(0) translate(4 404)">
<title>o2::soa::Index&lt; START, END &gt;</title>
<!-- Node3 -->
<g id="node1" class="node">
<title>Node3</title>
<polygon fill="#bfbfbf" stroke="#000000" points="204.5,-.5 204.5,-145.5 333.5,-145.5 333.5,-.5 204.5,-.5"/>
<text text-anchor="start" x="212.5" y="-133.5" font-family="Helvetica,sans-Serif" font-size="10.00" fill="#000000">o2::soa::Index&lt; START,</text>
<text text-anchor="middle" x="269" y="-122.5" font-family="Helvetica,sans-Serif" font-size="10.00" fill="#000000"> END &gt;</text>
<polyline fill="none" stroke="#000000" points="204.5,-115.5 333.5,-115.5 "/>
<text text-anchor="middle" x="269" y="-103.5" font-family="Helvetica,sans-Serif" font-size="10.00" fill="#000000"> </text>
<polyline fill="none" stroke="#000000" points="204.5,-96.5 333.5,-96.5 "/>
<text text-anchor="start" x="212.5" y="-84.5" font-family="Helvetica,sans-Serif" font-size="10.00" fill="#000000">+ Index()</text>
<text text-anchor="start" x="212.5" y="-73.5" font-family="Helvetica,sans-Serif" font-size="10.00" fill="#000000">+ Index()</text>
<text text-anchor="start" x="212.5" y="-62.5" font-family="Helvetica,sans-Serif" font-size="10.00" fill="#000000">+ rangeStart()</text>
<text text-anchor="start" x="212.5" y="-51.5" font-family="Helvetica,sans-Serif" font-size="10.00" fill="#000000">+ rangeEnd()</text>
<text text-anchor="start" x="212.5" y="-40.5" font-family="Helvetica,sans-Serif" font-size="10.00" fill="#000000">+ index()</text>
<text text-anchor="start" x="212.5" y="-29.5" font-family="Helvetica,sans-Serif" font-size="10.00" fill="#000000">+ filteredIndex()</text>
<text text-anchor="start" x="212.5" y="-18.5" font-family="Helvetica,sans-Serif" font-size="10.00" fill="#000000">+ index()</text>
<text text-anchor="start" x="212.5" y="-7.5" font-family="Helvetica,sans-Serif" font-size="10.00" fill="#000000">+ setIndices()</text>
</g>
<!-- Node4 -->
<g id="node2" class="node">
<title>Node4</title>
<g id="a_node2"><a xlink:href="../../da/daf/structo2_1_1soa_1_1IndexColumn.html" target="_top" xlink:title="{o2::soa::IndexColumn\l\&lt; Index\&lt; START, END \&gt; \&gt;\n||+ label()\l}">
<polygon fill="none" stroke="#000000" points="0,-215.5 0,-283.5 146,-283.5 146,-215.5 0,-215.5"/>
<text text-anchor="start" x="8" y="-271.5" font-family="Helvetica,sans-Serif" font-size="10.00" fill="#000000">o2::soa::IndexColumn</text>
<text text-anchor="middle" x="73" y="-260.5" font-family="Helvetica,sans-Serif" font-size="10.00" fill="#000000">&lt; Index&lt; START, END &gt; &gt;</text>
<polyline fill="none" stroke="#000000" points="0,-253.5 146,-253.5 "/>
<text text-anchor="middle" x="73" y="-241.5" font-family="Helvetica,sans-Serif" font-size="10.00" fill="#000000"> </text>
<polyline fill="none" stroke="#000000" points="0,-234.5 146,-234.5 "/>
<text text-anchor="start" x="8" y="-222.5" font-family="Helvetica,sans-Serif" font-size="10.00" fill="#000000">+ label()</text>
</a>
</g>
</g>
<!-- Node4&#45;&gt;Node3 -->
<g id="edge1" class="edge">
<title>Node4&#45;&gt;Node3</title>
<path fill="none" stroke="#191970" d="M118.4773,-208.5472C143.9806,-185.5812 176.2197,-156.5496 204.3131,-131.2513"/>
<polygon fill="none" stroke="#191970" points="115.8797,-206.1764 110.7908,-215.469 120.564,-211.3781 115.8797,-206.1764"/>
</g>
<!-- Node5 -->
<g id="node3" class="node">
<title>Node5</title>
<g id="a_node3"><a xlink:href="../../da/daf/structo2_1_1soa_1_1IndexColumn.html" target="_top" xlink:title="{o2::soa::IndexColumn\l\&lt; INHERIT \&gt;\n||+ label()\l}">
<polygon fill="none" stroke="#000000" points="12,-331.5 12,-399.5 134,-399.5 134,-331.5 12,-331.5"/>
<text text-anchor="start" x="20" y="-387.5" font-family="Helvetica,sans-Serif" font-size="10.00" fill="#000000">o2::soa::IndexColumn</text>
<text text-anchor="middle" x="73" y="-376.5" font-family="Helvetica,sans-Serif" font-size="10.00" fill="#000000">&lt; INHERIT &gt;</text>
<polyline fill="none" stroke="#000000" points="12,-369.5 134,-369.5 "/>
<text text-anchor="middle" x="73" y="-357.5" font-family="Helvetica,sans-Serif" font-size="10.00" fill="#000000"> </text>
<polyline fill="none" stroke="#000000" points="12,-350.5 134,-350.5 "/>
<text text-anchor="start" x="20" y="-338.5" font-family="Helvetica,sans-Serif" font-size="10.00" fill="#000000">+ label()</text>
</a>
</g>
</g>
<!-- Node5&#45;&gt;Node4 -->
<g id="edge2" class="edge">
<title>Node5&#45;&gt;Node4</title>
<path fill="none" stroke="#ffa500" d="M73,-321.1851C73,-308.8048 73,-295.5422 73,-283.833"/>
<polygon fill="#ffa500" stroke="#ffa500" points="69.5001,-321.3235 73,-331.3236 76.5001,-321.3236 69.5001,-321.3235"/>
<text text-anchor="middle" x="139.5" y="-305" font-family="Helvetica,sans-Serif" font-size="10.00" fill="#000000"> &lt; Index&lt; START, END &gt; &gt;</text>
</g>
<!-- Node6 -->
<g id="node4" class="node">
<title>Node6</title>
<polygon fill="none" stroke="#bfbfbf" points="164,-215.5 164,-283.5 280,-283.5 280,-215.5 164,-215.5"/>
<text text-anchor="start" x="172" y="-271.5" font-family="Helvetica,sans-Serif" font-size="10.00" fill="#000000">tuple&lt; int64_t const</text>
<text text-anchor="middle" x="222" y="-260.5" font-family="Helvetica,sans-Serif" font-size="10.00" fill="#000000"> *, int64_t const * &gt;</text>
<polyline fill="none" stroke="#bfbfbf" points="164,-253.5 280,-253.5 "/>
<text text-anchor="middle" x="222" y="-241.5" font-family="Helvetica,sans-Serif" font-size="10.00" fill="#000000"> </text>
<polyline fill="none" stroke="#bfbfbf" points="164,-234.5 280,-234.5 "/>
<text text-anchor="middle" x="222" y="-222.5" font-family="Helvetica,sans-Serif" font-size="10.00" fill="#000000"> </text>
</g>
<!-- Node6&#45;&gt;Node3 -->
<g id="edge3" class="edge">
<title>Node6&#45;&gt;Node3</title>
<path fill="none" stroke="#404040" d="M222.7607,-215.3813C223.7297,-199.5569 225.7733,-180.6157 230,-164 230.58,-161.72 231.2095,-159.4236 231.8814,-157.1191"/>
<polygon fill="none" stroke="#404040" points="231.919,-157.0012 229.9302,-150.0697 235.5635,-145.568 237.5523,-152.4994 231.919,-157.0012"/>
<text text-anchor="middle" x="262" y="-178" font-family="Helvetica,sans-Serif" font-size="10.00" fill="#000000"> +rowIndices</text>
</g>
<!-- Node7 -->
<g id="node5" class="node">
<title>Node7</title>
<polygon fill="none" stroke="#bfbfbf" points="298,-221 298,-278 342,-278 342,-221 298,-221"/>
<text text-anchor="middle" x="320" y="-266" font-family="Helvetica,sans-Serif" font-size="10.00" fill="#000000">static</text>
<polyline fill="none" stroke="#bfbfbf" points="298,-259 342,-259 "/>
<text text-anchor="middle" x="320" y="-247" font-family="Helvetica,sans-Serif" font-size="10.00" fill="#000000"> </text>
<polyline fill="none" stroke="#bfbfbf" points="298,-240 342,-240 "/>
<text text-anchor="middle" x="320" y="-228" font-family="Helvetica,sans-Serif" font-size="10.00" fill="#000000"> </text>
</g>
<!-- Node7&#45;&gt;Node3 -->
<g id="edge4" class="edge">
<title>Node7&#45;&gt;Node3</title>
<path fill="none" stroke="#404040" d="M311.6925,-220.7494C306.6459,-203.2845 299.9179,-180.0001 293.298,-157.0903"/>
<polygon fill="none" stroke="#404040" points="293.2919,-157.0688 287.7835,-152.415 289.9607,-145.5404 295.4691,-150.1942 293.2919,-157.0688"/>
<text text-anchor="middle" x="325.5" y="-189" font-family="Helvetica,sans-Serif" font-size="10.00" fill="#000000"> +start</text>
<text text-anchor="middle" x="325.5" y="-178" font-family="Helvetica,sans-Serif" font-size="10.00" fill="#000000">+mLabel</text>
<text text-anchor="middle" x="325.5" y="-167" font-family="Helvetica,sans-Serif" font-size="10.00" fill="#000000">+end</text>
</g>
<!-- Node8 -->
<g id="node6" class="node">
<title>Node8</title>
<polygon fill="none" stroke="#bfbfbf" points="363.5,-221 363.5,-278 404.5,-278 404.5,-221 363.5,-221"/>
<text text-anchor="middle" x="384" y="-266" font-family="Helvetica,sans-Serif" font-size="10.00" fill="#000000">tuple</text>
<polyline fill="none" stroke="#bfbfbf" points="363.5,-259 404.5,-259 "/>
<text text-anchor="middle" x="384" y="-247" font-family="Helvetica,sans-Serif" font-size="10.00" fill="#000000"> </text>
<polyline fill="none" stroke="#bfbfbf" points="363.5,-240 404.5,-240 "/>
<text text-anchor="middle" x="384" y="-228" font-family="Helvetica,sans-Serif" font-size="10.00" fill="#000000"> </text>
</g>
<!-- Node8&#45;&gt;Node3 -->
<g id="edge5" class="edge">
<title>Node8&#45;&gt;Node3</title>
<path fill="none" stroke="#404040" d="M376.3093,-220.9225C370.9565,-203.6873 362.831,-181.7137 352,-164 348.6188,-158.4701 344.8745,-152.9738 340.9007,-147.5809"/>
<polygon fill="none" stroke="#404040" points="340.8466,-147.5105 334.0175,-145.1946 333.5287,-138.0001 340.3578,-140.316 340.8466,-147.5105"/>
<text text-anchor="middle" x="408.5" y="-178" font-family="Helvetica,sans-Serif" font-size="10.00" fill="#000000"> +boundIterators</text>
</g>
</g>
</svg>
