<?xml version="1.0" encoding="UTF-8" standalone="no"?>
<!DOCTYPE svg PUBLIC "-//W3C//DTD SVG 1.1//EN"
 "http://www.w3.org/Graphics/SVG/1.1/DTD/svg11.dtd">
<!-- Generated by graphviz version 2.40.1 (20161225.0304)
 -->
<!-- Title: o2::framework::InputObjectRoute Pages: 1 -->
<svg width="219pt" height="193pt"
 viewBox="0.00 0.00 218.50 193.00" xmlns="http://www.w3.org/2000/svg" xmlns:xlink="http://www.w3.org/1999/xlink">
<g id="graph0" class="graph" transform="scale(1 1) rotate(0) translate(4 189)">
<title>o2::framework::InputObjectRoute</title>
<!-- Node1 -->
<g id="node1" class="node">
<title>Node1</title>
<polygon fill="#bfbfbf" stroke="#000000" points="49.5,-.5 49.5,-68.5 199.5,-68.5 199.5,-.5 49.5,-.5"/>
<text text-anchor="start" x="57.5" y="-56.5" font-family="Helvetica,sans-Serif" font-size="10.00" fill="#000000">o2::framework::InputObject</text>
<text text-anchor="middle" x="124.5" y="-45.5" font-family="Helvetica,sans-Serif" font-size="10.00" fill="#000000">Route</text>
<polyline fill="none" stroke="#000000" points="49.5,-38.5 199.5,-38.5 "/>
<text text-anchor="middle" x="124.5" y="-26.5" font-family="Helvetica,sans-Serif" font-size="10.00" fill="#000000"> </text>
<polyline fill="none" stroke="#000000" points="49.5,-19.5 199.5,-19.5 "/>
<text text-anchor="start" x="57.5" y="-7.5" font-family="Helvetica,sans-Serif" font-size="10.00" fill="#000000">+ operator&lt;()</text>
</g>
<!-- Node2 -->
<g id="node2" class="node">
<title>Node2</title>
<polygon fill="none" stroke="#bfbfbf" points="0,-127.5 0,-184.5 139,-184.5 139,-127.5 0,-127.5"/>
<text text-anchor="middle" x="69.5" y="-172.5" font-family="Helvetica,sans-Serif" font-size="10.00" fill="#000000">OutputObjHandlingPolicy</text>
<polyline fill="none" stroke="#bfbfbf" points="0,-165.5 139,-165.5 "/>
<text text-anchor="middle" x="69.5" y="-153.5" font-family="Helvetica,sans-Serif" font-size="10.00" fill="#000000"> </text>
<polyline fill="none" stroke="#bfbfbf" points="0,-146.5 139,-146.5 "/>
<text text-anchor="middle" x="69.5" y="-134.5" font-family="Helvetica,sans-Serif" font-size="10.00" fill="#000000"> </text>
</g>
<!-- Node2&#45;&gt;Node1 -->
<g id="edge1" class="edge">
<title>Node2&#45;&gt;Node1</title>
<path fill="none" stroke="#404040" d="M82.5342,-127.2062C88.9247,-113.0891 96.7721,-95.7535 103.9449,-79.908"/>
<polygon fill="none" stroke="#404040" points="104.0694,-79.6328 102.8998,-72.5172 109.0182,-68.7007 110.1878,-75.8164 104.0694,-79.6328"/>
<text text-anchor="middle" x="121" y="-95.5" font-family="Helvetica,sans-Serif" font-size="10.00" fill="#000000"> +policy</text>
</g>
<!-- Node3 -->
<g id="node3" class="node">
<title>Node3</title>
<polygon fill="none" stroke="#bfbfbf" points="157.5,-127.5 157.5,-184.5 201.5,-184.5 201.5,-127.5 157.5,-127.5"/>
<text text-anchor="middle" x="179.5" y="-172.5" font-family="Helvetica,sans-Serif" font-size="10.00" fill="#000000">string</text>
<polyline fill="none" stroke="#bfbfbf" points="157.5,-165.5 201.5,-165.5 "/>
<text text-anchor="middle" x="179.5" y="-153.5" font-family="Helvetica,sans-Serif" font-size="10.00" fill="#000000"> </text>
<polyline fill="none" stroke="#bfbfbf" points="157.5,-146.5 201.5,-146.5 "/>
<text text-anchor="middle" x="179.5" y="-134.5" font-family="Helvetica,sans-Serif" font-size="10.00" fill="#000000"> </text>
</g>
<!-- Node3&#45;&gt;Node1 -->
<g id="edge2" class="edge">
<title>Node3&#45;&gt;Node1</title>
<path fill="none" stroke="#404040" d="M166.4658,-127.2062C160.0753,-113.0891 152.2279,-95.7535 145.0551,-79.908"/>
<polygon fill="none" stroke="#404040" points="144.9306,-79.6328 138.8122,-75.8164 139.9818,-68.7007 146.1002,-72.5172 144.9306,-79.6328"/>
<text text-anchor="middle" x="183.5" y="-101" font-family="Helvetica,sans-Serif" font-size="10.00" fill="#000000"> +uniqueId</text>
<text text-anchor="middle" x="183.5" y="-90" font-family="Helvetica,sans-Serif" font-size="10.00" fill="#000000">+directory</text>
</g>
</g>
</svg>
