<?xml version="1.0" encoding="UTF-8" standalone="no"?>
<!DOCTYPE svg PUBLIC "-//W3C//DTD SVG 1.1//EN"
 "http://www.w3.org/Graphics/SVG/1.1/DTD/svg11.dtd">
<!-- Generated by graphviz version 2.40.1 (20161225.0304)
 -->
<!-- Title: GPUCA_NAMESPACE::gpu::GPUTPCNeighboursCleaner::GPUTPCSharedMemory Pages: 1 -->
<svg width="163pt" height="248pt"
 viewBox="0.00 0.00 163.00 248.00" xmlns="http://www.w3.org/2000/svg" xmlns:xlink="http://www.w3.org/1999/xlink">
<g id="graph0" class="graph" transform="scale(1 1) rotate(0) translate(4 244)">
<title>GPUCA_NAMESPACE::gpu::GPUTPCNeighboursCleaner::GPUTPCSharedMemory</title>
<!-- Node1 -->
<g id="node1" class="node">
<title>Node1</title>
<polygon fill="#bfbfbf" stroke="#000000" points="0,-.5 0,-101.5 155,-101.5 155,-.5 0,-.5"/>
<text text-anchor="start" x="8" y="-89.5" font-family="Helvetica,sans-Serif" font-size="10.00" fill="#000000">GPUCA_NAMESPACE::gpu</text>
<text text-anchor="start" x="8" y="-78.5" font-family="Helvetica,sans-Serif" font-size="10.00" fill="#000000">::GPUTPCNeighboursCleaner</text>
<text text-anchor="middle" x="77.5" y="-67.5" font-family="Helvetica,sans-Serif" font-size="10.00" fill="#000000">::GPUTPCSharedMemory</text>
<polyline fill="none" stroke="#000000" points="0,-60.5 155,-60.5 "/>
<text text-anchor="middle" x="77.5" y="-48.5" font-family="Helvetica,sans-Serif" font-size="10.00" fill="#000000"> </text>
<polyline fill="none" stroke="#000000" points="0,-41.5 155,-41.5 "/>
<text text-anchor="start" x="8" y="-29.5" font-family="Helvetica,sans-Serif" font-size="10.00" fill="#000000">+ GPUTPCSharedMemory()</text>
<text text-anchor="start" x="8" y="-18.5" font-family="Helvetica,sans-Serif" font-size="10.00" fill="#000000">+ GPUTPCSharedMemory()</text>
<text text-anchor="start" x="8" y="-7.5" font-family="Helvetica,sans-Serif" font-size="10.00" fill="#000000">+ operator=()</text>
</g>
<!-- Node2 -->
<g id="node2" class="node">
<title>Node2</title>
<polygon fill="none" stroke="#bfbfbf" points="63,-182.5 63,-239.5 92,-239.5 92,-182.5 63,-182.5"/>
<text text-anchor="middle" x="77.5" y="-227.5" font-family="Helvetica,sans-Serif" font-size="10.00" fill="#000000">int</text>
<polyline fill="none" stroke="#bfbfbf" points="63,-220.5 92,-220.5 "/>
<text text-anchor="middle" x="77.5" y="-208.5" font-family="Helvetica,sans-Serif" font-size="10.00" fill="#000000"> </text>
<polyline fill="none" stroke="#bfbfbf" points="63,-201.5 92,-201.5 "/>
<text text-anchor="middle" x="77.5" y="-189.5" font-family="Helvetica,sans-Serif" font-size="10.00" fill="#000000"> </text>
</g>
<!-- Node2&#45;&gt;Node1 -->
<g id="edge1" class="edge">
<title>Node2&#45;&gt;Node1</title>
<path fill="none" stroke="#404040" d="M77.5,-182.3952C77.5,-163.3358 77.5,-137.5272 77.5,-113.8285"/>
<polygon fill="none" stroke="#404040" points="77.5001,-113.6748 73.5,-107.6748 77.5,-101.6748 81.5,-107.6748 77.5001,-113.6748"/>
<text text-anchor="middle" x="105" y="-156" font-family="Helvetica,sans-Serif" font-size="10.00" fill="#000000"> #mNHits</text>
<text text-anchor="middle" x="105" y="-145" font-family="Helvetica,sans-Serif" font-size="10.00" fill="#000000">#mIRow</text>
<text text-anchor="middle" x="105" y="-134" font-family="Helvetica,sans-Serif" font-size="10.00" fill="#000000">#mIRowDn</text>
<text text-anchor="middle" x="105" y="-123" font-family="Helvetica,sans-Serif" font-size="10.00" fill="#000000">#mIRowUp</text>
</g>
</g>
</svg>
