<?xml version="1.0" encoding="UTF-8" standalone="no"?>
<!DOCTYPE svg PUBLIC "-//W3C//DTD SVG 1.1//EN"
 "http://www.w3.org/Graphics/SVG/1.1/DTD/svg11.dtd">
<!-- Generated by graphviz version 2.40.1 (20161225.0304)
 -->
<!-- Title: o2::emcal::CaloRawFitter Pages: 1 -->
<svg width="679pt" height="468pt"
 viewBox="0.00 0.00 679.00 468.00" xmlns="http://www.w3.org/2000/svg" xmlns:xlink="http://www.w3.org/1999/xlink">
<g id="graph0" class="graph" transform="scale(1 1) rotate(0) translate(4 464)">
<title>o2::emcal::CaloRawFitter</title>
<!-- Node2 -->
<g id="node1" class="node">
<title>Node2</title>
<polygon fill="#bfbfbf" stroke="#000000" points="184,-.5 184,-321.5 342,-321.5 342,-.5 184,-.5"/>
<text text-anchor="middle" x="263" y="-309.5" font-family="Helvetica,sans-Serif" font-size="10.00" fill="#000000">o2::emcal::CaloRawFitter</text>
<polyline fill="none" stroke="#000000" points="184,-302.5 342,-302.5 "/>
<text text-anchor="middle" x="263" y="-290.5" font-family="Helvetica,sans-Serif" font-size="10.00" fill="#000000"> </text>
<polyline fill="none" stroke="#000000" points="184,-283.5 342,-283.5 "/>
<text text-anchor="start" x="192" y="-271.5" font-family="Helvetica,sans-Serif" font-size="10.00" fill="#000000">+ CaloRawFitter()</text>
<text text-anchor="start" x="192" y="-260.5" font-family="Helvetica,sans-Serif" font-size="10.00" fill="#000000">+ ~CaloRawFitter()</text>
<text text-anchor="start" x="192" y="-249.5" font-family="Helvetica,sans-Serif" font-size="10.00" fill="#000000">+ preFitEvaluateSamples()</text>
<text text-anchor="start" x="192" y="-238.5" font-family="Helvetica,sans-Serif" font-size="10.00" fill="#000000">+ setTimeConstraint()</text>
<text text-anchor="start" x="192" y="-227.5" font-family="Helvetica,sans-Serif" font-size="10.00" fill="#000000">+ setIsZeroSuppressed()</text>
<text text-anchor="start" x="192" y="-216.5" font-family="Helvetica,sans-Serif" font-size="10.00" fill="#000000">+ setAmpCut()</text>
<text text-anchor="start" x="192" y="-205.5" font-family="Helvetica,sans-Serif" font-size="10.00" fill="#000000">+ setNsamplePed()</text>
<text text-anchor="start" x="192" y="-194.5" font-family="Helvetica,sans-Serif" font-size="10.00" fill="#000000">+ setL1Phase()</text>
<text text-anchor="start" x="192" y="-183.5" font-family="Helvetica,sans-Serif" font-size="10.00" fill="#000000">+ getIsZeroSuppressed()</text>
<text text-anchor="start" x="192" y="-172.5" font-family="Helvetica,sans-Serif" font-size="10.00" fill="#000000">+ getAmpCut()</text>
<text text-anchor="start" x="192" y="-161.5" font-family="Helvetica,sans-Serif" font-size="10.00" fill="#000000">+ getNsamplePed()</text>
<text text-anchor="start" x="192" y="-150.5" font-family="Helvetica,sans-Serif" font-size="10.00" fill="#000000">+ getReversed()</text>
<text text-anchor="start" x="192" y="-139.5" font-family="Helvetica,sans-Serif" font-size="10.00" fill="#000000">+ getAlgoName()</text>
<text text-anchor="start" x="192" y="-128.5" font-family="Helvetica,sans-Serif" font-size="10.00" fill="#000000">+ getAlgoAbbr()</text>
<text text-anchor="start" x="192" y="-117.5" font-family="Helvetica,sans-Serif" font-size="10.00" fill="#000000">+ getAlgo()</text>
<text text-anchor="start" x="192" y="-106.5" font-family="Helvetica,sans-Serif" font-size="10.00" fill="#000000">+ maxAmp()</text>
<text text-anchor="start" x="192" y="-95.5" font-family="Helvetica,sans-Serif" font-size="10.00" fill="#000000">+ maxAmp()</text>
<text text-anchor="start" x="192" y="-84.5" font-family="Helvetica,sans-Serif" font-size="10.00" fill="#000000">+ checkBunchEdgesForMax()</text>
<text text-anchor="start" x="192" y="-73.5" font-family="Helvetica,sans-Serif" font-size="10.00" fill="#000000">+ isInTimeRange()</text>
<text text-anchor="start" x="192" y="-62.5" font-family="Helvetica,sans-Serif" font-size="10.00" fill="#000000">+ reverseAndSubtractPed()</text>
<text text-anchor="start" x="192" y="-51.5" font-family="Helvetica,sans-Serif" font-size="10.00" fill="#000000">+ selectBunch()</text>
<text text-anchor="start" x="192" y="-40.5" font-family="Helvetica,sans-Serif" font-size="10.00" fill="#000000">+ selectSubarray()</text>
<text text-anchor="start" x="192" y="-29.5" font-family="Helvetica,sans-Serif" font-size="10.00" fill="#000000">+ evaluatePedestal()</text>
<text text-anchor="start" x="192" y="-18.5" font-family="Helvetica,sans-Serif" font-size="10.00" fill="#000000">+ calculateChi2()</text>
<text text-anchor="start" x="192" y="-7.5" font-family="Helvetica,sans-Serif" font-size="10.00" fill="#000000"># ClassDefNV()</text>
</g>
<!-- Node3 -->
<g id="node2" class="node">
<title>Node3</title>
<polygon fill="none" stroke="#bfbfbf" points="0,-397 0,-454 50,-454 50,-397 0,-397"/>
<text text-anchor="middle" x="25" y="-442" font-family="Helvetica,sans-Serif" font-size="10.00" fill="#000000">double</text>
<polyline fill="none" stroke="#bfbfbf" points="0,-435 50,-435 "/>
<text text-anchor="middle" x="25" y="-423" font-family="Helvetica,sans-Serif" font-size="10.00" fill="#000000"> </text>
<polyline fill="none" stroke="#bfbfbf" points="0,-416 50,-416 "/>
<text text-anchor="middle" x="25" y="-404" font-family="Helvetica,sans-Serif" font-size="10.00" fill="#000000"> </text>
</g>
<!-- Node3&#45;&gt;Node2 -->
<g id="edge1" class="edge">
<title>Node3&#45;&gt;Node2</title>
<path fill="none" stroke="#404040" d="M33.8307,-396.9325C40.0478,-379.4947 49.4941,-357.3036 62,-340 93.0365,-297.0569 136.0128,-257.0378 174.2629,-225.7773"/>
<polygon fill="none" stroke="#404040" points="174.5361,-225.5569 176.6941,-218.6763 183.8755,-218.022 181.7174,-224.9026 174.5361,-225.5569"/>
<text text-anchor="middle" x="93" y="-359.5" font-family="Helvetica,sans-Serif" font-size="10.00" fill="#000000"> #mL1Phase</text>
<text text-anchor="middle" x="93" y="-348.5" font-family="Helvetica,sans-Serif" font-size="10.00" fill="#000000">#mAmp</text>
</g>
<!-- Node4 -->
<g id="node3" class="node">
<title>Node4</title>
<polygon fill="none" stroke="#bfbfbf" points="70,-397 70,-454 146,-454 146,-397 70,-397"/>
<text text-anchor="middle" x="108" y="-442" font-family="Helvetica,sans-Serif" font-size="10.00" fill="#000000">FitAlgorithm</text>
<polyline fill="none" stroke="#bfbfbf" points="70,-435 146,-435 "/>
<text text-anchor="middle" x="108" y="-423" font-family="Helvetica,sans-Serif" font-size="10.00" fill="#000000"> </text>
<polyline fill="none" stroke="#bfbfbf" points="70,-416 146,-416 "/>
<text text-anchor="middle" x="108" y="-404" font-family="Helvetica,sans-Serif" font-size="10.00" fill="#000000"> </text>
</g>
<!-- Node4&#45;&gt;Node2 -->
<g id="edge2" class="edge">
<title>Node4&#45;&gt;Node2</title>
<path fill="none" stroke="#404040" d="M118.1113,-396.7331C124.4592,-379.828 133.2704,-358.2604 143,-340 153.29,-320.6878 165.1419,-300.8566 177.3049,-281.7516"/>
<polygon fill="none" stroke="#404040" points="177.3905,-281.6186 177.2747,-274.4084 183.8857,-271.5284 184.0015,-278.7386 177.3905,-281.6186"/>
<text text-anchor="middle" x="164.5" y="-354" font-family="Helvetica,sans-Serif" font-size="10.00" fill="#000000"> #mAlgo</text>
</g>
<!-- Node5 -->
<g id="node4" class="node">
<title>Node5</title>
<g id="a_node4"><a xlink:href="../../d4/dc3/classfloat.html" target="_top" xlink:title="{float\n||}">
<polygon fill="none" stroke="#000000" points="164,-397 164,-454 202,-454 202,-397 164,-397"/>
<text text-anchor="middle" x="183" y="-442" font-family="Helvetica,sans-Serif" font-size="10.00" fill="#000000">float</text>
<polyline fill="none" stroke="#000000" points="164,-435 202,-435 "/>
<text text-anchor="middle" x="183" y="-423" font-family="Helvetica,sans-Serif" font-size="10.00" fill="#000000"> </text>
<polyline fill="none" stroke="#000000" points="164,-416 202,-416 "/>
<text text-anchor="middle" x="183" y="-404" font-family="Helvetica,sans-Serif" font-size="10.00" fill="#000000"> </text>
</a>
</g>
</g>
<!-- Node5&#45;&gt;Node2 -->
<g id="edge3" class="edge">
<title>Node5&#45;&gt;Node2</title>
<path fill="none" stroke="#404040" d="M186.7667,-396.7277C189.2723,-380.0119 193.0223,-358.6369 198,-340 198.6079,-337.7241 199.2322,-335.4363 199.8717,-333.1389"/>
<polygon fill="none" stroke="#404040" points="199.8777,-333.1178 197.6886,-326.247 203.1888,-321.5836 205.378,-328.4544 199.8777,-333.1178"/>
<text text-anchor="middle" x="228.5" y="-354" font-family="Helvetica,sans-Serif" font-size="10.00" fill="#000000"> #mAmpCut</text>
</g>
<!-- Node6 -->
<g id="node5" class="node">
<title>Node6</title>
<polygon fill="none" stroke="#bfbfbf" points="248.5,-397 248.5,-454 277.5,-454 277.5,-397 248.5,-397"/>
<text text-anchor="middle" x="263" y="-442" font-family="Helvetica,sans-Serif" font-size="10.00" fill="#000000">int</text>
<polyline fill="none" stroke="#bfbfbf" points="248.5,-435 277.5,-435 "/>
<text text-anchor="middle" x="263" y="-423" font-family="Helvetica,sans-Serif" font-size="10.00" fill="#000000"> </text>
<polyline fill="none" stroke="#bfbfbf" points="248.5,-416 277.5,-416 "/>
<text text-anchor="middle" x="263" y="-404" font-family="Helvetica,sans-Serif" font-size="10.00" fill="#000000"> </text>
</g>
<!-- Node6&#45;&gt;Node2 -->
<g id="edge4" class="edge">
<title>Node6&#45;&gt;Node2</title>
<path fill="none" stroke="#404040" d="M263,-396.9426C263,-380.4118 263,-358.0886 263,-333.7387"/>
<polygon fill="none" stroke="#404040" points="263.0001,-333.6388 259,-327.6388 263,-321.6388 267,-327.6387 263.0001,-333.6388"/>
<text text-anchor="middle" x="310" y="-365" font-family="Helvetica,sans-Serif" font-size="10.00" fill="#000000"> #mMaxTimeIndex</text>
<text text-anchor="middle" x="310" y="-354" font-family="Helvetica,sans-Serif" font-size="10.00" fill="#000000">#mNsamplePed</text>
<text text-anchor="middle" x="310" y="-343" font-family="Helvetica,sans-Serif" font-size="10.00" fill="#000000">#mMinTimeIndex</text>
</g>
<!-- Node7 -->
<g id="node6" class="node">
<title>Node7</title>
<polygon fill="none" stroke="#bfbfbf" points="358,-397 358,-454 402,-454 402,-397 358,-397"/>
<text text-anchor="middle" x="380" y="-442" font-family="Helvetica,sans-Serif" font-size="10.00" fill="#000000">string</text>
<polyline fill="none" stroke="#bfbfbf" points="358,-435 402,-435 "/>
<text text-anchor="middle" x="380" y="-423" font-family="Helvetica,sans-Serif" font-size="10.00" fill="#000000"> </text>
<polyline fill="none" stroke="#bfbfbf" points="358,-416 402,-416 "/>
<text text-anchor="middle" x="380" y="-404" font-family="Helvetica,sans-Serif" font-size="10.00" fill="#000000"> </text>
</g>
<!-- Node7&#45;&gt;Node2 -->
<g id="edge5" class="edge">
<title>Node7&#45;&gt;Node2</title>
<path fill="none" stroke="#404040" d="M374.4063,-396.862C370.6783,-380.0012 365.1478,-358.435 358,-340 354.6465,-331.3509 350.976,-322.5846 347.0893,-313.8169"/>
<polygon fill="none" stroke="#404040" points="347.0131,-313.6486 340.8926,-309.8355 342.0583,-302.7192 348.1788,-306.5323 347.0131,-313.6486"/>
<text text-anchor="middle" x="404.5" y="-359.5" font-family="Helvetica,sans-Serif" font-size="10.00" fill="#000000"> #mName</text>
<text text-anchor="middle" x="404.5" y="-348.5" font-family="Helvetica,sans-Serif" font-size="10.00" fill="#000000">#mNameShort</text>
</g>
<!-- Node8 -->
<g id="node7" class="node">
<title>Node8</title>
<polygon fill="none" stroke="#bfbfbf" points="457,-397 457,-454 495,-454 495,-397 457,-397"/>
<text text-anchor="middle" x="476" y="-442" font-family="Helvetica,sans-Serif" font-size="10.00" fill="#000000">bool</text>
<polyline fill="none" stroke="#bfbfbf" points="457,-435 495,-435 "/>
<text text-anchor="middle" x="476" y="-423" font-family="Helvetica,sans-Serif" font-size="10.00" fill="#000000"> </text>
<polyline fill="none" stroke="#bfbfbf" points="457,-416 495,-416 "/>
<text text-anchor="middle" x="476" y="-404" font-family="Helvetica,sans-Serif" font-size="10.00" fill="#000000"> </text>
</g>
<!-- Node8&#45;&gt;Node2 -->
<g id="edge6" class="edge">
<title>Node8&#45;&gt;Node2</title>
<path fill="none" stroke="#404040" d="M469.0379,-396.7019C464.0308,-379.386 456.1751,-357.4053 445,-340 419.7209,-300.6279 384.3387,-263.2867 351.4856,-232.9975"/>
<polygon fill="none" stroke="#404040" points="351.1769,-232.717 344.0465,-231.6413 342.2969,-224.6456 349.4274,-225.7213 351.1769,-232.717"/>
<text text-anchor="middle" x="511" y="-354" font-family="Helvetica,sans-Serif" font-size="10.00" fill="#000000"> #mIsZerosupressed</text>
</g>
<!-- Node9 -->
<g id="node8" class="node">
<title>Node9</title>
<polygon fill="none" stroke="#bfbfbf" points="531,-391.5 531,-459.5 671,-459.5 671,-391.5 531,-391.5"/>
<text text-anchor="start" x="539" y="-447.5" font-family="Helvetica,sans-Serif" font-size="10.00" fill="#000000">array&lt; double, constants</text>
<text text-anchor="middle" x="601" y="-436.5" font-family="Helvetica,sans-Serif" font-size="10.00" fill="#000000">::EMCAL_MAXTIMEBINS &gt;</text>
<polyline fill="none" stroke="#bfbfbf" points="531,-429.5 671,-429.5 "/>
<text text-anchor="middle" x="601" y="-417.5" font-family="Helvetica,sans-Serif" font-size="10.00" fill="#000000"> </text>
<polyline fill="none" stroke="#bfbfbf" points="531,-410.5 671,-410.5 "/>
<text text-anchor="middle" x="601" y="-398.5" font-family="Helvetica,sans-Serif" font-size="10.00" fill="#000000"> </text>
</g>
<!-- Node9&#45;&gt;Node2 -->
<g id="edge7" class="edge">
<title>Node9&#45;&gt;Node2</title>
<path fill="none" stroke="#404040" d="M592.6551,-391.4951C587.206,-374.5855 578.6927,-354.6816 566,-340 508.5846,-273.5882 420.1659,-225.3363 353.6347,-195.7809"/>
<polygon fill="none" stroke="#404040" points="353.3153,-195.6414 346.2159,-196.9061 342.318,-190.8392 349.4174,-189.5746 353.3153,-195.6414"/>
<text text-anchor="middle" x="618.5" y="-354" font-family="Helvetica,sans-Serif" font-size="10.00" fill="#000000"> #mReversed</text>
</g>
</g>
</svg>
