<?xml version="1.0" encoding="UTF-8" standalone="no"?>
<!DOCTYPE svg PUBLIC "-//W3C//DTD SVG 1.1//EN"
 "http://www.w3.org/Graphics/SVG/1.1/DTD/svg11.dtd">
<!-- Generated by graphviz version 2.40.1 (20161225.0304)
 -->
<!-- Title: /home/travis/build/AliceO2Group/AliceO2/Framework/Core/include/Framework/RootTableBuilderHelpers.h Pages: 1 -->
<svg width="1703pt" height="341pt"
 viewBox="0.00 0.00 1703.00 341.00" xmlns="http://www.w3.org/2000/svg" xmlns:xlink="http://www.w3.org/1999/xlink">
<g id="graph0" class="graph" transform="scale(1 1) rotate(0) translate(4 337)">
<title>/home/travis/build/AliceO2Group/AliceO2/Framework/Core/include/Framework/RootTableBuilderHelpers.h</title>
<!-- Node0 -->
<g id="node1" class="node">
<title>Node0</title>
<polygon fill="#bfbfbf" stroke="#000000" points="1059.5,-280.5 1059.5,-332.5 1264.5,-332.5 1264.5,-280.5 1059.5,-280.5"/>
<text text-anchor="start" x="1067.5" y="-320.5" font-family="Helvetica,sans-Serif" font-size="10.00" fill="#000000">/home/travis/build</text>
<text text-anchor="start" x="1067.5" y="-309.5" font-family="Helvetica,sans-Serif" font-size="10.00" fill="#000000">/AliceO2Group/AliceO2</text>
<text text-anchor="start" x="1067.5" y="-298.5" font-family="Helvetica,sans-Serif" font-size="10.00" fill="#000000">/Framework/Core/include</text>
<text text-anchor="middle" x="1162" y="-287.5" font-family="Helvetica,sans-Serif" font-size="10.00" fill="#000000">/Framework/RootTableBuilderHelpers.h</text>
</g>
<!-- Node1 -->
<g id="node2" class="node">
<title>Node1</title>
<g id="a_node2"><a xlink:href="../../d5/d98/TableBuilder_8h.html" target="_top" xlink:title="Framework/TableBuilder.h">
<polygon fill="none" stroke="#000000" points="825,-224.5 825,-243.5 967,-243.5 967,-224.5 825,-224.5"/>
<text text-anchor="middle" x="896" y="-231.5" font-family="Helvetica,sans-Serif" font-size="10.00" fill="#000000">Framework/TableBuilder.h</text>
</a>
</g>
</g>
<!-- Node0&#45;&gt;Node1 -->
<g id="edge1" class="edge">
<title>Node0&#45;&gt;Node1</title>
<path fill="none" stroke="#191970" d="M1066.3437,-280.4283C1023.5059,-268.7525 975.0435,-255.5438 940.7931,-246.2086"/>
<polygon fill="#191970" stroke="#191970" points="941.6532,-242.8155 931.0848,-243.5626 939.8124,-249.5691 941.6532,-242.8155"/>
</g>
<!-- Node11 -->
<g id="node12" class="node">
<title>Node11</title>
<polygon fill="none" stroke="#bfbfbf" points="1290.5,-56.5 1290.5,-75.5 1371.5,-75.5 1371.5,-56.5 1290.5,-56.5"/>
<text text-anchor="middle" x="1331" y="-63.5" font-family="Helvetica,sans-Serif" font-size="10.00" fill="#000000">arrow/table.h</text>
</g>
<!-- Node0&#45;&gt;Node11 -->
<g id="edge37" class="edge">
<title>Node0&#45;&gt;Node11</title>
<path fill="none" stroke="#191970" d="M1212.2199,-280.369C1246.1529,-259.9442 1288.8427,-228.2804 1312,-188 1330.5297,-155.7689 1332.6729,-111.2132 1332.128,-85.8263"/>
<polygon fill="#191970" stroke="#191970" points="1335.6175,-85.4829 1331.7376,-75.624 1328.6226,-85.7506 1335.6175,-85.4829"/>
</g>
<!-- Node16 -->
<g id="node17" class="node">
<title>Node16</title>
<polygon fill="none" stroke="#bfbfbf" points="0,-56.5 0,-75.5 44,-75.5 44,-56.5 0,-56.5"/>
<text text-anchor="middle" x="22" y="-63.5" font-family="Helvetica,sans-Serif" font-size="10.00" fill="#000000">string</text>
</g>
<!-- Node0&#45;&gt;Node16 -->
<g id="edge43" class="edge">
<title>Node0&#45;&gt;Node16</title>
<path fill="none" stroke="#191970" d="M1059.4444,-303.2669C863.3625,-296.3913 442.2268,-278.0888 301,-244 239.0513,-229.0471 223.4299,-221.1454 169,-188 117.4017,-156.579 64.8066,-108.1044 38.7574,-82.7536"/>
<polygon fill="#191970" stroke="#191970" points="41.1405,-80.1883 31.556,-75.673 36.2328,-85.1798 41.1405,-80.1883"/>
</g>
<!-- Node17 -->
<g id="node18" class="node">
<title>Node17</title>
<polygon fill="none" stroke="#bfbfbf" points="62,-56.5 62,-75.5 120,-75.5 120,-56.5 62,-56.5"/>
<text text-anchor="middle" x="91" y="-63.5" font-family="Helvetica,sans-Serif" font-size="10.00" fill="#000000">memory</text>
</g>
<!-- Node0&#45;&gt;Node17 -->
<g id="edge44" class="edge">
<title>Node0&#45;&gt;Node17</title>
<path fill="none" stroke="#191970" d="M1059.2226,-303.3909C842.5492,-295.3129 346.8538,-268.363 201,-188 155.4187,-162.8855 118.9269,-111.5843 101.7272,-84.1911"/>
<polygon fill="#191970" stroke="#191970" points="104.6661,-82.2882 96.4647,-75.581 98.6934,-85.9387 104.6661,-82.2882"/>
</g>
<!-- Node21 -->
<g id="node22" class="node">
<title>Node21</title>
<polygon fill="none" stroke="#bfbfbf" points="210,-168.5 210,-187.5 278,-187.5 278,-168.5 210,-168.5"/>
<text text-anchor="middle" x="244" y="-175.5" font-family="Helvetica,sans-Serif" font-size="10.00" fill="#000000">arrow/stl.h</text>
</g>
<!-- Node0&#45;&gt;Node21 -->
<g id="edge35" class="edge">
<title>Node0&#45;&gt;Node21</title>
<path fill="none" stroke="#191970" d="M1059.1863,-294.8606C896.0378,-275.8594 568.0457,-235.4944 292,-188 290.7259,-187.7808 289.4341,-187.5524 288.1311,-187.3167"/>
<polygon fill="#191970" stroke="#191970" points="288.51,-183.8261 278.0323,-185.397 287.2027,-190.703 288.51,-183.8261"/>
</g>
<!-- Node22 -->
<g id="node23" class="node">
<title>Node22</title>
<polygon fill="none" stroke="#bfbfbf" points="962.5,-168.5 962.5,-187.5 1071.5,-187.5 1071.5,-168.5 962.5,-168.5"/>
<text text-anchor="middle" x="1017" y="-175.5" font-family="Helvetica,sans-Serif" font-size="10.00" fill="#000000">arrow/type_traits.h</text>
</g>
<!-- Node0&#45;&gt;Node22 -->
<g id="edge36" class="edge">
<title>Node0&#45;&gt;Node22</title>
<path fill="none" stroke="#191970" d="M1132.6571,-280.4961C1103.5126,-254.6681 1059.7388,-215.8754 1035.2518,-194.1748"/>
<polygon fill="#191970" stroke="#191970" points="1037.5413,-191.5272 1027.7358,-187.5142 1032.8985,-196.766 1037.5413,-191.5272"/>
</g>
<!-- Node23 -->
<g id="node24" class="node">
<title>Node23</title>
<polygon fill="none" stroke="#bfbfbf" points="1089.5,-168.5 1089.5,-187.5 1178.5,-187.5 1178.5,-168.5 1089.5,-168.5"/>
<text text-anchor="middle" x="1134" y="-175.5" font-family="Helvetica,sans-Serif" font-size="10.00" fill="#000000">arrow/builder.h</text>
</g>
<!-- Node0&#45;&gt;Node23 -->
<g id="edge38" class="edge">
<title>Node0&#45;&gt;Node23</title>
<path fill="none" stroke="#191970" d="M1156.3338,-280.4961C1150.975,-255.9033 1143.0551,-219.5564 1138.2278,-197.4024"/>
<polygon fill="#191970" stroke="#191970" points="1141.622,-196.5397 1136.0731,-187.5142 1134.7825,-198.0301 1141.622,-196.5397"/>
</g>
<!-- Node24 -->
<g id="node25" class="node">
<title>Node24</title>
<polygon fill="none" stroke="#bfbfbf" points="1196.5,-168.5 1196.5,-187.5 1243.5,-187.5 1243.5,-168.5 1196.5,-168.5"/>
<text text-anchor="middle" x="1220" y="-175.5" font-family="Helvetica,sans-Serif" font-size="10.00" fill="#000000">vector</text>
</g>
<!-- Node0&#45;&gt;Node24 -->
<g id="edge42" class="edge">
<title>Node0&#45;&gt;Node24</title>
<path fill="none" stroke="#191970" d="M1173.7372,-280.4961C1184.9388,-255.6787 1201.5431,-218.8915 1211.5148,-196.799"/>
<polygon fill="#191970" stroke="#191970" points="1214.7817,-198.0686 1215.7057,-187.5142 1208.4015,-195.1888 1214.7817,-198.0686"/>
</g>
<!-- Node25 -->
<g id="node26" class="node">
<title>Node25</title>
<polygon fill="none" stroke="#bfbfbf" points="1261.5,-168.5 1261.5,-187.5 1302.5,-187.5 1302.5,-168.5 1261.5,-168.5"/>
<text text-anchor="middle" x="1282" y="-175.5" font-family="Helvetica,sans-Serif" font-size="10.00" fill="#000000">tuple</text>
</g>
<!-- Node0&#45;&gt;Node25 -->
<g id="edge45" class="edge">
<title>Node0&#45;&gt;Node25</title>
<path fill="none" stroke="#191970" d="M1186.2838,-280.4961C1210.0888,-255.0049 1245.687,-216.8852 1266.094,-195.0326"/>
<polygon fill="#191970" stroke="#191970" points="1268.848,-197.2117 1273.1152,-187.5142 1263.7319,-192.434 1268.848,-197.2117"/>
</g>
<!-- Node26 -->
<g id="node27" class="node">
<title>Node26</title>
<polygon fill="none" stroke="#bfbfbf" points="1350.5,-224.5 1350.5,-243.5 1435.5,-243.5 1435.5,-224.5 1350.5,-224.5"/>
<text text-anchor="middle" x="1393" y="-231.5" font-family="Helvetica,sans-Serif" font-size="10.00" fill="#000000">TTreeReader.h</text>
</g>
<!-- Node0&#45;&gt;Node26 -->
<g id="edge39" class="edge">
<title>Node0&#45;&gt;Node26</title>
<path fill="none" stroke="#191970" d="M1245.0699,-280.4283C1281.7922,-268.9029 1323.274,-255.8837 1352.9457,-246.5711"/>
<polygon fill="#191970" stroke="#191970" points="1354.0386,-249.8965 1362.5316,-243.5626 1351.9424,-243.2178 1354.0386,-249.8965"/>
</g>
<!-- Node27 -->
<g id="node28" class="node">
<title>Node27</title>
<polygon fill="none" stroke="#bfbfbf" points="1453.5,-224.5 1453.5,-243.5 1566.5,-243.5 1566.5,-224.5 1453.5,-224.5"/>
<text text-anchor="middle" x="1510" y="-231.5" font-family="Helvetica,sans-Serif" font-size="10.00" fill="#000000">TTreeReaderValue.h</text>
</g>
<!-- Node0&#45;&gt;Node27 -->
<g id="edge40" class="edge">
<title>Node0&#45;&gt;Node27</title>
<path fill="none" stroke="#191970" d="M1264.5293,-285.1397C1326.5562,-272.2175 1403.249,-256.2398 1454.2371,-245.6173"/>
<polygon fill="#191970" stroke="#191970" points="1455.0041,-249.0327 1464.08,-243.5667 1453.5763,-242.1799 1455.0041,-249.0327"/>
</g>
<!-- Node28 -->
<g id="node29" class="node">
<title>Node28</title>
<polygon fill="none" stroke="#bfbfbf" points="1585,-224.5 1585,-243.5 1695,-243.5 1695,-224.5 1585,-224.5"/>
<text text-anchor="middle" x="1640" y="-231.5" font-family="Helvetica,sans-Serif" font-size="10.00" fill="#000000">TTreeReaderArray.h</text>
</g>
<!-- Node0&#45;&gt;Node28 -->
<g id="edge41" class="edge">
<title>Node0&#45;&gt;Node28</title>
<path fill="none" stroke="#191970" d="M1264.5291,-291.1719C1345.8672,-278.9768 1462.7582,-261.3734 1574.7218,-244.1909"/>
<polygon fill="#191970" stroke="#191970" points="1575.4919,-247.6138 1584.8448,-242.6365 1574.4294,-240.6949 1575.4919,-247.6138"/>
</g>
<!-- Node2 -->
<g id="node3" class="node">
<title>Node2</title>
<g id="a_node3"><a xlink:href="../../de/d33/ASoA_8h.html" target="_top" xlink:title="Framework/ASoA.h">
<polygon fill="none" stroke="#000000" points="760,-168.5 760,-187.5 868,-187.5 868,-168.5 760,-168.5"/>
<text text-anchor="middle" x="814" y="-175.5" font-family="Helvetica,sans-Serif" font-size="10.00" fill="#000000">Framework/ASoA.h</text>
</a>
</g>
</g>
<!-- Node1&#45;&gt;Node2 -->
<g id="edge2" class="edge">
<title>Node1&#45;&gt;Node2</title>
<path fill="none" stroke="#191970" d="M881.7167,-224.2455C869.253,-215.7337 850.9549,-203.2375 836.5208,-193.3801"/>
<polygon fill="#191970" stroke="#191970" points="838.3515,-190.392 828.1196,-187.6427 834.4038,-196.1726 838.3515,-190.392"/>
</g>
<!-- Node3 -->
<g id="node4" class="node">
<title>Node3</title>
<g id="a_node4"><a xlink:href="../../de/d9b/FunctionalHelpers_8h.html" target="_top" xlink:title="Framework/FunctionalHelpers.h">
<polygon fill="none" stroke="#000000" points="138,-56.5 138,-75.5 308,-75.5 308,-56.5 138,-56.5"/>
<text text-anchor="middle" x="223" y="-63.5" font-family="Helvetica,sans-Serif" font-size="10.00" fill="#000000">Framework/FunctionalHelpers.h</text>
</a>
</g>
</g>
<!-- Node1&#45;&gt;Node3 -->
<g id="edge24" class="edge">
<title>Node1&#45;&gt;Node3</title>
<path fill="none" stroke="#191970" d="M845.9789,-224.4766C760.6957,-207.9068 581.9175,-171.7229 433,-132 371.8091,-115.6777 301.843,-92.8312 260.1031,-78.7465"/>
<polygon fill="#191970" stroke="#191970" points="261.2221,-75.4302 250.6277,-75.5359 258.9756,-82.06 261.2221,-75.4302"/>
</g>
<!-- Node4 -->
<g id="node5" class="node">
<title>Node4</title>
<polygon fill="none" stroke="#bfbfbf" points="778.5,-.5 778.5,-19.5 843.5,-19.5 843.5,-.5 778.5,-.5"/>
<text text-anchor="middle" x="811" y="-7.5" font-family="Helvetica,sans-Serif" font-size="10.00" fill="#000000">functional</text>
</g>
<!-- Node1&#45;&gt;Node4 -->
<g id="edge30" class="edge">
<title>Node1&#45;&gt;Node4</title>
<path fill="none" stroke="#191970" d="M901.593,-224.166C910.4868,-209.4815 929.2966,-182.0506 953,-168 1037.5719,-117.8685 1447.6636,-128.2602 1381,-56 1363.1572,-36.6593 983.827,-17.7995 854.0742,-11.8926"/>
<polygon fill="#191970" stroke="#191970" points="853.8844,-8.3805 843.7365,-11.4254 853.5683,-15.3734 853.8844,-8.3805"/>
</g>
<!-- Node1&#45;&gt;Node11 -->
<g id="edge28" class="edge">
<title>Node1&#45;&gt;Node11</title>
<path fill="none" stroke="#191970" d="M896.7216,-224.3643C898.3327,-209.9388 903.5036,-182.8416 920,-168 926.8086,-161.8744 1172.1673,-103.4541 1280.4808,-77.8853"/>
<polygon fill="#191970" stroke="#191970" points="1281.5932,-81.219 1290.5223,-75.5163 1279.9858,-74.406 1281.5932,-81.219"/>
</g>
<!-- Node1&#45;&gt;Node16 -->
<g id="edge32" class="edge">
<title>Node1&#45;&gt;Node16</title>
<path fill="none" stroke="#191970" d="M824.7553,-230.5592C696.7384,-223.9635 432.7819,-208.3691 343,-188 328.1201,-184.6241 131.7154,-108.6115 53.6629,-78.308"/>
<polygon fill="#191970" stroke="#191970" points="54.9097,-75.0376 44.3209,-74.6799 52.3755,-81.5628 54.9097,-75.0376"/>
</g>
<!-- Node1&#45;&gt;Node17 -->
<g id="edge33" class="edge">
<title>Node1&#45;&gt;Node17</title>
<path fill="none" stroke="#191970" d="M824.8134,-231.5272C688.5577,-226.2632 400.9733,-212.3934 363,-188 330.3473,-167.0245 351.5613,-134.5845 320,-112 252.288,-63.5469 215.9478,-92.7085 130.2571,-76.0344"/>
<polygon fill="#191970" stroke="#191970" points="130.9146,-72.5961 120.4078,-73.9594 129.4715,-79.4458 130.9146,-72.5961"/>
</g>
<!-- Node20 -->
<g id="node21" class="node">
<title>Node20</title>
<polygon fill="none" stroke="#bfbfbf" points="372,-168.5 372,-187.5 428,-187.5 428,-168.5 372,-168.5"/>
<text text-anchor="middle" x="400" y="-175.5" font-family="Helvetica,sans-Serif" font-size="10.00" fill="#000000">sstream</text>
</g>
<!-- Node1&#45;&gt;Node20 -->
<g id="edge25" class="edge">
<title>Node1&#45;&gt;Node20</title>
<path fill="none" stroke="#191970" d="M824.8345,-229.7239C735.1164,-223.6612 576.3597,-210.6988 442,-188 440.7528,-187.7893 439.4875,-187.5629 438.212,-187.3239"/>
<polygon fill="#191970" stroke="#191970" points="438.8628,-183.8845 428.3619,-185.2921 437.4486,-190.7402 438.8628,-183.8845"/>
</g>
<!-- Node1&#45;&gt;Node21 -->
<g id="edge26" class="edge">
<title>Node1&#45;&gt;Node21</title>
<path fill="none" stroke="#191970" d="M824.5461,-231.5519C711.1772,-226.9958 483.3306,-215.1 292,-188 290.7437,-187.8221 289.4709,-187.6309 288.1879,-187.4288"/>
<polygon fill="#191970" stroke="#191970" points="288.7057,-183.9663 278.2534,-185.6981 287.5043,-190.8625 288.7057,-183.9663"/>
</g>
<!-- Node1&#45;&gt;Node22 -->
<g id="edge27" class="edge">
<title>Node1&#45;&gt;Node22</title>
<path fill="none" stroke="#191970" d="M916.8006,-224.3733C936.2243,-215.3838 965.4224,-201.8706 987.2964,-191.7471"/>
<polygon fill="#191970" stroke="#191970" points="988.8656,-194.8776 996.4708,-187.5011 985.9255,-188.5249 988.8656,-194.8776"/>
</g>
<!-- Node1&#45;&gt;Node23 -->
<g id="edge29" class="edge">
<title>Node1&#45;&gt;Node23</title>
<path fill="none" stroke="#191970" d="M936.6432,-224.4369C977.2895,-214.8731 1039.8913,-200.1432 1083.6587,-189.845"/>
<polygon fill="#191970" stroke="#191970" points="1084.5919,-193.2211 1093.5244,-187.5237 1082.9886,-186.4072 1084.5919,-193.2211"/>
</g>
<!-- Node1&#45;&gt;Node24 -->
<g id="edge31" class="edge">
<title>Node1&#45;&gt;Node24</title>
<path fill="none" stroke="#191970" d="M967.0843,-225.5403C1024.0122,-218.1292 1106.0109,-206.032 1186.5046,-187.8512"/>
<polygon fill="#191970" stroke="#191970" points="1187.3462,-191.2492 1196.3117,-185.6038 1185.7825,-184.4261 1187.3462,-191.2492"/>
</g>
<!-- Node1&#45;&gt;Node25 -->
<g id="edge34" class="edge">
<title>Node1&#45;&gt;Node25</title>
<path fill="none" stroke="#191970" d="M967.2072,-229.122C1037.5449,-223.3355 1148.1659,-211.6368 1251.2858,-188.0468"/>
<polygon fill="#191970" stroke="#191970" points="1252.2957,-191.4053 1261.2401,-185.7266 1250.7066,-184.588 1252.2957,-191.4053"/>
</g>
<!-- Node2&#45;&gt;Node3 -->
<g id="edge3" class="edge">
<title>Node2&#45;&gt;Node3</title>
<path fill="none" stroke="#191970" d="M759.9843,-175.6345C692.3768,-171.5475 573.6012,-160.6275 476,-132 455.7749,-126.0678 452.9704,-118.7401 433,-112 387.4263,-96.6188 334.518,-85.0662 293.2095,-77.3855"/>
<polygon fill="#191970" stroke="#191970" points="293.7048,-73.9182 283.2387,-75.5646 292.4472,-80.8043 293.7048,-73.9182"/>
</g>
<!-- Node5 -->
<g id="node6" class="node">
<title>Node5</title>
<g id="a_node6"><a xlink:href="../../d9/de8/CompilerBuiltins_8h.html" target="_top" xlink:title="Framework/CompilerBuiltins.h">
<polygon fill="none" stroke="#000000" points="414,-56.5 414,-75.5 578,-75.5 578,-56.5 414,-56.5"/>
<text text-anchor="middle" x="496" y="-63.5" font-family="Helvetica,sans-Serif" font-size="10.00" fill="#000000">Framework/CompilerBuiltins.h</text>
</a>
</g>
</g>
<!-- Node2&#45;&gt;Node5 -->
<g id="edge5" class="edge">
<title>Node2&#45;&gt;Node5</title>
<path fill="none" stroke="#191970" d="M767.8928,-168.4751C732.7674,-160.551 683.5377,-147.9958 642,-132 623.8217,-124.9997 620.6248,-120.296 603,-112 578.4091,-100.425 550.1433,-88.3236 528.8409,-79.4397"/>
<polygon fill="#191970" stroke="#191970" points="530.1594,-76.1975 519.5816,-75.5977 527.4766,-82.663 530.1594,-76.1975"/>
</g>
<!-- Node6 -->
<g id="node7" class="node">
<title>Node6</title>
<g id="a_node7"><a xlink:href="../../db/d31/Traits_8h.html" target="_top" xlink:title="Framework/Traits.h">
<polygon fill="none" stroke="#000000" points="485.5,-112.5 485.5,-131.5 594.5,-131.5 594.5,-112.5 485.5,-112.5"/>
<text text-anchor="middle" x="540" y="-119.5" font-family="Helvetica,sans-Serif" font-size="10.00" fill="#000000">Framework/Traits.h</text>
</a>
</g>
</g>
<!-- Node2&#45;&gt;Node6 -->
<g id="edge6" class="edge">
<title>Node2&#45;&gt;Node6</title>
<path fill="none" stroke="#191970" d="M767.209,-168.4369C720.0205,-158.7925 647.128,-143.8948 596.6876,-133.5858"/>
<polygon fill="#191970" stroke="#191970" points="597.0963,-130.097 586.598,-131.5237 595.6946,-136.9553 597.0963,-130.097"/>
</g>
<!-- Node8 -->
<g id="node9" class="node">
<title>Node8</title>
<g id="a_node9"><a xlink:href="../../d0/d91/Expressions_8h.html" target="_top" xlink:title="Framework/Expressions.h">
<polygon fill="none" stroke="#000000" points="651.5,-112.5 651.5,-131.5 792.5,-131.5 792.5,-112.5 651.5,-112.5"/>
<text text-anchor="middle" x="722" y="-119.5" font-family="Helvetica,sans-Serif" font-size="10.00" fill="#000000">Framework/Expressions.h</text>
</a>
</g>
</g>
<!-- Node2&#45;&gt;Node8 -->
<g id="edge8" class="edge">
<title>Node2&#45;&gt;Node8</title>
<path fill="none" stroke="#191970" d="M797.9748,-168.2455C783.8592,-159.6534 763.0737,-147.0014 746.8101,-137.1018"/>
<polygon fill="#191970" stroke="#191970" points="748.2034,-133.8525 737.8415,-131.6427 744.5637,-139.8319 748.2034,-133.8525"/>
</g>
<!-- Node2&#45;&gt;Node11 -->
<g id="edge20" class="edge">
<title>Node2&#45;&gt;Node11</title>
<path fill="none" stroke="#191970" d="M820.0489,-168.2734C830.0256,-153.2041 851.4899,-124.6371 878,-112 956.6607,-74.5031 1177.4786,-88.042 1280.2586,-75.9837"/>
<polygon fill="#191970" stroke="#191970" points="1280.9615,-79.4215 1290.4199,-74.6476 1280.0489,-72.4812 1280.9615,-79.4215"/>
</g>
<!-- Node12 -->
<g id="node13" class="node">
<title>Node12</title>
<polygon fill="none" stroke="#bfbfbf" points="1125.5,-56.5 1125.5,-75.5 1272.5,-75.5 1272.5,-56.5 1125.5,-56.5"/>
<text text-anchor="middle" x="1199" y="-63.5" font-family="Helvetica,sans-Serif" font-size="10.00" fill="#000000">gandiva/selection_vector.h</text>
</g>
<!-- Node2&#45;&gt;Node12 -->
<g id="edge22" class="edge">
<title>Node2&#45;&gt;Node12</title>
<path fill="none" stroke="#191970" d="M815.6081,-168.0486C818.5722,-153.2108 826.3892,-125.5823 845,-112 847.729,-110.0084 1011.1084,-89.3722 1114.9332,-76.4255"/>
<polygon fill="#191970" stroke="#191970" points="1115.6085,-79.8685 1125.0989,-75.1587 1114.7429,-72.9222 1115.6085,-79.8685"/>
</g>
<!-- Node18 -->
<g id="node19" class="node">
<title>Node18</title>
<polygon fill="none" stroke="#bfbfbf" points="887,-112.5 887,-131.5 967,-131.5 967,-112.5 887,-112.5"/>
<text text-anchor="middle" x="927" y="-119.5" font-family="Helvetica,sans-Serif" font-size="10.00" fill="#000000">arrow/array.h</text>
</g>
<!-- Node2&#45;&gt;Node18 -->
<g id="edge21" class="edge">
<title>Node2&#45;&gt;Node18</title>
<path fill="none" stroke="#191970" d="M833.4254,-168.3733C851.4021,-159.4644 878.3441,-146.1127 898.709,-136.0203"/>
<polygon fill="#191970" stroke="#191970" points="900.4222,-139.0776 907.8281,-131.5011 897.3139,-132.8055 900.4222,-139.0776"/>
</g>
<!-- Node19 -->
<g id="node20" class="node">
<title>Node19</title>
<polygon fill="none" stroke="#bfbfbf" points="985,-112.5 985,-131.5 1037,-131.5 1037,-112.5 985,-112.5"/>
<text text-anchor="middle" x="1011" y="-119.5" font-family="Helvetica,sans-Serif" font-size="10.00" fill="#000000">cassert</text>
</g>
<!-- Node2&#45;&gt;Node19 -->
<g id="edge23" class="edge">
<title>Node2&#45;&gt;Node19</title>
<path fill="none" stroke="#191970" d="M847.8247,-168.4128C878.5524,-159.6996 925.396,-146.407 974.7317,-132.3585"/>
<polygon fill="#191970" stroke="#191970" points="975.9693,-135.6453 984.628,-129.5398 974.0518,-128.913 975.9693,-135.6453"/>
</g>
<!-- Node3&#45;&gt;Node4 -->
<g id="edge4" class="edge">
<title>Node3&#45;&gt;Node4</title>
<path fill="none" stroke="#191970" d="M308.0492,-56.9016C311.0697,-56.5946 314.0605,-56.2932 317,-56 483.8184,-39.3606 682.5247,-21.4331 768.2057,-13.7943"/>
<polygon fill="#191970" stroke="#191970" points="768.6762,-17.2663 778.3263,-12.893 768.0552,-10.2939 768.6762,-17.2663"/>
</g>
<!-- Node7 -->
<g id="node8" class="node">
<title>Node7</title>
<polygon fill="none" stroke="#bfbfbf" points="326.5,-56.5 326.5,-75.5 395.5,-75.5 395.5,-56.5 326.5,-56.5"/>
<text text-anchor="middle" x="361" y="-63.5" font-family="Helvetica,sans-Serif" font-size="10.00" fill="#000000">type_traits</text>
</g>
<!-- Node6&#45;&gt;Node7 -->
<g id="edge7" class="edge">
<title>Node6&#45;&gt;Node7</title>
<path fill="none" stroke="#191970" d="M509.2288,-112.3733C479.335,-103.021 433.7907,-88.7725 401.0783,-78.5385"/>
<polygon fill="#191970" stroke="#191970" points="401.9586,-75.1466 391.3697,-75.5011 399.8685,-81.8273 401.9586,-75.1466"/>
</g>
<!-- Node8&#45;&gt;Node3 -->
<g id="edge11" class="edge">
<title>Node8&#45;&gt;Node3</title>
<path fill="none" stroke="#191970" d="M651.2998,-114.0657C564.0497,-104.2741 415.3415,-87.5854 318.1327,-76.6762"/>
<polygon fill="#191970" stroke="#191970" points="318.3387,-73.1774 308.0107,-75.5403 317.558,-80.1338 318.3387,-73.1774"/>
</g>
<!-- Node8&#45;&gt;Node5 -->
<g id="edge10" class="edge">
<title>Node8&#45;&gt;Node5</title>
<path fill="none" stroke="#191970" d="M683.406,-112.4369C644.9716,-102.9133 585.864,-88.2672 544.329,-77.9753"/>
<polygon fill="#191970" stroke="#191970" points="544.9831,-74.5316 534.4348,-75.5237 543.2994,-81.3261 544.9831,-74.5316"/>
</g>
<!-- Node9 -->
<g id="node10" class="node">
<title>Node9</title>
<g id="a_node10"><a xlink:href="../../dd/dc2/BasicOps_8h.html" target="_top" xlink:title="Framework/BasicOps.h">
<polygon fill="none" stroke="#000000" points="773,-56.5 773,-75.5 901,-75.5 901,-56.5 773,-56.5"/>
<text text-anchor="middle" x="837" y="-63.5" font-family="Helvetica,sans-Serif" font-size="10.00" fill="#000000">Framework/BasicOps.h</text>
</a>
</g>
</g>
<!-- Node8&#45;&gt;Node9 -->
<g id="edge9" class="edge">
<title>Node8&#45;&gt;Node9</title>
<path fill="none" stroke="#191970" d="M741.7692,-112.3733C760.1469,-103.4241 787.7312,-89.9917 808.4893,-79.8835"/>
<polygon fill="#191970" stroke="#191970" points="810.0304,-83.026 817.4888,-75.5011 806.9657,-76.7325 810.0304,-83.026"/>
</g>
<!-- Node10 -->
<g id="node11" class="node">
<title>Node10</title>
<polygon fill="none" stroke="#bfbfbf" points="919,-56.5 919,-75.5 997,-75.5 997,-56.5 919,-56.5"/>
<text text-anchor="middle" x="958" y="-63.5" font-family="Helvetica,sans-Serif" font-size="10.00" fill="#000000">arrow/type.h</text>
</g>
<!-- Node8&#45;&gt;Node10 -->
<g id="edge12" class="edge">
<title>Node8&#45;&gt;Node10</title>
<path fill="none" stroke="#191970" d="M762.3017,-112.4369C802.8507,-102.8151 865.4353,-87.9645 908.8688,-77.6583"/>
<polygon fill="#191970" stroke="#191970" points="909.7287,-81.0515 918.6504,-75.3372 908.1125,-74.2406 909.7287,-81.0515"/>
</g>
<!-- Node8&#45;&gt;Node11 -->
<g id="edge13" class="edge">
<title>Node8&#45;&gt;Node11</title>
<path fill="none" stroke="#191970" d="M792.5933,-116.2557C929.2502,-105.129 1221.1681,-81.3265 1280.3216,-75.7268"/>
<polygon fill="#191970" stroke="#191970" points="1280.8418,-79.1916 1290.423,-74.6695 1280.113,-72.2296 1280.8418,-79.1916"/>
</g>
<!-- Node8&#45;&gt;Node12 -->
<g id="edge14" class="edge">
<title>Node8&#45;&gt;Node12</title>
<path fill="none" stroke="#191970" d="M792.5006,-113.6996C797.4074,-113.1238 802.2775,-112.5529 807,-112 941.1058,-96.2994 977.0305,-92.4474 1115.1142,-76.1013"/>
<polygon fill="#191970" stroke="#191970" points="1115.7167,-79.5545 1125.2355,-74.9025 1114.8932,-72.6031 1115.7167,-79.5545"/>
</g>
<!-- Node13 -->
<g id="node14" class="node">
<title>Node13</title>
<polygon fill="none" stroke="#bfbfbf" points="1015,-56.5 1015,-75.5 1107,-75.5 1107,-56.5 1015,-56.5"/>
<text text-anchor="middle" x="1061" y="-63.5" font-family="Helvetica,sans-Serif" font-size="10.00" fill="#000000">gandiva/node.h</text>
</g>
<!-- Node8&#45;&gt;Node13 -->
<g id="edge15" class="edge">
<title>Node8&#45;&gt;Node13</title>
<path fill="none" stroke="#191970" d="M782.9964,-112.4686C838.2975,-103.7478 922.3278,-90.3002 1004.7557,-76.1907"/>
<polygon fill="#191970" stroke="#191970" points="1005.5342,-79.6084 1014.7979,-74.4671 1004.3499,-72.7093 1005.5342,-79.6084"/>
</g>
<!-- Node14 -->
<g id="node15" class="node">
<title>Node14</title>
<polygon fill="none" stroke="#bfbfbf" points="596.5,-56.5 596.5,-75.5 685.5,-75.5 685.5,-56.5 596.5,-56.5"/>
<text text-anchor="middle" x="641" y="-63.5" font-family="Helvetica,sans-Serif" font-size="10.00" fill="#000000">gandiva/filter.h</text>
</g>
<!-- Node8&#45;&gt;Node14 -->
<g id="edge16" class="edge">
<title>Node8&#45;&gt;Node14</title>
<path fill="none" stroke="#191970" d="M707.8909,-112.2455C695.5791,-103.7337 677.5042,-91.2375 663.2462,-81.3801"/>
<polygon fill="#191970" stroke="#191970" points="665.1634,-78.4506 654.9474,-75.6427 661.1826,-84.2085 665.1634,-78.4506"/>
</g>
<!-- Node15 -->
<g id="node16" class="node">
<title>Node15</title>
<polygon fill="none" stroke="#bfbfbf" points="703.5,-56.5 703.5,-75.5 754.5,-75.5 754.5,-56.5 703.5,-56.5"/>
<text text-anchor="middle" x="729" y="-63.5" font-family="Helvetica,sans-Serif" font-size="10.00" fill="#000000">variant</text>
</g>
<!-- Node8&#45;&gt;Node15 -->
<g id="edge17" class="edge">
<title>Node8&#45;&gt;Node15</title>
<path fill="none" stroke="#191970" d="M723.2193,-112.2455C724.1327,-104.9382 725.4132,-94.6944 726.5369,-85.7046"/>
<polygon fill="#191970" stroke="#191970" points="730.0272,-85.9996 727.7947,-75.6427 723.0813,-85.1313 730.0272,-85.9996"/>
</g>
<!-- Node8&#45;&gt;Node16 -->
<g id="edge18" class="edge">
<title>Node8&#45;&gt;Node16</title>
<path fill="none" stroke="#191970" d="M651.2264,-115.8362C635.3624,-114.5149 618.6095,-113.1666 603,-112 362.0536,-93.9922 295.4324,-121.1893 54.3084,-75.8083"/>
<polygon fill="#191970" stroke="#191970" points="54.6583,-72.3121 44.1799,-73.879 53.3484,-79.1884 54.6583,-72.3121"/>
</g>
<!-- Node8&#45;&gt;Node17 -->
<g id="edge19" class="edge">
<title>Node8&#45;&gt;Node17</title>
<path fill="none" stroke="#191970" d="M651.217,-115.9578C635.3535,-114.6298 618.6032,-113.2481 603,-112 395.6899,-95.4172 339.1077,-110.5399 130.3985,-75.9691"/>
<polygon fill="#191970" stroke="#191970" points="130.7846,-72.4851 120.3438,-74.285 129.6282,-79.3889 130.7846,-72.4851"/>
</g>
</g>
</svg>
