<?xml version="1.0" encoding="UTF-8" standalone="no"?>
<!DOCTYPE svg PUBLIC "-//W3C//DTD SVG 1.1//EN"
 "http://www.w3.org/Graphics/SVG/1.1/DTD/svg11.dtd">
<!-- Generated by graphviz version 2.40.1 (20161225.0304)
 -->
<!-- Title: o2::mch::raw::WaitingSync Pages: 1 -->
<svg width="189pt" height="266pt"
 viewBox="0.00 0.00 189.00 266.00" xmlns="http://www.w3.org/2000/svg" xmlns:xlink="http://www.w3.org/1999/xlink">
<g id="graph0" class="graph" transform="scale(1 1) rotate(0) translate(4 262)">
<title>o2::mch::raw::WaitingSync</title>
<!-- Node3 -->
<g id="node1" class="node">
<title>Node3</title>
<polygon fill="#bfbfbf" stroke="#000000" points="35.5,-.5 35.5,-57.5 180.5,-57.5 180.5,-.5 35.5,-.5"/>
<text text-anchor="middle" x="108" y="-45.5" font-family="Helvetica,sans-Serif" font-size="10.00" fill="#000000">o2::mch::raw::WaitingSync</text>
<polyline fill="none" stroke="#000000" points="35.5,-38.5 180.5,-38.5 "/>
<text text-anchor="middle" x="108" y="-26.5" font-family="Helvetica,sans-Serif" font-size="10.00" fill="#000000"> </text>
<polyline fill="none" stroke="#000000" points="35.5,-19.5 180.5,-19.5 "/>
<text text-anchor="start" x="43.5" y="-7.5" font-family="Helvetica,sans-Serif" font-size="10.00" fill="#000000">+ WaitingSync()</text>
</g>
<!-- Node4 -->
<g id="node2" class="node">
<title>Node4</title>
<g id="a_node2"><a xlink:href="../../dd/d93/structo2_1_1mch_1_1raw_1_1NamedState.html" target="_top" xlink:title="{o2::mch::raw::NamedState\n||+ NamedState()\l}">
<polygon fill="none" stroke="#000000" points="35,-95.5 35,-152.5 181,-152.5 181,-95.5 35,-95.5"/>
<text text-anchor="middle" x="108" y="-140.5" font-family="Helvetica,sans-Serif" font-size="10.00" fill="#000000">o2::mch::raw::NamedState</text>
<polyline fill="none" stroke="#000000" points="35,-133.5 181,-133.5 "/>
<text text-anchor="middle" x="108" y="-121.5" font-family="Helvetica,sans-Serif" font-size="10.00" fill="#000000"> </text>
<polyline fill="none" stroke="#000000" points="35,-114.5 181,-114.5 "/>
<text text-anchor="start" x="43" y="-102.5" font-family="Helvetica,sans-Serif" font-size="10.00" fill="#000000">+ NamedState()</text>
</a>
</g>
</g>
<!-- Node4&#45;&gt;Node3 -->
<g id="edge1" class="edge">
<title>Node4&#45;&gt;Node3</title>
<path fill="none" stroke="#191970" d="M108,-85.3724C108,-76.1627 108,-66.4917 108,-57.8114"/>
<polygon fill="none" stroke="#191970" points="104.5001,-85.4968 108,-95.4969 111.5001,-85.4969 104.5001,-85.4968"/>
</g>
<!-- Node5 -->
<g id="node3" class="node">
<title>Node5</title>
<polygon fill="none" stroke="#bfbfbf" points="0,-200.5 0,-257.5 118,-257.5 118,-200.5 0,-200.5"/>
<text text-anchor="middle" x="59" y="-245.5" font-family="Helvetica,sans-Serif" font-size="10.00" fill="#000000">msm::front::state&lt;&gt;</text>
<polyline fill="none" stroke="#bfbfbf" points="0,-238.5 118,-238.5 "/>
<text text-anchor="middle" x="59" y="-226.5" font-family="Helvetica,sans-Serif" font-size="10.00" fill="#000000"> </text>
<polyline fill="none" stroke="#bfbfbf" points="0,-219.5 118,-219.5 "/>
<text text-anchor="middle" x="59" y="-207.5" font-family="Helvetica,sans-Serif" font-size="10.00" fill="#000000"> </text>
</g>
<!-- Node5&#45;&gt;Node4 -->
<g id="edge2" class="edge">
<title>Node5&#45;&gt;Node4</title>
<path fill="none" stroke="#191970" d="M76.7629,-190.9366C82.6588,-178.3026 89.119,-164.4592 94.6267,-152.657"/>
<polygon fill="none" stroke="#191970" points="73.4467,-189.7663 72.3895,-200.3083 79.79,-192.7266 73.4467,-189.7663"/>
</g>
<!-- Node6 -->
<g id="node4" class="node">
<title>Node6</title>
<polygon fill="none" stroke="#bfbfbf" points="136,-200.5 136,-257.5 180,-257.5 180,-200.5 136,-200.5"/>
<text text-anchor="middle" x="158" y="-245.5" font-family="Helvetica,sans-Serif" font-size="10.00" fill="#000000">string</text>
<polyline fill="none" stroke="#bfbfbf" points="136,-238.5 180,-238.5 "/>
<text text-anchor="middle" x="158" y="-226.5" font-family="Helvetica,sans-Serif" font-size="10.00" fill="#000000"> </text>
<polyline fill="none" stroke="#bfbfbf" points="136,-219.5 180,-219.5 "/>
<text text-anchor="middle" x="158" y="-207.5" font-family="Helvetica,sans-Serif" font-size="10.00" fill="#000000"> </text>
</g>
<!-- Node6&#45;&gt;Node4 -->
<g id="edge3" class="edge">
<title>Node6&#45;&gt;Node4</title>
<path fill="none" stroke="#404040" d="M144.3373,-200.3083C138.9357,-188.9651 132.6384,-175.7406 126.818,-163.5178"/>
<polygon fill="none" stroke="#404040" points="126.8055,-163.4914 120.6144,-159.7939 121.6462,-152.657 127.8373,-156.3544 126.8055,-163.4914"/>
<text text-anchor="middle" x="154" y="-174" font-family="Helvetica,sans-Serif" font-size="10.00" fill="#000000"> +name</text>
</g>
</g>
</svg>
