<?xml version="1.0" encoding="UTF-8" standalone="no"?>
<!DOCTYPE svg PUBLIC "-//W3C//DTD SVG 1.1//EN"
 "http://www.w3.org/Graphics/SVG/1.1/DTD/svg11.dtd">
<!-- Generated by graphviz version 2.40.1 (20161225.0304)
 -->
<!-- Title: o2::framework::rtr::DefaultKey Pages: 1 -->
<svg width="690pt" height="766pt"
 viewBox="0.00 0.00 690.00 766.00" xmlns="http://www.w3.org/2000/svg" xmlns:xlink="http://www.w3.org/1999/xlink">
<g id="graph0" class="graph" transform="scale(1 1) rotate(0) translate(4 762)">
<title>o2::framework::rtr::DefaultKey</title>
<!-- Node1 -->
<g id="node1" class="node">
<title>Node1</title>
<polygon fill="#bfbfbf" stroke="#000000" points="198.5,-.5 198.5,-79.5 311.5,-79.5 311.5,-.5 198.5,-.5"/>
<text text-anchor="start" x="206.5" y="-67.5" font-family="Helvetica,sans-Serif" font-size="10.00" fill="#000000">o2::framework::rtr</text>
<text text-anchor="middle" x="255" y="-56.5" font-family="Helvetica,sans-Serif" font-size="10.00" fill="#000000">::DefaultKey</text>
<polyline fill="none" stroke="#000000" points="198.5,-49.5 311.5,-49.5 "/>
<text text-anchor="middle" x="255" y="-37.5" font-family="Helvetica,sans-Serif" font-size="10.00" fill="#000000"> </text>
<polyline fill="none" stroke="#000000" points="198.5,-30.5 311.5,-30.5 "/>
<text text-anchor="start" x="206.5" y="-18.5" font-family="Helvetica,sans-Serif" font-size="10.00" fill="#000000">+ DefaultKey()</text>
<text text-anchor="start" x="206.5" y="-7.5" font-family="Helvetica,sans-Serif" font-size="10.00" fill="#000000">+ operator Output()</text>
</g>
<!-- Node2 -->
<g id="node2" class="node">
<title>Node2</title>
<polygon fill="none" stroke="#bfbfbf" points="0,-210 0,-267 56,-267 56,-210 0,-210"/>
<text text-anchor="middle" x="28" y="-255" font-family="Helvetica,sans-Serif" font-size="10.00" fill="#000000">uint32_t</text>
<polyline fill="none" stroke="#bfbfbf" points="0,-248 56,-248 "/>
<text text-anchor="middle" x="28" y="-236" font-family="Helvetica,sans-Serif" font-size="10.00" fill="#000000"> </text>
<polyline fill="none" stroke="#bfbfbf" points="0,-229 56,-229 "/>
<text text-anchor="middle" x="28" y="-217" font-family="Helvetica,sans-Serif" font-size="10.00" fill="#000000"> </text>
</g>
<!-- Node2&#45;&gt;Node1 -->
<g id="edge1" class="edge">
<title>Node2&#45;&gt;Node1</title>
<path fill="none" stroke="#404040" d="M31.1116,-209.6746C35.1417,-185.0629 44.3054,-150.0828 65,-127 96.8512,-91.4732 146.1225,-69.4877 186.5085,-56.5066"/>
<polygon fill="none" stroke="#404040" points="186.7121,-56.4442 191.2734,-50.859 198.1833,-52.9213 193.622,-58.5065 186.7121,-56.4442"/>
<text text-anchor="middle" x="121" y="-101" font-family="Helvetica,sans-Serif" font-size="10.00" fill="#000000"> +subSpec</text>
</g>
<!-- Node3 -->
<g id="node3" class="node">
<title>Node3</title>
<g id="a_node3"><a xlink:href="../../d9/db3/structo2_1_1header_1_1Descriptor.html" target="_top" xlink:title="{o2::header::Descriptor\l\&lt; gSizeDataOriginString,\l printDataOrigin \&gt;\n||+ Descriptor()\l+ Descriptor()\l+ Descriptor()\l+ Descriptor()\l+ operator=()\l+ operator ItgType()\l+ runtimeInit()\l+ operator==()\l+ operator==()\l+ operator\&lt;()\l+ operator!=()\l+ operator!=()\l+ as()\l+ print()\l}">
<polygon fill="none" stroke="#000000" points="401,-127.5 401,-349.5 539,-349.5 539,-127.5 401,-127.5"/>
<text text-anchor="start" x="409" y="-337.5" font-family="Helvetica,sans-Serif" font-size="10.00" fill="#000000">o2::header::Descriptor</text>
<text text-anchor="start" x="409" y="-326.5" font-family="Helvetica,sans-Serif" font-size="10.00" fill="#000000">&lt; gSizeDataOriginString,</text>
<text text-anchor="middle" x="470" y="-315.5" font-family="Helvetica,sans-Serif" font-size="10.00" fill="#000000"> printDataOrigin &gt;</text>
<polyline fill="none" stroke="#000000" points="401,-308.5 539,-308.5 "/>
<text text-anchor="middle" x="470" y="-296.5" font-family="Helvetica,sans-Serif" font-size="10.00" fill="#000000"> </text>
<polyline fill="none" stroke="#000000" points="401,-289.5 539,-289.5 "/>
<text text-anchor="start" x="409" y="-277.5" font-family="Helvetica,sans-Serif" font-size="10.00" fill="#000000">+ Descriptor()</text>
<text text-anchor="start" x="409" y="-266.5" font-family="Helvetica,sans-Serif" font-size="10.00" fill="#000000">+ Descriptor()</text>
<text text-anchor="start" x="409" y="-255.5" font-family="Helvetica,sans-Serif" font-size="10.00" fill="#000000">+ Descriptor()</text>
<text text-anchor="start" x="409" y="-244.5" font-family="Helvetica,sans-Serif" font-size="10.00" fill="#000000">+ Descriptor()</text>
<text text-anchor="start" x="409" y="-233.5" font-family="Helvetica,sans-Serif" font-size="10.00" fill="#000000">+ operator=()</text>
<text text-anchor="start" x="409" y="-222.5" font-family="Helvetica,sans-Serif" font-size="10.00" fill="#000000">+ operator ItgType()</text>
<text text-anchor="start" x="409" y="-211.5" font-family="Helvetica,sans-Serif" font-size="10.00" fill="#000000">+ runtimeInit()</text>
<text text-anchor="start" x="409" y="-200.5" font-family="Helvetica,sans-Serif" font-size="10.00" fill="#000000">+ operator==()</text>
<text text-anchor="start" x="409" y="-189.5" font-family="Helvetica,sans-Serif" font-size="10.00" fill="#000000">+ operator==()</text>
<text text-anchor="start" x="409" y="-178.5" font-family="Helvetica,sans-Serif" font-size="10.00" fill="#000000">+ operator&lt;()</text>
<text text-anchor="start" x="409" y="-167.5" font-family="Helvetica,sans-Serif" font-size="10.00" fill="#000000">+ operator!=()</text>
<text text-anchor="start" x="409" y="-156.5" font-family="Helvetica,sans-Serif" font-size="10.00" fill="#000000">+ operator!=()</text>
<text text-anchor="start" x="409" y="-145.5" font-family="Helvetica,sans-Serif" font-size="10.00" fill="#000000">+ as()</text>
<text text-anchor="start" x="409" y="-134.5" font-family="Helvetica,sans-Serif" font-size="10.00" fill="#000000">+ print()</text>
</a>
</g>
</g>
<!-- Node3&#45;&gt;Node1 -->
<g id="edge2" class="edge">
<title>Node3&#45;&gt;Node1</title>
<path fill="none" stroke="#404040" d="M400.8464,-170.8588C376.5182,-147.4771 348.8077,-121.3056 323,-98 319.2429,-94.6072 315.3391,-91.1371 311.3868,-87.6647"/>
<polygon fill="none" stroke="#404040" points="311.1708,-87.4764 304.0193,-86.5504 302.1235,-79.593 309.2749,-80.5189 311.1708,-87.4764"/>
<text text-anchor="middle" x="351" y="-101" font-family="Helvetica,sans-Serif" font-size="10.00" fill="#000000"> +origin</text>
</g>
<!-- Node4 -->
<g id="node4" class="node">
<title>Node4</title>
<polygon fill="none" stroke="#bfbfbf" points="264.5,-700.5 264.5,-757.5 303.5,-757.5 303.5,-700.5 264.5,-700.5"/>
<text text-anchor="middle" x="284" y="-745.5" font-family="Helvetica,sans-Serif" font-size="10.00" fill="#000000">Type</text>
<polyline fill="none" stroke="#bfbfbf" points="264.5,-738.5 303.5,-738.5 "/>
<text text-anchor="middle" x="284" y="-726.5" font-family="Helvetica,sans-Serif" font-size="10.00" fill="#000000"> </text>
<polyline fill="none" stroke="#bfbfbf" points="264.5,-719.5 303.5,-719.5 "/>
<text text-anchor="middle" x="284" y="-707.5" font-family="Helvetica,sans-Serif" font-size="10.00" fill="#000000"> </text>
</g>
<!-- Node4&#45;&gt;Node3 -->
<g id="edge3" class="edge">
<title>Node4&#45;&gt;Node3</title>
<path fill="none" stroke="#404040" d="M275.8495,-700.4509C260.4275,-639.6893 234.6966,-496.7833 308,-419 348.3063,-376.2305 396.3785,-441.4627 439,-401 450.5358,-390.0485 458.5312,-376.2301 463.9781,-361.2977"/>
<polygon fill="none" stroke="#404040" points="464.0318,-361.1282 462.035,-354.1991 467.6631,-349.6907 469.6599,-356.6199 464.0318,-361.1282"/>
<text text-anchor="middle" x="320.5" y="-522.5" font-family="Helvetica,sans-Serif" font-size="10.00" fill="#000000"> +itg</text>
</g>
<!-- Node8 -->
<g id="node8" class="node">
<title>Node8</title>
<g id="a_node8"><a xlink:href="../../d9/db3/structo2_1_1header_1_1Descriptor.html" target="_top" xlink:title="{o2::header::Descriptor\l\&lt; N, PrinterPolicy \&gt;\n||+ Descriptor()\l+ Descriptor()\l+ Descriptor()\l+ operator=()\l+ operator ItgType()\l+ Descriptor()\l+ runtimeInit()\l+ operator==()\l+ operator\&lt;()\l+ operator!=()\l+ operator==()\l+ operator!=()\l+ as()\l+ print()\l}">
<polygon fill="none" stroke="#000000" points="403.5,-419.5 403.5,-630.5 528.5,-630.5 528.5,-419.5 403.5,-419.5"/>
<text text-anchor="start" x="411.5" y="-618.5" font-family="Helvetica,sans-Serif" font-size="10.00" fill="#000000">o2::header::Descriptor</text>
<text text-anchor="middle" x="466" y="-607.5" font-family="Helvetica,sans-Serif" font-size="10.00" fill="#000000">&lt; N, PrinterPolicy &gt;</text>
<polyline fill="none" stroke="#000000" points="403.5,-600.5 528.5,-600.5 "/>
<text text-anchor="middle" x="466" y="-588.5" font-family="Helvetica,sans-Serif" font-size="10.00" fill="#000000"> </text>
<polyline fill="none" stroke="#000000" points="403.5,-581.5 528.5,-581.5 "/>
<text text-anchor="start" x="411.5" y="-569.5" font-family="Helvetica,sans-Serif" font-size="10.00" fill="#000000">+ Descriptor()</text>
<text text-anchor="start" x="411.5" y="-558.5" font-family="Helvetica,sans-Serif" font-size="10.00" fill="#000000">+ Descriptor()</text>
<text text-anchor="start" x="411.5" y="-547.5" font-family="Helvetica,sans-Serif" font-size="10.00" fill="#000000">+ Descriptor()</text>
<text text-anchor="start" x="411.5" y="-536.5" font-family="Helvetica,sans-Serif" font-size="10.00" fill="#000000">+ operator=()</text>
<text text-anchor="start" x="411.5" y="-525.5" font-family="Helvetica,sans-Serif" font-size="10.00" fill="#000000">+ operator ItgType()</text>
<text text-anchor="start" x="411.5" y="-514.5" font-family="Helvetica,sans-Serif" font-size="10.00" fill="#000000">+ Descriptor()</text>
<text text-anchor="start" x="411.5" y="-503.5" font-family="Helvetica,sans-Serif" font-size="10.00" fill="#000000">+ runtimeInit()</text>
<text text-anchor="start" x="411.5" y="-492.5" font-family="Helvetica,sans-Serif" font-size="10.00" fill="#000000">+ operator==()</text>
<text text-anchor="start" x="411.5" y="-481.5" font-family="Helvetica,sans-Serif" font-size="10.00" fill="#000000">+ operator&lt;()</text>
<text text-anchor="start" x="411.5" y="-470.5" font-family="Helvetica,sans-Serif" font-size="10.00" fill="#000000">+ operator!=()</text>
<text text-anchor="start" x="411.5" y="-459.5" font-family="Helvetica,sans-Serif" font-size="10.00" fill="#000000">+ operator==()</text>
<text text-anchor="start" x="411.5" y="-448.5" font-family="Helvetica,sans-Serif" font-size="10.00" fill="#000000">+ operator!=()</text>
<text text-anchor="start" x="411.5" y="-437.5" font-family="Helvetica,sans-Serif" font-size="10.00" fill="#000000">+ as()</text>
<text text-anchor="start" x="411.5" y="-426.5" font-family="Helvetica,sans-Serif" font-size="10.00" fill="#000000">+ print()</text>
</a>
</g>
</g>
<!-- Node4&#45;&gt;Node8 -->
<g id="edge8" class="edge">
<title>Node4&#45;&gt;Node8</title>
<path fill="none" stroke="#404040" d="M303.5992,-709.2878C306.7324,-706.1692 309.9472,-702.9885 313,-700 344.672,-668.9947 355.4567,-664.04 385,-631 388.5254,-627.0573 392.0664,-622.9746 395.5921,-618.8082"/>
<polygon fill="none" stroke="#404040" points="395.5991,-618.7998 396.3618,-611.6291 403.2742,-609.5753 402.5115,-616.7459 395.5991,-618.7998"/>
<text text-anchor="middle" x="379.5" y="-663" font-family="Helvetica,sans-Serif" font-size="10.00" fill="#000000"> +itg</text>
</g>
<!-- Node11 -->
<g id="node11" class="node">
<title>Node11</title>
<g id="a_node11"><a xlink:href="../../d9/db3/structo2_1_1header_1_1Descriptor.html" target="_top" xlink:title="{o2::header::Descriptor\l\&lt; gSizeDataDescriptionString,\l printDataDescription \&gt;\n||+ Descriptor()\l+ Descriptor()\l+ Descriptor()\l+ Descriptor()\l+ operator=()\l+ operator ItgType()\l+ runtimeInit()\l+ operator==()\l+ operator==()\l+ operator\&lt;()\l+ operator!=()\l+ operator!=()\l+ as()\l+ print()\l}">
<polygon fill="none" stroke="#000000" points="74,-127.5 74,-349.5 238,-349.5 238,-127.5 74,-127.5"/>
<text text-anchor="start" x="82" y="-337.5" font-family="Helvetica,sans-Serif" font-size="10.00" fill="#000000">o2::header::Descriptor</text>
<text text-anchor="start" x="82" y="-326.5" font-family="Helvetica,sans-Serif" font-size="10.00" fill="#000000">&lt; gSizeDataDescriptionString,</text>
<text text-anchor="middle" x="156" y="-315.5" font-family="Helvetica,sans-Serif" font-size="10.00" fill="#000000"> printDataDescription &gt;</text>
<polyline fill="none" stroke="#000000" points="74,-308.5 238,-308.5 "/>
<text text-anchor="middle" x="156" y="-296.5" font-family="Helvetica,sans-Serif" font-size="10.00" fill="#000000"> </text>
<polyline fill="none" stroke="#000000" points="74,-289.5 238,-289.5 "/>
<text text-anchor="start" x="82" y="-277.5" font-family="Helvetica,sans-Serif" font-size="10.00" fill="#000000">+ Descriptor()</text>
<text text-anchor="start" x="82" y="-266.5" font-family="Helvetica,sans-Serif" font-size="10.00" fill="#000000">+ Descriptor()</text>
<text text-anchor="start" x="82" y="-255.5" font-family="Helvetica,sans-Serif" font-size="10.00" fill="#000000">+ Descriptor()</text>
<text text-anchor="start" x="82" y="-244.5" font-family="Helvetica,sans-Serif" font-size="10.00" fill="#000000">+ Descriptor()</text>
<text text-anchor="start" x="82" y="-233.5" font-family="Helvetica,sans-Serif" font-size="10.00" fill="#000000">+ operator=()</text>
<text text-anchor="start" x="82" y="-222.5" font-family="Helvetica,sans-Serif" font-size="10.00" fill="#000000">+ operator ItgType()</text>
<text text-anchor="start" x="82" y="-211.5" font-family="Helvetica,sans-Serif" font-size="10.00" fill="#000000">+ runtimeInit()</text>
<text text-anchor="start" x="82" y="-200.5" font-family="Helvetica,sans-Serif" font-size="10.00" fill="#000000">+ operator==()</text>
<text text-anchor="start" x="82" y="-189.5" font-family="Helvetica,sans-Serif" font-size="10.00" fill="#000000">+ operator==()</text>
<text text-anchor="start" x="82" y="-178.5" font-family="Helvetica,sans-Serif" font-size="10.00" fill="#000000">+ operator&lt;()</text>
<text text-anchor="start" x="82" y="-167.5" font-family="Helvetica,sans-Serif" font-size="10.00" fill="#000000">+ operator!=()</text>
<text text-anchor="start" x="82" y="-156.5" font-family="Helvetica,sans-Serif" font-size="10.00" fill="#000000">+ operator!=()</text>
<text text-anchor="start" x="82" y="-145.5" font-family="Helvetica,sans-Serif" font-size="10.00" fill="#000000">+ as()</text>
<text text-anchor="start" x="82" y="-134.5" font-family="Helvetica,sans-Serif" font-size="10.00" fill="#000000">+ print()</text>
</a>
</g>
</g>
<!-- Node4&#45;&gt;Node11 -->
<g id="edge14" class="edge">
<title>Node4&#45;&gt;Node11</title>
<path fill="none" stroke="#404040" d="M264.2117,-726.2071C221.8019,-719.0624 122.4068,-695.8721 78,-631 11.8361,-534.3437 24.548,-479.3164 61,-368 63.0609,-361.7065 65.557,-355.4662 68.39,-349.3233"/>
<polygon fill="none" stroke="#404040" points="68.4882,-349.1256 67.5784,-341.9721 73.8316,-338.3809 74.7415,-345.5343 68.4882,-349.1256"/>
<text text-anchor="middle" x="90.5" y="-522.5" font-family="Helvetica,sans-Serif" font-size="10.00" fill="#000000"> +itg</text>
</g>
<!-- Node5 -->
<g id="node5" class="node">
<title>Node5</title>
<polygon fill="none" stroke="#bfbfbf" points="322,-700.5 322,-757.5 360,-757.5 360,-700.5 322,-700.5"/>
<text text-anchor="middle" x="341" y="-745.5" font-family="Helvetica,sans-Serif" font-size="10.00" fill="#000000">char</text>
<polyline fill="none" stroke="#bfbfbf" points="322,-738.5 360,-738.5 "/>
<text text-anchor="middle" x="341" y="-726.5" font-family="Helvetica,sans-Serif" font-size="10.00" fill="#000000"> </text>
<polyline fill="none" stroke="#bfbfbf" points="322,-719.5 360,-719.5 "/>
<text text-anchor="middle" x="341" y="-707.5" font-family="Helvetica,sans-Serif" font-size="10.00" fill="#000000"> </text>
</g>
<!-- Node5&#45;&gt;Node3 -->
<g id="edge4" class="edge">
<title>Node5&#45;&gt;Node3</title>
<path fill="none" stroke="#404040" d="M339.4687,-700.3491C336.4287,-631.516 332.8283,-459.5377 370,-419 400.2247,-386.0384 440.2394,-435.2466 469,-401 478.497,-389.6915 484.1522,-376.2138 487.1395,-361.9267"/>
<polygon fill="none" stroke="#404040" points="487.1875,-361.6201 484.1656,-355.0727 489.0471,-349.765 492.069,-356.3124 487.1875,-361.6201"/>
<text text-anchor="middle" x="382.5" y="-522.5" font-family="Helvetica,sans-Serif" font-size="10.00" fill="#000000"> +str</text>
</g>
<!-- Node5&#45;&gt;Node8 -->
<g id="edge9" class="edge">
<title>Node5&#45;&gt;Node8</title>
<path fill="none" stroke="#404040" d="M360.1877,-716.6993C372.3083,-708.1503 387.5902,-695.8367 398,-682 407.3209,-669.6107 415.6677,-655.747 423.0502,-641.525"/>
<polygon fill="none" stroke="#404040" points="423.1458,-641.3335 422.2483,-634.1784 428.5078,-630.598 429.4053,-637.7531 423.1458,-641.3335"/>
<text text-anchor="middle" x="430.5" y="-663" font-family="Helvetica,sans-Serif" font-size="10.00" fill="#000000"> +str</text>
</g>
<!-- Node5&#45;&gt;Node11 -->
<g id="edge15" class="edge">
<title>Node5&#45;&gt;Node11</title>
<path fill="none" stroke="#404040" d="M321.9257,-707.4719C319.0733,-704.7926 316.059,-702.2192 313,-700 256.205,-658.7959 216.9729,-684.0089 171,-631 106.1686,-556.2464 145.9683,-508.1343 103,-419 98.8249,-410.339 93.7862,-410.2023 91,-401 86.7498,-386.9627 87.6193,-382.2717 91,-368 91.5436,-365.7052 92.1346,-363.4047 92.7687,-361.1022"/>
<polygon fill="none" stroke="#404040" points="92.7796,-361.0663 90.7035,-354.1605 96.2796,-349.588 98.3557,-356.4938 92.7796,-361.0663"/>
<text text-anchor="middle" x="183.5" y="-522.5" font-family="Helvetica,sans-Serif" font-size="10.00" fill="#000000"> +str</text>
</g>
<!-- Node6 -->
<g id="node6" class="node">
<title>Node6</title>
<polygon fill="none" stroke="#bfbfbf" points="204.5,-496.5 204.5,-553.5 233.5,-553.5 233.5,-496.5 204.5,-496.5"/>
<text text-anchor="middle" x="219" y="-541.5" font-family="Helvetica,sans-Serif" font-size="10.00" fill="#000000">int</text>
<polyline fill="none" stroke="#bfbfbf" points="204.5,-534.5 233.5,-534.5 "/>
<text text-anchor="middle" x="219" y="-522.5" font-family="Helvetica,sans-Serif" font-size="10.00" fill="#000000"> </text>
<polyline fill="none" stroke="#bfbfbf" points="204.5,-515.5 233.5,-515.5 "/>
<text text-anchor="middle" x="219" y="-503.5" font-family="Helvetica,sans-Serif" font-size="10.00" fill="#000000"> </text>
</g>
<!-- Node6&#45;&gt;Node3 -->
<g id="edge5" class="edge">
<title>Node6&#45;&gt;Node3</title>
<path fill="none" stroke="#404040" d="M224.3731,-496.4823C230.4031,-472.3703 242.5814,-438.6937 266,-419 291.2449,-397.7704 310.173,-418.7104 338,-401 357.9754,-388.2868 376.3321,-371.5211 392.6006,-353.5887"/>
<polygon fill="none" stroke="#404040" points="392.9971,-353.1371 393.9504,-345.9893 400.9151,-344.1201 399.9618,-351.2679 392.9971,-353.1371"/>
<text text-anchor="middle" x="406" y="-393" font-family="Helvetica,sans-Serif" font-size="10.00" fill="#000000"> +arraySize</text>
<text text-anchor="middle" x="406" y="-382" font-family="Helvetica,sans-Serif" font-size="10.00" fill="#000000">+size</text>
<text text-anchor="middle" x="406" y="-371" font-family="Helvetica,sans-Serif" font-size="10.00" fill="#000000">+bitcount</text>
</g>
<!-- Node6&#45;&gt;Node11 -->
<g id="edge16" class="edge">
<title>Node6&#45;&gt;Node11</title>
<path fill="none" stroke="#404040" d="M207.6441,-496.1277C197.0015,-472.4559 178.9788,-439.6052 154,-419 136.4242,-404.5016 118.9777,-419.7268 106,-401 97.7427,-389.0847 94.494,-375.7603 94.636,-362.006"/>
<polygon fill="none" stroke="#404040" points="94.6524,-361.796 91.135,-355.5009 95.593,-349.8329 99.1104,-356.128 94.6524,-361.796"/>
<text text-anchor="middle" x="135" y="-393" font-family="Helvetica,sans-Serif" font-size="10.00" fill="#000000"> +arraySize</text>
<text text-anchor="middle" x="135" y="-382" font-family="Helvetica,sans-Serif" font-size="10.00" fill="#000000">+size</text>
<text text-anchor="middle" x="135" y="-371" font-family="Helvetica,sans-Serif" font-size="10.00" fill="#000000">+bitcount</text>
</g>
<!-- Node7 -->
<g id="node7" class="node">
<title>Node7</title>
<polygon fill="none" stroke="#bfbfbf" points="544.5,-700.5 544.5,-757.5 651.5,-757.5 651.5,-700.5 544.5,-700.5"/>
<text text-anchor="middle" x="598" y="-745.5" font-family="Helvetica,sans-Serif" font-size="10.00" fill="#000000">anonymous:+@24</text>
<polyline fill="none" stroke="#bfbfbf" points="544.5,-738.5 651.5,-738.5 "/>
<text text-anchor="middle" x="598" y="-726.5" font-family="Helvetica,sans-Serif" font-size="10.00" fill="#000000"> </text>
<polyline fill="none" stroke="#bfbfbf" points="544.5,-719.5 651.5,-719.5 "/>
<text text-anchor="middle" x="598" y="-707.5" font-family="Helvetica,sans-Serif" font-size="10.00" fill="#000000"> </text>
</g>
<!-- Node7&#45;&gt;Node3 -->
<g id="edge6" class="edge">
<title>Node7&#45;&gt;Node3</title>
<path fill="none" stroke="#404040" d="M609.1436,-700.1382C631.7952,-636.6179 676.7856,-481.356 624,-368 608.1016,-333.8584 578.2805,-305.5055 549.0835,-284.121"/>
<polygon fill="none" stroke="#404040" points="549.0184,-284.0749 541.8102,-283.8702 539.2268,-277.1377 546.435,-277.3424 549.0184,-284.0749"/>
<text text-anchor="middle" x="665" y="-522.5" font-family="Helvetica,sans-Serif" font-size="10.00" fill="#000000"> +@24</text>
</g>
<!-- Node7&#45;&gt;Node8 -->
<g id="edge10" class="edge">
<title>Node7&#45;&gt;Node8</title>
<path fill="none" stroke="#404040" d="M566.0609,-700.4512C560.3767,-694.6342 554.7591,-688.3442 550,-682 540.5394,-669.3884 531.5144,-655.5708 523.127,-641.5281"/>
<polygon fill="none" stroke="#404040" points="522.8915,-641.1247 516.4118,-637.9603 516.8407,-630.7619 523.3204,-633.9264 522.8915,-641.1247"/>
<text text-anchor="middle" x="567" y="-663" font-family="Helvetica,sans-Serif" font-size="10.00" fill="#000000"> +@24</text>
</g>
<!-- Node7&#45;&gt;Node11 -->
<g id="edge17" class="edge">
<title>Node7&#45;&gt;Node11</title>
<path fill="none" stroke="#404040" d="M596.0042,-700.3435C590.6936,-631.8978 574.0891,-461.4391 538,-419 523.2402,-401.6432 511.0126,-409.808 490,-401 457.9079,-387.5478 452.5398,-377.2708 419,-368 348.5335,-348.5223 317.6883,-382.8632 249.1431,-350.3404"/>
<polygon fill="none" stroke="#404040" points="248.9634,-350.2486 241.8003,-351.0794 238.2783,-344.7868 245.4414,-343.956 248.9634,-350.2486"/>
<text text-anchor="middle" x="606" y="-522.5" font-family="Helvetica,sans-Serif" font-size="10.00" fill="#000000"> +@24</text>
</g>
<!-- Node8&#45;&gt;Node3 -->
<g id="edge7" class="edge">
<title>Node8&#45;&gt;Node3</title>
<path fill="none" stroke="#ffa500" d="M492.98,-409.2735C493.3538,-406.494 493.6953,-403.7332 494,-401 495.8487,-384.4198 495.5992,-366.9316 494.1139,-349.8163"/>
<polygon fill="#ffa500" stroke="#ffa500" points="489.4828,-408.9994 491.4927,-419.4018 496.4085,-410.0165 489.4828,-408.9994"/>
<text text-anchor="start" x="495" y="-387.5" font-family="Helvetica,sans-Serif" font-size="10.00" fill="#000000"> &lt; gSizeDataOriginString,</text>
<text text-anchor="middle" x="557.5" y="-376.5" font-family="Helvetica,sans-Serif" font-size="10.00" fill="#000000"> printDataOrigin &gt;</text>
</g>
<!-- Node8&#45;&gt;Node11 -->
<g id="edge18" class="edge">
<title>Node8&#45;&gt;Node11</title>
<path fill="none" stroke="#ffa500" d="M395.3274,-425.5112C391.9931,-423.1398 388.55,-420.9559 385,-419 345.528,-397.2521 216.0512,-431.6371 183,-401 174.2959,-392.9317 168.3977,-373.0135 164.4009,-349.7775"/>
<polygon fill="#ffa500" stroke="#ffa500" points="393.3446,-428.4028 403.3903,-431.7695 397.6367,-422.873 393.3446,-428.4028"/>
<text text-anchor="start" x="183" y="-387.5" font-family="Helvetica,sans-Serif" font-size="10.00" fill="#000000"> &lt; gSizeDataDescriptionString,</text>
<text text-anchor="middle" x="258.5" y="-376.5" font-family="Helvetica,sans-Serif" font-size="10.00" fill="#000000"> printDataDescription &gt;</text>
</g>
<!-- Node9 -->
<g id="node9" class="node">
<title>Node9</title>
<polygon fill="none" stroke="#bfbfbf" points="446,-700.5 446,-757.5 490,-757.5 490,-700.5 446,-700.5"/>
<text text-anchor="middle" x="468" y="-745.5" font-family="Helvetica,sans-Serif" font-size="10.00" fill="#000000">static</text>
<polyline fill="none" stroke="#bfbfbf" points="446,-738.5 490,-738.5 "/>
<text text-anchor="middle" x="468" y="-726.5" font-family="Helvetica,sans-Serif" font-size="10.00" fill="#000000"> </text>
<polyline fill="none" stroke="#bfbfbf" points="446,-719.5 490,-719.5 "/>
<text text-anchor="middle" x="468" y="-707.5" font-family="Helvetica,sans-Serif" font-size="10.00" fill="#000000"> </text>
</g>
<!-- Node9&#45;&gt;Node8 -->
<g id="edge11" class="edge">
<title>Node9&#45;&gt;Node8</title>
<path fill="none" stroke="#404040" d="M467.7177,-700.2045C467.5649,-684.616 467.3648,-664.2061 467.1554,-642.8459"/>
<polygon fill="none" stroke="#404040" points="467.1525,-642.5485 463.0939,-636.5881 467.0348,-630.5491 471.0935,-636.5096 467.1525,-642.5485"/>
<text text-anchor="middle" x="496" y="-674" font-family="Helvetica,sans-Serif" font-size="10.00" fill="#000000"> +arraySize</text>
<text text-anchor="middle" x="496" y="-663" font-family="Helvetica,sans-Serif" font-size="10.00" fill="#000000">+size</text>
<text text-anchor="middle" x="496" y="-652" font-family="Helvetica,sans-Serif" font-size="10.00" fill="#000000">+bitcount</text>
</g>
<!-- Node10 -->
<g id="node10" class="node">
<title>Node10</title>
<polygon fill="none" stroke="#bfbfbf" points="256,-210 256,-267 344,-267 344,-210 256,-210"/>
<text text-anchor="middle" x="300" y="-255" font-family="Helvetica,sans-Serif" font-size="10.00" fill="#000000">enum Lifetime</text>
<polyline fill="none" stroke="#bfbfbf" points="256,-248 344,-248 "/>
<text text-anchor="middle" x="300" y="-236" font-family="Helvetica,sans-Serif" font-size="10.00" fill="#000000"> </text>
<polyline fill="none" stroke="#bfbfbf" points="256,-229 344,-229 "/>
<text text-anchor="middle" x="300" y="-217" font-family="Helvetica,sans-Serif" font-size="10.00" fill="#000000"> </text>
</g>
<!-- Node10&#45;&gt;Node1 -->
<g id="edge12" class="edge">
<title>Node10&#45;&gt;Node1</title>
<path fill="none" stroke="#404040" d="M293.4566,-209.6364C286.44,-178.6852 275.1578,-128.9184 266.6241,-91.2752"/>
<polygon fill="none" stroke="#404040" points="266.612,-91.2216 261.3844,-86.2545 263.9589,-79.5186 269.1865,-84.4857 266.612,-91.2216"/>
<text text-anchor="middle" x="294" y="-101" font-family="Helvetica,sans-Serif" font-size="10.00" fill="#000000"> +lifetime</text>
</g>
<!-- Node11&#45;&gt;Node1 -->
<g id="edge13" class="edge">
<title>Node11&#45;&gt;Node1</title>
<path fill="none" stroke="#404040" d="M183.5781,-127.4043C187.7768,-117.1736 192.5614,-107.2063 198,-98 199.7503,-95.0371 201.6841,-92.1126 203.7505,-89.246"/>
<polygon fill="none" stroke="#404040" points="203.7977,-89.1859 204.3608,-81.9968 211.2135,-79.7515 210.6504,-86.9407 203.7977,-89.1859"/>
<text text-anchor="middle" x="231" y="-101" font-family="Helvetica,sans-Serif" font-size="10.00" fill="#000000"> +description</text>
</g>
</g>
</svg>
