<?xml version="1.0" encoding="UTF-8" standalone="no"?>
<!DOCTYPE svg PUBLIC "-//W3C//DTD SVG 1.1//EN"
 "http://www.w3.org/Graphics/SVG/1.1/DTD/svg11.dtd">
<!-- Generated by graphviz version 2.40.1 (20161225.0304)
 -->
<!-- Title: /home/travis/build/AliceO2Group/AliceO2/DataFormats/Detectors/TOF/include/DataFormatsTOF/CalibLHCphaseTOF.h Pages: 1 -->
<!--zoomable 450 -->
<svg id="main" version="1.1" xmlns="http://www.w3.org/2000/svg" xmlns:xlink="http://www.w3.org/1999/xlink" xml:space="preserve" onload="init(evt)">
<style type="text/css"><![CDATA[
.edge:hover path { stroke: red; }
.edge:hover polygon { stroke: red; fill: red; }
]]></style>
<script type="text/javascript"><![CDATA[
var edges = document.getElementsByTagName('g');
if (edges && edges.length) {
  for (var i=0;i<edges.length;i++) {
    if (edges[i].id.substr(0,4)=='edge') {
      edges[i].setAttribute('class','edge');
    }
  }
}
]]></script>
        <defs>
                <circle id="rim" cx="0" cy="0" r="7"/>
                <circle id="rim2" cx="0" cy="0" r="3.5"/>
                <g id="zoomPlus">
                        <use xlink:href="#rim" fill="#404040">
                                <set attributeName="fill" to="#808080" begin="zoomplus.mouseover" end="zoomplus.mouseout"/>
                        </use>
                        <path d="M-4,0h8M0,-4v8" fill="none" stroke="white" stroke-width="1.5" pointer-events="none"/>
                </g>
                <g id="zoomMin">
                        <use xlink:href="#rim" fill="#404040">
                                <set attributeName="fill" to="#808080" begin="zoomminus.mouseover" end="zoomminus.mouseout"/>
                        </use>
                        <path d="M-4,0h8" fill="none" stroke="white" stroke-width="1.5" pointer-events="none"/>
                </g>
                <g id="dirArrow">
                        <path fill="none" stroke="white" stroke-width="1.5" d="M0,-3.0v7 M-2.5,-0.5L0,-3.0L2.5,-0.5"/>
                </g>
               <g id="resetDef">
                       <use xlink:href="#rim2" fill="#404040">
                               <set attributeName="fill" to="#808080" begin="reset.mouseover" end="reset.mouseout"/>
                       </use>
               </g>
        </defs>

<script type="text/javascript">
var viewWidth = 1189;
var viewHeight = 450;
var sectionId = 'dynsection-1';
</script>
<script xlink:href="../../svgpan.js"/>
<svg id="graph" class="graph">
<g id="viewport">
<title>/home/travis/build/AliceO2Group/AliceO2/DataFormats/Detectors/TOF/include/DataFormatsTOF/CalibLHCphaseTOF.h</title>
<!-- Node3 -->
<g id="node1" class="node">
<title>Node3</title>
<polygon fill="#bfbfbf" stroke="#000000" points="255.5,-378.5 255.5,-441.5 416.5,-441.5 416.5,-378.5 255.5,-378.5"/>
<text text-anchor="start" x="263.5" y="-429.5" font-family="Helvetica,sans-Serif" font-size="10.00" fill="#000000">/home/travis/build</text>
<text text-anchor="start" x="263.5" y="-418.5" font-family="Helvetica,sans-Serif" font-size="10.00" fill="#000000">/AliceO2Group/AliceO2</text>
<text text-anchor="start" x="263.5" y="-407.5" font-family="Helvetica,sans-Serif" font-size="10.00" fill="#000000">/DataFormats/Detectors</text>
<text text-anchor="start" x="263.5" y="-396.5" font-family="Helvetica,sans-Serif" font-size="10.00" fill="#000000">/TOF/include/DataFormatsTOF</text>
<text text-anchor="middle" x="336" y="-385.5" font-family="Helvetica,sans-Serif" font-size="10.00" fill="#000000">/CalibLHCphaseTOF.h</text>
</g>
<!-- Node4 -->
<g id="node2" class="node">
<title>Node4</title>
<g id="a_node2"><a xlink:href="../../db/d64/CalibLHCphaseTOF_8cxx.html" target="_top" xlink:title="Class to store the output of the matching to TOF for calibration. ">
<polygon fill="none" stroke="#000000" points="0,-289.5 0,-341.5 170,-341.5 170,-289.5 0,-289.5"/>
<text text-anchor="start" x="8" y="-329.5" font-family="Helvetica,sans-Serif" font-size="10.00" fill="#000000">/home/travis/build</text>
<text text-anchor="start" x="8" y="-318.5" font-family="Helvetica,sans-Serif" font-size="10.00" fill="#000000">/AliceO2Group/AliceO2</text>
<text text-anchor="start" x="8" y="-307.5" font-family="Helvetica,sans-Serif" font-size="10.00" fill="#000000">/DataFormats/Detectors</text>
<text text-anchor="middle" x="85" y="-296.5" font-family="Helvetica,sans-Serif" font-size="10.00" fill="#000000">/TOF/src/CalibLHCphaseTOF.cxx</text>
</a>
</g>
</g>
<!-- Node3&#45;&gt;Node4 -->
<g id="edge1" class="edge">
<title>Node3&#45;&gt;Node4</title>
<path fill="none" stroke="#191970" d="M245.5475,-375.9452C215.4707,-364.6214 182.4741,-352.1984 154.2591,-341.5756"/>
<polygon fill="#191970" stroke="#191970" points="244.6085,-379.3314 255.2004,-379.5794 247.075,-372.7803 244.6085,-379.3314"/>
</g>
<!-- Node5 -->
<g id="node3" class="node">
<title>Node5</title>
<g id="a_node3"><a xlink:href="../../d5/ded/CalibTOF_8h.html" target="_top" xlink:title="/home/travis/build\l/AliceO2Group/AliceO2\l/Detectors/GlobalTracking\l/include/GlobalTracking/CalibTOF.h">
<polygon fill="none" stroke="#000000" points="24,-195 24,-247 208,-247 208,-195 24,-195"/>
<text text-anchor="start" x="32" y="-235" font-family="Helvetica,sans-Serif" font-size="10.00" fill="#000000">/home/travis/build</text>
<text text-anchor="start" x="32" y="-224" font-family="Helvetica,sans-Serif" font-size="10.00" fill="#000000">/AliceO2Group/AliceO2</text>
<text text-anchor="start" x="32" y="-213" font-family="Helvetica,sans-Serif" font-size="10.00" fill="#000000">/Detectors/GlobalTracking</text>
<text text-anchor="middle" x="116" y="-202" font-family="Helvetica,sans-Serif" font-size="10.00" fill="#000000">/include/GlobalTracking/CalibTOF.h</text>
</a>
</g>
</g>
<!-- Node3&#45;&gt;Node5 -->
<g id="edge2" class="edge">
<title>Node3&#45;&gt;Node5</title>
<path fill="none" stroke="#191970" d="M265.3586,-373.1407C250.3584,-363.8984 235.1086,-353.3476 222,-342 199.0661,-322.1472 198.8738,-311.9157 179,-289 166.7687,-274.8966 152.6867,-259.6125 140.9426,-247.1134"/>
<polygon fill="#191970" stroke="#191970" points="263.7707,-376.27 274.1436,-378.4274 267.3801,-370.2723 263.7707,-376.27"/>
</g>
<!-- Node7 -->
<g id="node5" class="node">
<title>Node7</title>
<g id="a_node5"><a xlink:href="../../d7/d65/CalibTOFapi_8h.html" target="_top" xlink:title="Class to use TOF calibration (decalibration, calibration) ">
<polygon fill="none" stroke="#000000" points="336,-289.5 336,-341.5 536,-341.5 536,-289.5 336,-289.5"/>
<text text-anchor="start" x="344" y="-329.5" font-family="Helvetica,sans-Serif" font-size="10.00" fill="#000000">/home/travis/build</text>
<text text-anchor="start" x="344" y="-318.5" font-family="Helvetica,sans-Serif" font-size="10.00" fill="#000000">/AliceO2Group/AliceO2</text>
<text text-anchor="start" x="344" y="-307.5" font-family="Helvetica,sans-Serif" font-size="10.00" fill="#000000">/Detectors/TOF/calibration</text>
<text text-anchor="middle" x="436" y="-296.5" font-family="Helvetica,sans-Serif" font-size="10.00" fill="#000000">/include/TOFCalibration/CalibTOFapi.h</text>
</a>
</g>
</g>
<!-- Node3&#45;&gt;Node7 -->
<g id="edge4" class="edge">
<title>Node3&#45;&gt;Node7</title>
<path fill="none" stroke="#191970" d="M377.1087,-371.1523C387.6222,-361.217 398.6777,-350.7696 408.3342,-341.6442"/>
<polygon fill="#191970" stroke="#191970" points="374.4409,-368.8577 369.5767,-378.27 379.2488,-373.9454 374.4409,-368.8577"/>
</g>
<!-- Node13 -->
<g id="node11" class="node">
<title>Node13</title>
<g id="a_node11"><a xlink:href="../../da/df1/TOFClusterizerSpec_8cxx.html" target="_top" xlink:title="/home/travis/build\l/AliceO2Group/AliceO2\l/Detectors/TOF/workflow\l/src/TOFClusterizerSpec.cxx">
<polygon fill="none" stroke="#000000" points="1029,-95 1029,-147 1181,-147 1181,-95 1029,-95"/>
<text text-anchor="start" x="1037" y="-135" font-family="Helvetica,sans-Serif" font-size="10.00" fill="#000000">/home/travis/build</text>
<text text-anchor="start" x="1037" y="-124" font-family="Helvetica,sans-Serif" font-size="10.00" fill="#000000">/AliceO2Group/AliceO2</text>
<text text-anchor="start" x="1037" y="-113" font-family="Helvetica,sans-Serif" font-size="10.00" fill="#000000">/Detectors/TOF/workflow</text>
<text text-anchor="middle" x="1105" y="-102" font-family="Helvetica,sans-Serif" font-size="10.00" fill="#000000">/src/TOFClusterizerSpec.cxx</text>
</a>
</g>
</g>
<!-- Node3&#45;&gt;Node13 -->
<g id="edge19" class="edge">
<title>Node3&#45;&gt;Node13</title>
<path fill="none" stroke="#191970" d="M426.7601,-390.6529C535.9461,-365.7913 723.5844,-317.9656 876,-253 946.2864,-223.0411 1022.0144,-176.2151 1066.374,-147.1353"/>
<polygon fill="#191970" stroke="#191970" points="425.7481,-387.2933 416.7671,-392.914 427.293,-394.1207 425.7481,-387.2933"/>
</g>
<!-- Node18 -->
<g id="node16" class="node">
<title>Node18</title>
<g id="a_node16"><a xlink:href="../../d6/d61/TOFDigitizerSpec_8cxx.html" target="_top" xlink:title="/home/travis/build\l/AliceO2Group/AliceO2\l/Steer/DigitizerWorkflow\l/src/TOFDigitizerSpec.cxx">
<polygon fill="none" stroke="#000000" points="160,-95 160,-147 300,-147 300,-95 160,-95"/>
<text text-anchor="start" x="168" y="-135" font-family="Helvetica,sans-Serif" font-size="10.00" fill="#000000">/home/travis/build</text>
<text text-anchor="start" x="168" y="-124" font-family="Helvetica,sans-Serif" font-size="10.00" fill="#000000">/AliceO2Group/AliceO2</text>
<text text-anchor="start" x="168" y="-113" font-family="Helvetica,sans-Serif" font-size="10.00" fill="#000000">/Steer/DigitizerWorkflow</text>
<text text-anchor="middle" x="230" y="-102" font-family="Helvetica,sans-Serif" font-size="10.00" fill="#000000">/src/TOFDigitizerSpec.cxx</text>
</a>
</g>
</g>
<!-- Node3&#45;&gt;Node18 -->
<g id="edge21" class="edge">
<title>Node3&#45;&gt;Node18</title>
<path fill="none" stroke="#191970" d="M311.4846,-369.6289C293.6953,-338.7036 270.3293,-294.4457 256,-253 243.6742,-217.3491 236.5525,-174.1458 232.9743,-147.1075"/>
<polygon fill="#191970" stroke="#191970" points="308.5223,-371.4973 316.5756,-378.3817 314.5732,-367.9778 308.5223,-371.4973"/>
</g>
<!-- Node19 -->
<g id="node17" class="node">
<title>Node19</title>
<g id="a_node17"><a xlink:href="../../de/d79/tof-dummy-ccdb_8cxx.html" target="_top" xlink:title="/home/travis/build\l/AliceO2Group/AliceO2\l/Framework/TestWorkflows\l/src/tof&#45;dummy&#45;ccdb.cxx">
<polygon fill="none" stroke="#000000" points="926,-289.5 926,-341.5 1072,-341.5 1072,-289.5 926,-289.5"/>
<text text-anchor="start" x="934" y="-329.5" font-family="Helvetica,sans-Serif" font-size="10.00" fill="#000000">/home/travis/build</text>
<text text-anchor="start" x="934" y="-318.5" font-family="Helvetica,sans-Serif" font-size="10.00" fill="#000000">/AliceO2Group/AliceO2</text>
<text text-anchor="start" x="934" y="-307.5" font-family="Helvetica,sans-Serif" font-size="10.00" fill="#000000">/Framework/TestWorkflows</text>
<text text-anchor="middle" x="999" y="-296.5" font-family="Helvetica,sans-Serif" font-size="10.00" fill="#000000">/src/tof&#45;dummy&#45;ccdb.cxx</text>
</a>
</g>
</g>
<!-- Node3&#45;&gt;Node19 -->
<g id="edge20" class="edge">
<title>Node3&#45;&gt;Node19</title>
<path fill="none" stroke="#191970" d="M426.9669,-404.2888C541.1776,-395.9706 742.6712,-377.488 912,-342 916.4815,-341.0608 921.0642,-339.9942 925.6675,-338.8414"/>
<polygon fill="#191970" stroke="#191970" points="426.5912,-400.8066 416.8677,-405.0143 427.0928,-407.7886 426.5912,-400.8066"/>
</g>
<!-- Node6 -->
<g id="node4" class="node">
<title>Node6</title>
<g id="a_node4"><a xlink:href="../../de/d89/CalibTOF_8cxx.html" target="_top" xlink:title="/home/travis/build\l/AliceO2Group/AliceO2\l/Detectors/GlobalTracking\l/src/CalibTOF.cxx">
<polygon fill="none" stroke="#000000" points="0,-95 0,-147 142,-147 142,-95 0,-95"/>
<text text-anchor="start" x="8" y="-135" font-family="Helvetica,sans-Serif" font-size="10.00" fill="#000000">/home/travis/build</text>
<text text-anchor="start" x="8" y="-124" font-family="Helvetica,sans-Serif" font-size="10.00" fill="#000000">/AliceO2Group/AliceO2</text>
<text text-anchor="start" x="8" y="-113" font-family="Helvetica,sans-Serif" font-size="10.00" fill="#000000">/Detectors/GlobalTracking</text>
<text text-anchor="middle" x="71" y="-102" font-family="Helvetica,sans-Serif" font-size="10.00" fill="#000000">/src/CalibTOF.cxx</text>
</a>
</g>
</g>
<!-- Node5&#45;&gt;Node6 -->
<g id="edge3" class="edge">
<title>Node5&#45;&gt;Node6</title>
<path fill="none" stroke="#191970" d="M100.0888,-185.6418C94.3965,-172.9923 88.0872,-158.9715 82.8035,-147.2299"/>
<polygon fill="#191970" stroke="#191970" points="96.9988,-187.3043 104.2943,-194.9872 103.3823,-184.4317 96.9988,-187.3043"/>
</g>
<!-- Node7&#45;&gt;Node5 -->
<g id="edge5" class="edge">
<title>Node7&#45;&gt;Node5</title>
<path fill="none" stroke="#191970" d="M337.8855,-286.5256C295.2675,-273.9399 245.7243,-259.3092 204.2777,-247.0695"/>
<polygon fill="#191970" stroke="#191970" points="337.1297,-289.9517 347.7115,-289.4273 339.1123,-283.2383 337.1297,-289.9517"/>
</g>
<!-- Node8 -->
<g id="node6" class="node">
<title>Node8</title>
<g id="a_node6"><a xlink:href="../../d9/d35/CalibTOFapi_8cxx.html" target="_top" xlink:title="/home/travis/build\l/AliceO2Group/AliceO2\l/Detectors/TOF/calibration\l/src/CalibTOFapi.cxx">
<polygon fill="none" stroke="#000000" points="264.5,-195 264.5,-247 407.5,-247 407.5,-195 264.5,-195"/>
<text text-anchor="start" x="272.5" y="-235" font-family="Helvetica,sans-Serif" font-size="10.00" fill="#000000">/home/travis/build</text>
<text text-anchor="start" x="272.5" y="-224" font-family="Helvetica,sans-Serif" font-size="10.00" fill="#000000">/AliceO2Group/AliceO2</text>
<text text-anchor="start" x="272.5" y="-213" font-family="Helvetica,sans-Serif" font-size="10.00" fill="#000000">/Detectors/TOF/calibration</text>
<text text-anchor="middle" x="336" y="-202" font-family="Helvetica,sans-Serif" font-size="10.00" fill="#000000">/src/CalibTOFapi.cxx</text>
</a>
</g>
</g>
<!-- Node7&#45;&gt;Node8 -->
<g id="edge6" class="edge">
<title>Node7&#45;&gt;Node8</title>
<path fill="none" stroke="#191970" d="M401.0277,-282.4512C388.8525,-270.9457 375.3668,-258.2016 363.8473,-247.3157"/>
<polygon fill="#191970" stroke="#191970" points="398.7378,-285.1028 408.4098,-289.4273 403.5456,-280.0151 398.7378,-285.1028"/>
</g>
<!-- Node9 -->
<g id="node7" class="node">
<title>Node9</title>
<g id="a_node7"><a xlink:href="../../dc/d24/TOF_2reconstruction_2include_2TOFReconstruction_2Clusterer_8h.html" target="_top" xlink:title="/home/travis/build\l/AliceO2Group/AliceO2\l/Detectors/TOF/reconstruction\l/include/TOFReconstruction\l/Clusterer.h">
<polygon fill="none" stroke="#000000" points="670.5,-189.5 670.5,-252.5 831.5,-252.5 831.5,-189.5 670.5,-189.5"/>
<text text-anchor="start" x="678.5" y="-240.5" font-family="Helvetica,sans-Serif" font-size="10.00" fill="#000000">/home/travis/build</text>
<text text-anchor="start" x="678.5" y="-229.5" font-family="Helvetica,sans-Serif" font-size="10.00" fill="#000000">/AliceO2Group/AliceO2</text>
<text text-anchor="start" x="678.5" y="-218.5" font-family="Helvetica,sans-Serif" font-size="10.00" fill="#000000">/Detectors/TOF/reconstruction</text>
<text text-anchor="start" x="678.5" y="-207.5" font-family="Helvetica,sans-Serif" font-size="10.00" fill="#000000">/include/TOFReconstruction</text>
<text text-anchor="middle" x="751" y="-196.5" font-family="Helvetica,sans-Serif" font-size="10.00" fill="#000000">/Clusterer.h</text>
</a>
</g>
</g>
<!-- Node7&#45;&gt;Node9 -->
<g id="edge7" class="edge">
<title>Node7&#45;&gt;Node9</title>
<path fill="none" stroke="#191970" d="M540.2322,-286.7589C576.644,-276.4527 617.7236,-264.5258 655,-253 660.0353,-251.4431 665.2087,-249.8117 670.4189,-248.1445"/>
<polygon fill="#191970" stroke="#191970" points="539.2615,-283.3961 530.5887,-289.4816 541.1635,-290.1327 539.2615,-283.3961"/>
</g>
<!-- Node7&#45;&gt;Node13 -->
<g id="edge17" class="edge">
<title>Node7&#45;&gt;Node13</title>
<path fill="none" stroke="#191970" d="M546.3673,-308.4026C649.1126,-300.0404 793.3506,-283.2839 841,-253 869.9215,-234.6188 856.0895,-208.8828 884,-189 934.9257,-152.7218 960.443,-172.0393 1020,-153 1025.7073,-151.1755 1031.5931,-149.1875 1037.4787,-147.1249"/>
<polygon fill="#191970" stroke="#191970" points="545.9361,-304.9258 536.2463,-309.2102 546.493,-311.9036 545.9361,-304.9258"/>
</g>
<!-- Node14 -->
<g id="node12" class="node">
<title>Node14</title>
<g id="a_node12"><a xlink:href="../../d0/d85/TOF_2simulation_2include_2TOFSimulation_2Digitizer_8h.html" target="_top" xlink:title="/home/travis/build\l/AliceO2Group/AliceO2\l/Detectors/TOF/simulation\l/include/TOFSimulation/Digitizer.h">
<polygon fill="none" stroke="#000000" points="464,-195 464,-247 646,-247 646,-195 464,-195"/>
<text text-anchor="start" x="472" y="-235" font-family="Helvetica,sans-Serif" font-size="10.00" fill="#000000">/home/travis/build</text>
<text text-anchor="start" x="472" y="-224" font-family="Helvetica,sans-Serif" font-size="10.00" fill="#000000">/AliceO2Group/AliceO2</text>
<text text-anchor="start" x="472" y="-213" font-family="Helvetica,sans-Serif" font-size="10.00" fill="#000000">/Detectors/TOF/simulation</text>
<text text-anchor="middle" x="555" y="-202" font-family="Helvetica,sans-Serif" font-size="10.00" fill="#000000">/include/TOFSimulation/Digitizer.h</text>
</a>
</g>
</g>
<!-- Node7&#45;&gt;Node14 -->
<g id="edge12" class="edge">
<title>Node7&#45;&gt;Node14</title>
<path fill="none" stroke="#191970" d="M476.7986,-283.1011C491.499,-271.4272 507.8949,-258.407 521.8617,-247.3157"/>
<polygon fill="#191970" stroke="#191970" points="474.4868,-280.4676 468.8323,-289.4273 478.84,-285.9493 474.4868,-280.4676"/>
</g>
<!-- Node7&#45;&gt;Node18 -->
<g id="edge18" class="edge">
<title>Node7&#45;&gt;Node18</title>
<path fill="none" stroke="#191970" d="M440.0312,-279.19C441.0747,-251.4291 437.8108,-213.825 417,-189 384.7661,-150.5486 357.0894,-170.324 310,-153 304.946,-151.1407 299.7314,-149.1714 294.5014,-147.16"/>
<polygon fill="#191970" stroke="#191970" points="436.5298,-279.1156 439.448,-289.3006 443.5182,-279.5187 436.5298,-279.1156"/>
</g>
<!-- Node10 -->
<g id="node8" class="node">
<title>Node10</title>
<g id="a_node8"><a xlink:href="../../d4/d74/TOF_2reconstruction_2include_2TOFReconstruction_2ClustererTask_8h.html" target="_top" xlink:title="/home/travis/build\l/AliceO2Group/AliceO2\l/Detectors/TOF/reconstruction\l/include/TOFReconstruction\l/ClustererTask.h">
<polygon fill="none" stroke="#000000" points="849.5,-89.5 849.5,-152.5 1010.5,-152.5 1010.5,-89.5 849.5,-89.5"/>
<text text-anchor="start" x="857.5" y="-140.5" font-family="Helvetica,sans-Serif" font-size="10.00" fill="#000000">/home/travis/build</text>
<text text-anchor="start" x="857.5" y="-129.5" font-family="Helvetica,sans-Serif" font-size="10.00" fill="#000000">/AliceO2Group/AliceO2</text>
<text text-anchor="start" x="857.5" y="-118.5" font-family="Helvetica,sans-Serif" font-size="10.00" fill="#000000">/Detectors/TOF/reconstruction</text>
<text text-anchor="start" x="857.5" y="-107.5" font-family="Helvetica,sans-Serif" font-size="10.00" fill="#000000">/include/TOFReconstruction</text>
<text text-anchor="middle" x="930" y="-96.5" font-family="Helvetica,sans-Serif" font-size="10.00" fill="#000000">/ClustererTask.h</text>
</a>
</g>
</g>
<!-- Node9&#45;&gt;Node10 -->
<g id="edge8" class="edge">
<title>Node9&#45;&gt;Node10</title>
<path fill="none" stroke="#191970" d="M816.3916,-184.4684C835.0889,-174.0229 855.3031,-162.7301 873.4247,-152.6063"/>
<polygon fill="#191970" stroke="#191970" points="814.6598,-181.4267 807.6367,-189.3594 818.0738,-187.5377 814.6598,-181.4267"/>
</g>
<!-- Node12 -->
<g id="node10" class="node">
<title>Node12</title>
<g id="a_node10"><a xlink:href="../../d5/d8a/TOF_2reconstruction_2src_2Clusterer_8cxx.html" target="_top" xlink:title="/home/travis/build\l/AliceO2Group/AliceO2\l/Detectors/TOF/reconstruction\l/src/Clusterer.cxx">
<polygon fill="none" stroke="#000000" points="670.5,-95 670.5,-147 831.5,-147 831.5,-95 670.5,-95"/>
<text text-anchor="start" x="678.5" y="-135" font-family="Helvetica,sans-Serif" font-size="10.00" fill="#000000">/home/travis/build</text>
<text text-anchor="start" x="678.5" y="-124" font-family="Helvetica,sans-Serif" font-size="10.00" fill="#000000">/AliceO2Group/AliceO2</text>
<text text-anchor="start" x="678.5" y="-113" font-family="Helvetica,sans-Serif" font-size="10.00" fill="#000000">/Detectors/TOF/reconstruction</text>
<text text-anchor="middle" x="751" y="-102" font-family="Helvetica,sans-Serif" font-size="10.00" fill="#000000">/src/Clusterer.cxx</text>
</a>
</g>
</g>
<!-- Node9&#45;&gt;Node12 -->
<g id="edge10" class="edge">
<title>Node9&#45;&gt;Node12</title>
<path fill="none" stroke="#191970" d="M751,-179.1631C751,-168.2863 751,-156.8798 751,-147.078"/>
<polygon fill="#191970" stroke="#191970" points="747.5001,-179.3593 751,-189.3594 754.5001,-179.3594 747.5001,-179.3593"/>
</g>
<!-- Node9&#45;&gt;Node13 -->
<g id="edge11" class="edge">
<title>Node9&#45;&gt;Node13</title>
<path fill="none" stroke="#191970" d="M841.5613,-190.2235C843.0498,-189.8063 844.5301,-189.398 846,-189 922.2256,-168.3578 944.149,-174.9788 1020,-153 1026.058,-151.2446 1032.2981,-149.2565 1038.5155,-147.1513"/>
<polygon fill="#191970" stroke="#191970" points="840.2775,-186.9514 831.6463,-193.0958 842.2253,-193.675 840.2775,-186.9514"/>
</g>
<!-- Node11 -->
<g id="node9" class="node">
<title>Node11</title>
<g id="a_node9"><a xlink:href="../../d5/d10/TOF_2reconstruction_2src_2ClustererTask_8cxx.html" target="_top" xlink:title="/home/travis/build\l/AliceO2Group/AliceO2\l/Detectors/TOF/reconstruction\l/src/ClustererTask.cxx">
<polygon fill="none" stroke="#000000" points="849.5,-.5 849.5,-52.5 1010.5,-52.5 1010.5,-.5 849.5,-.5"/>
<text text-anchor="start" x="857.5" y="-40.5" font-family="Helvetica,sans-Serif" font-size="10.00" fill="#000000">/home/travis/build</text>
<text text-anchor="start" x="857.5" y="-29.5" font-family="Helvetica,sans-Serif" font-size="10.00" fill="#000000">/AliceO2Group/AliceO2</text>
<text text-anchor="start" x="857.5" y="-18.5" font-family="Helvetica,sans-Serif" font-size="10.00" fill="#000000">/Detectors/TOF/reconstruction</text>
<text text-anchor="middle" x="930" y="-7.5" font-family="Helvetica,sans-Serif" font-size="10.00" fill="#000000">/src/ClustererTask.cxx</text>
</a>
</g>
</g>
<!-- Node10&#45;&gt;Node11 -->
<g id="edge9" class="edge">
<title>Node10&#45;&gt;Node11</title>
<path fill="none" stroke="#191970" d="M930,-79.2457C930,-70.2008 930,-60.8836 930,-52.6442"/>
<polygon fill="#191970" stroke="#191970" points="926.5001,-79.2699 930,-89.27 933.5001,-79.27 926.5001,-79.2699"/>
</g>
<!-- Node15 -->
<g id="node13" class="node">
<title>Node15</title>
<g id="a_node13"><a xlink:href="../../d8/dc6/TOF_2simulation_2include_2TOFSimulation_2DigitizerTask_8h.html" target="_top" xlink:title="/home/travis/build\l/AliceO2Group/AliceO2\l/Detectors/TOF/simulation\l/include/TOFSimulation/Digitizer\lTask.h">
<polygon fill="none" stroke="#000000" points="318.5,-89.5 318.5,-152.5 491.5,-152.5 491.5,-89.5 318.5,-89.5"/>
<text text-anchor="start" x="326.5" y="-140.5" font-family="Helvetica,sans-Serif" font-size="10.00" fill="#000000">/home/travis/build</text>
<text text-anchor="start" x="326.5" y="-129.5" font-family="Helvetica,sans-Serif" font-size="10.00" fill="#000000">/AliceO2Group/AliceO2</text>
<text text-anchor="start" x="326.5" y="-118.5" font-family="Helvetica,sans-Serif" font-size="10.00" fill="#000000">/Detectors/TOF/simulation</text>
<text text-anchor="start" x="326.5" y="-107.5" font-family="Helvetica,sans-Serif" font-size="10.00" fill="#000000">/include/TOFSimulation/Digitizer</text>
<text text-anchor="middle" x="405" y="-96.5" font-family="Helvetica,sans-Serif" font-size="10.00" fill="#000000">Task.h</text>
</a>
</g>
</g>
<!-- Node14&#45;&gt;Node15 -->
<g id="edge13" class="edge">
<title>Node14&#45;&gt;Node15</title>
<path fill="none" stroke="#191970" d="M507.5475,-189.365C489.9416,-177.6277 469.9835,-164.3223 452.3837,-152.5891"/>
<polygon fill="#191970" stroke="#191970" points="505.7189,-192.3524 515.9808,-194.9872 509.6018,-186.528 505.7189,-192.3524"/>
</g>
<!-- Node17 -->
<g id="node15" class="node">
<title>Node17</title>
<g id="a_node15"><a xlink:href="../../d4/df3/TOF_2simulation_2src_2Digitizer_8cxx.html" target="_top" xlink:title="/home/travis/build\l/AliceO2Group/AliceO2\l/Detectors/TOF/simulation\l/src/Digitizer.cxx">
<polygon fill="none" stroke="#000000" points="509.5,-95 509.5,-147 652.5,-147 652.5,-95 509.5,-95"/>
<text text-anchor="start" x="517.5" y="-135" font-family="Helvetica,sans-Serif" font-size="10.00" fill="#000000">/home/travis/build</text>
<text text-anchor="start" x="517.5" y="-124" font-family="Helvetica,sans-Serif" font-size="10.00" fill="#000000">/AliceO2Group/AliceO2</text>
<text text-anchor="start" x="517.5" y="-113" font-family="Helvetica,sans-Serif" font-size="10.00" fill="#000000">/Detectors/TOF/simulation</text>
<text text-anchor="middle" x="581" y="-102" font-family="Helvetica,sans-Serif" font-size="10.00" fill="#000000">/src/Digitizer.cxx</text>
</a>
</g>
</g>
<!-- Node14&#45;&gt;Node17 -->
<g id="edge15" class="edge">
<title>Node14&#45;&gt;Node17</title>
<path fill="none" stroke="#191970" d="M564.29,-185.2694C567.5534,-172.7176 571.1573,-158.8564 574.1802,-147.2299"/>
<polygon fill="#191970" stroke="#191970" points="560.8924,-184.4283 561.7633,-194.9872 567.6671,-186.1897 560.8924,-184.4283"/>
</g>
<!-- Node14&#45;&gt;Node18 -->
<g id="edge16" class="edge">
<title>Node14&#45;&gt;Node18</title>
<path fill="none" stroke="#191970" d="M460.9835,-192.1264C457.278,-191.0585 453.6064,-190.0127 450,-189 388.1459,-171.6311 371.0634,-172.9717 310,-153 304.4551,-151.1865 298.743,-149.1828 293.0433,-147.0891"/>
<polygon fill="#191970" stroke="#191970" points="460.2705,-195.564 470.8501,-194.9973 462.2262,-188.8428 460.2705,-195.564"/>
</g>
<!-- Node16 -->
<g id="node14" class="node">
<title>Node16</title>
<g id="a_node14"><a xlink:href="../../dd/df3/TOF_2simulation_2src_2DigitizerTask_8cxx.html" target="_top" xlink:title="/home/travis/build\l/AliceO2Group/AliceO2\l/Detectors/TOF/simulation\l/src/DigitizerTask.cxx">
<polygon fill="none" stroke="#000000" points="333.5,-.5 333.5,-52.5 476.5,-52.5 476.5,-.5 333.5,-.5"/>
<text text-anchor="start" x="341.5" y="-40.5" font-family="Helvetica,sans-Serif" font-size="10.00" fill="#000000">/home/travis/build</text>
<text text-anchor="start" x="341.5" y="-29.5" font-family="Helvetica,sans-Serif" font-size="10.00" fill="#000000">/AliceO2Group/AliceO2</text>
<text text-anchor="start" x="341.5" y="-18.5" font-family="Helvetica,sans-Serif" font-size="10.00" fill="#000000">/Detectors/TOF/simulation</text>
<text text-anchor="middle" x="405" y="-7.5" font-family="Helvetica,sans-Serif" font-size="10.00" fill="#000000">/src/DigitizerTask.cxx</text>
</a>
</g>
</g>
<!-- Node15&#45;&gt;Node16 -->
<g id="edge14" class="edge">
<title>Node15&#45;&gt;Node16</title>
<path fill="none" stroke="#191970" d="M405,-79.2457C405,-70.2008 405,-60.8836 405,-52.6442"/>
<polygon fill="#191970" stroke="#191970" points="401.5001,-79.2699 405,-89.27 408.5001,-79.27 401.5001,-79.2699"/>
</g>
</g>
</svg>
        <g id="navigator" transform="translate(0 0)" fill="#404254">
                <rect fill="#f2f5e9" fill-opacity="0.5" stroke="#606060" stroke-width=".5" x="0" y="0" width="60" height="60"/>
                <use id="zoomplus" xlink:href="#zoomPlus" x="17" y="9" onmousedown="handleZoom(evt,'in')"/>
                <use id="zoomminus" xlink:href="#zoomMin" x="42" y="9" onmousedown="handleZoom(evt,'out')"/>
                <use id="reset" xlink:href="#resetDef" x="30" y="36" onmousedown="handleReset()"/>
                <g id="arrowUp" xlink:href="#dirArrow" transform="translate(30 24)" onmousedown="handlePan(0,-1)">
                  <use xlink:href="#rim" fill="#404040">
                        <set attributeName="fill" to="#808080" begin="arrowUp.mouseover" end="arrowUp.mouseout"/>
                  </use>
                  <path fill="none" stroke="white" stroke-width="1.5" d="M0,-3.0v7 M-2.5,-0.5L0,-3.0L2.5,-0.5"/>
                </g>
                <g id="arrowRight" xlink:href="#dirArrow" transform="rotate(90) translate(36 -43)" onmousedown="handlePan(1,0)">
                  <use xlink:href="#rim" fill="#404040">
                        <set attributeName="fill" to="#808080" begin="arrowRight.mouseover" end="arrowRight.mouseout"/>
                  </use>
                  <path fill="none" stroke="white" stroke-width="1.5" d="M0,-3.0v7 M-2.5,-0.5L0,-3.0L2.5,-0.5"/>
                </g>
                <g id="arrowDown" xlink:href="#dirArrow" transform="rotate(180) translate(-30 -48)" onmousedown="handlePan(0,1)">
                  <use xlink:href="#rim" fill="#404040">
                        <set attributeName="fill" to="#808080" begin="arrowDown.mouseover" end="arrowDown.mouseout"/>
                  </use>
                  <path fill="none" stroke="white" stroke-width="1.5" d="M0,-3.0v7 M-2.5,-0.5L0,-3.0L2.5,-0.5"/>
                </g>
                <g id="arrowLeft" xlink:href="#dirArrow" transform="rotate(270) translate(-36 17)" onmousedown="handlePan(-1,0)">
                  <use xlink:href="#rim" fill="#404040">
                        <set attributeName="fill" to="#808080" begin="arrowLeft.mouseover" end="arrowLeft.mouseout"/>
                  </use>
                  <path fill="none" stroke="white" stroke-width="1.5" d="M0,-3.0v7 M-2.5,-0.5L0,-3.0L2.5,-0.5"/>
                </g>
        </g>
        <svg viewBox="0 0 15 15" width="100%" height="30px" preserveAspectRatio="xMaxYMin meet">
         <g id="arrow_out" transform="scale(0.3 0.3)">
          <a xlink:href="CalibLHCphaseTOF_8h__dep__incl_org.svg" target="_base">
           <rect id="button" ry="5" rx="5" y="6" x="6" height="38" width="38"
                fill="#f2f5e9" fill-opacity="0.5" stroke="#606060" stroke-width="1.0"/>
           <path id="arrow"
             d="M 11.500037,31.436501 C 11.940474,20.09759 22.043105,11.32322 32.158766,21.979434 L 37.068811,17.246167 C 37.068811,17.246167 37.088388,32 37.088388,32 L 22.160133,31.978069 C 22.160133,31.978069 26.997745,27.140456 26.997745,27.140456 C 18.528582,18.264221 13.291696,25.230495 11.500037,31.436501 z"
             style="fill:#404040;"/>
          </a>
         </g>
        </svg>
</svg>
