<?xml version="1.0" encoding="UTF-8" standalone="no"?>
<!DOCTYPE svg PUBLIC "-//W3C//DTD SVG 1.1//EN"
 "http://www.w3.org/Graphics/SVG/1.1/DTD/svg11.dtd">
<!-- Generated by graphviz version 2.40.1 (20161225.0304)
 -->
<!-- Title: o2::framework::StringContext::MessageRef Pages: 1 -->
<svg width="395pt" height="182pt"
 viewBox="0.00 0.00 395.00 182.00" xmlns="http://www.w3.org/2000/svg" xmlns:xlink="http://www.w3.org/1999/xlink">
<g id="graph0" class="graph" transform="scale(1 1) rotate(0) translate(4 178)">
<title>o2::framework::StringContext::MessageRef</title>
<!-- Node1 -->
<g id="node1" class="node">
<title>Node1</title>
<polygon fill="#bfbfbf" stroke="#000000" points="64.5,-.5 64.5,-68.5 225.5,-68.5 225.5,-.5 64.5,-.5"/>
<text text-anchor="start" x="72.5" y="-56.5" font-family="Helvetica,sans-Serif" font-size="10.00" fill="#000000">o2::framework::StringContext</text>
<text text-anchor="middle" x="145" y="-45.5" font-family="Helvetica,sans-Serif" font-size="10.00" fill="#000000">::MessageRef</text>
<polyline fill="none" stroke="#000000" points="64.5,-38.5 225.5,-38.5 "/>
<text text-anchor="middle" x="145" y="-26.5" font-family="Helvetica,sans-Serif" font-size="10.00" fill="#000000"> </text>
<polyline fill="none" stroke="#000000" points="64.5,-19.5 225.5,-19.5 "/>
<text text-anchor="middle" x="145" y="-7.5" font-family="Helvetica,sans-Serif" font-size="10.00" fill="#000000"> </text>
</g>
<!-- Node2 -->
<g id="node2" class="node">
<title>Node2</title>
<polygon fill="none" stroke="#bfbfbf" points="0,-116.5 0,-173.5 44,-173.5 44,-116.5 0,-116.5"/>
<text text-anchor="middle" x="22" y="-161.5" font-family="Helvetica,sans-Serif" font-size="10.00" fill="#000000">string</text>
<polyline fill="none" stroke="#bfbfbf" points="0,-154.5 44,-154.5 "/>
<text text-anchor="middle" x="22" y="-142.5" font-family="Helvetica,sans-Serif" font-size="10.00" fill="#000000"> </text>
<polyline fill="none" stroke="#bfbfbf" points="0,-135.5 44,-135.5 "/>
<text text-anchor="middle" x="22" y="-123.5" font-family="Helvetica,sans-Serif" font-size="10.00" fill="#000000"> </text>
</g>
<!-- Node2&#45;&gt;Node1 -->
<g id="edge1" class="edge">
<title>Node2&#45;&gt;Node1</title>
<path fill="none" stroke="#404040" d="M44.2839,-124.0182C47.2045,-121.3082 50.1661,-118.5799 53,-116 67.1085,-103.156 82.5849,-89.3418 96.7524,-76.802"/>
<polygon fill="none" stroke="#404040" points="96.8526,-76.7134 98.701,-69.7432 105.8459,-68.7686 103.9976,-75.7388 96.8526,-76.7134"/>
<text text-anchor="middle" x="109" y="-90" font-family="Helvetica,sans-Serif" font-size="10.00" fill="#000000"> +channel</text>
</g>
<!-- Node3 -->
<g id="node3" class="node">
<title>Node3</title>
<polygon fill="none" stroke="#bfbfbf" points="61.5,-116.5 61.5,-173.5 228.5,-173.5 228.5,-116.5 61.5,-116.5"/>
<text text-anchor="middle" x="145" y="-161.5" font-family="Helvetica,sans-Serif" font-size="10.00" fill="#000000">unique_ptr&lt; FairMQMessage &gt;</text>
<polyline fill="none" stroke="#bfbfbf" points="61.5,-154.5 228.5,-154.5 "/>
<text text-anchor="middle" x="145" y="-142.5" font-family="Helvetica,sans-Serif" font-size="10.00" fill="#000000"> </text>
<polyline fill="none" stroke="#bfbfbf" points="61.5,-135.5 228.5,-135.5 "/>
<text text-anchor="middle" x="145" y="-123.5" font-family="Helvetica,sans-Serif" font-size="10.00" fill="#000000"> </text>
</g>
<!-- Node3&#45;&gt;Node1 -->
<g id="edge2" class="edge">
<title>Node3&#45;&gt;Node1</title>
<path fill="none" stroke="#404040" d="M145,-116.2559C145,-105.4349 145,-92.8362 145,-80.8169"/>
<polygon fill="none" stroke="#404040" points="145.0001,-80.6001 141,-74.6001 145,-68.6001 149,-74.6 145.0001,-80.6001"/>
<text text-anchor="middle" x="168" y="-90" font-family="Helvetica,sans-Serif" font-size="10.00" fill="#000000"> +header</text>
</g>
<!-- Node4 -->
<g id="node4" class="node">
<title>Node4</title>
<polygon fill="none" stroke="#bfbfbf" points="247,-116.5 247,-173.5 387,-173.5 387,-116.5 247,-116.5"/>
<text text-anchor="middle" x="317" y="-161.5" font-family="Helvetica,sans-Serif" font-size="10.00" fill="#000000">unique_ptr&lt; std::string &gt;</text>
<polyline fill="none" stroke="#bfbfbf" points="247,-154.5 387,-154.5 "/>
<text text-anchor="middle" x="317" y="-142.5" font-family="Helvetica,sans-Serif" font-size="10.00" fill="#000000"> </text>
<polyline fill="none" stroke="#bfbfbf" points="247,-135.5 387,-135.5 "/>
<text text-anchor="middle" x="317" y="-123.5" font-family="Helvetica,sans-Serif" font-size="10.00" fill="#000000"> </text>
</g>
<!-- Node4&#45;&gt;Node1 -->
<g id="edge3" class="edge">
<title>Node4&#45;&gt;Node1</title>
<path fill="none" stroke="#404040" d="M272.258,-116.2559C252.755,-103.7264 229.5421,-88.8134 208.3149,-75.1762"/>
<polygon fill="none" stroke="#404040" points="208.1749,-75.0862 200.9648,-75.2085 198.0788,-68.6001 205.2889,-68.4778 208.1749,-75.0862"/>
<text text-anchor="middle" x="266.5" y="-90" font-family="Helvetica,sans-Serif" font-size="10.00" fill="#000000"> +payload</text>
</g>
</g>
</svg>
