<?xml version="1.0" encoding="UTF-8" standalone="no"?>
<!DOCTYPE svg PUBLIC "-//W3C//DTD SVG 1.1//EN"
 "http://www.w3.org/Graphics/SVG/1.1/DTD/svg11.dtd">
<!-- Generated by graphviz version 2.40.1 (20161225.0304)
 -->
<!-- Title: o2::cpv::CPVSimParams Pages: 1 -->
<svg width="553pt" height="1136pt"
 viewBox="0.00 0.00 553.00 1136.00" xmlns="http://www.w3.org/2000/svg" xmlns:xlink="http://www.w3.org/1999/xlink">
<g id="graph0" class="graph" transform="scale(1 1) rotate(0) translate(4 1132)">
<title>o2::cpv::CPVSimParams</title>
<!-- Node4 -->
<g id="node1" class="node">
<title>Node4</title>
<polygon fill="#bfbfbf" stroke="#000000" points="215.5,-.5 215.5,-68.5 346.5,-68.5 346.5,-.5 215.5,-.5"/>
<text text-anchor="middle" x="281" y="-56.5" font-family="Helvetica,sans-Serif" font-size="10.00" fill="#000000">o2::cpv::CPVSimParams</text>
<polyline fill="none" stroke="#000000" points="215.5,-49.5 346.5,-49.5 "/>
<text text-anchor="start" x="223.5" y="-37.5" font-family="Helvetica,sans-Serif" font-size="10.00" fill="#000000">+ mA</text>
<polyline fill="none" stroke="#000000" points="215.5,-30.5 346.5,-30.5 "/>
<text text-anchor="start" x="223.5" y="-18.5" font-family="Helvetica,sans-Serif" font-size="10.00" fill="#000000">+ CellWr()</text>
<text text-anchor="start" x="223.5" y="-7.5" font-family="Helvetica,sans-Serif" font-size="10.00" fill="#000000">+ O2ParamDef()</text>
</g>
<!-- Node5 -->
<g id="node2" class="node">
<title>Node5</title>
<g id="a_node2"><a xlink:href="../../d7/d50/classo2_1_1conf_1_1ConfigurableParamHelper.html" target="_top" xlink:title="{o2::conf::ConfigurableParam\lHelper\&lt; CPVSimParams \&gt;\n||+ getName()\l+ printKeyValues()\l+ output()\l+ getDataMembers()\l+ putKeyValues()\l+ initFrom()\l+ serializeTo()\l+ Instance()\l}">
<polygon fill="none" stroke="#000000" points="21,-226.5 21,-371.5 175,-371.5 175,-226.5 21,-226.5"/>
<text text-anchor="start" x="29" y="-359.5" font-family="Helvetica,sans-Serif" font-size="10.00" fill="#000000">o2::conf::ConfigurableParam</text>
<text text-anchor="middle" x="98" y="-348.5" font-family="Helvetica,sans-Serif" font-size="10.00" fill="#000000">Helper&lt; CPVSimParams &gt;</text>
<polyline fill="none" stroke="#000000" points="21,-341.5 175,-341.5 "/>
<text text-anchor="middle" x="98" y="-329.5" font-family="Helvetica,sans-Serif" font-size="10.00" fill="#000000"> </text>
<polyline fill="none" stroke="#000000" points="21,-322.5 175,-322.5 "/>
<text text-anchor="start" x="29" y="-310.5" font-family="Helvetica,sans-Serif" font-size="10.00" fill="#000000">+ getName()</text>
<text text-anchor="start" x="29" y="-299.5" font-family="Helvetica,sans-Serif" font-size="10.00" fill="#000000">+ printKeyValues()</text>
<text text-anchor="start" x="29" y="-288.5" font-family="Helvetica,sans-Serif" font-size="10.00" fill="#000000">+ output()</text>
<text text-anchor="start" x="29" y="-277.5" font-family="Helvetica,sans-Serif" font-size="10.00" fill="#000000">+ getDataMembers()</text>
<text text-anchor="start" x="29" y="-266.5" font-family="Helvetica,sans-Serif" font-size="10.00" fill="#000000">+ putKeyValues()</text>
<text text-anchor="start" x="29" y="-255.5" font-family="Helvetica,sans-Serif" font-size="10.00" fill="#000000">+ initFrom()</text>
<text text-anchor="start" x="29" y="-244.5" font-family="Helvetica,sans-Serif" font-size="10.00" fill="#000000">+ serializeTo()</text>
<text text-anchor="start" x="29" y="-233.5" font-family="Helvetica,sans-Serif" font-size="10.00" fill="#000000">+ Instance()</text>
</a>
</g>
</g>
<!-- Node5&#45;&gt;Node4 -->
<g id="edge1" class="edge">
<title>Node5&#45;&gt;Node4</title>
<path fill="none" stroke="#191970" d="M120.5205,-216.8627C135.2827,-174.4339 158.0555,-123.9568 191,-87 197.9814,-79.1683 206.4191,-72.1905 215.2949,-66.0817"/>
<polygon fill="none" stroke="#191970" points="117.2029,-215.7477 117.3077,-226.342 123.8325,-217.9947 117.2029,-215.7477"/>
</g>
<!-- Node6 -->
<g id="node3" class="node">
<title>Node6</title>
<g id="a_node3"><a xlink:href="../../d6/d14/classo2_1_1conf_1_1ConfigurableParam.html" target="_top" xlink:title="{o2::conf::ConfigurableParam\n||+ getName()\l+ printKeyValues()\l+ toString()\l+ printAllRegisteredParamNames()\l+ printAllKeyValuePairs()\l+ readINI()\l+ readJSON()\l+ readConfigFile()\l+ writeJSON()\l+ writeINI()\l+ getValueAs()\l+ setValue()\l+ setValue()\l+ setEnumValue()\l+ setArrayValue()\l+ setValues()\l+ initialize()\l+ toCCDB()\l+ fromCCDB()\l+ updateFromString()\l+ updateFromFile()\l# ConfigurableParam()\l# ~ConfigurableParam()\l# putKeyValues()\l# output()\l# serializeTo()\l# initFrom()\l# setRegisterMode()\l# initPropertyTree()\l# updateThroughStorageMap()\l# updateThroughStorageMapWith\lConversion()\l}">
<polygon fill="none" stroke="#000000" points="0,-602.5 0,-1000.5 188,-1000.5 188,-602.5 0,-602.5"/>
<text text-anchor="middle" x="94" y="-988.5" font-family="Helvetica,sans-Serif" font-size="10.00" fill="#000000">o2::conf::ConfigurableParam</text>
<polyline fill="none" stroke="#000000" points="0,-981.5 188,-981.5 "/>
<text text-anchor="middle" x="94" y="-969.5" font-family="Helvetica,sans-Serif" font-size="10.00" fill="#000000"> </text>
<polyline fill="none" stroke="#000000" points="0,-962.5 188,-962.5 "/>
<text text-anchor="start" x="8" y="-950.5" font-family="Helvetica,sans-Serif" font-size="10.00" fill="#000000">+ getName()</text>
<text text-anchor="start" x="8" y="-939.5" font-family="Helvetica,sans-Serif" font-size="10.00" fill="#000000">+ printKeyValues()</text>
<text text-anchor="start" x="8" y="-928.5" font-family="Helvetica,sans-Serif" font-size="10.00" fill="#000000">+ toString()</text>
<text text-anchor="start" x="8" y="-917.5" font-family="Helvetica,sans-Serif" font-size="10.00" fill="#000000">+ printAllRegisteredParamNames()</text>
<text text-anchor="start" x="8" y="-906.5" font-family="Helvetica,sans-Serif" font-size="10.00" fill="#000000">+ printAllKeyValuePairs()</text>
<text text-anchor="start" x="8" y="-895.5" font-family="Helvetica,sans-Serif" font-size="10.00" fill="#000000">+ readINI()</text>
<text text-anchor="start" x="8" y="-884.5" font-family="Helvetica,sans-Serif" font-size="10.00" fill="#000000">+ readJSON()</text>
<text text-anchor="start" x="8" y="-873.5" font-family="Helvetica,sans-Serif" font-size="10.00" fill="#000000">+ readConfigFile()</text>
<text text-anchor="start" x="8" y="-862.5" font-family="Helvetica,sans-Serif" font-size="10.00" fill="#000000">+ writeJSON()</text>
<text text-anchor="start" x="8" y="-851.5" font-family="Helvetica,sans-Serif" font-size="10.00" fill="#000000">+ writeINI()</text>
<text text-anchor="start" x="8" y="-840.5" font-family="Helvetica,sans-Serif" font-size="10.00" fill="#000000">+ getValueAs()</text>
<text text-anchor="start" x="8" y="-829.5" font-family="Helvetica,sans-Serif" font-size="10.00" fill="#000000">+ setValue()</text>
<text text-anchor="start" x="8" y="-818.5" font-family="Helvetica,sans-Serif" font-size="10.00" fill="#000000">+ setValue()</text>
<text text-anchor="start" x="8" y="-807.5" font-family="Helvetica,sans-Serif" font-size="10.00" fill="#000000">+ setEnumValue()</text>
<text text-anchor="start" x="8" y="-796.5" font-family="Helvetica,sans-Serif" font-size="10.00" fill="#000000">+ setArrayValue()</text>
<text text-anchor="start" x="8" y="-785.5" font-family="Helvetica,sans-Serif" font-size="10.00" fill="#000000">+ setValues()</text>
<text text-anchor="start" x="8" y="-774.5" font-family="Helvetica,sans-Serif" font-size="10.00" fill="#000000">+ initialize()</text>
<text text-anchor="start" x="8" y="-763.5" font-family="Helvetica,sans-Serif" font-size="10.00" fill="#000000">+ toCCDB()</text>
<text text-anchor="start" x="8" y="-752.5" font-family="Helvetica,sans-Serif" font-size="10.00" fill="#000000">+ fromCCDB()</text>
<text text-anchor="start" x="8" y="-741.5" font-family="Helvetica,sans-Serif" font-size="10.00" fill="#000000">+ updateFromString()</text>
<text text-anchor="start" x="8" y="-730.5" font-family="Helvetica,sans-Serif" font-size="10.00" fill="#000000">+ updateFromFile()</text>
<text text-anchor="start" x="8" y="-719.5" font-family="Helvetica,sans-Serif" font-size="10.00" fill="#000000"># ConfigurableParam()</text>
<text text-anchor="start" x="8" y="-708.5" font-family="Helvetica,sans-Serif" font-size="10.00" fill="#000000"># ~ConfigurableParam()</text>
<text text-anchor="start" x="8" y="-697.5" font-family="Helvetica,sans-Serif" font-size="10.00" fill="#000000"># putKeyValues()</text>
<text text-anchor="start" x="8" y="-686.5" font-family="Helvetica,sans-Serif" font-size="10.00" fill="#000000"># output()</text>
<text text-anchor="start" x="8" y="-675.5" font-family="Helvetica,sans-Serif" font-size="10.00" fill="#000000"># serializeTo()</text>
<text text-anchor="start" x="8" y="-664.5" font-family="Helvetica,sans-Serif" font-size="10.00" fill="#000000"># initFrom()</text>
<text text-anchor="start" x="8" y="-653.5" font-family="Helvetica,sans-Serif" font-size="10.00" fill="#000000"># setRegisterMode()</text>
<text text-anchor="start" x="8" y="-642.5" font-family="Helvetica,sans-Serif" font-size="10.00" fill="#000000"># initPropertyTree()</text>
<text text-anchor="start" x="8" y="-631.5" font-family="Helvetica,sans-Serif" font-size="10.00" fill="#000000"># updateThroughStorageMap()</text>
<text text-anchor="start" x="8" y="-620.5" font-family="Helvetica,sans-Serif" font-size="10.00" fill="#000000"># updateThroughStorageMapWith</text>
<text text-anchor="start" x="8" y="-609.5" font-family="Helvetica,sans-Serif" font-size="10.00" fill="#000000">Conversion()</text>
</a>
</g>
</g>
<!-- Node6&#45;&gt;Node5 -->
<g id="edge2" class="edge">
<title>Node6&#45;&gt;Node5</title>
<path fill="none" stroke="#191970" d="M95.6665,-592.1443C96.291,-513.6938 96.9601,-429.6358 97.421,-371.7369"/>
<polygon fill="none" stroke="#191970" points="92.1665,-592.1494 95.5867,-602.177 99.1662,-592.2052 92.1665,-592.1494"/>
</g>
<!-- Node8 -->
<g id="node5" class="node">
<title>Node8</title>
<g id="a_node5"><a xlink:href="../../d7/d50/classo2_1_1conf_1_1ConfigurableParamHelper.html" target="_top" xlink:title="{o2::conf::ConfigurableParam\lHelper\&lt; P \&gt;\n||+ getName()\l+ printKeyValues()\l+ output()\l+ getDataMembers()\l+ putKeyValues()\l+ initFrom()\l+ serializeTo()\l+ Instance()\l}">
<polygon fill="none" stroke="#000000" points="110,-419.5 110,-564.5 264,-564.5 264,-419.5 110,-419.5"/>
<text text-anchor="start" x="118" y="-552.5" font-family="Helvetica,sans-Serif" font-size="10.00" fill="#000000">o2::conf::ConfigurableParam</text>
<text text-anchor="middle" x="187" y="-541.5" font-family="Helvetica,sans-Serif" font-size="10.00" fill="#000000">Helper&lt; P &gt;</text>
<polyline fill="none" stroke="#000000" points="110,-534.5 264,-534.5 "/>
<text text-anchor="middle" x="187" y="-522.5" font-family="Helvetica,sans-Serif" font-size="10.00" fill="#000000"> </text>
<polyline fill="none" stroke="#000000" points="110,-515.5 264,-515.5 "/>
<text text-anchor="start" x="118" y="-503.5" font-family="Helvetica,sans-Serif" font-size="10.00" fill="#000000">+ getName()</text>
<text text-anchor="start" x="118" y="-492.5" font-family="Helvetica,sans-Serif" font-size="10.00" fill="#000000">+ printKeyValues()</text>
<text text-anchor="start" x="118" y="-481.5" font-family="Helvetica,sans-Serif" font-size="10.00" fill="#000000">+ output()</text>
<text text-anchor="start" x="118" y="-470.5" font-family="Helvetica,sans-Serif" font-size="10.00" fill="#000000">+ getDataMembers()</text>
<text text-anchor="start" x="118" y="-459.5" font-family="Helvetica,sans-Serif" font-size="10.00" fill="#000000">+ putKeyValues()</text>
<text text-anchor="start" x="118" y="-448.5" font-family="Helvetica,sans-Serif" font-size="10.00" fill="#000000">+ initFrom()</text>
<text text-anchor="start" x="118" y="-437.5" font-family="Helvetica,sans-Serif" font-size="10.00" fill="#000000">+ serializeTo()</text>
<text text-anchor="start" x="118" y="-426.5" font-family="Helvetica,sans-Serif" font-size="10.00" fill="#000000">+ Instance()</text>
</a>
</g>
</g>
<!-- Node6&#45;&gt;Node8 -->
<g id="edge5" class="edge">
<title>Node6&#45;&gt;Node8</title>
<path fill="none" stroke="#191970" d="M156.7783,-592.5766C159.707,-582.83 162.5371,-573.4114 165.2133,-564.5052"/>
<polygon fill="none" stroke="#191970" points="153.3446,-591.8416 153.8187,-602.4258 160.0485,-593.8561 153.3446,-591.8416"/>
</g>
<!-- Node7 -->
<g id="node4" class="node">
<title>Node7</title>
<polygon fill="none" stroke="#bfbfbf" points="72,-1070.5 72,-1127.5 116,-1127.5 116,-1070.5 72,-1070.5"/>
<text text-anchor="middle" x="94" y="-1115.5" font-family="Helvetica,sans-Serif" font-size="10.00" fill="#000000">static</text>
<polyline fill="none" stroke="#bfbfbf" points="72,-1108.5 116,-1108.5 "/>
<text text-anchor="middle" x="94" y="-1096.5" font-family="Helvetica,sans-Serif" font-size="10.00" fill="#000000"> </text>
<polyline fill="none" stroke="#bfbfbf" points="72,-1089.5 116,-1089.5 "/>
<text text-anchor="middle" x="94" y="-1077.5" font-family="Helvetica,sans-Serif" font-size="10.00" fill="#000000"> </text>
</g>
<!-- Node7&#45;&gt;Node6 -->
<g id="edge3" class="edge">
<title>Node7&#45;&gt;Node6</title>
<path fill="none" stroke="#404040" d="M94,-1070.4744C94,-1055.373 94,-1035.3336 94,-1012.9805"/>
<polygon fill="none" stroke="#404040" points="94.0001,-1012.7194 90,-1006.7194 94,-1000.7194 98,-1006.7193 94.0001,-1012.7194"/>
<text text-anchor="middle" x="153" y="-1044" font-family="Helvetica,sans-Serif" font-size="10.00" fill="#000000"> #sEnumRegistry</text>
<text text-anchor="middle" x="153" y="-1033" font-family="Helvetica,sans-Serif" font-size="10.00" fill="#000000">#sValueProvenanceMap</text>
<text text-anchor="middle" x="153" y="-1022" font-family="Helvetica,sans-Serif" font-size="10.00" fill="#000000">#sKeyToStorageMap</text>
</g>
<!-- Node8&#45;&gt;Node5 -->
<g id="edge4" class="edge">
<title>Node8&#45;&gt;Node5</title>
<path fill="none" stroke="#ffa500" d="M149.2238,-410.0808C143.3315,-397.3031 137.2782,-384.1763 131.4901,-371.6245"/>
<polygon fill="#ffa500" stroke="#ffa500" points="146.1137,-411.6947 153.4797,-419.31 152.4704,-408.7633 146.1137,-411.6947"/>
<text text-anchor="middle" x="193" y="-393" font-family="Helvetica,sans-Serif" font-size="10.00" fill="#000000"> &lt; CPVSimParams &gt;</text>
</g>
<!-- Node9 -->
<g id="node6" class="node">
<title>Node9</title>
<g id="a_node6"><a xlink:href="../../d4/dc3/classfloat.html" target="_top" xlink:title="{float\n||}">
<polygon fill="none" stroke="#000000" points="193,-270.5 193,-327.5 231,-327.5 231,-270.5 193,-270.5"/>
<text text-anchor="middle" x="212" y="-315.5" font-family="Helvetica,sans-Serif" font-size="10.00" fill="#000000">float</text>
<polyline fill="none" stroke="#000000" points="193,-308.5 231,-308.5 "/>
<text text-anchor="middle" x="212" y="-296.5" font-family="Helvetica,sans-Serif" font-size="10.00" fill="#000000"> </text>
<polyline fill="none" stroke="#000000" points="193,-289.5 231,-289.5 "/>
<text text-anchor="middle" x="212" y="-277.5" font-family="Helvetica,sans-Serif" font-size="10.00" fill="#000000"> </text>
</a>
</g>
</g>
<!-- Node9&#45;&gt;Node4 -->
<g id="edge6" class="edge">
<title>Node9&#45;&gt;Node4</title>
<path fill="none" stroke="#404040" d="M204.6068,-270.4516C195.2051,-227.9712 183.4831,-146.7228 213,-87 214.5488,-83.8662 216.384,-80.8662 218.4401,-78.0017"/>
<polygon fill="none" stroke="#404040" points="218.4648,-77.9724 219.2643,-70.8057 226.1872,-68.7874 225.3877,-75.954 218.4648,-77.9724"/>
<text text-anchor="middle" x="270.5" y="-200" font-family="Helvetica,sans-Serif" font-size="10.00" fill="#000000"> +mB</text>
<text text-anchor="middle" x="270.5" y="-189" font-family="Helvetica,sans-Serif" font-size="10.00" fill="#000000">+mZSthreshold</text>
<text text-anchor="middle" x="270.5" y="-178" font-family="Helvetica,sans-Serif" font-size="10.00" fill="#000000">+mADCWidth</text>
<text text-anchor="middle" x="270.5" y="-167" font-family="Helvetica,sans-Serif" font-size="10.00" fill="#000000">+mdEdx</text>
<text text-anchor="middle" x="270.5" y="-156" font-family="Helvetica,sans-Serif" font-size="10.00" fill="#000000">+mPadSizeX</text>
<text text-anchor="middle" x="270.5" y="-145" font-family="Helvetica,sans-Serif" font-size="10.00" fill="#000000">+mCoeffToNanoSecond</text>
<text text-anchor="middle" x="270.5" y="-134" font-family="Helvetica,sans-Serif" font-size="10.00" fill="#000000">+mPadSizeZ</text>
<text text-anchor="middle" x="270.5" y="-123" font-family="Helvetica,sans-Serif" font-size="10.00" fill="#000000">+mNoise</text>
<text text-anchor="middle" x="270.5" y="-112" font-family="Helvetica,sans-Serif" font-size="10.00" fill="#000000">+mCPVGasThickness</text>
<text text-anchor="middle" x="270.5" y="-101" font-family="Helvetica,sans-Serif" font-size="10.00" fill="#000000">+mDetR</text>
<text text-anchor="middle" x="270.5" y="-90" font-family="Helvetica,sans-Serif" font-size="10.00" fill="#000000">...</text>
</g>
<!-- Node10 -->
<g id="node7" class="node">
<title>Node10</title>
<polygon fill="none" stroke="#bfbfbf" points="335.5,-270.5 335.5,-327.5 364.5,-327.5 364.5,-270.5 335.5,-270.5"/>
<text text-anchor="middle" x="350" y="-315.5" font-family="Helvetica,sans-Serif" font-size="10.00" fill="#000000">int</text>
<polyline fill="none" stroke="#bfbfbf" points="335.5,-308.5 364.5,-308.5 "/>
<text text-anchor="middle" x="350" y="-296.5" font-family="Helvetica,sans-Serif" font-size="10.00" fill="#000000"> </text>
<polyline fill="none" stroke="#bfbfbf" points="335.5,-289.5 364.5,-289.5 "/>
<text text-anchor="middle" x="350" y="-277.5" font-family="Helvetica,sans-Serif" font-size="10.00" fill="#000000"> </text>
</g>
<!-- Node10&#45;&gt;Node4 -->
<g id="edge7" class="edge">
<title>Node10&#45;&gt;Node4</title>
<path fill="none" stroke="#404040" d="M349.2048,-270.402C347.4564,-220.3527 342.2309,-119.1437 328,-87 326.765,-84.2105 325.3246,-81.4662 323.7306,-78.7849"/>
<polygon fill="none" stroke="#404040" points="323.6816,-78.7129 316.999,-76.0031 316.9301,-68.7923 323.6127,-71.5021 323.6816,-78.7129"/>
<text text-anchor="middle" x="373.5" y="-161.5" font-family="Helvetica,sans-Serif" font-size="10.00" fill="#000000"> +mNgamx</text>
<text text-anchor="middle" x="373.5" y="-150.5" font-family="Helvetica,sans-Serif" font-size="10.00" fill="#000000">+mNgamz</text>
<text text-anchor="middle" x="373.5" y="-139.5" font-family="Helvetica,sans-Serif" font-size="10.00" fill="#000000">+mnCellX</text>
<text text-anchor="middle" x="373.5" y="-128.5" font-family="Helvetica,sans-Serif" font-size="10.00" fill="#000000">+mnCellZ</text>
</g>
<!-- Node11 -->
<g id="node8" class="node">
<title>Node11</title>
<polygon fill="none" stroke="#bfbfbf" points="411,-270.5 411,-327.5 449,-327.5 449,-270.5 411,-270.5"/>
<text text-anchor="middle" x="430" y="-315.5" font-family="Helvetica,sans-Serif" font-size="10.00" fill="#000000">bool</text>
<polyline fill="none" stroke="#bfbfbf" points="411,-308.5 449,-308.5 "/>
<text text-anchor="middle" x="430" y="-296.5" font-family="Helvetica,sans-Serif" font-size="10.00" fill="#000000"> </text>
<polyline fill="none" stroke="#bfbfbf" points="411,-289.5 449,-289.5 "/>
<text text-anchor="middle" x="430" y="-277.5" font-family="Helvetica,sans-Serif" font-size="10.00" fill="#000000"> </text>
</g>
<!-- Node11&#45;&gt;Node4 -->
<g id="edge8" class="edge">
<title>Node11&#45;&gt;Node4</title>
<path fill="none" stroke="#404040" d="M435.1723,-270.3495C441.4419,-226.2718 446.6406,-141.25 406,-87 394.0796,-71.0878 376.4167,-59.9605 358.0987,-52.1929"/>
<polygon fill="none" stroke="#404040" points="357.8498,-52.0969 350.8122,-53.6693 346.654,-47.7779 353.6915,-46.2055 357.8498,-52.0969"/>
<text text-anchor="middle" x="492" y="-145" font-family="Helvetica,sans-Serif" font-size="10.00" fill="#000000"> +mApplyDigitization</text>
</g>
</g>
</svg>
