<?xml version="1.0" encoding="UTF-8" standalone="no"?>
<!DOCTYPE svg PUBLIC "-//W3C//DTD SVG 1.1//EN"
 "http://www.w3.org/Graphics/SVG/1.1/DTD/svg11.dtd">
<!-- Generated by graphviz version 2.40.1 (20161225.0304)
 -->
<!-- Title: o2::framework::ArrowContext::MessageRef Pages: 1 -->
<svg width="581pt" height="204pt"
 viewBox="0.00 0.00 580.50 204.00" xmlns="http://www.w3.org/2000/svg" xmlns:xlink="http://www.w3.org/1999/xlink">
<g id="graph0" class="graph" transform="scale(1 1) rotate(0) translate(4 200)">
<title>o2::framework::ArrowContext::MessageRef</title>
<!-- Node1 -->
<g id="node1" class="node">
<title>Node1</title>
<polygon fill="#bfbfbf" stroke="#000000" points="154.5,-.5 154.5,-68.5 315.5,-68.5 315.5,-.5 154.5,-.5"/>
<text text-anchor="start" x="162.5" y="-56.5" font-family="Helvetica,sans-Serif" font-size="10.00" fill="#000000">o2::framework::ArrowContext</text>
<text text-anchor="middle" x="235" y="-45.5" font-family="Helvetica,sans-Serif" font-size="10.00" fill="#000000">::MessageRef</text>
<polyline fill="none" stroke="#000000" points="154.5,-38.5 315.5,-38.5 "/>
<text text-anchor="middle" x="235" y="-26.5" font-family="Helvetica,sans-Serif" font-size="10.00" fill="#000000"> </text>
<polyline fill="none" stroke="#000000" points="154.5,-19.5 315.5,-19.5 "/>
<text text-anchor="middle" x="235" y="-7.5" font-family="Helvetica,sans-Serif" font-size="10.00" fill="#000000"> </text>
</g>
<!-- Node2 -->
<g id="node2" class="node">
<title>Node2</title>
<polygon fill="none" stroke="#bfbfbf" points="0,-127.5 0,-184.5 44,-184.5 44,-127.5 0,-127.5"/>
<text text-anchor="middle" x="22" y="-172.5" font-family="Helvetica,sans-Serif" font-size="10.00" fill="#000000">string</text>
<polyline fill="none" stroke="#bfbfbf" points="0,-165.5 44,-165.5 "/>
<text text-anchor="middle" x="22" y="-153.5" font-family="Helvetica,sans-Serif" font-size="10.00" fill="#000000"> </text>
<polyline fill="none" stroke="#bfbfbf" points="0,-146.5 44,-146.5 "/>
<text text-anchor="middle" x="22" y="-134.5" font-family="Helvetica,sans-Serif" font-size="10.00" fill="#000000"> </text>
</g>
<!-- Node2&#45;&gt;Node1 -->
<g id="edge1" class="edge">
<title>Node2&#45;&gt;Node1</title>
<path fill="none" stroke="#404040" d="M40.6674,-127.272C44.1165,-123.1694 47.9278,-119.2471 52,-116 78.8825,-94.5645 112.2928,-77.5306 143.1804,-64.6954"/>
<polygon fill="none" stroke="#404040" points="143.301,-64.6468 147.3682,-58.6922 154.4291,-60.1563 150.3619,-66.1109 143.301,-64.6468"/>
<text text-anchor="middle" x="118" y="-90" font-family="Helvetica,sans-Serif" font-size="10.00" fill="#000000"> +channel</text>
</g>
<!-- Node3 -->
<g id="node3" class="node">
<title>Node3</title>
<polygon fill="none" stroke="#bfbfbf" points="61.5,-127.5 61.5,-184.5 228.5,-184.5 228.5,-127.5 61.5,-127.5"/>
<text text-anchor="middle" x="145" y="-172.5" font-family="Helvetica,sans-Serif" font-size="10.00" fill="#000000">unique_ptr&lt; FairMQMessage &gt;</text>
<polyline fill="none" stroke="#bfbfbf" points="61.5,-165.5 228.5,-165.5 "/>
<text text-anchor="middle" x="145" y="-153.5" font-family="Helvetica,sans-Serif" font-size="10.00" fill="#000000"> </text>
<polyline fill="none" stroke="#bfbfbf" points="61.5,-146.5 228.5,-146.5 "/>
<text text-anchor="middle" x="145" y="-134.5" font-family="Helvetica,sans-Serif" font-size="10.00" fill="#000000"> </text>
</g>
<!-- Node3&#45;&gt;Node1 -->
<g id="edge2" class="edge">
<title>Node3&#45;&gt;Node1</title>
<path fill="none" stroke="#404040" d="M166.3287,-127.2062C177.0904,-112.6779 190.3771,-94.741 202.3871,-78.5274"/>
<polygon fill="none" stroke="#404040" points="202.5233,-78.3434 202.8805,-71.1412 209.6661,-68.7007 209.309,-75.903 202.5233,-78.3434"/>
<text text-anchor="middle" x="219" y="-90" font-family="Helvetica,sans-Serif" font-size="10.00" fill="#000000"> +header</text>
</g>
<!-- Node4 -->
<g id="node4" class="node">
<title>Node4</title>
<polygon fill="none" stroke="#bfbfbf" points="246.5,-116.5 246.5,-195.5 403.5,-195.5 403.5,-116.5 246.5,-116.5"/>
<text text-anchor="start" x="254.5" y="-183.5" font-family="Helvetica,sans-Serif" font-size="10.00" fill="#000000">function&lt; void(std</text>
<text text-anchor="start" x="254.5" y="-172.5" font-family="Helvetica,sans-Serif" font-size="10.00" fill="#000000">::shared_ptr&lt; o2::framework</text>
<text text-anchor="middle" x="325" y="-161.5" font-family="Helvetica,sans-Serif" font-size="10.00" fill="#000000">::FairMQResizableBuffer &gt;)&gt;</text>
<polyline fill="none" stroke="#bfbfbf" points="246.5,-154.5 403.5,-154.5 "/>
<text text-anchor="middle" x="325" y="-142.5" font-family="Helvetica,sans-Serif" font-size="10.00" fill="#000000"> </text>
<polyline fill="none" stroke="#bfbfbf" points="246.5,-135.5 403.5,-135.5 "/>
<text text-anchor="middle" x="325" y="-123.5" font-family="Helvetica,sans-Serif" font-size="10.00" fill="#000000"> </text>
</g>
<!-- Node4&#45;&gt;Node1 -->
<g id="edge3" class="edge">
<title>Node4&#45;&gt;Node1</title>
<path fill="none" stroke="#404040" d="M295.5306,-116.2164C286.5504,-104.0931 276.6296,-90.7 267.4631,-78.3252"/>
<polygon fill="none" stroke="#404040" points="267.4485,-78.3055 260.6629,-75.8651 260.3058,-68.6628 267.0914,-71.1032 267.4485,-78.3055"/>
<text text-anchor="middle" x="303.5" y="-90" font-family="Helvetica,sans-Serif" font-size="10.00" fill="#000000"> +finalize</text>
</g>
<!-- Node5 -->
<g id="node5" class="node">
<title>Node5</title>
<polygon fill="none" stroke="#bfbfbf" points="421.5,-122 421.5,-190 572.5,-190 572.5,-122 421.5,-122"/>
<text text-anchor="start" x="429.5" y="-178" font-family="Helvetica,sans-Serif" font-size="10.00" fill="#000000">shared_ptr&lt; o2::framework</text>
<text text-anchor="middle" x="497" y="-167" font-family="Helvetica,sans-Serif" font-size="10.00" fill="#000000">::FairMQResizableBuffer &gt;</text>
<polyline fill="none" stroke="#bfbfbf" points="421.5,-160 572.5,-160 "/>
<text text-anchor="middle" x="497" y="-148" font-family="Helvetica,sans-Serif" font-size="10.00" fill="#000000"> </text>
<polyline fill="none" stroke="#bfbfbf" points="421.5,-141 572.5,-141 "/>
<text text-anchor="middle" x="497" y="-129" font-family="Helvetica,sans-Serif" font-size="10.00" fill="#000000"> </text>
</g>
<!-- Node5&#45;&gt;Node1 -->
<g id="edge4" class="edge">
<title>Node5&#45;&gt;Node1</title>
<path fill="none" stroke="#404040" d="M425.5462,-121.8847C421.3042,-119.8872 417.0978,-117.9137 413,-116 383.0989,-102.0363 350.2737,-86.9409 321.0439,-73.5809"/>
<polygon fill="none" stroke="#404040" points="320.9465,-73.5365 313.827,-74.6826 310.0309,-68.5515 317.1503,-67.4055 320.9465,-73.5365"/>
<text text-anchor="middle" x="394" y="-90" font-family="Helvetica,sans-Serif" font-size="10.00" fill="#000000"> +buffer</text>
</g>
</g>
</svg>
