<?xml version="1.0" encoding="UTF-8" standalone="no"?>
<!DOCTYPE svg PUBLIC "-//W3C//DTD SVG 1.1//EN"
 "http://www.w3.org/Graphics/SVG/1.1/DTD/svg11.dtd">
<!-- Generated by graphviz version 2.40.1 (20161225.0304)
 -->
<!-- Title: /home/travis/build/AliceO2Group/AliceO2/Detectors/TOF/base/include/TOFBase/Digit.h Pages: 1 -->
<svg width="1749pt" height="450pt"
 viewBox="0.00 0.00 1749.00 450.00" xmlns="http://www.w3.org/2000/svg" xmlns:xlink="http://www.w3.org/1999/xlink">
<g id="graph0" class="graph" transform="scale(1 1) rotate(0) translate(4 446)">
<title>/home/travis/build/AliceO2Group/AliceO2/Detectors/TOF/base/include/TOFBase/Digit.h</title>
<!-- Node6 -->
<g id="node1" class="node">
<title>Node6</title>
<polygon fill="#bfbfbf" stroke="#000000" points="917,-389.5 917,-441.5 1070,-441.5 1070,-389.5 917,-389.5"/>
<text text-anchor="start" x="925" y="-429.5" font-family="Helvetica,sans-Serif" font-size="10.00" fill="#000000">/home/travis/build</text>
<text text-anchor="start" x="925" y="-418.5" font-family="Helvetica,sans-Serif" font-size="10.00" fill="#000000">/AliceO2Group/AliceO2</text>
<text text-anchor="start" x="925" y="-407.5" font-family="Helvetica,sans-Serif" font-size="10.00" fill="#000000">/Detectors/TOF/base/include</text>
<text text-anchor="middle" x="993.5" y="-396.5" font-family="Helvetica,sans-Serif" font-size="10.00" fill="#000000">/TOFBase/Digit.h</text>
</g>
<!-- Node7 -->
<g id="node2" class="node">
<title>Node7</title>
<g id="a_node2"><a xlink:href="../../d3/d17/Detectors_2TOF_2base_2src_2Digit_8cxx.html" target="_top" xlink:title="/home/travis/build\l/AliceO2Group/AliceO2\l/Detectors/TOF/base/src\l/Digit.cxx">
<polygon fill="none" stroke="#000000" points="295.5,-295 295.5,-347 427.5,-347 427.5,-295 295.5,-295"/>
<text text-anchor="start" x="303.5" y="-335" font-family="Helvetica,sans-Serif" font-size="10.00" fill="#000000">/home/travis/build</text>
<text text-anchor="start" x="303.5" y="-324" font-family="Helvetica,sans-Serif" font-size="10.00" fill="#000000">/AliceO2Group/AliceO2</text>
<text text-anchor="start" x="303.5" y="-313" font-family="Helvetica,sans-Serif" font-size="10.00" fill="#000000">/Detectors/TOF/base/src</text>
<text text-anchor="middle" x="361.5" y="-302" font-family="Helvetica,sans-Serif" font-size="10.00" fill="#000000">/Digit.cxx</text>
</a>
</g>
</g>
<!-- Node6&#45;&gt;Node7 -->
<g id="edge1" class="edge">
<title>Node6&#45;&gt;Node7</title>
<path fill="none" stroke="#191970" d="M906.556,-408.8523C772.8283,-398.1019 523.0517,-375.7941 436.5,-353 430.3396,-351.3776 424.0276,-349.3368 417.8075,-347.0749"/>
<polygon fill="#191970" stroke="#191970" points="906.5193,-412.3605 916.7665,-409.6688 907.0773,-405.3827 906.5193,-412.3605"/>
</g>
<!-- Node8 -->
<g id="node3" class="node">
<title>Node8</title>
<g id="a_node3"><a xlink:href="../../da/d07/Detectors_2TOF_2reconstruction_2include_2TOFReconstruction_2DataReader_8h.html" target="_top" xlink:title="/home/travis/build\l/AliceO2Group/AliceO2\l/Detectors/TOF/reconstruction\l/include/TOFReconstruction\l/DataReader.h">
<polygon fill="none" stroke="#000000" points="446,-289.5 446,-352.5 607,-352.5 607,-289.5 446,-289.5"/>
<text text-anchor="start" x="454" y="-340.5" font-family="Helvetica,sans-Serif" font-size="10.00" fill="#000000">/home/travis/build</text>
<text text-anchor="start" x="454" y="-329.5" font-family="Helvetica,sans-Serif" font-size="10.00" fill="#000000">/AliceO2Group/AliceO2</text>
<text text-anchor="start" x="454" y="-318.5" font-family="Helvetica,sans-Serif" font-size="10.00" fill="#000000">/Detectors/TOF/reconstruction</text>
<text text-anchor="start" x="454" y="-307.5" font-family="Helvetica,sans-Serif" font-size="10.00" fill="#000000">/include/TOFReconstruction</text>
<text text-anchor="middle" x="526.5" y="-296.5" font-family="Helvetica,sans-Serif" font-size="10.00" fill="#000000">/DataReader.h</text>
</a>
</g>
</g>
<!-- Node6&#45;&gt;Node8 -->
<g id="edge2" class="edge">
<title>Node6&#45;&gt;Node8</title>
<path fill="none" stroke="#191970" d="M906.8253,-405.7103C829.6006,-395.9169 713.9176,-378.6034 615.5,-353 612.7986,-352.2972 610.0634,-351.5467 607.311,-350.7578"/>
<polygon fill="#191970" stroke="#191970" points="906.6318,-409.2133 916.9894,-406.984 907.5022,-402.2677 906.6318,-409.2133"/>
</g>
<!-- Node15 -->
<g id="node10" class="node">
<title>Node15</title>
<g id="a_node10"><a xlink:href="../../d6/d25/TOF_2reconstruction_2include_2TOFReconstruction_2Decoder_8h.html" target="_top" xlink:title="/home/travis/build\l/AliceO2Group/AliceO2\l/Detectors/TOF/reconstruction\l/include/TOFReconstruction\l/Decoder.h">
<polygon fill="none" stroke="#000000" points="625,-289.5 625,-352.5 786,-352.5 786,-289.5 625,-289.5"/>
<text text-anchor="start" x="633" y="-340.5" font-family="Helvetica,sans-Serif" font-size="10.00" fill="#000000">/home/travis/build</text>
<text text-anchor="start" x="633" y="-329.5" font-family="Helvetica,sans-Serif" font-size="10.00" fill="#000000">/AliceO2Group/AliceO2</text>
<text text-anchor="start" x="633" y="-318.5" font-family="Helvetica,sans-Serif" font-size="10.00" fill="#000000">/Detectors/TOF/reconstruction</text>
<text text-anchor="start" x="633" y="-307.5" font-family="Helvetica,sans-Serif" font-size="10.00" fill="#000000">/include/TOFReconstruction</text>
<text text-anchor="middle" x="705.5" y="-296.5" font-family="Helvetica,sans-Serif" font-size="10.00" fill="#000000">/Decoder.h</text>
</a>
</g>
</g>
<!-- Node6&#45;&gt;Node15 -->
<g id="edge10" class="edge">
<title>Node6&#45;&gt;Node15</title>
<path fill="none" stroke="#191970" d="M906.9997,-389.1758C871.9701,-378.2963 831.2035,-365.3564 794.5,-353 791.8545,-352.1094 789.1679,-351.196 786.4573,-350.2666"/>
<polygon fill="#191970" stroke="#191970" points="906.1317,-392.571 916.7196,-392.1876 908.2036,-385.8846 906.1317,-392.571"/>
</g>
<!-- Node18 -->
<g id="node13" class="node">
<title>Node18</title>
<g id="a_node13"><a xlink:href="../../d8/d76/TOF_2reconstruction_2include_2TOFReconstruction_2Encoder_8h.html" target="_top" xlink:title="/home/travis/build\l/AliceO2Group/AliceO2\l/Detectors/TOF/reconstruction\l/include/TOFReconstruction\l/Encoder.h">
<polygon fill="none" stroke="#000000" points="804,-289.5 804,-352.5 965,-352.5 965,-289.5 804,-289.5"/>
<text text-anchor="start" x="812" y="-340.5" font-family="Helvetica,sans-Serif" font-size="10.00" fill="#000000">/home/travis/build</text>
<text text-anchor="start" x="812" y="-329.5" font-family="Helvetica,sans-Serif" font-size="10.00" fill="#000000">/AliceO2Group/AliceO2</text>
<text text-anchor="start" x="812" y="-318.5" font-family="Helvetica,sans-Serif" font-size="10.00" fill="#000000">/Detectors/TOF/reconstruction</text>
<text text-anchor="start" x="812" y="-307.5" font-family="Helvetica,sans-Serif" font-size="10.00" fill="#000000">/include/TOFReconstruction</text>
<text text-anchor="middle" x="884.5" y="-296.5" font-family="Helvetica,sans-Serif" font-size="10.00" fill="#000000">/Encoder.h</text>
</a>
</g>
</g>
<!-- Node6&#45;&gt;Node18 -->
<g id="edge13" class="edge">
<title>Node6&#45;&gt;Node18</title>
<path fill="none" stroke="#191970" d="M955.8304,-382.8415C944.5738,-373.0823 932.2551,-362.4023 921.0702,-352.7054"/>
<polygon fill="#191970" stroke="#191970" points="953.5782,-385.5212 963.4267,-389.4273 958.1637,-380.2321 953.5782,-385.5212"/>
</g>
<!-- Node19 -->
<g id="node14" class="node">
<title>Node19</title>
<g id="a_node14"><a xlink:href="../../d0/d85/TOF_2simulation_2include_2TOFSimulation_2Digitizer_8h.html" target="_top" xlink:title="/home/travis/build\l/AliceO2Group/AliceO2\l/Detectors/TOF/simulation\l/include/TOFSimulation/Digitizer.h">
<polygon fill="none" stroke="#000000" points="1021.5,-195 1021.5,-247 1203.5,-247 1203.5,-195 1021.5,-195"/>
<text text-anchor="start" x="1029.5" y="-235" font-family="Helvetica,sans-Serif" font-size="10.00" fill="#000000">/home/travis/build</text>
<text text-anchor="start" x="1029.5" y="-224" font-family="Helvetica,sans-Serif" font-size="10.00" fill="#000000">/AliceO2Group/AliceO2</text>
<text text-anchor="start" x="1029.5" y="-213" font-family="Helvetica,sans-Serif" font-size="10.00" fill="#000000">/Detectors/TOF/simulation</text>
<text text-anchor="middle" x="1112.5" y="-202" font-family="Helvetica,sans-Serif" font-size="10.00" fill="#000000">/include/TOFSimulation/Digitizer.h</text>
</a>
</g>
</g>
<!-- Node6&#45;&gt;Node19 -->
<g id="edge15" class="edge">
<title>Node6&#45;&gt;Node19</title>
<path fill="none" stroke="#191970" d="M1006.1953,-379.523C1016.2611,-353.3185 1031.7336,-317.5618 1050.5,-289 1060.3255,-274.046 1073.4209,-259.1611 1085.0443,-247.1471"/>
<polygon fill="#191970" stroke="#191970" points="1002.8515,-378.4715 1002.6067,-389.0635 1009.4033,-380.936 1002.8515,-378.4715"/>
</g>
<!-- Node20 -->
<g id="node15" class="node">
<title>Node20</title>
<g id="a_node15"><a xlink:href="../../d8/dc6/TOF_2simulation_2include_2TOFSimulation_2DigitizerTask_8h.html" target="_top" xlink:title="/home/travis/build\l/AliceO2Group/AliceO2\l/Detectors/TOF/simulation\l/include/TOFSimulation/Digitizer\lTask.h">
<polygon fill="none" stroke="#000000" points="878,-89.5 878,-152.5 1051,-152.5 1051,-89.5 878,-89.5"/>
<text text-anchor="start" x="886" y="-140.5" font-family="Helvetica,sans-Serif" font-size="10.00" fill="#000000">/home/travis/build</text>
<text text-anchor="start" x="886" y="-129.5" font-family="Helvetica,sans-Serif" font-size="10.00" fill="#000000">/AliceO2Group/AliceO2</text>
<text text-anchor="start" x="886" y="-118.5" font-family="Helvetica,sans-Serif" font-size="10.00" fill="#000000">/Detectors/TOF/simulation</text>
<text text-anchor="start" x="886" y="-107.5" font-family="Helvetica,sans-Serif" font-size="10.00" fill="#000000">/include/TOFSimulation/Digitizer</text>
<text text-anchor="middle" x="964.5" y="-96.5" font-family="Helvetica,sans-Serif" font-size="10.00" fill="#000000">Task.h</text>
</a>
</g>
</g>
<!-- Node6&#45;&gt;Node20 -->
<g id="edge20" class="edge">
<title>Node6&#45;&gt;Node20</title>
<path fill="none" stroke="#191970" d="M990.7849,-379.21C987.3225,-334.4394 980.8907,-256.0212 973.5,-189 972.1947,-177.1632 970.5359,-164.198 968.9989,-152.792"/>
<polygon fill="#191970" stroke="#191970" points="987.3046,-379.6027 991.5593,-389.3057 994.2841,-379.0672 987.3046,-379.6027"/>
</g>
<!-- Node24 -->
<g id="node19" class="node">
<title>Node24</title>
<g id="a_node19"><a xlink:href="../../dd/d77/Strip_8h.html" target="_top" xlink:title="/home/travis/build\l/AliceO2Group/AliceO2\l/Detectors/TOF/simulation\l/include/TOFSimulation/Strip.h">
<polygon fill="none" stroke="#000000" points="1059.5,-295 1059.5,-347 1223.5,-347 1223.5,-295 1059.5,-295"/>
<text text-anchor="start" x="1067.5" y="-335" font-family="Helvetica,sans-Serif" font-size="10.00" fill="#000000">/home/travis/build</text>
<text text-anchor="start" x="1067.5" y="-324" font-family="Helvetica,sans-Serif" font-size="10.00" fill="#000000">/AliceO2Group/AliceO2</text>
<text text-anchor="start" x="1067.5" y="-313" font-family="Helvetica,sans-Serif" font-size="10.00" fill="#000000">/Detectors/TOF/simulation</text>
<text text-anchor="middle" x="1141.5" y="-302" font-family="Helvetica,sans-Serif" font-size="10.00" fill="#000000">/include/TOFSimulation/Strip.h</text>
</a>
</g>
</g>
<!-- Node6&#45;&gt;Node24 -->
<g id="edge21" class="edge">
<title>Node6&#45;&gt;Node24</title>
<path fill="none" stroke="#191970" d="M1043.0117,-383.8861C1061.6958,-371.9561 1082.7273,-358.5272 1100.5432,-347.1515"/>
<polygon fill="#191970" stroke="#191970" points="1040.8782,-381.0957 1034.3334,-389.4273 1044.6454,-386.9956 1040.8782,-381.0957"/>
</g>
<!-- Node26 -->
<g id="node21" class="node">
<title>Node26</title>
<g id="a_node21"><a xlink:href="../../dd/dd8/TOF_2workflow_2include_2TOFWorkflow_2DigitReaderSpec_8h.html" target="_top" xlink:title="/home/travis/build\l/AliceO2Group/AliceO2\l/Detectors/TOF/workflow\l/include/TOFWorkflow/DigitReader\lSpec.h">
<polygon fill="none" stroke="#000000" points="1317.5,-289.5 1317.5,-352.5 1499.5,-352.5 1499.5,-289.5 1317.5,-289.5"/>
<text text-anchor="start" x="1325.5" y="-340.5" font-family="Helvetica,sans-Serif" font-size="10.00" fill="#000000">/home/travis/build</text>
<text text-anchor="start" x="1325.5" y="-329.5" font-family="Helvetica,sans-Serif" font-size="10.00" fill="#000000">/AliceO2Group/AliceO2</text>
<text text-anchor="start" x="1325.5" y="-318.5" font-family="Helvetica,sans-Serif" font-size="10.00" fill="#000000">/Detectors/TOF/workflow</text>
<text text-anchor="start" x="1325.5" y="-307.5" font-family="Helvetica,sans-Serif" font-size="10.00" fill="#000000">/include/TOFWorkflow/DigitReader</text>
<text text-anchor="middle" x="1408.5" y="-296.5" font-family="Helvetica,sans-Serif" font-size="10.00" fill="#000000">Spec.h</text>
</a>
</g>
</g>
<!-- Node6&#45;&gt;Node26 -->
<g id="edge24" class="edge">
<title>Node6&#45;&gt;Node26</title>
<path fill="none" stroke="#191970" d="M1080.1293,-395.7736C1149.5032,-379.9764 1246.5511,-357.8775 1317.1436,-341.8028"/>
<polygon fill="#191970" stroke="#191970" points="1079.0743,-392.4241 1070.101,-398.0571 1080.6286,-399.2494 1079.0743,-392.4241"/>
</g>
<!-- Node29 -->
<g id="node24" class="node">
<title>Node29</title>
<g id="a_node24"><a xlink:href="../../d1/d80/TOFDigitWriterSpec_8cxx.html" target="_top" xlink:title="/home/travis/build\l/AliceO2Group/AliceO2\l/Steer/DigitizerWorkflow\l/src/TOFDigitWriterSpec.cxx">
<polygon fill="none" stroke="#000000" points="1517.5,-295 1517.5,-347 1669.5,-347 1669.5,-295 1517.5,-295"/>
<text text-anchor="start" x="1525.5" y="-335" font-family="Helvetica,sans-Serif" font-size="10.00" fill="#000000">/home/travis/build</text>
<text text-anchor="start" x="1525.5" y="-324" font-family="Helvetica,sans-Serif" font-size="10.00" fill="#000000">/AliceO2Group/AliceO2</text>
<text text-anchor="start" x="1525.5" y="-313" font-family="Helvetica,sans-Serif" font-size="10.00" fill="#000000">/Steer/DigitizerWorkflow</text>
<text text-anchor="middle" x="1593.5" y="-302" font-family="Helvetica,sans-Serif" font-size="10.00" fill="#000000">/src/TOFDigitWriterSpec.cxx</text>
</a>
</g>
</g>
<!-- Node6&#45;&gt;Node29 -->
<g id="edge27" class="edge">
<title>Node6&#45;&gt;Node29</title>
<path fill="none" stroke="#191970" d="M1080.072,-411.3219C1183.3311,-404.8931 1360.563,-389.2676 1508.5,-353 1515.2384,-351.348 1522.1715,-349.3186 1529.0332,-347.0903"/>
<polygon fill="#191970" stroke="#191970" points="1079.7755,-407.8334 1070.0064,-411.934 1080.2005,-414.8205 1079.7755,-407.8334"/>
</g>
<!-- Node9 -->
<g id="node4" class="node">
<title>Node9</title>
<g id="a_node4"><a xlink:href="../../dc/d24/TOF_2reconstruction_2include_2TOFReconstruction_2Clusterer_8h.html" target="_top" xlink:title="/home/travis/build\l/AliceO2Group/AliceO2\l/Detectors/TOF/reconstruction\l/include/TOFReconstruction\l/Clusterer.h">
<polygon fill="none" stroke="#000000" points="212,-189.5 212,-252.5 373,-252.5 373,-189.5 212,-189.5"/>
<text text-anchor="start" x="220" y="-240.5" font-family="Helvetica,sans-Serif" font-size="10.00" fill="#000000">/home/travis/build</text>
<text text-anchor="start" x="220" y="-229.5" font-family="Helvetica,sans-Serif" font-size="10.00" fill="#000000">/AliceO2Group/AliceO2</text>
<text text-anchor="start" x="220" y="-218.5" font-family="Helvetica,sans-Serif" font-size="10.00" fill="#000000">/Detectors/TOF/reconstruction</text>
<text text-anchor="start" x="220" y="-207.5" font-family="Helvetica,sans-Serif" font-size="10.00" fill="#000000">/include/TOFReconstruction</text>
<text text-anchor="middle" x="292.5" y="-196.5" font-family="Helvetica,sans-Serif" font-size="10.00" fill="#000000">/Clusterer.h</text>
</a>
</g>
</g>
<!-- Node8&#45;&gt;Node9 -->
<g id="edge3" class="edge">
<title>Node8&#45;&gt;Node9</title>
<path fill="none" stroke="#191970" d="M443.2704,-285.4318C418.1336,-274.6896 390.7223,-262.9753 366.2492,-252.5168"/>
<polygon fill="#191970" stroke="#191970" points="442.2112,-288.7853 452.7821,-289.4966 444.962,-282.3484 442.2112,-288.7853"/>
</g>
<!-- Node13 -->
<g id="node8" class="node">
<title>Node13</title>
<g id="a_node8"><a xlink:href="../../da/df1/TOFClusterizerSpec_8cxx.html" target="_top" xlink:title="/home/travis/build\l/AliceO2Group/AliceO2\l/Detectors/TOF/workflow\l/src/TOFClusterizerSpec.cxx">
<polygon fill="none" stroke="#000000" points="358.5,-95 358.5,-147 510.5,-147 510.5,-95 358.5,-95"/>
<text text-anchor="start" x="366.5" y="-135" font-family="Helvetica,sans-Serif" font-size="10.00" fill="#000000">/home/travis/build</text>
<text text-anchor="start" x="366.5" y="-124" font-family="Helvetica,sans-Serif" font-size="10.00" fill="#000000">/AliceO2Group/AliceO2</text>
<text text-anchor="start" x="366.5" y="-113" font-family="Helvetica,sans-Serif" font-size="10.00" fill="#000000">/Detectors/TOF/workflow</text>
<text text-anchor="middle" x="434.5" y="-102" font-family="Helvetica,sans-Serif" font-size="10.00" fill="#000000">/src/TOFClusterizerSpec.cxx</text>
</a>
</g>
</g>
<!-- Node8&#45;&gt;Node13 -->
<g id="edge9" class="edge">
<title>Node8&#45;&gt;Node13</title>
<path fill="none" stroke="#191970" d="M460.4442,-282.7657C450.8163,-274.2323 442.2324,-264.3003 436.5,-253 419.5474,-219.5809 423.4333,-175.0064 428.4547,-147.1576"/>
<polygon fill="#191970" stroke="#191970" points="458.4185,-285.6323 468.3549,-289.309 462.8801,-280.2383 458.4185,-285.6323"/>
</g>
<!-- Node14 -->
<g id="node9" class="node">
<title>Node14</title>
<g id="a_node9"><a xlink:href="../../d6/d4e/DataReader_8cxx.html" target="_top" xlink:title="/home/travis/build\l/AliceO2Group/AliceO2\l/Detectors/TOF/reconstruction\l/src/DataReader.cxx">
<polygon fill="none" stroke="#000000" points="446,-195 446,-247 607,-247 607,-195 446,-195"/>
<text text-anchor="start" x="454" y="-235" font-family="Helvetica,sans-Serif" font-size="10.00" fill="#000000">/home/travis/build</text>
<text text-anchor="start" x="454" y="-224" font-family="Helvetica,sans-Serif" font-size="10.00" fill="#000000">/AliceO2Group/AliceO2</text>
<text text-anchor="start" x="454" y="-213" font-family="Helvetica,sans-Serif" font-size="10.00" fill="#000000">/Detectors/TOF/reconstruction</text>
<text text-anchor="middle" x="526.5" y="-202" font-family="Helvetica,sans-Serif" font-size="10.00" fill="#000000">/src/DataReader.cxx</text>
</a>
</g>
</g>
<!-- Node8&#45;&gt;Node14 -->
<g id="edge8" class="edge">
<title>Node8&#45;&gt;Node14</title>
<path fill="none" stroke="#191970" d="M526.5,-279.1631C526.5,-268.2863 526.5,-256.8798 526.5,-247.078"/>
<polygon fill="#191970" stroke="#191970" points="523.0001,-279.3593 526.5,-289.3594 530.0001,-279.3594 523.0001,-279.3593"/>
</g>
<!-- Node10 -->
<g id="node5" class="node">
<title>Node10</title>
<g id="a_node5"><a xlink:href="../../d4/d74/TOF_2reconstruction_2include_2TOFReconstruction_2ClustererTask_8h.html" target="_top" xlink:title="/home/travis/build\l/AliceO2Group/AliceO2\l/Detectors/TOF/reconstruction\l/include/TOFReconstruction\l/ClustererTask.h">
<polygon fill="none" stroke="#000000" points="0,-89.5 0,-152.5 161,-152.5 161,-89.5 0,-89.5"/>
<text text-anchor="start" x="8" y="-140.5" font-family="Helvetica,sans-Serif" font-size="10.00" fill="#000000">/home/travis/build</text>
<text text-anchor="start" x="8" y="-129.5" font-family="Helvetica,sans-Serif" font-size="10.00" fill="#000000">/AliceO2Group/AliceO2</text>
<text text-anchor="start" x="8" y="-118.5" font-family="Helvetica,sans-Serif" font-size="10.00" fill="#000000">/Detectors/TOF/reconstruction</text>
<text text-anchor="start" x="8" y="-107.5" font-family="Helvetica,sans-Serif" font-size="10.00" fill="#000000">/include/TOFReconstruction</text>
<text text-anchor="middle" x="80.5" y="-96.5" font-family="Helvetica,sans-Serif" font-size="10.00" fill="#000000">/ClustererTask.h</text>
</a>
</g>
</g>
<!-- Node9&#45;&gt;Node10 -->
<g id="edge4" class="edge">
<title>Node9&#45;&gt;Node10</title>
<path fill="none" stroke="#191970" d="M216.493,-185.1476C193.8845,-174.4833 169.2924,-162.8832 147.3155,-152.5168"/>
<polygon fill="#191970" stroke="#191970" points="215.1754,-188.3959 225.7129,-189.4966 218.1617,-182.0649 215.1754,-188.3959"/>
</g>
<!-- Node12 -->
<g id="node7" class="node">
<title>Node12</title>
<g id="a_node7"><a xlink:href="../../d5/d8a/TOF_2reconstruction_2src_2Clusterer_8cxx.html" target="_top" xlink:title="/home/travis/build\l/AliceO2Group/AliceO2\l/Detectors/TOF/reconstruction\l/src/Clusterer.cxx">
<polygon fill="none" stroke="#000000" points="179,-95 179,-147 340,-147 340,-95 179,-95"/>
<text text-anchor="start" x="187" y="-135" font-family="Helvetica,sans-Serif" font-size="10.00" fill="#000000">/home/travis/build</text>
<text text-anchor="start" x="187" y="-124" font-family="Helvetica,sans-Serif" font-size="10.00" fill="#000000">/AliceO2Group/AliceO2</text>
<text text-anchor="start" x="187" y="-113" font-family="Helvetica,sans-Serif" font-size="10.00" fill="#000000">/Detectors/TOF/reconstruction</text>
<text text-anchor="middle" x="259.5" y="-102" font-family="Helvetica,sans-Serif" font-size="10.00" fill="#000000">/src/Clusterer.cxx</text>
</a>
</g>
</g>
<!-- Node9&#45;&gt;Node12 -->
<g id="edge6" class="edge">
<title>Node9&#45;&gt;Node12</title>
<path fill="none" stroke="#191970" d="M278.9156,-179.8352C275.2599,-168.7573 271.407,-157.0819 268.1057,-147.078"/>
<polygon fill="#191970" stroke="#191970" points="275.601,-180.9599 282.0586,-189.3594 282.2485,-178.7662 275.601,-180.9599"/>
</g>
<!-- Node9&#45;&gt;Node13 -->
<g id="edge7" class="edge">
<title>Node9&#45;&gt;Node13</title>
<path fill="none" stroke="#191970" d="M345.7464,-183.5025C362.9711,-171.3725 381.6854,-158.1934 397.4693,-147.078"/>
<polygon fill="#191970" stroke="#191970" points="343.5905,-180.7399 337.4297,-189.3594 347.621,-186.4632 343.5905,-180.7399"/>
</g>
<!-- Node11 -->
<g id="node6" class="node">
<title>Node11</title>
<g id="a_node6"><a xlink:href="../../d5/d10/TOF_2reconstruction_2src_2ClustererTask_8cxx.html" target="_top" xlink:title="/home/travis/build\l/AliceO2Group/AliceO2\l/Detectors/TOF/reconstruction\l/src/ClustererTask.cxx">
<polygon fill="none" stroke="#000000" points="0,-.5 0,-52.5 161,-52.5 161,-.5 0,-.5"/>
<text text-anchor="start" x="8" y="-40.5" font-family="Helvetica,sans-Serif" font-size="10.00" fill="#000000">/home/travis/build</text>
<text text-anchor="start" x="8" y="-29.5" font-family="Helvetica,sans-Serif" font-size="10.00" fill="#000000">/AliceO2Group/AliceO2</text>
<text text-anchor="start" x="8" y="-18.5" font-family="Helvetica,sans-Serif" font-size="10.00" fill="#000000">/Detectors/TOF/reconstruction</text>
<text text-anchor="middle" x="80.5" y="-7.5" font-family="Helvetica,sans-Serif" font-size="10.00" fill="#000000">/src/ClustererTask.cxx</text>
</a>
</g>
</g>
<!-- Node10&#45;&gt;Node11 -->
<g id="edge5" class="edge">
<title>Node10&#45;&gt;Node11</title>
<path fill="none" stroke="#191970" d="M80.5,-79.2457C80.5,-70.2008 80.5,-60.8836 80.5,-52.6442"/>
<polygon fill="#191970" stroke="#191970" points="77.0001,-79.2699 80.5,-89.27 84.0001,-79.27 77.0001,-79.2699"/>
</g>
<!-- Node16 -->
<g id="node11" class="node">
<title>Node16</title>
<g id="a_node11"><a xlink:href="../../de/da8/TOF_2reconstruction_2src_2Decoder_8cxx.html" target="_top" xlink:title="/home/travis/build\l/AliceO2Group/AliceO2\l/Detectors/TOF/reconstruction\l/src/Decoder.cxx">
<polygon fill="none" stroke="#000000" points="625,-195 625,-247 786,-247 786,-195 625,-195"/>
<text text-anchor="start" x="633" y="-235" font-family="Helvetica,sans-Serif" font-size="10.00" fill="#000000">/home/travis/build</text>
<text text-anchor="start" x="633" y="-224" font-family="Helvetica,sans-Serif" font-size="10.00" fill="#000000">/AliceO2Group/AliceO2</text>
<text text-anchor="start" x="633" y="-213" font-family="Helvetica,sans-Serif" font-size="10.00" fill="#000000">/Detectors/TOF/reconstruction</text>
<text text-anchor="middle" x="705.5" y="-202" font-family="Helvetica,sans-Serif" font-size="10.00" fill="#000000">/src/Decoder.cxx</text>
</a>
</g>
</g>
<!-- Node15&#45;&gt;Node16 -->
<g id="edge11" class="edge">
<title>Node15&#45;&gt;Node16</title>
<path fill="none" stroke="#191970" d="M705.5,-279.1631C705.5,-268.2863 705.5,-256.8798 705.5,-247.078"/>
<polygon fill="#191970" stroke="#191970" points="702.0001,-279.3593 705.5,-289.3594 709.0001,-279.3594 702.0001,-279.3593"/>
</g>
<!-- Node17 -->
<g id="node12" class="node">
<title>Node17</title>
<g id="a_node12"><a xlink:href="../../de/d5e/TOF_2reconstruction_2src_2Encoder_8cxx.html" target="_top" xlink:title="/home/travis/build\l/AliceO2Group/AliceO2\l/Detectors/TOF/reconstruction\l/src/Encoder.cxx">
<polygon fill="none" stroke="#000000" points="804,-195 804,-247 965,-247 965,-195 804,-195"/>
<text text-anchor="start" x="812" y="-235" font-family="Helvetica,sans-Serif" font-size="10.00" fill="#000000">/home/travis/build</text>
<text text-anchor="start" x="812" y="-224" font-family="Helvetica,sans-Serif" font-size="10.00" fill="#000000">/AliceO2Group/AliceO2</text>
<text text-anchor="start" x="812" y="-213" font-family="Helvetica,sans-Serif" font-size="10.00" fill="#000000">/Detectors/TOF/reconstruction</text>
<text text-anchor="middle" x="884.5" y="-202" font-family="Helvetica,sans-Serif" font-size="10.00" fill="#000000">/src/Encoder.cxx</text>
</a>
</g>
</g>
<!-- Node15&#45;&gt;Node17 -->
<g id="edge12" class="edge">
<title>Node15&#45;&gt;Node17</title>
<path fill="none" stroke="#191970" d="M771.143,-284.3279C793.259,-271.9726 817.4716,-258.446 837.8204,-247.078"/>
<polygon fill="#191970" stroke="#191970" points="769.1598,-281.4267 762.1367,-289.3594 772.5738,-287.5377 769.1598,-281.4267"/>
</g>
<!-- Node18&#45;&gt;Node17 -->
<g id="edge14" class="edge">
<title>Node18&#45;&gt;Node17</title>
<path fill="none" stroke="#191970" d="M884.5,-279.1631C884.5,-268.2863 884.5,-256.8798 884.5,-247.078"/>
<polygon fill="#191970" stroke="#191970" points="881.0001,-279.3593 884.5,-289.3594 888.0001,-279.3594 881.0001,-279.3593"/>
</g>
<!-- Node19&#45;&gt;Node20 -->
<g id="edge16" class="edge">
<title>Node19&#45;&gt;Node20</title>
<path fill="none" stroke="#191970" d="M1065.6802,-189.365C1048.309,-177.6277 1028.6171,-164.3223 1011.2519,-152.5891"/>
<polygon fill="#191970" stroke="#191970" points="1063.7557,-192.2887 1074.0011,-194.9872 1067.6747,-186.4885 1063.7557,-192.2887"/>
</g>
<!-- Node22 -->
<g id="node17" class="node">
<title>Node22</title>
<g id="a_node17"><a xlink:href="../../d4/df3/TOF_2simulation_2src_2Digitizer_8cxx.html" target="_top" xlink:title="/home/travis/build\l/AliceO2Group/AliceO2\l/Detectors/TOF/simulation\l/src/Digitizer.cxx">
<polygon fill="none" stroke="#000000" points="1069,-95 1069,-147 1212,-147 1212,-95 1069,-95"/>
<text text-anchor="start" x="1077" y="-135" font-family="Helvetica,sans-Serif" font-size="10.00" fill="#000000">/home/travis/build</text>
<text text-anchor="start" x="1077" y="-124" font-family="Helvetica,sans-Serif" font-size="10.00" fill="#000000">/AliceO2Group/AliceO2</text>
<text text-anchor="start" x="1077" y="-113" font-family="Helvetica,sans-Serif" font-size="10.00" fill="#000000">/Detectors/TOF/simulation</text>
<text text-anchor="middle" x="1140.5" y="-102" font-family="Helvetica,sans-Serif" font-size="10.00" fill="#000000">/src/Digitizer.cxx</text>
</a>
</g>
</g>
<!-- Node19&#45;&gt;Node22 -->
<g id="edge18" class="edge">
<title>Node19&#45;&gt;Node22</title>
<path fill="none" stroke="#191970" d="M1122.5046,-185.2694C1126.0191,-172.7176 1129.9002,-158.8564 1133.1556,-147.2299"/>
<polygon fill="#191970" stroke="#191970" points="1119.1096,-184.4139 1119.7836,-194.9872 1125.8503,-186.3013 1119.1096,-184.4139"/>
</g>
<!-- Node23 -->
<g id="node18" class="node">
<title>Node23</title>
<g id="a_node18"><a xlink:href="../../d6/d61/TOFDigitizerSpec_8cxx.html" target="_top" xlink:title="/home/travis/build\l/AliceO2Group/AliceO2\l/Steer/DigitizerWorkflow\l/src/TOFDigitizerSpec.cxx">
<polygon fill="none" stroke="#000000" points="1230.5,-95 1230.5,-147 1370.5,-147 1370.5,-95 1230.5,-95"/>
<text text-anchor="start" x="1238.5" y="-135" font-family="Helvetica,sans-Serif" font-size="10.00" fill="#000000">/home/travis/build</text>
<text text-anchor="start" x="1238.5" y="-124" font-family="Helvetica,sans-Serif" font-size="10.00" fill="#000000">/AliceO2Group/AliceO2</text>
<text text-anchor="start" x="1238.5" y="-113" font-family="Helvetica,sans-Serif" font-size="10.00" fill="#000000">/Steer/DigitizerWorkflow</text>
<text text-anchor="middle" x="1300.5" y="-102" font-family="Helvetica,sans-Serif" font-size="10.00" fill="#000000">/src/TOFDigitizerSpec.cxx</text>
</a>
</g>
</g>
<!-- Node19&#45;&gt;Node23 -->
<g id="edge19" class="edge">
<title>Node19&#45;&gt;Node23</title>
<path fill="none" stroke="#191970" d="M1170.3952,-190.2047C1196.3715,-176.3875 1226.6856,-160.263 1251.5146,-147.0561"/>
<polygon fill="#191970" stroke="#191970" points="1168.5891,-187.201 1161.404,-194.9872 1171.8764,-193.3811 1168.5891,-187.201"/>
</g>
<!-- Node21 -->
<g id="node16" class="node">
<title>Node21</title>
<g id="a_node16"><a xlink:href="../../dd/df3/TOF_2simulation_2src_2DigitizerTask_8cxx.html" target="_top" xlink:title="/home/travis/build\l/AliceO2Group/AliceO2\l/Detectors/TOF/simulation\l/src/DigitizerTask.cxx">
<polygon fill="none" stroke="#000000" points="893,-.5 893,-52.5 1036,-52.5 1036,-.5 893,-.5"/>
<text text-anchor="start" x="901" y="-40.5" font-family="Helvetica,sans-Serif" font-size="10.00" fill="#000000">/home/travis/build</text>
<text text-anchor="start" x="901" y="-29.5" font-family="Helvetica,sans-Serif" font-size="10.00" fill="#000000">/AliceO2Group/AliceO2</text>
<text text-anchor="start" x="901" y="-18.5" font-family="Helvetica,sans-Serif" font-size="10.00" fill="#000000">/Detectors/TOF/simulation</text>
<text text-anchor="middle" x="964.5" y="-7.5" font-family="Helvetica,sans-Serif" font-size="10.00" fill="#000000">/src/DigitizerTask.cxx</text>
</a>
</g>
</g>
<!-- Node20&#45;&gt;Node21 -->
<g id="edge17" class="edge">
<title>Node20&#45;&gt;Node21</title>
<path fill="none" stroke="#191970" d="M964.5,-79.2457C964.5,-70.2008 964.5,-60.8836 964.5,-52.6442"/>
<polygon fill="#191970" stroke="#191970" points="961.0001,-79.2699 964.5,-89.27 968.0001,-79.27 961.0001,-79.2699"/>
</g>
<!-- Node24&#45;&gt;Node19 -->
<g id="edge22" class="edge">
<title>Node24&#45;&gt;Node19</title>
<path fill="none" stroke="#191970" d="M1131.1381,-285.2694C1127.4981,-272.7176 1123.4783,-258.8564 1120.1067,-247.2299"/>
<polygon fill="#191970" stroke="#191970" points="1127.8095,-286.3578 1133.9563,-294.9872 1134.5325,-284.4081 1127.8095,-286.3578"/>
</g>
<!-- Node25 -->
<g id="node20" class="node">
<title>Node25</title>
<g id="a_node20"><a xlink:href="../../d6/d43/Strip_8cxx.html" target="_top" xlink:title="/home/travis/build\l/AliceO2Group/AliceO2\l/Detectors/TOF/simulation\l/src/Strip.cxx">
<polygon fill="none" stroke="#000000" points="1222,-195 1222,-247 1365,-247 1365,-195 1222,-195"/>
<text text-anchor="start" x="1230" y="-235" font-family="Helvetica,sans-Serif" font-size="10.00" fill="#000000">/home/travis/build</text>
<text text-anchor="start" x="1230" y="-224" font-family="Helvetica,sans-Serif" font-size="10.00" fill="#000000">/AliceO2Group/AliceO2</text>
<text text-anchor="start" x="1230" y="-213" font-family="Helvetica,sans-Serif" font-size="10.00" fill="#000000">/Detectors/TOF/simulation</text>
<text text-anchor="middle" x="1293.5" y="-202" font-family="Helvetica,sans-Serif" font-size="10.00" fill="#000000">/src/Strip.cxx</text>
</a>
</g>
</g>
<!-- Node24&#45;&gt;Node25 -->
<g id="edge23" class="edge">
<title>Node24&#45;&gt;Node25</title>
<path fill="none" stroke="#191970" d="M1189.4126,-289.4786C1210.1659,-275.8251 1234.171,-260.0323 1253.8948,-247.0561"/>
<polygon fill="#191970" stroke="#191970" points="1187.4699,-286.5671 1181.0394,-294.9872 1191.3173,-292.415 1187.4699,-286.5671"/>
</g>
<!-- Node27 -->
<g id="node22" class="node">
<title>Node27</title>
<g id="a_node22"><a xlink:href="../../da/dfd/tof-reco-workflow_8cxx.html" target="_top" xlink:title="Basic DPL workflow for TOF reconstruction starting from digits. ">
<polygon fill="none" stroke="#000000" points="1383,-195 1383,-247 1586,-247 1586,-195 1383,-195"/>
<text text-anchor="start" x="1391" y="-235" font-family="Helvetica,sans-Serif" font-size="10.00" fill="#000000">/home/travis/build</text>
<text text-anchor="start" x="1391" y="-224" font-family="Helvetica,sans-Serif" font-size="10.00" fill="#000000">/AliceO2Group/AliceO2</text>
<text text-anchor="start" x="1391" y="-213" font-family="Helvetica,sans-Serif" font-size="10.00" fill="#000000">/Detectors/GlobalTrackingWorkflow</text>
<text text-anchor="middle" x="1484.5" y="-202" font-family="Helvetica,sans-Serif" font-size="10.00" fill="#000000">/tofworkflow/src/tof&#45;reco&#45;workflow.cxx</text>
</a>
</g>
</g>
<!-- Node26&#45;&gt;Node27 -->
<g id="edge25" class="edge">
<title>Node26&#45;&gt;Node27</title>
<path fill="none" stroke="#191970" d="M1438.7671,-281.1749C1447.4853,-269.7035 1456.7706,-257.486 1464.6807,-247.078"/>
<polygon fill="#191970" stroke="#191970" points="1435.8112,-279.2799 1432.5469,-289.3594 1441.3843,-283.5155 1435.8112,-279.2799"/>
</g>
<!-- Node28 -->
<g id="node23" class="node">
<title>Node28</title>
<g id="a_node23"><a xlink:href="../../d7/dca/TOF_2workflow_2src_2DigitReaderSpec_8cxx.html" target="_top" xlink:title="/home/travis/build\l/AliceO2Group/AliceO2\l/Detectors/TOF/workflow\l/src/DigitReaderSpec.cxx">
<polygon fill="none" stroke="#000000" points="1604,-195 1604,-247 1741,-247 1741,-195 1604,-195"/>
<text text-anchor="start" x="1612" y="-235" font-family="Helvetica,sans-Serif" font-size="10.00" fill="#000000">/home/travis/build</text>
<text text-anchor="start" x="1612" y="-224" font-family="Helvetica,sans-Serif" font-size="10.00" fill="#000000">/AliceO2Group/AliceO2</text>
<text text-anchor="start" x="1612" y="-213" font-family="Helvetica,sans-Serif" font-size="10.00" fill="#000000">/Detectors/TOF/workflow</text>
<text text-anchor="middle" x="1672.5" y="-202" font-family="Helvetica,sans-Serif" font-size="10.00" fill="#000000">/src/DigitReaderSpec.cxx</text>
</a>
</g>
</g>
<!-- Node26&#45;&gt;Node28 -->
<g id="edge26" class="edge">
<title>Node26&#45;&gt;Node28</title>
<path fill="none" stroke="#191970" d="M1507.3215,-286.0069C1535.8739,-275.642 1567.0124,-264.0926 1595.5,-253 1600.3564,-251.109 1605.3696,-249.1171 1610.3995,-247.0899"/>
<polygon fill="#191970" stroke="#191970" points="1505.9564,-282.7788 1497.7453,-289.4742 1508.3395,-289.3606 1505.9564,-282.7788"/>
</g>
</g>
</svg>
