<?xml version="1.0" encoding="UTF-8" standalone="no"?>
<!DOCTYPE svg PUBLIC "-//W3C//DTD SVG 1.1//EN"
 "http://www.w3.org/Graphics/SVG/1.1/DTD/svg11.dtd">
<!-- Generated by graphviz version 2.40.1 (20161225.0304)
 -->
<!-- Title: o2::zdc::Module Pages: 1 -->
<!--zoomable 226 -->
<svg id="main" version="1.1" xmlns="http://www.w3.org/2000/svg" xmlns:xlink="http://www.w3.org/1999/xlink" xml:space="preserve" onload="init(evt)">
<style type="text/css"><![CDATA[
.edge:hover path { stroke: red; }
.edge:hover polygon { stroke: red; fill: red; }
]]></style>
<script type="text/javascript"><![CDATA[
var edges = document.getElementsByTagName('g');
if (edges && edges.length) {
  for (var i=0;i<edges.length;i++) {
    if (edges[i].id.substr(0,4)=='edge') {
      edges[i].setAttribute('class','edge');
    }
  }
}
]]></script>
        <defs>
                <circle id="rim" cx="0" cy="0" r="7"/>
                <circle id="rim2" cx="0" cy="0" r="3.5"/>
                <g id="zoomPlus">
                        <use xlink:href="#rim" fill="#404040">
                                <set attributeName="fill" to="#808080" begin="zoomplus.mouseover" end="zoomplus.mouseout"/>
                        </use>
                        <path d="M-4,0h8M0,-4v8" fill="none" stroke="white" stroke-width="1.5" pointer-events="none"/>
                </g>
                <g id="zoomMin">
                        <use xlink:href="#rim" fill="#404040">
                                <set attributeName="fill" to="#808080" begin="zoomminus.mouseover" end="zoomminus.mouseout"/>
                        </use>
                        <path d="M-4,0h8" fill="none" stroke="white" stroke-width="1.5" pointer-events="none"/>
                </g>
                <g id="dirArrow">
                        <path fill="none" stroke="white" stroke-width="1.5" d="M0,-3.0v7 M-2.5,-0.5L0,-3.0L2.5,-0.5"/>
                </g>
               <g id="resetDef">
                       <use xlink:href="#rim2" fill="#404040">
                               <set attributeName="fill" to="#808080" begin="reset.mouseover" end="reset.mouseout"/>
                       </use>
               </g>
        </defs>

<script type="text/javascript">
var viewWidth = 831;
var viewHeight = 226;
var sectionId = 'dynsection-0';
</script>
<script xlink:href="../../svgpan.js"/>
<svg id="graph" class="graph">
<g id="viewport">
<title>o2::zdc::Module</title>
<!-- Node1 -->
<g id="node1" class="node">
<title>Node1</title>
<polygon fill="#bfbfbf" stroke="#000000" points="399,-.5 399,-90.5 492,-90.5 492,-.5 399,-.5"/>
<text text-anchor="middle" x="445.5" y="-78.5" font-family="Helvetica,sans-Serif" font-size="10.00" fill="#000000">o2::zdc::Module</text>
<polyline fill="none" stroke="#000000" points="399,-71.5 492,-71.5 "/>
<text text-anchor="middle" x="445.5" y="-59.5" font-family="Helvetica,sans-Serif" font-size="10.00" fill="#000000"> </text>
<polyline fill="none" stroke="#000000" points="399,-52.5 492,-52.5 "/>
<text text-anchor="start" x="407" y="-40.5" font-family="Helvetica,sans-Serif" font-size="10.00" fill="#000000">+ setChannel()</text>
<text text-anchor="start" x="407" y="-29.5" font-family="Helvetica,sans-Serif" font-size="10.00" fill="#000000">+ print()</text>
<text text-anchor="start" x="407" y="-18.5" font-family="Helvetica,sans-Serif" font-size="10.00" fill="#000000">+ check()</text>
<text text-anchor="start" x="407" y="-7.5" font-family="Helvetica,sans-Serif" font-size="10.00" fill="#000000">+ ClassDefNV()</text>
</g>
<!-- Node2 -->
<g id="node2" class="node">
<title>Node2</title>
<polygon fill="none" stroke="#bfbfbf" points="0,-149.5 0,-217.5 167,-217.5 167,-149.5 0,-149.5"/>
<text text-anchor="start" x="8" y="-205.5" font-family="Helvetica,sans-Serif" font-size="10.00" fill="#000000">array&lt; o2::zdc::TriggerChannel</text>
<text text-anchor="middle" x="83.5" y="-194.5" font-family="Helvetica,sans-Serif" font-size="10.00" fill="#000000">Config, MaxChannels &gt;</text>
<polyline fill="none" stroke="#bfbfbf" points="0,-187.5 167,-187.5 "/>
<text text-anchor="middle" x="83.5" y="-175.5" font-family="Helvetica,sans-Serif" font-size="10.00" fill="#000000"> </text>
<polyline fill="none" stroke="#bfbfbf" points="0,-168.5 167,-168.5 "/>
<text text-anchor="middle" x="83.5" y="-156.5" font-family="Helvetica,sans-Serif" font-size="10.00" fill="#000000"> </text>
</g>
<!-- Node2&#45;&gt;Node1 -->
<g id="edge1" class="edge">
<title>Node2&#45;&gt;Node1</title>
<path fill="none" stroke="#404040" d="M150.6472,-149.315C178.3922,-135.856 211.1188,-120.8252 241.5,-109 289.6355,-90.2643 345.7655,-73.1224 386.9498,-61.384"/>
<polygon fill="none" stroke="#404040" points="387.1386,-61.3308 391.8257,-55.8507 398.687,-58.0695 393.9999,-63.5496 387.1386,-61.3308"/>
<text text-anchor="middle" x="287" y="-117.5" font-family="Helvetica,sans-Serif" font-size="10.00" fill="#000000"> +trigChannelConf</text>
</g>
<!-- Node3 -->
<g id="node3" class="node">
<title>Node3</title>
<polygon fill="none" stroke="#bfbfbf" points="185.5,-155 185.5,-212 355.5,-212 355.5,-155 185.5,-155"/>
<text text-anchor="middle" x="270.5" y="-200" font-family="Helvetica,sans-Serif" font-size="10.00" fill="#000000">array&lt; int16_t, MaxChannels &gt;</text>
<polyline fill="none" stroke="#bfbfbf" points="185.5,-193 355.5,-193 "/>
<text text-anchor="middle" x="270.5" y="-181" font-family="Helvetica,sans-Serif" font-size="10.00" fill="#000000"> </text>
<polyline fill="none" stroke="#bfbfbf" points="185.5,-174 355.5,-174 "/>
<text text-anchor="middle" x="270.5" y="-162" font-family="Helvetica,sans-Serif" font-size="10.00" fill="#000000"> </text>
</g>
<!-- Node3&#45;&gt;Node1 -->
<g id="edge2" class="edge">
<title>Node3&#45;&gt;Node1</title>
<path fill="none" stroke="#404040" d="M306.7601,-154.9063C330.567,-136.1329 362.1875,-111.1978 389.2283,-89.8743"/>
<polygon fill="none" stroke="#404040" points="389.5377,-89.6303 391.7723,-82.7741 398.9605,-82.1997 396.7259,-89.0559 389.5377,-89.6303"/>
<text text-anchor="middle" x="382.5" y="-117.5" font-family="Helvetica,sans-Serif" font-size="10.00" fill="#000000"> +linkID</text>
</g>
<!-- Node4 -->
<g id="node4" class="node">
<title>Node4</title>
<polygon fill="none" stroke="#bfbfbf" points="374,-155 374,-212 403,-212 403,-155 374,-155"/>
<text text-anchor="middle" x="388.5" y="-200" font-family="Helvetica,sans-Serif" font-size="10.00" fill="#000000">int</text>
<polyline fill="none" stroke="#bfbfbf" points="374,-193 403,-193 "/>
<text text-anchor="middle" x="388.5" y="-181" font-family="Helvetica,sans-Serif" font-size="10.00" fill="#000000"> </text>
<polyline fill="none" stroke="#bfbfbf" points="374,-174 403,-174 "/>
<text text-anchor="middle" x="388.5" y="-162" font-family="Helvetica,sans-Serif" font-size="10.00" fill="#000000"> </text>
</g>
<!-- Node4&#45;&gt;Node1 -->
<g id="edge3" class="edge">
<title>Node4&#45;&gt;Node1</title>
<path fill="none" stroke="#404040" d="M400.3104,-154.9063C406.6564,-139.5424 414.7069,-120.0518 422.2493,-101.7911"/>
<polygon fill="none" stroke="#404040" points="422.2789,-101.7193 420.8725,-94.6467 426.8601,-90.6282 428.2666,-97.7008 422.2789,-101.7193"/>
<text text-anchor="middle" x="429" y="-117.5" font-family="Helvetica,sans-Serif" font-size="10.00" fill="#000000"> +id</text>
</g>
<!-- Node5 -->
<g id="node5" class="node">
<title>Node5</title>
<polygon fill="none" stroke="#bfbfbf" points="421.5,-155 421.5,-212 585.5,-212 585.5,-155 421.5,-155"/>
<text text-anchor="middle" x="503.5" y="-200" font-family="Helvetica,sans-Serif" font-size="10.00" fill="#000000">array&lt; int8_t, MaxChannels &gt;</text>
<polyline fill="none" stroke="#bfbfbf" points="421.5,-193 585.5,-193 "/>
<text text-anchor="middle" x="503.5" y="-181" font-family="Helvetica,sans-Serif" font-size="10.00" fill="#000000"> </text>
<polyline fill="none" stroke="#bfbfbf" points="421.5,-174 585.5,-174 "/>
<text text-anchor="middle" x="503.5" y="-162" font-family="Helvetica,sans-Serif" font-size="10.00" fill="#000000"> </text>
</g>
<!-- Node5&#45;&gt;Node1 -->
<g id="edge4" class="edge">
<title>Node5&#45;&gt;Node1</title>
<path fill="none" stroke="#404040" d="M491.4824,-154.9063C485.0251,-139.5424 476.8333,-120.0518 469.1586,-101.7911"/>
<polygon fill="none" stroke="#404040" points="469.1165,-101.6908 463.1041,-97.7093 464.4669,-90.6282 470.4792,-94.6096 469.1165,-101.6908"/>
<text text-anchor="middle" x="511" y="-117.5" font-family="Helvetica,sans-Serif" font-size="10.00" fill="#000000"> +channelID</text>
</g>
<!-- Node6 -->
<g id="node6" class="node">
<title>Node6</title>
<polygon fill="none" stroke="#bfbfbf" points="603.5,-155 603.5,-212 647.5,-212 647.5,-155 603.5,-155"/>
<text text-anchor="middle" x="625.5" y="-200" font-family="Helvetica,sans-Serif" font-size="10.00" fill="#000000">static</text>
<polyline fill="none" stroke="#bfbfbf" points="603.5,-193 647.5,-193 "/>
<text text-anchor="middle" x="625.5" y="-181" font-family="Helvetica,sans-Serif" font-size="10.00" fill="#000000"> </text>
<polyline fill="none" stroke="#bfbfbf" points="603.5,-174 647.5,-174 "/>
<text text-anchor="middle" x="625.5" y="-162" font-family="Helvetica,sans-Serif" font-size="10.00" fill="#000000"> </text>
</g>
<!-- Node6&#45;&gt;Node1 -->
<g id="edge5" class="edge">
<title>Node6&#45;&gt;Node1</title>
<path fill="none" stroke="#404040" d="M603.2456,-157.8319C600.3716,-154.788 597.4136,-151.7787 594.5,-149 566.7906,-122.5738 531.797,-97.9055 502.6864,-79.2851"/>
<polygon fill="none" stroke="#404040" points="502.4029,-79.1064 495.1941,-79.2901 492.2519,-72.7065 499.4607,-72.5228 502.4029,-79.1064"/>
<text text-anchor="middle" x="620" y="-123" font-family="Helvetica,sans-Serif" font-size="10.00" fill="#000000"> +MaxChannels</text>
<text text-anchor="middle" x="620" y="-112" font-family="Helvetica,sans-Serif" font-size="10.00" fill="#000000">+MaxTriggChannels</text>
</g>
<!-- Node7 -->
<g id="node7" class="node">
<title>Node7</title>
<polygon fill="none" stroke="#bfbfbf" points="666,-155 666,-212 823,-212 823,-155 666,-155"/>
<text text-anchor="middle" x="744.5" y="-200" font-family="Helvetica,sans-Serif" font-size="10.00" fill="#000000">array&lt; bool, MaxChannels &gt;</text>
<polyline fill="none" stroke="#bfbfbf" points="666,-193 823,-193 "/>
<text text-anchor="middle" x="744.5" y="-181" font-family="Helvetica,sans-Serif" font-size="10.00" fill="#000000"> </text>
<polyline fill="none" stroke="#bfbfbf" points="666,-174 823,-174 "/>
<text text-anchor="middle" x="744.5" y="-162" font-family="Helvetica,sans-Serif" font-size="10.00" fill="#000000"> </text>
</g>
<!-- Node7&#45;&gt;Node1 -->
<g id="edge6" class="edge">
<title>Node7&#45;&gt;Node1</title>
<path fill="none" stroke="#404040" d="M723.0249,-154.7246C709.9944,-139.1245 692.1213,-120.698 672.5,-109 620.2788,-77.8663 552.2172,-61.4824 504.2887,-53.2142"/>
<polygon fill="none" stroke="#404040" points="504.0947,-53.1824 497.5251,-56.1557 492.2537,-51.2351 498.8233,-48.2617 504.0947,-53.1824"/>
<text text-anchor="middle" x="733.5" y="-123" font-family="Helvetica,sans-Serif" font-size="10.00" fill="#000000"> +trigChannel</text>
<text text-anchor="middle" x="733.5" y="-112" font-family="Helvetica,sans-Serif" font-size="10.00" fill="#000000">+readChannel</text>
</g>
</g>
</svg>
        <g id="navigator" transform="translate(0 0)" fill="#404254">
                <rect fill="#f2f5e9" fill-opacity="0.5" stroke="#606060" stroke-width=".5" x="0" y="0" width="60" height="60"/>
                <use id="zoomplus" xlink:href="#zoomPlus" x="17" y="9" onmousedown="handleZoom(evt,'in')"/>
                <use id="zoomminus" xlink:href="#zoomMin" x="42" y="9" onmousedown="handleZoom(evt,'out')"/>
                <use id="reset" xlink:href="#resetDef" x="30" y="36" onmousedown="handleReset()"/>
                <g id="arrowUp" xlink:href="#dirArrow" transform="translate(30 24)" onmousedown="handlePan(0,-1)">
                  <use xlink:href="#rim" fill="#404040">
                        <set attributeName="fill" to="#808080" begin="arrowUp.mouseover" end="arrowUp.mouseout"/>
                  </use>
                  <path fill="none" stroke="white" stroke-width="1.5" d="M0,-3.0v7 M-2.5,-0.5L0,-3.0L2.5,-0.5"/>
                </g>
                <g id="arrowRight" xlink:href="#dirArrow" transform="rotate(90) translate(36 -43)" onmousedown="handlePan(1,0)">
                  <use xlink:href="#rim" fill="#404040">
                        <set attributeName="fill" to="#808080" begin="arrowRight.mouseover" end="arrowRight.mouseout"/>
                  </use>
                  <path fill="none" stroke="white" stroke-width="1.5" d="M0,-3.0v7 M-2.5,-0.5L0,-3.0L2.5,-0.5"/>
                </g>
                <g id="arrowDown" xlink:href="#dirArrow" transform="rotate(180) translate(-30 -48)" onmousedown="handlePan(0,1)">
                  <use xlink:href="#rim" fill="#404040">
                        <set attributeName="fill" to="#808080" begin="arrowDown.mouseover" end="arrowDown.mouseout"/>
                  </use>
                  <path fill="none" stroke="white" stroke-width="1.5" d="M0,-3.0v7 M-2.5,-0.5L0,-3.0L2.5,-0.5"/>
                </g>
                <g id="arrowLeft" xlink:href="#dirArrow" transform="rotate(270) translate(-36 17)" onmousedown="handlePan(-1,0)">
                  <use xlink:href="#rim" fill="#404040">
                        <set attributeName="fill" to="#808080" begin="arrowLeft.mouseover" end="arrowLeft.mouseout"/>
                  </use>
                  <path fill="none" stroke="white" stroke-width="1.5" d="M0,-3.0v7 M-2.5,-0.5L0,-3.0L2.5,-0.5"/>
                </g>
        </g>
        <svg viewBox="0 0 15 15" width="100%" height="30px" preserveAspectRatio="xMaxYMin meet">
         <g id="arrow_out" transform="scale(0.3 0.3)">
          <a xlink:href="structo2_1_1zdc_1_1Module__coll__graph_org.svg" target="_base">
           <rect id="button" ry="5" rx="5" y="6" x="6" height="38" width="38"
                fill="#f2f5e9" fill-opacity="0.5" stroke="#606060" stroke-width="1.0"/>
           <path id="arrow"
             d="M 11.500037,31.436501 C 11.940474,20.09759 22.043105,11.32322 32.158766,21.979434 L 37.068811,17.246167 C 37.068811,17.246167 37.088388,32 37.088388,32 L 22.160133,31.978069 C 22.160133,31.978069 26.997745,27.140456 26.997745,27.140456 C 18.528582,18.264221 13.291696,25.230495 11.500037,31.436501 z"
             style="fill:#404040;"/>
          </a>
         </g>
        </svg>
</svg>
