<?xml version="1.0" encoding="UTF-8" standalone="no"?>
<!DOCTYPE svg PUBLIC "-//W3C//DTD SVG 1.1//EN"
 "http://www.w3.org/Graphics/SVG/1.1/DTD/svg11.dtd">
<!-- Generated by graphviz version 2.40.1 (20161225.0304)
 -->
<!-- Title: /home/travis/build/AliceO2Group/AliceO2/Detectors/CPV/simulation/include/CPVSimulation/Digitizer.h Pages: 1 -->
<!--zoomable 452 -->
<svg id="main" version="1.1" xmlns="http://www.w3.org/2000/svg" xmlns:xlink="http://www.w3.org/1999/xlink" xml:space="preserve" onload="init(evt)">
<style type="text/css"><![CDATA[
.edge:hover path { stroke: red; }
.edge:hover polygon { stroke: red; fill: red; }
]]></style>
<script type="text/javascript"><![CDATA[
var edges = document.getElementsByTagName('g');
if (edges && edges.length) {
  for (var i=0;i<edges.length;i++) {
    if (edges[i].id.substr(0,4)=='edge') {
      edges[i].setAttribute('class','edge');
    }
  }
}
]]></script>
        <defs>
                <circle id="rim" cx="0" cy="0" r="7"/>
                <circle id="rim2" cx="0" cy="0" r="3.5"/>
                <g id="zoomPlus">
                        <use xlink:href="#rim" fill="#404040">
                                <set attributeName="fill" to="#808080" begin="zoomplus.mouseover" end="zoomplus.mouseout"/>
                        </use>
                        <path d="M-4,0h8M0,-4v8" fill="none" stroke="white" stroke-width="1.5" pointer-events="none"/>
                </g>
                <g id="zoomMin">
                        <use xlink:href="#rim" fill="#404040">
                                <set attributeName="fill" to="#808080" begin="zoomminus.mouseover" end="zoomminus.mouseout"/>
                        </use>
                        <path d="M-4,0h8" fill="none" stroke="white" stroke-width="1.5" pointer-events="none"/>
                </g>
                <g id="dirArrow">
                        <path fill="none" stroke="white" stroke-width="1.5" d="M0,-3.0v7 M-2.5,-0.5L0,-3.0L2.5,-0.5"/>
                </g>
               <g id="resetDef">
                       <use xlink:href="#rim2" fill="#404040">
                               <set attributeName="fill" to="#808080" begin="reset.mouseover" end="reset.mouseout"/>
                       </use>
               </g>
        </defs>

<script type="text/javascript">
var viewWidth = 1959;
var viewHeight = 452;
var sectionId = 'dynsection-0';
</script>
<script xlink:href="../../svgpan.js"/>
<svg id="graph" class="graph">
<g id="viewport">
<title>/home/travis/build/AliceO2Group/AliceO2/Detectors/CPV/simulation/include/CPVSimulation/Digitizer.h</title>
<!-- Node0 -->
<g id="node1" class="node">
<title>Node0</title>
<polygon fill="#bfbfbf" stroke="#000000" points="720.5,-391.5 720.5,-443.5 902.5,-443.5 902.5,-391.5 720.5,-391.5"/>
<text text-anchor="start" x="728.5" y="-431.5" font-family="Helvetica,sans-Serif" font-size="10.00" fill="#000000">/home/travis/build</text>
<text text-anchor="start" x="728.5" y="-420.5" font-family="Helvetica,sans-Serif" font-size="10.00" fill="#000000">/AliceO2Group/AliceO2</text>
<text text-anchor="start" x="728.5" y="-409.5" font-family="Helvetica,sans-Serif" font-size="10.00" fill="#000000">/Detectors/CPV/simulation</text>
<text text-anchor="middle" x="811.5" y="-398.5" font-family="Helvetica,sans-Serif" font-size="10.00" fill="#000000">/include/CPVSimulation/Digitizer.h</text>
</g>
<!-- Node1 -->
<g id="node2" class="node">
<title>Node1</title>
<g id="a_node2"><a xlink:href="../../d5/d34/Detectors_2CPV_2base_2include_2CPVBase_2Digit_8h.html" target="_top" xlink:title="CPVBase/Digit.h">
<polygon fill="none" stroke="#000000" points="649,-330 649,-349 744,-349 744,-330 649,-330"/>
<text text-anchor="middle" x="696.5" y="-337" font-family="Helvetica,sans-Serif" font-size="10.00" fill="#000000">CPVBase/Digit.h</text>
</a>
</g>
</g>
<!-- Node0&#45;&gt;Node1 -->
<g id="edge1" class="edge">
<title>Node0&#45;&gt;Node1</title>
<path fill="none" stroke="#191970" d="M772.8867,-391.3101C754.9956,-379.1753 734.3602,-365.1791 719.0506,-354.7952"/>
<polygon fill="#191970" stroke="#191970" points="720.9536,-351.8568 710.713,-349.1401 717.0243,-357.65 720.9536,-351.8568"/>
</g>
<!-- Node5 -->
<g id="node6" class="node">
<title>Node5</title>
<g id="a_node6"><a xlink:href="../../d7/dcd/MCCompLabel_8h.html" target="_top" xlink:title="SimulationDataFormat\l/MCCompLabel.h">
<polygon fill="none" stroke="#000000" points="418,-257.5 418,-287.5 545,-287.5 545,-257.5 418,-257.5"/>
<text text-anchor="start" x="426" y="-275.5" font-family="Helvetica,sans-Serif" font-size="10.00" fill="#000000">SimulationDataFormat</text>
<text text-anchor="middle" x="481.5" y="-264.5" font-family="Helvetica,sans-Serif" font-size="10.00" fill="#000000">/MCCompLabel.h</text>
</a>
</g>
</g>
<!-- Node0&#45;&gt;Node5 -->
<g id="edge33" class="edge">
<title>Node0&#45;&gt;Node5</title>
<path fill="none" stroke="#191970" d="M733.1476,-391.498C703.4684,-381.0075 669.5938,-368.2545 639.5,-355 596.1975,-335.9279 548.2559,-310.2066 516.6655,-292.5832"/>
<polygon fill="#191970" stroke="#191970" points="518.2424,-289.4548 507.8085,-287.6152 514.8179,-295.5599 518.2424,-289.4548"/>
</g>
<!-- Node6 -->
<g id="node7" class="node">
<title>Node6</title>
<g id="a_node7"><a xlink:href="../../db/dd0/Detectors_2CPV_2base_2include_2CPVBase_2Hit_8h.html" target="_top" xlink:title="CPVBase/Hit.h">
<polygon fill="none" stroke="#000000" points="768.5,-263 768.5,-282 854.5,-282 854.5,-263 768.5,-263"/>
<text text-anchor="middle" x="811.5" y="-270" font-family="Helvetica,sans-Serif" font-size="10.00" fill="#000000">CPVBase/Hit.h</text>
</a>
</g>
</g>
<!-- Node0&#45;&gt;Node6 -->
<g id="edge32" class="edge">
<title>Node0&#45;&gt;Node6</title>
<path fill="none" stroke="#191970" d="M811.5,-391.2416C811.5,-362.7911 811.5,-318.0353 811.5,-292.3675"/>
<polygon fill="#191970" stroke="#191970" points="815.0001,-292.0445 811.5,-282.0445 808.0001,-292.0445 815.0001,-292.0445"/>
</g>
<!-- Node26 -->
<g id="node27" class="node">
<title>Node26</title>
<g id="a_node27"><a xlink:href="../../de/ddd/CPV_2base_2include_2CPVBase_2Geometry_8h.html" target="_top" xlink:title="CPVBase/Geometry.h">
<polygon fill="none" stroke="#000000" points="879,-330 879,-349 998,-349 998,-330 879,-330"/>
<text text-anchor="middle" x="938.5" y="-337" font-family="Helvetica,sans-Serif" font-size="10.00" fill="#000000">CPVBase/Geometry.h</text>
</a>
</g>
</g>
<!-- Node0&#45;&gt;Node26 -->
<g id="edge28" class="edge">
<title>Node0&#45;&gt;Node26</title>
<path fill="none" stroke="#191970" d="M854.1425,-391.3101C874.0851,-379.0619 897.1154,-364.9173 914.0688,-354.505"/>
<polygon fill="#191970" stroke="#191970" points="916.1145,-357.3561 922.8039,-349.1401 912.451,-351.3912 916.1145,-357.3561"/>
</g>
<!-- Node30 -->
<g id="node31" class="node">
<title>Node30</title>
<g id="a_node31"><a xlink:href="../../db/d14/MCTruthContainer_8h.html" target="_top" xlink:title="Definition of a container to keep Monte Carlo truth external to simulation objects. ">
<polygon fill="none" stroke="#000000" points="1517,-324.5 1517,-354.5 1644,-354.5 1644,-324.5 1517,-324.5"/>
<text text-anchor="start" x="1525" y="-342.5" font-family="Helvetica,sans-Serif" font-size="10.00" fill="#000000">SimulationDataFormat</text>
<text text-anchor="middle" x="1580.5" y="-331.5" font-family="Helvetica,sans-Serif" font-size="10.00" fill="#000000">/MCTruthContainer.h</text>
</a>
</g>
</g>
<!-- Node0&#45;&gt;Node30 -->
<g id="edge34" class="edge">
<title>Node0&#45;&gt;Node30</title>
<path fill="none" stroke="#191970" d="M902.7342,-408.2461C1056.7282,-392.6264 1365.2392,-361.334 1506.6332,-346.9923"/>
<polygon fill="#191970" stroke="#191970" points="1507.3336,-350.4393 1516.9293,-345.948 1506.6272,-343.4751 1507.3336,-350.4393"/>
</g>
<!-- Node2 -->
<g id="node3" class="node">
<title>Node2</title>
<g id="a_node3"><a xlink:href="../../df/d5d/common_2include_2CommonDataFormat_2TimeStamp_8h.html" target="_top" xlink:title="CommonDataFormat/TimeStamp.h">
<polygon fill="none" stroke="#000000" points="563,-263 563,-282 750,-282 750,-263 563,-263"/>
<text text-anchor="middle" x="656.5" y="-270" font-family="Helvetica,sans-Serif" font-size="10.00" fill="#000000">CommonDataFormat/TimeStamp.h</text>
</a>
</g>
</g>
<!-- Node1&#45;&gt;Node2 -->
<g id="edge2" class="edge">
<title>Node1&#45;&gt;Node2</title>
<path fill="none" stroke="#191970" d="M690.769,-329.9005C684.7095,-319.751 675.0039,-303.4941 667.4659,-290.8679"/>
<polygon fill="#191970" stroke="#191970" points="670.3517,-288.8737 662.2204,-282.0817 664.3414,-292.462 670.3517,-288.8737"/>
</g>
<!-- Node1&#45;&gt;Node5 -->
<g id="edge5" class="edge">
<title>Node1&#45;&gt;Node5</title>
<path fill="none" stroke="#191970" d="M665.6957,-329.9005C632.8718,-319.6717 580.1422,-303.2397 539.4944,-290.5727"/>
<polygon fill="#191970" stroke="#191970" points="540.2927,-287.1555 529.7042,-287.5218 538.21,-293.8385 540.2927,-287.1555"/>
</g>
<!-- Node1&#45;&gt;Node6 -->
<g id="edge7" class="edge">
<title>Node1&#45;&gt;Node6</title>
<path fill="none" stroke="#191970" d="M712.9767,-329.9005C732.1055,-318.7559 763.8733,-300.2477 786.1516,-287.2682"/>
<polygon fill="#191970" stroke="#191970" points="788.1753,-290.1399 795.0539,-282.0817 784.6514,-284.0916 788.1753,-290.1399"/>
</g>
<!-- Node3 -->
<g id="node4" class="node">
<title>Node3</title>
<g id="a_node4"><a xlink:href="../../d2/d45/GPUCommonRtypes_8h.html" target="_top" xlink:title="GPUCommonRtypes.h">
<polygon fill="none" stroke="#000000" points="419,-196 419,-215 544,-215 544,-196 419,-196"/>
<text text-anchor="middle" x="481.5" y="-203" font-family="Helvetica,sans-Serif" font-size="10.00" fill="#000000">GPUCommonRtypes.h</text>
</a>
</g>
</g>
<!-- Node2&#45;&gt;Node3 -->
<g id="edge3" class="edge">
<title>Node2&#45;&gt;Node3</title>
<path fill="none" stroke="#191970" d="M631.4268,-262.9005C601.1482,-251.3082 550.0597,-231.7486 516.0595,-218.7313"/>
<polygon fill="#191970" stroke="#191970" points="517.1171,-215.3886 506.5267,-215.0817 514.6142,-221.9258 517.1171,-215.3886"/>
</g>
<!-- Node4 -->
<g id="node5" class="node">
<title>Node4</title>
<polygon fill="none" stroke="#bfbfbf" points="0,-73 0,-92 59,-92 59,-73 0,-73"/>
<text text-anchor="middle" x="29.5" y="-80" font-family="Helvetica,sans-Serif" font-size="10.00" fill="#000000">Rtypes.h</text>
</g>
<!-- Node3&#45;&gt;Node4 -->
<g id="edge4" class="edge">
<title>Node3&#45;&gt;Node4</title>
<path fill="none" stroke="#191970" d="M437.5803,-195.9505C361.5569,-179.0044 200.8731,-141.3486 68.5,-98 66.3622,-97.2999 64.1727,-96.5432 61.9752,-95.7538"/>
<polygon fill="#191970" stroke="#191970" points="63.0161,-92.4059 52.4242,-92.157 60.5491,-98.9568 63.0161,-92.4059"/>
</g>
<!-- Node5&#45;&gt;Node3 -->
<g id="edge6" class="edge">
<title>Node5&#45;&gt;Node3</title>
<path fill="none" stroke="#191970" d="M481.5,-257.2967C481.5,-247.7699 481.5,-235.3954 481.5,-225.1306"/>
<polygon fill="#191970" stroke="#191970" points="485.0001,-225.0549 481.5,-215.055 478.0001,-225.055 485.0001,-225.0549"/>
</g>
<!-- Node7 -->
<g id="node8" class="node">
<title>Node7</title>
<g id="a_node8"><a xlink:href="../../d4/d25/BaseHits_8h.html" target="_top" xlink:title="SimulationDataFormat\l/BaseHits.h">
<polygon fill="none" stroke="#000000" points="659,-190.5 659,-220.5 786,-220.5 786,-190.5 659,-190.5"/>
<text text-anchor="start" x="667" y="-208.5" font-family="Helvetica,sans-Serif" font-size="10.00" fill="#000000">SimulationDataFormat</text>
<text text-anchor="middle" x="722.5" y="-197.5" font-family="Helvetica,sans-Serif" font-size="10.00" fill="#000000">/BaseHits.h</text>
</a>
</g>
</g>
<!-- Node6&#45;&gt;Node7 -->
<g id="edge8" class="edge">
<title>Node6&#45;&gt;Node7</title>
<path fill="none" stroke="#191970" d="M798.7485,-262.9005C786.2238,-253.4718 766.6978,-238.7725 750.5411,-226.6096"/>
<polygon fill="#191970" stroke="#191970" points="752.5486,-223.7399 742.4543,-220.5218 748.3385,-229.3324 752.5486,-223.7399"/>
</g>
<!-- Node19 -->
<g id="node20" class="node">
<title>Node19</title>
<g id="a_node20"><a xlink:href="../../d0/d91/ShmAllocator_8h.html" target="_top" xlink:title="CommonUtils/ShmAllocator.h">
<polygon fill="none" stroke="#000000" points="1353.5,-196 1353.5,-215 1513.5,-215 1513.5,-196 1353.5,-196"/>
<text text-anchor="middle" x="1433.5" y="-203" font-family="Helvetica,sans-Serif" font-size="10.00" fill="#000000">CommonUtils/ShmAllocator.h</text>
</a>
</g>
</g>
<!-- Node6&#45;&gt;Node19 -->
<g id="edge21" class="edge">
<title>Node6&#45;&gt;Node19</title>
<path fill="none" stroke="#191970" d="M839.8546,-262.9341C847.4593,-260.6759 855.7292,-258.4937 863.5,-257 1030.9797,-224.8079 1230.1134,-212.6326 1343.1664,-208.1042"/>
<polygon fill="#191970" stroke="#191970" points="1343.6429,-211.5884 1353.4992,-207.7021 1343.3706,-204.5937 1343.6429,-211.5884"/>
</g>
<!-- Node8 -->
<g id="node9" class="node">
<title>Node8</title>
<g id="a_node9"><a xlink:href="../../dd/d76/Cartesian3D_8h.html" target="_top" xlink:title="MathUtils/Cartesian3D.h">
<polygon fill="none" stroke="#000000" points="510,-134.5 510,-153.5 645,-153.5 645,-134.5 510,-134.5"/>
<text text-anchor="middle" x="577.5" y="-141.5" font-family="Helvetica,sans-Serif" font-size="10.00" fill="#000000">MathUtils/Cartesian3D.h</text>
</a>
</g>
</g>
<!-- Node7&#45;&gt;Node8 -->
<g id="edge9" class="edge">
<title>Node7&#45;&gt;Node8</title>
<path fill="none" stroke="#191970" d="M687.029,-190.4554C663.2598,-180.374 632.232,-167.2139 609.2715,-157.4755"/>
<polygon fill="#191970" stroke="#191970" points="610.5427,-154.2129 599.9699,-153.5303 607.8094,-160.6572 610.5427,-154.2129"/>
</g>
<!-- Node8&#45;&gt;Node4 -->
<g id="edge15" class="edge">
<title>Node8&#45;&gt;Node4</title>
<path fill="none" stroke="#191970" d="M509.798,-140.3048C391.155,-133.4254 150.4904,-117.5621 68.5,-98 65.643,-97.3184 62.7188,-96.467 59.8192,-95.5164"/>
<polygon fill="#191970" stroke="#191970" points="60.784,-92.1428 50.1901,-92.0038 58.3851,-98.7189 60.784,-92.1428"/>
</g>
<!-- Node9 -->
<g id="node10" class="node">
<title>Node9</title>
<polygon fill="none" stroke="#bfbfbf" points="398.5,-67.5 398.5,-97.5 562.5,-97.5 562.5,-67.5 398.5,-67.5"/>
<text text-anchor="start" x="406.5" y="-85.5" font-family="Helvetica,sans-Serif" font-size="10.00" fill="#000000">Math/GenVector/Displacement</text>
<text text-anchor="middle" x="480.5" y="-74.5" font-family="Helvetica,sans-Serif" font-size="10.00" fill="#000000">Vector3D.h</text>
</g>
<!-- Node8&#45;&gt;Node9 -->
<g id="edge10" class="edge">
<title>Node8&#45;&gt;Node9</title>
<path fill="none" stroke="#191970" d="M562.3438,-134.3906C549.216,-126.0673 529.7711,-113.7389 513.1285,-103.1872"/>
<polygon fill="#191970" stroke="#191970" points="514.5486,-99.9433 504.2289,-97.5446 510.8003,-105.8553 514.5486,-99.9433"/>
</g>
<!-- Node10 -->
<g id="node11" class="node">
<title>Node10</title>
<polygon fill="none" stroke="#bfbfbf" points="581,-73 581,-92 770,-92 770,-73 581,-73"/>
<text text-anchor="middle" x="675.5" y="-80" font-family="Helvetica,sans-Serif" font-size="10.00" fill="#000000">Math/GenVector/PositionVector3D.h</text>
</g>
<!-- Node8&#45;&gt;Node10 -->
<g id="edge11" class="edge">
<title>Node8&#45;&gt;Node10</title>
<path fill="none" stroke="#191970" d="M592.8125,-134.3906C608.5624,-124.5067 633.3123,-108.9749 651.6337,-97.4773"/>
<polygon fill="#191970" stroke="#191970" points="653.6852,-100.3221 660.295,-92.0419 649.9643,-94.3929 653.6852,-100.3221"/>
</g>
<!-- Node11 -->
<g id="node12" class="node">
<title>Node11</title>
<polygon fill="none" stroke="#bfbfbf" points="788.5,-73 788.5,-92 948.5,-92 948.5,-73 788.5,-73"/>
<text text-anchor="middle" x="868.5" y="-80" font-family="Helvetica,sans-Serif" font-size="10.00" fill="#000000">Math/GenVector/Rotation3D.h</text>
</g>
<!-- Node8&#45;&gt;Node11 -->
<g id="edge12" class="edge">
<title>Node8&#45;&gt;Node11</title>
<path fill="none" stroke="#191970" d="M622.6495,-134.4581C674.0478,-123.5956 758.0205,-105.8488 813.2758,-94.1711"/>
<polygon fill="#191970" stroke="#191970" points="814.1845,-97.5565 823.2446,-92.0643 812.737,-90.7077 814.1845,-97.5565"/>
</g>
<!-- Node12 -->
<g id="node13" class="node">
<title>Node12</title>
<polygon fill="none" stroke="#bfbfbf" points="966.5,-73 966.5,-92 1134.5,-92 1134.5,-73 966.5,-73"/>
<text text-anchor="middle" x="1050.5" y="-80" font-family="Helvetica,sans-Serif" font-size="10.00" fill="#000000">Math/GenVector/Transform3D.h</text>
</g>
<!-- Node8&#45;&gt;Node12 -->
<g id="edge13" class="edge">
<title>Node8&#45;&gt;Node12</title>
<path fill="none" stroke="#191970" d="M645.2337,-136.7248C721.33,-128.3366 848.474,-113.6764 957.5,-98 966.7591,-96.6687 976.5189,-95.1593 986.0944,-93.6177"/>
<polygon fill="#191970" stroke="#191970" points="986.6715,-97.0699 995.9777,-92.0057 985.5446,-90.1612 986.6715,-97.0699"/>
</g>
<!-- Node13 -->
<g id="node14" class="node">
<title>Node13</title>
<polygon fill="none" stroke="#bfbfbf" points="1153,-73 1153,-92 1326,-92 1326,-73 1153,-73"/>
<text text-anchor="middle" x="1239.5" y="-80" font-family="Helvetica,sans-Serif" font-size="10.00" fill="#000000">Math/GenVector/Translation3D.h</text>
</g>
<!-- Node8&#45;&gt;Node13 -->
<g id="edge14" class="edge">
<title>Node8&#45;&gt;Node13</title>
<path fill="none" stroke="#191970" d="M645.1961,-140.232C751.5468,-133.9222 964.1496,-119.7325 1143.5,-98 1153.7877,-96.7534 1164.6612,-95.2135 1175.2481,-93.5926"/>
<polygon fill="#191970" stroke="#191970" points="1175.9445,-97.0263 1185.2822,-92.0206 1174.861,-90.1106 1175.9445,-97.0263"/>
</g>
<!-- Node14 -->
<g id="node15" class="node">
<title>Node14</title>
<polygon fill="none" stroke="#bfbfbf" points="77.5,-73 77.5,-92 159.5,-92 159.5,-73 77.5,-73"/>
<text text-anchor="middle" x="118.5" y="-80" font-family="Helvetica,sans-Serif" font-size="10.00" fill="#000000">TGeoMatrix.h</text>
</g>
<!-- Node8&#45;&gt;Node14 -->
<g id="edge16" class="edge">
<title>Node8&#45;&gt;Node14</title>
<path fill="none" stroke="#191970" d="M509.9339,-140.3148C428.3287,-134.9674 287.2222,-122.8461 168.5,-98 164.347,-97.1309 160.0457,-96.0632 155.7885,-94.8983"/>
<polygon fill="#191970" stroke="#191970" points="156.6052,-91.4908 146.0252,-92.0516 154.6457,-98.211 156.6052,-91.4908"/>
</g>
<!-- Node15 -->
<g id="node16" class="node">
<title>Node15</title>
<polygon fill="none" stroke="#bfbfbf" points="178,-73 178,-92 227,-92 227,-73 178,-73"/>
<text text-anchor="middle" x="202.5" y="-80" font-family="Helvetica,sans-Serif" font-size="10.00" fill="#000000">iosfwd</text>
</g>
<!-- Node8&#45;&gt;Node15 -->
<g id="edge17" class="edge">
<title>Node8&#45;&gt;Node15</title>
<path fill="none" stroke="#191970" d="M509.7145,-140.976C439.7862,-136.4526 328.1692,-125.2914 235.5,-98 233.5874,-97.4367 231.6458,-96.7774 229.7113,-96.0542"/>
<polygon fill="#191970" stroke="#191970" points="230.8388,-92.7308 220.2656,-92.0545 228.1094,-99.1767 230.8388,-92.7308"/>
</g>
<!-- Node16 -->
<g id="node17" class="node">
<title>Node16</title>
<g id="a_node17"><a xlink:href="../../d2/dd0/Cartesian2D_8h.html" target="_top" xlink:title="MathUtils/Cartesian2D.h">
<polygon fill="none" stroke="#000000" points="245,-73 245,-92 380,-92 380,-73 245,-73"/>
<text text-anchor="middle" x="312.5" y="-80" font-family="Helvetica,sans-Serif" font-size="10.00" fill="#000000">MathUtils/Cartesian2D.h</text>
</a>
</g>
</g>
<!-- Node8&#45;&gt;Node16 -->
<g id="edge18" class="edge">
<title>Node8&#45;&gt;Node16</title>
<path fill="none" stroke="#191970" d="M536.3845,-134.4581C489.8698,-123.6632 414.0592,-106.0694 363.7327,-94.3899"/>
<polygon fill="#191970" stroke="#191970" points="364.2443,-90.9156 353.7119,-92.0643 362.6618,-97.7344 364.2443,-90.9156"/>
</g>
<!-- Node17 -->
<g id="node18" class="node">
<title>Node17</title>
<polygon fill="none" stroke="#bfbfbf" points="132.5,-.5 132.5,-30.5 296.5,-30.5 296.5,-.5 132.5,-.5"/>
<text text-anchor="start" x="140.5" y="-18.5" font-family="Helvetica,sans-Serif" font-size="10.00" fill="#000000">Math/GenVector/Displacement</text>
<text text-anchor="middle" x="214.5" y="-7.5" font-family="Helvetica,sans-Serif" font-size="10.00" fill="#000000">Vector2D.h</text>
</g>
<!-- Node16&#45;&gt;Node17 -->
<g id="edge19" class="edge">
<title>Node16&#45;&gt;Node17</title>
<path fill="none" stroke="#191970" d="M298.459,-72.9005C284.5412,-63.3853 262.772,-48.5023 244.888,-36.2755"/>
<polygon fill="#191970" stroke="#191970" points="246.7026,-33.2763 236.4721,-30.5218 242.7519,-39.0549 246.7026,-33.2763"/>
</g>
<!-- Node18 -->
<g id="node19" class="node">
<title>Node18</title>
<polygon fill="none" stroke="#bfbfbf" points="315,-6 315,-25 504,-25 504,-6 315,-6"/>
<text text-anchor="middle" x="409.5" y="-13" font-family="Helvetica,sans-Serif" font-size="10.00" fill="#000000">Math/GenVector/PositionVector2D.h</text>
</g>
<!-- Node16&#45;&gt;Node18 -->
<g id="edge20" class="edge">
<title>Node16&#45;&gt;Node18</title>
<path fill="none" stroke="#191970" d="M326.3977,-72.9005C342.3164,-61.9052 368.6121,-43.7422 387.3599,-30.7927"/>
<polygon fill="#191970" stroke="#191970" points="389.3892,-33.6448 395.628,-25.0817 385.4108,-27.8852 389.3892,-33.6448"/>
</g>
<!-- Node20 -->
<g id="node21" class="node">
<title>Node20</title>
<g id="a_node21"><a xlink:href="../../de/d61/ShmManager_8h.html" target="_top" xlink:title="CommonUtils/ShmManager.h">
<polygon fill="none" stroke="#000000" points="1354.5,-134.5 1354.5,-153.5 1512.5,-153.5 1512.5,-134.5 1354.5,-134.5"/>
<text text-anchor="middle" x="1433.5" y="-141.5" font-family="Helvetica,sans-Serif" font-size="10.00" fill="#000000">CommonUtils/ShmManager.h</text>
</a>
</g>
</g>
<!-- Node19&#45;&gt;Node20 -->
<g id="edge22" class="edge">
<title>Node19&#45;&gt;Node20</title>
<path fill="none" stroke="#191970" d="M1433.5,-195.8906C1433.5,-187.3657 1433.5,-174.6392 1433.5,-163.9235"/>
<polygon fill="#191970" stroke="#191970" points="1437.0001,-163.7448 1433.5,-153.7449 1430.0001,-163.7449 1437.0001,-163.7448"/>
</g>
<!-- Node25 -->
<g id="node26" class="node">
<title>Node25</title>
<polygon fill="none" stroke="#bfbfbf" points="1530.5,-134.5 1530.5,-153.5 1582.5,-153.5 1582.5,-134.5 1530.5,-134.5"/>
<text text-anchor="middle" x="1556.5" y="-141.5" font-family="Helvetica,sans-Serif" font-size="10.00" fill="#000000">cassert</text>
</g>
<!-- Node19&#45;&gt;Node25 -->
<g id="edge27" class="edge">
<title>Node19&#45;&gt;Node25</title>
<path fill="none" stroke="#191970" d="M1452.7188,-195.8906C1473.0281,-185.7359 1505.2607,-169.6196 1528.4168,-158.0416"/>
<polygon fill="#191970" stroke="#191970" points="1530.0372,-161.1446 1537.4162,-153.5419 1526.9067,-154.8836 1530.0372,-161.1446"/>
</g>
<!-- Node21 -->
<g id="node22" class="node">
<title>Node21</title>
<polygon fill="none" stroke="#bfbfbf" points="1750.5,-73 1750.5,-92 1782.5,-92 1782.5,-73 1750.5,-73"/>
<text text-anchor="middle" x="1766.5" y="-80" font-family="Helvetica,sans-Serif" font-size="10.00" fill="#000000">list</text>
</g>
<!-- Node20&#45;&gt;Node21 -->
<g id="edge23" class="edge">
<title>Node20&#45;&gt;Node21</title>
<path fill="none" stroke="#191970" d="M1507.8629,-134.4963C1591.9413,-123.4984 1719.9916,-105.8908 1741.5,-98 1742.381,-97.6768 1743.2643,-97.3201 1744.145,-96.9365"/>
<polygon fill="#191970" stroke="#191970" points="1746.0767,-99.8734 1753.2624,-92.0878 1742.7899,-93.693 1746.0767,-99.8734"/>
</g>
<!-- Node22 -->
<g id="node23" class="node">
<title>Node22</title>
<polygon fill="none" stroke="#bfbfbf" points="1344,-73 1344,-92 1397,-92 1397,-73 1344,-73"/>
<text text-anchor="middle" x="1370.5" y="-80" font-family="Helvetica,sans-Serif" font-size="10.00" fill="#000000">cstddef</text>
</g>
<!-- Node20&#45;&gt;Node22 -->
<g id="edge24" class="edge">
<title>Node20&#45;&gt;Node22</title>
<path fill="none" stroke="#191970" d="M1423.6563,-134.3906C1414.0961,-125.0581 1399.3777,-110.6902 1387.8505,-99.4374"/>
<polygon fill="#191970" stroke="#191970" points="1390.0832,-96.7257 1380.4825,-92.2449 1385.1934,-101.7348 1390.0832,-96.7257"/>
</g>
<!-- Node23 -->
<g id="node24" class="node">
<title>Node23</title>
<polygon fill="none" stroke="#bfbfbf" points="1415,-67.5 1415,-97.5 1580,-97.5 1580,-67.5 1415,-67.5"/>
<text text-anchor="start" x="1423" y="-85.5" font-family="Helvetica,sans-Serif" font-size="10.00" fill="#000000">boost/interprocess</text>
<text text-anchor="middle" x="1497.5" y="-74.5" font-family="Helvetica,sans-Serif" font-size="10.00" fill="#000000">/managed_external_buffer.hpp</text>
</g>
<!-- Node20&#45;&gt;Node23 -->
<g id="edge25" class="edge">
<title>Node20&#45;&gt;Node23</title>
<path fill="none" stroke="#191970" d="M1443.5,-134.3906C1451.7606,-126.4527 1463.8122,-114.8718 1474.4355,-104.6635"/>
<polygon fill="#191970" stroke="#191970" points="1477.0584,-106.9971 1481.8438,-97.5446 1472.2082,-101.9498 1477.0584,-106.9971"/>
</g>
<!-- Node24 -->
<g id="node25" class="node">
<title>Node24</title>
<polygon fill="none" stroke="#bfbfbf" points="1598.5,-67.5 1598.5,-97.5 1732.5,-97.5 1732.5,-67.5 1598.5,-67.5"/>
<text text-anchor="start" x="1606.5" y="-85.5" font-family="Helvetica,sans-Serif" font-size="10.00" fill="#000000">boost/interprocess</text>
<text text-anchor="middle" x="1665.5" y="-74.5" font-family="Helvetica,sans-Serif" font-size="10.00" fill="#000000">/allocators/allocator.hpp</text>
</g>
<!-- Node20&#45;&gt;Node24 -->
<g id="edge26" class="edge">
<title>Node20&#45;&gt;Node24</title>
<path fill="none" stroke="#191970" d="M1469.4954,-134.4581C1503.9013,-125.3376 1556.6154,-111.3638 1598.7135,-100.2042"/>
<polygon fill="#191970" stroke="#191970" points="1599.8495,-103.524 1608.6188,-97.5784 1598.0558,-96.7577 1599.8495,-103.524"/>
</g>
<!-- Node27 -->
<g id="node28" class="node">
<title>Node27</title>
<polygon fill="none" stroke="#bfbfbf" points="872.5,-263 872.5,-282 916.5,-282 916.5,-263 872.5,-263"/>
<text text-anchor="middle" x="894.5" y="-270" font-family="Helvetica,sans-Serif" font-size="10.00" fill="#000000">string</text>
</g>
<!-- Node26&#45;&gt;Node27 -->
<g id="edge29" class="edge">
<title>Node26&#45;&gt;Node27</title>
<path fill="none" stroke="#191970" d="M932.1959,-329.9005C925.4651,-319.6515 914.6446,-303.1747 906.3193,-290.4976"/>
<polygon fill="#191970" stroke="#191970" points="909.2073,-288.5191 900.7924,-282.0817 903.3562,-292.3616 909.2073,-288.5191"/>
</g>
<!-- Node28 -->
<g id="node29" class="node">
<title>Node28</title>
<polygon fill="none" stroke="#bfbfbf" points="934.5,-263 934.5,-282 1018.5,-282 1018.5,-263 934.5,-263"/>
<text text-anchor="middle" x="976.5" y="-270" font-family="Helvetica,sans-Serif" font-size="10.00" fill="#000000">RStringView.h</text>
</g>
<!-- Node26&#45;&gt;Node28 -->
<g id="edge30" class="edge">
<title>Node26&#45;&gt;Node28</title>
<path fill="none" stroke="#191970" d="M943.9445,-329.9005C949.7009,-319.751 958.9213,-303.4941 966.0824,-290.8679"/>
<polygon fill="#191970" stroke="#191970" points="969.1766,-292.5067 971.0656,-282.0817 963.0877,-289.0533 969.1766,-292.5067"/>
</g>
<!-- Node29 -->
<g id="node30" class="node">
<title>Node29</title>
<polygon fill="none" stroke="#bfbfbf" points="1036.5,-263 1036.5,-282 1092.5,-282 1092.5,-263 1036.5,-263"/>
<text text-anchor="middle" x="1064.5" y="-270" font-family="Helvetica,sans-Serif" font-size="10.00" fill="#000000">TMath.h</text>
</g>
<!-- Node26&#45;&gt;Node29 -->
<g id="edge31" class="edge">
<title>Node26&#45;&gt;Node29</title>
<path fill="none" stroke="#191970" d="M956.5527,-329.9005C977.6984,-318.6564 1012.9404,-299.9166 1037.3782,-286.9219"/>
<polygon fill="#191970" stroke="#191970" points="1039.2947,-289.867 1046.4808,-282.0817 1036.0082,-283.6864 1039.2947,-289.867"/>
</g>
<!-- Node30&#45;&gt;Node25 -->
<g id="edge37" class="edge">
<title>Node30&#45;&gt;Node25</title>
<path fill="none" stroke="#191970" d="M1576.7417,-324.2648C1574.3491,-314.0602 1571.361,-300.294 1569.5,-288 1562.83,-243.9367 1559.159,-191.7322 1557.5353,-163.8711"/>
<polygon fill="#191970" stroke="#191970" points="1561.0267,-163.6173 1556.9783,-153.8265 1554.0374,-164.005 1561.0267,-163.6173"/>
</g>
<!-- Node31 -->
<g id="node32" class="node">
<title>Node31</title>
<polygon fill="none" stroke="#bfbfbf" points="1578,-263 1578,-282 1645,-282 1645,-263 1578,-263"/>
<text text-anchor="middle" x="1611.5" y="-270" font-family="Helvetica,sans-Serif" font-size="10.00" fill="#000000">TNamed.h</text>
</g>
<!-- Node30&#45;&gt;Node31 -->
<g id="edge35" class="edge">
<title>Node30&#45;&gt;Node31</title>
<path fill="none" stroke="#191970" d="M1587.5344,-324.2967C1592.083,-314.4658 1598.0346,-301.6026 1602.8688,-291.1545"/>
<polygon fill="#191970" stroke="#191970" points="1606.0563,-292.6003 1607.079,-282.055 1599.7033,-289.6609 1606.0563,-292.6003"/>
</g>
<!-- Node32 -->
<g id="node33" class="node">
<title>Node32</title>
<polygon fill="none" stroke="#bfbfbf" points="1663.5,-263 1663.5,-282 1713.5,-282 1713.5,-263 1663.5,-263"/>
<text text-anchor="middle" x="1688.5" y="-270" font-family="Helvetica,sans-Serif" font-size="10.00" fill="#000000">cstdint</text>
</g>
<!-- Node30&#45;&gt;Node32 -->
<g id="edge36" class="edge">
<title>Node30&#45;&gt;Node32</title>
<path fill="none" stroke="#191970" d="M1604.7373,-324.4639C1622.5318,-313.4247 1646.5969,-298.4954 1664.3669,-287.4715"/>
<polygon fill="#191970" stroke="#191970" points="1666.3665,-290.3498 1673.0191,-282.1039 1662.6763,-284.4015 1666.3665,-290.3498"/>
</g>
<!-- Node33 -->
<g id="node34" class="node">
<title>Node33</title>
<polygon fill="none" stroke="#bfbfbf" points="1732,-263 1732,-282 1797,-282 1797,-263 1732,-263"/>
<text text-anchor="middle" x="1764.5" y="-270" font-family="Helvetica,sans-Serif" font-size="10.00" fill="#000000">stdexcept</text>
</g>
<!-- Node30&#45;&gt;Node33 -->
<g id="edge38" class="edge">
<title>Node30&#45;&gt;Node33</title>
<path fill="none" stroke="#191970" d="M1622.1526,-324.4632C1650.4649,-314.2252 1688.7602,-300.344 1722.5,-288 1724.7171,-287.1888 1726.9994,-286.352 1729.3002,-285.5069"/>
<polygon fill="#191970" stroke="#191970" points="1730.5672,-288.7702 1738.7429,-282.0316 1728.1494,-282.2009 1730.5672,-288.7702"/>
</g>
<!-- Node34 -->
<g id="node35" class="node">
<title>Node34</title>
<polygon fill="none" stroke="#bfbfbf" points="1815.5,-263 1815.5,-282 1863.5,-282 1863.5,-263 1815.5,-263"/>
<text text-anchor="middle" x="1839.5" y="-270" font-family="Helvetica,sans-Serif" font-size="10.00" fill="#000000">gsl/gsl</text>
</g>
<!-- Node30&#45;&gt;Node34 -->
<g id="edge39" class="edge">
<title>Node30&#45;&gt;Node34</title>
<path fill="none" stroke="#191970" d="M1644.3535,-328.7499C1690.1866,-320.1209 1753.0399,-306.4059 1806.5,-288 1808.1458,-287.4333 1809.8189,-286.8096 1811.4943,-286.1475"/>
<polygon fill="#191970" stroke="#191970" points="1813.1497,-289.2451 1820.9429,-282.0676 1810.3747,-282.8186 1813.1497,-289.2451"/>
</g>
<!-- Node35 -->
<g id="node36" class="node">
<title>Node35</title>
<polygon fill="none" stroke="#bfbfbf" points="1882,-263 1882,-282 1951,-282 1951,-263 1882,-263"/>
<text text-anchor="middle" x="1916.5" y="-270" font-family="Helvetica,sans-Serif" font-size="10.00" fill="#000000">type_traits</text>
</g>
<!-- Node30&#45;&gt;Node35 -->
<g id="edge40" class="edge">
<title>Node30&#45;&gt;Node35</title>
<path fill="none" stroke="#191970" d="M1644.0883,-331.3551C1703.6796,-323.0014 1794.9506,-308.3508 1872.5,-288 1875.6335,-287.1777 1878.862,-286.2339 1882.0793,-285.2268"/>
<polygon fill="#191970" stroke="#191970" points="1883.2011,-288.5423 1891.5915,-282.073 1880.9981,-281.898 1883.2011,-288.5423"/>
</g>
<!-- Node36 -->
<g id="node37" class="node">
<title>Node36</title>
<polygon fill="none" stroke="#bfbfbf" points="1329.5,-263 1329.5,-282 1379.5,-282 1379.5,-263 1329.5,-263"/>
<text text-anchor="middle" x="1354.5" y="-270" font-family="Helvetica,sans-Serif" font-size="10.00" fill="#000000">cstring</text>
</g>
<!-- Node30&#45;&gt;Node36 -->
<g id="edge41" class="edge">
<title>Node30&#45;&gt;Node36</title>
<path fill="none" stroke="#191970" d="M1516.9979,-325.2715C1479.1993,-316.112 1430.5606,-303.1106 1388.5,-288 1386.863,-287.4119 1385.196,-286.777 1383.5232,-286.1115"/>
<polygon fill="#191970" stroke="#191970" points="1384.6195,-282.7743 1374.0475,-282.0787 1381.8783,-289.2153 1384.6195,-282.7743"/>
</g>
<!-- Node37 -->
<g id="node38" class="node">
<title>Node37</title>
<polygon fill="none" stroke="#bfbfbf" points="1397.5,-263 1397.5,-282 1455.5,-282 1455.5,-263 1397.5,-263"/>
<text text-anchor="middle" x="1426.5" y="-270" font-family="Helvetica,sans-Serif" font-size="10.00" fill="#000000">memory</text>
</g>
<!-- Node30&#45;&gt;Node37 -->
<g id="edge42" class="edge">
<title>Node30&#45;&gt;Node37</title>
<path fill="none" stroke="#191970" d="M1545.9394,-324.4639C1519.5182,-312.969 1483.4021,-297.2561 1457.8209,-286.1266"/>
<polygon fill="#191970" stroke="#191970" points="1459.1408,-282.884 1448.5747,-282.1039 1456.3481,-289.3028 1459.1408,-282.884"/>
</g>
<!-- Node38 -->
<g id="node39" class="node">
<title>Node38</title>
<polygon fill="none" stroke="#bfbfbf" points="1474,-263 1474,-282 1521,-282 1521,-263 1474,-263"/>
<text text-anchor="middle" x="1497.5" y="-270" font-family="Helvetica,sans-Serif" font-size="10.00" fill="#000000">vector</text>
</g>
<!-- Node30&#45;&gt;Node38 -->
<g id="edge43" class="edge">
<title>Node30&#45;&gt;Node38</title>
<path fill="none" stroke="#191970" d="M1561.666,-324.2967C1548.4831,-313.6551 1530.8985,-299.4602 1517.4716,-288.6217"/>
<polygon fill="#191970" stroke="#191970" points="1519.3164,-285.6128 1509.3368,-282.055 1514.9195,-291.0596 1519.3164,-285.6128"/>
</g>
</g>
</svg>
        <g id="navigator" transform="translate(0 0)" fill="#404254">
                <rect fill="#f2f5e9" fill-opacity="0.5" stroke="#606060" stroke-width=".5" x="0" y="0" width="60" height="60"/>
                <use id="zoomplus" xlink:href="#zoomPlus" x="17" y="9" onmousedown="handleZoom(evt,'in')"/>
                <use id="zoomminus" xlink:href="#zoomMin" x="42" y="9" onmousedown="handleZoom(evt,'out')"/>
                <use id="reset" xlink:href="#resetDef" x="30" y="36" onmousedown="handleReset()"/>
                <g id="arrowUp" xlink:href="#dirArrow" transform="translate(30 24)" onmousedown="handlePan(0,-1)">
                  <use xlink:href="#rim" fill="#404040">
                        <set attributeName="fill" to="#808080" begin="arrowUp.mouseover" end="arrowUp.mouseout"/>
                  </use>
                  <path fill="none" stroke="white" stroke-width="1.5" d="M0,-3.0v7 M-2.5,-0.5L0,-3.0L2.5,-0.5"/>
                </g>
                <g id="arrowRight" xlink:href="#dirArrow" transform="rotate(90) translate(36 -43)" onmousedown="handlePan(1,0)">
                  <use xlink:href="#rim" fill="#404040">
                        <set attributeName="fill" to="#808080" begin="arrowRight.mouseover" end="arrowRight.mouseout"/>
                  </use>
                  <path fill="none" stroke="white" stroke-width="1.5" d="M0,-3.0v7 M-2.5,-0.5L0,-3.0L2.5,-0.5"/>
                </g>
                <g id="arrowDown" xlink:href="#dirArrow" transform="rotate(180) translate(-30 -48)" onmousedown="handlePan(0,1)">
                  <use xlink:href="#rim" fill="#404040">
                        <set attributeName="fill" to="#808080" begin="arrowDown.mouseover" end="arrowDown.mouseout"/>
                  </use>
                  <path fill="none" stroke="white" stroke-width="1.5" d="M0,-3.0v7 M-2.5,-0.5L0,-3.0L2.5,-0.5"/>
                </g>
                <g id="arrowLeft" xlink:href="#dirArrow" transform="rotate(270) translate(-36 17)" onmousedown="handlePan(-1,0)">
                  <use xlink:href="#rim" fill="#404040">
                        <set attributeName="fill" to="#808080" begin="arrowLeft.mouseover" end="arrowLeft.mouseout"/>
                  </use>
                  <path fill="none" stroke="white" stroke-width="1.5" d="M0,-3.0v7 M-2.5,-0.5L0,-3.0L2.5,-0.5"/>
                </g>
        </g>
        <svg viewBox="0 0 15 15" width="100%" height="30px" preserveAspectRatio="xMaxYMin meet">
         <g id="arrow_out" transform="scale(0.3 0.3)">
          <a xlink:href="CPV_2simulation_2include_2CPVSimulation_2Digitizer_8h__incl_org.svg" target="_base">
           <rect id="button" ry="5" rx="5" y="6" x="6" height="38" width="38"
                fill="#f2f5e9" fill-opacity="0.5" stroke="#606060" stroke-width="1.0"/>
           <path id="arrow"
             d="M 11.500037,31.436501 C 11.940474,20.09759 22.043105,11.32322 32.158766,21.979434 L 37.068811,17.246167 C 37.068811,17.246167 37.088388,32 37.088388,32 L 22.160133,31.978069 C 22.160133,31.978069 26.997745,27.140456 26.997745,27.140456 C 18.528582,18.264221 13.291696,25.230495 11.500037,31.436501 z"
             style="fill:#404040;"/>
          </a>
         </g>
        </svg>
</svg>
