<?xml version="1.0" encoding="UTF-8" standalone="no"?>
<!DOCTYPE svg PUBLIC "-//W3C//DTD SVG 1.1//EN"
 "http://www.w3.org/Graphics/SVG/1.1/DTD/svg11.dtd">
<!-- Generated by graphviz version 2.40.1 (20161225.0304)
 -->
<!-- Title: /home/travis/build/AliceO2Group/AliceO2/Framework/Core/src/Kernels.cxx Pages: 1 -->
<!--zoomable 330 -->
<svg id="main" version="1.1" xmlns="http://www.w3.org/2000/svg" xmlns:xlink="http://www.w3.org/1999/xlink" xml:space="preserve" onload="init(evt)">
<style type="text/css"><![CDATA[
.edge:hover path { stroke: red; }
.edge:hover polygon { stroke: red; fill: red; }
]]></style>
<script type="text/javascript"><![CDATA[
var edges = document.getElementsByTagName('g');
if (edges && edges.length) {
  for (var i=0;i<edges.length;i++) {
    if (edges[i].id.substr(0,4)=='edge') {
      edges[i].setAttribute('class','edge');
    }
  }
}
]]></script>
        <defs>
                <circle id="rim" cx="0" cy="0" r="7"/>
                <circle id="rim2" cx="0" cy="0" r="3.5"/>
                <g id="zoomPlus">
                        <use xlink:href="#rim" fill="#404040">
                                <set attributeName="fill" to="#808080" begin="zoomplus.mouseover" end="zoomplus.mouseout"/>
                        </use>
                        <path d="M-4,0h8M0,-4v8" fill="none" stroke="white" stroke-width="1.5" pointer-events="none"/>
                </g>
                <g id="zoomMin">
                        <use xlink:href="#rim" fill="#404040">
                                <set attributeName="fill" to="#808080" begin="zoomminus.mouseover" end="zoomminus.mouseout"/>
                        </use>
                        <path d="M-4,0h8" fill="none" stroke="white" stroke-width="1.5" pointer-events="none"/>
                </g>
                <g id="dirArrow">
                        <path fill="none" stroke="white" stroke-width="1.5" d="M0,-3.0v7 M-2.5,-0.5L0,-3.0L2.5,-0.5"/>
                </g>
               <g id="resetDef">
                       <use xlink:href="#rim2" fill="#404040">
                               <set attributeName="fill" to="#808080" begin="reset.mouseover" end="reset.mouseout"/>
                       </use>
               </g>
        </defs>

<script type="text/javascript">
var viewWidth = 1796;
var viewHeight = 330;
var sectionId = 'dynsection-0';
</script>
<script xlink:href="../../svgpan.js"/>
<svg id="graph" class="graph">
<g id="viewport">
<title>/home/travis/build/AliceO2Group/AliceO2/Framework/Core/src/Kernels.cxx</title>
<!-- Node0 -->
<g id="node1" class="node">
<title>Node0</title>
<polygon fill="#bfbfbf" stroke="#000000" points="554,-280.5 554,-321.5 730,-321.5 730,-280.5 554,-280.5"/>
<text text-anchor="start" x="562" y="-309.5" font-family="Helvetica,sans-Serif" font-size="10.00" fill="#000000">/home/travis/build</text>
<text text-anchor="start" x="562" y="-298.5" font-family="Helvetica,sans-Serif" font-size="10.00" fill="#000000">/AliceO2Group/AliceO2</text>
<text text-anchor="middle" x="642" y="-287.5" font-family="Helvetica,sans-Serif" font-size="10.00" fill="#000000">/Framework/Core/src/Kernels.cxx</text>
</g>
<!-- Node1 -->
<g id="node2" class="node">
<title>Node1</title>
<g id="a_node2"><a xlink:href="../../d0/d92/Kernels_8h.html" target="_top" xlink:title="Framework/Kernels.h">
<polygon fill="none" stroke="#000000" points="292.5,-224.5 292.5,-243.5 411.5,-243.5 411.5,-224.5 292.5,-224.5"/>
<text text-anchor="middle" x="352" y="-231.5" font-family="Helvetica,sans-Serif" font-size="10.00" fill="#000000">Framework/Kernels.h</text>
</a>
</g>
</g>
<!-- Node0&#45;&gt;Node1 -->
<g id="edge1" class="edge">
<title>Node0&#45;&gt;Node1</title>
<path fill="none" stroke="#191970" d="M553.8093,-280.6249C504.5464,-269.2435 444.8919,-255.4612 403.2693,-245.845"/>
<polygon fill="#191970" stroke="#191970" points="403.8886,-242.3959 393.3573,-243.555 402.3128,-249.2163 403.8886,-242.3959"/>
</g>
<!-- Node4 -->
<g id="node5" class="node">
<title>Node4</title>
<polygon fill="none" stroke="#bfbfbf" points="0,-168.5 0,-187.5 86,-187.5 86,-168.5 0,-168.5"/>
<text text-anchor="middle" x="43" y="-175.5" font-family="Helvetica,sans-Serif" font-size="10.00" fill="#000000">arrow/status.h</text>
</g>
<!-- Node0&#45;&gt;Node4 -->
<g id="edge44" class="edge">
<title>Node0&#45;&gt;Node4</title>
<path fill="none" stroke="#191970" d="M553.709,-289.7637C480.7281,-279.811 374.5979,-263.8025 283,-244 211.8237,-228.6124 130.3595,-204.8849 82.9924,-190.4645"/>
<polygon fill="#191970" stroke="#191970" points="84.0048,-187.1142 73.4183,-187.535 81.9566,-193.8078 84.0048,-187.1142"/>
</g>
<!-- Node6 -->
<g id="node7" class="node">
<title>Node6</title>
<polygon fill="none" stroke="#bfbfbf" points="466,-168.5 466,-187.5 576,-187.5 576,-168.5 466,-168.5"/>
<text text-anchor="middle" x="521" y="-175.5" font-family="Helvetica,sans-Serif" font-size="10.00" fill="#000000">arrow/util/variant.h</text>
</g>
<!-- Node0&#45;&gt;Node6 -->
<g id="edge46" class="edge">
<title>Node0&#45;&gt;Node6</title>
<path fill="none" stroke="#191970" d="M621.7473,-280.4126C598.1395,-256.4145 559.5682,-217.2056 537.6334,-194.9083"/>
<polygon fill="#191970" stroke="#191970" points="539.8714,-192.1925 530.3634,-187.5182 534.8812,-197.1015 539.8714,-192.1925"/>
</g>
<!-- Node8 -->
<g id="node9" class="node">
<title>Node8</title>
<g id="a_node9"><a xlink:href="../../d5/d98/TableBuilder_8h.html" target="_top" xlink:title="Framework/TableBuilder.h">
<polygon fill="none" stroke="#000000" points="821,-224.5 821,-243.5 963,-243.5 963,-224.5 821,-224.5"/>
<text text-anchor="middle" x="892" y="-231.5" font-family="Helvetica,sans-Serif" font-size="10.00" fill="#000000">Framework/TableBuilder.h</text>
</a>
</g>
</g>
<!-- Node0&#45;&gt;Node8 -->
<g id="edge8" class="edge">
<title>Node0&#45;&gt;Node8</title>
<path fill="none" stroke="#191970" d="M718.7072,-280.4425C760.511,-269.239 810.8303,-255.7535 846.4497,-246.2075"/>
<polygon fill="#191970" stroke="#191970" points="847.7929,-249.4711 856.546,-243.5017 845.9808,-242.7097 847.7929,-249.4711"/>
</g>
<!-- Node16 -->
<g id="node17" class="node">
<title>Node16</title>
<polygon fill="none" stroke="#bfbfbf" points="478,-56.5 478,-75.5 556,-75.5 556,-56.5 478,-56.5"/>
<text text-anchor="middle" x="517" y="-63.5" font-family="Helvetica,sans-Serif" font-size="10.00" fill="#000000">arrow/type.h</text>
</g>
<!-- Node0&#45;&gt;Node16 -->
<g id="edge45" class="edge">
<title>Node0&#45;&gt;Node16</title>
<path fill="none" stroke="#191970" d="M634.438,-280.1744C624.4536,-253.5176 605.7003,-206.2137 585,-168 568.2976,-137.1666 544.9266,-103.7703 530.3899,-83.8826"/>
<polygon fill="#191970" stroke="#191970" points="533.1435,-81.7196 524.3882,-75.7534 527.512,-85.8772 533.1435,-81.7196"/>
</g>
<!-- Node22 -->
<g id="node23" class="node">
<title>Node22</title>
<polygon fill="none" stroke="#bfbfbf" points="574,-56.5 574,-75.5 632,-75.5 632,-56.5 574,-56.5"/>
<text text-anchor="middle" x="603" y="-63.5" font-family="Helvetica,sans-Serif" font-size="10.00" fill="#000000">memory</text>
</g>
<!-- Node0&#45;&gt;Node22 -->
<g id="edge47" class="edge">
<title>Node0&#45;&gt;Node22</title>
<path fill="none" stroke="#191970" d="M640.6611,-280.3636C638.107,-245.3805 631.5439,-172.351 618,-112 616.0049,-103.1098 613.0075,-93.495 610.2154,-85.3657"/>
<polygon fill="#191970" stroke="#191970" points="613.4288,-83.9571 606.7648,-75.7206 606.8379,-86.3151 613.4288,-83.9571"/>
</g>
<!-- Node28 -->
<g id="node29" class="node">
<title>Node28</title>
<polygon fill="none" stroke="#bfbfbf" points="1698.5,-168.5 1698.5,-187.5 1787.5,-187.5 1787.5,-168.5 1698.5,-168.5"/>
<text text-anchor="middle" x="1743" y="-175.5" font-family="Helvetica,sans-Serif" font-size="10.00" fill="#000000">arrow/builder.h</text>
</g>
<!-- Node0&#45;&gt;Node28 -->
<g id="edge43" class="edge">
<title>Node0&#45;&gt;Node28</title>
<path fill="none" stroke="#191970" d="M730.2755,-293.0907C797.7768,-285.3002 892.4552,-270.5764 972,-244 990.4757,-237.8272 992.1934,-229.0764 1011,-224 1155.5943,-184.9697 1535.1468,-204.5409 1684,-188 1685.3068,-187.8548 1686.6287,-187.6995 1687.9608,-187.5354"/>
<polygon fill="#191970" stroke="#191970" points="1688.8609,-190.9453 1698.2979,-186.1294 1687.9173,-184.0092 1688.8609,-190.9453"/>
</g>
<!-- Node31 -->
<g id="node32" class="node">
<title>Node31</title>
<g id="a_node32"><a xlink:href="../../df/d1f/ArrowDebugHelpers_8h.html" target="_top" xlink:title="ArrowDebugHelpers.h">
<polygon fill="none" stroke="#000000" points="1019.5,-224.5 1019.5,-243.5 1142.5,-243.5 1142.5,-224.5 1019.5,-224.5"/>
<text text-anchor="middle" x="1081" y="-231.5" font-family="Helvetica,sans-Serif" font-size="10.00" fill="#000000">ArrowDebugHelpers.h</text>
</a>
</g>
</g>
<!-- Node0&#45;&gt;Node31 -->
<g id="edge42" class="edge">
<title>Node0&#45;&gt;Node31</title>
<path fill="none" stroke="#191970" d="M730.0465,-287.5624C812.0906,-275.0408 932.9263,-256.599 1009.2583,-244.9492"/>
<polygon fill="#191970" stroke="#191970" points="1009.9056,-248.391 1019.263,-243.4223 1008.8494,-241.4711 1009.9056,-248.391"/>
</g>
<!-- Node32 -->
<g id="node33" class="node">
<title>Node32</title>
<polygon fill="none" stroke="#bfbfbf" points="1161,-224.5 1161,-243.5 1221,-243.5 1221,-224.5 1161,-224.5"/>
<text text-anchor="middle" x="1191" y="-231.5" font-family="Helvetica,sans-Serif" font-size="10.00" fill="#000000">iostream</text>
</g>
<!-- Node0&#45;&gt;Node32 -->
<g id="edge48" class="edge">
<title>Node0&#45;&gt;Node32</title>
<path fill="none" stroke="#191970" d="M730.0813,-294.9131C829.9826,-287.1613 997.8089,-271.5742 1150.8033,-244.0053"/>
<polygon fill="#191970" stroke="#191970" points="1151.6485,-247.409 1160.8585,-242.172 1150.3929,-240.5225 1151.6485,-247.409"/>
</g>
<!-- Node2 -->
<g id="node3" class="node">
<title>Node2</title>
<g id="a_node3"><a xlink:href="../../dd/dc2/BasicOps_8h.html" target="_top" xlink:title="Framework/BasicOps.h">
<polygon fill="none" stroke="#000000" points="160,-56.5 160,-75.5 288,-75.5 288,-56.5 160,-56.5"/>
<text text-anchor="middle" x="224" y="-63.5" font-family="Helvetica,sans-Serif" font-size="10.00" fill="#000000">Framework/BasicOps.h</text>
</a>
</g>
</g>
<!-- Node1&#45;&gt;Node2 -->
<g id="edge2" class="edge">
<title>Node1&#45;&gt;Node2</title>
<path fill="none" stroke="#191970" d="M292.4849,-225.4114C231.1578,-215.955 143.1003,-200.4423 133,-188 102.5251,-150.459 162.1151,-104.2507 198.5822,-80.948"/>
<polygon fill="#191970" stroke="#191970" points="200.642,-83.7888 207.2864,-75.5363 196.946,-77.8441 200.642,-83.7888"/>
</g>
<!-- Node3 -->
<g id="node4" class="node">
<title>Node3</title>
<polygon fill="none" stroke="#bfbfbf" points="142.5,-168.5 142.5,-187.5 275.5,-187.5 275.5,-168.5 142.5,-168.5"/>
<text text-anchor="middle" x="209" y="-175.5" font-family="Helvetica,sans-Serif" font-size="10.00" fill="#000000">arrow/compute/kernel.h</text>
</g>
<!-- Node1&#45;&gt;Node3 -->
<g id="edge3" class="edge">
<title>Node1&#45;&gt;Node3</title>
<path fill="none" stroke="#191970" d="M327.4174,-224.3733C304.0504,-215.2226 268.7138,-201.3844 242.7216,-191.2057"/>
<polygon fill="#191970" stroke="#191970" points="243.8495,-187.8886 233.2618,-187.5011 241.297,-194.4066 243.8495,-187.8886"/>
</g>
<!-- Node1&#45;&gt;Node4 -->
<g id="edge4" class="edge">
<title>Node1&#45;&gt;Node4</title>
<path fill="none" stroke="#191970" d="M299.2321,-224.4369C242.4819,-214.1521 152.7666,-197.893 95.9471,-187.5956"/>
<polygon fill="#191970" stroke="#191970" points="96.5465,-184.1473 86.0826,-185.8078 95.2981,-191.0351 96.5465,-184.1473"/>
</g>
<!-- Node5 -->
<g id="node6" class="node">
<title>Node5</title>
<polygon fill="none" stroke="#bfbfbf" points="294,-168.5 294,-187.5 410,-187.5 410,-168.5 294,-168.5"/>
<text text-anchor="middle" x="352" y="-175.5" font-family="Helvetica,sans-Serif" font-size="10.00" fill="#000000">arrow/util/visibility.h</text>
</g>
<!-- Node1&#45;&gt;Node5 -->
<g id="edge5" class="edge">
<title>Node1&#45;&gt;Node5</title>
<path fill="none" stroke="#191970" d="M352,-224.2455C352,-216.9382 352,-206.6944 352,-197.7046"/>
<polygon fill="#191970" stroke="#191970" points="355.5001,-197.6426 352,-187.6427 348.5001,-197.6427 355.5001,-197.6426"/>
</g>
<!-- Node1&#45;&gt;Node6 -->
<g id="edge6" class="edge">
<title>Node1&#45;&gt;Node6</title>
<path fill="none" stroke="#191970" d="M381.0521,-224.3733C409.1543,-215.0613 451.9054,-200.8953 482.7607,-190.671"/>
<polygon fill="#191970" stroke="#191970" points="483.9355,-193.969 492.327,-187.5011 481.7336,-187.3243 483.9355,-193.969"/>
</g>
<!-- Node7 -->
<g id="node8" class="node">
<title>Node7</title>
<polygon fill="none" stroke="#bfbfbf" points="416,-56.5 416,-75.5 460,-75.5 460,-56.5 416,-56.5"/>
<text text-anchor="middle" x="438" y="-63.5" font-family="Helvetica,sans-Serif" font-size="10.00" fill="#000000">string</text>
</g>
<!-- Node1&#45;&gt;Node7 -->
<g id="edge7" class="edge">
<title>Node1&#45;&gt;Node7</title>
<path fill="none" stroke="#191970" d="M374.6452,-224.3582C389.6973,-216.7328 408.552,-204.5976 419,-188 438.8056,-156.5369 440.4959,-111.7085 439.5261,-86.0659"/>
<polygon fill="#191970" stroke="#191970" points="443.0022,-85.54 438.9489,-75.7512 436.0132,-85.9311 443.0022,-85.54"/>
</g>
<!-- Node8&#45;&gt;Node7 -->
<g id="edge39" class="edge">
<title>Node8&#45;&gt;Node7</title>
<path fill="none" stroke="#191970" d="M847.665,-224.4588C811.7243,-216.2377 760.0001,-203.2973 716,-188 622.1883,-155.3849 515.8573,-104.6827 466.2666,-80.1922"/>
<polygon fill="#191970" stroke="#191970" points="467.6391,-76.9661 457.1255,-75.6567 464.5278,-83.2367 467.6391,-76.9661"/>
</g>
<!-- Node9 -->
<g id="node10" class="node">
<title>Node9</title>
<g id="a_node10"><a xlink:href="../../de/d33/ASoA_8h.html" target="_top" xlink:title="Framework/ASoA.h">
<polygon fill="none" stroke="#000000" points="1072,-168.5 1072,-187.5 1180,-187.5 1180,-168.5 1072,-168.5"/>
<text text-anchor="middle" x="1126" y="-175.5" font-family="Helvetica,sans-Serif" font-size="10.00" fill="#000000">Framework/ASoA.h</text>
</a>
</g>
</g>
<!-- Node8&#45;&gt;Node9 -->
<g id="edge9" class="edge">
<title>Node8&#45;&gt;Node9</title>
<path fill="none" stroke="#191970" d="M931.9602,-224.4369C971.8392,-214.8932 1033.2139,-200.2052 1076.2328,-189.9101"/>
<polygon fill="#191970" stroke="#191970" points="1077.2939,-193.2551 1086.2047,-187.5237 1075.6646,-186.4473 1077.2939,-193.2551"/>
</g>
<!-- Node10 -->
<g id="node11" class="node">
<title>Node10</title>
<g id="a_node11"><a xlink:href="../../de/d9b/FunctionalHelpers_8h.html" target="_top" xlink:title="Framework/FunctionalHelpers.h">
<polygon fill="none" stroke="#000000" points="650,-56.5 650,-75.5 820,-75.5 820,-56.5 650,-56.5"/>
<text text-anchor="middle" x="735" y="-63.5" font-family="Helvetica,sans-Serif" font-size="10.00" fill="#000000">Framework/FunctionalHelpers.h</text>
</a>
</g>
</g>
<!-- Node8&#45;&gt;Node10 -->
<g id="edge31" class="edge">
<title>Node8&#45;&gt;Node10</title>
<path fill="none" stroke="#191970" d="M883.1092,-224.4862C857.6465,-197.2396 784.172,-118.6172 751.2697,-83.4096"/>
<polygon fill="#191970" stroke="#191970" points="753.5694,-80.7444 744.1844,-75.8279 748.4551,-85.5239 753.5694,-80.7444"/>
</g>
<!-- Node11 -->
<g id="node12" class="node">
<title>Node11</title>
<polygon fill="none" stroke="#bfbfbf" points="1169.5,-.5 1169.5,-19.5 1234.5,-19.5 1234.5,-.5 1169.5,-.5"/>
<text text-anchor="middle" x="1202" y="-7.5" font-family="Helvetica,sans-Serif" font-size="10.00" fill="#000000">functional</text>
</g>
<!-- Node8&#45;&gt;Node11 -->
<g id="edge37" class="edge">
<title>Node8&#45;&gt;Node11</title>
<path fill="none" stroke="#191970" d="M963.1884,-224.5391C964.807,-224.3544 966.4126,-224.1744 968,-224 1148.9492,-204.1216 1199.0671,-230.8081 1376,-188 1504.2692,-156.9658 1577.3558,-185.5109 1651,-76 1655.9603,-68.6239 1656.9565,-62.5979 1651,-56 1624.067,-26.1668 1351.9107,-14.6066 1244.8924,-11.192"/>
<polygon fill="#191970" stroke="#191970" points="1244.8697,-7.6897 1234.7659,-10.8776 1244.6525,-14.6863 1244.8697,-7.6897"/>
</g>
<!-- Node17 -->
<g id="node18" class="node">
<title>Node17</title>
<polygon fill="none" stroke="#bfbfbf" points="1473.5,-56.5 1473.5,-75.5 1554.5,-75.5 1554.5,-56.5 1473.5,-56.5"/>
<text text-anchor="middle" x="1514" y="-63.5" font-family="Helvetica,sans-Serif" font-size="10.00" fill="#000000">arrow/table.h</text>
</g>
<!-- Node8&#45;&gt;Node17 -->
<g id="edge35" class="edge">
<title>Node8&#45;&gt;Node17</title>
<path fill="none" stroke="#191970" d="M963.1922,-224.573C964.8097,-224.3781 966.414,-224.1868 968,-224 1121.5464,-205.9137 1163.1244,-221.7663 1314,-188 1387.5221,-171.5456 1415.4788,-179.4501 1474,-132 1489.2418,-119.6417 1500.1356,-99.8229 1506.6679,-85.1243"/>
<polygon fill="#191970" stroke="#191970" points="1510.0586,-86.0844 1510.6534,-75.5063 1503.5918,-83.4047 1510.0586,-86.0844"/>
</g>
<!-- Node8&#45;&gt;Node22 -->
<g id="edge40" class="edge">
<title>Node8&#45;&gt;Node22</title>
<path fill="none" stroke="#191970" d="M820.66,-224.6726C792.3032,-218.1173 760.8301,-206.9651 737,-188 706.6335,-163.8329 722.0777,-138.7921 694,-112 679.0876,-97.7704 658.915,-86.9688 641.3522,-79.4206"/>
<polygon fill="#191970" stroke="#191970" points="642.4944,-76.1064 631.9136,-75.5607 639.8447,-82.5855 642.4944,-76.1064"/>
</g>
<!-- Node25 -->
<g id="node26" class="node">
<title>Node25</title>
<polygon fill="none" stroke="#bfbfbf" points="746,-168.5 746,-187.5 802,-187.5 802,-168.5 746,-168.5"/>
<text text-anchor="middle" x="774" y="-175.5" font-family="Helvetica,sans-Serif" font-size="10.00" fill="#000000">sstream</text>
</g>
<!-- Node8&#45;&gt;Node25 -->
<g id="edge32" class="edge">
<title>Node8&#45;&gt;Node25</title>
<path fill="none" stroke="#191970" d="M871.7151,-224.3733C852.8579,-215.4241 824.554,-201.9917 803.2545,-191.8835"/>
<polygon fill="#191970" stroke="#191970" points="804.5551,-188.6266 794.0202,-187.5011 801.5539,-194.9506 804.5551,-188.6266"/>
</g>
<!-- Node26 -->
<g id="node27" class="node">
<title>Node26</title>
<polygon fill="none" stroke="#bfbfbf" points="858,-168.5 858,-187.5 926,-187.5 926,-168.5 858,-168.5"/>
<text text-anchor="middle" x="892" y="-175.5" font-family="Helvetica,sans-Serif" font-size="10.00" fill="#000000">arrow/stl.h</text>
</g>
<!-- Node8&#45;&gt;Node26 -->
<g id="edge33" class="edge">
<title>Node8&#45;&gt;Node26</title>
<path fill="none" stroke="#191970" d="M892,-224.2455C892,-216.9382 892,-206.6944 892,-197.7046"/>
<polygon fill="#191970" stroke="#191970" points="895.5001,-197.6426 892,-187.6427 888.5001,-197.6427 895.5001,-197.6426"/>
</g>
<!-- Node27 -->
<g id="node28" class="node">
<title>Node27</title>
<polygon fill="none" stroke="#bfbfbf" points="944.5,-168.5 944.5,-187.5 1053.5,-187.5 1053.5,-168.5 944.5,-168.5"/>
<text text-anchor="middle" x="999" y="-175.5" font-family="Helvetica,sans-Serif" font-size="10.00" fill="#000000">arrow/type_traits.h</text>
</g>
<!-- Node8&#45;&gt;Node27 -->
<g id="edge34" class="edge">
<title>Node8&#45;&gt;Node27</title>
<path fill="none" stroke="#191970" d="M910.638,-224.2455C927.4386,-215.4527 952.3634,-202.4079 971.4618,-192.4125"/>
<polygon fill="#191970" stroke="#191970" points="973.3386,-195.3807 980.5756,-187.6427 970.0927,-189.1787 973.3386,-195.3807"/>
</g>
<!-- Node8&#45;&gt;Node28 -->
<g id="edge36" class="edge">
<title>Node8&#45;&gt;Node28</title>
<path fill="none" stroke="#191970" d="M963.3862,-225.2542C967.99,-224.7976 972.5581,-224.374 977,-224 1290.5202,-197.6047 1371.2511,-222.3474 1684,-188 1685.307,-187.8565 1686.629,-187.7027 1687.9613,-187.54"/>
<polygon fill="#191970" stroke="#191970" points="1688.8587,-190.9506 1698.2992,-186.1415 1687.9202,-184.0137 1688.8587,-190.9506"/>
</g>
<!-- Node29 -->
<g id="node30" class="node">
<title>Node29</title>
<polygon fill="none" stroke="#bfbfbf" points="1198.5,-168.5 1198.5,-187.5 1245.5,-187.5 1245.5,-168.5 1198.5,-168.5"/>
<text text-anchor="middle" x="1222" y="-175.5" font-family="Helvetica,sans-Serif" font-size="10.00" fill="#000000">vector</text>
</g>
<!-- Node8&#45;&gt;Node29 -->
<g id="edge38" class="edge">
<title>Node8&#45;&gt;Node29</title>
<path fill="none" stroke="#191970" d="M960.9906,-224.4604C1030.3013,-214.6845 1133.4073,-199.5732 1188.3192,-187.8375"/>
<polygon fill="#191970" stroke="#191970" points="1189.3131,-191.202 1198.3137,-185.6128 1187.7922,-184.3692 1189.3131,-191.202"/>
</g>
<!-- Node30 -->
<g id="node31" class="node">
<title>Node30</title>
<polygon fill="none" stroke="#bfbfbf" points="1263.5,-168.5 1263.5,-187.5 1304.5,-187.5 1304.5,-168.5 1263.5,-168.5"/>
<text text-anchor="middle" x="1284" y="-175.5" font-family="Helvetica,sans-Serif" font-size="10.00" fill="#000000">tuple</text>
</g>
<!-- Node8&#45;&gt;Node30 -->
<g id="edge41" class="edge">
<title>Node8&#45;&gt;Node30</title>
<path fill="none" stroke="#191970" d="M963.1886,-225.3604C1055.5194,-214.1047 1209.2744,-195.1733 1253.3985,-187.6454"/>
<polygon fill="#191970" stroke="#191970" points="1254.0931,-191.076 1263.2414,-185.7319 1252.7572,-184.2046 1254.0931,-191.076"/>
</g>
<!-- Node9&#45;&gt;Node10 -->
<g id="edge10" class="edge">
<title>Node9&#45;&gt;Node10</title>
<path fill="none" stroke="#191970" d="M1071.8428,-169.0585C1012.5594,-159.0005 921.4783,-142.6788 888,-132 867.5349,-125.4721 863.675,-120.6213 844,-112 818.3865,-100.7766 789.1872,-88.4803 767.4607,-79.4267"/>
<polygon fill="#191970" stroke="#191970" points="768.6212,-76.1188 758.0439,-75.5107 765.9334,-82.5822 768.6212,-76.1188"/>
</g>
<!-- Node12 -->
<g id="node13" class="node">
<title>Node12</title>
<g id="a_node13"><a xlink:href="../../d9/de8/CompilerBuiltins_8h.html" target="_top" xlink:title="Framework/CompilerBuiltins.h">
<polygon fill="none" stroke="#000000" points="1291,-56.5 1291,-75.5 1455,-75.5 1455,-56.5 1291,-56.5"/>
<text text-anchor="middle" x="1373" y="-63.5" font-family="Helvetica,sans-Serif" font-size="10.00" fill="#000000">Framework/CompilerBuiltins.h</text>
</a>
</g>
</g>
<!-- Node9&#45;&gt;Node12 -->
<g id="edge12" class="edge">
<title>Node9&#45;&gt;Node12</title>
<path fill="none" stroke="#191970" d="M1148.1862,-168.45C1169.4813,-159.2436 1202.521,-144.8547 1231,-132 1270.1807,-114.3148 1315.1358,-93.2965 1343.7835,-79.81"/>
<polygon fill="#191970" stroke="#191970" points="1345.2883,-82.9701 1352.8417,-75.5407 1342.3039,-76.6381 1345.2883,-82.9701"/>
</g>
<!-- Node13 -->
<g id="node14" class="node">
<title>Node13</title>
<g id="a_node14"><a xlink:href="../../db/d31/Traits_8h.html" target="_top" xlink:title="Framework/Traits.h">
<polygon fill="none" stroke="#000000" points="1355.5,-112.5 1355.5,-131.5 1464.5,-131.5 1464.5,-112.5 1355.5,-112.5"/>
<text text-anchor="middle" x="1410" y="-119.5" font-family="Helvetica,sans-Serif" font-size="10.00" fill="#000000">Framework/Traits.h</text>
</a>
</g>
</g>
<!-- Node9&#45;&gt;Node13 -->
<g id="edge13" class="edge">
<title>Node9&#45;&gt;Node13</title>
<path fill="none" stroke="#191970" d="M1174.4986,-168.4369C1223.5115,-158.7724 1299.2777,-143.8326 1351.5707,-133.5213"/>
<polygon fill="#191970" stroke="#191970" points="1352.5674,-136.8922 1361.7014,-131.5237 1351.2132,-130.0244 1352.5674,-136.8922"/>
</g>
<!-- Node15 -->
<g id="node16" class="node">
<title>Node15</title>
<g id="a_node16"><a xlink:href="../../d0/d91/Expressions_8h.html" target="_top" xlink:title="Framework/Expressions.h">
<polygon fill="none" stroke="#000000" points="896.5,-112.5 896.5,-131.5 1037.5,-131.5 1037.5,-112.5 896.5,-112.5"/>
<text text-anchor="middle" x="967" y="-119.5" font-family="Helvetica,sans-Serif" font-size="10.00" fill="#000000">Framework/Expressions.h</text>
</a>
</g>
</g>
<!-- Node9&#45;&gt;Node15 -->
<g id="edge15" class="edge">
<title>Node9&#45;&gt;Node15</title>
<path fill="none" stroke="#191970" d="M1098.6669,-168.3733C1072.4566,-159.1419 1032.7016,-145.1402 1003.7332,-134.9375"/>
<polygon fill="#191970" stroke="#191970" points="1004.5712,-131.5219 993.9764,-131.5011 1002.2458,-138.1244 1004.5712,-131.5219"/>
</g>
<!-- Node9&#45;&gt;Node17 -->
<g id="edge27" class="edge">
<title>Node9&#45;&gt;Node17</title>
<path fill="none" stroke="#191970" d="M1157.0478,-168.4992C1199.7562,-155.4825 1279.0676,-131.4973 1347,-112 1387.9966,-100.2336 1434.8256,-87.3858 1468.4413,-78.2663"/>
<polygon fill="#191970" stroke="#191970" points="1469.6913,-81.5539 1478.4284,-75.5611 1467.8612,-74.7974 1469.6913,-81.5539"/>
</g>
<!-- Node18 -->
<g id="node19" class="node">
<title>Node18</title>
<polygon fill="none" stroke="#bfbfbf" points="1125.5,-56.5 1125.5,-75.5 1272.5,-75.5 1272.5,-56.5 1125.5,-56.5"/>
<text text-anchor="middle" x="1199" y="-63.5" font-family="Helvetica,sans-Serif" font-size="10.00" fill="#000000">gandiva/selection_vector.h</text>
</g>
<!-- Node9&#45;&gt;Node18 -->
<g id="edge29" class="edge">
<title>Node9&#45;&gt;Node18</title>
<path fill="none" stroke="#191970" d="M1164.0976,-168.4497C1182.8946,-161.6063 1203.8748,-150.2734 1215,-132 1223.782,-117.5754 1217.7279,-98.6308 1210.6905,-84.7399"/>
<polygon fill="#191970" stroke="#191970" points="1213.5377,-82.6617 1205.5904,-75.6552 1207.4337,-86.0884 1213.5377,-82.6617"/>
</g>
<!-- Node23 -->
<g id="node24" class="node">
<title>Node23</title>
<polygon fill="none" stroke="#bfbfbf" points="1056,-112.5 1056,-131.5 1136,-131.5 1136,-112.5 1056,-112.5"/>
<text text-anchor="middle" x="1096" y="-119.5" font-family="Helvetica,sans-Serif" font-size="10.00" fill="#000000">arrow/array.h</text>
</g>
<!-- Node9&#45;&gt;Node23 -->
<g id="edge28" class="edge">
<title>Node9&#45;&gt;Node23</title>
<path fill="none" stroke="#191970" d="M1120.7744,-168.2455C1116.6877,-160.617 1110.8865,-149.7881 1105.925,-140.5267"/>
<polygon fill="#191970" stroke="#191970" points="1108.9732,-138.8047 1101.1657,-131.6427 1102.8028,-142.1103 1108.9732,-138.8047"/>
</g>
<!-- Node24 -->
<g id="node25" class="node">
<title>Node24</title>
<polygon fill="none" stroke="#bfbfbf" points="1154,-112.5 1154,-131.5 1206,-131.5 1206,-112.5 1154,-112.5"/>
<text text-anchor="middle" x="1180" y="-119.5" font-family="Helvetica,sans-Serif" font-size="10.00" fill="#000000">cassert</text>
</g>
<!-- Node9&#45;&gt;Node24 -->
<g id="edge30" class="edge">
<title>Node9&#45;&gt;Node24</title>
<path fill="none" stroke="#191970" d="M1135.4061,-168.2455C1143.1493,-160.2155 1154.312,-148.6394 1163.5318,-139.0781"/>
<polygon fill="#191970" stroke="#191970" points="1166.2798,-141.2706 1170.7017,-131.6427 1161.2409,-136.4117 1166.2798,-141.2706"/>
</g>
<!-- Node10&#45;&gt;Node11 -->
<g id="edge11" class="edge">
<title>Node10&#45;&gt;Node11</title>
<path fill="none" stroke="#191970" d="M814.4847,-56.4686C914.1574,-44.5165 1081.4147,-24.4599 1159.4735,-15.0995"/>
<polygon fill="#191970" stroke="#191970" points="1159.9218,-18.5709 1169.4339,-13.9051 1159.0883,-11.6207 1159.9218,-18.5709"/>
</g>
<!-- Node14 -->
<g id="node15" class="node">
<title>Node14</title>
<polygon fill="none" stroke="#bfbfbf" points="1572.5,-56.5 1572.5,-75.5 1641.5,-75.5 1641.5,-56.5 1572.5,-56.5"/>
<text text-anchor="middle" x="1607" y="-63.5" font-family="Helvetica,sans-Serif" font-size="10.00" fill="#000000">type_traits</text>
</g>
<!-- Node13&#45;&gt;Node14 -->
<g id="edge14" class="edge">
<title>Node13&#45;&gt;Node14</title>
<path fill="none" stroke="#191970" d="M1443.8655,-112.3733C1477.049,-102.9404 1527.755,-88.5265 1563.8194,-78.2747"/>
<polygon fill="#191970" stroke="#191970" points="1564.9145,-81.6021 1573.5764,-75.5011 1563.0005,-74.8689 1564.9145,-81.6021"/>
</g>
<!-- Node15&#45;&gt;Node2 -->
<g id="edge16" class="edge">
<title>Node15&#45;&gt;Node2</title>
<path fill="none" stroke="#191970" d="M896.4305,-116.6812C755.8161,-106.083 441.8925,-82.4226 298.2841,-71.5988"/>
<polygon fill="#191970" stroke="#191970" points="298.4782,-68.1036 288.2434,-70.842 297.952,-75.0838 298.4782,-68.1036"/>
</g>
<!-- Node15&#45;&gt;Node7 -->
<g id="edge25" class="edge">
<title>Node15&#45;&gt;Node7</title>
<path fill="none" stroke="#191970" d="M896.1842,-120.3453C800.9608,-117.0384 626.4717,-107.1734 469.9982,-75.8043"/>
<polygon fill="#191970" stroke="#191970" points="470.6921,-72.3738 460.1945,-73.8055 469.2937,-79.2327 470.6921,-72.3738"/>
</g>
<!-- Node15&#45;&gt;Node10 -->
<g id="edge18" class="edge">
<title>Node15&#45;&gt;Node10</title>
<path fill="none" stroke="#191970" d="M927.3814,-112.4369C887.8432,-102.8932 826.9931,-88.2052 784.3418,-77.9101"/>
<polygon fill="#191970" stroke="#191970" points="784.9973,-74.4679 774.4552,-75.5237 783.3548,-81.2724 784.9973,-74.4679"/>
</g>
<!-- Node15&#45;&gt;Node12 -->
<g id="edge17" class="edge">
<title>Node15&#45;&gt;Node12</title>
<path fill="none" stroke="#191970" d="M1036.3326,-112.4369C1107.714,-102.5912 1218.7892,-87.2705 1293.6399,-76.9462"/>
<polygon fill="#191970" stroke="#191970" points="1294.5254,-80.3573 1303.9534,-75.5237 1293.5689,-73.423 1294.5254,-80.3573"/>
</g>
<!-- Node15&#45;&gt;Node16 -->
<g id="edge19" class="edge">
<title>Node15&#45;&gt;Node16</title>
<path fill="none" stroke="#191970" d="M896.2927,-115.8825C817.9918,-108.6635 687.8329,-95.3487 566.4532,-76.1157"/>
<polygon fill="#191970" stroke="#191970" points="566.6663,-72.6053 556.2385,-74.4796 565.5591,-79.5172 566.6663,-72.6053"/>
</g>
<!-- Node15&#45;&gt;Node17 -->
<g id="edge20" class="edge">
<title>Node15&#45;&gt;Node17</title>
<path fill="none" stroke="#191970" d="M1037.6533,-113.0196C1040.8109,-112.6652 1043.9377,-112.3235 1047,-112 1228.7417,-92.8033 1278.1186,-101.9455 1463.3321,-75.9416"/>
<polygon fill="#191970" stroke="#191970" points="1463.9971,-79.3824 1473.406,-74.5117 1463.0133,-72.4519 1463.9971,-79.3824"/>
</g>
<!-- Node15&#45;&gt;Node18 -->
<g id="edge21" class="edge">
<title>Node15&#45;&gt;Node18</title>
<path fill="none" stroke="#191970" d="M1006.6186,-112.4369C1046.1568,-102.8932 1107.0069,-88.2052 1149.6582,-77.9101"/>
<polygon fill="#191970" stroke="#191970" points="1150.6452,-81.2724 1159.5448,-75.5237 1149.0027,-74.4679 1150.6452,-81.2724"/>
</g>
<!-- Node19 -->
<g id="node20" class="node">
<title>Node19</title>
<polygon fill="none" stroke="#bfbfbf" points="1015,-56.5 1015,-75.5 1107,-75.5 1107,-56.5 1015,-56.5"/>
<text text-anchor="middle" x="1061" y="-63.5" font-family="Helvetica,sans-Serif" font-size="10.00" fill="#000000">gandiva/node.h</text>
</g>
<!-- Node15&#45;&gt;Node19 -->
<g id="edge22" class="edge">
<title>Node15&#45;&gt;Node19</title>
<path fill="none" stroke="#191970" d="M983.3736,-112.2455C997.9308,-103.5731 1019.431,-90.7645 1036.1152,-80.825"/>
<polygon fill="#191970" stroke="#191970" points="1038.0144,-83.7676 1044.8141,-75.6427 1034.4317,-77.7539 1038.0144,-83.7676"/>
</g>
<!-- Node20 -->
<g id="node21" class="node">
<title>Node20</title>
<polygon fill="none" stroke="#bfbfbf" points="838.5,-56.5 838.5,-75.5 927.5,-75.5 927.5,-56.5 838.5,-56.5"/>
<text text-anchor="middle" x="883" y="-63.5" font-family="Helvetica,sans-Serif" font-size="10.00" fill="#000000">gandiva/filter.h</text>
</g>
<!-- Node15&#45;&gt;Node20 -->
<g id="edge23" class="edge">
<title>Node15&#45;&gt;Node20</title>
<path fill="none" stroke="#191970" d="M952.3683,-112.2455C939.6006,-103.7337 920.8562,-91.2375 906.0701,-81.3801"/>
<polygon fill="#191970" stroke="#191970" points="907.726,-78.2775 897.464,-75.6427 903.8431,-84.1019 907.726,-78.2775"/>
</g>
<!-- Node21 -->
<g id="node22" class="node">
<title>Node21</title>
<polygon fill="none" stroke="#bfbfbf" points="945.5,-56.5 945.5,-75.5 996.5,-75.5 996.5,-56.5 945.5,-56.5"/>
<text text-anchor="middle" x="971" y="-63.5" font-family="Helvetica,sans-Serif" font-size="10.00" fill="#000000">variant</text>
</g>
<!-- Node15&#45;&gt;Node21 -->
<g id="edge24" class="edge">
<title>Node15&#45;&gt;Node21</title>
<path fill="none" stroke="#191970" d="M967.6967,-112.2455C968.2187,-104.9382 968.9504,-94.6944 969.5925,-85.7046"/>
<polygon fill="#191970" stroke="#191970" points="973.0898,-85.8667 970.3112,-75.6427 966.1076,-85.3679 973.0898,-85.8667"/>
</g>
<!-- Node15&#45;&gt;Node22 -->
<g id="edge26" class="edge">
<title>Node15&#45;&gt;Node22</title>
<path fill="none" stroke="#191970" d="M896.3258,-114.4488C832.2856,-107.0551 735.1849,-94.4742 642.2305,-76.0706"/>
<polygon fill="#191970" stroke="#191970" points="642.8719,-72.6297 632.3789,-74.0949 641.4954,-79.493 642.8719,-72.6297"/>
</g>
</g>
</svg>
        <g id="navigator" transform="translate(0 0)" fill="#404254">
                <rect fill="#f2f5e9" fill-opacity="0.5" stroke="#606060" stroke-width=".5" x="0" y="0" width="60" height="60"/>
                <use id="zoomplus" xlink:href="#zoomPlus" x="17" y="9" onmousedown="handleZoom(evt,'in')"/>
                <use id="zoomminus" xlink:href="#zoomMin" x="42" y="9" onmousedown="handleZoom(evt,'out')"/>
                <use id="reset" xlink:href="#resetDef" x="30" y="36" onmousedown="handleReset()"/>
                <g id="arrowUp" xlink:href="#dirArrow" transform="translate(30 24)" onmousedown="handlePan(0,-1)">
                  <use xlink:href="#rim" fill="#404040">
                        <set attributeName="fill" to="#808080" begin="arrowUp.mouseover" end="arrowUp.mouseout"/>
                  </use>
                  <path fill="none" stroke="white" stroke-width="1.5" d="M0,-3.0v7 M-2.5,-0.5L0,-3.0L2.5,-0.5"/>
                </g>
                <g id="arrowRight" xlink:href="#dirArrow" transform="rotate(90) translate(36 -43)" onmousedown="handlePan(1,0)">
                  <use xlink:href="#rim" fill="#404040">
                        <set attributeName="fill" to="#808080" begin="arrowRight.mouseover" end="arrowRight.mouseout"/>
                  </use>
                  <path fill="none" stroke="white" stroke-width="1.5" d="M0,-3.0v7 M-2.5,-0.5L0,-3.0L2.5,-0.5"/>
                </g>
                <g id="arrowDown" xlink:href="#dirArrow" transform="rotate(180) translate(-30 -48)" onmousedown="handlePan(0,1)">
                  <use xlink:href="#rim" fill="#404040">
                        <set attributeName="fill" to="#808080" begin="arrowDown.mouseover" end="arrowDown.mouseout"/>
                  </use>
                  <path fill="none" stroke="white" stroke-width="1.5" d="M0,-3.0v7 M-2.5,-0.5L0,-3.0L2.5,-0.5"/>
                </g>
                <g id="arrowLeft" xlink:href="#dirArrow" transform="rotate(270) translate(-36 17)" onmousedown="handlePan(-1,0)">
                  <use xlink:href="#rim" fill="#404040">
                        <set attributeName="fill" to="#808080" begin="arrowLeft.mouseover" end="arrowLeft.mouseout"/>
                  </use>
                  <path fill="none" stroke="white" stroke-width="1.5" d="M0,-3.0v7 M-2.5,-0.5L0,-3.0L2.5,-0.5"/>
                </g>
        </g>
        <svg viewBox="0 0 15 15" width="100%" height="30px" preserveAspectRatio="xMaxYMin meet">
         <g id="arrow_out" transform="scale(0.3 0.3)">
          <a xlink:href="Kernels_8cxx__incl_org.svg" target="_base">
           <rect id="button" ry="5" rx="5" y="6" x="6" height="38" width="38"
                fill="#f2f5e9" fill-opacity="0.5" stroke="#606060" stroke-width="1.0"/>
           <path id="arrow"
             d="M 11.500037,31.436501 C 11.940474,20.09759 22.043105,11.32322 32.158766,21.979434 L 37.068811,17.246167 C 37.068811,17.246167 37.088388,32 37.088388,32 L 22.160133,31.978069 C 22.160133,31.978069 26.997745,27.140456 26.997745,27.140456 C 18.528582,18.264221 13.291696,25.230495 11.500037,31.436501 z"
             style="fill:#404040;"/>
          </a>
         </g>
        </svg>
</svg>
