<?xml version="1.0" encoding="UTF-8" standalone="no"?>
<!DOCTYPE svg PUBLIC "-//W3C//DTD SVG 1.1//EN"
 "http://www.w3.org/Graphics/SVG/1.1/DTD/svg11.dtd">
<!-- Generated by graphviz version 2.40.1 (20161225.0304)
 -->
<!-- Title: o2::itsmft::GBTLink Pages: 1 -->
<!--zoomable 782 -->
<svg id="main" version="1.1" xmlns="http://www.w3.org/2000/svg" xmlns:xlink="http://www.w3.org/1999/xlink" xml:space="preserve" onload="init(evt)">
<style type="text/css"><![CDATA[
.edge:hover path { stroke: red; }
.edge:hover polygon { stroke: red; fill: red; }
]]></style>
<script type="text/javascript"><![CDATA[
var edges = document.getElementsByTagName('g');
if (edges && edges.length) {
  for (var i=0;i<edges.length;i++) {
    if (edges[i].id.substr(0,4)=='edge') {
      edges[i].setAttribute('class','edge');
    }
  }
}
]]></script>
        <defs>
                <circle id="rim" cx="0" cy="0" r="7"/>
                <circle id="rim2" cx="0" cy="0" r="3.5"/>
                <g id="zoomPlus">
                        <use xlink:href="#rim" fill="#404040">
                                <set attributeName="fill" to="#808080" begin="zoomplus.mouseover" end="zoomplus.mouseout"/>
                        </use>
                        <path d="M-4,0h8M0,-4v8" fill="none" stroke="white" stroke-width="1.5" pointer-events="none"/>
                </g>
                <g id="zoomMin">
                        <use xlink:href="#rim" fill="#404040">
                                <set attributeName="fill" to="#808080" begin="zoomminus.mouseover" end="zoomminus.mouseout"/>
                        </use>
                        <path d="M-4,0h8" fill="none" stroke="white" stroke-width="1.5" pointer-events="none"/>
                </g>
                <g id="dirArrow">
                        <path fill="none" stroke="white" stroke-width="1.5" d="M0,-3.0v7 M-2.5,-0.5L0,-3.0L2.5,-0.5"/>
                </g>
               <g id="resetDef">
                       <use xlink:href="#rim2" fill="#404040">
                               <set attributeName="fill" to="#808080" begin="reset.mouseover" end="reset.mouseout"/>
                       </use>
               </g>
        </defs>

<script type="text/javascript">
var viewWidth = 1797;
var viewHeight = 782;
var sectionId = 'dynsection-0';
</script>
<script xlink:href="../../svgpan.js"/>
<svg id="graph" class="graph">
<g id="viewport">
<title>o2::itsmft::GBTLink</title>
<!-- Node1 -->
<g id="node1" class="node">
<title>Node1</title>
<polygon fill="#bfbfbf" stroke="#000000" points="656.5,-.5 656.5,-57.5 766.5,-57.5 766.5,-.5 656.5,-.5"/>
<text text-anchor="middle" x="711.5" y="-45.5" font-family="Helvetica,sans-Serif" font-size="10.00" fill="#000000">o2::itsmft::GBTLink</text>
<polyline fill="none" stroke="#000000" points="656.5,-38.5 766.5,-38.5 "/>
<text text-anchor="middle" x="711.5" y="-26.5" font-family="Helvetica,sans-Serif" font-size="10.00" fill="#000000"> </text>
<polyline fill="none" stroke="#000000" points="656.5,-19.5 766.5,-19.5 "/>
<text text-anchor="start" x="664.5" y="-7.5" font-family="Helvetica,sans-Serif" font-size="10.00" fill="#000000">+ clear()</text>
</g>
<!-- Node2 -->
<g id="node2" class="node">
<title>Node2</title>
<polygon fill="none" stroke="#bfbfbf" points="583.5,-711 583.5,-768 639.5,-768 639.5,-711 583.5,-711"/>
<text text-anchor="middle" x="611.5" y="-756" font-family="Helvetica,sans-Serif" font-size="10.00" fill="#000000">uint16_t</text>
<polyline fill="none" stroke="#bfbfbf" points="583.5,-749 639.5,-749 "/>
<text text-anchor="middle" x="611.5" y="-737" font-family="Helvetica,sans-Serif" font-size="10.00" fill="#000000"> </text>
<polyline fill="none" stroke="#bfbfbf" points="583.5,-730 639.5,-730 "/>
<text text-anchor="middle" x="611.5" y="-718" font-family="Helvetica,sans-Serif" font-size="10.00" fill="#000000"> </text>
</g>
<!-- Node2&#45;&gt;Node1 -->
<g id="edge1" class="edge">
<title>Node2&#45;&gt;Node1</title>
<path fill="none" stroke="#404040" d="M639.6806,-711.1934C642.5464,-708.9473 645.5073,-706.84 648.5,-705 668.264,-692.8487 684.0193,-705.8824 697.5,-687 733.2359,-636.9446 718.7643,-205.6573 713.2603,-69.8022"/>
<polygon fill="none" stroke="#404040" points="713.2516,-69.5897 709.008,-63.7594 712.7576,-57.5999 717.0012,-63.4301 713.2516,-69.5897"/>
<text text-anchor="middle" x="740.5" y="-340.5" font-family="Helvetica,sans-Serif" font-size="10.00" fill="#000000"> +feeID</text>
<text text-anchor="middle" x="740.5" y="-329.5" font-family="Helvetica,sans-Serif" font-size="10.00" fill="#000000">+cruID</text>
<text text-anchor="middle" x="740.5" y="-318.5" font-family="Helvetica,sans-Serif" font-size="10.00" fill="#000000">+id</text>
</g>
<!-- Node11 -->
<g id="node11" class="node">
<title>Node11</title>
<g id="a_node11"><a xlink:href="../../d8/d47/structo2_1_1header_1_1RAWDataHeaderV4.html" target="_top" xlink:title="{o2::header::RAWDataHeaderV4\n|+ word0\l+ blockLength\l+ zero0\l+ word1\l+ word2\l+ word3\l+ word4\l+ heartbeatBC\l+ zero42\l+ word5\l+ word6\l+ detectorField\l+ stop\l+ pageCnt\l|}">
<polygon fill="none" stroke="#000000" points="878,-232 878,-432 1045,-432 1045,-232 878,-232"/>
<text text-anchor="middle" x="961.5" y="-420" font-family="Helvetica,sans-Serif" font-size="10.00" fill="#000000">o2::header::RAWDataHeaderV4</text>
<polyline fill="none" stroke="#000000" points="878,-413 1045,-413 "/>
<text text-anchor="start" x="886" y="-401" font-family="Helvetica,sans-Serif" font-size="10.00" fill="#000000">+ word0</text>
<text text-anchor="start" x="886" y="-390" font-family="Helvetica,sans-Serif" font-size="10.00" fill="#000000">+ blockLength</text>
<text text-anchor="start" x="886" y="-379" font-family="Helvetica,sans-Serif" font-size="10.00" fill="#000000">+ zero0</text>
<text text-anchor="start" x="886" y="-368" font-family="Helvetica,sans-Serif" font-size="10.00" fill="#000000">+ word1</text>
<text text-anchor="start" x="886" y="-357" font-family="Helvetica,sans-Serif" font-size="10.00" fill="#000000">+ word2</text>
<text text-anchor="start" x="886" y="-346" font-family="Helvetica,sans-Serif" font-size="10.00" fill="#000000">+ word3</text>
<text text-anchor="start" x="886" y="-335" font-family="Helvetica,sans-Serif" font-size="10.00" fill="#000000">+ word4</text>
<text text-anchor="start" x="886" y="-324" font-family="Helvetica,sans-Serif" font-size="10.00" fill="#000000">+ heartbeatBC</text>
<text text-anchor="start" x="886" y="-313" font-family="Helvetica,sans-Serif" font-size="10.00" fill="#000000">+ zero42</text>
<text text-anchor="start" x="886" y="-302" font-family="Helvetica,sans-Serif" font-size="10.00" fill="#000000">+ word5</text>
<text text-anchor="start" x="886" y="-291" font-family="Helvetica,sans-Serif" font-size="10.00" fill="#000000">+ word6</text>
<text text-anchor="start" x="886" y="-280" font-family="Helvetica,sans-Serif" font-size="10.00" fill="#000000">+ detectorField</text>
<text text-anchor="start" x="886" y="-269" font-family="Helvetica,sans-Serif" font-size="10.00" fill="#000000">+ stop</text>
<text text-anchor="start" x="886" y="-258" font-family="Helvetica,sans-Serif" font-size="10.00" fill="#000000">+ pageCnt</text>
<polyline fill="none" stroke="#000000" points="878,-251 1045,-251 "/>
<text text-anchor="middle" x="961.5" y="-239" font-family="Helvetica,sans-Serif" font-size="10.00" fill="#000000"> </text>
</a>
</g>
</g>
<!-- Node2&#45;&gt;Node11 -->
<g id="edge16" class="edge">
<title>Node2&#45;&gt;Node11</title>
<path fill="none" stroke="#404040" d="M639.4681,-710.8248C642.3785,-708.656 645.4078,-706.6674 648.5,-705 678.2927,-688.9352 699.5777,-711.9048 722.5,-687 759.3653,-646.9462 717.5692,-614.8945 741.5,-566 749.9374,-548.7611 812.9344,-482.3803 869.364,-424.703"/>
<polygon fill="none" stroke="#404040" points="869.5948,-424.4675 870.9377,-417.3825 877.9942,-415.8971 876.6513,-422.9821 869.5948,-424.4675"/>
<text text-anchor="middle" x="760" y="-624" font-family="Helvetica,sans-Serif" font-size="10.00" fill="#000000"> +cruID</text>
</g>
<!-- Node3 -->
<g id="node3" class="node">
<title>Node3</title>
<polygon fill="none" stroke="#bfbfbf" points="1062.5,-303.5 1062.5,-360.5 1112.5,-360.5 1112.5,-303.5 1062.5,-303.5"/>
<text text-anchor="middle" x="1087.5" y="-348.5" font-family="Helvetica,sans-Serif" font-size="10.00" fill="#000000">int32_t</text>
<polyline fill="none" stroke="#bfbfbf" points="1062.5,-341.5 1112.5,-341.5 "/>
<text text-anchor="middle" x="1087.5" y="-329.5" font-family="Helvetica,sans-Serif" font-size="10.00" fill="#000000"> </text>
<polyline fill="none" stroke="#bfbfbf" points="1062.5,-322.5 1112.5,-322.5 "/>
<text text-anchor="middle" x="1087.5" y="-310.5" font-family="Helvetica,sans-Serif" font-size="10.00" fill="#000000"> </text>
</g>
<!-- Node3&#45;&gt;Node1 -->
<g id="edge2" class="edge">
<title>Node3&#45;&gt;Node1</title>
<path fill="none" stroke="#404040" d="M1092.1769,-303.364C1097.8959,-257.6279 1101.6657,-167.9675 1054.5,-116 1017.9749,-75.7564 868.101,-49.5836 779.0013,-37.2548"/>
<polygon fill="none" stroke="#404040" points="778.7416,-37.2196 772.2585,-40.377 766.8504,-35.607 773.3336,-32.4496 778.7416,-37.2196"/>
<text text-anchor="middle" x="1067" y="-84.5" font-family="Helvetica,sans-Serif" font-size="10.00" fill="#000000"> +packetCounter</text>
</g>
<!-- Node4 -->
<g id="node4" class="node">
<title>Node4</title>
<polygon fill="none" stroke="#bfbfbf" points="509.5,-711 509.5,-768 565.5,-768 565.5,-711 509.5,-711"/>
<text text-anchor="middle" x="537.5" y="-756" font-family="Helvetica,sans-Serif" font-size="10.00" fill="#000000">uint32_t</text>
<polyline fill="none" stroke="#bfbfbf" points="509.5,-749 565.5,-749 "/>
<text text-anchor="middle" x="537.5" y="-737" font-family="Helvetica,sans-Serif" font-size="10.00" fill="#000000"> </text>
<polyline fill="none" stroke="#bfbfbf" points="509.5,-730 565.5,-730 "/>
<text text-anchor="middle" x="537.5" y="-718" font-family="Helvetica,sans-Serif" font-size="10.00" fill="#000000"> </text>
</g>
<!-- Node4&#45;&gt;Node1 -->
<g id="edge3" class="edge">
<title>Node4&#45;&gt;Node1</title>
<path fill="none" stroke="#404040" d="M555.8909,-710.985C560.0043,-703.4467 563.9104,-695.1362 566.5,-687 643.9503,-443.6614 523.8921,-348.0496 630.5,-116 639.0615,-97.3645 653.1818,-80.0872 667.255,-65.9219"/>
<polygon fill="none" stroke="#404040" points="667.3265,-65.8528 668.8663,-58.808 675.9614,-57.5197 674.4217,-64.5646 667.3265,-65.8528"/>
<text text-anchor="middle" x="671" y="-351.5" font-family="Helvetica,sans-Serif" font-size="10.00" fill="#000000"> +lanesStop</text>
<text text-anchor="middle" x="671" y="-340.5" font-family="Helvetica,sans-Serif" font-size="10.00" fill="#000000">+lanes</text>
<text text-anchor="middle" x="671" y="-329.5" font-family="Helvetica,sans-Serif" font-size="10.00" fill="#000000">+lanesActive</text>
<text text-anchor="middle" x="671" y="-318.5" font-family="Helvetica,sans-Serif" font-size="10.00" fill="#000000">+lanesWithData</text>
<text text-anchor="middle" x="671" y="-307.5" font-family="Helvetica,sans-Serif" font-size="10.00" fill="#000000">+lanesTimeOut</text>
</g>
<!-- Node6 -->
<g id="node6" class="node">
<title>Node6</title>
<g id="a_node6"><a xlink:href="../../d1/d6f/structo2_1_1itsmft_1_1GBTLinkDecodingStat.html" target="_top" xlink:title="{o2::itsmft::GBTLinkDecodingStat\n||+ clear()\l+ print()\l+ ClassDefNV()\l}">
<polygon fill="none" stroke="#000000" points="214.5,-292.5 214.5,-371.5 390.5,-371.5 390.5,-292.5 214.5,-292.5"/>
<text text-anchor="middle" x="302.5" y="-359.5" font-family="Helvetica,sans-Serif" font-size="10.00" fill="#000000">o2::itsmft::GBTLinkDecodingStat</text>
<polyline fill="none" stroke="#000000" points="214.5,-352.5 390.5,-352.5 "/>
<text text-anchor="middle" x="302.5" y="-340.5" font-family="Helvetica,sans-Serif" font-size="10.00" fill="#000000"> </text>
<polyline fill="none" stroke="#000000" points="214.5,-333.5 390.5,-333.5 "/>
<text text-anchor="start" x="222.5" y="-321.5" font-family="Helvetica,sans-Serif" font-size="10.00" fill="#000000">+ clear()</text>
<text text-anchor="start" x="222.5" y="-310.5" font-family="Helvetica,sans-Serif" font-size="10.00" fill="#000000">+ print()</text>
<text text-anchor="start" x="222.5" y="-299.5" font-family="Helvetica,sans-Serif" font-size="10.00" fill="#000000">+ ClassDefNV()</text>
</a>
</g>
</g>
<!-- Node4&#45;&gt;Node6 -->
<g id="edge7" class="edge">
<title>Node4&#45;&gt;Node6</title>
<path fill="none" stroke="#404040" d="M523.5334,-710.7864C520.2206,-703.1817 516.9437,-694.8894 514.5,-687 498.3034,-634.7103 530.1034,-604.8113 491.5,-566 462.1182,-536.46 432.1324,-573.9043 399.5,-548 348.1915,-507.2702 323.1739,-433.5474 311.5975,-383.6911"/>
<polygon fill="none" stroke="#404040" points="311.577,-383.5976 306.3822,-378.5962 309.0009,-371.8774 314.1957,-376.8788 311.577,-383.5976"/>
<text text-anchor="middle" x="540.5" y="-629.5" font-family="Helvetica,sans-Serif" font-size="10.00" fill="#000000"> +ruLinkID</text>
<text text-anchor="middle" x="540.5" y="-618.5" font-family="Helvetica,sans-Serif" font-size="10.00" fill="#000000">+nPackets</text>
</g>
<!-- Node4&#45;&gt;Node11 -->
<g id="edge19" class="edge">
<title>Node4&#45;&gt;Node11</title>
<path fill="none" stroke="#404040" d="M565.5278,-713.2923C577.5705,-701.8401 589.3874,-690.2662 591.5,-687 622.5779,-638.9517 591.2471,-602.2787 635.5,-566 676.5267,-532.3662 706.3906,-572.3952 753.5,-548 802.5003,-522.6256 846.5815,-481.2348 881.417,-441.4403"/>
<polygon fill="none" stroke="#404040" points="881.5599,-441.2742 882.4416,-434.1172 889.3872,-432.1783 888.5055,-439.3354 881.5599,-441.2742"/>
<text text-anchor="middle" x="677" y="-640.5" font-family="Helvetica,sans-Serif" font-size="10.00" fill="#000000"> +heartbeatOrbit</text>
<text text-anchor="middle" x="677" y="-629.5" font-family="Helvetica,sans-Serif" font-size="10.00" fill="#000000">+triggerOrbit</text>
<text text-anchor="middle" x="677" y="-618.5" font-family="Helvetica,sans-Serif" font-size="10.00" fill="#000000">+memorySize</text>
<text text-anchor="middle" x="677" y="-607.5" font-family="Helvetica,sans-Serif" font-size="10.00" fill="#000000">+offsetToNext</text>
</g>
<!-- Node5 -->
<g id="node5" class="node">
<title>Node5</title>
<polygon fill="none" stroke="#bfbfbf" points="1155,-303.5 1155,-360.5 1184,-360.5 1184,-303.5 1155,-303.5"/>
<text text-anchor="middle" x="1169.5" y="-348.5" font-family="Helvetica,sans-Serif" font-size="10.00" fill="#000000">int</text>
<polyline fill="none" stroke="#bfbfbf" points="1155,-341.5 1184,-341.5 "/>
<text text-anchor="middle" x="1169.5" y="-329.5" font-family="Helvetica,sans-Serif" font-size="10.00" fill="#000000"> </text>
<polyline fill="none" stroke="#bfbfbf" points="1155,-322.5 1184,-322.5 "/>
<text text-anchor="middle" x="1169.5" y="-310.5" font-family="Helvetica,sans-Serif" font-size="10.00" fill="#000000"> </text>
</g>
<!-- Node5&#45;&gt;Node1 -->
<g id="edge4" class="edge">
<title>Node5&#45;&gt;Node1</title>
<path fill="none" stroke="#404040" d="M1172.7414,-303.3872C1177.0427,-249.848 1177.6348,-134.6523 1112.5,-76 1088.2059,-54.1237 886.3586,-39.1715 778.644,-32.6695"/>
<polygon fill="none" stroke="#404040" points="778.6041,-32.6672 772.3774,-36.3043 766.6252,-31.9555 772.8519,-28.3184 778.6041,-32.6672"/>
<text text-anchor="middle" x="1165.5" y="-90" font-family="Helvetica,sans-Serif" font-size="10.00" fill="#000000"> +nTriggers</text>
<text text-anchor="middle" x="1165.5" y="-79" font-family="Helvetica,sans-Serif" font-size="10.00" fill="#000000">+lastPageSize</text>
</g>
<!-- Node6&#45;&gt;Node1 -->
<g id="edge5" class="edge">
<title>Node6&#45;&gt;Node1</title>
<path fill="none" stroke="#404040" d="M313.366,-292.327C327.4712,-246.2074 355.6064,-169.5836 399.5,-116 418.8821,-92.3391 427.3392,-87.9364 455.5,-76 516.3878,-50.1917 591.3243,-38.5311 644.3476,-33.2769"/>
<polygon fill="none" stroke="#404040" points="644.3741,-33.2746 649.9775,-28.7356 656.3225,-32.1621 650.7191,-36.7011 644.3741,-33.2746"/>
<text text-anchor="middle" x="483.5" y="-84.5" font-family="Helvetica,sans-Serif" font-size="10.00" fill="#000000"> +statistics</text>
</g>
<!-- Node7 -->
<g id="node7" class="node">
<title>Node7</title>
<polygon fill="none" stroke="#bfbfbf" points="0,-705.5 0,-773.5 147,-773.5 147,-705.5 0,-705.5"/>
<text text-anchor="start" x="8" y="-761.5" font-family="Helvetica,sans-Serif" font-size="10.00" fill="#000000">array&lt; int, GBTDataTrailer</text>
<text text-anchor="middle" x="73.5" y="-750.5" font-family="Helvetica,sans-Serif" font-size="10.00" fill="#000000">::MaxStateCombinations &gt;</text>
<polyline fill="none" stroke="#bfbfbf" points="0,-743.5 147,-743.5 "/>
<text text-anchor="middle" x="73.5" y="-731.5" font-family="Helvetica,sans-Serif" font-size="10.00" fill="#000000"> </text>
<polyline fill="none" stroke="#bfbfbf" points="0,-724.5 147,-724.5 "/>
<text text-anchor="middle" x="73.5" y="-712.5" font-family="Helvetica,sans-Serif" font-size="10.00" fill="#000000"> </text>
</g>
<!-- Node7&#45;&gt;Node6 -->
<g id="edge6" class="edge">
<title>Node7&#45;&gt;Node6</title>
<path fill="none" stroke="#404040" d="M89.5475,-705.4968C106.4335,-670.2097 134.1659,-613.6236 160.5,-566 196.309,-501.2418 241.096,-428.6829 270.6885,-381.7753"/>
<polygon fill="none" stroke="#404040" points="270.7177,-381.7292 270.544,-374.5202 277.1316,-371.5871 277.3054,-378.7961 270.7177,-381.7292"/>
<text text-anchor="middle" x="198.5" y="-624" font-family="Helvetica,sans-Serif" font-size="10.00" fill="#000000"> +packetStates</text>
</g>
<!-- Node8 -->
<g id="node8" class="node">
<title>Node8</title>
<polygon fill="none" stroke="#bfbfbf" points="165,-711 165,-768 322,-768 322,-711 165,-711"/>
<text text-anchor="middle" x="243.5" y="-756" font-family="Helvetica,sans-Serif" font-size="10.00" fill="#000000">array&lt; int, NErrorsDefined &gt;</text>
<polyline fill="none" stroke="#bfbfbf" points="165,-749 322,-749 "/>
<text text-anchor="middle" x="243.5" y="-737" font-family="Helvetica,sans-Serif" font-size="10.00" fill="#000000"> </text>
<polyline fill="none" stroke="#bfbfbf" points="165,-730 322,-730 "/>
<text text-anchor="middle" x="243.5" y="-718" font-family="Helvetica,sans-Serif" font-size="10.00" fill="#000000"> </text>
</g>
<!-- Node8&#45;&gt;Node6 -->
<g id="edge8" class="edge">
<title>Node8&#45;&gt;Node6</title>
<path fill="none" stroke="#404040" d="M241.5961,-710.8131C239.7817,-676.2972 238.1667,-616.6625 244.5,-566 252.4999,-502.0061 271.8821,-430.2734 286.0462,-383.3019"/>
<polygon fill="none" stroke="#404040" points="286.1091,-383.0961 284.0369,-376.1891 289.6156,-371.6199 291.6878,-378.5268 286.1091,-383.0961"/>
<text text-anchor="middle" x="279" y="-624" font-family="Helvetica,sans-Serif" font-size="10.00" fill="#000000"> +errorCounts</text>
</g>
<!-- Node9 -->
<g id="node9" class="node">
<title>Node9</title>
<polygon fill="none" stroke="#bfbfbf" points="368.5,-711 368.5,-768 412.5,-768 412.5,-711 368.5,-711"/>
<text text-anchor="middle" x="390.5" y="-756" font-family="Helvetica,sans-Serif" font-size="10.00" fill="#000000">static</text>
<polyline fill="none" stroke="#bfbfbf" points="368.5,-749 412.5,-749 "/>
<text text-anchor="middle" x="390.5" y="-737" font-family="Helvetica,sans-Serif" font-size="10.00" fill="#000000"> </text>
<polyline fill="none" stroke="#bfbfbf" points="368.5,-730 412.5,-730 "/>
<text text-anchor="middle" x="390.5" y="-718" font-family="Helvetica,sans-Serif" font-size="10.00" fill="#000000"> </text>
</g>
<!-- Node9&#45;&gt;Node6 -->
<g id="edge9" class="edge">
<title>Node9&#45;&gt;Node6</title>
<path fill="none" stroke="#404040" d="M368.3921,-724.9659C356.1967,-715.6617 342.0359,-702.4515 334.5,-687 321.5328,-660.4124 310.0841,-475.4927 305.1197,-383.5959"/>
<polygon fill="none" stroke="#404040" points="305.1158,-383.5207 300.802,-377.7423 304.4768,-371.5378 308.7906,-377.3162 305.1158,-383.5207"/>
<text text-anchor="middle" x="364.5" y="-624" font-family="Helvetica,sans-Serif" font-size="10.00" fill="#000000"> +ErrNames</text>
</g>
<!-- Node10 -->
<g id="node10" class="node">
<title>Node10</title>
<g id="a_node10"><a xlink:href="../../df/dd1/classo2_1_1itsmft_1_1PayLoadCont.html" target="_top" xlink:title="{o2::itsmft::PayLoadCont\n||+ PayLoadCont()\l+ ~PayLoadCont()\l+ data()\l+ expand()\l+ isEmpty()\l+ clear()\l+ getUnusedSize()\l+ getSize()\l+ getOffset()\l+ getCapacity()\l+ getFreeCapacity()\l+ ensureFreeCapacity()\l+ fillFast()\l+ addFast()\l+ addFast()\l+ addFast()\l+ eraseFast()\l+ erase()\l+ fill()\l+ add()\l+ add()\l+ add()\l+ shrinkToSize()\l+ operator[]()\l+ operator[]()\l+ current()\l+ next()\l+ next()\l+ rewind()\l+ moveUnusedToHead()\l+ append()\l+ getPtr()\l+ setPtr()\l+ getEnd()\l+ setEnd()\l}">
<polygon fill="none" stroke="#000000" points="408.5,-116.5 408.5,-547.5 544.5,-547.5 544.5,-116.5 408.5,-116.5"/>
<text text-anchor="middle" x="476.5" y="-535.5" font-family="Helvetica,sans-Serif" font-size="10.00" fill="#000000">o2::itsmft::PayLoadCont</text>
<polyline fill="none" stroke="#000000" points="408.5,-528.5 544.5,-528.5 "/>
<text text-anchor="middle" x="476.5" y="-516.5" font-family="Helvetica,sans-Serif" font-size="10.00" fill="#000000"> </text>
<polyline fill="none" stroke="#000000" points="408.5,-509.5 544.5,-509.5 "/>
<text text-anchor="start" x="416.5" y="-497.5" font-family="Helvetica,sans-Serif" font-size="10.00" fill="#000000">+ PayLoadCont()</text>
<text text-anchor="start" x="416.5" y="-486.5" font-family="Helvetica,sans-Serif" font-size="10.00" fill="#000000">+ ~PayLoadCont()</text>
<text text-anchor="start" x="416.5" y="-475.5" font-family="Helvetica,sans-Serif" font-size="10.00" fill="#000000">+ data()</text>
<text text-anchor="start" x="416.5" y="-464.5" font-family="Helvetica,sans-Serif" font-size="10.00" fill="#000000">+ expand()</text>
<text text-anchor="start" x="416.5" y="-453.5" font-family="Helvetica,sans-Serif" font-size="10.00" fill="#000000">+ isEmpty()</text>
<text text-anchor="start" x="416.5" y="-442.5" font-family="Helvetica,sans-Serif" font-size="10.00" fill="#000000">+ clear()</text>
<text text-anchor="start" x="416.5" y="-431.5" font-family="Helvetica,sans-Serif" font-size="10.00" fill="#000000">+ getUnusedSize()</text>
<text text-anchor="start" x="416.5" y="-420.5" font-family="Helvetica,sans-Serif" font-size="10.00" fill="#000000">+ getSize()</text>
<text text-anchor="start" x="416.5" y="-409.5" font-family="Helvetica,sans-Serif" font-size="10.00" fill="#000000">+ getOffset()</text>
<text text-anchor="start" x="416.5" y="-398.5" font-family="Helvetica,sans-Serif" font-size="10.00" fill="#000000">+ getCapacity()</text>
<text text-anchor="start" x="416.5" y="-387.5" font-family="Helvetica,sans-Serif" font-size="10.00" fill="#000000">+ getFreeCapacity()</text>
<text text-anchor="start" x="416.5" y="-376.5" font-family="Helvetica,sans-Serif" font-size="10.00" fill="#000000">+ ensureFreeCapacity()</text>
<text text-anchor="start" x="416.5" y="-365.5" font-family="Helvetica,sans-Serif" font-size="10.00" fill="#000000">+ fillFast()</text>
<text text-anchor="start" x="416.5" y="-354.5" font-family="Helvetica,sans-Serif" font-size="10.00" fill="#000000">+ addFast()</text>
<text text-anchor="start" x="416.5" y="-343.5" font-family="Helvetica,sans-Serif" font-size="10.00" fill="#000000">+ addFast()</text>
<text text-anchor="start" x="416.5" y="-332.5" font-family="Helvetica,sans-Serif" font-size="10.00" fill="#000000">+ addFast()</text>
<text text-anchor="start" x="416.5" y="-321.5" font-family="Helvetica,sans-Serif" font-size="10.00" fill="#000000">+ eraseFast()</text>
<text text-anchor="start" x="416.5" y="-310.5" font-family="Helvetica,sans-Serif" font-size="10.00" fill="#000000">+ erase()</text>
<text text-anchor="start" x="416.5" y="-299.5" font-family="Helvetica,sans-Serif" font-size="10.00" fill="#000000">+ fill()</text>
<text text-anchor="start" x="416.5" y="-288.5" font-family="Helvetica,sans-Serif" font-size="10.00" fill="#000000">+ add()</text>
<text text-anchor="start" x="416.5" y="-277.5" font-family="Helvetica,sans-Serif" font-size="10.00" fill="#000000">+ add()</text>
<text text-anchor="start" x="416.5" y="-266.5" font-family="Helvetica,sans-Serif" font-size="10.00" fill="#000000">+ add()</text>
<text text-anchor="start" x="416.5" y="-255.5" font-family="Helvetica,sans-Serif" font-size="10.00" fill="#000000">+ shrinkToSize()</text>
<text text-anchor="start" x="416.5" y="-244.5" font-family="Helvetica,sans-Serif" font-size="10.00" fill="#000000">+ operator[]()</text>
<text text-anchor="start" x="416.5" y="-233.5" font-family="Helvetica,sans-Serif" font-size="10.00" fill="#000000">+ operator[]()</text>
<text text-anchor="start" x="416.5" y="-222.5" font-family="Helvetica,sans-Serif" font-size="10.00" fill="#000000">+ current()</text>
<text text-anchor="start" x="416.5" y="-211.5" font-family="Helvetica,sans-Serif" font-size="10.00" fill="#000000">+ next()</text>
<text text-anchor="start" x="416.5" y="-200.5" font-family="Helvetica,sans-Serif" font-size="10.00" fill="#000000">+ next()</text>
<text text-anchor="start" x="416.5" y="-189.5" font-family="Helvetica,sans-Serif" font-size="10.00" fill="#000000">+ rewind()</text>
<text text-anchor="start" x="416.5" y="-178.5" font-family="Helvetica,sans-Serif" font-size="10.00" fill="#000000">+ moveUnusedToHead()</text>
<text text-anchor="start" x="416.5" y="-167.5" font-family="Helvetica,sans-Serif" font-size="10.00" fill="#000000">+ append()</text>
<text text-anchor="start" x="416.5" y="-156.5" font-family="Helvetica,sans-Serif" font-size="10.00" fill="#000000">+ getPtr()</text>
<text text-anchor="start" x="416.5" y="-145.5" font-family="Helvetica,sans-Serif" font-size="10.00" fill="#000000">+ setPtr()</text>
<text text-anchor="start" x="416.5" y="-134.5" font-family="Helvetica,sans-Serif" font-size="10.00" fill="#000000">+ getEnd()</text>
<text text-anchor="start" x="416.5" y="-123.5" font-family="Helvetica,sans-Serif" font-size="10.00" fill="#000000">+ setEnd()</text>
</a>
</g>
</g>
<!-- Node9&#45;&gt;Node10 -->
<g id="edge11" class="edge">
<title>Node9&#45;&gt;Node10</title>
<path fill="none" stroke="#404040" d="M394.6334,-710.829C399.759,-676.3286 409.1006,-616.7089 419.5,-566 419.9453,-563.8288 420.3966,-561.6471 420.8534,-559.4565"/>
<polygon fill="none" stroke="#404040" points="420.8646,-559.403 418.1923,-552.7053 423.347,-547.6625 426.0193,-554.3602 420.8646,-559.403"/>
<text text-anchor="middle" x="455.5" y="-624" font-family="Helvetica,sans-Serif" font-size="10.00" fill="#000000"> +MinCapacity</text>
</g>
<!-- Node10&#45;&gt;Node1 -->
<g id="edge10" class="edge">
<title>Node10&#45;&gt;Node1</title>
<path fill="none" stroke="#404040" d="M504.2101,-116.2523C511.7753,-101.564 521.0823,-87.9006 532.5,-76 548.0874,-59.7532 600.2568,-47.2089 644.2819,-39.1824"/>
<polygon fill="none" stroke="#404040" points="644.3336,-39.1734 649.5477,-34.1921 656.1512,-37.0893 650.9371,-42.0705 644.3336,-39.1734"/>
<text text-anchor="middle" x="549.5" y="-84.5" font-family="Helvetica,sans-Serif" font-size="10.00" fill="#000000"> +data</text>
</g>
<!-- Node11&#45;&gt;Node1 -->
<g id="edge12" class="edge">
<title>Node11&#45;&gt;Node1</title>
<path fill="none" stroke="#404040" d="M878.9478,-231.9467C832.3367,-175.4541 776.7902,-108.1317 742.8445,-66.9896"/>
<polygon fill="none" stroke="#404040" points="742.7497,-66.8746 735.8458,-64.7922 735.1126,-57.6185 742.0165,-59.7009 742.7497,-66.8746"/>
<text text-anchor="middle" x="791.5" y="-84.5" font-family="Helvetica,sans-Serif" font-size="10.00" fill="#000000"> +lastRDH</text>
</g>
<!-- Node12 -->
<g id="node12" class="node">
<title>Node12</title>
<polygon fill="none" stroke="#bfbfbf" points="1283,-711 1283,-768 1390,-768 1390,-711 1283,-711"/>
<text text-anchor="middle" x="1336.5" y="-756" font-family="Helvetica,sans-Serif" font-size="10.00" fill="#000000">anonymous:+@68</text>
<polyline fill="none" stroke="#bfbfbf" points="1283,-749 1390,-749 "/>
<text text-anchor="middle" x="1336.5" y="-737" font-family="Helvetica,sans-Serif" font-size="10.00" fill="#000000"> </text>
<polyline fill="none" stroke="#bfbfbf" points="1283,-730 1390,-730 "/>
<text text-anchor="middle" x="1336.5" y="-718" font-family="Helvetica,sans-Serif" font-size="10.00" fill="#000000"> </text>
</g>
<!-- Node12&#45;&gt;Node11 -->
<g id="edge13" class="edge">
<title>Node12&#45;&gt;Node11</title>
<path fill="none" stroke="#404040" d="M1327.6859,-710.9837C1313.707,-671.063 1282.3681,-599.6418 1228.5,-566 1162.1823,-524.5832 1116.4322,-594.3995 1053.5,-548 1019.4603,-522.9028 997.9005,-482.667 984.2961,-443.6868"/>
<polygon fill="none" stroke="#404040" points="984.2637,-443.5888 978.5819,-439.1483 980.4955,-432.1958 986.1773,-436.6362 984.2637,-443.5888"/>
<text text-anchor="middle" x="1333.5" y="-624" font-family="Helvetica,sans-Serif" font-size="10.00" fill="#000000"> +@68</text>
</g>
<!-- Node13 -->
<g id="node13" class="node">
<title>Node13</title>
<polygon fill="none" stroke="#bfbfbf" points="1408,-711 1408,-768 1515,-768 1515,-711 1408,-711"/>
<text text-anchor="middle" x="1461.5" y="-756" font-family="Helvetica,sans-Serif" font-size="10.00" fill="#000000">anonymous:+@70</text>
<polyline fill="none" stroke="#bfbfbf" points="1408,-749 1515,-749 "/>
<text text-anchor="middle" x="1461.5" y="-737" font-family="Helvetica,sans-Serif" font-size="10.00" fill="#000000"> </text>
<polyline fill="none" stroke="#bfbfbf" points="1408,-730 1515,-730 "/>
<text text-anchor="middle" x="1461.5" y="-718" font-family="Helvetica,sans-Serif" font-size="10.00" fill="#000000"> </text>
</g>
<!-- Node13&#45;&gt;Node11 -->
<g id="edge14" class="edge">
<title>Node13&#45;&gt;Node11</title>
<path fill="none" stroke="#404040" d="M1453.0382,-710.6771C1439.5181,-670.3832 1408.8669,-598.5118 1354.5,-566 1296.9903,-531.6088 1108.2718,-586.6028 1053.5,-548 1018.7041,-523.4761 996.9871,-483.0112 983.4688,-443.694"/>
<polygon fill="none" stroke="#404040" points="983.4101,-443.513 977.7512,-439.0434 979.7006,-432.1007 985.3594,-436.5704 983.4101,-443.513"/>
<text text-anchor="middle" x="1459.5" y="-624" font-family="Helvetica,sans-Serif" font-size="10.00" fill="#000000"> +@70</text>
</g>
<!-- Node14 -->
<g id="node14" class="node">
<title>Node14</title>
<polygon fill="none" stroke="#bfbfbf" points="1533.5,-711 1533.5,-768 1589.5,-768 1589.5,-711 1533.5,-711"/>
<text text-anchor="middle" x="1561.5" y="-756" font-family="Helvetica,sans-Serif" font-size="10.00" fill="#000000">uint64_t</text>
<polyline fill="none" stroke="#bfbfbf" points="1533.5,-749 1589.5,-749 "/>
<text text-anchor="middle" x="1561.5" y="-737" font-family="Helvetica,sans-Serif" font-size="10.00" fill="#000000"> </text>
<polyline fill="none" stroke="#bfbfbf" points="1533.5,-730 1589.5,-730 "/>
<text text-anchor="middle" x="1561.5" y="-718" font-family="Helvetica,sans-Serif" font-size="10.00" fill="#000000"> </text>
</g>
<!-- Node14&#45;&gt;Node11 -->
<g id="edge15" class="edge">
<title>Node14&#45;&gt;Node11</title>
<path fill="none" stroke="#404040" d="M1552.1682,-710.8023C1536.9918,-666.0693 1506.0838,-583.0584 1480.5,-566 1440.9906,-539.6565 1092.5541,-575.0139 1053.5,-548 1018.4133,-523.7304 996.6384,-483.1987 983.1553,-443.7598"/>
<polygon fill="none" stroke="#404040" points="983.0872,-443.5486 977.4371,-439.0679 979.4,-432.129 985.0501,-436.6097 983.0872,-443.5486"/>
<text text-anchor="middle" x="1574.5" y="-679" font-family="Helvetica,sans-Serif" font-size="10.00" fill="#000000"> +word7</text>
<text text-anchor="middle" x="1574.5" y="-668" font-family="Helvetica,sans-Serif" font-size="10.00" fill="#000000">+triggerType</text>
<text text-anchor="middle" x="1574.5" y="-657" font-family="Helvetica,sans-Serif" font-size="10.00" fill="#000000">+zero6</text>
<text text-anchor="middle" x="1574.5" y="-646" font-family="Helvetica,sans-Serif" font-size="10.00" fill="#000000">+par</text>
<text text-anchor="middle" x="1574.5" y="-635" font-family="Helvetica,sans-Serif" font-size="10.00" fill="#000000">+feeId</text>
<text text-anchor="middle" x="1574.5" y="-624" font-family="Helvetica,sans-Serif" font-size="10.00" fill="#000000">+priority</text>
<text text-anchor="middle" x="1574.5" y="-613" font-family="Helvetica,sans-Serif" font-size="10.00" fill="#000000">+headerSize</text>
<text text-anchor="middle" x="1574.5" y="-602" font-family="Helvetica,sans-Serif" font-size="10.00" fill="#000000">+version</text>
<text text-anchor="middle" x="1574.5" y="-591" font-family="Helvetica,sans-Serif" font-size="10.00" fill="#000000">+triggerBC</text>
<text text-anchor="middle" x="1574.5" y="-580" font-family="Helvetica,sans-Serif" font-size="10.00" fill="#000000">+zero41</text>
<text text-anchor="middle" x="1574.5" y="-569" font-family="Helvetica,sans-Serif" font-size="10.00" fill="#000000">...</text>
</g>
<!-- Node15 -->
<g id="node15" class="node">
<title>Node15</title>
<polygon fill="none" stroke="#bfbfbf" points="1607.5,-711 1607.5,-768 1657.5,-768 1657.5,-711 1607.5,-711"/>
<text text-anchor="middle" x="1632.5" y="-756" font-family="Helvetica,sans-Serif" font-size="10.00" fill="#000000">uint8_t</text>
<polyline fill="none" stroke="#bfbfbf" points="1607.5,-749 1657.5,-749 "/>
<text text-anchor="middle" x="1632.5" y="-737" font-family="Helvetica,sans-Serif" font-size="10.00" fill="#000000"> </text>
<polyline fill="none" stroke="#bfbfbf" points="1607.5,-730 1657.5,-730 "/>
<text text-anchor="middle" x="1632.5" y="-718" font-family="Helvetica,sans-Serif" font-size="10.00" fill="#000000"> </text>
</g>
<!-- Node15&#45;&gt;Node11 -->
<g id="edge17" class="edge">
<title>Node15&#45;&gt;Node11</title>
<path fill="none" stroke="#404040" d="M1633.1574,-710.8701C1633.4971,-666.6506 1631.2128,-584.8552 1610.5,-566 1564.71,-524.3165 1104.598,-582.9747 1053.5,-548 1018.218,-523.8507 996.4033,-483.2267 982.943,-443.6834"/>
<polygon fill="none" stroke="#404040" points="982.867,-443.4465 977.2233,-438.9576 979.1963,-432.0216 984.8399,-436.5105 982.867,-443.4465"/>
<text text-anchor="middle" x="1672.5" y="-635" font-family="Helvetica,sans-Serif" font-size="10.00" fill="#000000"> +linkID</text>
<text text-anchor="middle" x="1672.5" y="-624" font-family="Helvetica,sans-Serif" font-size="10.00" fill="#000000">+endPointID</text>
<text text-anchor="middle" x="1672.5" y="-613" font-family="Helvetica,sans-Serif" font-size="10.00" fill="#000000">+packetCounter</text>
</g>
<!-- Node16 -->
<g id="node16" class="node">
<title>Node16</title>
<polygon fill="none" stroke="#bfbfbf" points="1682,-711 1682,-768 1789,-768 1789,-711 1682,-711"/>
<text text-anchor="middle" x="1735.5" y="-756" font-family="Helvetica,sans-Serif" font-size="10.00" fill="#000000">anonymous:+@72</text>
<polyline fill="none" stroke="#bfbfbf" points="1682,-749 1789,-749 "/>
<text text-anchor="middle" x="1735.5" y="-737" font-family="Helvetica,sans-Serif" font-size="10.00" fill="#000000"> </text>
<polyline fill="none" stroke="#bfbfbf" points="1682,-730 1789,-730 "/>
<text text-anchor="middle" x="1735.5" y="-718" font-family="Helvetica,sans-Serif" font-size="10.00" fill="#000000"> </text>
</g>
<!-- Node16&#45;&gt;Node11 -->
<g id="edge18" class="edge">
<title>Node16&#45;&gt;Node11</title>
<path fill="none" stroke="#404040" d="M1741.8307,-710.7688C1748.574,-671.5976 1753.4451,-602.1792 1713.5,-566 1659.1265,-516.7527 1114.1421,-589.2834 1053.5,-548 1018.1573,-523.9397 996.3316,-483.3317 982.8796,-443.7764"/>
<polygon fill="none" stroke="#404040" points="982.8026,-443.5363 977.1605,-439.0456 979.1358,-432.1103 984.7779,-436.601 982.8026,-443.5363"/>
<text text-anchor="middle" x="1762.5" y="-624" font-family="Helvetica,sans-Serif" font-size="10.00" fill="#000000"> +@72</text>
</g>
<!-- Node17 -->
<g id="node17" class="node">
<title>Node17</title>
<polygon fill="none" stroke="#bfbfbf" points="658,-711 658,-768 765,-768 765,-711 658,-711"/>
<text text-anchor="middle" x="711.5" y="-756" font-family="Helvetica,sans-Serif" font-size="10.00" fill="#000000">anonymous:+@74</text>
<polyline fill="none" stroke="#bfbfbf" points="658,-749 765,-749 "/>
<text text-anchor="middle" x="711.5" y="-737" font-family="Helvetica,sans-Serif" font-size="10.00" fill="#000000"> </text>
<polyline fill="none" stroke="#bfbfbf" points="658,-730 765,-730 "/>
<text text-anchor="middle" x="711.5" y="-718" font-family="Helvetica,sans-Serif" font-size="10.00" fill="#000000"> </text>
</g>
<!-- Node17&#45;&gt;Node11 -->
<g id="edge20" class="edge">
<title>Node17&#45;&gt;Node11</title>
<path fill="none" stroke="#404040" d="M759.4605,-710.9103C768.1041,-703.9863 776.3182,-695.9586 782.5,-687 814.2258,-641.0232 794.0114,-617.1337 816.5,-566 834.9663,-524.012 859.9669,-480.6171 884.0068,-442.7719"/>
<polygon fill="none" stroke="#404040" points="884.2766,-442.3513 884.1492,-435.1413 890.7555,-432.2506 890.8829,-439.4606 884.2766,-442.3513"/>
<text text-anchor="middle" x="833.5" y="-624" font-family="Helvetica,sans-Serif" font-size="10.00" fill="#000000"> +@74</text>
</g>
<!-- Node18 -->
<g id="node18" class="node">
<title>Node18</title>
<polygon fill="none" stroke="#bfbfbf" points="783,-711 783,-768 890,-768 890,-711 783,-711"/>
<text text-anchor="middle" x="836.5" y="-756" font-family="Helvetica,sans-Serif" font-size="10.00" fill="#000000">anonymous:+@76</text>
<polyline fill="none" stroke="#bfbfbf" points="783,-749 890,-749 "/>
<text text-anchor="middle" x="836.5" y="-737" font-family="Helvetica,sans-Serif" font-size="10.00" fill="#000000"> </text>
<polyline fill="none" stroke="#bfbfbf" points="783,-730 890,-730 "/>
<text text-anchor="middle" x="836.5" y="-718" font-family="Helvetica,sans-Serif" font-size="10.00" fill="#000000"> </text>
</g>
<!-- Node18&#45;&gt;Node11 -->
<g id="edge21" class="edge">
<title>Node18&#45;&gt;Node11</title>
<path fill="none" stroke="#404040" d="M845.2898,-710.8454C862.0502,-656.2064 899.3892,-534.4813 927.2468,-443.6655"/>
<polygon fill="none" stroke="#404040" points="927.2476,-443.6627 925.183,-436.7534 930.7668,-432.1903 932.8313,-439.0995 927.2476,-443.6627"/>
<text text-anchor="middle" x="904.5" y="-624" font-family="Helvetica,sans-Serif" font-size="10.00" fill="#000000"> +@76</text>
</g>
<!-- Node19 -->
<g id="node19" class="node">
<title>Node19</title>
<polygon fill="none" stroke="#bfbfbf" points="908,-711 908,-768 1015,-768 1015,-711 908,-711"/>
<text text-anchor="middle" x="961.5" y="-756" font-family="Helvetica,sans-Serif" font-size="10.00" fill="#000000">anonymous:+@78</text>
<polyline fill="none" stroke="#bfbfbf" points="908,-749 1015,-749 "/>
<text text-anchor="middle" x="961.5" y="-737" font-family="Helvetica,sans-Serif" font-size="10.00" fill="#000000"> </text>
<polyline fill="none" stroke="#bfbfbf" points="908,-730 1015,-730 "/>
<text text-anchor="middle" x="961.5" y="-718" font-family="Helvetica,sans-Serif" font-size="10.00" fill="#000000"> </text>
</g>
<!-- Node19&#45;&gt;Node11 -->
<g id="edge22" class="edge">
<title>Node19&#45;&gt;Node11</title>
<path fill="none" stroke="#404040" d="M961.5,-710.8454C961.5,-656.3177 961.5,-534.9768 961.5,-444.2208"/>
<polygon fill="none" stroke="#404040" points="961.5001,-444.1903 957.5,-438.1903 961.5,-432.1903 965.5,-438.1903 961.5001,-444.1903"/>
<text text-anchor="middle" x="978.5" y="-624" font-family="Helvetica,sans-Serif" font-size="10.00" fill="#000000"> +@78</text>
</g>
<!-- Node20 -->
<g id="node20" class="node">
<title>Node20</title>
<polygon fill="none" stroke="#bfbfbf" points="1033,-711 1033,-768 1140,-768 1140,-711 1033,-711"/>
<text text-anchor="middle" x="1086.5" y="-756" font-family="Helvetica,sans-Serif" font-size="10.00" fill="#000000">anonymous:+@66</text>
<polyline fill="none" stroke="#bfbfbf" points="1033,-749 1140,-749 "/>
<text text-anchor="middle" x="1086.5" y="-737" font-family="Helvetica,sans-Serif" font-size="10.00" fill="#000000"> </text>
<polyline fill="none" stroke="#bfbfbf" points="1033,-730 1140,-730 "/>
<text text-anchor="middle" x="1086.5" y="-718" font-family="Helvetica,sans-Serif" font-size="10.00" fill="#000000"> </text>
</g>
<!-- Node20&#45;&gt;Node11 -->
<g id="edge23" class="edge">
<title>Node20&#45;&gt;Node11</title>
<path fill="none" stroke="#404040" d="M1077.7102,-710.8454C1060.9498,-656.2064 1023.6108,-534.4813 995.7532,-443.6655"/>
<polygon fill="none" stroke="#404040" points="995.7524,-443.6627 990.1687,-439.0995 992.2332,-432.1903 997.817,-436.7534 995.7524,-443.6627"/>
<text text-anchor="middle" x="1084.5" y="-624" font-family="Helvetica,sans-Serif" font-size="10.00" fill="#000000"> +@66</text>
</g>
<!-- Node21 -->
<g id="node21" class="node">
<title>Node21</title>
<polygon fill="none" stroke="#bfbfbf" points="1158,-711 1158,-768 1265,-768 1265,-711 1158,-711"/>
<text text-anchor="middle" x="1211.5" y="-756" font-family="Helvetica,sans-Serif" font-size="10.00" fill="#000000">anonymous:+@80</text>
<polyline fill="none" stroke="#bfbfbf" points="1158,-749 1265,-749 "/>
<text text-anchor="middle" x="1211.5" y="-737" font-family="Helvetica,sans-Serif" font-size="10.00" fill="#000000"> </text>
<polyline fill="none" stroke="#bfbfbf" points="1158,-730 1265,-730 "/>
<text text-anchor="middle" x="1211.5" y="-718" font-family="Helvetica,sans-Serif" font-size="10.00" fill="#000000"> </text>
</g>
<!-- Node21&#45;&gt;Node11 -->
<g id="edge24" class="edge">
<title>Node21&#45;&gt;Node11</title>
<path fill="none" stroke="#404040" d="M1201.222,-710.9987C1186.0282,-672.7375 1154.0298,-605.0682 1105.5,-566 1086.4495,-550.6637 1071.383,-564.6829 1053.5,-548 1023.6539,-520.1568 1003.0802,-481.0449 989.0917,-443.7409"/>
<polygon fill="none" stroke="#404040" points="989.0159,-443.5297 983.2229,-439.2354 984.9589,-432.2363 990.7519,-436.5307 989.0159,-443.5297"/>
<text text-anchor="middle" x="1207.5" y="-624" font-family="Helvetica,sans-Serif" font-size="10.00" fill="#000000"> +@80</text>
</g>
</g>
</svg>
        <g id="navigator" transform="translate(0 0)" fill="#404254">
                <rect fill="#f2f5e9" fill-opacity="0.5" stroke="#606060" stroke-width=".5" x="0" y="0" width="60" height="60"/>
                <use id="zoomplus" xlink:href="#zoomPlus" x="17" y="9" onmousedown="handleZoom(evt,'in')"/>
                <use id="zoomminus" xlink:href="#zoomMin" x="42" y="9" onmousedown="handleZoom(evt,'out')"/>
                <use id="reset" xlink:href="#resetDef" x="30" y="36" onmousedown="handleReset()"/>
                <g id="arrowUp" xlink:href="#dirArrow" transform="translate(30 24)" onmousedown="handlePan(0,-1)">
                  <use xlink:href="#rim" fill="#404040">
                        <set attributeName="fill" to="#808080" begin="arrowUp.mouseover" end="arrowUp.mouseout"/>
                  </use>
                  <path fill="none" stroke="white" stroke-width="1.5" d="M0,-3.0v7 M-2.5,-0.5L0,-3.0L2.5,-0.5"/>
                </g>
                <g id="arrowRight" xlink:href="#dirArrow" transform="rotate(90) translate(36 -43)" onmousedown="handlePan(1,0)">
                  <use xlink:href="#rim" fill="#404040">
                        <set attributeName="fill" to="#808080" begin="arrowRight.mouseover" end="arrowRight.mouseout"/>
                  </use>
                  <path fill="none" stroke="white" stroke-width="1.5" d="M0,-3.0v7 M-2.5,-0.5L0,-3.0L2.5,-0.5"/>
                </g>
                <g id="arrowDown" xlink:href="#dirArrow" transform="rotate(180) translate(-30 -48)" onmousedown="handlePan(0,1)">
                  <use xlink:href="#rim" fill="#404040">
                        <set attributeName="fill" to="#808080" begin="arrowDown.mouseover" end="arrowDown.mouseout"/>
                  </use>
                  <path fill="none" stroke="white" stroke-width="1.5" d="M0,-3.0v7 M-2.5,-0.5L0,-3.0L2.5,-0.5"/>
                </g>
                <g id="arrowLeft" xlink:href="#dirArrow" transform="rotate(270) translate(-36 17)" onmousedown="handlePan(-1,0)">
                  <use xlink:href="#rim" fill="#404040">
                        <set attributeName="fill" to="#808080" begin="arrowLeft.mouseover" end="arrowLeft.mouseout"/>
                  </use>
                  <path fill="none" stroke="white" stroke-width="1.5" d="M0,-3.0v7 M-2.5,-0.5L0,-3.0L2.5,-0.5"/>
                </g>
        </g>
        <svg viewBox="0 0 15 15" width="100%" height="30px" preserveAspectRatio="xMaxYMin meet">
         <g id="arrow_out" transform="scale(0.3 0.3)">
          <a xlink:href="structo2_1_1itsmft_1_1GBTLink__coll__graph_org.svg" target="_base">
           <rect id="button" ry="5" rx="5" y="6" x="6" height="38" width="38"
                fill="#f2f5e9" fill-opacity="0.5" stroke="#606060" stroke-width="1.0"/>
           <path id="arrow"
             d="M 11.500037,31.436501 C 11.940474,20.09759 22.043105,11.32322 32.158766,21.979434 L 37.068811,17.246167 C 37.068811,17.246167 37.088388,32 37.088388,32 L 22.160133,31.978069 C 22.160133,31.978069 26.997745,27.140456 26.997745,27.140456 C 18.528582,18.264221 13.291696,25.230495 11.500037,31.436501 z"
             style="fill:#404040;"/>
          </a>
         </g>
        </svg>
</svg>
