<?xml version="1.0" encoding="UTF-8" standalone="no"?>
<!DOCTYPE svg PUBLIC "-//W3C//DTD SVG 1.1//EN"
 "http://www.w3.org/Graphics/SVG/1.1/DTD/svg11.dtd">
<!-- Generated by graphviz version 2.40.1 (20161225.0304)
 -->
<!-- Title: /home/travis/build/AliceO2Group/AliceO2/Detectors/MUON/MCH/Raw/ImplHelpers/MakeArray.h Pages: 1 -->
<svg width="514pt" height="417pt"
 viewBox="0.00 0.00 513.59 417.00" xmlns="http://www.w3.org/2000/svg" xmlns:xlink="http://www.w3.org/1999/xlink">
<g id="graph0" class="graph" transform="scale(1 1) rotate(0) translate(4 413)">
<title>/home/travis/build/AliceO2Group/AliceO2/Detectors/MUON/MCH/Raw/ImplHelpers/MakeArray.h</title>
<!-- Node3 -->
<g id="node1" class="node">
<title>Node3</title>
<polygon fill="#bfbfbf" stroke="#000000" points="187.0946,-356.5 187.0946,-408.5 337.0946,-408.5 337.0946,-356.5 187.0946,-356.5"/>
<text text-anchor="start" x="195.0946" y="-396.5" font-family="Helvetica,sans-Serif" font-size="10.00" fill="#000000">/home/travis/build</text>
<text text-anchor="start" x="195.0946" y="-385.5" font-family="Helvetica,sans-Serif" font-size="10.00" fill="#000000">/AliceO2Group/AliceO2</text>
<text text-anchor="start" x="195.0946" y="-374.5" font-family="Helvetica,sans-Serif" font-size="10.00" fill="#000000">/Detectors/MUON/MCH/Raw</text>
<text text-anchor="middle" x="262.0946" y="-363.5" font-family="Helvetica,sans-Serif" font-size="10.00" fill="#000000">/ImplHelpers/MakeArray.h</text>
</g>
<!-- Node4 -->
<g id="node2" class="node">
<title>Node4</title>
<g id="a_node2"><a xlink:href="../../da/db7/BareGBTDecoder_8h.html" target="_top" xlink:title="/home/travis/build\l/AliceO2Group/AliceO2\l/Detectors/MUON/MCH/Raw\l/Decoder/src/BareGBTDecoder.h">
<polygon fill="none" stroke="#000000" points="45.0946,-267.5 45.0946,-319.5 217.0946,-319.5 217.0946,-267.5 45.0946,-267.5"/>
<text text-anchor="start" x="53.0946" y="-307.5" font-family="Helvetica,sans-Serif" font-size="10.00" fill="#000000">/home/travis/build</text>
<text text-anchor="start" x="53.0946" y="-296.5" font-family="Helvetica,sans-Serif" font-size="10.00" fill="#000000">/AliceO2Group/AliceO2</text>
<text text-anchor="start" x="53.0946" y="-285.5" font-family="Helvetica,sans-Serif" font-size="10.00" fill="#000000">/Detectors/MUON/MCH/Raw</text>
<text text-anchor="middle" x="131.0946" y="-274.5" font-family="Helvetica,sans-Serif" font-size="10.00" fill="#000000">/Decoder/src/BareGBTDecoder.h</text>
</a>
</g>
</g>
<!-- Node3&#45;&gt;Node4 -->
<g id="edge1" class="edge">
<title>Node3&#45;&gt;Node4</title>
<path fill="none" stroke="#191970" d="M214.8919,-350.431C199.9588,-340.2856 183.6461,-329.203 169.4145,-319.5341"/>
<polygon fill="#191970" stroke="#191970" points="213.2603,-353.5538 223.4988,-356.2784 217.194,-347.7637 213.2603,-353.5538"/>
</g>
<!-- Node5 -->
<g id="node3" class="node">
<title>Node5</title>
<g id="a_node3"><a xlink:href="../../d0/da1/PayloadDecoder_8h.html" target="_top" xlink:title="/home/travis/build\l/AliceO2Group/AliceO2\l/Detectors/MUON/MCH/Raw\l/Decoder/src/PayloadDecoder.h">
<polygon fill="none" stroke="#000000" points="195.5946,-178.5 195.5946,-230.5 362.5946,-230.5 362.5946,-178.5 195.5946,-178.5"/>
<text text-anchor="start" x="203.5946" y="-218.5" font-family="Helvetica,sans-Serif" font-size="10.00" fill="#000000">/home/travis/build</text>
<text text-anchor="start" x="203.5946" y="-207.5" font-family="Helvetica,sans-Serif" font-size="10.00" fill="#000000">/AliceO2Group/AliceO2</text>
<text text-anchor="start" x="203.5946" y="-196.5" font-family="Helvetica,sans-Serif" font-size="10.00" fill="#000000">/Detectors/MUON/MCH/Raw</text>
<text text-anchor="middle" x="279.0946" y="-185.5" font-family="Helvetica,sans-Serif" font-size="10.00" fill="#000000">/Decoder/src/PayloadDecoder.h</text>
</a>
</g>
</g>
<!-- Node3&#45;&gt;Node5 -->
<g id="edge8" class="edge">
<title>Node3&#45;&gt;Node5</title>
<path fill="none" stroke="#191970" d="M265.5674,-346.1378C268.8486,-311.7809 273.69,-261.0886 276.6036,-230.5823"/>
<polygon fill="#191970" stroke="#191970" points="262.0696,-345.948 264.603,-356.2355 269.0379,-346.6136 262.0696,-345.948"/>
</g>
<!-- Node9 -->
<g id="node7" class="node">
<title>Node9</title>
<g id="a_node7"><a xlink:href="../../d3/d1b/UserLogicGBTDecoder_8h.html" target="_top" xlink:title="/home/travis/build\l/AliceO2Group/AliceO2\l/Detectors/MUON/MCH/Raw\l/Decoder/src/UserLogicGBTDecoder.h">
<polygon fill="none" stroke="#000000" points="290.5946,-267.5 290.5946,-319.5 487.5946,-319.5 487.5946,-267.5 290.5946,-267.5"/>
<text text-anchor="start" x="298.5946" y="-307.5" font-family="Helvetica,sans-Serif" font-size="10.00" fill="#000000">/home/travis/build</text>
<text text-anchor="start" x="298.5946" y="-296.5" font-family="Helvetica,sans-Serif" font-size="10.00" fill="#000000">/AliceO2Group/AliceO2</text>
<text text-anchor="start" x="298.5946" y="-285.5" font-family="Helvetica,sans-Serif" font-size="10.00" fill="#000000">/Detectors/MUON/MCH/Raw</text>
<text text-anchor="middle" x="389.0946" y="-274.5" font-family="Helvetica,sans-Serif" font-size="10.00" fill="#000000">/Decoder/src/UserLogicGBTDecoder.h</text>
</a>
</g>
</g>
<!-- Node3&#45;&gt;Node9 -->
<g id="edge9" class="edge">
<title>Node3&#45;&gt;Node9</title>
<path fill="none" stroke="#191970" d="M307.8559,-350.431C322.3331,-340.2856 338.1476,-329.203 351.9447,-319.5341"/>
<polygon fill="#191970" stroke="#191970" points="305.6925,-347.6732 299.5119,-356.2784 309.7098,-353.4057 305.6925,-347.6732"/>
</g>
<!-- Node4&#45;&gt;Node5 -->
<g id="edge2" class="edge">
<title>Node4&#45;&gt;Node5</title>
<path fill="none" stroke="#191970" d="M183.4783,-261.9989C200.604,-251.7004 219.4228,-240.3837 235.8018,-230.5341"/>
<polygon fill="#191970" stroke="#191970" points="181.4651,-259.1255 174.699,-267.2784 185.0725,-265.1244 181.4651,-259.1255"/>
</g>
<!-- Node7 -->
<g id="node5" class="node">
<title>Node7</title>
<g id="a_node5"><a xlink:href="../../d0/d6c/MUON_2MCH_2Raw_2Decoder_2src_2Decoder_8cxx.html" target="_top" xlink:title="/home/travis/build\l/AliceO2Group/AliceO2\l/Detectors/MUON/MCH/Raw\l/Decoder/src/Decoder.cxx">
<polygon fill="none" stroke="#000000" points="204.0946,-.5 204.0946,-52.5 354.0946,-52.5 354.0946,-.5 204.0946,-.5"/>
<text text-anchor="start" x="212.0946" y="-40.5" font-family="Helvetica,sans-Serif" font-size="10.00" fill="#000000">/home/travis/build</text>
<text text-anchor="start" x="212.0946" y="-29.5" font-family="Helvetica,sans-Serif" font-size="10.00" fill="#000000">/AliceO2Group/AliceO2</text>
<text text-anchor="start" x="212.0946" y="-18.5" font-family="Helvetica,sans-Serif" font-size="10.00" fill="#000000">/Detectors/MUON/MCH/Raw</text>
<text text-anchor="middle" x="279.0946" y="-7.5" font-family="Helvetica,sans-Serif" font-size="10.00" fill="#000000">/Decoder/src/Decoder.cxx</text>
</a>
</g>
</g>
<!-- Node4&#45;&gt;Node7 -->
<g id="edge6" class="edge">
<title>Node4&#45;&gt;Node7</title>
<path fill="none" stroke="#191970" d="M40.6933,-262.1327C28.1162,-253.9303 16.86,-243.7033 9.0946,-231 -3.1911,-210.9021 -2.8081,-198.3271 9.0946,-178 50.7851,-106.8018 139.5531,-66.5168 203.9532,-45.6713"/>
<polygon fill="#191970" stroke="#191970" points="39.2137,-265.3276 49.5848,-267.4934 42.828,-259.3328 39.2137,-265.3276"/>
</g>
<!-- Node8 -->
<g id="node6" class="node">
<title>Node8</title>
<g id="a_node6"><a xlink:href="../../d7/d98/testDecoder_8cxx.html" target="_top" xlink:title="/home/travis/build\l/AliceO2Group/AliceO2\l/Detectors/MUON/MCH/Raw\l/Decoder/src/testDecoder.cxx">
<polygon fill="none" stroke="#000000" points="18.5946,-178.5 18.5946,-230.5 177.5946,-230.5 177.5946,-178.5 18.5946,-178.5"/>
<text text-anchor="start" x="26.5946" y="-218.5" font-family="Helvetica,sans-Serif" font-size="10.00" fill="#000000">/home/travis/build</text>
<text text-anchor="start" x="26.5946" y="-207.5" font-family="Helvetica,sans-Serif" font-size="10.00" fill="#000000">/AliceO2Group/AliceO2</text>
<text text-anchor="start" x="26.5946" y="-196.5" font-family="Helvetica,sans-Serif" font-size="10.00" fill="#000000">/Detectors/MUON/MCH/Raw</text>
<text text-anchor="middle" x="98.0946" y="-185.5" font-family="Helvetica,sans-Serif" font-size="10.00" fill="#000000">/Decoder/src/testDecoder.cxx</text>
</a>
</g>
</g>
<!-- Node4&#45;&gt;Node8 -->
<g id="edge7" class="edge">
<title>Node4&#45;&gt;Node8</title>
<path fill="none" stroke="#191970" d="M117.8189,-257.6959C114.4513,-248.6135 110.8972,-239.0282 107.7477,-230.5341"/>
<polygon fill="#191970" stroke="#191970" points="114.6136,-259.119 121.372,-267.2784 121.177,-256.6854 114.6136,-259.119"/>
</g>
<!-- Node5&#45;&gt;Node5 -->
<g id="edge5" class="edge">
<title>Node5&#45;&gt;Node5</title>
<path fill="none" stroke="#191970" d="M372.3823,-215.5549C377.5313,-212.8659 380.5946,-209.1809 380.5946,-204.5 380.5946,-197.3672 373.4816,-192.547 362.7149,-190.0393"/>
<polygon fill="#191970" stroke="#191970" points="370.9837,-212.3367 362.7149,-218.9607 373.3097,-218.939 370.9837,-212.3367"/>
</g>
<!-- Node6 -->
<g id="node4" class="node">
<title>Node6</title>
<g id="a_node4"><a xlink:href="../../d0/df0/Detectors_2MUON_2MCH_2Raw_2Decoder_2src_2PageParser_8h.html" target="_top" xlink:title="/home/travis/build\l/AliceO2Group/AliceO2\l/Detectors/MUON/MCH/Raw\l/Decoder/src/PageParser.h">
<polygon fill="none" stroke="#000000" points="204.0946,-89.5 204.0946,-141.5 354.0946,-141.5 354.0946,-89.5 204.0946,-89.5"/>
<text text-anchor="start" x="212.0946" y="-129.5" font-family="Helvetica,sans-Serif" font-size="10.00" fill="#000000">/home/travis/build</text>
<text text-anchor="start" x="212.0946" y="-118.5" font-family="Helvetica,sans-Serif" font-size="10.00" fill="#000000">/AliceO2Group/AliceO2</text>
<text text-anchor="start" x="212.0946" y="-107.5" font-family="Helvetica,sans-Serif" font-size="10.00" fill="#000000">/Detectors/MUON/MCH/Raw</text>
<text text-anchor="middle" x="279.0946" y="-96.5" font-family="Helvetica,sans-Serif" font-size="10.00" fill="#000000">/Decoder/src/PageParser.h</text>
</a>
</g>
</g>
<!-- Node5&#45;&gt;Node6 -->
<g id="edge3" class="edge">
<title>Node5&#45;&gt;Node6</title>
<path fill="none" stroke="#191970" d="M279.0946,-168.1155C279.0946,-159.2061 279.0946,-149.8475 279.0946,-141.5341"/>
<polygon fill="#191970" stroke="#191970" points="275.5947,-168.2784 279.0946,-178.2784 282.5947,-168.2785 275.5947,-168.2784"/>
</g>
<!-- Node6&#45;&gt;Node7 -->
<g id="edge4" class="edge">
<title>Node6&#45;&gt;Node7</title>
<path fill="none" stroke="#191970" d="M279.0946,-79.1155C279.0946,-70.2061 279.0946,-60.8475 279.0946,-52.5341"/>
<polygon fill="#191970" stroke="#191970" points="275.5947,-79.2784 279.0946,-89.2784 282.5947,-79.2785 275.5947,-79.2784"/>
</g>
<!-- Node9&#45;&gt;Node5 -->
<g id="edge10" class="edge">
<title>Node9&#45;&gt;Node5</title>
<path fill="none" stroke="#191970" d="M348.7544,-260.8612C336.408,-250.8718 322.9985,-240.0222 311.2716,-230.5341"/>
<polygon fill="#191970" stroke="#191970" points="346.7103,-263.7094 356.6859,-267.2784 351.1133,-258.2675 346.7103,-263.7094"/>
</g>
<!-- Node9&#45;&gt;Node7 -->
<g id="edge12" class="edge">
<title>Node9&#45;&gt;Node7</title>
<path fill="none" stroke="#191970" d="M393.9937,-257.0266C397.8997,-213.1279 397.9238,-139.081 363.0946,-89 353.2351,-74.823 339.1255,-62.5611 325.2779,-52.7452"/>
<polygon fill="#191970" stroke="#191970" points="390.4849,-256.9398 392.9658,-267.2401 397.4497,-257.6409 390.4849,-256.9398"/>
</g>
<!-- Node9&#45;&gt;Node9 -->
<g id="edge11" class="edge">
<title>Node9&#45;&gt;Node9</title>
<path fill="none" stroke="#191970" d="M497.4124,-303.9561C502.5685,-301.3279 505.5946,-297.8425 505.5946,-293.5 505.5946,-286.8828 498.5681,-282.256 487.6853,-279.6194"/>
<polygon fill="#191970" stroke="#191970" points="495.9556,-300.7583 487.6853,-307.3806 498.2802,-307.3611 495.9556,-300.7583"/>
</g>
</g>
</svg>
