<?xml version="1.0" encoding="UTF-8" standalone="no"?>
<!DOCTYPE svg PUBLIC "-//W3C//DTD SVG 1.1//EN"
 "http://www.w3.org/Graphics/SVG/1.1/DTD/svg11.dtd">
<!-- Generated by graphviz version 2.40.1 (20161225.0304)
 -->
<!-- Title: o2::base::MatBudget Pages: 1 -->
<svg width="257pt" height="343pt"
 viewBox="0.00 0.00 256.85 343.00" xmlns="http://www.w3.org/2000/svg" xmlns:xlink="http://www.w3.org/1999/xlink">
<g id="graph0" class="graph" transform="scale(1 1) rotate(0) translate(4 339)">
<title>o2::base::MatBudget</title>
<!-- Node2 -->
<g id="node1" class="node">
<title>Node2</title>
<polygon fill="#bfbfbf" stroke="#000000" points="57.8458,-.5 57.8458,-90.5 173.8458,-90.5 173.8458,-.5 57.8458,-.5"/>
<text text-anchor="middle" x="115.8458" y="-78.5" font-family="Helvetica,sans-Serif" font-size="10.00" fill="#000000">o2::base::MatBudget</text>
<polyline fill="none" stroke="#000000" points="57.8458,-71.5 173.8458,-71.5 "/>
<text text-anchor="middle" x="115.8458" y="-59.5" font-family="Helvetica,sans-Serif" font-size="10.00" fill="#000000"> </text>
<polyline fill="none" stroke="#000000" points="57.8458,-52.5 173.8458,-52.5 "/>
<text text-anchor="start" x="65.8458" y="-40.5" font-family="Helvetica,sans-Serif" font-size="10.00" fill="#000000">+ GPUd()</text>
<text text-anchor="start" x="65.8458" y="-29.5" font-family="Helvetica,sans-Serif" font-size="10.00" fill="#000000">+ GPUdDefault()</text>
<text text-anchor="start" x="65.8458" y="-18.5" font-family="Helvetica,sans-Serif" font-size="10.00" fill="#000000">+ GPUd()</text>
<text text-anchor="start" x="65.8458" y="-7.5" font-family="Helvetica,sans-Serif" font-size="10.00" fill="#000000">+ ClassDefNV()</text>
</g>
<!-- Node3 -->
<g id="node2" class="node">
<title>Node3</title>
<g id="a_node2"><a xlink:href="../../dd/dcd/structo2_1_1base_1_1MatCell.html" target="_top" xlink:title="{o2::base::MatCell\n||+ GPUd()\l+ GPUdDefault()\l+ GPUd()\l+ ClassDefNV()\l}">
<polygon fill="none" stroke="#000000" points="65.3458,-128.5 65.3458,-218.5 166.3458,-218.5 166.3458,-128.5 65.3458,-128.5"/>
<text text-anchor="middle" x="115.8458" y="-206.5" font-family="Helvetica,sans-Serif" font-size="10.00" fill="#000000">o2::base::MatCell</text>
<polyline fill="none" stroke="#000000" points="65.3458,-199.5 166.3458,-199.5 "/>
<text text-anchor="middle" x="115.8458" y="-187.5" font-family="Helvetica,sans-Serif" font-size="10.00" fill="#000000"> </text>
<polyline fill="none" stroke="#000000" points="65.3458,-180.5 166.3458,-180.5 "/>
<text text-anchor="start" x="73.3458" y="-168.5" font-family="Helvetica,sans-Serif" font-size="10.00" fill="#000000">+ GPUd()</text>
<text text-anchor="start" x="73.3458" y="-157.5" font-family="Helvetica,sans-Serif" font-size="10.00" fill="#000000">+ GPUdDefault()</text>
<text text-anchor="start" x="73.3458" y="-146.5" font-family="Helvetica,sans-Serif" font-size="10.00" fill="#000000">+ GPUd()</text>
<text text-anchor="start" x="73.3458" y="-135.5" font-family="Helvetica,sans-Serif" font-size="10.00" fill="#000000">+ ClassDefNV()</text>
</a>
</g>
</g>
<!-- Node3&#45;&gt;Node2 -->
<g id="edge1" class="edge">
<title>Node3&#45;&gt;Node2</title>
<path fill="none" stroke="#191970" d="M115.8458,-118.1492C115.8458,-108.9671 115.8458,-99.5431 115.8458,-90.6519"/>
<polygon fill="none" stroke="#191970" points="112.3459,-118.372 115.8458,-128.372 119.3459,-118.372 112.3459,-118.372"/>
</g>
<!-- Node4 -->
<g id="node3" class="node">
<title>Node4</title>
<g id="a_node3"><a xlink:href="../../d4/dc3/classfloat.html" target="_top" xlink:title="{float\n||}">
<polygon fill="none" stroke="#000000" points="6.8458,-277.5 6.8458,-334.5 44.8458,-334.5 44.8458,-277.5 6.8458,-277.5"/>
<text text-anchor="middle" x="25.8458" y="-322.5" font-family="Helvetica,sans-Serif" font-size="10.00" fill="#000000">float</text>
<polyline fill="none" stroke="#000000" points="6.8458,-315.5 44.8458,-315.5 "/>
<text text-anchor="middle" x="25.8458" y="-303.5" font-family="Helvetica,sans-Serif" font-size="10.00" fill="#000000"> </text>
<polyline fill="none" stroke="#000000" points="6.8458,-296.5 44.8458,-296.5 "/>
<text text-anchor="middle" x="25.8458" y="-284.5" font-family="Helvetica,sans-Serif" font-size="10.00" fill="#000000"> </text>
</a>
</g>
</g>
<!-- Node4&#45;&gt;Node2 -->
<g id="edge4" class="edge">
<title>Node4&#45;&gt;Node2</title>
<path fill="none" stroke="#404040" d="M15.314,-277.238C3.7347,-240.6219 -10.3607,-176.3205 12.8458,-128 20.8194,-111.3972 33.9423,-97.0864 48.194,-85.2652"/>
<polygon fill="none" stroke="#404040" points="48.222,-85.2434 50.4889,-78.3978 57.6798,-77.8574 55.4129,-84.703 48.222,-85.2434"/>
<text text-anchor="middle" x="34.3458" y="-171" font-family="Helvetica,sans-Serif" font-size="10.00" fill="#000000"> +length</text>
</g>
<!-- Node4&#45;&gt;Node3 -->
<g id="edge2" class="edge">
<title>Node4&#45;&gt;Node3</title>
<path fill="none" stroke="#404040" d="M38.484,-277.2567C44.5695,-264.519 52.3808,-249.5987 60.8458,-237 62.7903,-234.1059 64.8512,-231.1986 66.9899,-228.3058"/>
<polygon fill="none" stroke="#404040" points="67.1741,-228.067 67.6726,-220.8731 74.5048,-218.5663 74.0064,-225.7602 67.1741,-228.067"/>
<text text-anchor="middle" x="91.8458" y="-251" font-family="Helvetica,sans-Serif" font-size="10.00" fill="#000000"> +meanRho</text>
<text text-anchor="middle" x="91.8458" y="-240" font-family="Helvetica,sans-Serif" font-size="10.00" fill="#000000">+meanX2X0</text>
</g>
<!-- Node5 -->
<g id="node4" class="node">
<title>Node5</title>
<polygon fill="none" stroke="#bfbfbf" points="143.8458,-277.5 143.8458,-334.5 187.8458,-334.5 187.8458,-277.5 143.8458,-277.5"/>
<text text-anchor="middle" x="165.8458" y="-322.5" font-family="Helvetica,sans-Serif" font-size="10.00" fill="#000000">static</text>
<polyline fill="none" stroke="#bfbfbf" points="143.8458,-315.5 187.8458,-315.5 "/>
<text text-anchor="middle" x="165.8458" y="-303.5" font-family="Helvetica,sans-Serif" font-size="10.00" fill="#000000"> </text>
<polyline fill="none" stroke="#bfbfbf" points="143.8458,-296.5 187.8458,-296.5 "/>
<text text-anchor="middle" x="165.8458" y="-284.5" font-family="Helvetica,sans-Serif" font-size="10.00" fill="#000000"> </text>
</g>
<!-- Node5&#45;&gt;Node2 -->
<g id="edge5" class="edge">
<title>Node5&#45;&gt;Node2</title>
<path fill="none" stroke="#404040" d="M182.3553,-277.4316C185.0415,-271.5164 187.4112,-265.1951 188.8458,-259 197.0716,-223.4766 198.3986,-185.5057 175.8458,-128 172.1742,-118.6381 167.1796,-109.3705 161.6294,-100.616"/>
<polygon fill="none" stroke="#404040" points="161.5937,-100.5626 154.9283,-97.8107 154.9049,-90.5997 161.5703,-93.3516 161.5937,-100.5626"/>
<text text-anchor="middle" x="221.3458" y="-171" font-family="Helvetica,sans-Serif" font-size="10.00" fill="#000000"> +NParams</text>
</g>
<!-- Node5&#45;&gt;Node3 -->
<g id="edge3" class="edge">
<title>Node5&#45;&gt;Node3</title>
<path fill="none" stroke="#404040" d="M143.839,-277.434C140.0696,-271.5696 136.5147,-265.2666 133.8458,-259 130.0844,-250.1684 127.0828,-240.4786 124.6951,-230.8945"/>
<polygon fill="none" stroke="#404040" points="124.6265,-230.5902 119.4051,-225.6165 121.988,-218.8838 127.2094,-223.8575 124.6265,-230.5902"/>
<text text-anchor="middle" x="161.3458" y="-245.5" font-family="Helvetica,sans-Serif" font-size="10.00" fill="#000000"> +NParams</text>
</g>
</g>
</svg>
