<?xml version="1.0" encoding="UTF-8" standalone="no"?>
<!DOCTYPE svg PUBLIC "-//W3C//DTD SVG 1.1//EN"
 "http://www.w3.org/Graphics/SVG/1.1/DTD/svg11.dtd">
<!-- Generated by graphviz version 2.40.1 (20161225.0304)
 -->
<!-- Title: o2::soa::RowViewBase&lt; IP, C &gt; Pages: 1 -->
<svg width="184pt" height="325pt"
 viewBox="0.00 0.00 184.00 325.00" xmlns="http://www.w3.org/2000/svg" xmlns:xlink="http://www.w3.org/1999/xlink">
<g id="graph0" class="graph" transform="scale(1 1) rotate(0) translate(4 321)">
<title>o2::soa::RowViewBase&lt; IP, C &gt;</title>
<!-- Node4 -->
<g id="node1" class="node">
<title>Node4</title>
<polygon fill="#bfbfbf" stroke="#000000" points="0,-.5 0,-211.5 126,-211.5 126,-.5 0,-.5"/>
<text text-anchor="start" x="8" y="-199.5" font-family="Helvetica,sans-Serif" font-size="10.00" fill="#000000">o2::soa::RowViewBase</text>
<text text-anchor="middle" x="63" y="-188.5" font-family="Helvetica,sans-Serif" font-size="10.00" fill="#000000">&lt; IP, C &gt;</text>
<polyline fill="none" stroke="#000000" points="0,-181.5 126,-181.5 "/>
<text text-anchor="middle" x="63" y="-169.5" font-family="Helvetica,sans-Serif" font-size="10.00" fill="#000000"> </text>
<polyline fill="none" stroke="#000000" points="0,-162.5 126,-162.5 "/>
<text text-anchor="start" x="8" y="-150.5" font-family="Helvetica,sans-Serif" font-size="10.00" fill="#000000">+ RowViewBase()</text>
<text text-anchor="start" x="8" y="-139.5" font-family="Helvetica,sans-Serif" font-size="10.00" fill="#000000">+ RowViewBase()</text>
<text text-anchor="start" x="8" y="-128.5" font-family="Helvetica,sans-Serif" font-size="10.00" fill="#000000">+ RowViewBase()</text>
<text text-anchor="start" x="8" y="-117.5" font-family="Helvetica,sans-Serif" font-size="10.00" fill="#000000">+ RowViewBase()</text>
<text text-anchor="start" x="8" y="-106.5" font-family="Helvetica,sans-Serif" font-size="10.00" fill="#000000">+ operator=()</text>
<text text-anchor="start" x="8" y="-95.5" font-family="Helvetica,sans-Serif" font-size="10.00" fill="#000000">+ operator=()</text>
<text text-anchor="start" x="8" y="-84.5" font-family="Helvetica,sans-Serif" font-size="10.00" fill="#000000">+ operator[]()</text>
<text text-anchor="start" x="8" y="-73.5" font-family="Helvetica,sans-Serif" font-size="10.00" fill="#000000">+ operator++()</text>
<text text-anchor="start" x="8" y="-62.5" font-family="Helvetica,sans-Serif" font-size="10.00" fill="#000000">+ operator++()</text>
<text text-anchor="start" x="8" y="-51.5" font-family="Helvetica,sans-Serif" font-size="10.00" fill="#000000">+ operator+()</text>
<text text-anchor="start" x="8" y="-40.5" font-family="Helvetica,sans-Serif" font-size="10.00" fill="#000000">+ operator&#45;()</text>
<text text-anchor="start" x="8" y="-29.5" font-family="Helvetica,sans-Serif" font-size="10.00" fill="#000000">+ operator*()</text>
<text text-anchor="start" x="8" y="-18.5" font-family="Helvetica,sans-Serif" font-size="10.00" fill="#000000">+ operator!=()</text>
<text text-anchor="start" x="8" y="-7.5" font-family="Helvetica,sans-Serif" font-size="10.00" fill="#000000">+ operator==()</text>
</g>
<!-- Node5 -->
<g id="node2" class="node">
<title>Node5</title>
<g id="a_node2"><a xlink:href="../../d4/dd5/classo2_1_1soa_1_1IP.html" target="_top" xlink:title="{IP\n||}">
<polygon fill="none" stroke="#000000" points="1.5,-259.5 1.5,-316.5 30.5,-316.5 30.5,-259.5 1.5,-259.5"/>
<text text-anchor="middle" x="16" y="-304.5" font-family="Helvetica,sans-Serif" font-size="10.00" fill="#000000">IP</text>
<polyline fill="none" stroke="#000000" points="1.5,-297.5 30.5,-297.5 "/>
<text text-anchor="middle" x="16" y="-285.5" font-family="Helvetica,sans-Serif" font-size="10.00" fill="#000000"> </text>
<polyline fill="none" stroke="#000000" points="1.5,-278.5 30.5,-278.5 "/>
<text text-anchor="middle" x="16" y="-266.5" font-family="Helvetica,sans-Serif" font-size="10.00" fill="#000000"> </text>
</a>
</g>
</g>
<!-- Node5&#45;&gt;Node4 -->
<g id="edge1" class="edge">
<title>Node5&#45;&gt;Node4</title>
<path fill="none" stroke="#191970" d="M26.0041,-249.2608C28.9268,-237.9431 32.2708,-224.9939 35.7266,-211.6118"/>
<polygon fill="none" stroke="#191970" points="22.5589,-248.604 23.4473,-259.1616 29.3366,-250.3544 22.5589,-248.604"/>
</g>
<!-- Node6 -->
<g id="node3" class="node">
<title>Node6</title>
<polygon fill="none" stroke="#bfbfbf" points="48.5,-259.5 48.5,-316.5 77.5,-316.5 77.5,-259.5 48.5,-259.5"/>
<text text-anchor="middle" x="63" y="-304.5" font-family="Helvetica,sans-Serif" font-size="10.00" fill="#000000">C</text>
<polyline fill="none" stroke="#bfbfbf" points="48.5,-297.5 77.5,-297.5 "/>
<text text-anchor="middle" x="63" y="-285.5" font-family="Helvetica,sans-Serif" font-size="10.00" fill="#000000"> </text>
<polyline fill="none" stroke="#bfbfbf" points="48.5,-278.5 77.5,-278.5 "/>
<text text-anchor="middle" x="63" y="-266.5" font-family="Helvetica,sans-Serif" font-size="10.00" fill="#000000"> </text>
</g>
<!-- Node6&#45;&gt;Node4 -->
<g id="edge2" class="edge">
<title>Node6&#45;&gt;Node4</title>
<path fill="none" stroke="#191970" d="M63,-248.9138C63,-237.6788 63,-224.8574 63,-211.6118"/>
<polygon fill="none" stroke="#191970" points="59.5001,-249.1615 63,-259.1616 66.5001,-249.1616 59.5001,-249.1615"/>
</g>
<!-- Node7 -->
<g id="node4" class="node">
<title>Node7</title>
<polygon fill="none" stroke="#bfbfbf" points="96,-259.5 96,-316.5 140,-316.5 140,-259.5 96,-259.5"/>
<text text-anchor="middle" x="118" y="-304.5" font-family="Helvetica,sans-Serif" font-size="10.00" fill="#000000">static</text>
<polyline fill="none" stroke="#bfbfbf" points="96,-297.5 140,-297.5 "/>
<text text-anchor="middle" x="118" y="-285.5" font-family="Helvetica,sans-Serif" font-size="10.00" fill="#000000"> </text>
<polyline fill="none" stroke="#bfbfbf" points="96,-278.5 140,-278.5 "/>
<text text-anchor="middle" x="118" y="-266.5" font-family="Helvetica,sans-Serif" font-size="10.00" fill="#000000"> </text>
</g>
<!-- Node7&#45;&gt;Node4 -->
<g id="edge3" class="edge">
<title>Node7&#45;&gt;Node4</title>
<path fill="none" stroke="#404040" d="M109.2851,-259.1616C106.1692,-248.8509 102.4371,-236.5009 98.462,-223.3471"/>
<polygon fill="none" stroke="#404040" points="98.3871,-223.0988 92.8224,-218.5124 94.9157,-211.6118 100.4803,-216.1982 98.3871,-223.0988"/>
<text text-anchor="middle" x="139.5" y="-233" font-family="Helvetica,sans-Serif" font-size="10.00" fill="#000000"> +has_index_v</text>
</g>
</g>
</svg>
