<?xml version="1.0" encoding="UTF-8" standalone="no"?>
<!DOCTYPE svg PUBLIC "-//W3C//DTD SVG 1.1//EN"
 "http://www.w3.org/Graphics/SVG/1.1/DTD/svg11.dtd">
<!-- Generated by graphviz version 2.40.1 (20161225.0304)
 -->
<!-- Title: /home/travis/build/AliceO2Group/AliceO2/GPU/GPUTracking/Interface/GPUO2InterfaceConfiguration.h Pages: 1 -->
<svg width="804pt" height="285pt"
 viewBox="0.00 0.00 803.50 285.00" xmlns="http://www.w3.org/2000/svg" xmlns:xlink="http://www.w3.org/1999/xlink">
<g id="graph0" class="graph" transform="scale(1 1) rotate(0) translate(4 281)">
<title>/home/travis/build/AliceO2Group/AliceO2/GPU/GPUTracking/Interface/GPUO2InterfaceConfiguration.h</title>
<!-- Node0 -->
<g id="node1" class="node">
<title>Node0</title>
<polygon fill="#bfbfbf" stroke="#000000" points="194,-224.5 194,-276.5 366,-276.5 366,-224.5 194,-224.5"/>
<text text-anchor="start" x="202" y="-264.5" font-family="Helvetica,sans-Serif" font-size="10.00" fill="#000000">/home/travis/build</text>
<text text-anchor="start" x="202" y="-253.5" font-family="Helvetica,sans-Serif" font-size="10.00" fill="#000000">/AliceO2Group/AliceO2</text>
<text text-anchor="start" x="202" y="-242.5" font-family="Helvetica,sans-Serif" font-size="10.00" fill="#000000">/GPU/GPUTracking/Interface</text>
<text text-anchor="middle" x="280" y="-231.5" font-family="Helvetica,sans-Serif" font-size="10.00" fill="#000000">/GPUO2InterfaceConfiguration.h</text>
</g>
<!-- Node1 -->
<g id="node2" class="node">
<title>Node1</title>
<polygon fill="none" stroke="#bfbfbf" points="0,-168.5 0,-187.5 58,-187.5 58,-168.5 0,-168.5"/>
<text text-anchor="middle" x="29" y="-175.5" font-family="Helvetica,sans-Serif" font-size="10.00" fill="#000000">memory</text>
</g>
<!-- Node0&#45;&gt;Node1 -->
<g id="edge1" class="edge">
<title>Node0&#45;&gt;Node1</title>
<path fill="none" stroke="#191970" d="M193.9712,-225.651C151.1445,-213.2808 101.4904,-198.9385 67.9357,-189.2464"/>
<polygon fill="#191970" stroke="#191970" points="68.643,-185.8077 58.0645,-186.3951 66.7005,-192.5327 68.643,-185.8077"/>
</g>
<!-- Node2 -->
<g id="node3" class="node">
<title>Node2</title>
<polygon fill="none" stroke="#bfbfbf" points="76,-168.5 76,-187.5 118,-187.5 118,-168.5 76,-168.5"/>
<text text-anchor="middle" x="97" y="-175.5" font-family="Helvetica,sans-Serif" font-size="10.00" fill="#000000">array</text>
</g>
<!-- Node0&#45;&gt;Node2 -->
<g id="edge2" class="edge">
<title>Node0&#45;&gt;Node2</title>
<path fill="none" stroke="#191970" d="M214.1913,-224.4283C184.6033,-212.7062 151.1151,-199.439 127.5364,-190.0978"/>
<polygon fill="#191970" stroke="#191970" points="128.6644,-186.78 118.0782,-186.3507 126.0861,-193.2879 128.6644,-186.78"/>
</g>
<!-- Node3 -->
<g id="node4" class="node">
<title>Node3</title>
<polygon fill="none" stroke="#bfbfbf" points="122.5,-56.5 122.5,-75.5 169.5,-75.5 169.5,-56.5 122.5,-56.5"/>
<text text-anchor="middle" x="146" y="-63.5" font-family="Helvetica,sans-Serif" font-size="10.00" fill="#000000">vector</text>
</g>
<!-- Node0&#45;&gt;Node3 -->
<g id="edge3" class="edge">
<title>Node0&#45;&gt;Node3</title>
<path fill="none" stroke="#191970" d="M208.0097,-224.4073C191.578,-215.2642 175.7967,-203.3255 165,-188 143.3844,-157.3175 142.4487,-111.536 144.0165,-85.662"/>
<polygon fill="#191970" stroke="#191970" points="147.513,-85.843 144.818,-75.5966 140.5351,-85.2872 147.513,-85.843"/>
</g>
<!-- Node4 -->
<g id="node5" class="node">
<title>Node4</title>
<g id="a_node5"><a xlink:href="../../dd/dc6/GPUSettings_8h.html" target="_top" xlink:title="GPUSettings.h">
<polygon fill="none" stroke="#000000" points="532,-168.5 532,-187.5 618,-187.5 618,-168.5 532,-168.5"/>
<text text-anchor="middle" x="575" y="-175.5" font-family="Helvetica,sans-Serif" font-size="10.00" fill="#000000">GPUSettings.h</text>
</a>
</g>
</g>
<!-- Node0&#45;&gt;Node4 -->
<g id="edge4" class="edge">
<title>Node0&#45;&gt;Node4</title>
<path fill="none" stroke="#191970" d="M366.1192,-229.3351C418.3428,-216.5005 483.0609,-200.5952 526.5002,-189.9194"/>
<polygon fill="#191970" stroke="#191970" points="527.3723,-193.3094 536.248,-187.5238 525.7016,-186.5116 527.3723,-193.3094"/>
</g>
<!-- Node11 -->
<g id="node12" class="node">
<title>Node11</title>
<g id="a_node12"><a xlink:href="../../d4/d50/GPUDisplayConfig_8h.html" target="_top" xlink:title="GPUDisplayConfig.h">
<polygon fill="none" stroke="#000000" points="284,-168.5 284,-187.5 398,-187.5 398,-168.5 284,-168.5"/>
<text text-anchor="middle" x="341" y="-175.5" font-family="Helvetica,sans-Serif" font-size="10.00" fill="#000000">GPUDisplayConfig.h</text>
</a>
</g>
</g>
<!-- Node0&#45;&gt;Node11 -->
<g id="edge11" class="edge">
<title>Node0&#45;&gt;Node11</title>
<path fill="none" stroke="#191970" d="M302.0224,-224.3258C310.1104,-214.7131 319.0623,-204.0735 326.3453,-195.4174"/>
<polygon fill="#191970" stroke="#191970" points="329.2183,-197.4392 332.9783,-187.534 323.862,-192.9325 329.2183,-197.4392"/>
</g>
<!-- Node14 -->
<g id="node15" class="node">
<title>Node14</title>
<g id="a_node15"><a xlink:href="../../d8/d93/GPUQAConfig_8h.html" target="_top" xlink:title="GPUQAConfig.h">
<polygon fill="none" stroke="#000000" points="174,-168.5 174,-187.5 266,-187.5 266,-168.5 174,-168.5"/>
<text text-anchor="middle" x="220" y="-175.5" font-family="Helvetica,sans-Serif" font-size="10.00" fill="#000000">GPUQAConfig.h</text>
</a>
</g>
</g>
<!-- Node0&#45;&gt;Node14 -->
<g id="edge17" class="edge">
<title>Node0&#45;&gt;Node14</title>
<path fill="none" stroke="#191970" d="M258.3386,-224.3258C250.3833,-214.7131 241.5781,-204.0735 234.4144,-195.4174"/>
<polygon fill="#191970" stroke="#191970" points="236.9623,-193.0065 227.8902,-187.534 231.5695,-197.4695 236.9623,-193.0065"/>
</g>
<!-- Node15 -->
<g id="node16" class="node">
<title>Node15</title>
<g id="a_node16"><a xlink:href="../../d4/dc5/GPUDataTypes_8h.html" target="_top" xlink:title="GPUDataTypes.h">
<polygon fill="none" stroke="#000000" points="416,-168.5 416,-187.5 514,-187.5 514,-168.5 416,-168.5"/>
<text text-anchor="middle" x="465" y="-175.5" font-family="Helvetica,sans-Serif" font-size="10.00" fill="#000000">GPUDataTypes.h</text>
</a>
</g>
</g>
<!-- Node0&#45;&gt;Node15 -->
<g id="edge20" class="edge">
<title>Node0&#45;&gt;Node15</title>
<path fill="none" stroke="#191970" d="M346.5279,-224.4283C375.1703,-213.2035 407.4281,-200.5619 431.0431,-191.3074"/>
<polygon fill="#191970" stroke="#191970" points="432.5654,-194.4701 440.5989,-187.5626 430.0113,-187.9527 432.5654,-194.4701"/>
</g>
<!-- Node17 -->
<g id="node18" class="node">
<title>Node17</title>
<g id="a_node18"><a xlink:href="../../d0/dda/DataFormats_2Detectors_2TPC_2include_2DataFormatsTPC_2Constants_8h.html" target="_top" xlink:title="DataFormatsTPC/Constants.h">
<polygon fill="none" stroke="#000000" points="636.5,-168.5 636.5,-187.5 795.5,-187.5 795.5,-168.5 636.5,-168.5"/>
<text text-anchor="middle" x="716" y="-175.5" font-family="Helvetica,sans-Serif" font-size="10.00" fill="#000000">DataFormatsTPC/Constants.h</text>
</a>
</g>
</g>
<!-- Node0&#45;&gt;Node17 -->
<g id="edge23" class="edge">
<title>Node0&#45;&gt;Node17</title>
<path fill="none" stroke="#191970" d="M366.1396,-236.1763C449.1485,-222.3732 573.0146,-201.7762 648.9283,-189.153"/>
<polygon fill="#191970" stroke="#191970" points="649.565,-192.5953 658.8554,-187.5023 648.4167,-185.6901 649.565,-192.5953"/>
</g>
<!-- Node5 -->
<g id="node6" class="node">
<title>Node5</title>
<g id="a_node6"><a xlink:href="../../d6/da2/GPUCommonMath_8h.html" target="_top" xlink:title="GPUCommonMath.h">
<polygon fill="none" stroke="#000000" points="513.5,-112.5 513.5,-131.5 628.5,-131.5 628.5,-112.5 513.5,-112.5"/>
<text text-anchor="middle" x="571" y="-119.5" font-family="Helvetica,sans-Serif" font-size="10.00" fill="#000000">GPUCommonMath.h</text>
</a>
</g>
</g>
<!-- Node4&#45;&gt;Node5 -->
<g id="edge5" class="edge">
<title>Node4&#45;&gt;Node5</title>
<path fill="none" stroke="#191970" d="M574.3033,-168.2455C573.7813,-160.9382 573.0496,-150.6944 572.4075,-141.7046"/>
<polygon fill="#191970" stroke="#191970" points="575.8924,-141.3679 571.6888,-131.6427 568.9102,-141.8667 575.8924,-141.3679"/>
</g>
<!-- Node6 -->
<g id="node7" class="node">
<title>Node6</title>
<g id="a_node7"><a xlink:href="../../df/d21/GPUCommonDef_8h.html" target="_top" xlink:title="GPUCommonDef.h">
<polygon fill="none" stroke="#000000" points="338.5,-56.5 338.5,-75.5 445.5,-75.5 445.5,-56.5 338.5,-56.5"/>
<text text-anchor="middle" x="392" y="-63.5" font-family="Helvetica,sans-Serif" font-size="10.00" fill="#000000">GPUCommonDef.h</text>
</a>
</g>
</g>
<!-- Node5&#45;&gt;Node6 -->
<g id="edge6" class="edge">
<title>Node5&#45;&gt;Node6</title>
<path fill="none" stroke="#191970" d="M540.2288,-112.3733C510.335,-103.021 464.7907,-88.7725 432.0783,-78.5385"/>
<polygon fill="#191970" stroke="#191970" points="432.9586,-75.1466 422.3697,-75.5011 430.8685,-81.8273 432.9586,-75.1466"/>
</g>
<!-- Node9 -->
<g id="node10" class="node">
<title>Node9</title>
<polygon fill="none" stroke="#bfbfbf" points="561.5,-56.5 561.5,-75.5 608.5,-75.5 608.5,-56.5 561.5,-56.5"/>
<text text-anchor="middle" x="585" y="-63.5" font-family="Helvetica,sans-Serif" font-size="10.00" fill="#000000">cmath</text>
</g>
<!-- Node5&#45;&gt;Node9 -->
<g id="edge9" class="edge">
<title>Node5&#45;&gt;Node9</title>
<path fill="none" stroke="#191970" d="M573.4386,-112.2455C575.2855,-104.8579 577.8828,-94.4689 580.1478,-85.4087"/>
<polygon fill="#191970" stroke="#191970" points="583.5594,-86.193 582.5893,-75.6427 576.7684,-84.4952 583.5594,-86.193"/>
</g>
<!-- Node10 -->
<g id="node11" class="node">
<title>Node10</title>
<polygon fill="none" stroke="#bfbfbf" points="479,-56.5 479,-75.5 543,-75.5 543,-56.5 479,-56.5"/>
<text text-anchor="middle" x="511" y="-63.5" font-family="Helvetica,sans-Serif" font-size="10.00" fill="#000000">algorithm</text>
</g>
<!-- Node5&#45;&gt;Node10 -->
<g id="edge10" class="edge">
<title>Node5&#45;&gt;Node10</title>
<path fill="none" stroke="#191970" d="M560.5488,-112.2455C551.7731,-104.0549 539.0446,-92.1749 528.686,-82.5069"/>
<polygon fill="#191970" stroke="#191970" points="531.0301,-79.9072 521.3314,-75.6427 526.2539,-85.0246 531.0301,-79.9072"/>
</g>
<!-- Node7 -->
<g id="node8" class="node">
<title>Node7</title>
<g id="a_node8"><a xlink:href="../../d5/d93/GPUCommonDefSettings_8h.html" target="_top" xlink:title="GPUCommonDefSettings.h">
<polygon fill="none" stroke="#000000" points="241,-.5 241,-19.5 389,-19.5 389,-.5 241,-.5"/>
<text text-anchor="middle" x="315" y="-7.5" font-family="Helvetica,sans-Serif" font-size="10.00" fill="#000000">GPUCommonDefSettings.h</text>
</a>
</g>
</g>
<!-- Node6&#45;&gt;Node7 -->
<g id="edge7" class="edge">
<title>Node6&#45;&gt;Node7</title>
<path fill="none" stroke="#191970" d="M378.5876,-56.2455C366.9943,-47.814 350.0252,-35.4729 336.5322,-25.6598"/>
<polygon fill="#191970" stroke="#191970" points="338.4047,-22.6938 328.2587,-19.6427 334.2874,-28.355 338.4047,-22.6938"/>
</g>
<!-- Node8 -->
<g id="node9" class="node">
<title>Node8</title>
<g id="a_node9"><a xlink:href="../../da/d5a/GPUCommonDefAPI_8h.html" target="_top" xlink:title="GPUCommonDefAPI.h">
<polygon fill="none" stroke="#000000" points="407,-.5 407,-19.5 531,-19.5 531,-.5 407,-.5"/>
<text text-anchor="middle" x="469" y="-7.5" font-family="Helvetica,sans-Serif" font-size="10.00" fill="#000000">GPUCommonDefAPI.h</text>
</a>
</g>
</g>
<!-- Node6&#45;&gt;Node8 -->
<g id="edge8" class="edge">
<title>Node6&#45;&gt;Node8</title>
<path fill="none" stroke="#191970" d="M405.4124,-56.2455C417.0057,-47.814 433.9748,-35.4729 447.4678,-25.6598"/>
<polygon fill="#191970" stroke="#191970" points="449.7126,-28.355 455.7413,-19.6427 445.5953,-22.6938 449.7126,-28.355"/>
</g>
<!-- Node11&#45;&gt;Node6 -->
<g id="edge12" class="edge">
<title>Node11&#45;&gt;Node6</title>
<path fill="none" stroke="#191970" d="M345.3482,-168.4509C353.7791,-149.936 372.4838,-108.8591 383.4763,-84.7187"/>
<polygon fill="#191970" stroke="#191970" points="386.7039,-86.0762 387.6628,-75.5249 380.3333,-83.1753 386.7039,-86.0762"/>
</g>
<!-- Node12 -->
<g id="node13" class="node">
<title>Node12</title>
<g id="a_node13"><a xlink:href="../../da/d08/qconfig_8h.html" target="_top" xlink:title="utils/qconfig.h">
<polygon fill="none" stroke="#000000" points="179.5,-112.5 179.5,-131.5 264.5,-131.5 264.5,-112.5 179.5,-112.5"/>
<text text-anchor="middle" x="222" y="-119.5" font-family="Helvetica,sans-Serif" font-size="10.00" fill="#000000">utils/qconfig.h</text>
</a>
</g>
</g>
<!-- Node11&#45;&gt;Node12 -->
<g id="edge13" class="edge">
<title>Node11&#45;&gt;Node12</title>
<path fill="none" stroke="#191970" d="M320.5432,-168.3733C301.5262,-159.4241 272.9825,-145.9917 251.5024,-135.8835"/>
<polygon fill="#191970" stroke="#191970" points="252.7284,-132.5923 242.1899,-131.5011 249.7478,-138.926 252.7284,-132.5923"/>
</g>
<!-- Node12&#45;&gt;Node3 -->
<g id="edge14" class="edge">
<title>Node12&#45;&gt;Node3</title>
<path fill="none" stroke="#191970" d="M208.7618,-112.2455C197.319,-103.814 180.5704,-91.4729 167.2525,-81.6598"/>
<polygon fill="#191970" stroke="#191970" points="169.2133,-78.757 159.0865,-75.6427 165.0609,-84.3924 169.2133,-78.757"/>
</g>
<!-- Node12&#45;&gt;Node12 -->
<g id="edge16" class="edge">
<title>Node12&#45;&gt;Node12</title>
<path fill="none" stroke="#191970" d="M247.8034,-131.5252C265.3361,-134.3079 282.5,-131.1328 282.5,-122 282.5,-114.6509 271.386,-111.1596 257.9091,-111.5261"/>
<polygon fill="#191970" stroke="#191970" points="257.4324,-108.0554 247.8034,-112.4748 258.0867,-115.0247 257.4324,-108.0554"/>
</g>
<!-- Node13 -->
<g id="node14" class="node">
<title>Node13</title>
<g id="a_node14"><a xlink:href="../../d8/de9/qconfigoptions_8h.html" target="_top" xlink:title="qconfigoptions.h">
<polygon fill="none" stroke="#000000" points="187.5,-56.5 187.5,-75.5 284.5,-75.5 284.5,-56.5 187.5,-56.5"/>
<text text-anchor="middle" x="236" y="-63.5" font-family="Helvetica,sans-Serif" font-size="10.00" fill="#000000">qconfigoptions.h</text>
</a>
</g>
</g>
<!-- Node12&#45;&gt;Node13 -->
<g id="edge15" class="edge">
<title>Node12&#45;&gt;Node13</title>
<path fill="none" stroke="#191970" d="M224.4386,-112.2455C226.2855,-104.8579 228.8828,-94.4689 231.1478,-85.4087"/>
<polygon fill="#191970" stroke="#191970" points="234.5594,-86.193 233.5893,-75.6427 227.7684,-84.4952 234.5594,-86.193"/>
</g>
<!-- Node14&#45;&gt;Node6 -->
<g id="edge18" class="edge">
<title>Node14&#45;&gt;Node6</title>
<path fill="none" stroke="#191970" d="M234.9705,-168.325C249.347,-159.0281 271.6722,-144.5761 291,-132 317.6443,-114.6633 348.192,-94.6876 368.6519,-81.2942"/>
<polygon fill="#191970" stroke="#191970" points="370.8434,-84.0428 377.2923,-75.6367 367.0089,-78.1865 370.8434,-84.0428"/>
</g>
<!-- Node14&#45;&gt;Node12 -->
<g id="edge19" class="edge">
<title>Node14&#45;&gt;Node12</title>
<path fill="none" stroke="#191970" d="M220.3484,-168.2455C220.6093,-160.9382 220.9752,-150.6944 221.2963,-141.7046"/>
<polygon fill="#191970" stroke="#191970" points="224.7964,-141.7613 221.6556,-131.6427 217.8008,-141.5113 224.7964,-141.7613"/>
</g>
<!-- Node15&#45;&gt;Node6 -->
<g id="edge21" class="edge">
<title>Node15&#45;&gt;Node6</title>
<path fill="none" stroke="#191970" d="M457.1161,-168.3954C449.7647,-159.2684 438.6629,-145.0392 430,-132 419.7384,-116.5544 409.3151,-98.2233 401.9872,-84.8042"/>
<polygon fill="#191970" stroke="#191970" points="404.8671,-82.7705 397.0408,-75.6291 398.7055,-86.0924 404.8671,-82.7705"/>
</g>
<!-- Node16 -->
<g id="node17" class="node">
<title>Node16</title>
<polygon fill="none" stroke="#bfbfbf" points="438.5,-112.5 438.5,-131.5 491.5,-131.5 491.5,-112.5 438.5,-112.5"/>
<text text-anchor="middle" x="465" y="-119.5" font-family="Helvetica,sans-Serif" font-size="10.00" fill="#000000">cstddef</text>
</g>
<!-- Node15&#45;&gt;Node16 -->
<g id="edge22" class="edge">
<title>Node15&#45;&gt;Node16</title>
<path fill="none" stroke="#191970" d="M465,-168.2455C465,-160.9382 465,-150.6944 465,-141.7046"/>
<polygon fill="#191970" stroke="#191970" points="468.5001,-141.6426 465,-131.6427 461.5001,-141.6427 468.5001,-141.6426"/>
</g>
</g>
</svg>
