<?xml version="1.0" encoding="UTF-8" standalone="no"?>
<!DOCTYPE svg PUBLIC "-//W3C//DTD SVG 1.1//EN"
 "http://www.w3.org/Graphics/SVG/1.1/DTD/svg11.dtd">
<!-- Generated by graphviz version 2.40.1 (20161225.0304)
 -->
<!-- Title: o2::framework::DispatchPolicy Pages: 1 -->
<svg width="453pt" height="182pt"
 viewBox="0.00 0.00 453.00 182.00" xmlns="http://www.w3.org/2000/svg" xmlns:xlink="http://www.w3.org/1999/xlink">
<g id="graph0" class="graph" transform="scale(1 1) rotate(0) translate(4 178)">
<title>o2::framework::DispatchPolicy</title>
<!-- Node1 -->
<g id="node1" class="node">
<title>Node1</title>
<polygon fill="#bfbfbf" stroke="#000000" points="191.5,-.5 191.5,-57.5 357.5,-57.5 357.5,-.5 191.5,-.5"/>
<text text-anchor="middle" x="274.5" y="-45.5" font-family="Helvetica,sans-Serif" font-size="10.00" fill="#000000">o2::framework::DispatchPolicy</text>
<polyline fill="none" stroke="#000000" points="191.5,-38.5 357.5,-38.5 "/>
<text text-anchor="middle" x="274.5" y="-26.5" font-family="Helvetica,sans-Serif" font-size="10.00" fill="#000000"> </text>
<polyline fill="none" stroke="#000000" points="191.5,-19.5 357.5,-19.5 "/>
<text text-anchor="start" x="199.5" y="-7.5" font-family="Helvetica,sans-Serif" font-size="10.00" fill="#000000">+ createDefaultPolicies()</text>
</g>
<!-- Node2 -->
<g id="node2" class="node">
<title>Node2</title>
<polygon fill="none" stroke="#bfbfbf" points="0,-105.5 0,-173.5 125,-173.5 125,-105.5 0,-105.5"/>
<text text-anchor="start" x="8" y="-161.5" font-family="Helvetica,sans-Serif" font-size="10.00" fill="#000000">function&lt; bool(Output</text>
<text text-anchor="middle" x="62.5" y="-150.5" font-family="Helvetica,sans-Serif" font-size="10.00" fill="#000000"> const &amp;)&gt;</text>
<polyline fill="none" stroke="#bfbfbf" points="0,-143.5 125,-143.5 "/>
<text text-anchor="middle" x="62.5" y="-131.5" font-family="Helvetica,sans-Serif" font-size="10.00" fill="#000000"> </text>
<polyline fill="none" stroke="#bfbfbf" points="0,-124.5 125,-124.5 "/>
<text text-anchor="middle" x="62.5" y="-112.5" font-family="Helvetica,sans-Serif" font-size="10.00" fill="#000000"> </text>
</g>
<!-- Node2&#45;&gt;Node1 -->
<g id="edge1" class="edge">
<title>Node2&#45;&gt;Node1</title>
<path fill="none" stroke="#404040" d="M96.0123,-105.4976C107.7516,-94.9626 121.5138,-84.0263 135.5,-76 149.2331,-68.119 164.4916,-61.2942 179.7252,-55.4775"/>
<polygon fill="none" stroke="#404040" points="180.075,-55.3495 184.3346,-49.5309 191.3439,-51.225 187.0843,-57.0436 180.075,-55.3495"/>
<text text-anchor="middle" x="177" y="-79" font-family="Helvetica,sans-Serif" font-size="10.00" fill="#000000"> +triggerMatcher</text>
</g>
<!-- Node3 -->
<g id="node3" class="node">
<title>Node3</title>
<polygon fill="none" stroke="#bfbfbf" points="143,-105.5 143,-173.5 292,-173.5 292,-105.5 143,-105.5"/>
<text text-anchor="start" x="151" y="-161.5" font-family="Helvetica,sans-Serif" font-size="10.00" fill="#000000">function&lt; bool(DeviceSpec</text>
<text text-anchor="middle" x="217.5" y="-150.5" font-family="Helvetica,sans-Serif" font-size="10.00" fill="#000000"> const &amp;device)&gt;</text>
<polyline fill="none" stroke="#bfbfbf" points="143,-143.5 292,-143.5 "/>
<text text-anchor="middle" x="217.5" y="-131.5" font-family="Helvetica,sans-Serif" font-size="10.00" fill="#000000"> </text>
<polyline fill="none" stroke="#bfbfbf" points="143,-124.5 292,-124.5 "/>
<text text-anchor="middle" x="217.5" y="-112.5" font-family="Helvetica,sans-Serif" font-size="10.00" fill="#000000"> </text>
</g>
<!-- Node3&#45;&gt;Node1 -->
<g id="edge2" class="edge">
<title>Node3&#45;&gt;Node1</title>
<path fill="none" stroke="#404040" d="M218.2387,-105.3061C219.5209,-95.4448 221.9763,-84.9419 226.5,-76 228.0548,-72.9267 229.8896,-69.937 231.9192,-67.0525"/>
<polygon fill="none" stroke="#404040" points="231.931,-67.0378 232.5699,-59.855 239.4459,-57.6822 238.807,-64.865 231.931,-67.0378"/>
<text text-anchor="middle" x="268" y="-79" font-family="Helvetica,sans-Serif" font-size="10.00" fill="#000000"> +deviceMatcher</text>
</g>
<!-- Node4 -->
<g id="node4" class="node">
<title>Node4</title>
<polygon fill="none" stroke="#bfbfbf" points="309.5,-111 309.5,-168 353.5,-168 353.5,-111 309.5,-111"/>
<text text-anchor="middle" x="331.5" y="-156" font-family="Helvetica,sans-Serif" font-size="10.00" fill="#000000">string</text>
<polyline fill="none" stroke="#bfbfbf" points="309.5,-149 353.5,-149 "/>
<text text-anchor="middle" x="331.5" y="-137" font-family="Helvetica,sans-Serif" font-size="10.00" fill="#000000"> </text>
<polyline fill="none" stroke="#bfbfbf" points="309.5,-130 353.5,-130 "/>
<text text-anchor="middle" x="331.5" y="-118" font-family="Helvetica,sans-Serif" font-size="10.00" fill="#000000"> </text>
</g>
<!-- Node4&#45;&gt;Node1 -->
<g id="edge3" class="edge">
<title>Node4&#45;&gt;Node1</title>
<path fill="none" stroke="#404040" d="M323.6508,-110.9032C320.0516,-99.6962 315.2854,-86.9306 309.5,-76 308.0633,-73.2856 306.4788,-70.5578 304.8012,-67.8575"/>
<polygon fill="none" stroke="#404040" points="304.6564,-67.641 297.9961,-64.8768 297.986,-57.6657 304.6463,-60.4299 304.6564,-67.641"/>
<text text-anchor="middle" x="333.5" y="-79" font-family="Helvetica,sans-Serif" font-size="10.00" fill="#000000"> +name</text>
</g>
<!-- Node5 -->
<g id="node5" class="node">
<title>Node5</title>
<polygon fill="none" stroke="#bfbfbf" points="372,-111 372,-168 445,-168 445,-111 372,-111"/>
<text text-anchor="middle" x="408.5" y="-156" font-family="Helvetica,sans-Serif" font-size="10.00" fill="#000000">DispatchOp</text>
<polyline fill="none" stroke="#bfbfbf" points="372,-149 445,-149 "/>
<text text-anchor="middle" x="408.5" y="-137" font-family="Helvetica,sans-Serif" font-size="10.00" fill="#000000"> </text>
<polyline fill="none" stroke="#bfbfbf" points="372,-130 445,-130 "/>
<text text-anchor="middle" x="408.5" y="-118" font-family="Helvetica,sans-Serif" font-size="10.00" fill="#000000"> </text>
</g>
<!-- Node5&#45;&gt;Node1 -->
<g id="edge4" class="edge">
<title>Node5&#45;&gt;Node1</title>
<path fill="none" stroke="#404040" d="M389.2184,-110.9284C380.4314,-99.2166 369.349,-86.0757 357.5,-76 352.7338,-71.9471 347.5666,-68.0668 342.2206,-64.3964"/>
<polygon fill="none" stroke="#404040" points="341.8383,-64.1478 334.6276,-64.2306 331.7779,-57.6065 338.9885,-57.5237 341.8383,-64.1478"/>
<text text-anchor="middle" x="389.5" y="-79" font-family="Helvetica,sans-Serif" font-size="10.00" fill="#000000"> +action</text>
</g>
</g>
</svg>
