<?xml version="1.0" encoding="UTF-8" standalone="no"?>
<!DOCTYPE svg PUBLIC "-//W3C//DTD SVG 1.1//EN"
 "http://www.w3.org/Graphics/SVG/1.1/DTD/svg11.dtd">
<!-- Generated by graphviz version 2.40.1 (20161225.0304)
 -->
<!-- Title: /home/travis/build/AliceO2Group/AliceO2/Detectors/TOF/calibration/include/TOFCalibration/CalibTOFapi.h Pages: 1 -->
<svg width="762pt" height="240pt"
 viewBox="0.00 0.00 761.50 240.00" xmlns="http://www.w3.org/2000/svg" xmlns:xlink="http://www.w3.org/1999/xlink">
<g id="graph0" class="graph" transform="scale(1 1) rotate(0) translate(4 236)">
<title>/home/travis/build/AliceO2Group/AliceO2/Detectors/TOF/calibration/include/TOFCalibration/CalibTOFapi.h</title>
<!-- Node0 -->
<g id="node1" class="node">
<title>Node0</title>
<polygon fill="#bfbfbf" stroke="#000000" points="306,-179.5 306,-231.5 506,-231.5 506,-179.5 306,-179.5"/>
<text text-anchor="start" x="314" y="-219.5" font-family="Helvetica,sans-Serif" font-size="10.00" fill="#000000">/home/travis/build</text>
<text text-anchor="start" x="314" y="-208.5" font-family="Helvetica,sans-Serif" font-size="10.00" fill="#000000">/AliceO2Group/AliceO2</text>
<text text-anchor="start" x="314" y="-197.5" font-family="Helvetica,sans-Serif" font-size="10.00" fill="#000000">/Detectors/TOF/calibration</text>
<text text-anchor="middle" x="406" y="-186.5" font-family="Helvetica,sans-Serif" font-size="10.00" fill="#000000">/include/TOFCalibration/CalibTOFapi.h</text>
</g>
<!-- Node1 -->
<g id="node2" class="node">
<title>Node1</title>
<polygon fill="none" stroke="#bfbfbf" points="0,-.5 0,-19.5 60,-19.5 60,-.5 0,-.5"/>
<text text-anchor="middle" x="30" y="-7.5" font-family="Helvetica,sans-Serif" font-size="10.00" fill="#000000">iostream</text>
</g>
<!-- Node0&#45;&gt;Node1 -->
<g id="edge1" class="edge">
<title>Node0&#45;&gt;Node1</title>
<path fill="none" stroke="#191970" d="M319.2061,-179.4101C290.2064,-169.4591 258.1263,-157.0768 230,-143 159.8727,-107.9024 84.8461,-52.596 49.9636,-25.7134"/>
<polygon fill="#191970" stroke="#191970" points="52.0328,-22.8888 41.9876,-19.5208 47.74,-28.418 52.0328,-22.8888"/>
</g>
<!-- Node2 -->
<g id="node3" class="node">
<title>Node2</title>
<g id="a_node3"><a xlink:href="../../d5/df3/BasicCCDBManager_8h.html" target="_top" xlink:title="CCDB/BasicCCDBManager.h">
<polygon fill="none" stroke="#000000" points="239,-118 239,-137 391,-137 391,-118 239,-118"/>
<text text-anchor="middle" x="315" y="-125" font-family="Helvetica,sans-Serif" font-size="10.00" fill="#000000">CCDB/BasicCCDBManager.h</text>
</a>
</g>
</g>
<!-- Node0&#45;&gt;Node2 -->
<g id="edge2" class="edge">
<title>Node0&#45;&gt;Node2</title>
<path fill="none" stroke="#191970" d="M375.4452,-179.3101C361.6848,-167.5155 345.8729,-153.9625 333.8732,-143.677"/>
<polygon fill="#191970" stroke="#191970" points="336.1172,-140.9907 326.2468,-137.1401 331.5616,-146.3055 336.1172,-140.9907"/>
</g>
<!-- Node11 -->
<g id="node12" class="node">
<title>Node11</title>
<g id="a_node12"><a xlink:href="../../d8/de0/CalibLHCphaseTOF_8h.html" target="_top" xlink:title="Class to store the output of the matching to TOF for calibration. ">
<polygon fill="none" stroke="#000000" points="409.5,-112.5 409.5,-142.5 584.5,-142.5 584.5,-112.5 409.5,-112.5"/>
<text text-anchor="start" x="417.5" y="-130.5" font-family="Helvetica,sans-Serif" font-size="10.00" fill="#000000">DataFormatsTOF/CalibLHCphase</text>
<text text-anchor="middle" x="497" y="-119.5" font-family="Helvetica,sans-Serif" font-size="10.00" fill="#000000">TOF.h</text>
</a>
</g>
</g>
<!-- Node0&#45;&gt;Node11 -->
<g id="edge14" class="edge">
<title>Node0&#45;&gt;Node11</title>
<path fill="none" stroke="#191970" d="M436.5548,-179.3101C447.911,-169.5763 460.6645,-158.6447 471.5193,-149.3406"/>
<polygon fill="#191970" stroke="#191970" points="474.0805,-151.7551 479.3953,-142.5897 469.5249,-146.4403 474.0805,-151.7551"/>
</g>
<!-- Node14 -->
<g id="node15" class="node">
<title>Node14</title>
<g id="a_node15"><a xlink:href="../../d3/d81/CalibTimeSlewingParamTOF_8h.html" target="_top" xlink:title="Class to store the output of the matching to TOF for calibration. ">
<polygon fill="none" stroke="#000000" points="602.5,-112.5 602.5,-142.5 753.5,-142.5 753.5,-112.5 602.5,-112.5"/>
<text text-anchor="start" x="610.5" y="-130.5" font-family="Helvetica,sans-Serif" font-size="10.00" fill="#000000">DataFormatsTOF/CalibTime</text>
<text text-anchor="middle" x="678" y="-119.5" font-family="Helvetica,sans-Serif" font-size="10.00" fill="#000000">SlewingParamTOF.h</text>
</a>
</g>
</g>
<!-- Node0&#45;&gt;Node14 -->
<g id="edge17" class="edge">
<title>Node0&#45;&gt;Node14</title>
<path fill="none" stroke="#191970" d="M496.9502,-179.4187C536.0532,-168.2053 580.7578,-155.3856 615.9609,-145.2906"/>
<polygon fill="#191970" stroke="#191970" points="616.9777,-148.6402 625.6255,-142.5192 615.0481,-141.9114 616.9777,-148.6402"/>
</g>
<!-- Node3 -->
<g id="node4" class="node">
<title>Node3</title>
<g id="a_node4"><a xlink:href="../../dd/d3e/CcdbApi_8h.html" target="_top" xlink:title="CCDB/CcdbApi.h">
<polygon fill="none" stroke="#000000" points="191,-56.5 191,-75.5 287,-75.5 287,-56.5 191,-56.5"/>
<text text-anchor="middle" x="239" y="-63.5" font-family="Helvetica,sans-Serif" font-size="10.00" fill="#000000">CCDB/CcdbApi.h</text>
</a>
</g>
</g>
<!-- Node2&#45;&gt;Node3 -->
<g id="edge3" class="edge">
<title>Node2&#45;&gt;Node3</title>
<path fill="none" stroke="#191970" d="M303.125,-117.8906C291.3703,-108.3786 273.1514,-93.6357 259.1328,-82.2917"/>
<polygon fill="#191970" stroke="#191970" points="261.0178,-79.3146 251.0424,-75.7449 256.6144,-84.7562 261.0178,-79.3146"/>
</g>
<!-- Node4 -->
<g id="node5" class="node">
<title>Node4</title>
<polygon fill="none" stroke="#bfbfbf" points="490,-.5 490,-19.5 534,-19.5 534,-.5 490,-.5"/>
<text text-anchor="middle" x="512" y="-7.5" font-family="Helvetica,sans-Serif" font-size="10.00" fill="#000000">string</text>
</g>
<!-- Node2&#45;&gt;Node4 -->
<g id="edge12" class="edge">
<title>Node2&#45;&gt;Node4</title>
<path fill="none" stroke="#191970" d="M364.8832,-117.9472C421.032,-106.6921 505.692,-88.0085 515,-76 525.0793,-62.9964 522.9219,-43.8448 519.076,-29.5169"/>
<polygon fill="#191970" stroke="#191970" points="522.3214,-28.1702 515.9806,-19.6823 515.6444,-30.2718 522.3214,-28.1702"/>
</g>
<!-- Node6 -->
<g id="node7" class="node">
<title>Node6</title>
<polygon fill="none" stroke="#bfbfbf" points="411,-.5 411,-19.5 449,-19.5 449,-.5 411,-.5"/>
<text text-anchor="middle" x="430" y="-7.5" font-family="Helvetica,sans-Serif" font-size="10.00" fill="#000000">map</text>
</g>
<!-- Node2&#45;&gt;Node6 -->
<g id="edge13" class="edge">
<title>Node2&#45;&gt;Node6</title>
<path fill="none" stroke="#191970" d="M315.1067,-117.5433C315.7752,-102.5454 319.0871,-74.0013 334,-56 343.1595,-44.9436 376.564,-30.3633 401.4091,-20.6094"/>
<polygon fill="#191970" stroke="#191970" points="402.702,-23.8622 410.774,-16.9998 400.1844,-17.3305 402.702,-23.8622"/>
</g>
<!-- Node10 -->
<g id="node11" class="node">
<title>Node10</title>
<g id="a_node11"><a xlink:href="../../da/d86/CCDBTimeStampUtils_8h.html" target="_top" xlink:title="CCDB/CCDBTimeStampUtils.h">
<polygon fill="none" stroke="#000000" points="343.5,-56.5 343.5,-75.5 506.5,-75.5 506.5,-56.5 343.5,-56.5"/>
<text text-anchor="middle" x="425" y="-63.5" font-family="Helvetica,sans-Serif" font-size="10.00" fill="#000000">CCDB/CCDBTimeStampUtils.h</text>
</a>
</g>
</g>
<!-- Node2&#45;&gt;Node10 -->
<g id="edge11" class="edge">
<title>Node2&#45;&gt;Node10</title>
<path fill="none" stroke="#191970" d="M332.1875,-117.8906C350.1082,-107.8713 378.4095,-92.0483 399.0523,-80.5071"/>
<polygon fill="#191970" stroke="#191970" points="400.9128,-83.4769 407.9332,-75.5419 397.4967,-77.367 400.9128,-83.4769"/>
</g>
<!-- Node3&#45;&gt;Node1 -->
<g id="edge6" class="edge">
<title>Node3&#45;&gt;Node1</title>
<path fill="none" stroke="#191970" d="M203.0716,-56.3733C166.0021,-46.4408 108.3214,-30.9856 69.8671,-20.6821"/>
<polygon fill="#191970" stroke="#191970" points="70.6123,-17.2584 60.0471,-18.0509 68.8005,-24.0199 70.6123,-17.2584"/>
</g>
<!-- Node3&#45;&gt;Node4 -->
<g id="edge4" class="edge">
<title>Node3&#45;&gt;Node4</title>
<path fill="none" stroke="#191970" d="M285.6202,-56.4369C340.9529,-45.0866 431.7571,-26.4601 479.8226,-16.6005"/>
<polygon fill="#191970" stroke="#191970" points="480.5892,-20.0162 489.6819,-14.5781 479.1825,-13.159 480.5892,-20.0162"/>
</g>
<!-- Node5 -->
<g id="node6" class="node">
<title>Node5</title>
<polygon fill="none" stroke="#bfbfbf" points="170,-.5 170,-19.5 228,-19.5 228,-.5 170,-.5"/>
<text text-anchor="middle" x="199" y="-7.5" font-family="Helvetica,sans-Serif" font-size="10.00" fill="#000000">memory</text>
</g>
<!-- Node3&#45;&gt;Node5 -->
<g id="edge5" class="edge">
<title>Node3&#45;&gt;Node5</title>
<path fill="none" stroke="#191970" d="M232.0325,-56.2455C226.4689,-48.4564 218.522,-37.3308 211.8171,-27.9439"/>
<polygon fill="#191970" stroke="#191970" points="214.5481,-25.7457 205.8876,-19.6427 208.852,-29.8144 214.5481,-25.7457"/>
</g>
<!-- Node3&#45;&gt;Node6 -->
<g id="edge7" class="edge">
<title>Node3&#45;&gt;Node6</title>
<path fill="none" stroke="#191970" d="M274.8816,-56.4246C307.8217,-47.4891 357.9052,-33.5371 401,-20 401.0984,-19.9691 401.1971,-19.938 401.2958,-19.9069"/>
<polygon fill="#191970" stroke="#191970" points="402.2955,-23.2626 410.7062,-16.8197 400.1134,-16.6113 402.2955,-23.2626"/>
</g>
<!-- Node7 -->
<g id="node8" class="node">
<title>Node7</title>
<polygon fill="none" stroke="#bfbfbf" points="246.5,-.5 246.5,-19.5 311.5,-19.5 311.5,-.5 246.5,-.5"/>
<text text-anchor="middle" x="279" y="-7.5" font-family="Helvetica,sans-Serif" font-size="10.00" fill="#000000">curl/curl.h</text>
</g>
<!-- Node3&#45;&gt;Node7 -->
<g id="edge8" class="edge">
<title>Node3&#45;&gt;Node7</title>
<path fill="none" stroke="#191970" d="M245.9675,-56.2455C251.5311,-48.4564 259.478,-37.3308 266.1829,-27.9439"/>
<polygon fill="#191970" stroke="#191970" points="269.148,-29.8144 272.1124,-19.6427 263.4519,-25.7457 269.148,-29.8144"/>
</g>
<!-- Node8 -->
<g id="node9" class="node">
<title>Node8</title>
<polygon fill="none" stroke="#bfbfbf" points="329.5,-.5 329.5,-19.5 392.5,-19.5 392.5,-.5 329.5,-.5"/>
<text text-anchor="middle" x="361" y="-7.5" font-family="Helvetica,sans-Serif" font-size="10.00" fill="#000000">TObject.h</text>
</g>
<!-- Node3&#45;&gt;Node8 -->
<g id="edge9" class="edge">
<title>Node3&#45;&gt;Node8</title>
<path fill="none" stroke="#191970" d="M259.9725,-56.3733C279.5567,-47.3838 308.9961,-33.8706 331.051,-23.7471"/>
<polygon fill="#191970" stroke="#191970" points="332.6729,-26.8538 340.3011,-19.5011 329.7527,-20.4919 332.6729,-26.8538"/>
</g>
<!-- Node9 -->
<g id="node10" class="node">
<title>Node9</title>
<polygon fill="none" stroke="#bfbfbf" points="78,-.5 78,-19.5 152,-19.5 152,-.5 78,-.5"/>
<text text-anchor="middle" x="115" y="-7.5" font-family="Helvetica,sans-Serif" font-size="10.00" fill="#000000">TMessage.h</text>
</g>
<!-- Node3&#45;&gt;Node9 -->
<g id="edge10" class="edge">
<title>Node3&#45;&gt;Node9</title>
<path fill="none" stroke="#191970" d="M217.6836,-56.3733C197.7784,-47.3838 167.8564,-33.8706 145.44,-23.7471"/>
<polygon fill="#191970" stroke="#191970" points="146.5925,-20.4272 136.0382,-19.5011 143.7113,-26.8068 146.5925,-20.4272"/>
</g>
<!-- Node12 -->
<g id="node13" class="node">
<title>Node12</title>
<polygon fill="none" stroke="#bfbfbf" points="651.5,-56.5 651.5,-75.5 698.5,-75.5 698.5,-56.5 651.5,-56.5"/>
<text text-anchor="middle" x="675" y="-63.5" font-family="Helvetica,sans-Serif" font-size="10.00" fill="#000000">vector</text>
</g>
<!-- Node11&#45;&gt;Node12 -->
<g id="edge15" class="edge">
<title>Node11&#45;&gt;Node12</title>
<path fill="none" stroke="#191970" d="M540.5437,-112.4554C571.6627,-101.7036 612.9167,-87.4501 641.4836,-77.5801"/>
<polygon fill="#191970" stroke="#191970" points="642.7128,-80.8585 651.0216,-74.2847 640.4268,-74.2423 642.7128,-80.8585"/>
</g>
<!-- Node13 -->
<g id="node14" class="node">
<title>Node13</title>
<polygon fill="none" stroke="#bfbfbf" points="567.5,-56.5 567.5,-75.5 626.5,-75.5 626.5,-56.5 567.5,-56.5"/>
<text text-anchor="middle" x="597" y="-63.5" font-family="Helvetica,sans-Serif" font-size="10.00" fill="#000000">Rtypes.h</text>
</g>
<!-- Node11&#45;&gt;Node13 -->
<g id="edge16" class="edge">
<title>Node11&#45;&gt;Node13</title>
<path fill="none" stroke="#191970" d="M521.4628,-112.4554C537.1235,-102.8241 557.3532,-90.3828 572.9356,-80.7996"/>
<polygon fill="#191970" stroke="#191970" points="574.819,-83.7503 581.5035,-75.5303 571.152,-77.7876 574.819,-83.7503"/>
</g>
<!-- Node14&#45;&gt;Node12 -->
<g id="edge18" class="edge">
<title>Node14&#45;&gt;Node12</title>
<path fill="none" stroke="#191970" d="M677.2584,-112.2977C676.8724,-104.3834 676.3953,-94.6043 675.9793,-86.0759"/>
<polygon fill="#191970" stroke="#191970" points="679.4635,-85.6645 675.4803,-75.8469 672.4718,-86.0056 679.4635,-85.6645"/>
</g>
<!-- Node14&#45;&gt;Node13 -->
<g id="edge19" class="edge">
<title>Node14&#45;&gt;Node13</title>
<path fill="none" stroke="#191970" d="M657.9775,-112.2977C645.914,-103.1384 630.5612,-91.4816 618.2789,-82.1562"/>
<polygon fill="#191970" stroke="#191970" points="620.0501,-79.1065 609.9691,-75.8469 615.8171,-84.6816 620.0501,-79.1065"/>
</g>
</g>
</svg>
