<?xml version="1.0" encoding="UTF-8" standalone="no"?>
<!DOCTYPE svg PUBLIC "-//W3C//DTD SVG 1.1//EN"
 "http://www.w3.org/Graphics/SVG/1.1/DTD/svg11.dtd">
<!-- Generated by graphviz version 2.40.1 (20161225.0304)
 -->
<!-- Title: o2::framework::DataRelayer::RecordAction Pages: 1 -->
<svg width="283pt" height="320pt"
 viewBox="0.00 0.00 283.00 320.00" xmlns="http://www.w3.org/2000/svg" xmlns:xlink="http://www.w3.org/1999/xlink">
<g id="graph0" class="graph" transform="scale(1 1) rotate(0) translate(4 316)">
<title>o2::framework::DataRelayer::RecordAction</title>
<!-- Node1 -->
<g id="node1" class="node">
<title>Node1</title>
<polygon fill="#bfbfbf" stroke="#000000" points="0,-.5 0,-68.5 154,-68.5 154,-.5 0,-.5"/>
<text text-anchor="start" x="8" y="-56.5" font-family="Helvetica,sans-Serif" font-size="10.00" fill="#000000">o2::framework::DataRelayer</text>
<text text-anchor="middle" x="77" y="-45.5" font-family="Helvetica,sans-Serif" font-size="10.00" fill="#000000">::RecordAction</text>
<polyline fill="none" stroke="#000000" points="0,-38.5 154,-38.5 "/>
<text text-anchor="middle" x="77" y="-26.5" font-family="Helvetica,sans-Serif" font-size="10.00" fill="#000000"> </text>
<polyline fill="none" stroke="#000000" points="0,-19.5 154,-19.5 "/>
<text text-anchor="middle" x="77" y="-7.5" font-family="Helvetica,sans-Serif" font-size="10.00" fill="#000000"> </text>
</g>
<!-- Node2 -->
<g id="node2" class="node">
<title>Node2</title>
<polygon fill="none" stroke="#bfbfbf" points="11,-127.5 11,-184.5 97,-184.5 97,-127.5 11,-127.5"/>
<text text-anchor="middle" x="54" y="-172.5" font-family="Helvetica,sans-Serif" font-size="10.00" fill="#000000">CompletionOp</text>
<polyline fill="none" stroke="#bfbfbf" points="11,-165.5 97,-165.5 "/>
<text text-anchor="middle" x="54" y="-153.5" font-family="Helvetica,sans-Serif" font-size="10.00" fill="#000000"> </text>
<polyline fill="none" stroke="#bfbfbf" points="11,-146.5 97,-146.5 "/>
<text text-anchor="middle" x="54" y="-134.5" font-family="Helvetica,sans-Serif" font-size="10.00" fill="#000000"> </text>
</g>
<!-- Node2&#45;&gt;Node1 -->
<g id="edge1" class="edge">
<title>Node2&#45;&gt;Node1</title>
<path fill="none" stroke="#404040" d="M59.4507,-127.2062C62.0712,-113.3632 65.2775,-96.4255 68.2292,-80.8327"/>
<polygon fill="none" stroke="#404040" points="68.2937,-80.4913 65.4796,-73.852 70.5258,-68.7007 73.34,-75.3401 68.2937,-80.4913"/>
<text text-anchor="middle" x="79" y="-90" font-family="Helvetica,sans-Serif" font-size="10.00" fill="#000000"> +op</text>
</g>
<!-- Node3 -->
<g id="node3" class="node">
<title>Node3</title>
<g id="a_node3"><a xlink:href="../../da/dca/structo2_1_1framework_1_1TimesliceSlot.html" target="_top" xlink:title="{o2::framework::TimesliceSlot\n||+ operator==()\l+ operator!=()\l+ isValid()\l}">
<polygon fill="none" stroke="#000000" points="115,-116.5 115,-195.5 275,-195.5 275,-116.5 115,-116.5"/>
<text text-anchor="middle" x="195" y="-183.5" font-family="Helvetica,sans-Serif" font-size="10.00" fill="#000000">o2::framework::TimesliceSlot</text>
<polyline fill="none" stroke="#000000" points="115,-176.5 275,-176.5 "/>
<text text-anchor="middle" x="195" y="-164.5" font-family="Helvetica,sans-Serif" font-size="10.00" fill="#000000"> </text>
<polyline fill="none" stroke="#000000" points="115,-157.5 275,-157.5 "/>
<text text-anchor="start" x="123" y="-145.5" font-family="Helvetica,sans-Serif" font-size="10.00" fill="#000000">+ operator==()</text>
<text text-anchor="start" x="123" y="-134.5" font-family="Helvetica,sans-Serif" font-size="10.00" fill="#000000">+ operator!=()</text>
<text text-anchor="start" x="123" y="-123.5" font-family="Helvetica,sans-Serif" font-size="10.00" fill="#000000">+ isValid()</text>
</a>
</g>
</g>
<!-- Node3&#45;&gt;Node1 -->
<g id="edge2" class="edge">
<title>Node3&#45;&gt;Node1</title>
<path fill="none" stroke="#404040" d="M156.3624,-116.2164C144.3552,-103.853 131.0655,-90.1691 118.8499,-77.5913"/>
<polygon fill="none" stroke="#404040" points="118.5391,-77.2712 111.4894,-75.7538 110.1787,-68.6628 117.2284,-70.1802 118.5391,-77.2712"/>
<text text-anchor="middle" x="151" y="-90" font-family="Helvetica,sans-Serif" font-size="10.00" fill="#000000"> +slot</text>
</g>
<!-- Node4 -->
<g id="node4" class="node">
<title>Node4</title>
<polygon fill="none" stroke="#bfbfbf" points="141.5,-254.5 141.5,-311.5 186.5,-311.5 186.5,-254.5 141.5,-254.5"/>
<text text-anchor="middle" x="164" y="-299.5" font-family="Helvetica,sans-Serif" font-size="10.00" fill="#000000">size_t</text>
<polyline fill="none" stroke="#bfbfbf" points="141.5,-292.5 186.5,-292.5 "/>
<text text-anchor="middle" x="164" y="-280.5" font-family="Helvetica,sans-Serif" font-size="10.00" fill="#000000"> </text>
<polyline fill="none" stroke="#bfbfbf" points="141.5,-273.5 186.5,-273.5 "/>
<text text-anchor="middle" x="164" y="-261.5" font-family="Helvetica,sans-Serif" font-size="10.00" fill="#000000"> </text>
</g>
<!-- Node4&#45;&gt;Node3 -->
<g id="edge3" class="edge">
<title>Node4&#45;&gt;Node3</title>
<path fill="none" stroke="#404040" d="M162.08,-254.4211C161.9353,-241.8514 162.7272,-227.0172 166,-214 166.5765,-211.7072 167.2535,-209.4002 168.0107,-207.0969"/>
<polygon fill="none" stroke="#404040" points="168.0854,-206.9014 166.4918,-199.8686 172.3707,-195.6926 173.9643,-202.7255 168.0854,-206.9014"/>
<text text-anchor="middle" x="185.5" y="-222.5" font-family="Helvetica,sans-Serif" font-size="10.00" fill="#000000"> +index</text>
</g>
<!-- Node5 -->
<g id="node5" class="node">
<title>Node5</title>
<polygon fill="none" stroke="#bfbfbf" points="205,-254.5 205,-311.5 249,-311.5 249,-254.5 205,-254.5"/>
<text text-anchor="middle" x="227" y="-299.5" font-family="Helvetica,sans-Serif" font-size="10.00" fill="#000000">static</text>
<polyline fill="none" stroke="#bfbfbf" points="205,-292.5 249,-292.5 "/>
<text text-anchor="middle" x="227" y="-280.5" font-family="Helvetica,sans-Serif" font-size="10.00" fill="#000000"> </text>
<polyline fill="none" stroke="#bfbfbf" points="205,-273.5 249,-273.5 "/>
<text text-anchor="middle" x="227" y="-261.5" font-family="Helvetica,sans-Serif" font-size="10.00" fill="#000000"> </text>
</g>
<!-- Node5&#45;&gt;Node3 -->
<g id="edge4" class="edge">
<title>Node5&#45;&gt;Node3</title>
<path fill="none" stroke="#404040" d="M219.8186,-254.4987C216.3531,-240.7452 212.085,-223.8063 208.0715,-207.8775"/>
<polygon fill="none" stroke="#404040" points="208.0015,-207.5993 202.6567,-202.7585 205.0694,-195.963 210.4142,-200.8038 208.0015,-207.5993"/>
<text text-anchor="middle" x="239.5" y="-228" font-family="Helvetica,sans-Serif" font-size="10.00" fill="#000000"> +INVALID</text>
<text text-anchor="middle" x="239.5" y="-217" font-family="Helvetica,sans-Serif" font-size="10.00" fill="#000000">+ANY</text>
</g>
</g>
</svg>
