<?xml version="1.0" encoding="UTF-8" standalone="no"?>
<!DOCTYPE svg PUBLIC "-//W3C//DTD SVG 1.1//EN"
 "http://www.w3.org/Graphics/SVG/1.1/DTD/svg11.dtd">
<!-- Generated by graphviz version 2.40.1 (20161225.0304)
 -->
<!-- Title: o2::itsmft::ITSClusterReader Pages: 1 -->
<svg width="1535pt" height="1180pt"
 viewBox="0.00 0.00 1535.00 1180.00" xmlns="http://www.w3.org/2000/svg" xmlns:xlink="http://www.w3.org/1999/xlink">
<g id="graph0" class="graph" transform="scale(1 1) rotate(0) translate(4 1176)">
<title>o2::itsmft::ITSClusterReader</title>
<!-- Node3 -->
<g id="node1" class="node">
<title>Node3</title>
<polygon fill="#bfbfbf" stroke="#000000" points="687.5,-.5 687.5,-57.5 840.5,-57.5 840.5,-.5 687.5,-.5"/>
<text text-anchor="middle" x="764" y="-45.5" font-family="Helvetica,sans-Serif" font-size="10.00" fill="#000000">o2::itsmft::ITSClusterReader</text>
<polyline fill="none" stroke="#000000" points="687.5,-38.5 840.5,-38.5 "/>
<text text-anchor="middle" x="764" y="-26.5" font-family="Helvetica,sans-Serif" font-size="10.00" fill="#000000"> </text>
<polyline fill="none" stroke="#000000" points="687.5,-19.5 840.5,-19.5 "/>
<text text-anchor="start" x="695.5" y="-7.5" font-family="Helvetica,sans-Serif" font-size="10.00" fill="#000000">+ ITSClusterReader()</text>
</g>
<!-- Node4 -->
<g id="node2" class="node">
<title>Node4</title>
<g id="a_node2"><a xlink:href="../../d1/dc3/classo2_1_1itsmft_1_1ClusterReader.html" target="_top" xlink:title="{o2::itsmft::ClusterReader\n||+ ClusterReader()\l+ ClusterReader()\l+ ~ClusterReader()\l+ init()\l+ run()\l# read()\l}">
<polygon fill="none" stroke="#000000" points="695,-95.5 695,-207.5 833,-207.5 833,-95.5 695,-95.5"/>
<text text-anchor="middle" x="764" y="-195.5" font-family="Helvetica,sans-Serif" font-size="10.00" fill="#000000">o2::itsmft::ClusterReader</text>
<polyline fill="none" stroke="#000000" points="695,-188.5 833,-188.5 "/>
<text text-anchor="middle" x="764" y="-176.5" font-family="Helvetica,sans-Serif" font-size="10.00" fill="#000000"> </text>
<polyline fill="none" stroke="#000000" points="695,-169.5 833,-169.5 "/>
<text text-anchor="start" x="703" y="-157.5" font-family="Helvetica,sans-Serif" font-size="10.00" fill="#000000">+ ClusterReader()</text>
<text text-anchor="start" x="703" y="-146.5" font-family="Helvetica,sans-Serif" font-size="10.00" fill="#000000">+ ClusterReader()</text>
<text text-anchor="start" x="703" y="-135.5" font-family="Helvetica,sans-Serif" font-size="10.00" fill="#000000">+ ~ClusterReader()</text>
<text text-anchor="start" x="703" y="-124.5" font-family="Helvetica,sans-Serif" font-size="10.00" fill="#000000">+ init()</text>
<text text-anchor="start" x="703" y="-113.5" font-family="Helvetica,sans-Serif" font-size="10.00" fill="#000000">+ run()</text>
<text text-anchor="start" x="703" y="-102.5" font-family="Helvetica,sans-Serif" font-size="10.00" fill="#000000"># read()</text>
</a>
</g>
</g>
<!-- Node4&#45;&gt;Node3 -->
<g id="edge1" class="edge">
<title>Node4&#45;&gt;Node3</title>
<path fill="none" stroke="#191970" d="M764,-85.1308C764,-75.4223 764,-65.8865 764,-57.5083"/>
<polygon fill="none" stroke="#191970" points="760.5001,-85.2694 764,-95.2694 767.5001,-85.2694 760.5001,-85.2694"/>
</g>
<!-- Node5 -->
<g id="node3" class="node">
<title>Node5</title>
<g id="a_node3"><a xlink:href="../../de/dac/classo2_1_1framework_1_1Task.html" target="_top" xlink:title="{o2::framework::Task\n||+ ~Task()\l+ init()\l+ run()\l+ endOfStream()\l}">
<polygon fill="none" stroke="#000000" points="0,-448 0,-538 116,-538 116,-448 0,-448"/>
<text text-anchor="middle" x="58" y="-526" font-family="Helvetica,sans-Serif" font-size="10.00" fill="#000000">o2::framework::Task</text>
<polyline fill="none" stroke="#000000" points="0,-519 116,-519 "/>
<text text-anchor="middle" x="58" y="-507" font-family="Helvetica,sans-Serif" font-size="10.00" fill="#000000"> </text>
<polyline fill="none" stroke="#000000" points="0,-500 116,-500 "/>
<text text-anchor="start" x="8" y="-488" font-family="Helvetica,sans-Serif" font-size="10.00" fill="#000000">+ ~Task()</text>
<text text-anchor="start" x="8" y="-477" font-family="Helvetica,sans-Serif" font-size="10.00" fill="#000000">+ init()</text>
<text text-anchor="start" x="8" y="-466" font-family="Helvetica,sans-Serif" font-size="10.00" fill="#000000">+ run()</text>
<text text-anchor="start" x="8" y="-455" font-family="Helvetica,sans-Serif" font-size="10.00" fill="#000000">+ endOfStream()</text>
</a>
</g>
</g>
<!-- Node5&#45;&gt;Node4 -->
<g id="edge2" class="edge">
<title>Node5&#45;&gt;Node4</title>
<path fill="none" stroke="#191970" d="M69.7129,-438.0447C86.5766,-374.2342 124.4823,-271.884 201,-226 282.9152,-176.8794 563.3244,-159.4376 694.8518,-153.8596"/>
<polygon fill="none" stroke="#191970" points="66.2691,-437.3853 67.1844,-447.9405 73.0512,-439.1183 66.2691,-437.3853"/>
</g>
<!-- Node6 -->
<g id="node4" class="node">
<title>Node6</title>
<polygon fill="none" stroke="#bfbfbf" points="134,-459 134,-527 240,-527 240,-459 134,-459"/>
<text text-anchor="start" x="142" y="-515" font-family="Helvetica,sans-Serif" font-size="10.00" fill="#000000">vector&lt; o2::itsmft</text>
<text text-anchor="middle" x="187" y="-504" font-family="Helvetica,sans-Serif" font-size="10.00" fill="#000000">::Cluster &gt; *</text>
<polyline fill="none" stroke="#bfbfbf" points="134,-497 240,-497 "/>
<text text-anchor="middle" x="187" y="-485" font-family="Helvetica,sans-Serif" font-size="10.00" fill="#000000"> </text>
<polyline fill="none" stroke="#bfbfbf" points="134,-478 240,-478 "/>
<text text-anchor="middle" x="187" y="-466" font-family="Helvetica,sans-Serif" font-size="10.00" fill="#000000"> </text>
</g>
<!-- Node6&#45;&gt;Node4 -->
<g id="edge3" class="edge">
<title>Node6&#45;&gt;Node4</title>
<path fill="none" stroke="#404040" d="M185.1163,-458.7415C184.0012,-401.2733 190.8955,-285.8766 258,-226 289.1603,-198.1961 547.7808,-171.0241 682.7261,-158.5704"/>
<polygon fill="none" stroke="#404040" points="683.0422,-158.5415 688.6525,-154.0112 694.9922,-157.4475 689.3819,-161.9779 683.0422,-158.5415"/>
<text text-anchor="middle" x="306" y="-267.5" font-family="Helvetica,sans-Serif" font-size="10.00" fill="#000000"> #mClusterArrayPtr</text>
</g>
<!-- Node7 -->
<g id="node5" class="node">
<title>Node7</title>
<polygon fill="none" stroke="#bfbfbf" points="258,-459 258,-527 364,-527 364,-459 258,-459"/>
<text text-anchor="start" x="266" y="-515" font-family="Helvetica,sans-Serif" font-size="10.00" fill="#000000">vector&lt; o2::itsmft</text>
<text text-anchor="middle" x="311" y="-504" font-family="Helvetica,sans-Serif" font-size="10.00" fill="#000000">::ROFRecord &gt;</text>
<polyline fill="none" stroke="#bfbfbf" points="258,-497 364,-497 "/>
<text text-anchor="middle" x="311" y="-485" font-family="Helvetica,sans-Serif" font-size="10.00" fill="#000000"> </text>
<polyline fill="none" stroke="#bfbfbf" points="258,-478 364,-478 "/>
<text text-anchor="middle" x="311" y="-466" font-family="Helvetica,sans-Serif" font-size="10.00" fill="#000000"> </text>
</g>
<!-- Node7&#45;&gt;Node4 -->
<g id="edge4" class="edge">
<title>Node7&#45;&gt;Node4</title>
<path fill="none" stroke="#404040" d="M314.971,-458.9154C323.6241,-401.1748 349.7708,-284.6916 424,-226 463.4431,-194.8131 595.2919,-172.6899 682.7336,-161.026"/>
<polygon fill="none" stroke="#404040" points="682.8648,-161.0089 688.2942,-156.2632 694.7631,-159.4498 689.3337,-164.1954 682.8648,-161.0089"/>
<text text-anchor="middle" x="463.5" y="-267.5" font-family="Helvetica,sans-Serif" font-size="10.00" fill="#000000"> #mClusROFRec</text>
</g>
<!-- Node8 -->
<g id="node6" class="node">
<title>Node8</title>
<g id="a_node6"><a xlink:href="../../d9/db3/structo2_1_1header_1_1Descriptor.html" target="_top" xlink:title="{o2::header::Descriptor\l\&lt; gSizeDataOriginString,\l printDataOrigin \&gt;\n||+ Descriptor()\l+ Descriptor()\l+ Descriptor()\l+ Descriptor()\l+ operator=()\l+ operator ItgType()\l+ runtimeInit()\l+ operator==()\l+ operator==()\l+ operator\&lt;()\l+ operator!=()\l+ operator!=()\l+ as()\l+ print()\l}">
<polygon fill="none" stroke="#000000" points="382,-382 382,-604 520,-604 520,-382 382,-382"/>
<text text-anchor="start" x="390" y="-592" font-family="Helvetica,sans-Serif" font-size="10.00" fill="#000000">o2::header::Descriptor</text>
<text text-anchor="start" x="390" y="-581" font-family="Helvetica,sans-Serif" font-size="10.00" fill="#000000">&lt; gSizeDataOriginString,</text>
<text text-anchor="middle" x="451" y="-570" font-family="Helvetica,sans-Serif" font-size="10.00" fill="#000000"> printDataOrigin &gt;</text>
<polyline fill="none" stroke="#000000" points="382,-563 520,-563 "/>
<text text-anchor="middle" x="451" y="-551" font-family="Helvetica,sans-Serif" font-size="10.00" fill="#000000"> </text>
<polyline fill="none" stroke="#000000" points="382,-544 520,-544 "/>
<text text-anchor="start" x="390" y="-532" font-family="Helvetica,sans-Serif" font-size="10.00" fill="#000000">+ Descriptor()</text>
<text text-anchor="start" x="390" y="-521" font-family="Helvetica,sans-Serif" font-size="10.00" fill="#000000">+ Descriptor()</text>
<text text-anchor="start" x="390" y="-510" font-family="Helvetica,sans-Serif" font-size="10.00" fill="#000000">+ Descriptor()</text>
<text text-anchor="start" x="390" y="-499" font-family="Helvetica,sans-Serif" font-size="10.00" fill="#000000">+ Descriptor()</text>
<text text-anchor="start" x="390" y="-488" font-family="Helvetica,sans-Serif" font-size="10.00" fill="#000000">+ operator=()</text>
<text text-anchor="start" x="390" y="-477" font-family="Helvetica,sans-Serif" font-size="10.00" fill="#000000">+ operator ItgType()</text>
<text text-anchor="start" x="390" y="-466" font-family="Helvetica,sans-Serif" font-size="10.00" fill="#000000">+ runtimeInit()</text>
<text text-anchor="start" x="390" y="-455" font-family="Helvetica,sans-Serif" font-size="10.00" fill="#000000">+ operator==()</text>
<text text-anchor="start" x="390" y="-444" font-family="Helvetica,sans-Serif" font-size="10.00" fill="#000000">+ operator==()</text>
<text text-anchor="start" x="390" y="-433" font-family="Helvetica,sans-Serif" font-size="10.00" fill="#000000">+ operator&lt;()</text>
<text text-anchor="start" x="390" y="-422" font-family="Helvetica,sans-Serif" font-size="10.00" fill="#000000">+ operator!=()</text>
<text text-anchor="start" x="390" y="-411" font-family="Helvetica,sans-Serif" font-size="10.00" fill="#000000">+ operator!=()</text>
<text text-anchor="start" x="390" y="-400" font-family="Helvetica,sans-Serif" font-size="10.00" fill="#000000">+ as()</text>
<text text-anchor="start" x="390" y="-389" font-family="Helvetica,sans-Serif" font-size="10.00" fill="#000000">+ print()</text>
</a>
</g>
</g>
<!-- Node8&#45;&gt;Node4 -->
<g id="edge5" class="edge">
<title>Node8&#45;&gt;Node4</title>
<path fill="none" stroke="#404040" d="M477.4753,-381.756C495.0953,-328.6078 523.2753,-267.6621 567,-226 598.7359,-195.7612 643.9501,-177.5059 683.0594,-166.6419"/>
<polygon fill="none" stroke="#404040" points="683.1077,-166.6292 687.8894,-161.2315 694.711,-163.5694 689.9293,-168.9671 683.1077,-166.6292"/>
<text text-anchor="middle" x="592.5" y="-267.5" font-family="Helvetica,sans-Serif" font-size="10.00" fill="#000000"> #mOrigin</text>
</g>
<!-- Node9 -->
<g id="node7" class="node">
<title>Node9</title>
<polygon fill="none" stroke="#bfbfbf" points="362.5,-1114.5 362.5,-1171.5 401.5,-1171.5 401.5,-1114.5 362.5,-1114.5"/>
<text text-anchor="middle" x="382" y="-1159.5" font-family="Helvetica,sans-Serif" font-size="10.00" fill="#000000">Type</text>
<polyline fill="none" stroke="#bfbfbf" points="362.5,-1152.5 401.5,-1152.5 "/>
<text text-anchor="middle" x="382" y="-1140.5" font-family="Helvetica,sans-Serif" font-size="10.00" fill="#000000"> </text>
<polyline fill="none" stroke="#bfbfbf" points="362.5,-1133.5 401.5,-1133.5 "/>
<text text-anchor="middle" x="382" y="-1121.5" font-family="Helvetica,sans-Serif" font-size="10.00" fill="#000000"> </text>
</g>
<!-- Node9&#45;&gt;Node8 -->
<g id="edge6" class="edge">
<title>Node9&#45;&gt;Node8</title>
<path fill="none" stroke="#404040" d="M392.2597,-1114.4393C394.0993,-1108.4154 395.8075,-1102.0506 397,-1096 429.1596,-932.8258 411.7019,-888.608 427,-723 430.2043,-688.312 433.9936,-650.7155 437.6033,-616.1673"/>
<polygon fill="none" stroke="#404040" points="437.6188,-616.0185 434.2669,-609.6337 438.8713,-604.084 442.2232,-610.4687 437.6188,-616.0185"/>
<text text-anchor="middle" x="439.5" y="-881.5" font-family="Helvetica,sans-Serif" font-size="10.00" fill="#000000"> +itg</text>
</g>
<!-- Node13 -->
<g id="node11" class="node">
<title>Node13</title>
<g id="a_node11"><a xlink:href="../../d9/db3/structo2_1_1header_1_1Descriptor.html" target="_top" xlink:title="{o2::header::Descriptor\l\&lt; N, PrinterPolicy \&gt;\n||+ Descriptor()\l+ Descriptor()\l+ Descriptor()\l+ operator=()\l+ operator ItgType()\l+ Descriptor()\l+ runtimeInit()\l+ operator==()\l+ operator\&lt;()\l+ operator!=()\l+ operator==()\l+ operator!=()\l+ as()\l+ print()\l}">
<polygon fill="none" stroke="#000000" points="251.5,-778.5 251.5,-989.5 376.5,-989.5 376.5,-778.5 251.5,-778.5"/>
<text text-anchor="start" x="259.5" y="-977.5" font-family="Helvetica,sans-Serif" font-size="10.00" fill="#000000">o2::header::Descriptor</text>
<text text-anchor="middle" x="314" y="-966.5" font-family="Helvetica,sans-Serif" font-size="10.00" fill="#000000">&lt; N, PrinterPolicy &gt;</text>
<polyline fill="none" stroke="#000000" points="251.5,-959.5 376.5,-959.5 "/>
<text text-anchor="middle" x="314" y="-947.5" font-family="Helvetica,sans-Serif" font-size="10.00" fill="#000000"> </text>
<polyline fill="none" stroke="#000000" points="251.5,-940.5 376.5,-940.5 "/>
<text text-anchor="start" x="259.5" y="-928.5" font-family="Helvetica,sans-Serif" font-size="10.00" fill="#000000">+ Descriptor()</text>
<text text-anchor="start" x="259.5" y="-917.5" font-family="Helvetica,sans-Serif" font-size="10.00" fill="#000000">+ Descriptor()</text>
<text text-anchor="start" x="259.5" y="-906.5" font-family="Helvetica,sans-Serif" font-size="10.00" fill="#000000">+ Descriptor()</text>
<text text-anchor="start" x="259.5" y="-895.5" font-family="Helvetica,sans-Serif" font-size="10.00" fill="#000000">+ operator=()</text>
<text text-anchor="start" x="259.5" y="-884.5" font-family="Helvetica,sans-Serif" font-size="10.00" fill="#000000">+ operator ItgType()</text>
<text text-anchor="start" x="259.5" y="-873.5" font-family="Helvetica,sans-Serif" font-size="10.00" fill="#000000">+ Descriptor()</text>
<text text-anchor="start" x="259.5" y="-862.5" font-family="Helvetica,sans-Serif" font-size="10.00" fill="#000000">+ runtimeInit()</text>
<text text-anchor="start" x="259.5" y="-851.5" font-family="Helvetica,sans-Serif" font-size="10.00" fill="#000000">+ operator==()</text>
<text text-anchor="start" x="259.5" y="-840.5" font-family="Helvetica,sans-Serif" font-size="10.00" fill="#000000">+ operator&lt;()</text>
<text text-anchor="start" x="259.5" y="-829.5" font-family="Helvetica,sans-Serif" font-size="10.00" fill="#000000">+ operator!=()</text>
<text text-anchor="start" x="259.5" y="-818.5" font-family="Helvetica,sans-Serif" font-size="10.00" fill="#000000">+ operator==()</text>
<text text-anchor="start" x="259.5" y="-807.5" font-family="Helvetica,sans-Serif" font-size="10.00" fill="#000000">+ operator!=()</text>
<text text-anchor="start" x="259.5" y="-796.5" font-family="Helvetica,sans-Serif" font-size="10.00" fill="#000000">+ as()</text>
<text text-anchor="start" x="259.5" y="-785.5" font-family="Helvetica,sans-Serif" font-size="10.00" fill="#000000">+ print()</text>
</a>
</g>
</g>
<!-- Node9&#45;&gt;Node13 -->
<g id="edge11" class="edge">
<title>Node9&#45;&gt;Node13</title>
<path fill="none" stroke="#404040" d="M374.463,-1114.2929C367.2248,-1086.724 355.7992,-1043.2056 344.8197,-1001.3869"/>
<polygon fill="none" stroke="#404040" points="344.786,-1001.2583 339.3935,-996.4707 341.7387,-989.6516 347.1312,-994.4392 344.786,-1001.2583"/>
<text text-anchor="middle" x="380.5" y="-1077" font-family="Helvetica,sans-Serif" font-size="10.00" fill="#000000"> +itg</text>
</g>
<!-- Node10 -->
<g id="node8" class="node">
<title>Node10</title>
<polygon fill="none" stroke="#bfbfbf" points="448,-1114.5 448,-1171.5 486,-1171.5 486,-1114.5 448,-1114.5"/>
<text text-anchor="middle" x="467" y="-1159.5" font-family="Helvetica,sans-Serif" font-size="10.00" fill="#000000">char</text>
<polyline fill="none" stroke="#bfbfbf" points="448,-1152.5 486,-1152.5 "/>
<text text-anchor="middle" x="467" y="-1140.5" font-family="Helvetica,sans-Serif" font-size="10.00" fill="#000000"> </text>
<polyline fill="none" stroke="#bfbfbf" points="448,-1133.5 486,-1133.5 "/>
<text text-anchor="middle" x="467" y="-1121.5" font-family="Helvetica,sans-Serif" font-size="10.00" fill="#000000"> </text>
</g>
<!-- Node10&#45;&gt;Node8 -->
<g id="edge7" class="edge">
<title>Node10&#45;&gt;Node8</title>
<path fill="none" stroke="#404040" d="M466.2919,-1114.2316C464.1853,-1028.6527 457.8676,-771.9968 454.0435,-616.641"/>
<polygon fill="none" stroke="#404040" points="454.0338,-616.244 449.8873,-610.3443 453.7384,-604.2476 457.8849,-610.1473 454.0338,-616.244"/>
<text text-anchor="middle" x="476.5" y="-881.5" font-family="Helvetica,sans-Serif" font-size="10.00" fill="#000000"> +str</text>
</g>
<!-- Node10&#45;&gt;Node13 -->
<g id="edge12" class="edge">
<title>Node10&#45;&gt;Node13</title>
<path fill="none" stroke="#404040" d="M447.7433,-1120.5812C431.7093,-1101.3037 408.8574,-1072.3607 392,-1045 383.3474,-1030.9563 374.9279,-1015.8103 367.0172,-1000.6238"/>
<polygon fill="none" stroke="#404040" points="366.8264,-1000.2516 360.5292,-996.7378 361.3508,-989.5737 367.6479,-993.0874 366.8264,-1000.2516"/>
<text text-anchor="middle" x="438.5" y="-1077" font-family="Helvetica,sans-Serif" font-size="10.00" fill="#000000"> +str</text>
</g>
<!-- Node11 -->
<g id="node9" class="node">
<title>Node11</title>
<polygon fill="none" stroke="#bfbfbf" points="530.5,-855.5 530.5,-912.5 559.5,-912.5 559.5,-855.5 530.5,-855.5"/>
<text text-anchor="middle" x="545" y="-900.5" font-family="Helvetica,sans-Serif" font-size="10.00" fill="#000000">int</text>
<polyline fill="none" stroke="#bfbfbf" points="530.5,-893.5 559.5,-893.5 "/>
<text text-anchor="middle" x="545" y="-881.5" font-family="Helvetica,sans-Serif" font-size="10.00" fill="#000000"> </text>
<polyline fill="none" stroke="#bfbfbf" points="530.5,-874.5 559.5,-874.5 "/>
<text text-anchor="middle" x="545" y="-862.5" font-family="Helvetica,sans-Serif" font-size="10.00" fill="#000000"> </text>
</g>
<!-- Node11&#45;&gt;Node8 -->
<g id="edge8" class="edge">
<title>Node11&#45;&gt;Node8</title>
<path fill="none" stroke="#404040" d="M540.6985,-855.328C535.6483,-822.9963 526.6022,-768.9384 516,-723 507.9099,-687.946 497.8442,-650.2552 488.069,-615.7342"/>
<polygon fill="none" stroke="#404040" points="488.0585,-615.6971 482.5667,-611.0238 484.7684,-604.157 490.2602,-608.8303 488.0585,-615.6971"/>
<text text-anchor="middle" x="540" y="-697" font-family="Helvetica,sans-Serif" font-size="10.00" fill="#000000"> +arraySize</text>
<text text-anchor="middle" x="540" y="-686" font-family="Helvetica,sans-Serif" font-size="10.00" fill="#000000">+size</text>
<text text-anchor="middle" x="540" y="-675" font-family="Helvetica,sans-Serif" font-size="10.00" fill="#000000">+bitcount</text>
</g>
<!-- Node12 -->
<g id="node10" class="node">
<title>Node12</title>
<polygon fill="none" stroke="#bfbfbf" points="145.5,-1114.5 145.5,-1171.5 252.5,-1171.5 252.5,-1114.5 145.5,-1114.5"/>
<text text-anchor="middle" x="199" y="-1159.5" font-family="Helvetica,sans-Serif" font-size="10.00" fill="#000000">anonymous:+@24</text>
<polyline fill="none" stroke="#bfbfbf" points="145.5,-1152.5 252.5,-1152.5 "/>
<text text-anchor="middle" x="199" y="-1140.5" font-family="Helvetica,sans-Serif" font-size="10.00" fill="#000000"> </text>
<polyline fill="none" stroke="#bfbfbf" points="145.5,-1133.5 252.5,-1133.5 "/>
<text text-anchor="middle" x="199" y="-1121.5" font-family="Helvetica,sans-Serif" font-size="10.00" fill="#000000"> </text>
</g>
<!-- Node12&#45;&gt;Node8 -->
<g id="edge9" class="edge">
<title>Node12&#45;&gt;Node8</title>
<path fill="none" stroke="#404040" d="M193.0211,-1114.3574C179.7974,-1044.386 153.4345,-860.4376 209,-723 220.5535,-694.4231 228.7945,-686.4908 256,-672 302.4354,-647.2664 330.6796,-685.2568 373,-654 387.2094,-643.5053 398.955,-629.7271 408.6302,-614.6423"/>
<polygon fill="none" stroke="#404040" points="408.8316,-614.3063 408.4864,-607.1034 415.0025,-604.0145 415.3476,-611.2174 408.8316,-614.3063"/>
<text text-anchor="middle" x="226" y="-881.5" font-family="Helvetica,sans-Serif" font-size="10.00" fill="#000000"> +@24</text>
</g>
<!-- Node12&#45;&gt;Node13 -->
<g id="edge13" class="edge">
<title>Node12&#45;&gt;Node13</title>
<path fill="none" stroke="#404040" d="M211.7464,-1114.2929C224.0397,-1086.6062 243.4755,-1042.8334 262.1164,-1000.8509"/>
<polygon fill="none" stroke="#404040" points="262.2193,-1000.6191 260.9983,-993.5121 267.089,-989.6516 268.31,-996.7586 262.2193,-1000.6191"/>
<text text-anchor="middle" x="250" y="-1077" font-family="Helvetica,sans-Serif" font-size="10.00" fill="#000000"> +@24</text>
</g>
<!-- Node13&#45;&gt;Node8 -->
<g id="edge10" class="edge">
<title>Node13&#45;&gt;Node8</title>
<path fill="none" stroke="#ffa500" d="M259.6242,-768.1995C251.7782,-734.0788 252.7085,-698.7587 275,-672 303.3444,-637.9753 337.7635,-680.823 373,-654 390.1758,-640.9253 403.7745,-623.0835 414.4725,-604.0266"/>
<polygon fill="#ffa500" stroke="#ffa500" points="256.3275,-769.4358 262.1921,-778.2594 263.11,-767.7044 256.3275,-769.4358"/>
<text text-anchor="start" x="275" y="-691.5" font-family="Helvetica,sans-Serif" font-size="10.00" fill="#000000"> &lt; gSizeDataOriginString,</text>
<text text-anchor="middle" x="337.5" y="-680.5" font-family="Helvetica,sans-Serif" font-size="10.00" fill="#000000"> printDataOrigin &gt;</text>
</g>
<!-- Node14 -->
<g id="node12" class="node">
<title>Node14</title>
<polygon fill="none" stroke="#bfbfbf" points="271,-1114.5 271,-1171.5 315,-1171.5 315,-1114.5 271,-1114.5"/>
<text text-anchor="middle" x="293" y="-1159.5" font-family="Helvetica,sans-Serif" font-size="10.00" fill="#000000">static</text>
<polyline fill="none" stroke="#bfbfbf" points="271,-1152.5 315,-1152.5 "/>
<text text-anchor="middle" x="293" y="-1140.5" font-family="Helvetica,sans-Serif" font-size="10.00" fill="#000000"> </text>
<polyline fill="none" stroke="#bfbfbf" points="271,-1133.5 315,-1133.5 "/>
<text text-anchor="middle" x="293" y="-1121.5" font-family="Helvetica,sans-Serif" font-size="10.00" fill="#000000"> </text>
</g>
<!-- Node14&#45;&gt;Node13 -->
<g id="edge14" class="edge">
<title>Node14&#45;&gt;Node13</title>
<path fill="none" stroke="#404040" d="M292.6737,-1114.4651C292.6713,-1099.1861 292.9434,-1080.052 294,-1063 295.2229,-1043.2646 297.0619,-1022.3574 299.1381,-1002.0615"/>
<polygon fill="none" stroke="#404040" points="299.1662,-1001.7932 295.8157,-995.4077 300.4214,-989.859 303.7719,-996.2445 299.1662,-1001.7932"/>
<text text-anchor="middle" x="323" y="-1088" font-family="Helvetica,sans-Serif" font-size="10.00" fill="#000000"> +arraySize</text>
<text text-anchor="middle" x="323" y="-1077" font-family="Helvetica,sans-Serif" font-size="10.00" fill="#000000">+size</text>
<text text-anchor="middle" x="323" y="-1066" font-family="Helvetica,sans-Serif" font-size="10.00" fill="#000000">+bitcount</text>
</g>
<!-- Node15 -->
<g id="node13" class="node">
<title>Node15</title>
<g id="a_node13"><a xlink:href="../../dc/daa/classo2_1_1dataformats_1_1MCTruthContainer.html" target="_top" xlink:title="{o2::dataformats::MCTruth\lContainer\&lt; o2::MCCompLabel \&gt;\n||+ MCTruthContainer()\l+ MCTruthContainer()\l+ MCTruthContainer()\l+ ~MCTruthContainer()\l+ operator=()\l+ operator=()\l+ getMCTruthHeader()\l+ getElement()\l+ getIndexedSize()\l+ getNElements()\l+ getLabels()\l+ getLabels()\l+ clear()\l+ addElement()\l+ addElements()\l+ addElements()\l+ addElementRandomAccess()\l+ mergeAtBack()\l+ flatten_to()\l+ restore_from()\l+ print()\l+ inflate()\l+ deflate()\l+ ClassDefNV()\l}">
<polygon fill="none" stroke="#000000" points="538,-332.5 538,-653.5 712,-653.5 712,-332.5 538,-332.5"/>
<text text-anchor="start" x="546" y="-641.5" font-family="Helvetica,sans-Serif" font-size="10.00" fill="#000000">o2::dataformats::MCTruth</text>
<text text-anchor="middle" x="625" y="-630.5" font-family="Helvetica,sans-Serif" font-size="10.00" fill="#000000">Container&lt; o2::MCCompLabel &gt;</text>
<polyline fill="none" stroke="#000000" points="538,-623.5 712,-623.5 "/>
<text text-anchor="middle" x="625" y="-611.5" font-family="Helvetica,sans-Serif" font-size="10.00" fill="#000000"> </text>
<polyline fill="none" stroke="#000000" points="538,-604.5 712,-604.5 "/>
<text text-anchor="start" x="546" y="-592.5" font-family="Helvetica,sans-Serif" font-size="10.00" fill="#000000">+ MCTruthContainer()</text>
<text text-anchor="start" x="546" y="-581.5" font-family="Helvetica,sans-Serif" font-size="10.00" fill="#000000">+ MCTruthContainer()</text>
<text text-anchor="start" x="546" y="-570.5" font-family="Helvetica,sans-Serif" font-size="10.00" fill="#000000">+ MCTruthContainer()</text>
<text text-anchor="start" x="546" y="-559.5" font-family="Helvetica,sans-Serif" font-size="10.00" fill="#000000">+ ~MCTruthContainer()</text>
<text text-anchor="start" x="546" y="-548.5" font-family="Helvetica,sans-Serif" font-size="10.00" fill="#000000">+ operator=()</text>
<text text-anchor="start" x="546" y="-537.5" font-family="Helvetica,sans-Serif" font-size="10.00" fill="#000000">+ operator=()</text>
<text text-anchor="start" x="546" y="-526.5" font-family="Helvetica,sans-Serif" font-size="10.00" fill="#000000">+ getMCTruthHeader()</text>
<text text-anchor="start" x="546" y="-515.5" font-family="Helvetica,sans-Serif" font-size="10.00" fill="#000000">+ getElement()</text>
<text text-anchor="start" x="546" y="-504.5" font-family="Helvetica,sans-Serif" font-size="10.00" fill="#000000">+ getIndexedSize()</text>
<text text-anchor="start" x="546" y="-493.5" font-family="Helvetica,sans-Serif" font-size="10.00" fill="#000000">+ getNElements()</text>
<text text-anchor="start" x="546" y="-482.5" font-family="Helvetica,sans-Serif" font-size="10.00" fill="#000000">+ getLabels()</text>
<text text-anchor="start" x="546" y="-471.5" font-family="Helvetica,sans-Serif" font-size="10.00" fill="#000000">+ getLabels()</text>
<text text-anchor="start" x="546" y="-460.5" font-family="Helvetica,sans-Serif" font-size="10.00" fill="#000000">+ clear()</text>
<text text-anchor="start" x="546" y="-449.5" font-family="Helvetica,sans-Serif" font-size="10.00" fill="#000000">+ addElement()</text>
<text text-anchor="start" x="546" y="-438.5" font-family="Helvetica,sans-Serif" font-size="10.00" fill="#000000">+ addElements()</text>
<text text-anchor="start" x="546" y="-427.5" font-family="Helvetica,sans-Serif" font-size="10.00" fill="#000000">+ addElements()</text>
<text text-anchor="start" x="546" y="-416.5" font-family="Helvetica,sans-Serif" font-size="10.00" fill="#000000">+ addElementRandomAccess()</text>
<text text-anchor="start" x="546" y="-405.5" font-family="Helvetica,sans-Serif" font-size="10.00" fill="#000000">+ mergeAtBack()</text>
<text text-anchor="start" x="546" y="-394.5" font-family="Helvetica,sans-Serif" font-size="10.00" fill="#000000">+ flatten_to()</text>
<text text-anchor="start" x="546" y="-383.5" font-family="Helvetica,sans-Serif" font-size="10.00" fill="#000000">+ restore_from()</text>
<text text-anchor="start" x="546" y="-372.5" font-family="Helvetica,sans-Serif" font-size="10.00" fill="#000000">+ print()</text>
<text text-anchor="start" x="546" y="-361.5" font-family="Helvetica,sans-Serif" font-size="10.00" fill="#000000">+ inflate()</text>
<text text-anchor="start" x="546" y="-350.5" font-family="Helvetica,sans-Serif" font-size="10.00" fill="#000000">+ deflate()</text>
<text text-anchor="start" x="546" y="-339.5" font-family="Helvetica,sans-Serif" font-size="10.00" fill="#000000">+ ClassDefNV()</text>
</a>
</g>
</g>
<!-- Node15&#45;&gt;Node4 -->
<g id="edge15" class="edge">
<title>Node15&#45;&gt;Node4</title>
<path fill="none" stroke="#404040" d="M618.5449,-332.4965C623.0363,-295.4953 632.8835,-257.7252 652,-226 660.2119,-212.3717 671.986,-200.7205 684.8445,-190.9594"/>
<polygon fill="none" stroke="#404040" points="685.0608,-190.8059 687.6397,-184.0717 694.8477,-183.862 692.2689,-190.5963 685.0608,-190.8059"/>
<text text-anchor="middle" x="705" y="-273" font-family="Helvetica,sans-Serif" font-size="10.00" fill="#000000"> #mClusterMCTruth</text>
<text text-anchor="middle" x="705" y="-262" font-family="Helvetica,sans-Serif" font-size="10.00" fill="#000000">#mClusterMCTruthPtr</text>
</g>
<!-- Node16 -->
<g id="node14" class="node">
<title>Node16</title>
<g id="a_node14"><a xlink:href="../../dc/daa/classo2_1_1dataformats_1_1MCTruthContainer.html" target="_top" xlink:title="A container to hold and manage MC truth information/labels. ">
<polygon fill="none" stroke="#000000" points="577,-723.5 577,-1044.5 745,-1044.5 745,-723.5 577,-723.5"/>
<text text-anchor="start" x="585" y="-1032.5" font-family="Helvetica,sans-Serif" font-size="10.00" fill="#000000">o2::dataformats::MCTruth</text>
<text text-anchor="middle" x="661" y="-1021.5" font-family="Helvetica,sans-Serif" font-size="10.00" fill="#000000">Container&lt; TruthElement &gt;</text>
<polyline fill="none" stroke="#000000" points="577,-1014.5 745,-1014.5 "/>
<text text-anchor="middle" x="661" y="-1002.5" font-family="Helvetica,sans-Serif" font-size="10.00" fill="#000000"> </text>
<polyline fill="none" stroke="#000000" points="577,-995.5 745,-995.5 "/>
<text text-anchor="start" x="585" y="-983.5" font-family="Helvetica,sans-Serif" font-size="10.00" fill="#000000">+ MCTruthContainer()</text>
<text text-anchor="start" x="585" y="-972.5" font-family="Helvetica,sans-Serif" font-size="10.00" fill="#000000">+ ~MCTruthContainer()</text>
<text text-anchor="start" x="585" y="-961.5" font-family="Helvetica,sans-Serif" font-size="10.00" fill="#000000">+ MCTruthContainer()</text>
<text text-anchor="start" x="585" y="-950.5" font-family="Helvetica,sans-Serif" font-size="10.00" fill="#000000">+ MCTruthContainer()</text>
<text text-anchor="start" x="585" y="-939.5" font-family="Helvetica,sans-Serif" font-size="10.00" fill="#000000">+ operator=()</text>
<text text-anchor="start" x="585" y="-928.5" font-family="Helvetica,sans-Serif" font-size="10.00" fill="#000000">+ operator=()</text>
<text text-anchor="start" x="585" y="-917.5" font-family="Helvetica,sans-Serif" font-size="10.00" fill="#000000">+ getMCTruthHeader()</text>
<text text-anchor="start" x="585" y="-906.5" font-family="Helvetica,sans-Serif" font-size="10.00" fill="#000000">+ getElement()</text>
<text text-anchor="start" x="585" y="-895.5" font-family="Helvetica,sans-Serif" font-size="10.00" fill="#000000">+ getIndexedSize()</text>
<text text-anchor="start" x="585" y="-884.5" font-family="Helvetica,sans-Serif" font-size="10.00" fill="#000000">+ getNElements()</text>
<text text-anchor="start" x="585" y="-873.5" font-family="Helvetica,sans-Serif" font-size="10.00" fill="#000000">+ getLabels()</text>
<text text-anchor="start" x="585" y="-862.5" font-family="Helvetica,sans-Serif" font-size="10.00" fill="#000000">+ getLabels()</text>
<text text-anchor="start" x="585" y="-851.5" font-family="Helvetica,sans-Serif" font-size="10.00" fill="#000000">+ clear()</text>
<text text-anchor="start" x="585" y="-840.5" font-family="Helvetica,sans-Serif" font-size="10.00" fill="#000000">+ addElement()</text>
<text text-anchor="start" x="585" y="-829.5" font-family="Helvetica,sans-Serif" font-size="10.00" fill="#000000">+ addElements()</text>
<text text-anchor="start" x="585" y="-818.5" font-family="Helvetica,sans-Serif" font-size="10.00" fill="#000000">+ addElements()</text>
<text text-anchor="start" x="585" y="-807.5" font-family="Helvetica,sans-Serif" font-size="10.00" fill="#000000">+ addElementRandomAccess()</text>
<text text-anchor="start" x="585" y="-796.5" font-family="Helvetica,sans-Serif" font-size="10.00" fill="#000000">+ mergeAtBack()</text>
<text text-anchor="start" x="585" y="-785.5" font-family="Helvetica,sans-Serif" font-size="10.00" fill="#000000">+ flatten_to()</text>
<text text-anchor="start" x="585" y="-774.5" font-family="Helvetica,sans-Serif" font-size="10.00" fill="#000000">+ restore_from()</text>
<text text-anchor="start" x="585" y="-763.5" font-family="Helvetica,sans-Serif" font-size="10.00" fill="#000000">+ print()</text>
<text text-anchor="start" x="585" y="-752.5" font-family="Helvetica,sans-Serif" font-size="10.00" fill="#000000">+ inflate()</text>
<text text-anchor="start" x="585" y="-741.5" font-family="Helvetica,sans-Serif" font-size="10.00" fill="#000000">+ deflate()</text>
<text text-anchor="start" x="585" y="-730.5" font-family="Helvetica,sans-Serif" font-size="10.00" fill="#000000">+ ClassDefNV()</text>
</a>
</g>
</g>
<!-- Node16&#45;&gt;Node15 -->
<g id="edge16" class="edge">
<title>Node16&#45;&gt;Node15</title>
<path fill="none" stroke="#ffa500" d="M645.2816,-713.2804C643.4604,-693.5001 641.6075,-673.3757 639.7991,-653.735"/>
<polygon fill="#ffa500" stroke="#ffa500" points="641.7994,-713.6357 646.2016,-723.2727 648.7699,-712.9939 641.7994,-713.6357"/>
<text text-anchor="middle" x="701" y="-686" font-family="Helvetica,sans-Serif" font-size="10.00" fill="#000000"> &lt; o2::MCCompLabel &gt;</text>
</g>
<!-- Node17 -->
<g id="node15" class="node">
<title>Node17</title>
<polygon fill="none" stroke="#bfbfbf" points="730.5,-459 730.5,-527 851.5,-527 851.5,-459 730.5,-459"/>
<text text-anchor="start" x="738.5" y="-515" font-family="Helvetica,sans-Serif" font-size="10.00" fill="#000000">vector&lt; o2::itsmft</text>
<text text-anchor="middle" x="791" y="-504" font-family="Helvetica,sans-Serif" font-size="10.00" fill="#000000">::CompClusterExt &gt; *</text>
<polyline fill="none" stroke="#bfbfbf" points="730.5,-497 851.5,-497 "/>
<text text-anchor="middle" x="791" y="-485" font-family="Helvetica,sans-Serif" font-size="10.00" fill="#000000"> </text>
<polyline fill="none" stroke="#bfbfbf" points="730.5,-478 851.5,-478 "/>
<text text-anchor="middle" x="791" y="-466" font-family="Helvetica,sans-Serif" font-size="10.00" fill="#000000"> </text>
</g>
<!-- Node17&#45;&gt;Node4 -->
<g id="edge17" class="edge">
<title>Node17&#45;&gt;Node4</title>
<path fill="none" stroke="#404040" d="M784.6037,-458.84C778.2184,-422.9344 768.8219,-364.7283 765,-314 762.6725,-283.1069 762.1578,-248.8169 762.3289,-219.7286"/>
<polygon fill="none" stroke="#404040" points="762.33,-219.6053 758.3856,-213.5685 762.441,-207.6058 766.3853,-213.6425 762.33,-219.6053"/>
<text text-anchor="middle" x="827" y="-267.5" font-family="Helvetica,sans-Serif" font-size="10.00" fill="#000000"> #mClusterCompArrayPtr</text>
</g>
<!-- Node18 -->
<g id="node16" class="node">
<title>Node18</title>
<polygon fill="none" stroke="#bfbfbf" points="870,-459 870,-527 976,-527 976,-459 870,-459"/>
<text text-anchor="start" x="878" y="-515" font-family="Helvetica,sans-Serif" font-size="10.00" fill="#000000">vector&lt; o2::itsmft</text>
<text text-anchor="middle" x="923" y="-504" font-family="Helvetica,sans-Serif" font-size="10.00" fill="#000000">::Cluster &gt;</text>
<polyline fill="none" stroke="#bfbfbf" points="870,-497 976,-497 "/>
<text text-anchor="middle" x="923" y="-485" font-family="Helvetica,sans-Serif" font-size="10.00" fill="#000000"> </text>
<polyline fill="none" stroke="#bfbfbf" points="870,-478 976,-478 "/>
<text text-anchor="middle" x="923" y="-466" font-family="Helvetica,sans-Serif" font-size="10.00" fill="#000000"> </text>
</g>
<!-- Node18&#45;&gt;Node4 -->
<g id="edge18" class="edge">
<title>Node18&#45;&gt;Node4</title>
<path fill="none" stroke="#404040" d="M922.3115,-458.8106C920.4523,-395.6343 913.6477,-263.6211 889,-226 877.8788,-209.0251 861.4294,-195.3678 844.0907,-184.6174"/>
<polygon fill="none" stroke="#404040" points="843.5933,-184.3282 836.3957,-184.7699 833.2197,-178.2958 840.4172,-177.8541 843.5933,-184.3282"/>
<text text-anchor="middle" x="952" y="-267.5" font-family="Helvetica,sans-Serif" font-size="10.00" fill="#000000"> #mClusterArray</text>
</g>
<!-- Node19 -->
<g id="node17" class="node">
<title>Node19</title>
<polygon fill="none" stroke="#bfbfbf" points="994,-464.5 994,-521.5 1038,-521.5 1038,-464.5 994,-464.5"/>
<text text-anchor="middle" x="1016" y="-509.5" font-family="Helvetica,sans-Serif" font-size="10.00" fill="#000000">string</text>
<polyline fill="none" stroke="#bfbfbf" points="994,-502.5 1038,-502.5 "/>
<text text-anchor="middle" x="1016" y="-490.5" font-family="Helvetica,sans-Serif" font-size="10.00" fill="#000000"> </text>
<polyline fill="none" stroke="#bfbfbf" points="994,-483.5 1038,-483.5 "/>
<text text-anchor="middle" x="1016" y="-471.5" font-family="Helvetica,sans-Serif" font-size="10.00" fill="#000000"> </text>
</g>
<!-- Node19&#45;&gt;Node4 -->
<g id="edge19" class="edge">
<title>Node19&#45;&gt;Node4</title>
<path fill="none" stroke="#404040" d="M1017.5068,-464.1178C1020.1025,-402.7843 1022.6619,-262.1866 994,-226 975.0437,-202.0671 903.3576,-181.2765 844.9929,-167.7855"/>
<polygon fill="none" stroke="#404040" points="844.8452,-167.7522 838.1101,-170.3286 833.1414,-165.1025 839.8765,-162.5261 844.8452,-167.7522"/>
<text text-anchor="middle" x="1087.5" y="-306" font-family="Helvetica,sans-Serif" font-size="10.00" fill="#000000"> #mDetName</text>
<text text-anchor="middle" x="1087.5" y="-295" font-family="Helvetica,sans-Serif" font-size="10.00" fill="#000000">#mClusterBranchName</text>
<text text-anchor="middle" x="1087.5" y="-284" font-family="Helvetica,sans-Serif" font-size="10.00" fill="#000000">#mClusROFBranchName</text>
<text text-anchor="middle" x="1087.5" y="-273" font-family="Helvetica,sans-Serif" font-size="10.00" fill="#000000">#mDetNameLC</text>
<text text-anchor="middle" x="1087.5" y="-262" font-family="Helvetica,sans-Serif" font-size="10.00" fill="#000000">#mClusTreeName</text>
<text text-anchor="middle" x="1087.5" y="-251" font-family="Helvetica,sans-Serif" font-size="10.00" fill="#000000">#mClusterCompBranchName</text>
<text text-anchor="middle" x="1087.5" y="-240" font-family="Helvetica,sans-Serif" font-size="10.00" fill="#000000">#mInputFileName</text>
<text text-anchor="middle" x="1087.5" y="-229" font-family="Helvetica,sans-Serif" font-size="10.00" fill="#000000">#mClustMCTruthBranchName</text>
</g>
<!-- Node20 -->
<g id="node18" class="node">
<title>Node20</title>
<polygon fill="none" stroke="#bfbfbf" points="1165,-464.5 1165,-521.5 1203,-521.5 1203,-464.5 1165,-464.5"/>
<text text-anchor="middle" x="1184" y="-509.5" font-family="Helvetica,sans-Serif" font-size="10.00" fill="#000000">bool</text>
<polyline fill="none" stroke="#bfbfbf" points="1165,-502.5 1203,-502.5 "/>
<text text-anchor="middle" x="1184" y="-490.5" font-family="Helvetica,sans-Serif" font-size="10.00" fill="#000000"> </text>
<polyline fill="none" stroke="#bfbfbf" points="1165,-483.5 1203,-483.5 "/>
<text text-anchor="middle" x="1184" y="-471.5" font-family="Helvetica,sans-Serif" font-size="10.00" fill="#000000"> </text>
</g>
<!-- Node20&#45;&gt;Node4 -->
<g id="edge20" class="edge">
<title>Node20&#45;&gt;Node4</title>
<path fill="none" stroke="#404040" d="M1183.5672,-464.2146C1182.3122,-398.8249 1177.6942,-243.3971 1162,-226 1120.7259,-180.2473 949.3382,-162.2206 845.3961,-155.4022"/>
<polygon fill="none" stroke="#404040" points="845.3553,-155.3997 839.1153,-159.0139 833.3791,-154.644 839.6191,-151.0298 845.3553,-155.3997"/>
<text text-anchor="middle" x="1214" y="-284" font-family="Helvetica,sans-Serif" font-size="10.00" fill="#000000"> #mUseClFull</text>
<text text-anchor="middle" x="1214" y="-273" font-family="Helvetica,sans-Serif" font-size="10.00" fill="#000000">#mUseMC</text>
<text text-anchor="middle" x="1214" y="-262" font-family="Helvetica,sans-Serif" font-size="10.00" fill="#000000">#mFinished</text>
<text text-anchor="middle" x="1214" y="-251" font-family="Helvetica,sans-Serif" font-size="10.00" fill="#000000">#mUseClComp</text>
</g>
<!-- Node21 -->
<g id="node19" class="node">
<title>Node21</title>
<polygon fill="none" stroke="#bfbfbf" points="1226.5,-459 1226.5,-527 1339.5,-527 1339.5,-459 1226.5,-459"/>
<text text-anchor="start" x="1234.5" y="-515" font-family="Helvetica,sans-Serif" font-size="10.00" fill="#000000">vector&lt; o2::itsmft</text>
<text text-anchor="middle" x="1283" y="-504" font-family="Helvetica,sans-Serif" font-size="10.00" fill="#000000">::CompClusterExt &gt;</text>
<polyline fill="none" stroke="#bfbfbf" points="1226.5,-497 1339.5,-497 "/>
<text text-anchor="middle" x="1283" y="-485" font-family="Helvetica,sans-Serif" font-size="10.00" fill="#000000"> </text>
<polyline fill="none" stroke="#bfbfbf" points="1226.5,-478 1339.5,-478 "/>
<text text-anchor="middle" x="1283" y="-466" font-family="Helvetica,sans-Serif" font-size="10.00" fill="#000000"> </text>
</g>
<!-- Node21&#45;&gt;Node4 -->
<g id="edge21" class="edge">
<title>Node21&#45;&gt;Node4</title>
<path fill="none" stroke="#404040" d="M1284.5145,-458.8662C1286.5992,-394.4871 1287.0753,-258.6528 1256,-226 1228.0977,-196.6812 977.3991,-170.3647 845.0432,-158.366"/>
<polygon fill="none" stroke="#404040" points="844.9556,-158.3582 838.6218,-161.8053 833.0038,-157.2845 839.3376,-153.8374 844.9556,-158.3582"/>
<text text-anchor="middle" x="1335.5" y="-267.5" font-family="Helvetica,sans-Serif" font-size="10.00" fill="#000000"> #mClusterCompArray</text>
</g>
<!-- Node22 -->
<g id="node20" class="node">
<title>Node22</title>
<polygon fill="none" stroke="#bfbfbf" points="1364,-459 1364,-527 1470,-527 1470,-459 1364,-459"/>
<text text-anchor="start" x="1372" y="-515" font-family="Helvetica,sans-Serif" font-size="10.00" fill="#000000">vector&lt; o2::itsmft</text>
<text text-anchor="middle" x="1417" y="-504" font-family="Helvetica,sans-Serif" font-size="10.00" fill="#000000">::ROFRecord &gt; *</text>
<polyline fill="none" stroke="#bfbfbf" points="1364,-497 1470,-497 "/>
<text text-anchor="middle" x="1417" y="-485" font-family="Helvetica,sans-Serif" font-size="10.00" fill="#000000"> </text>
<polyline fill="none" stroke="#bfbfbf" points="1364,-478 1470,-478 "/>
<text text-anchor="middle" x="1417" y="-466" font-family="Helvetica,sans-Serif" font-size="10.00" fill="#000000"> </text>
</g>
<!-- Node22&#45;&gt;Node4 -->
<g id="edge22" class="edge">
<title>Node22&#45;&gt;Node4</title>
<path fill="none" stroke="#404040" d="M1426.2318,-458.904C1439.3015,-402.2003 1455.406,-288.5776 1395,-226 1357.4569,-187.1073 1007.4573,-164.0959 845.5061,-155.4478"/>
<polygon fill="none" stroke="#404040" points="845.2237,-155.433 839.0214,-159.1115 833.2404,-154.8011 839.4427,-151.1226 845.2237,-155.433"/>
<text text-anchor="middle" x="1480.5" y="-267.5" font-family="Helvetica,sans-Serif" font-size="10.00" fill="#000000"> #mClusROFRecPtr</text>
</g>
</g>
</svg>
