<?xml version="1.0" encoding="UTF-8" standalone="no"?>
<!DOCTYPE svg PUBLIC "-//W3C//DTD SVG 1.1//EN"
 "http://www.w3.org/Graphics/SVG/1.1/DTD/svg11.dtd">
<!-- Generated by graphviz version 2.40.1 (20161225.0304)
 -->
<!-- Title: o2::framework::Produces&lt; T &gt; Pages: 1 -->
<svg width="614pt" height="182pt"
 viewBox="0.00 0.00 614.00 182.00" xmlns="http://www.w3.org/2000/svg" xmlns:xlink="http://www.w3.org/1999/xlink">
<g id="graph0" class="graph" transform="scale(1 1) rotate(0) translate(4 178)">
<title>o2::framework::Produces&lt; T &gt;</title>
<!-- Node0 -->
<g id="node1" class="node">
<title>Node0</title>
<polygon fill="#bfbfbf" stroke="#000000" points="219.5,-116.5 219.5,-173.5 386.5,-173.5 386.5,-116.5 219.5,-116.5"/>
<text text-anchor="middle" x="303" y="-161.5" font-family="Helvetica,sans-Serif" font-size="10.00" fill="#000000">o2::framework::Produces&lt; T &gt;</text>
<polyline fill="none" stroke="#000000" points="219.5,-154.5 386.5,-154.5 "/>
<text text-anchor="middle" x="303" y="-142.5" font-family="Helvetica,sans-Serif" font-size="10.00" fill="#000000"> </text>
<polyline fill="none" stroke="#000000" points="219.5,-135.5 386.5,-135.5 "/>
<text text-anchor="middle" x="303" y="-123.5" font-family="Helvetica,sans-Serif" font-size="10.00" fill="#000000"> </text>
</g>
<!-- Node1 -->
<g id="node2" class="node">
<title>Node1</title>
<g id="a_node2"><a xlink:href="../../d6/d86/structo2_1_1framework_1_1Produces.html" target="_top" xlink:title="{o2::framework::Produces\l\&lt; aod::FooBars \&gt;\n||}">
<polygon fill="none" stroke="#000000" points="0,-.5 0,-68.5 138,-68.5 138,-.5 0,-.5"/>
<text text-anchor="start" x="8" y="-56.5" font-family="Helvetica,sans-Serif" font-size="10.00" fill="#000000">o2::framework::Produces</text>
<text text-anchor="middle" x="69" y="-45.5" font-family="Helvetica,sans-Serif" font-size="10.00" fill="#000000">&lt; aod::FooBars &gt;</text>
<polyline fill="none" stroke="#000000" points="0,-38.5 138,-38.5 "/>
<text text-anchor="middle" x="69" y="-26.5" font-family="Helvetica,sans-Serif" font-size="10.00" fill="#000000"> </text>
<polyline fill="none" stroke="#000000" points="0,-19.5 138,-19.5 "/>
<text text-anchor="middle" x="69" y="-7.5" font-family="Helvetica,sans-Serif" font-size="10.00" fill="#000000"> </text>
</a>
</g>
</g>
<!-- Node0&#45;&gt;Node1 -->
<g id="edge1" class="edge">
<title>Node0&#45;&gt;Node1</title>
<path fill="none" stroke="#ffa500" d="M209.8128,-116.1709C195.2418,-110.7035 180.5373,-104.6035 167,-98 149.8722,-89.6451 132.1096,-78.8643 116.4877,-68.5656"/>
<polygon fill="#ffa500" stroke="#ffa500" points="208.7616,-119.5133 219.3552,-119.6714 211.1724,-112.9415 208.7616,-119.5133"/>
<text text-anchor="middle" x="211.5" y="-90" font-family="Helvetica,sans-Serif" font-size="10.00" fill="#000000"> &lt; aod::FooBars &gt;</text>
</g>
<!-- Node2 -->
<g id="node3" class="node">
<title>Node2</title>
<g id="a_node3"><a xlink:href="../../d6/d86/structo2_1_1framework_1_1Produces.html" target="_top" xlink:title="{o2::framework::Produces\l\&lt; aod::EtaPhiPt \&gt;\n||}">
<polygon fill="none" stroke="#000000" points="156,-.5 156,-68.5 294,-68.5 294,-.5 156,-.5"/>
<text text-anchor="start" x="164" y="-56.5" font-family="Helvetica,sans-Serif" font-size="10.00" fill="#000000">o2::framework::Produces</text>
<text text-anchor="middle" x="225" y="-45.5" font-family="Helvetica,sans-Serif" font-size="10.00" fill="#000000">&lt; aod::EtaPhiPt &gt;</text>
<polyline fill="none" stroke="#000000" points="156,-38.5 294,-38.5 "/>
<text text-anchor="middle" x="225" y="-26.5" font-family="Helvetica,sans-Serif" font-size="10.00" fill="#000000"> </text>
<polyline fill="none" stroke="#000000" points="156,-19.5 294,-19.5 "/>
<text text-anchor="middle" x="225" y="-7.5" font-family="Helvetica,sans-Serif" font-size="10.00" fill="#000000"> </text>
</a>
</g>
</g>
<!-- Node0&#45;&gt;Node2 -->
<g id="edge2" class="edge">
<title>Node0&#45;&gt;Node2</title>
<path fill="none" stroke="#ffa500" d="M275.2128,-108.0088C272.7542,-104.6388 270.3199,-101.2657 268,-98 261.2918,-88.5569 254.1768,-78.1983 247.7063,-68.6371"/>
<polygon fill="#ffa500" stroke="#ffa500" points="272.5786,-110.3346 281.3229,-116.3169 278.2178,-106.1873 272.5786,-110.3346"/>
<text text-anchor="middle" x="313.5" y="-90" font-family="Helvetica,sans-Serif" font-size="10.00" fill="#000000"> &lt; aod::EtaPhiPt &gt;</text>
</g>
<!-- Node3 -->
<g id="node4" class="node">
<title>Node3</title>
<g id="a_node4"><a xlink:href="../../d6/d86/structo2_1_1framework_1_1Produces.html" target="_top" xlink:title="{o2::framework::Produces\l\&lt; aod::EtaPhis \&gt;\n||}">
<polygon fill="none" stroke="#000000" points="312,-.5 312,-68.5 450,-68.5 450,-.5 312,-.5"/>
<text text-anchor="start" x="320" y="-56.5" font-family="Helvetica,sans-Serif" font-size="10.00" fill="#000000">o2::framework::Produces</text>
<text text-anchor="middle" x="381" y="-45.5" font-family="Helvetica,sans-Serif" font-size="10.00" fill="#000000">&lt; aod::EtaPhis &gt;</text>
<polyline fill="none" stroke="#000000" points="312,-38.5 450,-38.5 "/>
<text text-anchor="middle" x="381" y="-26.5" font-family="Helvetica,sans-Serif" font-size="10.00" fill="#000000"> </text>
<polyline fill="none" stroke="#000000" points="312,-19.5 450,-19.5 "/>
<text text-anchor="middle" x="381" y="-7.5" font-family="Helvetica,sans-Serif" font-size="10.00" fill="#000000"> </text>
</a>
</g>
</g>
<!-- Node0&#45;&gt;Node3 -->
<g id="edge3" class="edge">
<title>Node0&#45;&gt;Node3</title>
<path fill="none" stroke="#ffa500" d="M349.8726,-109.2706C353.2059,-105.6815 356.3073,-101.9104 359,-98 365.0215,-89.2555 369.5419,-78.7041 372.8676,-68.7353"/>
<polygon fill="#ffa500" stroke="#ffa500" points="347.367,-106.8264 342.7619,-116.3681 352.3121,-111.7808 347.367,-106.8264"/>
<text text-anchor="middle" x="407" y="-90" font-family="Helvetica,sans-Serif" font-size="10.00" fill="#000000"> &lt; aod::EtaPhis &gt;</text>
</g>
<!-- Node4 -->
<g id="node5" class="node">
<title>Node4</title>
<g id="a_node5"><a xlink:href="../../d6/d86/structo2_1_1framework_1_1Produces.html" target="_top" xlink:title="{o2::framework::Produces\l\&lt; aod::EtaPhi \&gt;\n||}">
<polygon fill="none" stroke="#000000" points="468,-.5 468,-68.5 606,-68.5 606,-.5 468,-.5"/>
<text text-anchor="start" x="476" y="-56.5" font-family="Helvetica,sans-Serif" font-size="10.00" fill="#000000">o2::framework::Produces</text>
<text text-anchor="middle" x="537" y="-45.5" font-family="Helvetica,sans-Serif" font-size="10.00" fill="#000000">&lt; aod::EtaPhi &gt;</text>
<polyline fill="none" stroke="#000000" points="468,-38.5 606,-38.5 "/>
<text text-anchor="middle" x="537" y="-26.5" font-family="Helvetica,sans-Serif" font-size="10.00" fill="#000000"> </text>
<polyline fill="none" stroke="#000000" points="468,-19.5 606,-19.5 "/>
<text text-anchor="middle" x="537" y="-7.5" font-family="Helvetica,sans-Serif" font-size="10.00" fill="#000000"> </text>
</a>
</g>
</g>
<!-- Node0&#45;&gt;Node4 -->
<g id="edge4" class="edge">
<title>Node0&#45;&gt;Node4</title>
<path fill="none" stroke="#ffa500" d="M396.1551,-121.6419C415.7756,-115.1811 435.9773,-107.3236 454,-98 469.47,-89.997 485.0093,-79.0666 498.3906,-68.5297"/>
<polygon fill="#ffa500" stroke="#ffa500" points="395.0417,-118.3232 386.5821,-124.7016 397.1729,-124.9909 395.0417,-118.3232"/>
<text text-anchor="middle" x="511.5" y="-90" font-family="Helvetica,sans-Serif" font-size="10.00" fill="#000000"> &lt; aod::EtaPhi &gt;</text>
</g>
</g>
</svg>
