<?xml version="1.0" encoding="UTF-8" standalone="no"?>
<!DOCTYPE svg PUBLIC "-//W3C//DTD SVG 1.1//EN"
 "http://www.w3.org/Graphics/SVG/1.1/DTD/svg11.dtd">
<!-- Generated by graphviz version 2.40.1 (20161225.0304)
 -->
<!-- Title: o2::framework::Produces&lt; T &gt; Pages: 1 -->
<!--zoomable 182 -->
<svg id="main" version="1.1" xmlns="http://www.w3.org/2000/svg" xmlns:xlink="http://www.w3.org/1999/xlink" xml:space="preserve" onload="init(evt)">
<style type="text/css"><![CDATA[
.edge:hover path { stroke: red; }
.edge:hover polygon { stroke: red; fill: red; }
]]></style>
<script type="text/javascript"><![CDATA[
var edges = document.getElementsByTagName('g');
if (edges && edges.length) {
  for (var i=0;i<edges.length;i++) {
    if (edges[i].id.substr(0,4)=='edge') {
      edges[i].setAttribute('class','edge');
    }
  }
}
]]></script>
        <defs>
                <circle id="rim" cx="0" cy="0" r="7"/>
                <circle id="rim2" cx="0" cy="0" r="3.5"/>
                <g id="zoomPlus">
                        <use xlink:href="#rim" fill="#404040">
                                <set attributeName="fill" to="#808080" begin="zoomplus.mouseover" end="zoomplus.mouseout"/>
                        </use>
                        <path d="M-4,0h8M0,-4v8" fill="none" stroke="white" stroke-width="1.5" pointer-events="none"/>
                </g>
                <g id="zoomMin">
                        <use xlink:href="#rim" fill="#404040">
                                <set attributeName="fill" to="#808080" begin="zoomminus.mouseover" end="zoomminus.mouseout"/>
                        </use>
                        <path d="M-4,0h8" fill="none" stroke="white" stroke-width="1.5" pointer-events="none"/>
                </g>
                <g id="dirArrow">
                        <path fill="none" stroke="white" stroke-width="1.5" d="M0,-3.0v7 M-2.5,-0.5L0,-3.0L2.5,-0.5"/>
                </g>
               <g id="resetDef">
                       <use xlink:href="#rim2" fill="#404040">
                               <set attributeName="fill" to="#808080" begin="reset.mouseover" end="reset.mouseout"/>
                       </use>
               </g>
        </defs>

<script type="text/javascript">
var viewWidth = 614;
var viewHeight = 182;
var sectionId = 'dynsection-0';
</script>
<script xlink:href="../../svgpan.js"/>
<svg id="graph" class="graph">
<g id="viewport">
<title>o2::framework::Produces&lt; T &gt;</title>
<!-- Node0 -->
<g id="node1" class="node">
<title>Node0</title>
<polygon fill="#bfbfbf" stroke="#000000" points="219.5,-116.5 219.5,-173.5 386.5,-173.5 386.5,-116.5 219.5,-116.5"/>
<text text-anchor="middle" x="303" y="-161.5" font-family="Helvetica,sans-Serif" font-size="10.00" fill="#000000">o2::framework::Produces&lt; T &gt;</text>
<polyline fill="none" stroke="#000000" points="219.5,-154.5 386.5,-154.5 "/>
<text text-anchor="middle" x="303" y="-142.5" font-family="Helvetica,sans-Serif" font-size="10.00" fill="#000000"> </text>
<polyline fill="none" stroke="#000000" points="219.5,-135.5 386.5,-135.5 "/>
<text text-anchor="middle" x="303" y="-123.5" font-family="Helvetica,sans-Serif" font-size="10.00" fill="#000000"> </text>
</g>
<!-- Node1 -->
<g id="node2" class="node">
<title>Node1</title>
<g id="a_node2"><a xlink:href="../../d6/d86/structo2_1_1framework_1_1Produces.html" target="_top" xlink:title="{o2::framework::Produces\l\&lt; aod::FooBars \&gt;\n||}">
<polygon fill="none" stroke="#000000" points="0,-.5 0,-68.5 138,-68.5 138,-.5 0,-.5"/>
<text text-anchor="start" x="8" y="-56.5" font-family="Helvetica,sans-Serif" font-size="10.00" fill="#000000">o2::framework::Produces</text>
<text text-anchor="middle" x="69" y="-45.5" font-family="Helvetica,sans-Serif" font-size="10.00" fill="#000000">&lt; aod::FooBars &gt;</text>
<polyline fill="none" stroke="#000000" points="0,-38.5 138,-38.5 "/>
<text text-anchor="middle" x="69" y="-26.5" font-family="Helvetica,sans-Serif" font-size="10.00" fill="#000000"> </text>
<polyline fill="none" stroke="#000000" points="0,-19.5 138,-19.5 "/>
<text text-anchor="middle" x="69" y="-7.5" font-family="Helvetica,sans-Serif" font-size="10.00" fill="#000000"> </text>
</a>
</g>
</g>
<!-- Node0&#45;&gt;Node1 -->
<g id="edge1" class="edge">
<title>Node0&#45;&gt;Node1</title>
<path fill="none" stroke="#ffa500" d="M209.8128,-116.1709C195.2418,-110.7035 180.5373,-104.6035 167,-98 149.8722,-89.6451 132.1096,-78.8643 116.4877,-68.5656"/>
<polygon fill="#ffa500" stroke="#ffa500" points="208.7616,-119.5133 219.3552,-119.6714 211.1724,-112.9415 208.7616,-119.5133"/>
<text text-anchor="middle" x="211.5" y="-90" font-family="Helvetica,sans-Serif" font-size="10.00" fill="#000000"> &lt; aod::FooBars &gt;</text>
</g>
<!-- Node2 -->
<g id="node3" class="node">
<title>Node2</title>
<g id="a_node3"><a xlink:href="../../d6/d86/structo2_1_1framework_1_1Produces.html" target="_top" xlink:title="{o2::framework::Produces\l\&lt; aod::EtaPhiPt \&gt;\n||}">
<polygon fill="none" stroke="#000000" points="156,-.5 156,-68.5 294,-68.5 294,-.5 156,-.5"/>
<text text-anchor="start" x="164" y="-56.5" font-family="Helvetica,sans-Serif" font-size="10.00" fill="#000000">o2::framework::Produces</text>
<text text-anchor="middle" x="225" y="-45.5" font-family="Helvetica,sans-Serif" font-size="10.00" fill="#000000">&lt; aod::EtaPhiPt &gt;</text>
<polyline fill="none" stroke="#000000" points="156,-38.5 294,-38.5 "/>
<text text-anchor="middle" x="225" y="-26.5" font-family="Helvetica,sans-Serif" font-size="10.00" fill="#000000"> </text>
<polyline fill="none" stroke="#000000" points="156,-19.5 294,-19.5 "/>
<text text-anchor="middle" x="225" y="-7.5" font-family="Helvetica,sans-Serif" font-size="10.00" fill="#000000"> </text>
</a>
</g>
</g>
<!-- Node0&#45;&gt;Node2 -->
<g id="edge2" class="edge">
<title>Node0&#45;&gt;Node2</title>
<path fill="none" stroke="#ffa500" d="M275.2128,-108.0088C272.7542,-104.6388 270.3199,-101.2657 268,-98 261.2918,-88.5569 254.1768,-78.1983 247.7063,-68.6371"/>
<polygon fill="#ffa500" stroke="#ffa500" points="272.5786,-110.3346 281.3229,-116.3169 278.2178,-106.1873 272.5786,-110.3346"/>
<text text-anchor="middle" x="313.5" y="-90" font-family="Helvetica,sans-Serif" font-size="10.00" fill="#000000"> &lt; aod::EtaPhiPt &gt;</text>
</g>
<!-- Node3 -->
<g id="node4" class="node">
<title>Node3</title>
<g id="a_node4"><a xlink:href="../../d6/d86/structo2_1_1framework_1_1Produces.html" target="_top" xlink:title="{o2::framework::Produces\l\&lt; aod::EtaPhis \&gt;\n||}">
<polygon fill="none" stroke="#000000" points="312,-.5 312,-68.5 450,-68.5 450,-.5 312,-.5"/>
<text text-anchor="start" x="320" y="-56.5" font-family="Helvetica,sans-Serif" font-size="10.00" fill="#000000">o2::framework::Produces</text>
<text text-anchor="middle" x="381" y="-45.5" font-family="Helvetica,sans-Serif" font-size="10.00" fill="#000000">&lt; aod::EtaPhis &gt;</text>
<polyline fill="none" stroke="#000000" points="312,-38.5 450,-38.5 "/>
<text text-anchor="middle" x="381" y="-26.5" font-family="Helvetica,sans-Serif" font-size="10.00" fill="#000000"> </text>
<polyline fill="none" stroke="#000000" points="312,-19.5 450,-19.5 "/>
<text text-anchor="middle" x="381" y="-7.5" font-family="Helvetica,sans-Serif" font-size="10.00" fill="#000000"> </text>
</a>
</g>
</g>
<!-- Node0&#45;&gt;Node3 -->
<g id="edge3" class="edge">
<title>Node0&#45;&gt;Node3</title>
<path fill="none" stroke="#ffa500" d="M349.8726,-109.2706C353.2059,-105.6815 356.3073,-101.9104 359,-98 365.0215,-89.2555 369.5419,-78.7041 372.8676,-68.7353"/>
<polygon fill="#ffa500" stroke="#ffa500" points="347.367,-106.8264 342.7619,-116.3681 352.3121,-111.7808 347.367,-106.8264"/>
<text text-anchor="middle" x="407" y="-90" font-family="Helvetica,sans-Serif" font-size="10.00" fill="#000000"> &lt; aod::EtaPhis &gt;</text>
</g>
<!-- Node4 -->
<g id="node5" class="node">
<title>Node4</title>
<g id="a_node5"><a xlink:href="../../d6/d86/structo2_1_1framework_1_1Produces.html" target="_top" xlink:title="{o2::framework::Produces\l\&lt; aod::EtaPhi \&gt;\n||}">
<polygon fill="none" stroke="#000000" points="468,-.5 468,-68.5 606,-68.5 606,-.5 468,-.5"/>
<text text-anchor="start" x="476" y="-56.5" font-family="Helvetica,sans-Serif" font-size="10.00" fill="#000000">o2::framework::Produces</text>
<text text-anchor="middle" x="537" y="-45.5" font-family="Helvetica,sans-Serif" font-size="10.00" fill="#000000">&lt; aod::EtaPhi &gt;</text>
<polyline fill="none" stroke="#000000" points="468,-38.5 606,-38.5 "/>
<text text-anchor="middle" x="537" y="-26.5" font-family="Helvetica,sans-Serif" font-size="10.00" fill="#000000"> </text>
<polyline fill="none" stroke="#000000" points="468,-19.5 606,-19.5 "/>
<text text-anchor="middle" x="537" y="-7.5" font-family="Helvetica,sans-Serif" font-size="10.00" fill="#000000"> </text>
</a>
</g>
</g>
<!-- Node0&#45;&gt;Node4 -->
<g id="edge4" class="edge">
<title>Node0&#45;&gt;Node4</title>
<path fill="none" stroke="#ffa500" d="M396.1551,-121.6419C415.7756,-115.1811 435.9773,-107.3236 454,-98 469.47,-89.997 485.0093,-79.0666 498.3906,-68.5297"/>
<polygon fill="#ffa500" stroke="#ffa500" points="395.0417,-118.3232 386.5821,-124.7016 397.1729,-124.9909 395.0417,-118.3232"/>
<text text-anchor="middle" x="511.5" y="-90" font-family="Helvetica,sans-Serif" font-size="10.00" fill="#000000"> &lt; aod::EtaPhi &gt;</text>
</g>
</g>
</svg>
        <g id="navigator" transform="translate(0 0)" fill="#404254">
                <rect fill="#f2f5e9" fill-opacity="0.5" stroke="#606060" stroke-width=".5" x="0" y="0" width="60" height="60"/>
                <use id="zoomplus" xlink:href="#zoomPlus" x="17" y="9" onmousedown="handleZoom(evt,'in')"/>
                <use id="zoomminus" xlink:href="#zoomMin" x="42" y="9" onmousedown="handleZoom(evt,'out')"/>
                <use id="reset" xlink:href="#resetDef" x="30" y="36" onmousedown="handleReset()"/>
                <g id="arrowUp" xlink:href="#dirArrow" transform="translate(30 24)" onmousedown="handlePan(0,-1)">
                  <use xlink:href="#rim" fill="#404040">
                        <set attributeName="fill" to="#808080" begin="arrowUp.mouseover" end="arrowUp.mouseout"/>
                  </use>
                  <path fill="none" stroke="white" stroke-width="1.5" d="M0,-3.0v7 M-2.5,-0.5L0,-3.0L2.5,-0.5"/>
                </g>
                <g id="arrowRight" xlink:href="#dirArrow" transform="rotate(90) translate(36 -43)" onmousedown="handlePan(1,0)">
                  <use xlink:href="#rim" fill="#404040">
                        <set attributeName="fill" to="#808080" begin="arrowRight.mouseover" end="arrowRight.mouseout"/>
                  </use>
                  <path fill="none" stroke="white" stroke-width="1.5" d="M0,-3.0v7 M-2.5,-0.5L0,-3.0L2.5,-0.5"/>
                </g>
                <g id="arrowDown" xlink:href="#dirArrow" transform="rotate(180) translate(-30 -48)" onmousedown="handlePan(0,1)">
                  <use xlink:href="#rim" fill="#404040">
                        <set attributeName="fill" to="#808080" begin="arrowDown.mouseover" end="arrowDown.mouseout"/>
                  </use>
                  <path fill="none" stroke="white" stroke-width="1.5" d="M0,-3.0v7 M-2.5,-0.5L0,-3.0L2.5,-0.5"/>
                </g>
                <g id="arrowLeft" xlink:href="#dirArrow" transform="rotate(270) translate(-36 17)" onmousedown="handlePan(-1,0)">
                  <use xlink:href="#rim" fill="#404040">
                        <set attributeName="fill" to="#808080" begin="arrowLeft.mouseover" end="arrowLeft.mouseout"/>
                  </use>
                  <path fill="none" stroke="white" stroke-width="1.5" d="M0,-3.0v7 M-2.5,-0.5L0,-3.0L2.5,-0.5"/>
                </g>
        </g>
        <svg viewBox="0 0 15 15" width="100%" height="30px" preserveAspectRatio="xMaxYMin meet">
         <g id="arrow_out" transform="scale(0.3 0.3)">
          <a xlink:href="structo2_1_1framework_1_1Produces__inherit__graph_org.svg" target="_base">
           <rect id="button" ry="5" rx="5" y="6" x="6" height="38" width="38"
                fill="#f2f5e9" fill-opacity="0.5" stroke="#606060" stroke-width="1.0"/>
           <path id="arrow"
             d="M 11.500037,31.436501 C 11.940474,20.09759 22.043105,11.32322 32.158766,21.979434 L 37.068811,17.246167 C 37.068811,17.246167 37.088388,32 37.088388,32 L 22.160133,31.978069 C 22.160133,31.978069 26.997745,27.140456 26.997745,27.140456 C 18.528582,18.264221 13.291696,25.230495 11.500037,31.436501 z"
             style="fill:#404040;"/>
          </a>
         </g>
        </svg>
</svg>
