<?xml version="1.0" encoding="UTF-8" standalone="no"?>
<!DOCTYPE svg PUBLIC "-//W3C//DTD SVG 1.1//EN"
 "http://www.w3.org/Graphics/SVG/1.1/DTD/svg11.dtd">
<!-- Generated by graphviz version 2.40.1 (20161225.0304)
 -->
<!-- Title: o2::devices::EPNReceiverDevice Pages: 1 -->
<!--zoomable 270 -->
<svg id="main" version="1.1" xmlns="http://www.w3.org/2000/svg" xmlns:xlink="http://www.w3.org/1999/xlink" xml:space="preserve" onload="init(evt)">
<style type="text/css"><![CDATA[
.edge:hover path { stroke: red; }
.edge:hover polygon { stroke: red; fill: red; }
]]></style>
<script type="text/javascript"><![CDATA[
var edges = document.getElementsByTagName('g');
if (edges && edges.length) {
  for (var i=0;i<edges.length;i++) {
    if (edges[i].id.substr(0,4)=='edge') {
      edges[i].setAttribute('class','edge');
    }
  }
}
]]></script>
        <defs>
                <circle id="rim" cx="0" cy="0" r="7"/>
                <circle id="rim2" cx="0" cy="0" r="3.5"/>
                <g id="zoomPlus">
                        <use xlink:href="#rim" fill="#404040">
                                <set attributeName="fill" to="#808080" begin="zoomplus.mouseover" end="zoomplus.mouseout"/>
                        </use>
                        <path d="M-4,0h8M0,-4v8" fill="none" stroke="white" stroke-width="1.5" pointer-events="none"/>
                </g>
                <g id="zoomMin">
                        <use xlink:href="#rim" fill="#404040">
                                <set attributeName="fill" to="#808080" begin="zoomminus.mouseover" end="zoomminus.mouseout"/>
                        </use>
                        <path d="M-4,0h8" fill="none" stroke="white" stroke-width="1.5" pointer-events="none"/>
                </g>
                <g id="dirArrow">
                        <path fill="none" stroke="white" stroke-width="1.5" d="M0,-3.0v7 M-2.5,-0.5L0,-3.0L2.5,-0.5"/>
                </g>
               <g id="resetDef">
                       <use xlink:href="#rim2" fill="#404040">
                               <set attributeName="fill" to="#808080" begin="reset.mouseover" end="reset.mouseout"/>
                       </use>
               </g>
        </defs>

<script type="text/javascript">
var viewWidth = 656;
var viewHeight = 270;
var sectionId = 'dynsection-1';
</script>
<script xlink:href="../../svgpan.js"/>
<svg id="graph" class="graph">
<g id="viewport">
<title>o2::devices::EPNReceiverDevice</title>
<!-- Node2 -->
<g id="node1" class="node">
<title>Node2</title>
<polygon fill="#bfbfbf" stroke="#000000" points="208.5,-.5 208.5,-123.5 394.5,-123.5 394.5,-.5 208.5,-.5"/>
<text text-anchor="start" x="216.5" y="-111.5" font-family="Helvetica,sans-Serif" font-size="10.00" fill="#000000">o2::devices::EPNReceiver</text>
<text text-anchor="middle" x="301.5" y="-100.5" font-family="Helvetica,sans-Serif" font-size="10.00" fill="#000000">Device</text>
<polyline fill="none" stroke="#000000" points="208.5,-93.5 394.5,-93.5 "/>
<text text-anchor="middle" x="301.5" y="-81.5" font-family="Helvetica,sans-Serif" font-size="10.00" fill="#000000"> </text>
<polyline fill="none" stroke="#000000" points="208.5,-74.5 394.5,-74.5 "/>
<text text-anchor="start" x="216.5" y="-62.5" font-family="Helvetica,sans-Serif" font-size="10.00" fill="#000000">+ EPNReceiverDevice()</text>
<text text-anchor="start" x="216.5" y="-51.5" font-family="Helvetica,sans-Serif" font-size="10.00" fill="#000000">+ ~EPNReceiverDevice()</text>
<text text-anchor="start" x="216.5" y="-40.5" font-family="Helvetica,sans-Serif" font-size="10.00" fill="#000000">+ InitTask()</text>
<text text-anchor="start" x="216.5" y="-29.5" font-family="Helvetica,sans-Serif" font-size="10.00" fill="#000000">+ PrintBuffer()</text>
<text text-anchor="start" x="216.5" y="-18.5" font-family="Helvetica,sans-Serif" font-size="10.00" fill="#000000">+ DiscardIncompleteTimeframes()</text>
<text text-anchor="start" x="216.5" y="-7.5" font-family="Helvetica,sans-Serif" font-size="10.00" fill="#000000"># Run()</text>
</g>
<!-- Node3 -->
<g id="node2" class="node">
<title>Node3</title>
<g id="a_node2"><a xlink:href="../../db/dfe/classFairMQDevice.html" target="_top" xlink:title="{FairMQDevice\n||}">
<polygon fill="none" stroke="#000000" points="0,-199 0,-256 83,-256 83,-199 0,-199"/>
<text text-anchor="middle" x="41.5" y="-244" font-family="Helvetica,sans-Serif" font-size="10.00" fill="#000000">FairMQDevice</text>
<polyline fill="none" stroke="#000000" points="0,-237 83,-237 "/>
<text text-anchor="middle" x="41.5" y="-225" font-family="Helvetica,sans-Serif" font-size="10.00" fill="#000000"> </text>
<polyline fill="none" stroke="#000000" points="0,-218 83,-218 "/>
<text text-anchor="middle" x="41.5" y="-206" font-family="Helvetica,sans-Serif" font-size="10.00" fill="#000000"> </text>
</a>
</g>
</g>
<!-- Node3&#45;&gt;Node2 -->
<g id="edge1" class="edge">
<title>Node3&#45;&gt;Node2</title>
<path fill="none" stroke="#191970" d="M90.9535,-193.359C91.136,-193.239 91.3182,-193.1194 91.5,-193 129.3986,-168.1233 171.7256,-141.5022 208.3946,-118.7993"/>
<polygon fill="none" stroke="#191970" points="88.9842,-190.4654 82.5984,-198.9196 92.8625,-196.2928 88.9842,-190.4654"/>
</g>
<!-- Node4 -->
<g id="node3" class="node">
<title>Node4</title>
<polygon fill="none" stroke="#bfbfbf" points="101,-193.5 101,-261.5 246,-261.5 246,-193.5 101,-193.5"/>
<text text-anchor="start" x="109" y="-249.5" font-family="Helvetica,sans-Serif" font-size="10.00" fill="#000000">unordered_map&lt; uint16</text>
<text text-anchor="middle" x="173.5" y="-238.5" font-family="Helvetica,sans-Serif" font-size="10.00" fill="#000000">_t, o2::devices::TFBuffer &gt;</text>
<polyline fill="none" stroke="#bfbfbf" points="101,-231.5 246,-231.5 "/>
<text text-anchor="middle" x="173.5" y="-219.5" font-family="Helvetica,sans-Serif" font-size="10.00" fill="#000000"> </text>
<polyline fill="none" stroke="#bfbfbf" points="101,-212.5 246,-212.5 "/>
<text text-anchor="middle" x="173.5" y="-200.5" font-family="Helvetica,sans-Serif" font-size="10.00" fill="#000000"> </text>
</g>
<!-- Node4&#45;&gt;Node2 -->
<g id="edge2" class="edge">
<title>Node4&#45;&gt;Node2</title>
<path fill="none" stroke="#404040" d="M175.5043,-193.2686C177.8106,-176.6943 182.6114,-157.154 192.5,-142 194.8481,-138.4016 197.4177,-134.9088 200.1651,-131.5248"/>
<polygon fill="none" stroke="#404040" points="200.3922,-131.268 201.371,-124.1236 208.3423,-122.2793 207.3635,-129.4237 200.3922,-131.268"/>
<text text-anchor="middle" x="245" y="-156" font-family="Helvetica,sans-Serif" font-size="10.00" fill="#000000"> #mTimeframeBuffer</text>
</g>
<!-- Node5 -->
<g id="node4" class="node">
<title>Node5</title>
<polygon fill="none" stroke="#bfbfbf" points="287,-199 287,-256 316,-256 316,-199 287,-199"/>
<text text-anchor="middle" x="301.5" y="-244" font-family="Helvetica,sans-Serif" font-size="10.00" fill="#000000">int</text>
<polyline fill="none" stroke="#bfbfbf" points="287,-237 316,-237 "/>
<text text-anchor="middle" x="301.5" y="-225" font-family="Helvetica,sans-Serif" font-size="10.00" fill="#000000"> </text>
<polyline fill="none" stroke="#bfbfbf" points="287,-218 316,-218 "/>
<text text-anchor="middle" x="301.5" y="-206" font-family="Helvetica,sans-Serif" font-size="10.00" fill="#000000"> </text>
</g>
<!-- Node5&#45;&gt;Node2 -->
<g id="edge3" class="edge">
<title>Node5&#45;&gt;Node2</title>
<path fill="none" stroke="#404040" d="M301.5,-198.6721C301.5,-181.2468 301.5,-158.1711 301.5,-135.9513"/>
<polygon fill="none" stroke="#404040" points="301.5001,-135.7364 297.5,-129.7364 301.5,-123.7364 305.5,-129.7364 301.5001,-135.7364"/>
<text text-anchor="middle" x="358.5" y="-167" font-family="Helvetica,sans-Serif" font-size="10.00" fill="#000000"> #mBufferTimeoutInMs</text>
<text text-anchor="middle" x="358.5" y="-156" font-family="Helvetica,sans-Serif" font-size="10.00" fill="#000000">#mNumFLPs</text>
<text text-anchor="middle" x="358.5" y="-145" font-family="Helvetica,sans-Serif" font-size="10.00" fill="#000000">#mTestMode</text>
</g>
<!-- Node6 -->
<g id="node5" class="node">
<title>Node6</title>
<polygon fill="none" stroke="#bfbfbf" points="416.5,-199 416.5,-256 460.5,-256 460.5,-199 416.5,-199"/>
<text text-anchor="middle" x="438.5" y="-244" font-family="Helvetica,sans-Serif" font-size="10.00" fill="#000000">string</text>
<polyline fill="none" stroke="#bfbfbf" points="416.5,-237 460.5,-237 "/>
<text text-anchor="middle" x="438.5" y="-225" font-family="Helvetica,sans-Serif" font-size="10.00" fill="#000000"> </text>
<polyline fill="none" stroke="#bfbfbf" points="416.5,-218 460.5,-218 "/>
<text text-anchor="middle" x="438.5" y="-206" font-family="Helvetica,sans-Serif" font-size="10.00" fill="#000000"> </text>
</g>
<!-- Node6&#45;&gt;Node2 -->
<g id="edge4" class="edge">
<title>Node6&#45;&gt;Node2</title>
<path fill="none" stroke="#404040" d="M436.202,-198.8461C433.6185,-181.1625 428.1349,-158.7388 416.5,-142 412.6393,-136.4457 408.2601,-131.154 403.5206,-126.1334"/>
<polygon fill="none" stroke="#404040" points="403.1887,-125.8069 396.1063,-124.4503 394.6346,-117.391 401.717,-118.7476 403.1887,-125.8069"/>
<text text-anchor="middle" x="485" y="-167" font-family="Helvetica,sans-Serif" font-size="10.00" fill="#000000"> #mAckChannelName</text>
<text text-anchor="middle" x="485" y="-156" font-family="Helvetica,sans-Serif" font-size="10.00" fill="#000000">#mOutChannelName</text>
<text text-anchor="middle" x="485" y="-145" font-family="Helvetica,sans-Serif" font-size="10.00" fill="#000000">#mInChannelName</text>
</g>
<!-- Node7 -->
<g id="node6" class="node">
<title>Node7</title>
<polygon fill="none" stroke="#bfbfbf" points="496,-199 496,-256 645,-256 645,-199 496,-199"/>
<text text-anchor="middle" x="570.5" y="-244" font-family="Helvetica,sans-Serif" font-size="10.00" fill="#000000">unordered_set&lt; uint16_t &gt;</text>
<polyline fill="none" stroke="#bfbfbf" points="496,-237 645,-237 "/>
<text text-anchor="middle" x="570.5" y="-225" font-family="Helvetica,sans-Serif" font-size="10.00" fill="#000000"> </text>
<polyline fill="none" stroke="#bfbfbf" points="496,-218 645,-218 "/>
<text text-anchor="middle" x="570.5" y="-206" font-family="Helvetica,sans-Serif" font-size="10.00" fill="#000000"> </text>
</g>
<!-- Node7&#45;&gt;Node2 -->
<g id="edge5" class="edge">
<title>Node7&#45;&gt;Node2</title>
<path fill="none" stroke="#404040" d="M568.0653,-198.6861C565.0598,-180.258 558.369,-157.0695 543.5,-142 523.4793,-121.7094 462.3173,-101.5799 406.4947,-86.5884"/>
<polygon fill="none" stroke="#404040" points="406.2829,-86.5325 399.4606,-88.8683 394.6805,-83.4691 401.5028,-81.1333 406.2829,-86.5325"/>
<text text-anchor="middle" x="604.5" y="-156" font-family="Helvetica,sans-Serif" font-size="10.00" fill="#000000"> #mDiscardedSet</text>
</g>
</g>
</svg>
        <g id="navigator" transform="translate(0 0)" fill="#404254">
                <rect fill="#f2f5e9" fill-opacity="0.5" stroke="#606060" stroke-width=".5" x="0" y="0" width="60" height="60"/>
                <use id="zoomplus" xlink:href="#zoomPlus" x="17" y="9" onmousedown="handleZoom(evt,'in')"/>
                <use id="zoomminus" xlink:href="#zoomMin" x="42" y="9" onmousedown="handleZoom(evt,'out')"/>
                <use id="reset" xlink:href="#resetDef" x="30" y="36" onmousedown="handleReset()"/>
                <g id="arrowUp" xlink:href="#dirArrow" transform="translate(30 24)" onmousedown="handlePan(0,-1)">
                  <use xlink:href="#rim" fill="#404040">
                        <set attributeName="fill" to="#808080" begin="arrowUp.mouseover" end="arrowUp.mouseout"/>
                  </use>
                  <path fill="none" stroke="white" stroke-width="1.5" d="M0,-3.0v7 M-2.5,-0.5L0,-3.0L2.5,-0.5"/>
                </g>
                <g id="arrowRight" xlink:href="#dirArrow" transform="rotate(90) translate(36 -43)" onmousedown="handlePan(1,0)">
                  <use xlink:href="#rim" fill="#404040">
                        <set attributeName="fill" to="#808080" begin="arrowRight.mouseover" end="arrowRight.mouseout"/>
                  </use>
                  <path fill="none" stroke="white" stroke-width="1.5" d="M0,-3.0v7 M-2.5,-0.5L0,-3.0L2.5,-0.5"/>
                </g>
                <g id="arrowDown" xlink:href="#dirArrow" transform="rotate(180) translate(-30 -48)" onmousedown="handlePan(0,1)">
                  <use xlink:href="#rim" fill="#404040">
                        <set attributeName="fill" to="#808080" begin="arrowDown.mouseover" end="arrowDown.mouseout"/>
                  </use>
                  <path fill="none" stroke="white" stroke-width="1.5" d="M0,-3.0v7 M-2.5,-0.5L0,-3.0L2.5,-0.5"/>
                </g>
                <g id="arrowLeft" xlink:href="#dirArrow" transform="rotate(270) translate(-36 17)" onmousedown="handlePan(-1,0)">
                  <use xlink:href="#rim" fill="#404040">
                        <set attributeName="fill" to="#808080" begin="arrowLeft.mouseover" end="arrowLeft.mouseout"/>
                  </use>
                  <path fill="none" stroke="white" stroke-width="1.5" d="M0,-3.0v7 M-2.5,-0.5L0,-3.0L2.5,-0.5"/>
                </g>
        </g>
        <svg viewBox="0 0 15 15" width="100%" height="30px" preserveAspectRatio="xMaxYMin meet">
         <g id="arrow_out" transform="scale(0.3 0.3)">
          <a xlink:href="classo2_1_1devices_1_1EPNReceiverDevice__coll__graph_org.svg" target="_base">
           <rect id="button" ry="5" rx="5" y="6" x="6" height="38" width="38"
                fill="#f2f5e9" fill-opacity="0.5" stroke="#606060" stroke-width="1.0"/>
           <path id="arrow"
             d="M 11.500037,31.436501 C 11.940474,20.09759 22.043105,11.32322 32.158766,21.979434 L 37.068811,17.246167 C 37.068811,17.246167 37.088388,32 37.088388,32 L 22.160133,31.978069 C 22.160133,31.978069 26.997745,27.140456 26.997745,27.140456 C 18.528582,18.264221 13.291696,25.230495 11.500037,31.436501 z"
             style="fill:#404040;"/>
          </a>
         </g>
        </svg>
</svg>
