<?xml version="1.0" encoding="UTF-8" standalone="no"?>
<!DOCTYPE svg PUBLIC "-//W3C//DTD SVG 1.1//EN"
 "http://www.w3.org/Graphics/SVG/1.1/DTD/svg11.dtd">
<!-- Generated by graphviz version 2.40.1 (20161225.0304)
 -->
<!-- Title: o2::devices::EPNReceiverDevice Pages: 1 -->
<svg width="656pt" height="270pt"
 viewBox="0.00 0.00 655.50 270.00" xmlns="http://www.w3.org/2000/svg" xmlns:xlink="http://www.w3.org/1999/xlink">
<g id="graph0" class="graph" transform="scale(1 1) rotate(0) translate(4 266)">
<title>o2::devices::EPNReceiverDevice</title>
<!-- Node2 -->
<g id="node1" class="node">
<title>Node2</title>
<polygon fill="#bfbfbf" stroke="#000000" points="208.5,-.5 208.5,-123.5 394.5,-123.5 394.5,-.5 208.5,-.5"/>
<text text-anchor="start" x="216.5" y="-111.5" font-family="Helvetica,sans-Serif" font-size="10.00" fill="#000000">o2::devices::EPNReceiver</text>
<text text-anchor="middle" x="301.5" y="-100.5" font-family="Helvetica,sans-Serif" font-size="10.00" fill="#000000">Device</text>
<polyline fill="none" stroke="#000000" points="208.5,-93.5 394.5,-93.5 "/>
<text text-anchor="middle" x="301.5" y="-81.5" font-family="Helvetica,sans-Serif" font-size="10.00" fill="#000000"> </text>
<polyline fill="none" stroke="#000000" points="208.5,-74.5 394.5,-74.5 "/>
<text text-anchor="start" x="216.5" y="-62.5" font-family="Helvetica,sans-Serif" font-size="10.00" fill="#000000">+ EPNReceiverDevice()</text>
<text text-anchor="start" x="216.5" y="-51.5" font-family="Helvetica,sans-Serif" font-size="10.00" fill="#000000">+ ~EPNReceiverDevice()</text>
<text text-anchor="start" x="216.5" y="-40.5" font-family="Helvetica,sans-Serif" font-size="10.00" fill="#000000">+ InitTask()</text>
<text text-anchor="start" x="216.5" y="-29.5" font-family="Helvetica,sans-Serif" font-size="10.00" fill="#000000">+ PrintBuffer()</text>
<text text-anchor="start" x="216.5" y="-18.5" font-family="Helvetica,sans-Serif" font-size="10.00" fill="#000000">+ DiscardIncompleteTimeframes()</text>
<text text-anchor="start" x="216.5" y="-7.5" font-family="Helvetica,sans-Serif" font-size="10.00" fill="#000000"># Run()</text>
</g>
<!-- Node3 -->
<g id="node2" class="node">
<title>Node3</title>
<g id="a_node2"><a xlink:href="../../db/dfe/classFairMQDevice.html" target="_top" xlink:title="{FairMQDevice\n||}">
<polygon fill="none" stroke="#000000" points="0,-199 0,-256 83,-256 83,-199 0,-199"/>
<text text-anchor="middle" x="41.5" y="-244" font-family="Helvetica,sans-Serif" font-size="10.00" fill="#000000">FairMQDevice</text>
<polyline fill="none" stroke="#000000" points="0,-237 83,-237 "/>
<text text-anchor="middle" x="41.5" y="-225" font-family="Helvetica,sans-Serif" font-size="10.00" fill="#000000"> </text>
<polyline fill="none" stroke="#000000" points="0,-218 83,-218 "/>
<text text-anchor="middle" x="41.5" y="-206" font-family="Helvetica,sans-Serif" font-size="10.00" fill="#000000"> </text>
</a>
</g>
</g>
<!-- Node3&#45;&gt;Node2 -->
<g id="edge1" class="edge">
<title>Node3&#45;&gt;Node2</title>
<path fill="none" stroke="#191970" d="M90.9535,-193.359C91.136,-193.239 91.3182,-193.1194 91.5,-193 129.3986,-168.1233 171.7256,-141.5022 208.3946,-118.7993"/>
<polygon fill="none" stroke="#191970" points="88.9842,-190.4654 82.5984,-198.9196 92.8625,-196.2928 88.9842,-190.4654"/>
</g>
<!-- Node4 -->
<g id="node3" class="node">
<title>Node4</title>
<polygon fill="none" stroke="#bfbfbf" points="101,-193.5 101,-261.5 246,-261.5 246,-193.5 101,-193.5"/>
<text text-anchor="start" x="109" y="-249.5" font-family="Helvetica,sans-Serif" font-size="10.00" fill="#000000">unordered_map&lt; uint16</text>
<text text-anchor="middle" x="173.5" y="-238.5" font-family="Helvetica,sans-Serif" font-size="10.00" fill="#000000">_t, o2::devices::TFBuffer &gt;</text>
<polyline fill="none" stroke="#bfbfbf" points="101,-231.5 246,-231.5 "/>
<text text-anchor="middle" x="173.5" y="-219.5" font-family="Helvetica,sans-Serif" font-size="10.00" fill="#000000"> </text>
<polyline fill="none" stroke="#bfbfbf" points="101,-212.5 246,-212.5 "/>
<text text-anchor="middle" x="173.5" y="-200.5" font-family="Helvetica,sans-Serif" font-size="10.00" fill="#000000"> </text>
</g>
<!-- Node4&#45;&gt;Node2 -->
<g id="edge2" class="edge">
<title>Node4&#45;&gt;Node2</title>
<path fill="none" stroke="#404040" d="M175.5043,-193.2686C177.8106,-176.6943 182.6114,-157.154 192.5,-142 194.8481,-138.4016 197.4177,-134.9088 200.1651,-131.5248"/>
<polygon fill="none" stroke="#404040" points="200.3922,-131.268 201.371,-124.1236 208.3423,-122.2793 207.3635,-129.4237 200.3922,-131.268"/>
<text text-anchor="middle" x="245" y="-156" font-family="Helvetica,sans-Serif" font-size="10.00" fill="#000000"> #mTimeframeBuffer</text>
</g>
<!-- Node5 -->
<g id="node4" class="node">
<title>Node5</title>
<polygon fill="none" stroke="#bfbfbf" points="287,-199 287,-256 316,-256 316,-199 287,-199"/>
<text text-anchor="middle" x="301.5" y="-244" font-family="Helvetica,sans-Serif" font-size="10.00" fill="#000000">int</text>
<polyline fill="none" stroke="#bfbfbf" points="287,-237 316,-237 "/>
<text text-anchor="middle" x="301.5" y="-225" font-family="Helvetica,sans-Serif" font-size="10.00" fill="#000000"> </text>
<polyline fill="none" stroke="#bfbfbf" points="287,-218 316,-218 "/>
<text text-anchor="middle" x="301.5" y="-206" font-family="Helvetica,sans-Serif" font-size="10.00" fill="#000000"> </text>
</g>
<!-- Node5&#45;&gt;Node2 -->
<g id="edge3" class="edge">
<title>Node5&#45;&gt;Node2</title>
<path fill="none" stroke="#404040" d="M301.5,-198.6721C301.5,-181.2468 301.5,-158.1711 301.5,-135.9513"/>
<polygon fill="none" stroke="#404040" points="301.5001,-135.7364 297.5,-129.7364 301.5,-123.7364 305.5,-129.7364 301.5001,-135.7364"/>
<text text-anchor="middle" x="358.5" y="-167" font-family="Helvetica,sans-Serif" font-size="10.00" fill="#000000"> #mBufferTimeoutInMs</text>
<text text-anchor="middle" x="358.5" y="-156" font-family="Helvetica,sans-Serif" font-size="10.00" fill="#000000">#mNumFLPs</text>
<text text-anchor="middle" x="358.5" y="-145" font-family="Helvetica,sans-Serif" font-size="10.00" fill="#000000">#mTestMode</text>
</g>
<!-- Node6 -->
<g id="node5" class="node">
<title>Node6</title>
<polygon fill="none" stroke="#bfbfbf" points="416.5,-199 416.5,-256 460.5,-256 460.5,-199 416.5,-199"/>
<text text-anchor="middle" x="438.5" y="-244" font-family="Helvetica,sans-Serif" font-size="10.00" fill="#000000">string</text>
<polyline fill="none" stroke="#bfbfbf" points="416.5,-237 460.5,-237 "/>
<text text-anchor="middle" x="438.5" y="-225" font-family="Helvetica,sans-Serif" font-size="10.00" fill="#000000"> </text>
<polyline fill="none" stroke="#bfbfbf" points="416.5,-218 460.5,-218 "/>
<text text-anchor="middle" x="438.5" y="-206" font-family="Helvetica,sans-Serif" font-size="10.00" fill="#000000"> </text>
</g>
<!-- Node6&#45;&gt;Node2 -->
<g id="edge4" class="edge">
<title>Node6&#45;&gt;Node2</title>
<path fill="none" stroke="#404040" d="M436.202,-198.8461C433.6185,-181.1625 428.1349,-158.7388 416.5,-142 412.6393,-136.4457 408.2601,-131.154 403.5206,-126.1334"/>
<polygon fill="none" stroke="#404040" points="403.1887,-125.8069 396.1063,-124.4503 394.6346,-117.391 401.717,-118.7476 403.1887,-125.8069"/>
<text text-anchor="middle" x="485" y="-167" font-family="Helvetica,sans-Serif" font-size="10.00" fill="#000000"> #mAckChannelName</text>
<text text-anchor="middle" x="485" y="-156" font-family="Helvetica,sans-Serif" font-size="10.00" fill="#000000">#mOutChannelName</text>
<text text-anchor="middle" x="485" y="-145" font-family="Helvetica,sans-Serif" font-size="10.00" fill="#000000">#mInChannelName</text>
</g>
<!-- Node7 -->
<g id="node6" class="node">
<title>Node7</title>
<polygon fill="none" stroke="#bfbfbf" points="496,-199 496,-256 645,-256 645,-199 496,-199"/>
<text text-anchor="middle" x="570.5" y="-244" font-family="Helvetica,sans-Serif" font-size="10.00" fill="#000000">unordered_set&lt; uint16_t &gt;</text>
<polyline fill="none" stroke="#bfbfbf" points="496,-237 645,-237 "/>
<text text-anchor="middle" x="570.5" y="-225" font-family="Helvetica,sans-Serif" font-size="10.00" fill="#000000"> </text>
<polyline fill="none" stroke="#bfbfbf" points="496,-218 645,-218 "/>
<text text-anchor="middle" x="570.5" y="-206" font-family="Helvetica,sans-Serif" font-size="10.00" fill="#000000"> </text>
</g>
<!-- Node7&#45;&gt;Node2 -->
<g id="edge5" class="edge">
<title>Node7&#45;&gt;Node2</title>
<path fill="none" stroke="#404040" d="M568.0653,-198.6861C565.0598,-180.258 558.369,-157.0695 543.5,-142 523.4793,-121.7094 462.3173,-101.5799 406.4947,-86.5884"/>
<polygon fill="none" stroke="#404040" points="406.2829,-86.5325 399.4606,-88.8683 394.6805,-83.4691 401.5028,-81.1333 406.2829,-86.5325"/>
<text text-anchor="middle" x="604.5" y="-156" font-family="Helvetica,sans-Serif" font-size="10.00" fill="#000000"> #mDiscardedSet</text>
</g>
</g>
</svg>
