<?xml version="1.0" encoding="UTF-8" standalone="no"?>
<!DOCTYPE svg PUBLIC "-//W3C//DTD SVG 1.1//EN"
 "http://www.w3.org/Graphics/SVG/1.1/DTD/svg11.dtd">
<!-- Generated by graphviz version 2.40.1 (20161225.0304)
 -->
<!-- Title: /home/travis/build/AliceO2Group/AliceO2/Detectors/CPV/simulation/src/Digitizer.cxx Pages: 1 -->
<svg width="2687pt" height="508pt"
 viewBox="0.00 0.00 2686.50 508.00" xmlns="http://www.w3.org/2000/svg" xmlns:xlink="http://www.w3.org/1999/xlink">
<g id="graph0" class="graph" transform="scale(1 1) rotate(0) translate(4 504)">
<title>/home/travis/build/AliceO2Group/AliceO2/Detectors/CPV/simulation/src/Digitizer.cxx</title>
<!-- Node0 -->
<g id="node1" class="node">
<title>Node0</title>
<polygon fill="#bfbfbf" stroke="#000000" points="1890.5,-447.5 1890.5,-499.5 2034.5,-499.5 2034.5,-447.5 1890.5,-447.5"/>
<text text-anchor="start" x="1898.5" y="-487.5" font-family="Helvetica,sans-Serif" font-size="10.00" fill="#000000">/home/travis/build</text>
<text text-anchor="start" x="1898.5" y="-476.5" font-family="Helvetica,sans-Serif" font-size="10.00" fill="#000000">/AliceO2Group/AliceO2</text>
<text text-anchor="start" x="1898.5" y="-465.5" font-family="Helvetica,sans-Serif" font-size="10.00" fill="#000000">/Detectors/CPV/simulation</text>
<text text-anchor="middle" x="1962.5" y="-454.5" font-family="Helvetica,sans-Serif" font-size="10.00" fill="#000000">/src/Digitizer.cxx</text>
</g>
<!-- Node1 -->
<g id="node2" class="node">
<title>Node1</title>
<g id="a_node2"><a xlink:href="../../d4/d37/CPV_2simulation_2include_2CPVSimulation_2Digitizer_8h.html" target="_top" xlink:title="CPVSimulation/Digitizer.h">
<polygon fill="none" stroke="#000000" points="1537,-391.5 1537,-410.5 1678,-410.5 1678,-391.5 1537,-391.5"/>
<text text-anchor="middle" x="1607.5" y="-398.5" font-family="Helvetica,sans-Serif" font-size="10.00" fill="#000000">CPVSimulation/Digitizer.h</text>
</a>
</g>
</g>
<!-- Node0&#45;&gt;Node1 -->
<g id="edge1" class="edge">
<title>Node0&#45;&gt;Node1</title>
<path fill="none" stroke="#191970" d="M1890.2326,-458.7412C1823.4036,-445.093 1725.4268,-425.0836 1664.1139,-412.562"/>
<polygon fill="#191970" stroke="#191970" points="1664.7247,-409.1146 1654.2266,-410.5427 1663.324,-415.973 1664.7247,-409.1146"/>
</g>
<!-- Node6 -->
<g id="node7" class="node">
<title>Node6</title>
<g id="a_node7"><a xlink:href="../../d7/dcd/MCCompLabel_8h.html" target="_top" xlink:title="SimulationDataFormat\l/MCCompLabel.h">
<polygon fill="none" stroke="#000000" points="1211,-257.5 1211,-287.5 1338,-287.5 1338,-257.5 1211,-257.5"/>
<text text-anchor="start" x="1219" y="-275.5" font-family="Helvetica,sans-Serif" font-size="10.00" fill="#000000">SimulationDataFormat</text>
<text text-anchor="middle" x="1274.5" y="-264.5" font-family="Helvetica,sans-Serif" font-size="10.00" fill="#000000">/MCCompLabel.h</text>
</a>
</g>
</g>
<!-- Node0&#45;&gt;Node6 -->
<g id="edge45" class="edge">
<title>Node0&#45;&gt;Node6</title>
<path fill="none" stroke="#191970" d="M1890.4695,-468.6819C1741.5501,-457.4023 1406.3456,-424.7844 1318.5,-355 1300.0543,-340.3468 1288.3819,-315.7942 1281.7312,-297.2752"/>
<polygon fill="#191970" stroke="#191970" points="1285.025,-296.0885 1278.5418,-287.7088 1278.3843,-298.3025 1285.025,-296.0885"/>
</g>
<!-- Node40 -->
<g id="node41" class="node">
<title>Node40</title>
<g id="a_node41"><a xlink:href="../../de/d2a/CPVSimParams_8h.html" target="_top" xlink:title="CPVSimulation/CPVSimParams.h">
<polygon fill="none" stroke="#000000" points="1875,-391.5 1875,-410.5 2050,-410.5 2050,-391.5 1875,-391.5"/>
<text text-anchor="middle" x="1962.5" y="-398.5" font-family="Helvetica,sans-Serif" font-size="10.00" fill="#000000">CPVSimulation/CPVSimParams.h</text>
</a>
</g>
</g>
<!-- Node0&#45;&gt;Node40 -->
<g id="edge46" class="edge">
<title>Node0&#45;&gt;Node40</title>
<path fill="none" stroke="#191970" d="M1962.5,-447.3258C1962.5,-438.5142 1962.5,-428.8397 1962.5,-420.621"/>
<polygon fill="#191970" stroke="#191970" points="1966.0001,-420.534 1962.5,-410.534 1959.0001,-420.534 1966.0001,-420.534"/>
</g>
<!-- Node50 -->
<g id="node51" class="node">
<title>Node50</title>
<polygon fill="none" stroke="#bfbfbf" points="2068.5,-391.5 2068.5,-410.5 2140.5,-410.5 2140.5,-391.5 2068.5,-391.5"/>
<text text-anchor="middle" x="2104.5" y="-398.5" font-family="Helvetica,sans-Serif" font-size="10.00" fill="#000000">TRandom.h</text>
</g>
<!-- Node0&#45;&gt;Node50 -->
<g id="edge60" class="edge">
<title>Node0&#45;&gt;Node50</title>
<path fill="none" stroke="#191970" d="M2013.7653,-447.3258C2034.9464,-436.5115 2058.673,-424.3976 2076.55,-415.2703"/>
<polygon fill="#191970" stroke="#191970" points="2078.5117,-418.1985 2085.8265,-410.534 2075.3286,-411.9641 2078.5117,-418.1985"/>
</g>
<!-- Node51 -->
<g id="node52" class="node">
<title>Node51</title>
<polygon fill="none" stroke="#bfbfbf" points="2159,-391.5 2159,-410.5 2234,-410.5 2234,-391.5 2159,-391.5"/>
<text text-anchor="middle" x="2196.5" y="-398.5" font-family="Helvetica,sans-Serif" font-size="10.00" fill="#000000">FairLogger.h</text>
</g>
<!-- Node0&#45;&gt;Node51 -->
<g id="edge61" class="edge">
<title>Node0&#45;&gt;Node51</title>
<path fill="none" stroke="#191970" d="M2034.6171,-451.156C2074.4121,-438.8264 2122.3723,-423.9669 2155.7142,-413.6366"/>
<polygon fill="#191970" stroke="#191970" points="2157.051,-416.8867 2165.5672,-410.5839 2154.9793,-410.2002 2157.051,-416.8867"/>
</g>
<!-- Node2 -->
<g id="node3" class="node">
<title>Node2</title>
<g id="a_node3"><a xlink:href="../../d5/d34/Detectors_2CPV_2base_2include_2CPVBase_2Digit_8h.html" target="_top" xlink:title="CPVBase/Digit.h">
<polygon fill="none" stroke="#000000" points="1328,-330 1328,-349 1423,-349 1423,-330 1328,-330"/>
<text text-anchor="middle" x="1375.5" y="-337" font-family="Helvetica,sans-Serif" font-size="10.00" fill="#000000">CPVBase/Digit.h</text>
</a>
</g>
</g>
<!-- Node1&#45;&gt;Node2 -->
<g id="edge2" class="edge">
<title>Node1&#45;&gt;Node2</title>
<path fill="none" stroke="#191970" d="M1571.5046,-391.4581C1531.1223,-380.7533 1465.5189,-363.3628 1421.4612,-351.6837"/>
<polygon fill="#191970" stroke="#191970" points="1422.1429,-348.2436 1411.5799,-349.0643 1420.3492,-355.0099 1422.1429,-348.2436"/>
</g>
<!-- Node1&#45;&gt;Node6 -->
<g id="edge34" class="edge">
<title>Node1&#45;&gt;Node6</title>
<path fill="none" stroke="#191970" d="M1587.4347,-391.4716C1555.0288,-376.2541 1488.9874,-345.9467 1431.5,-324 1399.7176,-311.8666 1363.6887,-299.9227 1334.1686,-290.5966"/>
<polygon fill="#191970" stroke="#191970" points="1335.0116,-287.193 1324.4224,-287.5378 1332.9154,-293.8718 1335.0116,-287.193"/>
</g>
<!-- Node7 -->
<g id="node8" class="node">
<title>Node7</title>
<g id="a_node8"><a xlink:href="../../db/dd0/Detectors_2CPV_2base_2include_2CPVBase_2Hit_8h.html" target="_top" xlink:title="CPVBase/Hit.h">
<polygon fill="none" stroke="#000000" points="1356.5,-263 1356.5,-282 1442.5,-282 1442.5,-263 1356.5,-263"/>
<text text-anchor="middle" x="1399.5" y="-270" font-family="Helvetica,sans-Serif" font-size="10.00" fill="#000000">CPVBase/Hit.h</text>
</a>
</g>
</g>
<!-- Node1&#45;&gt;Node7 -->
<g id="edge33" class="edge">
<title>Node1&#45;&gt;Node7</title>
<path fill="none" stroke="#191970" d="M1598.263,-391.4313C1582.7364,-375.7516 1549.9133,-344.3041 1517.5,-324 1492.1939,-308.1479 1461.1651,-294.8157 1437.2779,-285.6905"/>
<polygon fill="#191970" stroke="#191970" points="1438.4374,-282.3874 1427.8449,-282.1627 1435.9853,-288.9439 1438.4374,-282.3874"/>
</g>
<!-- Node27 -->
<g id="node28" class="node">
<title>Node27</title>
<g id="a_node28"><a xlink:href="../../de/ddd/CPV_2base_2include_2CPVBase_2Geometry_8h.html" target="_top" xlink:title="CPVBase/Geometry.h">
<polygon fill="none" stroke="#000000" points="2462,-330 2462,-349 2581,-349 2581,-330 2462,-330"/>
<text text-anchor="middle" x="2521.5" y="-337" font-family="Helvetica,sans-Serif" font-size="10.00" fill="#000000">CPVBase/Geometry.h</text>
</a>
</g>
</g>
<!-- Node1&#45;&gt;Node27 -->
<g id="edge29" class="edge">
<title>Node1&#45;&gt;Node27</title>
<path fill="none" stroke="#191970" d="M1678.107,-396.7389C1806.1636,-388.9453 2085.2541,-371.6583 2320.5,-355 2364.0855,-351.9136 2412.9626,-348.1512 2451.6046,-345.1062"/>
<polygon fill="#191970" stroke="#191970" points="2452.0144,-348.5849 2461.7077,-344.3081 2451.4631,-341.6066 2452.0144,-348.5849"/>
</g>
<!-- Node31 -->
<g id="node32" class="node">
<title>Node31</title>
<g id="a_node32"><a xlink:href="../../db/d14/MCTruthContainer_8h.html" target="_top" xlink:title="Definition of a container to keep Monte Carlo truth external to simulation objects. ">
<polygon fill="none" stroke="#000000" points="1677,-324.5 1677,-354.5 1804,-354.5 1804,-324.5 1677,-324.5"/>
<text text-anchor="start" x="1685" y="-342.5" font-family="Helvetica,sans-Serif" font-size="10.00" fill="#000000">SimulationDataFormat</text>
<text text-anchor="middle" x="1740.5" y="-331.5" font-family="Helvetica,sans-Serif" font-size="10.00" fill="#000000">/MCTruthContainer.h</text>
</a>
</g>
</g>
<!-- Node1&#45;&gt;Node31 -->
<g id="edge35" class="edge">
<title>Node1&#45;&gt;Node31</title>
<path fill="none" stroke="#191970" d="M1628.2813,-391.3906C1647.0312,-382.7205 1675.1795,-369.7046 1698.5934,-358.8779"/>
<polygon fill="#191970" stroke="#191970" points="1700.3569,-361.9185 1707.9645,-354.5446 1697.4189,-355.5649 1700.3569,-361.9185"/>
</g>
<!-- Node3 -->
<g id="node4" class="node">
<title>Node3</title>
<g id="a_node4"><a xlink:href="../../df/d5d/common_2include_2CommonDataFormat_2TimeStamp_8h.html" target="_top" xlink:title="CommonDataFormat/TimeStamp.h">
<polygon fill="none" stroke="#000000" points="1003,-263 1003,-282 1190,-282 1190,-263 1003,-263"/>
<text text-anchor="middle" x="1096.5" y="-270" font-family="Helvetica,sans-Serif" font-size="10.00" fill="#000000">CommonDataFormat/TimeStamp.h</text>
</a>
</g>
</g>
<!-- Node2&#45;&gt;Node3 -->
<g id="edge3" class="edge">
<title>Node2&#45;&gt;Node3</title>
<path fill="none" stroke="#191970" d="M1335.8224,-329.9717C1285.9693,-317.9998 1200.398,-297.4504 1146.2264,-284.4415"/>
<polygon fill="#191970" stroke="#191970" points="1147.0333,-281.0358 1136.4924,-282.1039 1145.3987,-287.8423 1147.0333,-281.0358"/>
</g>
<!-- Node2&#45;&gt;Node6 -->
<g id="edge6" class="edge">
<title>Node2&#45;&gt;Node6</title>
<path fill="none" stroke="#191970" d="M1361.0292,-329.9005C1346.6201,-320.3421 1324.0456,-305.3669 1305.5672,-293.1089"/>
<polygon fill="#191970" stroke="#191970" points="1307.4127,-290.1331 1297.1447,-287.5218 1303.5431,-295.9664 1307.4127,-290.1331"/>
</g>
<!-- Node2&#45;&gt;Node7 -->
<g id="edge8" class="edge">
<title>Node2&#45;&gt;Node7</title>
<path fill="none" stroke="#191970" d="M1378.9386,-329.9005C1382.503,-319.95 1388.1701,-304.1292 1392.6529,-291.6147"/>
<polygon fill="#191970" stroke="#191970" points="1395.9904,-292.6762 1396.0678,-282.0817 1389.4005,-290.3156 1395.9904,-292.6762"/>
</g>
<!-- Node4 -->
<g id="node5" class="node">
<title>Node4</title>
<g id="a_node5"><a xlink:href="../../d2/d45/GPUCommonRtypes_8h.html" target="_top" xlink:title="GPUCommonRtypes.h">
<polygon fill="none" stroke="#000000" points="1022,-196 1022,-215 1147,-215 1147,-196 1022,-196"/>
<text text-anchor="middle" x="1084.5" y="-203" font-family="Helvetica,sans-Serif" font-size="10.00" fill="#000000">GPUCommonRtypes.h</text>
</a>
</g>
</g>
<!-- Node3&#45;&gt;Node4 -->
<g id="edge4" class="edge">
<title>Node3&#45;&gt;Node4</title>
<path fill="none" stroke="#191970" d="M1094.7807,-262.9005C1093.0163,-253.0495 1090.2215,-237.4451 1087.991,-224.9912"/>
<polygon fill="#191970" stroke="#191970" points="1091.4244,-224.308 1086.2161,-215.0817 1084.534,-225.5421 1091.4244,-224.308"/>
</g>
<!-- Node5 -->
<g id="node6" class="node">
<title>Node5</title>
<polygon fill="none" stroke="#bfbfbf" points="0,-73 0,-92 59,-92 59,-73 0,-73"/>
<text text-anchor="middle" x="29.5" y="-80" font-family="Helvetica,sans-Serif" font-size="10.00" fill="#000000">Rtypes.h</text>
</g>
<!-- Node4&#45;&gt;Node5 -->
<g id="edge5" class="edge">
<title>Node4&#45;&gt;Node5</title>
<path fill="none" stroke="#191970" d="M1021.974,-201.1286C830.0555,-187.358 251.3667,-143.1101 68.5,-98 65.7146,-97.3129 62.8635,-96.4705 60.0327,-95.5368"/>
<polygon fill="#191970" stroke="#191970" points="61.2056,-92.2391 50.6116,-92.1036 58.8088,-98.816 61.2056,-92.2391"/>
</g>
<!-- Node6&#45;&gt;Node4 -->
<g id="edge7" class="edge">
<title>Node6&#45;&gt;Node4</title>
<path fill="none" stroke="#191970" d="M1231.8603,-257.4639C1198.5896,-245.7316 1152.8585,-229.6054 1121.2044,-218.4431"/>
<polygon fill="#191970" stroke="#191970" points="1122.0501,-215.0302 1111.4553,-215.0053 1119.7221,-221.6317 1122.0501,-215.0302"/>
</g>
<!-- Node8 -->
<g id="node9" class="node">
<title>Node8</title>
<g id="a_node9"><a xlink:href="../../d4/d25/BaseHits_8h.html" target="_top" xlink:title="SimulationDataFormat\l/BaseHits.h">
<polygon fill="none" stroke="#000000" points="1165,-190.5 1165,-220.5 1292,-220.5 1292,-190.5 1165,-190.5"/>
<text text-anchor="start" x="1173" y="-208.5" font-family="Helvetica,sans-Serif" font-size="10.00" fill="#000000">SimulationDataFormat</text>
<text text-anchor="middle" x="1228.5" y="-197.5" font-family="Helvetica,sans-Serif" font-size="10.00" fill="#000000">/BaseHits.h</text>
</a>
</g>
</g>
<!-- Node7&#45;&gt;Node8 -->
<g id="edge9" class="edge">
<title>Node7&#45;&gt;Node8</title>
<path fill="none" stroke="#191970" d="M1374.9999,-262.9005C1349.3902,-252.8663 1308.5452,-236.8627 1276.4814,-224.2997"/>
<polygon fill="#191970" stroke="#191970" points="1277.4268,-220.9111 1266.8391,-220.5218 1274.8731,-227.4287 1277.4268,-220.9111"/>
</g>
<!-- Node20 -->
<g id="node21" class="node">
<title>Node20</title>
<g id="a_node21"><a xlink:href="../../d0/d91/ShmAllocator_8h.html" target="_top" xlink:title="CommonUtils/ShmAllocator.h">
<polygon fill="none" stroke="#000000" points="1310.5,-196 1310.5,-215 1470.5,-215 1470.5,-196 1310.5,-196"/>
<text text-anchor="middle" x="1390.5" y="-203" font-family="Helvetica,sans-Serif" font-size="10.00" fill="#000000">CommonUtils/ShmAllocator.h</text>
</a>
</g>
</g>
<!-- Node7&#45;&gt;Node20 -->
<g id="edge22" class="edge">
<title>Node7&#45;&gt;Node20</title>
<path fill="none" stroke="#191970" d="M1398.2105,-262.9005C1396.9006,-253.149 1394.8334,-237.7597 1393.169,-225.3695"/>
<polygon fill="#191970" stroke="#191970" points="1396.5873,-224.5266 1391.7871,-215.0817 1389.6497,-225.4586 1396.5873,-224.5266"/>
</g>
<!-- Node9 -->
<g id="node10" class="node">
<title>Node9</title>
<g id="a_node10"><a xlink:href="../../dd/d76/Cartesian3D_8h.html" target="_top" xlink:title="MathUtils/Cartesian3D.h">
<polygon fill="none" stroke="#000000" points="756,-134.5 756,-153.5 891,-153.5 891,-134.5 756,-134.5"/>
<text text-anchor="middle" x="823.5" y="-141.5" font-family="Helvetica,sans-Serif" font-size="10.00" fill="#000000">MathUtils/Cartesian3D.h</text>
</a>
</g>
</g>
<!-- Node8&#45;&gt;Node9 -->
<g id="edge10" class="edge">
<title>Node8&#45;&gt;Node9</title>
<path fill="none" stroke="#191970" d="M1164.8509,-191.7054C1161.693,-191.1089 1158.5628,-190.5366 1155.5,-190 1068.8168,-174.8122 968.6829,-161.5151 901.2437,-153.1753"/>
<polygon fill="#191970" stroke="#191970" points="901.4749,-149.6775 891.1225,-151.9306 900.6204,-156.6251 901.4749,-149.6775"/>
</g>
<!-- Node9&#45;&gt;Node5 -->
<g id="edge16" class="edge">
<title>Node9&#45;&gt;Node5</title>
<path fill="none" stroke="#191970" d="M755.9546,-142.6209C596.1274,-138.9165 198.4288,-126.9964 68.5,-98 65.6334,-97.3602 62.7025,-96.5376 59.7986,-95.6056"/>
<polygon fill="#191970" stroke="#191970" points="60.7571,-92.2304 50.1628,-92.122 58.3771,-98.8135 60.7571,-92.2304"/>
</g>
<!-- Node10 -->
<g id="node11" class="node">
<title>Node10</title>
<polygon fill="none" stroke="#bfbfbf" points="77.5,-67.5 77.5,-97.5 241.5,-97.5 241.5,-67.5 77.5,-67.5"/>
<text text-anchor="start" x="85.5" y="-85.5" font-family="Helvetica,sans-Serif" font-size="10.00" fill="#000000">Math/GenVector/Displacement</text>
<text text-anchor="middle" x="159.5" y="-74.5" font-family="Helvetica,sans-Serif" font-size="10.00" fill="#000000">Vector3D.h</text>
</g>
<!-- Node9&#45;&gt;Node10 -->
<g id="edge11" class="edge">
<title>Node9&#45;&gt;Node10</title>
<path fill="none" stroke="#191970" d="M755.8217,-140.5137C650.3068,-134.6485 440.0224,-121.2378 251.8692,-98.1038"/>
<polygon fill="#191970" stroke="#191970" points="252.1465,-94.6115 241.7915,-96.8527 251.2841,-101.5582 252.1465,-94.6115"/>
</g>
<!-- Node11 -->
<g id="node12" class="node">
<title>Node11</title>
<polygon fill="none" stroke="#bfbfbf" points="260,-73 260,-92 449,-92 449,-73 260,-73"/>
<text text-anchor="middle" x="354.5" y="-80" font-family="Helvetica,sans-Serif" font-size="10.00" fill="#000000">Math/GenVector/PositionVector3D.h</text>
</g>
<!-- Node9&#45;&gt;Node11 -->
<g id="edge12" class="edge">
<title>Node9&#45;&gt;Node11</title>
<path fill="none" stroke="#191970" d="M755.8321,-135.9357C682.5125,-127.0895 562.1109,-112.2481 458.5,-98 448.2899,-96.596 437.525,-95.0573 426.9466,-93.5118"/>
<polygon fill="#191970" stroke="#191970" points="427.2888,-90.0245 416.8859,-92.032 426.2701,-96.95 427.2888,-90.0245"/>
</g>
<!-- Node12 -->
<g id="node13" class="node">
<title>Node12</title>
<polygon fill="none" stroke="#bfbfbf" points="467.5,-73 467.5,-92 627.5,-92 627.5,-73 467.5,-73"/>
<text text-anchor="middle" x="547.5" y="-80" font-family="Helvetica,sans-Serif" font-size="10.00" fill="#000000">Math/GenVector/Rotation3D.h</text>
</g>
<!-- Node9&#45;&gt;Node12 -->
<g id="edge13" class="edge">
<title>Node9&#45;&gt;Node12</title>
<path fill="none" stroke="#191970" d="M780.6778,-134.4581C732.03,-123.6181 652.615,-105.9224 600.2042,-94.2439"/>
<polygon fill="#191970" stroke="#191970" points="600.9445,-90.8231 590.4226,-92.0643 599.422,-97.6555 600.9445,-90.8231"/>
</g>
<!-- Node13 -->
<g id="node14" class="node">
<title>Node13</title>
<polygon fill="none" stroke="#bfbfbf" points="645.5,-73 645.5,-92 813.5,-92 813.5,-73 645.5,-73"/>
<text text-anchor="middle" x="729.5" y="-80" font-family="Helvetica,sans-Serif" font-size="10.00" fill="#000000">Math/GenVector/Transform3D.h</text>
</g>
<!-- Node9&#45;&gt;Node13 -->
<g id="edge14" class="edge">
<title>Node9&#45;&gt;Node13</title>
<path fill="none" stroke="#191970" d="M808.8125,-134.3906C793.7744,-124.5519 770.1824,-109.1167 752.6333,-97.6351"/>
<polygon fill="#191970" stroke="#191970" points="754.3687,-94.588 744.0844,-92.0419 750.5363,-100.4457 754.3687,-94.588"/>
</g>
<!-- Node14 -->
<g id="node15" class="node">
<title>Node14</title>
<polygon fill="none" stroke="#bfbfbf" points="832,-73 832,-92 1005,-92 1005,-73 832,-73"/>
<text text-anchor="middle" x="918.5" y="-80" font-family="Helvetica,sans-Serif" font-size="10.00" fill="#000000">Math/GenVector/Translation3D.h</text>
</g>
<!-- Node9&#45;&gt;Node14 -->
<g id="edge15" class="edge">
<title>Node9&#45;&gt;Node14</title>
<path fill="none" stroke="#191970" d="M838.3438,-134.3906C853.5418,-124.5519 877.3848,-109.1167 895.1206,-97.6351"/>
<polygon fill="#191970" stroke="#191970" points="897.268,-100.4144 903.7605,-92.0419 893.4639,-94.5382 897.268,-100.4144"/>
</g>
<!-- Node15 -->
<g id="node16" class="node">
<title>Node15</title>
<polygon fill="none" stroke="#bfbfbf" points="1023.5,-73 1023.5,-92 1105.5,-92 1105.5,-73 1023.5,-73"/>
<text text-anchor="middle" x="1064.5" y="-80" font-family="Helvetica,sans-Serif" font-size="10.00" fill="#000000">TGeoMatrix.h</text>
</g>
<!-- Node9&#45;&gt;Node15 -->
<g id="edge17" class="edge">
<title>Node9&#45;&gt;Node15</title>
<path fill="none" stroke="#191970" d="M865.938,-134.462C904.5617,-125.6067 963.076,-111.7542 1013.5,-98 1017.0572,-97.0297 1020.7425,-95.986 1024.4299,-94.9152"/>
<polygon fill="#191970" stroke="#191970" points="1025.5141,-98.2444 1034.109,-92.0493 1023.5267,-91.5325 1025.5141,-98.2444"/>
</g>
<!-- Node16 -->
<g id="node17" class="node">
<title>Node16</title>
<polygon fill="none" stroke="#bfbfbf" points="1124,-73 1124,-92 1173,-92 1173,-73 1124,-73"/>
<text text-anchor="middle" x="1148.5" y="-80" font-family="Helvetica,sans-Serif" font-size="10.00" fill="#000000">iosfwd</text>
</g>
<!-- Node9&#45;&gt;Node16 -->
<g id="edge18" class="edge">
<title>Node9&#45;&gt;Node16</title>
<path fill="none" stroke="#191970" d="M891.1085,-138.543C950.8385,-132.4953 1039.8066,-120.4731 1114.5,-98 1116.4102,-97.4253 1118.3521,-96.765 1120.2905,-96.0479"/>
<polygon fill="#191970" stroke="#191970" points="1121.8841,-99.1766 1129.7903,-92.1238 1119.2115,-92.7068 1121.8841,-99.1766"/>
</g>
<!-- Node17 -->
<g id="node18" class="node">
<title>Node17</title>
<g id="a_node18"><a xlink:href="../../d2/dd0/Cartesian2D_8h.html" target="_top" xlink:title="MathUtils/Cartesian2D.h">
<polygon fill="none" stroke="#000000" points="1191,-73 1191,-92 1326,-92 1326,-73 1191,-73"/>
<text text-anchor="middle" x="1258.5" y="-80" font-family="Helvetica,sans-Serif" font-size="10.00" fill="#000000">MathUtils/Cartesian2D.h</text>
</a>
</g>
</g>
<!-- Node9&#45;&gt;Node17 -->
<g id="edge19" class="edge">
<title>Node9&#45;&gt;Node17</title>
<path fill="none" stroke="#191970" d="M891.0093,-136.7697C963.1368,-128.708 1080.7156,-114.5974 1181.5,-98 1188.7152,-96.8118 1196.2863,-95.4412 1203.7476,-94.0169"/>
<polygon fill="#191970" stroke="#191970" points="1204.6658,-97.4038 1213.8103,-92.0533 1203.3251,-90.5334 1204.6658,-97.4038"/>
</g>
<!-- Node18 -->
<g id="node19" class="node">
<title>Node18</title>
<polygon fill="none" stroke="#bfbfbf" points="1078.5,-.5 1078.5,-30.5 1242.5,-30.5 1242.5,-.5 1078.5,-.5"/>
<text text-anchor="start" x="1086.5" y="-18.5" font-family="Helvetica,sans-Serif" font-size="10.00" fill="#000000">Math/GenVector/Displacement</text>
<text text-anchor="middle" x="1160.5" y="-7.5" font-family="Helvetica,sans-Serif" font-size="10.00" fill="#000000">Vector2D.h</text>
</g>
<!-- Node17&#45;&gt;Node18 -->
<g id="edge20" class="edge">
<title>Node17&#45;&gt;Node18</title>
<path fill="none" stroke="#191970" d="M1244.459,-72.9005C1230.5412,-63.3853 1208.772,-48.5023 1190.888,-36.2755"/>
<polygon fill="#191970" stroke="#191970" points="1192.7026,-33.2763 1182.4721,-30.5218 1188.7519,-39.0549 1192.7026,-33.2763"/>
</g>
<!-- Node19 -->
<g id="node20" class="node">
<title>Node19</title>
<polygon fill="none" stroke="#bfbfbf" points="1261,-6 1261,-25 1450,-25 1450,-6 1261,-6"/>
<text text-anchor="middle" x="1355.5" y="-13" font-family="Helvetica,sans-Serif" font-size="10.00" fill="#000000">Math/GenVector/PositionVector2D.h</text>
</g>
<!-- Node17&#45;&gt;Node19 -->
<g id="edge21" class="edge">
<title>Node17&#45;&gt;Node19</title>
<path fill="none" stroke="#191970" d="M1272.3977,-72.9005C1288.3164,-61.9052 1314.6121,-43.7422 1333.3599,-30.7927"/>
<polygon fill="#191970" stroke="#191970" points="1335.3892,-33.6448 1341.628,-25.0817 1331.4108,-27.8852 1335.3892,-33.6448"/>
</g>
<!-- Node21 -->
<g id="node22" class="node">
<title>Node21</title>
<g id="a_node22"><a xlink:href="../../de/d61/ShmManager_8h.html" target="_top" xlink:title="CommonUtils/ShmManager.h">
<polygon fill="none" stroke="#000000" points="1311.5,-134.5 1311.5,-153.5 1469.5,-153.5 1469.5,-134.5 1311.5,-134.5"/>
<text text-anchor="middle" x="1390.5" y="-141.5" font-family="Helvetica,sans-Serif" font-size="10.00" fill="#000000">CommonUtils/ShmManager.h</text>
</a>
</g>
</g>
<!-- Node20&#45;&gt;Node21 -->
<g id="edge23" class="edge">
<title>Node20&#45;&gt;Node21</title>
<path fill="none" stroke="#191970" d="M1390.5,-195.8906C1390.5,-187.3657 1390.5,-174.6392 1390.5,-163.9235"/>
<polygon fill="#191970" stroke="#191970" points="1394.0001,-163.7448 1390.5,-153.7449 1387.0001,-163.7449 1394.0001,-163.7448"/>
</g>
<!-- Node26 -->
<g id="node27" class="node">
<title>Node26</title>
<polygon fill="none" stroke="#bfbfbf" points="1487.5,-134.5 1487.5,-153.5 1539.5,-153.5 1539.5,-134.5 1487.5,-134.5"/>
<text text-anchor="middle" x="1513.5" y="-141.5" font-family="Helvetica,sans-Serif" font-size="10.00" fill="#000000">cassert</text>
</g>
<!-- Node20&#45;&gt;Node26 -->
<g id="edge28" class="edge">
<title>Node20&#45;&gt;Node26</title>
<path fill="none" stroke="#191970" d="M1409.7188,-195.8906C1430.0281,-185.7359 1462.2607,-169.6196 1485.4168,-158.0416"/>
<polygon fill="#191970" stroke="#191970" points="1487.0372,-161.1446 1494.4162,-153.5419 1483.9067,-154.8836 1487.0372,-161.1446"/>
</g>
<!-- Node22 -->
<g id="node23" class="node">
<title>Node22</title>
<polygon fill="none" stroke="#bfbfbf" points="1344.5,-73 1344.5,-92 1376.5,-92 1376.5,-73 1344.5,-73"/>
<text text-anchor="middle" x="1360.5" y="-80" font-family="Helvetica,sans-Serif" font-size="10.00" fill="#000000">list</text>
</g>
<!-- Node21&#45;&gt;Node22 -->
<g id="edge24" class="edge">
<title>Node21&#45;&gt;Node22</title>
<path fill="none" stroke="#191970" d="M1385.8125,-134.3906C1381.5227,-125.5965 1375.0518,-112.3312 1369.7266,-101.4145"/>
<polygon fill="#191970" stroke="#191970" points="1372.7836,-99.6981 1365.2536,-92.2449 1366.4922,-102.7671 1372.7836,-99.6981"/>
</g>
<!-- Node23 -->
<g id="node24" class="node">
<title>Node23</title>
<polygon fill="none" stroke="#bfbfbf" points="1395,-73 1395,-92 1448,-92 1448,-73 1395,-73"/>
<text text-anchor="middle" x="1421.5" y="-80" font-family="Helvetica,sans-Serif" font-size="10.00" fill="#000000">cstddef</text>
</g>
<!-- Node21&#45;&gt;Node23 -->
<g id="edge25" class="edge">
<title>Node21&#45;&gt;Node23</title>
<path fill="none" stroke="#191970" d="M1395.3438,-134.3906C1399.7766,-125.5965 1406.4631,-112.3312 1411.9659,-101.4145"/>
<polygon fill="#191970" stroke="#191970" points="1415.2122,-102.75 1416.588,-92.2449 1408.9614,-99.5992 1415.2122,-102.75"/>
</g>
<!-- Node24 -->
<g id="node25" class="node">
<title>Node24</title>
<polygon fill="none" stroke="#bfbfbf" points="1466,-67.5 1466,-97.5 1631,-97.5 1631,-67.5 1466,-67.5"/>
<text text-anchor="start" x="1474" y="-85.5" font-family="Helvetica,sans-Serif" font-size="10.00" fill="#000000">boost/interprocess</text>
<text text-anchor="middle" x="1548.5" y="-74.5" font-family="Helvetica,sans-Serif" font-size="10.00" fill="#000000">/managed_external_buffer.hpp</text>
</g>
<!-- Node21&#45;&gt;Node24 -->
<g id="edge26" class="edge">
<title>Node21&#45;&gt;Node24</title>
<path fill="none" stroke="#191970" d="M1415.1875,-134.3906C1437.8578,-125.5664 1472.0937,-112.2404 1500.1942,-101.3026"/>
<polygon fill="#191970" stroke="#191970" points="1501.7995,-104.4336 1509.8489,-97.5446 1499.2603,-97.9103 1501.7995,-104.4336"/>
</g>
<!-- Node25 -->
<g id="node26" class="node">
<title>Node25</title>
<polygon fill="none" stroke="#bfbfbf" points="1649.5,-67.5 1649.5,-97.5 1783.5,-97.5 1783.5,-67.5 1649.5,-67.5"/>
<text text-anchor="start" x="1657.5" y="-85.5" font-family="Helvetica,sans-Serif" font-size="10.00" fill="#000000">boost/interprocess</text>
<text text-anchor="middle" x="1716.5" y="-74.5" font-family="Helvetica,sans-Serif" font-size="10.00" fill="#000000">/allocators/allocator.hpp</text>
</g>
<!-- Node21&#45;&gt;Node25 -->
<g id="edge27" class="edge">
<title>Node21&#45;&gt;Node25</title>
<path fill="none" stroke="#191970" d="M1443.4918,-134.4634C1493.9323,-125.3261 1571.9483,-111.0379 1639.5,-98 1639.6004,-97.9806 1639.7009,-97.9612 1639.8015,-97.9418"/>
<polygon fill="#191970" stroke="#191970" points="1640.1738,-101.4351 1649.3207,-96.0888 1638.8362,-94.5641 1640.1738,-101.4351"/>
</g>
<!-- Node28 -->
<g id="node29" class="node">
<title>Node28</title>
<polygon fill="none" stroke="#bfbfbf" points="2458.5,-263 2458.5,-282 2502.5,-282 2502.5,-263 2458.5,-263"/>
<text text-anchor="middle" x="2480.5" y="-270" font-family="Helvetica,sans-Serif" font-size="10.00" fill="#000000">string</text>
</g>
<!-- Node27&#45;&gt;Node28 -->
<g id="edge30" class="edge">
<title>Node27&#45;&gt;Node28</title>
<path fill="none" stroke="#191970" d="M2515.6257,-329.9005C2509.4148,-319.751 2499.4665,-303.4941 2491.7401,-290.8679"/>
<polygon fill="#191970" stroke="#191970" points="2494.5685,-288.7844 2486.3634,-282.0817 2488.5977,-292.4382 2494.5685,-288.7844"/>
</g>
<!-- Node29 -->
<g id="node30" class="node">
<title>Node29</title>
<polygon fill="none" stroke="#bfbfbf" points="2520.5,-263 2520.5,-282 2604.5,-282 2604.5,-263 2520.5,-263"/>
<text text-anchor="middle" x="2562.5" y="-270" font-family="Helvetica,sans-Serif" font-size="10.00" fill="#000000">RStringView.h</text>
</g>
<!-- Node27&#45;&gt;Node29 -->
<g id="edge31" class="edge">
<title>Node27&#45;&gt;Node29</title>
<path fill="none" stroke="#191970" d="M2527.3743,-329.9005C2533.5852,-319.751 2543.5335,-303.4941 2551.2599,-290.8679"/>
<polygon fill="#191970" stroke="#191970" points="2554.4023,-292.4382 2556.6366,-282.0817 2548.4315,-288.7844 2554.4023,-292.4382"/>
</g>
<!-- Node30 -->
<g id="node31" class="node">
<title>Node30</title>
<polygon fill="none" stroke="#bfbfbf" points="2622.5,-263 2622.5,-282 2678.5,-282 2678.5,-263 2622.5,-263"/>
<text text-anchor="middle" x="2650.5" y="-270" font-family="Helvetica,sans-Serif" font-size="10.00" fill="#000000">TMath.h</text>
</g>
<!-- Node27&#45;&gt;Node30 -->
<g id="edge32" class="edge">
<title>Node27&#45;&gt;Node30</title>
<path fill="none" stroke="#191970" d="M2539.9826,-329.9005C2561.7275,-318.6067 2598.0323,-299.7506 2623.064,-286.7497"/>
<polygon fill="#191970" stroke="#191970" points="2624.7905,-289.797 2632.0517,-282.0817 2621.5641,-283.5849 2624.7905,-289.797"/>
</g>
<!-- Node31&#45;&gt;Node26 -->
<g id="edge38" class="edge">
<title>Node31&#45;&gt;Node26</title>
<path fill="none" stroke="#191970" d="M1676.9682,-334.2601C1615.4251,-327.7102 1528.4148,-314.0424 1507.5,-288 1478.6283,-252.05 1494.4302,-193.243 1505.5515,-163.1119"/>
<polygon fill="#191970" stroke="#191970" points="1508.8359,-164.3228 1509.2091,-153.7345 1502.3144,-161.779 1508.8359,-164.3228"/>
</g>
<!-- Node32 -->
<g id="node33" class="node">
<title>Node32</title>
<polygon fill="none" stroke="#bfbfbf" points="1517,-263 1517,-282 1584,-282 1584,-263 1517,-263"/>
<text text-anchor="middle" x="1550.5" y="-270" font-family="Helvetica,sans-Serif" font-size="10.00" fill="#000000">TNamed.h</text>
</g>
<!-- Node31&#45;&gt;Node32 -->
<g id="edge36" class="edge">
<title>Node31&#45;&gt;Node32</title>
<path fill="none" stroke="#191970" d="M1697.0466,-324.3915C1667.764,-314.1818 1628.2807,-300.3609 1593.5,-288 1591.2288,-287.1928 1588.8911,-286.359 1586.5349,-285.5161"/>
<polygon fill="#191970" stroke="#191970" points="1587.4601,-282.1297 1576.8656,-282.0462 1585.0956,-288.7183 1587.4601,-282.1297"/>
</g>
<!-- Node33 -->
<g id="node34" class="node">
<title>Node33</title>
<polygon fill="none" stroke="#bfbfbf" points="1602.5,-263 1602.5,-282 1652.5,-282 1652.5,-263 1602.5,-263"/>
<text text-anchor="middle" x="1627.5" y="-270" font-family="Helvetica,sans-Serif" font-size="10.00" fill="#000000">cstdint</text>
</g>
<!-- Node31&#45;&gt;Node33 -->
<g id="edge37" class="edge">
<title>Node31&#45;&gt;Node33</title>
<path fill="none" stroke="#191970" d="M1715.1406,-324.4639C1696.4369,-313.3741 1671.1119,-298.3584 1652.495,-287.32"/>
<polygon fill="#191970" stroke="#191970" points="1654.0844,-284.1935 1643.6977,-282.1039 1650.5143,-290.2147 1654.0844,-284.1935"/>
</g>
<!-- Node34 -->
<g id="node35" class="node">
<title>Node34</title>
<polygon fill="none" stroke="#bfbfbf" points="1671,-263 1671,-282 1736,-282 1736,-263 1671,-263"/>
<text text-anchor="middle" x="1703.5" y="-270" font-family="Helvetica,sans-Serif" font-size="10.00" fill="#000000">stdexcept</text>
</g>
<!-- Node31&#45;&gt;Node34 -->
<g id="edge39" class="edge">
<title>Node31&#45;&gt;Node34</title>
<path fill="none" stroke="#191970" d="M1732.1041,-324.2967C1726.6192,-314.3645 1719.4249,-301.3371 1713.6237,-290.8321"/>
<polygon fill="#191970" stroke="#191970" points="1716.6748,-289.1169 1708.7766,-282.055 1710.547,-292.5009 1716.6748,-289.1169"/>
</g>
<!-- Node35 -->
<g id="node36" class="node">
<title>Node35</title>
<polygon fill="none" stroke="#bfbfbf" points="1754.5,-263 1754.5,-282 1802.5,-282 1802.5,-263 1754.5,-263"/>
<text text-anchor="middle" x="1778.5" y="-270" font-family="Helvetica,sans-Serif" font-size="10.00" fill="#000000">gsl/gsl</text>
</g>
<!-- Node31&#45;&gt;Node35 -->
<g id="edge40" class="edge">
<title>Node31&#45;&gt;Node35</title>
<path fill="none" stroke="#191970" d="M1749.1228,-324.2967C1754.756,-314.3645 1762.1447,-301.3371 1768.1027,-290.8321"/>
<polygon fill="#191970" stroke="#191970" points="1771.1917,-292.4801 1773.0808,-282.055 1765.1029,-289.0266 1771.1917,-292.4801"/>
</g>
<!-- Node36 -->
<g id="node37" class="node">
<title>Node36</title>
<polygon fill="none" stroke="#bfbfbf" points="2003,-263 2003,-282 2072,-282 2072,-263 2003,-263"/>
<text text-anchor="middle" x="2037.5" y="-270" font-family="Helvetica,sans-Serif" font-size="10.00" fill="#000000">type_traits</text>
</g>
<!-- Node31&#45;&gt;Node36 -->
<g id="edge41" class="edge">
<title>Node31&#45;&gt;Node36</title>
<path fill="none" stroke="#191970" d="M1804.2378,-329.0378C1855.7455,-319.9832 1929.8831,-305.5898 1993.5,-288 1996.4492,-287.1845 1999.4863,-286.2722 2002.5211,-285.3093"/>
<polygon fill="#191970" stroke="#191970" points="2003.7156,-288.6005 2012.096,-282.1183 2001.5024,-281.9596 2003.7156,-288.6005"/>
</g>
<!-- Node37 -->
<g id="node38" class="node">
<title>Node37</title>
<polygon fill="none" stroke="#bfbfbf" points="1858.5,-263 1858.5,-282 1908.5,-282 1908.5,-263 1858.5,-263"/>
<text text-anchor="middle" x="1883.5" y="-270" font-family="Helvetica,sans-Serif" font-size="10.00" fill="#000000">cstring</text>
</g>
<!-- Node31&#45;&gt;Node37 -->
<g id="edge42" class="edge">
<title>Node31&#45;&gt;Node37</title>
<path fill="none" stroke="#191970" d="M1772.592,-324.4639C1796.9098,-313.0702 1830.0721,-297.5327 1853.7862,-286.4219"/>
<polygon fill="#191970" stroke="#191970" points="1855.4317,-289.5161 1863.0021,-282.1039 1852.4618,-283.1773 1855.4317,-289.5161"/>
</g>
<!-- Node38 -->
<g id="node39" class="node">
<title>Node38</title>
<polygon fill="none" stroke="#bfbfbf" points="1926.5,-263 1926.5,-282 1984.5,-282 1984.5,-263 1926.5,-263"/>
<text text-anchor="middle" x="1955.5" y="-270" font-family="Helvetica,sans-Serif" font-size="10.00" fill="#000000">memory</text>
</g>
<!-- Node31&#45;&gt;Node38 -->
<g id="edge43" class="edge">
<title>Node31&#45;&gt;Node38</title>
<path fill="none" stroke="#191970" d="M1797.9718,-324.4103C1832.8351,-314.854 1878.0601,-301.7395 1917.5,-288 1919.4176,-287.332 1921.3792,-286.6206 1923.3512,-285.8838"/>
<polygon fill="#191970" stroke="#191970" points="1925.0946,-288.9609 1933.143,-282.0708 1922.5545,-282.438 1925.0946,-288.9609"/>
</g>
<!-- Node39 -->
<g id="node40" class="node">
<title>Node39</title>
<polygon fill="none" stroke="#bfbfbf" points="1812,-196 1812,-215 1859,-215 1859,-196 1812,-196"/>
<text text-anchor="middle" x="1835.5" y="-203" font-family="Helvetica,sans-Serif" font-size="10.00" fill="#000000">vector</text>
</g>
<!-- Node31&#45;&gt;Node39 -->
<g id="edge44" class="edge">
<title>Node31&#45;&gt;Node39</title>
<path fill="none" stroke="#191970" d="M1769.7068,-324.4291C1784.183,-315.6017 1800.8091,-303.1933 1811.5,-288 1824.8013,-269.0969 1830.7933,-242.8518 1833.4513,-225.0782"/>
<polygon fill="#191970" stroke="#191970" points="1836.9412,-225.3785 1834.7355,-215.0159 1829.9976,-224.4923 1836.9412,-225.3785"/>
</g>
<!-- Node41 -->
<g id="node42" class="node">
<title>Node41</title>
<g id="a_node42"><a xlink:href="../../db/d2c/ConfigurableParam_8h.html" target="_top" xlink:title="SimConfig/ConfigurableParam.h">
<polygon fill="none" stroke="#000000" points="2090.5,-263 2090.5,-282 2260.5,-282 2260.5,-263 2090.5,-263"/>
<text text-anchor="middle" x="2175.5" y="-270" font-family="Helvetica,sans-Serif" font-size="10.00" fill="#000000">SimConfig/ConfigurableParam.h</text>
</a>
</g>
</g>
<!-- Node40&#45;&gt;Node41 -->
<g id="edge47" class="edge">
<title>Node40&#45;&gt;Node41</title>
<path fill="none" stroke="#191970" d="M1978.5096,-391.3416C2015.4523,-369.0546 2106.8566,-313.9116 2150.9425,-287.3152"/>
<polygon fill="#191970" stroke="#191970" points="2152.8406,-290.2577 2159.5952,-282.0952 2149.2247,-284.264 2152.8406,-290.2577"/>
</g>
<!-- Node47 -->
<g id="node48" class="node">
<title>Node47</title>
<g id="a_node48"><a xlink:href="../../da/d6b/ConfigurableParamHelper_8h.html" target="_top" xlink:title="SimConfig/ConfigurableParam\lHelper.h">
<polygon fill="none" stroke="#000000" points="2151,-324.5 2151,-354.5 2312,-354.5 2312,-324.5 2151,-324.5"/>
<text text-anchor="start" x="2159" y="-342.5" font-family="Helvetica,sans-Serif" font-size="10.00" fill="#000000">SimConfig/ConfigurableParam</text>
<text text-anchor="middle" x="2231.5" y="-331.5" font-family="Helvetica,sans-Serif" font-size="10.00" fill="#000000">Helper.h</text>
</a>
</g>
</g>
<!-- Node40&#45;&gt;Node47 -->
<g id="edge54" class="edge">
<title>Node40&#45;&gt;Node47</title>
<path fill="none" stroke="#191970" d="M2004.2361,-391.4581C2044.6189,-382.2256 2106.7544,-368.0199 2155.8547,-356.7944"/>
<polygon fill="#191970" stroke="#191970" points="2156.8374,-360.1601 2165.8058,-354.5193 2155.2772,-353.3362 2156.8374,-360.1601"/>
</g>
<!-- Node41&#45;&gt;Node39 -->
<g id="edge48" class="edge">
<title>Node41&#45;&gt;Node39</title>
<path fill="none" stroke="#191970" d="M2124.0557,-262.965C2070.0531,-252.8738 1982.7096,-236.3198 1907.5,-221 1894.9993,-218.4537 1881.306,-215.5377 1869.2486,-212.9271"/>
<polygon fill="#191970" stroke="#191970" points="1869.6605,-209.4349 1859.1449,-210.7284 1868.172,-216.2748 1869.6605,-209.4349"/>
</g>
<!-- Node42 -->
<g id="node43" class="node">
<title>Node42</title>
<polygon fill="none" stroke="#bfbfbf" points="1916.5,-196 1916.5,-215 1954.5,-215 1954.5,-196 1916.5,-196"/>
<text text-anchor="middle" x="1935.5" y="-203" font-family="Helvetica,sans-Serif" font-size="10.00" fill="#000000">map</text>
</g>
<!-- Node41&#45;&gt;Node42 -->
<g id="edge49" class="edge">
<title>Node41&#45;&gt;Node42</title>
<path fill="none" stroke="#191970" d="M2118.4487,-262.9351C2075.0386,-254.6391 2014.312,-240.8219 1963.5,-221 1962.4647,-220.5961 1961.4203,-220.1608 1960.3745,-219.7013"/>
<polygon fill="#191970" stroke="#191970" points="1961.6474,-216.4257 1951.134,-215.1144 1958.535,-222.6957 1961.6474,-216.4257"/>
</g>
<!-- Node43 -->
<g id="node44" class="node">
<title>Node43</title>
<polygon fill="none" stroke="#bfbfbf" points="1973,-196 1973,-215 2066,-215 2066,-196 1973,-196"/>
<text text-anchor="middle" x="2019.5" y="-203" font-family="Helvetica,sans-Serif" font-size="10.00" fill="#000000">unordered_map</text>
</g>
<!-- Node41&#45;&gt;Node43 -->
<g id="edge50" class="edge">
<title>Node41&#45;&gt;Node43</title>
<path fill="none" stroke="#191970" d="M2153.149,-262.9005C2126.3895,-251.4077 2081.3965,-232.0838 2051.0911,-219.068"/>
<polygon fill="#191970" stroke="#191970" points="2052.3792,-215.8121 2041.8095,-215.0817 2049.6167,-222.244 2052.3792,-215.8121"/>
</g>
<!-- Node44 -->
<g id="node45" class="node">
<title>Node44</title>
<polygon fill="none" stroke="#bfbfbf" points="2084,-190.5 2084,-220.5 2197,-220.5 2197,-190.5 2084,-190.5"/>
<text text-anchor="start" x="2092" y="-208.5" font-family="Helvetica,sans-Serif" font-size="10.00" fill="#000000">boost/property_tree</text>
<text text-anchor="middle" x="2140.5" y="-197.5" font-family="Helvetica,sans-Serif" font-size="10.00" fill="#000000">/ptree.hpp</text>
</g>
<!-- Node41&#45;&gt;Node44 -->
<g id="edge51" class="edge">
<title>Node41&#45;&gt;Node44</title>
<path fill="none" stroke="#191970" d="M2170.4854,-262.9005C2165.9666,-254.2503 2159.1304,-241.164 2153.1261,-229.6699"/>
<polygon fill="#191970" stroke="#191970" points="2156.0796,-227.7647 2148.3472,-220.5218 2149.8752,-231.0058 2156.0796,-227.7647"/>
</g>
<!-- Node45 -->
<g id="node46" class="node">
<title>Node45</title>
<polygon fill="none" stroke="#bfbfbf" points="2294,-196 2294,-215 2351,-215 2351,-196 2294,-196"/>
<text text-anchor="middle" x="2322.5" y="-203" font-family="Helvetica,sans-Serif" font-size="10.00" fill="#000000">typeinfo</text>
</g>
<!-- Node41&#45;&gt;Node45 -->
<g id="edge52" class="edge">
<title>Node41&#45;&gt;Node45</title>
<path fill="none" stroke="#191970" d="M2196.5615,-262.9005C2221.6681,-251.4574 2263.8077,-232.2509 2292.3598,-219.2374"/>
<polygon fill="#191970" stroke="#191970" points="2293.8297,-222.4139 2301.4776,-215.0817 2290.9265,-216.0443 2293.8297,-222.4139"/>
</g>
<!-- Node46 -->
<g id="node47" class="node">
<title>Node46</title>
<polygon fill="none" stroke="#bfbfbf" points="2215.5,-196 2215.5,-215 2275.5,-215 2275.5,-196 2215.5,-196"/>
<text text-anchor="middle" x="2245.5" y="-203" font-family="Helvetica,sans-Serif" font-size="10.00" fill="#000000">iostream</text>
</g>
<!-- Node41&#45;&gt;Node46 -->
<g id="edge53" class="edge">
<title>Node41&#45;&gt;Node46</title>
<path fill="none" stroke="#191970" d="M2185.5293,-262.9005C2196.6531,-252.2535 2214.7987,-234.8856 2228.221,-222.0385"/>
<polygon fill="#191970" stroke="#191970" points="2230.6852,-224.5247 2235.4893,-215.0817 2225.845,-219.4678 2230.6852,-224.5247"/>
</g>
<!-- Node47&#45;&gt;Node36 -->
<g id="edge57" class="edge">
<title>Node47&#45;&gt;Node36</title>
<path fill="none" stroke="#191970" d="M2187.4926,-324.4939C2157.5817,-314.2692 2117.128,-300.3913 2081.5,-288 2079.0904,-287.1619 2076.6076,-286.2955 2074.1061,-285.4202"/>
<polygon fill="#191970" stroke="#191970" points="2075.0754,-282.0512 2064.4805,-282.0427 2072.7576,-288.6563 2075.0754,-282.0512"/>
</g>
<!-- Node47&#45;&gt;Node41 -->
<g id="edge55" class="edge">
<title>Node47&#45;&gt;Node41</title>
<path fill="none" stroke="#191970" d="M2218.7927,-324.2967C2210.2371,-314.0605 2198.9335,-300.5366 2190.0221,-289.8746"/>
<polygon fill="#191970" stroke="#191970" points="2192.5849,-287.4832 2183.4862,-282.055 2187.2139,-291.9724 2192.5849,-287.4832"/>
</g>
<!-- Node47&#45;&gt;Node45 -->
<g id="edge58" class="edge">
<title>Node47&#45;&gt;Node45</title>
<path fill="none" stroke="#191970" d="M2243.0689,-324.3633C2250.7368,-314.2003 2260.9255,-300.4434 2269.5,-288 2284.3576,-266.4385 2300.4942,-241.0044 2311.0094,-224.1348"/>
<polygon fill="#191970" stroke="#191970" points="2314.2014,-225.6288 2316.4988,-215.286 2308.253,-221.9386 2314.2014,-225.6288"/>
</g>
<!-- Node48 -->
<g id="node49" class="node">
<title>Node48</title>
<polygon fill="none" stroke="#bfbfbf" points="2317,-263 2317,-282 2374,-282 2374,-263 2317,-263"/>
<text text-anchor="middle" x="2345.5" y="-270" font-family="Helvetica,sans-Serif" font-size="10.00" fill="#000000">TClass.h</text>
</g>
<!-- Node47&#45;&gt;Node48 -->
<g id="edge56" class="edge">
<title>Node47&#45;&gt;Node48</title>
<path fill="none" stroke="#191970" d="M2257.0838,-324.4639C2275.9531,-313.3741 2301.5021,-298.3584 2320.2839,-287.32"/>
<polygon fill="#191970" stroke="#191970" points="2322.3111,-290.1883 2329.159,-282.1039 2318.7643,-284.1534 2322.3111,-290.1883"/>
</g>
<!-- Node49 -->
<g id="node50" class="node">
<title>Node49</title>
<polygon fill="none" stroke="#bfbfbf" points="2392.5,-263 2392.5,-282 2440.5,-282 2440.5,-263 2392.5,-263"/>
<text text-anchor="middle" x="2416.5" y="-270" font-family="Helvetica,sans-Serif" font-size="10.00" fill="#000000">TFile.h</text>
</g>
<!-- Node47&#45;&gt;Node49 -->
<g id="edge59" class="edge">
<title>Node47&#45;&gt;Node49</title>
<path fill="none" stroke="#191970" d="M2279.5468,-324.4592C2309.4381,-314.771 2348.5225,-301.5006 2382.5,-288 2384.075,-287.3742 2385.6826,-286.7147 2387.2999,-286.0349"/>
<polygon fill="#191970" stroke="#191970" points="2388.7438,-289.2236 2396.5061,-282.0127 2385.9412,-282.809 2388.7438,-289.2236"/>
</g>
</g>
</svg>
