<?xml version="1.0" encoding="UTF-8" standalone="no"?>
<!DOCTYPE svg PUBLIC "-//W3C//DTD SVG 1.1//EN"
 "http://www.w3.org/Graphics/SVG/1.1/DTD/svg11.dtd">
<!-- Generated by graphviz version 2.40.1 (20161225.0304)
 -->
<!-- Title: o2::data_flow::TimeframeWriterDevice Pages: 1 -->
<!--zoomable 419 -->
<svg id="main" version="1.1" xmlns="http://www.w3.org/2000/svg" xmlns:xlink="http://www.w3.org/1999/xlink" xml:space="preserve" onload="init(evt)">
<style type="text/css"><![CDATA[
.edge:hover path { stroke: red; }
.edge:hover polygon { stroke: red; fill: red; }
]]></style>
<script type="text/javascript"><![CDATA[
var edges = document.getElementsByTagName('g');
if (edges && edges.length) {
  for (var i=0;i<edges.length;i++) {
    if (edges[i].id.substr(0,4)=='edge') {
      edges[i].setAttribute('class','edge');
    }
  }
}
]]></script>
        <defs>
                <circle id="rim" cx="0" cy="0" r="7"/>
                <circle id="rim2" cx="0" cy="0" r="3.5"/>
                <g id="zoomPlus">
                        <use xlink:href="#rim" fill="#404040">
                                <set attributeName="fill" to="#808080" begin="zoomplus.mouseover" end="zoomplus.mouseout"/>
                        </use>
                        <path d="M-4,0h8M0,-4v8" fill="none" stroke="white" stroke-width="1.5" pointer-events="none"/>
                </g>
                <g id="zoomMin">
                        <use xlink:href="#rim" fill="#404040">
                                <set attributeName="fill" to="#808080" begin="zoomminus.mouseover" end="zoomminus.mouseout"/>
                        </use>
                        <path d="M-4,0h8" fill="none" stroke="white" stroke-width="1.5" pointer-events="none"/>
                </g>
                <g id="dirArrow">
                        <path fill="none" stroke="white" stroke-width="1.5" d="M0,-3.0v7 M-2.5,-0.5L0,-3.0L2.5,-0.5"/>
                </g>
               <g id="resetDef">
                       <use xlink:href="#rim2" fill="#404040">
                               <set attributeName="fill" to="#808080" begin="reset.mouseover" end="reset.mouseout"/>
                       </use>
               </g>
        </defs>

<script type="text/javascript">
var viewWidth = 678;
var viewHeight = 419;
var sectionId = 'dynsection-1';
</script>
<script xlink:href="../../svgpan.js"/>
<svg id="graph" class="graph">
<g id="viewport">
<title>o2::data_flow::TimeframeWriterDevice</title>
<!-- Node3 -->
<g id="node1" class="node">
<title>Node3</title>
<polygon fill="#bfbfbf" stroke="#000000" points="193,-.5 193,-112.5 354,-112.5 354,-.5 193,-.5"/>
<text text-anchor="start" x="201" y="-100.5" font-family="Helvetica,sans-Serif" font-size="10.00" fill="#000000">o2::data_flow::Timeframe</text>
<text text-anchor="middle" x="273.5" y="-89.5" font-family="Helvetica,sans-Serif" font-size="10.00" fill="#000000">WriterDevice</text>
<polyline fill="none" stroke="#000000" points="193,-82.5 354,-82.5 "/>
<text text-anchor="middle" x="273.5" y="-70.5" font-family="Helvetica,sans-Serif" font-size="10.00" fill="#000000"> </text>
<polyline fill="none" stroke="#000000" points="193,-63.5 354,-63.5 "/>
<text text-anchor="start" x="201" y="-51.5" font-family="Helvetica,sans-Serif" font-size="10.00" fill="#000000">+ TimeframeWriterDevice()</text>
<text text-anchor="start" x="201" y="-40.5" font-family="Helvetica,sans-Serif" font-size="10.00" fill="#000000">+ ~TimeframeWriterDevice()</text>
<text text-anchor="start" x="201" y="-29.5" font-family="Helvetica,sans-Serif" font-size="10.00" fill="#000000">+ InitTask()</text>
<text text-anchor="start" x="201" y="-18.5" font-family="Helvetica,sans-Serif" font-size="10.00" fill="#000000">+ PostRun()</text>
<text text-anchor="start" x="201" y="-7.5" font-family="Helvetica,sans-Serif" font-size="10.00" fill="#000000"># Run()</text>
</g>
<!-- Node4 -->
<g id="node2" class="node">
<title>Node4</title>
<g id="a_node2"><a xlink:href="../../db/d18/classo2_1_1base_1_1O2Device.html" target="_top" xlink:title="{o2::base::O2Device\n||+ ~O2Device()\l+ GetMonitoring()\l+ Init()\l}">
<polygon fill="none" stroke="#000000" points="53,-215.5 53,-294.5 164,-294.5 164,-215.5 53,-215.5"/>
<text text-anchor="middle" x="108.5" y="-282.5" font-family="Helvetica,sans-Serif" font-size="10.00" fill="#000000">o2::base::O2Device</text>
<polyline fill="none" stroke="#000000" points="53,-275.5 164,-275.5 "/>
<text text-anchor="middle" x="108.5" y="-263.5" font-family="Helvetica,sans-Serif" font-size="10.00" fill="#000000"> </text>
<polyline fill="none" stroke="#000000" points="53,-256.5 164,-256.5 "/>
<text text-anchor="start" x="61" y="-244.5" font-family="Helvetica,sans-Serif" font-size="10.00" fill="#000000">+ ~O2Device()</text>
<text text-anchor="start" x="61" y="-233.5" font-family="Helvetica,sans-Serif" font-size="10.00" fill="#000000">+ GetMonitoring()</text>
<text text-anchor="start" x="61" y="-222.5" font-family="Helvetica,sans-Serif" font-size="10.00" fill="#000000">+ Init()</text>
</a>
</g>
</g>
<!-- Node4&#45;&gt;Node3 -->
<g id="edge1" class="edge">
<title>Node4&#45;&gt;Node3</title>
<path fill="none" stroke="#191970" d="M148.0176,-207.4043C167.1799,-184.3304 190.5336,-156.2173 211.5,-131 216.4486,-125.0481 221.6207,-118.8297 226.7761,-112.6327"/>
<polygon fill="none" stroke="#191970" points="145.1214,-205.4135 141.4253,-215.3427 150.5067,-209.8856 145.1214,-205.4135"/>
</g>
<!-- Node5 -->
<g id="node3" class="node">
<title>Node5</title>
<g id="a_node3"><a xlink:href="../../db/dfe/classFairMQDevice.html" target="_top" xlink:title="{FairMQDevice\n||}">
<polygon fill="none" stroke="#000000" points="0,-348 0,-405 83,-405 83,-348 0,-348"/>
<text text-anchor="middle" x="41.5" y="-393" font-family="Helvetica,sans-Serif" font-size="10.00" fill="#000000">FairMQDevice</text>
<polyline fill="none" stroke="#000000" points="0,-386 83,-386 "/>
<text text-anchor="middle" x="41.5" y="-374" font-family="Helvetica,sans-Serif" font-size="10.00" fill="#000000"> </text>
<polyline fill="none" stroke="#000000" points="0,-367 83,-367 "/>
<text text-anchor="middle" x="41.5" y="-355" font-family="Helvetica,sans-Serif" font-size="10.00" fill="#000000"> </text>
</a>
</g>
</g>
<!-- Node5&#45;&gt;Node4 -->
<g id="edge2" class="edge">
<title>Node5&#45;&gt;Node4</title>
<path fill="none" stroke="#191970" d="M62.288,-338.8023C70.0249,-324.772 78.8239,-308.8156 86.653,-294.6181"/>
<polygon fill="none" stroke="#191970" points="59.1421,-337.2592 57.3781,-347.7062 65.2719,-340.6395 59.1421,-337.2592"/>
</g>
<!-- Node6 -->
<g id="node4" class="node">
<title>Node6</title>
<polygon fill="none" stroke="#bfbfbf" points="101,-342.5 101,-410.5 252,-410.5 252,-342.5 101,-342.5"/>
<text text-anchor="start" x="109" y="-398.5" font-family="Helvetica,sans-Serif" font-size="10.00" fill="#000000">unique_ptr&lt; o2::monitoring</text>
<text text-anchor="middle" x="176.5" y="-387.5" font-family="Helvetica,sans-Serif" font-size="10.00" fill="#000000">::Monitoring &gt;</text>
<polyline fill="none" stroke="#bfbfbf" points="101,-380.5 252,-380.5 "/>
<text text-anchor="middle" x="176.5" y="-368.5" font-family="Helvetica,sans-Serif" font-size="10.00" fill="#000000"> </text>
<polyline fill="none" stroke="#bfbfbf" points="101,-361.5 252,-361.5 "/>
<text text-anchor="middle" x="176.5" y="-349.5" font-family="Helvetica,sans-Serif" font-size="10.00" fill="#000000"> </text>
</g>
<!-- Node6&#45;&gt;Node4 -->
<g id="edge3" class="edge">
<title>Node6&#45;&gt;Node4</title>
<path fill="none" stroke="#404040" d="M157.3772,-342.3321C150.9969,-330.9319 143.7459,-317.976 136.8186,-305.5987"/>
<polygon fill="none" stroke="#404040" points="136.7051,-305.3959 130.2843,-302.1136 130.8445,-294.9243 137.2653,-298.2065 136.7051,-305.3959"/>
<text text-anchor="middle" x="180" y="-316" font-family="Helvetica,sans-Serif" font-size="10.00" fill="#000000"> +monitoring</text>
</g>
<!-- Node7 -->
<g id="node5" class="node">
<title>Node7</title>
<polygon fill="none" stroke="#bfbfbf" points="182,-226.5 182,-283.5 237,-283.5 237,-226.5 182,-226.5"/>
<text text-anchor="middle" x="209.5" y="-271.5" font-family="Helvetica,sans-Serif" font-size="10.00" fill="#000000">fstream</text>
<polyline fill="none" stroke="#bfbfbf" points="182,-264.5 237,-264.5 "/>
<text text-anchor="middle" x="209.5" y="-252.5" font-family="Helvetica,sans-Serif" font-size="10.00" fill="#000000"> </text>
<polyline fill="none" stroke="#bfbfbf" points="182,-245.5 237,-245.5 "/>
<text text-anchor="middle" x="209.5" y="-233.5" font-family="Helvetica,sans-Serif" font-size="10.00" fill="#000000"> </text>
</g>
<!-- Node7&#45;&gt;Node3 -->
<g id="edge4" class="edge">
<title>Node7&#45;&gt;Node3</title>
<path fill="none" stroke="#404040" d="M211.4431,-226.448C213.8575,-200.8335 219.1456,-162.5338 230.5,-131 231.3498,-128.6399 232.2732,-126.2688 233.2569,-123.8983"/>
<polygon fill="none" stroke="#404040" points="233.307,-123.7872 232.1337,-116.6722 238.2501,-112.8526 239.4234,-119.9676 233.307,-123.7872"/>
<text text-anchor="middle" x="249.5" y="-161.5" font-family="Helvetica,sans-Serif" font-size="10.00" fill="#000000"> #mFile</text>
</g>
<!-- Node8 -->
<g id="node6" class="node">
<title>Node8</title>
<polygon fill="none" stroke="#bfbfbf" points="255.5,-226.5 255.5,-283.5 299.5,-283.5 299.5,-226.5 255.5,-226.5"/>
<text text-anchor="middle" x="277.5" y="-271.5" font-family="Helvetica,sans-Serif" font-size="10.00" fill="#000000">string</text>
<polyline fill="none" stroke="#bfbfbf" points="255.5,-264.5 299.5,-264.5 "/>
<text text-anchor="middle" x="277.5" y="-252.5" font-family="Helvetica,sans-Serif" font-size="10.00" fill="#000000"> </text>
<polyline fill="none" stroke="#bfbfbf" points="255.5,-245.5 299.5,-245.5 "/>
<text text-anchor="middle" x="277.5" y="-233.5" font-family="Helvetica,sans-Serif" font-size="10.00" fill="#000000"> </text>
</g>
<!-- Node8&#45;&gt;Node3 -->
<g id="edge5" class="edge">
<title>Node8&#45;&gt;Node3</title>
<path fill="none" stroke="#404040" d="M275.7669,-226.3946C275.2673,-217.0303 274.7816,-206.5746 274.5,-197 273.8071,-173.4386 273.4949,-147.6455 273.3746,-124.6628"/>
<polygon fill="none" stroke="#404040" points="273.3743,-124.5727 269.3508,-118.5884 273.3272,-112.5728 277.3508,-118.557 273.3743,-124.5727"/>
<text text-anchor="middle" x="323" y="-167" font-family="Helvetica,sans-Serif" font-size="10.00" fill="#000000"> #mOutFileName</text>
<text text-anchor="middle" x="323" y="-156" font-family="Helvetica,sans-Serif" font-size="10.00" fill="#000000">#mInChannelName</text>
</g>
<!-- Node9 -->
<g id="node7" class="node">
<title>Node9</title>
<polygon fill="none" stroke="#bfbfbf" points="371,-226.5 371,-283.5 416,-283.5 416,-226.5 371,-226.5"/>
<text text-anchor="middle" x="393.5" y="-271.5" font-family="Helvetica,sans-Serif" font-size="10.00" fill="#000000">size_t</text>
<polyline fill="none" stroke="#bfbfbf" points="371,-264.5 416,-264.5 "/>
<text text-anchor="middle" x="393.5" y="-252.5" font-family="Helvetica,sans-Serif" font-size="10.00" fill="#000000"> </text>
<polyline fill="none" stroke="#bfbfbf" points="371,-245.5 416,-245.5 "/>
<text text-anchor="middle" x="393.5" y="-233.5" font-family="Helvetica,sans-Serif" font-size="10.00" fill="#000000"> </text>
</g>
<!-- Node9&#45;&gt;Node3 -->
<g id="edge6" class="edge">
<title>Node9&#45;&gt;Node3</title>
<path fill="none" stroke="#404040" d="M394.1886,-226.3447C393.5563,-199.788 389.2752,-160.1099 371.5,-131 368.806,-126.5881 365.7463,-122.3449 362.4139,-118.2778"/>
<polygon fill="none" stroke="#404040" points="362.2024,-118.0421 355.218,-116.2483 354.1875,-109.1112 361.1719,-110.905 362.2024,-118.0421"/>
<text text-anchor="middle" x="440.5" y="-178" font-family="Helvetica,sans-Serif" font-size="10.00" fill="#000000"> #mMaxFileSize</text>
<text text-anchor="middle" x="440.5" y="-167" font-family="Helvetica,sans-Serif" font-size="10.00" fill="#000000">#mMaxTimeframes</text>
<text text-anchor="middle" x="440.5" y="-156" font-family="Helvetica,sans-Serif" font-size="10.00" fill="#000000">#mMaxFiles</text>
<text text-anchor="middle" x="440.5" y="-145" font-family="Helvetica,sans-Serif" font-size="10.00" fill="#000000">#mFileCount</text>
</g>
<!-- Node10 -->
<g id="node8" class="node">
<title>Node10</title>
<polygon fill="none" stroke="#bfbfbf" points="492.5,-226.5 492.5,-283.5 536.5,-283.5 536.5,-226.5 492.5,-226.5"/>
<text text-anchor="middle" x="514.5" y="-271.5" font-family="Helvetica,sans-Serif" font-size="10.00" fill="#000000">static</text>
<polyline fill="none" stroke="#bfbfbf" points="492.5,-264.5 536.5,-264.5 "/>
<text text-anchor="middle" x="514.5" y="-252.5" font-family="Helvetica,sans-Serif" font-size="10.00" fill="#000000"> </text>
<polyline fill="none" stroke="#bfbfbf" points="492.5,-245.5 536.5,-245.5 "/>
<text text-anchor="middle" x="514.5" y="-233.5" font-family="Helvetica,sans-Serif" font-size="10.00" fill="#000000"> </text>
</g>
<!-- Node10&#45;&gt;Node3 -->
<g id="edge7" class="edge">
<title>Node10&#45;&gt;Node3</title>
<path fill="none" stroke="#404040" d="M517.1693,-226.4455C518.1437,-198.8255 515.1402,-157.3806 492.5,-131 475.2357,-110.8834 417.5382,-91.7026 365.7003,-77.842"/>
<polygon fill="none" stroke="#404040" points="365.6671,-77.8334 358.8489,-80.1812 354.0593,-74.7904 360.8775,-72.4426 365.6671,-77.8334"/>
<text text-anchor="middle" x="592.5" y="-189" font-family="Helvetica,sans-Serif" font-size="10.00" fill="#000000"> +OptionKeyOutputFileName</text>
<text text-anchor="start" x="515.5" y="-178" font-family="Helvetica,sans-Serif" font-size="10.00" fill="#000000">+OptionKeyMaxTimeframesPer</text>
<text text-anchor="middle" x="592.5" y="-167" font-family="Helvetica,sans-Serif" font-size="10.00" fill="#000000">File</text>
<text text-anchor="middle" x="592.5" y="-156" font-family="Helvetica,sans-Serif" font-size="10.00" fill="#000000">+OptionKeyMaxFileSize</text>
<text text-anchor="middle" x="592.5" y="-145" font-family="Helvetica,sans-Serif" font-size="10.00" fill="#000000">+OptionKeyMaxFiles</text>
<text text-anchor="middle" x="592.5" y="-134" font-family="Helvetica,sans-Serif" font-size="10.00" fill="#000000">+OptionKeyInputChannelName</text>
</g>
</g>
</svg>
        <g id="navigator" transform="translate(0 0)" fill="#404254">
                <rect fill="#f2f5e9" fill-opacity="0.5" stroke="#606060" stroke-width=".5" x="0" y="0" width="60" height="60"/>
                <use id="zoomplus" xlink:href="#zoomPlus" x="17" y="9" onmousedown="handleZoom(evt,'in')"/>
                <use id="zoomminus" xlink:href="#zoomMin" x="42" y="9" onmousedown="handleZoom(evt,'out')"/>
                <use id="reset" xlink:href="#resetDef" x="30" y="36" onmousedown="handleReset()"/>
                <g id="arrowUp" xlink:href="#dirArrow" transform="translate(30 24)" onmousedown="handlePan(0,-1)">
                  <use xlink:href="#rim" fill="#404040">
                        <set attributeName="fill" to="#808080" begin="arrowUp.mouseover" end="arrowUp.mouseout"/>
                  </use>
                  <path fill="none" stroke="white" stroke-width="1.5" d="M0,-3.0v7 M-2.5,-0.5L0,-3.0L2.5,-0.5"/>
                </g>
                <g id="arrowRight" xlink:href="#dirArrow" transform="rotate(90) translate(36 -43)" onmousedown="handlePan(1,0)">
                  <use xlink:href="#rim" fill="#404040">
                        <set attributeName="fill" to="#808080" begin="arrowRight.mouseover" end="arrowRight.mouseout"/>
                  </use>
                  <path fill="none" stroke="white" stroke-width="1.5" d="M0,-3.0v7 M-2.5,-0.5L0,-3.0L2.5,-0.5"/>
                </g>
                <g id="arrowDown" xlink:href="#dirArrow" transform="rotate(180) translate(-30 -48)" onmousedown="handlePan(0,1)">
                  <use xlink:href="#rim" fill="#404040">
                        <set attributeName="fill" to="#808080" begin="arrowDown.mouseover" end="arrowDown.mouseout"/>
                  </use>
                  <path fill="none" stroke="white" stroke-width="1.5" d="M0,-3.0v7 M-2.5,-0.5L0,-3.0L2.5,-0.5"/>
                </g>
                <g id="arrowLeft" xlink:href="#dirArrow" transform="rotate(270) translate(-36 17)" onmousedown="handlePan(-1,0)">
                  <use xlink:href="#rim" fill="#404040">
                        <set attributeName="fill" to="#808080" begin="arrowLeft.mouseover" end="arrowLeft.mouseout"/>
                  </use>
                  <path fill="none" stroke="white" stroke-width="1.5" d="M0,-3.0v7 M-2.5,-0.5L0,-3.0L2.5,-0.5"/>
                </g>
        </g>
        <svg viewBox="0 0 15 15" width="100%" height="30px" preserveAspectRatio="xMaxYMin meet">
         <g id="arrow_out" transform="scale(0.3 0.3)">
          <a xlink:href="classo2_1_1data__flow_1_1TimeframeWriterDevice__coll__graph_org.svg" target="_base">
           <rect id="button" ry="5" rx="5" y="6" x="6" height="38" width="38"
                fill="#f2f5e9" fill-opacity="0.5" stroke="#606060" stroke-width="1.0"/>
           <path id="arrow"
             d="M 11.500037,31.436501 C 11.940474,20.09759 22.043105,11.32322 32.158766,21.979434 L 37.068811,17.246167 C 37.068811,17.246167 37.088388,32 37.088388,32 L 22.160133,31.978069 C 22.160133,31.978069 26.997745,27.140456 26.997745,27.140456 C 18.528582,18.264221 13.291696,25.230495 11.500037,31.436501 z"
             style="fill:#404040;"/>
          </a>
         </g>
        </svg>
</svg>
